<?xml version="1.0"?>
<!-- Generated by SVGo and Plotinum VG -->
<svg width="1920pt" height="1080pt" viewBox="0 0 1920 1080"
	xmlns="http://www.w3.org/2000/svg"
	xmlns:xlink="http://www.w3.org/1999/xlink">
<g transform="scale(1, -1) translate(0, -1080)">
<path d="M0,0L1920,0L1920,1080L0,1080Z" style="fill:#FFFFFF" />
<text x="865.58" y="-1040.9" transform="scale(1, -1)"
	style="font-family:Liberation Serif;font-variant:normal;font-weight:normal;font-style:normal;font-size:50px">pushback</text>
<text x="881.52" y="-9.7559" transform="scale(1, -1)"
	style="font-family:Liberation Serif;font-variant:normal;font-weight:normal;font-style:normal;font-size:30px">Number of elements</text>
<text x="92.962" y="-39.727" transform="scale(1, -1)"
	style="font-family:Liberation Serif;font-variant:normal;font-weight:normal;font-style:normal;font-size:20px">100000</text>
<text x="288.74" y="-39.727" transform="scale(1, -1)"
	style="font-family:Liberation Serif;font-variant:normal;font-weight:normal;font-style:normal;font-size:20px">200000</text>
<text x="484.53" y="-39.727" transform="scale(1, -1)"
	style="font-family:Liberation Serif;font-variant:normal;font-weight:normal;font-style:normal;font-size:20px">300000</text>
<text x="680.31" y="-39.727" transform="scale(1, -1)"
	style="font-family:Liberation Serif;font-variant:normal;font-weight:normal;font-style:normal;font-size:20px">400000</text>
<text x="876.09" y="-39.727" transform="scale(1, -1)"
	style="font-family:Liberation Serif;font-variant:normal;font-weight:normal;font-style:normal;font-size:20px">500000</text>
<text x="1071.9" y="-39.727" transform="scale(1, -1)"
	style="font-family:Liberation Serif;font-variant:normal;font-weight:normal;font-style:normal;font-size:20px">600000</text>
<text x="1267.7" y="-39.727" transform="scale(1, -1)"
	style="font-family:Liberation Serif;font-variant:normal;font-weight:normal;font-style:normal;font-size:20px">700000</text>
<text x="1463.4" y="-39.727" transform="scale(1, -1)"
	style="font-family:Liberation Serif;font-variant:normal;font-weight:normal;font-style:normal;font-size:20px">800000</text>
<text x="1659.2" y="-39.727" transform="scale(1, -1)"
	style="font-family:Liberation Serif;font-variant:normal;font-weight:normal;font-style:normal;font-size:20px">900000</text>
<text x="1850" y="-39.727" transform="scale(1, -1)"
	style="font-family:Liberation Serif;font-variant:normal;font-weight:normal;font-style:normal;font-size:20px">1000000</text>
<path d="M122.96,55.371L122.96,63.371" style="fill:none;stroke:#000000;stroke-width:0.5" />
<path d="M318.74,55.371L318.74,63.371" style="fill:none;stroke:#000000;stroke-width:0.5" />
<path d="M514.53,55.371L514.53,63.371" style="fill:none;stroke:#000000;stroke-width:0.5" />
<path d="M710.31,55.371L710.31,63.371" style="fill:none;stroke:#000000;stroke-width:0.5" />
<path d="M906.09,55.371L906.09,63.371" style="fill:none;stroke:#000000;stroke-width:0.5" />
<path d="M1101.9,55.371L1101.9,63.371" style="fill:none;stroke:#000000;stroke-width:0.5" />
<path d="M1297.7,55.371L1297.7,63.371" style="fill:none;stroke:#000000;stroke-width:0.5" />
<path d="M1493.4,55.371L1493.4,63.371" style="fill:none;stroke:#000000;stroke-width:0.5" />
<path d="M1689.2,55.371L1689.2,63.371" style="fill:none;stroke:#000000;stroke-width:0.5" />
<path d="M1885,55.371L1885,63.371" style="fill:none;stroke:#000000;stroke-width:0.5" />
<path d="M122.96,63.371L1885,63.371" style="fill:none;stroke:#000000;stroke-width:0.5" />
<g transform="rotate(90)">
<text x="537.24" y="23.467" transform="scale(1, -1)"
	style="font-family:Liberation Serif;font-variant:normal;font-weight:normal;font-style:normal;font-size:30px">μs</text>
</g>
<text x="49.712" y="-227.78" transform="scale(1, -1)"
	style="font-family:Liberation Serif;font-variant:normal;font-weight:normal;font-style:normal;font-size:20px">20000</text>
<text x="49.712" y="-616.06" transform="scale(1, -1)"
	style="font-family:Liberation Serif;font-variant:normal;font-weight:normal;font-style:normal;font-size:20px">60000</text>
<text x="39.712" y="-1004.3" transform="scale(1, -1)"
	style="font-family:Liberation Serif;font-variant:normal;font-weight:normal;font-style:normal;font-size:20px">100000</text>
<path d="M104.71,232.35L112.71,232.35" style="fill:none;stroke:#000000;stroke-width:0.5" />
<path d="M104.71,620.63L112.71,620.63" style="fill:none;stroke:#000000;stroke-width:0.5" />
<path d="M104.71,1008.9L112.71,1008.9" style="fill:none;stroke:#000000;stroke-width:0.5" />
<path d="M108.71,135.28L112.71,135.28" style="fill:none;stroke:#000000;stroke-width:0.5" />
<path d="M108.71,329.42L112.71,329.42" style="fill:none;stroke:#000000;stroke-width:0.5" />
<path d="M108.71,426.49L112.71,426.49" style="fill:none;stroke:#000000;stroke-width:0.5" />
<path d="M108.71,523.56L112.71,523.56" style="fill:none;stroke:#000000;stroke-width:0.5" />
<path d="M108.71,717.7L112.71,717.7" style="fill:none;stroke:#000000;stroke-width:0.5" />
<path d="M108.71,814.77L112.71,814.77" style="fill:none;stroke:#000000;stroke-width:0.5" />
<path d="M108.71,911.84L112.71,911.84" style="fill:none;stroke:#000000;stroke-width:0.5" />
<path d="M112.71,77.61L112.71,1024.6" style="fill:none;stroke:#000000;stroke-width:0.5" />
<path d="M122.96,77.61L122.96,1024.6" style="fill:none;stroke:#808080;stroke-width:0.25" />
<path d="M318.74,77.61L318.74,1024.6" style="fill:none;stroke:#808080;stroke-width:0.25" />
<path d="M514.53,77.61L514.53,1024.6" style="fill:none;stroke:#808080;stroke-width:0.25" />
<path d="M710.31,77.61L710.31,1024.6" style="fill:none;stroke:#808080;stroke-width:0.25" />
<path d="M906.09,77.61L906.09,1024.6" style="fill:none;stroke:#808080;stroke-width:0.25" />
<path d="M1101.9,77.61L1101.9,1024.6" style="fill:none;stroke:#808080;stroke-width:0.25" />
<path d="M1297.7,77.61L1297.7,1024.6" style="fill:none;stroke:#808080;stroke-width:0.25" />
<path d="M1493.4,77.61L1493.4,1024.6" style="fill:none;stroke:#808080;stroke-width:0.25" />
<path d="M1689.2,77.61L1689.2,1024.6" style="fill:none;stroke:#808080;stroke-width:0.25" />
<path d="M1885,77.61L1885,1024.6" style="fill:none;stroke:#808080;stroke-width:0.25" />
<path d="M122.96,232.35L1885,232.35" style="fill:none;stroke:#808080;stroke-width:0.25" />
<path d="M122.96,620.63L1885,620.63" style="fill:none;stroke:#808080;stroke-width:0.25" />
<path d="M122.96,1008.9L1885,1008.9" style="fill:none;stroke:#808080;stroke-width:0.25" />
<path d="M122.96,112.79L318.74,161.43L514.53,225.88L710.31,283.82L906.09,349.2L1101.9,602.53L1297.7,632.25L1493.4,768.8L1689.2,840.13L1885,934.95" style="fill:none;stroke:#FF0000" />
<path d="M125.46,112.79A2.5,2.5 0 1 1 120.46,112.79A2.5,2.5 0 1 1 125.46,112.79Z" style="fill:none;stroke:#FF0000;stroke-width:0.5" />
<path d="M321.24,161.43A2.5,2.5 0 1 1 316.24,161.43A2.5,2.5 0 1 1 321.24,161.43Z" style="fill:none;stroke:#FF0000;stroke-width:0.5" />
<path d="M517.03,225.88A2.5,2.5 0 1 1 512.03,225.88A2.5,2.5 0 1 1 517.03,225.88Z" style="fill:none;stroke:#FF0000;stroke-width:0.5" />
<path d="M712.81,283.82A2.5,2.5 0 1 1 707.81,283.82A2.5,2.5 0 1 1 712.81,283.82Z" style="fill:none;stroke:#FF0000;stroke-width:0.5" />
<path d="M908.59,349.2A2.5,2.5 0 1 1 903.59,349.2A2.5,2.5 0 1 1 908.59,349.2Z" style="fill:none;stroke:#FF0000;stroke-width:0.5" />
<path d="M1104.4,602.53A2.5,2.5 0 1 1 1099.4,602.53A2.5,2.5 0 1 1 1104.4,602.53Z" style="fill:none;stroke:#FF0000;stroke-width:0.5" />
<path d="M1300.2,632.25A2.5,2.5 0 1 1 1295.2,632.25A2.5,2.5 0 1 1 1300.2,632.25Z" style="fill:none;stroke:#FF0000;stroke-width:0.5" />
<path d="M1495.9,768.8A2.5,2.5 0 1 1 1490.9,768.8A2.5,2.5 0 1 1 1495.9,768.8Z" style="fill:none;stroke:#FF0000;stroke-width:0.5" />
<path d="M1691.7,840.13A2.5,2.5 0 1 1 1686.7,840.13A2.5,2.5 0 1 1 1691.7,840.13Z" style="fill:none;stroke:#FF0000;stroke-width:0.5" />
<path d="M1887.5,934.95A2.5,2.5 0 1 1 1882.5,934.95A2.5,2.5 0 1 1 1887.5,934.95Z" style="fill:none;stroke:#FF0000;stroke-width:0.5" />
<path d="M122.96,95.733L318.74,133.54L514.53,184.18L710.31,234.48L906.09,289.9L1101.9,329.43L1297.7,444.41L1493.4,634.41L1689.2,646.75L1885,773.51" style="fill:none;stroke:#0000FF" />
<path d="M125.46,95.733A2.5,2.5 0 1 1 120.46,95.733A2.5,2.5 0 1 1 125.46,95.733Z" style="fill:none;stroke:#0000FF;stroke-width:0.5" />
<path d="M321.24,133.54A2.5,2.5 0 1 1 316.24,133.54A2.5,2.5 0 1 1 321.24,133.54Z" style="fill:none;stroke:#0000FF;stroke-width:0.5" />
<path d="M517.03,184.18A2.5,2.5 0 1 1 512.03,184.18A2.5,2.5 0 1 1 517.03,184.18Z" style="fill:none;stroke:#0000FF;stroke-width:0.5" />
<path d="M712.81,234.48A2.5,2.5 0 1 1 707.81,234.48A2.5,2.5 0 1 1 712.81,234.48Z" style="fill:none;stroke:#0000FF;stroke-width:0.5" />
<path d="M908.59,289.9A2.5,2.5 0 1 1 903.59,289.9A2.5,2.5 0 1 1 908.59,289.9Z" style="fill:none;stroke:#0000FF;stroke-width:0.5" />
<path d="M1104.4,329.43A2.5,2.5 0 1 1 1099.4,329.43A2.5,2.5 0 1 1 1104.4,329.43Z" style="fill:none;stroke:#0000FF;stroke-width:0.5" />
<path d="M1300.2,444.41A2.5,2.5 0 1 1 1295.2,444.41A2.5,2.5 0 1 1 1300.2,444.41Z" style="fill:none;stroke:#0000FF;stroke-width:0.5" />
<path d="M1495.9,634.41A2.5,2.5 0 1 1 1490.9,634.41A2.5,2.5 0 1 1 1495.9,634.41Z" style="fill:none;stroke:#0000FF;stroke-width:0.5" />
<path d="M1691.7,646.75A2.5,2.5 0 1 1 1686.7,646.75A2.5,2.5 0 1 1 1691.7,646.75Z" style="fill:none;stroke:#0000FF;stroke-width:0.5" />
<path d="M1887.5,773.51A2.5,2.5 0 1 1 1882.5,773.51A2.5,2.5 0 1 1 1887.5,773.51Z" style="fill:none;stroke:#0000FF;stroke-width:0.5" />
<path d="M122.96,87.521L318.74,140.03L514.53,211.72L710.31,243.9L906.09,291.28L1101.9,426.64L1297.7,491.63L1493.4,490.7L1689.2,508.97L1885,548.58" style="fill:none;stroke:#00FF00" />
<path d="M125.46,87.521A2.5,2.5 0 1 1 120.46,87.521A2.5,2.5 0 1 1 125.46,87.521Z" style="fill:none;stroke:#00FF00;stroke-width:0.5" />
<path d="M321.24,140.03A2.5,2.5 0 1 1 316.24,140.03A2.5,2.5 0 1 1 321.24,140.03Z" style="fill:none;stroke:#00FF00;stroke-width:0.5" />
<path d="M517.03,211.72A2.5,2.5 0 1 1 512.03,211.72A2.5,2.5 0 1 1 517.03,211.72Z" style="fill:none;stroke:#00FF00;stroke-width:0.5" />
<path d="M712.81,243.9A2.5,2.5 0 1 1 707.81,243.9A2.5,2.5 0 1 1 712.81,243.9Z" style="fill:none;stroke:#00FF00;stroke-width:0.5" />
<path d="M908.59,291.28A2.5,2.5 0 1 1 903.59,291.28A2.5,2.5 0 1 1 908.59,291.28Z" style="fill:none;stroke:#00FF00;stroke-width:0.5" />
<path d="M1104.4,426.64A2.5,2.5 0 1 1 1099.4,426.64A2.5,2.5 0 1 1 1104.4,426.64Z" style="fill:none;stroke:#00FF00;stroke-width:0.5" />
<path d="M1300.2,491.63A2.5,2.5 0 1 1 1295.2,491.63A2.5,2.5 0 1 1 1300.2,491.63Z" style="fill:none;stroke:#00FF00;stroke-width:0.5" />
<path d="M1495.9,490.7A2.5,2.5 0 1 1 1490.9,490.7A2.5,2.5 0 1 1 1495.9,490.7Z" style="fill:none;stroke:#00FF00;stroke-width:0.5" />
<path d="M1691.7,508.97A2.5,2.5 0 1 1 1686.7,508.97A2.5,2.5 0 1 1 1691.7,508.97Z" style="fill:none;stroke:#00FF00;stroke-width:0.5" />
<path d="M1887.5,548.58A2.5,2.5 0 1 1 1882.5,548.58A2.5,2.5 0 1 1 1887.5,548.58Z" style="fill:none;stroke:#00FF00;stroke-width:0.5" />
<path d="M122.96,77.61L318.74,100.06L514.53,150.51L710.31,195.69L906.09,230.25L1101.9,253.61L1297.7,290.2L1493.4,374.99L1689.2,426.17L1885,425.26" style="fill:none;stroke:#FF8000" />
<path d="M125.46,77.61A2.5,2.5 0 1 1 120.46,77.61A2.5,2.5 0 1 1 125.46,77.61Z" style="fill:none;stroke:#FF8000;stroke-width:0.5" />
<path d="M321.24,100.06A2.5,2.5 0 1 1 316.24,100.06A2.5,2.5 0 1 1 321.24,100.06Z" style="fill:none;stroke:#FF8000;stroke-width:0.5" />
<path d="M517.03,150.51A2.5,2.5 0 1 1 512.03,150.51A2.5,2.5 0 1 1 517.03,150.51Z" style="fill:none;stroke:#FF8000;stroke-width:0.5" />
<path d="M712.81,195.69A2.5,2.5 0 1 1 707.81,195.69A2.5,2.5 0 1 1 712.81,195.69Z" style="fill:none;stroke:#FF8000;stroke-width:0.5" />
<path d="M908.59,230.25A2.5,2.5 0 1 1 903.59,230.25A2.5,2.5 0 1 1 908.59,230.25Z" style="fill:none;stroke:#FF8000;stroke-width:0.5" />
<path d="M1104.4,253.61A2.5,2.5 0 1 1 1099.4,253.61A2.5,2.5 0 1 1 1104.4,253.61Z" style="fill:none;stroke:#FF8000;stroke-width:0.5" />
<path d="M1300.2,290.2A2.5,2.5 0 1 1 1295.2,290.2A2.5,2.5 0 1 1 1300.2,290.2Z" style="fill:none;stroke:#FF8000;stroke-width:0.5" />
<path d="M1495.9,374.99A2.5,2.5 0 1 1 1490.9,374.99A2.5,2.5 0 1 1 1495.9,374.99Z" style="fill:none;stroke:#FF8000;stroke-width:0.5" />
<path d="M1691.7,426.17A2.5,2.5 0 1 1 1686.7,426.17A2.5,2.5 0 1 1 1691.7,426.17Z" style="fill:none;stroke:#FF8000;stroke-width:0.5" />
<path d="M1887.5,425.26A2.5,2.5 0 1 1 1882.5,425.26A2.5,2.5 0 1 1 1887.5,425.26Z" style="fill:none;stroke:#FF8000;stroke-width:0.5" />
<path d="M1900,146.4L1920,146.4" style="fill:none;stroke:#FF0000" />
<path d="M1912.5,146.4A2.5,2.5 0 1 1 1907.5,146.4A2.5,2.5 0 1 1 1912.5,146.4Z" style="fill:none;stroke:#FF0000;stroke-width:0.5" />
<text x="1823.3" y="-141.42" transform="scale(1, -1)"
	style="font-family:Liberation Serif;font-variant:normal;font-weight:normal;font-style:normal;font-size:24px">std::list</text>
<path d="M1900,126.03L1920,126.03" style="fill:none;stroke:#0000FF" />
<path d="M1912.5,126.03A2.5,2.5 0 1 1 1907.5,126.03A2.5,2.5 0 1 1 1912.5,126.03Z" style="fill:none;stroke:#0000FF;stroke-width:0.5" />
<text x="1795.4" y="-121.05" transform="scale(1, -1)"
	style="font-family:Liberation Serif;font-variant:normal;font-weight:normal;font-style:normal;font-size:24px">std::deque</text>
<path d="M1900,105.66L1920,105.66" style="fill:none;stroke:#00FF00" />
<path d="M1912.5,105.66A2.5,2.5 0 1 1 1907.5,105.66A2.5,2.5 0 1 1 1912.5,105.66Z" style="fill:none;stroke:#00FF00;stroke-width:0.5" />
<text x="1792.7" y="-100.69" transform="scale(1, -1)"
	style="font-family:Liberation Serif;font-variant:normal;font-weight:normal;font-style:normal;font-size:24px">std::vector</text>
<path d="M1900,85.294L1920,85.294" style="fill:none;stroke:#FF8000" />
<path d="M1912.5,85.294A2.5,2.5 0 1 1 1907.5,85.294A2.5,2.5 0 1 1 1912.5,85.294Z" style="fill:none;stroke:#FF8000;stroke-width:0.5" />
<text x="1669.4" y="-80.319" transform="scale(1, -1)"
	style="font-family:Liberation Serif;font-variant:normal;font-weight:normal;font-style:normal;font-size:24px">preallocated std::vector</text>
</g>
</svg>
