<?xml version="1.0"?>
<!-- Generated by SVGo and Plotinum VG -->
<svg width="1920pt" height="1080pt" viewBox="0 0 1920 1080"
	xmlns="http://www.w3.org/2000/svg"
	xmlns:xlink="http://www.w3.org/1999/xlink">
<g transform="scale(1, -1) translate(0, -1080)">
<path d="M0,0L1920,0L1920,1080L0,1080Z" style="fill:#FFFFFF" />
<text x="744.09" y="-1040.9" transform="scale(1, -1)"
	style="font-family:Liberation Serif;font-variant:normal;font-weight:normal;font-style:normal;font-size:50px">pushback - Log Scale</text>
<text x="876.52" y="-9.7559" transform="scale(1, -1)"
	style="font-family:Liberation Serif;font-variant:normal;font-weight:normal;font-style:normal;font-size:30px">Number of elements</text>
<text x="82.962" y="-39.727" transform="scale(1, -1)"
	style="font-family:Liberation Serif;font-variant:normal;font-weight:normal;font-style:normal;font-size:20px">100000</text>
<text x="279.86" y="-39.727" transform="scale(1, -1)"
	style="font-family:Liberation Serif;font-variant:normal;font-weight:normal;font-style:normal;font-size:20px">200000</text>
<text x="476.75" y="-39.727" transform="scale(1, -1)"
	style="font-family:Liberation Serif;font-variant:normal;font-weight:normal;font-style:normal;font-size:20px">300000</text>
<text x="673.64" y="-39.727" transform="scale(1, -1)"
	style="font-family:Liberation Serif;font-variant:normal;font-weight:normal;font-style:normal;font-size:20px">400000</text>
<text x="870.53" y="-39.727" transform="scale(1, -1)"
	style="font-family:Liberation Serif;font-variant:normal;font-weight:normal;font-style:normal;font-size:20px">500000</text>
<text x="1067.4" y="-39.727" transform="scale(1, -1)"
	style="font-family:Liberation Serif;font-variant:normal;font-weight:normal;font-style:normal;font-size:20px">600000</text>
<text x="1264.3" y="-39.727" transform="scale(1, -1)"
	style="font-family:Liberation Serif;font-variant:normal;font-weight:normal;font-style:normal;font-size:20px">700000</text>
<text x="1461.2" y="-39.727" transform="scale(1, -1)"
	style="font-family:Liberation Serif;font-variant:normal;font-weight:normal;font-style:normal;font-size:20px">800000</text>
<text x="1658.1" y="-39.727" transform="scale(1, -1)"
	style="font-family:Liberation Serif;font-variant:normal;font-weight:normal;font-style:normal;font-size:20px">900000</text>
<text x="1850" y="-39.727" transform="scale(1, -1)"
	style="font-family:Liberation Serif;font-variant:normal;font-weight:normal;font-style:normal;font-size:20px">1000000</text>
<path d="M112.96,55.371L112.96,63.371" style="fill:none;stroke:#000000;stroke-width:0.5" />
<path d="M309.86,55.371L309.86,63.371" style="fill:none;stroke:#000000;stroke-width:0.5" />
<path d="M506.75,55.371L506.75,63.371" style="fill:none;stroke:#000000;stroke-width:0.5" />
<path d="M703.64,55.371L703.64,63.371" style="fill:none;stroke:#000000;stroke-width:0.5" />
<path d="M900.53,55.371L900.53,63.371" style="fill:none;stroke:#000000;stroke-width:0.5" />
<path d="M1097.4,55.371L1097.4,63.371" style="fill:none;stroke:#000000;stroke-width:0.5" />
<path d="M1294.3,55.371L1294.3,63.371" style="fill:none;stroke:#000000;stroke-width:0.5" />
<path d="M1491.2,55.371L1491.2,63.371" style="fill:none;stroke:#000000;stroke-width:0.5" />
<path d="M1688.1,55.371L1688.1,63.371" style="fill:none;stroke:#000000;stroke-width:0.5" />
<path d="M1885,55.371L1885,63.371" style="fill:none;stroke:#000000;stroke-width:0.5" />
<path d="M112.96,63.371L1885,63.371" style="fill:none;stroke:#000000;stroke-width:0.5" />
<g transform="rotate(90)">
<text x="508.08" y="23.467" transform="scale(1, -1)"
	style="font-family:Liberation Serif;font-variant:normal;font-weight:normal;font-style:normal;font-size:30px">log(μs)</text>
</g>
<text x="39.712" y="-486.1" transform="scale(1, -1)"
	style="font-family:Liberation Serif;font-variant:normal;font-weight:normal;font-style:normal;font-size:20px">10000</text>
<text x="39.712" y="-822.48" transform="scale(1, -1)"
	style="font-family:Liberation Serif;font-variant:normal;font-weight:normal;font-style:normal;font-size:20px">30000</text>
<text x="39.712" y="-978.9" transform="scale(1, -1)"
	style="font-family:Liberation Serif;font-variant:normal;font-weight:normal;font-style:normal;font-size:20px">50000</text>
<path d="M94.712,490.67L102.71,490.67" style="fill:none;stroke:#000000;stroke-width:0.5" />
<path d="M94.712,827.05L102.71,827.05" style="fill:none;stroke:#000000;stroke-width:0.5" />
<path d="M94.712,983.47L102.71,983.47" style="fill:none;stroke:#000000;stroke-width:0.5" />
<path d="M98.712,702.9L102.71,702.9" style="fill:none;stroke:#000000;stroke-width:0.5" />
<path d="M98.712,915.14L102.71,915.14" style="fill:none;stroke:#000000;stroke-width:0.5" />
<path d="M102.71,77.61L102.71,1024.6" style="fill:none;stroke:#000000;stroke-width:0.5" />
<path d="M112.96,77.61L112.96,1024.6" style="fill:none;stroke:#808080;stroke-width:0.25" />
<path d="M309.86,77.61L309.86,1024.6" style="fill:none;stroke:#808080;stroke-width:0.25" />
<path d="M506.75,77.61L506.75,1024.6" style="fill:none;stroke:#808080;stroke-width:0.25" />
<path d="M703.64,77.61L703.64,1024.6" style="fill:none;stroke:#808080;stroke-width:0.25" />
<path d="M900.53,77.61L900.53,1024.6" style="fill:none;stroke:#808080;stroke-width:0.25" />
<path d="M1097.4,77.61L1097.4,1024.6" style="fill:none;stroke:#808080;stroke-width:0.25" />
<path d="M1294.3,77.61L1294.3,1024.6" style="fill:none;stroke:#808080;stroke-width:0.25" />
<path d="M1491.2,77.61L1491.2,1024.6" style="fill:none;stroke:#808080;stroke-width:0.25" />
<path d="M1688.1,77.61L1688.1,1024.6" style="fill:none;stroke:#808080;stroke-width:0.25" />
<path d="M1885,77.61L1885,1024.6" style="fill:none;stroke:#808080;stroke-width:0.25" />
<path d="M112.96,490.67L1885,490.67" style="fill:none;stroke:#808080;stroke-width:0.25" />
<path d="M112.96,827.05L1885,827.05" style="fill:none;stroke:#808080;stroke-width:0.25" />
<path d="M112.96,983.47L1885,983.47" style="fill:none;stroke:#808080;stroke-width:0.25" />
<path d="M112.96,327.18L309.86,323.61L506.75,461.38L703.64,661.93L900.53,748.36L1097.4,721.22L1294.3,800.49L1491.2,916.48L1688.1,878.44L1885,960.31" style="fill:none;stroke:#FF0000" />
<path d="M115.46,327.18A2.5,2.5 0 1 1 110.46,327.18A2.5,2.5 0 1 1 115.46,327.18Z" style="fill:none;stroke:#FF0000;stroke-width:0.5" />
<path d="M312.36,323.61A2.5,2.5 0 1 1 307.36,323.61A2.5,2.5 0 1 1 312.36,323.61Z" style="fill:none;stroke:#FF0000;stroke-width:0.5" />
<path d="M509.25,461.38A2.5,2.5 0 1 1 504.25,461.38A2.5,2.5 0 1 1 509.25,461.38Z" style="fill:none;stroke:#FF0000;stroke-width:0.5" />
<path d="M706.14,661.93A2.5,2.5 0 1 1 701.14,661.93A2.5,2.5 0 1 1 706.14,661.93Z" style="fill:none;stroke:#FF0000;stroke-width:0.5" />
<path d="M903.03,748.36A2.5,2.5 0 1 1 898.03,748.36A2.5,2.5 0 1 1 903.03,748.36Z" style="fill:none;stroke:#FF0000;stroke-width:0.5" />
<path d="M1099.9,721.22A2.5,2.5 0 1 1 1094.9,721.22A2.5,2.5 0 1 1 1099.9,721.22Z" style="fill:none;stroke:#FF0000;stroke-width:0.5" />
<path d="M1296.8,800.49A2.5,2.5 0 1 1 1291.8,800.49A2.5,2.5 0 1 1 1296.8,800.49Z" style="fill:none;stroke:#FF0000;stroke-width:0.5" />
<path d="M1493.7,916.48A2.5,2.5 0 1 1 1488.7,916.48A2.5,2.5 0 1 1 1493.7,916.48Z" style="fill:none;stroke:#FF0000;stroke-width:0.5" />
<path d="M1690.6,878.44A2.5,2.5 0 1 1 1685.6,878.44A2.5,2.5 0 1 1 1690.6,878.44Z" style="fill:none;stroke:#FF0000;stroke-width:0.5" />
<path d="M1887.5,960.31A2.5,2.5 0 1 1 1882.5,960.31A2.5,2.5 0 1 1 1887.5,960.31Z" style="fill:none;stroke:#FF0000;stroke-width:0.5" />
<path d="M112.96,161.87L309.86,406.39L506.75,576.79L703.64,629.78L900.53,704.57L1097.4,791L1294.3,782.48L1491.2,816.01L1688.1,833.8L1885,864.18" style="fill:none;stroke:#0000FF" />
<path d="M115.46,161.87A2.5,2.5 0 1 1 110.46,161.87A2.5,2.5 0 1 1 115.46,161.87Z" style="fill:none;stroke:#0000FF;stroke-width:0.5" />
<path d="M312.36,406.39A2.5,2.5 0 1 1 307.36,406.39A2.5,2.5 0 1 1 312.36,406.39Z" style="fill:none;stroke:#0000FF;stroke-width:0.5" />
<path d="M509.25,576.79A2.5,2.5 0 1 1 504.25,576.79A2.5,2.5 0 1 1 509.25,576.79Z" style="fill:none;stroke:#0000FF;stroke-width:0.5" />
<path d="M706.14,629.78A2.5,2.5 0 1 1 701.14,629.78A2.5,2.5 0 1 1 706.14,629.78Z" style="fill:none;stroke:#0000FF;stroke-width:0.5" />
<path d="M903.03,704.57A2.5,2.5 0 1 1 898.03,704.57A2.5,2.5 0 1 1 903.03,704.57Z" style="fill:none;stroke:#0000FF;stroke-width:0.5" />
<path d="M1099.9,791A2.5,2.5 0 1 1 1094.9,791A2.5,2.5 0 1 1 1099.9,791Z" style="fill:none;stroke:#0000FF;stroke-width:0.5" />
<path d="M1296.8,782.48A2.5,2.5 0 1 1 1291.8,782.48A2.5,2.5 0 1 1 1296.8,782.48Z" style="fill:none;stroke:#0000FF;stroke-width:0.5" />
<path d="M1493.7,816.01A2.5,2.5 0 1 1 1488.7,816.01A2.5,2.5 0 1 1 1493.7,816.01Z" style="fill:none;stroke:#0000FF;stroke-width:0.5" />
<path d="M1690.6,833.8A2.5,2.5 0 1 1 1685.6,833.8A2.5,2.5 0 1 1 1690.6,833.8Z" style="fill:none;stroke:#0000FF;stroke-width:0.5" />
<path d="M1887.5,864.18A2.5,2.5 0 1 1 1882.5,864.18A2.5,2.5 0 1 1 1887.5,864.18Z" style="fill:none;stroke:#0000FF;stroke-width:0.5" />
<path d="M112.96,77.61L309.86,275.85L506.75,417.6L703.64,541.76L900.53,614.9L1097.4,666.43L1294.3,686.71L1491.2,722.29L1688.1,762L1885,818.09" style="fill:none;stroke:#00FF00" />
<path d="M115.46,77.61A2.5,2.5 0 1 1 110.46,77.61A2.5,2.5 0 1 1 115.46,77.61Z" style="fill:none;stroke:#00FF00;stroke-width:0.5" />
<path d="M312.36,275.85A2.5,2.5 0 1 1 307.36,275.85A2.5,2.5 0 1 1 312.36,275.85Z" style="fill:none;stroke:#00FF00;stroke-width:0.5" />
<path d="M509.25,417.6A2.5,2.5 0 1 1 504.25,417.6A2.5,2.5 0 1 1 509.25,417.6Z" style="fill:none;stroke:#00FF00;stroke-width:0.5" />
<path d="M706.14,541.76A2.5,2.5 0 1 1 701.14,541.76A2.5,2.5 0 1 1 706.14,541.76Z" style="fill:none;stroke:#00FF00;stroke-width:0.5" />
<path d="M903.03,614.9A2.5,2.5 0 1 1 898.03,614.9A2.5,2.5 0 1 1 903.03,614.9Z" style="fill:none;stroke:#00FF00;stroke-width:0.5" />
<path d="M1099.9,666.43A2.5,2.5 0 1 1 1094.9,666.43A2.5,2.5 0 1 1 1099.9,666.43Z" style="fill:none;stroke:#00FF00;stroke-width:0.5" />
<path d="M1296.8,686.71A2.5,2.5 0 1 1 1291.8,686.71A2.5,2.5 0 1 1 1296.8,686.71Z" style="fill:none;stroke:#00FF00;stroke-width:0.5" />
<path d="M1493.7,722.29A2.5,2.5 0 1 1 1488.7,722.29A2.5,2.5 0 1 1 1493.7,722.29Z" style="fill:none;stroke:#00FF00;stroke-width:0.5" />
<path d="M1690.6,762A2.5,2.5 0 1 1 1685.6,762A2.5,2.5 0 1 1 1690.6,762Z" style="fill:none;stroke:#00FF00;stroke-width:0.5" />
<path d="M1887.5,818.09A2.5,2.5 0 1 1 1882.5,818.09A2.5,2.5 0 1 1 1887.5,818.09Z" style="fill:none;stroke:#00FF00;stroke-width:0.5" />
<path d="M112.96,315.04L309.86,481.97L506.75,649.85L703.64,760.05L900.53,821.82L1097.4,842.03L1294.3,906.92L1491.2,976.77L1688.1,952.76L1885,995.45" style="fill:none;stroke:#FF8000" />
<path d="M115.46,315.04A2.5,2.5 0 1 1 110.46,315.04A2.5,2.5 0 1 1 115.46,315.04Z" style="fill:none;stroke:#FF8000;stroke-width:0.5" />
<path d="M312.36,481.97A2.5,2.5 0 1 1 307.36,481.97A2.5,2.5 0 1 1 312.36,481.97Z" style="fill:none;stroke:#FF8000;stroke-width:0.5" />
<path d="M509.25,649.85A2.5,2.5 0 1 1 504.25,649.85A2.5,2.5 0 1 1 509.25,649.85Z" style="fill:none;stroke:#FF8000;stroke-width:0.5" />
<path d="M706.14,760.05A2.5,2.5 0 1 1 701.14,760.05A2.5,2.5 0 1 1 706.14,760.05Z" style="fill:none;stroke:#FF8000;stroke-width:0.5" />
<path d="M903.03,821.82A2.5,2.5 0 1 1 898.03,821.82A2.5,2.5 0 1 1 903.03,821.82Z" style="fill:none;stroke:#FF8000;stroke-width:0.5" />
<path d="M1099.9,842.03A2.5,2.5 0 1 1 1094.9,842.03A2.5,2.5 0 1 1 1099.9,842.03Z" style="fill:none;stroke:#FF8000;stroke-width:0.5" />
<path d="M1296.8,906.92A2.5,2.5 0 1 1 1291.8,906.92A2.5,2.5 0 1 1 1296.8,906.92Z" style="fill:none;stroke:#FF8000;stroke-width:0.5" />
<path d="M1493.7,976.77A2.5,2.5 0 1 1 1488.7,976.77A2.5,2.5 0 1 1 1493.7,976.77Z" style="fill:none;stroke:#FF8000;stroke-width:0.5" />
<path d="M1690.6,952.76A2.5,2.5 0 1 1 1685.6,952.76A2.5,2.5 0 1 1 1690.6,952.76Z" style="fill:none;stroke:#FF8000;stroke-width:0.5" />
<path d="M1887.5,995.45A2.5,2.5 0 1 1 1882.5,995.45A2.5,2.5 0 1 1 1887.5,995.45Z" style="fill:none;stroke:#FF8000;stroke-width:0.5" />
<path d="M1900,146.4L1920,146.4" style="fill:none;stroke:#FF0000" />
<path d="M1912.5,146.4A2.5,2.5 0 1 1 1907.5,146.4A2.5,2.5 0 1 1 1912.5,146.4Z" style="fill:none;stroke:#FF0000;stroke-width:0.5" />
<text x="1795.4" y="-141.42" transform="scale(1, -1)"
	style="font-family:Liberation Serif;font-variant:normal;font-weight:normal;font-style:normal;font-size:24px">std::deque</text>
<path d="M1900,126.03L1920,126.03" style="fill:none;stroke:#0000FF" />
<path d="M1912.5,126.03A2.5,2.5 0 1 1 1907.5,126.03A2.5,2.5 0 1 1 1912.5,126.03Z" style="fill:none;stroke:#0000FF;stroke-width:0.5" />
<text x="1792.7" y="-121.05" transform="scale(1, -1)"
	style="font-family:Liberation Serif;font-variant:normal;font-weight:normal;font-style:normal;font-size:24px">std::vector</text>
<path d="M1900,105.66L1920,105.66" style="fill:none;stroke:#00FF00" />
<path d="M1912.5,105.66A2.5,2.5 0 1 1 1907.5,105.66A2.5,2.5 0 1 1 1912.5,105.66Z" style="fill:none;stroke:#00FF00;stroke-width:0.5" />
<text x="1669.4" y="-100.69" transform="scale(1, -1)"
	style="font-family:Liberation Serif;font-variant:normal;font-weight:normal;font-style:normal;font-size:24px">preallocated std::vector</text>
<path d="M1900,85.294L1920,85.294" style="fill:none;stroke:#FF8000" />
<path d="M1912.5,85.294A2.5,2.5 0 1 1 1907.5,85.294A2.5,2.5 0 1 1 1912.5,85.294Z" style="fill:none;stroke:#FF8000;stroke-width:0.5" />
<text x="1823.3" y="-80.319" transform="scale(1, -1)"
	style="font-family:Liberation Serif;font-variant:normal;font-weight:normal;font-style:normal;font-size:24px">std::list</text>
</g>
</svg>
