<?xml version="1.0"?>
<!-- Generated by SVGo and Plotinum VG -->
<svg width="1920pt" height="1080pt" viewBox="0 0 1920 1080"
	xmlns="http://www.w3.org/2000/svg"
	xmlns:xlink="http://www.w3.org/1999/xlink">
<g transform="scale(1, -1) translate(0, -1080)">
<path d="M0,0L1920,0L1920,1080L0,1080Z" style="fill:#FFFFFF" />
<text x="744.09" y="-1040.9" transform="scale(1, -1)"
	style="font-family:Liberation Serif;font-variant:normal;font-weight:normal;font-style:normal;font-size:50px">pushback - Log Scale</text>
<text x="876.52" y="-9.7559" transform="scale(1, -1)"
	style="font-family:Liberation Serif;font-variant:normal;font-weight:normal;font-style:normal;font-size:30px">Number of elements</text>
<text x="82.962" y="-39.727" transform="scale(1, -1)"
	style="font-family:Liberation Serif;font-variant:normal;font-weight:normal;font-style:normal;font-size:20px">100000</text>
<text x="279.86" y="-39.727" transform="scale(1, -1)"
	style="font-family:Liberation Serif;font-variant:normal;font-weight:normal;font-style:normal;font-size:20px">200000</text>
<text x="476.75" y="-39.727" transform="scale(1, -1)"
	style="font-family:Liberation Serif;font-variant:normal;font-weight:normal;font-style:normal;font-size:20px">300000</text>
<text x="673.64" y="-39.727" transform="scale(1, -1)"
	style="font-family:Liberation Serif;font-variant:normal;font-weight:normal;font-style:normal;font-size:20px">400000</text>
<text x="870.53" y="-39.727" transform="scale(1, -1)"
	style="font-family:Liberation Serif;font-variant:normal;font-weight:normal;font-style:normal;font-size:20px">500000</text>
<text x="1067.4" y="-39.727" transform="scale(1, -1)"
	style="font-family:Liberation Serif;font-variant:normal;font-weight:normal;font-style:normal;font-size:20px">600000</text>
<text x="1264.3" y="-39.727" transform="scale(1, -1)"
	style="font-family:Liberation Serif;font-variant:normal;font-weight:normal;font-style:normal;font-size:20px">700000</text>
<text x="1461.2" y="-39.727" transform="scale(1, -1)"
	style="font-family:Liberation Serif;font-variant:normal;font-weight:normal;font-style:normal;font-size:20px">800000</text>
<text x="1658.1" y="-39.727" transform="scale(1, -1)"
	style="font-family:Liberation Serif;font-variant:normal;font-weight:normal;font-style:normal;font-size:20px">900000</text>
<text x="1850" y="-39.727" transform="scale(1, -1)"
	style="font-family:Liberation Serif;font-variant:normal;font-weight:normal;font-style:normal;font-size:20px">1000000</text>
<path d="M112.96,55.371L112.96,63.371" style="fill:none;stroke:#000000;stroke-width:0.5" />
<path d="M309.86,55.371L309.86,63.371" style="fill:none;stroke:#000000;stroke-width:0.5" />
<path d="M506.75,55.371L506.75,63.371" style="fill:none;stroke:#000000;stroke-width:0.5" />
<path d="M703.64,55.371L703.64,63.371" style="fill:none;stroke:#000000;stroke-width:0.5" />
<path d="M900.53,55.371L900.53,63.371" style="fill:none;stroke:#000000;stroke-width:0.5" />
<path d="M1097.4,55.371L1097.4,63.371" style="fill:none;stroke:#000000;stroke-width:0.5" />
<path d="M1294.3,55.371L1294.3,63.371" style="fill:none;stroke:#000000;stroke-width:0.5" />
<path d="M1491.2,55.371L1491.2,63.371" style="fill:none;stroke:#000000;stroke-width:0.5" />
<path d="M1688.1,55.371L1688.1,63.371" style="fill:none;stroke:#000000;stroke-width:0.5" />
<path d="M1885,55.371L1885,63.371" style="fill:none;stroke:#000000;stroke-width:0.5" />
<path d="M112.96,63.371L1885,63.371" style="fill:none;stroke:#000000;stroke-width:0.5" />
<g transform="rotate(90)">
<text x="508.08" y="23.467" transform="scale(1, -1)"
	style="font-family:Liberation Serif;font-variant:normal;font-weight:normal;font-style:normal;font-size:30px">log(μs)</text>
</g>
<text x="49.712" y="-221" transform="scale(1, -1)"
	style="font-family:Liberation Serif;font-variant:normal;font-weight:normal;font-style:normal;font-size:20px">5000</text>
<text x="39.712" y="-714.47" transform="scale(1, -1)"
	style="font-family:Liberation Serif;font-variant:normal;font-weight:normal;font-style:normal;font-size:20px">25000</text>
<text x="39.712" y="-894.69" transform="scale(1, -1)"
	style="font-family:Liberation Serif;font-variant:normal;font-weight:normal;font-style:normal;font-size:20px">45000</text>
<text x="39.712" y="-1007.4" transform="scale(1, -1)"
	style="font-family:Liberation Serif;font-variant:normal;font-weight:normal;font-style:normal;font-size:20px">65000</text>
<path d="M94.712,225.57L102.71,225.57" style="fill:none;stroke:#000000;stroke-width:0.5" />
<path d="M94.712,719.04L102.71,719.04" style="fill:none;stroke:#000000;stroke-width:0.5" />
<path d="M94.712,899.26L102.71,899.26" style="fill:none;stroke:#000000;stroke-width:0.5" />
<path d="M94.712,1012L102.71,1012" style="fill:none;stroke:#000000;stroke-width:0.5" />
<path d="M98.712,562.41L102.71,562.41" style="fill:none;stroke:#000000;stroke-width:0.5" />
<path d="M98.712,822.2L102.71,822.2" style="fill:none;stroke:#000000;stroke-width:0.5" />
<path d="M98.712,960.79L102.71,960.79" style="fill:none;stroke:#000000;stroke-width:0.5" />
<path d="M102.71,77.61L102.71,1024.6" style="fill:none;stroke:#000000;stroke-width:0.5" />
<path d="M112.96,77.61L112.96,1024.6" style="fill:none;stroke:#808080;stroke-width:0.25" />
<path d="M309.86,77.61L309.86,1024.6" style="fill:none;stroke:#808080;stroke-width:0.25" />
<path d="M506.75,77.61L506.75,1024.6" style="fill:none;stroke:#808080;stroke-width:0.25" />
<path d="M703.64,77.61L703.64,1024.6" style="fill:none;stroke:#808080;stroke-width:0.25" />
<path d="M900.53,77.61L900.53,1024.6" style="fill:none;stroke:#808080;stroke-width:0.25" />
<path d="M1097.4,77.61L1097.4,1024.6" style="fill:none;stroke:#808080;stroke-width:0.25" />
<path d="M1294.3,77.61L1294.3,1024.6" style="fill:none;stroke:#808080;stroke-width:0.25" />
<path d="M1491.2,77.61L1491.2,1024.6" style="fill:none;stroke:#808080;stroke-width:0.25" />
<path d="M1688.1,77.61L1688.1,1024.6" style="fill:none;stroke:#808080;stroke-width:0.25" />
<path d="M1885,77.61L1885,1024.6" style="fill:none;stroke:#808080;stroke-width:0.25" />
<path d="M112.96,225.57L1885,225.57" style="fill:none;stroke:#808080;stroke-width:0.25" />
<path d="M112.96,719.04L1885,719.04" style="fill:none;stroke:#808080;stroke-width:0.25" />
<path d="M112.96,899.26L1885,899.26" style="fill:none;stroke:#808080;stroke-width:0.25" />
<path d="M112.96,1012L1885,1012" style="fill:none;stroke:#808080;stroke-width:0.25" />
<path d="M112.96,240.88L309.86,471.09L506.75,607.23L703.64,676.04L900.53,763.36L1097.4,817.56L1294.3,864.39L1491.2,973.06L1688.1,949.78L1885,995.41" style="fill:none;stroke:#FF0000" />
<path d="M115.46,240.88A2.5,2.5 0 1 1 110.46,240.88A2.5,2.5 0 1 1 115.46,240.88Z" style="fill:none;stroke:#FF0000;stroke-width:0.5" />
<path d="M312.36,471.09A2.5,2.5 0 1 1 307.36,471.09A2.5,2.5 0 1 1 312.36,471.09Z" style="fill:none;stroke:#FF0000;stroke-width:0.5" />
<path d="M509.25,607.23A2.5,2.5 0 1 1 504.25,607.23A2.5,2.5 0 1 1 509.25,607.23Z" style="fill:none;stroke:#FF0000;stroke-width:0.5" />
<path d="M706.14,676.04A2.5,2.5 0 1 1 701.14,676.04A2.5,2.5 0 1 1 706.14,676.04Z" style="fill:none;stroke:#FF0000;stroke-width:0.5" />
<path d="M903.03,763.36A2.5,2.5 0 1 1 898.03,763.36A2.5,2.5 0 1 1 903.03,763.36Z" style="fill:none;stroke:#FF0000;stroke-width:0.5" />
<path d="M1099.9,817.56A2.5,2.5 0 1 1 1094.9,817.56A2.5,2.5 0 1 1 1099.9,817.56Z" style="fill:none;stroke:#FF0000;stroke-width:0.5" />
<path d="M1296.8,864.39A2.5,2.5 0 1 1 1291.8,864.39A2.5,2.5 0 1 1 1296.8,864.39Z" style="fill:none;stroke:#FF0000;stroke-width:0.5" />
<path d="M1493.7,973.06A2.5,2.5 0 1 1 1488.7,973.06A2.5,2.5 0 1 1 1493.7,973.06Z" style="fill:none;stroke:#FF0000;stroke-width:0.5" />
<path d="M1690.6,949.78A2.5,2.5 0 1 1 1685.6,949.78A2.5,2.5 0 1 1 1690.6,949.78Z" style="fill:none;stroke:#FF0000;stroke-width:0.5" />
<path d="M1887.5,995.41A2.5,2.5 0 1 1 1882.5,995.41A2.5,2.5 0 1 1 1887.5,995.41Z" style="fill:none;stroke:#FF0000;stroke-width:0.5" />
<path d="M112.96,272.13L309.86,324.15L506.75,472.57L703.64,562.31L900.53,633.03L1097.4,719.46L1294.3,769.95L1491.2,814.45L1688.1,891.39L1885,895.94" style="fill:none;stroke:#0000FF" />
<path d="M115.46,272.13A2.5,2.5 0 1 1 110.46,272.13A2.5,2.5 0 1 1 115.46,272.13Z" style="fill:none;stroke:#0000FF;stroke-width:0.5" />
<path d="M312.36,324.15A2.5,2.5 0 1 1 307.36,324.15A2.5,2.5 0 1 1 312.36,324.15Z" style="fill:none;stroke:#0000FF;stroke-width:0.5" />
<path d="M509.25,472.57A2.5,2.5 0 1 1 504.25,472.57A2.5,2.5 0 1 1 509.25,472.57Z" style="fill:none;stroke:#0000FF;stroke-width:0.5" />
<path d="M706.14,562.31A2.5,2.5 0 1 1 701.14,562.31A2.5,2.5 0 1 1 706.14,562.31Z" style="fill:none;stroke:#0000FF;stroke-width:0.5" />
<path d="M903.03,633.03A2.5,2.5 0 1 1 898.03,633.03A2.5,2.5 0 1 1 903.03,633.03Z" style="fill:none;stroke:#0000FF;stroke-width:0.5" />
<path d="M1099.9,719.46A2.5,2.5 0 1 1 1094.9,719.46A2.5,2.5 0 1 1 1099.9,719.46Z" style="fill:none;stroke:#0000FF;stroke-width:0.5" />
<path d="M1296.8,769.95A2.5,2.5 0 1 1 1291.8,769.95A2.5,2.5 0 1 1 1296.8,769.95Z" style="fill:none;stroke:#0000FF;stroke-width:0.5" />
<path d="M1493.7,814.45A2.5,2.5 0 1 1 1488.7,814.45A2.5,2.5 0 1 1 1493.7,814.45Z" style="fill:none;stroke:#0000FF;stroke-width:0.5" />
<path d="M1690.6,891.39A2.5,2.5 0 1 1 1685.6,891.39A2.5,2.5 0 1 1 1690.6,891.39Z" style="fill:none;stroke:#0000FF;stroke-width:0.5" />
<path d="M1887.5,895.94A2.5,2.5 0 1 1 1882.5,895.94A2.5,2.5 0 1 1 1887.5,895.94Z" style="fill:none;stroke:#0000FF;stroke-width:0.5" />
<path d="M112.96,77.61L309.86,336.52L506.75,486.15L703.64,549.19L900.53,627.25L1097.4,745.16L1294.3,775.03L1491.2,787.02L1688.1,853.49L1885,894.07" style="fill:none;stroke:#00FF00" />
<path d="M115.46,77.61A2.5,2.5 0 1 1 110.46,77.61A2.5,2.5 0 1 1 115.46,77.61Z" style="fill:none;stroke:#00FF00;stroke-width:0.5" />
<path d="M312.36,336.52A2.5,2.5 0 1 1 307.36,336.52A2.5,2.5 0 1 1 312.36,336.52Z" style="fill:none;stroke:#00FF00;stroke-width:0.5" />
<path d="M509.25,486.15A2.5,2.5 0 1 1 504.25,486.15A2.5,2.5 0 1 1 509.25,486.15Z" style="fill:none;stroke:#00FF00;stroke-width:0.5" />
<path d="M706.14,549.19A2.5,2.5 0 1 1 701.14,549.19A2.5,2.5 0 1 1 706.14,549.19Z" style="fill:none;stroke:#00FF00;stroke-width:0.5" />
<path d="M903.03,627.25A2.5,2.5 0 1 1 898.03,627.25A2.5,2.5 0 1 1 903.03,627.25Z" style="fill:none;stroke:#00FF00;stroke-width:0.5" />
<path d="M1099.9,745.16A2.5,2.5 0 1 1 1094.9,745.16A2.5,2.5 0 1 1 1099.9,745.16Z" style="fill:none;stroke:#00FF00;stroke-width:0.5" />
<path d="M1296.8,775.03A2.5,2.5 0 1 1 1291.8,775.03A2.5,2.5 0 1 1 1296.8,775.03Z" style="fill:none;stroke:#00FF00;stroke-width:0.5" />
<path d="M1493.7,787.02A2.5,2.5 0 1 1 1488.7,787.02A2.5,2.5 0 1 1 1493.7,787.02Z" style="fill:none;stroke:#00FF00;stroke-width:0.5" />
<path d="M1690.6,853.49A2.5,2.5 0 1 1 1685.6,853.49A2.5,2.5 0 1 1 1690.6,853.49Z" style="fill:none;stroke:#00FF00;stroke-width:0.5" />
<path d="M1887.5,894.07A2.5,2.5 0 1 1 1882.5,894.07A2.5,2.5 0 1 1 1887.5,894.07Z" style="fill:none;stroke:#00FF00;stroke-width:0.5" />
<path d="M112.96,95.836L309.86,301.31L506.75,380.3L703.64,484.02L900.53,529.22L1097.4,656.47L1294.3,709.7L1491.2,726.43L1688.1,766.99L1885,825.95" style="fill:none;stroke:#FF8000" />
<path d="M115.46,95.836A2.5,2.5 0 1 1 110.46,95.836A2.5,2.5 0 1 1 115.46,95.836Z" style="fill:none;stroke:#FF8000;stroke-width:0.5" />
<path d="M312.36,301.31A2.5,2.5 0 1 1 307.36,301.31A2.5,2.5 0 1 1 312.36,301.31Z" style="fill:none;stroke:#FF8000;stroke-width:0.5" />
<path d="M509.25,380.3A2.5,2.5 0 1 1 504.25,380.3A2.5,2.5 0 1 1 509.25,380.3Z" style="fill:none;stroke:#FF8000;stroke-width:0.5" />
<path d="M706.14,484.02A2.5,2.5 0 1 1 701.14,484.02A2.5,2.5 0 1 1 706.14,484.02Z" style="fill:none;stroke:#FF8000;stroke-width:0.5" />
<path d="M903.03,529.22A2.5,2.5 0 1 1 898.03,529.22A2.5,2.5 0 1 1 903.03,529.22Z" style="fill:none;stroke:#FF8000;stroke-width:0.5" />
<path d="M1099.9,656.47A2.5,2.5 0 1 1 1094.9,656.47A2.5,2.5 0 1 1 1099.9,656.47Z" style="fill:none;stroke:#FF8000;stroke-width:0.5" />
<path d="M1296.8,709.7A2.5,2.5 0 1 1 1291.8,709.7A2.5,2.5 0 1 1 1296.8,709.7Z" style="fill:none;stroke:#FF8000;stroke-width:0.5" />
<path d="M1493.7,726.43A2.5,2.5 0 1 1 1488.7,726.43A2.5,2.5 0 1 1 1493.7,726.43Z" style="fill:none;stroke:#FF8000;stroke-width:0.5" />
<path d="M1690.6,766.99A2.5,2.5 0 1 1 1685.6,766.99A2.5,2.5 0 1 1 1690.6,766.99Z" style="fill:none;stroke:#FF8000;stroke-width:0.5" />
<path d="M1887.5,825.95A2.5,2.5 0 1 1 1882.5,825.95A2.5,2.5 0 1 1 1887.5,825.95Z" style="fill:none;stroke:#FF8000;stroke-width:0.5" />
<path d="M1900,146.4L1920,146.4" style="fill:none;stroke:#FF0000" />
<path d="M1912.5,146.4A2.5,2.5 0 1 1 1907.5,146.4A2.5,2.5 0 1 1 1912.5,146.4Z" style="fill:none;stroke:#FF0000;stroke-width:0.5" />
<text x="1823.3" y="-141.42" transform="scale(1, -1)"
	style="font-family:Liberation Serif;font-variant:normal;font-weight:normal;font-style:normal;font-size:24px">std::list</text>
<path d="M1900,126.03L1920,126.03" style="fill:none;stroke:#0000FF" />
<path d="M1912.5,126.03A2.5,2.5 0 1 1 1907.5,126.03A2.5,2.5 0 1 1 1912.5,126.03Z" style="fill:none;stroke:#0000FF;stroke-width:0.5" />
<text x="1795.4" y="-121.05" transform="scale(1, -1)"
	style="font-family:Liberation Serif;font-variant:normal;font-weight:normal;font-style:normal;font-size:24px">std::deque</text>
<path d="M1900,105.66L1920,105.66" style="fill:none;stroke:#00FF00" />
<path d="M1912.5,105.66A2.5,2.5 0 1 1 1907.5,105.66A2.5,2.5 0 1 1 1912.5,105.66Z" style="fill:none;stroke:#00FF00;stroke-width:0.5" />
<text x="1792.7" y="-100.69" transform="scale(1, -1)"
	style="font-family:Liberation Serif;font-variant:normal;font-weight:normal;font-style:normal;font-size:24px">std::vector</text>
<path d="M1900,85.294L1920,85.294" style="fill:none;stroke:#FF8000" />
<path d="M1912.5,85.294A2.5,2.5 0 1 1 1907.5,85.294A2.5,2.5 0 1 1 1912.5,85.294Z" style="fill:none;stroke:#FF8000;stroke-width:0.5" />
<text x="1669.4" y="-80.319" transform="scale(1, -1)"
	style="font-family:Liberation Serif;font-variant:normal;font-weight:normal;font-style:normal;font-size:24px">preallocated std::vector</text>
</g>
</svg>
