<?xml version="1.0"?>
<!-- Generated by SVGo and Plotinum VG -->
<svg width="1920pt" height="1080pt" viewBox="0 0 1920 1080"
	xmlns="http://www.w3.org/2000/svg"
	xmlns:xlink="http://www.w3.org/1999/xlink">
<g transform="scale(1, -1) translate(0, -1080)">
<path d="M0,0L1920,0L1920,1080L0,1080Z" style="fill:#FFFFFF" />
<text x="865.58" y="-1040.9" transform="scale(1, -1)"
	style="font-family:Liberation Serif;font-variant:normal;font-weight:normal;font-style:normal;font-size:50px">pushback</text>
<text x="886.52" y="-9.7559" transform="scale(1, -1)"
	style="font-family:Liberation Serif;font-variant:normal;font-weight:normal;font-style:normal;font-size:30px">Number of elements</text>
<text x="102.96" y="-39.727" transform="scale(1, -1)"
	style="font-family:Liberation Serif;font-variant:normal;font-weight:normal;font-style:normal;font-size:20px">100000</text>
<text x="297.63" y="-39.727" transform="scale(1, -1)"
	style="font-family:Liberation Serif;font-variant:normal;font-weight:normal;font-style:normal;font-size:20px">200000</text>
<text x="492.3" y="-39.727" transform="scale(1, -1)"
	style="font-family:Liberation Serif;font-variant:normal;font-weight:normal;font-style:normal;font-size:20px">300000</text>
<text x="686.97" y="-39.727" transform="scale(1, -1)"
	style="font-family:Liberation Serif;font-variant:normal;font-weight:normal;font-style:normal;font-size:20px">400000</text>
<text x="881.65" y="-39.727" transform="scale(1, -1)"
	style="font-family:Liberation Serif;font-variant:normal;font-weight:normal;font-style:normal;font-size:20px">500000</text>
<text x="1076.3" y="-39.727" transform="scale(1, -1)"
	style="font-family:Liberation Serif;font-variant:normal;font-weight:normal;font-style:normal;font-size:20px">600000</text>
<text x="1271" y="-39.727" transform="scale(1, -1)"
	style="font-family:Liberation Serif;font-variant:normal;font-weight:normal;font-style:normal;font-size:20px">700000</text>
<text x="1465.7" y="-39.727" transform="scale(1, -1)"
	style="font-family:Liberation Serif;font-variant:normal;font-weight:normal;font-style:normal;font-size:20px">800000</text>
<text x="1660.3" y="-39.727" transform="scale(1, -1)"
	style="font-family:Liberation Serif;font-variant:normal;font-weight:normal;font-style:normal;font-size:20px">900000</text>
<text x="1850" y="-39.727" transform="scale(1, -1)"
	style="font-family:Liberation Serif;font-variant:normal;font-weight:normal;font-style:normal;font-size:20px">1000000</text>
<path d="M132.96,55.371L132.96,63.371" style="fill:none;stroke:#000000;stroke-width:0.5" />
<path d="M327.63,55.371L327.63,63.371" style="fill:none;stroke:#000000;stroke-width:0.5" />
<path d="M522.3,55.371L522.3,63.371" style="fill:none;stroke:#000000;stroke-width:0.5" />
<path d="M716.97,55.371L716.97,63.371" style="fill:none;stroke:#000000;stroke-width:0.5" />
<path d="M911.65,55.371L911.65,63.371" style="fill:none;stroke:#000000;stroke-width:0.5" />
<path d="M1106.3,55.371L1106.3,63.371" style="fill:none;stroke:#000000;stroke-width:0.5" />
<path d="M1301,55.371L1301,63.371" style="fill:none;stroke:#000000;stroke-width:0.5" />
<path d="M1495.7,55.371L1495.7,63.371" style="fill:none;stroke:#000000;stroke-width:0.5" />
<path d="M1690.3,55.371L1690.3,63.371" style="fill:none;stroke:#000000;stroke-width:0.5" />
<path d="M1885,55.371L1885,63.371" style="fill:none;stroke:#000000;stroke-width:0.5" />
<path d="M132.96,63.371L1885,63.371" style="fill:none;stroke:#000000;stroke-width:0.5" />
<g transform="rotate(90)">
<text x="537.24" y="23.467" transform="scale(1, -1)"
	style="font-family:Liberation Serif;font-variant:normal;font-weight:normal;font-style:normal;font-size:30px">μs</text>
</g>
<text x="49.712" y="-220.06" transform="scale(1, -1)"
	style="font-family:Liberation Serif;font-variant:normal;font-weight:normal;font-style:normal;font-size:20px">300000</text>
<text x="49.712" y="-564.48" transform="scale(1, -1)"
	style="font-family:Liberation Serif;font-variant:normal;font-weight:normal;font-style:normal;font-size:20px">900000</text>
<text x="39.712" y="-908.9" transform="scale(1, -1)"
	style="font-family:Liberation Serif;font-variant:normal;font-weight:normal;font-style:normal;font-size:20px">1500000</text>
<path d="M114.71,224.63L122.71,224.63" style="fill:none;stroke:#000000;stroke-width:0.5" />
<path d="M114.71,569.05L122.71,569.05" style="fill:none;stroke:#000000;stroke-width:0.5" />
<path d="M114.71,913.47L122.71,913.47" style="fill:none;stroke:#000000;stroke-width:0.5" />
<path d="M118.71,396.84L122.71,396.84" style="fill:none;stroke:#000000;stroke-width:0.5" />
<path d="M118.71,741.26L122.71,741.26" style="fill:none;stroke:#000000;stroke-width:0.5" />
<path d="M122.71,77.61L122.71,1024.6" style="fill:none;stroke:#000000;stroke-width:0.5" />
<path d="M132.96,77.61L132.96,1024.6" style="fill:none;stroke:#808080;stroke-width:0.25" />
<path d="M327.63,77.61L327.63,1024.6" style="fill:none;stroke:#808080;stroke-width:0.25" />
<path d="M522.3,77.61L522.3,1024.6" style="fill:none;stroke:#808080;stroke-width:0.25" />
<path d="M716.97,77.61L716.97,1024.6" style="fill:none;stroke:#808080;stroke-width:0.25" />
<path d="M911.65,77.61L911.65,1024.6" style="fill:none;stroke:#808080;stroke-width:0.25" />
<path d="M1106.3,77.61L1106.3,1024.6" style="fill:none;stroke:#808080;stroke-width:0.25" />
<path d="M1301,77.61L1301,1024.6" style="fill:none;stroke:#808080;stroke-width:0.25" />
<path d="M1495.7,77.61L1495.7,1024.6" style="fill:none;stroke:#808080;stroke-width:0.25" />
<path d="M1690.3,77.61L1690.3,1024.6" style="fill:none;stroke:#808080;stroke-width:0.25" />
<path d="M1885,77.61L1885,1024.6" style="fill:none;stroke:#808080;stroke-width:0.25" />
<path d="M132.96,224.63L1885,224.63" style="fill:none;stroke:#808080;stroke-width:0.25" />
<path d="M132.96,569.05L1885,569.05" style="fill:none;stroke:#808080;stroke-width:0.25" />
<path d="M132.96,913.47L1885,913.47" style="fill:none;stroke:#808080;stroke-width:0.25" />
<path d="M132.96,120.57L327.63,196.74L522.3,260.91L716.97,343.18L911.65,409.68L1106.3,467.47L1301,617.88L1495.7,674.52L1690.3,727.2L1885,873.25" style="fill:none;stroke:#FF0000" />
<path d="M135.46,120.57A2.5,2.5 0 1 1 130.46,120.57A2.5,2.5 0 1 1 135.46,120.57Z" style="fill:none;stroke:#FF0000;stroke-width:0.5" />
<path d="M330.13,196.74A2.5,2.5 0 1 1 325.13,196.74A2.5,2.5 0 1 1 330.13,196.74Z" style="fill:none;stroke:#FF0000;stroke-width:0.5" />
<path d="M524.8,260.91A2.5,2.5 0 1 1 519.8,260.91A2.5,2.5 0 1 1 524.8,260.91Z" style="fill:none;stroke:#FF0000;stroke-width:0.5" />
<path d="M719.47,343.18A2.5,2.5 0 1 1 714.47,343.18A2.5,2.5 0 1 1 719.47,343.18Z" style="fill:none;stroke:#FF0000;stroke-width:0.5" />
<path d="M914.15,409.68A2.5,2.5 0 1 1 909.15,409.68A2.5,2.5 0 1 1 914.15,409.68Z" style="fill:none;stroke:#FF0000;stroke-width:0.5" />
<path d="M1108.8,467.47A2.5,2.5 0 1 1 1103.8,467.47A2.5,2.5 0 1 1 1108.8,467.47Z" style="fill:none;stroke:#FF0000;stroke-width:0.5" />
<path d="M1303.5,617.88A2.5,2.5 0 1 1 1298.5,617.88A2.5,2.5 0 1 1 1303.5,617.88Z" style="fill:none;stroke:#FF0000;stroke-width:0.5" />
<path d="M1498.2,674.52A2.5,2.5 0 1 1 1493.2,674.52A2.5,2.5 0 1 1 1498.2,674.52Z" style="fill:none;stroke:#FF0000;stroke-width:0.5" />
<path d="M1692.8,727.2A2.5,2.5 0 1 1 1687.8,727.2A2.5,2.5 0 1 1 1692.8,727.2Z" style="fill:none;stroke:#FF0000;stroke-width:0.5" />
<path d="M1887.5,873.25A2.5,2.5 0 1 1 1882.5,873.25A2.5,2.5 0 1 1 1887.5,873.25Z" style="fill:none;stroke:#FF0000;stroke-width:0.5" />
<path d="M132.96,124.61L327.63,202.38L522.3,282.72L716.97,360.96L911.65,428.57L1106.3,491.11L1301,592.22L1495.7,674.96L1690.3,751.28L1885,871.73" style="fill:none;stroke:#0000FF" />
<path d="M135.46,124.61A2.5,2.5 0 1 1 130.46,124.61A2.5,2.5 0 1 1 135.46,124.61Z" style="fill:none;stroke:#0000FF;stroke-width:0.5" />
<path d="M330.13,202.38A2.5,2.5 0 1 1 325.13,202.38A2.5,2.5 0 1 1 330.13,202.38Z" style="fill:none;stroke:#0000FF;stroke-width:0.5" />
<path d="M524.8,282.72A2.5,2.5 0 1 1 519.8,282.72A2.5,2.5 0 1 1 524.8,282.72Z" style="fill:none;stroke:#0000FF;stroke-width:0.5" />
<path d="M719.47,360.96A2.5,2.5 0 1 1 714.47,360.96A2.5,2.5 0 1 1 719.47,360.96Z" style="fill:none;stroke:#0000FF;stroke-width:0.5" />
<path d="M914.15,428.57A2.5,2.5 0 1 1 909.15,428.57A2.5,2.5 0 1 1 914.15,428.57Z" style="fill:none;stroke:#0000FF;stroke-width:0.5" />
<path d="M1108.8,491.11A2.5,2.5 0 1 1 1103.8,491.11A2.5,2.5 0 1 1 1108.8,491.11Z" style="fill:none;stroke:#0000FF;stroke-width:0.5" />
<path d="M1303.5,592.22A2.5,2.5 0 1 1 1298.5,592.22A2.5,2.5 0 1 1 1303.5,592.22Z" style="fill:none;stroke:#0000FF;stroke-width:0.5" />
<path d="M1498.2,674.96A2.5,2.5 0 1 1 1493.2,674.96A2.5,2.5 0 1 1 1498.2,674.96Z" style="fill:none;stroke:#0000FF;stroke-width:0.5" />
<path d="M1692.8,751.28A2.5,2.5 0 1 1 1687.8,751.28A2.5,2.5 0 1 1 1692.8,751.28Z" style="fill:none;stroke:#0000FF;stroke-width:0.5" />
<path d="M1887.5,871.73A2.5,2.5 0 1 1 1882.5,871.73A2.5,2.5 0 1 1 1887.5,871.73Z" style="fill:none;stroke:#0000FF;stroke-width:0.5" />
<path d="M132.96,126.5L327.63,196.91L522.3,354.95L716.97,342.83L911.65,373.88L1106.3,936.25L1301,797.71L1495.7,748.04L1690.3,840.45L1885,820.88" style="fill:none;stroke:#00FF00" />
<path d="M135.46,126.5A2.5,2.5 0 1 1 130.46,126.5A2.5,2.5 0 1 1 135.46,126.5Z" style="fill:none;stroke:#00FF00;stroke-width:0.5" />
<path d="M330.13,196.91A2.5,2.5 0 1 1 325.13,196.91A2.5,2.5 0 1 1 330.13,196.91Z" style="fill:none;stroke:#00FF00;stroke-width:0.5" />
<path d="M524.8,354.95A2.5,2.5 0 1 1 519.8,354.95A2.5,2.5 0 1 1 524.8,354.95Z" style="fill:none;stroke:#00FF00;stroke-width:0.5" />
<path d="M719.47,342.83A2.5,2.5 0 1 1 714.47,342.83A2.5,2.5 0 1 1 719.47,342.83Z" style="fill:none;stroke:#00FF00;stroke-width:0.5" />
<path d="M914.15,373.88A2.5,2.5 0 1 1 909.15,373.88A2.5,2.5 0 1 1 914.15,373.88Z" style="fill:none;stroke:#00FF00;stroke-width:0.5" />
<path d="M1108.8,936.25A2.5,2.5 0 1 1 1103.8,936.25A2.5,2.5 0 1 1 1108.8,936.25Z" style="fill:none;stroke:#00FF00;stroke-width:0.5" />
<path d="M1303.5,797.71A2.5,2.5 0 1 1 1298.5,797.71A2.5,2.5 0 1 1 1303.5,797.71Z" style="fill:none;stroke:#00FF00;stroke-width:0.5" />
<path d="M1498.2,748.04A2.5,2.5 0 1 1 1493.2,748.04A2.5,2.5 0 1 1 1498.2,748.04Z" style="fill:none;stroke:#00FF00;stroke-width:0.5" />
<path d="M1692.8,840.45A2.5,2.5 0 1 1 1687.8,840.45A2.5,2.5 0 1 1 1692.8,840.45Z" style="fill:none;stroke:#00FF00;stroke-width:0.5" />
<path d="M1887.5,820.88A2.5,2.5 0 1 1 1882.5,820.88A2.5,2.5 0 1 1 1887.5,820.88Z" style="fill:none;stroke:#00FF00;stroke-width:0.5" />
<path d="M132.96,77.61L327.63,103.13L522.3,140.51L716.97,158.26L911.65,190.03L1106.3,218.22L1301,246.34L1495.7,302.39L1690.3,341.26L1885,348.14" style="fill:none;stroke:#FF8000" />
<path d="M135.46,77.61A2.5,2.5 0 1 1 130.46,77.61A2.5,2.5 0 1 1 135.46,77.61Z" style="fill:none;stroke:#FF8000;stroke-width:0.5" />
<path d="M330.13,103.13A2.5,2.5 0 1 1 325.13,103.13A2.5,2.5 0 1 1 330.13,103.13Z" style="fill:none;stroke:#FF8000;stroke-width:0.5" />
<path d="M524.8,140.51A2.5,2.5 0 1 1 519.8,140.51A2.5,2.5 0 1 1 524.8,140.51Z" style="fill:none;stroke:#FF8000;stroke-width:0.5" />
<path d="M719.47,158.26A2.5,2.5 0 1 1 714.47,158.26A2.5,2.5 0 1 1 719.47,158.26Z" style="fill:none;stroke:#FF8000;stroke-width:0.5" />
<path d="M914.15,190.03A2.5,2.5 0 1 1 909.15,190.03A2.5,2.5 0 1 1 914.15,190.03Z" style="fill:none;stroke:#FF8000;stroke-width:0.5" />
<path d="M1108.8,218.22A2.5,2.5 0 1 1 1103.8,218.22A2.5,2.5 0 1 1 1108.8,218.22Z" style="fill:none;stroke:#FF8000;stroke-width:0.5" />
<path d="M1303.5,246.34A2.5,2.5 0 1 1 1298.5,246.34A2.5,2.5 0 1 1 1303.5,246.34Z" style="fill:none;stroke:#FF8000;stroke-width:0.5" />
<path d="M1498.2,302.39A2.5,2.5 0 1 1 1493.2,302.39A2.5,2.5 0 1 1 1498.2,302.39Z" style="fill:none;stroke:#FF8000;stroke-width:0.5" />
<path d="M1692.8,341.26A2.5,2.5 0 1 1 1687.8,341.26A2.5,2.5 0 1 1 1692.8,341.26Z" style="fill:none;stroke:#FF8000;stroke-width:0.5" />
<path d="M1887.5,348.14A2.5,2.5 0 1 1 1882.5,348.14A2.5,2.5 0 1 1 1887.5,348.14Z" style="fill:none;stroke:#FF8000;stroke-width:0.5" />
<path d="M1900,146.4L1920,146.4" style="fill:none;stroke:#FF0000" />
<path d="M1912.5,146.4A2.5,2.5 0 1 1 1907.5,146.4A2.5,2.5 0 1 1 1912.5,146.4Z" style="fill:none;stroke:#FF0000;stroke-width:0.5" />
<text x="1823.3" y="-141.42" transform="scale(1, -1)"
	style="font-family:Liberation Serif;font-variant:normal;font-weight:normal;font-style:normal;font-size:24px">std::list</text>
<path d="M1900,126.03L1920,126.03" style="fill:none;stroke:#0000FF" />
<path d="M1912.5,126.03A2.5,2.5 0 1 1 1907.5,126.03A2.5,2.5 0 1 1 1912.5,126.03Z" style="fill:none;stroke:#0000FF;stroke-width:0.5" />
<text x="1795.4" y="-121.05" transform="scale(1, -1)"
	style="font-family:Liberation Serif;font-variant:normal;font-weight:normal;font-style:normal;font-size:24px">std::deque</text>
<path d="M1900,105.66L1920,105.66" style="fill:none;stroke:#00FF00" />
<path d="M1912.5,105.66A2.5,2.5 0 1 1 1907.5,105.66A2.5,2.5 0 1 1 1912.5,105.66Z" style="fill:none;stroke:#00FF00;stroke-width:0.5" />
<text x="1792.7" y="-100.69" transform="scale(1, -1)"
	style="font-family:Liberation Serif;font-variant:normal;font-weight:normal;font-style:normal;font-size:24px">std::vector</text>
<path d="M1900,85.294L1920,85.294" style="fill:none;stroke:#FF8000" />
<path d="M1912.5,85.294A2.5,2.5 0 1 1 1907.5,85.294A2.5,2.5 0 1 1 1912.5,85.294Z" style="fill:none;stroke:#FF8000;stroke-width:0.5" />
<text x="1669.4" y="-80.319" transform="scale(1, -1)"
	style="font-family:Liberation Serif;font-variant:normal;font-weight:normal;font-style:normal;font-size:24px">preallocated std::vector</text>
</g>
</svg>
