<?xml version="1.0"?>
<!-- Generated by SVGo and Plotinum VG -->
<svg width="1920pt" height="1080pt" viewBox="0 0 1920 1080"
	xmlns="http://www.w3.org/2000/svg"
	xmlns:xlink="http://www.w3.org/1999/xlink">
<g transform="scale(1, -1) translate(0, -1080)">
<path d="M0,0L1920,0L1920,1080L0,1080Z" style="fill:#FFFFFF" />
<text x="744.09" y="-1040.9" transform="scale(1, -1)"
	style="font-family:Liberation Serif;font-variant:normal;font-weight:normal;font-style:normal;font-size:50px">pushback - Log Scale</text>
<text x="881.52" y="-9.7559" transform="scale(1, -1)"
	style="font-family:Liberation Serif;font-variant:normal;font-weight:normal;font-style:normal;font-size:30px">Number of elements</text>
<text x="92.962" y="-39.727" transform="scale(1, -1)"
	style="font-family:Liberation Serif;font-variant:normal;font-weight:normal;font-style:normal;font-size:20px">100000</text>
<text x="288.74" y="-39.727" transform="scale(1, -1)"
	style="font-family:Liberation Serif;font-variant:normal;font-weight:normal;font-style:normal;font-size:20px">200000</text>
<text x="484.53" y="-39.727" transform="scale(1, -1)"
	style="font-family:Liberation Serif;font-variant:normal;font-weight:normal;font-style:normal;font-size:20px">300000</text>
<text x="680.31" y="-39.727" transform="scale(1, -1)"
	style="font-family:Liberation Serif;font-variant:normal;font-weight:normal;font-style:normal;font-size:20px">400000</text>
<text x="876.09" y="-39.727" transform="scale(1, -1)"
	style="font-family:Liberation Serif;font-variant:normal;font-weight:normal;font-style:normal;font-size:20px">500000</text>
<text x="1071.9" y="-39.727" transform="scale(1, -1)"
	style="font-family:Liberation Serif;font-variant:normal;font-weight:normal;font-style:normal;font-size:20px">600000</text>
<text x="1267.7" y="-39.727" transform="scale(1, -1)"
	style="font-family:Liberation Serif;font-variant:normal;font-weight:normal;font-style:normal;font-size:20px">700000</text>
<text x="1463.4" y="-39.727" transform="scale(1, -1)"
	style="font-family:Liberation Serif;font-variant:normal;font-weight:normal;font-style:normal;font-size:20px">800000</text>
<text x="1659.2" y="-39.727" transform="scale(1, -1)"
	style="font-family:Liberation Serif;font-variant:normal;font-weight:normal;font-style:normal;font-size:20px">900000</text>
<text x="1850" y="-39.727" transform="scale(1, -1)"
	style="font-family:Liberation Serif;font-variant:normal;font-weight:normal;font-style:normal;font-size:20px">1000000</text>
<path d="M122.96,55.371L122.96,63.371" style="fill:none;stroke:#000000;stroke-width:0.5" />
<path d="M318.74,55.371L318.74,63.371" style="fill:none;stroke:#000000;stroke-width:0.5" />
<path d="M514.53,55.371L514.53,63.371" style="fill:none;stroke:#000000;stroke-width:0.5" />
<path d="M710.31,55.371L710.31,63.371" style="fill:none;stroke:#000000;stroke-width:0.5" />
<path d="M906.09,55.371L906.09,63.371" style="fill:none;stroke:#000000;stroke-width:0.5" />
<path d="M1101.9,55.371L1101.9,63.371" style="fill:none;stroke:#000000;stroke-width:0.5" />
<path d="M1297.7,55.371L1297.7,63.371" style="fill:none;stroke:#000000;stroke-width:0.5" />
<path d="M1493.4,55.371L1493.4,63.371" style="fill:none;stroke:#000000;stroke-width:0.5" />
<path d="M1689.2,55.371L1689.2,63.371" style="fill:none;stroke:#000000;stroke-width:0.5" />
<path d="M1885,55.371L1885,63.371" style="fill:none;stroke:#000000;stroke-width:0.5" />
<path d="M122.96,63.371L1885,63.371" style="fill:none;stroke:#000000;stroke-width:0.5" />
<g transform="rotate(90)">
<text x="508.08" y="23.467" transform="scale(1, -1)"
	style="font-family:Liberation Serif;font-variant:normal;font-weight:normal;font-style:normal;font-size:30px">log(μs)</text>
</g>
<text x="49.712" y="-406.11" transform="scale(1, -1)"
	style="font-family:Liberation Serif;font-variant:normal;font-weight:normal;font-style:normal;font-size:20px">50000</text>
<text x="39.712" y="-830.18" transform="scale(1, -1)"
	style="font-family:Liberation Serif;font-variant:normal;font-weight:normal;font-style:normal;font-size:20px">200000</text>
<text x="39.712" y="-1001.4" transform="scale(1, -1)"
	style="font-family:Liberation Serif;font-variant:normal;font-weight:normal;font-style:normal;font-size:20px">350000</text>
<path d="M104.71,410.68L112.71,410.68" style="fill:none;stroke:#000000;stroke-width:0.5" />
<path d="M104.71,834.75L112.71,834.75" style="fill:none;stroke:#000000;stroke-width:0.5" />
<path d="M104.71,1005.9L112.71,1005.9" style="fill:none;stroke:#000000;stroke-width:0.5" />
<path d="M108.71,690.97L112.71,690.97" style="fill:none;stroke:#000000;stroke-width:0.5" />
<path d="M108.71,932.17L112.71,932.17" style="fill:none;stroke:#000000;stroke-width:0.5" />
<path d="M112.71,77.61L112.71,1024.6" style="fill:none;stroke:#000000;stroke-width:0.5" />
<path d="M122.96,77.61L122.96,1024.6" style="fill:none;stroke:#808080;stroke-width:0.25" />
<path d="M318.74,77.61L318.74,1024.6" style="fill:none;stroke:#808080;stroke-width:0.25" />
<path d="M514.53,77.61L514.53,1024.6" style="fill:none;stroke:#808080;stroke-width:0.25" />
<path d="M710.31,77.61L710.31,1024.6" style="fill:none;stroke:#808080;stroke-width:0.25" />
<path d="M906.09,77.61L906.09,1024.6" style="fill:none;stroke:#808080;stroke-width:0.25" />
<path d="M1101.9,77.61L1101.9,1024.6" style="fill:none;stroke:#808080;stroke-width:0.25" />
<path d="M1297.7,77.61L1297.7,1024.6" style="fill:none;stroke:#808080;stroke-width:0.25" />
<path d="M1493.4,77.61L1493.4,1024.6" style="fill:none;stroke:#808080;stroke-width:0.25" />
<path d="M1689.2,77.61L1689.2,1024.6" style="fill:none;stroke:#808080;stroke-width:0.25" />
<path d="M1885,77.61L1885,1024.6" style="fill:none;stroke:#808080;stroke-width:0.25" />
<path d="M122.96,410.68L1885,410.68" style="fill:none;stroke:#808080;stroke-width:0.25" />
<path d="M122.96,834.75L1885,834.75" style="fill:none;stroke:#808080;stroke-width:0.25" />
<path d="M122.96,1005.9L1885,1005.9" style="fill:none;stroke:#808080;stroke-width:0.25" />
<path d="M122.96,318.65L318.74,514.33L514.53,706.28L710.31,708.35L906.09,751.39L1101.9,894.87L1297.7,919.17L1493.4,923.4L1689.2,947.98L1885,974.36" style="fill:none;stroke:#FF0000" />
<path d="M125.46,318.65A2.5,2.5 0 1 1 120.46,318.65A2.5,2.5 0 1 1 125.46,318.65Z" style="fill:none;stroke:#FF0000;stroke-width:0.5" />
<path d="M321.24,514.33A2.5,2.5 0 1 1 316.24,514.33A2.5,2.5 0 1 1 321.24,514.33Z" style="fill:none;stroke:#FF0000;stroke-width:0.5" />
<path d="M517.03,706.28A2.5,2.5 0 1 1 512.03,706.28A2.5,2.5 0 1 1 517.03,706.28Z" style="fill:none;stroke:#FF0000;stroke-width:0.5" />
<path d="M712.81,708.35A2.5,2.5 0 1 1 707.81,708.35A2.5,2.5 0 1 1 712.81,708.35Z" style="fill:none;stroke:#FF0000;stroke-width:0.5" />
<path d="M908.59,751.39A2.5,2.5 0 1 1 903.59,751.39A2.5,2.5 0 1 1 908.59,751.39Z" style="fill:none;stroke:#FF0000;stroke-width:0.5" />
<path d="M1104.4,894.87A2.5,2.5 0 1 1 1099.4,894.87A2.5,2.5 0 1 1 1104.4,894.87Z" style="fill:none;stroke:#FF0000;stroke-width:0.5" />
<path d="M1300.2,919.17A2.5,2.5 0 1 1 1295.2,919.17A2.5,2.5 0 1 1 1300.2,919.17Z" style="fill:none;stroke:#FF0000;stroke-width:0.5" />
<path d="M1495.9,923.4A2.5,2.5 0 1 1 1490.9,923.4A2.5,2.5 0 1 1 1495.9,923.4Z" style="fill:none;stroke:#FF0000;stroke-width:0.5" />
<path d="M1691.7,947.98A2.5,2.5 0 1 1 1686.7,947.98A2.5,2.5 0 1 1 1691.7,947.98Z" style="fill:none;stroke:#FF0000;stroke-width:0.5" />
<path d="M1887.5,974.36A2.5,2.5 0 1 1 1882.5,974.36A2.5,2.5 0 1 1 1887.5,974.36Z" style="fill:none;stroke:#FF0000;stroke-width:0.5" />
<path d="M122.96,77.61L318.74,283.79L514.53,406.56L710.31,497.64L906.09,566.22L1101.9,627.83L1297.7,679.08L1493.4,707.33L1689.2,755.35L1885,788.4" style="fill:none;stroke:#0000FF" />
<path d="M125.46,77.61A2.5,2.5 0 1 1 120.46,77.61A2.5,2.5 0 1 1 125.46,77.61Z" style="fill:none;stroke:#0000FF;stroke-width:0.5" />
<path d="M321.24,283.79A2.5,2.5 0 1 1 316.24,283.79A2.5,2.5 0 1 1 321.24,283.79Z" style="fill:none;stroke:#0000FF;stroke-width:0.5" />
<path d="M517.03,406.56A2.5,2.5 0 1 1 512.03,406.56A2.5,2.5 0 1 1 517.03,406.56Z" style="fill:none;stroke:#0000FF;stroke-width:0.5" />
<path d="M712.81,497.64A2.5,2.5 0 1 1 707.81,497.64A2.5,2.5 0 1 1 712.81,497.64Z" style="fill:none;stroke:#0000FF;stroke-width:0.5" />
<path d="M908.59,566.22A2.5,2.5 0 1 1 903.59,566.22A2.5,2.5 0 1 1 908.59,566.22Z" style="fill:none;stroke:#0000FF;stroke-width:0.5" />
<path d="M1104.4,627.83A2.5,2.5 0 1 1 1099.4,627.83A2.5,2.5 0 1 1 1104.4,627.83Z" style="fill:none;stroke:#0000FF;stroke-width:0.5" />
<path d="M1300.2,679.08A2.5,2.5 0 1 1 1295.2,679.08A2.5,2.5 0 1 1 1300.2,679.08Z" style="fill:none;stroke:#0000FF;stroke-width:0.5" />
<path d="M1495.9,707.33A2.5,2.5 0 1 1 1490.9,707.33A2.5,2.5 0 1 1 1495.9,707.33Z" style="fill:none;stroke:#0000FF;stroke-width:0.5" />
<path d="M1691.7,755.35A2.5,2.5 0 1 1 1686.7,755.35A2.5,2.5 0 1 1 1691.7,755.35Z" style="fill:none;stroke:#0000FF;stroke-width:0.5" />
<path d="M1887.5,788.4A2.5,2.5 0 1 1 1882.5,788.4A2.5,2.5 0 1 1 1887.5,788.4Z" style="fill:none;stroke:#0000FF;stroke-width:0.5" />
<path d="M122.96,230.49L318.74,451.43L514.53,624.18L710.31,687.28L906.09,768.03L1101.9,805.31L1297.7,871.72L1493.4,906.47L1689.2,947.75L1885,985.22" style="fill:none;stroke:#00FF00" />
<path d="M125.46,230.49A2.5,2.5 0 1 1 120.46,230.49A2.5,2.5 0 1 1 125.46,230.49Z" style="fill:none;stroke:#00FF00;stroke-width:0.5" />
<path d="M321.24,451.43A2.5,2.5 0 1 1 316.24,451.43A2.5,2.5 0 1 1 321.24,451.43Z" style="fill:none;stroke:#00FF00;stroke-width:0.5" />
<path d="M517.03,624.18A2.5,2.5 0 1 1 512.03,624.18A2.5,2.5 0 1 1 517.03,624.18Z" style="fill:none;stroke:#00FF00;stroke-width:0.5" />
<path d="M712.81,687.28A2.5,2.5 0 1 1 707.81,687.28A2.5,2.5 0 1 1 712.81,687.28Z" style="fill:none;stroke:#00FF00;stroke-width:0.5" />
<path d="M908.59,768.03A2.5,2.5 0 1 1 903.59,768.03A2.5,2.5 0 1 1 908.59,768.03Z" style="fill:none;stroke:#00FF00;stroke-width:0.5" />
<path d="M1104.4,805.31A2.5,2.5 0 1 1 1099.4,805.31A2.5,2.5 0 1 1 1104.4,805.31Z" style="fill:none;stroke:#00FF00;stroke-width:0.5" />
<path d="M1300.2,871.72A2.5,2.5 0 1 1 1295.2,871.72A2.5,2.5 0 1 1 1300.2,871.72Z" style="fill:none;stroke:#00FF00;stroke-width:0.5" />
<path d="M1495.9,906.47A2.5,2.5 0 1 1 1490.9,906.47A2.5,2.5 0 1 1 1495.9,906.47Z" style="fill:none;stroke:#00FF00;stroke-width:0.5" />
<path d="M1691.7,947.75A2.5,2.5 0 1 1 1686.7,947.75A2.5,2.5 0 1 1 1691.7,947.75Z" style="fill:none;stroke:#00FF00;stroke-width:0.5" />
<path d="M1887.5,985.22A2.5,2.5 0 1 1 1882.5,985.22A2.5,2.5 0 1 1 1887.5,985.22Z" style="fill:none;stroke:#00FF00;stroke-width:0.5" />
<path d="M122.96,295.5L318.74,486.81L514.53,659.4L710.31,718.81L906.09,772.17L1101.9,832.96L1297.7,903.84L1493.4,927.89L1689.2,970.54L1885,995.47" style="fill:none;stroke:#FF8000" />
<path d="M125.46,295.5A2.5,2.5 0 1 1 120.46,295.5A2.5,2.5 0 1 1 125.46,295.5Z" style="fill:none;stroke:#FF8000;stroke-width:0.5" />
<path d="M321.24,486.81A2.5,2.5 0 1 1 316.24,486.81A2.5,2.5 0 1 1 321.24,486.81Z" style="fill:none;stroke:#FF8000;stroke-width:0.5" />
<path d="M517.03,659.4A2.5,2.5 0 1 1 512.03,659.4A2.5,2.5 0 1 1 517.03,659.4Z" style="fill:none;stroke:#FF8000;stroke-width:0.5" />
<path d="M712.81,718.81A2.5,2.5 0 1 1 707.81,718.81A2.5,2.5 0 1 1 712.81,718.81Z" style="fill:none;stroke:#FF8000;stroke-width:0.5" />
<path d="M908.59,772.17A2.5,2.5 0 1 1 903.59,772.17A2.5,2.5 0 1 1 908.59,772.17Z" style="fill:none;stroke:#FF8000;stroke-width:0.5" />
<path d="M1104.4,832.96A2.5,2.5 0 1 1 1099.4,832.96A2.5,2.5 0 1 1 1104.4,832.96Z" style="fill:none;stroke:#FF8000;stroke-width:0.5" />
<path d="M1300.2,903.84A2.5,2.5 0 1 1 1295.2,903.84A2.5,2.5 0 1 1 1300.2,903.84Z" style="fill:none;stroke:#FF8000;stroke-width:0.5" />
<path d="M1495.9,927.89A2.5,2.5 0 1 1 1490.9,927.89A2.5,2.5 0 1 1 1495.9,927.89Z" style="fill:none;stroke:#FF8000;stroke-width:0.5" />
<path d="M1691.7,970.54A2.5,2.5 0 1 1 1686.7,970.54A2.5,2.5 0 1 1 1691.7,970.54Z" style="fill:none;stroke:#FF8000;stroke-width:0.5" />
<path d="M1887.5,995.47A2.5,2.5 0 1 1 1882.5,995.47A2.5,2.5 0 1 1 1887.5,995.47Z" style="fill:none;stroke:#FF8000;stroke-width:0.5" />
<path d="M1900,146.4L1920,146.4" style="fill:none;stroke:#FF0000" />
<path d="M1912.5,146.4A2.5,2.5 0 1 1 1907.5,146.4A2.5,2.5 0 1 1 1912.5,146.4Z" style="fill:none;stroke:#FF0000;stroke-width:0.5" />
<text x="1792.7" y="-141.42" transform="scale(1, -1)"
	style="font-family:Liberation Serif;font-variant:normal;font-weight:normal;font-style:normal;font-size:24px">std::vector</text>
<path d="M1900,126.03L1920,126.03" style="fill:none;stroke:#0000FF" />
<path d="M1912.5,126.03A2.5,2.5 0 1 1 1907.5,126.03A2.5,2.5 0 1 1 1912.5,126.03Z" style="fill:none;stroke:#0000FF;stroke-width:0.5" />
<text x="1669.4" y="-121.05" transform="scale(1, -1)"
	style="font-family:Liberation Serif;font-variant:normal;font-weight:normal;font-style:normal;font-size:24px">preallocated std::vector</text>
<path d="M1900,105.66L1920,105.66" style="fill:none;stroke:#00FF00" />
<path d="M1912.5,105.66A2.5,2.5 0 1 1 1907.5,105.66A2.5,2.5 0 1 1 1912.5,105.66Z" style="fill:none;stroke:#00FF00;stroke-width:0.5" />
<text x="1823.3" y="-100.69" transform="scale(1, -1)"
	style="font-family:Liberation Serif;font-variant:normal;font-weight:normal;font-style:normal;font-size:24px">std::list</text>
<path d="M1900,85.294L1920,85.294" style="fill:none;stroke:#FF8000" />
<path d="M1912.5,85.294A2.5,2.5 0 1 1 1907.5,85.294A2.5,2.5 0 1 1 1912.5,85.294Z" style="fill:none;stroke:#FF8000;stroke-width:0.5" />
<text x="1795.4" y="-80.319" transform="scale(1, -1)"
	style="font-family:Liberation Serif;font-variant:normal;font-weight:normal;font-style:normal;font-size:24px">std::deque</text>
</g>
</svg>
