<?xml version="1.0"?>
<!-- Generated by SVGo and Plotinum VG -->
<svg width="1920pt" height="1080pt" viewBox="0 0 1920 1080"
	xmlns="http://www.w3.org/2000/svg"
	xmlns:xlink="http://www.w3.org/1999/xlink">
<g transform="scale(1, -1) translate(0, -1080)">
<path d="M0,0L1920,0L1920,1080L0,1080Z" style="fill:#FFFFFF" />
<text x="744.09" y="-1040.9" transform="scale(1, -1)"
	style="font-family:Liberation Serif;font-variant:normal;font-weight:normal;font-style:normal;font-size:50px">pushback - Log Scale</text>
<text x="886.52" y="-9.7559" transform="scale(1, -1)"
	style="font-family:Liberation Serif;font-variant:normal;font-weight:normal;font-style:normal;font-size:30px">Number of elements</text>
<text x="102.96" y="-39.727" transform="scale(1, -1)"
	style="font-family:Liberation Serif;font-variant:normal;font-weight:normal;font-style:normal;font-size:20px">100000</text>
<text x="297.63" y="-39.727" transform="scale(1, -1)"
	style="font-family:Liberation Serif;font-variant:normal;font-weight:normal;font-style:normal;font-size:20px">200000</text>
<text x="492.3" y="-39.727" transform="scale(1, -1)"
	style="font-family:Liberation Serif;font-variant:normal;font-weight:normal;font-style:normal;font-size:20px">300000</text>
<text x="686.97" y="-39.727" transform="scale(1, -1)"
	style="font-family:Liberation Serif;font-variant:normal;font-weight:normal;font-style:normal;font-size:20px">400000</text>
<text x="881.65" y="-39.727" transform="scale(1, -1)"
	style="font-family:Liberation Serif;font-variant:normal;font-weight:normal;font-style:normal;font-size:20px">500000</text>
<text x="1076.3" y="-39.727" transform="scale(1, -1)"
	style="font-family:Liberation Serif;font-variant:normal;font-weight:normal;font-style:normal;font-size:20px">600000</text>
<text x="1271" y="-39.727" transform="scale(1, -1)"
	style="font-family:Liberation Serif;font-variant:normal;font-weight:normal;font-style:normal;font-size:20px">700000</text>
<text x="1465.7" y="-39.727" transform="scale(1, -1)"
	style="font-family:Liberation Serif;font-variant:normal;font-weight:normal;font-style:normal;font-size:20px">800000</text>
<text x="1660.3" y="-39.727" transform="scale(1, -1)"
	style="font-family:Liberation Serif;font-variant:normal;font-weight:normal;font-style:normal;font-size:20px">900000</text>
<text x="1850" y="-39.727" transform="scale(1, -1)"
	style="font-family:Liberation Serif;font-variant:normal;font-weight:normal;font-style:normal;font-size:20px">1000000</text>
<path d="M132.96,55.371L132.96,63.371" style="fill:none;stroke:#000000;stroke-width:0.5" />
<path d="M327.63,55.371L327.63,63.371" style="fill:none;stroke:#000000;stroke-width:0.5" />
<path d="M522.3,55.371L522.3,63.371" style="fill:none;stroke:#000000;stroke-width:0.5" />
<path d="M716.97,55.371L716.97,63.371" style="fill:none;stroke:#000000;stroke-width:0.5" />
<path d="M911.65,55.371L911.65,63.371" style="fill:none;stroke:#000000;stroke-width:0.5" />
<path d="M1106.3,55.371L1106.3,63.371" style="fill:none;stroke:#000000;stroke-width:0.5" />
<path d="M1301,55.371L1301,63.371" style="fill:none;stroke:#000000;stroke-width:0.5" />
<path d="M1495.7,55.371L1495.7,63.371" style="fill:none;stroke:#000000;stroke-width:0.5" />
<path d="M1690.3,55.371L1690.3,63.371" style="fill:none;stroke:#000000;stroke-width:0.5" />
<path d="M1885,55.371L1885,63.371" style="fill:none;stroke:#000000;stroke-width:0.5" />
<path d="M132.96,63.371L1885,63.371" style="fill:none;stroke:#000000;stroke-width:0.5" />
<g transform="rotate(90)">
<text x="508.08" y="23.467" transform="scale(1, -1)"
	style="font-family:Liberation Serif;font-variant:normal;font-weight:normal;font-style:normal;font-size:30px">log(μs)</text>
</g>
<text x="49.712" y="-574.43" transform="scale(1, -1)"
	style="font-family:Liberation Serif;font-variant:normal;font-weight:normal;font-style:normal;font-size:20px">300000</text>
<text x="49.712" y="-870.12" transform="scale(1, -1)"
	style="font-family:Liberation Serif;font-variant:normal;font-weight:normal;font-style:normal;font-size:20px">900000</text>
<text x="39.712" y="-1007.6" transform="scale(1, -1)"
	style="font-family:Liberation Serif;font-variant:normal;font-weight:normal;font-style:normal;font-size:20px">1500000</text>
<path d="M114.71,579L122.71,579" style="fill:none;stroke:#000000;stroke-width:0.5" />
<path d="M114.71,874.69L122.71,874.69" style="fill:none;stroke:#000000;stroke-width:0.5" />
<path d="M114.71,1012.2L122.71,1012.2" style="fill:none;stroke:#000000;stroke-width:0.5" />
<path d="M118.71,765.56L122.71,765.56" style="fill:none;stroke:#000000;stroke-width:0.5" />
<path d="M118.71,952.12L122.71,952.12" style="fill:none;stroke:#000000;stroke-width:0.5" />
<path d="M122.71,77.61L122.71,1024.6" style="fill:none;stroke:#000000;stroke-width:0.5" />
<path d="M132.96,77.61L132.96,1024.6" style="fill:none;stroke:#808080;stroke-width:0.25" />
<path d="M327.63,77.61L327.63,1024.6" style="fill:none;stroke:#808080;stroke-width:0.25" />
<path d="M522.3,77.61L522.3,1024.6" style="fill:none;stroke:#808080;stroke-width:0.25" />
<path d="M716.97,77.61L716.97,1024.6" style="fill:none;stroke:#808080;stroke-width:0.25" />
<path d="M911.65,77.61L911.65,1024.6" style="fill:none;stroke:#808080;stroke-width:0.25" />
<path d="M1106.3,77.61L1106.3,1024.6" style="fill:none;stroke:#808080;stroke-width:0.25" />
<path d="M1301,77.61L1301,1024.6" style="fill:none;stroke:#808080;stroke-width:0.25" />
<path d="M1495.7,77.61L1495.7,1024.6" style="fill:none;stroke:#808080;stroke-width:0.25" />
<path d="M1690.3,77.61L1690.3,1024.6" style="fill:none;stroke:#808080;stroke-width:0.25" />
<path d="M1885,77.61L1885,1024.6" style="fill:none;stroke:#808080;stroke-width:0.25" />
<path d="M132.96,579L1885,579" style="fill:none;stroke:#808080;stroke-width:0.25" />
<path d="M132.96,874.69L1885,874.69" style="fill:none;stroke:#808080;stroke-width:0.25" />
<path d="M132.96,1012.2L1885,1012.2" style="fill:none;stroke:#808080;stroke-width:0.25" />
<path d="M132.96,287.93L327.63,474.1L522.3,602.68L716.97,672.65L911.65,727.47L1106.3,785.95L1301,870.86L1495.7,876.45L1690.3,895.4L1885,954.64" style="fill:none;stroke:#FF0000" />
<path d="M135.46,287.93A2.5,2.5 0 1 1 130.46,287.93A2.5,2.5 0 1 1 135.46,287.93Z" style="fill:none;stroke:#FF0000;stroke-width:0.5" />
<path d="M330.13,474.1A2.5,2.5 0 1 1 325.13,474.1A2.5,2.5 0 1 1 330.13,474.1Z" style="fill:none;stroke:#FF0000;stroke-width:0.5" />
<path d="M524.8,602.68A2.5,2.5 0 1 1 519.8,602.68A2.5,2.5 0 1 1 524.8,602.68Z" style="fill:none;stroke:#FF0000;stroke-width:0.5" />
<path d="M719.47,672.65A2.5,2.5 0 1 1 714.47,672.65A2.5,2.5 0 1 1 719.47,672.65Z" style="fill:none;stroke:#FF0000;stroke-width:0.5" />
<path d="M914.15,727.47A2.5,2.5 0 1 1 909.15,727.47A2.5,2.5 0 1 1 914.15,727.47Z" style="fill:none;stroke:#FF0000;stroke-width:0.5" />
<path d="M1108.8,785.95A2.5,2.5 0 1 1 1103.8,785.95A2.5,2.5 0 1 1 1108.8,785.95Z" style="fill:none;stroke:#FF0000;stroke-width:0.5" />
<path d="M1303.5,870.86A2.5,2.5 0 1 1 1298.5,870.86A2.5,2.5 0 1 1 1303.5,870.86Z" style="fill:none;stroke:#FF0000;stroke-width:0.5" />
<path d="M1498.2,876.45A2.5,2.5 0 1 1 1493.2,876.45A2.5,2.5 0 1 1 1498.2,876.45Z" style="fill:none;stroke:#FF0000;stroke-width:0.5" />
<path d="M1692.8,895.4A2.5,2.5 0 1 1 1687.8,895.4A2.5,2.5 0 1 1 1692.8,895.4Z" style="fill:none;stroke:#FF0000;stroke-width:0.5" />
<path d="M1887.5,954.64A2.5,2.5 0 1 1 1882.5,954.64A2.5,2.5 0 1 1 1887.5,954.64Z" style="fill:none;stroke:#FF0000;stroke-width:0.5" />
<path d="M132.96,284.75L327.63,484.16L522.3,624.84L716.97,685.53L911.65,735.23L1106.3,793.36L1301,870.89L1495.7,879.59L1690.3,904.07L1885,965.58" style="fill:none;stroke:#0000FF" />
<path d="M135.46,284.75A2.5,2.5 0 1 1 130.46,284.75A2.5,2.5 0 1 1 135.46,284.75Z" style="fill:none;stroke:#0000FF;stroke-width:0.5" />
<path d="M330.13,484.16A2.5,2.5 0 1 1 325.13,484.16A2.5,2.5 0 1 1 330.13,484.16Z" style="fill:none;stroke:#0000FF;stroke-width:0.5" />
<path d="M524.8,624.84A2.5,2.5 0 1 1 519.8,624.84A2.5,2.5 0 1 1 524.8,624.84Z" style="fill:none;stroke:#0000FF;stroke-width:0.5" />
<path d="M719.47,685.53A2.5,2.5 0 1 1 714.47,685.53A2.5,2.5 0 1 1 719.47,685.53Z" style="fill:none;stroke:#0000FF;stroke-width:0.5" />
<path d="M914.15,735.23A2.5,2.5 0 1 1 909.15,735.23A2.5,2.5 0 1 1 914.15,735.23Z" style="fill:none;stroke:#0000FF;stroke-width:0.5" />
<path d="M1108.8,793.36A2.5,2.5 0 1 1 1103.8,793.36A2.5,2.5 0 1 1 1108.8,793.36Z" style="fill:none;stroke:#0000FF;stroke-width:0.5" />
<path d="M1303.5,870.89A2.5,2.5 0 1 1 1298.5,870.89A2.5,2.5 0 1 1 1303.5,870.89Z" style="fill:none;stroke:#0000FF;stroke-width:0.5" />
<path d="M1498.2,879.59A2.5,2.5 0 1 1 1493.2,879.59A2.5,2.5 0 1 1 1498.2,879.59Z" style="fill:none;stroke:#0000FF;stroke-width:0.5" />
<path d="M1692.8,904.07A2.5,2.5 0 1 1 1687.8,904.07A2.5,2.5 0 1 1 1692.8,904.07Z" style="fill:none;stroke:#0000FF;stroke-width:0.5" />
<path d="M1887.5,965.58A2.5,2.5 0 1 1 1882.5,965.58A2.5,2.5 0 1 1 1887.5,965.58Z" style="fill:none;stroke:#0000FF;stroke-width:0.5" />
<path d="M132.96,314.23L327.63,511.81L522.3,666.95L716.97,715.92L911.65,727.68L1106.3,998.98L1301,936.18L1495.7,954.44L1690.3,978.12L1885,978.22" style="fill:none;stroke:#00FF00" />
<path d="M135.46,314.23A2.5,2.5 0 1 1 130.46,314.23A2.5,2.5 0 1 1 135.46,314.23Z" style="fill:none;stroke:#00FF00;stroke-width:0.5" />
<path d="M330.13,511.81A2.5,2.5 0 1 1 325.13,511.81A2.5,2.5 0 1 1 330.13,511.81Z" style="fill:none;stroke:#00FF00;stroke-width:0.5" />
<path d="M524.8,666.95A2.5,2.5 0 1 1 519.8,666.95A2.5,2.5 0 1 1 524.8,666.95Z" style="fill:none;stroke:#00FF00;stroke-width:0.5" />
<path d="M719.47,715.92A2.5,2.5 0 1 1 714.47,715.92A2.5,2.5 0 1 1 719.47,715.92Z" style="fill:none;stroke:#00FF00;stroke-width:0.5" />
<path d="M914.15,727.68A2.5,2.5 0 1 1 909.15,727.68A2.5,2.5 0 1 1 914.15,727.68Z" style="fill:none;stroke:#00FF00;stroke-width:0.5" />
<path d="M1108.8,998.98A2.5,2.5 0 1 1 1103.8,998.98A2.5,2.5 0 1 1 1108.8,998.98Z" style="fill:none;stroke:#00FF00;stroke-width:0.5" />
<path d="M1303.5,936.18A2.5,2.5 0 1 1 1298.5,936.18A2.5,2.5 0 1 1 1303.5,936.18Z" style="fill:none;stroke:#00FF00;stroke-width:0.5" />
<path d="M1498.2,954.44A2.5,2.5 0 1 1 1493.2,954.44A2.5,2.5 0 1 1 1498.2,954.44Z" style="fill:none;stroke:#00FF00;stroke-width:0.5" />
<path d="M1692.8,978.12A2.5,2.5 0 1 1 1687.8,978.12A2.5,2.5 0 1 1 1692.8,978.12Z" style="fill:none;stroke:#00FF00;stroke-width:0.5" />
<path d="M1887.5,978.22A2.5,2.5 0 1 1 1882.5,978.22A2.5,2.5 0 1 1 1887.5,978.22Z" style="fill:none;stroke:#00FF00;stroke-width:0.5" />
<path d="M132.96,77.61L327.63,227.32L522.3,358.55L716.97,414.92L911.65,543.66L1106.3,547.91L1301,580.58L1495.7,608.58L1690.3,694.25L1885,675.44" style="fill:none;stroke:#FF8000" />
<path d="M135.46,77.61A2.5,2.5 0 1 1 130.46,77.61A2.5,2.5 0 1 1 135.46,77.61Z" style="fill:none;stroke:#FF8000;stroke-width:0.5" />
<path d="M330.13,227.32A2.5,2.5 0 1 1 325.13,227.32A2.5,2.5 0 1 1 330.13,227.32Z" style="fill:none;stroke:#FF8000;stroke-width:0.5" />
<path d="M524.8,358.55A2.5,2.5 0 1 1 519.8,358.55A2.5,2.5 0 1 1 524.8,358.55Z" style="fill:none;stroke:#FF8000;stroke-width:0.5" />
<path d="M719.47,414.92A2.5,2.5 0 1 1 714.47,414.92A2.5,2.5 0 1 1 719.47,414.92Z" style="fill:none;stroke:#FF8000;stroke-width:0.5" />
<path d="M914.15,543.66A2.5,2.5 0 1 1 909.15,543.66A2.5,2.5 0 1 1 914.15,543.66Z" style="fill:none;stroke:#FF8000;stroke-width:0.5" />
<path d="M1108.8,547.91A2.5,2.5 0 1 1 1103.8,547.91A2.5,2.5 0 1 1 1108.8,547.91Z" style="fill:none;stroke:#FF8000;stroke-width:0.5" />
<path d="M1303.5,580.58A2.5,2.5 0 1 1 1298.5,580.58A2.5,2.5 0 1 1 1303.5,580.58Z" style="fill:none;stroke:#FF8000;stroke-width:0.5" />
<path d="M1498.2,608.58A2.5,2.5 0 1 1 1493.2,608.58A2.5,2.5 0 1 1 1498.2,608.58Z" style="fill:none;stroke:#FF8000;stroke-width:0.5" />
<path d="M1692.8,694.25A2.5,2.5 0 1 1 1687.8,694.25A2.5,2.5 0 1 1 1692.8,694.25Z" style="fill:none;stroke:#FF8000;stroke-width:0.5" />
<path d="M1887.5,675.44A2.5,2.5 0 1 1 1882.5,675.44A2.5,2.5 0 1 1 1887.5,675.44Z" style="fill:none;stroke:#FF8000;stroke-width:0.5" />
<path d="M1900,146.4L1920,146.4" style="fill:none;stroke:#FF0000" />
<path d="M1912.5,146.4A2.5,2.5 0 1 1 1907.5,146.4A2.5,2.5 0 1 1 1912.5,146.4Z" style="fill:none;stroke:#FF0000;stroke-width:0.5" />
<text x="1823.3" y="-141.42" transform="scale(1, -1)"
	style="font-family:Liberation Serif;font-variant:normal;font-weight:normal;font-style:normal;font-size:24px">std::list</text>
<path d="M1900,126.03L1920,126.03" style="fill:none;stroke:#0000FF" />
<path d="M1912.5,126.03A2.5,2.5 0 1 1 1907.5,126.03A2.5,2.5 0 1 1 1912.5,126.03Z" style="fill:none;stroke:#0000FF;stroke-width:0.5" />
<text x="1795.4" y="-121.05" transform="scale(1, -1)"
	style="font-family:Liberation Serif;font-variant:normal;font-weight:normal;font-style:normal;font-size:24px">std::deque</text>
<path d="M1900,105.66L1920,105.66" style="fill:none;stroke:#00FF00" />
<path d="M1912.5,105.66A2.5,2.5 0 1 1 1907.5,105.66A2.5,2.5 0 1 1 1912.5,105.66Z" style="fill:none;stroke:#00FF00;stroke-width:0.5" />
<text x="1792.7" y="-100.69" transform="scale(1, -1)"
	style="font-family:Liberation Serif;font-variant:normal;font-weight:normal;font-style:normal;font-size:24px">std::vector</text>
<path d="M1900,85.294L1920,85.294" style="fill:none;stroke:#FF8000" />
<path d="M1912.5,85.294A2.5,2.5 0 1 1 1907.5,85.294A2.5,2.5 0 1 1 1912.5,85.294Z" style="fill:none;stroke:#FF8000;stroke-width:0.5" />
<text x="1669.4" y="-80.319" transform="scale(1, -1)"
	style="font-family:Liberation Serif;font-variant:normal;font-weight:normal;font-style:normal;font-size:24px">preallocated std::vector</text>
</g>
</svg>
