<?xml version="1.0"?>
<!-- Generated by SVGo and Plotinum VG -->
<svg width="1920pt" height="1080pt" viewBox="0 0 1920 1080"
	xmlns="http://www.w3.org/2000/svg"
	xmlns:xlink="http://www.w3.org/1999/xlink">
<g transform="scale(1, -1) translate(0, -1080)">
<path d="M0,0L1920,0L1920,1080L0,1080Z" style="fill:#FFFFFF" />
<text x="744.09" y="-1040.9" transform="scale(1, -1)"
	style="font-family:Liberation Serif;font-variant:normal;font-weight:normal;font-style:normal;font-size:50px">pushback - Log Scale</text>
<text x="881.52" y="-9.7559" transform="scale(1, -1)"
	style="font-family:Liberation Serif;font-variant:normal;font-weight:normal;font-style:normal;font-size:30px">Number of elements</text>
<text x="92.962" y="-39.727" transform="scale(1, -1)"
	style="font-family:Liberation Serif;font-variant:normal;font-weight:normal;font-style:normal;font-size:20px">100000</text>
<text x="288.74" y="-39.727" transform="scale(1, -1)"
	style="font-family:Liberation Serif;font-variant:normal;font-weight:normal;font-style:normal;font-size:20px">200000</text>
<text x="484.53" y="-39.727" transform="scale(1, -1)"
	style="font-family:Liberation Serif;font-variant:normal;font-weight:normal;font-style:normal;font-size:20px">300000</text>
<text x="680.31" y="-39.727" transform="scale(1, -1)"
	style="font-family:Liberation Serif;font-variant:normal;font-weight:normal;font-style:normal;font-size:20px">400000</text>
<text x="876.09" y="-39.727" transform="scale(1, -1)"
	style="font-family:Liberation Serif;font-variant:normal;font-weight:normal;font-style:normal;font-size:20px">500000</text>
<text x="1071.9" y="-39.727" transform="scale(1, -1)"
	style="font-family:Liberation Serif;font-variant:normal;font-weight:normal;font-style:normal;font-size:20px">600000</text>
<text x="1267.7" y="-39.727" transform="scale(1, -1)"
	style="font-family:Liberation Serif;font-variant:normal;font-weight:normal;font-style:normal;font-size:20px">700000</text>
<text x="1463.4" y="-39.727" transform="scale(1, -1)"
	style="font-family:Liberation Serif;font-variant:normal;font-weight:normal;font-style:normal;font-size:20px">800000</text>
<text x="1659.2" y="-39.727" transform="scale(1, -1)"
	style="font-family:Liberation Serif;font-variant:normal;font-weight:normal;font-style:normal;font-size:20px">900000</text>
<text x="1850" y="-39.727" transform="scale(1, -1)"
	style="font-family:Liberation Serif;font-variant:normal;font-weight:normal;font-style:normal;font-size:20px">1000000</text>
<path d="M122.96,55.371L122.96,63.371" style="fill:none;stroke:#000000;stroke-width:0.5" />
<path d="M318.74,55.371L318.74,63.371" style="fill:none;stroke:#000000;stroke-width:0.5" />
<path d="M514.53,55.371L514.53,63.371" style="fill:none;stroke:#000000;stroke-width:0.5" />
<path d="M710.31,55.371L710.31,63.371" style="fill:none;stroke:#000000;stroke-width:0.5" />
<path d="M906.09,55.371L906.09,63.371" style="fill:none;stroke:#000000;stroke-width:0.5" />
<path d="M1101.9,55.371L1101.9,63.371" style="fill:none;stroke:#000000;stroke-width:0.5" />
<path d="M1297.7,55.371L1297.7,63.371" style="fill:none;stroke:#000000;stroke-width:0.5" />
<path d="M1493.4,55.371L1493.4,63.371" style="fill:none;stroke:#000000;stroke-width:0.5" />
<path d="M1689.2,55.371L1689.2,63.371" style="fill:none;stroke:#000000;stroke-width:0.5" />
<path d="M1885,55.371L1885,63.371" style="fill:none;stroke:#000000;stroke-width:0.5" />
<path d="M122.96,63.371L1885,63.371" style="fill:none;stroke:#000000;stroke-width:0.5" />
<g transform="rotate(90)">
<text x="503.87" y="23.467" transform="scale(1, -1)"
	style="font-family:Liberation Serif;font-variant:normal;font-weight:normal;font-style:normal;font-size:30px">log(μs)</text>
</g>
<text x="49.712" y="-538.4" transform="scale(1, -1)"
	style="font-family:Liberation Serif;font-variant:normal;font-weight:normal;font-style:normal;font-size:20px">20000</text>
<text x="49.712" y="-859.63" transform="scale(1, -1)"
	style="font-family:Liberation Serif;font-variant:normal;font-weight:normal;font-style:normal;font-size:20px">60000</text>
<text x="39.712" y="-1009" transform="scale(1, -1)"
	style="font-family:Liberation Serif;font-variant:normal;font-weight:normal;font-style:normal;font-size:20px">100000</text>
<path d="M104.71,542.97L112.71,542.97" style="fill:none;stroke:#000000;stroke-width:0.5" />
<path d="M104.71,864.2L112.71,864.2" style="fill:none;stroke:#000000;stroke-width:0.5" />
<path d="M104.71,1013.6L112.71,1013.6" style="fill:none;stroke:#000000;stroke-width:0.5" />
<path d="M108.71,340.31L112.71,340.31" style="fill:none;stroke:#000000;stroke-width:0.5" />
<path d="M108.71,661.53L112.71,661.53" style="fill:none;stroke:#000000;stroke-width:0.5" />
<path d="M108.71,745.64L112.71,745.64" style="fill:none;stroke:#000000;stroke-width:0.5" />
<path d="M108.71,810.89L112.71,810.89" style="fill:none;stroke:#000000;stroke-width:0.5" />
<path d="M108.71,909.27L112.71,909.27" style="fill:none;stroke:#000000;stroke-width:0.5" />
<path d="M108.71,948.31L112.71,948.31" style="fill:none;stroke:#000000;stroke-width:0.5" />
<path d="M108.71,982.75L112.71,982.75" style="fill:none;stroke:#000000;stroke-width:0.5" />
<path d="M112.71,77.61L112.71,1016.2" style="fill:none;stroke:#000000;stroke-width:0.5" />
<path d="M122.96,77.61L122.96,1016.2" style="fill:none;stroke:#808080;stroke-width:0.25" />
<path d="M318.74,77.61L318.74,1016.2" style="fill:none;stroke:#808080;stroke-width:0.25" />
<path d="M514.53,77.61L514.53,1016.2" style="fill:none;stroke:#808080;stroke-width:0.25" />
<path d="M710.31,77.61L710.31,1016.2" style="fill:none;stroke:#808080;stroke-width:0.25" />
<path d="M906.09,77.61L906.09,1016.2" style="fill:none;stroke:#808080;stroke-width:0.25" />
<path d="M1101.9,77.61L1101.9,1016.2" style="fill:none;stroke:#808080;stroke-width:0.25" />
<path d="M1297.7,77.61L1297.7,1016.2" style="fill:none;stroke:#808080;stroke-width:0.25" />
<path d="M1493.4,77.61L1493.4,1016.2" style="fill:none;stroke:#808080;stroke-width:0.25" />
<path d="M1689.2,77.61L1689.2,1016.2" style="fill:none;stroke:#808080;stroke-width:0.25" />
<path d="M1885,77.61L1885,1016.2" style="fill:none;stroke:#808080;stroke-width:0.25" />
<path d="M122.96,542.97L1885,542.97" style="fill:none;stroke:#808080;stroke-width:0.25" />
<path d="M122.96,864.2L1885,864.2" style="fill:none;stroke:#808080;stroke-width:0.25" />
<path d="M122.96,1013.6L1885,1013.6" style="fill:none;stroke:#808080;stroke-width:0.25" />
<path d="M122.96,168.42L318.74,312.18L514.53,447.41L710.31,525.5L906.09,589.82L1101.9,643.05L1297.7,693.03L1493.4,842.42L1689.2,869.35L1885,911.25" style="fill:none;stroke:#FF0000" />
<path d="M125.46,168.42A2.5,2.5 0 1 1 120.46,168.42A2.5,2.5 0 1 1 125.46,168.42Z" style="fill:none;stroke:#FF0000;stroke-width:0.5" />
<path d="M321.24,312.18A2.5,2.5 0 1 1 316.24,312.18A2.5,2.5 0 1 1 321.24,312.18Z" style="fill:none;stroke:#FF0000;stroke-width:0.5" />
<path d="M517.03,447.41A2.5,2.5 0 1 1 512.03,447.41A2.5,2.5 0 1 1 517.03,447.41Z" style="fill:none;stroke:#FF0000;stroke-width:0.5" />
<path d="M712.81,525.5A2.5,2.5 0 1 1 707.81,525.5A2.5,2.5 0 1 1 712.81,525.5Z" style="fill:none;stroke:#FF0000;stroke-width:0.5" />
<path d="M908.59,589.82A2.5,2.5 0 1 1 903.59,589.82A2.5,2.5 0 1 1 908.59,589.82Z" style="fill:none;stroke:#FF0000;stroke-width:0.5" />
<path d="M1104.4,643.05A2.5,2.5 0 1 1 1099.4,643.05A2.5,2.5 0 1 1 1104.4,643.05Z" style="fill:none;stroke:#FF0000;stroke-width:0.5" />
<path d="M1300.2,693.03A2.5,2.5 0 1 1 1295.2,693.03A2.5,2.5 0 1 1 1300.2,693.03Z" style="fill:none;stroke:#FF0000;stroke-width:0.5" />
<path d="M1495.9,842.42A2.5,2.5 0 1 1 1490.9,842.42A2.5,2.5 0 1 1 1495.9,842.42Z" style="fill:none;stroke:#FF0000;stroke-width:0.5" />
<path d="M1691.7,869.35A2.5,2.5 0 1 1 1686.7,869.35A2.5,2.5 0 1 1 1691.7,869.35Z" style="fill:none;stroke:#FF0000;stroke-width:0.5" />
<path d="M1887.5,911.25A2.5,2.5 0 1 1 1882.5,911.25A2.5,2.5 0 1 1 1887.5,911.25Z" style="fill:none;stroke:#FF0000;stroke-width:0.5" />
<path d="M122.96,176.41L318.74,401.19L514.53,570.62L710.31,622.22L906.09,664.42L1101.9,738.16L1297.7,773.04L1493.4,786.92L1689.2,832.04L1885,840.18" style="fill:none;stroke:#0000FF" />
<path d="M125.46,176.41A2.5,2.5 0 1 1 120.46,176.41A2.5,2.5 0 1 1 125.46,176.41Z" style="fill:none;stroke:#0000FF;stroke-width:0.5" />
<path d="M321.24,401.19A2.5,2.5 0 1 1 316.24,401.19A2.5,2.5 0 1 1 321.24,401.19Z" style="fill:none;stroke:#0000FF;stroke-width:0.5" />
<path d="M517.03,570.62A2.5,2.5 0 1 1 512.03,570.62A2.5,2.5 0 1 1 517.03,570.62Z" style="fill:none;stroke:#0000FF;stroke-width:0.5" />
<path d="M712.81,622.22A2.5,2.5 0 1 1 707.81,622.22A2.5,2.5 0 1 1 712.81,622.22Z" style="fill:none;stroke:#0000FF;stroke-width:0.5" />
<path d="M908.59,664.42A2.5,2.5 0 1 1 903.59,664.42A2.5,2.5 0 1 1 908.59,664.42Z" style="fill:none;stroke:#0000FF;stroke-width:0.5" />
<path d="M1104.4,738.16A2.5,2.5 0 1 1 1099.4,738.16A2.5,2.5 0 1 1 1104.4,738.16Z" style="fill:none;stroke:#0000FF;stroke-width:0.5" />
<path d="M1300.2,773.04A2.5,2.5 0 1 1 1295.2,773.04A2.5,2.5 0 1 1 1300.2,773.04Z" style="fill:none;stroke:#0000FF;stroke-width:0.5" />
<path d="M1495.9,786.92A2.5,2.5 0 1 1 1490.9,786.92A2.5,2.5 0 1 1 1495.9,786.92Z" style="fill:none;stroke:#0000FF;stroke-width:0.5" />
<path d="M1691.7,832.04A2.5,2.5 0 1 1 1686.7,832.04A2.5,2.5 0 1 1 1691.7,832.04Z" style="fill:none;stroke:#0000FF;stroke-width:0.5" />
<path d="M1887.5,840.18A2.5,2.5 0 1 1 1882.5,840.18A2.5,2.5 0 1 1 1887.5,840.18Z" style="fill:none;stroke:#0000FF;stroke-width:0.5" />
<path d="M122.96,77.61L318.74,219.66L514.53,379.49L710.31,532.77L906.09,534.25L1101.9,592.8L1297.7,634.84L1493.4,663.16L1689.2,705.67L1885,727.39" style="fill:none;stroke:#00FF00" />
<path d="M125.46,77.61A2.5,2.5 0 1 1 120.46,77.61A2.5,2.5 0 1 1 125.46,77.61Z" style="fill:none;stroke:#00FF00;stroke-width:0.5" />
<path d="M321.24,219.66A2.5,2.5 0 1 1 316.24,219.66A2.5,2.5 0 1 1 321.24,219.66Z" style="fill:none;stroke:#00FF00;stroke-width:0.5" />
<path d="M517.03,379.49A2.5,2.5 0 1 1 512.03,379.49A2.5,2.5 0 1 1 517.03,379.49Z" style="fill:none;stroke:#00FF00;stroke-width:0.5" />
<path d="M712.81,532.77A2.5,2.5 0 1 1 707.81,532.77A2.5,2.5 0 1 1 712.81,532.77Z" style="fill:none;stroke:#00FF00;stroke-width:0.5" />
<path d="M908.59,534.25A2.5,2.5 0 1 1 903.59,534.25A2.5,2.5 0 1 1 908.59,534.25Z" style="fill:none;stroke:#00FF00;stroke-width:0.5" />
<path d="M1104.4,592.8A2.5,2.5 0 1 1 1099.4,592.8A2.5,2.5 0 1 1 1104.4,592.8Z" style="fill:none;stroke:#00FF00;stroke-width:0.5" />
<path d="M1300.2,634.84A2.5,2.5 0 1 1 1295.2,634.84A2.5,2.5 0 1 1 1300.2,634.84Z" style="fill:none;stroke:#00FF00;stroke-width:0.5" />
<path d="M1495.9,663.16A2.5,2.5 0 1 1 1490.9,663.16A2.5,2.5 0 1 1 1495.9,663.16Z" style="fill:none;stroke:#00FF00;stroke-width:0.5" />
<path d="M1691.7,705.67A2.5,2.5 0 1 1 1686.7,705.67A2.5,2.5 0 1 1 1691.7,705.67Z" style="fill:none;stroke:#00FF00;stroke-width:0.5" />
<path d="M1887.5,727.39A2.5,2.5 0 1 1 1882.5,727.39A2.5,2.5 0 1 1 1887.5,727.39Z" style="fill:none;stroke:#00FF00;stroke-width:0.5" />
<path d="M122.96,236.35L318.74,403.81L514.53,532.13L710.31,594.2L906.09,683.94L1101.9,801.32L1297.7,875.24L1493.4,939.95L1689.2,945.64L1885,988.33" style="fill:none;stroke:#FF8000" />
<path d="M125.46,236.35A2.5,2.5 0 1 1 120.46,236.35A2.5,2.5 0 1 1 125.46,236.35Z" style="fill:none;stroke:#FF8000;stroke-width:0.5" />
<path d="M321.24,403.81A2.5,2.5 0 1 1 316.24,403.81A2.5,2.5 0 1 1 321.24,403.81Z" style="fill:none;stroke:#FF8000;stroke-width:0.5" />
<path d="M517.03,532.13A2.5,2.5 0 1 1 512.03,532.13A2.5,2.5 0 1 1 517.03,532.13Z" style="fill:none;stroke:#FF8000;stroke-width:0.5" />
<path d="M712.81,594.2A2.5,2.5 0 1 1 707.81,594.2A2.5,2.5 0 1 1 712.81,594.2Z" style="fill:none;stroke:#FF8000;stroke-width:0.5" />
<path d="M908.59,683.94A2.5,2.5 0 1 1 903.59,683.94A2.5,2.5 0 1 1 908.59,683.94Z" style="fill:none;stroke:#FF8000;stroke-width:0.5" />
<path d="M1104.4,801.32A2.5,2.5 0 1 1 1099.4,801.32A2.5,2.5 0 1 1 1104.4,801.32Z" style="fill:none;stroke:#FF8000;stroke-width:0.5" />
<path d="M1300.2,875.24A2.5,2.5 0 1 1 1295.2,875.24A2.5,2.5 0 1 1 1300.2,875.24Z" style="fill:none;stroke:#FF8000;stroke-width:0.5" />
<path d="M1495.9,939.95A2.5,2.5 0 1 1 1490.9,939.95A2.5,2.5 0 1 1 1495.9,939.95Z" style="fill:none;stroke:#FF8000;stroke-width:0.5" />
<path d="M1691.7,945.64A2.5,2.5 0 1 1 1686.7,945.64A2.5,2.5 0 1 1 1691.7,945.64Z" style="fill:none;stroke:#FF8000;stroke-width:0.5" />
<path d="M1887.5,988.33A2.5,2.5 0 1 1 1882.5,988.33A2.5,2.5 0 1 1 1887.5,988.33Z" style="fill:none;stroke:#FF8000;stroke-width:0.5" />
<path d="M1900,146.4L1920,146.4" style="fill:none;stroke:#FF0000" />
<path d="M1912.5,146.4A2.5,2.5 0 1 1 1907.5,146.4A2.5,2.5 0 1 1 1912.5,146.4Z" style="fill:none;stroke:#FF0000;stroke-width:0.5" />
<text x="1795.4" y="-141.42" transform="scale(1, -1)"
	style="font-family:Liberation Serif;font-variant:normal;font-weight:normal;font-style:normal;font-size:24px">std::deque</text>
<path d="M1900,126.03L1920,126.03" style="fill:none;stroke:#0000FF" />
<path d="M1912.5,126.03A2.5,2.5 0 1 1 1907.5,126.03A2.5,2.5 0 1 1 1912.5,126.03Z" style="fill:none;stroke:#0000FF;stroke-width:0.5" />
<text x="1792.7" y="-121.05" transform="scale(1, -1)"
	style="font-family:Liberation Serif;font-variant:normal;font-weight:normal;font-style:normal;font-size:24px">std::vector</text>
<path d="M1900,105.66L1920,105.66" style="fill:none;stroke:#00FF00" />
<path d="M1912.5,105.66A2.5,2.5 0 1 1 1907.5,105.66A2.5,2.5 0 1 1 1912.5,105.66Z" style="fill:none;stroke:#00FF00;stroke-width:0.5" />
<text x="1669.4" y="-100.69" transform="scale(1, -1)"
	style="font-family:Liberation Serif;font-variant:normal;font-weight:normal;font-style:normal;font-size:24px">preallocated std::vector</text>
<path d="M1900,85.294L1920,85.294" style="fill:none;stroke:#FF8000" />
<path d="M1912.5,85.294A2.5,2.5 0 1 1 1907.5,85.294A2.5,2.5 0 1 1 1912.5,85.294Z" style="fill:none;stroke:#FF8000;stroke-width:0.5" />
<text x="1823.3" y="-80.319" transform="scale(1, -1)"
	style="font-family:Liberation Serif;font-variant:normal;font-weight:normal;font-style:normal;font-size:24px">std::list</text>
</g>
</svg>
