<?xml version="1.0"?>
<!-- Generated by SVGo and Plotinum VG -->
<svg width="1920pt" height="1080pt" viewBox="0 0 1920 1080"
	xmlns="http://www.w3.org/2000/svg"
	xmlns:xlink="http://www.w3.org/1999/xlink">
<g transform="scale(1, -1) translate(0, -1080)">
<path d="M0,0L1920,0L1920,1080L0,1080Z" style="fill:#FFFFFF" />
<text x="744.09" y="-1040.9" transform="scale(1, -1)"
	style="font-family:Liberation Serif;font-variant:normal;font-weight:normal;font-style:normal;font-size:50px">pushback - Log Scale</text>
<text x="886.52" y="-9.7559" transform="scale(1, -1)"
	style="font-family:Liberation Serif;font-variant:normal;font-weight:normal;font-style:normal;font-size:30px">Number of elements</text>
<text x="102.96" y="-39.727" transform="scale(1, -1)"
	style="font-family:Liberation Serif;font-variant:normal;font-weight:normal;font-style:normal;font-size:20px">100000</text>
<text x="297.63" y="-39.727" transform="scale(1, -1)"
	style="font-family:Liberation Serif;font-variant:normal;font-weight:normal;font-style:normal;font-size:20px">200000</text>
<text x="492.3" y="-39.727" transform="scale(1, -1)"
	style="font-family:Liberation Serif;font-variant:normal;font-weight:normal;font-style:normal;font-size:20px">300000</text>
<text x="686.97" y="-39.727" transform="scale(1, -1)"
	style="font-family:Liberation Serif;font-variant:normal;font-weight:normal;font-style:normal;font-size:20px">400000</text>
<text x="881.65" y="-39.727" transform="scale(1, -1)"
	style="font-family:Liberation Serif;font-variant:normal;font-weight:normal;font-style:normal;font-size:20px">500000</text>
<text x="1076.3" y="-39.727" transform="scale(1, -1)"
	style="font-family:Liberation Serif;font-variant:normal;font-weight:normal;font-style:normal;font-size:20px">600000</text>
<text x="1271" y="-39.727" transform="scale(1, -1)"
	style="font-family:Liberation Serif;font-variant:normal;font-weight:normal;font-style:normal;font-size:20px">700000</text>
<text x="1465.7" y="-39.727" transform="scale(1, -1)"
	style="font-family:Liberation Serif;font-variant:normal;font-weight:normal;font-style:normal;font-size:20px">800000</text>
<text x="1660.3" y="-39.727" transform="scale(1, -1)"
	style="font-family:Liberation Serif;font-variant:normal;font-weight:normal;font-style:normal;font-size:20px">900000</text>
<text x="1850" y="-39.727" transform="scale(1, -1)"
	style="font-family:Liberation Serif;font-variant:normal;font-weight:normal;font-style:normal;font-size:20px">1000000</text>
<path d="M132.96,55.371L132.96,63.371" style="fill:none;stroke:#000000;stroke-width:0.5" />
<path d="M327.63,55.371L327.63,63.371" style="fill:none;stroke:#000000;stroke-width:0.5" />
<path d="M522.3,55.371L522.3,63.371" style="fill:none;stroke:#000000;stroke-width:0.5" />
<path d="M716.97,55.371L716.97,63.371" style="fill:none;stroke:#000000;stroke-width:0.5" />
<path d="M911.65,55.371L911.65,63.371" style="fill:none;stroke:#000000;stroke-width:0.5" />
<path d="M1106.3,55.371L1106.3,63.371" style="fill:none;stroke:#000000;stroke-width:0.5" />
<path d="M1301,55.371L1301,63.371" style="fill:none;stroke:#000000;stroke-width:0.5" />
<path d="M1495.7,55.371L1495.7,63.371" style="fill:none;stroke:#000000;stroke-width:0.5" />
<path d="M1690.3,55.371L1690.3,63.371" style="fill:none;stroke:#000000;stroke-width:0.5" />
<path d="M1885,55.371L1885,63.371" style="fill:none;stroke:#000000;stroke-width:0.5" />
<path d="M132.96,63.371L1885,63.371" style="fill:none;stroke:#000000;stroke-width:0.5" />
<g transform="rotate(90)">
<text x="508.08" y="23.467" transform="scale(1, -1)"
	style="font-family:Liberation Serif;font-variant:normal;font-weight:normal;font-style:normal;font-size:30px">log(μs)</text>
</g>
<text x="49.712" y="-583.62" transform="scale(1, -1)"
	style="font-family:Liberation Serif;font-variant:normal;font-weight:normal;font-style:normal;font-size:20px">300000</text>
<text x="49.712" y="-869.95" transform="scale(1, -1)"
	style="font-family:Liberation Serif;font-variant:normal;font-weight:normal;font-style:normal;font-size:20px">900000</text>
<text x="39.712" y="-1003.1" transform="scale(1, -1)"
	style="font-family:Liberation Serif;font-variant:normal;font-weight:normal;font-style:normal;font-size:20px">1500000</text>
<path d="M114.71,588.19L122.71,588.19" style="fill:none;stroke:#000000;stroke-width:0.5" />
<path d="M114.71,874.52L122.71,874.52" style="fill:none;stroke:#000000;stroke-width:0.5" />
<path d="M114.71,1007.7L122.71,1007.7" style="fill:none;stroke:#000000;stroke-width:0.5" />
<path d="M118.71,768.85L122.71,768.85" style="fill:none;stroke:#000000;stroke-width:0.5" />
<path d="M118.71,949.5L122.71,949.5" style="fill:none;stroke:#000000;stroke-width:0.5" />
<path d="M122.71,77.61L122.71,1024.6" style="fill:none;stroke:#000000;stroke-width:0.5" />
<path d="M132.96,77.61L132.96,1024.6" style="fill:none;stroke:#808080;stroke-width:0.25" />
<path d="M327.63,77.61L327.63,1024.6" style="fill:none;stroke:#808080;stroke-width:0.25" />
<path d="M522.3,77.61L522.3,1024.6" style="fill:none;stroke:#808080;stroke-width:0.25" />
<path d="M716.97,77.61L716.97,1024.6" style="fill:none;stroke:#808080;stroke-width:0.25" />
<path d="M911.65,77.61L911.65,1024.6" style="fill:none;stroke:#808080;stroke-width:0.25" />
<path d="M1106.3,77.61L1106.3,1024.6" style="fill:none;stroke:#808080;stroke-width:0.25" />
<path d="M1301,77.61L1301,1024.6" style="fill:none;stroke:#808080;stroke-width:0.25" />
<path d="M1495.7,77.61L1495.7,1024.6" style="fill:none;stroke:#808080;stroke-width:0.25" />
<path d="M1690.3,77.61L1690.3,1024.6" style="fill:none;stroke:#808080;stroke-width:0.25" />
<path d="M1885,77.61L1885,1024.6" style="fill:none;stroke:#808080;stroke-width:0.25" />
<path d="M132.96,588.19L1885,588.19" style="fill:none;stroke:#808080;stroke-width:0.25" />
<path d="M132.96,874.52L1885,874.52" style="fill:none;stroke:#808080;stroke-width:0.25" />
<path d="M132.96,1007.7L1885,1007.7" style="fill:none;stroke:#808080;stroke-width:0.25" />
<path d="M132.96,329.7L327.63,482.7L522.3,602.4L716.97,686.64L911.65,752.27L1106.3,791.12L1301,824.6L1495.7,894.57L1690.3,906.69L1885,960.95" style="fill:none;stroke:#FF0000" />
<path d="M135.46,329.7A2.5,2.5 0 1 1 130.46,329.7A2.5,2.5 0 1 1 135.46,329.7Z" style="fill:none;stroke:#FF0000;stroke-width:0.5" />
<path d="M330.13,482.7A2.5,2.5 0 1 1 325.13,482.7A2.5,2.5 0 1 1 330.13,482.7Z" style="fill:none;stroke:#FF0000;stroke-width:0.5" />
<path d="M524.8,602.4A2.5,2.5 0 1 1 519.8,602.4A2.5,2.5 0 1 1 524.8,602.4Z" style="fill:none;stroke:#FF0000;stroke-width:0.5" />
<path d="M719.47,686.64A2.5,2.5 0 1 1 714.47,686.64A2.5,2.5 0 1 1 719.47,686.64Z" style="fill:none;stroke:#FF0000;stroke-width:0.5" />
<path d="M914.15,752.27A2.5,2.5 0 1 1 909.15,752.27A2.5,2.5 0 1 1 914.15,752.27Z" style="fill:none;stroke:#FF0000;stroke-width:0.5" />
<path d="M1108.8,791.12A2.5,2.5 0 1 1 1103.8,791.12A2.5,2.5 0 1 1 1108.8,791.12Z" style="fill:none;stroke:#FF0000;stroke-width:0.5" />
<path d="M1303.5,824.6A2.5,2.5 0 1 1 1298.5,824.6A2.5,2.5 0 1 1 1303.5,824.6Z" style="fill:none;stroke:#FF0000;stroke-width:0.5" />
<path d="M1498.2,894.57A2.5,2.5 0 1 1 1493.2,894.57A2.5,2.5 0 1 1 1498.2,894.57Z" style="fill:none;stroke:#FF0000;stroke-width:0.5" />
<path d="M1692.8,906.69A2.5,2.5 0 1 1 1687.8,906.69A2.5,2.5 0 1 1 1692.8,906.69Z" style="fill:none;stroke:#FF0000;stroke-width:0.5" />
<path d="M1887.5,960.95A2.5,2.5 0 1 1 1882.5,960.95A2.5,2.5 0 1 1 1887.5,960.95Z" style="fill:none;stroke:#FF0000;stroke-width:0.5" />
<path d="M132.96,345.19L327.63,505.73L522.3,619.75L716.97,696.01L911.65,754.71L1106.3,821.04L1301,851.76L1495.7,889.43L1690.3,999.79L1885,974.62" style="fill:none;stroke:#0000FF" />
<path d="M135.46,345.19A2.5,2.5 0 1 1 130.46,345.19A2.5,2.5 0 1 1 135.46,345.19Z" style="fill:none;stroke:#0000FF;stroke-width:0.5" />
<path d="M330.13,505.73A2.5,2.5 0 1 1 325.13,505.73A2.5,2.5 0 1 1 330.13,505.73Z" style="fill:none;stroke:#0000FF;stroke-width:0.5" />
<path d="M524.8,619.75A2.5,2.5 0 1 1 519.8,619.75A2.5,2.5 0 1 1 524.8,619.75Z" style="fill:none;stroke:#0000FF;stroke-width:0.5" />
<path d="M719.47,696.01A2.5,2.5 0 1 1 714.47,696.01A2.5,2.5 0 1 1 719.47,696.01Z" style="fill:none;stroke:#0000FF;stroke-width:0.5" />
<path d="M914.15,754.71A2.5,2.5 0 1 1 909.15,754.71A2.5,2.5 0 1 1 914.15,754.71Z" style="fill:none;stroke:#0000FF;stroke-width:0.5" />
<path d="M1108.8,821.04A2.5,2.5 0 1 1 1103.8,821.04A2.5,2.5 0 1 1 1108.8,821.04Z" style="fill:none;stroke:#0000FF;stroke-width:0.5" />
<path d="M1303.5,851.76A2.5,2.5 0 1 1 1298.5,851.76A2.5,2.5 0 1 1 1303.5,851.76Z" style="fill:none;stroke:#0000FF;stroke-width:0.5" />
<path d="M1498.2,889.43A2.5,2.5 0 1 1 1493.2,889.43A2.5,2.5 0 1 1 1498.2,889.43Z" style="fill:none;stroke:#0000FF;stroke-width:0.5" />
<path d="M1692.8,999.79A2.5,2.5 0 1 1 1687.8,999.79A2.5,2.5 0 1 1 1692.8,999.79Z" style="fill:none;stroke:#0000FF;stroke-width:0.5" />
<path d="M1887.5,974.62A2.5,2.5 0 1 1 1882.5,974.62A2.5,2.5 0 1 1 1887.5,974.62Z" style="fill:none;stroke:#0000FF;stroke-width:0.5" />
<path d="M132.96,346.53L327.63,514.02L522.3,686.27L716.97,707.42L911.65,756.08L1106.3,972.94L1301,929.36L1495.7,921.53L1690.3,916.48L1885,911.47" style="fill:none;stroke:#00FF00" />
<path d="M135.46,346.53A2.5,2.5 0 1 1 130.46,346.53A2.5,2.5 0 1 1 135.46,346.53Z" style="fill:none;stroke:#00FF00;stroke-width:0.5" />
<path d="M330.13,514.02A2.5,2.5 0 1 1 325.13,514.02A2.5,2.5 0 1 1 330.13,514.02Z" style="fill:none;stroke:#00FF00;stroke-width:0.5" />
<path d="M524.8,686.27A2.5,2.5 0 1 1 519.8,686.27A2.5,2.5 0 1 1 524.8,686.27Z" style="fill:none;stroke:#00FF00;stroke-width:0.5" />
<path d="M719.47,707.42A2.5,2.5 0 1 1 714.47,707.42A2.5,2.5 0 1 1 719.47,707.42Z" style="fill:none;stroke:#00FF00;stroke-width:0.5" />
<path d="M914.15,756.08A2.5,2.5 0 1 1 909.15,756.08A2.5,2.5 0 1 1 914.15,756.08Z" style="fill:none;stroke:#00FF00;stroke-width:0.5" />
<path d="M1108.8,972.94A2.5,2.5 0 1 1 1103.8,972.94A2.5,2.5 0 1 1 1108.8,972.94Z" style="fill:none;stroke:#00FF00;stroke-width:0.5" />
<path d="M1303.5,929.36A2.5,2.5 0 1 1 1298.5,929.36A2.5,2.5 0 1 1 1303.5,929.36Z" style="fill:none;stroke:#00FF00;stroke-width:0.5" />
<path d="M1498.2,921.53A2.5,2.5 0 1 1 1493.2,921.53A2.5,2.5 0 1 1 1498.2,921.53Z" style="fill:none;stroke:#00FF00;stroke-width:0.5" />
<path d="M1692.8,916.48A2.5,2.5 0 1 1 1687.8,916.48A2.5,2.5 0 1 1 1692.8,916.48Z" style="fill:none;stroke:#00FF00;stroke-width:0.5" />
<path d="M1887.5,911.47A2.5,2.5 0 1 1 1882.5,911.47A2.5,2.5 0 1 1 1887.5,911.47Z" style="fill:none;stroke:#00FF00;stroke-width:0.5" />
<path d="M132.96,77.61L327.63,241.29L522.3,351.26L716.97,459.17L911.65,510.87L1106.3,542.26L1301,601.58L1495.7,619.97L1690.3,647.93L1885,671.02" style="fill:none;stroke:#FF8000" />
<path d="M135.46,77.61A2.5,2.5 0 1 1 130.46,77.61A2.5,2.5 0 1 1 135.46,77.61Z" style="fill:none;stroke:#FF8000;stroke-width:0.5" />
<path d="M330.13,241.29A2.5,2.5 0 1 1 325.13,241.29A2.5,2.5 0 1 1 330.13,241.29Z" style="fill:none;stroke:#FF8000;stroke-width:0.5" />
<path d="M524.8,351.26A2.5,2.5 0 1 1 519.8,351.26A2.5,2.5 0 1 1 524.8,351.26Z" style="fill:none;stroke:#FF8000;stroke-width:0.5" />
<path d="M719.47,459.17A2.5,2.5 0 1 1 714.47,459.17A2.5,2.5 0 1 1 719.47,459.17Z" style="fill:none;stroke:#FF8000;stroke-width:0.5" />
<path d="M914.15,510.87A2.5,2.5 0 1 1 909.15,510.87A2.5,2.5 0 1 1 914.15,510.87Z" style="fill:none;stroke:#FF8000;stroke-width:0.5" />
<path d="M1108.8,542.26A2.5,2.5 0 1 1 1103.8,542.26A2.5,2.5 0 1 1 1108.8,542.26Z" style="fill:none;stroke:#FF8000;stroke-width:0.5" />
<path d="M1303.5,601.58A2.5,2.5 0 1 1 1298.5,601.58A2.5,2.5 0 1 1 1303.5,601.58Z" style="fill:none;stroke:#FF8000;stroke-width:0.5" />
<path d="M1498.2,619.97A2.5,2.5 0 1 1 1493.2,619.97A2.5,2.5 0 1 1 1498.2,619.97Z" style="fill:none;stroke:#FF8000;stroke-width:0.5" />
<path d="M1692.8,647.93A2.5,2.5 0 1 1 1687.8,647.93A2.5,2.5 0 1 1 1692.8,647.93Z" style="fill:none;stroke:#FF8000;stroke-width:0.5" />
<path d="M1887.5,671.02A2.5,2.5 0 1 1 1882.5,671.02A2.5,2.5 0 1 1 1887.5,671.02Z" style="fill:none;stroke:#FF8000;stroke-width:0.5" />
<path d="M1900,146.4L1920,146.4" style="fill:none;stroke:#FF0000" />
<path d="M1912.5,146.4A2.5,2.5 0 1 1 1907.5,146.4A2.5,2.5 0 1 1 1912.5,146.4Z" style="fill:none;stroke:#FF0000;stroke-width:0.5" />
<text x="1823.3" y="-141.42" transform="scale(1, -1)"
	style="font-family:Liberation Serif;font-variant:normal;font-weight:normal;font-style:normal;font-size:24px">std::list</text>
<path d="M1900,126.03L1920,126.03" style="fill:none;stroke:#0000FF" />
<path d="M1912.5,126.03A2.5,2.5 0 1 1 1907.5,126.03A2.5,2.5 0 1 1 1912.5,126.03Z" style="fill:none;stroke:#0000FF;stroke-width:0.5" />
<text x="1795.4" y="-121.05" transform="scale(1, -1)"
	style="font-family:Liberation Serif;font-variant:normal;font-weight:normal;font-style:normal;font-size:24px">std::deque</text>
<path d="M1900,105.66L1920,105.66" style="fill:none;stroke:#00FF00" />
<path d="M1912.5,105.66A2.5,2.5 0 1 1 1907.5,105.66A2.5,2.5 0 1 1 1912.5,105.66Z" style="fill:none;stroke:#00FF00;stroke-width:0.5" />
<text x="1792.7" y="-100.69" transform="scale(1, -1)"
	style="font-family:Liberation Serif;font-variant:normal;font-weight:normal;font-style:normal;font-size:24px">std::vector</text>
<path d="M1900,85.294L1920,85.294" style="fill:none;stroke:#FF8000" />
<path d="M1912.5,85.294A2.5,2.5 0 1 1 1907.5,85.294A2.5,2.5 0 1 1 1912.5,85.294Z" style="fill:none;stroke:#FF8000;stroke-width:0.5" />
<text x="1669.4" y="-80.319" transform="scale(1, -1)"
	style="font-family:Liberation Serif;font-variant:normal;font-weight:normal;font-style:normal;font-size:24px">preallocated std::vector</text>
</g>
</svg>
