<?xml version="1.0"?>
<!-- Generated by SVGo and Plotinum VG -->
<svg width="1920pt" height="1080pt" viewBox="0 0 1920 1080"
	xmlns="http://www.w3.org/2000/svg"
	xmlns:xlink="http://www.w3.org/1999/xlink">
<g transform="scale(1, -1) translate(0, -1080)">
<path d="M0,0L1920,0L1920,1080L0,1080Z" style="fill:#FFFFFF" />
<text x="865.58" y="-1040.9" transform="scale(1, -1)"
	style="font-family:Liberation Serif;font-variant:normal;font-weight:normal;font-style:normal;font-size:50px">pushback</text>
<text x="881.52" y="-9.7559" transform="scale(1, -1)"
	style="font-family:Liberation Serif;font-variant:normal;font-weight:normal;font-style:normal;font-size:30px">Number of elements</text>
<text x="92.962" y="-39.727" transform="scale(1, -1)"
	style="font-family:Liberation Serif;font-variant:normal;font-weight:normal;font-style:normal;font-size:20px">100000</text>
<text x="288.74" y="-39.727" transform="scale(1, -1)"
	style="font-family:Liberation Serif;font-variant:normal;font-weight:normal;font-style:normal;font-size:20px">200000</text>
<text x="484.53" y="-39.727" transform="scale(1, -1)"
	style="font-family:Liberation Serif;font-variant:normal;font-weight:normal;font-style:normal;font-size:20px">300000</text>
<text x="680.31" y="-39.727" transform="scale(1, -1)"
	style="font-family:Liberation Serif;font-variant:normal;font-weight:normal;font-style:normal;font-size:20px">400000</text>
<text x="876.09" y="-39.727" transform="scale(1, -1)"
	style="font-family:Liberation Serif;font-variant:normal;font-weight:normal;font-style:normal;font-size:20px">500000</text>
<text x="1071.9" y="-39.727" transform="scale(1, -1)"
	style="font-family:Liberation Serif;font-variant:normal;font-weight:normal;font-style:normal;font-size:20px">600000</text>
<text x="1267.7" y="-39.727" transform="scale(1, -1)"
	style="font-family:Liberation Serif;font-variant:normal;font-weight:normal;font-style:normal;font-size:20px">700000</text>
<text x="1463.4" y="-39.727" transform="scale(1, -1)"
	style="font-family:Liberation Serif;font-variant:normal;font-weight:normal;font-style:normal;font-size:20px">800000</text>
<text x="1659.2" y="-39.727" transform="scale(1, -1)"
	style="font-family:Liberation Serif;font-variant:normal;font-weight:normal;font-style:normal;font-size:20px">900000</text>
<text x="1850" y="-39.727" transform="scale(1, -1)"
	style="font-family:Liberation Serif;font-variant:normal;font-weight:normal;font-style:normal;font-size:20px">1000000</text>
<path d="M122.96,55.371L122.96,63.371" style="fill:none;stroke:#000000;stroke-width:0.5" />
<path d="M318.74,55.371L318.74,63.371" style="fill:none;stroke:#000000;stroke-width:0.5" />
<path d="M514.53,55.371L514.53,63.371" style="fill:none;stroke:#000000;stroke-width:0.5" />
<path d="M710.31,55.371L710.31,63.371" style="fill:none;stroke:#000000;stroke-width:0.5" />
<path d="M906.09,55.371L906.09,63.371" style="fill:none;stroke:#000000;stroke-width:0.5" />
<path d="M1101.9,55.371L1101.9,63.371" style="fill:none;stroke:#000000;stroke-width:0.5" />
<path d="M1297.7,55.371L1297.7,63.371" style="fill:none;stroke:#000000;stroke-width:0.5" />
<path d="M1493.4,55.371L1493.4,63.371" style="fill:none;stroke:#000000;stroke-width:0.5" />
<path d="M1689.2,55.371L1689.2,63.371" style="fill:none;stroke:#000000;stroke-width:0.5" />
<path d="M1885,55.371L1885,63.371" style="fill:none;stroke:#000000;stroke-width:0.5" />
<path d="M122.96,63.371L1885,63.371" style="fill:none;stroke:#000000;stroke-width:0.5" />
<g transform="rotate(90)">
<text x="536.13" y="23.467" transform="scale(1, -1)"
	style="font-family:Liberation Serif;font-variant:normal;font-weight:normal;font-style:normal;font-size:30px">μs</text>
</g>
<text x="49.712" y="-228.45" transform="scale(1, -1)"
	style="font-family:Liberation Serif;font-variant:normal;font-weight:normal;font-style:normal;font-size:20px">20000</text>
<text x="49.712" y="-618.71" transform="scale(1, -1)"
	style="font-family:Liberation Serif;font-variant:normal;font-weight:normal;font-style:normal;font-size:20px">60000</text>
<text x="39.712" y="-1009" transform="scale(1, -1)"
	style="font-family:Liberation Serif;font-variant:normal;font-weight:normal;font-style:normal;font-size:20px">100000</text>
<path d="M104.71,233.02L112.71,233.02" style="fill:none;stroke:#000000;stroke-width:0.5" />
<path d="M104.71,623.29L112.71,623.29" style="fill:none;stroke:#000000;stroke-width:0.5" />
<path d="M104.71,1013.6L112.71,1013.6" style="fill:none;stroke:#000000;stroke-width:0.5" />
<path d="M108.71,135.45L112.71,135.45" style="fill:none;stroke:#000000;stroke-width:0.5" />
<path d="M108.71,330.58L112.71,330.58" style="fill:none;stroke:#000000;stroke-width:0.5" />
<path d="M108.71,428.15L112.71,428.15" style="fill:none;stroke:#000000;stroke-width:0.5" />
<path d="M108.71,525.72L112.71,525.72" style="fill:none;stroke:#000000;stroke-width:0.5" />
<path d="M108.71,720.85L112.71,720.85" style="fill:none;stroke:#000000;stroke-width:0.5" />
<path d="M108.71,818.42L112.71,818.42" style="fill:none;stroke:#000000;stroke-width:0.5" />
<path d="M108.71,915.99L112.71,915.99" style="fill:none;stroke:#000000;stroke-width:0.5" />
<path d="M112.71,77.61L112.71,1022.4" style="fill:none;stroke:#000000;stroke-width:0.5" />
<path d="M122.96,77.61L122.96,1022.4" style="fill:none;stroke:#808080;stroke-width:0.25" />
<path d="M318.74,77.61L318.74,1022.4" style="fill:none;stroke:#808080;stroke-width:0.25" />
<path d="M514.53,77.61L514.53,1022.4" style="fill:none;stroke:#808080;stroke-width:0.25" />
<path d="M710.31,77.61L710.31,1022.4" style="fill:none;stroke:#808080;stroke-width:0.25" />
<path d="M906.09,77.61L906.09,1022.4" style="fill:none;stroke:#808080;stroke-width:0.25" />
<path d="M1101.9,77.61L1101.9,1022.4" style="fill:none;stroke:#808080;stroke-width:0.25" />
<path d="M1297.7,77.61L1297.7,1022.4" style="fill:none;stroke:#808080;stroke-width:0.25" />
<path d="M1493.4,77.61L1493.4,1022.4" style="fill:none;stroke:#808080;stroke-width:0.25" />
<path d="M1689.2,77.61L1689.2,1022.4" style="fill:none;stroke:#808080;stroke-width:0.25" />
<path d="M1885,77.61L1885,1022.4" style="fill:none;stroke:#808080;stroke-width:0.25" />
<path d="M122.96,233.02L1885,233.02" style="fill:none;stroke:#808080;stroke-width:0.25" />
<path d="M122.96,623.29L1885,623.29" style="fill:none;stroke:#808080;stroke-width:0.25" />
<path d="M122.96,1013.6L1885,1013.6" style="fill:none;stroke:#808080;stroke-width:0.25" />
<path d="M122.96,92.08L318.74,126.5L514.53,178.61L710.31,221.7L906.09,266.92L1101.9,312.66L1297.7,363.88L1493.4,581.27L1689.2,633.71L1885,725.5" style="fill:none;stroke:#FF0000" />
<path d="M125.46,92.08A2.5,2.5 0 1 1 120.46,92.08A2.5,2.5 0 1 1 125.46,92.08Z" style="fill:none;stroke:#FF0000;stroke-width:0.5" />
<path d="M321.24,126.5A2.5,2.5 0 1 1 316.24,126.5A2.5,2.5 0 1 1 321.24,126.5Z" style="fill:none;stroke:#FF0000;stroke-width:0.5" />
<path d="M517.03,178.61A2.5,2.5 0 1 1 512.03,178.61A2.5,2.5 0 1 1 517.03,178.61Z" style="fill:none;stroke:#FF0000;stroke-width:0.5" />
<path d="M712.81,221.7A2.5,2.5 0 1 1 707.81,221.7A2.5,2.5 0 1 1 712.81,221.7Z" style="fill:none;stroke:#FF0000;stroke-width:0.5" />
<path d="M908.59,266.92A2.5,2.5 0 1 1 903.59,266.92A2.5,2.5 0 1 1 908.59,266.92Z" style="fill:none;stroke:#FF0000;stroke-width:0.5" />
<path d="M1104.4,312.66A2.5,2.5 0 1 1 1099.4,312.66A2.5,2.5 0 1 1 1104.4,312.66Z" style="fill:none;stroke:#FF0000;stroke-width:0.5" />
<path d="M1300.2,363.88A2.5,2.5 0 1 1 1295.2,363.88A2.5,2.5 0 1 1 1300.2,363.88Z" style="fill:none;stroke:#FF0000;stroke-width:0.5" />
<path d="M1495.9,581.27A2.5,2.5 0 1 1 1490.9,581.27A2.5,2.5 0 1 1 1495.9,581.27Z" style="fill:none;stroke:#FF0000;stroke-width:0.5" />
<path d="M1691.7,633.71A2.5,2.5 0 1 1 1686.7,633.71A2.5,2.5 0 1 1 1691.7,633.71Z" style="fill:none;stroke:#FF0000;stroke-width:0.5" />
<path d="M1887.5,725.5A2.5,2.5 0 1 1 1882.5,725.5A2.5,2.5 0 1 1 1887.5,725.5Z" style="fill:none;stroke:#FF0000;stroke-width:0.5" />
<path d="M122.96,93.582L318.74,158.04L514.53,252.36L710.31,293.76L906.09,333.49L1101.9,418.29L1297.7,466.48L1493.4,487.33L1689.2,562.33L1885,577.12" style="fill:none;stroke:#0000FF" />
<path d="M125.46,93.582A2.5,2.5 0 1 1 120.46,93.582A2.5,2.5 0 1 1 125.46,93.582Z" style="fill:none;stroke:#0000FF;stroke-width:0.5" />
<path d="M321.24,158.04A2.5,2.5 0 1 1 316.24,158.04A2.5,2.5 0 1 1 321.24,158.04Z" style="fill:none;stroke:#0000FF;stroke-width:0.5" />
<path d="M517.03,252.36A2.5,2.5 0 1 1 512.03,252.36A2.5,2.5 0 1 1 517.03,252.36Z" style="fill:none;stroke:#0000FF;stroke-width:0.5" />
<path d="M712.81,293.76A2.5,2.5 0 1 1 707.81,293.76A2.5,2.5 0 1 1 712.81,293.76Z" style="fill:none;stroke:#0000FF;stroke-width:0.5" />
<path d="M908.59,333.49A2.5,2.5 0 1 1 903.59,333.49A2.5,2.5 0 1 1 908.59,333.49Z" style="fill:none;stroke:#0000FF;stroke-width:0.5" />
<path d="M1104.4,418.29A2.5,2.5 0 1 1 1099.4,418.29A2.5,2.5 0 1 1 1104.4,418.29Z" style="fill:none;stroke:#0000FF;stroke-width:0.5" />
<path d="M1300.2,466.48A2.5,2.5 0 1 1 1295.2,466.48A2.5,2.5 0 1 1 1300.2,466.48Z" style="fill:none;stroke:#0000FF;stroke-width:0.5" />
<path d="M1495.9,487.33A2.5,2.5 0 1 1 1490.9,487.33A2.5,2.5 0 1 1 1495.9,487.33Z" style="fill:none;stroke:#0000FF;stroke-width:0.5" />
<path d="M1691.7,562.33A2.5,2.5 0 1 1 1686.7,562.33A2.5,2.5 0 1 1 1691.7,562.33Z" style="fill:none;stroke:#0000FF;stroke-width:0.5" />
<path d="M1887.5,577.12A2.5,2.5 0 1 1 1882.5,577.12A2.5,2.5 0 1 1 1887.5,577.12Z" style="fill:none;stroke:#0000FF;stroke-width:0.5" />
<path d="M122.96,77.61L318.74,102.46L514.53,149.44L710.31,226.32L906.09,227.28L1101.9,269.27L1297.7,305.05L1493.4,332.22L1689.2,378.28L1885,404.53" style="fill:none;stroke:#00FF00" />
<path d="M125.46,77.61A2.5,2.5 0 1 1 120.46,77.61A2.5,2.5 0 1 1 125.46,77.61Z" style="fill:none;stroke:#00FF00;stroke-width:0.5" />
<path d="M321.24,102.46A2.5,2.5 0 1 1 316.24,102.46A2.5,2.5 0 1 1 321.24,102.46Z" style="fill:none;stroke:#00FF00;stroke-width:0.5" />
<path d="M517.03,149.44A2.5,2.5 0 1 1 512.03,149.44A2.5,2.5 0 1 1 517.03,149.44Z" style="fill:none;stroke:#00FF00;stroke-width:0.5" />
<path d="M712.81,226.32A2.5,2.5 0 1 1 707.81,226.32A2.5,2.5 0 1 1 712.81,226.32Z" style="fill:none;stroke:#00FF00;stroke-width:0.5" />
<path d="M908.59,227.28A2.5,2.5 0 1 1 903.59,227.28A2.5,2.5 0 1 1 908.59,227.28Z" style="fill:none;stroke:#00FF00;stroke-width:0.5" />
<path d="M1104.4,269.27A2.5,2.5 0 1 1 1099.4,269.27A2.5,2.5 0 1 1 1104.4,269.27Z" style="fill:none;stroke:#00FF00;stroke-width:0.5" />
<path d="M1300.2,305.05A2.5,2.5 0 1 1 1295.2,305.05A2.5,2.5 0 1 1 1300.2,305.05Z" style="fill:none;stroke:#00FF00;stroke-width:0.5" />
<path d="M1495.9,332.22A2.5,2.5 0 1 1 1490.9,332.22A2.5,2.5 0 1 1 1495.9,332.22Z" style="fill:none;stroke:#00FF00;stroke-width:0.5" />
<path d="M1691.7,378.28A2.5,2.5 0 1 1 1686.7,378.28A2.5,2.5 0 1 1 1691.7,378.28Z" style="fill:none;stroke:#00FF00;stroke-width:0.5" />
<path d="M1887.5,404.53A2.5,2.5 0 1 1 1882.5,404.53A2.5,2.5 0 1 1 1887.5,404.53Z" style="fill:none;stroke:#00FF00;stroke-width:0.5" />
<path d="M122.96,106.26L318.74,159.12L514.53,225.91L710.31,270.38L906.09,353.9L1101.9,510.01L1297.7,645.82L1493.4,796.42L1689.2,811.34L1885,932.91" style="fill:none;stroke:#FF8000" />
<path d="M125.46,106.26A2.5,2.5 0 1 1 120.46,106.26A2.5,2.5 0 1 1 125.46,106.26Z" style="fill:none;stroke:#FF8000;stroke-width:0.5" />
<path d="M321.24,159.12A2.5,2.5 0 1 1 316.24,159.12A2.5,2.5 0 1 1 321.24,159.12Z" style="fill:none;stroke:#FF8000;stroke-width:0.5" />
<path d="M517.03,225.91A2.5,2.5 0 1 1 512.03,225.91A2.5,2.5 0 1 1 517.03,225.91Z" style="fill:none;stroke:#FF8000;stroke-width:0.5" />
<path d="M712.81,270.38A2.5,2.5 0 1 1 707.81,270.38A2.5,2.5 0 1 1 712.81,270.38Z" style="fill:none;stroke:#FF8000;stroke-width:0.5" />
<path d="M908.59,353.9A2.5,2.5 0 1 1 903.59,353.9A2.5,2.5 0 1 1 908.59,353.9Z" style="fill:none;stroke:#FF8000;stroke-width:0.5" />
<path d="M1104.4,510.01A2.5,2.5 0 1 1 1099.4,510.01A2.5,2.5 0 1 1 1104.4,510.01Z" style="fill:none;stroke:#FF8000;stroke-width:0.5" />
<path d="M1300.2,645.82A2.5,2.5 0 1 1 1295.2,645.82A2.5,2.5 0 1 1 1300.2,645.82Z" style="fill:none;stroke:#FF8000;stroke-width:0.5" />
<path d="M1495.9,796.42A2.5,2.5 0 1 1 1490.9,796.42A2.5,2.5 0 1 1 1495.9,796.42Z" style="fill:none;stroke:#FF8000;stroke-width:0.5" />
<path d="M1691.7,811.34A2.5,2.5 0 1 1 1686.7,811.34A2.5,2.5 0 1 1 1691.7,811.34Z" style="fill:none;stroke:#FF8000;stroke-width:0.5" />
<path d="M1887.5,932.91A2.5,2.5 0 1 1 1882.5,932.91A2.5,2.5 0 1 1 1887.5,932.91Z" style="fill:none;stroke:#FF8000;stroke-width:0.5" />
<path d="M1900,146.4L1920,146.4" style="fill:none;stroke:#FF0000" />
<path d="M1912.5,146.4A2.5,2.5 0 1 1 1907.5,146.4A2.5,2.5 0 1 1 1912.5,146.4Z" style="fill:none;stroke:#FF0000;stroke-width:0.5" />
<text x="1795.4" y="-141.42" transform="scale(1, -1)"
	style="font-family:Liberation Serif;font-variant:normal;font-weight:normal;font-style:normal;font-size:24px">std::deque</text>
<path d="M1900,126.03L1920,126.03" style="fill:none;stroke:#0000FF" />
<path d="M1912.5,126.03A2.5,2.5 0 1 1 1907.5,126.03A2.5,2.5 0 1 1 1912.5,126.03Z" style="fill:none;stroke:#0000FF;stroke-width:0.5" />
<text x="1792.7" y="-121.05" transform="scale(1, -1)"
	style="font-family:Liberation Serif;font-variant:normal;font-weight:normal;font-style:normal;font-size:24px">std::vector</text>
<path d="M1900,105.66L1920,105.66" style="fill:none;stroke:#00FF00" />
<path d="M1912.5,105.66A2.5,2.5 0 1 1 1907.5,105.66A2.5,2.5 0 1 1 1912.5,105.66Z" style="fill:none;stroke:#00FF00;stroke-width:0.5" />
<text x="1669.4" y="-100.69" transform="scale(1, -1)"
	style="font-family:Liberation Serif;font-variant:normal;font-weight:normal;font-style:normal;font-size:24px">preallocated std::vector</text>
<path d="M1900,85.294L1920,85.294" style="fill:none;stroke:#FF8000" />
<path d="M1912.5,85.294A2.5,2.5 0 1 1 1907.5,85.294A2.5,2.5 0 1 1 1912.5,85.294Z" style="fill:none;stroke:#FF8000;stroke-width:0.5" />
<text x="1823.3" y="-80.319" transform="scale(1, -1)"
	style="font-family:Liberation Serif;font-variant:normal;font-weight:normal;font-style:normal;font-size:24px">std::list</text>
</g>
</svg>
