<?xml version="1.0"?>
<!-- Generated by SVGo and Plotinum VG -->
<svg width="1920pt" height="1080pt" viewBox="0 0 1920 1080"
	xmlns="http://www.w3.org/2000/svg"
	xmlns:xlink="http://www.w3.org/1999/xlink">
<g transform="scale(1, -1) translate(0, -1080)">
<path d="M0,0L1920,0L1920,1080L0,1080Z" style="fill:#FFFFFF" />
<text x="744.09" y="-1040.9" transform="scale(1, -1)"
	style="font-family:Liberation Serif;font-variant:normal;font-weight:normal;font-style:normal;font-size:50px">pushback - Log Scale</text>
<text x="881.52" y="-9.7559" transform="scale(1, -1)"
	style="font-family:Liberation Serif;font-variant:normal;font-weight:normal;font-style:normal;font-size:30px">Number of elements</text>
<text x="92.962" y="-39.727" transform="scale(1, -1)"
	style="font-family:Liberation Serif;font-variant:normal;font-weight:normal;font-style:normal;font-size:20px">100000</text>
<text x="288.74" y="-39.727" transform="scale(1, -1)"
	style="font-family:Liberation Serif;font-variant:normal;font-weight:normal;font-style:normal;font-size:20px">200000</text>
<text x="484.53" y="-39.727" transform="scale(1, -1)"
	style="font-family:Liberation Serif;font-variant:normal;font-weight:normal;font-style:normal;font-size:20px">300000</text>
<text x="680.31" y="-39.727" transform="scale(1, -1)"
	style="font-family:Liberation Serif;font-variant:normal;font-weight:normal;font-style:normal;font-size:20px">400000</text>
<text x="876.09" y="-39.727" transform="scale(1, -1)"
	style="font-family:Liberation Serif;font-variant:normal;font-weight:normal;font-style:normal;font-size:20px">500000</text>
<text x="1071.9" y="-39.727" transform="scale(1, -1)"
	style="font-family:Liberation Serif;font-variant:normal;font-weight:normal;font-style:normal;font-size:20px">600000</text>
<text x="1267.7" y="-39.727" transform="scale(1, -1)"
	style="font-family:Liberation Serif;font-variant:normal;font-weight:normal;font-style:normal;font-size:20px">700000</text>
<text x="1463.4" y="-39.727" transform="scale(1, -1)"
	style="font-family:Liberation Serif;font-variant:normal;font-weight:normal;font-style:normal;font-size:20px">800000</text>
<text x="1659.2" y="-39.727" transform="scale(1, -1)"
	style="font-family:Liberation Serif;font-variant:normal;font-weight:normal;font-style:normal;font-size:20px">900000</text>
<text x="1850" y="-39.727" transform="scale(1, -1)"
	style="font-family:Liberation Serif;font-variant:normal;font-weight:normal;font-style:normal;font-size:20px">1000000</text>
<path d="M122.96,55.371L122.96,63.371" style="fill:none;stroke:#000000;stroke-width:0.5" />
<path d="M318.74,55.371L318.74,63.371" style="fill:none;stroke:#000000;stroke-width:0.5" />
<path d="M514.53,55.371L514.53,63.371" style="fill:none;stroke:#000000;stroke-width:0.5" />
<path d="M710.31,55.371L710.31,63.371" style="fill:none;stroke:#000000;stroke-width:0.5" />
<path d="M906.09,55.371L906.09,63.371" style="fill:none;stroke:#000000;stroke-width:0.5" />
<path d="M1101.9,55.371L1101.9,63.371" style="fill:none;stroke:#000000;stroke-width:0.5" />
<path d="M1297.7,55.371L1297.7,63.371" style="fill:none;stroke:#000000;stroke-width:0.5" />
<path d="M1493.4,55.371L1493.4,63.371" style="fill:none;stroke:#000000;stroke-width:0.5" />
<path d="M1689.2,55.371L1689.2,63.371" style="fill:none;stroke:#000000;stroke-width:0.5" />
<path d="M1885,55.371L1885,63.371" style="fill:none;stroke:#000000;stroke-width:0.5" />
<path d="M122.96,63.371L1885,63.371" style="fill:none;stroke:#000000;stroke-width:0.5" />
<g transform="rotate(90)">
<text x="508.08" y="23.467" transform="scale(1, -1)"
	style="font-family:Liberation Serif;font-variant:normal;font-weight:normal;font-style:normal;font-size:30px">log(μs)</text>
</g>
<text x="49.712" y="-537.77" transform="scale(1, -1)"
	style="font-family:Liberation Serif;font-variant:normal;font-weight:normal;font-style:normal;font-size:20px">20000</text>
<text x="49.712" y="-836.09" transform="scale(1, -1)"
	style="font-family:Liberation Serif;font-variant:normal;font-weight:normal;font-style:normal;font-size:20px">60000</text>
<text x="39.712" y="-974.8" transform="scale(1, -1)"
	style="font-family:Liberation Serif;font-variant:normal;font-weight:normal;font-style:normal;font-size:20px">100000</text>
<path d="M104.71,542.34L112.71,542.34" style="fill:none;stroke:#000000;stroke-width:0.5" />
<path d="M104.71,840.66L112.71,840.66" style="fill:none;stroke:#000000;stroke-width:0.5" />
<path d="M104.71,979.37L112.71,979.37" style="fill:none;stroke:#000000;stroke-width:0.5" />
<path d="M108.71,354.13L112.71,354.13" style="fill:none;stroke:#000000;stroke-width:0.5" />
<path d="M108.71,652.44L112.71,652.44" style="fill:none;stroke:#000000;stroke-width:0.5" />
<path d="M108.71,730.56L112.71,730.56" style="fill:none;stroke:#000000;stroke-width:0.5" />
<path d="M108.71,791.15L112.71,791.15" style="fill:none;stroke:#000000;stroke-width:0.5" />
<path d="M108.71,882.52L112.71,882.52" style="fill:none;stroke:#000000;stroke-width:0.5" />
<path d="M108.71,918.78L112.71,918.78" style="fill:none;stroke:#000000;stroke-width:0.5" />
<path d="M108.71,950.76L112.71,950.76" style="fill:none;stroke:#000000;stroke-width:0.5" />
<path d="M108.71,1005.3L112.71,1005.3" style="fill:none;stroke:#000000;stroke-width:0.5" />
<path d="M112.71,77.61L112.71,1024.6" style="fill:none;stroke:#000000;stroke-width:0.5" />
<path d="M122.96,77.61L122.96,1024.6" style="fill:none;stroke:#808080;stroke-width:0.25" />
<path d="M318.74,77.61L318.74,1024.6" style="fill:none;stroke:#808080;stroke-width:0.25" />
<path d="M514.53,77.61L514.53,1024.6" style="fill:none;stroke:#808080;stroke-width:0.25" />
<path d="M710.31,77.61L710.31,1024.6" style="fill:none;stroke:#808080;stroke-width:0.25" />
<path d="M906.09,77.61L906.09,1024.6" style="fill:none;stroke:#808080;stroke-width:0.25" />
<path d="M1101.9,77.61L1101.9,1024.6" style="fill:none;stroke:#808080;stroke-width:0.25" />
<path d="M1297.7,77.61L1297.7,1024.6" style="fill:none;stroke:#808080;stroke-width:0.25" />
<path d="M1493.4,77.61L1493.4,1024.6" style="fill:none;stroke:#808080;stroke-width:0.25" />
<path d="M1689.2,77.61L1689.2,1024.6" style="fill:none;stroke:#808080;stroke-width:0.25" />
<path d="M1885,77.61L1885,1024.6" style="fill:none;stroke:#808080;stroke-width:0.25" />
<path d="M122.96,542.34L1885,542.34" style="fill:none;stroke:#808080;stroke-width:0.25" />
<path d="M122.96,840.66L1885,840.66" style="fill:none;stroke:#808080;stroke-width:0.25" />
<path d="M122.96,979.37L1885,979.37" style="fill:none;stroke:#808080;stroke-width:0.25" />
<path d="M122.96,199.19L318.74,390.32L514.53,563.37L710.31,601.24L906.09,648.53L1101.9,797L1297.7,807.56L1493.4,809.93L1689.2,819.86L1885,837.02" style="fill:none;stroke:#FF0000" />
<path d="M125.46,199.19A2.5,2.5 0 1 1 120.46,199.19A2.5,2.5 0 1 1 125.46,199.19Z" style="fill:none;stroke:#FF0000;stroke-width:0.5" />
<path d="M321.24,390.32A2.5,2.5 0 1 1 316.24,390.32A2.5,2.5 0 1 1 321.24,390.32Z" style="fill:none;stroke:#FF0000;stroke-width:0.5" />
<path d="M517.03,563.37A2.5,2.5 0 1 1 512.03,563.37A2.5,2.5 0 1 1 517.03,563.37Z" style="fill:none;stroke:#FF0000;stroke-width:0.5" />
<path d="M712.81,601.24A2.5,2.5 0 1 1 707.81,601.24A2.5,2.5 0 1 1 712.81,601.24Z" style="fill:none;stroke:#FF0000;stroke-width:0.5" />
<path d="M908.59,648.53A2.5,2.5 0 1 1 903.59,648.53A2.5,2.5 0 1 1 908.59,648.53Z" style="fill:none;stroke:#FF0000;stroke-width:0.5" />
<path d="M1104.4,797A2.5,2.5 0 1 1 1099.4,797A2.5,2.5 0 1 1 1104.4,797Z" style="fill:none;stroke:#FF0000;stroke-width:0.5" />
<path d="M1300.2,807.56A2.5,2.5 0 1 1 1295.2,807.56A2.5,2.5 0 1 1 1300.2,807.56Z" style="fill:none;stroke:#FF0000;stroke-width:0.5" />
<path d="M1495.9,809.93A2.5,2.5 0 1 1 1490.9,809.93A2.5,2.5 0 1 1 1495.9,809.93Z" style="fill:none;stroke:#FF0000;stroke-width:0.5" />
<path d="M1691.7,819.86A2.5,2.5 0 1 1 1686.7,819.86A2.5,2.5 0 1 1 1691.7,819.86Z" style="fill:none;stroke:#FF0000;stroke-width:0.5" />
<path d="M1887.5,837.02A2.5,2.5 0 1 1 1882.5,837.02A2.5,2.5 0 1 1 1887.5,837.02Z" style="fill:none;stroke:#FF0000;stroke-width:0.5" />
<path d="M122.96,77.61L318.74,325.7L514.53,429.72L710.31,580.01L906.09,571.5L1101.9,620.05L1297.7,648.2L1493.4,700.13L1689.2,733.7L1885,746.58" style="fill:none;stroke:#0000FF" />
<path d="M125.46,77.61A2.5,2.5 0 1 1 120.46,77.61A2.5,2.5 0 1 1 125.46,77.61Z" style="fill:none;stroke:#0000FF;stroke-width:0.5" />
<path d="M321.24,325.7A2.5,2.5 0 1 1 316.24,325.7A2.5,2.5 0 1 1 321.24,325.7Z" style="fill:none;stroke:#0000FF;stroke-width:0.5" />
<path d="M517.03,429.72A2.5,2.5 0 1 1 512.03,429.72A2.5,2.5 0 1 1 517.03,429.72Z" style="fill:none;stroke:#0000FF;stroke-width:0.5" />
<path d="M712.81,580.01A2.5,2.5 0 1 1 707.81,580.01A2.5,2.5 0 1 1 712.81,580.01Z" style="fill:none;stroke:#0000FF;stroke-width:0.5" />
<path d="M908.59,571.5A2.5,2.5 0 1 1 903.59,571.5A2.5,2.5 0 1 1 908.59,571.5Z" style="fill:none;stroke:#0000FF;stroke-width:0.5" />
<path d="M1104.4,620.05A2.5,2.5 0 1 1 1099.4,620.05A2.5,2.5 0 1 1 1104.4,620.05Z" style="fill:none;stroke:#0000FF;stroke-width:0.5" />
<path d="M1300.2,648.2A2.5,2.5 0 1 1 1295.2,648.2A2.5,2.5 0 1 1 1300.2,648.2Z" style="fill:none;stroke:#0000FF;stroke-width:0.5" />
<path d="M1495.9,700.13A2.5,2.5 0 1 1 1490.9,700.13A2.5,2.5 0 1 1 1495.9,700.13Z" style="fill:none;stroke:#0000FF;stroke-width:0.5" />
<path d="M1691.7,733.7A2.5,2.5 0 1 1 1686.7,733.7A2.5,2.5 0 1 1 1691.7,733.7Z" style="fill:none;stroke:#0000FF;stroke-width:0.5" />
<path d="M1887.5,746.58A2.5,2.5 0 1 1 1882.5,746.58A2.5,2.5 0 1 1 1887.5,746.58Z" style="fill:none;stroke:#0000FF;stroke-width:0.5" />
<path d="M122.96,289.53L318.74,466.08L514.53,558.73L710.31,647.29L906.09,702.75L1101.9,846.2L1297.7,871.53L1493.4,930.67L1689.2,971.92L1885,998.75" style="fill:none;stroke:#00FF00" />
<path d="M125.46,289.53A2.5,2.5 0 1 1 120.46,289.53A2.5,2.5 0 1 1 125.46,289.53Z" style="fill:none;stroke:#00FF00;stroke-width:0.5" />
<path d="M321.24,466.08A2.5,2.5 0 1 1 316.24,466.08A2.5,2.5 0 1 1 321.24,466.08Z" style="fill:none;stroke:#00FF00;stroke-width:0.5" />
<path d="M517.03,558.73A2.5,2.5 0 1 1 512.03,558.73A2.5,2.5 0 1 1 517.03,558.73Z" style="fill:none;stroke:#00FF00;stroke-width:0.5" />
<path d="M712.81,647.29A2.5,2.5 0 1 1 707.81,647.29A2.5,2.5 0 1 1 712.81,647.29Z" style="fill:none;stroke:#00FF00;stroke-width:0.5" />
<path d="M908.59,702.75A2.5,2.5 0 1 1 903.59,702.75A2.5,2.5 0 1 1 908.59,702.75Z" style="fill:none;stroke:#00FF00;stroke-width:0.5" />
<path d="M1104.4,846.2A2.5,2.5 0 1 1 1099.4,846.2A2.5,2.5 0 1 1 1104.4,846.2Z" style="fill:none;stroke:#00FF00;stroke-width:0.5" />
<path d="M1300.2,871.53A2.5,2.5 0 1 1 1295.2,871.53A2.5,2.5 0 1 1 1300.2,871.53Z" style="fill:none;stroke:#00FF00;stroke-width:0.5" />
<path d="M1495.9,930.67A2.5,2.5 0 1 1 1490.9,930.67A2.5,2.5 0 1 1 1495.9,930.67Z" style="fill:none;stroke:#00FF00;stroke-width:0.5" />
<path d="M1691.7,971.92A2.5,2.5 0 1 1 1686.7,971.92A2.5,2.5 0 1 1 1691.7,971.92Z" style="fill:none;stroke:#00FF00;stroke-width:0.5" />
<path d="M1887.5,998.75A2.5,2.5 0 1 1 1882.5,998.75A2.5,2.5 0 1 1 1887.5,998.75Z" style="fill:none;stroke:#00FF00;stroke-width:0.5" />
<path d="M122.96,195.13L318.74,382.39L514.53,506.61L710.31,576.73L906.09,643.09L1101.9,691.01L1297.7,728.73L1493.4,843.19L1689.2,886.51L1885,952.93" style="fill:none;stroke:#FF8000" />
<path d="M125.46,195.13A2.5,2.5 0 1 1 120.46,195.13A2.5,2.5 0 1 1 125.46,195.13Z" style="fill:none;stroke:#FF8000;stroke-width:0.5" />
<path d="M321.24,382.39A2.5,2.5 0 1 1 316.24,382.39A2.5,2.5 0 1 1 321.24,382.39Z" style="fill:none;stroke:#FF8000;stroke-width:0.5" />
<path d="M517.03,506.61A2.5,2.5 0 1 1 512.03,506.61A2.5,2.5 0 1 1 517.03,506.61Z" style="fill:none;stroke:#FF8000;stroke-width:0.5" />
<path d="M712.81,576.73A2.5,2.5 0 1 1 707.81,576.73A2.5,2.5 0 1 1 712.81,576.73Z" style="fill:none;stroke:#FF8000;stroke-width:0.5" />
<path d="M908.59,643.09A2.5,2.5 0 1 1 903.59,643.09A2.5,2.5 0 1 1 908.59,643.09Z" style="fill:none;stroke:#FF8000;stroke-width:0.5" />
<path d="M1104.4,691.01A2.5,2.5 0 1 1 1099.4,691.01A2.5,2.5 0 1 1 1104.4,691.01Z" style="fill:none;stroke:#FF8000;stroke-width:0.5" />
<path d="M1300.2,728.73A2.5,2.5 0 1 1 1295.2,728.73A2.5,2.5 0 1 1 1300.2,728.73Z" style="fill:none;stroke:#FF8000;stroke-width:0.5" />
<path d="M1495.9,843.19A2.5,2.5 0 1 1 1490.9,843.19A2.5,2.5 0 1 1 1495.9,843.19Z" style="fill:none;stroke:#FF8000;stroke-width:0.5" />
<path d="M1691.7,886.51A2.5,2.5 0 1 1 1686.7,886.51A2.5,2.5 0 1 1 1691.7,886.51Z" style="fill:none;stroke:#FF8000;stroke-width:0.5" />
<path d="M1887.5,952.93A2.5,2.5 0 1 1 1882.5,952.93A2.5,2.5 0 1 1 1887.5,952.93Z" style="fill:none;stroke:#FF8000;stroke-width:0.5" />
<path d="M1900,146.4L1920,146.4" style="fill:none;stroke:#FF0000" />
<path d="M1912.5,146.4A2.5,2.5 0 1 1 1907.5,146.4A2.5,2.5 0 1 1 1912.5,146.4Z" style="fill:none;stroke:#FF0000;stroke-width:0.5" />
<text x="1792.7" y="-141.42" transform="scale(1, -1)"
	style="font-family:Liberation Serif;font-variant:normal;font-weight:normal;font-style:normal;font-size:24px">std::vector</text>
<path d="M1900,126.03L1920,126.03" style="fill:none;stroke:#0000FF" />
<path d="M1912.5,126.03A2.5,2.5 0 1 1 1907.5,126.03A2.5,2.5 0 1 1 1912.5,126.03Z" style="fill:none;stroke:#0000FF;stroke-width:0.5" />
<text x="1669.4" y="-121.05" transform="scale(1, -1)"
	style="font-family:Liberation Serif;font-variant:normal;font-weight:normal;font-style:normal;font-size:24px">preallocated std::vector</text>
<path d="M1900,105.66L1920,105.66" style="fill:none;stroke:#00FF00" />
<path d="M1912.5,105.66A2.5,2.5 0 1 1 1907.5,105.66A2.5,2.5 0 1 1 1912.5,105.66Z" style="fill:none;stroke:#00FF00;stroke-width:0.5" />
<text x="1823.3" y="-100.69" transform="scale(1, -1)"
	style="font-family:Liberation Serif;font-variant:normal;font-weight:normal;font-style:normal;font-size:24px">std::list</text>
<path d="M1900,85.294L1920,85.294" style="fill:none;stroke:#FF8000" />
<path d="M1912.5,85.294A2.5,2.5 0 1 1 1907.5,85.294A2.5,2.5 0 1 1 1912.5,85.294Z" style="fill:none;stroke:#FF8000;stroke-width:0.5" />
<text x="1795.4" y="-80.319" transform="scale(1, -1)"
	style="font-family:Liberation Serif;font-variant:normal;font-weight:normal;font-style:normal;font-size:24px">std::deque</text>
</g>
</svg>
