<?xml version="1.0"?>
<!-- Generated by SVGo and Plotinum VG -->
<svg width="1920pt" height="1080pt" viewBox="0 0 1920 1080"
	xmlns="http://www.w3.org/2000/svg"
	xmlns:xlink="http://www.w3.org/1999/xlink">
<g transform="scale(1, -1) translate(0, -1080)">
<path d="M0,0L1920,0L1920,1080L0,1080Z" style="fill:#FFFFFF" />
<text x="865.58" y="-1040.9" transform="scale(1, -1)"
	style="font-family:Liberation Serif;font-variant:normal;font-weight:normal;font-style:normal;font-size:50px">pushback</text>
<text x="876.52" y="-9.7559" transform="scale(1, -1)"
	style="font-family:Liberation Serif;font-variant:normal;font-weight:normal;font-style:normal;font-size:30px">Number of elements</text>
<text x="82.962" y="-39.727" transform="scale(1, -1)"
	style="font-family:Liberation Serif;font-variant:normal;font-weight:normal;font-style:normal;font-size:20px">100000</text>
<text x="279.86" y="-39.727" transform="scale(1, -1)"
	style="font-family:Liberation Serif;font-variant:normal;font-weight:normal;font-style:normal;font-size:20px">200000</text>
<text x="476.75" y="-39.727" transform="scale(1, -1)"
	style="font-family:Liberation Serif;font-variant:normal;font-weight:normal;font-style:normal;font-size:20px">300000</text>
<text x="673.64" y="-39.727" transform="scale(1, -1)"
	style="font-family:Liberation Serif;font-variant:normal;font-weight:normal;font-style:normal;font-size:20px">400000</text>
<text x="870.53" y="-39.727" transform="scale(1, -1)"
	style="font-family:Liberation Serif;font-variant:normal;font-weight:normal;font-style:normal;font-size:20px">500000</text>
<text x="1067.4" y="-39.727" transform="scale(1, -1)"
	style="font-family:Liberation Serif;font-variant:normal;font-weight:normal;font-style:normal;font-size:20px">600000</text>
<text x="1264.3" y="-39.727" transform="scale(1, -1)"
	style="font-family:Liberation Serif;font-variant:normal;font-weight:normal;font-style:normal;font-size:20px">700000</text>
<text x="1461.2" y="-39.727" transform="scale(1, -1)"
	style="font-family:Liberation Serif;font-variant:normal;font-weight:normal;font-style:normal;font-size:20px">800000</text>
<text x="1658.1" y="-39.727" transform="scale(1, -1)"
	style="font-family:Liberation Serif;font-variant:normal;font-weight:normal;font-style:normal;font-size:20px">900000</text>
<text x="1850" y="-39.727" transform="scale(1, -1)"
	style="font-family:Liberation Serif;font-variant:normal;font-weight:normal;font-style:normal;font-size:20px">1000000</text>
<path d="M112.96,55.371L112.96,63.371" style="fill:none;stroke:#000000;stroke-width:0.5" />
<path d="M309.86,55.371L309.86,63.371" style="fill:none;stroke:#000000;stroke-width:0.5" />
<path d="M506.75,55.371L506.75,63.371" style="fill:none;stroke:#000000;stroke-width:0.5" />
<path d="M703.64,55.371L703.64,63.371" style="fill:none;stroke:#000000;stroke-width:0.5" />
<path d="M900.53,55.371L900.53,63.371" style="fill:none;stroke:#000000;stroke-width:0.5" />
<path d="M1097.4,55.371L1097.4,63.371" style="fill:none;stroke:#000000;stroke-width:0.5" />
<path d="M1294.3,55.371L1294.3,63.371" style="fill:none;stroke:#000000;stroke-width:0.5" />
<path d="M1491.2,55.371L1491.2,63.371" style="fill:none;stroke:#000000;stroke-width:0.5" />
<path d="M1688.1,55.371L1688.1,63.371" style="fill:none;stroke:#000000;stroke-width:0.5" />
<path d="M1885,55.371L1885,63.371" style="fill:none;stroke:#000000;stroke-width:0.5" />
<path d="M112.96,63.371L1885,63.371" style="fill:none;stroke:#000000;stroke-width:0.5" />
<g transform="rotate(90)">
<text x="535.16" y="23.467" transform="scale(1, -1)"
	style="font-family:Liberation Serif;font-variant:normal;font-weight:normal;font-style:normal;font-size:30px">μs</text>
</g>
<text x="49.712" y="-115.89" transform="scale(1, -1)"
	style="font-family:Liberation Serif;font-variant:normal;font-weight:normal;font-style:normal;font-size:20px">5000</text>
<text x="39.712" y="-413.59" transform="scale(1, -1)"
	style="font-family:Liberation Serif;font-variant:normal;font-weight:normal;font-style:normal;font-size:20px">25000</text>
<text x="39.712" y="-711.29" transform="scale(1, -1)"
	style="font-family:Liberation Serif;font-variant:normal;font-weight:normal;font-style:normal;font-size:20px">45000</text>
<text x="39.712" y="-1009" transform="scale(1, -1)"
	style="font-family:Liberation Serif;font-variant:normal;font-weight:normal;font-style:normal;font-size:20px">65000</text>
<path d="M94.712,120.46L102.71,120.46" style="fill:none;stroke:#000000;stroke-width:0.5" />
<path d="M94.712,418.16L102.71,418.16" style="fill:none;stroke:#000000;stroke-width:0.5" />
<path d="M94.712,715.86L102.71,715.86" style="fill:none;stroke:#000000;stroke-width:0.5" />
<path d="M94.712,1013.6L102.71,1013.6" style="fill:none;stroke:#000000;stroke-width:0.5" />
<path d="M98.712,269.31L102.71,269.31" style="fill:none;stroke:#000000;stroke-width:0.5" />
<path d="M98.712,567.01L102.71,567.01" style="fill:none;stroke:#000000;stroke-width:0.5" />
<path d="M98.712,864.71L102.71,864.71" style="fill:none;stroke:#000000;stroke-width:0.5" />
<path d="M102.71,77.61L102.71,1020.5" style="fill:none;stroke:#000000;stroke-width:0.5" />
<path d="M112.96,77.61L112.96,1020.5" style="fill:none;stroke:#808080;stroke-width:0.25" />
<path d="M309.86,77.61L309.86,1020.5" style="fill:none;stroke:#808080;stroke-width:0.25" />
<path d="M506.75,77.61L506.75,1020.5" style="fill:none;stroke:#808080;stroke-width:0.25" />
<path d="M703.64,77.61L703.64,1020.5" style="fill:none;stroke:#808080;stroke-width:0.25" />
<path d="M900.53,77.61L900.53,1020.5" style="fill:none;stroke:#808080;stroke-width:0.25" />
<path d="M1097.4,77.61L1097.4,1020.5" style="fill:none;stroke:#808080;stroke-width:0.25" />
<path d="M1294.3,77.61L1294.3,1020.5" style="fill:none;stroke:#808080;stroke-width:0.25" />
<path d="M1491.2,77.61L1491.2,1020.5" style="fill:none;stroke:#808080;stroke-width:0.25" />
<path d="M1688.1,77.61L1688.1,1020.5" style="fill:none;stroke:#808080;stroke-width:0.25" />
<path d="M1885,77.61L1885,1020.5" style="fill:none;stroke:#808080;stroke-width:0.25" />
<path d="M112.96,120.46L1885,120.46" style="fill:none;stroke:#808080;stroke-width:0.25" />
<path d="M112.96,418.16L1885,418.16" style="fill:none;stroke:#808080;stroke-width:0.25" />
<path d="M112.96,715.86L1885,715.86" style="fill:none;stroke:#808080;stroke-width:0.25" />
<path d="M112.96,1013.6L1885,1013.6" style="fill:none;stroke:#808080;stroke-width:0.25" />
<path d="M112.96,132.04L309.86,205.77L506.75,262.24L703.64,374.62L900.53,458.39L1097.4,614.85L1294.3,700.82L1491.2,672.66L1688.1,841.31L1885,931.88" style="fill:none;stroke:#FF0000" />
<path d="M115.46,132.04A2.5,2.5 0 1 1 110.46,132.04A2.5,2.5 0 1 1 115.46,132.04Z" style="fill:none;stroke:#FF0000;stroke-width:0.5" />
<path d="M312.36,205.77A2.5,2.5 0 1 1 307.36,205.77A2.5,2.5 0 1 1 312.36,205.77Z" style="fill:none;stroke:#FF0000;stroke-width:0.5" />
<path d="M509.25,262.24A2.5,2.5 0 1 1 504.25,262.24A2.5,2.5 0 1 1 509.25,262.24Z" style="fill:none;stroke:#FF0000;stroke-width:0.5" />
<path d="M706.14,374.62A2.5,2.5 0 1 1 701.14,374.62A2.5,2.5 0 1 1 706.14,374.62Z" style="fill:none;stroke:#FF0000;stroke-width:0.5" />
<path d="M903.03,458.39A2.5,2.5 0 1 1 898.03,458.39A2.5,2.5 0 1 1 903.03,458.39Z" style="fill:none;stroke:#FF0000;stroke-width:0.5" />
<path d="M1099.9,614.85A2.5,2.5 0 1 1 1094.9,614.85A2.5,2.5 0 1 1 1099.9,614.85Z" style="fill:none;stroke:#FF0000;stroke-width:0.5" />
<path d="M1296.8,700.82A2.5,2.5 0 1 1 1291.8,700.82A2.5,2.5 0 1 1 1296.8,700.82Z" style="fill:none;stroke:#FF0000;stroke-width:0.5" />
<path d="M1493.7,672.66A2.5,2.5 0 1 1 1488.7,672.66A2.5,2.5 0 1 1 1493.7,672.66Z" style="fill:none;stroke:#FF0000;stroke-width:0.5" />
<path d="M1690.6,841.31A2.5,2.5 0 1 1 1685.6,841.31A2.5,2.5 0 1 1 1690.6,841.31Z" style="fill:none;stroke:#FF0000;stroke-width:0.5" />
<path d="M1887.5,931.88A2.5,2.5 0 1 1 1882.5,931.88A2.5,2.5 0 1 1 1887.5,931.88Z" style="fill:none;stroke:#FF0000;stroke-width:0.5" />
<path d="M112.96,101.56L309.86,115.24L506.75,150.14L703.64,183.61L900.53,234.79L1097.4,244.05L1294.3,257.79L1491.2,280.54L1688.1,316.32L1885,342.52" style="fill:none;stroke:#0000FF" />
<path d="M115.46,101.56A2.5,2.5 0 1 1 110.46,101.56A2.5,2.5 0 1 1 115.46,101.56Z" style="fill:none;stroke:#0000FF;stroke-width:0.5" />
<path d="M312.36,115.24A2.5,2.5 0 1 1 307.36,115.24A2.5,2.5 0 1 1 312.36,115.24Z" style="fill:none;stroke:#0000FF;stroke-width:0.5" />
<path d="M509.25,150.14A2.5,2.5 0 1 1 504.25,150.14A2.5,2.5 0 1 1 509.25,150.14Z" style="fill:none;stroke:#0000FF;stroke-width:0.5" />
<path d="M706.14,183.61A2.5,2.5 0 1 1 701.14,183.61A2.5,2.5 0 1 1 706.14,183.61Z" style="fill:none;stroke:#0000FF;stroke-width:0.5" />
<path d="M903.03,234.79A2.5,2.5 0 1 1 898.03,234.79A2.5,2.5 0 1 1 903.03,234.79Z" style="fill:none;stroke:#0000FF;stroke-width:0.5" />
<path d="M1099.9,244.05A2.5,2.5 0 1 1 1094.9,244.05A2.5,2.5 0 1 1 1099.9,244.05Z" style="fill:none;stroke:#0000FF;stroke-width:0.5" />
<path d="M1296.8,257.79A2.5,2.5 0 1 1 1291.8,257.79A2.5,2.5 0 1 1 1296.8,257.79Z" style="fill:none;stroke:#0000FF;stroke-width:0.5" />
<path d="M1493.7,280.54A2.5,2.5 0 1 1 1488.7,280.54A2.5,2.5 0 1 1 1493.7,280.54Z" style="fill:none;stroke:#0000FF;stroke-width:0.5" />
<path d="M1690.6,316.32A2.5,2.5 0 1 1 1685.6,316.32A2.5,2.5 0 1 1 1690.6,316.32Z" style="fill:none;stroke:#0000FF;stroke-width:0.5" />
<path d="M1887.5,342.52A2.5,2.5 0 1 1 1882.5,342.52A2.5,2.5 0 1 1 1887.5,342.52Z" style="fill:none;stroke:#0000FF;stroke-width:0.5" />
<path d="M112.96,81.51L309.86,108.15L506.75,137.7L703.64,176.4L900.53,224.64L1097.4,275.65L1294.3,293.37L1491.2,327.56L1688.1,334.88L1885,338.01" style="fill:none;stroke:#00FF00" />
<path d="M115.46,81.51A2.5,2.5 0 1 1 110.46,81.51A2.5,2.5 0 1 1 115.46,81.51Z" style="fill:none;stroke:#00FF00;stroke-width:0.5" />
<path d="M312.36,108.15A2.5,2.5 0 1 1 307.36,108.15A2.5,2.5 0 1 1 312.36,108.15Z" style="fill:none;stroke:#00FF00;stroke-width:0.5" />
<path d="M509.25,137.7A2.5,2.5 0 1 1 504.25,137.7A2.5,2.5 0 1 1 509.25,137.7Z" style="fill:none;stroke:#00FF00;stroke-width:0.5" />
<path d="M706.14,176.4A2.5,2.5 0 1 1 701.14,176.4A2.5,2.5 0 1 1 706.14,176.4Z" style="fill:none;stroke:#00FF00;stroke-width:0.5" />
<path d="M903.03,224.64A2.5,2.5 0 1 1 898.03,224.64A2.5,2.5 0 1 1 903.03,224.64Z" style="fill:none;stroke:#00FF00;stroke-width:0.5" />
<path d="M1099.9,275.65A2.5,2.5 0 1 1 1094.9,275.65A2.5,2.5 0 1 1 1099.9,275.65Z" style="fill:none;stroke:#00FF00;stroke-width:0.5" />
<path d="M1296.8,293.37A2.5,2.5 0 1 1 1291.8,293.37A2.5,2.5 0 1 1 1296.8,293.37Z" style="fill:none;stroke:#00FF00;stroke-width:0.5" />
<path d="M1493.7,327.56A2.5,2.5 0 1 1 1488.7,327.56A2.5,2.5 0 1 1 1493.7,327.56Z" style="fill:none;stroke:#00FF00;stroke-width:0.5" />
<path d="M1690.6,334.88A2.5,2.5 0 1 1 1685.6,334.88A2.5,2.5 0 1 1 1690.6,334.88Z" style="fill:none;stroke:#00FF00;stroke-width:0.5" />
<path d="M1887.5,338.01A2.5,2.5 0 1 1 1882.5,338.01A2.5,2.5 0 1 1 1887.5,338.01Z" style="fill:none;stroke:#00FF00;stroke-width:0.5" />
<path d="M112.96,77.61L309.86,106.93L506.75,131.11L703.64,158.51L900.53,201.29L1097.4,219.34L1294.3,239.62L1491.2,274.21L1688.1,297.83L1885,325.46" style="fill:none;stroke:#FF8000" />
<path d="M115.46,77.61A2.5,2.5 0 1 1 110.46,77.61A2.5,2.5 0 1 1 115.46,77.61Z" style="fill:none;stroke:#FF8000;stroke-width:0.5" />
<path d="M312.36,106.93A2.5,2.5 0 1 1 307.36,106.93A2.5,2.5 0 1 1 312.36,106.93Z" style="fill:none;stroke:#FF8000;stroke-width:0.5" />
<path d="M509.25,131.11A2.5,2.5 0 1 1 504.25,131.11A2.5,2.5 0 1 1 509.25,131.11Z" style="fill:none;stroke:#FF8000;stroke-width:0.5" />
<path d="M706.14,158.51A2.5,2.5 0 1 1 701.14,158.51A2.5,2.5 0 1 1 706.14,158.51Z" style="fill:none;stroke:#FF8000;stroke-width:0.5" />
<path d="M903.03,201.29A2.5,2.5 0 1 1 898.03,201.29A2.5,2.5 0 1 1 903.03,201.29Z" style="fill:none;stroke:#FF8000;stroke-width:0.5" />
<path d="M1099.9,219.34A2.5,2.5 0 1 1 1094.9,219.34A2.5,2.5 0 1 1 1099.9,219.34Z" style="fill:none;stroke:#FF8000;stroke-width:0.5" />
<path d="M1296.8,239.62A2.5,2.5 0 1 1 1291.8,239.62A2.5,2.5 0 1 1 1296.8,239.62Z" style="fill:none;stroke:#FF8000;stroke-width:0.5" />
<path d="M1493.7,274.21A2.5,2.5 0 1 1 1488.7,274.21A2.5,2.5 0 1 1 1493.7,274.21Z" style="fill:none;stroke:#FF8000;stroke-width:0.5" />
<path d="M1690.6,297.83A2.5,2.5 0 1 1 1685.6,297.83A2.5,2.5 0 1 1 1690.6,297.83Z" style="fill:none;stroke:#FF8000;stroke-width:0.5" />
<path d="M1887.5,325.46A2.5,2.5 0 1 1 1882.5,325.46A2.5,2.5 0 1 1 1887.5,325.46Z" style="fill:none;stroke:#FF8000;stroke-width:0.5" />
<path d="M1900,146.4L1920,146.4" style="fill:none;stroke:#FF0000" />
<path d="M1912.5,146.4A2.5,2.5 0 1 1 1907.5,146.4A2.5,2.5 0 1 1 1912.5,146.4Z" style="fill:none;stroke:#FF0000;stroke-width:0.5" />
<text x="1823.3" y="-141.42" transform="scale(1, -1)"
	style="font-family:Liberation Serif;font-variant:normal;font-weight:normal;font-style:normal;font-size:24px">std::list</text>
<path d="M1900,126.03L1920,126.03" style="fill:none;stroke:#0000FF" />
<path d="M1912.5,126.03A2.5,2.5 0 1 1 1907.5,126.03A2.5,2.5 0 1 1 1912.5,126.03Z" style="fill:none;stroke:#0000FF;stroke-width:0.5" />
<text x="1795.4" y="-121.05" transform="scale(1, -1)"
	style="font-family:Liberation Serif;font-variant:normal;font-weight:normal;font-style:normal;font-size:24px">std::deque</text>
<path d="M1900,105.66L1920,105.66" style="fill:none;stroke:#00FF00" />
<path d="M1912.5,105.66A2.5,2.5 0 1 1 1907.5,105.66A2.5,2.5 0 1 1 1912.5,105.66Z" style="fill:none;stroke:#00FF00;stroke-width:0.5" />
<text x="1792.7" y="-100.69" transform="scale(1, -1)"
	style="font-family:Liberation Serif;font-variant:normal;font-weight:normal;font-style:normal;font-size:24px">std::vector</text>
<path d="M1900,85.294L1920,85.294" style="fill:none;stroke:#FF8000" />
<path d="M1912.5,85.294A2.5,2.5 0 1 1 1907.5,85.294A2.5,2.5 0 1 1 1912.5,85.294Z" style="fill:none;stroke:#FF8000;stroke-width:0.5" />
<text x="1669.4" y="-80.319" transform="scale(1, -1)"
	style="font-family:Liberation Serif;font-variant:normal;font-weight:normal;font-style:normal;font-size:24px">preallocated std::vector</text>
</g>
</svg>
