<?xml version="1.0"?>
<!-- Generated by SVGo and Plotinum VG -->
<svg width="1920pt" height="1080pt" viewBox="0 0 1920 1080"
	xmlns="http://www.w3.org/2000/svg"
	xmlns:xlink="http://www.w3.org/1999/xlink">
<g transform="scale(1, -1) translate(0, -1080)">
<path d="M0,0L1920,0L1920,1080L0,1080Z" style="fill:#FFFFFF" />
<text x="865.58" y="-1040.9" transform="scale(1, -1)"
	style="font-family:Liberation Serif;font-variant:normal;font-weight:normal;font-style:normal;font-size:50px">pushback</text>
<text x="886.52" y="-9.7559" transform="scale(1, -1)"
	style="font-family:Liberation Serif;font-variant:normal;font-weight:normal;font-style:normal;font-size:30px">Number of elements</text>
<text x="102.96" y="-39.727" transform="scale(1, -1)"
	style="font-family:Liberation Serif;font-variant:normal;font-weight:normal;font-style:normal;font-size:20px">100000</text>
<text x="297.63" y="-39.727" transform="scale(1, -1)"
	style="font-family:Liberation Serif;font-variant:normal;font-weight:normal;font-style:normal;font-size:20px">200000</text>
<text x="492.3" y="-39.727" transform="scale(1, -1)"
	style="font-family:Liberation Serif;font-variant:normal;font-weight:normal;font-style:normal;font-size:20px">300000</text>
<text x="686.97" y="-39.727" transform="scale(1, -1)"
	style="font-family:Liberation Serif;font-variant:normal;font-weight:normal;font-style:normal;font-size:20px">400000</text>
<text x="881.65" y="-39.727" transform="scale(1, -1)"
	style="font-family:Liberation Serif;font-variant:normal;font-weight:normal;font-style:normal;font-size:20px">500000</text>
<text x="1076.3" y="-39.727" transform="scale(1, -1)"
	style="font-family:Liberation Serif;font-variant:normal;font-weight:normal;font-style:normal;font-size:20px">600000</text>
<text x="1271" y="-39.727" transform="scale(1, -1)"
	style="font-family:Liberation Serif;font-variant:normal;font-weight:normal;font-style:normal;font-size:20px">700000</text>
<text x="1465.7" y="-39.727" transform="scale(1, -1)"
	style="font-family:Liberation Serif;font-variant:normal;font-weight:normal;font-style:normal;font-size:20px">800000</text>
<text x="1660.3" y="-39.727" transform="scale(1, -1)"
	style="font-family:Liberation Serif;font-variant:normal;font-weight:normal;font-style:normal;font-size:20px">900000</text>
<text x="1850" y="-39.727" transform="scale(1, -1)"
	style="font-family:Liberation Serif;font-variant:normal;font-weight:normal;font-style:normal;font-size:20px">1000000</text>
<path d="M132.96,55.371L132.96,63.371" style="fill:none;stroke:#000000;stroke-width:0.5" />
<path d="M327.63,55.371L327.63,63.371" style="fill:none;stroke:#000000;stroke-width:0.5" />
<path d="M522.3,55.371L522.3,63.371" style="fill:none;stroke:#000000;stroke-width:0.5" />
<path d="M716.97,55.371L716.97,63.371" style="fill:none;stroke:#000000;stroke-width:0.5" />
<path d="M911.65,55.371L911.65,63.371" style="fill:none;stroke:#000000;stroke-width:0.5" />
<path d="M1106.3,55.371L1106.3,63.371" style="fill:none;stroke:#000000;stroke-width:0.5" />
<path d="M1301,55.371L1301,63.371" style="fill:none;stroke:#000000;stroke-width:0.5" />
<path d="M1495.7,55.371L1495.7,63.371" style="fill:none;stroke:#000000;stroke-width:0.5" />
<path d="M1690.3,55.371L1690.3,63.371" style="fill:none;stroke:#000000;stroke-width:0.5" />
<path d="M1885,55.371L1885,63.371" style="fill:none;stroke:#000000;stroke-width:0.5" />
<path d="M132.96,63.371L1885,63.371" style="fill:none;stroke:#000000;stroke-width:0.5" />
<g transform="rotate(90)">
<text x="537.24" y="23.467" transform="scale(1, -1)"
	style="font-family:Liberation Serif;font-variant:normal;font-weight:normal;font-style:normal;font-size:30px">μs</text>
</g>
<text x="49.712" y="-230.48" transform="scale(1, -1)"
	style="font-family:Liberation Serif;font-variant:normal;font-weight:normal;font-style:normal;font-size:20px">300000</text>
<text x="49.712" y="-603.22" transform="scale(1, -1)"
	style="font-family:Liberation Serif;font-variant:normal;font-weight:normal;font-style:normal;font-size:20px">900000</text>
<text x="39.712" y="-975.96" transform="scale(1, -1)"
	style="font-family:Liberation Serif;font-variant:normal;font-weight:normal;font-style:normal;font-size:20px">1500000</text>
<path d="M114.71,235.05L122.71,235.05" style="fill:none;stroke:#000000;stroke-width:0.5" />
<path d="M114.71,607.79L122.71,607.79" style="fill:none;stroke:#000000;stroke-width:0.5" />
<path d="M114.71,980.53L122.71,980.53" style="fill:none;stroke:#000000;stroke-width:0.5" />
<path d="M118.71,421.42L122.71,421.42" style="fill:none;stroke:#000000;stroke-width:0.5" />
<path d="M118.71,794.16L122.71,794.16" style="fill:none;stroke:#000000;stroke-width:0.5" />
<path d="M122.71,77.61L122.71,1024.6" style="fill:none;stroke:#000000;stroke-width:0.5" />
<path d="M132.96,77.61L132.96,1024.6" style="fill:none;stroke:#808080;stroke-width:0.25" />
<path d="M327.63,77.61L327.63,1024.6" style="fill:none;stroke:#808080;stroke-width:0.25" />
<path d="M522.3,77.61L522.3,1024.6" style="fill:none;stroke:#808080;stroke-width:0.25" />
<path d="M716.97,77.61L716.97,1024.6" style="fill:none;stroke:#808080;stroke-width:0.25" />
<path d="M911.65,77.61L911.65,1024.6" style="fill:none;stroke:#808080;stroke-width:0.25" />
<path d="M1106.3,77.61L1106.3,1024.6" style="fill:none;stroke:#808080;stroke-width:0.25" />
<path d="M1301,77.61L1301,1024.6" style="fill:none;stroke:#808080;stroke-width:0.25" />
<path d="M1495.7,77.61L1495.7,1024.6" style="fill:none;stroke:#808080;stroke-width:0.25" />
<path d="M1690.3,77.61L1690.3,1024.6" style="fill:none;stroke:#808080;stroke-width:0.25" />
<path d="M1885,77.61L1885,1024.6" style="fill:none;stroke:#808080;stroke-width:0.25" />
<path d="M132.96,235.05L1885,235.05" style="fill:none;stroke:#808080;stroke-width:0.25" />
<path d="M132.96,607.79L1885,607.79" style="fill:none;stroke:#808080;stroke-width:0.25" />
<path d="M132.96,980.53L1885,980.53" style="fill:none;stroke:#808080;stroke-width:0.25" />
<path d="M132.96,111.88L327.63,174.9L522.3,252.19L716.97,312.61L911.65,372.23L1106.3,450.75L1301,599.89L1495.7,611.46L1690.3,652.5L1885,801.17" style="fill:none;stroke:#FF0000" />
<path d="M135.46,111.88A2.5,2.5 0 1 1 130.46,111.88A2.5,2.5 0 1 1 135.46,111.88Z" style="fill:none;stroke:#FF0000;stroke-width:0.5" />
<path d="M330.13,174.9A2.5,2.5 0 1 1 325.13,174.9A2.5,2.5 0 1 1 330.13,174.9Z" style="fill:none;stroke:#FF0000;stroke-width:0.5" />
<path d="M524.8,252.19A2.5,2.5 0 1 1 519.8,252.19A2.5,2.5 0 1 1 524.8,252.19Z" style="fill:none;stroke:#FF0000;stroke-width:0.5" />
<path d="M719.47,312.61A2.5,2.5 0 1 1 714.47,312.61A2.5,2.5 0 1 1 719.47,312.61Z" style="fill:none;stroke:#FF0000;stroke-width:0.5" />
<path d="M914.15,372.23A2.5,2.5 0 1 1 909.15,372.23A2.5,2.5 0 1 1 914.15,372.23Z" style="fill:none;stroke:#FF0000;stroke-width:0.5" />
<path d="M1108.8,450.75A2.5,2.5 0 1 1 1103.8,450.75A2.5,2.5 0 1 1 1108.8,450.75Z" style="fill:none;stroke:#FF0000;stroke-width:0.5" />
<path d="M1303.5,599.89A2.5,2.5 0 1 1 1298.5,599.89A2.5,2.5 0 1 1 1303.5,599.89Z" style="fill:none;stroke:#FF0000;stroke-width:0.5" />
<path d="M1498.2,611.46A2.5,2.5 0 1 1 1493.2,611.46A2.5,2.5 0 1 1 1498.2,611.46Z" style="fill:none;stroke:#FF0000;stroke-width:0.5" />
<path d="M1692.8,652.5A2.5,2.5 0 1 1 1687.8,652.5A2.5,2.5 0 1 1 1692.8,652.5Z" style="fill:none;stroke:#FF0000;stroke-width:0.5" />
<path d="M1887.5,801.17A2.5,2.5 0 1 1 1882.5,801.17A2.5,2.5 0 1 1 1887.5,801.17Z" style="fill:none;stroke:#FF0000;stroke-width:0.5" />
<path d="M132.96,111.14L327.63,179.7L522.3,269.66L716.97,325.54L911.65,381.69L1106.3,461.98L1301,599.95L1495.7,618.06L1690.3,672.26L1885,832.38" style="fill:none;stroke:#0000FF" />
<path d="M135.46,111.14A2.5,2.5 0 1 1 130.46,111.14A2.5,2.5 0 1 1 135.46,111.14Z" style="fill:none;stroke:#0000FF;stroke-width:0.5" />
<path d="M330.13,179.7A2.5,2.5 0 1 1 325.13,179.7A2.5,2.5 0 1 1 330.13,179.7Z" style="fill:none;stroke:#0000FF;stroke-width:0.5" />
<path d="M524.8,269.66A2.5,2.5 0 1 1 519.8,269.66A2.5,2.5 0 1 1 524.8,269.66Z" style="fill:none;stroke:#0000FF;stroke-width:0.5" />
<path d="M719.47,325.54A2.5,2.5 0 1 1 714.47,325.54A2.5,2.5 0 1 1 719.47,325.54Z" style="fill:none;stroke:#0000FF;stroke-width:0.5" />
<path d="M914.15,381.69A2.5,2.5 0 1 1 909.15,381.69A2.5,2.5 0 1 1 914.15,381.69Z" style="fill:none;stroke:#0000FF;stroke-width:0.5" />
<path d="M1108.8,461.98A2.5,2.5 0 1 1 1103.8,461.98A2.5,2.5 0 1 1 1108.8,461.98Z" style="fill:none;stroke:#0000FF;stroke-width:0.5" />
<path d="M1303.5,599.95A2.5,2.5 0 1 1 1298.5,599.95A2.5,2.5 0 1 1 1303.5,599.95Z" style="fill:none;stroke:#0000FF;stroke-width:0.5" />
<path d="M1498.2,618.06A2.5,2.5 0 1 1 1493.2,618.06A2.5,2.5 0 1 1 1498.2,618.06Z" style="fill:none;stroke:#0000FF;stroke-width:0.5" />
<path d="M1692.8,672.26A2.5,2.5 0 1 1 1687.8,672.26A2.5,2.5 0 1 1 1692.8,672.26Z" style="fill:none;stroke:#0000FF;stroke-width:0.5" />
<path d="M1887.5,832.38A2.5,2.5 0 1 1 1882.5,832.38A2.5,2.5 0 1 1 1887.5,832.38Z" style="fill:none;stroke:#0000FF;stroke-width:0.5" />
<path d="M132.96,118.37L327.63,193.88L522.3,307.08L716.97,358.64L911.65,372.49L1106.3,935.91L1301,751.29L1495.7,800.61L1690.3,869.74L1885,870.06" style="fill:none;stroke:#00FF00" />
<path d="M135.46,118.37A2.5,2.5 0 1 1 130.46,118.37A2.5,2.5 0 1 1 135.46,118.37Z" style="fill:none;stroke:#00FF00;stroke-width:0.5" />
<path d="M330.13,193.88A2.5,2.5 0 1 1 325.13,193.88A2.5,2.5 0 1 1 330.13,193.88Z" style="fill:none;stroke:#00FF00;stroke-width:0.5" />
<path d="M524.8,307.08A2.5,2.5 0 1 1 519.8,307.08A2.5,2.5 0 1 1 524.8,307.08Z" style="fill:none;stroke:#00FF00;stroke-width:0.5" />
<path d="M719.47,358.64A2.5,2.5 0 1 1 714.47,358.64A2.5,2.5 0 1 1 719.47,358.64Z" style="fill:none;stroke:#00FF00;stroke-width:0.5" />
<path d="M914.15,372.49A2.5,2.5 0 1 1 909.15,372.49A2.5,2.5 0 1 1 914.15,372.49Z" style="fill:none;stroke:#00FF00;stroke-width:0.5" />
<path d="M1108.8,935.91A2.5,2.5 0 1 1 1103.8,935.91A2.5,2.5 0 1 1 1108.8,935.91Z" style="fill:none;stroke:#00FF00;stroke-width:0.5" />
<path d="M1303.5,751.29A2.5,2.5 0 1 1 1298.5,751.29A2.5,2.5 0 1 1 1303.5,751.29Z" style="fill:none;stroke:#00FF00;stroke-width:0.5" />
<path d="M1498.2,800.61A2.5,2.5 0 1 1 1493.2,800.61A2.5,2.5 0 1 1 1498.2,800.61Z" style="fill:none;stroke:#00FF00;stroke-width:0.5" />
<path d="M1692.8,869.74A2.5,2.5 0 1 1 1687.8,869.74A2.5,2.5 0 1 1 1692.8,869.74Z" style="fill:none;stroke:#00FF00;stroke-width:0.5" />
<path d="M1887.5,870.06A2.5,2.5 0 1 1 1882.5,870.06A2.5,2.5 0 1 1 1887.5,870.06Z" style="fill:none;stroke:#00FF00;stroke-width:0.5" />
<path d="M132.96,77.61L327.63,99.138L522.3,130.84L716.97,149.98L911.65,212.12L1106.3,214.72L1301,236.15L1495.7,256.7L1690.3,334.66L1885,315.36" style="fill:none;stroke:#FF8000" />
<path d="M135.46,77.61A2.5,2.5 0 1 1 130.46,77.61A2.5,2.5 0 1 1 135.46,77.61Z" style="fill:none;stroke:#FF8000;stroke-width:0.5" />
<path d="M330.13,99.138A2.5,2.5 0 1 1 325.13,99.138A2.5,2.5 0 1 1 330.13,99.138Z" style="fill:none;stroke:#FF8000;stroke-width:0.5" />
<path d="M524.8,130.84A2.5,2.5 0 1 1 519.8,130.84A2.5,2.5 0 1 1 524.8,130.84Z" style="fill:none;stroke:#FF8000;stroke-width:0.5" />
<path d="M719.47,149.98A2.5,2.5 0 1 1 714.47,149.98A2.5,2.5 0 1 1 719.47,149.98Z" style="fill:none;stroke:#FF8000;stroke-width:0.5" />
<path d="M914.15,212.12A2.5,2.5 0 1 1 909.15,212.12A2.5,2.5 0 1 1 914.15,212.12Z" style="fill:none;stroke:#FF8000;stroke-width:0.5" />
<path d="M1108.8,214.72A2.5,2.5 0 1 1 1103.8,214.72A2.5,2.5 0 1 1 1108.8,214.72Z" style="fill:none;stroke:#FF8000;stroke-width:0.5" />
<path d="M1303.5,236.15A2.5,2.5 0 1 1 1298.5,236.15A2.5,2.5 0 1 1 1303.5,236.15Z" style="fill:none;stroke:#FF8000;stroke-width:0.5" />
<path d="M1498.2,256.7A2.5,2.5 0 1 1 1493.2,256.7A2.5,2.5 0 1 1 1498.2,256.7Z" style="fill:none;stroke:#FF8000;stroke-width:0.5" />
<path d="M1692.8,334.66A2.5,2.5 0 1 1 1687.8,334.66A2.5,2.5 0 1 1 1692.8,334.66Z" style="fill:none;stroke:#FF8000;stroke-width:0.5" />
<path d="M1887.5,315.36A2.5,2.5 0 1 1 1882.5,315.36A2.5,2.5 0 1 1 1887.5,315.36Z" style="fill:none;stroke:#FF8000;stroke-width:0.5" />
<path d="M1900,146.4L1920,146.4" style="fill:none;stroke:#FF0000" />
<path d="M1912.5,146.4A2.5,2.5 0 1 1 1907.5,146.4A2.5,2.5 0 1 1 1912.5,146.4Z" style="fill:none;stroke:#FF0000;stroke-width:0.5" />
<text x="1823.3" y="-141.42" transform="scale(1, -1)"
	style="font-family:Liberation Serif;font-variant:normal;font-weight:normal;font-style:normal;font-size:24px">std::list</text>
<path d="M1900,126.03L1920,126.03" style="fill:none;stroke:#0000FF" />
<path d="M1912.5,126.03A2.5,2.5 0 1 1 1907.5,126.03A2.5,2.5 0 1 1 1912.5,126.03Z" style="fill:none;stroke:#0000FF;stroke-width:0.5" />
<text x="1795.4" y="-121.05" transform="scale(1, -1)"
	style="font-family:Liberation Serif;font-variant:normal;font-weight:normal;font-style:normal;font-size:24px">std::deque</text>
<path d="M1900,105.66L1920,105.66" style="fill:none;stroke:#00FF00" />
<path d="M1912.5,105.66A2.5,2.5 0 1 1 1907.5,105.66A2.5,2.5 0 1 1 1912.5,105.66Z" style="fill:none;stroke:#00FF00;stroke-width:0.5" />
<text x="1792.7" y="-100.69" transform="scale(1, -1)"
	style="font-family:Liberation Serif;font-variant:normal;font-weight:normal;font-style:normal;font-size:24px">std::vector</text>
<path d="M1900,85.294L1920,85.294" style="fill:none;stroke:#FF8000" />
<path d="M1912.5,85.294A2.5,2.5 0 1 1 1907.5,85.294A2.5,2.5 0 1 1 1912.5,85.294Z" style="fill:none;stroke:#FF8000;stroke-width:0.5" />
<text x="1669.4" y="-80.319" transform="scale(1, -1)"
	style="font-family:Liberation Serif;font-variant:normal;font-weight:normal;font-style:normal;font-size:24px">preallocated std::vector</text>
</g>
</svg>
