<?xml version="1.0"?>
<!-- Generated by SVGo and Plotinum VG -->
<svg width="1920pt" height="1080pt" viewBox="0 0 1920 1080"
	xmlns="http://www.w3.org/2000/svg"
	xmlns:xlink="http://www.w3.org/1999/xlink">
<g transform="scale(1, -1) translate(0, -1080)">
<path d="M0,0L1920,0L1920,1080L0,1080Z" style="fill:#FFFFFF" />
<text x="744.09" y="-1040.9" transform="scale(1, -1)"
	style="font-family:Liberation Serif;font-variant:normal;font-weight:normal;font-style:normal;font-size:50px">pushback - Log Scale</text>
<text x="881.52" y="-9.7559" transform="scale(1, -1)"
	style="font-family:Liberation Serif;font-variant:normal;font-weight:normal;font-style:normal;font-size:30px">Number of elements</text>
<text x="92.962" y="-39.727" transform="scale(1, -1)"
	style="font-family:Liberation Serif;font-variant:normal;font-weight:normal;font-style:normal;font-size:20px">100000</text>
<text x="288.74" y="-39.727" transform="scale(1, -1)"
	style="font-family:Liberation Serif;font-variant:normal;font-weight:normal;font-style:normal;font-size:20px">200000</text>
<text x="484.53" y="-39.727" transform="scale(1, -1)"
	style="font-family:Liberation Serif;font-variant:normal;font-weight:normal;font-style:normal;font-size:20px">300000</text>
<text x="680.31" y="-39.727" transform="scale(1, -1)"
	style="font-family:Liberation Serif;font-variant:normal;font-weight:normal;font-style:normal;font-size:20px">400000</text>
<text x="876.09" y="-39.727" transform="scale(1, -1)"
	style="font-family:Liberation Serif;font-variant:normal;font-weight:normal;font-style:normal;font-size:20px">500000</text>
<text x="1071.9" y="-39.727" transform="scale(1, -1)"
	style="font-family:Liberation Serif;font-variant:normal;font-weight:normal;font-style:normal;font-size:20px">600000</text>
<text x="1267.7" y="-39.727" transform="scale(1, -1)"
	style="font-family:Liberation Serif;font-variant:normal;font-weight:normal;font-style:normal;font-size:20px">700000</text>
<text x="1463.4" y="-39.727" transform="scale(1, -1)"
	style="font-family:Liberation Serif;font-variant:normal;font-weight:normal;font-style:normal;font-size:20px">800000</text>
<text x="1659.2" y="-39.727" transform="scale(1, -1)"
	style="font-family:Liberation Serif;font-variant:normal;font-weight:normal;font-style:normal;font-size:20px">900000</text>
<text x="1850" y="-39.727" transform="scale(1, -1)"
	style="font-family:Liberation Serif;font-variant:normal;font-weight:normal;font-style:normal;font-size:20px">1000000</text>
<path d="M122.96,55.371L122.96,63.371" style="fill:none;stroke:#000000;stroke-width:0.5" />
<path d="M318.74,55.371L318.74,63.371" style="fill:none;stroke:#000000;stroke-width:0.5" />
<path d="M514.53,55.371L514.53,63.371" style="fill:none;stroke:#000000;stroke-width:0.5" />
<path d="M710.31,55.371L710.31,63.371" style="fill:none;stroke:#000000;stroke-width:0.5" />
<path d="M906.09,55.371L906.09,63.371" style="fill:none;stroke:#000000;stroke-width:0.5" />
<path d="M1101.9,55.371L1101.9,63.371" style="fill:none;stroke:#000000;stroke-width:0.5" />
<path d="M1297.7,55.371L1297.7,63.371" style="fill:none;stroke:#000000;stroke-width:0.5" />
<path d="M1493.4,55.371L1493.4,63.371" style="fill:none;stroke:#000000;stroke-width:0.5" />
<path d="M1689.2,55.371L1689.2,63.371" style="fill:none;stroke:#000000;stroke-width:0.5" />
<path d="M1885,55.371L1885,63.371" style="fill:none;stroke:#000000;stroke-width:0.5" />
<path d="M122.96,63.371L1885,63.371" style="fill:none;stroke:#000000;stroke-width:0.5" />
<g transform="rotate(90)">
<text x="508.08" y="23.467" transform="scale(1, -1)"
	style="font-family:Liberation Serif;font-variant:normal;font-weight:normal;font-style:normal;font-size:30px">log(μs)</text>
</g>
<text x="49.712" y="-397.59" transform="scale(1, -1)"
	style="font-family:Liberation Serif;font-variant:normal;font-weight:normal;font-style:normal;font-size:20px">50000</text>
<text x="39.712" y="-814.5" transform="scale(1, -1)"
	style="font-family:Liberation Serif;font-variant:normal;font-weight:normal;font-style:normal;font-size:20px">200000</text>
<text x="39.712" y="-982.8" transform="scale(1, -1)"
	style="font-family:Liberation Serif;font-variant:normal;font-weight:normal;font-style:normal;font-size:20px">350000</text>
<path d="M104.71,402.16L112.71,402.16" style="fill:none;stroke:#000000;stroke-width:0.5" />
<path d="M104.71,819.07L112.71,819.07" style="fill:none;stroke:#000000;stroke-width:0.5" />
<path d="M104.71,987.37L112.71,987.37" style="fill:none;stroke:#000000;stroke-width:0.5" />
<path d="M108.71,677.72L112.71,677.72" style="fill:none;stroke:#000000;stroke-width:0.5" />
<path d="M108.71,914.84L112.71,914.84" style="fill:none;stroke:#000000;stroke-width:0.5" />
<path d="M112.71,77.61L112.71,1024.6" style="fill:none;stroke:#000000;stroke-width:0.5" />
<path d="M122.96,77.61L122.96,1024.6" style="fill:none;stroke:#808080;stroke-width:0.25" />
<path d="M318.74,77.61L318.74,1024.6" style="fill:none;stroke:#808080;stroke-width:0.25" />
<path d="M514.53,77.61L514.53,1024.6" style="fill:none;stroke:#808080;stroke-width:0.25" />
<path d="M710.31,77.61L710.31,1024.6" style="fill:none;stroke:#808080;stroke-width:0.25" />
<path d="M906.09,77.61L906.09,1024.6" style="fill:none;stroke:#808080;stroke-width:0.25" />
<path d="M1101.9,77.61L1101.9,1024.6" style="fill:none;stroke:#808080;stroke-width:0.25" />
<path d="M1297.7,77.61L1297.7,1024.6" style="fill:none;stroke:#808080;stroke-width:0.25" />
<path d="M1493.4,77.61L1493.4,1024.6" style="fill:none;stroke:#808080;stroke-width:0.25" />
<path d="M1689.2,77.61L1689.2,1024.6" style="fill:none;stroke:#808080;stroke-width:0.25" />
<path d="M1885,77.61L1885,1024.6" style="fill:none;stroke:#808080;stroke-width:0.25" />
<path d="M122.96,402.16L1885,402.16" style="fill:none;stroke:#808080;stroke-width:0.25" />
<path d="M122.96,819.07L1885,819.07" style="fill:none;stroke:#808080;stroke-width:0.25" />
<path d="M122.96,987.37L1885,987.37" style="fill:none;stroke:#808080;stroke-width:0.25" />
<path d="M122.96,232.24L318.74,468.27L514.53,599.18L710.31,681.9L906.09,748.8L1101.9,818.12L1297.7,856.45L1493.4,901.86L1689.2,940.48L1885,980.88" style="fill:none;stroke:#FF0000" />
<path d="M125.46,232.24A2.5,2.5 0 1 1 120.46,232.24A2.5,2.5 0 1 1 125.46,232.24Z" style="fill:none;stroke:#FF0000;stroke-width:0.5" />
<path d="M321.24,468.27A2.5,2.5 0 1 1 316.24,468.27A2.5,2.5 0 1 1 321.24,468.27Z" style="fill:none;stroke:#FF0000;stroke-width:0.5" />
<path d="M517.03,599.18A2.5,2.5 0 1 1 512.03,599.18A2.5,2.5 0 1 1 517.03,599.18Z" style="fill:none;stroke:#FF0000;stroke-width:0.5" />
<path d="M712.81,681.9A2.5,2.5 0 1 1 707.81,681.9A2.5,2.5 0 1 1 712.81,681.9Z" style="fill:none;stroke:#FF0000;stroke-width:0.5" />
<path d="M908.59,748.8A2.5,2.5 0 1 1 903.59,748.8A2.5,2.5 0 1 1 908.59,748.8Z" style="fill:none;stroke:#FF0000;stroke-width:0.5" />
<path d="M1104.4,818.12A2.5,2.5 0 1 1 1099.4,818.12A2.5,2.5 0 1 1 1104.4,818.12Z" style="fill:none;stroke:#FF0000;stroke-width:0.5" />
<path d="M1300.2,856.45A2.5,2.5 0 1 1 1295.2,856.45A2.5,2.5 0 1 1 1300.2,856.45Z" style="fill:none;stroke:#FF0000;stroke-width:0.5" />
<path d="M1495.9,901.86A2.5,2.5 0 1 1 1490.9,901.86A2.5,2.5 0 1 1 1495.9,901.86Z" style="fill:none;stroke:#FF0000;stroke-width:0.5" />
<path d="M1691.7,940.48A2.5,2.5 0 1 1 1686.7,940.48A2.5,2.5 0 1 1 1691.7,940.48Z" style="fill:none;stroke:#FF0000;stroke-width:0.5" />
<path d="M1887.5,980.88A2.5,2.5 0 1 1 1882.5,980.88A2.5,2.5 0 1 1 1887.5,980.88Z" style="fill:none;stroke:#FF0000;stroke-width:0.5" />
<path d="M122.96,275.69L318.74,519.19L514.53,624.53L710.31,718.7L906.09,780.3L1101.9,854.14L1297.7,878.39L1493.4,926.37L1689.2,953.72L1885,995.97" style="fill:none;stroke:#0000FF" />
<path d="M125.46,275.69A2.5,2.5 0 1 1 120.46,275.69A2.5,2.5 0 1 1 125.46,275.69Z" style="fill:none;stroke:#0000FF;stroke-width:0.5" />
<path d="M321.24,519.19A2.5,2.5 0 1 1 316.24,519.19A2.5,2.5 0 1 1 321.24,519.19Z" style="fill:none;stroke:#0000FF;stroke-width:0.5" />
<path d="M517.03,624.53A2.5,2.5 0 1 1 512.03,624.53A2.5,2.5 0 1 1 517.03,624.53Z" style="fill:none;stroke:#0000FF;stroke-width:0.5" />
<path d="M712.81,718.7A2.5,2.5 0 1 1 707.81,718.7A2.5,2.5 0 1 1 712.81,718.7Z" style="fill:none;stroke:#0000FF;stroke-width:0.5" />
<path d="M908.59,780.3A2.5,2.5 0 1 1 903.59,780.3A2.5,2.5 0 1 1 908.59,780.3Z" style="fill:none;stroke:#0000FF;stroke-width:0.5" />
<path d="M1104.4,854.14A2.5,2.5 0 1 1 1099.4,854.14A2.5,2.5 0 1 1 1104.4,854.14Z" style="fill:none;stroke:#0000FF;stroke-width:0.5" />
<path d="M1300.2,878.39A2.5,2.5 0 1 1 1295.2,878.39A2.5,2.5 0 1 1 1300.2,878.39Z" style="fill:none;stroke:#0000FF;stroke-width:0.5" />
<path d="M1495.9,926.37A2.5,2.5 0 1 1 1490.9,926.37A2.5,2.5 0 1 1 1495.9,926.37Z" style="fill:none;stroke:#0000FF;stroke-width:0.5" />
<path d="M1691.7,953.72A2.5,2.5 0 1 1 1686.7,953.72A2.5,2.5 0 1 1 1691.7,953.72Z" style="fill:none;stroke:#0000FF;stroke-width:0.5" />
<path d="M1887.5,995.97A2.5,2.5 0 1 1 1882.5,995.97A2.5,2.5 0 1 1 1887.5,995.97Z" style="fill:none;stroke:#0000FF;stroke-width:0.5" />
<path d="M122.96,270.61L318.74,492.62L514.53,653.31L710.31,698.35L906.09,731.4L1101.9,880.35L1297.7,874.88L1493.4,921.17L1689.2,923.09L1885,947.55" style="fill:none;stroke:#00FF00" />
<path d="M125.46,270.61A2.5,2.5 0 1 1 120.46,270.61A2.5,2.5 0 1 1 125.46,270.61Z" style="fill:none;stroke:#00FF00;stroke-width:0.5" />
<path d="M321.24,492.62A2.5,2.5 0 1 1 316.24,492.62A2.5,2.5 0 1 1 321.24,492.62Z" style="fill:none;stroke:#00FF00;stroke-width:0.5" />
<path d="M517.03,653.31A2.5,2.5 0 1 1 512.03,653.31A2.5,2.5 0 1 1 517.03,653.31Z" style="fill:none;stroke:#00FF00;stroke-width:0.5" />
<path d="M712.81,698.35A2.5,2.5 0 1 1 707.81,698.35A2.5,2.5 0 1 1 712.81,698.35Z" style="fill:none;stroke:#00FF00;stroke-width:0.5" />
<path d="M908.59,731.4A2.5,2.5 0 1 1 903.59,731.4A2.5,2.5 0 1 1 908.59,731.4Z" style="fill:none;stroke:#00FF00;stroke-width:0.5" />
<path d="M1104.4,880.35A2.5,2.5 0 1 1 1099.4,880.35A2.5,2.5 0 1 1 1104.4,880.35Z" style="fill:none;stroke:#00FF00;stroke-width:0.5" />
<path d="M1300.2,874.88A2.5,2.5 0 1 1 1295.2,874.88A2.5,2.5 0 1 1 1300.2,874.88Z" style="fill:none;stroke:#00FF00;stroke-width:0.5" />
<path d="M1495.9,921.17A2.5,2.5 0 1 1 1490.9,921.17A2.5,2.5 0 1 1 1495.9,921.17Z" style="fill:none;stroke:#00FF00;stroke-width:0.5" />
<path d="M1691.7,923.09A2.5,2.5 0 1 1 1686.7,923.09A2.5,2.5 0 1 1 1691.7,923.09Z" style="fill:none;stroke:#00FF00;stroke-width:0.5" />
<path d="M1887.5,947.55A2.5,2.5 0 1 1 1882.5,947.55A2.5,2.5 0 1 1 1887.5,947.55Z" style="fill:none;stroke:#00FF00;stroke-width:0.5" />
<path d="M122.96,77.61L318.74,275.14L514.53,397.43L710.31,485.73L906.09,542.01L1101.9,592.83L1297.7,670.83L1493.4,684.49L1689.2,747.26L1885,772.94" style="fill:none;stroke:#FF8000" />
<path d="M125.46,77.61A2.5,2.5 0 1 1 120.46,77.61A2.5,2.5 0 1 1 125.46,77.61Z" style="fill:none;stroke:#FF8000;stroke-width:0.5" />
<path d="M321.24,275.14A2.5,2.5 0 1 1 316.24,275.14A2.5,2.5 0 1 1 321.24,275.14Z" style="fill:none;stroke:#FF8000;stroke-width:0.5" />
<path d="M517.03,397.43A2.5,2.5 0 1 1 512.03,397.43A2.5,2.5 0 1 1 517.03,397.43Z" style="fill:none;stroke:#FF8000;stroke-width:0.5" />
<path d="M712.81,485.73A2.5,2.5 0 1 1 707.81,485.73A2.5,2.5 0 1 1 712.81,485.73Z" style="fill:none;stroke:#FF8000;stroke-width:0.5" />
<path d="M908.59,542.01A2.5,2.5 0 1 1 903.59,542.01A2.5,2.5 0 1 1 908.59,542.01Z" style="fill:none;stroke:#FF8000;stroke-width:0.5" />
<path d="M1104.4,592.83A2.5,2.5 0 1 1 1099.4,592.83A2.5,2.5 0 1 1 1104.4,592.83Z" style="fill:none;stroke:#FF8000;stroke-width:0.5" />
<path d="M1300.2,670.83A2.5,2.5 0 1 1 1295.2,670.83A2.5,2.5 0 1 1 1300.2,670.83Z" style="fill:none;stroke:#FF8000;stroke-width:0.5" />
<path d="M1495.9,684.49A2.5,2.5 0 1 1 1490.9,684.49A2.5,2.5 0 1 1 1495.9,684.49Z" style="fill:none;stroke:#FF8000;stroke-width:0.5" />
<path d="M1691.7,747.26A2.5,2.5 0 1 1 1686.7,747.26A2.5,2.5 0 1 1 1691.7,747.26Z" style="fill:none;stroke:#FF8000;stroke-width:0.5" />
<path d="M1887.5,772.94A2.5,2.5 0 1 1 1882.5,772.94A2.5,2.5 0 1 1 1887.5,772.94Z" style="fill:none;stroke:#FF8000;stroke-width:0.5" />
<path d="M1900,146.4L1920,146.4" style="fill:none;stroke:#FF0000" />
<path d="M1912.5,146.4A2.5,2.5 0 1 1 1907.5,146.4A2.5,2.5 0 1 1 1912.5,146.4Z" style="fill:none;stroke:#FF0000;stroke-width:0.5" />
<text x="1823.3" y="-141.42" transform="scale(1, -1)"
	style="font-family:Liberation Serif;font-variant:normal;font-weight:normal;font-style:normal;font-size:24px">std::list</text>
<path d="M1900,126.03L1920,126.03" style="fill:none;stroke:#0000FF" />
<path d="M1912.5,126.03A2.5,2.5 0 1 1 1907.5,126.03A2.5,2.5 0 1 1 1912.5,126.03Z" style="fill:none;stroke:#0000FF;stroke-width:0.5" />
<text x="1795.4" y="-121.05" transform="scale(1, -1)"
	style="font-family:Liberation Serif;font-variant:normal;font-weight:normal;font-style:normal;font-size:24px">std::deque</text>
<path d="M1900,105.66L1920,105.66" style="fill:none;stroke:#00FF00" />
<path d="M1912.5,105.66A2.5,2.5 0 1 1 1907.5,105.66A2.5,2.5 0 1 1 1912.5,105.66Z" style="fill:none;stroke:#00FF00;stroke-width:0.5" />
<text x="1792.7" y="-100.69" transform="scale(1, -1)"
	style="font-family:Liberation Serif;font-variant:normal;font-weight:normal;font-style:normal;font-size:24px">std::vector</text>
<path d="M1900,85.294L1920,85.294" style="fill:none;stroke:#FF8000" />
<path d="M1912.5,85.294A2.5,2.5 0 1 1 1907.5,85.294A2.5,2.5 0 1 1 1912.5,85.294Z" style="fill:none;stroke:#FF8000;stroke-width:0.5" />
<text x="1669.4" y="-80.319" transform="scale(1, -1)"
	style="font-family:Liberation Serif;font-variant:normal;font-weight:normal;font-style:normal;font-size:24px">preallocated std::vector</text>
</g>
</svg>
