<?xml version="1.0"?>
<!-- Generated by SVGo and Plotinum VG -->
<svg width="1920pt" height="1200pt" viewBox="0 0 1920 1200"
	xmlns="http://www.w3.org/2000/svg"
	xmlns:xlink="http://www.w3.org/1999/xlink">
<g transform="scale(1, -1) translate(0, -1200)">
<path d="M0,0L1920,0L1920,1200L0,1200Z" style="fill:#FFFFFF" />
<text x="937.34" y="-1190.6" transform="scale(1, -1)"
	style="font-family:Liberation Serif;font-variant:normal;font-weight:normal;font-style:normal;font-size:12px">pushback</text>
<text x="934.58" y="-3.9023" transform="scale(1, -1)"
	style="font-family:Liberation Serif;font-variant:normal;font-weight:normal;font-style:normal;font-size:12px">Number of elements</text>
<text x="49.635" y="-16.541" transform="scale(1, -1)"
	style="font-family:Liberation Serif;font-variant:normal;font-weight:normal;font-style:normal;font-size:10px">100000</text>
<text x="253.84" y="-16.541" transform="scale(1, -1)"
	style="font-family:Liberation Serif;font-variant:normal;font-weight:normal;font-style:normal;font-size:10px">200000</text>
<text x="458.05" y="-16.541" transform="scale(1, -1)"
	style="font-family:Liberation Serif;font-variant:normal;font-weight:normal;font-style:normal;font-size:10px">300000</text>
<text x="662.26" y="-16.541" transform="scale(1, -1)"
	style="font-family:Liberation Serif;font-variant:normal;font-weight:normal;font-style:normal;font-size:10px">400000</text>
<text x="866.46" y="-16.541" transform="scale(1, -1)"
	style="font-family:Liberation Serif;font-variant:normal;font-weight:normal;font-style:normal;font-size:10px">500000</text>
<text x="1070.7" y="-16.541" transform="scale(1, -1)"
	style="font-family:Liberation Serif;font-variant:normal;font-weight:normal;font-style:normal;font-size:10px">600000</text>
<text x="1274.9" y="-16.541" transform="scale(1, -1)"
	style="font-family:Liberation Serif;font-variant:normal;font-weight:normal;font-style:normal;font-size:10px">700000</text>
<text x="1479.1" y="-16.541" transform="scale(1, -1)"
	style="font-family:Liberation Serif;font-variant:normal;font-weight:normal;font-style:normal;font-size:10px">800000</text>
<text x="1683.3" y="-16.541" transform="scale(1, -1)"
	style="font-family:Liberation Serif;font-variant:normal;font-weight:normal;font-style:normal;font-size:10px">900000</text>
<text x="1885" y="-16.541" transform="scale(1, -1)"
	style="font-family:Liberation Serif;font-variant:normal;font-weight:normal;font-style:normal;font-size:10px">1000000</text>
<path d="M64.635,24.363L64.635,32.363" style="fill:none;stroke:#000000;stroke-width:0.5" />
<path d="M268.84,24.363L268.84,32.363" style="fill:none;stroke:#000000;stroke-width:0.5" />
<path d="M473.05,24.363L473.05,32.363" style="fill:none;stroke:#000000;stroke-width:0.5" />
<path d="M677.26,24.363L677.26,32.363" style="fill:none;stroke:#000000;stroke-width:0.5" />
<path d="M881.46,24.363L881.46,32.363" style="fill:none;stroke:#000000;stroke-width:0.5" />
<path d="M1085.7,24.363L1085.7,32.363" style="fill:none;stroke:#000000;stroke-width:0.5" />
<path d="M1289.9,24.363L1289.9,32.363" style="fill:none;stroke:#000000;stroke-width:0.5" />
<path d="M1494.1,24.363L1494.1,32.363" style="fill:none;stroke:#000000;stroke-width:0.5" />
<path d="M1698.3,24.363L1698.3,32.363" style="fill:none;stroke:#000000;stroke-width:0.5" />
<path d="M1902.5,24.363L1902.5,32.363" style="fill:none;stroke:#000000;stroke-width:0.5" />
<path d="M64.635,32.363L1902.5,32.363" style="fill:none;stroke:#000000;stroke-width:0.5" />
<g transform="rotate(90)">
<text x="607.91" y="9.3867" transform="scale(1, -1)"
	style="font-family:Liberation Serif;font-variant:normal;font-weight:normal;font-style:normal;font-size:12px">μs</text>
</g>
<text x="15.885" y="-282.02" transform="scale(1, -1)"
	style="font-family:Liberation Serif;font-variant:normal;font-weight:normal;font-style:normal;font-size:10px">100000</text>
<text x="15.885" y="-574.07" transform="scale(1, -1)"
	style="font-family:Liberation Serif;font-variant:normal;font-weight:normal;font-style:normal;font-size:10px">200000</text>
<text x="15.885" y="-866.12" transform="scale(1, -1)"
	style="font-family:Liberation Serif;font-variant:normal;font-weight:normal;font-style:normal;font-size:10px">300000</text>
<text x="15.885" y="-1158.2" transform="scale(1, -1)"
	style="font-family:Liberation Serif;font-variant:normal;font-weight:normal;font-style:normal;font-size:10px">400000</text>
<path d="M48.385,284.3L56.385,284.3" style="fill:none;stroke:#000000;stroke-width:0.5" />
<path d="M48.385,576.35L56.385,576.35" style="fill:none;stroke:#000000;stroke-width:0.5" />
<path d="M48.385,868.41L56.385,868.41" style="fill:none;stroke:#000000;stroke-width:0.5" />
<path d="M48.385,1160.5L56.385,1160.5" style="fill:none;stroke:#000000;stroke-width:0.5" />
<path d="M52.385,50.659L56.385,50.659" style="fill:none;stroke:#000000;stroke-width:0.5" />
<path d="M52.385,109.07L56.385,109.07" style="fill:none;stroke:#000000;stroke-width:0.5" />
<path d="M52.385,167.48L56.385,167.48" style="fill:none;stroke:#000000;stroke-width:0.5" />
<path d="M52.385,225.89L56.385,225.89" style="fill:none;stroke:#000000;stroke-width:0.5" />
<path d="M52.385,342.71L56.385,342.71" style="fill:none;stroke:#000000;stroke-width:0.5" />
<path d="M52.385,401.12L56.385,401.12" style="fill:none;stroke:#000000;stroke-width:0.5" />
<path d="M52.385,459.53L56.385,459.53" style="fill:none;stroke:#000000;stroke-width:0.5" />
<path d="M52.385,517.94L56.385,517.94" style="fill:none;stroke:#000000;stroke-width:0.5" />
<path d="M52.385,634.76L56.385,634.76" style="fill:none;stroke:#000000;stroke-width:0.5" />
<path d="M52.385,693.17L56.385,693.17" style="fill:none;stroke:#000000;stroke-width:0.5" />
<path d="M52.385,751.58L56.385,751.58" style="fill:none;stroke:#000000;stroke-width:0.5" />
<path d="M52.385,810L56.385,810" style="fill:none;stroke:#000000;stroke-width:0.5" />
<path d="M52.385,926.82L56.385,926.82" style="fill:none;stroke:#000000;stroke-width:0.5" />
<path d="M52.385,985.23L56.385,985.23" style="fill:none;stroke:#000000;stroke-width:0.5" />
<path d="M52.385,1043.6L56.385,1043.6" style="fill:none;stroke:#000000;stroke-width:0.5" />
<path d="M52.385,1102L56.385,1102" style="fill:none;stroke:#000000;stroke-width:0.5" />
<path d="M56.385,42.709L56.385,1184.2" style="fill:none;stroke:#000000;stroke-width:0.5" />
<path d="M64.635,42.709L64.635,1184.2" style="fill:none;stroke:#808080;stroke-width:0.25" />
<path d="M268.84,42.709L268.84,1184.2" style="fill:none;stroke:#808080;stroke-width:0.25" />
<path d="M473.05,42.709L473.05,1184.2" style="fill:none;stroke:#808080;stroke-width:0.25" />
<path d="M677.26,42.709L677.26,1184.2" style="fill:none;stroke:#808080;stroke-width:0.25" />
<path d="M881.46,42.709L881.46,1184.2" style="fill:none;stroke:#808080;stroke-width:0.25" />
<path d="M1085.7,42.709L1085.7,1184.2" style="fill:none;stroke:#808080;stroke-width:0.25" />
<path d="M1289.9,42.709L1289.9,1184.2" style="fill:none;stroke:#808080;stroke-width:0.25" />
<path d="M1494.1,42.709L1494.1,1184.2" style="fill:none;stroke:#808080;stroke-width:0.25" />
<path d="M1698.3,42.709L1698.3,1184.2" style="fill:none;stroke:#808080;stroke-width:0.25" />
<path d="M1902.5,42.709L1902.5,1184.2" style="fill:none;stroke:#808080;stroke-width:0.25" />
<path d="M64.635,284.3L1902.5,284.3" style="fill:none;stroke:#808080;stroke-width:0.25" />
<path d="M64.635,576.35L1902.5,576.35" style="fill:none;stroke:#808080;stroke-width:0.25" />
<path d="M64.635,868.41L1902.5,868.41" style="fill:none;stroke:#808080;stroke-width:0.25" />
<path d="M64.635,1160.5L1902.5,1160.5" style="fill:none;stroke:#808080;stroke-width:0.25" />
<path d="M64.635,91.812L268.84,211.85L473.05,314.18L677.26,401.98L881.46,501.3L1085.7,637.04L1289.9,737.39L1494.1,850.77L1698.3,974.16L1902.5,1127.1" style="fill:none;stroke:#9F90A3" />
<path d="M67.135,91.812A2.5,2.5 0 1 1 62.135,91.812A2.5,2.5 0 1 1 67.135,91.812Z" style="fill:none;stroke:#9F90A3;stroke-width:0.5" />
<path d="M271.34,211.85A2.5,2.5 0 1 1 266.34,211.85A2.5,2.5 0 1 1 271.34,211.85Z" style="fill:none;stroke:#9F90A3;stroke-width:0.5" />
<path d="M475.55,314.18A2.5,2.5 0 1 1 470.55,314.18A2.5,2.5 0 1 1 475.55,314.18Z" style="fill:none;stroke:#9F90A3;stroke-width:0.5" />
<path d="M679.76,401.98A2.5,2.5 0 1 1 674.76,401.98A2.5,2.5 0 1 1 679.76,401.98Z" style="fill:none;stroke:#9F90A3;stroke-width:0.5" />
<path d="M883.96,501.3A2.5,2.5 0 1 1 878.96,501.3A2.5,2.5 0 1 1 883.96,501.3Z" style="fill:none;stroke:#9F90A3;stroke-width:0.5" />
<path d="M1088.2,637.04A2.5,2.5 0 1 1 1083.2,637.04A2.5,2.5 0 1 1 1088.2,637.04Z" style="fill:none;stroke:#9F90A3;stroke-width:0.5" />
<path d="M1292.4,737.39A2.5,2.5 0 1 1 1287.4,737.39A2.5,2.5 0 1 1 1292.4,737.39Z" style="fill:none;stroke:#9F90A3;stroke-width:0.5" />
<path d="M1496.6,850.77A2.5,2.5 0 1 1 1491.6,850.77A2.5,2.5 0 1 1 1496.6,850.77Z" style="fill:none;stroke:#9F90A3;stroke-width:0.5" />
<path d="M1700.8,974.16A2.5,2.5 0 1 1 1695.8,974.16A2.5,2.5 0 1 1 1700.8,974.16Z" style="fill:none;stroke:#9F90A3;stroke-width:0.5" />
<path d="M1905,1127.1A2.5,2.5 0 1 1 1900,1127.1A2.5,2.5 0 1 1 1905,1127.1Z" style="fill:none;stroke:#9F90A3;stroke-width:0.5" />
<path d="M64.635,97.08L268.84,217.98L473.05,323.62L677.26,497.79L881.46,562.78L1085.7,667.24L1289.9,839.26L1494.1,924.82L1698.3,1054L1902.5,1184.2" style="fill:none;stroke:#E250C4" />
<path d="M67.135,97.08A2.5,2.5 0 1 1 62.135,97.08A2.5,2.5 0 1 1 67.135,97.08Z" style="fill:none;stroke:#E250C4;stroke-width:0.5" />
<path d="M271.34,217.98A2.5,2.5 0 1 1 266.34,217.98A2.5,2.5 0 1 1 271.34,217.98Z" style="fill:none;stroke:#E250C4;stroke-width:0.5" />
<path d="M475.55,323.62A2.5,2.5 0 1 1 470.55,323.62A2.5,2.5 0 1 1 475.55,323.62Z" style="fill:none;stroke:#E250C4;stroke-width:0.5" />
<path d="M679.76,497.79A2.5,2.5 0 1 1 674.76,497.79A2.5,2.5 0 1 1 679.76,497.79Z" style="fill:none;stroke:#E250C4;stroke-width:0.5" />
<path d="M883.96,562.78A2.5,2.5 0 1 1 878.96,562.78A2.5,2.5 0 1 1 883.96,562.78Z" style="fill:none;stroke:#E250C4;stroke-width:0.5" />
<path d="M1088.2,667.24A2.5,2.5 0 1 1 1083.2,667.24A2.5,2.5 0 1 1 1088.2,667.24Z" style="fill:none;stroke:#E250C4;stroke-width:0.5" />
<path d="M1292.4,839.26A2.5,2.5 0 1 1 1287.4,839.26A2.5,2.5 0 1 1 1292.4,839.26Z" style="fill:none;stroke:#E250C4;stroke-width:0.5" />
<path d="M1496.6,924.82A2.5,2.5 0 1 1 1491.6,924.82A2.5,2.5 0 1 1 1496.6,924.82Z" style="fill:none;stroke:#E250C4;stroke-width:0.5" />
<path d="M1700.8,1054A2.5,2.5 0 1 1 1695.8,1054A2.5,2.5 0 1 1 1700.8,1054Z" style="fill:none;stroke:#E250C4;stroke-width:0.5" />
<path d="M1905,1184.2A2.5,2.5 0 1 1 1900,1184.2A2.5,2.5 0 1 1 1905,1184.2Z" style="fill:none;stroke:#E250C4;stroke-width:0.5" />
<path d="M64.635,110.47L268.84,247.95L473.05,413.58L677.26,398.34L881.46,552.83L1085.7,789.95L1289.9,811.3L1494.1,854.15L1698.3,937.16L1902.5,941.61" style="fill:none;stroke:#9DA7C6" />
<path d="M67.135,110.47A2.5,2.5 0 1 1 62.135,110.47A2.5,2.5 0 1 1 67.135,110.47Z" style="fill:none;stroke:#9DA7C6;stroke-width:0.5" />
<path d="M271.34,247.95A2.5,2.5 0 1 1 266.34,247.95A2.5,2.5 0 1 1 271.34,247.95Z" style="fill:none;stroke:#9DA7C6;stroke-width:0.5" />
<path d="M475.55,413.58A2.5,2.5 0 1 1 470.55,413.58A2.5,2.5 0 1 1 475.55,413.58Z" style="fill:none;stroke:#9DA7C6;stroke-width:0.5" />
<path d="M679.76,398.34A2.5,2.5 0 1 1 674.76,398.34A2.5,2.5 0 1 1 679.76,398.34Z" style="fill:none;stroke:#9DA7C6;stroke-width:0.5" />
<path d="M883.96,552.83A2.5,2.5 0 1 1 878.96,552.83A2.5,2.5 0 1 1 883.96,552.83Z" style="fill:none;stroke:#9DA7C6;stroke-width:0.5" />
<path d="M1088.2,789.95A2.5,2.5 0 1 1 1083.2,789.95A2.5,2.5 0 1 1 1088.2,789.95Z" style="fill:none;stroke:#9DA7C6;stroke-width:0.5" />
<path d="M1292.4,811.3A2.5,2.5 0 1 1 1287.4,811.3A2.5,2.5 0 1 1 1292.4,811.3Z" style="fill:none;stroke:#9DA7C6;stroke-width:0.5" />
<path d="M1496.6,854.15A2.5,2.5 0 1 1 1491.6,854.15A2.5,2.5 0 1 1 1496.6,854.15Z" style="fill:none;stroke:#9DA7C6;stroke-width:0.5" />
<path d="M1700.8,937.16A2.5,2.5 0 1 1 1695.8,937.16A2.5,2.5 0 1 1 1700.8,937.16Z" style="fill:none;stroke:#9DA7C6;stroke-width:0.5" />
<path d="M1905,941.61A2.5,2.5 0 1 1 1900,941.61A2.5,2.5 0 1 1 1905,941.61Z" style="fill:none;stroke:#9DA7C6;stroke-width:0.5" />
<path d="M64.635,42.709L268.84,93.485L473.05,147.14L677.26,201.26L881.46,270.93L1085.7,292.28L1289.9,341.91L1494.1,443.2L1698.3,509.56L1902.5,504.01" style="fill:none;stroke:#305DC5" />
<path d="M67.135,42.709A2.5,2.5 0 1 1 62.135,42.709A2.5,2.5 0 1 1 67.135,42.709Z" style="fill:none;stroke:#305DC5;stroke-width:0.5" />
<path d="M271.34,93.485A2.5,2.5 0 1 1 266.34,93.485A2.5,2.5 0 1 1 271.34,93.485Z" style="fill:none;stroke:#305DC5;stroke-width:0.5" />
<path d="M475.55,147.14A2.5,2.5 0 1 1 470.55,147.14A2.5,2.5 0 1 1 475.55,147.14Z" style="fill:none;stroke:#305DC5;stroke-width:0.5" />
<path d="M679.76,201.26A2.5,2.5 0 1 1 674.76,201.26A2.5,2.5 0 1 1 679.76,201.26Z" style="fill:none;stroke:#305DC5;stroke-width:0.5" />
<path d="M883.96,270.93A2.5,2.5 0 1 1 878.96,270.93A2.5,2.5 0 1 1 883.96,270.93Z" style="fill:none;stroke:#305DC5;stroke-width:0.5" />
<path d="M1088.2,292.28A2.5,2.5 0 1 1 1083.2,292.28A2.5,2.5 0 1 1 1088.2,292.28Z" style="fill:none;stroke:#305DC5;stroke-width:0.5" />
<path d="M1292.4,341.91A2.5,2.5 0 1 1 1287.4,341.91A2.5,2.5 0 1 1 1292.4,341.91Z" style="fill:none;stroke:#305DC5;stroke-width:0.5" />
<path d="M1496.6,443.2A2.5,2.5 0 1 1 1491.6,443.2A2.5,2.5 0 1 1 1496.6,443.2Z" style="fill:none;stroke:#305DC5;stroke-width:0.5" />
<path d="M1700.8,509.56A2.5,2.5 0 1 1 1695.8,509.56A2.5,2.5 0 1 1 1700.8,509.56Z" style="fill:none;stroke:#305DC5;stroke-width:0.5" />
<path d="M1905,504.01A2.5,2.5 0 1 1 1900,504.01A2.5,2.5 0 1 1 1905,504.01Z" style="fill:none;stroke:#305DC5;stroke-width:0.5" />
<path d="M1900,75.852L1920,75.852" style="fill:none;stroke:#9F90A3" />
<path d="M1912.5,75.852A2.5,2.5 0 1 1 1907.5,75.852A2.5,2.5 0 1 1 1912.5,75.852Z" style="fill:none;stroke:#9F90A3;stroke-width:0.5" />
<text x="1861.7" y="-73.364" transform="scale(1, -1)"
	style="font-family:Liberation Serif;font-variant:normal;font-weight:normal;font-style:normal;font-size:12px">std::list</text>
<path d="M1900,65.668L1920,65.668" style="fill:none;stroke:#E250C4" />
<path d="M1912.5,65.668A2.5,2.5 0 1 1 1907.5,65.668A2.5,2.5 0 1 1 1912.5,65.668Z" style="fill:none;stroke:#E250C4;stroke-width:0.5" />
<text x="1847.7" y="-63.181" transform="scale(1, -1)"
	style="font-family:Liberation Serif;font-variant:normal;font-weight:normal;font-style:normal;font-size:12px">std::deque</text>
<path d="M1900,55.484L1920,55.484" style="fill:none;stroke:#9DA7C6" />
<path d="M1912.5,55.484A2.5,2.5 0 1 1 1907.5,55.484A2.5,2.5 0 1 1 1912.5,55.484Z" style="fill:none;stroke:#9DA7C6;stroke-width:0.5" />
<text x="1846.3" y="-52.997" transform="scale(1, -1)"
	style="font-family:Liberation Serif;font-variant:normal;font-weight:normal;font-style:normal;font-size:12px">std::vector</text>
<path d="M1900,45.301L1920,45.301" style="fill:none;stroke:#305DC5" />
<path d="M1912.5,45.301A2.5,2.5 0 1 1 1907.5,45.301A2.5,2.5 0 1 1 1912.5,45.301Z" style="fill:none;stroke:#305DC5;stroke-width:0.5" />
<text x="1784.7" y="-42.813" transform="scale(1, -1)"
	style="font-family:Liberation Serif;font-variant:normal;font-weight:normal;font-style:normal;font-size:12px">preallocated std::vector</text>
</g>
</svg>
