<?xml version="1.0"?>
<!-- Generated by SVGo and Plotinum VG -->
<svg width="1920pt" height="1200pt" viewBox="0 0 1920 1200"
	xmlns="http://www.w3.org/2000/svg"
	xmlns:xlink="http://www.w3.org/1999/xlink">
<g transform="scale(1, -1) translate(0, -1200)">
<path d="M0,0L1920,0L1920,1200L0,1200Z" style="fill:#FFFFFF" />
<text x="908.18" y="-1190.6" transform="scale(1, -1)"
	style="font-family:Liberation Serif;font-variant:normal;font-weight:normal;font-style:normal;font-size:12px">pushback - Log Scale</text>
<text x="925.83" y="-3.9023" transform="scale(1, -1)"
	style="font-family:Liberation Serif;font-variant:normal;font-weight:normal;font-style:normal;font-size:12px">Number of elements</text>
<text x="32.135" y="-16.541" transform="scale(1, -1)"
	style="font-family:Liberation Serif;font-variant:normal;font-weight:normal;font-style:normal;font-size:10px">100000</text>
<text x="238.29" y="-16.541" transform="scale(1, -1)"
	style="font-family:Liberation Serif;font-variant:normal;font-weight:normal;font-style:normal;font-size:10px">200000</text>
<text x="444.44" y="-16.541" transform="scale(1, -1)"
	style="font-family:Liberation Serif;font-variant:normal;font-weight:normal;font-style:normal;font-size:10px">300000</text>
<text x="650.59" y="-16.541" transform="scale(1, -1)"
	style="font-family:Liberation Serif;font-variant:normal;font-weight:normal;font-style:normal;font-size:10px">400000</text>
<text x="856.74" y="-16.541" transform="scale(1, -1)"
	style="font-family:Liberation Serif;font-variant:normal;font-weight:normal;font-style:normal;font-size:10px">500000</text>
<text x="1062.9" y="-16.541" transform="scale(1, -1)"
	style="font-family:Liberation Serif;font-variant:normal;font-weight:normal;font-style:normal;font-size:10px">600000</text>
<text x="1269" y="-16.541" transform="scale(1, -1)"
	style="font-family:Liberation Serif;font-variant:normal;font-weight:normal;font-style:normal;font-size:10px">700000</text>
<text x="1475.2" y="-16.541" transform="scale(1, -1)"
	style="font-family:Liberation Serif;font-variant:normal;font-weight:normal;font-style:normal;font-size:10px">800000</text>
<text x="1681.3" y="-16.541" transform="scale(1, -1)"
	style="font-family:Liberation Serif;font-variant:normal;font-weight:normal;font-style:normal;font-size:10px">900000</text>
<text x="1885" y="-16.541" transform="scale(1, -1)"
	style="font-family:Liberation Serif;font-variant:normal;font-weight:normal;font-style:normal;font-size:10px">1000000</text>
<path d="M47.135,24.363L47.135,32.363" style="fill:none;stroke:#000000;stroke-width:0.5" />
<path d="M253.29,24.363L253.29,32.363" style="fill:none;stroke:#000000;stroke-width:0.5" />
<path d="M459.44,24.363L459.44,32.363" style="fill:none;stroke:#000000;stroke-width:0.5" />
<path d="M665.59,24.363L665.59,32.363" style="fill:none;stroke:#000000;stroke-width:0.5" />
<path d="M871.74,24.363L871.74,32.363" style="fill:none;stroke:#000000;stroke-width:0.5" />
<path d="M1077.9,24.363L1077.9,32.363" style="fill:none;stroke:#000000;stroke-width:0.5" />
<path d="M1284,24.363L1284,32.363" style="fill:none;stroke:#000000;stroke-width:0.5" />
<path d="M1490.2,24.363L1490.2,32.363" style="fill:none;stroke:#000000;stroke-width:0.5" />
<path d="M1696.3,24.363L1696.3,32.363" style="fill:none;stroke:#000000;stroke-width:0.5" />
<path d="M1902.5,24.363L1902.5,32.363" style="fill:none;stroke:#000000;stroke-width:0.5" />
<path d="M47.135,32.363L1902.5,32.363" style="fill:none;stroke:#000000;stroke-width:0.5" />
<g transform="rotate(90)">
<text x="596.25" y="9.3867" transform="scale(1, -1)"
	style="font-family:Liberation Serif;font-variant:normal;font-weight:normal;font-style:normal;font-size:12px">log(μs)</text>
</g>
<text x="15.885" y="-79.319" transform="scale(1, -1)"
	style="font-family:Liberation Serif;font-variant:normal;font-weight:normal;font-style:normal;font-size:10px">3.6</text>
<text x="15.885" y="-587.16" transform="scale(1, -1)"
	style="font-family:Liberation Serif;font-variant:normal;font-weight:normal;font-style:normal;font-size:10px">4.2</text>
<text x="15.885" y="-1027.1" transform="scale(1, -1)"
	style="font-family:Liberation Serif;font-variant:normal;font-weight:normal;font-style:normal;font-size:10px">4.8</text>
<path d="M30.885,81.604L38.885,81.604" style="fill:none;stroke:#000000;stroke-width:0.5" />
<path d="M30.885,589.45L38.885,589.45" style="fill:none;stroke:#000000;stroke-width:0.5" />
<path d="M30.885,1029.4L38.885,1029.4" style="fill:none;stroke:#000000;stroke-width:0.5" />
<path d="M34.885,345.3L38.885,345.3" style="fill:none;stroke:#000000;stroke-width:0.5" />
<path d="M34.885,816.75L38.885,816.75" style="fill:none;stroke:#000000;stroke-width:0.5" />
<path d="M38.885,42.709L38.885,1184.2" style="fill:none;stroke:#000000;stroke-width:0.5" />
<path d="M47.135,42.709L47.135,1184.2" style="fill:none;stroke:#808080;stroke-width:0.25" />
<path d="M253.29,42.709L253.29,1184.2" style="fill:none;stroke:#808080;stroke-width:0.25" />
<path d="M459.44,42.709L459.44,1184.2" style="fill:none;stroke:#808080;stroke-width:0.25" />
<path d="M665.59,42.709L665.59,1184.2" style="fill:none;stroke:#808080;stroke-width:0.25" />
<path d="M871.74,42.709L871.74,1184.2" style="fill:none;stroke:#808080;stroke-width:0.25" />
<path d="M1077.9,42.709L1077.9,1184.2" style="fill:none;stroke:#808080;stroke-width:0.25" />
<path d="M1284,42.709L1284,1184.2" style="fill:none;stroke:#808080;stroke-width:0.25" />
<path d="M1490.2,42.709L1490.2,1184.2" style="fill:none;stroke:#808080;stroke-width:0.25" />
<path d="M1696.3,42.709L1696.3,1184.2" style="fill:none;stroke:#808080;stroke-width:0.25" />
<path d="M1902.5,42.709L1902.5,1184.2" style="fill:none;stroke:#808080;stroke-width:0.25" />
<path d="M47.135,81.604L1902.5,81.604" style="fill:none;stroke:#808080;stroke-width:0.25" />
<path d="M47.135,589.45L1902.5,589.45" style="fill:none;stroke:#808080;stroke-width:0.25" />
<path d="M47.135,1029.4L1902.5,1029.4" style="fill:none;stroke:#808080;stroke-width:0.25" />
<path d="M47.135,42.709L253.29,391.05L459.44,526.81L665.59,713.59L871.74,703.29L1077.9,761.6L1284,794.96L1490.2,855.6L1696.3,894.22L1902.5,908.92" style="fill:none;stroke:#000000" />
<path d="M49.635,42.709A2.5,2.5 0 1 1 44.635,42.709A2.5,2.5 0 1 1 49.635,42.709Z" style="fill:none;stroke:#000000;stroke-width:0.5" />
<path d="M255.79,391.05A2.5,2.5 0 1 1 250.79,391.05A2.5,2.5 0 1 1 255.79,391.05Z" style="fill:none;stroke:#000000;stroke-width:0.5" />
<path d="M461.94,526.81A2.5,2.5 0 1 1 456.94,526.81A2.5,2.5 0 1 1 461.94,526.81Z" style="fill:none;stroke:#000000;stroke-width:0.5" />
<path d="M668.09,713.59A2.5,2.5 0 1 1 663.09,713.59A2.5,2.5 0 1 1 668.09,713.59Z" style="fill:none;stroke:#000000;stroke-width:0.5" />
<path d="M874.24,703.29A2.5,2.5 0 1 1 869.24,703.29A2.5,2.5 0 1 1 874.24,703.29Z" style="fill:none;stroke:#000000;stroke-width:0.5" />
<path d="M1080.4,761.6A2.5,2.5 0 1 1 1075.4,761.6A2.5,2.5 0 1 1 1080.4,761.6Z" style="fill:none;stroke:#000000;stroke-width:0.5" />
<path d="M1286.5,794.96A2.5,2.5 0 1 1 1281.5,794.96A2.5,2.5 0 1 1 1286.5,794.96Z" style="fill:none;stroke:#000000;stroke-width:0.5" />
<path d="M1492.7,855.6A2.5,2.5 0 1 1 1487.7,855.6A2.5,2.5 0 1 1 1492.7,855.6Z" style="fill:none;stroke:#000000;stroke-width:0.5" />
<path d="M1698.8,894.22A2.5,2.5 0 1 1 1693.8,894.22A2.5,2.5 0 1 1 1698.8,894.22Z" style="fill:none;stroke:#000000;stroke-width:0.5" />
<path d="M1905,908.92A2.5,2.5 0 1 1 1900,908.92A2.5,2.5 0 1 1 1905,908.92Z" style="fill:none;stroke:#000000;stroke-width:0.5" />
<path d="M47.135,342.51L253.29,572.99L459.44,687.77L665.59,793.88L871.74,858.63L1077.9,1020.4L1284,1048.2L1490.2,1112.1L1696.3,1156L1902.5,1184.2" style="fill:none;stroke:#000000" />
<path d="M49.635,342.51A2.5,2.5 0 1 1 44.635,342.51A2.5,2.5 0 1 1 49.635,342.51Z" style="fill:none;stroke:#000000;stroke-width:0.5" />
<path d="M255.79,572.99A2.5,2.5 0 1 1 250.79,572.99A2.5,2.5 0 1 1 255.79,572.99Z" style="fill:none;stroke:#000000;stroke-width:0.5" />
<path d="M461.94,687.77A2.5,2.5 0 1 1 456.94,687.77A2.5,2.5 0 1 1 461.94,687.77Z" style="fill:none;stroke:#000000;stroke-width:0.5" />
<path d="M668.09,793.88A2.5,2.5 0 1 1 663.09,793.88A2.5,2.5 0 1 1 668.09,793.88Z" style="fill:none;stroke:#000000;stroke-width:0.5" />
<path d="M874.24,858.63A2.5,2.5 0 1 1 869.24,858.63A2.5,2.5 0 1 1 874.24,858.63Z" style="fill:none;stroke:#000000;stroke-width:0.5" />
<path d="M1080.4,1020.4A2.5,2.5 0 1 1 1075.4,1020.4A2.5,2.5 0 1 1 1080.4,1020.4Z" style="fill:none;stroke:#000000;stroke-width:0.5" />
<path d="M1286.5,1048.2A2.5,2.5 0 1 1 1281.5,1048.2A2.5,2.5 0 1 1 1286.5,1048.2Z" style="fill:none;stroke:#000000;stroke-width:0.5" />
<path d="M1492.7,1112.1A2.5,2.5 0 1 1 1487.7,1112.1A2.5,2.5 0 1 1 1492.7,1112.1Z" style="fill:none;stroke:#000000;stroke-width:0.5" />
<path d="M1698.8,1156A2.5,2.5 0 1 1 1693.8,1156A2.5,2.5 0 1 1 1698.8,1156Z" style="fill:none;stroke:#000000;stroke-width:0.5" />
<path d="M1905,1184.2A2.5,2.5 0 1 1 1900,1184.2A2.5,2.5 0 1 1 1905,1184.2Z" style="fill:none;stroke:#000000;stroke-width:0.5" />
<path d="M47.135,212.31L253.29,465.74L459.44,623.69L665.59,709.62L871.74,788.92L1077.9,845.03L1284,888.53L1490.2,1017.1L1696.3,1064.5L1902.5,1135.9" style="fill:none;stroke:#000000" />
<path d="M49.635,212.31A2.5,2.5 0 1 1 44.635,212.31A2.5,2.5 0 1 1 49.635,212.31Z" style="fill:none;stroke:#000000;stroke-width:0.5" />
<path d="M255.79,465.74A2.5,2.5 0 1 1 250.79,465.74A2.5,2.5 0 1 1 255.79,465.74Z" style="fill:none;stroke:#000000;stroke-width:0.5" />
<path d="M461.94,623.69A2.5,2.5 0 1 1 456.94,623.69A2.5,2.5 0 1 1 461.94,623.69Z" style="fill:none;stroke:#000000;stroke-width:0.5" />
<path d="M668.09,709.62A2.5,2.5 0 1 1 663.09,709.62A2.5,2.5 0 1 1 668.09,709.62Z" style="fill:none;stroke:#000000;stroke-width:0.5" />
<path d="M874.24,788.92A2.5,2.5 0 1 1 869.24,788.92A2.5,2.5 0 1 1 874.24,788.92Z" style="fill:none;stroke:#000000;stroke-width:0.5" />
<path d="M1080.4,845.03A2.5,2.5 0 1 1 1075.4,845.03A2.5,2.5 0 1 1 1080.4,845.03Z" style="fill:none;stroke:#000000;stroke-width:0.5" />
<path d="M1286.5,888.53A2.5,2.5 0 1 1 1281.5,888.53A2.5,2.5 0 1 1 1286.5,888.53Z" style="fill:none;stroke:#000000;stroke-width:0.5" />
<path d="M1492.7,1017.1A2.5,2.5 0 1 1 1487.7,1017.1A2.5,2.5 0 1 1 1492.7,1017.1Z" style="fill:none;stroke:#000000;stroke-width:0.5" />
<path d="M1698.8,1064.5A2.5,2.5 0 1 1 1693.8,1064.5A2.5,2.5 0 1 1 1698.8,1064.5Z" style="fill:none;stroke:#000000;stroke-width:0.5" />
<path d="M1905,1135.9A2.5,2.5 0 1 1 1900,1135.9A2.5,2.5 0 1 1 1905,1135.9Z" style="fill:none;stroke:#000000;stroke-width:0.5" />
<path d="M47.135,218.03L253.29,476.05L459.44,693.42L665.59,739.13L871.74,795.35L1077.9,965.84L1284,977.63L1490.2,980.27L1696.3,991.32L1902.5,1010.3" style="fill:none;stroke:#000000" />
<path d="M49.635,218.03A2.5,2.5 0 1 1 44.635,218.03A2.5,2.5 0 1 1 49.635,218.03Z" style="fill:none;stroke:#000000;stroke-width:0.5" />
<path d="M255.79,476.05A2.5,2.5 0 1 1 250.79,476.05A2.5,2.5 0 1 1 255.79,476.05Z" style="fill:none;stroke:#000000;stroke-width:0.5" />
<path d="M461.94,693.42A2.5,2.5 0 1 1 456.94,693.42A2.5,2.5 0 1 1 461.94,693.42Z" style="fill:none;stroke:#000000;stroke-width:0.5" />
<path d="M668.09,739.13A2.5,2.5 0 1 1 663.09,739.13A2.5,2.5 0 1 1 668.09,739.13Z" style="fill:none;stroke:#000000;stroke-width:0.5" />
<path d="M874.24,795.35A2.5,2.5 0 1 1 869.24,795.35A2.5,2.5 0 1 1 874.24,795.35Z" style="fill:none;stroke:#000000;stroke-width:0.5" />
<path d="M1080.4,965.84A2.5,2.5 0 1 1 1075.4,965.84A2.5,2.5 0 1 1 1080.4,965.84Z" style="fill:none;stroke:#000000;stroke-width:0.5" />
<path d="M1286.5,977.63A2.5,2.5 0 1 1 1281.5,977.63A2.5,2.5 0 1 1 1286.5,977.63Z" style="fill:none;stroke:#000000;stroke-width:0.5" />
<path d="M1492.7,980.27A2.5,2.5 0 1 1 1487.7,980.27A2.5,2.5 0 1 1 1492.7,980.27Z" style="fill:none;stroke:#000000;stroke-width:0.5" />
<path d="M1698.8,991.32A2.5,2.5 0 1 1 1693.8,991.32A2.5,2.5 0 1 1 1698.8,991.32Z" style="fill:none;stroke:#000000;stroke-width:0.5" />
<path d="M1905,1010.3A2.5,2.5 0 1 1 1900,1010.3A2.5,2.5 0 1 1 1905,1010.3Z" style="fill:none;stroke:#000000;stroke-width:0.5" />
<path d="M1900,75.852L1920,75.852" style="fill:none;stroke:#000000" />
<path d="M1912.5,75.852A2.5,2.5 0 1 1 1907.5,75.852A2.5,2.5 0 1 1 1912.5,75.852Z" style="fill:none;stroke:#000000;stroke-width:0.5" />
<text x="1784.7" y="-73.364" transform="scale(1, -1)"
	style="font-family:Liberation Serif;font-variant:normal;font-weight:normal;font-style:normal;font-size:12px">preallocated std::vector</text>
<path d="M1900,65.668L1920,65.668" style="fill:none;stroke:#000000" />
<path d="M1912.5,65.668A2.5,2.5 0 1 1 1907.5,65.668A2.5,2.5 0 1 1 1912.5,65.668Z" style="fill:none;stroke:#000000;stroke-width:0.5" />
<text x="1861.7" y="-63.181" transform="scale(1, -1)"
	style="font-family:Liberation Serif;font-variant:normal;font-weight:normal;font-style:normal;font-size:12px">std::list</text>
<path d="M1900,55.484L1920,55.484" style="fill:none;stroke:#000000" />
<path d="M1912.5,55.484A2.5,2.5 0 1 1 1907.5,55.484A2.5,2.5 0 1 1 1912.5,55.484Z" style="fill:none;stroke:#000000;stroke-width:0.5" />
<text x="1847.7" y="-52.997" transform="scale(1, -1)"
	style="font-family:Liberation Serif;font-variant:normal;font-weight:normal;font-style:normal;font-size:12px">std::deque</text>
<path d="M1900,45.301L1920,45.301" style="fill:none;stroke:#000000" />
<path d="M1912.5,45.301A2.5,2.5 0 1 1 1907.5,45.301A2.5,2.5 0 1 1 1912.5,45.301Z" style="fill:none;stroke:#000000;stroke-width:0.5" />
<text x="1846.3" y="-42.813" transform="scale(1, -1)"
	style="font-family:Liberation Serif;font-variant:normal;font-weight:normal;font-style:normal;font-size:12px">std::vector</text>
</g>
</svg>
