<?xml version="1.0"?>
<!-- Generated by SVGo and Plotinum VG -->
<svg width="1920pt" height="1200pt" viewBox="0 0 1920 1200"
	xmlns="http://www.w3.org/2000/svg"
	xmlns:xlink="http://www.w3.org/1999/xlink">
<g transform="scale(1, -1) translate(0, -1200)">
<path d="M0,0L1920,0L1920,1200L0,1200Z" style="fill:#FFFFFF" />
<text x="937.34" y="-1190.6" transform="scale(1, -1)"
	style="font-family:Liberation Serif;font-variant:normal;font-weight:normal;font-style:normal;font-size:12px">pushback</text>
<text x="937.08" y="-3.9023" transform="scale(1, -1)"
	style="font-family:Liberation Serif;font-variant:normal;font-weight:normal;font-style:normal;font-size:12px">Number of elements</text>
<text x="54.635" y="-16.541" transform="scale(1, -1)"
	style="font-family:Liberation Serif;font-variant:normal;font-weight:normal;font-style:normal;font-size:10px">100000</text>
<text x="258.29" y="-16.541" transform="scale(1, -1)"
	style="font-family:Liberation Serif;font-variant:normal;font-weight:normal;font-style:normal;font-size:10px">200000</text>
<text x="461.94" y="-16.541" transform="scale(1, -1)"
	style="font-family:Liberation Serif;font-variant:normal;font-weight:normal;font-style:normal;font-size:10px">300000</text>
<text x="665.59" y="-16.541" transform="scale(1, -1)"
	style="font-family:Liberation Serif;font-variant:normal;font-weight:normal;font-style:normal;font-size:10px">400000</text>
<text x="869.24" y="-16.541" transform="scale(1, -1)"
	style="font-family:Liberation Serif;font-variant:normal;font-weight:normal;font-style:normal;font-size:10px">500000</text>
<text x="1072.9" y="-16.541" transform="scale(1, -1)"
	style="font-family:Liberation Serif;font-variant:normal;font-weight:normal;font-style:normal;font-size:10px">600000</text>
<text x="1276.5" y="-16.541" transform="scale(1, -1)"
	style="font-family:Liberation Serif;font-variant:normal;font-weight:normal;font-style:normal;font-size:10px">700000</text>
<text x="1480.2" y="-16.541" transform="scale(1, -1)"
	style="font-family:Liberation Serif;font-variant:normal;font-weight:normal;font-style:normal;font-size:10px">800000</text>
<text x="1683.8" y="-16.541" transform="scale(1, -1)"
	style="font-family:Liberation Serif;font-variant:normal;font-weight:normal;font-style:normal;font-size:10px">900000</text>
<text x="1885" y="-16.541" transform="scale(1, -1)"
	style="font-family:Liberation Serif;font-variant:normal;font-weight:normal;font-style:normal;font-size:10px">1000000</text>
<path d="M69.635,24.363L69.635,32.363" style="fill:none;stroke:#000000;stroke-width:0.5" />
<path d="M273.29,24.363L273.29,32.363" style="fill:none;stroke:#000000;stroke-width:0.5" />
<path d="M476.94,24.363L476.94,32.363" style="fill:none;stroke:#000000;stroke-width:0.5" />
<path d="M680.59,24.363L680.59,32.363" style="fill:none;stroke:#000000;stroke-width:0.5" />
<path d="M884.24,24.363L884.24,32.363" style="fill:none;stroke:#000000;stroke-width:0.5" />
<path d="M1087.9,24.363L1087.9,32.363" style="fill:none;stroke:#000000;stroke-width:0.5" />
<path d="M1291.5,24.363L1291.5,32.363" style="fill:none;stroke:#000000;stroke-width:0.5" />
<path d="M1495.2,24.363L1495.2,32.363" style="fill:none;stroke:#000000;stroke-width:0.5" />
<path d="M1698.8,24.363L1698.8,32.363" style="fill:none;stroke:#000000;stroke-width:0.5" />
<path d="M1902.5,24.363L1902.5,32.363" style="fill:none;stroke:#000000;stroke-width:0.5" />
<path d="M69.635,32.363L1902.5,32.363" style="fill:none;stroke:#000000;stroke-width:0.5" />
<g transform="rotate(90)">
<text x="607.91" y="9.3867" transform="scale(1, -1)"
	style="font-family:Liberation Serif;font-variant:normal;font-weight:normal;font-style:normal;font-size:12px">μs</text>
</g>
<text x="20.885" y="-159.56" transform="scale(1, -1)"
	style="font-family:Liberation Serif;font-variant:normal;font-weight:normal;font-style:normal;font-size:10px">200000</text>
<text x="20.885" y="-617.45" transform="scale(1, -1)"
	style="font-family:Liberation Serif;font-variant:normal;font-weight:normal;font-style:normal;font-size:10px">800000</text>
<text x="15.885" y="-1075.3" transform="scale(1, -1)"
	style="font-family:Liberation Serif;font-variant:normal;font-weight:normal;font-style:normal;font-size:10px">1400000</text>
<path d="M53.385,161.84L61.385,161.84" style="fill:none;stroke:#000000;stroke-width:0.5" />
<path d="M53.385,619.73L61.385,619.73" style="fill:none;stroke:#000000;stroke-width:0.5" />
<path d="M53.385,1077.6L61.385,1077.6" style="fill:none;stroke:#000000;stroke-width:0.5" />
<path d="M57.385,390.79L61.385,390.79" style="fill:none;stroke:#000000;stroke-width:0.5" />
<path d="M57.385,848.68L61.385,848.68" style="fill:none;stroke:#000000;stroke-width:0.5" />
<path d="M61.385,42.709L61.385,1184.2" style="fill:none;stroke:#000000;stroke-width:0.5" />
<path d="M69.635,42.709L69.635,1184.2" style="fill:none;stroke:#808080;stroke-width:0.25" />
<path d="M273.29,42.709L273.29,1184.2" style="fill:none;stroke:#808080;stroke-width:0.25" />
<path d="M476.94,42.709L476.94,1184.2" style="fill:none;stroke:#808080;stroke-width:0.25" />
<path d="M680.59,42.709L680.59,1184.2" style="fill:none;stroke:#808080;stroke-width:0.25" />
<path d="M884.24,42.709L884.24,1184.2" style="fill:none;stroke:#808080;stroke-width:0.25" />
<path d="M1087.9,42.709L1087.9,1184.2" style="fill:none;stroke:#808080;stroke-width:0.25" />
<path d="M1291.5,42.709L1291.5,1184.2" style="fill:none;stroke:#808080;stroke-width:0.25" />
<path d="M1495.2,42.709L1495.2,1184.2" style="fill:none;stroke:#808080;stroke-width:0.25" />
<path d="M1698.8,42.709L1698.8,1184.2" style="fill:none;stroke:#808080;stroke-width:0.25" />
<path d="M1902.5,42.709L1902.5,1184.2" style="fill:none;stroke:#808080;stroke-width:0.25" />
<path d="M69.635,161.84L1902.5,161.84" style="fill:none;stroke:#808080;stroke-width:0.25" />
<path d="M69.635,619.73L1902.5,619.73" style="fill:none;stroke:#808080;stroke-width:0.25" />
<path d="M69.635,1077.6L1902.5,1077.6" style="fill:none;stroke:#808080;stroke-width:0.25" />
<path d="M69.635,99.821L273.29,201.09L476.94,286.39L680.59,395.77L884.24,484.18L1087.9,561.01L1291.5,760.96L1495.2,836.27L1698.8,906.3L1902.5,1100.5" style="fill:none;stroke:#9F90A3" />
<path d="M72.135,99.821A2.5,2.5 0 1 1 67.135,99.821A2.5,2.5 0 1 1 72.135,99.821Z" style="fill:none;stroke:#9F90A3;stroke-width:0.5" />
<path d="M275.79,201.09A2.5,2.5 0 1 1 270.79,201.09A2.5,2.5 0 1 1 275.79,201.09Z" style="fill:none;stroke:#9F90A3;stroke-width:0.5" />
<path d="M479.44,286.39A2.5,2.5 0 1 1 474.44,286.39A2.5,2.5 0 1 1 479.44,286.39Z" style="fill:none;stroke:#9F90A3;stroke-width:0.5" />
<path d="M683.09,395.77A2.5,2.5 0 1 1 678.09,395.77A2.5,2.5 0 1 1 683.09,395.77Z" style="fill:none;stroke:#9F90A3;stroke-width:0.5" />
<path d="M886.74,484.18A2.5,2.5 0 1 1 881.74,484.18A2.5,2.5 0 1 1 886.74,484.18Z" style="fill:none;stroke:#9F90A3;stroke-width:0.5" />
<path d="M1090.4,561.01A2.5,2.5 0 1 1 1085.4,561.01A2.5,2.5 0 1 1 1090.4,561.01Z" style="fill:none;stroke:#9F90A3;stroke-width:0.5" />
<path d="M1294,760.96A2.5,2.5 0 1 1 1289,760.96A2.5,2.5 0 1 1 1294,760.96Z" style="fill:none;stroke:#9F90A3;stroke-width:0.5" />
<path d="M1497.7,836.27A2.5,2.5 0 1 1 1492.7,836.27A2.5,2.5 0 1 1 1497.7,836.27Z" style="fill:none;stroke:#9F90A3;stroke-width:0.5" />
<path d="M1701.3,906.3A2.5,2.5 0 1 1 1696.3,906.3A2.5,2.5 0 1 1 1701.3,906.3Z" style="fill:none;stroke:#9F90A3;stroke-width:0.5" />
<path d="M1905,1100.5A2.5,2.5 0 1 1 1900,1100.5A2.5,2.5 0 1 1 1905,1100.5Z" style="fill:none;stroke:#9F90A3;stroke-width:0.5" />
<path d="M69.635,105.2L273.29,208.58L476.94,315.39L680.59,419.4L884.24,509.28L1087.9,592.43L1291.5,726.84L1495.2,836.85L1698.8,938.32L1902.5,1098.4" style="fill:none;stroke:#E250C4" />
<path d="M72.135,105.2A2.5,2.5 0 1 1 67.135,105.2A2.5,2.5 0 1 1 72.135,105.2Z" style="fill:none;stroke:#E250C4;stroke-width:0.5" />
<path d="M275.79,208.58A2.5,2.5 0 1 1 270.79,208.58A2.5,2.5 0 1 1 275.79,208.58Z" style="fill:none;stroke:#E250C4;stroke-width:0.5" />
<path d="M479.44,315.39A2.5,2.5 0 1 1 474.44,315.39A2.5,2.5 0 1 1 479.44,315.39Z" style="fill:none;stroke:#E250C4;stroke-width:0.5" />
<path d="M683.09,419.4A2.5,2.5 0 1 1 678.09,419.4A2.5,2.5 0 1 1 683.09,419.4Z" style="fill:none;stroke:#E250C4;stroke-width:0.5" />
<path d="M886.74,509.28A2.5,2.5 0 1 1 881.74,509.28A2.5,2.5 0 1 1 886.74,509.28Z" style="fill:none;stroke:#E250C4;stroke-width:0.5" />
<path d="M1090.4,592.43A2.5,2.5 0 1 1 1085.4,592.43A2.5,2.5 0 1 1 1090.4,592.43Z" style="fill:none;stroke:#E250C4;stroke-width:0.5" />
<path d="M1294,726.84A2.5,2.5 0 1 1 1289,726.84A2.5,2.5 0 1 1 1294,726.84Z" style="fill:none;stroke:#E250C4;stroke-width:0.5" />
<path d="M1497.7,836.85A2.5,2.5 0 1 1 1492.7,836.85A2.5,2.5 0 1 1 1497.7,836.85Z" style="fill:none;stroke:#E250C4;stroke-width:0.5" />
<path d="M1701.3,938.32A2.5,2.5 0 1 1 1696.3,938.32A2.5,2.5 0 1 1 1701.3,938.32Z" style="fill:none;stroke:#E250C4;stroke-width:0.5" />
<path d="M1905,1098.4A2.5,2.5 0 1 1 1900,1098.4A2.5,2.5 0 1 1 1905,1098.4Z" style="fill:none;stroke:#E250C4;stroke-width:0.5" />
<path d="M69.635,107.7L273.29,201.31L476.94,411.41L680.59,395.3L884.24,436.59L1087.9,1184.2L1291.5,1000L1495.2,934L1698.8,1056.9L1902.5,1030.8" style="fill:none;stroke:#9DA7C6" />
<path d="M72.135,107.7A2.5,2.5 0 1 1 67.135,107.7A2.5,2.5 0 1 1 72.135,107.7Z" style="fill:none;stroke:#9DA7C6;stroke-width:0.5" />
<path d="M275.79,201.31A2.5,2.5 0 1 1 270.79,201.31A2.5,2.5 0 1 1 275.79,201.31Z" style="fill:none;stroke:#9DA7C6;stroke-width:0.5" />
<path d="M479.44,411.41A2.5,2.5 0 1 1 474.44,411.41A2.5,2.5 0 1 1 479.44,411.41Z" style="fill:none;stroke:#9DA7C6;stroke-width:0.5" />
<path d="M683.09,395.3A2.5,2.5 0 1 1 678.09,395.3A2.5,2.5 0 1 1 683.09,395.3Z" style="fill:none;stroke:#9DA7C6;stroke-width:0.5" />
<path d="M886.74,436.59A2.5,2.5 0 1 1 881.74,436.59A2.5,2.5 0 1 1 886.74,436.59Z" style="fill:none;stroke:#9DA7C6;stroke-width:0.5" />
<path d="M1090.4,1184.2A2.5,2.5 0 1 1 1085.4,1184.2A2.5,2.5 0 1 1 1090.4,1184.2Z" style="fill:none;stroke:#9DA7C6;stroke-width:0.5" />
<path d="M1294,1000A2.5,2.5 0 1 1 1289,1000A2.5,2.5 0 1 1 1294,1000Z" style="fill:none;stroke:#9DA7C6;stroke-width:0.5" />
<path d="M1497.7,934A2.5,2.5 0 1 1 1492.7,934A2.5,2.5 0 1 1 1497.7,934Z" style="fill:none;stroke:#9DA7C6;stroke-width:0.5" />
<path d="M1701.3,1056.9A2.5,2.5 0 1 1 1696.3,1056.9A2.5,2.5 0 1 1 1701.3,1056.9Z" style="fill:none;stroke:#9DA7C6;stroke-width:0.5" />
<path d="M1905,1030.8A2.5,2.5 0 1 1 1900,1030.8A2.5,2.5 0 1 1 1905,1030.8Z" style="fill:none;stroke:#9DA7C6;stroke-width:0.5" />
<path d="M69.635,42.709L273.29,76.639L476.94,126.34L680.59,149.93L884.24,192.16L1087.9,229.64L1291.5,267.02L1495.2,341.54L1698.8,393.22L1902.5,402.36" style="fill:none;stroke:#305DC5" />
<path d="M72.135,42.709A2.5,2.5 0 1 1 67.135,42.709A2.5,2.5 0 1 1 72.135,42.709Z" style="fill:none;stroke:#305DC5;stroke-width:0.5" />
<path d="M275.79,76.639A2.5,2.5 0 1 1 270.79,76.639A2.5,2.5 0 1 1 275.79,76.639Z" style="fill:none;stroke:#305DC5;stroke-width:0.5" />
<path d="M479.44,126.34A2.5,2.5 0 1 1 474.44,126.34A2.5,2.5 0 1 1 479.44,126.34Z" style="fill:none;stroke:#305DC5;stroke-width:0.5" />
<path d="M683.09,149.93A2.5,2.5 0 1 1 678.09,149.93A2.5,2.5 0 1 1 683.09,149.93Z" style="fill:none;stroke:#305DC5;stroke-width:0.5" />
<path d="M886.74,192.16A2.5,2.5 0 1 1 881.74,192.16A2.5,2.5 0 1 1 886.74,192.16Z" style="fill:none;stroke:#305DC5;stroke-width:0.5" />
<path d="M1090.4,229.64A2.5,2.5 0 1 1 1085.4,229.64A2.5,2.5 0 1 1 1090.4,229.64Z" style="fill:none;stroke:#305DC5;stroke-width:0.5" />
<path d="M1294,267.02A2.5,2.5 0 1 1 1289,267.02A2.5,2.5 0 1 1 1294,267.02Z" style="fill:none;stroke:#305DC5;stroke-width:0.5" />
<path d="M1497.7,341.54A2.5,2.5 0 1 1 1492.7,341.54A2.5,2.5 0 1 1 1497.7,341.54Z" style="fill:none;stroke:#305DC5;stroke-width:0.5" />
<path d="M1701.3,393.22A2.5,2.5 0 1 1 1696.3,393.22A2.5,2.5 0 1 1 1701.3,393.22Z" style="fill:none;stroke:#305DC5;stroke-width:0.5" />
<path d="M1905,402.36A2.5,2.5 0 1 1 1900,402.36A2.5,2.5 0 1 1 1905,402.36Z" style="fill:none;stroke:#305DC5;stroke-width:0.5" />
<path d="M1900,75.852L1920,75.852" style="fill:none;stroke:#9F90A3" />
<path d="M1912.5,75.852A2.5,2.5 0 1 1 1907.5,75.852A2.5,2.5 0 1 1 1912.5,75.852Z" style="fill:none;stroke:#9F90A3;stroke-width:0.5" />
<text x="1861.7" y="-73.364" transform="scale(1, -1)"
	style="font-family:Liberation Serif;font-variant:normal;font-weight:normal;font-style:normal;font-size:12px">std::list</text>
<path d="M1900,65.668L1920,65.668" style="fill:none;stroke:#E250C4" />
<path d="M1912.5,65.668A2.5,2.5 0 1 1 1907.5,65.668A2.5,2.5 0 1 1 1912.5,65.668Z" style="fill:none;stroke:#E250C4;stroke-width:0.5" />
<text x="1847.7" y="-63.181" transform="scale(1, -1)"
	style="font-family:Liberation Serif;font-variant:normal;font-weight:normal;font-style:normal;font-size:12px">std::deque</text>
<path d="M1900,55.484L1920,55.484" style="fill:none;stroke:#9DA7C6" />
<path d="M1912.5,55.484A2.5,2.5 0 1 1 1907.5,55.484A2.5,2.5 0 1 1 1912.5,55.484Z" style="fill:none;stroke:#9DA7C6;stroke-width:0.5" />
<text x="1846.3" y="-52.997" transform="scale(1, -1)"
	style="font-family:Liberation Serif;font-variant:normal;font-weight:normal;font-style:normal;font-size:12px">std::vector</text>
<path d="M1900,45.301L1920,45.301" style="fill:none;stroke:#305DC5" />
<path d="M1912.5,45.301A2.5,2.5 0 1 1 1907.5,45.301A2.5,2.5 0 1 1 1912.5,45.301Z" style="fill:none;stroke:#305DC5;stroke-width:0.5" />
<text x="1784.7" y="-42.813" transform="scale(1, -1)"
	style="font-family:Liberation Serif;font-variant:normal;font-weight:normal;font-style:normal;font-size:12px">preallocated std::vector</text>
</g>
</svg>
