<?xml version="1.0"?>
<!-- Generated by SVGo and Plotinum VG -->
<svg width="1920pt" height="1080pt" viewBox="0 0 1920 1080"
	xmlns="http://www.w3.org/2000/svg"
	xmlns:xlink="http://www.w3.org/1999/xlink">
<g transform="scale(1, -1) translate(0, -1080)">
<path d="M0,0L1920,0L1920,1080L0,1080Z" style="fill:#FFFFFF" />
<text x="744.09" y="-1040.9" transform="scale(1, -1)"
	style="font-family:Liberation Serif;font-variant:normal;font-weight:normal;font-style:normal;font-size:50px">pushback - Log Scale</text>
<text x="876.52" y="-9.7559" transform="scale(1, -1)"
	style="font-family:Liberation Serif;font-variant:normal;font-weight:normal;font-style:normal;font-size:30px">Number of elements</text>
<text x="82.962" y="-39.727" transform="scale(1, -1)"
	style="font-family:Liberation Serif;font-variant:normal;font-weight:normal;font-style:normal;font-size:20px">100000</text>
<text x="279.86" y="-39.727" transform="scale(1, -1)"
	style="font-family:Liberation Serif;font-variant:normal;font-weight:normal;font-style:normal;font-size:20px">200000</text>
<text x="476.75" y="-39.727" transform="scale(1, -1)"
	style="font-family:Liberation Serif;font-variant:normal;font-weight:normal;font-style:normal;font-size:20px">300000</text>
<text x="673.64" y="-39.727" transform="scale(1, -1)"
	style="font-family:Liberation Serif;font-variant:normal;font-weight:normal;font-style:normal;font-size:20px">400000</text>
<text x="870.53" y="-39.727" transform="scale(1, -1)"
	style="font-family:Liberation Serif;font-variant:normal;font-weight:normal;font-style:normal;font-size:20px">500000</text>
<text x="1067.4" y="-39.727" transform="scale(1, -1)"
	style="font-family:Liberation Serif;font-variant:normal;font-weight:normal;font-style:normal;font-size:20px">600000</text>
<text x="1264.3" y="-39.727" transform="scale(1, -1)"
	style="font-family:Liberation Serif;font-variant:normal;font-weight:normal;font-style:normal;font-size:20px">700000</text>
<text x="1461.2" y="-39.727" transform="scale(1, -1)"
	style="font-family:Liberation Serif;font-variant:normal;font-weight:normal;font-style:normal;font-size:20px">800000</text>
<text x="1658.1" y="-39.727" transform="scale(1, -1)"
	style="font-family:Liberation Serif;font-variant:normal;font-weight:normal;font-style:normal;font-size:20px">900000</text>
<text x="1850" y="-39.727" transform="scale(1, -1)"
	style="font-family:Liberation Serif;font-variant:normal;font-weight:normal;font-style:normal;font-size:20px">1000000</text>
<path d="M112.96,55.371L112.96,63.371" style="fill:none;stroke:#000000;stroke-width:0.5" />
<path d="M309.86,55.371L309.86,63.371" style="fill:none;stroke:#000000;stroke-width:0.5" />
<path d="M506.75,55.371L506.75,63.371" style="fill:none;stroke:#000000;stroke-width:0.5" />
<path d="M703.64,55.371L703.64,63.371" style="fill:none;stroke:#000000;stroke-width:0.5" />
<path d="M900.53,55.371L900.53,63.371" style="fill:none;stroke:#000000;stroke-width:0.5" />
<path d="M1097.4,55.371L1097.4,63.371" style="fill:none;stroke:#000000;stroke-width:0.5" />
<path d="M1294.3,55.371L1294.3,63.371" style="fill:none;stroke:#000000;stroke-width:0.5" />
<path d="M1491.2,55.371L1491.2,63.371" style="fill:none;stroke:#000000;stroke-width:0.5" />
<path d="M1688.1,55.371L1688.1,63.371" style="fill:none;stroke:#000000;stroke-width:0.5" />
<path d="M1885,55.371L1885,63.371" style="fill:none;stroke:#000000;stroke-width:0.5" />
<path d="M112.96,63.371L1885,63.371" style="fill:none;stroke:#000000;stroke-width:0.5" />
<g transform="rotate(90)">
<text x="503.52" y="23.467" transform="scale(1, -1)"
	style="font-family:Liberation Serif;font-variant:normal;font-weight:normal;font-style:normal;font-size:30px">log(μs)</text>
</g>
<text x="49.712" y="-307.55" transform="scale(1, -1)"
	style="font-family:Liberation Serif;font-variant:normal;font-weight:normal;font-style:normal;font-size:20px">5000</text>
<text x="39.712" y="-747.68" transform="scale(1, -1)"
	style="font-family:Liberation Serif;font-variant:normal;font-weight:normal;font-style:normal;font-size:20px">25000</text>
<text x="39.712" y="-908.42" transform="scale(1, -1)"
	style="font-family:Liberation Serif;font-variant:normal;font-weight:normal;font-style:normal;font-size:20px">45000</text>
<text x="39.712" y="-1009" transform="scale(1, -1)"
	style="font-family:Liberation Serif;font-variant:normal;font-weight:normal;font-style:normal;font-size:20px">65000</text>
<path d="M94.712,312.12L102.71,312.12" style="fill:none;stroke:#000000;stroke-width:0.5" />
<path d="M94.712,752.25L102.71,752.25" style="fill:none;stroke:#000000;stroke-width:0.5" />
<path d="M94.712,912.99L102.71,912.99" style="fill:none;stroke:#000000;stroke-width:0.5" />
<path d="M94.712,1013.6L102.71,1013.6" style="fill:none;stroke:#000000;stroke-width:0.5" />
<path d="M98.712,612.56L102.71,612.56" style="fill:none;stroke:#000000;stroke-width:0.5" />
<path d="M98.712,844.27L102.71,844.27" style="fill:none;stroke:#000000;stroke-width:0.5" />
<path d="M98.712,967.87L102.71,967.87" style="fill:none;stroke:#000000;stroke-width:0.5" />
<path d="M102.71,77.61L102.71,1015.5" style="fill:none;stroke:#000000;stroke-width:0.5" />
<path d="M112.96,77.61L112.96,1015.5" style="fill:none;stroke:#808080;stroke-width:0.25" />
<path d="M309.86,77.61L309.86,1015.5" style="fill:none;stroke:#808080;stroke-width:0.25" />
<path d="M506.75,77.61L506.75,1015.5" style="fill:none;stroke:#808080;stroke-width:0.25" />
<path d="M703.64,77.61L703.64,1015.5" style="fill:none;stroke:#808080;stroke-width:0.25" />
<path d="M900.53,77.61L900.53,1015.5" style="fill:none;stroke:#808080;stroke-width:0.25" />
<path d="M1097.4,77.61L1097.4,1015.5" style="fill:none;stroke:#808080;stroke-width:0.25" />
<path d="M1294.3,77.61L1294.3,1015.5" style="fill:none;stroke:#808080;stroke-width:0.25" />
<path d="M1491.2,77.61L1491.2,1015.5" style="fill:none;stroke:#808080;stroke-width:0.25" />
<path d="M1688.1,77.61L1688.1,1015.5" style="fill:none;stroke:#808080;stroke-width:0.25" />
<path d="M1885,77.61L1885,1015.5" style="fill:none;stroke:#808080;stroke-width:0.25" />
<path d="M112.96,312.12L1885,312.12" style="fill:none;stroke:#808080;stroke-width:0.25" />
<path d="M112.96,752.25L1885,752.25" style="fill:none;stroke:#808080;stroke-width:0.25" />
<path d="M112.96,912.99L1885,912.99" style="fill:none;stroke:#808080;stroke-width:0.25" />
<path d="M112.96,1013.6L1885,1013.6" style="fill:none;stroke:#808080;stroke-width:0.25" />
<path d="M112.96,351.67L309.86,520.97L506.75,603.76L703.64,718.23L900.53,780.33L1097.4,868.29L1294.3,906.79L1491.2,894.76L1688.1,959.94L1885,989.44" style="fill:none;stroke:#FF0000" />
<path d="M115.46,351.67A2.5,2.5 0 1 1 110.46,351.67A2.5,2.5 0 1 1 115.46,351.67Z" style="fill:none;stroke:#FF0000;stroke-width:0.5" />
<path d="M312.36,520.97A2.5,2.5 0 1 1 307.36,520.97A2.5,2.5 0 1 1 312.36,520.97Z" style="fill:none;stroke:#FF0000;stroke-width:0.5" />
<path d="M509.25,603.76A2.5,2.5 0 1 1 504.25,603.76A2.5,2.5 0 1 1 509.25,603.76Z" style="fill:none;stroke:#FF0000;stroke-width:0.5" />
<path d="M706.14,718.23A2.5,2.5 0 1 1 701.14,718.23A2.5,2.5 0 1 1 706.14,718.23Z" style="fill:none;stroke:#FF0000;stroke-width:0.5" />
<path d="M903.03,780.33A2.5,2.5 0 1 1 898.03,780.33A2.5,2.5 0 1 1 903.03,780.33Z" style="fill:none;stroke:#FF0000;stroke-width:0.5" />
<path d="M1099.9,868.29A2.5,2.5 0 1 1 1094.9,868.29A2.5,2.5 0 1 1 1099.9,868.29Z" style="fill:none;stroke:#FF0000;stroke-width:0.5" />
<path d="M1296.8,906.79A2.5,2.5 0 1 1 1291.8,906.79A2.5,2.5 0 1 1 1296.8,906.79Z" style="fill:none;stroke:#FF0000;stroke-width:0.5" />
<path d="M1493.7,894.76A2.5,2.5 0 1 1 1488.7,894.76A2.5,2.5 0 1 1 1493.7,894.76Z" style="fill:none;stroke:#FF0000;stroke-width:0.5" />
<path d="M1690.6,959.94A2.5,2.5 0 1 1 1685.6,959.94A2.5,2.5 0 1 1 1690.6,959.94Z" style="fill:none;stroke:#FF0000;stroke-width:0.5" />
<path d="M1887.5,989.44A2.5,2.5 0 1 1 1882.5,989.44A2.5,2.5 0 1 1 1887.5,989.44Z" style="fill:none;stroke:#FF0000;stroke-width:0.5" />
<path d="M112.96,231.99L309.86,292.22L506.75,403.9L703.64,480.12L900.53,566.63L1097.4,579.73L1294.3,598.07L1491.2,625.97L1688.1,664.81L1885,690.11" style="fill:none;stroke:#0000FF" />
<path d="M115.46,231.99A2.5,2.5 0 1 1 110.46,231.99A2.5,2.5 0 1 1 115.46,231.99Z" style="fill:none;stroke:#0000FF;stroke-width:0.5" />
<path d="M312.36,292.22A2.5,2.5 0 1 1 307.36,292.22A2.5,2.5 0 1 1 312.36,292.22Z" style="fill:none;stroke:#0000FF;stroke-width:0.5" />
<path d="M509.25,403.9A2.5,2.5 0 1 1 504.25,403.9A2.5,2.5 0 1 1 509.25,403.9Z" style="fill:none;stroke:#0000FF;stroke-width:0.5" />
<path d="M706.14,480.12A2.5,2.5 0 1 1 701.14,480.12A2.5,2.5 0 1 1 706.14,480.12Z" style="fill:none;stroke:#0000FF;stroke-width:0.5" />
<path d="M903.03,566.63A2.5,2.5 0 1 1 898.03,566.63A2.5,2.5 0 1 1 903.03,566.63Z" style="fill:none;stroke:#0000FF;stroke-width:0.5" />
<path d="M1099.9,579.73A2.5,2.5 0 1 1 1094.9,579.73A2.5,2.5 0 1 1 1099.9,579.73Z" style="fill:none;stroke:#0000FF;stroke-width:0.5" />
<path d="M1296.8,598.07A2.5,2.5 0 1 1 1291.8,598.07A2.5,2.5 0 1 1 1296.8,598.07Z" style="fill:none;stroke:#0000FF;stroke-width:0.5" />
<path d="M1493.7,625.97A2.5,2.5 0 1 1 1488.7,625.97A2.5,2.5 0 1 1 1493.7,625.97Z" style="fill:none;stroke:#0000FF;stroke-width:0.5" />
<path d="M1690.6,664.81A2.5,2.5 0 1 1 1685.6,664.81A2.5,2.5 0 1 1 1690.6,664.81Z" style="fill:none;stroke:#0000FF;stroke-width:0.5" />
<path d="M1887.5,690.11A2.5,2.5 0 1 1 1882.5,690.11A2.5,2.5 0 1 1 1887.5,690.11Z" style="fill:none;stroke:#0000FF;stroke-width:0.5" />
<path d="M112.96,109.46L309.86,262.68L506.75,369.09L703.64,465.41L900.53,551.51L1097.4,620.22L1294.3,640.54L1491.2,675.95L1688.1,682.97L1885,685.91" style="fill:none;stroke:#00FF00" />
<path d="M115.46,109.46A2.5,2.5 0 1 1 110.46,109.46A2.5,2.5 0 1 1 115.46,109.46Z" style="fill:none;stroke:#00FF00;stroke-width:0.5" />
<path d="M312.36,262.68A2.5,2.5 0 1 1 307.36,262.68A2.5,2.5 0 1 1 312.36,262.68Z" style="fill:none;stroke:#00FF00;stroke-width:0.5" />
<path d="M509.25,369.09A2.5,2.5 0 1 1 504.25,369.09A2.5,2.5 0 1 1 509.25,369.09Z" style="fill:none;stroke:#00FF00;stroke-width:0.5" />
<path d="M706.14,465.41A2.5,2.5 0 1 1 701.14,465.41A2.5,2.5 0 1 1 706.14,465.41Z" style="fill:none;stroke:#00FF00;stroke-width:0.5" />
<path d="M903.03,551.51A2.5,2.5 0 1 1 898.03,551.51A2.5,2.5 0 1 1 903.03,551.51Z" style="fill:none;stroke:#00FF00;stroke-width:0.5" />
<path d="M1099.9,620.22A2.5,2.5 0 1 1 1094.9,620.22A2.5,2.5 0 1 1 1099.9,620.22Z" style="fill:none;stroke:#00FF00;stroke-width:0.5" />
<path d="M1296.8,640.54A2.5,2.5 0 1 1 1291.8,640.54A2.5,2.5 0 1 1 1296.8,640.54Z" style="fill:none;stroke:#00FF00;stroke-width:0.5" />
<path d="M1493.7,675.95A2.5,2.5 0 1 1 1488.7,675.95A2.5,2.5 0 1 1 1493.7,675.95Z" style="fill:none;stroke:#00FF00;stroke-width:0.5" />
<path d="M1690.6,682.97A2.5,2.5 0 1 1 1685.6,682.97A2.5,2.5 0 1 1 1690.6,682.97Z" style="fill:none;stroke:#00FF00;stroke-width:0.5" />
<path d="M1887.5,685.91A2.5,2.5 0 1 1 1882.5,685.91A2.5,2.5 0 1 1 1887.5,685.91Z" style="fill:none;stroke:#00FF00;stroke-width:0.5" />
<path d="M112.96,77.61L309.86,257.25L506.75,348.67L703.64,425.04L900.53,513.19L1097.4,543.28L1294.3,573.53L1491.2,618.49L1688.1,645.43L1885,673.9" style="fill:none;stroke:#FF8000" />
<path d="M115.46,77.61A2.5,2.5 0 1 1 110.46,77.61A2.5,2.5 0 1 1 115.46,77.61Z" style="fill:none;stroke:#FF8000;stroke-width:0.5" />
<path d="M312.36,257.25A2.5,2.5 0 1 1 307.36,257.25A2.5,2.5 0 1 1 312.36,257.25Z" style="fill:none;stroke:#FF8000;stroke-width:0.5" />
<path d="M509.25,348.67A2.5,2.5 0 1 1 504.25,348.67A2.5,2.5 0 1 1 509.25,348.67Z" style="fill:none;stroke:#FF8000;stroke-width:0.5" />
<path d="M706.14,425.04A2.5,2.5 0 1 1 701.14,425.04A2.5,2.5 0 1 1 706.14,425.04Z" style="fill:none;stroke:#FF8000;stroke-width:0.5" />
<path d="M903.03,513.19A2.5,2.5 0 1 1 898.03,513.19A2.5,2.5 0 1 1 903.03,513.19Z" style="fill:none;stroke:#FF8000;stroke-width:0.5" />
<path d="M1099.9,543.28A2.5,2.5 0 1 1 1094.9,543.28A2.5,2.5 0 1 1 1099.9,543.28Z" style="fill:none;stroke:#FF8000;stroke-width:0.5" />
<path d="M1296.8,573.53A2.5,2.5 0 1 1 1291.8,573.53A2.5,2.5 0 1 1 1296.8,573.53Z" style="fill:none;stroke:#FF8000;stroke-width:0.5" />
<path d="M1493.7,618.49A2.5,2.5 0 1 1 1488.7,618.49A2.5,2.5 0 1 1 1493.7,618.49Z" style="fill:none;stroke:#FF8000;stroke-width:0.5" />
<path d="M1690.6,645.43A2.5,2.5 0 1 1 1685.6,645.43A2.5,2.5 0 1 1 1690.6,645.43Z" style="fill:none;stroke:#FF8000;stroke-width:0.5" />
<path d="M1887.5,673.9A2.5,2.5 0 1 1 1882.5,673.9A2.5,2.5 0 1 1 1887.5,673.9Z" style="fill:none;stroke:#FF8000;stroke-width:0.5" />
<path d="M1900,146.4L1920,146.4" style="fill:none;stroke:#FF0000" />
<path d="M1912.5,146.4A2.5,2.5 0 1 1 1907.5,146.4A2.5,2.5 0 1 1 1912.5,146.4Z" style="fill:none;stroke:#FF0000;stroke-width:0.5" />
<text x="1823.3" y="-141.42" transform="scale(1, -1)"
	style="font-family:Liberation Serif;font-variant:normal;font-weight:normal;font-style:normal;font-size:24px">std::list</text>
<path d="M1900,126.03L1920,126.03" style="fill:none;stroke:#0000FF" />
<path d="M1912.5,126.03A2.5,2.5 0 1 1 1907.5,126.03A2.5,2.5 0 1 1 1912.5,126.03Z" style="fill:none;stroke:#0000FF;stroke-width:0.5" />
<text x="1795.4" y="-121.05" transform="scale(1, -1)"
	style="font-family:Liberation Serif;font-variant:normal;font-weight:normal;font-style:normal;font-size:24px">std::deque</text>
<path d="M1900,105.66L1920,105.66" style="fill:none;stroke:#00FF00" />
<path d="M1912.5,105.66A2.5,2.5 0 1 1 1907.5,105.66A2.5,2.5 0 1 1 1912.5,105.66Z" style="fill:none;stroke:#00FF00;stroke-width:0.5" />
<text x="1792.7" y="-100.69" transform="scale(1, -1)"
	style="font-family:Liberation Serif;font-variant:normal;font-weight:normal;font-style:normal;font-size:24px">std::vector</text>
<path d="M1900,85.294L1920,85.294" style="fill:none;stroke:#FF8000" />
<path d="M1912.5,85.294A2.5,2.5 0 1 1 1907.5,85.294A2.5,2.5 0 1 1 1912.5,85.294Z" style="fill:none;stroke:#FF8000;stroke-width:0.5" />
<text x="1669.4" y="-80.319" transform="scale(1, -1)"
	style="font-family:Liberation Serif;font-variant:normal;font-weight:normal;font-style:normal;font-size:24px">preallocated std::vector</text>
</g>
</svg>
