<?xml version="1.0"?>
<!-- Generated by SVGo and Plotinum VG -->
<svg width="1920pt" height="1080pt" viewBox="0 0 1920 1080"
	xmlns="http://www.w3.org/2000/svg"
	xmlns:xlink="http://www.w3.org/1999/xlink">
<g transform="scale(1, -1) translate(0, -1080)">
<path d="M0,0L1920,0L1920,1080L0,1080Z" style="fill:#FFFFFF" />
<text x="865.58" y="-1040.9" transform="scale(1, -1)"
	style="font-family:Liberation Serif;font-variant:normal;font-weight:normal;font-style:normal;font-size:50px">pushback</text>
<text x="881.52" y="-9.7559" transform="scale(1, -1)"
	style="font-family:Liberation Serif;font-variant:normal;font-weight:normal;font-style:normal;font-size:30px">Number of elements</text>
<text x="92.962" y="-39.727" transform="scale(1, -1)"
	style="font-family:Liberation Serif;font-variant:normal;font-weight:normal;font-style:normal;font-size:20px">100000</text>
<text x="288.74" y="-39.727" transform="scale(1, -1)"
	style="font-family:Liberation Serif;font-variant:normal;font-weight:normal;font-style:normal;font-size:20px">200000</text>
<text x="484.53" y="-39.727" transform="scale(1, -1)"
	style="font-family:Liberation Serif;font-variant:normal;font-weight:normal;font-style:normal;font-size:20px">300000</text>
<text x="680.31" y="-39.727" transform="scale(1, -1)"
	style="font-family:Liberation Serif;font-variant:normal;font-weight:normal;font-style:normal;font-size:20px">400000</text>
<text x="876.09" y="-39.727" transform="scale(1, -1)"
	style="font-family:Liberation Serif;font-variant:normal;font-weight:normal;font-style:normal;font-size:20px">500000</text>
<text x="1071.9" y="-39.727" transform="scale(1, -1)"
	style="font-family:Liberation Serif;font-variant:normal;font-weight:normal;font-style:normal;font-size:20px">600000</text>
<text x="1267.7" y="-39.727" transform="scale(1, -1)"
	style="font-family:Liberation Serif;font-variant:normal;font-weight:normal;font-style:normal;font-size:20px">700000</text>
<text x="1463.4" y="-39.727" transform="scale(1, -1)"
	style="font-family:Liberation Serif;font-variant:normal;font-weight:normal;font-style:normal;font-size:20px">800000</text>
<text x="1659.2" y="-39.727" transform="scale(1, -1)"
	style="font-family:Liberation Serif;font-variant:normal;font-weight:normal;font-style:normal;font-size:20px">900000</text>
<text x="1850" y="-39.727" transform="scale(1, -1)"
	style="font-family:Liberation Serif;font-variant:normal;font-weight:normal;font-style:normal;font-size:20px">1000000</text>
<path d="M122.96,55.371L122.96,63.371" style="fill:none;stroke:#000000;stroke-width:0.5" />
<path d="M318.74,55.371L318.74,63.371" style="fill:none;stroke:#000000;stroke-width:0.5" />
<path d="M514.53,55.371L514.53,63.371" style="fill:none;stroke:#000000;stroke-width:0.5" />
<path d="M710.31,55.371L710.31,63.371" style="fill:none;stroke:#000000;stroke-width:0.5" />
<path d="M906.09,55.371L906.09,63.371" style="fill:none;stroke:#000000;stroke-width:0.5" />
<path d="M1101.9,55.371L1101.9,63.371" style="fill:none;stroke:#000000;stroke-width:0.5" />
<path d="M1297.7,55.371L1297.7,63.371" style="fill:none;stroke:#000000;stroke-width:0.5" />
<path d="M1493.4,55.371L1493.4,63.371" style="fill:none;stroke:#000000;stroke-width:0.5" />
<path d="M1689.2,55.371L1689.2,63.371" style="fill:none;stroke:#000000;stroke-width:0.5" />
<path d="M1885,55.371L1885,63.371" style="fill:none;stroke:#000000;stroke-width:0.5" />
<path d="M122.96,63.371L1885,63.371" style="fill:none;stroke:#000000;stroke-width:0.5" />
<g transform="rotate(90)">
<text x="537.24" y="23.467" transform="scale(1, -1)"
	style="font-family:Liberation Serif;font-variant:normal;font-weight:normal;font-style:normal;font-size:30px">μs</text>
</g>
<text x="49.712" y="-155.48" transform="scale(1, -1)"
	style="font-family:Liberation Serif;font-variant:normal;font-weight:normal;font-style:normal;font-size:20px">50000</text>
<text x="39.712" y="-530.11" transform="scale(1, -1)"
	style="font-family:Liberation Serif;font-variant:normal;font-weight:normal;font-style:normal;font-size:20px">200000</text>
<text x="39.712" y="-904.75" transform="scale(1, -1)"
	style="font-family:Liberation Serif;font-variant:normal;font-weight:normal;font-style:normal;font-size:20px">350000</text>
<path d="M104.71,160.05L112.71,160.05" style="fill:none;stroke:#000000;stroke-width:0.5" />
<path d="M104.71,534.68L112.71,534.68" style="fill:none;stroke:#000000;stroke-width:0.5" />
<path d="M104.71,909.32L112.71,909.32" style="fill:none;stroke:#000000;stroke-width:0.5" />
<path d="M108.71,347.36L112.71,347.36" style="fill:none;stroke:#000000;stroke-width:0.5" />
<path d="M108.71,722L112.71,722" style="fill:none;stroke:#000000;stroke-width:0.5" />
<path d="M112.71,77.61L112.71,1024.6" style="fill:none;stroke:#000000;stroke-width:0.5" />
<path d="M122.96,77.61L122.96,1024.6" style="fill:none;stroke:#808080;stroke-width:0.25" />
<path d="M318.74,77.61L318.74,1024.6" style="fill:none;stroke:#808080;stroke-width:0.25" />
<path d="M514.53,77.61L514.53,1024.6" style="fill:none;stroke:#808080;stroke-width:0.25" />
<path d="M710.31,77.61L710.31,1024.6" style="fill:none;stroke:#808080;stroke-width:0.25" />
<path d="M906.09,77.61L906.09,1024.6" style="fill:none;stroke:#808080;stroke-width:0.25" />
<path d="M1101.9,77.61L1101.9,1024.6" style="fill:none;stroke:#808080;stroke-width:0.25" />
<path d="M1297.7,77.61L1297.7,1024.6" style="fill:none;stroke:#808080;stroke-width:0.25" />
<path d="M1493.4,77.61L1493.4,1024.6" style="fill:none;stroke:#808080;stroke-width:0.25" />
<path d="M1689.2,77.61L1689.2,1024.6" style="fill:none;stroke:#808080;stroke-width:0.25" />
<path d="M1885,77.61L1885,1024.6" style="fill:none;stroke:#808080;stroke-width:0.25" />
<path d="M122.96,160.05L1885,160.05" style="fill:none;stroke:#808080;stroke-width:0.25" />
<path d="M122.96,534.68L1885,534.68" style="fill:none;stroke:#808080;stroke-width:0.25" />
<path d="M122.96,909.32L1885,909.32" style="fill:none;stroke:#808080;stroke-width:0.25" />
<path d="M122.96,106.14L318.74,190.75L514.53,275.61L710.31,351.74L906.09,430.6L1101.9,533.11L1297.7,600.8L1493.4,692.99L1689.2,783.13L1885,890.66" style="fill:none;stroke:#FF0000" />
<path d="M125.46,106.14A2.5,2.5 0 1 1 120.46,106.14A2.5,2.5 0 1 1 125.46,106.14Z" style="fill:none;stroke:#FF0000;stroke-width:0.5" />
<path d="M321.24,190.75A2.5,2.5 0 1 1 316.24,190.75A2.5,2.5 0 1 1 321.24,190.75Z" style="fill:none;stroke:#FF0000;stroke-width:0.5" />
<path d="M517.03,275.61A2.5,2.5 0 1 1 512.03,275.61A2.5,2.5 0 1 1 517.03,275.61Z" style="fill:none;stroke:#FF0000;stroke-width:0.5" />
<path d="M712.81,351.74A2.5,2.5 0 1 1 707.81,351.74A2.5,2.5 0 1 1 712.81,351.74Z" style="fill:none;stroke:#FF0000;stroke-width:0.5" />
<path d="M908.59,430.6A2.5,2.5 0 1 1 903.59,430.6A2.5,2.5 0 1 1 908.59,430.6Z" style="fill:none;stroke:#FF0000;stroke-width:0.5" />
<path d="M1104.4,533.11A2.5,2.5 0 1 1 1099.4,533.11A2.5,2.5 0 1 1 1104.4,533.11Z" style="fill:none;stroke:#FF0000;stroke-width:0.5" />
<path d="M1300.2,600.8A2.5,2.5 0 1 1 1295.2,600.8A2.5,2.5 0 1 1 1300.2,600.8Z" style="fill:none;stroke:#FF0000;stroke-width:0.5" />
<path d="M1495.9,692.99A2.5,2.5 0 1 1 1490.9,692.99A2.5,2.5 0 1 1 1495.9,692.99Z" style="fill:none;stroke:#FF0000;stroke-width:0.5" />
<path d="M1691.7,783.13A2.5,2.5 0 1 1 1686.7,783.13A2.5,2.5 0 1 1 1691.7,783.13Z" style="fill:none;stroke:#FF0000;stroke-width:0.5" />
<path d="M1887.5,890.66A2.5,2.5 0 1 1 1882.5,890.66A2.5,2.5 0 1 1 1887.5,890.66Z" style="fill:none;stroke:#FF0000;stroke-width:0.5" />
<path d="M122.96,117.17L318.74,219.46L514.53,296.75L710.31,392.94L906.09,474.26L1101.9,596.47L1297.7,643.61L1493.4,748.85L1689.2,816.8L1885,934.68" style="fill:none;stroke:#0000FF" />
<path d="M125.46,117.17A2.5,2.5 0 1 1 120.46,117.17A2.5,2.5 0 1 1 125.46,117.17Z" style="fill:none;stroke:#0000FF;stroke-width:0.5" />
<path d="M321.24,219.46A2.5,2.5 0 1 1 316.24,219.46A2.5,2.5 0 1 1 321.24,219.46Z" style="fill:none;stroke:#0000FF;stroke-width:0.5" />
<path d="M517.03,296.75A2.5,2.5 0 1 1 512.03,296.75A2.5,2.5 0 1 1 517.03,296.75Z" style="fill:none;stroke:#0000FF;stroke-width:0.5" />
<path d="M712.81,392.94A2.5,2.5 0 1 1 707.81,392.94A2.5,2.5 0 1 1 712.81,392.94Z" style="fill:none;stroke:#0000FF;stroke-width:0.5" />
<path d="M908.59,474.26A2.5,2.5 0 1 1 903.59,474.26A2.5,2.5 0 1 1 908.59,474.26Z" style="fill:none;stroke:#0000FF;stroke-width:0.5" />
<path d="M1104.4,596.47A2.5,2.5 0 1 1 1099.4,596.47A2.5,2.5 0 1 1 1104.4,596.47Z" style="fill:none;stroke:#0000FF;stroke-width:0.5" />
<path d="M1300.2,643.61A2.5,2.5 0 1 1 1295.2,643.61A2.5,2.5 0 1 1 1300.2,643.61Z" style="fill:none;stroke:#0000FF;stroke-width:0.5" />
<path d="M1495.9,748.85A2.5,2.5 0 1 1 1490.9,748.85A2.5,2.5 0 1 1 1495.9,748.85Z" style="fill:none;stroke:#0000FF;stroke-width:0.5" />
<path d="M1691.7,816.8A2.5,2.5 0 1 1 1686.7,816.8A2.5,2.5 0 1 1 1691.7,816.8Z" style="fill:none;stroke:#0000FF;stroke-width:0.5" />
<path d="M1887.5,934.68A2.5,2.5 0 1 1 1882.5,934.68A2.5,2.5 0 1 1 1887.5,934.68Z" style="fill:none;stroke:#0000FF;stroke-width:0.5" />
<path d="M122.96,115.8L318.74,203.87L514.53,323.03L710.31,369.54L906.09,408.37L1101.9,647.58L1297.7,636.55L1493.4,736.62L1689.2,741.11L1885,800.91" style="fill:none;stroke:#00FF00" />
<path d="M125.46,115.8A2.5,2.5 0 1 1 120.46,115.8A2.5,2.5 0 1 1 125.46,115.8Z" style="fill:none;stroke:#00FF00;stroke-width:0.5" />
<path d="M321.24,203.87A2.5,2.5 0 1 1 316.24,203.87A2.5,2.5 0 1 1 321.24,203.87Z" style="fill:none;stroke:#00FF00;stroke-width:0.5" />
<path d="M517.03,323.03A2.5,2.5 0 1 1 512.03,323.03A2.5,2.5 0 1 1 517.03,323.03Z" style="fill:none;stroke:#00FF00;stroke-width:0.5" />
<path d="M712.81,369.54A2.5,2.5 0 1 1 707.81,369.54A2.5,2.5 0 1 1 712.81,369.54Z" style="fill:none;stroke:#00FF00;stroke-width:0.5" />
<path d="M908.59,408.37A2.5,2.5 0 1 1 903.59,408.37A2.5,2.5 0 1 1 908.59,408.37Z" style="fill:none;stroke:#00FF00;stroke-width:0.5" />
<path d="M1104.4,647.58A2.5,2.5 0 1 1 1099.4,647.58A2.5,2.5 0 1 1 1104.4,647.58Z" style="fill:none;stroke:#00FF00;stroke-width:0.5" />
<path d="M1300.2,636.55A2.5,2.5 0 1 1 1295.2,636.55A2.5,2.5 0 1 1 1300.2,636.55Z" style="fill:none;stroke:#00FF00;stroke-width:0.5" />
<path d="M1495.9,736.62A2.5,2.5 0 1 1 1490.9,736.62A2.5,2.5 0 1 1 1495.9,736.62Z" style="fill:none;stroke:#00FF00;stroke-width:0.5" />
<path d="M1691.7,741.11A2.5,2.5 0 1 1 1686.7,741.11A2.5,2.5 0 1 1 1691.7,741.11Z" style="fill:none;stroke:#00FF00;stroke-width:0.5" />
<path d="M1887.5,800.91A2.5,2.5 0 1 1 1882.5,800.91A2.5,2.5 0 1 1 1887.5,800.91Z" style="fill:none;stroke:#00FF00;stroke-width:0.5" />
<path d="M122.96,77.61L318.74,117.02L514.53,158.1L710.31,200.05L906.09,233.98L1101.9,270.59L1297.7,340.29L1493.4,354.48L1689.2,428.58L1885,463.66" style="fill:none;stroke:#FF8000" />
<path d="M125.46,77.61A2.5,2.5 0 1 1 120.46,77.61A2.5,2.5 0 1 1 125.46,77.61Z" style="fill:none;stroke:#FF8000;stroke-width:0.5" />
<path d="M321.24,117.02A2.5,2.5 0 1 1 316.24,117.02A2.5,2.5 0 1 1 321.24,117.02Z" style="fill:none;stroke:#FF8000;stroke-width:0.5" />
<path d="M517.03,158.1A2.5,2.5 0 1 1 512.03,158.1A2.5,2.5 0 1 1 517.03,158.1Z" style="fill:none;stroke:#FF8000;stroke-width:0.5" />
<path d="M712.81,200.05A2.5,2.5 0 1 1 707.81,200.05A2.5,2.5 0 1 1 712.81,200.05Z" style="fill:none;stroke:#FF8000;stroke-width:0.5" />
<path d="M908.59,233.98A2.5,2.5 0 1 1 903.59,233.98A2.5,2.5 0 1 1 908.59,233.98Z" style="fill:none;stroke:#FF8000;stroke-width:0.5" />
<path d="M1104.4,270.59A2.5,2.5 0 1 1 1099.4,270.59A2.5,2.5 0 1 1 1104.4,270.59Z" style="fill:none;stroke:#FF8000;stroke-width:0.5" />
<path d="M1300.2,340.29A2.5,2.5 0 1 1 1295.2,340.29A2.5,2.5 0 1 1 1300.2,340.29Z" style="fill:none;stroke:#FF8000;stroke-width:0.5" />
<path d="M1495.9,354.48A2.5,2.5 0 1 1 1490.9,354.48A2.5,2.5 0 1 1 1495.9,354.48Z" style="fill:none;stroke:#FF8000;stroke-width:0.5" />
<path d="M1691.7,428.58A2.5,2.5 0 1 1 1686.7,428.58A2.5,2.5 0 1 1 1691.7,428.58Z" style="fill:none;stroke:#FF8000;stroke-width:0.5" />
<path d="M1887.5,463.66A2.5,2.5 0 1 1 1882.5,463.66A2.5,2.5 0 1 1 1887.5,463.66Z" style="fill:none;stroke:#FF8000;stroke-width:0.5" />
<path d="M1900,146.4L1920,146.4" style="fill:none;stroke:#FF0000" />
<path d="M1912.5,146.4A2.5,2.5 0 1 1 1907.5,146.4A2.5,2.5 0 1 1 1912.5,146.4Z" style="fill:none;stroke:#FF0000;stroke-width:0.5" />
<text x="1823.3" y="-141.42" transform="scale(1, -1)"
	style="font-family:Liberation Serif;font-variant:normal;font-weight:normal;font-style:normal;font-size:24px">std::list</text>
<path d="M1900,126.03L1920,126.03" style="fill:none;stroke:#0000FF" />
<path d="M1912.5,126.03A2.5,2.5 0 1 1 1907.5,126.03A2.5,2.5 0 1 1 1912.5,126.03Z" style="fill:none;stroke:#0000FF;stroke-width:0.5" />
<text x="1795.4" y="-121.05" transform="scale(1, -1)"
	style="font-family:Liberation Serif;font-variant:normal;font-weight:normal;font-style:normal;font-size:24px">std::deque</text>
<path d="M1900,105.66L1920,105.66" style="fill:none;stroke:#00FF00" />
<path d="M1912.5,105.66A2.5,2.5 0 1 1 1907.5,105.66A2.5,2.5 0 1 1 1912.5,105.66Z" style="fill:none;stroke:#00FF00;stroke-width:0.5" />
<text x="1792.7" y="-100.69" transform="scale(1, -1)"
	style="font-family:Liberation Serif;font-variant:normal;font-weight:normal;font-style:normal;font-size:24px">std::vector</text>
<path d="M1900,85.294L1920,85.294" style="fill:none;stroke:#FF8000" />
<path d="M1912.5,85.294A2.5,2.5 0 1 1 1907.5,85.294A2.5,2.5 0 1 1 1912.5,85.294Z" style="fill:none;stroke:#FF8000;stroke-width:0.5" />
<text x="1669.4" y="-80.319" transform="scale(1, -1)"
	style="font-family:Liberation Serif;font-variant:normal;font-weight:normal;font-style:normal;font-size:24px">preallocated std::vector</text>
</g>
</svg>
