<?xml version="1.0"?>
<!-- Generated by SVGo and Plotinum VG -->
<svg width="1920pt" height="1200pt" viewBox="0 0 1920 1200"
	xmlns="http://www.w3.org/2000/svg"
	xmlns:xlink="http://www.w3.org/1999/xlink">
<g transform="scale(1, -1) translate(0, -1200)">
<path d="M0,0L1920,0L1920,1200L0,1200Z" style="fill:#FFFFFF" />
<text x="937.34" y="-1190.6" transform="scale(1, -1)"
	style="font-family:Liberation Serif;font-variant:normal;font-weight:normal;font-style:normal;font-size:12px">pushback</text>
<text x="932.08" y="-3.9023" transform="scale(1, -1)"
	style="font-family:Liberation Serif;font-variant:normal;font-weight:normal;font-style:normal;font-size:12px">Number of elements</text>
<text x="44.635" y="-16.541" transform="scale(1, -1)"
	style="font-family:Liberation Serif;font-variant:normal;font-weight:normal;font-style:normal;font-size:10px">100000</text>
<text x="249.4" y="-16.541" transform="scale(1, -1)"
	style="font-family:Liberation Serif;font-variant:normal;font-weight:normal;font-style:normal;font-size:10px">200000</text>
<text x="454.16" y="-16.541" transform="scale(1, -1)"
	style="font-family:Liberation Serif;font-variant:normal;font-weight:normal;font-style:normal;font-size:10px">300000</text>
<text x="658.92" y="-16.541" transform="scale(1, -1)"
	style="font-family:Liberation Serif;font-variant:normal;font-weight:normal;font-style:normal;font-size:10px">400000</text>
<text x="863.69" y="-16.541" transform="scale(1, -1)"
	style="font-family:Liberation Serif;font-variant:normal;font-weight:normal;font-style:normal;font-size:10px">500000</text>
<text x="1068.4" y="-16.541" transform="scale(1, -1)"
	style="font-family:Liberation Serif;font-variant:normal;font-weight:normal;font-style:normal;font-size:10px">600000</text>
<text x="1273.2" y="-16.541" transform="scale(1, -1)"
	style="font-family:Liberation Serif;font-variant:normal;font-weight:normal;font-style:normal;font-size:10px">700000</text>
<text x="1478" y="-16.541" transform="scale(1, -1)"
	style="font-family:Liberation Serif;font-variant:normal;font-weight:normal;font-style:normal;font-size:10px">800000</text>
<text x="1682.7" y="-16.541" transform="scale(1, -1)"
	style="font-family:Liberation Serif;font-variant:normal;font-weight:normal;font-style:normal;font-size:10px">900000</text>
<text x="1885" y="-16.541" transform="scale(1, -1)"
	style="font-family:Liberation Serif;font-variant:normal;font-weight:normal;font-style:normal;font-size:10px">1000000</text>
<path d="M59.635,24.363L59.635,32.363" style="fill:none;stroke:#000000;stroke-width:0.5" />
<path d="M264.4,24.363L264.4,32.363" style="fill:none;stroke:#000000;stroke-width:0.5" />
<path d="M469.16,24.363L469.16,32.363" style="fill:none;stroke:#000000;stroke-width:0.5" />
<path d="M673.92,24.363L673.92,32.363" style="fill:none;stroke:#000000;stroke-width:0.5" />
<path d="M878.69,24.363L878.69,32.363" style="fill:none;stroke:#000000;stroke-width:0.5" />
<path d="M1083.4,24.363L1083.4,32.363" style="fill:none;stroke:#000000;stroke-width:0.5" />
<path d="M1288.2,24.363L1288.2,32.363" style="fill:none;stroke:#000000;stroke-width:0.5" />
<path d="M1493,24.363L1493,32.363" style="fill:none;stroke:#000000;stroke-width:0.5" />
<path d="M1697.7,24.363L1697.7,32.363" style="fill:none;stroke:#000000;stroke-width:0.5" />
<path d="M1902.5,24.363L1902.5,32.363" style="fill:none;stroke:#000000;stroke-width:0.5" />
<path d="M59.635,32.363L1902.5,32.363" style="fill:none;stroke:#000000;stroke-width:0.5" />
<g transform="rotate(90)">
<text x="607.91" y="9.3867" transform="scale(1, -1)"
	style="font-family:Liberation Serif;font-variant:normal;font-weight:normal;font-style:normal;font-size:12px">μs</text>
</g>
<text x="15.885" y="-175.36" transform="scale(1, -1)"
	style="font-family:Liberation Serif;font-variant:normal;font-weight:normal;font-style:normal;font-size:10px">10000</text>
<text x="15.885" y="-370.53" transform="scale(1, -1)"
	style="font-family:Liberation Serif;font-variant:normal;font-weight:normal;font-style:normal;font-size:10px">20000</text>
<text x="15.885" y="-565.7" transform="scale(1, -1)"
	style="font-family:Liberation Serif;font-variant:normal;font-weight:normal;font-style:normal;font-size:10px">30000</text>
<text x="15.885" y="-760.87" transform="scale(1, -1)"
	style="font-family:Liberation Serif;font-variant:normal;font-weight:normal;font-style:normal;font-size:10px">40000</text>
<text x="15.885" y="-956.04" transform="scale(1, -1)"
	style="font-family:Liberation Serif;font-variant:normal;font-weight:normal;font-style:normal;font-size:10px">50000</text>
<text x="15.885" y="-1151.2" transform="scale(1, -1)"
	style="font-family:Liberation Serif;font-variant:normal;font-weight:normal;font-style:normal;font-size:10px">60000</text>
<path d="M43.385,177.65L51.385,177.65" style="fill:none;stroke:#000000;stroke-width:0.5" />
<path d="M43.385,372.82L51.385,372.82" style="fill:none;stroke:#000000;stroke-width:0.5" />
<path d="M43.385,567.99L51.385,567.99" style="fill:none;stroke:#000000;stroke-width:0.5" />
<path d="M43.385,763.15L51.385,763.15" style="fill:none;stroke:#000000;stroke-width:0.5" />
<path d="M43.385,958.32L51.385,958.32" style="fill:none;stroke:#000000;stroke-width:0.5" />
<path d="M43.385,1153.5L51.385,1153.5" style="fill:none;stroke:#000000;stroke-width:0.5" />
<path d="M47.385,60.547L51.385,60.547" style="fill:none;stroke:#000000;stroke-width:0.5" />
<path d="M47.385,99.581L51.385,99.581" style="fill:none;stroke:#000000;stroke-width:0.5" />
<path d="M47.385,138.61L51.385,138.61" style="fill:none;stroke:#000000;stroke-width:0.5" />
<path d="M47.385,216.68L51.385,216.68" style="fill:none;stroke:#000000;stroke-width:0.5" />
<path d="M47.385,255.72L51.385,255.72" style="fill:none;stroke:#000000;stroke-width:0.5" />
<path d="M47.385,294.75L51.385,294.75" style="fill:none;stroke:#000000;stroke-width:0.5" />
<path d="M47.385,333.78L51.385,333.78" style="fill:none;stroke:#000000;stroke-width:0.5" />
<path d="M47.385,411.85L51.385,411.85" style="fill:none;stroke:#000000;stroke-width:0.5" />
<path d="M47.385,450.88L51.385,450.88" style="fill:none;stroke:#000000;stroke-width:0.5" />
<path d="M47.385,489.92L51.385,489.92" style="fill:none;stroke:#000000;stroke-width:0.5" />
<path d="M47.385,528.95L51.385,528.95" style="fill:none;stroke:#000000;stroke-width:0.5" />
<path d="M47.385,607.02L51.385,607.02" style="fill:none;stroke:#000000;stroke-width:0.5" />
<path d="M47.385,646.05L51.385,646.05" style="fill:none;stroke:#000000;stroke-width:0.5" />
<path d="M47.385,685.09L51.385,685.09" style="fill:none;stroke:#000000;stroke-width:0.5" />
<path d="M47.385,724.12L51.385,724.12" style="fill:none;stroke:#000000;stroke-width:0.5" />
<path d="M47.385,802.19L51.385,802.19" style="fill:none;stroke:#000000;stroke-width:0.5" />
<path d="M47.385,841.22L51.385,841.22" style="fill:none;stroke:#000000;stroke-width:0.5" />
<path d="M47.385,880.26L51.385,880.26" style="fill:none;stroke:#000000;stroke-width:0.5" />
<path d="M47.385,919.29L51.385,919.29" style="fill:none;stroke:#000000;stroke-width:0.5" />
<path d="M47.385,997.36L51.385,997.36" style="fill:none;stroke:#000000;stroke-width:0.5" />
<path d="M47.385,1036.4L51.385,1036.4" style="fill:none;stroke:#000000;stroke-width:0.5" />
<path d="M47.385,1075.4L51.385,1075.4" style="fill:none;stroke:#000000;stroke-width:0.5" />
<path d="M47.385,1114.5L51.385,1114.5" style="fill:none;stroke:#000000;stroke-width:0.5" />
<path d="M51.385,42.709L51.385,1184.2" style="fill:none;stroke:#000000;stroke-width:0.5" />
<path d="M59.635,42.709L59.635,1184.2" style="fill:none;stroke:#808080;stroke-width:0.25" />
<path d="M264.4,42.709L264.4,1184.2" style="fill:none;stroke:#808080;stroke-width:0.25" />
<path d="M469.16,42.709L469.16,1184.2" style="fill:none;stroke:#808080;stroke-width:0.25" />
<path d="M673.92,42.709L673.92,1184.2" style="fill:none;stroke:#808080;stroke-width:0.25" />
<path d="M878.69,42.709L878.69,1184.2" style="fill:none;stroke:#808080;stroke-width:0.25" />
<path d="M1083.4,42.709L1083.4,1184.2" style="fill:none;stroke:#808080;stroke-width:0.25" />
<path d="M1288.2,42.709L1288.2,1184.2" style="fill:none;stroke:#808080;stroke-width:0.25" />
<path d="M1493,42.709L1493,1184.2" style="fill:none;stroke:#808080;stroke-width:0.25" />
<path d="M1697.7,42.709L1697.7,1184.2" style="fill:none;stroke:#808080;stroke-width:0.25" />
<path d="M1902.5,42.709L1902.5,1184.2" style="fill:none;stroke:#808080;stroke-width:0.25" />
<path d="M59.635,177.65L1902.5,177.65" style="fill:none;stroke:#808080;stroke-width:0.25" />
<path d="M59.635,372.82L1902.5,372.82" style="fill:none;stroke:#808080;stroke-width:0.25" />
<path d="M59.635,567.99L1902.5,567.99" style="fill:none;stroke:#808080;stroke-width:0.25" />
<path d="M59.635,763.15L1902.5,763.15" style="fill:none;stroke:#808080;stroke-width:0.25" />
<path d="M59.635,958.32L1902.5,958.32" style="fill:none;stroke:#808080;stroke-width:0.25" />
<path d="M59.635,1153.5L1902.5,1153.5" style="fill:none;stroke:#808080;stroke-width:0.25" />
<path d="M59.635,85.061L264.4,199.82L469.16,321.31L673.92,406.56L878.69,546.28L1083.4,655.3L1288.2,766.32L1493,1099.7L1697.7,1018L1902.5,1184.2" style="fill:none;stroke:#9F90A3" />
<path d="M62.135,85.061A2.5,2.5 0 1 1 57.135,85.061A2.5,2.5 0 1 1 62.135,85.061Z" style="fill:none;stroke:#9F90A3;stroke-width:0.5" />
<path d="M266.9,199.82A2.5,2.5 0 1 1 261.9,199.82A2.5,2.5 0 1 1 266.9,199.82Z" style="fill:none;stroke:#9F90A3;stroke-width:0.5" />
<path d="M471.66,321.31A2.5,2.5 0 1 1 466.66,321.31A2.5,2.5 0 1 1 471.66,321.31Z" style="fill:none;stroke:#9F90A3;stroke-width:0.5" />
<path d="M676.42,406.56A2.5,2.5 0 1 1 671.42,406.56A2.5,2.5 0 1 1 676.42,406.56Z" style="fill:none;stroke:#9F90A3;stroke-width:0.5" />
<path d="M881.19,546.28A2.5,2.5 0 1 1 876.19,546.28A2.5,2.5 0 1 1 881.19,546.28Z" style="fill:none;stroke:#9F90A3;stroke-width:0.5" />
<path d="M1085.9,655.3A2.5,2.5 0 1 1 1080.9,655.3A2.5,2.5 0 1 1 1085.9,655.3Z" style="fill:none;stroke:#9F90A3;stroke-width:0.5" />
<path d="M1290.7,766.32A2.5,2.5 0 1 1 1285.7,766.32A2.5,2.5 0 1 1 1290.7,766.32Z" style="fill:none;stroke:#9F90A3;stroke-width:0.5" />
<path d="M1495.5,1099.7A2.5,2.5 0 1 1 1490.5,1099.7A2.5,2.5 0 1 1 1495.5,1099.7Z" style="fill:none;stroke:#9F90A3;stroke-width:0.5" />
<path d="M1700.2,1018A2.5,2.5 0 1 1 1695.2,1018A2.5,2.5 0 1 1 1700.2,1018Z" style="fill:none;stroke:#9F90A3;stroke-width:0.5" />
<path d="M1905,1184.2A2.5,2.5 0 1 1 1900,1184.2A2.5,2.5 0 1 1 1905,1184.2Z" style="fill:none;stroke:#9F90A3;stroke-width:0.5" />
<path d="M59.635,96.068L264.4,117.07L469.16,200.87L673.92,275.14L878.69,351.06L1083.4,471.06L1288.2,558.54L1493,648.51L1697.7,838.47L1902.5,851.29" style="fill:none;stroke:#E250C4" />
<path d="M62.135,96.068A2.5,2.5 0 1 1 57.135,96.068A2.5,2.5 0 1 1 62.135,96.068Z" style="fill:none;stroke:#E250C4;stroke-width:0.5" />
<path d="M266.9,117.07A2.5,2.5 0 1 1 261.9,117.07A2.5,2.5 0 1 1 266.9,117.07Z" style="fill:none;stroke:#E250C4;stroke-width:0.5" />
<path d="M471.66,200.87A2.5,2.5 0 1 1 466.66,200.87A2.5,2.5 0 1 1 471.66,200.87Z" style="fill:none;stroke:#E250C4;stroke-width:0.5" />
<path d="M676.42,275.14A2.5,2.5 0 1 1 671.42,275.14A2.5,2.5 0 1 1 676.42,275.14Z" style="fill:none;stroke:#E250C4;stroke-width:0.5" />
<path d="M881.19,351.06A2.5,2.5 0 1 1 876.19,351.06A2.5,2.5 0 1 1 881.19,351.06Z" style="fill:none;stroke:#E250C4;stroke-width:0.5" />
<path d="M1085.9,471.06A2.5,2.5 0 1 1 1080.9,471.06A2.5,2.5 0 1 1 1085.9,471.06Z" style="fill:none;stroke:#E250C4;stroke-width:0.5" />
<path d="M1290.7,558.54A2.5,2.5 0 1 1 1285.7,558.54A2.5,2.5 0 1 1 1290.7,558.54Z" style="fill:none;stroke:#E250C4;stroke-width:0.5" />
<path d="M1495.5,648.51A2.5,2.5 0 1 1 1490.5,648.51A2.5,2.5 0 1 1 1495.5,648.51Z" style="fill:none;stroke:#E250C4;stroke-width:0.5" />
<path d="M1700.2,838.47A2.5,2.5 0 1 1 1695.2,838.47A2.5,2.5 0 1 1 1700.2,838.47Z" style="fill:none;stroke:#E250C4;stroke-width:0.5" />
<path d="M1905,851.29A2.5,2.5 0 1 1 1900,851.29A2.5,2.5 0 1 1 1905,851.29Z" style="fill:none;stroke:#E250C4;stroke-width:0.5" />
<path d="M59.635,42.709L264.4,122.61L469.16,210.77L673.92,262.88L878.69,344.17L1083.4,513.79L1288.2,568.16L1493,591.52L1697.7,738.95L1902.5,845.98" style="fill:none;stroke:#9DA7C6" />
<path d="M62.135,42.709A2.5,2.5 0 1 1 57.135,42.709A2.5,2.5 0 1 1 62.135,42.709Z" style="fill:none;stroke:#9DA7C6;stroke-width:0.5" />
<path d="M266.9,122.61A2.5,2.5 0 1 1 261.9,122.61A2.5,2.5 0 1 1 266.9,122.61Z" style="fill:none;stroke:#9DA7C6;stroke-width:0.5" />
<path d="M471.66,210.77A2.5,2.5 0 1 1 466.66,210.77A2.5,2.5 0 1 1 471.66,210.77Z" style="fill:none;stroke:#9DA7C6;stroke-width:0.5" />
<path d="M676.42,262.88A2.5,2.5 0 1 1 671.42,262.88A2.5,2.5 0 1 1 676.42,262.88Z" style="fill:none;stroke:#9DA7C6;stroke-width:0.5" />
<path d="M881.19,344.17A2.5,2.5 0 1 1 876.19,344.17A2.5,2.5 0 1 1 881.19,344.17Z" style="fill:none;stroke:#9DA7C6;stroke-width:0.5" />
<path d="M1085.9,513.79A2.5,2.5 0 1 1 1080.9,513.79A2.5,2.5 0 1 1 1085.9,513.79Z" style="fill:none;stroke:#9DA7C6;stroke-width:0.5" />
<path d="M1290.7,568.16A2.5,2.5 0 1 1 1285.7,568.16A2.5,2.5 0 1 1 1290.7,568.16Z" style="fill:none;stroke:#9DA7C6;stroke-width:0.5" />
<path d="M1495.5,591.52A2.5,2.5 0 1 1 1490.5,591.52A2.5,2.5 0 1 1 1495.5,591.52Z" style="fill:none;stroke:#9DA7C6;stroke-width:0.5" />
<path d="M1700.2,738.95A2.5,2.5 0 1 1 1695.2,738.95A2.5,2.5 0 1 1 1700.2,738.95Z" style="fill:none;stroke:#9DA7C6;stroke-width:0.5" />
<path d="M1905,845.98A2.5,2.5 0 1 1 1900,845.98A2.5,2.5 0 1 1 1905,845.98Z" style="fill:none;stroke:#9DA7C6;stroke-width:0.5" />
<path d="M59.635,46.398L264.4,107.41L469.16,144.12L673.92,209.19L878.69,245.2L1083.4,380.33L1288.2,455.76L1493,482.31L1697.7,553L1902.5,673.96" style="fill:none;stroke:#305DC5" />
<path d="M62.135,46.398A2.5,2.5 0 1 1 57.135,46.398A2.5,2.5 0 1 1 62.135,46.398Z" style="fill:none;stroke:#305DC5;stroke-width:0.5" />
<path d="M266.9,107.41A2.5,2.5 0 1 1 261.9,107.41A2.5,2.5 0 1 1 266.9,107.41Z" style="fill:none;stroke:#305DC5;stroke-width:0.5" />
<path d="M471.66,144.12A2.5,2.5 0 1 1 466.66,144.12A2.5,2.5 0 1 1 471.66,144.12Z" style="fill:none;stroke:#305DC5;stroke-width:0.5" />
<path d="M676.42,209.19A2.5,2.5 0 1 1 671.42,209.19A2.5,2.5 0 1 1 676.42,209.19Z" style="fill:none;stroke:#305DC5;stroke-width:0.5" />
<path d="M881.19,245.2A2.5,2.5 0 1 1 876.19,245.2A2.5,2.5 0 1 1 881.19,245.2Z" style="fill:none;stroke:#305DC5;stroke-width:0.5" />
<path d="M1085.9,380.33A2.5,2.5 0 1 1 1080.9,380.33A2.5,2.5 0 1 1 1085.9,380.33Z" style="fill:none;stroke:#305DC5;stroke-width:0.5" />
<path d="M1290.7,455.76A2.5,2.5 0 1 1 1285.7,455.76A2.5,2.5 0 1 1 1290.7,455.76Z" style="fill:none;stroke:#305DC5;stroke-width:0.5" />
<path d="M1495.5,482.31A2.5,2.5 0 1 1 1490.5,482.31A2.5,2.5 0 1 1 1495.5,482.31Z" style="fill:none;stroke:#305DC5;stroke-width:0.5" />
<path d="M1700.2,553A2.5,2.5 0 1 1 1695.2,553A2.5,2.5 0 1 1 1700.2,553Z" style="fill:none;stroke:#305DC5;stroke-width:0.5" />
<path d="M1905,673.96A2.5,2.5 0 1 1 1900,673.96A2.5,2.5 0 1 1 1905,673.96Z" style="fill:none;stroke:#305DC5;stroke-width:0.5" />
<path d="M1900,75.852L1920,75.852" style="fill:none;stroke:#9F90A3" />
<path d="M1912.5,75.852A2.5,2.5 0 1 1 1907.5,75.852A2.5,2.5 0 1 1 1912.5,75.852Z" style="fill:none;stroke:#9F90A3;stroke-width:0.5" />
<text x="1861.7" y="-73.364" transform="scale(1, -1)"
	style="font-family:Liberation Serif;font-variant:normal;font-weight:normal;font-style:normal;font-size:12px">std::list</text>
<path d="M1900,65.668L1920,65.668" style="fill:none;stroke:#E250C4" />
<path d="M1912.5,65.668A2.5,2.5 0 1 1 1907.5,65.668A2.5,2.5 0 1 1 1912.5,65.668Z" style="fill:none;stroke:#E250C4;stroke-width:0.5" />
<text x="1847.7" y="-63.181" transform="scale(1, -1)"
	style="font-family:Liberation Serif;font-variant:normal;font-weight:normal;font-style:normal;font-size:12px">std::deque</text>
<path d="M1900,55.484L1920,55.484" style="fill:none;stroke:#9DA7C6" />
<path d="M1912.5,55.484A2.5,2.5 0 1 1 1907.5,55.484A2.5,2.5 0 1 1 1912.5,55.484Z" style="fill:none;stroke:#9DA7C6;stroke-width:0.5" />
<text x="1846.3" y="-52.997" transform="scale(1, -1)"
	style="font-family:Liberation Serif;font-variant:normal;font-weight:normal;font-style:normal;font-size:12px">std::vector</text>
<path d="M1900,45.301L1920,45.301" style="fill:none;stroke:#305DC5" />
<path d="M1912.5,45.301A2.5,2.5 0 1 1 1907.5,45.301A2.5,2.5 0 1 1 1912.5,45.301Z" style="fill:none;stroke:#305DC5;stroke-width:0.5" />
<text x="1784.7" y="-42.813" transform="scale(1, -1)"
	style="font-family:Liberation Serif;font-variant:normal;font-weight:normal;font-style:normal;font-size:12px">preallocated std::vector</text>
</g>
</svg>
