<?xml version="1.0"?>
<!-- Generated by SVGo and Plotinum VG -->
<svg width="1920pt" height="1200pt" viewBox="0 0 1920 1200"
	xmlns="http://www.w3.org/2000/svg"
	xmlns:xlink="http://www.w3.org/1999/xlink">
<g transform="scale(1, -1) translate(0, -1200)">
<path d="M0,0L1920,0L1920,1200L0,1200Z" style="fill:#FFFFFF" />
<text x="937.34" y="-1190.6" transform="scale(1, -1)"
	style="font-family:Liberation Serif;font-variant:normal;font-weight:normal;font-style:normal;font-size:12px">pushback</text>
<text x="932.08" y="-3.9023" transform="scale(1, -1)"
	style="font-family:Liberation Serif;font-variant:normal;font-weight:normal;font-style:normal;font-size:12px">Number of elements</text>
<text x="44.635" y="-16.541" transform="scale(1, -1)"
	style="font-family:Liberation Serif;font-variant:normal;font-weight:normal;font-style:normal;font-size:10px">100000</text>
<text x="249.4" y="-16.541" transform="scale(1, -1)"
	style="font-family:Liberation Serif;font-variant:normal;font-weight:normal;font-style:normal;font-size:10px">200000</text>
<text x="454.16" y="-16.541" transform="scale(1, -1)"
	style="font-family:Liberation Serif;font-variant:normal;font-weight:normal;font-style:normal;font-size:10px">300000</text>
<text x="658.92" y="-16.541" transform="scale(1, -1)"
	style="font-family:Liberation Serif;font-variant:normal;font-weight:normal;font-style:normal;font-size:10px">400000</text>
<text x="863.69" y="-16.541" transform="scale(1, -1)"
	style="font-family:Liberation Serif;font-variant:normal;font-weight:normal;font-style:normal;font-size:10px">500000</text>
<text x="1068.4" y="-16.541" transform="scale(1, -1)"
	style="font-family:Liberation Serif;font-variant:normal;font-weight:normal;font-style:normal;font-size:10px">600000</text>
<text x="1273.2" y="-16.541" transform="scale(1, -1)"
	style="font-family:Liberation Serif;font-variant:normal;font-weight:normal;font-style:normal;font-size:10px">700000</text>
<text x="1478" y="-16.541" transform="scale(1, -1)"
	style="font-family:Liberation Serif;font-variant:normal;font-weight:normal;font-style:normal;font-size:10px">800000</text>
<text x="1682.7" y="-16.541" transform="scale(1, -1)"
	style="font-family:Liberation Serif;font-variant:normal;font-weight:normal;font-style:normal;font-size:10px">900000</text>
<text x="1885" y="-16.541" transform="scale(1, -1)"
	style="font-family:Liberation Serif;font-variant:normal;font-weight:normal;font-style:normal;font-size:10px">1000000</text>
<path d="M59.635,24.363L59.635,32.363" style="fill:none;stroke:#000000;stroke-width:0.5" />
<path d="M264.4,24.363L264.4,32.363" style="fill:none;stroke:#000000;stroke-width:0.5" />
<path d="M469.16,24.363L469.16,32.363" style="fill:none;stroke:#000000;stroke-width:0.5" />
<path d="M673.92,24.363L673.92,32.363" style="fill:none;stroke:#000000;stroke-width:0.5" />
<path d="M878.69,24.363L878.69,32.363" style="fill:none;stroke:#000000;stroke-width:0.5" />
<path d="M1083.4,24.363L1083.4,32.363" style="fill:none;stroke:#000000;stroke-width:0.5" />
<path d="M1288.2,24.363L1288.2,32.363" style="fill:none;stroke:#000000;stroke-width:0.5" />
<path d="M1493,24.363L1493,32.363" style="fill:none;stroke:#000000;stroke-width:0.5" />
<path d="M1697.7,24.363L1697.7,32.363" style="fill:none;stroke:#000000;stroke-width:0.5" />
<path d="M1902.5,24.363L1902.5,32.363" style="fill:none;stroke:#000000;stroke-width:0.5" />
<path d="M59.635,32.363L1902.5,32.363" style="fill:none;stroke:#000000;stroke-width:0.5" />
<g transform="rotate(90)">
<text x="607.91" y="9.3867" transform="scale(1, -1)"
	style="font-family:Liberation Serif;font-variant:normal;font-weight:normal;font-style:normal;font-size:12px">μs</text>
</g>
<text x="15.885" y="-214.4" transform="scale(1, -1)"
	style="font-family:Liberation Serif;font-variant:normal;font-weight:normal;font-style:normal;font-size:10px">10000</text>
<text x="15.885" y="-646.05" transform="scale(1, -1)"
	style="font-family:Liberation Serif;font-variant:normal;font-weight:normal;font-style:normal;font-size:10px">30000</text>
<text x="15.885" y="-1077.7" transform="scale(1, -1)"
	style="font-family:Liberation Serif;font-variant:normal;font-weight:normal;font-style:normal;font-size:10px">50000</text>
<path d="M43.385,216.69L51.385,216.69" style="fill:none;stroke:#000000;stroke-width:0.5" />
<path d="M43.385,648.34L51.385,648.34" style="fill:none;stroke:#000000;stroke-width:0.5" />
<path d="M43.385,1080L51.385,1080" style="fill:none;stroke:#000000;stroke-width:0.5" />
<path d="M47.385,432.51L51.385,432.51" style="fill:none;stroke:#000000;stroke-width:0.5" />
<path d="M47.385,864.16L51.385,864.16" style="fill:none;stroke:#000000;stroke-width:0.5" />
<path d="M51.385,42.709L51.385,1184.2" style="fill:none;stroke:#000000;stroke-width:0.5" />
<path d="M59.635,42.709L59.635,1184.2" style="fill:none;stroke:#808080;stroke-width:0.25" />
<path d="M264.4,42.709L264.4,1184.2" style="fill:none;stroke:#808080;stroke-width:0.25" />
<path d="M469.16,42.709L469.16,1184.2" style="fill:none;stroke:#808080;stroke-width:0.25" />
<path d="M673.92,42.709L673.92,1184.2" style="fill:none;stroke:#808080;stroke-width:0.25" />
<path d="M878.69,42.709L878.69,1184.2" style="fill:none;stroke:#808080;stroke-width:0.25" />
<path d="M1083.4,42.709L1083.4,1184.2" style="fill:none;stroke:#808080;stroke-width:0.25" />
<path d="M1288.2,42.709L1288.2,1184.2" style="fill:none;stroke:#808080;stroke-width:0.25" />
<path d="M1493,42.709L1493,1184.2" style="fill:none;stroke:#808080;stroke-width:0.25" />
<path d="M1697.7,42.709L1697.7,1184.2" style="fill:none;stroke:#808080;stroke-width:0.25" />
<path d="M1902.5,42.709L1902.5,1184.2" style="fill:none;stroke:#808080;stroke-width:0.25" />
<path d="M59.635,216.69L1902.5,216.69" style="fill:none;stroke:#808080;stroke-width:0.25" />
<path d="M59.635,648.34L1902.5,648.34" style="fill:none;stroke:#808080;stroke-width:0.25" />
<path d="M59.635,1080L1902.5,1080" style="fill:none;stroke:#808080;stroke-width:0.25" />
<path d="M59.635,46.421L264.4,102.19L469.16,171.21L673.92,242.78L878.69,313.44L1083.4,381.32L1288.2,375.36L1493,399.08L1697.7,485.93L1902.5,561.7" style="fill:none;stroke:#9F90A3" />
<path d="M62.135,46.421A2.5,2.5 0 1 1 57.135,46.421A2.5,2.5 0 1 1 62.135,46.421Z" style="fill:none;stroke:#9F90A3;stroke-width:0.5" />
<path d="M266.9,102.19A2.5,2.5 0 1 1 261.9,102.19A2.5,2.5 0 1 1 266.9,102.19Z" style="fill:none;stroke:#9F90A3;stroke-width:0.5" />
<path d="M471.66,171.21A2.5,2.5 0 1 1 466.66,171.21A2.5,2.5 0 1 1 471.66,171.21Z" style="fill:none;stroke:#9F90A3;stroke-width:0.5" />
<path d="M676.42,242.78A2.5,2.5 0 1 1 671.42,242.78A2.5,2.5 0 1 1 676.42,242.78Z" style="fill:none;stroke:#9F90A3;stroke-width:0.5" />
<path d="M881.19,313.44A2.5,2.5 0 1 1 876.19,313.44A2.5,2.5 0 1 1 881.19,313.44Z" style="fill:none;stroke:#9F90A3;stroke-width:0.5" />
<path d="M1085.9,381.32A2.5,2.5 0 1 1 1080.9,381.32A2.5,2.5 0 1 1 1085.9,381.32Z" style="fill:none;stroke:#9F90A3;stroke-width:0.5" />
<path d="M1290.7,375.36A2.5,2.5 0 1 1 1285.7,375.36A2.5,2.5 0 1 1 1290.7,375.36Z" style="fill:none;stroke:#9F90A3;stroke-width:0.5" />
<path d="M1495.5,399.08A2.5,2.5 0 1 1 1490.5,399.08A2.5,2.5 0 1 1 1495.5,399.08Z" style="fill:none;stroke:#9F90A3;stroke-width:0.5" />
<path d="M1700.2,485.93A2.5,2.5 0 1 1 1695.2,485.93A2.5,2.5 0 1 1 1700.2,485.93Z" style="fill:none;stroke:#9F90A3;stroke-width:0.5" />
<path d="M1905,561.7A2.5,2.5 0 1 1 1900,561.7A2.5,2.5 0 1 1 1905,561.7Z" style="fill:none;stroke:#9F90A3;stroke-width:0.5" />
<path d="M59.635,42.709L264.4,96.687L469.16,146.78L673.92,210.79L878.69,243.19L1083.4,302.91L1288.2,342.75L1493,395.86L1697.7,485.78L1902.5,512.35" style="fill:none;stroke:#E250C4" />
<path d="M62.135,42.709A2.5,2.5 0 1 1 57.135,42.709A2.5,2.5 0 1 1 62.135,42.709Z" style="fill:none;stroke:#E250C4;stroke-width:0.5" />
<path d="M266.9,96.687A2.5,2.5 0 1 1 261.9,96.687A2.5,2.5 0 1 1 266.9,96.687Z" style="fill:none;stroke:#E250C4;stroke-width:0.5" />
<path d="M471.66,146.78A2.5,2.5 0 1 1 466.66,146.78A2.5,2.5 0 1 1 471.66,146.78Z" style="fill:none;stroke:#E250C4;stroke-width:0.5" />
<path d="M676.42,210.79A2.5,2.5 0 1 1 671.42,210.79A2.5,2.5 0 1 1 676.42,210.79Z" style="fill:none;stroke:#E250C4;stroke-width:0.5" />
<path d="M881.19,243.19A2.5,2.5 0 1 1 876.19,243.19A2.5,2.5 0 1 1 881.19,243.19Z" style="fill:none;stroke:#E250C4;stroke-width:0.5" />
<path d="M1085.9,302.91A2.5,2.5 0 1 1 1080.9,302.91A2.5,2.5 0 1 1 1085.9,302.91Z" style="fill:none;stroke:#E250C4;stroke-width:0.5" />
<path d="M1290.7,342.75A2.5,2.5 0 1 1 1285.7,342.75A2.5,2.5 0 1 1 1290.7,342.75Z" style="fill:none;stroke:#E250C4;stroke-width:0.5" />
<path d="M1495.5,395.86A2.5,2.5 0 1 1 1490.5,395.86A2.5,2.5 0 1 1 1495.5,395.86Z" style="fill:none;stroke:#E250C4;stroke-width:0.5" />
<path d="M1700.2,485.78A2.5,2.5 0 1 1 1695.2,485.78A2.5,2.5 0 1 1 1700.2,485.78Z" style="fill:none;stroke:#E250C4;stroke-width:0.5" />
<path d="M1905,512.35A2.5,2.5 0 1 1 1900,512.35A2.5,2.5 0 1 1 1905,512.35Z" style="fill:none;stroke:#E250C4;stroke-width:0.5" />
<path d="M59.635,148.59L264.4,268.05L469.16,323.35L673.92,396.88L878.69,548.91L1083.4,617.58L1288.2,717.19L1493,839L1697.7,898.09L1902.5,1184.2" style="fill:none;stroke:#9DA7C6" />
<path d="M62.135,148.59A2.5,2.5 0 1 1 57.135,148.59A2.5,2.5 0 1 1 62.135,148.59Z" style="fill:none;stroke:#9DA7C6;stroke-width:0.5" />
<path d="M266.9,268.05A2.5,2.5 0 1 1 261.9,268.05A2.5,2.5 0 1 1 266.9,268.05Z" style="fill:none;stroke:#9DA7C6;stroke-width:0.5" />
<path d="M471.66,323.35A2.5,2.5 0 1 1 466.66,323.35A2.5,2.5 0 1 1 471.66,323.35Z" style="fill:none;stroke:#9DA7C6;stroke-width:0.5" />
<path d="M676.42,396.88A2.5,2.5 0 1 1 671.42,396.88A2.5,2.5 0 1 1 676.42,396.88Z" style="fill:none;stroke:#9DA7C6;stroke-width:0.5" />
<path d="M881.19,548.91A2.5,2.5 0 1 1 876.19,548.91A2.5,2.5 0 1 1 881.19,548.91Z" style="fill:none;stroke:#9DA7C6;stroke-width:0.5" />
<path d="M1085.9,617.58A2.5,2.5 0 1 1 1080.9,617.58A2.5,2.5 0 1 1 1085.9,617.58Z" style="fill:none;stroke:#9DA7C6;stroke-width:0.5" />
<path d="M1290.7,717.19A2.5,2.5 0 1 1 1285.7,717.19A2.5,2.5 0 1 1 1290.7,717.19Z" style="fill:none;stroke:#9DA7C6;stroke-width:0.5" />
<path d="M1495.5,839A2.5,2.5 0 1 1 1490.5,839A2.5,2.5 0 1 1 1495.5,839Z" style="fill:none;stroke:#9DA7C6;stroke-width:0.5" />
<path d="M1700.2,898.09A2.5,2.5 0 1 1 1695.2,898.09A2.5,2.5 0 1 1 1700.2,898.09Z" style="fill:none;stroke:#9DA7C6;stroke-width:0.5" />
<path d="M1905,1184.2A2.5,2.5 0 1 1 1900,1184.2A2.5,2.5 0 1 1 1905,1184.2Z" style="fill:none;stroke:#9DA7C6;stroke-width:0.5" />
<path d="M59.635,86.802L264.4,124.49L469.16,159.56L673.92,219.06L878.69,277.18L1083.4,369.62L1288.2,375.23L1493,424.87L1697.7,475.44L1902.5,535.01" style="fill:none;stroke:#305DC5" />
<path d="M62.135,86.802A2.5,2.5 0 1 1 57.135,86.802A2.5,2.5 0 1 1 62.135,86.802Z" style="fill:none;stroke:#305DC5;stroke-width:0.5" />
<path d="M266.9,124.49A2.5,2.5 0 1 1 261.9,124.49A2.5,2.5 0 1 1 266.9,124.49Z" style="fill:none;stroke:#305DC5;stroke-width:0.5" />
<path d="M471.66,159.56A2.5,2.5 0 1 1 466.66,159.56A2.5,2.5 0 1 1 471.66,159.56Z" style="fill:none;stroke:#305DC5;stroke-width:0.5" />
<path d="M676.42,219.06A2.5,2.5 0 1 1 671.42,219.06A2.5,2.5 0 1 1 676.42,219.06Z" style="fill:none;stroke:#305DC5;stroke-width:0.5" />
<path d="M881.19,277.18A2.5,2.5 0 1 1 876.19,277.18A2.5,2.5 0 1 1 881.19,277.18Z" style="fill:none;stroke:#305DC5;stroke-width:0.5" />
<path d="M1085.9,369.62A2.5,2.5 0 1 1 1080.9,369.62A2.5,2.5 0 1 1 1085.9,369.62Z" style="fill:none;stroke:#305DC5;stroke-width:0.5" />
<path d="M1290.7,375.23A2.5,2.5 0 1 1 1285.7,375.23A2.5,2.5 0 1 1 1290.7,375.23Z" style="fill:none;stroke:#305DC5;stroke-width:0.5" />
<path d="M1495.5,424.87A2.5,2.5 0 1 1 1490.5,424.87A2.5,2.5 0 1 1 1495.5,424.87Z" style="fill:none;stroke:#305DC5;stroke-width:0.5" />
<path d="M1700.2,475.44A2.5,2.5 0 1 1 1695.2,475.44A2.5,2.5 0 1 1 1700.2,475.44Z" style="fill:none;stroke:#305DC5;stroke-width:0.5" />
<path d="M1905,535.01A2.5,2.5 0 1 1 1900,535.01A2.5,2.5 0 1 1 1905,535.01Z" style="fill:none;stroke:#305DC5;stroke-width:0.5" />
<path d="M1900,75.852L1920,75.852" style="fill:none;stroke:#9F90A3" />
<path d="M1912.5,75.852A2.5,2.5 0 1 1 1907.5,75.852A2.5,2.5 0 1 1 1912.5,75.852Z" style="fill:none;stroke:#9F90A3;stroke-width:0.5" />
<text x="1846.3" y="-73.364" transform="scale(1, -1)"
	style="font-family:Liberation Serif;font-variant:normal;font-weight:normal;font-style:normal;font-size:12px">std::vector</text>
<path d="M1900,65.668L1920,65.668" style="fill:none;stroke:#E250C4" />
<path d="M1912.5,65.668A2.5,2.5 0 1 1 1907.5,65.668A2.5,2.5 0 1 1 1912.5,65.668Z" style="fill:none;stroke:#E250C4;stroke-width:0.5" />
<text x="1784.7" y="-63.181" transform="scale(1, -1)"
	style="font-family:Liberation Serif;font-variant:normal;font-weight:normal;font-style:normal;font-size:12px">preallocated std::vector</text>
<path d="M1900,55.484L1920,55.484" style="fill:none;stroke:#9DA7C6" />
<path d="M1912.5,55.484A2.5,2.5 0 1 1 1907.5,55.484A2.5,2.5 0 1 1 1912.5,55.484Z" style="fill:none;stroke:#9DA7C6;stroke-width:0.5" />
<text x="1861.7" y="-52.997" transform="scale(1, -1)"
	style="font-family:Liberation Serif;font-variant:normal;font-weight:normal;font-style:normal;font-size:12px">std::list</text>
<path d="M1900,45.301L1920,45.301" style="fill:none;stroke:#305DC5" />
<path d="M1912.5,45.301A2.5,2.5 0 1 1 1907.5,45.301A2.5,2.5 0 1 1 1912.5,45.301Z" style="fill:none;stroke:#305DC5;stroke-width:0.5" />
<text x="1847.7" y="-42.813" transform="scale(1, -1)"
	style="font-family:Liberation Serif;font-variant:normal;font-weight:normal;font-style:normal;font-size:12px">std::deque</text>
</g>
</svg>
