<?xml version="1.0"?>
<!-- Generated by SVGo and Plotinum VG -->
<svg width="1920pt" height="1080pt" viewBox="0 0 1920 1080"
	xmlns="http://www.w3.org/2000/svg"
	xmlns:xlink="http://www.w3.org/1999/xlink">
<g transform="scale(1, -1) translate(0, -1080)">
<path d="M0,0L1920,0L1920,1080L0,1080Z" style="fill:#FFFFFF" />
<text x="865.58" y="-1040.9" transform="scale(1, -1)"
	style="font-family:Liberation Serif;font-variant:normal;font-weight:normal;font-style:normal;font-size:50px">pushback</text>
<text x="881.52" y="-9.7559" transform="scale(1, -1)"
	style="font-family:Liberation Serif;font-variant:normal;font-weight:normal;font-style:normal;font-size:30px">Number of elements</text>
<text x="92.962" y="-39.727" transform="scale(1, -1)"
	style="font-family:Liberation Serif;font-variant:normal;font-weight:normal;font-style:normal;font-size:20px">100000</text>
<text x="288.74" y="-39.727" transform="scale(1, -1)"
	style="font-family:Liberation Serif;font-variant:normal;font-weight:normal;font-style:normal;font-size:20px">200000</text>
<text x="484.53" y="-39.727" transform="scale(1, -1)"
	style="font-family:Liberation Serif;font-variant:normal;font-weight:normal;font-style:normal;font-size:20px">300000</text>
<text x="680.31" y="-39.727" transform="scale(1, -1)"
	style="font-family:Liberation Serif;font-variant:normal;font-weight:normal;font-style:normal;font-size:20px">400000</text>
<text x="876.09" y="-39.727" transform="scale(1, -1)"
	style="font-family:Liberation Serif;font-variant:normal;font-weight:normal;font-style:normal;font-size:20px">500000</text>
<text x="1071.9" y="-39.727" transform="scale(1, -1)"
	style="font-family:Liberation Serif;font-variant:normal;font-weight:normal;font-style:normal;font-size:20px">600000</text>
<text x="1267.7" y="-39.727" transform="scale(1, -1)"
	style="font-family:Liberation Serif;font-variant:normal;font-weight:normal;font-style:normal;font-size:20px">700000</text>
<text x="1463.4" y="-39.727" transform="scale(1, -1)"
	style="font-family:Liberation Serif;font-variant:normal;font-weight:normal;font-style:normal;font-size:20px">800000</text>
<text x="1659.2" y="-39.727" transform="scale(1, -1)"
	style="font-family:Liberation Serif;font-variant:normal;font-weight:normal;font-style:normal;font-size:20px">900000</text>
<text x="1850" y="-39.727" transform="scale(1, -1)"
	style="font-family:Liberation Serif;font-variant:normal;font-weight:normal;font-style:normal;font-size:20px">1000000</text>
<path d="M122.96,55.371L122.96,63.371" style="fill:none;stroke:#000000;stroke-width:0.5" />
<path d="M318.74,55.371L318.74,63.371" style="fill:none;stroke:#000000;stroke-width:0.5" />
<path d="M514.53,55.371L514.53,63.371" style="fill:none;stroke:#000000;stroke-width:0.5" />
<path d="M710.31,55.371L710.31,63.371" style="fill:none;stroke:#000000;stroke-width:0.5" />
<path d="M906.09,55.371L906.09,63.371" style="fill:none;stroke:#000000;stroke-width:0.5" />
<path d="M1101.9,55.371L1101.9,63.371" style="fill:none;stroke:#000000;stroke-width:0.5" />
<path d="M1297.7,55.371L1297.7,63.371" style="fill:none;stroke:#000000;stroke-width:0.5" />
<path d="M1493.4,55.371L1493.4,63.371" style="fill:none;stroke:#000000;stroke-width:0.5" />
<path d="M1689.2,55.371L1689.2,63.371" style="fill:none;stroke:#000000;stroke-width:0.5" />
<path d="M1885,55.371L1885,63.371" style="fill:none;stroke:#000000;stroke-width:0.5" />
<path d="M122.96,63.371L1885,63.371" style="fill:none;stroke:#000000;stroke-width:0.5" />
<g transform="rotate(90)">
<text x="537.24" y="23.467" transform="scale(1, -1)"
	style="font-family:Liberation Serif;font-variant:normal;font-weight:normal;font-style:normal;font-size:30px">μs</text>
</g>
<text x="39.712" y="-254.52" transform="scale(1, -1)"
	style="font-family:Liberation Serif;font-variant:normal;font-weight:normal;font-style:normal;font-size:20px">100000</text>
<text x="39.712" y="-473.91" transform="scale(1, -1)"
	style="font-family:Liberation Serif;font-variant:normal;font-weight:normal;font-style:normal;font-size:20px">200000</text>
<text x="39.712" y="-693.29" transform="scale(1, -1)"
	style="font-family:Liberation Serif;font-variant:normal;font-weight:normal;font-style:normal;font-size:20px">300000</text>
<text x="39.712" y="-912.68" transform="scale(1, -1)"
	style="font-family:Liberation Serif;font-variant:normal;font-weight:normal;font-style:normal;font-size:20px">400000</text>
<path d="M104.71,259.09L112.71,259.09" style="fill:none;stroke:#000000;stroke-width:0.5" />
<path d="M104.71,478.48L112.71,478.48" style="fill:none;stroke:#000000;stroke-width:0.5" />
<path d="M104.71,697.86L112.71,697.86" style="fill:none;stroke:#000000;stroke-width:0.5" />
<path d="M104.71,917.25L112.71,917.25" style="fill:none;stroke:#000000;stroke-width:0.5" />
<path d="M108.71,83.582L112.71,83.582" style="fill:none;stroke:#000000;stroke-width:0.5" />
<path d="M108.71,127.46L112.71,127.46" style="fill:none;stroke:#000000;stroke-width:0.5" />
<path d="M108.71,171.34L112.71,171.34" style="fill:none;stroke:#000000;stroke-width:0.5" />
<path d="M108.71,215.21L112.71,215.21" style="fill:none;stroke:#000000;stroke-width:0.5" />
<path d="M108.71,302.97L112.71,302.97" style="fill:none;stroke:#000000;stroke-width:0.5" />
<path d="M108.71,346.84L112.71,346.84" style="fill:none;stroke:#000000;stroke-width:0.5" />
<path d="M108.71,390.72L112.71,390.72" style="fill:none;stroke:#000000;stroke-width:0.5" />
<path d="M108.71,434.6L112.71,434.6" style="fill:none;stroke:#000000;stroke-width:0.5" />
<path d="M108.71,522.35L112.71,522.35" style="fill:none;stroke:#000000;stroke-width:0.5" />
<path d="M108.71,566.23L112.71,566.23" style="fill:none;stroke:#000000;stroke-width:0.5" />
<path d="M108.71,610.11L112.71,610.11" style="fill:none;stroke:#000000;stroke-width:0.5" />
<path d="M108.71,653.98L112.71,653.98" style="fill:none;stroke:#000000;stroke-width:0.5" />
<path d="M108.71,741.74L112.71,741.74" style="fill:none;stroke:#000000;stroke-width:0.5" />
<path d="M108.71,785.62L112.71,785.62" style="fill:none;stroke:#000000;stroke-width:0.5" />
<path d="M108.71,829.49L112.71,829.49" style="fill:none;stroke:#000000;stroke-width:0.5" />
<path d="M108.71,873.37L112.71,873.37" style="fill:none;stroke:#000000;stroke-width:0.5" />
<path d="M108.71,961.12L112.71,961.12" style="fill:none;stroke:#000000;stroke-width:0.5" />
<path d="M108.71,1005L112.71,1005" style="fill:none;stroke:#000000;stroke-width:0.5" />
<path d="M112.71,77.61L112.71,1024.6" style="fill:none;stroke:#000000;stroke-width:0.5" />
<path d="M122.96,77.61L122.96,1024.6" style="fill:none;stroke:#808080;stroke-width:0.25" />
<path d="M318.74,77.61L318.74,1024.6" style="fill:none;stroke:#808080;stroke-width:0.25" />
<path d="M514.53,77.61L514.53,1024.6" style="fill:none;stroke:#808080;stroke-width:0.25" />
<path d="M710.31,77.61L710.31,1024.6" style="fill:none;stroke:#808080;stroke-width:0.25" />
<path d="M906.09,77.61L906.09,1024.6" style="fill:none;stroke:#808080;stroke-width:0.25" />
<path d="M1101.9,77.61L1101.9,1024.6" style="fill:none;stroke:#808080;stroke-width:0.25" />
<path d="M1297.7,77.61L1297.7,1024.6" style="fill:none;stroke:#808080;stroke-width:0.25" />
<path d="M1493.4,77.61L1493.4,1024.6" style="fill:none;stroke:#808080;stroke-width:0.25" />
<path d="M1689.2,77.61L1689.2,1024.6" style="fill:none;stroke:#808080;stroke-width:0.25" />
<path d="M1885,77.61L1885,1024.6" style="fill:none;stroke:#808080;stroke-width:0.25" />
<path d="M122.96,259.09L1885,259.09" style="fill:none;stroke:#808080;stroke-width:0.25" />
<path d="M122.96,478.48L1885,478.48" style="fill:none;stroke:#808080;stroke-width:0.25" />
<path d="M122.96,697.86L1885,697.86" style="fill:none;stroke:#808080;stroke-width:0.25" />
<path d="M122.96,917.25L1885,917.25" style="fill:none;stroke:#808080;stroke-width:0.25" />
<path d="M122.96,114.5L318.74,204.66L514.53,281.54L710.31,347.49L906.09,422.1L1101.9,524.06L1297.7,599.44L1493.4,684.62L1689.2,777.3L1885,892.2" style="fill:none;stroke:#FF0000" />
<path d="M125.46,114.5A2.5,2.5 0 1 1 120.46,114.5A2.5,2.5 0 1 1 125.46,114.5Z" style="fill:none;stroke:#FF0000;stroke-width:0.5" />
<path d="M321.24,204.66A2.5,2.5 0 1 1 316.24,204.66A2.5,2.5 0 1 1 321.24,204.66Z" style="fill:none;stroke:#FF0000;stroke-width:0.5" />
<path d="M517.03,281.54A2.5,2.5 0 1 1 512.03,281.54A2.5,2.5 0 1 1 517.03,281.54Z" style="fill:none;stroke:#FF0000;stroke-width:0.5" />
<path d="M712.81,347.49A2.5,2.5 0 1 1 707.81,347.49A2.5,2.5 0 1 1 712.81,347.49Z" style="fill:none;stroke:#FF0000;stroke-width:0.5" />
<path d="M908.59,422.1A2.5,2.5 0 1 1 903.59,422.1A2.5,2.5 0 1 1 908.59,422.1Z" style="fill:none;stroke:#FF0000;stroke-width:0.5" />
<path d="M1104.4,524.06A2.5,2.5 0 1 1 1099.4,524.06A2.5,2.5 0 1 1 1104.4,524.06Z" style="fill:none;stroke:#FF0000;stroke-width:0.5" />
<path d="M1300.2,599.44A2.5,2.5 0 1 1 1295.2,599.44A2.5,2.5 0 1 1 1300.2,599.44Z" style="fill:none;stroke:#FF0000;stroke-width:0.5" />
<path d="M1495.9,684.62A2.5,2.5 0 1 1 1490.9,684.62A2.5,2.5 0 1 1 1495.9,684.62Z" style="fill:none;stroke:#FF0000;stroke-width:0.5" />
<path d="M1691.7,777.3A2.5,2.5 0 1 1 1686.7,777.3A2.5,2.5 0 1 1 1691.7,777.3Z" style="fill:none;stroke:#FF0000;stroke-width:0.5" />
<path d="M1887.5,892.2A2.5,2.5 0 1 1 1882.5,892.2A2.5,2.5 0 1 1 1887.5,892.2Z" style="fill:none;stroke:#FF0000;stroke-width:0.5" />
<path d="M122.96,118.45L318.74,209.27L514.53,288.63L710.31,419.46L906.09,468.28L1101.9,546.75L1297.7,675.97L1493.4,740.24L1689.2,837.26L1885,935.09" style="fill:none;stroke:#0000FF" />
<path d="M125.46,118.45A2.5,2.5 0 1 1 120.46,118.45A2.5,2.5 0 1 1 125.46,118.45Z" style="fill:none;stroke:#0000FF;stroke-width:0.5" />
<path d="M321.24,209.27A2.5,2.5 0 1 1 316.24,209.27A2.5,2.5 0 1 1 321.24,209.27Z" style="fill:none;stroke:#0000FF;stroke-width:0.5" />
<path d="M517.03,288.63A2.5,2.5 0 1 1 512.03,288.63A2.5,2.5 0 1 1 517.03,288.63Z" style="fill:none;stroke:#0000FF;stroke-width:0.5" />
<path d="M712.81,419.46A2.5,2.5 0 1 1 707.81,419.46A2.5,2.5 0 1 1 712.81,419.46Z" style="fill:none;stroke:#0000FF;stroke-width:0.5" />
<path d="M908.59,468.28A2.5,2.5 0 1 1 903.59,468.28A2.5,2.5 0 1 1 908.59,468.28Z" style="fill:none;stroke:#0000FF;stroke-width:0.5" />
<path d="M1104.4,546.75A2.5,2.5 0 1 1 1099.4,546.75A2.5,2.5 0 1 1 1104.4,546.75Z" style="fill:none;stroke:#0000FF;stroke-width:0.5" />
<path d="M1300.2,675.97A2.5,2.5 0 1 1 1295.2,675.97A2.5,2.5 0 1 1 1300.2,675.97Z" style="fill:none;stroke:#0000FF;stroke-width:0.5" />
<path d="M1495.9,740.24A2.5,2.5 0 1 1 1490.9,740.24A2.5,2.5 0 1 1 1495.9,740.24Z" style="fill:none;stroke:#0000FF;stroke-width:0.5" />
<path d="M1691.7,837.26A2.5,2.5 0 1 1 1686.7,837.26A2.5,2.5 0 1 1 1691.7,837.26Z" style="fill:none;stroke:#0000FF;stroke-width:0.5" />
<path d="M1887.5,935.09A2.5,2.5 0 1 1 1882.5,935.09A2.5,2.5 0 1 1 1887.5,935.09Z" style="fill:none;stroke:#0000FF;stroke-width:0.5" />
<path d="M122.96,128.51L318.74,231.78L514.53,356.21L710.31,344.75L906.09,460.81L1101.9,638.92L1297.7,654.97L1493.4,687.15L1689.2,749.51L1885,752.85" style="fill:none;stroke:#00FF00" />
<path d="M125.46,128.51A2.5,2.5 0 1 1 120.46,128.51A2.5,2.5 0 1 1 125.46,128.51Z" style="fill:none;stroke:#00FF00;stroke-width:0.5" />
<path d="M321.24,231.78A2.5,2.5 0 1 1 316.24,231.78A2.5,2.5 0 1 1 321.24,231.78Z" style="fill:none;stroke:#00FF00;stroke-width:0.5" />
<path d="M517.03,356.21A2.5,2.5 0 1 1 512.03,356.21A2.5,2.5 0 1 1 517.03,356.21Z" style="fill:none;stroke:#00FF00;stroke-width:0.5" />
<path d="M712.81,344.75A2.5,2.5 0 1 1 707.81,344.75A2.5,2.5 0 1 1 712.81,344.75Z" style="fill:none;stroke:#00FF00;stroke-width:0.5" />
<path d="M908.59,460.81A2.5,2.5 0 1 1 903.59,460.81A2.5,2.5 0 1 1 908.59,460.81Z" style="fill:none;stroke:#00FF00;stroke-width:0.5" />
<path d="M1104.4,638.92A2.5,2.5 0 1 1 1099.4,638.92A2.5,2.5 0 1 1 1104.4,638.92Z" style="fill:none;stroke:#00FF00;stroke-width:0.5" />
<path d="M1300.2,654.97A2.5,2.5 0 1 1 1295.2,654.97A2.5,2.5 0 1 1 1300.2,654.97Z" style="fill:none;stroke:#00FF00;stroke-width:0.5" />
<path d="M1495.9,687.15A2.5,2.5 0 1 1 1490.9,687.15A2.5,2.5 0 1 1 1495.9,687.15Z" style="fill:none;stroke:#00FF00;stroke-width:0.5" />
<path d="M1691.7,749.51A2.5,2.5 0 1 1 1686.7,749.51A2.5,2.5 0 1 1 1691.7,749.51Z" style="fill:none;stroke:#00FF00;stroke-width:0.5" />
<path d="M1887.5,752.85A2.5,2.5 0 1 1 1882.5,752.85A2.5,2.5 0 1 1 1887.5,752.85Z" style="fill:none;stroke:#00FF00;stroke-width:0.5" />
<path d="M122.96,77.61L318.74,115.75L514.53,156.06L710.31,196.71L906.09,249.04L1101.9,265.09L1297.7,302.36L1493.4,378.45L1689.2,428.3L1885,424.14" style="fill:none;stroke:#FF8000" />
<path d="M125.46,77.61A2.5,2.5 0 1 1 120.46,77.61A2.5,2.5 0 1 1 125.46,77.61Z" style="fill:none;stroke:#FF8000;stroke-width:0.5" />
<path d="M321.24,115.75A2.5,2.5 0 1 1 316.24,115.75A2.5,2.5 0 1 1 321.24,115.75Z" style="fill:none;stroke:#FF8000;stroke-width:0.5" />
<path d="M517.03,156.06A2.5,2.5 0 1 1 512.03,156.06A2.5,2.5 0 1 1 517.03,156.06Z" style="fill:none;stroke:#FF8000;stroke-width:0.5" />
<path d="M712.81,196.71A2.5,2.5 0 1 1 707.81,196.71A2.5,2.5 0 1 1 712.81,196.71Z" style="fill:none;stroke:#FF8000;stroke-width:0.5" />
<path d="M908.59,249.04A2.5,2.5 0 1 1 903.59,249.04A2.5,2.5 0 1 1 908.59,249.04Z" style="fill:none;stroke:#FF8000;stroke-width:0.5" />
<path d="M1104.4,265.09A2.5,2.5 0 1 1 1099.4,265.09A2.5,2.5 0 1 1 1104.4,265.09Z" style="fill:none;stroke:#FF8000;stroke-width:0.5" />
<path d="M1300.2,302.36A2.5,2.5 0 1 1 1295.2,302.36A2.5,2.5 0 1 1 1300.2,302.36Z" style="fill:none;stroke:#FF8000;stroke-width:0.5" />
<path d="M1495.9,378.45A2.5,2.5 0 1 1 1490.9,378.45A2.5,2.5 0 1 1 1495.9,378.45Z" style="fill:none;stroke:#FF8000;stroke-width:0.5" />
<path d="M1691.7,428.3A2.5,2.5 0 1 1 1686.7,428.3A2.5,2.5 0 1 1 1691.7,428.3Z" style="fill:none;stroke:#FF8000;stroke-width:0.5" />
<path d="M1887.5,424.14A2.5,2.5 0 1 1 1882.5,424.14A2.5,2.5 0 1 1 1887.5,424.14Z" style="fill:none;stroke:#FF8000;stroke-width:0.5" />
<path d="M1900,146.4L1920,146.4" style="fill:none;stroke:#FF0000" />
<path d="M1912.5,146.4A2.5,2.5 0 1 1 1907.5,146.4A2.5,2.5 0 1 1 1912.5,146.4Z" style="fill:none;stroke:#FF0000;stroke-width:0.5" />
<text x="1823.3" y="-141.42" transform="scale(1, -1)"
	style="font-family:Liberation Serif;font-variant:normal;font-weight:normal;font-style:normal;font-size:24px">std::list</text>
<path d="M1900,126.03L1920,126.03" style="fill:none;stroke:#0000FF" />
<path d="M1912.5,126.03A2.5,2.5 0 1 1 1907.5,126.03A2.5,2.5 0 1 1 1912.5,126.03Z" style="fill:none;stroke:#0000FF;stroke-width:0.5" />
<text x="1795.4" y="-121.05" transform="scale(1, -1)"
	style="font-family:Liberation Serif;font-variant:normal;font-weight:normal;font-style:normal;font-size:24px">std::deque</text>
<path d="M1900,105.66L1920,105.66" style="fill:none;stroke:#00FF00" />
<path d="M1912.5,105.66A2.5,2.5 0 1 1 1907.5,105.66A2.5,2.5 0 1 1 1912.5,105.66Z" style="fill:none;stroke:#00FF00;stroke-width:0.5" />
<text x="1792.7" y="-100.69" transform="scale(1, -1)"
	style="font-family:Liberation Serif;font-variant:normal;font-weight:normal;font-style:normal;font-size:24px">std::vector</text>
<path d="M1900,85.294L1920,85.294" style="fill:none;stroke:#FF8000" />
<path d="M1912.5,85.294A2.5,2.5 0 1 1 1907.5,85.294A2.5,2.5 0 1 1 1912.5,85.294Z" style="fill:none;stroke:#FF8000;stroke-width:0.5" />
<text x="1669.4" y="-80.319" transform="scale(1, -1)"
	style="font-family:Liberation Serif;font-variant:normal;font-weight:normal;font-style:normal;font-size:24px">preallocated std::vector</text>
</g>
</svg>
