<?xml version="1.0"?>
<!-- Generated by SVGo and Plotinum VG -->
<svg width="1920pt" height="1200pt" viewBox="0 0 1920 1200"
	xmlns="http://www.w3.org/2000/svg"
	xmlns:xlink="http://www.w3.org/1999/xlink">
<g transform="scale(1, -1) translate(0, -1200)">
<path d="M0,0L1920,0L1920,1200L0,1200Z" style="fill:#FFFFFF" />
<text x="908.18" y="-1190.6" transform="scale(1, -1)"
	style="font-family:Liberation Serif;font-variant:normal;font-weight:normal;font-style:normal;font-size:12px">pushback - Log Scale</text>
<text x="922.08" y="-3.9023" transform="scale(1, -1)"
	style="font-family:Liberation Serif;font-variant:normal;font-weight:normal;font-style:normal;font-size:12px">Number of elements</text>
<text x="24.635" y="-16.541" transform="scale(1, -1)"
	style="font-family:Liberation Serif;font-variant:normal;font-weight:normal;font-style:normal;font-size:10px">100000</text>
<text x="231.62" y="-16.541" transform="scale(1, -1)"
	style="font-family:Liberation Serif;font-variant:normal;font-weight:normal;font-style:normal;font-size:10px">200000</text>
<text x="438.6" y="-16.541" transform="scale(1, -1)"
	style="font-family:Liberation Serif;font-variant:normal;font-weight:normal;font-style:normal;font-size:10px">300000</text>
<text x="645.59" y="-16.541" transform="scale(1, -1)"
	style="font-family:Liberation Serif;font-variant:normal;font-weight:normal;font-style:normal;font-size:10px">400000</text>
<text x="852.57" y="-16.541" transform="scale(1, -1)"
	style="font-family:Liberation Serif;font-variant:normal;font-weight:normal;font-style:normal;font-size:10px">500000</text>
<text x="1059.6" y="-16.541" transform="scale(1, -1)"
	style="font-family:Liberation Serif;font-variant:normal;font-weight:normal;font-style:normal;font-size:10px">600000</text>
<text x="1266.5" y="-16.541" transform="scale(1, -1)"
	style="font-family:Liberation Serif;font-variant:normal;font-weight:normal;font-style:normal;font-size:10px">700000</text>
<text x="1473.5" y="-16.541" transform="scale(1, -1)"
	style="font-family:Liberation Serif;font-variant:normal;font-weight:normal;font-style:normal;font-size:10px">800000</text>
<text x="1680.5" y="-16.541" transform="scale(1, -1)"
	style="font-family:Liberation Serif;font-variant:normal;font-weight:normal;font-style:normal;font-size:10px">900000</text>
<text x="1885" y="-16.541" transform="scale(1, -1)"
	style="font-family:Liberation Serif;font-variant:normal;font-weight:normal;font-style:normal;font-size:10px">1000000</text>
<path d="M39.635,24.363L39.635,32.363" style="fill:none;stroke:#000000;stroke-width:0.5" />
<path d="M246.62,24.363L246.62,32.363" style="fill:none;stroke:#000000;stroke-width:0.5" />
<path d="M453.6,24.363L453.6,32.363" style="fill:none;stroke:#000000;stroke-width:0.5" />
<path d="M660.59,24.363L660.59,32.363" style="fill:none;stroke:#000000;stroke-width:0.5" />
<path d="M867.57,24.363L867.57,32.363" style="fill:none;stroke:#000000;stroke-width:0.5" />
<path d="M1074.6,24.363L1074.6,32.363" style="fill:none;stroke:#000000;stroke-width:0.5" />
<path d="M1281.5,24.363L1281.5,32.363" style="fill:none;stroke:#000000;stroke-width:0.5" />
<path d="M1488.5,24.363L1488.5,32.363" style="fill:none;stroke:#000000;stroke-width:0.5" />
<path d="M1695.5,24.363L1695.5,32.363" style="fill:none;stroke:#000000;stroke-width:0.5" />
<path d="M1902.5,24.363L1902.5,32.363" style="fill:none;stroke:#000000;stroke-width:0.5" />
<path d="M39.635,32.363L1902.5,32.363" style="fill:none;stroke:#000000;stroke-width:0.5" />
<g transform="rotate(90)">
<text x="596.25" y="9.3867" transform="scale(1, -1)"
	style="font-family:Liberation Serif;font-variant:normal;font-weight:normal;font-style:normal;font-size:12px">log(μs)</text>
</g>
<text x="15.885" y="-335.29" transform="scale(1, -1)"
	style="font-family:Liberation Serif;font-variant:normal;font-weight:normal;font-style:normal;font-size:10px">5</text>
<text x="15.885" y="-1059.7" transform="scale(1, -1)"
	style="font-family:Liberation Serif;font-variant:normal;font-weight:normal;font-style:normal;font-size:10px">6</text>
<path d="M23.385,337.57L31.385,337.57" style="fill:none;stroke:#000000;stroke-width:0.5" />
<path d="M23.385,1062L31.385,1062" style="fill:none;stroke:#000000;stroke-width:0.5" />
<path d="M27.385,175.38L31.385,175.38" style="fill:none;stroke:#000000;stroke-width:0.5" />
<path d="M27.385,493.41L31.385,493.41" style="fill:none;stroke:#000000;stroke-width:0.5" />
<path d="M27.385,643.36L31.385,643.36" style="fill:none;stroke:#000000;stroke-width:0.5" />
<path d="M27.385,787.86L31.385,787.86" style="fill:none;stroke:#000000;stroke-width:0.5" />
<path d="M27.385,927.29L31.385,927.29" style="fill:none;stroke:#000000;stroke-width:0.5" />
<path d="M31.385,42.709L31.385,1184.2" style="fill:none;stroke:#000000;stroke-width:0.5" />
<path d="M39.635,42.709L39.635,1184.2" style="fill:none;stroke:#808080;stroke-width:0.25" />
<path d="M246.62,42.709L246.62,1184.2" style="fill:none;stroke:#808080;stroke-width:0.25" />
<path d="M453.6,42.709L453.6,1184.2" style="fill:none;stroke:#808080;stroke-width:0.25" />
<path d="M660.59,42.709L660.59,1184.2" style="fill:none;stroke:#808080;stroke-width:0.25" />
<path d="M867.57,42.709L867.57,1184.2" style="fill:none;stroke:#808080;stroke-width:0.25" />
<path d="M1074.6,42.709L1074.6,1184.2" style="fill:none;stroke:#808080;stroke-width:0.25" />
<path d="M1281.5,42.709L1281.5,1184.2" style="fill:none;stroke:#808080;stroke-width:0.25" />
<path d="M1488.5,42.709L1488.5,1184.2" style="fill:none;stroke:#808080;stroke-width:0.25" />
<path d="M1695.5,42.709L1695.5,1184.2" style="fill:none;stroke:#808080;stroke-width:0.25" />
<path d="M1902.5,42.709L1902.5,1184.2" style="fill:none;stroke:#808080;stroke-width:0.25" />
<path d="M39.635,337.57L1902.5,337.57" style="fill:none;stroke:#808080;stroke-width:0.25" />
<path d="M39.635,1062L1902.5,1062" style="fill:none;stroke:#808080;stroke-width:0.25" />
<path d="M39.635,396.38L246.62,643.66L453.6,759.48L660.59,861.39L867.57,923.21L1074.6,967.62L1281.5,1057.7L1488.5,1085.1L1695.5,1108.2L1902.5,1163.5" style="fill:none;stroke:#000000" />
<path d="M42.135,396.38A2.5,2.5 0 1 1 37.135,396.38A2.5,2.5 0 1 1 42.135,396.38Z" style="fill:none;stroke:#000000;stroke-width:0.5" />
<path d="M249.12,643.66A2.5,2.5 0 1 1 244.12,643.66A2.5,2.5 0 1 1 249.12,643.66Z" style="fill:none;stroke:#000000;stroke-width:0.5" />
<path d="M456.1,759.48A2.5,2.5 0 1 1 451.1,759.48A2.5,2.5 0 1 1 456.1,759.48Z" style="fill:none;stroke:#000000;stroke-width:0.5" />
<path d="M663.09,861.39A2.5,2.5 0 1 1 658.09,861.39A2.5,2.5 0 1 1 663.09,861.39Z" style="fill:none;stroke:#000000;stroke-width:0.5" />
<path d="M870.07,923.21A2.5,2.5 0 1 1 865.07,923.21A2.5,2.5 0 1 1 870.07,923.21Z" style="fill:none;stroke:#000000;stroke-width:0.5" />
<path d="M1077.1,967.62A2.5,2.5 0 1 1 1072.1,967.62A2.5,2.5 0 1 1 1077.1,967.62Z" style="fill:none;stroke:#000000;stroke-width:0.5" />
<path d="M1284,1057.7A2.5,2.5 0 1 1 1279,1057.7A2.5,2.5 0 1 1 1284,1057.7Z" style="fill:none;stroke:#000000;stroke-width:0.5" />
<path d="M1491,1085.1A2.5,2.5 0 1 1 1486,1085.1A2.5,2.5 0 1 1 1491,1085.1Z" style="fill:none;stroke:#000000;stroke-width:0.5" />
<path d="M1698,1108.2A2.5,2.5 0 1 1 1693,1108.2A2.5,2.5 0 1 1 1698,1108.2Z" style="fill:none;stroke:#000000;stroke-width:0.5" />
<path d="M1905,1163.5A2.5,2.5 0 1 1 1900,1163.5A2.5,2.5 0 1 1 1905,1163.5Z" style="fill:none;stroke:#000000;stroke-width:0.5" />
<path d="M39.635,415.94L246.62,655.89L453.6,790.25L660.59,879.31L867.57,938.53L1074.6,983.9L1281.5,1044.3L1488.5,1085.3L1695.5,1118.2L1902.5,1163" style="fill:none;stroke:#000000" />
<path d="M42.135,415.94A2.5,2.5 0 1 1 37.135,415.94A2.5,2.5 0 1 1 42.135,415.94Z" style="fill:none;stroke:#000000;stroke-width:0.5" />
<path d="M249.12,655.89A2.5,2.5 0 1 1 244.12,655.89A2.5,2.5 0 1 1 249.12,655.89Z" style="fill:none;stroke:#000000;stroke-width:0.5" />
<path d="M456.1,790.25A2.5,2.5 0 1 1 451.1,790.25A2.5,2.5 0 1 1 456.1,790.25Z" style="fill:none;stroke:#000000;stroke-width:0.5" />
<path d="M663.09,879.31A2.5,2.5 0 1 1 658.09,879.31A2.5,2.5 0 1 1 663.09,879.31Z" style="fill:none;stroke:#000000;stroke-width:0.5" />
<path d="M870.07,938.53A2.5,2.5 0 1 1 865.07,938.53A2.5,2.5 0 1 1 870.07,938.53Z" style="fill:none;stroke:#000000;stroke-width:0.5" />
<path d="M1077.1,983.9A2.5,2.5 0 1 1 1072.1,983.9A2.5,2.5 0 1 1 1077.1,983.9Z" style="fill:none;stroke:#000000;stroke-width:0.5" />
<path d="M1284,1044.3A2.5,2.5 0 1 1 1279,1044.3A2.5,2.5 0 1 1 1284,1044.3Z" style="fill:none;stroke:#000000;stroke-width:0.5" />
<path d="M1491,1085.3A2.5,2.5 0 1 1 1486,1085.3A2.5,2.5 0 1 1 1491,1085.3Z" style="fill:none;stroke:#000000;stroke-width:0.5" />
<path d="M1698,1118.2A2.5,2.5 0 1 1 1693,1118.2A2.5,2.5 0 1 1 1698,1118.2Z" style="fill:none;stroke:#000000;stroke-width:0.5" />
<path d="M1905,1163A2.5,2.5 0 1 1 1900,1163A2.5,2.5 0 1 1 1905,1163Z" style="fill:none;stroke:#000000;stroke-width:0.5" />
<path d="M39.635,424.65L246.62,644.03L453.6,873.38L660.59,861.03L867.57,891.64L1074.6,1184.2L1281.5,1136.4L1488.5,1116.9L1695.5,1152.1L1902.5,1145" style="fill:none;stroke:#000000" />
<path d="M42.135,424.65A2.5,2.5 0 1 1 37.135,424.65A2.5,2.5 0 1 1 42.135,424.65Z" style="fill:none;stroke:#000000;stroke-width:0.5" />
<path d="M249.12,644.03A2.5,2.5 0 1 1 244.12,644.03A2.5,2.5 0 1 1 249.12,644.03Z" style="fill:none;stroke:#000000;stroke-width:0.5" />
<path d="M456.1,873.38A2.5,2.5 0 1 1 451.1,873.38A2.5,2.5 0 1 1 456.1,873.38Z" style="fill:none;stroke:#000000;stroke-width:0.5" />
<path d="M663.09,861.03A2.5,2.5 0 1 1 658.09,861.03A2.5,2.5 0 1 1 663.09,861.03Z" style="fill:none;stroke:#000000;stroke-width:0.5" />
<path d="M870.07,891.64A2.5,2.5 0 1 1 865.07,891.64A2.5,2.5 0 1 1 870.07,891.64Z" style="fill:none;stroke:#000000;stroke-width:0.5" />
<path d="M1077.1,1184.2A2.5,2.5 0 1 1 1072.1,1184.2A2.5,2.5 0 1 1 1077.1,1184.2Z" style="fill:none;stroke:#000000;stroke-width:0.5" />
<path d="M1284,1136.4A2.5,2.5 0 1 1 1279,1136.4A2.5,2.5 0 1 1 1284,1136.4Z" style="fill:none;stroke:#000000;stroke-width:0.5" />
<path d="M1491,1116.9A2.5,2.5 0 1 1 1486,1116.9A2.5,2.5 0 1 1 1491,1116.9Z" style="fill:none;stroke:#000000;stroke-width:0.5" />
<path d="M1698,1152.1A2.5,2.5 0 1 1 1693,1152.1A2.5,2.5 0 1 1 1698,1152.1Z" style="fill:none;stroke:#000000;stroke-width:0.5" />
<path d="M1905,1145A2.5,2.5 0 1 1 1900,1145A2.5,2.5 0 1 1 1905,1145Z" style="fill:none;stroke:#000000;stroke-width:0.5" />
<path d="M39.635,42.709L246.62,294.6L453.6,482.72L660.59,543.32L867.57,628.41L1074.6,687.74L1281.5,736.94L1488.5,815.41L1695.5,859.39L1902.5,866.51" style="fill:none;stroke:#000000" />
<path d="M42.135,42.709A2.5,2.5 0 1 1 37.135,42.709A2.5,2.5 0 1 1 42.135,42.709Z" style="fill:none;stroke:#000000;stroke-width:0.5" />
<path d="M249.12,294.6A2.5,2.5 0 1 1 244.12,294.6A2.5,2.5 0 1 1 249.12,294.6Z" style="fill:none;stroke:#000000;stroke-width:0.5" />
<path d="M456.1,482.72A2.5,2.5 0 1 1 451.1,482.72A2.5,2.5 0 1 1 456.1,482.72Z" style="fill:none;stroke:#000000;stroke-width:0.5" />
<path d="M663.09,543.32A2.5,2.5 0 1 1 658.09,543.32A2.5,2.5 0 1 1 663.09,543.32Z" style="fill:none;stroke:#000000;stroke-width:0.5" />
<path d="M870.07,628.41A2.5,2.5 0 1 1 865.07,628.41A2.5,2.5 0 1 1 870.07,628.41Z" style="fill:none;stroke:#000000;stroke-width:0.5" />
<path d="M1077.1,687.74A2.5,2.5 0 1 1 1072.1,687.74A2.5,2.5 0 1 1 1077.1,687.74Z" style="fill:none;stroke:#000000;stroke-width:0.5" />
<path d="M1284,736.94A2.5,2.5 0 1 1 1279,736.94A2.5,2.5 0 1 1 1284,736.94Z" style="fill:none;stroke:#000000;stroke-width:0.5" />
<path d="M1491,815.41A2.5,2.5 0 1 1 1486,815.41A2.5,2.5 0 1 1 1491,815.41Z" style="fill:none;stroke:#000000;stroke-width:0.5" />
<path d="M1698,859.39A2.5,2.5 0 1 1 1693,859.39A2.5,2.5 0 1 1 1698,859.39Z" style="fill:none;stroke:#000000;stroke-width:0.5" />
<path d="M1905,866.51A2.5,2.5 0 1 1 1900,866.51A2.5,2.5 0 1 1 1905,866.51Z" style="fill:none;stroke:#000000;stroke-width:0.5" />
<path d="M1900,75.852L1920,75.852" style="fill:none;stroke:#000000" />
<path d="M1912.5,75.852A2.5,2.5 0 1 1 1907.5,75.852A2.5,2.5 0 1 1 1912.5,75.852Z" style="fill:none;stroke:#000000;stroke-width:0.5" />
<text x="1861.7" y="-73.364" transform="scale(1, -1)"
	style="font-family:Liberation Serif;font-variant:normal;font-weight:normal;font-style:normal;font-size:12px">std::list</text>
<path d="M1900,65.668L1920,65.668" style="fill:none;stroke:#000000" />
<path d="M1912.5,65.668A2.5,2.5 0 1 1 1907.5,65.668A2.5,2.5 0 1 1 1912.5,65.668Z" style="fill:none;stroke:#000000;stroke-width:0.5" />
<text x="1847.7" y="-63.181" transform="scale(1, -1)"
	style="font-family:Liberation Serif;font-variant:normal;font-weight:normal;font-style:normal;font-size:12px">std::deque</text>
<path d="M1900,55.484L1920,55.484" style="fill:none;stroke:#000000" />
<path d="M1912.5,55.484A2.5,2.5 0 1 1 1907.5,55.484A2.5,2.5 0 1 1 1912.5,55.484Z" style="fill:none;stroke:#000000;stroke-width:0.5" />
<text x="1846.3" y="-52.997" transform="scale(1, -1)"
	style="font-family:Liberation Serif;font-variant:normal;font-weight:normal;font-style:normal;font-size:12px">std::vector</text>
<path d="M1900,45.301L1920,45.301" style="fill:none;stroke:#000000" />
<path d="M1912.5,45.301A2.5,2.5 0 1 1 1907.5,45.301A2.5,2.5 0 1 1 1912.5,45.301Z" style="fill:none;stroke:#000000;stroke-width:0.5" />
<text x="1784.7" y="-42.813" transform="scale(1, -1)"
	style="font-family:Liberation Serif;font-variant:normal;font-weight:normal;font-style:normal;font-size:12px">preallocated std::vector</text>
</g>
</svg>
