<?xml version="1.0"?>
<!-- Generated by SVGo and Plotinum VG -->
<svg width="1920pt" height="1080pt" viewBox="0 0 1920 1080"
	xmlns="http://www.w3.org/2000/svg"
	xmlns:xlink="http://www.w3.org/1999/xlink">
<g transform="scale(1, -1) translate(0, -1080)">
<path d="M0,0L1920,0L1920,1080L0,1080Z" style="fill:#FFFFFF" />
<text x="865.58" y="-1040.9" transform="scale(1, -1)"
	style="font-family:Liberation Serif;font-variant:normal;font-weight:normal;font-style:normal;font-size:50px">pushback</text>
<text x="881.52" y="-9.7559" transform="scale(1, -1)"
	style="font-family:Liberation Serif;font-variant:normal;font-weight:normal;font-style:normal;font-size:30px">Number of elements</text>
<text x="92.962" y="-39.727" transform="scale(1, -1)"
	style="font-family:Liberation Serif;font-variant:normal;font-weight:normal;font-style:normal;font-size:20px">100000</text>
<text x="288.74" y="-39.727" transform="scale(1, -1)"
	style="font-family:Liberation Serif;font-variant:normal;font-weight:normal;font-style:normal;font-size:20px">200000</text>
<text x="484.53" y="-39.727" transform="scale(1, -1)"
	style="font-family:Liberation Serif;font-variant:normal;font-weight:normal;font-style:normal;font-size:20px">300000</text>
<text x="680.31" y="-39.727" transform="scale(1, -1)"
	style="font-family:Liberation Serif;font-variant:normal;font-weight:normal;font-style:normal;font-size:20px">400000</text>
<text x="876.09" y="-39.727" transform="scale(1, -1)"
	style="font-family:Liberation Serif;font-variant:normal;font-weight:normal;font-style:normal;font-size:20px">500000</text>
<text x="1071.9" y="-39.727" transform="scale(1, -1)"
	style="font-family:Liberation Serif;font-variant:normal;font-weight:normal;font-style:normal;font-size:20px">600000</text>
<text x="1267.7" y="-39.727" transform="scale(1, -1)"
	style="font-family:Liberation Serif;font-variant:normal;font-weight:normal;font-style:normal;font-size:20px">700000</text>
<text x="1463.4" y="-39.727" transform="scale(1, -1)"
	style="font-family:Liberation Serif;font-variant:normal;font-weight:normal;font-style:normal;font-size:20px">800000</text>
<text x="1659.2" y="-39.727" transform="scale(1, -1)"
	style="font-family:Liberation Serif;font-variant:normal;font-weight:normal;font-style:normal;font-size:20px">900000</text>
<text x="1850" y="-39.727" transform="scale(1, -1)"
	style="font-family:Liberation Serif;font-variant:normal;font-weight:normal;font-style:normal;font-size:20px">1000000</text>
<path d="M122.96,55.371L122.96,63.371" style="fill:none;stroke:#000000;stroke-width:0.5" />
<path d="M318.74,55.371L318.74,63.371" style="fill:none;stroke:#000000;stroke-width:0.5" />
<path d="M514.53,55.371L514.53,63.371" style="fill:none;stroke:#000000;stroke-width:0.5" />
<path d="M710.31,55.371L710.31,63.371" style="fill:none;stroke:#000000;stroke-width:0.5" />
<path d="M906.09,55.371L906.09,63.371" style="fill:none;stroke:#000000;stroke-width:0.5" />
<path d="M1101.9,55.371L1101.9,63.371" style="fill:none;stroke:#000000;stroke-width:0.5" />
<path d="M1297.7,55.371L1297.7,63.371" style="fill:none;stroke:#000000;stroke-width:0.5" />
<path d="M1493.4,55.371L1493.4,63.371" style="fill:none;stroke:#000000;stroke-width:0.5" />
<path d="M1689.2,55.371L1689.2,63.371" style="fill:none;stroke:#000000;stroke-width:0.5" />
<path d="M1885,55.371L1885,63.371" style="fill:none;stroke:#000000;stroke-width:0.5" />
<path d="M122.96,63.371L1885,63.371" style="fill:none;stroke:#000000;stroke-width:0.5" />
<g transform="rotate(90)">
<text x="537.24" y="23.467" transform="scale(1, -1)"
	style="font-family:Liberation Serif;font-variant:normal;font-weight:normal;font-style:normal;font-size:30px">μs</text>
</g>
<text x="49.712" y="-161.47" transform="scale(1, -1)"
	style="font-family:Liberation Serif;font-variant:normal;font-weight:normal;font-style:normal;font-size:20px">50000</text>
<text x="39.712" y="-561.37" transform="scale(1, -1)"
	style="font-family:Liberation Serif;font-variant:normal;font-weight:normal;font-style:normal;font-size:20px">200000</text>
<text x="39.712" y="-961.27" transform="scale(1, -1)"
	style="font-family:Liberation Serif;font-variant:normal;font-weight:normal;font-style:normal;font-size:20px">350000</text>
<path d="M104.71,166.04L112.71,166.04" style="fill:none;stroke:#000000;stroke-width:0.5" />
<path d="M104.71,565.94L112.71,565.94" style="fill:none;stroke:#000000;stroke-width:0.5" />
<path d="M104.71,965.84L112.71,965.84" style="fill:none;stroke:#000000;stroke-width:0.5" />
<path d="M108.71,365.99L112.71,365.99" style="fill:none;stroke:#000000;stroke-width:0.5" />
<path d="M108.71,765.89L112.71,765.89" style="fill:none;stroke:#000000;stroke-width:0.5" />
<path d="M112.71,77.61L112.71,1024.6" style="fill:none;stroke:#000000;stroke-width:0.5" />
<path d="M122.96,77.61L122.96,1024.6" style="fill:none;stroke:#808080;stroke-width:0.25" />
<path d="M318.74,77.61L318.74,1024.6" style="fill:none;stroke:#808080;stroke-width:0.25" />
<path d="M514.53,77.61L514.53,1024.6" style="fill:none;stroke:#808080;stroke-width:0.25" />
<path d="M710.31,77.61L710.31,1024.6" style="fill:none;stroke:#808080;stroke-width:0.25" />
<path d="M906.09,77.61L906.09,1024.6" style="fill:none;stroke:#808080;stroke-width:0.25" />
<path d="M1101.9,77.61L1101.9,1024.6" style="fill:none;stroke:#808080;stroke-width:0.25" />
<path d="M1297.7,77.61L1297.7,1024.6" style="fill:none;stroke:#808080;stroke-width:0.25" />
<path d="M1493.4,77.61L1493.4,1024.6" style="fill:none;stroke:#808080;stroke-width:0.25" />
<path d="M1689.2,77.61L1689.2,1024.6" style="fill:none;stroke:#808080;stroke-width:0.25" />
<path d="M1885,77.61L1885,1024.6" style="fill:none;stroke:#808080;stroke-width:0.25" />
<path d="M122.96,166.04L1885,166.04" style="fill:none;stroke:#808080;stroke-width:0.25" />
<path d="M122.96,565.94L1885,565.94" style="fill:none;stroke:#808080;stroke-width:0.25" />
<path d="M122.96,965.84L1885,965.84" style="fill:none;stroke:#808080;stroke-width:0.25" />
<path d="M122.96,131.41L318.74,219.8L514.53,383.09L710.31,385.46L906.09,438.75L1101.9,681.74L1297.7,735.4L1493.4,745.18L1689.2,804.8L1885,874.31" style="fill:none;stroke:#FF0000" />
<path d="M125.46,131.41A2.5,2.5 0 1 1 120.46,131.41A2.5,2.5 0 1 1 125.46,131.41Z" style="fill:none;stroke:#FF0000;stroke-width:0.5" />
<path d="M321.24,219.8A2.5,2.5 0 1 1 316.24,219.8A2.5,2.5 0 1 1 321.24,219.8Z" style="fill:none;stroke:#FF0000;stroke-width:0.5" />
<path d="M517.03,383.09A2.5,2.5 0 1 1 512.03,383.09A2.5,2.5 0 1 1 517.03,383.09Z" style="fill:none;stroke:#FF0000;stroke-width:0.5" />
<path d="M712.81,385.46A2.5,2.5 0 1 1 707.81,385.46A2.5,2.5 0 1 1 712.81,385.46Z" style="fill:none;stroke:#FF0000;stroke-width:0.5" />
<path d="M908.59,438.75A2.5,2.5 0 1 1 903.59,438.75A2.5,2.5 0 1 1 908.59,438.75Z" style="fill:none;stroke:#FF0000;stroke-width:0.5" />
<path d="M1104.4,681.74A2.5,2.5 0 1 1 1099.4,681.74A2.5,2.5 0 1 1 1104.4,681.74Z" style="fill:none;stroke:#FF0000;stroke-width:0.5" />
<path d="M1300.2,735.4A2.5,2.5 0 1 1 1295.2,735.4A2.5,2.5 0 1 1 1300.2,735.4Z" style="fill:none;stroke:#FF0000;stroke-width:0.5" />
<path d="M1495.9,745.18A2.5,2.5 0 1 1 1490.9,745.18A2.5,2.5 0 1 1 1495.9,745.18Z" style="fill:none;stroke:#FF0000;stroke-width:0.5" />
<path d="M1691.7,804.8A2.5,2.5 0 1 1 1686.7,804.8A2.5,2.5 0 1 1 1691.7,804.8Z" style="fill:none;stroke:#FF0000;stroke-width:0.5" />
<path d="M1887.5,874.31A2.5,2.5 0 1 1 1882.5,874.31A2.5,2.5 0 1 1 1887.5,874.31Z" style="fill:none;stroke:#FF0000;stroke-width:0.5" />
<path d="M122.96,77.61L318.74,120.78L514.53,164.26L710.31,209.87L906.09,254.38L1101.9,303.83L1297.7,353.28L1493.4,384.29L1689.2,444.04L1885,490.97" style="fill:none;stroke:#0000FF" />
<path d="M125.46,77.61A2.5,2.5 0 1 1 120.46,77.61A2.5,2.5 0 1 1 125.46,77.61Z" style="fill:none;stroke:#0000FF;stroke-width:0.5" />
<path d="M321.24,120.78A2.5,2.5 0 1 1 316.24,120.78A2.5,2.5 0 1 1 321.24,120.78Z" style="fill:none;stroke:#0000FF;stroke-width:0.5" />
<path d="M517.03,164.26A2.5,2.5 0 1 1 512.03,164.26A2.5,2.5 0 1 1 517.03,164.26Z" style="fill:none;stroke:#0000FF;stroke-width:0.5" />
<path d="M712.81,209.87A2.5,2.5 0 1 1 707.81,209.87A2.5,2.5 0 1 1 712.81,209.87Z" style="fill:none;stroke:#0000FF;stroke-width:0.5" />
<path d="M908.59,254.38A2.5,2.5 0 1 1 903.59,254.38A2.5,2.5 0 1 1 908.59,254.38Z" style="fill:none;stroke:#0000FF;stroke-width:0.5" />
<path d="M1104.4,303.83A2.5,2.5 0 1 1 1099.4,303.83A2.5,2.5 0 1 1 1104.4,303.83Z" style="fill:none;stroke:#0000FF;stroke-width:0.5" />
<path d="M1300.2,353.28A2.5,2.5 0 1 1 1295.2,353.28A2.5,2.5 0 1 1 1300.2,353.28Z" style="fill:none;stroke:#0000FF;stroke-width:0.5" />
<path d="M1495.9,384.29A2.5,2.5 0 1 1 1490.9,384.29A2.5,2.5 0 1 1 1495.9,384.29Z" style="fill:none;stroke:#0000FF;stroke-width:0.5" />
<path d="M1691.7,444.04A2.5,2.5 0 1 1 1686.7,444.04A2.5,2.5 0 1 1 1691.7,444.04Z" style="fill:none;stroke:#0000FF;stroke-width:0.5" />
<path d="M1887.5,490.97A2.5,2.5 0 1 1 1882.5,490.97A2.5,2.5 0 1 1 1887.5,490.97Z" style="fill:none;stroke:#0000FF;stroke-width:0.5" />
<path d="M122.96,106.7L318.74,185.03L514.53,300.62L710.31,361.99L906.09,461.45L1101.9,517.01L1297.7,634.44L1493.4,706.81L1689.2,804.2L1885,904.74" style="fill:none;stroke:#00FF00" />
<path d="M125.46,106.7A2.5,2.5 0 1 1 120.46,106.7A2.5,2.5 0 1 1 125.46,106.7Z" style="fill:none;stroke:#00FF00;stroke-width:0.5" />
<path d="M321.24,185.03A2.5,2.5 0 1 1 316.24,185.03A2.5,2.5 0 1 1 321.24,185.03Z" style="fill:none;stroke:#00FF00;stroke-width:0.5" />
<path d="M517.03,300.62A2.5,2.5 0 1 1 512.03,300.62A2.5,2.5 0 1 1 517.03,300.62Z" style="fill:none;stroke:#00FF00;stroke-width:0.5" />
<path d="M712.81,361.99A2.5,2.5 0 1 1 707.81,361.99A2.5,2.5 0 1 1 712.81,361.99Z" style="fill:none;stroke:#00FF00;stroke-width:0.5" />
<path d="M908.59,461.45A2.5,2.5 0 1 1 903.59,461.45A2.5,2.5 0 1 1 908.59,461.45Z" style="fill:none;stroke:#00FF00;stroke-width:0.5" />
<path d="M1104.4,517.01A2.5,2.5 0 1 1 1099.4,517.01A2.5,2.5 0 1 1 1104.4,517.01Z" style="fill:none;stroke:#00FF00;stroke-width:0.5" />
<path d="M1300.2,634.44A2.5,2.5 0 1 1 1295.2,634.44A2.5,2.5 0 1 1 1300.2,634.44Z" style="fill:none;stroke:#00FF00;stroke-width:0.5" />
<path d="M1495.9,706.81A2.5,2.5 0 1 1 1490.9,706.81A2.5,2.5 0 1 1 1495.9,706.81Z" style="fill:none;stroke:#00FF00;stroke-width:0.5" />
<path d="M1691.7,804.2A2.5,2.5 0 1 1 1686.7,804.2A2.5,2.5 0 1 1 1691.7,804.2Z" style="fill:none;stroke:#00FF00;stroke-width:0.5" />
<path d="M1887.5,904.74A2.5,2.5 0 1 1 1882.5,904.74A2.5,2.5 0 1 1 1887.5,904.74Z" style="fill:none;stroke:#00FF00;stroke-width:0.5" />
<path d="M122.96,124.21L318.74,203.71L514.53,333.3L710.31,397.74L906.09,467.3L1101.9,562.84L1297.7,701.04L1493.4,755.7L1689.2,863.89L1885,934.46" style="fill:none;stroke:#FF8000" />
<path d="M125.46,124.21A2.5,2.5 0 1 1 120.46,124.21A2.5,2.5 0 1 1 125.46,124.21Z" style="fill:none;stroke:#FF8000;stroke-width:0.5" />
<path d="M321.24,203.71A2.5,2.5 0 1 1 316.24,203.71A2.5,2.5 0 1 1 321.24,203.71Z" style="fill:none;stroke:#FF8000;stroke-width:0.5" />
<path d="M517.03,333.3A2.5,2.5 0 1 1 512.03,333.3A2.5,2.5 0 1 1 517.03,333.3Z" style="fill:none;stroke:#FF8000;stroke-width:0.5" />
<path d="M712.81,397.74A2.5,2.5 0 1 1 707.81,397.74A2.5,2.5 0 1 1 712.81,397.74Z" style="fill:none;stroke:#FF8000;stroke-width:0.5" />
<path d="M908.59,467.3A2.5,2.5 0 1 1 903.59,467.3A2.5,2.5 0 1 1 908.59,467.3Z" style="fill:none;stroke:#FF8000;stroke-width:0.5" />
<path d="M1104.4,562.84A2.5,2.5 0 1 1 1099.4,562.84A2.5,2.5 0 1 1 1104.4,562.84Z" style="fill:none;stroke:#FF8000;stroke-width:0.5" />
<path d="M1300.2,701.04A2.5,2.5 0 1 1 1295.2,701.04A2.5,2.5 0 1 1 1300.2,701.04Z" style="fill:none;stroke:#FF8000;stroke-width:0.5" />
<path d="M1495.9,755.7A2.5,2.5 0 1 1 1490.9,755.7A2.5,2.5 0 1 1 1495.9,755.7Z" style="fill:none;stroke:#FF8000;stroke-width:0.5" />
<path d="M1691.7,863.89A2.5,2.5 0 1 1 1686.7,863.89A2.5,2.5 0 1 1 1691.7,863.89Z" style="fill:none;stroke:#FF8000;stroke-width:0.5" />
<path d="M1887.5,934.46A2.5,2.5 0 1 1 1882.5,934.46A2.5,2.5 0 1 1 1887.5,934.46Z" style="fill:none;stroke:#FF8000;stroke-width:0.5" />
<path d="M1900,146.4L1920,146.4" style="fill:none;stroke:#FF0000" />
<path d="M1912.5,146.4A2.5,2.5 0 1 1 1907.5,146.4A2.5,2.5 0 1 1 1912.5,146.4Z" style="fill:none;stroke:#FF0000;stroke-width:0.5" />
<text x="1792.7" y="-141.42" transform="scale(1, -1)"
	style="font-family:Liberation Serif;font-variant:normal;font-weight:normal;font-style:normal;font-size:24px">std::vector</text>
<path d="M1900,126.03L1920,126.03" style="fill:none;stroke:#0000FF" />
<path d="M1912.5,126.03A2.5,2.5 0 1 1 1907.5,126.03A2.5,2.5 0 1 1 1912.5,126.03Z" style="fill:none;stroke:#0000FF;stroke-width:0.5" />
<text x="1669.4" y="-121.05" transform="scale(1, -1)"
	style="font-family:Liberation Serif;font-variant:normal;font-weight:normal;font-style:normal;font-size:24px">preallocated std::vector</text>
<path d="M1900,105.66L1920,105.66" style="fill:none;stroke:#00FF00" />
<path d="M1912.5,105.66A2.5,2.5 0 1 1 1907.5,105.66A2.5,2.5 0 1 1 1912.5,105.66Z" style="fill:none;stroke:#00FF00;stroke-width:0.5" />
<text x="1823.3" y="-100.69" transform="scale(1, -1)"
	style="font-family:Liberation Serif;font-variant:normal;font-weight:normal;font-style:normal;font-size:24px">std::list</text>
<path d="M1900,85.294L1920,85.294" style="fill:none;stroke:#FF8000" />
<path d="M1912.5,85.294A2.5,2.5 0 1 1 1907.5,85.294A2.5,2.5 0 1 1 1912.5,85.294Z" style="fill:none;stroke:#FF8000;stroke-width:0.5" />
<text x="1795.4" y="-80.319" transform="scale(1, -1)"
	style="font-family:Liberation Serif;font-variant:normal;font-weight:normal;font-style:normal;font-size:24px">std::deque</text>
</g>
</svg>
