<?xml version="1.0"?>
<!-- Generated by SVGo and Plotinum VG -->
<svg width="1920pt" height="1080pt" viewBox="0 0 1920 1080"
	xmlns="http://www.w3.org/2000/svg"
	xmlns:xlink="http://www.w3.org/1999/xlink">
<g transform="scale(1, -1) translate(0, -1080)">
<path d="M0,0L1920,0L1920,1080L0,1080Z" style="fill:#FFFFFF" />
<text x="744.09" y="-1040.9" transform="scale(1, -1)"
	style="font-family:Liberation Serif;font-variant:normal;font-weight:normal;font-style:normal;font-size:50px">pushback - Log Scale</text>
<text x="881.52" y="-9.7559" transform="scale(1, -1)"
	style="font-family:Liberation Serif;font-variant:normal;font-weight:normal;font-style:normal;font-size:30px">Number of elements</text>
<text x="92.962" y="-39.727" transform="scale(1, -1)"
	style="font-family:Liberation Serif;font-variant:normal;font-weight:normal;font-style:normal;font-size:20px">100000</text>
<text x="288.74" y="-39.727" transform="scale(1, -1)"
	style="font-family:Liberation Serif;font-variant:normal;font-weight:normal;font-style:normal;font-size:20px">200000</text>
<text x="484.53" y="-39.727" transform="scale(1, -1)"
	style="font-family:Liberation Serif;font-variant:normal;font-weight:normal;font-style:normal;font-size:20px">300000</text>
<text x="680.31" y="-39.727" transform="scale(1, -1)"
	style="font-family:Liberation Serif;font-variant:normal;font-weight:normal;font-style:normal;font-size:20px">400000</text>
<text x="876.09" y="-39.727" transform="scale(1, -1)"
	style="font-family:Liberation Serif;font-variant:normal;font-weight:normal;font-style:normal;font-size:20px">500000</text>
<text x="1071.9" y="-39.727" transform="scale(1, -1)"
	style="font-family:Liberation Serif;font-variant:normal;font-weight:normal;font-style:normal;font-size:20px">600000</text>
<text x="1267.7" y="-39.727" transform="scale(1, -1)"
	style="font-family:Liberation Serif;font-variant:normal;font-weight:normal;font-style:normal;font-size:20px">700000</text>
<text x="1463.4" y="-39.727" transform="scale(1, -1)"
	style="font-family:Liberation Serif;font-variant:normal;font-weight:normal;font-style:normal;font-size:20px">800000</text>
<text x="1659.2" y="-39.727" transform="scale(1, -1)"
	style="font-family:Liberation Serif;font-variant:normal;font-weight:normal;font-style:normal;font-size:20px">900000</text>
<text x="1850" y="-39.727" transform="scale(1, -1)"
	style="font-family:Liberation Serif;font-variant:normal;font-weight:normal;font-style:normal;font-size:20px">1000000</text>
<path d="M122.96,55.371L122.96,63.371" style="fill:none;stroke:#000000;stroke-width:0.5" />
<path d="M318.74,55.371L318.74,63.371" style="fill:none;stroke:#000000;stroke-width:0.5" />
<path d="M514.53,55.371L514.53,63.371" style="fill:none;stroke:#000000;stroke-width:0.5" />
<path d="M710.31,55.371L710.31,63.371" style="fill:none;stroke:#000000;stroke-width:0.5" />
<path d="M906.09,55.371L906.09,63.371" style="fill:none;stroke:#000000;stroke-width:0.5" />
<path d="M1101.9,55.371L1101.9,63.371" style="fill:none;stroke:#000000;stroke-width:0.5" />
<path d="M1297.7,55.371L1297.7,63.371" style="fill:none;stroke:#000000;stroke-width:0.5" />
<path d="M1493.4,55.371L1493.4,63.371" style="fill:none;stroke:#000000;stroke-width:0.5" />
<path d="M1689.2,55.371L1689.2,63.371" style="fill:none;stroke:#000000;stroke-width:0.5" />
<path d="M1885,55.371L1885,63.371" style="fill:none;stroke:#000000;stroke-width:0.5" />
<path d="M122.96,63.371L1885,63.371" style="fill:none;stroke:#000000;stroke-width:0.5" />
<g transform="rotate(90)">
<text x="504.89" y="23.467" transform="scale(1, -1)"
	style="font-family:Liberation Serif;font-variant:normal;font-weight:normal;font-style:normal;font-size:30px">log(μs)</text>
</g>
<text x="49.712" y="-538.87" transform="scale(1, -1)"
	style="font-family:Liberation Serif;font-variant:normal;font-weight:normal;font-style:normal;font-size:20px">20000</text>
<text x="49.712" y="-859.77" transform="scale(1, -1)"
	style="font-family:Liberation Serif;font-variant:normal;font-weight:normal;font-style:normal;font-size:20px">60000</text>
<text x="39.712" y="-1009" transform="scale(1, -1)"
	style="font-family:Liberation Serif;font-variant:normal;font-weight:normal;font-style:normal;font-size:20px">100000</text>
<path d="M104.71,543.44L112.71,543.44" style="fill:none;stroke:#000000;stroke-width:0.5" />
<path d="M104.71,864.34L112.71,864.34" style="fill:none;stroke:#000000;stroke-width:0.5" />
<path d="M104.71,1013.6L112.71,1013.6" style="fill:none;stroke:#000000;stroke-width:0.5" />
<path d="M108.71,340.98L112.71,340.98" style="fill:none;stroke:#000000;stroke-width:0.5" />
<path d="M108.71,661.88L112.71,661.88" style="fill:none;stroke:#000000;stroke-width:0.5" />
<path d="M108.71,745.91L112.71,745.91" style="fill:none;stroke:#000000;stroke-width:0.5" />
<path d="M108.71,811.09L112.71,811.09" style="fill:none;stroke:#000000;stroke-width:0.5" />
<path d="M108.71,909.37L112.71,909.37" style="fill:none;stroke:#000000;stroke-width:0.5" />
<path d="M108.71,948.38L112.71,948.38" style="fill:none;stroke:#000000;stroke-width:0.5" />
<path d="M108.71,982.78L112.71,982.78" style="fill:none;stroke:#000000;stroke-width:0.5" />
<path d="M112.71,77.61L112.71,1018.2" style="fill:none;stroke:#000000;stroke-width:0.5" />
<path d="M122.96,77.61L122.96,1018.2" style="fill:none;stroke:#808080;stroke-width:0.25" />
<path d="M318.74,77.61L318.74,1018.2" style="fill:none;stroke:#808080;stroke-width:0.25" />
<path d="M514.53,77.61L514.53,1018.2" style="fill:none;stroke:#808080;stroke-width:0.25" />
<path d="M710.31,77.61L710.31,1018.2" style="fill:none;stroke:#808080;stroke-width:0.25" />
<path d="M906.09,77.61L906.09,1018.2" style="fill:none;stroke:#808080;stroke-width:0.25" />
<path d="M1101.9,77.61L1101.9,1018.2" style="fill:none;stroke:#808080;stroke-width:0.25" />
<path d="M1297.7,77.61L1297.7,1018.2" style="fill:none;stroke:#808080;stroke-width:0.25" />
<path d="M1493.4,77.61L1493.4,1018.2" style="fill:none;stroke:#808080;stroke-width:0.25" />
<path d="M1689.2,77.61L1689.2,1018.2" style="fill:none;stroke:#808080;stroke-width:0.25" />
<path d="M1885,77.61L1885,1018.2" style="fill:none;stroke:#808080;stroke-width:0.25" />
<path d="M122.96,543.44L1885,543.44" style="fill:none;stroke:#808080;stroke-width:0.25" />
<path d="M122.96,864.34L1885,864.34" style="fill:none;stroke:#808080;stroke-width:0.25" />
<path d="M122.96,1013.6L1885,1013.6" style="fill:none;stroke:#808080;stroke-width:0.25" />
<path d="M122.96,263.99L318.74,410.66L514.53,533.54L710.31,612.13L906.09,681.08L1101.9,855.12L1297.7,870.11L1493.4,930.55L1689.2,957.76L1885,990.41" style="fill:none;stroke:#FF0000" />
<path d="M125.46,263.99A2.5,2.5 0 1 1 120.46,263.99A2.5,2.5 0 1 1 125.46,263.99Z" style="fill:none;stroke:#FF0000;stroke-width:0.5" />
<path d="M321.24,410.66A2.5,2.5 0 1 1 316.24,410.66A2.5,2.5 0 1 1 321.24,410.66Z" style="fill:none;stroke:#FF0000;stroke-width:0.5" />
<path d="M517.03,533.54A2.5,2.5 0 1 1 512.03,533.54A2.5,2.5 0 1 1 517.03,533.54Z" style="fill:none;stroke:#FF0000;stroke-width:0.5" />
<path d="M712.81,612.13A2.5,2.5 0 1 1 707.81,612.13A2.5,2.5 0 1 1 712.81,612.13Z" style="fill:none;stroke:#FF0000;stroke-width:0.5" />
<path d="M908.59,681.08A2.5,2.5 0 1 1 903.59,681.08A2.5,2.5 0 1 1 908.59,681.08Z" style="fill:none;stroke:#FF0000;stroke-width:0.5" />
<path d="M1104.4,855.12A2.5,2.5 0 1 1 1099.4,855.12A2.5,2.5 0 1 1 1104.4,855.12Z" style="fill:none;stroke:#FF0000;stroke-width:0.5" />
<path d="M1300.2,870.11A2.5,2.5 0 1 1 1295.2,870.11A2.5,2.5 0 1 1 1300.2,870.11Z" style="fill:none;stroke:#FF0000;stroke-width:0.5" />
<path d="M1495.9,930.55A2.5,2.5 0 1 1 1490.9,930.55A2.5,2.5 0 1 1 1495.9,930.55Z" style="fill:none;stroke:#FF0000;stroke-width:0.5" />
<path d="M1691.7,957.76A2.5,2.5 0 1 1 1686.7,957.76A2.5,2.5 0 1 1 1691.7,957.76Z" style="fill:none;stroke:#FF0000;stroke-width:0.5" />
<path d="M1887.5,990.41A2.5,2.5 0 1 1 1882.5,990.41A2.5,2.5 0 1 1 1887.5,990.41Z" style="fill:none;stroke:#FF0000;stroke-width:0.5" />
<path d="M122.96,188.14L318.74,335.7L514.53,460.15L710.31,546.63L906.09,619.28L1101.9,661.89L1297.7,759.09L1493.4,871.17L1689.2,877.16L1885,932.43" style="fill:none;stroke:#0000FF" />
<path d="M125.46,188.14A2.5,2.5 0 1 1 120.46,188.14A2.5,2.5 0 1 1 125.46,188.14Z" style="fill:none;stroke:#0000FF;stroke-width:0.5" />
<path d="M321.24,335.7A2.5,2.5 0 1 1 316.24,335.7A2.5,2.5 0 1 1 321.24,335.7Z" style="fill:none;stroke:#0000FF;stroke-width:0.5" />
<path d="M517.03,460.15A2.5,2.5 0 1 1 512.03,460.15A2.5,2.5 0 1 1 517.03,460.15Z" style="fill:none;stroke:#0000FF;stroke-width:0.5" />
<path d="M712.81,546.63A2.5,2.5 0 1 1 707.81,546.63A2.5,2.5 0 1 1 712.81,546.63Z" style="fill:none;stroke:#0000FF;stroke-width:0.5" />
<path d="M908.59,619.28A2.5,2.5 0 1 1 903.59,619.28A2.5,2.5 0 1 1 908.59,619.28Z" style="fill:none;stroke:#0000FF;stroke-width:0.5" />
<path d="M1104.4,661.89A2.5,2.5 0 1 1 1099.4,661.89A2.5,2.5 0 1 1 1104.4,661.89Z" style="fill:none;stroke:#0000FF;stroke-width:0.5" />
<path d="M1300.2,759.09A2.5,2.5 0 1 1 1295.2,759.09A2.5,2.5 0 1 1 1300.2,759.09Z" style="fill:none;stroke:#0000FF;stroke-width:0.5" />
<path d="M1495.9,871.17A2.5,2.5 0 1 1 1490.9,871.17A2.5,2.5 0 1 1 1495.9,871.17Z" style="fill:none;stroke:#0000FF;stroke-width:0.5" />
<path d="M1691.7,877.16A2.5,2.5 0 1 1 1686.7,877.16A2.5,2.5 0 1 1 1691.7,877.16Z" style="fill:none;stroke:#0000FF;stroke-width:0.5" />
<path d="M1887.5,932.43A2.5,2.5 0 1 1 1882.5,932.43A2.5,2.5 0 1 1 1887.5,932.43Z" style="fill:none;stroke:#0000FF;stroke-width:0.5" />
<path d="M122.96,143.15L318.74,354.92L514.53,510.63L710.31,560.33L906.09,620.88L1101.9,746.02L1297.7,791.21L1493.4,790.61L1689.2,802.17L1885,825.77" style="fill:none;stroke:#00FF00" />
<path d="M125.46,143.15A2.5,2.5 0 1 1 120.46,143.15A2.5,2.5 0 1 1 125.46,143.15Z" style="fill:none;stroke:#00FF00;stroke-width:0.5" />
<path d="M321.24,354.92A2.5,2.5 0 1 1 316.24,354.92A2.5,2.5 0 1 1 321.24,354.92Z" style="fill:none;stroke:#00FF00;stroke-width:0.5" />
<path d="M517.03,510.63A2.5,2.5 0 1 1 512.03,510.63A2.5,2.5 0 1 1 517.03,510.63Z" style="fill:none;stroke:#00FF00;stroke-width:0.5" />
<path d="M712.81,560.33A2.5,2.5 0 1 1 707.81,560.33A2.5,2.5 0 1 1 712.81,560.33Z" style="fill:none;stroke:#00FF00;stroke-width:0.5" />
<path d="M908.59,620.88A2.5,2.5 0 1 1 903.59,620.88A2.5,2.5 0 1 1 908.59,620.88Z" style="fill:none;stroke:#00FF00;stroke-width:0.5" />
<path d="M1104.4,746.02A2.5,2.5 0 1 1 1099.4,746.02A2.5,2.5 0 1 1 1104.4,746.02Z" style="fill:none;stroke:#00FF00;stroke-width:0.5" />
<path d="M1300.2,791.21A2.5,2.5 0 1 1 1295.2,791.21A2.5,2.5 0 1 1 1300.2,791.21Z" style="fill:none;stroke:#00FF00;stroke-width:0.5" />
<path d="M1495.9,790.61A2.5,2.5 0 1 1 1490.9,790.61A2.5,2.5 0 1 1 1495.9,790.61Z" style="fill:none;stroke:#00FF00;stroke-width:0.5" />
<path d="M1691.7,802.17A2.5,2.5 0 1 1 1686.7,802.17A2.5,2.5 0 1 1 1691.7,802.17Z" style="fill:none;stroke:#00FF00;stroke-width:0.5" />
<path d="M1887.5,825.77A2.5,2.5 0 1 1 1882.5,825.77A2.5,2.5 0 1 1 1887.5,825.77Z" style="fill:none;stroke:#00FF00;stroke-width:0.5" />
<path d="M122.96,77.61L318.74,209.34L514.53,383.55L710.31,482.31L906.09,540.27L1101.9,573.8L1297.7,619.63L1493.4,704.35L1689.2,745.67L1885,744.98" style="fill:none;stroke:#FF8000" />
<path d="M125.46,77.61A2.5,2.5 0 1 1 120.46,77.61A2.5,2.5 0 1 1 125.46,77.61Z" style="fill:none;stroke:#FF8000;stroke-width:0.5" />
<path d="M321.24,209.34A2.5,2.5 0 1 1 316.24,209.34A2.5,2.5 0 1 1 321.24,209.34Z" style="fill:none;stroke:#FF8000;stroke-width:0.5" />
<path d="M517.03,383.55A2.5,2.5 0 1 1 512.03,383.55A2.5,2.5 0 1 1 517.03,383.55Z" style="fill:none;stroke:#FF8000;stroke-width:0.5" />
<path d="M712.81,482.31A2.5,2.5 0 1 1 707.81,482.31A2.5,2.5 0 1 1 712.81,482.31Z" style="fill:none;stroke:#FF8000;stroke-width:0.5" />
<path d="M908.59,540.27A2.5,2.5 0 1 1 903.59,540.27A2.5,2.5 0 1 1 908.59,540.27Z" style="fill:none;stroke:#FF8000;stroke-width:0.5" />
<path d="M1104.4,573.8A2.5,2.5 0 1 1 1099.4,573.8A2.5,2.5 0 1 1 1104.4,573.8Z" style="fill:none;stroke:#FF8000;stroke-width:0.5" />
<path d="M1300.2,619.63A2.5,2.5 0 1 1 1295.2,619.63A2.5,2.5 0 1 1 1300.2,619.63Z" style="fill:none;stroke:#FF8000;stroke-width:0.5" />
<path d="M1495.9,704.35A2.5,2.5 0 1 1 1490.9,704.35A2.5,2.5 0 1 1 1495.9,704.35Z" style="fill:none;stroke:#FF8000;stroke-width:0.5" />
<path d="M1691.7,745.67A2.5,2.5 0 1 1 1686.7,745.67A2.5,2.5 0 1 1 1691.7,745.67Z" style="fill:none;stroke:#FF8000;stroke-width:0.5" />
<path d="M1887.5,744.98A2.5,2.5 0 1 1 1882.5,744.98A2.5,2.5 0 1 1 1887.5,744.98Z" style="fill:none;stroke:#FF8000;stroke-width:0.5" />
<path d="M1900,146.4L1920,146.4" style="fill:none;stroke:#FF0000" />
<path d="M1912.5,146.4A2.5,2.5 0 1 1 1907.5,146.4A2.5,2.5 0 1 1 1912.5,146.4Z" style="fill:none;stroke:#FF0000;stroke-width:0.5" />
<text x="1823.3" y="-141.42" transform="scale(1, -1)"
	style="font-family:Liberation Serif;font-variant:normal;font-weight:normal;font-style:normal;font-size:24px">std::list</text>
<path d="M1900,126.03L1920,126.03" style="fill:none;stroke:#0000FF" />
<path d="M1912.5,126.03A2.5,2.5 0 1 1 1907.5,126.03A2.5,2.5 0 1 1 1912.5,126.03Z" style="fill:none;stroke:#0000FF;stroke-width:0.5" />
<text x="1795.4" y="-121.05" transform="scale(1, -1)"
	style="font-family:Liberation Serif;font-variant:normal;font-weight:normal;font-style:normal;font-size:24px">std::deque</text>
<path d="M1900,105.66L1920,105.66" style="fill:none;stroke:#00FF00" />
<path d="M1912.5,105.66A2.5,2.5 0 1 1 1907.5,105.66A2.5,2.5 0 1 1 1912.5,105.66Z" style="fill:none;stroke:#00FF00;stroke-width:0.5" />
<text x="1792.7" y="-100.69" transform="scale(1, -1)"
	style="font-family:Liberation Serif;font-variant:normal;font-weight:normal;font-style:normal;font-size:24px">std::vector</text>
<path d="M1900,85.294L1920,85.294" style="fill:none;stroke:#FF8000" />
<path d="M1912.5,85.294A2.5,2.5 0 1 1 1907.5,85.294A2.5,2.5 0 1 1 1912.5,85.294Z" style="fill:none;stroke:#FF8000;stroke-width:0.5" />
<text x="1669.4" y="-80.319" transform="scale(1, -1)"
	style="font-family:Liberation Serif;font-variant:normal;font-weight:normal;font-style:normal;font-size:24px">preallocated std::vector</text>
</g>
</svg>
