<?xml version="1.0"?>
<!-- Generated by SVGo and Plotinum VG -->
<svg width="1920pt" height="1080pt" viewBox="0 0 1920 1080"
	xmlns="http://www.w3.org/2000/svg"
	xmlns:xlink="http://www.w3.org/1999/xlink">
<g transform="scale(1, -1) translate(0, -1080)">
<path d="M0,0L1920,0L1920,1080L0,1080Z" style="fill:#FFFFFF" />
<text x="865.58" y="-1040.9" transform="scale(1, -1)"
	style="font-family:Liberation Serif;font-variant:normal;font-weight:normal;font-style:normal;font-size:50px">pushback</text>
<text x="881.52" y="-9.7559" transform="scale(1, -1)"
	style="font-family:Liberation Serif;font-variant:normal;font-weight:normal;font-style:normal;font-size:30px">Number of elements</text>
<text x="92.962" y="-39.727" transform="scale(1, -1)"
	style="font-family:Liberation Serif;font-variant:normal;font-weight:normal;font-style:normal;font-size:20px">100000</text>
<text x="288.74" y="-39.727" transform="scale(1, -1)"
	style="font-family:Liberation Serif;font-variant:normal;font-weight:normal;font-style:normal;font-size:20px">200000</text>
<text x="484.53" y="-39.727" transform="scale(1, -1)"
	style="font-family:Liberation Serif;font-variant:normal;font-weight:normal;font-style:normal;font-size:20px">300000</text>
<text x="680.31" y="-39.727" transform="scale(1, -1)"
	style="font-family:Liberation Serif;font-variant:normal;font-weight:normal;font-style:normal;font-size:20px">400000</text>
<text x="876.09" y="-39.727" transform="scale(1, -1)"
	style="font-family:Liberation Serif;font-variant:normal;font-weight:normal;font-style:normal;font-size:20px">500000</text>
<text x="1071.9" y="-39.727" transform="scale(1, -1)"
	style="font-family:Liberation Serif;font-variant:normal;font-weight:normal;font-style:normal;font-size:20px">600000</text>
<text x="1267.7" y="-39.727" transform="scale(1, -1)"
	style="font-family:Liberation Serif;font-variant:normal;font-weight:normal;font-style:normal;font-size:20px">700000</text>
<text x="1463.4" y="-39.727" transform="scale(1, -1)"
	style="font-family:Liberation Serif;font-variant:normal;font-weight:normal;font-style:normal;font-size:20px">800000</text>
<text x="1659.2" y="-39.727" transform="scale(1, -1)"
	style="font-family:Liberation Serif;font-variant:normal;font-weight:normal;font-style:normal;font-size:20px">900000</text>
<text x="1850" y="-39.727" transform="scale(1, -1)"
	style="font-family:Liberation Serif;font-variant:normal;font-weight:normal;font-style:normal;font-size:20px">1000000</text>
<path d="M122.96,55.371L122.96,63.371" style="fill:none;stroke:#000000;stroke-width:0.5" />
<path d="M318.74,55.371L318.74,63.371" style="fill:none;stroke:#000000;stroke-width:0.5" />
<path d="M514.53,55.371L514.53,63.371" style="fill:none;stroke:#000000;stroke-width:0.5" />
<path d="M710.31,55.371L710.31,63.371" style="fill:none;stroke:#000000;stroke-width:0.5" />
<path d="M906.09,55.371L906.09,63.371" style="fill:none;stroke:#000000;stroke-width:0.5" />
<path d="M1101.9,55.371L1101.9,63.371" style="fill:none;stroke:#000000;stroke-width:0.5" />
<path d="M1297.7,55.371L1297.7,63.371" style="fill:none;stroke:#000000;stroke-width:0.5" />
<path d="M1493.4,55.371L1493.4,63.371" style="fill:none;stroke:#000000;stroke-width:0.5" />
<path d="M1689.2,55.371L1689.2,63.371" style="fill:none;stroke:#000000;stroke-width:0.5" />
<path d="M1885,55.371L1885,63.371" style="fill:none;stroke:#000000;stroke-width:0.5" />
<path d="M122.96,63.371L1885,63.371" style="fill:none;stroke:#000000;stroke-width:0.5" />
<g transform="rotate(90)">
<text x="537.24" y="23.467" transform="scale(1, -1)"
	style="font-family:Liberation Serif;font-variant:normal;font-weight:normal;font-style:normal;font-size:30px">μs</text>
</g>
<text x="49.712" y="-208.55" transform="scale(1, -1)"
	style="font-family:Liberation Serif;font-variant:normal;font-weight:normal;font-style:normal;font-size:20px">20000</text>
<text x="49.712" y="-539.32" transform="scale(1, -1)"
	style="font-family:Liberation Serif;font-variant:normal;font-weight:normal;font-style:normal;font-size:20px">60000</text>
<text x="39.712" y="-870.08" transform="scale(1, -1)"
	style="font-family:Liberation Serif;font-variant:normal;font-weight:normal;font-style:normal;font-size:20px">100000</text>
<path d="M104.71,213.12L112.71,213.12" style="fill:none;stroke:#000000;stroke-width:0.5" />
<path d="M104.71,543.89L112.71,543.89" style="fill:none;stroke:#000000;stroke-width:0.5" />
<path d="M104.71,874.65L112.71,874.65" style="fill:none;stroke:#000000;stroke-width:0.5" />
<path d="M108.71,130.43L112.71,130.43" style="fill:none;stroke:#000000;stroke-width:0.5" />
<path d="M108.71,295.82L112.71,295.82" style="fill:none;stroke:#000000;stroke-width:0.5" />
<path d="M108.71,378.51L112.71,378.51" style="fill:none;stroke:#000000;stroke-width:0.5" />
<path d="M108.71,461.2L112.71,461.2" style="fill:none;stroke:#000000;stroke-width:0.5" />
<path d="M108.71,626.58L112.71,626.58" style="fill:none;stroke:#000000;stroke-width:0.5" />
<path d="M108.71,709.27L112.71,709.27" style="fill:none;stroke:#000000;stroke-width:0.5" />
<path d="M108.71,791.96L112.71,791.96" style="fill:none;stroke:#000000;stroke-width:0.5" />
<path d="M108.71,957.35L112.71,957.35" style="fill:none;stroke:#000000;stroke-width:0.5" />
<path d="M112.71,77.61L112.71,1024.6" style="fill:none;stroke:#000000;stroke-width:0.5" />
<path d="M122.96,77.61L122.96,1024.6" style="fill:none;stroke:#808080;stroke-width:0.25" />
<path d="M318.74,77.61L318.74,1024.6" style="fill:none;stroke:#808080;stroke-width:0.25" />
<path d="M514.53,77.61L514.53,1024.6" style="fill:none;stroke:#808080;stroke-width:0.25" />
<path d="M710.31,77.61L710.31,1024.6" style="fill:none;stroke:#808080;stroke-width:0.25" />
<path d="M906.09,77.61L906.09,1024.6" style="fill:none;stroke:#808080;stroke-width:0.25" />
<path d="M1101.9,77.61L1101.9,1024.6" style="fill:none;stroke:#808080;stroke-width:0.25" />
<path d="M1297.7,77.61L1297.7,1024.6" style="fill:none;stroke:#808080;stroke-width:0.25" />
<path d="M1493.4,77.61L1493.4,1024.6" style="fill:none;stroke:#808080;stroke-width:0.25" />
<path d="M1689.2,77.61L1689.2,1024.6" style="fill:none;stroke:#808080;stroke-width:0.25" />
<path d="M1885,77.61L1885,1024.6" style="fill:none;stroke:#808080;stroke-width:0.25" />
<path d="M122.96,213.12L1885,213.12" style="fill:none;stroke:#808080;stroke-width:0.25" />
<path d="M122.96,543.89L1885,543.89" style="fill:none;stroke:#808080;stroke-width:0.25" />
<path d="M122.96,874.65L1885,874.65" style="fill:none;stroke:#808080;stroke-width:0.25" />
<path d="M122.96,94.479L318.74,142.23L514.53,226.44L710.31,253.18L906.09,292.27L1101.9,470.2L1297.7,486.95L1493.4,490.79L1689.2,507.31L1885,537.28" style="fill:none;stroke:#FF0000" />
<path d="M125.46,94.479A2.5,2.5 0 1 1 120.46,94.479A2.5,2.5 0 1 1 125.46,94.479Z" style="fill:none;stroke:#FF0000;stroke-width:0.5" />
<path d="M321.24,142.23A2.5,2.5 0 1 1 316.24,142.23A2.5,2.5 0 1 1 321.24,142.23Z" style="fill:none;stroke:#FF0000;stroke-width:0.5" />
<path d="M517.03,226.44A2.5,2.5 0 1 1 512.03,226.44A2.5,2.5 0 1 1 517.03,226.44Z" style="fill:none;stroke:#FF0000;stroke-width:0.5" />
<path d="M712.81,253.18A2.5,2.5 0 1 1 707.81,253.18A2.5,2.5 0 1 1 712.81,253.18Z" style="fill:none;stroke:#FF0000;stroke-width:0.5" />
<path d="M908.59,292.27A2.5,2.5 0 1 1 903.59,292.27A2.5,2.5 0 1 1 908.59,292.27Z" style="fill:none;stroke:#FF0000;stroke-width:0.5" />
<path d="M1104.4,470.2A2.5,2.5 0 1 1 1099.4,470.2A2.5,2.5 0 1 1 1104.4,470.2Z" style="fill:none;stroke:#FF0000;stroke-width:0.5" />
<path d="M1300.2,486.95A2.5,2.5 0 1 1 1295.2,486.95A2.5,2.5 0 1 1 1300.2,486.95Z" style="fill:none;stroke:#FF0000;stroke-width:0.5" />
<path d="M1495.9,490.79A2.5,2.5 0 1 1 1490.9,490.79A2.5,2.5 0 1 1 1495.9,490.79Z" style="fill:none;stroke:#FF0000;stroke-width:0.5" />
<path d="M1691.7,507.31A2.5,2.5 0 1 1 1686.7,507.31A2.5,2.5 0 1 1 1691.7,507.31Z" style="fill:none;stroke:#FF0000;stroke-width:0.5" />
<path d="M1887.5,537.28A2.5,2.5 0 1 1 1882.5,537.28A2.5,2.5 0 1 1 1887.5,537.28Z" style="fill:none;stroke:#FF0000;stroke-width:0.5" />
<path d="M122.96,77.61L318.74,122.21L514.53,156.98L710.31,237.73L906.09,231.87L1101.9,267.92L1297.7,291.97L1493.4,343.44L1689.2,382.35L1885,398.61" style="fill:none;stroke:#0000FF" />
<path d="M125.46,77.61A2.5,2.5 0 1 1 120.46,77.61A2.5,2.5 0 1 1 125.46,77.61Z" style="fill:none;stroke:#0000FF;stroke-width:0.5" />
<path d="M321.24,122.21A2.5,2.5 0 1 1 316.24,122.21A2.5,2.5 0 1 1 321.24,122.21Z" style="fill:none;stroke:#0000FF;stroke-width:0.5" />
<path d="M517.03,156.98A2.5,2.5 0 1 1 512.03,156.98A2.5,2.5 0 1 1 517.03,156.98Z" style="fill:none;stroke:#0000FF;stroke-width:0.5" />
<path d="M712.81,237.73A2.5,2.5 0 1 1 707.81,237.73A2.5,2.5 0 1 1 712.81,237.73Z" style="fill:none;stroke:#0000FF;stroke-width:0.5" />
<path d="M908.59,231.87A2.5,2.5 0 1 1 903.59,231.87A2.5,2.5 0 1 1 908.59,231.87Z" style="fill:none;stroke:#0000FF;stroke-width:0.5" />
<path d="M1104.4,267.92A2.5,2.5 0 1 1 1099.4,267.92A2.5,2.5 0 1 1 1104.4,267.92Z" style="fill:none;stroke:#0000FF;stroke-width:0.5" />
<path d="M1300.2,291.97A2.5,2.5 0 1 1 1295.2,291.97A2.5,2.5 0 1 1 1300.2,291.97Z" style="fill:none;stroke:#0000FF;stroke-width:0.5" />
<path d="M1495.9,343.44A2.5,2.5 0 1 1 1490.9,343.44A2.5,2.5 0 1 1 1495.9,343.44Z" style="fill:none;stroke:#0000FF;stroke-width:0.5" />
<path d="M1691.7,382.35A2.5,2.5 0 1 1 1686.7,382.35A2.5,2.5 0 1 1 1691.7,382.35Z" style="fill:none;stroke:#0000FF;stroke-width:0.5" />
<path d="M1887.5,398.61A2.5,2.5 0 1 1 1882.5,398.61A2.5,2.5 0 1 1 1887.5,398.61Z" style="fill:none;stroke:#0000FF;stroke-width:0.5" />
<path d="M122.96,112.93L318.74,172.63L514.53,223.41L710.31,291.15L906.09,346.31L1101.9,554.12L1297.7,603.63L1493.4,738.88L1689.2,852.29L1885,935.82" style="fill:none;stroke:#00FF00" />
<path d="M125.46,112.93A2.5,2.5 0 1 1 120.46,112.93A2.5,2.5 0 1 1 125.46,112.93Z" style="fill:none;stroke:#00FF00;stroke-width:0.5" />
<path d="M321.24,172.63A2.5,2.5 0 1 1 316.24,172.63A2.5,2.5 0 1 1 321.24,172.63Z" style="fill:none;stroke:#00FF00;stroke-width:0.5" />
<path d="M517.03,223.41A2.5,2.5 0 1 1 512.03,223.41A2.5,2.5 0 1 1 517.03,223.41Z" style="fill:none;stroke:#00FF00;stroke-width:0.5" />
<path d="M712.81,291.15A2.5,2.5 0 1 1 707.81,291.15A2.5,2.5 0 1 1 712.81,291.15Z" style="fill:none;stroke:#00FF00;stroke-width:0.5" />
<path d="M908.59,346.31A2.5,2.5 0 1 1 903.59,346.31A2.5,2.5 0 1 1 908.59,346.31Z" style="fill:none;stroke:#00FF00;stroke-width:0.5" />
<path d="M1104.4,554.12A2.5,2.5 0 1 1 1099.4,554.12A2.5,2.5 0 1 1 1104.4,554.12Z" style="fill:none;stroke:#00FF00;stroke-width:0.5" />
<path d="M1300.2,603.63A2.5,2.5 0 1 1 1295.2,603.63A2.5,2.5 0 1 1 1300.2,603.63Z" style="fill:none;stroke:#00FF00;stroke-width:0.5" />
<path d="M1495.9,738.88A2.5,2.5 0 1 1 1490.9,738.88A2.5,2.5 0 1 1 1495.9,738.88Z" style="fill:none;stroke:#00FF00;stroke-width:0.5" />
<path d="M1691.7,852.29A2.5,2.5 0 1 1 1686.7,852.29A2.5,2.5 0 1 1 1691.7,852.29Z" style="fill:none;stroke:#00FF00;stroke-width:0.5" />
<path d="M1887.5,935.82A2.5,2.5 0 1 1 1882.5,935.82A2.5,2.5 0 1 1 1887.5,935.82Z" style="fill:none;stroke:#00FF00;stroke-width:0.5" />
<path d="M122.96,93.785L318.74,139.5L514.53,192.73L710.31,235.45L906.09,287.41L1101.9,333.67L1297.7,376.28L1493.4,548.53L1689.2,635.15L1885,797.94" style="fill:none;stroke:#FF8000" />
<path d="M125.46,93.785A2.5,2.5 0 1 1 120.46,93.785A2.5,2.5 0 1 1 125.46,93.785Z" style="fill:none;stroke:#FF8000;stroke-width:0.5" />
<path d="M321.24,139.5A2.5,2.5 0 1 1 316.24,139.5A2.5,2.5 0 1 1 321.24,139.5Z" style="fill:none;stroke:#FF8000;stroke-width:0.5" />
<path d="M517.03,192.73A2.5,2.5 0 1 1 512.03,192.73A2.5,2.5 0 1 1 517.03,192.73Z" style="fill:none;stroke:#FF8000;stroke-width:0.5" />
<path d="M712.81,235.45A2.5,2.5 0 1 1 707.81,235.45A2.5,2.5 0 1 1 712.81,235.45Z" style="fill:none;stroke:#FF8000;stroke-width:0.5" />
<path d="M908.59,287.41A2.5,2.5 0 1 1 903.59,287.41A2.5,2.5 0 1 1 908.59,287.41Z" style="fill:none;stroke:#FF8000;stroke-width:0.5" />
<path d="M1104.4,333.67A2.5,2.5 0 1 1 1099.4,333.67A2.5,2.5 0 1 1 1104.4,333.67Z" style="fill:none;stroke:#FF8000;stroke-width:0.5" />
<path d="M1300.2,376.28A2.5,2.5 0 1 1 1295.2,376.28A2.5,2.5 0 1 1 1300.2,376.28Z" style="fill:none;stroke:#FF8000;stroke-width:0.5" />
<path d="M1495.9,548.53A2.5,2.5 0 1 1 1490.9,548.53A2.5,2.5 0 1 1 1495.9,548.53Z" style="fill:none;stroke:#FF8000;stroke-width:0.5" />
<path d="M1691.7,635.15A2.5,2.5 0 1 1 1686.7,635.15A2.5,2.5 0 1 1 1691.7,635.15Z" style="fill:none;stroke:#FF8000;stroke-width:0.5" />
<path d="M1887.5,797.94A2.5,2.5 0 1 1 1882.5,797.94A2.5,2.5 0 1 1 1887.5,797.94Z" style="fill:none;stroke:#FF8000;stroke-width:0.5" />
<path d="M1900,146.4L1920,146.4" style="fill:none;stroke:#FF0000" />
<path d="M1912.5,146.4A2.5,2.5 0 1 1 1907.5,146.4A2.5,2.5 0 1 1 1912.5,146.4Z" style="fill:none;stroke:#FF0000;stroke-width:0.5" />
<text x="1792.7" y="-141.42" transform="scale(1, -1)"
	style="font-family:Liberation Serif;font-variant:normal;font-weight:normal;font-style:normal;font-size:24px">std::vector</text>
<path d="M1900,126.03L1920,126.03" style="fill:none;stroke:#0000FF" />
<path d="M1912.5,126.03A2.5,2.5 0 1 1 1907.5,126.03A2.5,2.5 0 1 1 1912.5,126.03Z" style="fill:none;stroke:#0000FF;stroke-width:0.5" />
<text x="1669.4" y="-121.05" transform="scale(1, -1)"
	style="font-family:Liberation Serif;font-variant:normal;font-weight:normal;font-style:normal;font-size:24px">preallocated std::vector</text>
<path d="M1900,105.66L1920,105.66" style="fill:none;stroke:#00FF00" />
<path d="M1912.5,105.66A2.5,2.5 0 1 1 1907.5,105.66A2.5,2.5 0 1 1 1912.5,105.66Z" style="fill:none;stroke:#00FF00;stroke-width:0.5" />
<text x="1823.3" y="-100.69" transform="scale(1, -1)"
	style="font-family:Liberation Serif;font-variant:normal;font-weight:normal;font-style:normal;font-size:24px">std::list</text>
<path d="M1900,85.294L1920,85.294" style="fill:none;stroke:#FF8000" />
<path d="M1912.5,85.294A2.5,2.5 0 1 1 1907.5,85.294A2.5,2.5 0 1 1 1912.5,85.294Z" style="fill:none;stroke:#FF8000;stroke-width:0.5" />
<text x="1795.4" y="-80.319" transform="scale(1, -1)"
	style="font-family:Liberation Serif;font-variant:normal;font-weight:normal;font-style:normal;font-size:24px">std::deque</text>
</g>
</svg>
