<?xml version="1.0"?>
<!-- Generated by SVGo and Plotinum VG -->
<svg width="1920pt" height="1080pt" viewBox="0 0 1920 1080"
	xmlns="http://www.w3.org/2000/svg"
	xmlns:xlink="http://www.w3.org/1999/xlink">
<g transform="scale(1, -1) translate(0, -1080)">
<path d="M0,0L1920,0L1920,1080L0,1080Z" style="fill:#FFFFFF" />
<text x="865.58" y="-1040.9" transform="scale(1, -1)"
	style="font-family:Liberation Serif;font-variant:normal;font-weight:normal;font-style:normal;font-size:50px">pushback</text>
<text x="876.52" y="-9.7559" transform="scale(1, -1)"
	style="font-family:Liberation Serif;font-variant:normal;font-weight:normal;font-style:normal;font-size:30px">Number of elements</text>
<text x="82.962" y="-39.727" transform="scale(1, -1)"
	style="font-family:Liberation Serif;font-variant:normal;font-weight:normal;font-style:normal;font-size:20px">100000</text>
<text x="279.86" y="-39.727" transform="scale(1, -1)"
	style="font-family:Liberation Serif;font-variant:normal;font-weight:normal;font-style:normal;font-size:20px">200000</text>
<text x="476.75" y="-39.727" transform="scale(1, -1)"
	style="font-family:Liberation Serif;font-variant:normal;font-weight:normal;font-style:normal;font-size:20px">300000</text>
<text x="673.64" y="-39.727" transform="scale(1, -1)"
	style="font-family:Liberation Serif;font-variant:normal;font-weight:normal;font-style:normal;font-size:20px">400000</text>
<text x="870.53" y="-39.727" transform="scale(1, -1)"
	style="font-family:Liberation Serif;font-variant:normal;font-weight:normal;font-style:normal;font-size:20px">500000</text>
<text x="1067.4" y="-39.727" transform="scale(1, -1)"
	style="font-family:Liberation Serif;font-variant:normal;font-weight:normal;font-style:normal;font-size:20px">600000</text>
<text x="1264.3" y="-39.727" transform="scale(1, -1)"
	style="font-family:Liberation Serif;font-variant:normal;font-weight:normal;font-style:normal;font-size:20px">700000</text>
<text x="1461.2" y="-39.727" transform="scale(1, -1)"
	style="font-family:Liberation Serif;font-variant:normal;font-weight:normal;font-style:normal;font-size:20px">800000</text>
<text x="1658.1" y="-39.727" transform="scale(1, -1)"
	style="font-family:Liberation Serif;font-variant:normal;font-weight:normal;font-style:normal;font-size:20px">900000</text>
<text x="1850" y="-39.727" transform="scale(1, -1)"
	style="font-family:Liberation Serif;font-variant:normal;font-weight:normal;font-style:normal;font-size:20px">1000000</text>
<path d="M112.96,55.371L112.96,63.371" style="fill:none;stroke:#000000;stroke-width:0.5" />
<path d="M309.86,55.371L309.86,63.371" style="fill:none;stroke:#000000;stroke-width:0.5" />
<path d="M506.75,55.371L506.75,63.371" style="fill:none;stroke:#000000;stroke-width:0.5" />
<path d="M703.64,55.371L703.64,63.371" style="fill:none;stroke:#000000;stroke-width:0.5" />
<path d="M900.53,55.371L900.53,63.371" style="fill:none;stroke:#000000;stroke-width:0.5" />
<path d="M1097.4,55.371L1097.4,63.371" style="fill:none;stroke:#000000;stroke-width:0.5" />
<path d="M1294.3,55.371L1294.3,63.371" style="fill:none;stroke:#000000;stroke-width:0.5" />
<path d="M1491.2,55.371L1491.2,63.371" style="fill:none;stroke:#000000;stroke-width:0.5" />
<path d="M1688.1,55.371L1688.1,63.371" style="fill:none;stroke:#000000;stroke-width:0.5" />
<path d="M1885,55.371L1885,63.371" style="fill:none;stroke:#000000;stroke-width:0.5" />
<path d="M112.96,63.371L1885,63.371" style="fill:none;stroke:#000000;stroke-width:0.5" />
<g transform="rotate(90)">
<text x="537.24" y="23.467" transform="scale(1, -1)"
	style="font-family:Liberation Serif;font-variant:normal;font-weight:normal;font-style:normal;font-size:30px">μs</text>
</g>
<text x="39.712" y="-201.48" transform="scale(1, -1)"
	style="font-family:Liberation Serif;font-variant:normal;font-weight:normal;font-style:normal;font-size:20px">10000</text>
<text x="39.712" y="-548.37" transform="scale(1, -1)"
	style="font-family:Liberation Serif;font-variant:normal;font-weight:normal;font-style:normal;font-size:20px">30000</text>
<text x="39.712" y="-895.27" transform="scale(1, -1)"
	style="font-family:Liberation Serif;font-variant:normal;font-weight:normal;font-style:normal;font-size:20px">50000</text>
<path d="M94.712,206.05L102.71,206.05" style="fill:none;stroke:#000000;stroke-width:0.5" />
<path d="M94.712,552.95L102.71,552.95" style="fill:none;stroke:#000000;stroke-width:0.5" />
<path d="M94.712,899.84L102.71,899.84" style="fill:none;stroke:#000000;stroke-width:0.5" />
<path d="M98.712,379.5L102.71,379.5" style="fill:none;stroke:#000000;stroke-width:0.5" />
<path d="M98.712,726.39L102.71,726.39" style="fill:none;stroke:#000000;stroke-width:0.5" />
<path d="M102.71,77.61L102.71,1024.6" style="fill:none;stroke:#000000;stroke-width:0.5" />
<path d="M112.96,77.61L112.96,1024.6" style="fill:none;stroke:#808080;stroke-width:0.25" />
<path d="M309.86,77.61L309.86,1024.6" style="fill:none;stroke:#808080;stroke-width:0.25" />
<path d="M506.75,77.61L506.75,1024.6" style="fill:none;stroke:#808080;stroke-width:0.25" />
<path d="M703.64,77.61L703.64,1024.6" style="fill:none;stroke:#808080;stroke-width:0.25" />
<path d="M900.53,77.61L900.53,1024.6" style="fill:none;stroke:#808080;stroke-width:0.25" />
<path d="M1097.4,77.61L1097.4,1024.6" style="fill:none;stroke:#808080;stroke-width:0.25" />
<path d="M1294.3,77.61L1294.3,1024.6" style="fill:none;stroke:#808080;stroke-width:0.25" />
<path d="M1491.2,77.61L1491.2,1024.6" style="fill:none;stroke:#808080;stroke-width:0.25" />
<path d="M1688.1,77.61L1688.1,1024.6" style="fill:none;stroke:#808080;stroke-width:0.25" />
<path d="M1885,77.61L1885,1024.6" style="fill:none;stroke:#808080;stroke-width:0.25" />
<path d="M112.96,206.05L1885,206.05" style="fill:none;stroke:#808080;stroke-width:0.25" />
<path d="M112.96,552.95L1885,552.95" style="fill:none;stroke:#808080;stroke-width:0.25" />
<path d="M112.96,899.84L1885,899.84" style="fill:none;stroke:#808080;stroke-width:0.25" />
<path d="M112.96,134.29L309.86,133.11L506.75,190.23L703.64,336.05L900.53,435.02L1097.4,400.88L1294.3,509.7L1491.2,729.43L1688.1,648.03L1885,836.67" style="fill:none;stroke:#FF0000" />
<path d="M115.46,134.29A2.5,2.5 0 1 1 110.46,134.29A2.5,2.5 0 1 1 115.46,134.29Z" style="fill:none;stroke:#FF0000;stroke-width:0.5" />
<path d="M312.36,133.11A2.5,2.5 0 1 1 307.36,133.11A2.5,2.5 0 1 1 312.36,133.11Z" style="fill:none;stroke:#FF0000;stroke-width:0.5" />
<path d="M509.25,190.23A2.5,2.5 0 1 1 504.25,190.23A2.5,2.5 0 1 1 509.25,190.23Z" style="fill:none;stroke:#FF0000;stroke-width:0.5" />
<path d="M706.14,336.05A2.5,2.5 0 1 1 701.14,336.05A2.5,2.5 0 1 1 706.14,336.05Z" style="fill:none;stroke:#FF0000;stroke-width:0.5" />
<path d="M903.03,435.02A2.5,2.5 0 1 1 898.03,435.02A2.5,2.5 0 1 1 903.03,435.02Z" style="fill:none;stroke:#FF0000;stroke-width:0.5" />
<path d="M1099.9,400.88A2.5,2.5 0 1 1 1094.9,400.88A2.5,2.5 0 1 1 1099.9,400.88Z" style="fill:none;stroke:#FF0000;stroke-width:0.5" />
<path d="M1296.8,509.7A2.5,2.5 0 1 1 1291.8,509.7A2.5,2.5 0 1 1 1296.8,509.7Z" style="fill:none;stroke:#FF0000;stroke-width:0.5" />
<path d="M1493.7,729.43A2.5,2.5 0 1 1 1488.7,729.43A2.5,2.5 0 1 1 1493.7,729.43Z" style="fill:none;stroke:#FF0000;stroke-width:0.5" />
<path d="M1690.6,648.03A2.5,2.5 0 1 1 1685.6,648.03A2.5,2.5 0 1 1 1690.6,648.03Z" style="fill:none;stroke:#FF0000;stroke-width:0.5" />
<path d="M1887.5,836.67A2.5,2.5 0 1 1 1882.5,836.67A2.5,2.5 0 1 1 1887.5,836.67Z" style="fill:none;stroke:#FF0000;stroke-width:0.5" />
<path d="M112.96,91.868L309.86,164.32L506.75,262.38L703.64,305.8L900.53,381.39L1097.4,495.15L1294.3,482.46L1491.2,534.51L1688.1,564.53L1885,620.02" style="fill:none;stroke:#0000FF" />
<path d="M115.46,91.868A2.5,2.5 0 1 1 110.46,91.868A2.5,2.5 0 1 1 115.46,91.868Z" style="fill:none;stroke:#0000FF;stroke-width:0.5" />
<path d="M312.36,164.32A2.5,2.5 0 1 1 307.36,164.32A2.5,2.5 0 1 1 312.36,164.32Z" style="fill:none;stroke:#0000FF;stroke-width:0.5" />
<path d="M509.25,262.38A2.5,2.5 0 1 1 504.25,262.38A2.5,2.5 0 1 1 509.25,262.38Z" style="fill:none;stroke:#0000FF;stroke-width:0.5" />
<path d="M706.14,305.8A2.5,2.5 0 1 1 701.14,305.8A2.5,2.5 0 1 1 706.14,305.8Z" style="fill:none;stroke:#0000FF;stroke-width:0.5" />
<path d="M903.03,381.39A2.5,2.5 0 1 1 898.03,381.39A2.5,2.5 0 1 1 903.03,381.39Z" style="fill:none;stroke:#0000FF;stroke-width:0.5" />
<path d="M1099.9,495.15A2.5,2.5 0 1 1 1094.9,495.15A2.5,2.5 0 1 1 1099.9,495.15Z" style="fill:none;stroke:#0000FF;stroke-width:0.5" />
<path d="M1296.8,482.46A2.5,2.5 0 1 1 1291.8,482.46A2.5,2.5 0 1 1 1296.8,482.46Z" style="fill:none;stroke:#0000FF;stroke-width:0.5" />
<path d="M1493.7,534.51A2.5,2.5 0 1 1 1488.7,534.51A2.5,2.5 0 1 1 1493.7,534.51Z" style="fill:none;stroke:#0000FF;stroke-width:0.5" />
<path d="M1690.6,564.53A2.5,2.5 0 1 1 1685.6,564.53A2.5,2.5 0 1 1 1690.6,564.53Z" style="fill:none;stroke:#0000FF;stroke-width:0.5" />
<path d="M1887.5,620.02A2.5,2.5 0 1 1 1882.5,620.02A2.5,2.5 0 1 1 1887.5,620.02Z" style="fill:none;stroke:#0000FF;stroke-width:0.5" />
<path d="M112.96,77.61L309.86,118.6L506.75,169.23L703.64,237.55L900.53,292.84L1097.4,340.54L1294.3,361.63L1491.2,402.17L1688.1,453.35L1885,537.92" style="fill:none;stroke:#00FF00" />
<path d="M115.46,77.61A2.5,2.5 0 1 1 110.46,77.61A2.5,2.5 0 1 1 115.46,77.61Z" style="fill:none;stroke:#00FF00;stroke-width:0.5" />
<path d="M312.36,118.6A2.5,2.5 0 1 1 307.36,118.6A2.5,2.5 0 1 1 312.36,118.6Z" style="fill:none;stroke:#00FF00;stroke-width:0.5" />
<path d="M509.25,169.23A2.5,2.5 0 1 1 504.25,169.23A2.5,2.5 0 1 1 509.25,169.23Z" style="fill:none;stroke:#00FF00;stroke-width:0.5" />
<path d="M706.14,237.55A2.5,2.5 0 1 1 701.14,237.55A2.5,2.5 0 1 1 706.14,237.55Z" style="fill:none;stroke:#00FF00;stroke-width:0.5" />
<path d="M903.03,292.84A2.5,2.5 0 1 1 898.03,292.84A2.5,2.5 0 1 1 903.03,292.84Z" style="fill:none;stroke:#00FF00;stroke-width:0.5" />
<path d="M1099.9,340.54A2.5,2.5 0 1 1 1094.9,340.54A2.5,2.5 0 1 1 1099.9,340.54Z" style="fill:none;stroke:#00FF00;stroke-width:0.5" />
<path d="M1296.8,361.63A2.5,2.5 0 1 1 1291.8,361.63A2.5,2.5 0 1 1 1296.8,361.63Z" style="fill:none;stroke:#00FF00;stroke-width:0.5" />
<path d="M1493.7,402.17A2.5,2.5 0 1 1 1488.7,402.17A2.5,2.5 0 1 1 1493.7,402.17Z" style="fill:none;stroke:#00FF00;stroke-width:0.5" />
<path d="M1690.6,453.35A2.5,2.5 0 1 1 1685.6,453.35A2.5,2.5 0 1 1 1690.6,453.35Z" style="fill:none;stroke:#00FF00;stroke-width:0.5" />
<path d="M1887.5,537.92A2.5,2.5 0 1 1 1882.5,537.92A2.5,2.5 0 1 1 1887.5,537.92Z" style="fill:none;stroke:#00FF00;stroke-width:0.5" />
<path d="M112.96,130.34L309.86,201.19L506.75,324.31L703.64,450.68L900.53,544.13L1097.4,579.03L1294.3,708.03L1491.2,881.09L1688.1,817.09L1885,934.44" style="fill:none;stroke:#FF8000" />
<path d="M115.46,130.34A2.5,2.5 0 1 1 110.46,130.34A2.5,2.5 0 1 1 115.46,130.34Z" style="fill:none;stroke:#FF8000;stroke-width:0.5" />
<path d="M312.36,201.19A2.5,2.5 0 1 1 307.36,201.19A2.5,2.5 0 1 1 312.36,201.19Z" style="fill:none;stroke:#FF8000;stroke-width:0.5" />
<path d="M509.25,324.31A2.5,2.5 0 1 1 504.25,324.31A2.5,2.5 0 1 1 509.25,324.31Z" style="fill:none;stroke:#FF8000;stroke-width:0.5" />
<path d="M706.14,450.68A2.5,2.5 0 1 1 701.14,450.68A2.5,2.5 0 1 1 706.14,450.68Z" style="fill:none;stroke:#FF8000;stroke-width:0.5" />
<path d="M903.03,544.13A2.5,2.5 0 1 1 898.03,544.13A2.5,2.5 0 1 1 903.03,544.13Z" style="fill:none;stroke:#FF8000;stroke-width:0.5" />
<path d="M1099.9,579.03A2.5,2.5 0 1 1 1094.9,579.03A2.5,2.5 0 1 1 1099.9,579.03Z" style="fill:none;stroke:#FF8000;stroke-width:0.5" />
<path d="M1296.8,708.03A2.5,2.5 0 1 1 1291.8,708.03A2.5,2.5 0 1 1 1296.8,708.03Z" style="fill:none;stroke:#FF8000;stroke-width:0.5" />
<path d="M1493.7,881.09A2.5,2.5 0 1 1 1488.7,881.09A2.5,2.5 0 1 1 1493.7,881.09Z" style="fill:none;stroke:#FF8000;stroke-width:0.5" />
<path d="M1690.6,817.09A2.5,2.5 0 1 1 1685.6,817.09A2.5,2.5 0 1 1 1690.6,817.09Z" style="fill:none;stroke:#FF8000;stroke-width:0.5" />
<path d="M1887.5,934.44A2.5,2.5 0 1 1 1882.5,934.44A2.5,2.5 0 1 1 1887.5,934.44Z" style="fill:none;stroke:#FF8000;stroke-width:0.5" />
<path d="M1900,146.4L1920,146.4" style="fill:none;stroke:#FF0000" />
<path d="M1912.5,146.4A2.5,2.5 0 1 1 1907.5,146.4A2.5,2.5 0 1 1 1912.5,146.4Z" style="fill:none;stroke:#FF0000;stroke-width:0.5" />
<text x="1795.4" y="-141.42" transform="scale(1, -1)"
	style="font-family:Liberation Serif;font-variant:normal;font-weight:normal;font-style:normal;font-size:24px">std::deque</text>
<path d="M1900,126.03L1920,126.03" style="fill:none;stroke:#0000FF" />
<path d="M1912.5,126.03A2.5,2.5 0 1 1 1907.5,126.03A2.5,2.5 0 1 1 1912.5,126.03Z" style="fill:none;stroke:#0000FF;stroke-width:0.5" />
<text x="1792.7" y="-121.05" transform="scale(1, -1)"
	style="font-family:Liberation Serif;font-variant:normal;font-weight:normal;font-style:normal;font-size:24px">std::vector</text>
<path d="M1900,105.66L1920,105.66" style="fill:none;stroke:#00FF00" />
<path d="M1912.5,105.66A2.5,2.5 0 1 1 1907.5,105.66A2.5,2.5 0 1 1 1912.5,105.66Z" style="fill:none;stroke:#00FF00;stroke-width:0.5" />
<text x="1669.4" y="-100.69" transform="scale(1, -1)"
	style="font-family:Liberation Serif;font-variant:normal;font-weight:normal;font-style:normal;font-size:24px">preallocated std::vector</text>
<path d="M1900,85.294L1920,85.294" style="fill:none;stroke:#FF8000" />
<path d="M1912.5,85.294A2.5,2.5 0 1 1 1907.5,85.294A2.5,2.5 0 1 1 1912.5,85.294Z" style="fill:none;stroke:#FF8000;stroke-width:0.5" />
<text x="1823.3" y="-80.319" transform="scale(1, -1)"
	style="font-family:Liberation Serif;font-variant:normal;font-weight:normal;font-style:normal;font-size:24px">std::list</text>
</g>
</svg>
