<?xml version="1.0"?>
<!-- Generated by SVGo and Plotinum VG -->
<svg width="1920pt" height="1080pt" viewBox="0 0 1920 1080"
	xmlns="http://www.w3.org/2000/svg"
	xmlns:xlink="http://www.w3.org/1999/xlink">
<g transform="scale(1, -1) translate(0, -1080)">
<path d="M0,0L1920,0L1920,1080L0,1080Z" style="fill:#FFFFFF" />
<text x="865.58" y="-1040.9" transform="scale(1, -1)"
	style="font-family:Liberation Serif;font-variant:normal;font-weight:normal;font-style:normal;font-size:50px">pushback</text>
<text x="886.52" y="-9.7559" transform="scale(1, -1)"
	style="font-family:Liberation Serif;font-variant:normal;font-weight:normal;font-style:normal;font-size:30px">Number of elements</text>
<text x="102.96" y="-39.727" transform="scale(1, -1)"
	style="font-family:Liberation Serif;font-variant:normal;font-weight:normal;font-style:normal;font-size:20px">100000</text>
<text x="297.63" y="-39.727" transform="scale(1, -1)"
	style="font-family:Liberation Serif;font-variant:normal;font-weight:normal;font-style:normal;font-size:20px">200000</text>
<text x="492.3" y="-39.727" transform="scale(1, -1)"
	style="font-family:Liberation Serif;font-variant:normal;font-weight:normal;font-style:normal;font-size:20px">300000</text>
<text x="686.97" y="-39.727" transform="scale(1, -1)"
	style="font-family:Liberation Serif;font-variant:normal;font-weight:normal;font-style:normal;font-size:20px">400000</text>
<text x="881.65" y="-39.727" transform="scale(1, -1)"
	style="font-family:Liberation Serif;font-variant:normal;font-weight:normal;font-style:normal;font-size:20px">500000</text>
<text x="1076.3" y="-39.727" transform="scale(1, -1)"
	style="font-family:Liberation Serif;font-variant:normal;font-weight:normal;font-style:normal;font-size:20px">600000</text>
<text x="1271" y="-39.727" transform="scale(1, -1)"
	style="font-family:Liberation Serif;font-variant:normal;font-weight:normal;font-style:normal;font-size:20px">700000</text>
<text x="1465.7" y="-39.727" transform="scale(1, -1)"
	style="font-family:Liberation Serif;font-variant:normal;font-weight:normal;font-style:normal;font-size:20px">800000</text>
<text x="1660.3" y="-39.727" transform="scale(1, -1)"
	style="font-family:Liberation Serif;font-variant:normal;font-weight:normal;font-style:normal;font-size:20px">900000</text>
<text x="1850" y="-39.727" transform="scale(1, -1)"
	style="font-family:Liberation Serif;font-variant:normal;font-weight:normal;font-style:normal;font-size:20px">1000000</text>
<path d="M132.96,55.371L132.96,63.371" style="fill:none;stroke:#000000;stroke-width:0.5" />
<path d="M327.63,55.371L327.63,63.371" style="fill:none;stroke:#000000;stroke-width:0.5" />
<path d="M522.3,55.371L522.3,63.371" style="fill:none;stroke:#000000;stroke-width:0.5" />
<path d="M716.97,55.371L716.97,63.371" style="fill:none;stroke:#000000;stroke-width:0.5" />
<path d="M911.65,55.371L911.65,63.371" style="fill:none;stroke:#000000;stroke-width:0.5" />
<path d="M1106.3,55.371L1106.3,63.371" style="fill:none;stroke:#000000;stroke-width:0.5" />
<path d="M1301,55.371L1301,63.371" style="fill:none;stroke:#000000;stroke-width:0.5" />
<path d="M1495.7,55.371L1495.7,63.371" style="fill:none;stroke:#000000;stroke-width:0.5" />
<path d="M1690.3,55.371L1690.3,63.371" style="fill:none;stroke:#000000;stroke-width:0.5" />
<path d="M1885,55.371L1885,63.371" style="fill:none;stroke:#000000;stroke-width:0.5" />
<path d="M132.96,63.371L1885,63.371" style="fill:none;stroke:#000000;stroke-width:0.5" />
<g transform="rotate(90)">
<text x="537.24" y="23.467" transform="scale(1, -1)"
	style="font-family:Liberation Serif;font-variant:normal;font-weight:normal;font-style:normal;font-size:30px">μs</text>
</g>
<text x="49.712" y="-229.62" transform="scale(1, -1)"
	style="font-family:Liberation Serif;font-variant:normal;font-weight:normal;font-style:normal;font-size:20px">300000</text>
<text x="49.712" y="-594.17" transform="scale(1, -1)"
	style="font-family:Liberation Serif;font-variant:normal;font-weight:normal;font-style:normal;font-size:20px">900000</text>
<text x="39.712" y="-958.73" transform="scale(1, -1)"
	style="font-family:Liberation Serif;font-variant:normal;font-weight:normal;font-style:normal;font-size:20px">1500000</text>
<path d="M114.71,234.19L122.71,234.19" style="fill:none;stroke:#000000;stroke-width:0.5" />
<path d="M114.71,598.74L122.71,598.74" style="fill:none;stroke:#000000;stroke-width:0.5" />
<path d="M114.71,963.3L122.71,963.3" style="fill:none;stroke:#000000;stroke-width:0.5" />
<path d="M118.71,416.47L122.71,416.47" style="fill:none;stroke:#000000;stroke-width:0.5" />
<path d="M118.71,781.02L122.71,781.02" style="fill:none;stroke:#000000;stroke-width:0.5" />
<path d="M122.71,77.61L122.71,1024.6" style="fill:none;stroke:#000000;stroke-width:0.5" />
<path d="M132.96,77.61L132.96,1024.6" style="fill:none;stroke:#808080;stroke-width:0.25" />
<path d="M327.63,77.61L327.63,1024.6" style="fill:none;stroke:#808080;stroke-width:0.25" />
<path d="M522.3,77.61L522.3,1024.6" style="fill:none;stroke:#808080;stroke-width:0.25" />
<path d="M716.97,77.61L716.97,1024.6" style="fill:none;stroke:#808080;stroke-width:0.25" />
<path d="M911.65,77.61L911.65,1024.6" style="fill:none;stroke:#808080;stroke-width:0.25" />
<path d="M1106.3,77.61L1106.3,1024.6" style="fill:none;stroke:#808080;stroke-width:0.25" />
<path d="M1301,77.61L1301,1024.6" style="fill:none;stroke:#808080;stroke-width:0.25" />
<path d="M1495.7,77.61L1495.7,1024.6" style="fill:none;stroke:#808080;stroke-width:0.25" />
<path d="M1690.3,77.61L1690.3,1024.6" style="fill:none;stroke:#808080;stroke-width:0.25" />
<path d="M1885,77.61L1885,1024.6" style="fill:none;stroke:#808080;stroke-width:0.25" />
<path d="M132.96,234.19L1885,234.19" style="fill:none;stroke:#808080;stroke-width:0.25" />
<path d="M132.96,598.74L1885,598.74" style="fill:none;stroke:#808080;stroke-width:0.25" />
<path d="M132.96,963.3L1885,963.3" style="fill:none;stroke:#808080;stroke-width:0.25" />
<path d="M132.96,119.52L327.63,173.51L522.3,244.4L716.97,317.84L911.65,394.01L1106.3,448.99L1301,503.43L1495.7,642.48L1690.3,670.59L1885,813.78" style="fill:none;stroke:#FF0000" />
<path d="M135.46,119.52A2.5,2.5 0 1 1 130.46,119.52A2.5,2.5 0 1 1 135.46,119.52Z" style="fill:none;stroke:#FF0000;stroke-width:0.5" />
<path d="M330.13,173.51A2.5,2.5 0 1 1 325.13,173.51A2.5,2.5 0 1 1 330.13,173.51Z" style="fill:none;stroke:#FF0000;stroke-width:0.5" />
<path d="M524.8,244.4A2.5,2.5 0 1 1 519.8,244.4A2.5,2.5 0 1 1 524.8,244.4Z" style="fill:none;stroke:#FF0000;stroke-width:0.5" />
<path d="M719.47,317.84A2.5,2.5 0 1 1 714.47,317.84A2.5,2.5 0 1 1 719.47,317.84Z" style="fill:none;stroke:#FF0000;stroke-width:0.5" />
<path d="M914.15,394.01A2.5,2.5 0 1 1 909.15,394.01A2.5,2.5 0 1 1 914.15,394.01Z" style="fill:none;stroke:#FF0000;stroke-width:0.5" />
<path d="M1108.8,448.99A2.5,2.5 0 1 1 1103.8,448.99A2.5,2.5 0 1 1 1108.8,448.99Z" style="fill:none;stroke:#FF0000;stroke-width:0.5" />
<path d="M1303.5,503.43A2.5,2.5 0 1 1 1298.5,503.43A2.5,2.5 0 1 1 1303.5,503.43Z" style="fill:none;stroke:#FF0000;stroke-width:0.5" />
<path d="M1498.2,642.48A2.5,2.5 0 1 1 1493.2,642.48A2.5,2.5 0 1 1 1498.2,642.48Z" style="fill:none;stroke:#FF0000;stroke-width:0.5" />
<path d="M1692.8,670.59A2.5,2.5 0 1 1 1687.8,670.59A2.5,2.5 0 1 1 1692.8,670.59Z" style="fill:none;stroke:#FF0000;stroke-width:0.5" />
<path d="M1887.5,813.78A2.5,2.5 0 1 1 1882.5,813.78A2.5,2.5 0 1 1 1887.5,813.78Z" style="fill:none;stroke:#FF0000;stroke-width:0.5" />
<path d="M132.96,123.66L327.63,184.75L522.3,257.65L716.97,327.59L911.65,397.22L1106.3,497.3L1301,553.02L1495.7,630.94L1690.3,936.2L1885,854.8" style="fill:none;stroke:#0000FF" />
<path d="M135.46,123.66A2.5,2.5 0 1 1 130.46,123.66A2.5,2.5 0 1 1 135.46,123.66Z" style="fill:none;stroke:#0000FF;stroke-width:0.5" />
<path d="M330.13,184.75A2.5,2.5 0 1 1 325.13,184.75A2.5,2.5 0 1 1 330.13,184.75Z" style="fill:none;stroke:#0000FF;stroke-width:0.5" />
<path d="M524.8,257.65A2.5,2.5 0 1 1 519.8,257.65A2.5,2.5 0 1 1 524.8,257.65Z" style="fill:none;stroke:#0000FF;stroke-width:0.5" />
<path d="M719.47,327.59A2.5,2.5 0 1 1 714.47,327.59A2.5,2.5 0 1 1 719.47,327.59Z" style="fill:none;stroke:#0000FF;stroke-width:0.5" />
<path d="M914.15,397.22A2.5,2.5 0 1 1 909.15,397.22A2.5,2.5 0 1 1 914.15,397.22Z" style="fill:none;stroke:#0000FF;stroke-width:0.5" />
<path d="M1108.8,497.3A2.5,2.5 0 1 1 1103.8,497.3A2.5,2.5 0 1 1 1108.8,497.3Z" style="fill:none;stroke:#0000FF;stroke-width:0.5" />
<path d="M1303.5,553.02A2.5,2.5 0 1 1 1298.5,553.02A2.5,2.5 0 1 1 1303.5,553.02Z" style="fill:none;stroke:#0000FF;stroke-width:0.5" />
<path d="M1498.2,630.94A2.5,2.5 0 1 1 1493.2,630.94A2.5,2.5 0 1 1 1498.2,630.94Z" style="fill:none;stroke:#0000FF;stroke-width:0.5" />
<path d="M1692.8,936.2A2.5,2.5 0 1 1 1687.8,936.2A2.5,2.5 0 1 1 1692.8,936.2Z" style="fill:none;stroke:#0000FF;stroke-width:0.5" />
<path d="M1887.5,854.8A2.5,2.5 0 1 1 1882.5,854.8A2.5,2.5 0 1 1 1887.5,854.8Z" style="fill:none;stroke:#0000FF;stroke-width:0.5" />
<path d="M132.96,124.03L327.63,189.04L522.3,317.47L716.97,339.92L911.65,399.04L1106.3,849.63L1301,726.79L1495.7,706.83L1690.3,694.27L1885,682.03" style="fill:none;stroke:#00FF00" />
<path d="M135.46,124.03A2.5,2.5 0 1 1 130.46,124.03A2.5,2.5 0 1 1 135.46,124.03Z" style="fill:none;stroke:#00FF00;stroke-width:0.5" />
<path d="M330.13,189.04A2.5,2.5 0 1 1 325.13,189.04A2.5,2.5 0 1 1 330.13,189.04Z" style="fill:none;stroke:#00FF00;stroke-width:0.5" />
<path d="M524.8,317.47A2.5,2.5 0 1 1 519.8,317.47A2.5,2.5 0 1 1 524.8,317.47Z" style="fill:none;stroke:#00FF00;stroke-width:0.5" />
<path d="M719.47,339.92A2.5,2.5 0 1 1 714.47,339.92A2.5,2.5 0 1 1 719.47,339.92Z" style="fill:none;stroke:#00FF00;stroke-width:0.5" />
<path d="M914.15,399.04A2.5,2.5 0 1 1 909.15,399.04A2.5,2.5 0 1 1 914.15,399.04Z" style="fill:none;stroke:#00FF00;stroke-width:0.5" />
<path d="M1108.8,849.63A2.5,2.5 0 1 1 1103.8,849.63A2.5,2.5 0 1 1 1108.8,849.63Z" style="fill:none;stroke:#00FF00;stroke-width:0.5" />
<path d="M1303.5,726.79A2.5,2.5 0 1 1 1298.5,726.79A2.5,2.5 0 1 1 1303.5,726.79Z" style="fill:none;stroke:#00FF00;stroke-width:0.5" />
<path d="M1498.2,706.83A2.5,2.5 0 1 1 1493.2,706.83A2.5,2.5 0 1 1 1498.2,706.83Z" style="fill:none;stroke:#00FF00;stroke-width:0.5" />
<path d="M1692.8,694.27A2.5,2.5 0 1 1 1687.8,694.27A2.5,2.5 0 1 1 1692.8,694.27Z" style="fill:none;stroke:#00FF00;stroke-width:0.5" />
<path d="M1887.5,682.03A2.5,2.5 0 1 1 1882.5,682.03A2.5,2.5 0 1 1 1887.5,682.03Z" style="fill:none;stroke:#00FF00;stroke-width:0.5" />
<path d="M132.96,77.61L327.63,100.07L522.3,125.35L716.97,163.02L911.65,187.39L1106.3,204.74L1301,243.79L1495.7,257.83L1690.3,281.14L1885,302.38" style="fill:none;stroke:#FF8000" />
<path d="M135.46,77.61A2.5,2.5 0 1 1 130.46,77.61A2.5,2.5 0 1 1 135.46,77.61Z" style="fill:none;stroke:#FF8000;stroke-width:0.5" />
<path d="M330.13,100.07A2.5,2.5 0 1 1 325.13,100.07A2.5,2.5 0 1 1 330.13,100.07Z" style="fill:none;stroke:#FF8000;stroke-width:0.5" />
<path d="M524.8,125.35A2.5,2.5 0 1 1 519.8,125.35A2.5,2.5 0 1 1 524.8,125.35Z" style="fill:none;stroke:#FF8000;stroke-width:0.5" />
<path d="M719.47,163.02A2.5,2.5 0 1 1 714.47,163.02A2.5,2.5 0 1 1 719.47,163.02Z" style="fill:none;stroke:#FF8000;stroke-width:0.5" />
<path d="M914.15,187.39A2.5,2.5 0 1 1 909.15,187.39A2.5,2.5 0 1 1 914.15,187.39Z" style="fill:none;stroke:#FF8000;stroke-width:0.5" />
<path d="M1108.8,204.74A2.5,2.5 0 1 1 1103.8,204.74A2.5,2.5 0 1 1 1108.8,204.74Z" style="fill:none;stroke:#FF8000;stroke-width:0.5" />
<path d="M1303.5,243.79A2.5,2.5 0 1 1 1298.5,243.79A2.5,2.5 0 1 1 1303.5,243.79Z" style="fill:none;stroke:#FF8000;stroke-width:0.5" />
<path d="M1498.2,257.83A2.5,2.5 0 1 1 1493.2,257.83A2.5,2.5 0 1 1 1498.2,257.83Z" style="fill:none;stroke:#FF8000;stroke-width:0.5" />
<path d="M1692.8,281.14A2.5,2.5 0 1 1 1687.8,281.14A2.5,2.5 0 1 1 1692.8,281.14Z" style="fill:none;stroke:#FF8000;stroke-width:0.5" />
<path d="M1887.5,302.38A2.5,2.5 0 1 1 1882.5,302.38A2.5,2.5 0 1 1 1887.5,302.38Z" style="fill:none;stroke:#FF8000;stroke-width:0.5" />
<path d="M1900,146.4L1920,146.4" style="fill:none;stroke:#FF0000" />
<path d="M1912.5,146.4A2.5,2.5 0 1 1 1907.5,146.4A2.5,2.5 0 1 1 1912.5,146.4Z" style="fill:none;stroke:#FF0000;stroke-width:0.5" />
<text x="1823.3" y="-141.42" transform="scale(1, -1)"
	style="font-family:Liberation Serif;font-variant:normal;font-weight:normal;font-style:normal;font-size:24px">std::list</text>
<path d="M1900,126.03L1920,126.03" style="fill:none;stroke:#0000FF" />
<path d="M1912.5,126.03A2.5,2.5 0 1 1 1907.5,126.03A2.5,2.5 0 1 1 1912.5,126.03Z" style="fill:none;stroke:#0000FF;stroke-width:0.5" />
<text x="1795.4" y="-121.05" transform="scale(1, -1)"
	style="font-family:Liberation Serif;font-variant:normal;font-weight:normal;font-style:normal;font-size:24px">std::deque</text>
<path d="M1900,105.66L1920,105.66" style="fill:none;stroke:#00FF00" />
<path d="M1912.5,105.66A2.5,2.5 0 1 1 1907.5,105.66A2.5,2.5 0 1 1 1912.5,105.66Z" style="fill:none;stroke:#00FF00;stroke-width:0.5" />
<text x="1792.7" y="-100.69" transform="scale(1, -1)"
	style="font-family:Liberation Serif;font-variant:normal;font-weight:normal;font-style:normal;font-size:24px">std::vector</text>
<path d="M1900,85.294L1920,85.294" style="fill:none;stroke:#FF8000" />
<path d="M1912.5,85.294A2.5,2.5 0 1 1 1907.5,85.294A2.5,2.5 0 1 1 1912.5,85.294Z" style="fill:none;stroke:#FF8000;stroke-width:0.5" />
<text x="1669.4" y="-80.319" transform="scale(1, -1)"
	style="font-family:Liberation Serif;font-variant:normal;font-weight:normal;font-style:normal;font-size:24px">preallocated std::vector</text>
</g>
</svg>
