<?xml version="1.0"?>
<!-- Generated by SVGo and Plotinum VG -->
<svg width="1920pt" height="1200pt" viewBox="0 0 1920 1200"
	xmlns="http://www.w3.org/2000/svg"
	xmlns:xlink="http://www.w3.org/1999/xlink">
<g transform="scale(1, -1) translate(0, -1200)">
<path d="M0,0L1920,0L1920,1200L0,1200Z" style="fill:#FFFFFF" />
<text x="908.18" y="-1190.6" transform="scale(1, -1)"
	style="font-family:Liberation Serif;font-variant:normal;font-weight:normal;font-style:normal;font-size:12px">pushback - Log Scale</text>
<text x="925.83" y="-3.9023" transform="scale(1, -1)"
	style="font-family:Liberation Serif;font-variant:normal;font-weight:normal;font-style:normal;font-size:12px">Number of elements</text>
<text x="32.135" y="-16.541" transform="scale(1, -1)"
	style="font-family:Liberation Serif;font-variant:normal;font-weight:normal;font-style:normal;font-size:10px">100000</text>
<text x="238.29" y="-16.541" transform="scale(1, -1)"
	style="font-family:Liberation Serif;font-variant:normal;font-weight:normal;font-style:normal;font-size:10px">200000</text>
<text x="444.44" y="-16.541" transform="scale(1, -1)"
	style="font-family:Liberation Serif;font-variant:normal;font-weight:normal;font-style:normal;font-size:10px">300000</text>
<text x="650.59" y="-16.541" transform="scale(1, -1)"
	style="font-family:Liberation Serif;font-variant:normal;font-weight:normal;font-style:normal;font-size:10px">400000</text>
<text x="856.74" y="-16.541" transform="scale(1, -1)"
	style="font-family:Liberation Serif;font-variant:normal;font-weight:normal;font-style:normal;font-size:10px">500000</text>
<text x="1062.9" y="-16.541" transform="scale(1, -1)"
	style="font-family:Liberation Serif;font-variant:normal;font-weight:normal;font-style:normal;font-size:10px">600000</text>
<text x="1269" y="-16.541" transform="scale(1, -1)"
	style="font-family:Liberation Serif;font-variant:normal;font-weight:normal;font-style:normal;font-size:10px">700000</text>
<text x="1475.2" y="-16.541" transform="scale(1, -1)"
	style="font-family:Liberation Serif;font-variant:normal;font-weight:normal;font-style:normal;font-size:10px">800000</text>
<text x="1681.3" y="-16.541" transform="scale(1, -1)"
	style="font-family:Liberation Serif;font-variant:normal;font-weight:normal;font-style:normal;font-size:10px">900000</text>
<text x="1885" y="-16.541" transform="scale(1, -1)"
	style="font-family:Liberation Serif;font-variant:normal;font-weight:normal;font-style:normal;font-size:10px">1000000</text>
<path d="M47.135,24.363L47.135,32.363" style="fill:none;stroke:#000000;stroke-width:0.5" />
<path d="M253.29,24.363L253.29,32.363" style="fill:none;stroke:#000000;stroke-width:0.5" />
<path d="M459.44,24.363L459.44,32.363" style="fill:none;stroke:#000000;stroke-width:0.5" />
<path d="M665.59,24.363L665.59,32.363" style="fill:none;stroke:#000000;stroke-width:0.5" />
<path d="M871.74,24.363L871.74,32.363" style="fill:none;stroke:#000000;stroke-width:0.5" />
<path d="M1077.9,24.363L1077.9,32.363" style="fill:none;stroke:#000000;stroke-width:0.5" />
<path d="M1284,24.363L1284,32.363" style="fill:none;stroke:#000000;stroke-width:0.5" />
<path d="M1490.2,24.363L1490.2,32.363" style="fill:none;stroke:#000000;stroke-width:0.5" />
<path d="M1696.3,24.363L1696.3,32.363" style="fill:none;stroke:#000000;stroke-width:0.5" />
<path d="M1902.5,24.363L1902.5,32.363" style="fill:none;stroke:#000000;stroke-width:0.5" />
<path d="M47.135,32.363L1902.5,32.363" style="fill:none;stroke:#000000;stroke-width:0.5" />
<g transform="rotate(90)">
<text x="596.25" y="9.3867" transform="scale(1, -1)"
	style="font-family:Liberation Serif;font-variant:normal;font-weight:normal;font-style:normal;font-size:12px">log(μs)</text>
</g>
<text x="15.885" y="-235.87" transform="scale(1, -1)"
	style="font-family:Liberation Serif;font-variant:normal;font-weight:normal;font-style:normal;font-size:10px">3.5</text>
<text x="15.885" y="-652.71" transform="scale(1, -1)"
	style="font-family:Liberation Serif;font-variant:normal;font-weight:normal;font-style:normal;font-size:10px">4.0</text>
<text x="15.885" y="-1020.4" transform="scale(1, -1)"
	style="font-family:Liberation Serif;font-variant:normal;font-weight:normal;font-style:normal;font-size:10px">4.5</text>
<path d="M30.885,238.16L38.885,238.16" style="fill:none;stroke:#000000;stroke-width:0.5" />
<path d="M30.885,654.99L38.885,654.99" style="fill:none;stroke:#000000;stroke-width:0.5" />
<path d="M30.885,1022.7L38.885,1022.7" style="fill:none;stroke:#000000;stroke-width:0.5" />
<path d="M34.885,54.482L38.885,54.482" style="fill:none;stroke:#000000;stroke-width:0.5" />
<path d="M34.885,147.67L38.885,147.67" style="fill:none;stroke:#000000;stroke-width:0.5" />
<path d="M34.885,326.1L38.885,326.1" style="fill:none;stroke:#000000;stroke-width:0.5" />
<path d="M34.885,411.63L38.885,411.63" style="fill:none;stroke:#000000;stroke-width:0.5" />
<path d="M34.885,494.87L38.885,494.87" style="fill:none;stroke:#000000;stroke-width:0.5" />
<path d="M34.885,575.96L38.885,575.96" style="fill:none;stroke:#000000;stroke-width:0.5" />
<path d="M34.885,732.07L38.885,732.07" style="fill:none;stroke:#000000;stroke-width:0.5" />
<path d="M34.885,807.3L38.885,807.3" style="fill:none;stroke:#000000;stroke-width:0.5" />
<path d="M34.885,880.75L38.885,880.75" style="fill:none;stroke:#000000;stroke-width:0.5" />
<path d="M34.885,952.51L38.885,952.51" style="fill:none;stroke:#000000;stroke-width:0.5" />
<path d="M34.885,1091.3L38.885,1091.3" style="fill:none;stroke:#000000;stroke-width:0.5" />
<path d="M34.885,1158.4L38.885,1158.4" style="fill:none;stroke:#000000;stroke-width:0.5" />
<path d="M38.885,42.709L38.885,1184.2" style="fill:none;stroke:#000000;stroke-width:0.5" />
<path d="M47.135,42.709L47.135,1184.2" style="fill:none;stroke:#808080;stroke-width:0.25" />
<path d="M253.29,42.709L253.29,1184.2" style="fill:none;stroke:#808080;stroke-width:0.25" />
<path d="M459.44,42.709L459.44,1184.2" style="fill:none;stroke:#808080;stroke-width:0.25" />
<path d="M665.59,42.709L665.59,1184.2" style="fill:none;stroke:#808080;stroke-width:0.25" />
<path d="M871.74,42.709L871.74,1184.2" style="fill:none;stroke:#808080;stroke-width:0.25" />
<path d="M1077.9,42.709L1077.9,1184.2" style="fill:none;stroke:#808080;stroke-width:0.25" />
<path d="M1284,42.709L1284,1184.2" style="fill:none;stroke:#808080;stroke-width:0.25" />
<path d="M1490.2,42.709L1490.2,1184.2" style="fill:none;stroke:#808080;stroke-width:0.25" />
<path d="M1696.3,42.709L1696.3,1184.2" style="fill:none;stroke:#808080;stroke-width:0.25" />
<path d="M1902.5,42.709L1902.5,1184.2" style="fill:none;stroke:#808080;stroke-width:0.25" />
<path d="M47.135,238.16L1902.5,238.16" style="fill:none;stroke:#808080;stroke-width:0.25" />
<path d="M47.135,654.99L1902.5,654.99" style="fill:none;stroke:#808080;stroke-width:0.25" />
<path d="M47.135,1022.7L1902.5,1022.7" style="fill:none;stroke:#808080;stroke-width:0.25" />
<path d="M47.135,77.561L253.29,387.6L459.44,573.75L665.59,693.44L871.74,778.07L1077.9,841.45L1284,836.41L1490.2,855.98L1696.3,918.06L1902.5,962.95" style="fill:none;stroke:#000000" />
<path d="M49.635,77.561A2.5,2.5 0 1 1 44.635,77.561A2.5,2.5 0 1 1 49.635,77.561Z" style="fill:none;stroke:#000000;stroke-width:0.5" />
<path d="M255.79,387.6A2.5,2.5 0 1 1 250.79,387.6A2.5,2.5 0 1 1 255.79,387.6Z" style="fill:none;stroke:#000000;stroke-width:0.5" />
<path d="M461.94,573.75A2.5,2.5 0 1 1 456.94,573.75A2.5,2.5 0 1 1 461.94,573.75Z" style="fill:none;stroke:#000000;stroke-width:0.5" />
<path d="M668.09,693.44A2.5,2.5 0 1 1 663.09,693.44A2.5,2.5 0 1 1 668.09,693.44Z" style="fill:none;stroke:#000000;stroke-width:0.5" />
<path d="M874.24,778.07A2.5,2.5 0 1 1 869.24,778.07A2.5,2.5 0 1 1 874.24,778.07Z" style="fill:none;stroke:#000000;stroke-width:0.5" />
<path d="M1080.4,841.45A2.5,2.5 0 1 1 1075.4,841.45A2.5,2.5 0 1 1 1080.4,841.45Z" style="fill:none;stroke:#000000;stroke-width:0.5" />
<path d="M1286.5,836.41A2.5,2.5 0 1 1 1281.5,836.41A2.5,2.5 0 1 1 1286.5,836.41Z" style="fill:none;stroke:#000000;stroke-width:0.5" />
<path d="M1492.7,855.98A2.5,2.5 0 1 1 1487.7,855.98A2.5,2.5 0 1 1 1492.7,855.98Z" style="fill:none;stroke:#000000;stroke-width:0.5" />
<path d="M1698.8,918.06A2.5,2.5 0 1 1 1693.8,918.06A2.5,2.5 0 1 1 1698.8,918.06Z" style="fill:none;stroke:#000000;stroke-width:0.5" />
<path d="M1905,962.95A2.5,2.5 0 1 1 1900,962.95A2.5,2.5 0 1 1 1905,962.95Z" style="fill:none;stroke:#000000;stroke-width:0.5" />
<path d="M47.135,42.709L253.29,366.92L459.44,519.43L665.59,645.6L871.74,694L1077.9,766.88L1284,807.13L1490.2,853.41L1696.3,917.96L1902.5,934.53" style="fill:none;stroke:#000000" />
<path d="M49.635,42.709A2.5,2.5 0 1 1 44.635,42.709A2.5,2.5 0 1 1 49.635,42.709Z" style="fill:none;stroke:#000000;stroke-width:0.5" />
<path d="M255.79,366.92A2.5,2.5 0 1 1 250.79,366.92A2.5,2.5 0 1 1 255.79,366.92Z" style="fill:none;stroke:#000000;stroke-width:0.5" />
<path d="M461.94,519.43A2.5,2.5 0 1 1 456.94,519.43A2.5,2.5 0 1 1 461.94,519.43Z" style="fill:none;stroke:#000000;stroke-width:0.5" />
<path d="M668.09,645.6A2.5,2.5 0 1 1 663.09,645.6A2.5,2.5 0 1 1 668.09,645.6Z" style="fill:none;stroke:#000000;stroke-width:0.5" />
<path d="M874.24,694A2.5,2.5 0 1 1 869.24,694A2.5,2.5 0 1 1 874.24,694Z" style="fill:none;stroke:#000000;stroke-width:0.5" />
<path d="M1080.4,766.88A2.5,2.5 0 1 1 1075.4,766.88A2.5,2.5 0 1 1 1080.4,766.88Z" style="fill:none;stroke:#000000;stroke-width:0.5" />
<path d="M1286.5,807.13A2.5,2.5 0 1 1 1281.5,807.13A2.5,2.5 0 1 1 1286.5,807.13Z" style="fill:none;stroke:#000000;stroke-width:0.5" />
<path d="M1492.7,853.41A2.5,2.5 0 1 1 1487.7,853.41A2.5,2.5 0 1 1 1492.7,853.41Z" style="fill:none;stroke:#000000;stroke-width:0.5" />
<path d="M1698.8,917.96A2.5,2.5 0 1 1 1693.8,917.96A2.5,2.5 0 1 1 1698.8,917.96Z" style="fill:none;stroke:#000000;stroke-width:0.5" />
<path d="M1905,934.53A2.5,2.5 0 1 1 1900,934.53A2.5,2.5 0 1 1 1905,934.53Z" style="fill:none;stroke:#000000;stroke-width:0.5" />
<path d="M47.135,523.8L253.29,726.53L459.44,788.22L665.59,854.22L871.74,955.86L1077.9,991.98L1284,1037.2L1490.2,1083.9L1696.3,1104L1902.5,1184.2" style="fill:none;stroke:#000000" />
<path d="M49.635,523.8A2.5,2.5 0 1 1 44.635,523.8A2.5,2.5 0 1 1 49.635,523.8Z" style="fill:none;stroke:#000000;stroke-width:0.5" />
<path d="M255.79,726.53A2.5,2.5 0 1 1 250.79,726.53A2.5,2.5 0 1 1 255.79,726.53Z" style="fill:none;stroke:#000000;stroke-width:0.5" />
<path d="M461.94,788.22A2.5,2.5 0 1 1 456.94,788.22A2.5,2.5 0 1 1 461.94,788.22Z" style="fill:none;stroke:#000000;stroke-width:0.5" />
<path d="M668.09,854.22A2.5,2.5 0 1 1 663.09,854.22A2.5,2.5 0 1 1 668.09,854.22Z" style="fill:none;stroke:#000000;stroke-width:0.5" />
<path d="M874.24,955.86A2.5,2.5 0 1 1 869.24,955.86A2.5,2.5 0 1 1 874.24,955.86Z" style="fill:none;stroke:#000000;stroke-width:0.5" />
<path d="M1080.4,991.98A2.5,2.5 0 1 1 1075.4,991.98A2.5,2.5 0 1 1 1080.4,991.98Z" style="fill:none;stroke:#000000;stroke-width:0.5" />
<path d="M1286.5,1037.2A2.5,2.5 0 1 1 1281.5,1037.2A2.5,2.5 0 1 1 1286.5,1037.2Z" style="fill:none;stroke:#000000;stroke-width:0.5" />
<path d="M1492.7,1083.9A2.5,2.5 0 1 1 1487.7,1083.9A2.5,2.5 0 1 1 1492.7,1083.9Z" style="fill:none;stroke:#000000;stroke-width:0.5" />
<path d="M1698.8,1104A2.5,2.5 0 1 1 1693.8,1104A2.5,2.5 0 1 1 1698.8,1104Z" style="fill:none;stroke:#000000;stroke-width:0.5" />
<path d="M1905,1184.2A2.5,2.5 0 1 1 1900,1184.2A2.5,2.5 0 1 1 1905,1184.2Z" style="fill:none;stroke:#000000;stroke-width:0.5" />
<path d="M47.135,326.19L253.29,460.18L459.44,549L665.59,658.7L871.74,737.63L1077.9,831.46L1284,836.3L1490.2,875.86L1696.3,911.24L1902.5,947.94" style="fill:none;stroke:#000000" />
<path d="M49.635,326.19A2.5,2.5 0 1 1 44.635,326.19A2.5,2.5 0 1 1 49.635,326.19Z" style="fill:none;stroke:#000000;stroke-width:0.5" />
<path d="M255.79,460.18A2.5,2.5 0 1 1 250.79,460.18A2.5,2.5 0 1 1 255.79,460.18Z" style="fill:none;stroke:#000000;stroke-width:0.5" />
<path d="M461.94,549A2.5,2.5 0 1 1 456.94,549A2.5,2.5 0 1 1 461.94,549Z" style="fill:none;stroke:#000000;stroke-width:0.5" />
<path d="M668.09,658.7A2.5,2.5 0 1 1 663.09,658.7A2.5,2.5 0 1 1 668.09,658.7Z" style="fill:none;stroke:#000000;stroke-width:0.5" />
<path d="M874.24,737.63A2.5,2.5 0 1 1 869.24,737.63A2.5,2.5 0 1 1 874.24,737.63Z" style="fill:none;stroke:#000000;stroke-width:0.5" />
<path d="M1080.4,831.46A2.5,2.5 0 1 1 1075.4,831.46A2.5,2.5 0 1 1 1080.4,831.46Z" style="fill:none;stroke:#000000;stroke-width:0.5" />
<path d="M1286.5,836.3A2.5,2.5 0 1 1 1281.5,836.3A2.5,2.5 0 1 1 1286.5,836.3Z" style="fill:none;stroke:#000000;stroke-width:0.5" />
<path d="M1492.7,875.86A2.5,2.5 0 1 1 1487.7,875.86A2.5,2.5 0 1 1 1492.7,875.86Z" style="fill:none;stroke:#000000;stroke-width:0.5" />
<path d="M1698.8,911.24A2.5,2.5 0 1 1 1693.8,911.24A2.5,2.5 0 1 1 1698.8,911.24Z" style="fill:none;stroke:#000000;stroke-width:0.5" />
<path d="M1905,947.94A2.5,2.5 0 1 1 1900,947.94A2.5,2.5 0 1 1 1905,947.94Z" style="fill:none;stroke:#000000;stroke-width:0.5" />
<path d="M1900,75.852L1920,75.852" style="fill:none;stroke:#000000" />
<path d="M1912.5,75.852A2.5,2.5 0 1 1 1907.5,75.852A2.5,2.5 0 1 1 1912.5,75.852Z" style="fill:none;stroke:#000000;stroke-width:0.5" />
<text x="1846.3" y="-73.364" transform="scale(1, -1)"
	style="font-family:Liberation Serif;font-variant:normal;font-weight:normal;font-style:normal;font-size:12px">std::vector</text>
<path d="M1900,65.668L1920,65.668" style="fill:none;stroke:#000000" />
<path d="M1912.5,65.668A2.5,2.5 0 1 1 1907.5,65.668A2.5,2.5 0 1 1 1912.5,65.668Z" style="fill:none;stroke:#000000;stroke-width:0.5" />
<text x="1784.7" y="-63.181" transform="scale(1, -1)"
	style="font-family:Liberation Serif;font-variant:normal;font-weight:normal;font-style:normal;font-size:12px">preallocated std::vector</text>
<path d="M1900,55.484L1920,55.484" style="fill:none;stroke:#000000" />
<path d="M1912.5,55.484A2.5,2.5 0 1 1 1907.5,55.484A2.5,2.5 0 1 1 1912.5,55.484Z" style="fill:none;stroke:#000000;stroke-width:0.5" />
<text x="1861.7" y="-52.997" transform="scale(1, -1)"
	style="font-family:Liberation Serif;font-variant:normal;font-weight:normal;font-style:normal;font-size:12px">std::list</text>
<path d="M1900,45.301L1920,45.301" style="fill:none;stroke:#000000" />
<path d="M1912.5,45.301A2.5,2.5 0 1 1 1907.5,45.301A2.5,2.5 0 1 1 1912.5,45.301Z" style="fill:none;stroke:#000000;stroke-width:0.5" />
<text x="1847.7" y="-42.813" transform="scale(1, -1)"
	style="font-family:Liberation Serif;font-variant:normal;font-weight:normal;font-style:normal;font-size:12px">std::deque</text>
</g>
</svg>
