<?xml version="1.0"?>
<!-- Generated by SVGo and Plotinum VG -->
<svg width="1920pt" height="1200pt" viewBox="0 0 1920 1200"
	xmlns="http://www.w3.org/2000/svg"
	xmlns:xlink="http://www.w3.org/1999/xlink">
<g transform="scale(1, -1) translate(0, -1200)">
<path d="M0,0L1920,0L1920,1200L0,1200Z" style="fill:#FFFFFF" />
<text x="937.34" y="-1190.6" transform="scale(1, -1)"
	style="font-family:Liberation Serif;font-variant:normal;font-weight:normal;font-style:normal;font-size:12px">pushback</text>
<text x="934.58" y="-3.9023" transform="scale(1, -1)"
	style="font-family:Liberation Serif;font-variant:normal;font-weight:normal;font-style:normal;font-size:12px">Number of elements</text>
<text x="49.635" y="-16.541" transform="scale(1, -1)"
	style="font-family:Liberation Serif;font-variant:normal;font-weight:normal;font-style:normal;font-size:10px">100000</text>
<text x="253.84" y="-16.541" transform="scale(1, -1)"
	style="font-family:Liberation Serif;font-variant:normal;font-weight:normal;font-style:normal;font-size:10px">200000</text>
<text x="458.05" y="-16.541" transform="scale(1, -1)"
	style="font-family:Liberation Serif;font-variant:normal;font-weight:normal;font-style:normal;font-size:10px">300000</text>
<text x="662.26" y="-16.541" transform="scale(1, -1)"
	style="font-family:Liberation Serif;font-variant:normal;font-weight:normal;font-style:normal;font-size:10px">400000</text>
<text x="866.46" y="-16.541" transform="scale(1, -1)"
	style="font-family:Liberation Serif;font-variant:normal;font-weight:normal;font-style:normal;font-size:10px">500000</text>
<text x="1070.7" y="-16.541" transform="scale(1, -1)"
	style="font-family:Liberation Serif;font-variant:normal;font-weight:normal;font-style:normal;font-size:10px">600000</text>
<text x="1274.9" y="-16.541" transform="scale(1, -1)"
	style="font-family:Liberation Serif;font-variant:normal;font-weight:normal;font-style:normal;font-size:10px">700000</text>
<text x="1479.1" y="-16.541" transform="scale(1, -1)"
	style="font-family:Liberation Serif;font-variant:normal;font-weight:normal;font-style:normal;font-size:10px">800000</text>
<text x="1683.3" y="-16.541" transform="scale(1, -1)"
	style="font-family:Liberation Serif;font-variant:normal;font-weight:normal;font-style:normal;font-size:10px">900000</text>
<text x="1885" y="-16.541" transform="scale(1, -1)"
	style="font-family:Liberation Serif;font-variant:normal;font-weight:normal;font-style:normal;font-size:10px">1000000</text>
<path d="M64.635,24.363L64.635,32.363" style="fill:none;stroke:#000000;stroke-width:0.5" />
<path d="M268.84,24.363L268.84,32.363" style="fill:none;stroke:#000000;stroke-width:0.5" />
<path d="M473.05,24.363L473.05,32.363" style="fill:none;stroke:#000000;stroke-width:0.5" />
<path d="M677.26,24.363L677.26,32.363" style="fill:none;stroke:#000000;stroke-width:0.5" />
<path d="M881.46,24.363L881.46,32.363" style="fill:none;stroke:#000000;stroke-width:0.5" />
<path d="M1085.7,24.363L1085.7,32.363" style="fill:none;stroke:#000000;stroke-width:0.5" />
<path d="M1289.9,24.363L1289.9,32.363" style="fill:none;stroke:#000000;stroke-width:0.5" />
<path d="M1494.1,24.363L1494.1,32.363" style="fill:none;stroke:#000000;stroke-width:0.5" />
<path d="M1698.3,24.363L1698.3,32.363" style="fill:none;stroke:#000000;stroke-width:0.5" />
<path d="M1902.5,24.363L1902.5,32.363" style="fill:none;stroke:#000000;stroke-width:0.5" />
<path d="M64.635,32.363L1902.5,32.363" style="fill:none;stroke:#000000;stroke-width:0.5" />
<g transform="rotate(90)">
<text x="607.91" y="9.3867" transform="scale(1, -1)"
	style="font-family:Liberation Serif;font-variant:normal;font-weight:normal;font-style:normal;font-size:12px">μs</text>
</g>
<text x="20.885" y="-220.67" transform="scale(1, -1)"
	style="font-family:Liberation Serif;font-variant:normal;font-weight:normal;font-style:normal;font-size:10px">20000</text>
<text x="20.885" y="-660.62" transform="scale(1, -1)"
	style="font-family:Liberation Serif;font-variant:normal;font-weight:normal;font-style:normal;font-size:10px">60000</text>
<text x="15.885" y="-1100.6" transform="scale(1, -1)"
	style="font-family:Liberation Serif;font-variant:normal;font-weight:normal;font-style:normal;font-size:10px">100000</text>
<path d="M48.385,222.96L56.385,222.96" style="fill:none;stroke:#000000;stroke-width:0.5" />
<path d="M48.385,662.9L56.385,662.9" style="fill:none;stroke:#000000;stroke-width:0.5" />
<path d="M48.385,1102.9L56.385,1102.9" style="fill:none;stroke:#000000;stroke-width:0.5" />
<path d="M52.385,112.97L56.385,112.97" style="fill:none;stroke:#000000;stroke-width:0.5" />
<path d="M52.385,332.94L56.385,332.94" style="fill:none;stroke:#000000;stroke-width:0.5" />
<path d="M52.385,442.93L56.385,442.93" style="fill:none;stroke:#000000;stroke-width:0.5" />
<path d="M52.385,552.92L56.385,552.92" style="fill:none;stroke:#000000;stroke-width:0.5" />
<path d="M52.385,772.89L56.385,772.89" style="fill:none;stroke:#000000;stroke-width:0.5" />
<path d="M52.385,882.88L56.385,882.88" style="fill:none;stroke:#000000;stroke-width:0.5" />
<path d="M52.385,992.87L56.385,992.87" style="fill:none;stroke:#000000;stroke-width:0.5" />
<path d="M56.385,42.709L56.385,1184.2" style="fill:none;stroke:#000000;stroke-width:0.5" />
<path d="M64.635,42.709L64.635,1184.2" style="fill:none;stroke:#808080;stroke-width:0.25" />
<path d="M268.84,42.709L268.84,1184.2" style="fill:none;stroke:#808080;stroke-width:0.25" />
<path d="M473.05,42.709L473.05,1184.2" style="fill:none;stroke:#808080;stroke-width:0.25" />
<path d="M677.26,42.709L677.26,1184.2" style="fill:none;stroke:#808080;stroke-width:0.25" />
<path d="M881.46,42.709L881.46,1184.2" style="fill:none;stroke:#808080;stroke-width:0.25" />
<path d="M1085.7,42.709L1085.7,1184.2" style="fill:none;stroke:#808080;stroke-width:0.25" />
<path d="M1289.9,42.709L1289.9,1184.2" style="fill:none;stroke:#808080;stroke-width:0.25" />
<path d="M1494.1,42.709L1494.1,1184.2" style="fill:none;stroke:#808080;stroke-width:0.25" />
<path d="M1698.3,42.709L1698.3,1184.2" style="fill:none;stroke:#808080;stroke-width:0.25" />
<path d="M1902.5,42.709L1902.5,1184.2" style="fill:none;stroke:#808080;stroke-width:0.25" />
<path d="M64.635,222.96L1902.5,222.96" style="fill:none;stroke:#808080;stroke-width:0.25" />
<path d="M64.635,662.9L1902.5,662.9" style="fill:none;stroke:#808080;stroke-width:0.25" />
<path d="M64.635,1102.9L1902.5,1102.9" style="fill:none;stroke:#808080;stroke-width:0.25" />
<path d="M64.635,42.709L268.84,102.04L473.05,148.27L677.26,255.69L881.46,247.89L1085.7,295.83L1289.9,327.83L1494.1,396.28L1698.3,448.04L1902.5,469.67" style="fill:none;stroke:#9F90A3" />
<path d="M67.135,42.709A2.5,2.5 0 1 1 62.135,42.709A2.5,2.5 0 1 1 67.135,42.709Z" style="fill:none;stroke:#9F90A3;stroke-width:0.5" />
<path d="M271.34,102.04A2.5,2.5 0 1 1 266.34,102.04A2.5,2.5 0 1 1 271.34,102.04Z" style="fill:none;stroke:#9F90A3;stroke-width:0.5" />
<path d="M475.55,148.27A2.5,2.5 0 1 1 470.55,148.27A2.5,2.5 0 1 1 475.55,148.27Z" style="fill:none;stroke:#9F90A3;stroke-width:0.5" />
<path d="M679.76,255.69A2.5,2.5 0 1 1 674.76,255.69A2.5,2.5 0 1 1 679.76,255.69Z" style="fill:none;stroke:#9F90A3;stroke-width:0.5" />
<path d="M883.96,247.89A2.5,2.5 0 1 1 878.96,247.89A2.5,2.5 0 1 1 883.96,247.89Z" style="fill:none;stroke:#9F90A3;stroke-width:0.5" />
<path d="M1088.2,295.83A2.5,2.5 0 1 1 1083.2,295.83A2.5,2.5 0 1 1 1088.2,295.83Z" style="fill:none;stroke:#9F90A3;stroke-width:0.5" />
<path d="M1292.4,327.83A2.5,2.5 0 1 1 1287.4,327.83A2.5,2.5 0 1 1 1292.4,327.83Z" style="fill:none;stroke:#9F90A3;stroke-width:0.5" />
<path d="M1496.6,396.28A2.5,2.5 0 1 1 1491.6,396.28A2.5,2.5 0 1 1 1496.6,396.28Z" style="fill:none;stroke:#9F90A3;stroke-width:0.5" />
<path d="M1700.8,448.04A2.5,2.5 0 1 1 1695.8,448.04A2.5,2.5 0 1 1 1700.8,448.04Z" style="fill:none;stroke:#9F90A3;stroke-width:0.5" />
<path d="M1905,469.67A2.5,2.5 0 1 1 1900,469.67A2.5,2.5 0 1 1 1905,469.67Z" style="fill:none;stroke:#9F90A3;stroke-width:0.5" />
<path d="M64.635,89.685L268.84,169.1L473.05,236.64L677.26,326.74L881.46,400.1L1085.7,676.51L1289.9,742.36L1494.1,922.27L1698.3,1073.1L1902.5,1184.2" style="fill:none;stroke:#E250C4" />
<path d="M67.135,89.685A2.5,2.5 0 1 1 62.135,89.685A2.5,2.5 0 1 1 67.135,89.685Z" style="fill:none;stroke:#E250C4;stroke-width:0.5" />
<path d="M271.34,169.1A2.5,2.5 0 1 1 266.34,169.1A2.5,2.5 0 1 1 271.34,169.1Z" style="fill:none;stroke:#E250C4;stroke-width:0.5" />
<path d="M475.55,236.64A2.5,2.5 0 1 1 470.55,236.64A2.5,2.5 0 1 1 475.55,236.64Z" style="fill:none;stroke:#E250C4;stroke-width:0.5" />
<path d="M679.76,326.74A2.5,2.5 0 1 1 674.76,326.74A2.5,2.5 0 1 1 679.76,326.74Z" style="fill:none;stroke:#E250C4;stroke-width:0.5" />
<path d="M883.96,400.1A2.5,2.5 0 1 1 878.96,400.1A2.5,2.5 0 1 1 883.96,400.1Z" style="fill:none;stroke:#E250C4;stroke-width:0.5" />
<path d="M1088.2,676.51A2.5,2.5 0 1 1 1083.2,676.51A2.5,2.5 0 1 1 1088.2,676.51Z" style="fill:none;stroke:#E250C4;stroke-width:0.5" />
<path d="M1292.4,742.36A2.5,2.5 0 1 1 1287.4,742.36A2.5,2.5 0 1 1 1292.4,742.36Z" style="fill:none;stroke:#E250C4;stroke-width:0.5" />
<path d="M1496.6,922.27A2.5,2.5 0 1 1 1491.6,922.27A2.5,2.5 0 1 1 1496.6,922.27Z" style="fill:none;stroke:#E250C4;stroke-width:0.5" />
<path d="M1700.8,1073.1A2.5,2.5 0 1 1 1695.8,1073.1A2.5,2.5 0 1 1 1700.8,1073.1Z" style="fill:none;stroke:#E250C4;stroke-width:0.5" />
<path d="M1905,1184.2A2.5,2.5 0 1 1 1900,1184.2A2.5,2.5 0 1 1 1905,1184.2Z" style="fill:none;stroke:#E250C4;stroke-width:0.5" />
<path d="M64.635,64.222L268.84,125.03L473.05,195.83L677.26,252.65L881.46,321.77L1085.7,383.3L1289.9,439.97L1494.1,669.07L1698.3,784.29L1902.5,1000.8" style="fill:none;stroke:#9DA7C6" />
<path d="M67.135,64.222A2.5,2.5 0 1 1 62.135,64.222A2.5,2.5 0 1 1 67.135,64.222Z" style="fill:none;stroke:#9DA7C6;stroke-width:0.5" />
<path d="M271.34,125.03A2.5,2.5 0 1 1 266.34,125.03A2.5,2.5 0 1 1 271.34,125.03Z" style="fill:none;stroke:#9DA7C6;stroke-width:0.5" />
<path d="M475.55,195.83A2.5,2.5 0 1 1 470.55,195.83A2.5,2.5 0 1 1 475.55,195.83Z" style="fill:none;stroke:#9DA7C6;stroke-width:0.5" />
<path d="M679.76,252.65A2.5,2.5 0 1 1 674.76,252.65A2.5,2.5 0 1 1 679.76,252.65Z" style="fill:none;stroke:#9DA7C6;stroke-width:0.5" />
<path d="M883.96,321.77A2.5,2.5 0 1 1 878.96,321.77A2.5,2.5 0 1 1 883.96,321.77Z" style="fill:none;stroke:#9DA7C6;stroke-width:0.5" />
<path d="M1088.2,383.3A2.5,2.5 0 1 1 1083.2,383.3A2.5,2.5 0 1 1 1088.2,383.3Z" style="fill:none;stroke:#9DA7C6;stroke-width:0.5" />
<path d="M1292.4,439.97A2.5,2.5 0 1 1 1287.4,439.97A2.5,2.5 0 1 1 1292.4,439.97Z" style="fill:none;stroke:#9DA7C6;stroke-width:0.5" />
<path d="M1496.6,669.07A2.5,2.5 0 1 1 1491.6,669.07A2.5,2.5 0 1 1 1496.6,669.07Z" style="fill:none;stroke:#9DA7C6;stroke-width:0.5" />
<path d="M1700.8,784.29A2.5,2.5 0 1 1 1695.8,784.29A2.5,2.5 0 1 1 1700.8,784.29Z" style="fill:none;stroke:#9DA7C6;stroke-width:0.5" />
<path d="M1905,1000.8A2.5,2.5 0 1 1 1900,1000.8A2.5,2.5 0 1 1 1905,1000.8Z" style="fill:none;stroke:#9DA7C6;stroke-width:0.5" />
<path d="M64.635,65.146L268.84,128.65L473.05,240.66L677.26,276.23L881.46,328.22L1085.7,564.9L1289.9,587.17L1494.1,592.28L1698.3,614.25L1902.5,654.12" style="fill:none;stroke:#305DC5" />
<path d="M67.135,65.146A2.5,2.5 0 1 1 62.135,65.146A2.5,2.5 0 1 1 67.135,65.146Z" style="fill:none;stroke:#305DC5;stroke-width:0.5" />
<path d="M271.34,128.65A2.5,2.5 0 1 1 266.34,128.65A2.5,2.5 0 1 1 271.34,128.65Z" style="fill:none;stroke:#305DC5;stroke-width:0.5" />
<path d="M475.55,240.66A2.5,2.5 0 1 1 470.55,240.66A2.5,2.5 0 1 1 475.55,240.66Z" style="fill:none;stroke:#305DC5;stroke-width:0.5" />
<path d="M679.76,276.23A2.5,2.5 0 1 1 674.76,276.23A2.5,2.5 0 1 1 679.76,276.23Z" style="fill:none;stroke:#305DC5;stroke-width:0.5" />
<path d="M883.96,328.22A2.5,2.5 0 1 1 878.96,328.22A2.5,2.5 0 1 1 883.96,328.22Z" style="fill:none;stroke:#305DC5;stroke-width:0.5" />
<path d="M1088.2,564.9A2.5,2.5 0 1 1 1083.2,564.9A2.5,2.5 0 1 1 1088.2,564.9Z" style="fill:none;stroke:#305DC5;stroke-width:0.5" />
<path d="M1292.4,587.17A2.5,2.5 0 1 1 1287.4,587.17A2.5,2.5 0 1 1 1292.4,587.17Z" style="fill:none;stroke:#305DC5;stroke-width:0.5" />
<path d="M1496.6,592.28A2.5,2.5 0 1 1 1491.6,592.28A2.5,2.5 0 1 1 1496.6,592.28Z" style="fill:none;stroke:#305DC5;stroke-width:0.5" />
<path d="M1700.8,614.25A2.5,2.5 0 1 1 1695.8,614.25A2.5,2.5 0 1 1 1700.8,614.25Z" style="fill:none;stroke:#305DC5;stroke-width:0.5" />
<path d="M1905,654.12A2.5,2.5 0 1 1 1900,654.12A2.5,2.5 0 1 1 1905,654.12Z" style="fill:none;stroke:#305DC5;stroke-width:0.5" />
<path d="M1900,75.852L1920,75.852" style="fill:none;stroke:#9F90A3" />
<path d="M1912.5,75.852A2.5,2.5 0 1 1 1907.5,75.852A2.5,2.5 0 1 1 1912.5,75.852Z" style="fill:none;stroke:#9F90A3;stroke-width:0.5" />
<text x="1784.7" y="-73.364" transform="scale(1, -1)"
	style="font-family:Liberation Serif;font-variant:normal;font-weight:normal;font-style:normal;font-size:12px">preallocated std::vector</text>
<path d="M1900,65.668L1920,65.668" style="fill:none;stroke:#E250C4" />
<path d="M1912.5,65.668A2.5,2.5 0 1 1 1907.5,65.668A2.5,2.5 0 1 1 1912.5,65.668Z" style="fill:none;stroke:#E250C4;stroke-width:0.5" />
<text x="1861.7" y="-63.181" transform="scale(1, -1)"
	style="font-family:Liberation Serif;font-variant:normal;font-weight:normal;font-style:normal;font-size:12px">std::list</text>
<path d="M1900,55.484L1920,55.484" style="fill:none;stroke:#9DA7C6" />
<path d="M1912.5,55.484A2.5,2.5 0 1 1 1907.5,55.484A2.5,2.5 0 1 1 1912.5,55.484Z" style="fill:none;stroke:#9DA7C6;stroke-width:0.5" />
<text x="1847.7" y="-52.997" transform="scale(1, -1)"
	style="font-family:Liberation Serif;font-variant:normal;font-weight:normal;font-style:normal;font-size:12px">std::deque</text>
<path d="M1900,45.301L1920,45.301" style="fill:none;stroke:#305DC5" />
<path d="M1912.5,45.301A2.5,2.5 0 1 1 1907.5,45.301A2.5,2.5 0 1 1 1912.5,45.301Z" style="fill:none;stroke:#305DC5;stroke-width:0.5" />
<text x="1846.3" y="-42.813" transform="scale(1, -1)"
	style="font-family:Liberation Serif;font-variant:normal;font-weight:normal;font-style:normal;font-size:12px">std::vector</text>
</g>
</svg>
