<?xml version="1.0"?>
<!-- Generated by SVGo and Plotinum VG -->
<svg width="1920pt" height="1200pt" viewBox="0 0 1920 1200"
	xmlns="http://www.w3.org/2000/svg"
	xmlns:xlink="http://www.w3.org/1999/xlink">
<g transform="scale(1, -1) translate(0, -1200)">
<path d="M0,0L1920,0L1920,1200L0,1200Z" style="fill:#FFFFFF" />
<text x="908.18" y="-1190.6" transform="scale(1, -1)"
	style="font-family:Liberation Serif;font-variant:normal;font-weight:normal;font-style:normal;font-size:12px">pushback - Log Scale</text>
<text x="925.83" y="-3.9023" transform="scale(1, -1)"
	style="font-family:Liberation Serif;font-variant:normal;font-weight:normal;font-style:normal;font-size:12px">Number of elements</text>
<text x="32.135" y="-16.541" transform="scale(1, -1)"
	style="font-family:Liberation Serif;font-variant:normal;font-weight:normal;font-style:normal;font-size:10px">100000</text>
<text x="238.29" y="-16.541" transform="scale(1, -1)"
	style="font-family:Liberation Serif;font-variant:normal;font-weight:normal;font-style:normal;font-size:10px">200000</text>
<text x="444.44" y="-16.541" transform="scale(1, -1)"
	style="font-family:Liberation Serif;font-variant:normal;font-weight:normal;font-style:normal;font-size:10px">300000</text>
<text x="650.59" y="-16.541" transform="scale(1, -1)"
	style="font-family:Liberation Serif;font-variant:normal;font-weight:normal;font-style:normal;font-size:10px">400000</text>
<text x="856.74" y="-16.541" transform="scale(1, -1)"
	style="font-family:Liberation Serif;font-variant:normal;font-weight:normal;font-style:normal;font-size:10px">500000</text>
<text x="1062.9" y="-16.541" transform="scale(1, -1)"
	style="font-family:Liberation Serif;font-variant:normal;font-weight:normal;font-style:normal;font-size:10px">600000</text>
<text x="1269" y="-16.541" transform="scale(1, -1)"
	style="font-family:Liberation Serif;font-variant:normal;font-weight:normal;font-style:normal;font-size:10px">700000</text>
<text x="1475.2" y="-16.541" transform="scale(1, -1)"
	style="font-family:Liberation Serif;font-variant:normal;font-weight:normal;font-style:normal;font-size:10px">800000</text>
<text x="1681.3" y="-16.541" transform="scale(1, -1)"
	style="font-family:Liberation Serif;font-variant:normal;font-weight:normal;font-style:normal;font-size:10px">900000</text>
<text x="1885" y="-16.541" transform="scale(1, -1)"
	style="font-family:Liberation Serif;font-variant:normal;font-weight:normal;font-style:normal;font-size:10px">1000000</text>
<path d="M47.135,24.363L47.135,32.363" style="fill:none;stroke:#000000;stroke-width:0.5" />
<path d="M253.29,24.363L253.29,32.363" style="fill:none;stroke:#000000;stroke-width:0.5" />
<path d="M459.44,24.363L459.44,32.363" style="fill:none;stroke:#000000;stroke-width:0.5" />
<path d="M665.59,24.363L665.59,32.363" style="fill:none;stroke:#000000;stroke-width:0.5" />
<path d="M871.74,24.363L871.74,32.363" style="fill:none;stroke:#000000;stroke-width:0.5" />
<path d="M1077.9,24.363L1077.9,32.363" style="fill:none;stroke:#000000;stroke-width:0.5" />
<path d="M1284,24.363L1284,32.363" style="fill:none;stroke:#000000;stroke-width:0.5" />
<path d="M1490.2,24.363L1490.2,32.363" style="fill:none;stroke:#000000;stroke-width:0.5" />
<path d="M1696.3,24.363L1696.3,32.363" style="fill:none;stroke:#000000;stroke-width:0.5" />
<path d="M1902.5,24.363L1902.5,32.363" style="fill:none;stroke:#000000;stroke-width:0.5" />
<path d="M47.135,32.363L1902.5,32.363" style="fill:none;stroke:#000000;stroke-width:0.5" />
<g transform="rotate(90)">
<text x="596.25" y="9.3867" transform="scale(1, -1)"
	style="font-family:Liberation Serif;font-variant:normal;font-weight:normal;font-style:normal;font-size:12px">log(μs)</text>
</g>
<text x="15.885" y="-284.83" transform="scale(1, -1)"
	style="font-family:Liberation Serif;font-variant:normal;font-weight:normal;font-style:normal;font-size:10px">4.5</text>
<text x="15.885" y="-713.26" transform="scale(1, -1)"
	style="font-family:Liberation Serif;font-variant:normal;font-weight:normal;font-style:normal;font-size:10px">5.0</text>
<text x="15.885" y="-1100.8" transform="scale(1, -1)"
	style="font-family:Liberation Serif;font-variant:normal;font-weight:normal;font-style:normal;font-size:10px">5.5</text>
<path d="M30.885,287.12L38.885,287.12" style="fill:none;stroke:#000000;stroke-width:0.5" />
<path d="M30.885,715.55L38.885,715.55" style="fill:none;stroke:#000000;stroke-width:0.5" />
<path d="M30.885,1103.1L38.885,1103.1" style="fill:none;stroke:#000000;stroke-width:0.5" />
<path d="M34.885,102.25L38.885,102.25" style="fill:none;stroke:#000000;stroke-width:0.5" />
<path d="M34.885,195.73L38.885,195.73" style="fill:none;stroke:#000000;stroke-width:0.5" />
<path d="M34.885,376.49L38.885,376.49" style="fill:none;stroke:#000000;stroke-width:0.5" />
<path d="M34.885,463.94L38.885,463.94" style="fill:none;stroke:#000000;stroke-width:0.5" />
<path d="M34.885,549.55L38.885,549.55" style="fill:none;stroke:#000000;stroke-width:0.5" />
<path d="M34.885,633.39L38.885,633.39" style="fill:none;stroke:#000000;stroke-width:0.5" />
<path d="M34.885,796.07L38.885,796.07" style="fill:none;stroke:#000000;stroke-width:0.5" />
<path d="M34.885,875.03L38.885,875.03" style="fill:none;stroke:#000000;stroke-width:0.5" />
<path d="M34.885,952.48L38.885,952.48" style="fill:none;stroke:#000000;stroke-width:0.5" />
<path d="M34.885,1028.5L38.885,1028.5" style="fill:none;stroke:#000000;stroke-width:0.5" />
<path d="M34.885,1176.4L38.885,1176.4" style="fill:none;stroke:#000000;stroke-width:0.5" />
<path d="M38.885,42.709L38.885,1184.2" style="fill:none;stroke:#000000;stroke-width:0.5" />
<path d="M47.135,42.709L47.135,1184.2" style="fill:none;stroke:#808080;stroke-width:0.25" />
<path d="M253.29,42.709L253.29,1184.2" style="fill:none;stroke:#808080;stroke-width:0.25" />
<path d="M459.44,42.709L459.44,1184.2" style="fill:none;stroke:#808080;stroke-width:0.25" />
<path d="M665.59,42.709L665.59,1184.2" style="fill:none;stroke:#808080;stroke-width:0.25" />
<path d="M871.74,42.709L871.74,1184.2" style="fill:none;stroke:#808080;stroke-width:0.25" />
<path d="M1077.9,42.709L1077.9,1184.2" style="fill:none;stroke:#808080;stroke-width:0.25" />
<path d="M1284,42.709L1284,1184.2" style="fill:none;stroke:#808080;stroke-width:0.25" />
<path d="M1490.2,42.709L1490.2,1184.2" style="fill:none;stroke:#808080;stroke-width:0.25" />
<path d="M1696.3,42.709L1696.3,1184.2" style="fill:none;stroke:#808080;stroke-width:0.25" />
<path d="M1902.5,42.709L1902.5,1184.2" style="fill:none;stroke:#808080;stroke-width:0.25" />
<path d="M47.135,287.12L1902.5,287.12" style="fill:none;stroke:#808080;stroke-width:0.25" />
<path d="M47.135,715.55L1902.5,715.55" style="fill:none;stroke:#808080;stroke-width:0.25" />
<path d="M47.135,1103.1L1902.5,1103.1" style="fill:none;stroke:#808080;stroke-width:0.25" />
<path d="M47.135,316.5L253.29,613.57L459.44,749.8L665.59,833.4L871.74,907.2L1077.9,986.07L1284,1033.6L1490.2,1079.6L1696.3,1122.7L1902.5,1168.7" style="fill:none;stroke:#000000" />
<path d="M49.635,316.5A2.5,2.5 0 1 1 44.635,316.5A2.5,2.5 0 1 1 49.635,316.5Z" style="fill:none;stroke:#000000;stroke-width:0.5" />
<path d="M255.79,613.57A2.5,2.5 0 1 1 250.79,613.57A2.5,2.5 0 1 1 255.79,613.57Z" style="fill:none;stroke:#000000;stroke-width:0.5" />
<path d="M461.94,749.8A2.5,2.5 0 1 1 456.94,749.8A2.5,2.5 0 1 1 461.94,749.8Z" style="fill:none;stroke:#000000;stroke-width:0.5" />
<path d="M668.09,833.4A2.5,2.5 0 1 1 663.09,833.4A2.5,2.5 0 1 1 668.09,833.4Z" style="fill:none;stroke:#000000;stroke-width:0.5" />
<path d="M874.24,907.2A2.5,2.5 0 1 1 869.24,907.2A2.5,2.5 0 1 1 874.24,907.2Z" style="fill:none;stroke:#000000;stroke-width:0.5" />
<path d="M1080.4,986.07A2.5,2.5 0 1 1 1075.4,986.07A2.5,2.5 0 1 1 1080.4,986.07Z" style="fill:none;stroke:#000000;stroke-width:0.5" />
<path d="M1286.5,1033.6A2.5,2.5 0 1 1 1281.5,1033.6A2.5,2.5 0 1 1 1286.5,1033.6Z" style="fill:none;stroke:#000000;stroke-width:0.5" />
<path d="M1492.7,1079.6A2.5,2.5 0 1 1 1487.7,1079.6A2.5,2.5 0 1 1 1492.7,1079.6Z" style="fill:none;stroke:#000000;stroke-width:0.5" />
<path d="M1698.8,1122.7A2.5,2.5 0 1 1 1693.8,1122.7A2.5,2.5 0 1 1 1698.8,1122.7Z" style="fill:none;stroke:#000000;stroke-width:0.5" />
<path d="M1905,1168.7A2.5,2.5 0 1 1 1900,1168.7A2.5,2.5 0 1 1 1905,1168.7Z" style="fill:none;stroke:#000000;stroke-width:0.5" />
<path d="M47.135,336.54L253.29,623.54L459.44,759.91L665.59,904.86L871.74,945.44L1077.9,1001.2L1284,1075.2L1490.2,1106.2L1696.3,1147.6L1902.5,1184.2" style="fill:none;stroke:#000000" />
<path d="M49.635,336.54A2.5,2.5 0 1 1 44.635,336.54A2.5,2.5 0 1 1 49.635,336.54Z" style="fill:none;stroke:#000000;stroke-width:0.5" />
<path d="M255.79,623.54A2.5,2.5 0 1 1 250.79,623.54A2.5,2.5 0 1 1 255.79,623.54Z" style="fill:none;stroke:#000000;stroke-width:0.5" />
<path d="M461.94,759.91A2.5,2.5 0 1 1 456.94,759.91A2.5,2.5 0 1 1 461.94,759.91Z" style="fill:none;stroke:#000000;stroke-width:0.5" />
<path d="M668.09,904.86A2.5,2.5 0 1 1 663.09,904.86A2.5,2.5 0 1 1 668.09,904.86Z" style="fill:none;stroke:#000000;stroke-width:0.5" />
<path d="M874.24,945.44A2.5,2.5 0 1 1 869.24,945.44A2.5,2.5 0 1 1 874.24,945.44Z" style="fill:none;stroke:#000000;stroke-width:0.5" />
<path d="M1080.4,1001.2A2.5,2.5 0 1 1 1075.4,1001.2A2.5,2.5 0 1 1 1080.4,1001.2Z" style="fill:none;stroke:#000000;stroke-width:0.5" />
<path d="M1286.5,1075.2A2.5,2.5 0 1 1 1281.5,1075.2A2.5,2.5 0 1 1 1286.5,1075.2Z" style="fill:none;stroke:#000000;stroke-width:0.5" />
<path d="M1492.7,1106.2A2.5,2.5 0 1 1 1487.7,1106.2A2.5,2.5 0 1 1 1492.7,1106.2Z" style="fill:none;stroke:#000000;stroke-width:0.5" />
<path d="M1698.8,1147.6A2.5,2.5 0 1 1 1693.8,1147.6A2.5,2.5 0 1 1 1698.8,1147.6Z" style="fill:none;stroke:#000000;stroke-width:0.5" />
<path d="M1905,1184.2A2.5,2.5 0 1 1 1900,1184.2A2.5,2.5 0 1 1 1905,1184.2Z" style="fill:none;stroke:#000000;stroke-width:0.5" />
<path d="M47.135,382.89L253.29,668.32L459.44,842.97L665.59,830.34L871.74,939.56L1077.9,1055.8L1284,1064.4L1490.2,1080.9L1696.3,1110.4L1902.5,1111.9" style="fill:none;stroke:#000000" />
<path d="M49.635,382.89A2.5,2.5 0 1 1 44.635,382.89A2.5,2.5 0 1 1 49.635,382.89Z" style="fill:none;stroke:#000000;stroke-width:0.5" />
<path d="M255.79,668.32A2.5,2.5 0 1 1 250.79,668.32A2.5,2.5 0 1 1 255.79,668.32Z" style="fill:none;stroke:#000000;stroke-width:0.5" />
<path d="M461.94,842.97A2.5,2.5 0 1 1 456.94,842.97A2.5,2.5 0 1 1 461.94,842.97Z" style="fill:none;stroke:#000000;stroke-width:0.5" />
<path d="M668.09,830.34A2.5,2.5 0 1 1 663.09,830.34A2.5,2.5 0 1 1 668.09,830.34Z" style="fill:none;stroke:#000000;stroke-width:0.5" />
<path d="M874.24,939.56A2.5,2.5 0 1 1 869.24,939.56A2.5,2.5 0 1 1 874.24,939.56Z" style="fill:none;stroke:#000000;stroke-width:0.5" />
<path d="M1080.4,1055.8A2.5,2.5 0 1 1 1075.4,1055.8A2.5,2.5 0 1 1 1080.4,1055.8Z" style="fill:none;stroke:#000000;stroke-width:0.5" />
<path d="M1286.5,1064.4A2.5,2.5 0 1 1 1281.5,1064.4A2.5,2.5 0 1 1 1286.5,1064.4Z" style="fill:none;stroke:#000000;stroke-width:0.5" />
<path d="M1492.7,1080.9A2.5,2.5 0 1 1 1487.7,1080.9A2.5,2.5 0 1 1 1492.7,1080.9Z" style="fill:none;stroke:#000000;stroke-width:0.5" />
<path d="M1698.8,1110.4A2.5,2.5 0 1 1 1693.8,1110.4A2.5,2.5 0 1 1 1698.8,1110.4Z" style="fill:none;stroke:#000000;stroke-width:0.5" />
<path d="M1905,1111.9A2.5,2.5 0 1 1 1900,1111.9A2.5,2.5 0 1 1 1905,1111.9Z" style="fill:none;stroke:#000000;stroke-width:0.5" />
<path d="M47.135,42.709L253.29,322.99L459.44,485.15L665.59,595.64L871.74,698.96L1077.9,725.06L1284,778.64L1490.2,866.16L1696.3,912.62L1902.5,908.99" style="fill:none;stroke:#000000" />
<path d="M49.635,42.709A2.5,2.5 0 1 1 44.635,42.709A2.5,2.5 0 1 1 49.635,42.709Z" style="fill:none;stroke:#000000;stroke-width:0.5" />
<path d="M255.79,322.99A2.5,2.5 0 1 1 250.79,322.99A2.5,2.5 0 1 1 255.79,322.99Z" style="fill:none;stroke:#000000;stroke-width:0.5" />
<path d="M461.94,485.15A2.5,2.5 0 1 1 456.94,485.15A2.5,2.5 0 1 1 461.94,485.15Z" style="fill:none;stroke:#000000;stroke-width:0.5" />
<path d="M668.09,595.64A2.5,2.5 0 1 1 663.09,595.64A2.5,2.5 0 1 1 668.09,595.64Z" style="fill:none;stroke:#000000;stroke-width:0.5" />
<path d="M874.24,698.96A2.5,2.5 0 1 1 869.24,698.96A2.5,2.5 0 1 1 874.24,698.96Z" style="fill:none;stroke:#000000;stroke-width:0.5" />
<path d="M1080.4,725.06A2.5,2.5 0 1 1 1075.4,725.06A2.5,2.5 0 1 1 1080.4,725.06Z" style="fill:none;stroke:#000000;stroke-width:0.5" />
<path d="M1286.5,778.64A2.5,2.5 0 1 1 1281.5,778.64A2.5,2.5 0 1 1 1286.5,778.64Z" style="fill:none;stroke:#000000;stroke-width:0.5" />
<path d="M1492.7,866.16A2.5,2.5 0 1 1 1487.7,866.16A2.5,2.5 0 1 1 1492.7,866.16Z" style="fill:none;stroke:#000000;stroke-width:0.5" />
<path d="M1698.8,912.62A2.5,2.5 0 1 1 1693.8,912.62A2.5,2.5 0 1 1 1698.8,912.62Z" style="fill:none;stroke:#000000;stroke-width:0.5" />
<path d="M1905,908.99A2.5,2.5 0 1 1 1900,908.99A2.5,2.5 0 1 1 1905,908.99Z" style="fill:none;stroke:#000000;stroke-width:0.5" />
<path d="M1900,75.852L1920,75.852" style="fill:none;stroke:#000000" />
<path d="M1912.5,75.852A2.5,2.5 0 1 1 1907.5,75.852A2.5,2.5 0 1 1 1912.5,75.852Z" style="fill:none;stroke:#000000;stroke-width:0.5" />
<text x="1861.7" y="-73.364" transform="scale(1, -1)"
	style="font-family:Liberation Serif;font-variant:normal;font-weight:normal;font-style:normal;font-size:12px">std::list</text>
<path d="M1900,65.668L1920,65.668" style="fill:none;stroke:#000000" />
<path d="M1912.5,65.668A2.5,2.5 0 1 1 1907.5,65.668A2.5,2.5 0 1 1 1912.5,65.668Z" style="fill:none;stroke:#000000;stroke-width:0.5" />
<text x="1847.7" y="-63.181" transform="scale(1, -1)"
	style="font-family:Liberation Serif;font-variant:normal;font-weight:normal;font-style:normal;font-size:12px">std::deque</text>
<path d="M1900,55.484L1920,55.484" style="fill:none;stroke:#000000" />
<path d="M1912.5,55.484A2.5,2.5 0 1 1 1907.5,55.484A2.5,2.5 0 1 1 1912.5,55.484Z" style="fill:none;stroke:#000000;stroke-width:0.5" />
<text x="1846.3" y="-52.997" transform="scale(1, -1)"
	style="font-family:Liberation Serif;font-variant:normal;font-weight:normal;font-style:normal;font-size:12px">std::vector</text>
<path d="M1900,45.301L1920,45.301" style="fill:none;stroke:#000000" />
<path d="M1912.5,45.301A2.5,2.5 0 1 1 1907.5,45.301A2.5,2.5 0 1 1 1912.5,45.301Z" style="fill:none;stroke:#000000;stroke-width:0.5" />
<text x="1784.7" y="-42.813" transform="scale(1, -1)"
	style="font-family:Liberation Serif;font-variant:normal;font-weight:normal;font-style:normal;font-size:12px">preallocated std::vector</text>
</g>
</svg>
