<?xml version="1.0"?>
<!-- Generated by SVGo and Plotinum VG -->
<svg width="1920pt" height="1080pt" viewBox="0 0 1920 1080"
	xmlns="http://www.w3.org/2000/svg"
	xmlns:xlink="http://www.w3.org/1999/xlink">
<g transform="scale(1, -1) translate(0, -1080)">
<path d="M0,0L1920,0L1920,1080L0,1080Z" style="fill:#FFFFFF" />
<text x="865.58" y="-1040.9" transform="scale(1, -1)"
	style="font-family:Liberation Serif;font-variant:normal;font-weight:normal;font-style:normal;font-size:50px">pushback</text>
<text x="876.52" y="-9.7559" transform="scale(1, -1)"
	style="font-family:Liberation Serif;font-variant:normal;font-weight:normal;font-style:normal;font-size:30px">Number of elements</text>
<text x="82.962" y="-39.727" transform="scale(1, -1)"
	style="font-family:Liberation Serif;font-variant:normal;font-weight:normal;font-style:normal;font-size:20px">100000</text>
<text x="279.86" y="-39.727" transform="scale(1, -1)"
	style="font-family:Liberation Serif;font-variant:normal;font-weight:normal;font-style:normal;font-size:20px">200000</text>
<text x="476.75" y="-39.727" transform="scale(1, -1)"
	style="font-family:Liberation Serif;font-variant:normal;font-weight:normal;font-style:normal;font-size:20px">300000</text>
<text x="673.64" y="-39.727" transform="scale(1, -1)"
	style="font-family:Liberation Serif;font-variant:normal;font-weight:normal;font-style:normal;font-size:20px">400000</text>
<text x="870.53" y="-39.727" transform="scale(1, -1)"
	style="font-family:Liberation Serif;font-variant:normal;font-weight:normal;font-style:normal;font-size:20px">500000</text>
<text x="1067.4" y="-39.727" transform="scale(1, -1)"
	style="font-family:Liberation Serif;font-variant:normal;font-weight:normal;font-style:normal;font-size:20px">600000</text>
<text x="1264.3" y="-39.727" transform="scale(1, -1)"
	style="font-family:Liberation Serif;font-variant:normal;font-weight:normal;font-style:normal;font-size:20px">700000</text>
<text x="1461.2" y="-39.727" transform="scale(1, -1)"
	style="font-family:Liberation Serif;font-variant:normal;font-weight:normal;font-style:normal;font-size:20px">800000</text>
<text x="1658.1" y="-39.727" transform="scale(1, -1)"
	style="font-family:Liberation Serif;font-variant:normal;font-weight:normal;font-style:normal;font-size:20px">900000</text>
<text x="1850" y="-39.727" transform="scale(1, -1)"
	style="font-family:Liberation Serif;font-variant:normal;font-weight:normal;font-style:normal;font-size:20px">1000000</text>
<path d="M112.96,55.371L112.96,63.371" style="fill:none;stroke:#000000;stroke-width:0.5" />
<path d="M309.86,55.371L309.86,63.371" style="fill:none;stroke:#000000;stroke-width:0.5" />
<path d="M506.75,55.371L506.75,63.371" style="fill:none;stroke:#000000;stroke-width:0.5" />
<path d="M703.64,55.371L703.64,63.371" style="fill:none;stroke:#000000;stroke-width:0.5" />
<path d="M900.53,55.371L900.53,63.371" style="fill:none;stroke:#000000;stroke-width:0.5" />
<path d="M1097.4,55.371L1097.4,63.371" style="fill:none;stroke:#000000;stroke-width:0.5" />
<path d="M1294.3,55.371L1294.3,63.371" style="fill:none;stroke:#000000;stroke-width:0.5" />
<path d="M1491.2,55.371L1491.2,63.371" style="fill:none;stroke:#000000;stroke-width:0.5" />
<path d="M1688.1,55.371L1688.1,63.371" style="fill:none;stroke:#000000;stroke-width:0.5" />
<path d="M1885,55.371L1885,63.371" style="fill:none;stroke:#000000;stroke-width:0.5" />
<path d="M112.96,63.371L1885,63.371" style="fill:none;stroke:#000000;stroke-width:0.5" />
<g transform="rotate(90)">
<text x="537.24" y="23.467" transform="scale(1, -1)"
	style="font-family:Liberation Serif;font-variant:normal;font-weight:normal;font-style:normal;font-size:30px">μs</text>
</g>
<text x="39.712" y="-189.64" transform="scale(1, -1)"
	style="font-family:Liberation Serif;font-variant:normal;font-weight:normal;font-style:normal;font-size:20px">10000</text>
<text x="39.712" y="-350.58" transform="scale(1, -1)"
	style="font-family:Liberation Serif;font-variant:normal;font-weight:normal;font-style:normal;font-size:20px">20000</text>
<text x="39.712" y="-511.51" transform="scale(1, -1)"
	style="font-family:Liberation Serif;font-variant:normal;font-weight:normal;font-style:normal;font-size:20px">30000</text>
<text x="39.712" y="-672.45" transform="scale(1, -1)"
	style="font-family:Liberation Serif;font-variant:normal;font-weight:normal;font-style:normal;font-size:20px">40000</text>
<text x="39.712" y="-833.39" transform="scale(1, -1)"
	style="font-family:Liberation Serif;font-variant:normal;font-weight:normal;font-style:normal;font-size:20px">50000</text>
<text x="39.712" y="-994.33" transform="scale(1, -1)"
	style="font-family:Liberation Serif;font-variant:normal;font-weight:normal;font-style:normal;font-size:20px">60000</text>
<path d="M94.712,194.21L102.71,194.21" style="fill:none;stroke:#000000;stroke-width:0.5" />
<path d="M94.712,355.15L102.71,355.15" style="fill:none;stroke:#000000;stroke-width:0.5" />
<path d="M94.712,516.08L102.71,516.08" style="fill:none;stroke:#000000;stroke-width:0.5" />
<path d="M94.712,677.02L102.71,677.02" style="fill:none;stroke:#000000;stroke-width:0.5" />
<path d="M94.712,837.96L102.71,837.96" style="fill:none;stroke:#000000;stroke-width:0.5" />
<path d="M94.712,998.9L102.71,998.9" style="fill:none;stroke:#000000;stroke-width:0.5" />
<path d="M98.712,97.647L102.71,97.647" style="fill:none;stroke:#000000;stroke-width:0.5" />
<path d="M98.712,129.83L102.71,129.83" style="fill:none;stroke:#000000;stroke-width:0.5" />
<path d="M98.712,162.02L102.71,162.02" style="fill:none;stroke:#000000;stroke-width:0.5" />
<path d="M98.712,226.4L102.71,226.4" style="fill:none;stroke:#000000;stroke-width:0.5" />
<path d="M98.712,258.58L102.71,258.58" style="fill:none;stroke:#000000;stroke-width:0.5" />
<path d="M98.712,290.77L102.71,290.77" style="fill:none;stroke:#000000;stroke-width:0.5" />
<path d="M98.712,322.96L102.71,322.96" style="fill:none;stroke:#000000;stroke-width:0.5" />
<path d="M98.712,387.33L102.71,387.33" style="fill:none;stroke:#000000;stroke-width:0.5" />
<path d="M98.712,419.52L102.71,419.52" style="fill:none;stroke:#000000;stroke-width:0.5" />
<path d="M98.712,451.71L102.71,451.71" style="fill:none;stroke:#000000;stroke-width:0.5" />
<path d="M98.712,483.9L102.71,483.9" style="fill:none;stroke:#000000;stroke-width:0.5" />
<path d="M98.712,548.27L102.71,548.27" style="fill:none;stroke:#000000;stroke-width:0.5" />
<path d="M98.712,580.46L102.71,580.46" style="fill:none;stroke:#000000;stroke-width:0.5" />
<path d="M98.712,612.65L102.71,612.65" style="fill:none;stroke:#000000;stroke-width:0.5" />
<path d="M98.712,644.83L102.71,644.83" style="fill:none;stroke:#000000;stroke-width:0.5" />
<path d="M98.712,709.21L102.71,709.21" style="fill:none;stroke:#000000;stroke-width:0.5" />
<path d="M98.712,741.4L102.71,741.4" style="fill:none;stroke:#000000;stroke-width:0.5" />
<path d="M98.712,773.58L102.71,773.58" style="fill:none;stroke:#000000;stroke-width:0.5" />
<path d="M98.712,805.77L102.71,805.77" style="fill:none;stroke:#000000;stroke-width:0.5" />
<path d="M98.712,870.15L102.71,870.15" style="fill:none;stroke:#000000;stroke-width:0.5" />
<path d="M98.712,902.33L102.71,902.33" style="fill:none;stroke:#000000;stroke-width:0.5" />
<path d="M98.712,934.52L102.71,934.52" style="fill:none;stroke:#000000;stroke-width:0.5" />
<path d="M98.712,966.71L102.71,966.71" style="fill:none;stroke:#000000;stroke-width:0.5" />
<path d="M102.71,77.61L102.71,1024.6" style="fill:none;stroke:#000000;stroke-width:0.5" />
<path d="M112.96,77.61L112.96,1024.6" style="fill:none;stroke:#808080;stroke-width:0.25" />
<path d="M309.86,77.61L309.86,1024.6" style="fill:none;stroke:#808080;stroke-width:0.25" />
<path d="M506.75,77.61L506.75,1024.6" style="fill:none;stroke:#808080;stroke-width:0.25" />
<path d="M703.64,77.61L703.64,1024.6" style="fill:none;stroke:#808080;stroke-width:0.25" />
<path d="M900.53,77.61L900.53,1024.6" style="fill:none;stroke:#808080;stroke-width:0.25" />
<path d="M1097.4,77.61L1097.4,1024.6" style="fill:none;stroke:#808080;stroke-width:0.25" />
<path d="M1294.3,77.61L1294.3,1024.6" style="fill:none;stroke:#808080;stroke-width:0.25" />
<path d="M1491.2,77.61L1491.2,1024.6" style="fill:none;stroke:#808080;stroke-width:0.25" />
<path d="M1688.1,77.61L1688.1,1024.6" style="fill:none;stroke:#808080;stroke-width:0.25" />
<path d="M1885,77.61L1885,1024.6" style="fill:none;stroke:#808080;stroke-width:0.25" />
<path d="M112.96,194.21L1885,194.21" style="fill:none;stroke:#808080;stroke-width:0.25" />
<path d="M112.96,355.15L1885,355.15" style="fill:none;stroke:#808080;stroke-width:0.25" />
<path d="M112.96,516.08L1885,516.08" style="fill:none;stroke:#808080;stroke-width:0.25" />
<path d="M112.96,677.02L1885,677.02" style="fill:none;stroke:#808080;stroke-width:0.25" />
<path d="M112.96,837.96L1885,837.96" style="fill:none;stroke:#808080;stroke-width:0.25" />
<path d="M112.96,998.9L1885,998.9" style="fill:none;stroke:#808080;stroke-width:0.25" />
<path d="M112.96,77.61L309.86,125.89L506.75,160.27L703.64,192.09L900.53,227.65L1097.4,298.9L1294.3,350.71L1491.2,377.47L1688.1,408.98L1885,452.26" style="fill:none;stroke:#FF0000" />
<path d="M115.46,77.61A2.5,2.5 0 1 1 110.46,77.61A2.5,2.5 0 1 1 115.46,77.61Z" style="fill:none;stroke:#FF0000;stroke-width:0.5" />
<path d="M312.36,125.89A2.5,2.5 0 1 1 307.36,125.89A2.5,2.5 0 1 1 312.36,125.89Z" style="fill:none;stroke:#FF0000;stroke-width:0.5" />
<path d="M509.25,160.27A2.5,2.5 0 1 1 504.25,160.27A2.5,2.5 0 1 1 509.25,160.27Z" style="fill:none;stroke:#FF0000;stroke-width:0.5" />
<path d="M706.14,192.09A2.5,2.5 0 1 1 701.14,192.09A2.5,2.5 0 1 1 706.14,192.09Z" style="fill:none;stroke:#FF0000;stroke-width:0.5" />
<path d="M903.03,227.65A2.5,2.5 0 1 1 898.03,227.65A2.5,2.5 0 1 1 903.03,227.65Z" style="fill:none;stroke:#FF0000;stroke-width:0.5" />
<path d="M1099.9,298.9A2.5,2.5 0 1 1 1094.9,298.9A2.5,2.5 0 1 1 1099.9,298.9Z" style="fill:none;stroke:#FF0000;stroke-width:0.5" />
<path d="M1296.8,350.71A2.5,2.5 0 1 1 1291.8,350.71A2.5,2.5 0 1 1 1296.8,350.71Z" style="fill:none;stroke:#FF0000;stroke-width:0.5" />
<path d="M1493.7,377.47A2.5,2.5 0 1 1 1488.7,377.47A2.5,2.5 0 1 1 1493.7,377.47Z" style="fill:none;stroke:#FF0000;stroke-width:0.5" />
<path d="M1690.6,408.98A2.5,2.5 0 1 1 1685.6,408.98A2.5,2.5 0 1 1 1690.6,408.98Z" style="fill:none;stroke:#FF0000;stroke-width:0.5" />
<path d="M1887.5,452.26A2.5,2.5 0 1 1 1882.5,452.26A2.5,2.5 0 1 1 1887.5,452.26Z" style="fill:none;stroke:#FF0000;stroke-width:0.5" />
<path d="M112.96,124.33L309.86,233.41L506.75,337.2L703.64,378.27L900.53,496.56L1097.4,588.8L1294.3,685.44L1491.2,781.81L1688.1,830.46L1885,934.51" style="fill:none;stroke:#0000FF" />
<path d="M115.46,124.33A2.5,2.5 0 1 1 110.46,124.33A2.5,2.5 0 1 1 115.46,124.33Z" style="fill:none;stroke:#0000FF;stroke-width:0.5" />
<path d="M312.36,233.41A2.5,2.5 0 1 1 307.36,233.41A2.5,2.5 0 1 1 312.36,233.41Z" style="fill:none;stroke:#0000FF;stroke-width:0.5" />
<path d="M509.25,337.2A2.5,2.5 0 1 1 504.25,337.2A2.5,2.5 0 1 1 509.25,337.2Z" style="fill:none;stroke:#0000FF;stroke-width:0.5" />
<path d="M706.14,378.27A2.5,2.5 0 1 1 701.14,378.27A2.5,2.5 0 1 1 706.14,378.27Z" style="fill:none;stroke:#0000FF;stroke-width:0.5" />
<path d="M903.03,496.56A2.5,2.5 0 1 1 898.03,496.56A2.5,2.5 0 1 1 903.03,496.56Z" style="fill:none;stroke:#0000FF;stroke-width:0.5" />
<path d="M1099.9,588.8A2.5,2.5 0 1 1 1094.9,588.8A2.5,2.5 0 1 1 1099.9,588.8Z" style="fill:none;stroke:#0000FF;stroke-width:0.5" />
<path d="M1296.8,685.44A2.5,2.5 0 1 1 1291.8,685.44A2.5,2.5 0 1 1 1296.8,685.44Z" style="fill:none;stroke:#0000FF;stroke-width:0.5" />
<path d="M1493.7,781.81A2.5,2.5 0 1 1 1488.7,781.81A2.5,2.5 0 1 1 1493.7,781.81Z" style="fill:none;stroke:#0000FF;stroke-width:0.5" />
<path d="M1690.6,830.46A2.5,2.5 0 1 1 1685.6,830.46A2.5,2.5 0 1 1 1690.6,830.46Z" style="fill:none;stroke:#0000FF;stroke-width:0.5" />
<path d="M1887.5,934.51A2.5,2.5 0 1 1 1882.5,934.51A2.5,2.5 0 1 1 1887.5,934.51Z" style="fill:none;stroke:#0000FF;stroke-width:0.5" />
<path d="M112.96,119.84L309.86,136.53L506.75,198.67L703.64,243.47L900.53,316.7L1097.4,449.67L1294.3,530.02L1491.2,534.37L1688.1,608.38L1885,695.88" style="fill:none;stroke:#00FF00" />
<path d="M115.46,119.84A2.5,2.5 0 1 1 110.46,119.84A2.5,2.5 0 1 1 115.46,119.84Z" style="fill:none;stroke:#00FF00;stroke-width:0.5" />
<path d="M312.36,136.53A2.5,2.5 0 1 1 307.36,136.53A2.5,2.5 0 1 1 312.36,136.53Z" style="fill:none;stroke:#00FF00;stroke-width:0.5" />
<path d="M509.25,198.67A2.5,2.5 0 1 1 504.25,198.67A2.5,2.5 0 1 1 509.25,198.67Z" style="fill:none;stroke:#00FF00;stroke-width:0.5" />
<path d="M706.14,243.47A2.5,2.5 0 1 1 701.14,243.47A2.5,2.5 0 1 1 706.14,243.47Z" style="fill:none;stroke:#00FF00;stroke-width:0.5" />
<path d="M903.03,316.7A2.5,2.5 0 1 1 898.03,316.7A2.5,2.5 0 1 1 903.03,316.7Z" style="fill:none;stroke:#00FF00;stroke-width:0.5" />
<path d="M1099.9,449.67A2.5,2.5 0 1 1 1094.9,449.67A2.5,2.5 0 1 1 1099.9,449.67Z" style="fill:none;stroke:#00FF00;stroke-width:0.5" />
<path d="M1296.8,530.02A2.5,2.5 0 1 1 1291.8,530.02A2.5,2.5 0 1 1 1296.8,530.02Z" style="fill:none;stroke:#00FF00;stroke-width:0.5" />
<path d="M1493.7,534.37A2.5,2.5 0 1 1 1488.7,534.37A2.5,2.5 0 1 1 1493.7,534.37Z" style="fill:none;stroke:#00FF00;stroke-width:0.5" />
<path d="M1690.6,608.38A2.5,2.5 0 1 1 1685.6,608.38A2.5,2.5 0 1 1 1690.6,608.38Z" style="fill:none;stroke:#00FF00;stroke-width:0.5" />
<path d="M1887.5,695.88A2.5,2.5 0 1 1 1882.5,695.88A2.5,2.5 0 1 1 1887.5,695.88Z" style="fill:none;stroke:#00FF00;stroke-width:0.5" />
<path d="M112.96,92.32L309.86,130.01L506.75,234.94L703.64,286.52L900.53,335.53L1097.4,452.74L1294.3,465.34L1491.2,544.88L1688.1,563.19L1885,595.23" style="fill:none;stroke:#FF8000" />
<path d="M115.46,92.32A2.5,2.5 0 1 1 110.46,92.32A2.5,2.5 0 1 1 115.46,92.32Z" style="fill:none;stroke:#FF8000;stroke-width:0.5" />
<path d="M312.36,130.01A2.5,2.5 0 1 1 307.36,130.01A2.5,2.5 0 1 1 312.36,130.01Z" style="fill:none;stroke:#FF8000;stroke-width:0.5" />
<path d="M509.25,234.94A2.5,2.5 0 1 1 504.25,234.94A2.5,2.5 0 1 1 509.25,234.94Z" style="fill:none;stroke:#FF8000;stroke-width:0.5" />
<path d="M706.14,286.52A2.5,2.5 0 1 1 701.14,286.52A2.5,2.5 0 1 1 706.14,286.52Z" style="fill:none;stroke:#FF8000;stroke-width:0.5" />
<path d="M903.03,335.53A2.5,2.5 0 1 1 898.03,335.53A2.5,2.5 0 1 1 903.03,335.53Z" style="fill:none;stroke:#FF8000;stroke-width:0.5" />
<path d="M1099.9,452.74A2.5,2.5 0 1 1 1094.9,452.74A2.5,2.5 0 1 1 1099.9,452.74Z" style="fill:none;stroke:#FF8000;stroke-width:0.5" />
<path d="M1296.8,465.34A2.5,2.5 0 1 1 1291.8,465.34A2.5,2.5 0 1 1 1296.8,465.34Z" style="fill:none;stroke:#FF8000;stroke-width:0.5" />
<path d="M1493.7,544.88A2.5,2.5 0 1 1 1488.7,544.88A2.5,2.5 0 1 1 1493.7,544.88Z" style="fill:none;stroke:#FF8000;stroke-width:0.5" />
<path d="M1690.6,563.19A2.5,2.5 0 1 1 1685.6,563.19A2.5,2.5 0 1 1 1690.6,563.19Z" style="fill:none;stroke:#FF8000;stroke-width:0.5" />
<path d="M1887.5,595.23A2.5,2.5 0 1 1 1882.5,595.23A2.5,2.5 0 1 1 1887.5,595.23Z" style="fill:none;stroke:#FF8000;stroke-width:0.5" />
<path d="M1900,146.4L1920,146.4" style="fill:none;stroke:#FF0000" />
<path d="M1912.5,146.4A2.5,2.5 0 1 1 1907.5,146.4A2.5,2.5 0 1 1 1912.5,146.4Z" style="fill:none;stroke:#FF0000;stroke-width:0.5" />
<text x="1669.4" y="-141.42" transform="scale(1, -1)"
	style="font-family:Liberation Serif;font-variant:normal;font-weight:normal;font-style:normal;font-size:24px">preallocated std::vector</text>
<path d="M1900,126.03L1920,126.03" style="fill:none;stroke:#0000FF" />
<path d="M1912.5,126.03A2.5,2.5 0 1 1 1907.5,126.03A2.5,2.5 0 1 1 1912.5,126.03Z" style="fill:none;stroke:#0000FF;stroke-width:0.5" />
<text x="1823.3" y="-121.05" transform="scale(1, -1)"
	style="font-family:Liberation Serif;font-variant:normal;font-weight:normal;font-style:normal;font-size:24px">std::list</text>
<path d="M1900,105.66L1920,105.66" style="fill:none;stroke:#00FF00" />
<path d="M1912.5,105.66A2.5,2.5 0 1 1 1907.5,105.66A2.5,2.5 0 1 1 1912.5,105.66Z" style="fill:none;stroke:#00FF00;stroke-width:0.5" />
<text x="1795.4" y="-100.69" transform="scale(1, -1)"
	style="font-family:Liberation Serif;font-variant:normal;font-weight:normal;font-style:normal;font-size:24px">std::deque</text>
<path d="M1900,85.294L1920,85.294" style="fill:none;stroke:#FF8000" />
<path d="M1912.5,85.294A2.5,2.5 0 1 1 1907.5,85.294A2.5,2.5 0 1 1 1912.5,85.294Z" style="fill:none;stroke:#FF8000;stroke-width:0.5" />
<text x="1792.7" y="-80.319" transform="scale(1, -1)"
	style="font-family:Liberation Serif;font-variant:normal;font-weight:normal;font-style:normal;font-size:24px">std::vector</text>
</g>
</svg>
