<?xml version="1.0"?>
<!-- Generated by SVGo and Plotinum VG -->
<svg width="1920pt" height="1200pt" viewBox="0 0 1920 1200"
	xmlns="http://www.w3.org/2000/svg"
	xmlns:xlink="http://www.w3.org/1999/xlink">
<g transform="scale(1, -1) translate(0, -1200)">
<path d="M0,0L1920,0L1920,1200L0,1200Z" style="fill:#FFFFFF" />
<text x="908.18" y="-1190.6" transform="scale(1, -1)"
	style="font-family:Liberation Serif;font-variant:normal;font-weight:normal;font-style:normal;font-size:12px">pushback - Log Scale</text>
<text x="925.83" y="-3.9023" transform="scale(1, -1)"
	style="font-family:Liberation Serif;font-variant:normal;font-weight:normal;font-style:normal;font-size:12px">Number of elements</text>
<text x="32.135" y="-16.541" transform="scale(1, -1)"
	style="font-family:Liberation Serif;font-variant:normal;font-weight:normal;font-style:normal;font-size:10px">100000</text>
<text x="238.29" y="-16.541" transform="scale(1, -1)"
	style="font-family:Liberation Serif;font-variant:normal;font-weight:normal;font-style:normal;font-size:10px">200000</text>
<text x="444.44" y="-16.541" transform="scale(1, -1)"
	style="font-family:Liberation Serif;font-variant:normal;font-weight:normal;font-style:normal;font-size:10px">300000</text>
<text x="650.59" y="-16.541" transform="scale(1, -1)"
	style="font-family:Liberation Serif;font-variant:normal;font-weight:normal;font-style:normal;font-size:10px">400000</text>
<text x="856.74" y="-16.541" transform="scale(1, -1)"
	style="font-family:Liberation Serif;font-variant:normal;font-weight:normal;font-style:normal;font-size:10px">500000</text>
<text x="1062.9" y="-16.541" transform="scale(1, -1)"
	style="font-family:Liberation Serif;font-variant:normal;font-weight:normal;font-style:normal;font-size:10px">600000</text>
<text x="1269" y="-16.541" transform="scale(1, -1)"
	style="font-family:Liberation Serif;font-variant:normal;font-weight:normal;font-style:normal;font-size:10px">700000</text>
<text x="1475.2" y="-16.541" transform="scale(1, -1)"
	style="font-family:Liberation Serif;font-variant:normal;font-weight:normal;font-style:normal;font-size:10px">800000</text>
<text x="1681.3" y="-16.541" transform="scale(1, -1)"
	style="font-family:Liberation Serif;font-variant:normal;font-weight:normal;font-style:normal;font-size:10px">900000</text>
<text x="1885" y="-16.541" transform="scale(1, -1)"
	style="font-family:Liberation Serif;font-variant:normal;font-weight:normal;font-style:normal;font-size:10px">1000000</text>
<path d="M47.135,24.363L47.135,32.363" style="fill:none;stroke:#000000;stroke-width:0.5" />
<path d="M253.29,24.363L253.29,32.363" style="fill:none;stroke:#000000;stroke-width:0.5" />
<path d="M459.44,24.363L459.44,32.363" style="fill:none;stroke:#000000;stroke-width:0.5" />
<path d="M665.59,24.363L665.59,32.363" style="fill:none;stroke:#000000;stroke-width:0.5" />
<path d="M871.74,24.363L871.74,32.363" style="fill:none;stroke:#000000;stroke-width:0.5" />
<path d="M1077.9,24.363L1077.9,32.363" style="fill:none;stroke:#000000;stroke-width:0.5" />
<path d="M1284,24.363L1284,32.363" style="fill:none;stroke:#000000;stroke-width:0.5" />
<path d="M1490.2,24.363L1490.2,32.363" style="fill:none;stroke:#000000;stroke-width:0.5" />
<path d="M1696.3,24.363L1696.3,32.363" style="fill:none;stroke:#000000;stroke-width:0.5" />
<path d="M1902.5,24.363L1902.5,32.363" style="fill:none;stroke:#000000;stroke-width:0.5" />
<path d="M47.135,32.363L1902.5,32.363" style="fill:none;stroke:#000000;stroke-width:0.5" />
<g transform="rotate(90)">
<text x="596.25" y="9.3867" transform="scale(1, -1)"
	style="font-family:Liberation Serif;font-variant:normal;font-weight:normal;font-style:normal;font-size:12px">log(μs)</text>
</g>
<text x="15.885" y="-51.362" transform="scale(1, -1)"
	style="font-family:Liberation Serif;font-variant:normal;font-weight:normal;font-style:normal;font-size:10px">3.5</text>
<text x="15.885" y="-532.69" transform="scale(1, -1)"
	style="font-family:Liberation Serif;font-variant:normal;font-weight:normal;font-style:normal;font-size:10px">4.0</text>
<text x="15.885" y="-957.26" transform="scale(1, -1)"
	style="font-family:Liberation Serif;font-variant:normal;font-weight:normal;font-style:normal;font-size:10px">4.5</text>
<path d="M30.885,53.647L38.885,53.647" style="fill:none;stroke:#000000;stroke-width:0.5" />
<path d="M30.885,534.98L38.885,534.98" style="fill:none;stroke:#000000;stroke-width:0.5" />
<path d="M30.885,959.54L38.885,959.54" style="fill:none;stroke:#000000;stroke-width:0.5" />
<path d="M34.885,155.19L38.885,155.19" style="fill:none;stroke:#000000;stroke-width:0.5" />
<path d="M34.885,253.96L38.885,253.96" style="fill:none;stroke:#000000;stroke-width:0.5" />
<path d="M34.885,350.09L38.885,350.09" style="fill:none;stroke:#000000;stroke-width:0.5" />
<path d="M34.885,443.72L38.885,443.72" style="fill:none;stroke:#000000;stroke-width:0.5" />
<path d="M34.885,623.99L38.885,623.99" style="fill:none;stroke:#000000;stroke-width:0.5" />
<path d="M34.885,710.85L38.885,710.85" style="fill:none;stroke:#000000;stroke-width:0.5" />
<path d="M34.885,795.67L38.885,795.67" style="fill:none;stroke:#000000;stroke-width:0.5" />
<path d="M34.885,878.54L38.885,878.54" style="fill:none;stroke:#000000;stroke-width:0.5" />
<path d="M34.885,1038.8L38.885,1038.8" style="fill:none;stroke:#000000;stroke-width:0.5" />
<path d="M34.885,1116.3L38.885,1116.3" style="fill:none;stroke:#000000;stroke-width:0.5" />
<path d="M38.885,42.709L38.885,1184.2" style="fill:none;stroke:#000000;stroke-width:0.5" />
<path d="M47.135,42.709L47.135,1184.2" style="fill:none;stroke:#808080;stroke-width:0.25" />
<path d="M253.29,42.709L253.29,1184.2" style="fill:none;stroke:#808080;stroke-width:0.25" />
<path d="M459.44,42.709L459.44,1184.2" style="fill:none;stroke:#808080;stroke-width:0.25" />
<path d="M665.59,42.709L665.59,1184.2" style="fill:none;stroke:#808080;stroke-width:0.25" />
<path d="M871.74,42.709L871.74,1184.2" style="fill:none;stroke:#808080;stroke-width:0.25" />
<path d="M1077.9,42.709L1077.9,1184.2" style="fill:none;stroke:#808080;stroke-width:0.25" />
<path d="M1284,42.709L1284,1184.2" style="fill:none;stroke:#808080;stroke-width:0.25" />
<path d="M1490.2,42.709L1490.2,1184.2" style="fill:none;stroke:#808080;stroke-width:0.25" />
<path d="M1696.3,42.709L1696.3,1184.2" style="fill:none;stroke:#808080;stroke-width:0.25" />
<path d="M1902.5,42.709L1902.5,1184.2" style="fill:none;stroke:#808080;stroke-width:0.25" />
<path d="M47.135,53.647L1902.5,53.647" style="fill:none;stroke:#808080;stroke-width:0.25" />
<path d="M47.135,534.98L1902.5,534.98" style="fill:none;stroke:#808080;stroke-width:0.25" />
<path d="M47.135,959.54L1902.5,959.54" style="fill:none;stroke:#808080;stroke-width:0.25" />
<path d="M47.135,274.02L253.29,576.85L459.44,744.66L665.59,826.59L871.74,927.94L1077.9,989.45L1284,1041.8L1490.2,1160.3L1696.3,1135.2L1902.5,1184.2" style="fill:none;stroke:#000000" />
<path d="M49.635,274.02A2.5,2.5 0 1 1 44.635,274.02A2.5,2.5 0 1 1 49.635,274.02Z" style="fill:none;stroke:#000000;stroke-width:0.5" />
<path d="M255.79,576.85A2.5,2.5 0 1 1 250.79,576.85A2.5,2.5 0 1 1 255.79,576.85Z" style="fill:none;stroke:#000000;stroke-width:0.5" />
<path d="M461.94,744.66A2.5,2.5 0 1 1 456.94,744.66A2.5,2.5 0 1 1 461.94,744.66Z" style="fill:none;stroke:#000000;stroke-width:0.5" />
<path d="M668.09,826.59A2.5,2.5 0 1 1 663.09,826.59A2.5,2.5 0 1 1 668.09,826.59Z" style="fill:none;stroke:#000000;stroke-width:0.5" />
<path d="M874.24,927.94A2.5,2.5 0 1 1 869.24,927.94A2.5,2.5 0 1 1 874.24,927.94Z" style="fill:none;stroke:#000000;stroke-width:0.5" />
<path d="M1080.4,989.45A2.5,2.5 0 1 1 1075.4,989.45A2.5,2.5 0 1 1 1080.4,989.45Z" style="fill:none;stroke:#000000;stroke-width:0.5" />
<path d="M1286.5,1041.8A2.5,2.5 0 1 1 1281.5,1041.8A2.5,2.5 0 1 1 1286.5,1041.8Z" style="fill:none;stroke:#000000;stroke-width:0.5" />
<path d="M1492.7,1160.3A2.5,2.5 0 1 1 1487.7,1160.3A2.5,2.5 0 1 1 1492.7,1160.3Z" style="fill:none;stroke:#000000;stroke-width:0.5" />
<path d="M1698.8,1135.2A2.5,2.5 0 1 1 1693.8,1135.2A2.5,2.5 0 1 1 1698.8,1135.2Z" style="fill:none;stroke:#000000;stroke-width:0.5" />
<path d="M1905,1184.2A2.5,2.5 0 1 1 1900,1184.2A2.5,2.5 0 1 1 1905,1184.2Z" style="fill:none;stroke:#000000;stroke-width:0.5" />
<path d="M47.135,316.66L253.29,386.51L459.44,578.72L665.59,690.15L871.74,775.59L1077.9,877.33L1284,935.48L1490.2,985.95L1696.3,1071.6L1902.5,1076.6" style="fill:none;stroke:#000000" />
<path d="M49.635,316.66A2.5,2.5 0 1 1 44.635,316.66A2.5,2.5 0 1 1 49.635,316.66Z" style="fill:none;stroke:#000000;stroke-width:0.5" />
<path d="M255.79,386.51A2.5,2.5 0 1 1 250.79,386.51A2.5,2.5 0 1 1 255.79,386.51Z" style="fill:none;stroke:#000000;stroke-width:0.5" />
<path d="M461.94,578.72A2.5,2.5 0 1 1 456.94,578.72A2.5,2.5 0 1 1 461.94,578.72Z" style="fill:none;stroke:#000000;stroke-width:0.5" />
<path d="M668.09,690.15A2.5,2.5 0 1 1 663.09,690.15A2.5,2.5 0 1 1 668.09,690.15Z" style="fill:none;stroke:#000000;stroke-width:0.5" />
<path d="M874.24,775.59A2.5,2.5 0 1 1 869.24,775.59A2.5,2.5 0 1 1 874.24,775.59Z" style="fill:none;stroke:#000000;stroke-width:0.5" />
<path d="M1080.4,877.33A2.5,2.5 0 1 1 1075.4,877.33A2.5,2.5 0 1 1 1080.4,877.33Z" style="fill:none;stroke:#000000;stroke-width:0.5" />
<path d="M1286.5,935.48A2.5,2.5 0 1 1 1281.5,935.48A2.5,2.5 0 1 1 1286.5,935.48Z" style="fill:none;stroke:#000000;stroke-width:0.5" />
<path d="M1492.7,985.95A2.5,2.5 0 1 1 1487.7,985.95A2.5,2.5 0 1 1 1492.7,985.95Z" style="fill:none;stroke:#000000;stroke-width:0.5" />
<path d="M1698.8,1071.6A2.5,2.5 0 1 1 1693.8,1071.6A2.5,2.5 0 1 1 1698.8,1071.6Z" style="fill:none;stroke:#000000;stroke-width:0.5" />
<path d="M1905,1076.6A2.5,2.5 0 1 1 1900,1076.6A2.5,2.5 0 1 1 1905,1076.6Z" style="fill:none;stroke:#000000;stroke-width:0.5" />
<path d="M47.135,42.709L253.29,402.93L459.44,595.81L665.59,674.07L871.74,768.68L1077.9,907.05L1284,941.28L1490.2,954.93L1696.3,1029.7L1902.5,1074.5" style="fill:none;stroke:#000000" />
<path d="M49.635,42.709A2.5,2.5 0 1 1 44.635,42.709A2.5,2.5 0 1 1 49.635,42.709Z" style="fill:none;stroke:#000000;stroke-width:0.5" />
<path d="M255.79,402.93A2.5,2.5 0 1 1 250.79,402.93A2.5,2.5 0 1 1 255.79,402.93Z" style="fill:none;stroke:#000000;stroke-width:0.5" />
<path d="M461.94,595.81A2.5,2.5 0 1 1 456.94,595.81A2.5,2.5 0 1 1 461.94,595.81Z" style="fill:none;stroke:#000000;stroke-width:0.5" />
<path d="M668.09,674.07A2.5,2.5 0 1 1 663.09,674.07A2.5,2.5 0 1 1 668.09,674.07Z" style="fill:none;stroke:#000000;stroke-width:0.5" />
<path d="M874.24,768.68A2.5,2.5 0 1 1 869.24,768.68A2.5,2.5 0 1 1 874.24,768.68Z" style="fill:none;stroke:#000000;stroke-width:0.5" />
<path d="M1080.4,907.05A2.5,2.5 0 1 1 1075.4,907.05A2.5,2.5 0 1 1 1080.4,907.05Z" style="fill:none;stroke:#000000;stroke-width:0.5" />
<path d="M1286.5,941.28A2.5,2.5 0 1 1 1281.5,941.28A2.5,2.5 0 1 1 1286.5,941.28Z" style="fill:none;stroke:#000000;stroke-width:0.5" />
<path d="M1492.7,954.93A2.5,2.5 0 1 1 1487.7,954.93A2.5,2.5 0 1 1 1492.7,954.93Z" style="fill:none;stroke:#000000;stroke-width:0.5" />
<path d="M1698.8,1029.7A2.5,2.5 0 1 1 1693.8,1029.7A2.5,2.5 0 1 1 1698.8,1029.7Z" style="fill:none;stroke:#000000;stroke-width:0.5" />
<path d="M1905,1074.5A2.5,2.5 0 1 1 1900,1074.5A2.5,2.5 0 1 1 1905,1074.5Z" style="fill:none;stroke:#000000;stroke-width:0.5" />
<path d="M47.135,69.279L253.29,356.01L459.44,460.44L665.59,593.13L871.74,649.46L1077.9,803.47L1284,865.99L1490.2,885.42L1696.3,932.09L1902.5,998.88" style="fill:none;stroke:#000000" />
<path d="M49.635,69.279A2.5,2.5 0 1 1 44.635,69.279A2.5,2.5 0 1 1 49.635,69.279Z" style="fill:none;stroke:#000000;stroke-width:0.5" />
<path d="M255.79,356.01A2.5,2.5 0 1 1 250.79,356.01A2.5,2.5 0 1 1 255.79,356.01Z" style="fill:none;stroke:#000000;stroke-width:0.5" />
<path d="M461.94,460.44A2.5,2.5 0 1 1 456.94,460.44A2.5,2.5 0 1 1 461.94,460.44Z" style="fill:none;stroke:#000000;stroke-width:0.5" />
<path d="M668.09,593.13A2.5,2.5 0 1 1 663.09,593.13A2.5,2.5 0 1 1 668.09,593.13Z" style="fill:none;stroke:#000000;stroke-width:0.5" />
<path d="M874.24,649.46A2.5,2.5 0 1 1 869.24,649.46A2.5,2.5 0 1 1 874.24,649.46Z" style="fill:none;stroke:#000000;stroke-width:0.5" />
<path d="M1080.4,803.47A2.5,2.5 0 1 1 1075.4,803.47A2.5,2.5 0 1 1 1080.4,803.47Z" style="fill:none;stroke:#000000;stroke-width:0.5" />
<path d="M1286.5,865.99A2.5,2.5 0 1 1 1281.5,865.99A2.5,2.5 0 1 1 1286.5,865.99Z" style="fill:none;stroke:#000000;stroke-width:0.5" />
<path d="M1492.7,885.42A2.5,2.5 0 1 1 1487.7,885.42A2.5,2.5 0 1 1 1492.7,885.42Z" style="fill:none;stroke:#000000;stroke-width:0.5" />
<path d="M1698.8,932.09A2.5,2.5 0 1 1 1693.8,932.09A2.5,2.5 0 1 1 1698.8,932.09Z" style="fill:none;stroke:#000000;stroke-width:0.5" />
<path d="M1905,998.88A2.5,2.5 0 1 1 1900,998.88A2.5,2.5 0 1 1 1905,998.88Z" style="fill:none;stroke:#000000;stroke-width:0.5" />
<path d="M1900,75.852L1920,75.852" style="fill:none;stroke:#000000" />
<path d="M1912.5,75.852A2.5,2.5 0 1 1 1907.5,75.852A2.5,2.5 0 1 1 1912.5,75.852Z" style="fill:none;stroke:#000000;stroke-width:0.5" />
<text x="1861.7" y="-73.364" transform="scale(1, -1)"
	style="font-family:Liberation Serif;font-variant:normal;font-weight:normal;font-style:normal;font-size:12px">std::list</text>
<path d="M1900,65.668L1920,65.668" style="fill:none;stroke:#000000" />
<path d="M1912.5,65.668A2.5,2.5 0 1 1 1907.5,65.668A2.5,2.5 0 1 1 1912.5,65.668Z" style="fill:none;stroke:#000000;stroke-width:0.5" />
<text x="1847.7" y="-63.181" transform="scale(1, -1)"
	style="font-family:Liberation Serif;font-variant:normal;font-weight:normal;font-style:normal;font-size:12px">std::deque</text>
<path d="M1900,55.484L1920,55.484" style="fill:none;stroke:#000000" />
<path d="M1912.5,55.484A2.5,2.5 0 1 1 1907.5,55.484A2.5,2.5 0 1 1 1912.5,55.484Z" style="fill:none;stroke:#000000;stroke-width:0.5" />
<text x="1846.3" y="-52.997" transform="scale(1, -1)"
	style="font-family:Liberation Serif;font-variant:normal;font-weight:normal;font-style:normal;font-size:12px">std::vector</text>
<path d="M1900,45.301L1920,45.301" style="fill:none;stroke:#000000" />
<path d="M1912.5,45.301A2.5,2.5 0 1 1 1907.5,45.301A2.5,2.5 0 1 1 1912.5,45.301Z" style="fill:none;stroke:#000000;stroke-width:0.5" />
<text x="1784.7" y="-42.813" transform="scale(1, -1)"
	style="font-family:Liberation Serif;font-variant:normal;font-weight:normal;font-style:normal;font-size:12px">preallocated std::vector</text>
</g>
</svg>
