<?xml version="1.0"?>
<!-- Generated by SVGo and Plotinum VG -->
<svg width="1920pt" height="1080pt" viewBox="0 0 1920 1080"
	xmlns="http://www.w3.org/2000/svg"
	xmlns:xlink="http://www.w3.org/1999/xlink">
<g transform="scale(1, -1) translate(0, -1080)">
<path d="M0,0L1920,0L1920,1080L0,1080Z" style="fill:#FFFFFF" />
<text x="744.09" y="-1040.9" transform="scale(1, -1)"
	style="font-family:Liberation Serif;font-variant:normal;font-weight:normal;font-style:normal;font-size:50px">pushback - Log Scale</text>
<text x="876.52" y="-9.7559" transform="scale(1, -1)"
	style="font-family:Liberation Serif;font-variant:normal;font-weight:normal;font-style:normal;font-size:30px">Number of elements</text>
<text x="82.962" y="-39.727" transform="scale(1, -1)"
	style="font-family:Liberation Serif;font-variant:normal;font-weight:normal;font-style:normal;font-size:20px">100000</text>
<text x="279.86" y="-39.727" transform="scale(1, -1)"
	style="font-family:Liberation Serif;font-variant:normal;font-weight:normal;font-style:normal;font-size:20px">200000</text>
<text x="476.75" y="-39.727" transform="scale(1, -1)"
	style="font-family:Liberation Serif;font-variant:normal;font-weight:normal;font-style:normal;font-size:20px">300000</text>
<text x="673.64" y="-39.727" transform="scale(1, -1)"
	style="font-family:Liberation Serif;font-variant:normal;font-weight:normal;font-style:normal;font-size:20px">400000</text>
<text x="870.53" y="-39.727" transform="scale(1, -1)"
	style="font-family:Liberation Serif;font-variant:normal;font-weight:normal;font-style:normal;font-size:20px">500000</text>
<text x="1067.4" y="-39.727" transform="scale(1, -1)"
	style="font-family:Liberation Serif;font-variant:normal;font-weight:normal;font-style:normal;font-size:20px">600000</text>
<text x="1264.3" y="-39.727" transform="scale(1, -1)"
	style="font-family:Liberation Serif;font-variant:normal;font-weight:normal;font-style:normal;font-size:20px">700000</text>
<text x="1461.2" y="-39.727" transform="scale(1, -1)"
	style="font-family:Liberation Serif;font-variant:normal;font-weight:normal;font-style:normal;font-size:20px">800000</text>
<text x="1658.1" y="-39.727" transform="scale(1, -1)"
	style="font-family:Liberation Serif;font-variant:normal;font-weight:normal;font-style:normal;font-size:20px">900000</text>
<text x="1850" y="-39.727" transform="scale(1, -1)"
	style="font-family:Liberation Serif;font-variant:normal;font-weight:normal;font-style:normal;font-size:20px">1000000</text>
<path d="M112.96,55.371L112.96,63.371" style="fill:none;stroke:#000000;stroke-width:0.5" />
<path d="M309.86,55.371L309.86,63.371" style="fill:none;stroke:#000000;stroke-width:0.5" />
<path d="M506.75,55.371L506.75,63.371" style="fill:none;stroke:#000000;stroke-width:0.5" />
<path d="M703.64,55.371L703.64,63.371" style="fill:none;stroke:#000000;stroke-width:0.5" />
<path d="M900.53,55.371L900.53,63.371" style="fill:none;stroke:#000000;stroke-width:0.5" />
<path d="M1097.4,55.371L1097.4,63.371" style="fill:none;stroke:#000000;stroke-width:0.5" />
<path d="M1294.3,55.371L1294.3,63.371" style="fill:none;stroke:#000000;stroke-width:0.5" />
<path d="M1491.2,55.371L1491.2,63.371" style="fill:none;stroke:#000000;stroke-width:0.5" />
<path d="M1688.1,55.371L1688.1,63.371" style="fill:none;stroke:#000000;stroke-width:0.5" />
<path d="M1885,55.371L1885,63.371" style="fill:none;stroke:#000000;stroke-width:0.5" />
<path d="M112.96,63.371L1885,63.371" style="fill:none;stroke:#000000;stroke-width:0.5" />
<g transform="rotate(90)">
<text x="508.08" y="23.467" transform="scale(1, -1)"
	style="font-family:Liberation Serif;font-variant:normal;font-weight:normal;font-style:normal;font-size:30px">log(μs)</text>
</g>
<text x="49.712" y="-331.11" transform="scale(1, -1)"
	style="font-family:Liberation Serif;font-variant:normal;font-weight:normal;font-style:normal;font-size:20px">5000</text>
<text x="39.712" y="-821.63" transform="scale(1, -1)"
	style="font-family:Liberation Serif;font-variant:normal;font-weight:normal;font-style:normal;font-size:20px">25000</text>
<text x="39.712" y="-1000.8" transform="scale(1, -1)"
	style="font-family:Liberation Serif;font-variant:normal;font-weight:normal;font-style:normal;font-size:20px">45000</text>
<path d="M94.712,335.68L102.71,335.68" style="fill:none;stroke:#000000;stroke-width:0.5" />
<path d="M94.712,826.2L102.71,826.2" style="fill:none;stroke:#000000;stroke-width:0.5" />
<path d="M94.712,1005.3L102.71,1005.3" style="fill:none;stroke:#000000;stroke-width:0.5" />
<path d="M98.712,670.51L102.71,670.51" style="fill:none;stroke:#000000;stroke-width:0.5" />
<path d="M98.712,928.75L102.71,928.75" style="fill:none;stroke:#000000;stroke-width:0.5" />
<path d="M102.71,77.61L102.71,1024.6" style="fill:none;stroke:#000000;stroke-width:0.5" />
<path d="M112.96,77.61L112.96,1024.6" style="fill:none;stroke:#808080;stroke-width:0.25" />
<path d="M309.86,77.61L309.86,1024.6" style="fill:none;stroke:#808080;stroke-width:0.25" />
<path d="M506.75,77.61L506.75,1024.6" style="fill:none;stroke:#808080;stroke-width:0.25" />
<path d="M703.64,77.61L703.64,1024.6" style="fill:none;stroke:#808080;stroke-width:0.25" />
<path d="M900.53,77.61L900.53,1024.6" style="fill:none;stroke:#808080;stroke-width:0.25" />
<path d="M1097.4,77.61L1097.4,1024.6" style="fill:none;stroke:#808080;stroke-width:0.25" />
<path d="M1294.3,77.61L1294.3,1024.6" style="fill:none;stroke:#808080;stroke-width:0.25" />
<path d="M1491.2,77.61L1491.2,1024.6" style="fill:none;stroke:#808080;stroke-width:0.25" />
<path d="M1688.1,77.61L1688.1,1024.6" style="fill:none;stroke:#808080;stroke-width:0.25" />
<path d="M1885,77.61L1885,1024.6" style="fill:none;stroke:#808080;stroke-width:0.25" />
<path d="M112.96,335.68L1885,335.68" style="fill:none;stroke:#808080;stroke-width:0.25" />
<path d="M112.96,826.2L1885,826.2" style="fill:none;stroke:#808080;stroke-width:0.25" />
<path d="M112.96,1005.3L1885,1005.3" style="fill:none;stroke:#808080;stroke-width:0.25" />
<path d="M112.96,325.33L309.86,478.16L506.75,644.99L703.64,785.24L900.53,830.79L1097.4,850.42L1294.3,873.41L1491.2,916.02L1688.1,995.58L1885,974.03" style="fill:none;stroke:#FF0000" />
<path d="M115.46,325.33A2.5,2.5 0 1 1 110.46,325.33A2.5,2.5 0 1 1 115.46,325.33Z" style="fill:none;stroke:#FF0000;stroke-width:0.5" />
<path d="M312.36,478.16A2.5,2.5 0 1 1 307.36,478.16A2.5,2.5 0 1 1 312.36,478.16Z" style="fill:none;stroke:#FF0000;stroke-width:0.5" />
<path d="M509.25,644.99A2.5,2.5 0 1 1 504.25,644.99A2.5,2.5 0 1 1 509.25,644.99Z" style="fill:none;stroke:#FF0000;stroke-width:0.5" />
<path d="M706.14,785.24A2.5,2.5 0 1 1 701.14,785.24A2.5,2.5 0 1 1 706.14,785.24Z" style="fill:none;stroke:#FF0000;stroke-width:0.5" />
<path d="M903.03,830.79A2.5,2.5 0 1 1 898.03,830.79A2.5,2.5 0 1 1 903.03,830.79Z" style="fill:none;stroke:#FF0000;stroke-width:0.5" />
<path d="M1099.9,850.42A2.5,2.5 0 1 1 1094.9,850.42A2.5,2.5 0 1 1 1099.9,850.42Z" style="fill:none;stroke:#FF0000;stroke-width:0.5" />
<path d="M1296.8,873.41A2.5,2.5 0 1 1 1291.8,873.41A2.5,2.5 0 1 1 1296.8,873.41Z" style="fill:none;stroke:#FF0000;stroke-width:0.5" />
<path d="M1493.7,916.02A2.5,2.5 0 1 1 1488.7,916.02A2.5,2.5 0 1 1 1493.7,916.02Z" style="fill:none;stroke:#FF0000;stroke-width:0.5" />
<path d="M1690.6,995.58A2.5,2.5 0 1 1 1685.6,995.58A2.5,2.5 0 1 1 1690.6,995.58Z" style="fill:none;stroke:#FF0000;stroke-width:0.5" />
<path d="M1887.5,974.03A2.5,2.5 0 1 1 1882.5,974.03A2.5,2.5 0 1 1 1887.5,974.03Z" style="fill:none;stroke:#FF0000;stroke-width:0.5" />
<path d="M112.96,245.31L309.86,326.65L506.75,420.25L703.64,482.45L900.53,552.04L1097.4,600.46L1294.3,643.77L1491.2,694.3L1688.1,741.38L1885,776.29" style="fill:none;stroke:#0000FF" />
<path d="M115.46,245.31A2.5,2.5 0 1 1 110.46,245.31A2.5,2.5 0 1 1 115.46,245.31Z" style="fill:none;stroke:#0000FF;stroke-width:0.5" />
<path d="M312.36,326.65A2.5,2.5 0 1 1 307.36,326.65A2.5,2.5 0 1 1 312.36,326.65Z" style="fill:none;stroke:#0000FF;stroke-width:0.5" />
<path d="M509.25,420.25A2.5,2.5 0 1 1 504.25,420.25A2.5,2.5 0 1 1 509.25,420.25Z" style="fill:none;stroke:#0000FF;stroke-width:0.5" />
<path d="M706.14,482.45A2.5,2.5 0 1 1 701.14,482.45A2.5,2.5 0 1 1 706.14,482.45Z" style="fill:none;stroke:#0000FF;stroke-width:0.5" />
<path d="M903.03,552.04A2.5,2.5 0 1 1 898.03,552.04A2.5,2.5 0 1 1 903.03,552.04Z" style="fill:none;stroke:#0000FF;stroke-width:0.5" />
<path d="M1099.9,600.46A2.5,2.5 0 1 1 1094.9,600.46A2.5,2.5 0 1 1 1099.9,600.46Z" style="fill:none;stroke:#0000FF;stroke-width:0.5" />
<path d="M1296.8,643.77A2.5,2.5 0 1 1 1291.8,643.77A2.5,2.5 0 1 1 1296.8,643.77Z" style="fill:none;stroke:#0000FF;stroke-width:0.5" />
<path d="M1493.7,694.3A2.5,2.5 0 1 1 1488.7,694.3A2.5,2.5 0 1 1 1493.7,694.3Z" style="fill:none;stroke:#0000FF;stroke-width:0.5" />
<path d="M1690.6,741.38A2.5,2.5 0 1 1 1685.6,741.38A2.5,2.5 0 1 1 1690.6,741.38Z" style="fill:none;stroke:#0000FF;stroke-width:0.5" />
<path d="M1887.5,776.29A2.5,2.5 0 1 1 1882.5,776.29A2.5,2.5 0 1 1 1887.5,776.29Z" style="fill:none;stroke:#0000FF;stroke-width:0.5" />
<path d="M112.96,125.65L309.86,287.01L506.75,410.82L703.64,488.23L900.53,568.64L1097.4,609.38L1294.3,649.72L1491.2,695.37L1688.1,736.86L1885,744.86" style="fill:none;stroke:#00FF00" />
<path d="M115.46,125.65A2.5,2.5 0 1 1 110.46,125.65A2.5,2.5 0 1 1 115.46,125.65Z" style="fill:none;stroke:#00FF00;stroke-width:0.5" />
<path d="M312.36,287.01A2.5,2.5 0 1 1 307.36,287.01A2.5,2.5 0 1 1 312.36,287.01Z" style="fill:none;stroke:#00FF00;stroke-width:0.5" />
<path d="M509.25,410.82A2.5,2.5 0 1 1 504.25,410.82A2.5,2.5 0 1 1 509.25,410.82Z" style="fill:none;stroke:#00FF00;stroke-width:0.5" />
<path d="M706.14,488.23A2.5,2.5 0 1 1 701.14,488.23A2.5,2.5 0 1 1 706.14,488.23Z" style="fill:none;stroke:#00FF00;stroke-width:0.5" />
<path d="M903.03,568.64A2.5,2.5 0 1 1 898.03,568.64A2.5,2.5 0 1 1 903.03,568.64Z" style="fill:none;stroke:#00FF00;stroke-width:0.5" />
<path d="M1099.9,609.38A2.5,2.5 0 1 1 1094.9,609.38A2.5,2.5 0 1 1 1099.9,609.38Z" style="fill:none;stroke:#00FF00;stroke-width:0.5" />
<path d="M1296.8,649.72A2.5,2.5 0 1 1 1291.8,649.72A2.5,2.5 0 1 1 1296.8,649.72Z" style="fill:none;stroke:#00FF00;stroke-width:0.5" />
<path d="M1493.7,695.37A2.5,2.5 0 1 1 1488.7,695.37A2.5,2.5 0 1 1 1493.7,695.37Z" style="fill:none;stroke:#00FF00;stroke-width:0.5" />
<path d="M1690.6,736.86A2.5,2.5 0 1 1 1685.6,736.86A2.5,2.5 0 1 1 1690.6,736.86Z" style="fill:none;stroke:#00FF00;stroke-width:0.5" />
<path d="M1887.5,744.86A2.5,2.5 0 1 1 1882.5,744.86A2.5,2.5 0 1 1 1887.5,744.86Z" style="fill:none;stroke:#00FF00;stroke-width:0.5" />
<path d="M112.96,77.61L309.86,252.6L506.75,372.17L703.64,453.68L900.53,528.11L1097.4,591.25L1294.3,632.77L1491.2,675.45L1688.1,708.48L1885,744.59" style="fill:none;stroke:#FF8000" />
<path d="M115.46,77.61A2.5,2.5 0 1 1 110.46,77.61A2.5,2.5 0 1 1 115.46,77.61Z" style="fill:none;stroke:#FF8000;stroke-width:0.5" />
<path d="M312.36,252.6A2.5,2.5 0 1 1 307.36,252.6A2.5,2.5 0 1 1 312.36,252.6Z" style="fill:none;stroke:#FF8000;stroke-width:0.5" />
<path d="M509.25,372.17A2.5,2.5 0 1 1 504.25,372.17A2.5,2.5 0 1 1 509.25,372.17Z" style="fill:none;stroke:#FF8000;stroke-width:0.5" />
<path d="M706.14,453.68A2.5,2.5 0 1 1 701.14,453.68A2.5,2.5 0 1 1 706.14,453.68Z" style="fill:none;stroke:#FF8000;stroke-width:0.5" />
<path d="M903.03,528.11A2.5,2.5 0 1 1 898.03,528.11A2.5,2.5 0 1 1 903.03,528.11Z" style="fill:none;stroke:#FF8000;stroke-width:0.5" />
<path d="M1099.9,591.25A2.5,2.5 0 1 1 1094.9,591.25A2.5,2.5 0 1 1 1099.9,591.25Z" style="fill:none;stroke:#FF8000;stroke-width:0.5" />
<path d="M1296.8,632.77A2.5,2.5 0 1 1 1291.8,632.77A2.5,2.5 0 1 1 1296.8,632.77Z" style="fill:none;stroke:#FF8000;stroke-width:0.5" />
<path d="M1493.7,675.45A2.5,2.5 0 1 1 1488.7,675.45A2.5,2.5 0 1 1 1493.7,675.45Z" style="fill:none;stroke:#FF8000;stroke-width:0.5" />
<path d="M1690.6,708.48A2.5,2.5 0 1 1 1685.6,708.48A2.5,2.5 0 1 1 1690.6,708.48Z" style="fill:none;stroke:#FF8000;stroke-width:0.5" />
<path d="M1887.5,744.59A2.5,2.5 0 1 1 1882.5,744.59A2.5,2.5 0 1 1 1887.5,744.59Z" style="fill:none;stroke:#FF8000;stroke-width:0.5" />
<path d="M1900,146.4L1920,146.4" style="fill:none;stroke:#FF0000" />
<path d="M1912.5,146.4A2.5,2.5 0 1 1 1907.5,146.4A2.5,2.5 0 1 1 1912.5,146.4Z" style="fill:none;stroke:#FF0000;stroke-width:0.5" />
<text x="1823.3" y="-141.42" transform="scale(1, -1)"
	style="font-family:Liberation Serif;font-variant:normal;font-weight:normal;font-style:normal;font-size:24px">std::list</text>
<path d="M1900,126.03L1920,126.03" style="fill:none;stroke:#0000FF" />
<path d="M1912.5,126.03A2.5,2.5 0 1 1 1907.5,126.03A2.5,2.5 0 1 1 1912.5,126.03Z" style="fill:none;stroke:#0000FF;stroke-width:0.5" />
<text x="1795.4" y="-121.05" transform="scale(1, -1)"
	style="font-family:Liberation Serif;font-variant:normal;font-weight:normal;font-style:normal;font-size:24px">std::deque</text>
<path d="M1900,105.66L1920,105.66" style="fill:none;stroke:#00FF00" />
<path d="M1912.5,105.66A2.5,2.5 0 1 1 1907.5,105.66A2.5,2.5 0 1 1 1912.5,105.66Z" style="fill:none;stroke:#00FF00;stroke-width:0.5" />
<text x="1792.7" y="-100.69" transform="scale(1, -1)"
	style="font-family:Liberation Serif;font-variant:normal;font-weight:normal;font-style:normal;font-size:24px">std::vector</text>
<path d="M1900,85.294L1920,85.294" style="fill:none;stroke:#FF8000" />
<path d="M1912.5,85.294A2.5,2.5 0 1 1 1907.5,85.294A2.5,2.5 0 1 1 1912.5,85.294Z" style="fill:none;stroke:#FF8000;stroke-width:0.5" />
<text x="1669.4" y="-80.319" transform="scale(1, -1)"
	style="font-family:Liberation Serif;font-variant:normal;font-weight:normal;font-style:normal;font-size:24px">preallocated std::vector</text>
</g>
</svg>
