<?xml version="1.0"?>
<!-- Generated by SVGo and Plotinum VG -->
<svg width="1920pt" height="1080pt" viewBox="0 0 1920 1080"
	xmlns="http://www.w3.org/2000/svg"
	xmlns:xlink="http://www.w3.org/1999/xlink">
<g transform="scale(1, -1) translate(0, -1080)">
<path d="M0,0L1920,0L1920,1080L0,1080Z" style="fill:#FFFFFF" />
<text x="750.34" y="-1040.9" transform="scale(1, -1)"
	style="font-family:Liberation Serif;font-variant:normal;font-weight:normal;font-style:normal;font-size:50px">random-sorted-insert</text>
<text x="892.85" y="-9.7559" transform="scale(1, -1)"
	style="font-family:Liberation Serif;font-variant:normal;font-weight:normal;font-style:normal;font-size:30px">Number of elements</text>
<text x="115.62" y="-39.727" transform="scale(1, -1)"
	style="font-family:Liberation Serif;font-variant:normal;font-weight:normal;font-style:normal;font-size:20px">10000</text>
<text x="309.99" y="-39.727" transform="scale(1, -1)"
	style="font-family:Liberation Serif;font-variant:normal;font-weight:normal;font-style:normal;font-size:20px">20000</text>
<text x="504.37" y="-39.727" transform="scale(1, -1)"
	style="font-family:Liberation Serif;font-variant:normal;font-weight:normal;font-style:normal;font-size:20px">30000</text>
<text x="698.75" y="-39.727" transform="scale(1, -1)"
	style="font-family:Liberation Serif;font-variant:normal;font-weight:normal;font-style:normal;font-size:20px">40000</text>
<text x="893.12" y="-39.727" transform="scale(1, -1)"
	style="font-family:Liberation Serif;font-variant:normal;font-weight:normal;font-style:normal;font-size:20px">50000</text>
<text x="1087.5" y="-39.727" transform="scale(1, -1)"
	style="font-family:Liberation Serif;font-variant:normal;font-weight:normal;font-style:normal;font-size:20px">60000</text>
<text x="1281.9" y="-39.727" transform="scale(1, -1)"
	style="font-family:Liberation Serif;font-variant:normal;font-weight:normal;font-style:normal;font-size:20px">70000</text>
<text x="1476.2" y="-39.727" transform="scale(1, -1)"
	style="font-family:Liberation Serif;font-variant:normal;font-weight:normal;font-style:normal;font-size:20px">80000</text>
<text x="1670.6" y="-39.727" transform="scale(1, -1)"
	style="font-family:Liberation Serif;font-variant:normal;font-weight:normal;font-style:normal;font-size:20px">90000</text>
<text x="1860" y="-39.727" transform="scale(1, -1)"
	style="font-family:Liberation Serif;font-variant:normal;font-weight:normal;font-style:normal;font-size:20px">100000</text>
<path d="M140.62,55.371L140.62,63.371" style="fill:none;stroke:#000000;stroke-width:0.5" />
<path d="M334.99,55.371L334.99,63.371" style="fill:none;stroke:#000000;stroke-width:0.5" />
<path d="M529.37,55.371L529.37,63.371" style="fill:none;stroke:#000000;stroke-width:0.5" />
<path d="M723.75,55.371L723.75,63.371" style="fill:none;stroke:#000000;stroke-width:0.5" />
<path d="M918.12,55.371L918.12,63.371" style="fill:none;stroke:#000000;stroke-width:0.5" />
<path d="M1112.5,55.371L1112.5,63.371" style="fill:none;stroke:#000000;stroke-width:0.5" />
<path d="M1306.9,55.371L1306.9,63.371" style="fill:none;stroke:#000000;stroke-width:0.5" />
<path d="M1501.2,55.371L1501.2,63.371" style="fill:none;stroke:#000000;stroke-width:0.5" />
<path d="M1695.6,55.371L1695.6,63.371" style="fill:none;stroke:#000000;stroke-width:0.5" />
<path d="M1890,55.371L1890,63.371" style="fill:none;stroke:#000000;stroke-width:0.5" />
<path d="M140.62,63.371L1890,63.371" style="fill:none;stroke:#000000;stroke-width:0.5" />
<g transform="rotate(90)">
<text x="538.49" y="23.467" transform="scale(1, -1)"
	style="font-family:Liberation Serif;font-variant:normal;font-weight:normal;font-style:normal;font-size:30px">μs</text>
</g>
<text x="49.712" y="-242.9" transform="scale(1, -1)"
	style="font-family:Liberation Serif;font-variant:normal;font-weight:normal;font-style:normal;font-size:20px">2.5e+07</text>
<text x="49.712" y="-585.07" transform="scale(1, -1)"
	style="font-family:Liberation Serif;font-variant:normal;font-weight:normal;font-style:normal;font-size:20px">7.5e+07</text>
<text x="39.712" y="-927.24" transform="scale(1, -1)"
	style="font-family:Liberation Serif;font-variant:normal;font-weight:normal;font-style:normal;font-size:20px">1.25e+08</text>
<path d="M119.87,247.47L127.87,247.47" style="fill:none;stroke:#000000;stroke-width:0.5" />
<path d="M119.87,589.64L127.87,589.64" style="fill:none;stroke:#000000;stroke-width:0.5" />
<path d="M119.87,931.81L127.87,931.81" style="fill:none;stroke:#000000;stroke-width:0.5" />
<path d="M123.87,110.6L127.87,110.6" style="fill:none;stroke:#000000;stroke-width:0.5" />
<path d="M123.87,179.04L127.87,179.04" style="fill:none;stroke:#000000;stroke-width:0.5" />
<path d="M123.87,315.9L127.87,315.9" style="fill:none;stroke:#000000;stroke-width:0.5" />
<path d="M123.87,384.34L127.87,384.34" style="fill:none;stroke:#000000;stroke-width:0.5" />
<path d="M123.87,452.77L127.87,452.77" style="fill:none;stroke:#000000;stroke-width:0.5" />
<path d="M123.87,521.2L127.87,521.2" style="fill:none;stroke:#000000;stroke-width:0.5" />
<path d="M123.87,658.07L127.87,658.07" style="fill:none;stroke:#000000;stroke-width:0.5" />
<path d="M123.87,726.51L127.87,726.51" style="fill:none;stroke:#000000;stroke-width:0.5" />
<path d="M123.87,794.94L127.87,794.94" style="fill:none;stroke:#000000;stroke-width:0.5" />
<path d="M123.87,863.37L127.87,863.37" style="fill:none;stroke:#000000;stroke-width:0.5" />
<path d="M123.87,1000.2L127.87,1000.2" style="fill:none;stroke:#000000;stroke-width:0.5" />
<path d="M127.87,80.11L127.87,1024.6" style="fill:none;stroke:#000000;stroke-width:0.5" />
<path d="M140.62,80.11L140.62,1024.6" style="fill:none;stroke:#808080;stroke-width:0.25" />
<path d="M334.99,80.11L334.99,1024.6" style="fill:none;stroke:#808080;stroke-width:0.25" />
<path d="M529.37,80.11L529.37,1024.6" style="fill:none;stroke:#808080;stroke-width:0.25" />
<path d="M723.75,80.11L723.75,1024.6" style="fill:none;stroke:#808080;stroke-width:0.25" />
<path d="M918.12,80.11L918.12,1024.6" style="fill:none;stroke:#808080;stroke-width:0.25" />
<path d="M1112.5,80.11L1112.5,1024.6" style="fill:none;stroke:#808080;stroke-width:0.25" />
<path d="M1306.9,80.11L1306.9,1024.6" style="fill:none;stroke:#808080;stroke-width:0.25" />
<path d="M1501.2,80.11L1501.2,1024.6" style="fill:none;stroke:#808080;stroke-width:0.25" />
<path d="M1695.6,80.11L1695.6,1024.6" style="fill:none;stroke:#808080;stroke-width:0.25" />
<path d="M1890,80.11L1890,1024.6" style="fill:none;stroke:#808080;stroke-width:0.25" />
<path d="M140.62,247.47L1890,247.47" style="fill:none;stroke:#808080;stroke-width:0.25" />
<path d="M140.62,589.64L1890,589.64" style="fill:none;stroke:#808080;stroke-width:0.25" />
<path d="M140.62,931.81L1890,931.81" style="fill:none;stroke:#808080;stroke-width:0.25" />
<path d="M140.62,82.577L334.99,100.98L529.37,132.08L723.75,176.16L918.12,233.5L1112.5,309.76L1306.9,406.66L1501.2,493.7L1695.6,629.56L1890,770.54" style="fill:none;stroke:#FF0000;stroke-width:4" />
<path d="M145.62,82.577A5,5 0 1 1 135.62,82.577A5,5 0 1 1 145.62,82.577Z" style="fill:#FF0000" />
<path d="M339.99,100.98A5,5 0 1 1 329.99,100.98A5,5 0 1 1 339.99,100.98Z" style="fill:#FF0000" />
<path d="M534.37,132.08A5,5 0 1 1 524.37,132.08A5,5 0 1 1 534.37,132.08Z" style="fill:#FF0000" />
<path d="M728.75,176.16A5,5 0 1 1 718.75,176.16A5,5 0 1 1 728.75,176.16Z" style="fill:#FF0000" />
<path d="M923.12,233.5A5,5 0 1 1 913.12,233.5A5,5 0 1 1 923.12,233.5Z" style="fill:#FF0000" />
<path d="M1117.5,309.76A5,5 0 1 1 1107.5,309.76A5,5 0 1 1 1117.5,309.76Z" style="fill:#FF0000" />
<path d="M1311.9,406.66A5,5 0 1 1 1301.9,406.66A5,5 0 1 1 1311.9,406.66Z" style="fill:#FF0000" />
<path d="M1506.2,493.7A5,5 0 1 1 1496.2,493.7A5,5 0 1 1 1506.2,493.7Z" style="fill:#FF0000" />
<path d="M1700.6,629.56A5,5 0 1 1 1690.6,629.56A5,5 0 1 1 1700.6,629.56Z" style="fill:#FF0000" />
<path d="M1895,770.54A5,5 0 1 1 1885,770.54A5,5 0 1 1 1895,770.54Z" style="fill:#FF0000" />
<path d="M140.62,84.665L334.99,109.15L529.37,149.99L723.75,207.78L918.12,281.96L1112.5,369.49L1306.9,476.65L1501.2,605.21L1695.6,750.35L1890,938.42" style="fill:none;stroke:#0000FF;stroke-width:4" />
<path d="M145.62,84.665A5,5 0 1 1 135.62,84.665A5,5 0 1 1 145.62,84.665Z" style="fill:#0000FF" />
<path d="M339.99,109.15A5,5 0 1 1 329.99,109.15A5,5 0 1 1 339.99,109.15Z" style="fill:#0000FF" />
<path d="M534.37,149.99A5,5 0 1 1 524.37,149.99A5,5 0 1 1 534.37,149.99Z" style="fill:#0000FF" />
<path d="M728.75,207.78A5,5 0 1 1 718.75,207.78A5,5 0 1 1 728.75,207.78Z" style="fill:#0000FF" />
<path d="M923.12,281.96A5,5 0 1 1 913.12,281.96A5,5 0 1 1 923.12,281.96Z" style="fill:#0000FF" />
<path d="M1117.5,369.49A5,5 0 1 1 1107.5,369.49A5,5 0 1 1 1117.5,369.49Z" style="fill:#0000FF" />
<path d="M1311.9,476.65A5,5 0 1 1 1301.9,476.65A5,5 0 1 1 1311.9,476.65Z" style="fill:#0000FF" />
<path d="M1506.2,605.21A5,5 0 1 1 1496.2,605.21A5,5 0 1 1 1506.2,605.21Z" style="fill:#0000FF" />
<path d="M1700.6,750.35A5,5 0 1 1 1690.6,750.35A5,5 0 1 1 1700.6,750.35Z" style="fill:#0000FF" />
<path d="M1895,938.42A5,5 0 1 1 1885,938.42A5,5 0 1 1 1895,938.42Z" style="fill:#0000FF" />
<path d="M140.62,80.11L334.99,90.76L529.37,109.18L723.75,135.71L918.12,172.9L1112.5,223.16L1306.9,285.05L1501.2,362.1L1695.6,463.14L1890,556.45" style="fill:none;stroke:#00FF00;stroke-width:4" />
<path d="M145.62,80.11A5,5 0 1 1 135.62,80.11A5,5 0 1 1 145.62,80.11Z" style="fill:#00FF00" />
<path d="M339.99,90.76A5,5 0 1 1 329.99,90.76A5,5 0 1 1 339.99,90.76Z" style="fill:#00FF00" />
<path d="M534.37,109.18A5,5 0 1 1 524.37,109.18A5,5 0 1 1 534.37,109.18Z" style="fill:#00FF00" />
<path d="M728.75,135.71A5,5 0 1 1 718.75,135.71A5,5 0 1 1 728.75,135.71Z" style="fill:#00FF00" />
<path d="M923.12,172.9A5,5 0 1 1 913.12,172.9A5,5 0 1 1 923.12,172.9Z" style="fill:#00FF00" />
<path d="M1117.5,223.16A5,5 0 1 1 1107.5,223.16A5,5 0 1 1 1117.5,223.16Z" style="fill:#00FF00" />
<path d="M1311.9,285.05A5,5 0 1 1 1301.9,285.05A5,5 0 1 1 1311.9,285.05Z" style="fill:#00FF00" />
<path d="M1506.2,362.1A5,5 0 1 1 1496.2,362.1A5,5 0 1 1 1506.2,362.1Z" style="fill:#00FF00" />
<path d="M1700.6,463.14A5,5 0 1 1 1690.6,463.14A5,5 0 1 1 1700.6,463.14Z" style="fill:#00FF00" />
<path d="M1895,556.45A5,5 0 1 1 1885,556.45A5,5 0 1 1 1895,556.45Z" style="fill:#00FF00" />
<path d="M1900,126.03L1920,126.03" style="fill:none;stroke:#FF0000;stroke-width:4" />
<path d="M1915,126.03A5,5 0 1 1 1905,126.03A5,5 0 1 1 1915,126.03Z" style="fill:#FF0000" />
<text x="1795.4" y="-121.05" transform="scale(1, -1)"
	style="font-family:Liberation Serif;font-variant:normal;font-weight:normal;font-style:normal;font-size:24px">std::deque</text>
<path d="M1900,105.66L1920,105.66" style="fill:none;stroke:#0000FF;stroke-width:4" />
<path d="M1915,105.66A5,5 0 1 1 1905,105.66A5,5 0 1 1 1915,105.66Z" style="fill:#0000FF" />
<text x="1792.7" y="-100.69" transform="scale(1, -1)"
	style="font-family:Liberation Serif;font-variant:normal;font-weight:normal;font-style:normal;font-size:24px">std::vector</text>
<path d="M1900,85.294L1920,85.294" style="fill:none;stroke:#00FF00;stroke-width:4" />
<path d="M1915,85.294A5,5 0 1 1 1905,85.294A5,5 0 1 1 1915,85.294Z" style="fill:#00FF00" />
<text x="1823.3" y="-80.319" transform="scale(1, -1)"
	style="font-family:Liberation Serif;font-variant:normal;font-weight:normal;font-style:normal;font-size:24px">std::list</text>
</g>
</svg>
