<?xml version="1.0"?>
<!-- Generated by SVGo and Plotinum VG -->
<svg width="1920pt" height="1080pt" viewBox="0 0 1920 1080"
	xmlns="http://www.w3.org/2000/svg"
	xmlns:xlink="http://www.w3.org/1999/xlink">
<g transform="scale(1, -1) translate(0, -1080)">
<path d="M0,0L1920,0L1920,1080L0,1080Z" style="fill:#FFFFFF" />
<text x="628.86" y="-1040.9" transform="scale(1, -1)"
	style="font-family:Liberation Serif;font-variant:normal;font-weight:normal;font-style:normal;font-size:50px">random-sorted-insert - Log Scale</text>
<text x="895.27" y="-9.7559" transform="scale(1, -1)"
	style="font-family:Liberation Serif;font-variant:normal;font-weight:normal;font-style:normal;font-size:30px">Number of elements</text>
<text x="120.46" y="-39.727" transform="scale(1, -1)"
	style="font-family:Liberation Serif;font-variant:normal;font-weight:normal;font-style:normal;font-size:20px">10000</text>
<text x="314.3" y="-39.727" transform="scale(1, -1)"
	style="font-family:Liberation Serif;font-variant:normal;font-weight:normal;font-style:normal;font-size:20px">20000</text>
<text x="508.14" y="-39.727" transform="scale(1, -1)"
	style="font-family:Liberation Serif;font-variant:normal;font-weight:normal;font-style:normal;font-size:20px">30000</text>
<text x="701.97" y="-39.727" transform="scale(1, -1)"
	style="font-family:Liberation Serif;font-variant:normal;font-weight:normal;font-style:normal;font-size:20px">40000</text>
<text x="895.81" y="-39.727" transform="scale(1, -1)"
	style="font-family:Liberation Serif;font-variant:normal;font-weight:normal;font-style:normal;font-size:20px">50000</text>
<text x="1089.6" y="-39.727" transform="scale(1, -1)"
	style="font-family:Liberation Serif;font-variant:normal;font-weight:normal;font-style:normal;font-size:20px">60000</text>
<text x="1283.5" y="-39.727" transform="scale(1, -1)"
	style="font-family:Liberation Serif;font-variant:normal;font-weight:normal;font-style:normal;font-size:20px">70000</text>
<text x="1477.3" y="-39.727" transform="scale(1, -1)"
	style="font-family:Liberation Serif;font-variant:normal;font-weight:normal;font-style:normal;font-size:20px">80000</text>
<text x="1671.2" y="-39.727" transform="scale(1, -1)"
	style="font-family:Liberation Serif;font-variant:normal;font-weight:normal;font-style:normal;font-size:20px">90000</text>
<text x="1860" y="-39.727" transform="scale(1, -1)"
	style="font-family:Liberation Serif;font-variant:normal;font-weight:normal;font-style:normal;font-size:20px">100000</text>
<path d="M145.46,55.371L145.46,63.371" style="fill:none;stroke:#000000;stroke-width:0.5" />
<path d="M339.3,55.371L339.3,63.371" style="fill:none;stroke:#000000;stroke-width:0.5" />
<path d="M533.14,55.371L533.14,63.371" style="fill:none;stroke:#000000;stroke-width:0.5" />
<path d="M726.97,55.371L726.97,63.371" style="fill:none;stroke:#000000;stroke-width:0.5" />
<path d="M920.81,55.371L920.81,63.371" style="fill:none;stroke:#000000;stroke-width:0.5" />
<path d="M1114.6,55.371L1114.6,63.371" style="fill:none;stroke:#000000;stroke-width:0.5" />
<path d="M1308.5,55.371L1308.5,63.371" style="fill:none;stroke:#000000;stroke-width:0.5" />
<path d="M1502.3,55.371L1502.3,63.371" style="fill:none;stroke:#000000;stroke-width:0.5" />
<path d="M1696.2,55.371L1696.2,63.371" style="fill:none;stroke:#000000;stroke-width:0.5" />
<path d="M1890,55.371L1890,63.371" style="fill:none;stroke:#000000;stroke-width:0.5" />
<path d="M145.46,63.371L1890,63.371" style="fill:none;stroke:#000000;stroke-width:0.5" />
<g transform="rotate(90)">
<text x="484.13" y="23.467" transform="scale(1, -1)"
	style="font-family:Liberation Serif;font-variant:normal;font-weight:normal;font-style:normal;font-size:30px">log(μs + 1)</text>
</g>
<text x="49.712" y="-530.28" transform="scale(1, -1)"
	style="font-family:Liberation Serif;font-variant:normal;font-weight:normal;font-style:normal;font-size:20px">5000000</text>
<text x="39.712" y="-830.66" transform="scale(1, -1)"
	style="font-family:Liberation Serif;font-variant:normal;font-weight:normal;font-style:normal;font-size:20px">25000000</text>
<text x="39.712" y="-940.36" transform="scale(1, -1)"
	style="font-family:Liberation Serif;font-variant:normal;font-weight:normal;font-style:normal;font-size:20px">45000000</text>
<text x="39.712" y="-1009" transform="scale(1, -1)"
	style="font-family:Liberation Serif;font-variant:normal;font-weight:normal;font-style:normal;font-size:20px">65000000</text>
<path d="M124.71,534.85L132.71,534.85" style="fill:none;stroke:#000000;stroke-width:0.5" />
<path d="M124.71,835.23L132.71,835.23" style="fill:none;stroke:#000000;stroke-width:0.5" />
<path d="M124.71,944.93L132.71,944.93" style="fill:none;stroke:#000000;stroke-width:0.5" />
<path d="M124.71,1013.6L132.71,1013.6" style="fill:none;stroke:#000000;stroke-width:0.5" />
<path d="M128.71,739.89L132.71,739.89" style="fill:none;stroke:#000000;stroke-width:0.5" />
<path d="M128.71,898.02L132.71,898.02" style="fill:none;stroke:#000000;stroke-width:0.5" />
<path d="M128.71,982.38L132.71,982.38" style="fill:none;stroke:#000000;stroke-width:0.5" />
<path d="M132.71,80.11L132.71,1021.1" style="fill:none;stroke:#000000;stroke-width:0.5" />
<path d="M145.46,80.11L145.46,1021.1" style="fill:none;stroke:#808080;stroke-width:0.25" />
<path d="M339.3,80.11L339.3,1021.1" style="fill:none;stroke:#808080;stroke-width:0.25" />
<path d="M533.14,80.11L533.14,1021.1" style="fill:none;stroke:#808080;stroke-width:0.25" />
<path d="M726.97,80.11L726.97,1021.1" style="fill:none;stroke:#808080;stroke-width:0.25" />
<path d="M920.81,80.11L920.81,1021.1" style="fill:none;stroke:#808080;stroke-width:0.25" />
<path d="M1114.6,80.11L1114.6,1021.1" style="fill:none;stroke:#808080;stroke-width:0.25" />
<path d="M1308.5,80.11L1308.5,1021.1" style="fill:none;stroke:#808080;stroke-width:0.25" />
<path d="M1502.3,80.11L1502.3,1021.1" style="fill:none;stroke:#808080;stroke-width:0.25" />
<path d="M1696.2,80.11L1696.2,1021.1" style="fill:none;stroke:#808080;stroke-width:0.25" />
<path d="M1890,80.11L1890,1021.1" style="fill:none;stroke:#808080;stroke-width:0.25" />
<path d="M145.46,534.85L1890,534.85" style="fill:none;stroke:#808080;stroke-width:0.25" />
<path d="M145.46,835.23L1890,835.23" style="fill:none;stroke:#808080;stroke-width:0.25" />
<path d="M145.46,944.93L1890,944.93" style="fill:none;stroke:#808080;stroke-width:0.25" />
<path d="M145.46,1013.6L1890,1013.6" style="fill:none;stroke:#808080;stroke-width:0.25" />
<path d="M145.46,123.51L339.3,378.76L533.14,534.21L726.97,646.2L920.81,727.8L1114.6,799.06L1308.5,862.51L1502.3,914.64L1696.2,961.36L1890,1003.4" style="fill:none;stroke:#FF0000;stroke-width:4" />
<path d="M150.46,123.51A5,5 0 1 1 140.46,123.51A5,5 0 1 1 150.46,123.51Z" style="fill:#FF0000" />
<path d="M344.3,378.76A5,5 0 1 1 334.3,378.76A5,5 0 1 1 344.3,378.76Z" style="fill:#FF0000" />
<path d="M538.14,534.21A5,5 0 1 1 528.14,534.21A5,5 0 1 1 538.14,534.21Z" style="fill:#FF0000" />
<path d="M731.97,646.2A5,5 0 1 1 721.97,646.2A5,5 0 1 1 731.97,646.2Z" style="fill:#FF0000" />
<path d="M925.81,727.8A5,5 0 1 1 915.81,727.8A5,5 0 1 1 925.81,727.8Z" style="fill:#FF0000" />
<path d="M1119.6,799.06A5,5 0 1 1 1109.6,799.06A5,5 0 1 1 1119.6,799.06Z" style="fill:#FF0000" />
<path d="M1313.5,862.51A5,5 0 1 1 1303.5,862.51A5,5 0 1 1 1313.5,862.51Z" style="fill:#FF0000" />
<path d="M1507.3,914.64A5,5 0 1 1 1497.3,914.64A5,5 0 1 1 1507.3,914.64Z" style="fill:#FF0000" />
<path d="M1701.2,961.36A5,5 0 1 1 1691.2,961.36A5,5 0 1 1 1701.2,961.36Z" style="fill:#FF0000" />
<path d="M1895,1003.4A5,5 0 1 1 1885,1003.4A5,5 0 1 1 1895,1003.4Z" style="fill:#FF0000" />
<path d="M145.46,99.62L339.3,356.84L533.14,507.96L726.97,615.86L920.81,700.12L1114.6,769.3L1308.5,827.5L1502.3,877.77L1696.2,922.64L1890,962.71" style="fill:none;stroke:#0000FF;stroke-width:4" />
<path d="M150.46,99.62A5,5 0 1 1 140.46,99.62A5,5 0 1 1 150.46,99.62Z" style="fill:#0000FF" />
<path d="M344.3,356.84A5,5 0 1 1 334.3,356.84A5,5 0 1 1 344.3,356.84Z" style="fill:#0000FF" />
<path d="M538.14,507.96A5,5 0 1 1 528.14,507.96A5,5 0 1 1 538.14,507.96Z" style="fill:#0000FF" />
<path d="M731.97,615.86A5,5 0 1 1 721.97,615.86A5,5 0 1 1 731.97,615.86Z" style="fill:#0000FF" />
<path d="M925.81,700.12A5,5 0 1 1 915.81,700.12A5,5 0 1 1 925.81,700.12Z" style="fill:#0000FF" />
<path d="M1119.6,769.3A5,5 0 1 1 1109.6,769.3A5,5 0 1 1 1119.6,769.3Z" style="fill:#0000FF" />
<path d="M1313.5,827.5A5,5 0 1 1 1303.5,827.5A5,5 0 1 1 1313.5,827.5Z" style="fill:#0000FF" />
<path d="M1507.3,877.77A5,5 0 1 1 1497.3,877.77A5,5 0 1 1 1507.3,877.77Z" style="fill:#0000FF" />
<path d="M1701.2,922.64A5,5 0 1 1 1691.2,922.64A5,5 0 1 1 1701.2,922.64Z" style="fill:#0000FF" />
<path d="M1895,962.71A5,5 0 1 1 1885,962.71A5,5 0 1 1 1895,962.71Z" style="fill:#0000FF" />
<path d="M145.46,80.11L339.3,338.77L533.14,489.06L726.97,597.22L920.81,681.97L1114.6,751.08L1308.5,809.75L1502.3,858L1696.2,900.59L1890,938.86" style="fill:none;stroke:#00FF00;stroke-width:4" />
<path d="M150.46,80.11A5,5 0 1 1 140.46,80.11A5,5 0 1 1 150.46,80.11Z" style="fill:#00FF00" />
<path d="M344.3,338.77A5,5 0 1 1 334.3,338.77A5,5 0 1 1 344.3,338.77Z" style="fill:#00FF00" />
<path d="M538.14,489.06A5,5 0 1 1 528.14,489.06A5,5 0 1 1 538.14,489.06Z" style="fill:#00FF00" />
<path d="M731.97,597.22A5,5 0 1 1 721.97,597.22A5,5 0 1 1 731.97,597.22Z" style="fill:#00FF00" />
<path d="M925.81,681.97A5,5 0 1 1 915.81,681.97A5,5 0 1 1 925.81,681.97Z" style="fill:#00FF00" />
<path d="M1119.6,751.08A5,5 0 1 1 1109.6,751.08A5,5 0 1 1 1119.6,751.08Z" style="fill:#00FF00" />
<path d="M1313.5,809.75A5,5 0 1 1 1303.5,809.75A5,5 0 1 1 1313.5,809.75Z" style="fill:#00FF00" />
<path d="M1507.3,858A5,5 0 1 1 1497.3,858A5,5 0 1 1 1507.3,858Z" style="fill:#00FF00" />
<path d="M1701.2,900.59A5,5 0 1 1 1691.2,900.59A5,5 0 1 1 1701.2,900.59Z" style="fill:#00FF00" />
<path d="M1895,938.86A5,5 0 1 1 1885,938.86A5,5 0 1 1 1895,938.86Z" style="fill:#00FF00" />
<path d="M1900,126.03L1920,126.03" style="fill:none;stroke:#FF0000;stroke-width:4" />
<path d="M1915,126.03A5,5 0 1 1 1905,126.03A5,5 0 1 1 1915,126.03Z" style="fill:#FF0000" />
<text x="1823.3" y="-121.05" transform="scale(1, -1)"
	style="font-family:Liberation Serif;font-variant:normal;font-weight:normal;font-style:normal;font-size:24px">std::list</text>
<path d="M1900,105.66L1920,105.66" style="fill:none;stroke:#0000FF;stroke-width:4" />
<path d="M1915,105.66A5,5 0 1 1 1905,105.66A5,5 0 1 1 1915,105.66Z" style="fill:#0000FF" />
<text x="1795.4" y="-100.69" transform="scale(1, -1)"
	style="font-family:Liberation Serif;font-variant:normal;font-weight:normal;font-style:normal;font-size:24px">std::deque</text>
<path d="M1900,85.294L1920,85.294" style="fill:none;stroke:#00FF00;stroke-width:4" />
<path d="M1915,85.294A5,5 0 1 1 1905,85.294A5,5 0 1 1 1915,85.294Z" style="fill:#00FF00" />
<text x="1792.7" y="-80.319" transform="scale(1, -1)"
	style="font-family:Liberation Serif;font-variant:normal;font-weight:normal;font-style:normal;font-size:24px">std::vector</text>
</g>
</svg>
