<?xml version="1.0"?>
<!-- Generated by SVGo and Plotinum VG -->
<svg width="1920pt" height="1080pt" viewBox="0 0 1920 1080"
	xmlns="http://www.w3.org/2000/svg"
	xmlns:xlink="http://www.w3.org/1999/xlink">
<g transform="scale(1, -1) translate(0, -1080)">
<path d="M0,0L1920,0L1920,1080L0,1080Z" style="fill:#FFFFFF" />
<text x="750.34" y="-1040.9" transform="scale(1, -1)"
	style="font-family:Liberation Serif;font-variant:normal;font-weight:normal;font-style:normal;font-size:50px">random-sorted-insert</text>
<text x="880.35" y="-9.7559" transform="scale(1, -1)"
	style="font-family:Liberation Serif;font-variant:normal;font-weight:normal;font-style:normal;font-size:30px">Number of elements</text>
<text x="90.618" y="-39.727" transform="scale(1, -1)"
	style="font-family:Liberation Serif;font-variant:normal;font-weight:normal;font-style:normal;font-size:20px">10000</text>
<text x="287.77" y="-39.727" transform="scale(1, -1)"
	style="font-family:Liberation Serif;font-variant:normal;font-weight:normal;font-style:normal;font-size:20px">20000</text>
<text x="484.93" y="-39.727" transform="scale(1, -1)"
	style="font-family:Liberation Serif;font-variant:normal;font-weight:normal;font-style:normal;font-size:20px">30000</text>
<text x="682.08" y="-39.727" transform="scale(1, -1)"
	style="font-family:Liberation Serif;font-variant:normal;font-weight:normal;font-style:normal;font-size:20px">40000</text>
<text x="879.23" y="-39.727" transform="scale(1, -1)"
	style="font-family:Liberation Serif;font-variant:normal;font-weight:normal;font-style:normal;font-size:20px">50000</text>
<text x="1076.4" y="-39.727" transform="scale(1, -1)"
	style="font-family:Liberation Serif;font-variant:normal;font-weight:normal;font-style:normal;font-size:20px">60000</text>
<text x="1273.5" y="-39.727" transform="scale(1, -1)"
	style="font-family:Liberation Serif;font-variant:normal;font-weight:normal;font-style:normal;font-size:20px">70000</text>
<text x="1470.7" y="-39.727" transform="scale(1, -1)"
	style="font-family:Liberation Serif;font-variant:normal;font-weight:normal;font-style:normal;font-size:20px">80000</text>
<text x="1667.8" y="-39.727" transform="scale(1, -1)"
	style="font-family:Liberation Serif;font-variant:normal;font-weight:normal;font-style:normal;font-size:20px">90000</text>
<text x="1860" y="-39.727" transform="scale(1, -1)"
	style="font-family:Liberation Serif;font-variant:normal;font-weight:normal;font-style:normal;font-size:20px">100000</text>
<path d="M115.62,55.371L115.62,63.371" style="fill:none;stroke:#000000;stroke-width:0.5" />
<path d="M312.77,55.371L312.77,63.371" style="fill:none;stroke:#000000;stroke-width:0.5" />
<path d="M509.93,55.371L509.93,63.371" style="fill:none;stroke:#000000;stroke-width:0.5" />
<path d="M707.08,55.371L707.08,63.371" style="fill:none;stroke:#000000;stroke-width:0.5" />
<path d="M904.23,55.371L904.23,63.371" style="fill:none;stroke:#000000;stroke-width:0.5" />
<path d="M1101.4,55.371L1101.4,63.371" style="fill:none;stroke:#000000;stroke-width:0.5" />
<path d="M1298.5,55.371L1298.5,63.371" style="fill:none;stroke:#000000;stroke-width:0.5" />
<path d="M1495.7,55.371L1495.7,63.371" style="fill:none;stroke:#000000;stroke-width:0.5" />
<path d="M1692.8,55.371L1692.8,63.371" style="fill:none;stroke:#000000;stroke-width:0.5" />
<path d="M1890,55.371L1890,63.371" style="fill:none;stroke:#000000;stroke-width:0.5" />
<path d="M115.62,63.371L1890,63.371" style="fill:none;stroke:#000000;stroke-width:0.5" />
<g transform="rotate(90)">
<text x="538.49" y="23.467" transform="scale(1, -1)"
	style="font-family:Liberation Serif;font-variant:normal;font-weight:normal;font-style:normal;font-size:30px">μs</text>
</g>
<text x="39.712" y="-193.52" transform="scale(1, -1)"
	style="font-family:Liberation Serif;font-variant:normal;font-weight:normal;font-style:normal;font-size:20px">2e+07</text>
<text x="39.712" y="-557.02" transform="scale(1, -1)"
	style="font-family:Liberation Serif;font-variant:normal;font-weight:normal;font-style:normal;font-size:20px">8e+07</text>
<text x="39.712" y="-920.51" transform="scale(1, -1)"
	style="font-family:Liberation Serif;font-variant:normal;font-weight:normal;font-style:normal;font-size:20px">1e+08</text>
<path d="M94.868,198.1L102.87,198.1" style="fill:none;stroke:#000000;stroke-width:0.5" />
<path d="M94.868,561.59L102.87,561.59" style="fill:none;stroke:#000000;stroke-width:0.5" />
<path d="M94.868,925.08L102.87,925.08" style="fill:none;stroke:#000000;stroke-width:0.5" />
<path d="M98.868,379.84L102.87,379.84" style="fill:none;stroke:#000000;stroke-width:0.5" />
<path d="M98.868,743.33L102.87,743.33" style="fill:none;stroke:#000000;stroke-width:0.5" />
<path d="M102.87,80.11L102.87,1024.6" style="fill:none;stroke:#000000;stroke-width:0.5" />
<path d="M115.62,80.11L115.62,1024.6" style="fill:none;stroke:#808080;stroke-width:0.25" />
<path d="M312.77,80.11L312.77,1024.6" style="fill:none;stroke:#808080;stroke-width:0.25" />
<path d="M509.93,80.11L509.93,1024.6" style="fill:none;stroke:#808080;stroke-width:0.25" />
<path d="M707.08,80.11L707.08,1024.6" style="fill:none;stroke:#808080;stroke-width:0.25" />
<path d="M904.23,80.11L904.23,1024.6" style="fill:none;stroke:#808080;stroke-width:0.25" />
<path d="M1101.4,80.11L1101.4,1024.6" style="fill:none;stroke:#808080;stroke-width:0.25" />
<path d="M1298.5,80.11L1298.5,1024.6" style="fill:none;stroke:#808080;stroke-width:0.25" />
<path d="M1495.7,80.11L1495.7,1024.6" style="fill:none;stroke:#808080;stroke-width:0.25" />
<path d="M1692.8,80.11L1692.8,1024.6" style="fill:none;stroke:#808080;stroke-width:0.25" />
<path d="M1890,80.11L1890,1024.6" style="fill:none;stroke:#808080;stroke-width:0.25" />
<path d="M115.62,198.1L1890,198.1" style="fill:none;stroke:#808080;stroke-width:0.25" />
<path d="M115.62,561.59L1890,561.59" style="fill:none;stroke:#808080;stroke-width:0.25" />
<path d="M115.62,925.08L1890,925.08" style="fill:none;stroke:#808080;stroke-width:0.25" />
<path d="M115.62,80.11L312.77,90.03L509.93,106.39L707.08,131.12L904.23,167.65L1101.4,220.02L1298.5,286.33L1495.7,362.55L1692.8,424.48L1890,513.61" style="fill:none;stroke:#FF0000;stroke-width:4" />
<path d="M120.62,80.11A5,5 0 1 1 110.62,80.11A5,5 0 1 1 120.62,80.11Z" style="fill:#FF0000" />
<path d="M317.77,90.03A5,5 0 1 1 307.77,90.03A5,5 0 1 1 317.77,90.03Z" style="fill:#FF0000" />
<path d="M514.93,106.39A5,5 0 1 1 504.93,106.39A5,5 0 1 1 514.93,106.39Z" style="fill:#FF0000" />
<path d="M712.08,131.12A5,5 0 1 1 702.08,131.12A5,5 0 1 1 712.08,131.12Z" style="fill:#FF0000" />
<path d="M909.23,167.65A5,5 0 1 1 899.23,167.65A5,5 0 1 1 909.23,167.65Z" style="fill:#FF0000" />
<path d="M1106.4,220.02A5,5 0 1 1 1096.4,220.02A5,5 0 1 1 1106.4,220.02Z" style="fill:#FF0000" />
<path d="M1303.5,286.33A5,5 0 1 1 1293.5,286.33A5,5 0 1 1 1303.5,286.33Z" style="fill:#FF0000" />
<path d="M1500.7,362.55A5,5 0 1 1 1490.7,362.55A5,5 0 1 1 1500.7,362.55Z" style="fill:#FF0000" />
<path d="M1697.8,424.48A5,5 0 1 1 1687.8,424.48A5,5 0 1 1 1697.8,424.48Z" style="fill:#FF0000" />
<path d="M1895,513.61A5,5 0 1 1 1885,513.61A5,5 0 1 1 1895,513.61Z" style="fill:#FF0000" />
<path d="M115.62,82.805L312.77,100.4L509.93,129.94L707.08,171.67L904.23,225.96L1101.4,293.01L1298.5,372.74L1495.7,465.94L1692.8,572.97L1890,693.47" style="fill:none;stroke:#0000FF;stroke-width:4" />
<path d="M120.62,82.805A5,5 0 1 1 110.62,82.805A5,5 0 1 1 120.62,82.805Z" style="fill:#0000FF" />
<path d="M317.77,100.4A5,5 0 1 1 307.77,100.4A5,5 0 1 1 317.77,100.4Z" style="fill:#0000FF" />
<path d="M514.93,129.94A5,5 0 1 1 504.93,129.94A5,5 0 1 1 514.93,129.94Z" style="fill:#0000FF" />
<path d="M712.08,171.67A5,5 0 1 1 702.08,171.67A5,5 0 1 1 712.08,171.67Z" style="fill:#0000FF" />
<path d="M909.23,225.96A5,5 0 1 1 899.23,225.96A5,5 0 1 1 909.23,225.96Z" style="fill:#0000FF" />
<path d="M1106.4,293.01A5,5 0 1 1 1096.4,293.01A5,5 0 1 1 1106.4,293.01Z" style="fill:#0000FF" />
<path d="M1303.5,372.74A5,5 0 1 1 1293.5,372.74A5,5 0 1 1 1303.5,372.74Z" style="fill:#0000FF" />
<path d="M1500.7,465.94A5,5 0 1 1 1490.7,465.94A5,5 0 1 1 1500.7,465.94Z" style="fill:#0000FF" />
<path d="M1697.8,572.97A5,5 0 1 1 1687.8,572.97A5,5 0 1 1 1697.8,572.97Z" style="fill:#0000FF" />
<path d="M1895,693.47A5,5 0 1 1 1885,693.47A5,5 0 1 1 1895,693.47Z" style="fill:#0000FF" />
<path d="M115.62,85.084L312.77,109.32L509.93,150.04L707.08,207.62L904.23,282.26L1101.4,374.04L1298.5,482.38L1495.7,608.67L1692.8,752.79L1890,938.47" style="fill:none;stroke:#00FF00;stroke-width:4" />
<path d="M120.62,85.084A5,5 0 1 1 110.62,85.084A5,5 0 1 1 120.62,85.084Z" style="fill:#00FF00" />
<path d="M317.77,109.32A5,5 0 1 1 307.77,109.32A5,5 0 1 1 317.77,109.32Z" style="fill:#00FF00" />
<path d="M514.93,150.04A5,5 0 1 1 504.93,150.04A5,5 0 1 1 514.93,150.04Z" style="fill:#00FF00" />
<path d="M712.08,207.62A5,5 0 1 1 702.08,207.62A5,5 0 1 1 712.08,207.62Z" style="fill:#00FF00" />
<path d="M909.23,282.26A5,5 0 1 1 899.23,282.26A5,5 0 1 1 909.23,282.26Z" style="fill:#00FF00" />
<path d="M1106.4,374.04A5,5 0 1 1 1096.4,374.04A5,5 0 1 1 1106.4,374.04Z" style="fill:#00FF00" />
<path d="M1303.5,482.38A5,5 0 1 1 1293.5,482.38A5,5 0 1 1 1303.5,482.38Z" style="fill:#00FF00" />
<path d="M1500.7,608.67A5,5 0 1 1 1490.7,608.67A5,5 0 1 1 1500.7,608.67Z" style="fill:#00FF00" />
<path d="M1697.8,752.79A5,5 0 1 1 1687.8,752.79A5,5 0 1 1 1697.8,752.79Z" style="fill:#00FF00" />
<path d="M1895,938.47A5,5 0 1 1 1885,938.47A5,5 0 1 1 1895,938.47Z" style="fill:#00FF00" />
<path d="M1900,126.03L1920,126.03" style="fill:none;stroke:#FF0000;stroke-width:4" />
<path d="M1915,126.03A5,5 0 1 1 1905,126.03A5,5 0 1 1 1915,126.03Z" style="fill:#FF0000" />
<text x="1823.3" y="-121.05" transform="scale(1, -1)"
	style="font-family:Liberation Serif;font-variant:normal;font-weight:normal;font-style:normal;font-size:24px">std::list</text>
<path d="M1900,105.66L1920,105.66" style="fill:none;stroke:#0000FF;stroke-width:4" />
<path d="M1915,105.66A5,5 0 1 1 1905,105.66A5,5 0 1 1 1915,105.66Z" style="fill:#0000FF" />
<text x="1795.4" y="-100.69" transform="scale(1, -1)"
	style="font-family:Liberation Serif;font-variant:normal;font-weight:normal;font-style:normal;font-size:24px">std::deque</text>
<path d="M1900,85.294L1920,85.294" style="fill:none;stroke:#00FF00;stroke-width:4" />
<path d="M1915,85.294A5,5 0 1 1 1905,85.294A5,5 0 1 1 1915,85.294Z" style="fill:#00FF00" />
<text x="1792.7" y="-80.319" transform="scale(1, -1)"
	style="font-family:Liberation Serif;font-variant:normal;font-weight:normal;font-style:normal;font-size:24px">std::vector</text>
</g>
</svg>
