<?xml version="1.0"?>
<!-- Generated by SVGo and Plotinum VG -->
<svg width="1920pt" height="1080pt" viewBox="0 0 1920 1080"
	xmlns="http://www.w3.org/2000/svg"
	xmlns:xlink="http://www.w3.org/1999/xlink">
<g transform="scale(1, -1) translate(0, -1080)">
<path d="M0,0L1920,0L1920,1080L0,1080Z" style="fill:#FFFFFF" />
<text x="628.86" y="-1040.9" transform="scale(1, -1)"
	style="font-family:Liberation Serif;font-variant:normal;font-weight:normal;font-style:normal;font-size:50px">random-sorted-insert - Log Scale</text>
<text x="892.85" y="-9.7559" transform="scale(1, -1)"
	style="font-family:Liberation Serif;font-variant:normal;font-weight:normal;font-style:normal;font-size:30px">Number of elements</text>
<text x="115.62" y="-39.727" transform="scale(1, -1)"
	style="font-family:Liberation Serif;font-variant:normal;font-weight:normal;font-style:normal;font-size:20px">10000</text>
<text x="309.99" y="-39.727" transform="scale(1, -1)"
	style="font-family:Liberation Serif;font-variant:normal;font-weight:normal;font-style:normal;font-size:20px">20000</text>
<text x="504.37" y="-39.727" transform="scale(1, -1)"
	style="font-family:Liberation Serif;font-variant:normal;font-weight:normal;font-style:normal;font-size:20px">30000</text>
<text x="698.75" y="-39.727" transform="scale(1, -1)"
	style="font-family:Liberation Serif;font-variant:normal;font-weight:normal;font-style:normal;font-size:20px">40000</text>
<text x="893.12" y="-39.727" transform="scale(1, -1)"
	style="font-family:Liberation Serif;font-variant:normal;font-weight:normal;font-style:normal;font-size:20px">50000</text>
<text x="1087.5" y="-39.727" transform="scale(1, -1)"
	style="font-family:Liberation Serif;font-variant:normal;font-weight:normal;font-style:normal;font-size:20px">60000</text>
<text x="1281.9" y="-39.727" transform="scale(1, -1)"
	style="font-family:Liberation Serif;font-variant:normal;font-weight:normal;font-style:normal;font-size:20px">70000</text>
<text x="1476.2" y="-39.727" transform="scale(1, -1)"
	style="font-family:Liberation Serif;font-variant:normal;font-weight:normal;font-style:normal;font-size:20px">80000</text>
<text x="1670.6" y="-39.727" transform="scale(1, -1)"
	style="font-family:Liberation Serif;font-variant:normal;font-weight:normal;font-style:normal;font-size:20px">90000</text>
<text x="1860" y="-39.727" transform="scale(1, -1)"
	style="font-family:Liberation Serif;font-variant:normal;font-weight:normal;font-style:normal;font-size:20px">100000</text>
<path d="M140.62,55.371L140.62,63.371" style="fill:none;stroke:#000000;stroke-width:0.5" />
<path d="M334.99,55.371L334.99,63.371" style="fill:none;stroke:#000000;stroke-width:0.5" />
<path d="M529.37,55.371L529.37,63.371" style="fill:none;stroke:#000000;stroke-width:0.5" />
<path d="M723.75,55.371L723.75,63.371" style="fill:none;stroke:#000000;stroke-width:0.5" />
<path d="M918.12,55.371L918.12,63.371" style="fill:none;stroke:#000000;stroke-width:0.5" />
<path d="M1112.5,55.371L1112.5,63.371" style="fill:none;stroke:#000000;stroke-width:0.5" />
<path d="M1306.9,55.371L1306.9,63.371" style="fill:none;stroke:#000000;stroke-width:0.5" />
<path d="M1501.2,55.371L1501.2,63.371" style="fill:none;stroke:#000000;stroke-width:0.5" />
<path d="M1695.6,55.371L1695.6,63.371" style="fill:none;stroke:#000000;stroke-width:0.5" />
<path d="M1890,55.371L1890,63.371" style="fill:none;stroke:#000000;stroke-width:0.5" />
<path d="M140.62,63.371L1890,63.371" style="fill:none;stroke:#000000;stroke-width:0.5" />
<g transform="rotate(90)">
<text x="485.87" y="23.467" transform="scale(1, -1)"
	style="font-family:Liberation Serif;font-variant:normal;font-weight:normal;font-style:normal;font-size:30px">log(μs + 1)</text>
</g>
<text x="49.712" y="-728.07" transform="scale(1, -1)"
	style="font-family:Liberation Serif;font-variant:normal;font-weight:normal;font-style:normal;font-size:20px">2.5e+07</text>
<text x="49.712" y="-915.39" transform="scale(1, -1)"
	style="font-family:Liberation Serif;font-variant:normal;font-weight:normal;font-style:normal;font-size:20px">7.5e+07</text>
<text x="39.712" y="-1002.5" transform="scale(1, -1)"
	style="font-family:Liberation Serif;font-variant:normal;font-weight:normal;font-style:normal;font-size:20px">1.25e+08</text>
<path d="M119.87,732.64L127.87,732.64" style="fill:none;stroke:#000000;stroke-width:0.5" />
<path d="M119.87,919.96L127.87,919.96" style="fill:none;stroke:#000000;stroke-width:0.5" />
<path d="M119.87,1007.1L127.87,1007.1" style="fill:none;stroke:#000000;stroke-width:0.5" />
<path d="M123.87,458.22L127.87,458.22" style="fill:none;stroke:#000000;stroke-width:0.5" />
<path d="M123.87,645.54L127.87,645.54" style="fill:none;stroke:#000000;stroke-width:0.5" />
<path d="M123.87,790.01L127.87,790.01" style="fill:none;stroke:#000000;stroke-width:0.5" />
<path d="M123.87,832.86L127.87,832.86" style="fill:none;stroke:#000000;stroke-width:0.5" />
<path d="M123.87,867.08L127.87,867.08" style="fill:none;stroke:#000000;stroke-width:0.5" />
<path d="M123.87,895.56L127.87,895.56" style="fill:none;stroke:#000000;stroke-width:0.5" />
<path d="M123.87,941.31L127.87,941.31" style="fill:none;stroke:#000000;stroke-width:0.5" />
<path d="M123.87,960.27L127.87,960.27" style="fill:none;stroke:#000000;stroke-width:0.5" />
<path d="M123.87,977.34L127.87,977.34" style="fill:none;stroke:#000000;stroke-width:0.5" />
<path d="M123.87,992.85L127.87,992.85" style="fill:none;stroke:#000000;stroke-width:0.5" />
<path d="M123.87,1020.2L127.87,1020.2" style="fill:none;stroke:#000000;stroke-width:0.5" />
<path d="M127.87,80.11L127.87,1024.6" style="fill:none;stroke:#000000;stroke-width:0.5" />
<path d="M140.62,80.11L140.62,1024.6" style="fill:none;stroke:#808080;stroke-width:0.25" />
<path d="M334.99,80.11L334.99,1024.6" style="fill:none;stroke:#808080;stroke-width:0.25" />
<path d="M529.37,80.11L529.37,1024.6" style="fill:none;stroke:#808080;stroke-width:0.25" />
<path d="M723.75,80.11L723.75,1024.6" style="fill:none;stroke:#808080;stroke-width:0.25" />
<path d="M918.12,80.11L918.12,1024.6" style="fill:none;stroke:#808080;stroke-width:0.25" />
<path d="M1112.5,80.11L1112.5,1024.6" style="fill:none;stroke:#808080;stroke-width:0.25" />
<path d="M1306.9,80.11L1306.9,1024.6" style="fill:none;stroke:#808080;stroke-width:0.25" />
<path d="M1501.2,80.11L1501.2,1024.6" style="fill:none;stroke:#808080;stroke-width:0.25" />
<path d="M1695.6,80.11L1695.6,1024.6" style="fill:none;stroke:#808080;stroke-width:0.25" />
<path d="M1890,80.11L1890,1024.6" style="fill:none;stroke:#808080;stroke-width:0.25" />
<path d="M140.62,732.64L1890,732.64" style="fill:none;stroke:#808080;stroke-width:0.25" />
<path d="M140.62,919.96L1890,919.96" style="fill:none;stroke:#808080;stroke-width:0.25" />
<path d="M140.62,1007.1L1890,1007.1" style="fill:none;stroke:#808080;stroke-width:0.25" />
<path d="M140.62,80.11L334.99,310.35L529.37,450.99L723.75,552.06L918.12,635.04L1112.5,706.51L1306.9,766.5L1501.2,820.08L1695.6,871.71L1890,908.57" style="fill:none;stroke:#FF0000;stroke-width:4" />
<path d="M145.62,80.11A5,5 0 1 1 135.62,80.11A5,5 0 1 1 145.62,80.11Z" style="fill:#FF0000" />
<path d="M339.99,310.35A5,5 0 1 1 329.99,310.35A5,5 0 1 1 339.99,310.35Z" style="fill:#FF0000" />
<path d="M534.37,450.99A5,5 0 1 1 524.37,450.99A5,5 0 1 1 534.37,450.99Z" style="fill:#FF0000" />
<path d="M728.75,552.06A5,5 0 1 1 718.75,552.06A5,5 0 1 1 728.75,552.06Z" style="fill:#FF0000" />
<path d="M923.12,635.04A5,5 0 1 1 913.12,635.04A5,5 0 1 1 923.12,635.04Z" style="fill:#FF0000" />
<path d="M1117.5,706.51A5,5 0 1 1 1107.5,706.51A5,5 0 1 1 1117.5,706.51Z" style="fill:#FF0000" />
<path d="M1311.9,766.5A5,5 0 1 1 1301.9,766.5A5,5 0 1 1 1311.9,766.5Z" style="fill:#FF0000" />
<path d="M1506.2,820.08A5,5 0 1 1 1496.2,820.08A5,5 0 1 1 1506.2,820.08Z" style="fill:#FF0000" />
<path d="M1700.6,871.71A5,5 0 1 1 1690.6,871.71A5,5 0 1 1 1700.6,871.71Z" style="fill:#FF0000" />
<path d="M1895,908.57A5,5 0 1 1 1885,908.57A5,5 0 1 1 1895,908.57Z" style="fill:#FF0000" />
<path d="M140.62,166.73L334.99,401.92L529.37,541.28L723.75,640.7L918.12,718.12L1112.5,785.58L1306.9,844.8L1501.2,884.68L1695.6,932.74L1890,971.44" style="fill:none;stroke:#0000FF;stroke-width:4" />
<path d="M145.62,166.73A5,5 0 1 1 135.62,166.73A5,5 0 1 1 145.62,166.73Z" style="fill:#0000FF" />
<path d="M339.99,401.92A5,5 0 1 1 329.99,401.92A5,5 0 1 1 339.99,401.92Z" style="fill:#0000FF" />
<path d="M534.37,541.28A5,5 0 1 1 524.37,541.28A5,5 0 1 1 534.37,541.28Z" style="fill:#0000FF" />
<path d="M728.75,640.7A5,5 0 1 1 718.75,640.7A5,5 0 1 1 728.75,640.7Z" style="fill:#0000FF" />
<path d="M923.12,718.12A5,5 0 1 1 913.12,718.12A5,5 0 1 1 923.12,718.12Z" style="fill:#0000FF" />
<path d="M1117.5,785.58A5,5 0 1 1 1107.5,785.58A5,5 0 1 1 1117.5,785.58Z" style="fill:#0000FF" />
<path d="M1311.9,844.8A5,5 0 1 1 1301.9,844.8A5,5 0 1 1 1311.9,844.8Z" style="fill:#0000FF" />
<path d="M1506.2,884.68A5,5 0 1 1 1496.2,884.68A5,5 0 1 1 1506.2,884.68Z" style="fill:#0000FF" />
<path d="M1700.6,932.74A5,5 0 1 1 1690.6,932.74A5,5 0 1 1 1700.6,932.74Z" style="fill:#0000FF" />
<path d="M1895,971.44A5,5 0 1 1 1885,971.44A5,5 0 1 1 1895,971.44Z" style="fill:#0000FF" />
<path d="M140.62,216.29L334.99,450.85L529.37,588.82L723.75,687.64L918.12,763.96L1112.5,824.44L1306.9,877.57L1501.2,925.06L1695.6,966.41L1890,1008.4" style="fill:none;stroke:#00FF00;stroke-width:4" />
<path d="M145.62,216.29A5,5 0 1 1 135.62,216.29A5,5 0 1 1 145.62,216.29Z" style="fill:#00FF00" />
<path d="M339.99,450.85A5,5 0 1 1 329.99,450.85A5,5 0 1 1 339.99,450.85Z" style="fill:#00FF00" />
<path d="M534.37,588.82A5,5 0 1 1 524.37,588.82A5,5 0 1 1 534.37,588.82Z" style="fill:#00FF00" />
<path d="M728.75,687.64A5,5 0 1 1 718.75,687.64A5,5 0 1 1 728.75,687.64Z" style="fill:#00FF00" />
<path d="M923.12,763.96A5,5 0 1 1 913.12,763.96A5,5 0 1 1 923.12,763.96Z" style="fill:#00FF00" />
<path d="M1117.5,824.44A5,5 0 1 1 1107.5,824.44A5,5 0 1 1 1117.5,824.44Z" style="fill:#00FF00" />
<path d="M1311.9,877.57A5,5 0 1 1 1301.9,877.57A5,5 0 1 1 1311.9,877.57Z" style="fill:#00FF00" />
<path d="M1506.2,925.06A5,5 0 1 1 1496.2,925.06A5,5 0 1 1 1506.2,925.06Z" style="fill:#00FF00" />
<path d="M1700.6,966.41A5,5 0 1 1 1690.6,966.41A5,5 0 1 1 1700.6,966.41Z" style="fill:#00FF00" />
<path d="M1895,1008.4A5,5 0 1 1 1885,1008.4A5,5 0 1 1 1895,1008.4Z" style="fill:#00FF00" />
<path d="M1900,126.03L1920,126.03" style="fill:none;stroke:#FF0000;stroke-width:4" />
<path d="M1915,126.03A5,5 0 1 1 1905,126.03A5,5 0 1 1 1915,126.03Z" style="fill:#FF0000" />
<text x="1823.3" y="-121.05" transform="scale(1, -1)"
	style="font-family:Liberation Serif;font-variant:normal;font-weight:normal;font-style:normal;font-size:24px">std::list</text>
<path d="M1900,105.66L1920,105.66" style="fill:none;stroke:#0000FF;stroke-width:4" />
<path d="M1915,105.66A5,5 0 1 1 1905,105.66A5,5 0 1 1 1915,105.66Z" style="fill:#0000FF" />
<text x="1795.4" y="-100.69" transform="scale(1, -1)"
	style="font-family:Liberation Serif;font-variant:normal;font-weight:normal;font-style:normal;font-size:24px">std::deque</text>
<path d="M1900,85.294L1920,85.294" style="fill:none;stroke:#00FF00;stroke-width:4" />
<path d="M1915,85.294A5,5 0 1 1 1905,85.294A5,5 0 1 1 1915,85.294Z" style="fill:#00FF00" />
<text x="1792.7" y="-80.319" transform="scale(1, -1)"
	style="font-family:Liberation Serif;font-variant:normal;font-weight:normal;font-style:normal;font-size:24px">std::vector</text>
</g>
</svg>
