<?xml version="1.0"?>
<!-- Generated by SVGo and Plotinum VG -->
<svg width="1920pt" height="1080pt" viewBox="0 0 1920 1080"
	xmlns="http://www.w3.org/2000/svg"
	xmlns:xlink="http://www.w3.org/1999/xlink">
<g transform="scale(1, -1) translate(0, -1080)">
<path d="M0,0L1920,0L1920,1080L0,1080Z" style="fill:#FFFFFF" />
<text x="750.34" y="-1040.9" transform="scale(1, -1)"
	style="font-family:Liberation Serif;font-variant:normal;font-weight:normal;font-style:normal;font-size:50px">random-sorted-insert</text>
<text x="895.27" y="-9.7559" transform="scale(1, -1)"
	style="font-family:Liberation Serif;font-variant:normal;font-weight:normal;font-style:normal;font-size:30px">Number of elements</text>
<text x="120.46" y="-39.727" transform="scale(1, -1)"
	style="font-family:Liberation Serif;font-variant:normal;font-weight:normal;font-style:normal;font-size:20px">10000</text>
<text x="314.3" y="-39.727" transform="scale(1, -1)"
	style="font-family:Liberation Serif;font-variant:normal;font-weight:normal;font-style:normal;font-size:20px">20000</text>
<text x="508.14" y="-39.727" transform="scale(1, -1)"
	style="font-family:Liberation Serif;font-variant:normal;font-weight:normal;font-style:normal;font-size:20px">30000</text>
<text x="701.97" y="-39.727" transform="scale(1, -1)"
	style="font-family:Liberation Serif;font-variant:normal;font-weight:normal;font-style:normal;font-size:20px">40000</text>
<text x="895.81" y="-39.727" transform="scale(1, -1)"
	style="font-family:Liberation Serif;font-variant:normal;font-weight:normal;font-style:normal;font-size:20px">50000</text>
<text x="1089.6" y="-39.727" transform="scale(1, -1)"
	style="font-family:Liberation Serif;font-variant:normal;font-weight:normal;font-style:normal;font-size:20px">60000</text>
<text x="1283.5" y="-39.727" transform="scale(1, -1)"
	style="font-family:Liberation Serif;font-variant:normal;font-weight:normal;font-style:normal;font-size:20px">70000</text>
<text x="1477.3" y="-39.727" transform="scale(1, -1)"
	style="font-family:Liberation Serif;font-variant:normal;font-weight:normal;font-style:normal;font-size:20px">80000</text>
<text x="1671.2" y="-39.727" transform="scale(1, -1)"
	style="font-family:Liberation Serif;font-variant:normal;font-weight:normal;font-style:normal;font-size:20px">90000</text>
<text x="1860" y="-39.727" transform="scale(1, -1)"
	style="font-family:Liberation Serif;font-variant:normal;font-weight:normal;font-style:normal;font-size:20px">100000</text>
<path d="M145.46,55.371L145.46,63.371" style="fill:none;stroke:#000000;stroke-width:0.5" />
<path d="M339.3,55.371L339.3,63.371" style="fill:none;stroke:#000000;stroke-width:0.5" />
<path d="M533.14,55.371L533.14,63.371" style="fill:none;stroke:#000000;stroke-width:0.5" />
<path d="M726.97,55.371L726.97,63.371" style="fill:none;stroke:#000000;stroke-width:0.5" />
<path d="M920.81,55.371L920.81,63.371" style="fill:none;stroke:#000000;stroke-width:0.5" />
<path d="M1114.6,55.371L1114.6,63.371" style="fill:none;stroke:#000000;stroke-width:0.5" />
<path d="M1308.5,55.371L1308.5,63.371" style="fill:none;stroke:#000000;stroke-width:0.5" />
<path d="M1502.3,55.371L1502.3,63.371" style="fill:none;stroke:#000000;stroke-width:0.5" />
<path d="M1696.2,55.371L1696.2,63.371" style="fill:none;stroke:#000000;stroke-width:0.5" />
<path d="M1890,55.371L1890,63.371" style="fill:none;stroke:#000000;stroke-width:0.5" />
<path d="M145.46,63.371L1890,63.371" style="fill:none;stroke:#000000;stroke-width:0.5" />
<g transform="rotate(90)">
<text x="538.49" y="23.467" transform="scale(1, -1)"
	style="font-family:Liberation Serif;font-variant:normal;font-weight:normal;font-style:normal;font-size:30px">μs</text>
</g>
<text x="49.712" y="-139.61" transform="scale(1, -1)"
	style="font-family:Liberation Serif;font-variant:normal;font-weight:normal;font-style:normal;font-size:20px">5000000</text>
<text x="39.712" y="-420.47" transform="scale(1, -1)"
	style="font-family:Liberation Serif;font-variant:normal;font-weight:normal;font-style:normal;font-size:20px">25000000</text>
<text x="39.712" y="-701.33" transform="scale(1, -1)"
	style="font-family:Liberation Serif;font-variant:normal;font-weight:normal;font-style:normal;font-size:20px">45000000</text>
<text x="39.712" y="-982.18" transform="scale(1, -1)"
	style="font-family:Liberation Serif;font-variant:normal;font-weight:normal;font-style:normal;font-size:20px">65000000</text>
<path d="M124.71,144.18L132.71,144.18" style="fill:none;stroke:#000000;stroke-width:0.5" />
<path d="M124.71,425.04L132.71,425.04" style="fill:none;stroke:#000000;stroke-width:0.5" />
<path d="M124.71,705.9L132.71,705.9" style="fill:none;stroke:#000000;stroke-width:0.5" />
<path d="M124.71,986.75L132.71,986.75" style="fill:none;stroke:#000000;stroke-width:0.5" />
<path d="M128.71,284.61L132.71,284.61" style="fill:none;stroke:#000000;stroke-width:0.5" />
<path d="M128.71,565.47L132.71,565.47" style="fill:none;stroke:#000000;stroke-width:0.5" />
<path d="M128.71,846.32L132.71,846.32" style="fill:none;stroke:#000000;stroke-width:0.5" />
<path d="M132.71,80.11L132.71,1024.6" style="fill:none;stroke:#000000;stroke-width:0.5" />
<path d="M145.46,80.11L145.46,1024.6" style="fill:none;stroke:#808080;stroke-width:0.25" />
<path d="M339.3,80.11L339.3,1024.6" style="fill:none;stroke:#808080;stroke-width:0.25" />
<path d="M533.14,80.11L533.14,1024.6" style="fill:none;stroke:#808080;stroke-width:0.25" />
<path d="M726.97,80.11L726.97,1024.6" style="fill:none;stroke:#808080;stroke-width:0.25" />
<path d="M920.81,80.11L920.81,1024.6" style="fill:none;stroke:#808080;stroke-width:0.25" />
<path d="M1114.6,80.11L1114.6,1024.6" style="fill:none;stroke:#808080;stroke-width:0.25" />
<path d="M1308.5,80.11L1308.5,1024.6" style="fill:none;stroke:#808080;stroke-width:0.25" />
<path d="M1502.3,80.11L1502.3,1024.6" style="fill:none;stroke:#808080;stroke-width:0.25" />
<path d="M1696.2,80.11L1696.2,1024.6" style="fill:none;stroke:#808080;stroke-width:0.25" />
<path d="M1890,80.11L1890,1024.6" style="fill:none;stroke:#808080;stroke-width:0.25" />
<path d="M145.46,144.18L1890,144.18" style="fill:none;stroke:#808080;stroke-width:0.25" />
<path d="M145.46,425.04L1890,425.04" style="fill:none;stroke:#808080;stroke-width:0.25" />
<path d="M145.46,705.9L1890,705.9" style="fill:none;stroke:#808080;stroke-width:0.25" />
<path d="M145.46,986.75L1890,986.75" style="fill:none;stroke:#808080;stroke-width:0.25" />
<path d="M145.46,81.718L339.3,104.39L533.14,143.94L726.97,201.48L920.81,271.4L1114.6,363.19L1308.5,480.3L1502.3,611.23L1696.2,764.06L1890,938.21" style="fill:none;stroke:#FF0000;stroke-width:4" />
<path d="M150.46,81.718A5,5 0 1 1 140.46,81.718A5,5 0 1 1 150.46,81.718Z" style="fill:#FF0000" />
<path d="M344.3,104.39A5,5 0 1 1 334.3,104.39A5,5 0 1 1 344.3,104.39Z" style="fill:#FF0000" />
<path d="M538.14,143.94A5,5 0 1 1 528.14,143.94A5,5 0 1 1 538.14,143.94Z" style="fill:#FF0000" />
<path d="M731.97,201.48A5,5 0 1 1 721.97,201.48A5,5 0 1 1 731.97,201.48Z" style="fill:#FF0000" />
<path d="M925.81,271.4A5,5 0 1 1 915.81,271.4A5,5 0 1 1 925.81,271.4Z" style="fill:#FF0000" />
<path d="M1119.6,363.19A5,5 0 1 1 1109.6,363.19A5,5 0 1 1 1119.6,363.19Z" style="fill:#FF0000" />
<path d="M1313.5,480.3A5,5 0 1 1 1303.5,480.3A5,5 0 1 1 1313.5,480.3Z" style="fill:#FF0000" />
<path d="M1507.3,611.23A5,5 0 1 1 1497.3,611.23A5,5 0 1 1 1507.3,611.23Z" style="fill:#FF0000" />
<path d="M1701.2,764.06A5,5 0 1 1 1691.2,764.06A5,5 0 1 1 1701.2,764.06Z" style="fill:#FF0000" />
<path d="M1895,938.21A5,5 0 1 1 1885,938.21A5,5 0 1 1 1895,938.21Z" style="fill:#FF0000" />
<path d="M145.46,80.787L339.3,101.02L533.14,134.76L726.97,182.34L920.81,244.19L1114.6,320.56L1308.5,410.8L1502.3,514.93L1696.2,634.76L1890,769.08" style="fill:none;stroke:#0000FF;stroke-width:4" />
<path d="M150.46,80.787A5,5 0 1 1 140.46,80.787A5,5 0 1 1 150.46,80.787Z" style="fill:#0000FF" />
<path d="M344.3,101.02A5,5 0 1 1 334.3,101.02A5,5 0 1 1 344.3,101.02Z" style="fill:#0000FF" />
<path d="M538.14,134.76A5,5 0 1 1 528.14,134.76A5,5 0 1 1 538.14,134.76Z" style="fill:#0000FF" />
<path d="M731.97,182.34A5,5 0 1 1 721.97,182.34A5,5 0 1 1 731.97,182.34Z" style="fill:#0000FF" />
<path d="M925.81,244.19A5,5 0 1 1 915.81,244.19A5,5 0 1 1 925.81,244.19Z" style="fill:#0000FF" />
<path d="M1119.6,320.56A5,5 0 1 1 1109.6,320.56A5,5 0 1 1 1119.6,320.56Z" style="fill:#0000FF" />
<path d="M1313.5,410.8A5,5 0 1 1 1303.5,410.8A5,5 0 1 1 1313.5,410.8Z" style="fill:#0000FF" />
<path d="M1507.3,514.93A5,5 0 1 1 1497.3,514.93A5,5 0 1 1 1507.3,514.93Z" style="fill:#0000FF" />
<path d="M1701.2,634.76A5,5 0 1 1 1691.2,634.76A5,5 0 1 1 1701.2,634.76Z" style="fill:#0000FF" />
<path d="M1895,769.08A5,5 0 1 1 1885,769.08A5,5 0 1 1 1895,769.08Z" style="fill:#0000FF" />
<path d="M145.46,80.11L339.3,98.524L533.14,128.91L726.97,172.04L920.81,228.41L1114.6,297.63L1308.5,380.24L1502.3,470.61L1696.2,572.29L1890,685.7" style="fill:none;stroke:#00FF00;stroke-width:4" />
<path d="M150.46,80.11A5,5 0 1 1 140.46,80.11A5,5 0 1 1 150.46,80.11Z" style="fill:#00FF00" />
<path d="M344.3,98.524A5,5 0 1 1 334.3,98.524A5,5 0 1 1 344.3,98.524Z" style="fill:#00FF00" />
<path d="M538.14,128.91A5,5 0 1 1 528.14,128.91A5,5 0 1 1 538.14,128.91Z" style="fill:#00FF00" />
<path d="M731.97,172.04A5,5 0 1 1 721.97,172.04A5,5 0 1 1 731.97,172.04Z" style="fill:#00FF00" />
<path d="M925.81,228.41A5,5 0 1 1 915.81,228.41A5,5 0 1 1 925.81,228.41Z" style="fill:#00FF00" />
<path d="M1119.6,297.63A5,5 0 1 1 1109.6,297.63A5,5 0 1 1 1119.6,297.63Z" style="fill:#00FF00" />
<path d="M1313.5,380.24A5,5 0 1 1 1303.5,380.24A5,5 0 1 1 1313.5,380.24Z" style="fill:#00FF00" />
<path d="M1507.3,470.61A5,5 0 1 1 1497.3,470.61A5,5 0 1 1 1507.3,470.61Z" style="fill:#00FF00" />
<path d="M1701.2,572.29A5,5 0 1 1 1691.2,572.29A5,5 0 1 1 1701.2,572.29Z" style="fill:#00FF00" />
<path d="M1895,685.7A5,5 0 1 1 1885,685.7A5,5 0 1 1 1895,685.7Z" style="fill:#00FF00" />
<path d="M1900,126.03L1920,126.03" style="fill:none;stroke:#FF0000;stroke-width:4" />
<path d="M1915,126.03A5,5 0 1 1 1905,126.03A5,5 0 1 1 1915,126.03Z" style="fill:#FF0000" />
<text x="1823.3" y="-121.05" transform="scale(1, -1)"
	style="font-family:Liberation Serif;font-variant:normal;font-weight:normal;font-style:normal;font-size:24px">std::list</text>
<path d="M1900,105.66L1920,105.66" style="fill:none;stroke:#0000FF;stroke-width:4" />
<path d="M1915,105.66A5,5 0 1 1 1905,105.66A5,5 0 1 1 1915,105.66Z" style="fill:#0000FF" />
<text x="1795.4" y="-100.69" transform="scale(1, -1)"
	style="font-family:Liberation Serif;font-variant:normal;font-weight:normal;font-style:normal;font-size:24px">std::deque</text>
<path d="M1900,85.294L1920,85.294" style="fill:none;stroke:#00FF00;stroke-width:4" />
<path d="M1915,85.294A5,5 0 1 1 1905,85.294A5,5 0 1 1 1915,85.294Z" style="fill:#00FF00" />
<text x="1792.7" y="-80.319" transform="scale(1, -1)"
	style="font-family:Liberation Serif;font-variant:normal;font-weight:normal;font-style:normal;font-size:24px">std::vector</text>
</g>
</svg>
