<?xml version="1.0"?>
<!-- Generated by SVGo and Plotinum VG -->
<svg width="1920pt" height="1080pt" viewBox="0 0 1920 1080"
	xmlns="http://www.w3.org/2000/svg"
	xmlns:xlink="http://www.w3.org/1999/xlink">
<g transform="scale(1, -1) translate(0, -1080)">
<path d="M0,0L1920,0L1920,1080L0,1080Z" style="fill:#FFFFFF" />
<text x="628.86" y="-1040.9" transform="scale(1, -1)"
	style="font-family:Liberation Serif;font-variant:normal;font-weight:normal;font-style:normal;font-size:50px">random-sorted-insert - Log Scale</text>
<text x="880.35" y="-9.7559" transform="scale(1, -1)"
	style="font-family:Liberation Serif;font-variant:normal;font-weight:normal;font-style:normal;font-size:30px">Number of elements</text>
<text x="90.618" y="-39.727" transform="scale(1, -1)"
	style="font-family:Liberation Serif;font-variant:normal;font-weight:normal;font-style:normal;font-size:20px">10000</text>
<text x="287.77" y="-39.727" transform="scale(1, -1)"
	style="font-family:Liberation Serif;font-variant:normal;font-weight:normal;font-style:normal;font-size:20px">20000</text>
<text x="484.93" y="-39.727" transform="scale(1, -1)"
	style="font-family:Liberation Serif;font-variant:normal;font-weight:normal;font-style:normal;font-size:20px">30000</text>
<text x="682.08" y="-39.727" transform="scale(1, -1)"
	style="font-family:Liberation Serif;font-variant:normal;font-weight:normal;font-style:normal;font-size:20px">40000</text>
<text x="879.23" y="-39.727" transform="scale(1, -1)"
	style="font-family:Liberation Serif;font-variant:normal;font-weight:normal;font-style:normal;font-size:20px">50000</text>
<text x="1076.4" y="-39.727" transform="scale(1, -1)"
	style="font-family:Liberation Serif;font-variant:normal;font-weight:normal;font-style:normal;font-size:20px">60000</text>
<text x="1273.5" y="-39.727" transform="scale(1, -1)"
	style="font-family:Liberation Serif;font-variant:normal;font-weight:normal;font-style:normal;font-size:20px">70000</text>
<text x="1470.7" y="-39.727" transform="scale(1, -1)"
	style="font-family:Liberation Serif;font-variant:normal;font-weight:normal;font-style:normal;font-size:20px">80000</text>
<text x="1667.8" y="-39.727" transform="scale(1, -1)"
	style="font-family:Liberation Serif;font-variant:normal;font-weight:normal;font-style:normal;font-size:20px">90000</text>
<text x="1860" y="-39.727" transform="scale(1, -1)"
	style="font-family:Liberation Serif;font-variant:normal;font-weight:normal;font-style:normal;font-size:20px">100000</text>
<path d="M115.62,55.371L115.62,63.371" style="fill:none;stroke:#000000;stroke-width:0.5" />
<path d="M312.77,55.371L312.77,63.371" style="fill:none;stroke:#000000;stroke-width:0.5" />
<path d="M509.93,55.371L509.93,63.371" style="fill:none;stroke:#000000;stroke-width:0.5" />
<path d="M707.08,55.371L707.08,63.371" style="fill:none;stroke:#000000;stroke-width:0.5" />
<path d="M904.23,55.371L904.23,63.371" style="fill:none;stroke:#000000;stroke-width:0.5" />
<path d="M1101.4,55.371L1101.4,63.371" style="fill:none;stroke:#000000;stroke-width:0.5" />
<path d="M1298.5,55.371L1298.5,63.371" style="fill:none;stroke:#000000;stroke-width:0.5" />
<path d="M1495.7,55.371L1495.7,63.371" style="fill:none;stroke:#000000;stroke-width:0.5" />
<path d="M1692.8,55.371L1692.8,63.371" style="fill:none;stroke:#000000;stroke-width:0.5" />
<path d="M1890,55.371L1890,63.371" style="fill:none;stroke:#000000;stroke-width:0.5" />
<path d="M115.62,63.371L1890,63.371" style="fill:none;stroke:#000000;stroke-width:0.5" />
<g transform="rotate(90)">
<text x="485.87" y="23.467" transform="scale(1, -1)"
	style="font-family:Liberation Serif;font-variant:normal;font-weight:normal;font-style:normal;font-size:30px">log(μs + 1)</text>
</g>
<text x="39.712" y="-679.06" transform="scale(1, -1)"
	style="font-family:Liberation Serif;font-variant:normal;font-weight:normal;font-style:normal;font-size:20px">2e+07</text>
<text x="39.712" y="-908.89" transform="scale(1, -1)"
	style="font-family:Liberation Serif;font-variant:normal;font-weight:normal;font-style:normal;font-size:20px">8e+07</text>
<text x="39.712" y="-1001.7" transform="scale(1, -1)"
	style="font-family:Liberation Serif;font-variant:normal;font-weight:normal;font-style:normal;font-size:20px">1e+08</text>
<path d="M94.868,683.63L102.87,683.63" style="fill:none;stroke:#000000;stroke-width:0.5" />
<path d="M94.868,913.46L102.87,913.46" style="fill:none;stroke:#000000;stroke-width:0.5" />
<path d="M94.868,1006.2L102.87,1006.2" style="fill:none;stroke:#000000;stroke-width:0.5" />
<path d="M98.868,835.54L102.87,835.54" style="fill:none;stroke:#000000;stroke-width:0.5" />
<path d="M98.868,966.25L102.87,966.25" style="fill:none;stroke:#000000;stroke-width:0.5" />
<path d="M102.87,80.11L102.87,1024.6" style="fill:none;stroke:#000000;stroke-width:0.5" />
<path d="M115.62,80.11L115.62,1024.6" style="fill:none;stroke:#808080;stroke-width:0.25" />
<path d="M312.77,80.11L312.77,1024.6" style="fill:none;stroke:#808080;stroke-width:0.25" />
<path d="M509.93,80.11L509.93,1024.6" style="fill:none;stroke:#808080;stroke-width:0.25" />
<path d="M707.08,80.11L707.08,1024.6" style="fill:none;stroke:#808080;stroke-width:0.25" />
<path d="M904.23,80.11L904.23,1024.6" style="fill:none;stroke:#808080;stroke-width:0.25" />
<path d="M1101.4,80.11L1101.4,1024.6" style="fill:none;stroke:#808080;stroke-width:0.25" />
<path d="M1298.5,80.11L1298.5,1024.6" style="fill:none;stroke:#808080;stroke-width:0.25" />
<path d="M1495.7,80.11L1495.7,1024.6" style="fill:none;stroke:#808080;stroke-width:0.25" />
<path d="M1692.8,80.11L1692.8,1024.6" style="fill:none;stroke:#808080;stroke-width:0.25" />
<path d="M1890,80.11L1890,1024.6" style="fill:none;stroke:#808080;stroke-width:0.25" />
<path d="M115.62,683.63L1890,683.63" style="fill:none;stroke:#808080;stroke-width:0.25" />
<path d="M115.62,913.46L1890,913.46" style="fill:none;stroke:#808080;stroke-width:0.25" />
<path d="M115.62,1006.2L1890,1006.2" style="fill:none;stroke:#808080;stroke-width:0.25" />
<path d="M115.62,80.11L312.77,314.83L509.93,449.21L707.08,550.22L904.23,635.66L1101.4,711.2L1298.5,774.33L1495.7,825.79L1692.8,858.33L1890,896.17" style="fill:none;stroke:#FF0000;stroke-width:4" />
<path d="M120.62,80.11A5,5 0 1 1 110.62,80.11A5,5 0 1 1 120.62,80.11Z" style="fill:#FF0000" />
<path d="M317.77,314.83A5,5 0 1 1 307.77,314.83A5,5 0 1 1 317.77,314.83Z" style="fill:#FF0000" />
<path d="M514.93,449.21A5,5 0 1 1 504.93,449.21A5,5 0 1 1 514.93,449.21Z" style="fill:#FF0000" />
<path d="M712.08,550.22A5,5 0 1 1 702.08,550.22A5,5 0 1 1 712.08,550.22Z" style="fill:#FF0000" />
<path d="M909.23,635.66A5,5 0 1 1 899.23,635.66A5,5 0 1 1 909.23,635.66Z" style="fill:#FF0000" />
<path d="M1106.4,711.2A5,5 0 1 1 1096.4,711.2A5,5 0 1 1 1106.4,711.2Z" style="fill:#FF0000" />
<path d="M1303.5,774.33A5,5 0 1 1 1293.5,774.33A5,5 0 1 1 1303.5,774.33Z" style="fill:#FF0000" />
<path d="M1500.7,825.79A5,5 0 1 1 1490.7,825.79A5,5 0 1 1 1500.7,825.79Z" style="fill:#FF0000" />
<path d="M1697.8,858.33A5,5 0 1 1 1687.8,858.33A5,5 0 1 1 1697.8,858.33Z" style="fill:#FF0000" />
<path d="M1895,896.17A5,5 0 1 1 1885,896.17A5,5 0 1 1 1895,896.17Z" style="fill:#FF0000" />
<path d="M115.62,181.88L312.77,411.5L509.93,546.59L707.08,642.85L904.23,717.95L1101.4,779.54L1298.5,831.61L1495.7,877.01L1692.8,917.31L1890,953.36" style="fill:none;stroke:#0000FF;stroke-width:4" />
<path d="M120.62,181.88A5,5 0 1 1 110.62,181.88A5,5 0 1 1 120.62,181.88Z" style="fill:#0000FF" />
<path d="M317.77,411.5A5,5 0 1 1 307.77,411.5A5,5 0 1 1 317.77,411.5Z" style="fill:#0000FF" />
<path d="M514.93,546.59A5,5 0 1 1 504.93,546.59A5,5 0 1 1 514.93,546.59Z" style="fill:#0000FF" />
<path d="M712.08,642.85A5,5 0 1 1 702.08,642.85A5,5 0 1 1 712.08,642.85Z" style="fill:#0000FF" />
<path d="M909.23,717.95A5,5 0 1 1 899.23,717.95A5,5 0 1 1 909.23,717.95Z" style="fill:#0000FF" />
<path d="M1106.4,779.54A5,5 0 1 1 1096.4,779.54A5,5 0 1 1 1106.4,779.54Z" style="fill:#0000FF" />
<path d="M1303.5,831.61A5,5 0 1 1 1293.5,831.61A5,5 0 1 1 1303.5,831.61Z" style="fill:#0000FF" />
<path d="M1500.7,877.01A5,5 0 1 1 1490.7,877.01A5,5 0 1 1 1500.7,877.01Z" style="fill:#0000FF" />
<path d="M1697.8,917.31A5,5 0 1 1 1687.8,917.31A5,5 0 1 1 1697.8,917.31Z" style="fill:#0000FF" />
<path d="M1895,953.36A5,5 0 1 1 1885,953.36A5,5 0 1 1 1895,953.36Z" style="fill:#0000FF" />
<path d="M115.62,236.23L312.77,464.89L509.93,599.87L707.08,696.18L904.23,771.08L1101.4,832.33L1298.5,883.87L1495.7,928.83L1692.8,968.59L1890,1008.8" style="fill:none;stroke:#00FF00;stroke-width:4" />
<path d="M120.62,236.23A5,5 0 1 1 110.62,236.23A5,5 0 1 1 120.62,236.23Z" style="fill:#00FF00" />
<path d="M317.77,464.89A5,5 0 1 1 307.77,464.89A5,5 0 1 1 317.77,464.89Z" style="fill:#00FF00" />
<path d="M514.93,599.87A5,5 0 1 1 504.93,599.87A5,5 0 1 1 514.93,599.87Z" style="fill:#00FF00" />
<path d="M712.08,696.18A5,5 0 1 1 702.08,696.18A5,5 0 1 1 712.08,696.18Z" style="fill:#00FF00" />
<path d="M909.23,771.08A5,5 0 1 1 899.23,771.08A5,5 0 1 1 909.23,771.08Z" style="fill:#00FF00" />
<path d="M1106.4,832.33A5,5 0 1 1 1096.4,832.33A5,5 0 1 1 1106.4,832.33Z" style="fill:#00FF00" />
<path d="M1303.5,883.87A5,5 0 1 1 1293.5,883.87A5,5 0 1 1 1303.5,883.87Z" style="fill:#00FF00" />
<path d="M1500.7,928.83A5,5 0 1 1 1490.7,928.83A5,5 0 1 1 1500.7,928.83Z" style="fill:#00FF00" />
<path d="M1697.8,968.59A5,5 0 1 1 1687.8,968.59A5,5 0 1 1 1697.8,968.59Z" style="fill:#00FF00" />
<path d="M1895,1008.8A5,5 0 1 1 1885,1008.8A5,5 0 1 1 1895,1008.8Z" style="fill:#00FF00" />
<path d="M1900,126.03L1920,126.03" style="fill:none;stroke:#FF0000;stroke-width:4" />
<path d="M1915,126.03A5,5 0 1 1 1905,126.03A5,5 0 1 1 1915,126.03Z" style="fill:#FF0000" />
<text x="1823.3" y="-121.05" transform="scale(1, -1)"
	style="font-family:Liberation Serif;font-variant:normal;font-weight:normal;font-style:normal;font-size:24px">std::list</text>
<path d="M1900,105.66L1920,105.66" style="fill:none;stroke:#0000FF;stroke-width:4" />
<path d="M1915,105.66A5,5 0 1 1 1905,105.66A5,5 0 1 1 1915,105.66Z" style="fill:#0000FF" />
<text x="1795.4" y="-100.69" transform="scale(1, -1)"
	style="font-family:Liberation Serif;font-variant:normal;font-weight:normal;font-style:normal;font-size:24px">std::deque</text>
<path d="M1900,85.294L1920,85.294" style="fill:none;stroke:#00FF00;stroke-width:4" />
<path d="M1915,85.294A5,5 0 1 1 1905,85.294A5,5 0 1 1 1915,85.294Z" style="fill:#00FF00" />
<text x="1792.7" y="-80.319" transform="scale(1, -1)"
	style="font-family:Liberation Serif;font-variant:normal;font-weight:normal;font-style:normal;font-size:24px">std::vector</text>
</g>
</svg>
