<?xml version="1.0"?>
<!-- Generated by SVGo and Plotinum VG -->
<svg width="1920pt" height="1080pt" viewBox="0 0 1920 1080"
	xmlns="http://www.w3.org/2000/svg"
	xmlns:xlink="http://www.w3.org/1999/xlink">
<g transform="scale(1, -1) translate(0, -1080)">
<path d="M0,0L1920,0L1920,1080L0,1080Z" style="fill:#FFFFFF" />
<text x="628.86" y="-1040.9" transform="scale(1, -1)"
	style="font-family:Liberation Serif;font-variant:normal;font-weight:normal;font-style:normal;font-size:50px">random-sorted-insert - Log Scale</text>
<text x="880.35" y="-9.7559" transform="scale(1, -1)"
	style="font-family:Liberation Serif;font-variant:normal;font-weight:normal;font-style:normal;font-size:30px">Number of elements</text>
<text x="90.618" y="-39.727" transform="scale(1, -1)"
	style="font-family:Liberation Serif;font-variant:normal;font-weight:normal;font-style:normal;font-size:20px">10000</text>
<text x="287.77" y="-39.727" transform="scale(1, -1)"
	style="font-family:Liberation Serif;font-variant:normal;font-weight:normal;font-style:normal;font-size:20px">20000</text>
<text x="484.93" y="-39.727" transform="scale(1, -1)"
	style="font-family:Liberation Serif;font-variant:normal;font-weight:normal;font-style:normal;font-size:20px">30000</text>
<text x="682.08" y="-39.727" transform="scale(1, -1)"
	style="font-family:Liberation Serif;font-variant:normal;font-weight:normal;font-style:normal;font-size:20px">40000</text>
<text x="879.23" y="-39.727" transform="scale(1, -1)"
	style="font-family:Liberation Serif;font-variant:normal;font-weight:normal;font-style:normal;font-size:20px">50000</text>
<text x="1076.4" y="-39.727" transform="scale(1, -1)"
	style="font-family:Liberation Serif;font-variant:normal;font-weight:normal;font-style:normal;font-size:20px">60000</text>
<text x="1273.5" y="-39.727" transform="scale(1, -1)"
	style="font-family:Liberation Serif;font-variant:normal;font-weight:normal;font-style:normal;font-size:20px">70000</text>
<text x="1470.7" y="-39.727" transform="scale(1, -1)"
	style="font-family:Liberation Serif;font-variant:normal;font-weight:normal;font-style:normal;font-size:20px">80000</text>
<text x="1667.8" y="-39.727" transform="scale(1, -1)"
	style="font-family:Liberation Serif;font-variant:normal;font-weight:normal;font-style:normal;font-size:20px">90000</text>
<text x="1860" y="-39.727" transform="scale(1, -1)"
	style="font-family:Liberation Serif;font-variant:normal;font-weight:normal;font-style:normal;font-size:20px">100000</text>
<path d="M115.62,55.371L115.62,63.371" style="fill:none;stroke:#000000;stroke-width:0.5" />
<path d="M312.77,55.371L312.77,63.371" style="fill:none;stroke:#000000;stroke-width:0.5" />
<path d="M509.93,55.371L509.93,63.371" style="fill:none;stroke:#000000;stroke-width:0.5" />
<path d="M707.08,55.371L707.08,63.371" style="fill:none;stroke:#000000;stroke-width:0.5" />
<path d="M904.23,55.371L904.23,63.371" style="fill:none;stroke:#000000;stroke-width:0.5" />
<path d="M1101.4,55.371L1101.4,63.371" style="fill:none;stroke:#000000;stroke-width:0.5" />
<path d="M1298.5,55.371L1298.5,63.371" style="fill:none;stroke:#000000;stroke-width:0.5" />
<path d="M1495.7,55.371L1495.7,63.371" style="fill:none;stroke:#000000;stroke-width:0.5" />
<path d="M1692.8,55.371L1692.8,63.371" style="fill:none;stroke:#000000;stroke-width:0.5" />
<path d="M1890,55.371L1890,63.371" style="fill:none;stroke:#000000;stroke-width:0.5" />
<path d="M115.62,63.371L1890,63.371" style="fill:none;stroke:#000000;stroke-width:0.5" />
<g transform="rotate(90)">
<text x="509.33" y="23.467" transform="scale(1, -1)"
	style="font-family:Liberation Serif;font-variant:normal;font-weight:normal;font-style:normal;font-size:30px">log(μs)</text>
</g>
<text x="39.712" y="-638.44" transform="scale(1, -1)"
	style="font-family:Liberation Serif;font-variant:normal;font-weight:normal;font-style:normal;font-size:20px">5e+07</text>
<text x="39.712" y="-895.83" transform="scale(1, -1)"
	style="font-family:Liberation Serif;font-variant:normal;font-weight:normal;font-style:normal;font-size:20px">2e+08</text>
<text x="39.712" y="-999.73" transform="scale(1, -1)"
	style="font-family:Liberation Serif;font-variant:normal;font-weight:normal;font-style:normal;font-size:20px">4e+08</text>
<path d="M94.868,643.01L102.87,643.01" style="fill:none;stroke:#000000;stroke-width:0.5" />
<path d="M94.868,900.4L102.87,900.4" style="fill:none;stroke:#000000;stroke-width:0.5" />
<path d="M94.868,1004.3L102.87,1004.3" style="fill:none;stroke:#000000;stroke-width:0.5" />
<path d="M98.868,813.14L102.87,813.14" style="fill:none;stroke:#000000;stroke-width:0.5" />
<path d="M98.868,959.52L102.87,959.52" style="fill:none;stroke:#000000;stroke-width:0.5" />
<path d="M102.87,80.11L102.87,1024.6" style="fill:none;stroke:#000000;stroke-width:0.5" />
<path d="M115.62,80.11L115.62,1024.6" style="fill:none;stroke:#808080;stroke-width:0.25" />
<path d="M312.77,80.11L312.77,1024.6" style="fill:none;stroke:#808080;stroke-width:0.25" />
<path d="M509.93,80.11L509.93,1024.6" style="fill:none;stroke:#808080;stroke-width:0.25" />
<path d="M707.08,80.11L707.08,1024.6" style="fill:none;stroke:#808080;stroke-width:0.25" />
<path d="M904.23,80.11L904.23,1024.6" style="fill:none;stroke:#808080;stroke-width:0.25" />
<path d="M1101.4,80.11L1101.4,1024.6" style="fill:none;stroke:#808080;stroke-width:0.25" />
<path d="M1298.5,80.11L1298.5,1024.6" style="fill:none;stroke:#808080;stroke-width:0.25" />
<path d="M1495.7,80.11L1495.7,1024.6" style="fill:none;stroke:#808080;stroke-width:0.25" />
<path d="M1692.8,80.11L1692.8,1024.6" style="fill:none;stroke:#808080;stroke-width:0.25" />
<path d="M1890,80.11L1890,1024.6" style="fill:none;stroke:#808080;stroke-width:0.25" />
<path d="M115.62,643.01L1890,643.01" style="fill:none;stroke:#808080;stroke-width:0.25" />
<path d="M115.62,900.4L1890,900.4" style="fill:none;stroke:#808080;stroke-width:0.25" />
<path d="M115.62,1004.3L1890,1004.3" style="fill:none;stroke:#808080;stroke-width:0.25" />
<path d="M115.62,129.15L312.77,385.92L509.93,541.22L707.08,651.2L904.23,736.74L1101.4,807.95L1298.5,869.03L1495.7,919.02L1692.8,978.48L1890,1006.9" style="fill:none;stroke:#FF0000;stroke-width:4" />
<path d="M120.62,129.15A5,5 0 1 1 110.62,129.15A5,5 0 1 1 120.62,129.15Z" style="fill:#FF0000" />
<path d="M317.77,385.92A5,5 0 1 1 307.77,385.92A5,5 0 1 1 317.77,385.92Z" style="fill:#FF0000" />
<path d="M514.93,541.22A5,5 0 1 1 504.93,541.22A5,5 0 1 1 514.93,541.22Z" style="fill:#FF0000" />
<path d="M712.08,651.2A5,5 0 1 1 702.08,651.2A5,5 0 1 1 712.08,651.2Z" style="fill:#FF0000" />
<path d="M909.23,736.74A5,5 0 1 1 899.23,736.74A5,5 0 1 1 909.23,736.74Z" style="fill:#FF0000" />
<path d="M1106.4,807.95A5,5 0 1 1 1096.4,807.95A5,5 0 1 1 1106.4,807.95Z" style="fill:#FF0000" />
<path d="M1303.5,869.03A5,5 0 1 1 1293.5,869.03A5,5 0 1 1 1303.5,869.03Z" style="fill:#FF0000" />
<path d="M1500.7,919.02A5,5 0 1 1 1490.7,919.02A5,5 0 1 1 1500.7,919.02Z" style="fill:#FF0000" />
<path d="M1697.8,978.48A5,5 0 1 1 1687.8,978.48A5,5 0 1 1 1697.8,978.48Z" style="fill:#FF0000" />
<path d="M1895,1006.9A5,5 0 1 1 1885,1006.9A5,5 0 1 1 1895,1006.9Z" style="fill:#FF0000" />
<path d="M115.62,84.329L312.77,342.6L509.93,495.14L707.08,603.99L904.23,693.96L1101.4,758.89L1298.5,815.92L1495.7,864.14L1692.8,909.37L1890,949.09" style="fill:none;stroke:#0000FF;stroke-width:4" />
<path d="M120.62,84.329A5,5 0 1 1 110.62,84.329A5,5 0 1 1 120.62,84.329Z" style="fill:#0000FF" />
<path d="M317.77,342.6A5,5 0 1 1 307.77,342.6A5,5 0 1 1 317.77,342.6Z" style="fill:#0000FF" />
<path d="M514.93,495.14A5,5 0 1 1 504.93,495.14A5,5 0 1 1 514.93,495.14Z" style="fill:#0000FF" />
<path d="M712.08,603.99A5,5 0 1 1 702.08,603.99A5,5 0 1 1 712.08,603.99Z" style="fill:#0000FF" />
<path d="M909.23,693.96A5,5 0 1 1 899.23,693.96A5,5 0 1 1 909.23,693.96Z" style="fill:#0000FF" />
<path d="M1106.4,758.89A5,5 0 1 1 1096.4,758.89A5,5 0 1 1 1106.4,758.89Z" style="fill:#0000FF" />
<path d="M1303.5,815.92A5,5 0 1 1 1293.5,815.92A5,5 0 1 1 1303.5,815.92Z" style="fill:#0000FF" />
<path d="M1500.7,864.14A5,5 0 1 1 1490.7,864.14A5,5 0 1 1 1500.7,864.14Z" style="fill:#0000FF" />
<path d="M1697.8,909.37A5,5 0 1 1 1687.8,909.37A5,5 0 1 1 1697.8,909.37Z" style="fill:#0000FF" />
<path d="M1895,949.09A5,5 0 1 1 1885,949.09A5,5 0 1 1 1895,949.09Z" style="fill:#0000FF" />
<path d="M115.62,80.11L312.77,339.88L509.93,490.65L707.08,598.67L904.23,682.15L1101.4,750.65L1298.5,808.28L1495.7,857.81L1692.8,901.96L1890,941.69" style="fill:none;stroke:#00FF00;stroke-width:4" />
<path d="M120.62,80.11A5,5 0 1 1 110.62,80.11A5,5 0 1 1 120.62,80.11Z" style="fill:#00FF00" />
<path d="M317.77,339.88A5,5 0 1 1 307.77,339.88A5,5 0 1 1 317.77,339.88Z" style="fill:#00FF00" />
<path d="M514.93,490.65A5,5 0 1 1 504.93,490.65A5,5 0 1 1 514.93,490.65Z" style="fill:#00FF00" />
<path d="M712.08,598.67A5,5 0 1 1 702.08,598.67A5,5 0 1 1 712.08,598.67Z" style="fill:#00FF00" />
<path d="M909.23,682.15A5,5 0 1 1 899.23,682.15A5,5 0 1 1 909.23,682.15Z" style="fill:#00FF00" />
<path d="M1106.4,750.65A5,5 0 1 1 1096.4,750.65A5,5 0 1 1 1106.4,750.65Z" style="fill:#00FF00" />
<path d="M1303.5,808.28A5,5 0 1 1 1293.5,808.28A5,5 0 1 1 1303.5,808.28Z" style="fill:#00FF00" />
<path d="M1500.7,857.81A5,5 0 1 1 1490.7,857.81A5,5 0 1 1 1500.7,857.81Z" style="fill:#00FF00" />
<path d="M1697.8,901.96A5,5 0 1 1 1687.8,901.96A5,5 0 1 1 1697.8,901.96Z" style="fill:#00FF00" />
<path d="M1895,941.69A5,5 0 1 1 1885,941.69A5,5 0 1 1 1895,941.69Z" style="fill:#00FF00" />
<path d="M1900,126.03L1920,126.03" style="fill:none;stroke:#FF0000;stroke-width:4" />
<path d="M1915,126.03A5,5 0 1 1 1905,126.03A5,5 0 1 1 1915,126.03Z" style="fill:#FF0000" />
<text x="1823.3" y="-121.05" transform="scale(1, -1)"
	style="font-family:Liberation Serif;font-variant:normal;font-weight:normal;font-style:normal;font-size:24px">std::list</text>
<path d="M1900,105.66L1920,105.66" style="fill:none;stroke:#0000FF;stroke-width:4" />
<path d="M1915,105.66A5,5 0 1 1 1905,105.66A5,5 0 1 1 1915,105.66Z" style="fill:#0000FF" />
<text x="1795.4" y="-100.69" transform="scale(1, -1)"
	style="font-family:Liberation Serif;font-variant:normal;font-weight:normal;font-style:normal;font-size:24px">std::deque</text>
<path d="M1900,85.294L1920,85.294" style="fill:none;stroke:#00FF00;stroke-width:4" />
<path d="M1915,85.294A5,5 0 1 1 1905,85.294A5,5 0 1 1 1915,85.294Z" style="fill:#00FF00" />
<text x="1792.7" y="-80.319" transform="scale(1, -1)"
	style="font-family:Liberation Serif;font-variant:normal;font-weight:normal;font-style:normal;font-size:24px">std::vector</text>
</g>
</svg>
