<?xml version="1.0"?>
<!-- Generated by SVGo and Plotinum VG -->
<svg width="1920pt" height="1080pt" viewBox="0 0 1920 1080"
	xmlns="http://www.w3.org/2000/svg"
	xmlns:xlink="http://www.w3.org/1999/xlink">
<g transform="scale(1, -1) translate(0, -1080)">
<path d="M0,0L1920,0L1920,1080L0,1080Z" style="fill:#FFFFFF" />
<text x="628.86" y="-1040.9" transform="scale(1, -1)"
	style="font-family:Liberation Serif;font-variant:normal;font-weight:normal;font-style:normal;font-size:50px">random-sorted-insert - Log Scale</text>
<text x="880.35" y="-9.7559" transform="scale(1, -1)"
	style="font-family:Liberation Serif;font-variant:normal;font-weight:normal;font-style:normal;font-size:30px">Number of elements</text>
<text x="90.618" y="-39.727" transform="scale(1, -1)"
	style="font-family:Liberation Serif;font-variant:normal;font-weight:normal;font-style:normal;font-size:20px">10000</text>
<text x="287.77" y="-39.727" transform="scale(1, -1)"
	style="font-family:Liberation Serif;font-variant:normal;font-weight:normal;font-style:normal;font-size:20px">20000</text>
<text x="484.93" y="-39.727" transform="scale(1, -1)"
	style="font-family:Liberation Serif;font-variant:normal;font-weight:normal;font-style:normal;font-size:20px">30000</text>
<text x="682.08" y="-39.727" transform="scale(1, -1)"
	style="font-family:Liberation Serif;font-variant:normal;font-weight:normal;font-style:normal;font-size:20px">40000</text>
<text x="879.23" y="-39.727" transform="scale(1, -1)"
	style="font-family:Liberation Serif;font-variant:normal;font-weight:normal;font-style:normal;font-size:20px">50000</text>
<text x="1076.4" y="-39.727" transform="scale(1, -1)"
	style="font-family:Liberation Serif;font-variant:normal;font-weight:normal;font-style:normal;font-size:20px">60000</text>
<text x="1273.5" y="-39.727" transform="scale(1, -1)"
	style="font-family:Liberation Serif;font-variant:normal;font-weight:normal;font-style:normal;font-size:20px">70000</text>
<text x="1470.7" y="-39.727" transform="scale(1, -1)"
	style="font-family:Liberation Serif;font-variant:normal;font-weight:normal;font-style:normal;font-size:20px">80000</text>
<text x="1667.8" y="-39.727" transform="scale(1, -1)"
	style="font-family:Liberation Serif;font-variant:normal;font-weight:normal;font-style:normal;font-size:20px">90000</text>
<text x="1860" y="-39.727" transform="scale(1, -1)"
	style="font-family:Liberation Serif;font-variant:normal;font-weight:normal;font-style:normal;font-size:20px">100000</text>
<path d="M115.62,55.371L115.62,63.371" style="fill:none;stroke:#000000;stroke-width:0.5" />
<path d="M312.77,55.371L312.77,63.371" style="fill:none;stroke:#000000;stroke-width:0.5" />
<path d="M509.93,55.371L509.93,63.371" style="fill:none;stroke:#000000;stroke-width:0.5" />
<path d="M707.08,55.371L707.08,63.371" style="fill:none;stroke:#000000;stroke-width:0.5" />
<path d="M904.23,55.371L904.23,63.371" style="fill:none;stroke:#000000;stroke-width:0.5" />
<path d="M1101.4,55.371L1101.4,63.371" style="fill:none;stroke:#000000;stroke-width:0.5" />
<path d="M1298.5,55.371L1298.5,63.371" style="fill:none;stroke:#000000;stroke-width:0.5" />
<path d="M1495.7,55.371L1495.7,63.371" style="fill:none;stroke:#000000;stroke-width:0.5" />
<path d="M1692.8,55.371L1692.8,63.371" style="fill:none;stroke:#000000;stroke-width:0.5" />
<path d="M1890,55.371L1890,63.371" style="fill:none;stroke:#000000;stroke-width:0.5" />
<path d="M115.62,63.371L1890,63.371" style="fill:none;stroke:#000000;stroke-width:0.5" />
<g transform="rotate(90)">
<text x="485.87" y="23.467" transform="scale(1, -1)"
	style="font-family:Liberation Serif;font-variant:normal;font-weight:normal;font-style:normal;font-size:30px">log(μs + 1)</text>
</g>
<text x="39.712" y="-706.43" transform="scale(1, -1)"
	style="font-family:Liberation Serif;font-variant:normal;font-weight:normal;font-style:normal;font-size:20px">4e+07</text>
<text x="39.712" y="-912.42" transform="scale(1, -1)"
	style="font-family:Liberation Serif;font-variant:normal;font-weight:normal;font-style:normal;font-size:20px">2e+08</text>
<text x="39.712" y="-995.58" transform="scale(1, -1)"
	style="font-family:Liberation Serif;font-variant:normal;font-weight:normal;font-style:normal;font-size:20px">3e+08</text>
<path d="M94.868,711L102.87,711" style="fill:none;stroke:#000000;stroke-width:0.5" />
<path d="M94.868,916.99L102.87,916.99" style="fill:none;stroke:#000000;stroke-width:0.5" />
<path d="M94.868,1000.2L102.87,1000.2" style="fill:none;stroke:#000000;stroke-width:0.5" />
<path d="M98.868,847.15L102.87,847.15" style="fill:none;stroke:#000000;stroke-width:0.5" />
<path d="M98.868,964.32L102.87,964.32" style="fill:none;stroke:#000000;stroke-width:0.5" />
<path d="M102.87,80.11L102.87,1024.6" style="fill:none;stroke:#000000;stroke-width:0.5" />
<path d="M115.62,80.11L115.62,1024.6" style="fill:none;stroke:#808080;stroke-width:0.25" />
<path d="M312.77,80.11L312.77,1024.6" style="fill:none;stroke:#808080;stroke-width:0.25" />
<path d="M509.93,80.11L509.93,1024.6" style="fill:none;stroke:#808080;stroke-width:0.25" />
<path d="M707.08,80.11L707.08,1024.6" style="fill:none;stroke:#808080;stroke-width:0.25" />
<path d="M904.23,80.11L904.23,1024.6" style="fill:none;stroke:#808080;stroke-width:0.25" />
<path d="M1101.4,80.11L1101.4,1024.6" style="fill:none;stroke:#808080;stroke-width:0.25" />
<path d="M1298.5,80.11L1298.5,1024.6" style="fill:none;stroke:#808080;stroke-width:0.25" />
<path d="M1495.7,80.11L1495.7,1024.6" style="fill:none;stroke:#808080;stroke-width:0.25" />
<path d="M1692.8,80.11L1692.8,1024.6" style="fill:none;stroke:#808080;stroke-width:0.25" />
<path d="M1890,80.11L1890,1024.6" style="fill:none;stroke:#808080;stroke-width:0.25" />
<path d="M115.62,711L1890,711" style="fill:none;stroke:#808080;stroke-width:0.25" />
<path d="M115.62,916.99L1890,916.99" style="fill:none;stroke:#808080;stroke-width:0.25" />
<path d="M115.62,1000.2L1890,1000.2" style="fill:none;stroke:#808080;stroke-width:0.25" />
<path d="M115.62,201.29L312.77,437.14L509.93,587.62L707.08,696.76L904.23,780.41L1101.4,846.91L1298.5,899.65L1495.7,931.8L1692.8,972.29L1890,1010.5" style="fill:none;stroke:#FF0000;stroke-width:4" />
<path d="M120.62,201.29A5,5 0 1 1 110.62,201.29A5,5 0 1 1 120.62,201.29Z" style="fill:#FF0000" />
<path d="M317.77,437.14A5,5 0 1 1 307.77,437.14A5,5 0 1 1 317.77,437.14Z" style="fill:#FF0000" />
<path d="M514.93,587.62A5,5 0 1 1 504.93,587.62A5,5 0 1 1 514.93,587.62Z" style="fill:#FF0000" />
<path d="M712.08,696.76A5,5 0 1 1 702.08,696.76A5,5 0 1 1 712.08,696.76Z" style="fill:#FF0000" />
<path d="M909.23,780.41A5,5 0 1 1 899.23,780.41A5,5 0 1 1 909.23,780.41Z" style="fill:#FF0000" />
<path d="M1106.4,846.91A5,5 0 1 1 1096.4,846.91A5,5 0 1 1 1106.4,846.91Z" style="fill:#FF0000" />
<path d="M1303.5,899.65A5,5 0 1 1 1293.5,899.65A5,5 0 1 1 1303.5,899.65Z" style="fill:#FF0000" />
<path d="M1500.7,931.8A5,5 0 1 1 1490.7,931.8A5,5 0 1 1 1500.7,931.8Z" style="fill:#FF0000" />
<path d="M1697.8,972.29A5,5 0 1 1 1687.8,972.29A5,5 0 1 1 1697.8,972.29Z" style="fill:#FF0000" />
<path d="M1895,1010.5A5,5 0 1 1 1885,1010.5A5,5 0 1 1 1895,1010.5Z" style="fill:#FF0000" />
<path d="M115.62,155.14L312.77,379.63L509.93,540.07L707.08,661.13L904.23,748.7L1101.4,819.39L1298.5,868.54L1495.7,925.74L1692.8,971.85L1890,1002.4" style="fill:none;stroke:#0000FF;stroke-width:4" />
<path d="M120.62,155.14A5,5 0 1 1 110.62,155.14A5,5 0 1 1 120.62,155.14Z" style="fill:#0000FF" />
<path d="M317.77,379.63A5,5 0 1 1 307.77,379.63A5,5 0 1 1 317.77,379.63Z" style="fill:#0000FF" />
<path d="M514.93,540.07A5,5 0 1 1 504.93,540.07A5,5 0 1 1 514.93,540.07Z" style="fill:#0000FF" />
<path d="M712.08,661.13A5,5 0 1 1 702.08,661.13A5,5 0 1 1 712.08,661.13Z" style="fill:#0000FF" />
<path d="M909.23,748.7A5,5 0 1 1 899.23,748.7A5,5 0 1 1 909.23,748.7Z" style="fill:#0000FF" />
<path d="M1106.4,819.39A5,5 0 1 1 1096.4,819.39A5,5 0 1 1 1106.4,819.39Z" style="fill:#0000FF" />
<path d="M1303.5,868.54A5,5 0 1 1 1293.5,868.54A5,5 0 1 1 1303.5,868.54Z" style="fill:#0000FF" />
<path d="M1500.7,925.74A5,5 0 1 1 1490.7,925.74A5,5 0 1 1 1500.7,925.74Z" style="fill:#0000FF" />
<path d="M1697.8,971.85A5,5 0 1 1 1687.8,971.85A5,5 0 1 1 1697.8,971.85Z" style="fill:#0000FF" />
<path d="M1895,1002.4A5,5 0 1 1 1885,1002.4A5,5 0 1 1 1895,1002.4Z" style="fill:#0000FF" />
<path d="M115.62,80.11L312.77,302.15L509.93,441.08L707.08,540.09L904.23,621.23L1101.4,679.62L1298.5,731.79L1495.7,784.29L1692.8,821.78L1890,856.45" style="fill:none;stroke:#00FF00;stroke-width:4" />
<path d="M120.62,80.11A5,5 0 1 1 110.62,80.11A5,5 0 1 1 120.62,80.11Z" style="fill:#00FF00" />
<path d="M317.77,302.15A5,5 0 1 1 307.77,302.15A5,5 0 1 1 317.77,302.15Z" style="fill:#00FF00" />
<path d="M514.93,441.08A5,5 0 1 1 504.93,441.08A5,5 0 1 1 514.93,441.08Z" style="fill:#00FF00" />
<path d="M712.08,540.09A5,5 0 1 1 702.08,540.09A5,5 0 1 1 712.08,540.09Z" style="fill:#00FF00" />
<path d="M909.23,621.23A5,5 0 1 1 899.23,621.23A5,5 0 1 1 909.23,621.23Z" style="fill:#00FF00" />
<path d="M1106.4,679.62A5,5 0 1 1 1096.4,679.62A5,5 0 1 1 1106.4,679.62Z" style="fill:#00FF00" />
<path d="M1303.5,731.79A5,5 0 1 1 1293.5,731.79A5,5 0 1 1 1303.5,731.79Z" style="fill:#00FF00" />
<path d="M1500.7,784.29A5,5 0 1 1 1490.7,784.29A5,5 0 1 1 1500.7,784.29Z" style="fill:#00FF00" />
<path d="M1697.8,821.78A5,5 0 1 1 1687.8,821.78A5,5 0 1 1 1697.8,821.78Z" style="fill:#00FF00" />
<path d="M1895,856.45A5,5 0 1 1 1885,856.45A5,5 0 1 1 1895,856.45Z" style="fill:#00FF00" />
<path d="M1900,126.03L1920,126.03" style="fill:none;stroke:#FF0000;stroke-width:4" />
<path d="M1915,126.03A5,5 0 1 1 1905,126.03A5,5 0 1 1 1915,126.03Z" style="fill:#FF0000" />
<text x="1795.4" y="-121.05" transform="scale(1, -1)"
	style="font-family:Liberation Serif;font-variant:normal;font-weight:normal;font-style:normal;font-size:24px">std::deque</text>
<path d="M1900,105.66L1920,105.66" style="fill:none;stroke:#0000FF;stroke-width:4" />
<path d="M1915,105.66A5,5 0 1 1 1905,105.66A5,5 0 1 1 1915,105.66Z" style="fill:#0000FF" />
<text x="1792.7" y="-100.69" transform="scale(1, -1)"
	style="font-family:Liberation Serif;font-variant:normal;font-weight:normal;font-style:normal;font-size:24px">std::vector</text>
<path d="M1900,85.294L1920,85.294" style="fill:none;stroke:#00FF00;stroke-width:4" />
<path d="M1915,85.294A5,5 0 1 1 1905,85.294A5,5 0 1 1 1915,85.294Z" style="fill:#00FF00" />
<text x="1823.3" y="-80.319" transform="scale(1, -1)"
	style="font-family:Liberation Serif;font-variant:normal;font-weight:normal;font-style:normal;font-size:24px">std::list</text>
</g>
</svg>
