<?xml version="1.0"?>
<!-- Generated by SVGo and Plotinum VG -->
<svg width="1920pt" height="1080pt" viewBox="0 0 1920 1080"
	xmlns="http://www.w3.org/2000/svg"
	xmlns:xlink="http://www.w3.org/1999/xlink">
<g transform="scale(1, -1) translate(0, -1080)">
<path d="M0,0L1920,0L1920,1080L0,1080Z" style="fill:#FFFFFF" />
<text x="628.86" y="-1040.9" transform="scale(1, -1)"
	style="font-family:Liberation Serif;font-variant:normal;font-weight:normal;font-style:normal;font-size:50px">random-sorted-insert - Log Scale</text>
<text x="887.77" y="-9.7559" transform="scale(1, -1)"
	style="font-family:Liberation Serif;font-variant:normal;font-weight:normal;font-style:normal;font-size:30px">Number of elements</text>
<text x="105.46" y="-39.727" transform="scale(1, -1)"
	style="font-family:Liberation Serif;font-variant:normal;font-weight:normal;font-style:normal;font-size:20px">1000</text>
<text x="302.08" y="-39.727" transform="scale(1, -1)"
	style="font-family:Liberation Serif;font-variant:normal;font-weight:normal;font-style:normal;font-size:20px">2000</text>
<text x="498.69" y="-39.727" transform="scale(1, -1)"
	style="font-family:Liberation Serif;font-variant:normal;font-weight:normal;font-style:normal;font-size:20px">3000</text>
<text x="695.31" y="-39.727" transform="scale(1, -1)"
	style="font-family:Liberation Serif;font-variant:normal;font-weight:normal;font-style:normal;font-size:20px">4000</text>
<text x="891.92" y="-39.727" transform="scale(1, -1)"
	style="font-family:Liberation Serif;font-variant:normal;font-weight:normal;font-style:normal;font-size:20px">5000</text>
<text x="1088.5" y="-39.727" transform="scale(1, -1)"
	style="font-family:Liberation Serif;font-variant:normal;font-weight:normal;font-style:normal;font-size:20px">6000</text>
<text x="1285.2" y="-39.727" transform="scale(1, -1)"
	style="font-family:Liberation Serif;font-variant:normal;font-weight:normal;font-style:normal;font-size:20px">7000</text>
<text x="1481.8" y="-39.727" transform="scale(1, -1)"
	style="font-family:Liberation Serif;font-variant:normal;font-weight:normal;font-style:normal;font-size:20px">8000</text>
<text x="1678.4" y="-39.727" transform="scale(1, -1)"
	style="font-family:Liberation Serif;font-variant:normal;font-weight:normal;font-style:normal;font-size:20px">9000</text>
<text x="1870" y="-39.727" transform="scale(1, -1)"
	style="font-family:Liberation Serif;font-variant:normal;font-weight:normal;font-style:normal;font-size:20px">10000</text>
<path d="M125.46,55.371L125.46,63.371" style="fill:none;stroke:#000000;stroke-width:0.5" />
<path d="M322.08,55.371L322.08,63.371" style="fill:none;stroke:#000000;stroke-width:0.5" />
<path d="M518.69,55.371L518.69,63.371" style="fill:none;stroke:#000000;stroke-width:0.5" />
<path d="M715.31,55.371L715.31,63.371" style="fill:none;stroke:#000000;stroke-width:0.5" />
<path d="M911.92,55.371L911.92,63.371" style="fill:none;stroke:#000000;stroke-width:0.5" />
<path d="M1108.5,55.371L1108.5,63.371" style="fill:none;stroke:#000000;stroke-width:0.5" />
<path d="M1305.2,55.371L1305.2,63.371" style="fill:none;stroke:#000000;stroke-width:0.5" />
<path d="M1501.8,55.371L1501.8,63.371" style="fill:none;stroke:#000000;stroke-width:0.5" />
<path d="M1698.4,55.371L1698.4,63.371" style="fill:none;stroke:#000000;stroke-width:0.5" />
<path d="M1895,55.371L1895,63.371" style="fill:none;stroke:#000000;stroke-width:0.5" />
<path d="M125.46,63.371L1895,63.371" style="fill:none;stroke:#000000;stroke-width:0.5" />
<g transform="rotate(90)">
<text x="485.87" y="23.467" transform="scale(1, -1)"
	style="font-family:Liberation Serif;font-variant:normal;font-weight:normal;font-style:normal;font-size:30px">log(μs + 1)</text>
</g>
<text x="39.712" y="-728.2" transform="scale(1, -1)"
	style="font-family:Liberation Serif;font-variant:normal;font-weight:normal;font-style:normal;font-size:20px">200000</text>
<text x="39.712" y="-863.2" transform="scale(1, -1)"
	style="font-family:Liberation Serif;font-variant:normal;font-weight:normal;font-style:normal;font-size:20px">400000</text>
<text x="39.712" y="-942.18" transform="scale(1, -1)"
	style="font-family:Liberation Serif;font-variant:normal;font-weight:normal;font-style:normal;font-size:20px">600000</text>
<text x="39.712" y="-998.21" transform="scale(1, -1)"
	style="font-family:Liberation Serif;font-variant:normal;font-weight:normal;font-style:normal;font-size:20px">800000</text>
<path d="M104.71,732.77L112.71,732.77" style="fill:none;stroke:#000000;stroke-width:0.5" />
<path d="M104.71,867.77L112.71,867.77" style="fill:none;stroke:#000000;stroke-width:0.5" />
<path d="M104.71,946.75L112.71,946.75" style="fill:none;stroke:#000000;stroke-width:0.5" />
<path d="M104.71,1002.8L112.71,1002.8" style="fill:none;stroke:#000000;stroke-width:0.5" />
<path d="M108.71,597.77L112.71,597.77" style="fill:none;stroke:#000000;stroke-width:0.5" />
<path d="M108.71,811.74L112.71,811.74" style="fill:none;stroke:#000000;stroke-width:0.5" />
<path d="M108.71,911.24L112.71,911.24" style="fill:none;stroke:#000000;stroke-width:0.5" />
<path d="M108.71,976.77L112.71,976.77" style="fill:none;stroke:#000000;stroke-width:0.5" />
<path d="M112.71,80.11L112.71,1024.6" style="fill:none;stroke:#000000;stroke-width:0.5" />
<path d="M125.46,80.11L125.46,1024.6" style="fill:none;stroke:#808080;stroke-width:0.25" />
<path d="M322.08,80.11L322.08,1024.6" style="fill:none;stroke:#808080;stroke-width:0.25" />
<path d="M518.69,80.11L518.69,1024.6" style="fill:none;stroke:#808080;stroke-width:0.25" />
<path d="M715.31,80.11L715.31,1024.6" style="fill:none;stroke:#808080;stroke-width:0.25" />
<path d="M911.92,80.11L911.92,1024.6" style="fill:none;stroke:#808080;stroke-width:0.25" />
<path d="M1108.5,80.11L1108.5,1024.6" style="fill:none;stroke:#808080;stroke-width:0.25" />
<path d="M1305.2,80.11L1305.2,1024.6" style="fill:none;stroke:#808080;stroke-width:0.25" />
<path d="M1501.8,80.11L1501.8,1024.6" style="fill:none;stroke:#808080;stroke-width:0.25" />
<path d="M1698.4,80.11L1698.4,1024.6" style="fill:none;stroke:#808080;stroke-width:0.25" />
<path d="M1895,80.11L1895,1024.6" style="fill:none;stroke:#808080;stroke-width:0.25" />
<path d="M125.46,732.77L1895,732.77" style="fill:none;stroke:#808080;stroke-width:0.25" />
<path d="M125.46,867.77L1895,867.77" style="fill:none;stroke:#808080;stroke-width:0.25" />
<path d="M125.46,946.75L1895,946.75" style="fill:none;stroke:#808080;stroke-width:0.25" />
<path d="M125.46,1002.8L1895,1002.8" style="fill:none;stroke:#808080;stroke-width:0.25" />
<path d="M125.46,88.937L322.08,331.14L518.69,484.97L715.31,619.02L911.92,696.18L1108.5,773.32L1305.2,820.82L1501.8,877.71L1698.4,921.05L1895,970.34" style="fill:none;stroke:#FF0000;stroke-width:4" />
<path d="M130.46,88.937A5,5 0 1 1 120.46,88.937A5,5 0 1 1 130.46,88.937Z" style="fill:#FF0000" />
<path d="M327.08,331.14A5,5 0 1 1 317.08,331.14A5,5 0 1 1 327.08,331.14Z" style="fill:#FF0000" />
<path d="M523.69,484.97A5,5 0 1 1 513.69,484.97A5,5 0 1 1 523.69,484.97Z" style="fill:#FF0000" />
<path d="M720.31,619.02A5,5 0 1 1 710.31,619.02A5,5 0 1 1 720.31,619.02Z" style="fill:#FF0000" />
<path d="M916.92,696.18A5,5 0 1 1 906.92,696.18A5,5 0 1 1 916.92,696.18Z" style="fill:#FF0000" />
<path d="M1113.5,773.32A5,5 0 1 1 1103.5,773.32A5,5 0 1 1 1113.5,773.32Z" style="fill:#FF0000" />
<path d="M1310.2,820.82A5,5 0 1 1 1300.2,820.82A5,5 0 1 1 1310.2,820.82Z" style="fill:#FF0000" />
<path d="M1506.8,877.71A5,5 0 1 1 1496.8,877.71A5,5 0 1 1 1506.8,877.71Z" style="fill:#FF0000" />
<path d="M1703.4,921.05A5,5 0 1 1 1693.4,921.05A5,5 0 1 1 1703.4,921.05Z" style="fill:#FF0000" />
<path d="M1900,970.34A5,5 0 1 1 1890,970.34A5,5 0 1 1 1900,970.34Z" style="fill:#FF0000" />
<path d="M125.46,140.23L322.08,375.32L518.69,520.37L715.31,636.82L911.92,714.99L1108.5,791.02L1305.2,860.67L1501.8,919.21L1698.4,970.26L1895,1006.1" style="fill:none;stroke:#0000FF;stroke-width:4" />
<path d="M130.46,140.23A5,5 0 1 1 120.46,140.23A5,5 0 1 1 130.46,140.23Z" style="fill:#0000FF" />
<path d="M327.08,375.32A5,5 0 1 1 317.08,375.32A5,5 0 1 1 327.08,375.32Z" style="fill:#0000FF" />
<path d="M523.69,520.37A5,5 0 1 1 513.69,520.37A5,5 0 1 1 523.69,520.37Z" style="fill:#0000FF" />
<path d="M720.31,636.82A5,5 0 1 1 710.31,636.82A5,5 0 1 1 720.31,636.82Z" style="fill:#0000FF" />
<path d="M916.92,714.99A5,5 0 1 1 906.92,714.99A5,5 0 1 1 916.92,714.99Z" style="fill:#0000FF" />
<path d="M1113.5,791.02A5,5 0 1 1 1103.5,791.02A5,5 0 1 1 1113.5,791.02Z" style="fill:#0000FF" />
<path d="M1310.2,860.67A5,5 0 1 1 1300.2,860.67A5,5 0 1 1 1310.2,860.67Z" style="fill:#0000FF" />
<path d="M1506.8,919.21A5,5 0 1 1 1496.8,919.21A5,5 0 1 1 1506.8,919.21Z" style="fill:#0000FF" />
<path d="M1703.4,970.26A5,5 0 1 1 1693.4,970.26A5,5 0 1 1 1703.4,970.26Z" style="fill:#0000FF" />
<path d="M1900,1006.1A5,5 0 1 1 1890,1006.1A5,5 0 1 1 1900,1006.1Z" style="fill:#0000FF" />
<path d="M125.46,80.11L322.08,327.22L518.69,473.75L715.31,587.27L911.92,694.11L1108.5,762.33L1305.2,820.88L1501.8,865.53L1698.4,900.81L1895,953.62" style="fill:none;stroke:#00FF00;stroke-width:4" />
<path d="M130.46,80.11A5,5 0 1 1 120.46,80.11A5,5 0 1 1 130.46,80.11Z" style="fill:#00FF00" />
<path d="M327.08,327.22A5,5 0 1 1 317.08,327.22A5,5 0 1 1 327.08,327.22Z" style="fill:#00FF00" />
<path d="M523.69,473.75A5,5 0 1 1 513.69,473.75A5,5 0 1 1 523.69,473.75Z" style="fill:#00FF00" />
<path d="M720.31,587.27A5,5 0 1 1 710.31,587.27A5,5 0 1 1 720.31,587.27Z" style="fill:#00FF00" />
<path d="M916.92,694.11A5,5 0 1 1 906.92,694.11A5,5 0 1 1 916.92,694.11Z" style="fill:#00FF00" />
<path d="M1113.5,762.33A5,5 0 1 1 1103.5,762.33A5,5 0 1 1 1113.5,762.33Z" style="fill:#00FF00" />
<path d="M1310.2,820.88A5,5 0 1 1 1300.2,820.88A5,5 0 1 1 1310.2,820.88Z" style="fill:#00FF00" />
<path d="M1506.8,865.53A5,5 0 1 1 1496.8,865.53A5,5 0 1 1 1506.8,865.53Z" style="fill:#00FF00" />
<path d="M1703.4,900.81A5,5 0 1 1 1693.4,900.81A5,5 0 1 1 1703.4,900.81Z" style="fill:#00FF00" />
<path d="M1900,953.62A5,5 0 1 1 1890,953.62A5,5 0 1 1 1900,953.62Z" style="fill:#00FF00" />
<path d="M1900,126.03L1920,126.03" style="fill:none;stroke:#FF0000;stroke-width:4" />
<path d="M1915,126.03A5,5 0 1 1 1905,126.03A5,5 0 1 1 1915,126.03Z" style="fill:#FF0000" />
<text x="1823.3" y="-121.05" transform="scale(1, -1)"
	style="font-family:Liberation Serif;font-variant:normal;font-weight:normal;font-style:normal;font-size:24px">std::list</text>
<path d="M1900,105.66L1920,105.66" style="fill:none;stroke:#0000FF;stroke-width:4" />
<path d="M1915,105.66A5,5 0 1 1 1905,105.66A5,5 0 1 1 1915,105.66Z" style="fill:#0000FF" />
<text x="1795.4" y="-100.69" transform="scale(1, -1)"
	style="font-family:Liberation Serif;font-variant:normal;font-weight:normal;font-style:normal;font-size:24px">std::deque</text>
<path d="M1900,85.294L1920,85.294" style="fill:none;stroke:#00FF00;stroke-width:4" />
<path d="M1915,85.294A5,5 0 1 1 1905,85.294A5,5 0 1 1 1915,85.294Z" style="fill:#00FF00" />
<text x="1792.7" y="-80.319" transform="scale(1, -1)"
	style="font-family:Liberation Serif;font-variant:normal;font-weight:normal;font-style:normal;font-size:24px">std::vector</text>
</g>
</svg>
