<?xml version="1.0"?>
<!-- Generated by SVGo and Plotinum VG -->
<svg width="1920pt" height="1080pt" viewBox="0 0 1920 1080"
	xmlns="http://www.w3.org/2000/svg"
	xmlns:xlink="http://www.w3.org/1999/xlink">
<g transform="scale(1, -1) translate(0, -1080)">
<path d="M0,0L1920,0L1920,1080L0,1080Z" style="fill:#FFFFFF" />
<text x="750.34" y="-1040.9" transform="scale(1, -1)"
	style="font-family:Liberation Serif;font-variant:normal;font-weight:normal;font-style:normal;font-size:50px">random-sorted-insert</text>
<text x="880.35" y="-9.7559" transform="scale(1, -1)"
	style="font-family:Liberation Serif;font-variant:normal;font-weight:normal;font-style:normal;font-size:30px">Number of elements</text>
<text x="90.618" y="-39.727" transform="scale(1, -1)"
	style="font-family:Liberation Serif;font-variant:normal;font-weight:normal;font-style:normal;font-size:20px">10000</text>
<text x="287.77" y="-39.727" transform="scale(1, -1)"
	style="font-family:Liberation Serif;font-variant:normal;font-weight:normal;font-style:normal;font-size:20px">20000</text>
<text x="484.93" y="-39.727" transform="scale(1, -1)"
	style="font-family:Liberation Serif;font-variant:normal;font-weight:normal;font-style:normal;font-size:20px">30000</text>
<text x="682.08" y="-39.727" transform="scale(1, -1)"
	style="font-family:Liberation Serif;font-variant:normal;font-weight:normal;font-style:normal;font-size:20px">40000</text>
<text x="879.23" y="-39.727" transform="scale(1, -1)"
	style="font-family:Liberation Serif;font-variant:normal;font-weight:normal;font-style:normal;font-size:20px">50000</text>
<text x="1076.4" y="-39.727" transform="scale(1, -1)"
	style="font-family:Liberation Serif;font-variant:normal;font-weight:normal;font-style:normal;font-size:20px">60000</text>
<text x="1273.5" y="-39.727" transform="scale(1, -1)"
	style="font-family:Liberation Serif;font-variant:normal;font-weight:normal;font-style:normal;font-size:20px">70000</text>
<text x="1470.7" y="-39.727" transform="scale(1, -1)"
	style="font-family:Liberation Serif;font-variant:normal;font-weight:normal;font-style:normal;font-size:20px">80000</text>
<text x="1667.8" y="-39.727" transform="scale(1, -1)"
	style="font-family:Liberation Serif;font-variant:normal;font-weight:normal;font-style:normal;font-size:20px">90000</text>
<text x="1860" y="-39.727" transform="scale(1, -1)"
	style="font-family:Liberation Serif;font-variant:normal;font-weight:normal;font-style:normal;font-size:20px">100000</text>
<path d="M115.62,55.371L115.62,63.371" style="fill:none;stroke:#000000;stroke-width:0.5" />
<path d="M312.77,55.371L312.77,63.371" style="fill:none;stroke:#000000;stroke-width:0.5" />
<path d="M509.93,55.371L509.93,63.371" style="fill:none;stroke:#000000;stroke-width:0.5" />
<path d="M707.08,55.371L707.08,63.371" style="fill:none;stroke:#000000;stroke-width:0.5" />
<path d="M904.23,55.371L904.23,63.371" style="fill:none;stroke:#000000;stroke-width:0.5" />
<path d="M1101.4,55.371L1101.4,63.371" style="fill:none;stroke:#000000;stroke-width:0.5" />
<path d="M1298.5,55.371L1298.5,63.371" style="fill:none;stroke:#000000;stroke-width:0.5" />
<path d="M1495.7,55.371L1495.7,63.371" style="fill:none;stroke:#000000;stroke-width:0.5" />
<path d="M1692.8,55.371L1692.8,63.371" style="fill:none;stroke:#000000;stroke-width:0.5" />
<path d="M1890,55.371L1890,63.371" style="fill:none;stroke:#000000;stroke-width:0.5" />
<path d="M115.62,63.371L1890,63.371" style="fill:none;stroke:#000000;stroke-width:0.5" />
<g transform="rotate(90)">
<text x="538.49" y="23.467" transform="scale(1, -1)"
	style="font-family:Liberation Serif;font-variant:normal;font-weight:normal;font-style:normal;font-size:30px">μs</text>
</g>
<text x="39.712" y="-221.31" transform="scale(1, -1)"
	style="font-family:Liberation Serif;font-variant:normal;font-weight:normal;font-style:normal;font-size:20px">1e+07</text>
<text x="39.712" y="-373.45" transform="scale(1, -1)"
	style="font-family:Liberation Serif;font-variant:normal;font-weight:normal;font-style:normal;font-size:20px">2e+07</text>
<text x="39.712" y="-525.6" transform="scale(1, -1)"
	style="font-family:Liberation Serif;font-variant:normal;font-weight:normal;font-style:normal;font-size:20px">3e+07</text>
<text x="39.712" y="-677.75" transform="scale(1, -1)"
	style="font-family:Liberation Serif;font-variant:normal;font-weight:normal;font-style:normal;font-size:20px">4e+07</text>
<text x="39.712" y="-829.89" transform="scale(1, -1)"
	style="font-family:Liberation Serif;font-variant:normal;font-weight:normal;font-style:normal;font-size:20px">5e+07</text>
<text x="39.712" y="-982.04" transform="scale(1, -1)"
	style="font-family:Liberation Serif;font-variant:normal;font-weight:normal;font-style:normal;font-size:20px">6e+07</text>
<path d="M94.868,225.88L102.87,225.88" style="fill:none;stroke:#000000;stroke-width:0.5" />
<path d="M94.868,378.02L102.87,378.02" style="fill:none;stroke:#000000;stroke-width:0.5" />
<path d="M94.868,530.17L102.87,530.17" style="fill:none;stroke:#000000;stroke-width:0.5" />
<path d="M94.868,682.32L102.87,682.32" style="fill:none;stroke:#000000;stroke-width:0.5" />
<path d="M94.868,834.47L102.87,834.47" style="fill:none;stroke:#000000;stroke-width:0.5" />
<path d="M94.868,986.61L102.87,986.61" style="fill:none;stroke:#000000;stroke-width:0.5" />
<path d="M98.868,104.16L102.87,104.16" style="fill:none;stroke:#000000;stroke-width:0.5" />
<path d="M98.868,134.59L102.87,134.59" style="fill:none;stroke:#000000;stroke-width:0.5" />
<path d="M98.868,165.02L102.87,165.02" style="fill:none;stroke:#000000;stroke-width:0.5" />
<path d="M98.868,195.45L102.87,195.45" style="fill:none;stroke:#000000;stroke-width:0.5" />
<path d="M98.868,256.31L102.87,256.31" style="fill:none;stroke:#000000;stroke-width:0.5" />
<path d="M98.868,286.74L102.87,286.74" style="fill:none;stroke:#000000;stroke-width:0.5" />
<path d="M98.868,317.17L102.87,317.17" style="fill:none;stroke:#000000;stroke-width:0.5" />
<path d="M98.868,347.59L102.87,347.59" style="fill:none;stroke:#000000;stroke-width:0.5" />
<path d="M98.868,408.45L102.87,408.45" style="fill:none;stroke:#000000;stroke-width:0.5" />
<path d="M98.868,438.88L102.87,438.88" style="fill:none;stroke:#000000;stroke-width:0.5" />
<path d="M98.868,469.31L102.87,469.31" style="fill:none;stroke:#000000;stroke-width:0.5" />
<path d="M98.868,499.74L102.87,499.74" style="fill:none;stroke:#000000;stroke-width:0.5" />
<path d="M98.868,560.6L102.87,560.6" style="fill:none;stroke:#000000;stroke-width:0.5" />
<path d="M98.868,591.03L102.87,591.03" style="fill:none;stroke:#000000;stroke-width:0.5" />
<path d="M98.868,621.46L102.87,621.46" style="fill:none;stroke:#000000;stroke-width:0.5" />
<path d="M98.868,651.89L102.87,651.89" style="fill:none;stroke:#000000;stroke-width:0.5" />
<path d="M98.868,712.75L102.87,712.75" style="fill:none;stroke:#000000;stroke-width:0.5" />
<path d="M98.868,743.18L102.87,743.18" style="fill:none;stroke:#000000;stroke-width:0.5" />
<path d="M98.868,773.61L102.87,773.61" style="fill:none;stroke:#000000;stroke-width:0.5" />
<path d="M98.868,804.04L102.87,804.04" style="fill:none;stroke:#000000;stroke-width:0.5" />
<path d="M98.868,864.89L102.87,864.89" style="fill:none;stroke:#000000;stroke-width:0.5" />
<path d="M98.868,895.32L102.87,895.32" style="fill:none;stroke:#000000;stroke-width:0.5" />
<path d="M98.868,925.75L102.87,925.75" style="fill:none;stroke:#000000;stroke-width:0.5" />
<path d="M98.868,956.18L102.87,956.18" style="fill:none;stroke:#000000;stroke-width:0.5" />
<path d="M98.868,1017L102.87,1017" style="fill:none;stroke:#000000;stroke-width:0.5" />
<path d="M102.87,80.11L102.87,1024.6" style="fill:none;stroke:#000000;stroke-width:0.5" />
<path d="M115.62,80.11L115.62,1024.6" style="fill:none;stroke:#808080;stroke-width:0.25" />
<path d="M312.77,80.11L312.77,1024.6" style="fill:none;stroke:#808080;stroke-width:0.25" />
<path d="M509.93,80.11L509.93,1024.6" style="fill:none;stroke:#808080;stroke-width:0.25" />
<path d="M707.08,80.11L707.08,1024.6" style="fill:none;stroke:#808080;stroke-width:0.25" />
<path d="M904.23,80.11L904.23,1024.6" style="fill:none;stroke:#808080;stroke-width:0.25" />
<path d="M1101.4,80.11L1101.4,1024.6" style="fill:none;stroke:#808080;stroke-width:0.25" />
<path d="M1298.5,80.11L1298.5,1024.6" style="fill:none;stroke:#808080;stroke-width:0.25" />
<path d="M1495.7,80.11L1495.7,1024.6" style="fill:none;stroke:#808080;stroke-width:0.25" />
<path d="M1692.8,80.11L1692.8,1024.6" style="fill:none;stroke:#808080;stroke-width:0.25" />
<path d="M1890,80.11L1890,1024.6" style="fill:none;stroke:#808080;stroke-width:0.25" />
<path d="M115.62,225.88L1890,225.88" style="fill:none;stroke:#808080;stroke-width:0.25" />
<path d="M115.62,378.02L1890,378.02" style="fill:none;stroke:#808080;stroke-width:0.25" />
<path d="M115.62,530.17L1890,530.17" style="fill:none;stroke:#808080;stroke-width:0.25" />
<path d="M115.62,682.32L1890,682.32" style="fill:none;stroke:#808080;stroke-width:0.25" />
<path d="M115.62,834.47L1890,834.47" style="fill:none;stroke:#808080;stroke-width:0.25" />
<path d="M115.62,986.61L1890,986.61" style="fill:none;stroke:#808080;stroke-width:0.25" />
<path d="M115.62,80.218L312.77,99.393L509.93,131.97L707.08,176.38L904.23,233.29L1101.4,303.57L1298.5,388.1L1495.7,484.43L1692.8,594.99L1890,718.05" style="fill:none;stroke:#FF0000;stroke-width:4" />
<path d="M120.62,80.218A5,5 0 1 1 110.62,80.218A5,5 0 1 1 120.62,80.218Z" style="fill:#FF0000" />
<path d="M317.77,99.393A5,5 0 1 1 307.77,99.393A5,5 0 1 1 317.77,99.393Z" style="fill:#FF0000" />
<path d="M514.93,131.97A5,5 0 1 1 504.93,131.97A5,5 0 1 1 514.93,131.97Z" style="fill:#FF0000" />
<path d="M712.08,176.38A5,5 0 1 1 702.08,176.38A5,5 0 1 1 712.08,176.38Z" style="fill:#FF0000" />
<path d="M909.23,233.29A5,5 0 1 1 899.23,233.29A5,5 0 1 1 909.23,233.29Z" style="fill:#FF0000" />
<path d="M1106.4,303.57A5,5 0 1 1 1096.4,303.57A5,5 0 1 1 1106.4,303.57Z" style="fill:#FF0000" />
<path d="M1303.5,388.1A5,5 0 1 1 1293.5,388.1A5,5 0 1 1 1303.5,388.1Z" style="fill:#FF0000" />
<path d="M1500.7,484.43A5,5 0 1 1 1490.7,484.43A5,5 0 1 1 1500.7,484.43Z" style="fill:#FF0000" />
<path d="M1697.8,594.99A5,5 0 1 1 1687.8,594.99A5,5 0 1 1 1697.8,594.99Z" style="fill:#FF0000" />
<path d="M1895,718.05A5,5 0 1 1 1885,718.05A5,5 0 1 1 1895,718.05Z" style="fill:#FF0000" />
<path d="M115.62,80.11L312.77,99.063L509.93,130.7L707.08,175.46L904.23,233.03L1101.4,302.73L1298.5,386.4L1495.7,485.72L1692.8,595.2L1890,716.74" style="fill:none;stroke:#0000FF;stroke-width:4" />
<path d="M120.62,80.11A5,5 0 1 1 110.62,80.11A5,5 0 1 1 120.62,80.11Z" style="fill:#0000FF" />
<path d="M317.77,99.063A5,5 0 1 1 307.77,99.063A5,5 0 1 1 317.77,99.063Z" style="fill:#0000FF" />
<path d="M514.93,130.7A5,5 0 1 1 504.93,130.7A5,5 0 1 1 514.93,130.7Z" style="fill:#0000FF" />
<path d="M712.08,175.46A5,5 0 1 1 702.08,175.46A5,5 0 1 1 712.08,175.46Z" style="fill:#0000FF" />
<path d="M909.23,233.03A5,5 0 1 1 899.23,233.03A5,5 0 1 1 909.23,233.03Z" style="fill:#0000FF" />
<path d="M1106.4,302.73A5,5 0 1 1 1096.4,302.73A5,5 0 1 1 1106.4,302.73Z" style="fill:#0000FF" />
<path d="M1303.5,386.4A5,5 0 1 1 1293.5,386.4A5,5 0 1 1 1303.5,386.4Z" style="fill:#0000FF" />
<path d="M1500.7,485.72A5,5 0 1 1 1490.7,485.72A5,5 0 1 1 1500.7,485.72Z" style="fill:#0000FF" />
<path d="M1697.8,595.2A5,5 0 1 1 1687.8,595.2A5,5 0 1 1 1697.8,595.2Z" style="fill:#0000FF" />
<path d="M1895,716.74A5,5 0 1 1 1885,716.74A5,5 0 1 1 1895,716.74Z" style="fill:#0000FF" />
<path d="M115.62,81.958L312.77,106.69L509.93,147.22L707.08,205.68L904.23,280.21L1101.4,375.36L1298.5,489.3L1495.7,626.37L1692.8,774.11L1890,938.18" style="fill:none;stroke:#00FF00;stroke-width:4" />
<path d="M120.62,81.958A5,5 0 1 1 110.62,81.958A5,5 0 1 1 120.62,81.958Z" style="fill:#00FF00" />
<path d="M317.77,106.69A5,5 0 1 1 307.77,106.69A5,5 0 1 1 317.77,106.69Z" style="fill:#00FF00" />
<path d="M514.93,147.22A5,5 0 1 1 504.93,147.22A5,5 0 1 1 514.93,147.22Z" style="fill:#00FF00" />
<path d="M712.08,205.68A5,5 0 1 1 702.08,205.68A5,5 0 1 1 712.08,205.68Z" style="fill:#00FF00" />
<path d="M909.23,280.21A5,5 0 1 1 899.23,280.21A5,5 0 1 1 909.23,280.21Z" style="fill:#00FF00" />
<path d="M1106.4,375.36A5,5 0 1 1 1096.4,375.36A5,5 0 1 1 1106.4,375.36Z" style="fill:#00FF00" />
<path d="M1303.5,489.3A5,5 0 1 1 1293.5,489.3A5,5 0 1 1 1303.5,489.3Z" style="fill:#00FF00" />
<path d="M1500.7,626.37A5,5 0 1 1 1490.7,626.37A5,5 0 1 1 1500.7,626.37Z" style="fill:#00FF00" />
<path d="M1697.8,774.11A5,5 0 1 1 1687.8,774.11A5,5 0 1 1 1697.8,774.11Z" style="fill:#00FF00" />
<path d="M1895,938.18A5,5 0 1 1 1885,938.18A5,5 0 1 1 1895,938.18Z" style="fill:#00FF00" />
<path d="M1900,126.03L1920,126.03" style="fill:none;stroke:#FF0000;stroke-width:4" />
<path d="M1915,126.03A5,5 0 1 1 1905,126.03A5,5 0 1 1 1915,126.03Z" style="fill:#FF0000" />
<text x="1795.4" y="-121.05" transform="scale(1, -1)"
	style="font-family:Liberation Serif;font-variant:normal;font-weight:normal;font-style:normal;font-size:24px">std::deque</text>
<path d="M1900,105.66L1920,105.66" style="fill:none;stroke:#0000FF;stroke-width:4" />
<path d="M1915,105.66A5,5 0 1 1 1905,105.66A5,5 0 1 1 1915,105.66Z" style="fill:#0000FF" />
<text x="1792.7" y="-100.69" transform="scale(1, -1)"
	style="font-family:Liberation Serif;font-variant:normal;font-weight:normal;font-style:normal;font-size:24px">std::vector</text>
<path d="M1900,85.294L1920,85.294" style="fill:none;stroke:#00FF00;stroke-width:4" />
<path d="M1915,85.294A5,5 0 1 1 1905,85.294A5,5 0 1 1 1915,85.294Z" style="fill:#00FF00" />
<text x="1823.3" y="-80.319" transform="scale(1, -1)"
	style="font-family:Liberation Serif;font-variant:normal;font-weight:normal;font-style:normal;font-size:24px">std::list</text>
</g>
</svg>
