<?xml version="1.0"?>
<!-- Generated by SVGo and Plotinum VG -->
<svg width="1920pt" height="1080pt" viewBox="0 0 1920 1080"
	xmlns="http://www.w3.org/2000/svg"
	xmlns:xlink="http://www.w3.org/1999/xlink">
<g transform="scale(1, -1) translate(0, -1080)">
<path d="M0,0L1920,0L1920,1080L0,1080Z" style="fill:#FFFFFF" />
<text x="628.86" y="-1040.9" transform="scale(1, -1)"
	style="font-family:Liberation Serif;font-variant:normal;font-weight:normal;font-style:normal;font-size:50px">random-sorted-insert - Log Scale</text>
<text x="880.35" y="-9.7559" transform="scale(1, -1)"
	style="font-family:Liberation Serif;font-variant:normal;font-weight:normal;font-style:normal;font-size:30px">Number of elements</text>
<text x="90.618" y="-39.727" transform="scale(1, -1)"
	style="font-family:Liberation Serif;font-variant:normal;font-weight:normal;font-style:normal;font-size:20px">10000</text>
<text x="287.77" y="-39.727" transform="scale(1, -1)"
	style="font-family:Liberation Serif;font-variant:normal;font-weight:normal;font-style:normal;font-size:20px">20000</text>
<text x="484.93" y="-39.727" transform="scale(1, -1)"
	style="font-family:Liberation Serif;font-variant:normal;font-weight:normal;font-style:normal;font-size:20px">30000</text>
<text x="682.08" y="-39.727" transform="scale(1, -1)"
	style="font-family:Liberation Serif;font-variant:normal;font-weight:normal;font-style:normal;font-size:20px">40000</text>
<text x="879.23" y="-39.727" transform="scale(1, -1)"
	style="font-family:Liberation Serif;font-variant:normal;font-weight:normal;font-style:normal;font-size:20px">50000</text>
<text x="1076.4" y="-39.727" transform="scale(1, -1)"
	style="font-family:Liberation Serif;font-variant:normal;font-weight:normal;font-style:normal;font-size:20px">60000</text>
<text x="1273.5" y="-39.727" transform="scale(1, -1)"
	style="font-family:Liberation Serif;font-variant:normal;font-weight:normal;font-style:normal;font-size:20px">70000</text>
<text x="1470.7" y="-39.727" transform="scale(1, -1)"
	style="font-family:Liberation Serif;font-variant:normal;font-weight:normal;font-style:normal;font-size:20px">80000</text>
<text x="1667.8" y="-39.727" transform="scale(1, -1)"
	style="font-family:Liberation Serif;font-variant:normal;font-weight:normal;font-style:normal;font-size:20px">90000</text>
<text x="1860" y="-39.727" transform="scale(1, -1)"
	style="font-family:Liberation Serif;font-variant:normal;font-weight:normal;font-style:normal;font-size:20px">100000</text>
<path d="M115.62,55.371L115.62,63.371" style="fill:none;stroke:#000000;stroke-width:0.5" />
<path d="M312.77,55.371L312.77,63.371" style="fill:none;stroke:#000000;stroke-width:0.5" />
<path d="M509.93,55.371L509.93,63.371" style="fill:none;stroke:#000000;stroke-width:0.5" />
<path d="M707.08,55.371L707.08,63.371" style="fill:none;stroke:#000000;stroke-width:0.5" />
<path d="M904.23,55.371L904.23,63.371" style="fill:none;stroke:#000000;stroke-width:0.5" />
<path d="M1101.4,55.371L1101.4,63.371" style="fill:none;stroke:#000000;stroke-width:0.5" />
<path d="M1298.5,55.371L1298.5,63.371" style="fill:none;stroke:#000000;stroke-width:0.5" />
<path d="M1495.7,55.371L1495.7,63.371" style="fill:none;stroke:#000000;stroke-width:0.5" />
<path d="M1692.8,55.371L1692.8,63.371" style="fill:none;stroke:#000000;stroke-width:0.5" />
<path d="M1890,55.371L1890,63.371" style="fill:none;stroke:#000000;stroke-width:0.5" />
<path d="M115.62,63.371L1890,63.371" style="fill:none;stroke:#000000;stroke-width:0.5" />
<g transform="rotate(90)">
<text x="482.79" y="23.467" transform="scale(1, -1)"
	style="font-family:Liberation Serif;font-variant:normal;font-weight:normal;font-style:normal;font-size:30px">log(μs + 1)</text>
</g>
<text x="39.712" y="-651.5" transform="scale(1, -1)"
	style="font-family:Liberation Serif;font-variant:normal;font-weight:normal;font-style:normal;font-size:20px">1e+07</text>
<text x="39.712" y="-906.18" transform="scale(1, -1)"
	style="font-family:Liberation Serif;font-variant:normal;font-weight:normal;font-style:normal;font-size:20px">4e+07</text>
<text x="39.712" y="-1009" transform="scale(1, -1)"
	style="font-family:Liberation Serif;font-variant:normal;font-weight:normal;font-style:normal;font-size:20px">7e+07</text>
<path d="M94.868,656.07L102.87,656.07" style="fill:none;stroke:#000000;stroke-width:0.5" />
<path d="M94.868,910.75L102.87,910.75" style="fill:none;stroke:#000000;stroke-width:0.5" />
<path d="M94.868,1013.6L102.87,1013.6" style="fill:none;stroke:#000000;stroke-width:0.5" />
<path d="M98.868,783.41L102.87,783.41" style="fill:none;stroke:#000000;stroke-width:0.5" />
<path d="M98.868,857.9L102.87,857.9" style="fill:none;stroke:#000000;stroke-width:0.5" />
<path d="M98.868,951.74L102.87,951.74" style="fill:none;stroke:#000000;stroke-width:0.5" />
<path d="M98.868,985.24L102.87,985.24" style="fill:none;stroke:#000000;stroke-width:0.5" />
<path d="M102.87,80.11L102.87,1018.5" style="fill:none;stroke:#000000;stroke-width:0.5" />
<path d="M115.62,80.11L115.62,1018.5" style="fill:none;stroke:#808080;stroke-width:0.25" />
<path d="M312.77,80.11L312.77,1018.5" style="fill:none;stroke:#808080;stroke-width:0.25" />
<path d="M509.93,80.11L509.93,1018.5" style="fill:none;stroke:#808080;stroke-width:0.25" />
<path d="M707.08,80.11L707.08,1018.5" style="fill:none;stroke:#808080;stroke-width:0.25" />
<path d="M904.23,80.11L904.23,1018.5" style="fill:none;stroke:#808080;stroke-width:0.25" />
<path d="M1101.4,80.11L1101.4,1018.5" style="fill:none;stroke:#808080;stroke-width:0.25" />
<path d="M1298.5,80.11L1298.5,1018.5" style="fill:none;stroke:#808080;stroke-width:0.25" />
<path d="M1495.7,80.11L1495.7,1018.5" style="fill:none;stroke:#808080;stroke-width:0.25" />
<path d="M1692.8,80.11L1692.8,1018.5" style="fill:none;stroke:#808080;stroke-width:0.25" />
<path d="M1890,80.11L1890,1018.5" style="fill:none;stroke:#808080;stroke-width:0.25" />
<path d="M115.62,656.07L1890,656.07" style="fill:none;stroke:#808080;stroke-width:0.25" />
<path d="M115.62,910.75L1890,910.75" style="fill:none;stroke:#808080;stroke-width:0.25" />
<path d="M115.62,1013.6L1890,1013.6" style="fill:none;stroke:#808080;stroke-width:0.25" />
<path d="M115.62,116.89L312.77,371.13L509.93,521.47L707.08,626.9L904.23,709.53L1101.4,778.33L1298.5,835.4L1495.7,885.21L1692.8,929.27L1890,969.2" style="fill:none;stroke:#FF0000;stroke-width:4" />
<path d="M120.62,116.89A5,5 0 1 1 110.62,116.89A5,5 0 1 1 120.62,116.89Z" style="fill:#FF0000" />
<path d="M317.77,371.13A5,5 0 1 1 307.77,371.13A5,5 0 1 1 317.77,371.13Z" style="fill:#FF0000" />
<path d="M514.93,521.47A5,5 0 1 1 504.93,521.47A5,5 0 1 1 514.93,521.47Z" style="fill:#FF0000" />
<path d="M712.08,626.9A5,5 0 1 1 702.08,626.9A5,5 0 1 1 712.08,626.9Z" style="fill:#FF0000" />
<path d="M909.23,709.53A5,5 0 1 1 899.23,709.53A5,5 0 1 1 909.23,709.53Z" style="fill:#FF0000" />
<path d="M1106.4,778.33A5,5 0 1 1 1096.4,778.33A5,5 0 1 1 1106.4,778.33Z" style="fill:#FF0000" />
<path d="M1303.5,835.4A5,5 0 1 1 1293.5,835.4A5,5 0 1 1 1303.5,835.4Z" style="fill:#FF0000" />
<path d="M1500.7,885.21A5,5 0 1 1 1490.7,885.21A5,5 0 1 1 1500.7,885.21Z" style="fill:#FF0000" />
<path d="M1697.8,929.27A5,5 0 1 1 1687.8,929.27A5,5 0 1 1 1697.8,929.27Z" style="fill:#FF0000" />
<path d="M1895,969.2A5,5 0 1 1 1885,969.2A5,5 0 1 1 1895,969.2Z" style="fill:#FF0000" />
<path d="M115.62,80.11L312.77,335.12L509.93,485.73L707.08,593.67L904.23,677.55L1101.4,744.97L1298.5,802.36L1495.7,854.7L1692.8,897.1L1890,936.17" style="fill:none;stroke:#0000FF;stroke-width:4" />
<path d="M120.62,80.11A5,5 0 1 1 110.62,80.11A5,5 0 1 1 120.62,80.11Z" style="fill:#0000FF" />
<path d="M317.77,335.12A5,5 0 1 1 307.77,335.12A5,5 0 1 1 317.77,335.12Z" style="fill:#0000FF" />
<path d="M514.93,485.73A5,5 0 1 1 504.93,485.73A5,5 0 1 1 514.93,485.73Z" style="fill:#0000FF" />
<path d="M712.08,593.67A5,5 0 1 1 702.08,593.67A5,5 0 1 1 712.08,593.67Z" style="fill:#0000FF" />
<path d="M909.23,677.55A5,5 0 1 1 899.23,677.55A5,5 0 1 1 909.23,677.55Z" style="fill:#0000FF" />
<path d="M1106.4,744.97A5,5 0 1 1 1096.4,744.97A5,5 0 1 1 1106.4,744.97Z" style="fill:#0000FF" />
<path d="M1303.5,802.36A5,5 0 1 1 1293.5,802.36A5,5 0 1 1 1303.5,802.36Z" style="fill:#0000FF" />
<path d="M1500.7,854.7A5,5 0 1 1 1490.7,854.7A5,5 0 1 1 1500.7,854.7Z" style="fill:#0000FF" />
<path d="M1697.8,897.1A5,5 0 1 1 1687.8,897.1A5,5 0 1 1 1697.8,897.1Z" style="fill:#0000FF" />
<path d="M1895,936.17A5,5 0 1 1 1885,936.17A5,5 0 1 1 1895,936.17Z" style="fill:#0000FF" />
<path d="M115.62,115.74L312.77,372.33L509.93,526.31L707.08,633.79L904.23,718.28L1101.4,787.17L1298.5,845.68L1495.7,898.62L1692.8,954.03L1890,1001" style="fill:none;stroke:#00FF00;stroke-width:4" />
<path d="M120.62,115.74A5,5 0 1 1 110.62,115.74A5,5 0 1 1 120.62,115.74Z" style="fill:#00FF00" />
<path d="M317.77,372.33A5,5 0 1 1 307.77,372.33A5,5 0 1 1 317.77,372.33Z" style="fill:#00FF00" />
<path d="M514.93,526.31A5,5 0 1 1 504.93,526.31A5,5 0 1 1 514.93,526.31Z" style="fill:#00FF00" />
<path d="M712.08,633.79A5,5 0 1 1 702.08,633.79A5,5 0 1 1 712.08,633.79Z" style="fill:#00FF00" />
<path d="M909.23,718.28A5,5 0 1 1 899.23,718.28A5,5 0 1 1 909.23,718.28Z" style="fill:#00FF00" />
<path d="M1106.4,787.17A5,5 0 1 1 1096.4,787.17A5,5 0 1 1 1106.4,787.17Z" style="fill:#00FF00" />
<path d="M1303.5,845.68A5,5 0 1 1 1293.5,845.68A5,5 0 1 1 1303.5,845.68Z" style="fill:#00FF00" />
<path d="M1500.7,898.62A5,5 0 1 1 1490.7,898.62A5,5 0 1 1 1500.7,898.62Z" style="fill:#00FF00" />
<path d="M1697.8,954.03A5,5 0 1 1 1687.8,954.03A5,5 0 1 1 1697.8,954.03Z" style="fill:#00FF00" />
<path d="M1895,1001A5,5 0 1 1 1885,1001A5,5 0 1 1 1895,1001Z" style="fill:#00FF00" />
<path d="M1900,126.03L1920,126.03" style="fill:none;stroke:#FF0000;stroke-width:4" />
<path d="M1915,126.03A5,5 0 1 1 1905,126.03A5,5 0 1 1 1915,126.03Z" style="fill:#FF0000" />
<text x="1795.4" y="-121.05" transform="scale(1, -1)"
	style="font-family:Liberation Serif;font-variant:normal;font-weight:normal;font-style:normal;font-size:24px">std::deque</text>
<path d="M1900,105.66L1920,105.66" style="fill:none;stroke:#0000FF;stroke-width:4" />
<path d="M1915,105.66A5,5 0 1 1 1905,105.66A5,5 0 1 1 1915,105.66Z" style="fill:#0000FF" />
<text x="1792.7" y="-100.69" transform="scale(1, -1)"
	style="font-family:Liberation Serif;font-variant:normal;font-weight:normal;font-style:normal;font-size:24px">std::vector</text>
<path d="M1900,85.294L1920,85.294" style="fill:none;stroke:#00FF00;stroke-width:4" />
<path d="M1915,85.294A5,5 0 1 1 1905,85.294A5,5 0 1 1 1915,85.294Z" style="fill:#00FF00" />
<text x="1823.3" y="-80.319" transform="scale(1, -1)"
	style="font-family:Liberation Serif;font-variant:normal;font-weight:normal;font-style:normal;font-size:24px">std::list</text>
</g>
</svg>
