<?xml version="1.0"?>
<!-- Generated by SVGo and Plotinum VG -->
<svg width="1920pt" height="1080pt" viewBox="0 0 1920 1080"
	xmlns="http://www.w3.org/2000/svg"
	xmlns:xlink="http://www.w3.org/1999/xlink">
<g transform="scale(1, -1) translate(0, -1080)">
<path d="M0,0L1920,0L1920,1080L0,1080Z" style="fill:#FFFFFF" />
<text x="628.86" y="-1040.9" transform="scale(1, -1)"
	style="font-family:Liberation Serif;font-variant:normal;font-weight:normal;font-style:normal;font-size:50px">random-sorted-insert - Log Scale</text>
<text x="905.27" y="-9.7559" transform="scale(1, -1)"
	style="font-family:Liberation Serif;font-variant:normal;font-weight:normal;font-style:normal;font-size:30px">Number of elements</text>
<text x="140.46" y="-39.727" transform="scale(1, -1)"
	style="font-family:Liberation Serif;font-variant:normal;font-weight:normal;font-style:normal;font-size:20px">1000</text>
<text x="333.19" y="-39.727" transform="scale(1, -1)"
	style="font-family:Liberation Serif;font-variant:normal;font-weight:normal;font-style:normal;font-size:20px">2000</text>
<text x="525.91" y="-39.727" transform="scale(1, -1)"
	style="font-family:Liberation Serif;font-variant:normal;font-weight:normal;font-style:normal;font-size:20px">3000</text>
<text x="718.64" y="-39.727" transform="scale(1, -1)"
	style="font-family:Liberation Serif;font-variant:normal;font-weight:normal;font-style:normal;font-size:20px">4000</text>
<text x="911.37" y="-39.727" transform="scale(1, -1)"
	style="font-family:Liberation Serif;font-variant:normal;font-weight:normal;font-style:normal;font-size:20px">5000</text>
<text x="1104.1" y="-39.727" transform="scale(1, -1)"
	style="font-family:Liberation Serif;font-variant:normal;font-weight:normal;font-style:normal;font-size:20px">6000</text>
<text x="1296.8" y="-39.727" transform="scale(1, -1)"
	style="font-family:Liberation Serif;font-variant:normal;font-weight:normal;font-style:normal;font-size:20px">7000</text>
<text x="1489.5" y="-39.727" transform="scale(1, -1)"
	style="font-family:Liberation Serif;font-variant:normal;font-weight:normal;font-style:normal;font-size:20px">8000</text>
<text x="1682.3" y="-39.727" transform="scale(1, -1)"
	style="font-family:Liberation Serif;font-variant:normal;font-weight:normal;font-style:normal;font-size:20px">9000</text>
<text x="1870" y="-39.727" transform="scale(1, -1)"
	style="font-family:Liberation Serif;font-variant:normal;font-weight:normal;font-style:normal;font-size:20px">10000</text>
<path d="M160.46,55.371L160.46,63.371" style="fill:none;stroke:#000000;stroke-width:0.5" />
<path d="M353.19,55.371L353.19,63.371" style="fill:none;stroke:#000000;stroke-width:0.5" />
<path d="M545.91,55.371L545.91,63.371" style="fill:none;stroke:#000000;stroke-width:0.5" />
<path d="M738.64,55.371L738.64,63.371" style="fill:none;stroke:#000000;stroke-width:0.5" />
<path d="M931.37,55.371L931.37,63.371" style="fill:none;stroke:#000000;stroke-width:0.5" />
<path d="M1124.1,55.371L1124.1,63.371" style="fill:none;stroke:#000000;stroke-width:0.5" />
<path d="M1316.8,55.371L1316.8,63.371" style="fill:none;stroke:#000000;stroke-width:0.5" />
<path d="M1509.5,55.371L1509.5,63.371" style="fill:none;stroke:#000000;stroke-width:0.5" />
<path d="M1702.3,55.371L1702.3,63.371" style="fill:none;stroke:#000000;stroke-width:0.5" />
<path d="M1895,55.371L1895,63.371" style="fill:none;stroke:#000000;stroke-width:0.5" />
<path d="M160.46,63.371L1895,63.371" style="fill:none;stroke:#000000;stroke-width:0.5" />
<g transform="rotate(90)">
<text x="485.87" y="23.467" transform="scale(1, -1)"
	style="font-family:Liberation Serif;font-variant:normal;font-weight:normal;font-style:normal;font-size:30px">log(μs + 1)</text>
</g>
<text x="49.712" y="-676.88" transform="scale(1, -1)"
	style="font-family:Liberation Serif;font-variant:normal;font-weight:normal;font-style:normal;font-size:20px">250000.00</text>
<text x="39.712" y="-913.43" transform="scale(1, -1)"
	style="font-family:Liberation Serif;font-variant:normal;font-weight:normal;font-style:normal;font-size:20px">1000000.00</text>
<text x="39.712" y="-1008.9" transform="scale(1, -1)"
	style="font-family:Liberation Serif;font-variant:normal;font-weight:normal;font-style:normal;font-size:20px">1750000.00</text>
<path d="M139.71,681.45L147.71,681.45" style="fill:none;stroke:#000000;stroke-width:0.5" />
<path d="M139.71,918L147.71,918" style="fill:none;stroke:#000000;stroke-width:0.5" />
<path d="M139.71,1013.5L147.71,1013.5" style="fill:none;stroke:#000000;stroke-width:0.5" />
<path d="M143.71,837.8L147.71,837.8" style="fill:none;stroke:#000000;stroke-width:0.5" />
<path d="M143.71,972.34L147.71,972.34" style="fill:none;stroke:#000000;stroke-width:0.5" />
<path d="M147.71,80.11L147.71,1024.6" style="fill:none;stroke:#000000;stroke-width:0.5" />
<path d="M160.46,80.11L160.46,1024.6" style="fill:none;stroke:#808080;stroke-width:0.25" />
<path d="M353.19,80.11L353.19,1024.6" style="fill:none;stroke:#808080;stroke-width:0.25" />
<path d="M545.91,80.11L545.91,1024.6" style="fill:none;stroke:#808080;stroke-width:0.25" />
<path d="M738.64,80.11L738.64,1024.6" style="fill:none;stroke:#808080;stroke-width:0.25" />
<path d="M931.37,80.11L931.37,1024.6" style="fill:none;stroke:#808080;stroke-width:0.25" />
<path d="M1124.1,80.11L1124.1,1024.6" style="fill:none;stroke:#808080;stroke-width:0.25" />
<path d="M1316.8,80.11L1316.8,1024.6" style="fill:none;stroke:#808080;stroke-width:0.25" />
<path d="M1509.5,80.11L1509.5,1024.6" style="fill:none;stroke:#808080;stroke-width:0.25" />
<path d="M1702.3,80.11L1702.3,1024.6" style="fill:none;stroke:#808080;stroke-width:0.25" />
<path d="M1895,80.11L1895,1024.6" style="fill:none;stroke:#808080;stroke-width:0.25" />
<path d="M160.46,681.45L1895,681.45" style="fill:none;stroke:#808080;stroke-width:0.25" />
<path d="M160.46,918L1895,918" style="fill:none;stroke:#808080;stroke-width:0.25" />
<path d="M160.46,1013.5L1895,1013.5" style="fill:none;stroke:#808080;stroke-width:0.25" />
<path d="M160.46,80.11L353.19,294.05L545.91,431.17L738.64,535.96L931.37,618.36L1124.1,673.99L1316.8,727.55L1509.5,785.28L1702.3,816.1L1895,852.74" style="fill:none;stroke:#FF0000;stroke-width:4" />
<path d="M165.46,80.11A5,5 0 1 1 155.46,80.11A5,5 0 1 1 165.46,80.11Z" style="fill:#FF0000" />
<path d="M358.19,294.05A5,5 0 1 1 348.19,294.05A5,5 0 1 1 358.19,294.05Z" style="fill:#FF0000" />
<path d="M550.91,431.17A5,5 0 1 1 540.91,431.17A5,5 0 1 1 550.91,431.17Z" style="fill:#FF0000" />
<path d="M743.64,535.96A5,5 0 1 1 733.64,535.96A5,5 0 1 1 743.64,535.96Z" style="fill:#FF0000" />
<path d="M936.37,618.36A5,5 0 1 1 926.37,618.36A5,5 0 1 1 936.37,618.36Z" style="fill:#FF0000" />
<path d="M1129.1,673.99A5,5 0 1 1 1119.1,673.99A5,5 0 1 1 1129.1,673.99Z" style="fill:#FF0000" />
<path d="M1321.8,727.55A5,5 0 1 1 1311.8,727.55A5,5 0 1 1 1321.8,727.55Z" style="fill:#FF0000" />
<path d="M1514.5,785.28A5,5 0 1 1 1504.5,785.28A5,5 0 1 1 1514.5,785.28Z" style="fill:#FF0000" />
<path d="M1707.3,816.1A5,5 0 1 1 1697.3,816.1A5,5 0 1 1 1707.3,816.1Z" style="fill:#FF0000" />
<path d="M1900,852.74A5,5 0 1 1 1890,852.74A5,5 0 1 1 1900,852.74Z" style="fill:#FF0000" />
<path d="M160.46,194.35L353.19,423.34L545.91,575.88L738.64,691.86L931.37,777.25L1124.1,837.27L1316.8,885.4L1509.5,950.8L1702.3,967.45L1895,1008.4" style="fill:none;stroke:#0000FF;stroke-width:4" />
<path d="M165.46,194.35A5,5 0 1 1 155.46,194.35A5,5 0 1 1 165.46,194.35Z" style="fill:#0000FF" />
<path d="M358.19,423.34A5,5 0 1 1 348.19,423.34A5,5 0 1 1 358.19,423.34Z" style="fill:#0000FF" />
<path d="M550.91,575.88A5,5 0 1 1 540.91,575.88A5,5 0 1 1 550.91,575.88Z" style="fill:#0000FF" />
<path d="M743.64,691.86A5,5 0 1 1 733.64,691.86A5,5 0 1 1 743.64,691.86Z" style="fill:#0000FF" />
<path d="M936.37,777.25A5,5 0 1 1 926.37,777.25A5,5 0 1 1 936.37,777.25Z" style="fill:#0000FF" />
<path d="M1129.1,837.27A5,5 0 1 1 1119.1,837.27A5,5 0 1 1 1129.1,837.27Z" style="fill:#0000FF" />
<path d="M1321.8,885.4A5,5 0 1 1 1311.8,885.4A5,5 0 1 1 1321.8,885.4Z" style="fill:#0000FF" />
<path d="M1514.5,950.8A5,5 0 1 1 1504.5,950.8A5,5 0 1 1 1514.5,950.8Z" style="fill:#0000FF" />
<path d="M1707.3,967.45A5,5 0 1 1 1697.3,967.45A5,5 0 1 1 1707.3,967.45Z" style="fill:#0000FF" />
<path d="M1900,1008.4A5,5 0 1 1 1890,1008.4A5,5 0 1 1 1900,1008.4Z" style="fill:#0000FF" />
<path d="M160.46,135.05L353.19,367.64L545.91,518.8L738.64,632.74L931.37,705.72L1124.1,779.53L1316.8,821.73L1509.5,879.48L1702.3,916.51L1895,957.04" style="fill:none;stroke:#00FF00;stroke-width:4" />
<path d="M165.46,135.05A5,5 0 1 1 155.46,135.05A5,5 0 1 1 165.46,135.05Z" style="fill:#00FF00" />
<path d="M358.19,367.64A5,5 0 1 1 348.19,367.64A5,5 0 1 1 358.19,367.64Z" style="fill:#00FF00" />
<path d="M550.91,518.8A5,5 0 1 1 540.91,518.8A5,5 0 1 1 550.91,518.8Z" style="fill:#00FF00" />
<path d="M743.64,632.74A5,5 0 1 1 733.64,632.74A5,5 0 1 1 743.64,632.74Z" style="fill:#00FF00" />
<path d="M936.37,705.72A5,5 0 1 1 926.37,705.72A5,5 0 1 1 936.37,705.72Z" style="fill:#00FF00" />
<path d="M1129.1,779.53A5,5 0 1 1 1119.1,779.53A5,5 0 1 1 1129.1,779.53Z" style="fill:#00FF00" />
<path d="M1321.8,821.73A5,5 0 1 1 1311.8,821.73A5,5 0 1 1 1321.8,821.73Z" style="fill:#00FF00" />
<path d="M1514.5,879.48A5,5 0 1 1 1504.5,879.48A5,5 0 1 1 1514.5,879.48Z" style="fill:#00FF00" />
<path d="M1707.3,916.51A5,5 0 1 1 1697.3,916.51A5,5 0 1 1 1707.3,916.51Z" style="fill:#00FF00" />
<path d="M1900,957.04A5,5 0 1 1 1890,957.04A5,5 0 1 1 1900,957.04Z" style="fill:#00FF00" />
<path d="M1900,126.03L1920,126.03" style="fill:none;stroke:#FF0000;stroke-width:4" />
<path d="M1915,126.03A5,5 0 1 1 1905,126.03A5,5 0 1 1 1915,126.03Z" style="fill:#FF0000" />
<text x="1823.3" y="-121.05" transform="scale(1, -1)"
	style="font-family:Liberation Serif;font-variant:normal;font-weight:normal;font-style:normal;font-size:24px">std::list</text>
<path d="M1900,105.66L1920,105.66" style="fill:none;stroke:#0000FF;stroke-width:4" />
<path d="M1915,105.66A5,5 0 1 1 1905,105.66A5,5 0 1 1 1915,105.66Z" style="fill:#0000FF" />
<text x="1795.4" y="-100.69" transform="scale(1, -1)"
	style="font-family:Liberation Serif;font-variant:normal;font-weight:normal;font-style:normal;font-size:24px">std::deque</text>
<path d="M1900,85.294L1920,85.294" style="fill:none;stroke:#00FF00;stroke-width:4" />
<path d="M1915,85.294A5,5 0 1 1 1905,85.294A5,5 0 1 1 1915,85.294Z" style="fill:#00FF00" />
<text x="1792.7" y="-80.319" transform="scale(1, -1)"
	style="font-family:Liberation Serif;font-variant:normal;font-weight:normal;font-style:normal;font-size:24px">std::vector</text>
</g>
</svg>
