<?xml version="1.0"?>
<!-- Generated by SVGo and Plotinum VG -->
<svg width="1920pt" height="1080pt" viewBox="0 0 1920 1080"
	xmlns="http://www.w3.org/2000/svg"
	xmlns:xlink="http://www.w3.org/1999/xlink">
<g transform="scale(1, -1) translate(0, -1080)">
<path d="M0,0L1920,0L1920,1080L0,1080Z" style="fill:#FFFFFF" />
<text x="750.34" y="-1040.9" transform="scale(1, -1)"
	style="font-family:Liberation Serif;font-variant:normal;font-weight:normal;font-style:normal;font-size:50px">random-sorted-insert</text>
<text x="887.77" y="-9.7559" transform="scale(1, -1)"
	style="font-family:Liberation Serif;font-variant:normal;font-weight:normal;font-style:normal;font-size:30px">Number of elements</text>
<text x="105.46" y="-39.727" transform="scale(1, -1)"
	style="font-family:Liberation Serif;font-variant:normal;font-weight:normal;font-style:normal;font-size:20px">1000</text>
<text x="302.08" y="-39.727" transform="scale(1, -1)"
	style="font-family:Liberation Serif;font-variant:normal;font-weight:normal;font-style:normal;font-size:20px">2000</text>
<text x="498.69" y="-39.727" transform="scale(1, -1)"
	style="font-family:Liberation Serif;font-variant:normal;font-weight:normal;font-style:normal;font-size:20px">3000</text>
<text x="695.31" y="-39.727" transform="scale(1, -1)"
	style="font-family:Liberation Serif;font-variant:normal;font-weight:normal;font-style:normal;font-size:20px">4000</text>
<text x="891.92" y="-39.727" transform="scale(1, -1)"
	style="font-family:Liberation Serif;font-variant:normal;font-weight:normal;font-style:normal;font-size:20px">5000</text>
<text x="1088.5" y="-39.727" transform="scale(1, -1)"
	style="font-family:Liberation Serif;font-variant:normal;font-weight:normal;font-style:normal;font-size:20px">6000</text>
<text x="1285.2" y="-39.727" transform="scale(1, -1)"
	style="font-family:Liberation Serif;font-variant:normal;font-weight:normal;font-style:normal;font-size:20px">7000</text>
<text x="1481.8" y="-39.727" transform="scale(1, -1)"
	style="font-family:Liberation Serif;font-variant:normal;font-weight:normal;font-style:normal;font-size:20px">8000</text>
<text x="1678.4" y="-39.727" transform="scale(1, -1)"
	style="font-family:Liberation Serif;font-variant:normal;font-weight:normal;font-style:normal;font-size:20px">9000</text>
<text x="1870" y="-39.727" transform="scale(1, -1)"
	style="font-family:Liberation Serif;font-variant:normal;font-weight:normal;font-style:normal;font-size:20px">10000</text>
<path d="M125.46,55.371L125.46,63.371" style="fill:none;stroke:#000000;stroke-width:0.5" />
<path d="M322.08,55.371L322.08,63.371" style="fill:none;stroke:#000000;stroke-width:0.5" />
<path d="M518.69,55.371L518.69,63.371" style="fill:none;stroke:#000000;stroke-width:0.5" />
<path d="M715.31,55.371L715.31,63.371" style="fill:none;stroke:#000000;stroke-width:0.5" />
<path d="M911.92,55.371L911.92,63.371" style="fill:none;stroke:#000000;stroke-width:0.5" />
<path d="M1108.5,55.371L1108.5,63.371" style="fill:none;stroke:#000000;stroke-width:0.5" />
<path d="M1305.2,55.371L1305.2,63.371" style="fill:none;stroke:#000000;stroke-width:0.5" />
<path d="M1501.8,55.371L1501.8,63.371" style="fill:none;stroke:#000000;stroke-width:0.5" />
<path d="M1698.4,55.371L1698.4,63.371" style="fill:none;stroke:#000000;stroke-width:0.5" />
<path d="M1895,55.371L1895,63.371" style="fill:none;stroke:#000000;stroke-width:0.5" />
<path d="M125.46,63.371L1895,63.371" style="fill:none;stroke:#000000;stroke-width:0.5" />
<g transform="rotate(90)">
<text x="538.49" y="23.467" transform="scale(1, -1)"
	style="font-family:Liberation Serif;font-variant:normal;font-weight:normal;font-style:normal;font-size:30px">μs</text>
</g>
<text x="39.712" y="-280.82" transform="scale(1, -1)"
	style="font-family:Liberation Serif;font-variant:normal;font-weight:normal;font-style:normal;font-size:20px">200000</text>
<text x="39.712" y="-493.55" transform="scale(1, -1)"
	style="font-family:Liberation Serif;font-variant:normal;font-weight:normal;font-style:normal;font-size:20px">400000</text>
<text x="39.712" y="-706.29" transform="scale(1, -1)"
	style="font-family:Liberation Serif;font-variant:normal;font-weight:normal;font-style:normal;font-size:20px">600000</text>
<text x="39.712" y="-919.02" transform="scale(1, -1)"
	style="font-family:Liberation Serif;font-variant:normal;font-weight:normal;font-style:normal;font-size:20px">800000</text>
<path d="M104.71,285.39L112.71,285.39" style="fill:none;stroke:#000000;stroke-width:0.5" />
<path d="M104.71,498.12L112.71,498.12" style="fill:none;stroke:#000000;stroke-width:0.5" />
<path d="M104.71,710.86L112.71,710.86" style="fill:none;stroke:#000000;stroke-width:0.5" />
<path d="M104.71,923.59L112.71,923.59" style="fill:none;stroke:#000000;stroke-width:0.5" />
<path d="M108.71,179.02L112.71,179.02" style="fill:none;stroke:#000000;stroke-width:0.5" />
<path d="M108.71,391.76L112.71,391.76" style="fill:none;stroke:#000000;stroke-width:0.5" />
<path d="M108.71,604.49L112.71,604.49" style="fill:none;stroke:#000000;stroke-width:0.5" />
<path d="M108.71,817.23L112.71,817.23" style="fill:none;stroke:#000000;stroke-width:0.5" />
<path d="M112.71,80.11L112.71,1024.6" style="fill:none;stroke:#000000;stroke-width:0.5" />
<path d="M125.46,80.11L125.46,1024.6" style="fill:none;stroke:#808080;stroke-width:0.25" />
<path d="M322.08,80.11L322.08,1024.6" style="fill:none;stroke:#808080;stroke-width:0.25" />
<path d="M518.69,80.11L518.69,1024.6" style="fill:none;stroke:#808080;stroke-width:0.25" />
<path d="M715.31,80.11L715.31,1024.6" style="fill:none;stroke:#808080;stroke-width:0.25" />
<path d="M911.92,80.11L911.92,1024.6" style="fill:none;stroke:#808080;stroke-width:0.25" />
<path d="M1108.5,80.11L1108.5,1024.6" style="fill:none;stroke:#808080;stroke-width:0.25" />
<path d="M1305.2,80.11L1305.2,1024.6" style="fill:none;stroke:#808080;stroke-width:0.25" />
<path d="M1501.8,80.11L1501.8,1024.6" style="fill:none;stroke:#808080;stroke-width:0.25" />
<path d="M1698.4,80.11L1698.4,1024.6" style="fill:none;stroke:#808080;stroke-width:0.25" />
<path d="M1895,80.11L1895,1024.6" style="fill:none;stroke:#808080;stroke-width:0.25" />
<path d="M125.46,285.39L1895,285.39" style="fill:none;stroke:#808080;stroke-width:0.25" />
<path d="M125.46,498.12L1895,498.12" style="fill:none;stroke:#808080;stroke-width:0.25" />
<path d="M125.46,710.86L1895,710.86" style="fill:none;stroke:#808080;stroke-width:0.25" />
<path d="M125.46,923.59L1895,923.59" style="fill:none;stroke:#808080;stroke-width:0.25" />
<path d="M125.46,80.456L322.08,99.711L518.69,132.26L715.31,191.28L911.92,248.95L1108.5,334.62L1305.2,406.99L1501.8,520.39L1698.4,631.98L1895,793.06" style="fill:none;stroke:#FF0000;stroke-width:4" />
<path d="M130.46,80.456A5,5 0 1 1 120.46,80.456A5,5 0 1 1 130.46,80.456Z" style="fill:#FF0000" />
<path d="M327.08,99.711A5,5 0 1 1 317.08,99.711A5,5 0 1 1 327.08,99.711Z" style="fill:#FF0000" />
<path d="M523.69,132.26A5,5 0 1 1 513.69,132.26A5,5 0 1 1 523.69,132.26Z" style="fill:#FF0000" />
<path d="M720.31,191.28A5,5 0 1 1 710.31,191.28A5,5 0 1 1 720.31,191.28Z" style="fill:#FF0000" />
<path d="M916.92,248.95A5,5 0 1 1 906.92,248.95A5,5 0 1 1 916.92,248.95Z" style="fill:#FF0000" />
<path d="M1113.5,334.62A5,5 0 1 1 1103.5,334.62A5,5 0 1 1 1113.5,334.62Z" style="fill:#FF0000" />
<path d="M1310.2,406.99A5,5 0 1 1 1300.2,406.99A5,5 0 1 1 1310.2,406.99Z" style="fill:#FF0000" />
<path d="M1506.8,520.39A5,5 0 1 1 1496.8,520.39A5,5 0 1 1 1506.8,520.39Z" style="fill:#FF0000" />
<path d="M1703.4,631.98A5,5 0 1 1 1693.4,631.98A5,5 0 1 1 1703.4,631.98Z" style="fill:#FF0000" />
<path d="M1900,793.06A5,5 0 1 1 1890,793.06A5,5 0 1 1 1900,793.06Z" style="fill:#FF0000" />
<path d="M125.46,82.807L322.08,106.6L518.69,144.14L715.31,202.64L911.92,266.83L1108.5,359.55L1305.2,482.88L1501.8,626.71L1698.4,792.75L1895,938.09" style="fill:none;stroke:#0000FF;stroke-width:4" />
<path d="M130.46,82.807A5,5 0 1 1 120.46,82.807A5,5 0 1 1 130.46,82.807Z" style="fill:#0000FF" />
<path d="M327.08,106.6A5,5 0 1 1 317.08,106.6A5,5 0 1 1 327.08,106.6Z" style="fill:#0000FF" />
<path d="M523.69,144.14A5,5 0 1 1 513.69,144.14A5,5 0 1 1 523.69,144.14Z" style="fill:#0000FF" />
<path d="M720.31,202.64A5,5 0 1 1 710.31,202.64A5,5 0 1 1 720.31,202.64Z" style="fill:#0000FF" />
<path d="M916.92,266.83A5,5 0 1 1 906.92,266.83A5,5 0 1 1 916.92,266.83Z" style="fill:#0000FF" />
<path d="M1113.5,359.55A5,5 0 1 1 1103.5,359.55A5,5 0 1 1 1113.5,359.55Z" style="fill:#0000FF" />
<path d="M1310.2,482.88A5,5 0 1 1 1300.2,482.88A5,5 0 1 1 1310.2,482.88Z" style="fill:#0000FF" />
<path d="M1506.8,626.71A5,5 0 1 1 1496.8,626.71A5,5 0 1 1 1506.8,626.71Z" style="fill:#0000FF" />
<path d="M1703.4,792.75A5,5 0 1 1 1693.4,792.75A5,5 0 1 1 1703.4,792.75Z" style="fill:#0000FF" />
<path d="M1900,938.09A5,5 0 1 1 1890,938.09A5,5 0 1 1 1900,938.09Z" style="fill:#0000FF" />
<path d="M125.46,80.11L322.08,99.171L518.69,128.92L715.31,173.44L911.92,247.09L1108.5,320.25L1305.2,407.09L1501.8,493.25L1698.4,576.77L1895,733.79" style="fill:none;stroke:#00FF00;stroke-width:4" />
<path d="M130.46,80.11A5,5 0 1 1 120.46,80.11A5,5 0 1 1 130.46,80.11Z" style="fill:#00FF00" />
<path d="M327.08,99.171A5,5 0 1 1 317.08,99.171A5,5 0 1 1 327.08,99.171Z" style="fill:#00FF00" />
<path d="M523.69,128.92A5,5 0 1 1 513.69,128.92A5,5 0 1 1 523.69,128.92Z" style="fill:#00FF00" />
<path d="M720.31,173.44A5,5 0 1 1 710.31,173.44A5,5 0 1 1 720.31,173.44Z" style="fill:#00FF00" />
<path d="M916.92,247.09A5,5 0 1 1 906.92,247.09A5,5 0 1 1 916.92,247.09Z" style="fill:#00FF00" />
<path d="M1113.5,320.25A5,5 0 1 1 1103.5,320.25A5,5 0 1 1 1113.5,320.25Z" style="fill:#00FF00" />
<path d="M1310.2,407.09A5,5 0 1 1 1300.2,407.09A5,5 0 1 1 1310.2,407.09Z" style="fill:#00FF00" />
<path d="M1506.8,493.25A5,5 0 1 1 1496.8,493.25A5,5 0 1 1 1506.8,493.25Z" style="fill:#00FF00" />
<path d="M1703.4,576.77A5,5 0 1 1 1693.4,576.77A5,5 0 1 1 1703.4,576.77Z" style="fill:#00FF00" />
<path d="M1900,733.79A5,5 0 1 1 1890,733.79A5,5 0 1 1 1900,733.79Z" style="fill:#00FF00" />
<path d="M1900,126.03L1920,126.03" style="fill:none;stroke:#FF0000;stroke-width:4" />
<path d="M1915,126.03A5,5 0 1 1 1905,126.03A5,5 0 1 1 1915,126.03Z" style="fill:#FF0000" />
<text x="1823.3" y="-121.05" transform="scale(1, -1)"
	style="font-family:Liberation Serif;font-variant:normal;font-weight:normal;font-style:normal;font-size:24px">std::list</text>
<path d="M1900,105.66L1920,105.66" style="fill:none;stroke:#0000FF;stroke-width:4" />
<path d="M1915,105.66A5,5 0 1 1 1905,105.66A5,5 0 1 1 1915,105.66Z" style="fill:#0000FF" />
<text x="1795.4" y="-100.69" transform="scale(1, -1)"
	style="font-family:Liberation Serif;font-variant:normal;font-weight:normal;font-style:normal;font-size:24px">std::deque</text>
<path d="M1900,85.294L1920,85.294" style="fill:none;stroke:#00FF00;stroke-width:4" />
<path d="M1915,85.294A5,5 0 1 1 1905,85.294A5,5 0 1 1 1915,85.294Z" style="fill:#00FF00" />
<text x="1792.7" y="-80.319" transform="scale(1, -1)"
	style="font-family:Liberation Serif;font-variant:normal;font-weight:normal;font-style:normal;font-size:24px">std::vector</text>
</g>
</svg>
