<?xml version="1.0"?>
<!-- Generated by SVGo and Plotinum VG -->
<svg width="1920pt" height="1080pt" viewBox="0 0 1920 1080"
	xmlns="http://www.w3.org/2000/svg"
	xmlns:xlink="http://www.w3.org/1999/xlink">
<g transform="scale(1, -1) translate(0, -1080)">
<path d="M0,0L1920,0L1920,1080L0,1080Z" style="fill:#FFFFFF" />
<text x="750.34" y="-1040.9" transform="scale(1, -1)"
	style="font-family:Liberation Serif;font-variant:normal;font-weight:normal;font-style:normal;font-size:50px">random-sorted-insert</text>
<text x="880.35" y="-9.7559" transform="scale(1, -1)"
	style="font-family:Liberation Serif;font-variant:normal;font-weight:normal;font-style:normal;font-size:30px">Number of elements</text>
<text x="90.618" y="-39.727" transform="scale(1, -1)"
	style="font-family:Liberation Serif;font-variant:normal;font-weight:normal;font-style:normal;font-size:20px">10000</text>
<text x="287.77" y="-39.727" transform="scale(1, -1)"
	style="font-family:Liberation Serif;font-variant:normal;font-weight:normal;font-style:normal;font-size:20px">20000</text>
<text x="484.93" y="-39.727" transform="scale(1, -1)"
	style="font-family:Liberation Serif;font-variant:normal;font-weight:normal;font-style:normal;font-size:20px">30000</text>
<text x="682.08" y="-39.727" transform="scale(1, -1)"
	style="font-family:Liberation Serif;font-variant:normal;font-weight:normal;font-style:normal;font-size:20px">40000</text>
<text x="879.23" y="-39.727" transform="scale(1, -1)"
	style="font-family:Liberation Serif;font-variant:normal;font-weight:normal;font-style:normal;font-size:20px">50000</text>
<text x="1076.4" y="-39.727" transform="scale(1, -1)"
	style="font-family:Liberation Serif;font-variant:normal;font-weight:normal;font-style:normal;font-size:20px">60000</text>
<text x="1273.5" y="-39.727" transform="scale(1, -1)"
	style="font-family:Liberation Serif;font-variant:normal;font-weight:normal;font-style:normal;font-size:20px">70000</text>
<text x="1470.7" y="-39.727" transform="scale(1, -1)"
	style="font-family:Liberation Serif;font-variant:normal;font-weight:normal;font-style:normal;font-size:20px">80000</text>
<text x="1667.8" y="-39.727" transform="scale(1, -1)"
	style="font-family:Liberation Serif;font-variant:normal;font-weight:normal;font-style:normal;font-size:20px">90000</text>
<text x="1860" y="-39.727" transform="scale(1, -1)"
	style="font-family:Liberation Serif;font-variant:normal;font-weight:normal;font-style:normal;font-size:20px">100000</text>
<path d="M115.62,55.371L115.62,63.371" style="fill:none;stroke:#000000;stroke-width:0.5" />
<path d="M312.77,55.371L312.77,63.371" style="fill:none;stroke:#000000;stroke-width:0.5" />
<path d="M509.93,55.371L509.93,63.371" style="fill:none;stroke:#000000;stroke-width:0.5" />
<path d="M707.08,55.371L707.08,63.371" style="fill:none;stroke:#000000;stroke-width:0.5" />
<path d="M904.23,55.371L904.23,63.371" style="fill:none;stroke:#000000;stroke-width:0.5" />
<path d="M1101.4,55.371L1101.4,63.371" style="fill:none;stroke:#000000;stroke-width:0.5" />
<path d="M1298.5,55.371L1298.5,63.371" style="fill:none;stroke:#000000;stroke-width:0.5" />
<path d="M1495.7,55.371L1495.7,63.371" style="fill:none;stroke:#000000;stroke-width:0.5" />
<path d="M1692.8,55.371L1692.8,63.371" style="fill:none;stroke:#000000;stroke-width:0.5" />
<path d="M1890,55.371L1890,63.371" style="fill:none;stroke:#000000;stroke-width:0.5" />
<path d="M115.62,63.371L1890,63.371" style="fill:none;stroke:#000000;stroke-width:0.5" />
<g transform="rotate(90)">
<text x="538.49" y="23.467" transform="scale(1, -1)"
	style="font-family:Liberation Serif;font-variant:normal;font-weight:normal;font-style:normal;font-size:30px">μs</text>
</g>
<text x="39.712" y="-184.27" transform="scale(1, -1)"
	style="font-family:Liberation Serif;font-variant:normal;font-weight:normal;font-style:normal;font-size:20px">1e+07</text>
<text x="39.712" y="-525.97" transform="scale(1, -1)"
	style="font-family:Liberation Serif;font-variant:normal;font-weight:normal;font-style:normal;font-size:20px">4e+07</text>
<text x="39.712" y="-867.66" transform="scale(1, -1)"
	style="font-family:Liberation Serif;font-variant:normal;font-weight:normal;font-style:normal;font-size:20px">7e+07</text>
<path d="M94.868,188.84L102.87,188.84" style="fill:none;stroke:#000000;stroke-width:0.5" />
<path d="M94.868,530.54L102.87,530.54" style="fill:none;stroke:#000000;stroke-width:0.5" />
<path d="M94.868,872.23L102.87,872.23" style="fill:none;stroke:#000000;stroke-width:0.5" />
<path d="M98.868,302.74L102.87,302.74" style="fill:none;stroke:#000000;stroke-width:0.5" />
<path d="M98.868,416.64L102.87,416.64" style="fill:none;stroke:#000000;stroke-width:0.5" />
<path d="M98.868,644.44L102.87,644.44" style="fill:none;stroke:#000000;stroke-width:0.5" />
<path d="M98.868,758.34L102.87,758.34" style="fill:none;stroke:#000000;stroke-width:0.5" />
<path d="M98.868,986.13L102.87,986.13" style="fill:none;stroke:#000000;stroke-width:0.5" />
<path d="M102.87,80.11L102.87,1024.6" style="fill:none;stroke:#000000;stroke-width:0.5" />
<path d="M115.62,80.11L115.62,1024.6" style="fill:none;stroke:#808080;stroke-width:0.25" />
<path d="M312.77,80.11L312.77,1024.6" style="fill:none;stroke:#808080;stroke-width:0.25" />
<path d="M509.93,80.11L509.93,1024.6" style="fill:none;stroke:#808080;stroke-width:0.25" />
<path d="M707.08,80.11L707.08,1024.6" style="fill:none;stroke:#808080;stroke-width:0.25" />
<path d="M904.23,80.11L904.23,1024.6" style="fill:none;stroke:#808080;stroke-width:0.25" />
<path d="M1101.4,80.11L1101.4,1024.6" style="fill:none;stroke:#808080;stroke-width:0.25" />
<path d="M1298.5,80.11L1298.5,1024.6" style="fill:none;stroke:#808080;stroke-width:0.25" />
<path d="M1495.7,80.11L1495.7,1024.6" style="fill:none;stroke:#808080;stroke-width:0.25" />
<path d="M1692.8,80.11L1692.8,1024.6" style="fill:none;stroke:#808080;stroke-width:0.25" />
<path d="M1890,80.11L1890,1024.6" style="fill:none;stroke:#808080;stroke-width:0.25" />
<path d="M115.62,188.84L1890,188.84" style="fill:none;stroke:#808080;stroke-width:0.25" />
<path d="M115.62,530.54L1890,530.54" style="fill:none;stroke:#808080;stroke-width:0.25" />
<path d="M115.62,872.23L1890,872.23" style="fill:none;stroke:#808080;stroke-width:0.25" />
<path d="M115.62,82.163L312.77,104.06L509.93,140.94L707.08,193.05L904.23,261.56L1101.4,349.83L1298.5,457.58L1495.7,571.94L1692.8,688.42L1890,837.09" style="fill:none;stroke:#FF0000;stroke-width:4" />
<path d="M120.62,82.163A5,5 0 1 1 110.62,82.163A5,5 0 1 1 120.62,82.163Z" style="fill:#FF0000" />
<path d="M317.77,104.06A5,5 0 1 1 307.77,104.06A5,5 0 1 1 317.77,104.06Z" style="fill:#FF0000" />
<path d="M514.93,140.94A5,5 0 1 1 504.93,140.94A5,5 0 1 1 514.93,140.94Z" style="fill:#FF0000" />
<path d="M712.08,193.05A5,5 0 1 1 702.08,193.05A5,5 0 1 1 712.08,193.05Z" style="fill:#FF0000" />
<path d="M909.23,261.56A5,5 0 1 1 899.23,261.56A5,5 0 1 1 909.23,261.56Z" style="fill:#FF0000" />
<path d="M1106.4,349.83A5,5 0 1 1 1096.4,349.83A5,5 0 1 1 1106.4,349.83Z" style="fill:#FF0000" />
<path d="M1303.5,457.58A5,5 0 1 1 1293.5,457.58A5,5 0 1 1 1303.5,457.58Z" style="fill:#FF0000" />
<path d="M1500.7,571.94A5,5 0 1 1 1490.7,571.94A5,5 0 1 1 1500.7,571.94Z" style="fill:#FF0000" />
<path d="M1697.8,688.42A5,5 0 1 1 1687.8,688.42A5,5 0 1 1 1697.8,688.42Z" style="fill:#FF0000" />
<path d="M1895,837.09A5,5 0 1 1 1885,837.09A5,5 0 1 1 1895,837.09Z" style="fill:#FF0000" />
<path d="M115.62,80.11L312.77,96.766L509.93,123.66L707.08,162.15L904.23,211.83L1101.4,273.71L1298.5,347.14L1495.7,433.92L1692.8,563.22L1890,687.14" style="fill:none;stroke:#0000FF;stroke-width:4" />
<path d="M120.62,80.11A5,5 0 1 1 110.62,80.11A5,5 0 1 1 120.62,80.11Z" style="fill:#0000FF" />
<path d="M317.77,96.766A5,5 0 1 1 307.77,96.766A5,5 0 1 1 317.77,96.766Z" style="fill:#0000FF" />
<path d="M514.93,123.66A5,5 0 1 1 504.93,123.66A5,5 0 1 1 514.93,123.66Z" style="fill:#0000FF" />
<path d="M712.08,162.15A5,5 0 1 1 702.08,162.15A5,5 0 1 1 712.08,162.15Z" style="fill:#0000FF" />
<path d="M909.23,211.83A5,5 0 1 1 899.23,211.83A5,5 0 1 1 909.23,211.83Z" style="fill:#0000FF" />
<path d="M1106.4,273.71A5,5 0 1 1 1096.4,273.71A5,5 0 1 1 1106.4,273.71Z" style="fill:#0000FF" />
<path d="M1303.5,347.14A5,5 0 1 1 1293.5,347.14A5,5 0 1 1 1303.5,347.14Z" style="fill:#0000FF" />
<path d="M1500.7,433.92A5,5 0 1 1 1490.7,433.92A5,5 0 1 1 1500.7,433.92Z" style="fill:#0000FF" />
<path d="M1697.8,563.22A5,5 0 1 1 1687.8,563.22A5,5 0 1 1 1697.8,563.22Z" style="fill:#0000FF" />
<path d="M1895,687.14A5,5 0 1 1 1885,687.14A5,5 0 1 1 1895,687.14Z" style="fill:#0000FF" />
<path d="M115.62,81.063L312.77,99.41L509.93,131.53L707.08,177.66L904.23,237.76L1101.4,315.31L1298.5,412.74L1495.7,594L1692.8,748.98L1890,938.29" style="fill:none;stroke:#00FF00;stroke-width:4" />
<path d="M120.62,81.063A5,5 0 1 1 110.62,81.063A5,5 0 1 1 120.62,81.063Z" style="fill:#00FF00" />
<path d="M317.77,99.41A5,5 0 1 1 307.77,99.41A5,5 0 1 1 317.77,99.41Z" style="fill:#00FF00" />
<path d="M514.93,131.53A5,5 0 1 1 504.93,131.53A5,5 0 1 1 514.93,131.53Z" style="fill:#00FF00" />
<path d="M712.08,177.66A5,5 0 1 1 702.08,177.66A5,5 0 1 1 712.08,177.66Z" style="fill:#00FF00" />
<path d="M909.23,237.76A5,5 0 1 1 899.23,237.76A5,5 0 1 1 909.23,237.76Z" style="fill:#00FF00" />
<path d="M1106.4,315.31A5,5 0 1 1 1096.4,315.31A5,5 0 1 1 1106.4,315.31Z" style="fill:#00FF00" />
<path d="M1303.5,412.74A5,5 0 1 1 1293.5,412.74A5,5 0 1 1 1303.5,412.74Z" style="fill:#00FF00" />
<path d="M1500.7,594A5,5 0 1 1 1490.7,594A5,5 0 1 1 1500.7,594Z" style="fill:#00FF00" />
<path d="M1697.8,748.98A5,5 0 1 1 1687.8,748.98A5,5 0 1 1 1697.8,748.98Z" style="fill:#00FF00" />
<path d="M1895,938.29A5,5 0 1 1 1885,938.29A5,5 0 1 1 1895,938.29Z" style="fill:#00FF00" />
<path d="M1900,126.03L1920,126.03" style="fill:none;stroke:#FF0000;stroke-width:4" />
<path d="M1915,126.03A5,5 0 1 1 1905,126.03A5,5 0 1 1 1915,126.03Z" style="fill:#FF0000" />
<text x="1795.4" y="-121.05" transform="scale(1, -1)"
	style="font-family:Liberation Serif;font-variant:normal;font-weight:normal;font-style:normal;font-size:24px">std::deque</text>
<path d="M1900,105.66L1920,105.66" style="fill:none;stroke:#0000FF;stroke-width:4" />
<path d="M1915,105.66A5,5 0 1 1 1905,105.66A5,5 0 1 1 1915,105.66Z" style="fill:#0000FF" />
<text x="1792.7" y="-100.69" transform="scale(1, -1)"
	style="font-family:Liberation Serif;font-variant:normal;font-weight:normal;font-style:normal;font-size:24px">std::vector</text>
<path d="M1900,85.294L1920,85.294" style="fill:none;stroke:#00FF00;stroke-width:4" />
<path d="M1915,85.294A5,5 0 1 1 1905,85.294A5,5 0 1 1 1915,85.294Z" style="fill:#00FF00" />
<text x="1823.3" y="-80.319" transform="scale(1, -1)"
	style="font-family:Liberation Serif;font-variant:normal;font-weight:normal;font-style:normal;font-size:24px">std::list</text>
</g>
</svg>
