<?xml version="1.0"?>
<!-- Generated by SVGo and Plotinum VG -->
<svg width="1920pt" height="1080pt" viewBox="0 0 1920 1080"
	xmlns="http://www.w3.org/2000/svg"
	xmlns:xlink="http://www.w3.org/1999/xlink">
<g transform="scale(1, -1) translate(0, -1080)">
<path d="M0,0L1920,0L1920,1080L0,1080Z" style="fill:#FFFFFF" />
<text x="628.86" y="-1040.9" transform="scale(1, -1)"
	style="font-family:Liberation Serif;font-variant:normal;font-weight:normal;font-style:normal;font-size:50px">random-sorted-insert - Log Scale</text>
<text x="892.77" y="-9.7559" transform="scale(1, -1)"
	style="font-family:Liberation Serif;font-variant:normal;font-weight:normal;font-style:normal;font-size:30px">Number of elements</text>
<text x="115.46" y="-39.727" transform="scale(1, -1)"
	style="font-family:Liberation Serif;font-variant:normal;font-weight:normal;font-style:normal;font-size:20px">1000</text>
<text x="310.97" y="-39.727" transform="scale(1, -1)"
	style="font-family:Liberation Serif;font-variant:normal;font-weight:normal;font-style:normal;font-size:20px">2000</text>
<text x="506.47" y="-39.727" transform="scale(1, -1)"
	style="font-family:Liberation Serif;font-variant:normal;font-weight:normal;font-style:normal;font-size:20px">3000</text>
<text x="701.97" y="-39.727" transform="scale(1, -1)"
	style="font-family:Liberation Serif;font-variant:normal;font-weight:normal;font-style:normal;font-size:20px">4000</text>
<text x="897.48" y="-39.727" transform="scale(1, -1)"
	style="font-family:Liberation Serif;font-variant:normal;font-weight:normal;font-style:normal;font-size:20px">5000</text>
<text x="1093" y="-39.727" transform="scale(1, -1)"
	style="font-family:Liberation Serif;font-variant:normal;font-weight:normal;font-style:normal;font-size:20px">6000</text>
<text x="1288.5" y="-39.727" transform="scale(1, -1)"
	style="font-family:Liberation Serif;font-variant:normal;font-weight:normal;font-style:normal;font-size:20px">7000</text>
<text x="1484" y="-39.727" transform="scale(1, -1)"
	style="font-family:Liberation Serif;font-variant:normal;font-weight:normal;font-style:normal;font-size:20px">8000</text>
<text x="1679.5" y="-39.727" transform="scale(1, -1)"
	style="font-family:Liberation Serif;font-variant:normal;font-weight:normal;font-style:normal;font-size:20px">9000</text>
<text x="1870" y="-39.727" transform="scale(1, -1)"
	style="font-family:Liberation Serif;font-variant:normal;font-weight:normal;font-style:normal;font-size:20px">10000</text>
<path d="M135.46,55.371L135.46,63.371" style="fill:none;stroke:#000000;stroke-width:0.5" />
<path d="M330.97,55.371L330.97,63.371" style="fill:none;stroke:#000000;stroke-width:0.5" />
<path d="M526.47,55.371L526.47,63.371" style="fill:none;stroke:#000000;stroke-width:0.5" />
<path d="M721.97,55.371L721.97,63.371" style="fill:none;stroke:#000000;stroke-width:0.5" />
<path d="M917.48,55.371L917.48,63.371" style="fill:none;stroke:#000000;stroke-width:0.5" />
<path d="M1113,55.371L1113,63.371" style="fill:none;stroke:#000000;stroke-width:0.5" />
<path d="M1308.5,55.371L1308.5,63.371" style="fill:none;stroke:#000000;stroke-width:0.5" />
<path d="M1504,55.371L1504,63.371" style="fill:none;stroke:#000000;stroke-width:0.5" />
<path d="M1699.5,55.371L1699.5,63.371" style="fill:none;stroke:#000000;stroke-width:0.5" />
<path d="M1895,55.371L1895,63.371" style="fill:none;stroke:#000000;stroke-width:0.5" />
<path d="M135.46,63.371L1895,63.371" style="fill:none;stroke:#000000;stroke-width:0.5" />
<g transform="rotate(90)">
<text x="481.89" y="23.467" transform="scale(1, -1)"
	style="font-family:Liberation Serif;font-variant:normal;font-weight:normal;font-style:normal;font-size:30px">log(μs + 1)</text>
</g>
<text x="39.712" y="-740.3" transform="scale(1, -1)"
	style="font-family:Liberation Serif;font-variant:normal;font-weight:normal;font-style:normal;font-size:20px">1000000</text>
<text x="39.712" y="-931.71" transform="scale(1, -1)"
	style="font-family:Liberation Serif;font-variant:normal;font-weight:normal;font-style:normal;font-size:20px">4000000</text>
<text x="39.712" y="-1009" transform="scale(1, -1)"
	style="font-family:Liberation Serif;font-variant:normal;font-weight:normal;font-style:normal;font-size:20px">7000000</text>
<path d="M114.71,744.87L122.71,744.87" style="fill:none;stroke:#000000;stroke-width:0.5" />
<path d="M114.71,936.28L122.71,936.28" style="fill:none;stroke:#000000;stroke-width:0.5" />
<path d="M114.71,1013.6L122.71,1013.6" style="fill:none;stroke:#000000;stroke-width:0.5" />
<path d="M118.71,840.58L122.71,840.58" style="fill:none;stroke:#000000;stroke-width:0.5" />
<path d="M118.71,896.56L122.71,896.56" style="fill:none;stroke:#000000;stroke-width:0.5" />
<path d="M118.71,967.1L122.71,967.1" style="fill:none;stroke:#000000;stroke-width:0.5" />
<path d="M118.71,992.27L122.71,992.27" style="fill:none;stroke:#000000;stroke-width:0.5" />
<path d="M122.71,80.11L122.71,1016.7" style="fill:none;stroke:#000000;stroke-width:0.5" />
<path d="M135.46,80.11L135.46,1016.7" style="fill:none;stroke:#808080;stroke-width:0.25" />
<path d="M330.97,80.11L330.97,1016.7" style="fill:none;stroke:#808080;stroke-width:0.25" />
<path d="M526.47,80.11L526.47,1016.7" style="fill:none;stroke:#808080;stroke-width:0.25" />
<path d="M721.97,80.11L721.97,1016.7" style="fill:none;stroke:#808080;stroke-width:0.25" />
<path d="M917.48,80.11L917.48,1016.7" style="fill:none;stroke:#808080;stroke-width:0.25" />
<path d="M1113,80.11L1113,1016.7" style="fill:none;stroke:#808080;stroke-width:0.25" />
<path d="M1308.5,80.11L1308.5,1016.7" style="fill:none;stroke:#808080;stroke-width:0.25" />
<path d="M1504,80.11L1504,1016.7" style="fill:none;stroke:#808080;stroke-width:0.25" />
<path d="M1699.5,80.11L1699.5,1016.7" style="fill:none;stroke:#808080;stroke-width:0.25" />
<path d="M1895,80.11L1895,1016.7" style="fill:none;stroke:#808080;stroke-width:0.25" />
<path d="M135.46,744.87L1895,744.87" style="fill:none;stroke:#808080;stroke-width:0.25" />
<path d="M135.46,936.28L1895,936.28" style="fill:none;stroke:#808080;stroke-width:0.25" />
<path d="M135.46,1013.6L1895,1013.6" style="fill:none;stroke:#808080;stroke-width:0.25" />
<path d="M135.46,275.28L330.97,459.4L526.47,588.67L721.97,681.57L917.48,758.4L1113,816.72L1308.5,872.88L1504,918.43L1699.5,965.23L1895,1003.5" style="fill:none;stroke:#FF0000;stroke-width:4" />
<path d="M140.46,275.28A5,5 0 1 1 130.46,275.28A5,5 0 1 1 140.46,275.28Z" style="fill:#FF0000" />
<path d="M335.97,459.4A5,5 0 1 1 325.97,459.4A5,5 0 1 1 335.97,459.4Z" style="fill:#FF0000" />
<path d="M531.47,588.67A5,5 0 1 1 521.47,588.67A5,5 0 1 1 531.47,588.67Z" style="fill:#FF0000" />
<path d="M726.97,681.57A5,5 0 1 1 716.97,681.57A5,5 0 1 1 726.97,681.57Z" style="fill:#FF0000" />
<path d="M922.48,758.4A5,5 0 1 1 912.48,758.4A5,5 0 1 1 922.48,758.4Z" style="fill:#FF0000" />
<path d="M1118,816.72A5,5 0 1 1 1108,816.72A5,5 0 1 1 1118,816.72Z" style="fill:#FF0000" />
<path d="M1313.5,872.88A5,5 0 1 1 1303.5,872.88A5,5 0 1 1 1313.5,872.88Z" style="fill:#FF0000" />
<path d="M1509,918.43A5,5 0 1 1 1499,918.43A5,5 0 1 1 1509,918.43Z" style="fill:#FF0000" />
<path d="M1704.5,965.23A5,5 0 1 1 1694.5,965.23A5,5 0 1 1 1704.5,965.23Z" style="fill:#FF0000" />
<path d="M1900,1003.5A5,5 0 1 1 1890,1003.5A5,5 0 1 1 1900,1003.5Z" style="fill:#FF0000" />
<path d="M135.46,80.11L330.97,256.3L526.47,359.24L721.97,435.91L917.48,497.08L1113,559.36L1308.5,608.33L1504,643.31L1699.5,677.02L1895,701.99" style="fill:none;stroke:#0000FF;stroke-width:4" />
<path d="M140.46,80.11A5,5 0 1 1 130.46,80.11A5,5 0 1 1 140.46,80.11Z" style="fill:#0000FF" />
<path d="M335.97,256.3A5,5 0 1 1 325.97,256.3A5,5 0 1 1 335.97,256.3Z" style="fill:#0000FF" />
<path d="M531.47,359.24A5,5 0 1 1 521.47,359.24A5,5 0 1 1 531.47,359.24Z" style="fill:#0000FF" />
<path d="M726.97,435.91A5,5 0 1 1 716.97,435.91A5,5 0 1 1 726.97,435.91Z" style="fill:#0000FF" />
<path d="M922.48,497.08A5,5 0 1 1 912.48,497.08A5,5 0 1 1 922.48,497.08Z" style="fill:#0000FF" />
<path d="M1118,559.36A5,5 0 1 1 1108,559.36A5,5 0 1 1 1118,559.36Z" style="fill:#0000FF" />
<path d="M1313.5,608.33A5,5 0 1 1 1303.5,608.33A5,5 0 1 1 1313.5,608.33Z" style="fill:#0000FF" />
<path d="M1509,643.31A5,5 0 1 1 1499,643.31A5,5 0 1 1 1509,643.31Z" style="fill:#0000FF" />
<path d="M1704.5,677.02A5,5 0 1 1 1694.5,677.02A5,5 0 1 1 1704.5,677.02Z" style="fill:#0000FF" />
<path d="M1900,701.99A5,5 0 1 1 1890,701.99A5,5 0 1 1 1900,701.99Z" style="fill:#0000FF" />
<path d="M135.46,232.97L330.97,448.63L526.47,589.37L721.97,683.73L917.48,753.2L1113,798.54L1308.5,837L1504,894.28L1699.5,958.17L1895,979.25" style="fill:none;stroke:#00FF00;stroke-width:4" />
<path d="M140.46,232.97A5,5 0 1 1 130.46,232.97A5,5 0 1 1 140.46,232.97Z" style="fill:#00FF00" />
<path d="M335.97,448.63A5,5 0 1 1 325.97,448.63A5,5 0 1 1 335.97,448.63Z" style="fill:#00FF00" />
<path d="M531.47,589.37A5,5 0 1 1 521.47,589.37A5,5 0 1 1 531.47,589.37Z" style="fill:#00FF00" />
<path d="M726.97,683.73A5,5 0 1 1 716.97,683.73A5,5 0 1 1 726.97,683.73Z" style="fill:#00FF00" />
<path d="M922.48,753.2A5,5 0 1 1 912.48,753.2A5,5 0 1 1 922.48,753.2Z" style="fill:#00FF00" />
<path d="M1118,798.54A5,5 0 1 1 1108,798.54A5,5 0 1 1 1118,798.54Z" style="fill:#00FF00" />
<path d="M1313.5,837A5,5 0 1 1 1303.5,837A5,5 0 1 1 1313.5,837Z" style="fill:#00FF00" />
<path d="M1509,894.28A5,5 0 1 1 1499,894.28A5,5 0 1 1 1509,894.28Z" style="fill:#00FF00" />
<path d="M1704.5,958.17A5,5 0 1 1 1694.5,958.17A5,5 0 1 1 1704.5,958.17Z" style="fill:#00FF00" />
<path d="M1900,979.25A5,5 0 1 1 1890,979.25A5,5 0 1 1 1900,979.25Z" style="fill:#00FF00" />
<path d="M1900,126.03L1920,126.03" style="fill:none;stroke:#FF0000;stroke-width:4" />
<path d="M1915,126.03A5,5 0 1 1 1905,126.03A5,5 0 1 1 1915,126.03Z" style="fill:#FF0000" />
<text x="1792.7" y="-121.05" transform="scale(1, -1)"
	style="font-family:Liberation Serif;font-variant:normal;font-weight:normal;font-style:normal;font-size:24px">std::vector</text>
<path d="M1900,105.66L1920,105.66" style="fill:none;stroke:#0000FF;stroke-width:4" />
<path d="M1915,105.66A5,5 0 1 1 1905,105.66A5,5 0 1 1 1915,105.66Z" style="fill:#0000FF" />
<text x="1823.3" y="-100.69" transform="scale(1, -1)"
	style="font-family:Liberation Serif;font-variant:normal;font-weight:normal;font-style:normal;font-size:24px">std::list</text>
<path d="M1900,85.294L1920,85.294" style="fill:none;stroke:#00FF00;stroke-width:4" />
<path d="M1915,85.294A5,5 0 1 1 1905,85.294A5,5 0 1 1 1915,85.294Z" style="fill:#00FF00" />
<text x="1795.4" y="-80.319" transform="scale(1, -1)"
	style="font-family:Liberation Serif;font-variant:normal;font-weight:normal;font-style:normal;font-size:24px">std::deque</text>
</g>
</svg>
