<?xml version="1.0"?>
<!-- Generated by SVGo and Plotinum VG -->
<svg width="1920pt" height="1080pt" viewBox="0 0 1920 1080"
	xmlns="http://www.w3.org/2000/svg"
	xmlns:xlink="http://www.w3.org/1999/xlink">
<g transform="scale(1, -1) translate(0, -1080)">
<path d="M0,0L1920,0L1920,1080L0,1080Z" style="fill:#FFFFFF" />
<text x="750.34" y="-1040.9" transform="scale(1, -1)"
	style="font-family:Liberation Serif;font-variant:normal;font-weight:normal;font-style:normal;font-size:50px">random-sorted-insert</text>
<text x="887.77" y="-9.7559" transform="scale(1, -1)"
	style="font-family:Liberation Serif;font-variant:normal;font-weight:normal;font-style:normal;font-size:30px">Number of elements</text>
<text x="105.46" y="-39.727" transform="scale(1, -1)"
	style="font-family:Liberation Serif;font-variant:normal;font-weight:normal;font-style:normal;font-size:20px">1000</text>
<text x="302.08" y="-39.727" transform="scale(1, -1)"
	style="font-family:Liberation Serif;font-variant:normal;font-weight:normal;font-style:normal;font-size:20px">2000</text>
<text x="498.69" y="-39.727" transform="scale(1, -1)"
	style="font-family:Liberation Serif;font-variant:normal;font-weight:normal;font-style:normal;font-size:20px">3000</text>
<text x="695.31" y="-39.727" transform="scale(1, -1)"
	style="font-family:Liberation Serif;font-variant:normal;font-weight:normal;font-style:normal;font-size:20px">4000</text>
<text x="891.92" y="-39.727" transform="scale(1, -1)"
	style="font-family:Liberation Serif;font-variant:normal;font-weight:normal;font-style:normal;font-size:20px">5000</text>
<text x="1088.5" y="-39.727" transform="scale(1, -1)"
	style="font-family:Liberation Serif;font-variant:normal;font-weight:normal;font-style:normal;font-size:20px">6000</text>
<text x="1285.2" y="-39.727" transform="scale(1, -1)"
	style="font-family:Liberation Serif;font-variant:normal;font-weight:normal;font-style:normal;font-size:20px">7000</text>
<text x="1481.8" y="-39.727" transform="scale(1, -1)"
	style="font-family:Liberation Serif;font-variant:normal;font-weight:normal;font-style:normal;font-size:20px">8000</text>
<text x="1678.4" y="-39.727" transform="scale(1, -1)"
	style="font-family:Liberation Serif;font-variant:normal;font-weight:normal;font-style:normal;font-size:20px">9000</text>
<text x="1870" y="-39.727" transform="scale(1, -1)"
	style="font-family:Liberation Serif;font-variant:normal;font-weight:normal;font-style:normal;font-size:20px">10000</text>
<path d="M125.46,55.371L125.46,63.371" style="fill:none;stroke:#000000;stroke-width:0.5" />
<path d="M322.08,55.371L322.08,63.371" style="fill:none;stroke:#000000;stroke-width:0.5" />
<path d="M518.69,55.371L518.69,63.371" style="fill:none;stroke:#000000;stroke-width:0.5" />
<path d="M715.31,55.371L715.31,63.371" style="fill:none;stroke:#000000;stroke-width:0.5" />
<path d="M911.92,55.371L911.92,63.371" style="fill:none;stroke:#000000;stroke-width:0.5" />
<path d="M1108.5,55.371L1108.5,63.371" style="fill:none;stroke:#000000;stroke-width:0.5" />
<path d="M1305.2,55.371L1305.2,63.371" style="fill:none;stroke:#000000;stroke-width:0.5" />
<path d="M1501.8,55.371L1501.8,63.371" style="fill:none;stroke:#000000;stroke-width:0.5" />
<path d="M1698.4,55.371L1698.4,63.371" style="fill:none;stroke:#000000;stroke-width:0.5" />
<path d="M1895,55.371L1895,63.371" style="fill:none;stroke:#000000;stroke-width:0.5" />
<path d="M125.46,63.371L1895,63.371" style="fill:none;stroke:#000000;stroke-width:0.5" />
<g transform="rotate(90)">
<text x="538.49" y="23.467" transform="scale(1, -1)"
	style="font-family:Liberation Serif;font-variant:normal;font-weight:normal;font-style:normal;font-size:30px">μs</text>
</g>
<text x="39.712" y="-198.66" transform="scale(1, -1)"
	style="font-family:Liberation Serif;font-variant:normal;font-weight:normal;font-style:normal;font-size:20px">100000</text>
<text x="39.712" y="-591.65" transform="scale(1, -1)"
	style="font-family:Liberation Serif;font-variant:normal;font-weight:normal;font-style:normal;font-size:20px">400000</text>
<text x="39.712" y="-984.64" transform="scale(1, -1)"
	style="font-family:Liberation Serif;font-variant:normal;font-weight:normal;font-style:normal;font-size:20px">700000</text>
<path d="M104.71,203.23L112.71,203.23" style="fill:none;stroke:#000000;stroke-width:0.5" />
<path d="M104.71,596.22L112.71,596.22" style="fill:none;stroke:#000000;stroke-width:0.5" />
<path d="M104.71,989.21L112.71,989.21" style="fill:none;stroke:#000000;stroke-width:0.5" />
<path d="M108.71,334.23L112.71,334.23" style="fill:none;stroke:#000000;stroke-width:0.5" />
<path d="M108.71,465.22L112.71,465.22" style="fill:none;stroke:#000000;stroke-width:0.5" />
<path d="M108.71,727.21L112.71,727.21" style="fill:none;stroke:#000000;stroke-width:0.5" />
<path d="M108.71,858.21L112.71,858.21" style="fill:none;stroke:#000000;stroke-width:0.5" />
<path d="M112.71,80.11L112.71,1024.6" style="fill:none;stroke:#000000;stroke-width:0.5" />
<path d="M125.46,80.11L125.46,1024.6" style="fill:none;stroke:#808080;stroke-width:0.25" />
<path d="M322.08,80.11L322.08,1024.6" style="fill:none;stroke:#808080;stroke-width:0.25" />
<path d="M518.69,80.11L518.69,1024.6" style="fill:none;stroke:#808080;stroke-width:0.25" />
<path d="M715.31,80.11L715.31,1024.6" style="fill:none;stroke:#808080;stroke-width:0.25" />
<path d="M911.92,80.11L911.92,1024.6" style="fill:none;stroke:#808080;stroke-width:0.25" />
<path d="M1108.5,80.11L1108.5,1024.6" style="fill:none;stroke:#808080;stroke-width:0.25" />
<path d="M1305.2,80.11L1305.2,1024.6" style="fill:none;stroke:#808080;stroke-width:0.25" />
<path d="M1501.8,80.11L1501.8,1024.6" style="fill:none;stroke:#808080;stroke-width:0.25" />
<path d="M1698.4,80.11L1698.4,1024.6" style="fill:none;stroke:#808080;stroke-width:0.25" />
<path d="M1895,80.11L1895,1024.6" style="fill:none;stroke:#808080;stroke-width:0.25" />
<path d="M125.46,203.23L1895,203.23" style="fill:none;stroke:#808080;stroke-width:0.25" />
<path d="M125.46,596.22L1895,596.22" style="fill:none;stroke:#808080;stroke-width:0.25" />
<path d="M125.46,989.21L1895,989.21" style="fill:none;stroke:#808080;stroke-width:0.25" />
<path d="M125.46,83.224L322.08,110.08L518.69,149.36L715.31,208.72L911.92,294.84L1108.5,370.39L1305.2,521.07L1501.8,653.97L1698.4,751.01L1895,938.05" style="fill:none;stroke:#FF0000;stroke-width:4" />
<path d="M130.46,83.224A5,5 0 1 1 120.46,83.224A5,5 0 1 1 130.46,83.224Z" style="fill:#FF0000" />
<path d="M327.08,110.08A5,5 0 1 1 317.08,110.08A5,5 0 1 1 327.08,110.08Z" style="fill:#FF0000" />
<path d="M523.69,149.36A5,5 0 1 1 513.69,149.36A5,5 0 1 1 523.69,149.36Z" style="fill:#FF0000" />
<path d="M720.31,208.72A5,5 0 1 1 710.31,208.72A5,5 0 1 1 720.31,208.72Z" style="fill:#FF0000" />
<path d="M916.92,294.84A5,5 0 1 1 906.92,294.84A5,5 0 1 1 916.92,294.84Z" style="fill:#FF0000" />
<path d="M1113.5,370.39A5,5 0 1 1 1103.5,370.39A5,5 0 1 1 1113.5,370.39Z" style="fill:#FF0000" />
<path d="M1310.2,521.07A5,5 0 1 1 1300.2,521.07A5,5 0 1 1 1310.2,521.07Z" style="fill:#FF0000" />
<path d="M1506.8,653.97A5,5 0 1 1 1496.8,653.97A5,5 0 1 1 1506.8,653.97Z" style="fill:#FF0000" />
<path d="M1703.4,751.01A5,5 0 1 1 1693.4,751.01A5,5 0 1 1 1703.4,751.01Z" style="fill:#FF0000" />
<path d="M1900,938.05A5,5 0 1 1 1890,938.05A5,5 0 1 1 1900,938.05Z" style="fill:#FF0000" />
<path d="M125.46,80.11L322.08,103.65L518.69,136.52L715.31,182.8L911.92,253.03L1108.5,319.82L1305.2,412.32L1501.8,515.17L1698.4,629.93L1895,766.56" style="fill:none;stroke:#0000FF;stroke-width:4" />
<path d="M130.46,80.11A5,5 0 1 1 120.46,80.11A5,5 0 1 1 130.46,80.11Z" style="fill:#0000FF" />
<path d="M327.08,103.65A5,5 0 1 1 317.08,103.65A5,5 0 1 1 327.08,103.65Z" style="fill:#0000FF" />
<path d="M523.69,136.52A5,5 0 1 1 513.69,136.52A5,5 0 1 1 523.69,136.52Z" style="fill:#0000FF" />
<path d="M720.31,182.8A5,5 0 1 1 710.31,182.8A5,5 0 1 1 720.31,182.8Z" style="fill:#0000FF" />
<path d="M916.92,253.03A5,5 0 1 1 906.92,253.03A5,5 0 1 1 916.92,253.03Z" style="fill:#0000FF" />
<path d="M1113.5,319.82A5,5 0 1 1 1103.5,319.82A5,5 0 1 1 1113.5,319.82Z" style="fill:#0000FF" />
<path d="M1310.2,412.32A5,5 0 1 1 1300.2,412.32A5,5 0 1 1 1310.2,412.32Z" style="fill:#0000FF" />
<path d="M1506.8,515.17A5,5 0 1 1 1496.8,515.17A5,5 0 1 1 1506.8,515.17Z" style="fill:#0000FF" />
<path d="M1703.4,629.93A5,5 0 1 1 1693.4,629.93A5,5 0 1 1 1703.4,629.93Z" style="fill:#0000FF" />
<path d="M1900,766.56A5,5 0 1 1 1890,766.56A5,5 0 1 1 1900,766.56Z" style="fill:#0000FF" />
<path d="M125.46,80.209L322.08,98.257L518.69,137.63L715.31,182.5L911.92,240.15L1108.5,338.55L1305.2,405.29L1501.8,505.43L1698.4,640.07L1895,789.43" style="fill:none;stroke:#00FF00;stroke-width:4" />
<path d="M130.46,80.209A5,5 0 1 1 120.46,80.209A5,5 0 1 1 130.46,80.209Z" style="fill:#00FF00" />
<path d="M327.08,98.257A5,5 0 1 1 317.08,98.257A5,5 0 1 1 327.08,98.257Z" style="fill:#00FF00" />
<path d="M523.69,137.63A5,5 0 1 1 513.69,137.63A5,5 0 1 1 523.69,137.63Z" style="fill:#00FF00" />
<path d="M720.31,182.5A5,5 0 1 1 710.31,182.5A5,5 0 1 1 720.31,182.5Z" style="fill:#00FF00" />
<path d="M916.92,240.15A5,5 0 1 1 906.92,240.15A5,5 0 1 1 916.92,240.15Z" style="fill:#00FF00" />
<path d="M1113.5,338.55A5,5 0 1 1 1103.5,338.55A5,5 0 1 1 1113.5,338.55Z" style="fill:#00FF00" />
<path d="M1310.2,405.29A5,5 0 1 1 1300.2,405.29A5,5 0 1 1 1310.2,405.29Z" style="fill:#00FF00" />
<path d="M1506.8,505.43A5,5 0 1 1 1496.8,505.43A5,5 0 1 1 1506.8,505.43Z" style="fill:#00FF00" />
<path d="M1703.4,640.07A5,5 0 1 1 1693.4,640.07A5,5 0 1 1 1703.4,640.07Z" style="fill:#00FF00" />
<path d="M1900,789.43A5,5 0 1 1 1890,789.43A5,5 0 1 1 1900,789.43Z" style="fill:#00FF00" />
<path d="M1900,126.03L1920,126.03" style="fill:none;stroke:#FF0000;stroke-width:4" />
<path d="M1915,126.03A5,5 0 1 1 1905,126.03A5,5 0 1 1 1915,126.03Z" style="fill:#FF0000" />
<text x="1823.3" y="-121.05" transform="scale(1, -1)"
	style="font-family:Liberation Serif;font-variant:normal;font-weight:normal;font-style:normal;font-size:24px">std::list</text>
<path d="M1900,105.66L1920,105.66" style="fill:none;stroke:#0000FF;stroke-width:4" />
<path d="M1915,105.66A5,5 0 1 1 1905,105.66A5,5 0 1 1 1915,105.66Z" style="fill:#0000FF" />
<text x="1795.4" y="-100.69" transform="scale(1, -1)"
	style="font-family:Liberation Serif;font-variant:normal;font-weight:normal;font-style:normal;font-size:24px">std::deque</text>
<path d="M1900,85.294L1920,85.294" style="fill:none;stroke:#00FF00;stroke-width:4" />
<path d="M1915,85.294A5,5 0 1 1 1905,85.294A5,5 0 1 1 1915,85.294Z" style="fill:#00FF00" />
<text x="1792.7" y="-80.319" transform="scale(1, -1)"
	style="font-family:Liberation Serif;font-variant:normal;font-weight:normal;font-style:normal;font-size:24px">std::vector</text>
</g>
</svg>
