<?xml version="1.0"?>
<!-- Generated by SVGo and Plotinum VG -->
<svg width="1920pt" height="1080pt" viewBox="0 0 1920 1080"
	xmlns="http://www.w3.org/2000/svg"
	xmlns:xlink="http://www.w3.org/1999/xlink">
<g transform="scale(1, -1) translate(0, -1080)">
<path d="M0,0L1920,0L1920,1080L0,1080Z" style="fill:#FFFFFF" />
<text x="628.86" y="-1040.9" transform="scale(1, -1)"
	style="font-family:Liberation Serif;font-variant:normal;font-weight:normal;font-style:normal;font-size:50px">random-sorted-insert - Log Scale</text>
<text x="887.77" y="-9.7559" transform="scale(1, -1)"
	style="font-family:Liberation Serif;font-variant:normal;font-weight:normal;font-style:normal;font-size:30px">Number of elements</text>
<text x="105.46" y="-39.727" transform="scale(1, -1)"
	style="font-family:Liberation Serif;font-variant:normal;font-weight:normal;font-style:normal;font-size:20px">1000</text>
<text x="302.08" y="-39.727" transform="scale(1, -1)"
	style="font-family:Liberation Serif;font-variant:normal;font-weight:normal;font-style:normal;font-size:20px">2000</text>
<text x="498.69" y="-39.727" transform="scale(1, -1)"
	style="font-family:Liberation Serif;font-variant:normal;font-weight:normal;font-style:normal;font-size:20px">3000</text>
<text x="695.31" y="-39.727" transform="scale(1, -1)"
	style="font-family:Liberation Serif;font-variant:normal;font-weight:normal;font-style:normal;font-size:20px">4000</text>
<text x="891.92" y="-39.727" transform="scale(1, -1)"
	style="font-family:Liberation Serif;font-variant:normal;font-weight:normal;font-style:normal;font-size:20px">5000</text>
<text x="1088.5" y="-39.727" transform="scale(1, -1)"
	style="font-family:Liberation Serif;font-variant:normal;font-weight:normal;font-style:normal;font-size:20px">6000</text>
<text x="1285.2" y="-39.727" transform="scale(1, -1)"
	style="font-family:Liberation Serif;font-variant:normal;font-weight:normal;font-style:normal;font-size:20px">7000</text>
<text x="1481.8" y="-39.727" transform="scale(1, -1)"
	style="font-family:Liberation Serif;font-variant:normal;font-weight:normal;font-style:normal;font-size:20px">8000</text>
<text x="1678.4" y="-39.727" transform="scale(1, -1)"
	style="font-family:Liberation Serif;font-variant:normal;font-weight:normal;font-style:normal;font-size:20px">9000</text>
<text x="1870" y="-39.727" transform="scale(1, -1)"
	style="font-family:Liberation Serif;font-variant:normal;font-weight:normal;font-style:normal;font-size:20px">10000</text>
<path d="M125.46,55.371L125.46,63.371" style="fill:none;stroke:#000000;stroke-width:0.5" />
<path d="M322.08,55.371L322.08,63.371" style="fill:none;stroke:#000000;stroke-width:0.5" />
<path d="M518.69,55.371L518.69,63.371" style="fill:none;stroke:#000000;stroke-width:0.5" />
<path d="M715.31,55.371L715.31,63.371" style="fill:none;stroke:#000000;stroke-width:0.5" />
<path d="M911.92,55.371L911.92,63.371" style="fill:none;stroke:#000000;stroke-width:0.5" />
<path d="M1108.5,55.371L1108.5,63.371" style="fill:none;stroke:#000000;stroke-width:0.5" />
<path d="M1305.2,55.371L1305.2,63.371" style="fill:none;stroke:#000000;stroke-width:0.5" />
<path d="M1501.8,55.371L1501.8,63.371" style="fill:none;stroke:#000000;stroke-width:0.5" />
<path d="M1698.4,55.371L1698.4,63.371" style="fill:none;stroke:#000000;stroke-width:0.5" />
<path d="M1895,55.371L1895,63.371" style="fill:none;stroke:#000000;stroke-width:0.5" />
<path d="M125.46,63.371L1895,63.371" style="fill:none;stroke:#000000;stroke-width:0.5" />
<g transform="rotate(90)">
<text x="484.05" y="23.467" transform="scale(1, -1)"
	style="font-family:Liberation Serif;font-variant:normal;font-weight:normal;font-style:normal;font-size:30px">log(μs + 1)</text>
</g>
<text x="39.712" y="-627.16" transform="scale(1, -1)"
	style="font-family:Liberation Serif;font-variant:normal;font-weight:normal;font-style:normal;font-size:20px">100000</text>
<text x="39.712" y="-899.18" transform="scale(1, -1)"
	style="font-family:Liberation Serif;font-variant:normal;font-weight:normal;font-style:normal;font-size:20px">400000</text>
<text x="39.712" y="-1009" transform="scale(1, -1)"
	style="font-family:Liberation Serif;font-variant:normal;font-weight:normal;font-style:normal;font-size:20px">700000</text>
<path d="M104.71,631.73L112.71,631.73" style="fill:none;stroke:#000000;stroke-width:0.5" />
<path d="M104.71,903.75L112.71,903.75" style="fill:none;stroke:#000000;stroke-width:0.5" />
<path d="M104.71,1013.6L112.71,1013.6" style="fill:none;stroke:#000000;stroke-width:0.5" />
<path d="M108.71,767.74L112.71,767.74" style="fill:none;stroke:#000000;stroke-width:0.5" />
<path d="M108.71,847.3L112.71,847.3" style="fill:none;stroke:#000000;stroke-width:0.5" />
<path d="M108.71,947.53L112.71,947.53" style="fill:none;stroke:#000000;stroke-width:0.5" />
<path d="M108.71,983.31L112.71,983.31" style="fill:none;stroke:#000000;stroke-width:0.5" />
<path d="M112.71,80.11L112.71,1021" style="fill:none;stroke:#000000;stroke-width:0.5" />
<path d="M125.46,80.11L125.46,1021" style="fill:none;stroke:#808080;stroke-width:0.25" />
<path d="M322.08,80.11L322.08,1021" style="fill:none;stroke:#808080;stroke-width:0.25" />
<path d="M518.69,80.11L518.69,1021" style="fill:none;stroke:#808080;stroke-width:0.25" />
<path d="M715.31,80.11L715.31,1021" style="fill:none;stroke:#808080;stroke-width:0.25" />
<path d="M911.92,80.11L911.92,1021" style="fill:none;stroke:#808080;stroke-width:0.25" />
<path d="M1108.5,80.11L1108.5,1021" style="fill:none;stroke:#808080;stroke-width:0.25" />
<path d="M1305.2,80.11L1305.2,1021" style="fill:none;stroke:#808080;stroke-width:0.25" />
<path d="M1501.8,80.11L1501.8,1021" style="fill:none;stroke:#808080;stroke-width:0.25" />
<path d="M1698.4,80.11L1698.4,1021" style="fill:none;stroke:#808080;stroke-width:0.25" />
<path d="M1895,80.11L1895,1021" style="fill:none;stroke:#808080;stroke-width:0.25" />
<path d="M125.46,631.73L1895,631.73" style="fill:none;stroke:#808080;stroke-width:0.25" />
<path d="M125.46,903.75L1895,903.75" style="fill:none;stroke:#808080;stroke-width:0.25" />
<path d="M125.46,1013.6L1895,1013.6" style="fill:none;stroke:#808080;stroke-width:0.25" />
<path d="M125.46,145.47L322.08,388.11L518.69,527.79L715.31,639.79L911.92,735.77L1108.5,793.11L1305.2,873.37L1501.8,924.26L1698.4,954.54L1895,1002.3" style="fill:none;stroke:#FF0000;stroke-width:4" />
<path d="M130.46,145.47A5,5 0 1 1 120.46,145.47A5,5 0 1 1 130.46,145.47Z" style="fill:#FF0000" />
<path d="M327.08,388.11A5,5 0 1 1 317.08,388.11A5,5 0 1 1 327.08,388.11Z" style="fill:#FF0000" />
<path d="M523.69,527.79A5,5 0 1 1 513.69,527.79A5,5 0 1 1 523.69,527.79Z" style="fill:#FF0000" />
<path d="M720.31,639.79A5,5 0 1 1 710.31,639.79A5,5 0 1 1 720.31,639.79Z" style="fill:#FF0000" />
<path d="M916.92,735.77A5,5 0 1 1 906.92,735.77A5,5 0 1 1 916.92,735.77Z" style="fill:#FF0000" />
<path d="M1113.5,793.11A5,5 0 1 1 1103.5,793.11A5,5 0 1 1 1113.5,793.11Z" style="fill:#FF0000" />
<path d="M1310.2,873.37A5,5 0 1 1 1300.2,873.37A5,5 0 1 1 1310.2,873.37Z" style="fill:#FF0000" />
<path d="M1506.8,924.26A5,5 0 1 1 1496.8,924.26A5,5 0 1 1 1506.8,924.26Z" style="fill:#FF0000" />
<path d="M1703.4,954.54A5,5 0 1 1 1693.4,954.54A5,5 0 1 1 1703.4,954.54Z" style="fill:#FF0000" />
<path d="M1900,1002.3A5,5 0 1 1 1890,1002.3A5,5 0 1 1 1900,1002.3Z" style="fill:#FF0000" />
<path d="M125.46,80.11L322.08,351.56L518.69,492.07L715.31,598.46L911.92,694.95L1108.5,756.64L1305.2,818.93L1501.8,870.77L1698.4,915.98L1895,958.98" style="fill:none;stroke:#0000FF;stroke-width:4" />
<path d="M130.46,80.11A5,5 0 1 1 120.46,80.11A5,5 0 1 1 130.46,80.11Z" style="fill:#0000FF" />
<path d="M327.08,351.56A5,5 0 1 1 317.08,351.56A5,5 0 1 1 327.08,351.56Z" style="fill:#0000FF" />
<path d="M523.69,492.07A5,5 0 1 1 513.69,492.07A5,5 0 1 1 523.69,492.07Z" style="fill:#0000FF" />
<path d="M720.31,598.46A5,5 0 1 1 710.31,598.46A5,5 0 1 1 720.31,598.46Z" style="fill:#0000FF" />
<path d="M916.92,694.95A5,5 0 1 1 906.92,694.95A5,5 0 1 1 916.92,694.95Z" style="fill:#0000FF" />
<path d="M1113.5,756.64A5,5 0 1 1 1103.5,756.64A5,5 0 1 1 1113.5,756.64Z" style="fill:#0000FF" />
<path d="M1310.2,818.93A5,5 0 1 1 1300.2,818.93A5,5 0 1 1 1310.2,818.93Z" style="fill:#0000FF" />
<path d="M1506.8,870.77A5,5 0 1 1 1496.8,870.77A5,5 0 1 1 1506.8,870.77Z" style="fill:#0000FF" />
<path d="M1703.4,915.98A5,5 0 1 1 1693.4,915.98A5,5 0 1 1 1703.4,915.98Z" style="fill:#0000FF" />
<path d="M1900,958.98A5,5 0 1 1 1890,958.98A5,5 0 1 1 1900,958.98Z" style="fill:#0000FF" />
<path d="M125.46,82.543L322.08,314.61L518.69,495.41L715.31,597.93L911.92,680.45L1108.5,770.95L1305.2,814.83L1501.8,866.42L1698.4,919.52L1895,965.34" style="fill:none;stroke:#00FF00;stroke-width:4" />
<path d="M130.46,82.543A5,5 0 1 1 120.46,82.543A5,5 0 1 1 130.46,82.543Z" style="fill:#00FF00" />
<path d="M327.08,314.61A5,5 0 1 1 317.08,314.61A5,5 0 1 1 327.08,314.61Z" style="fill:#00FF00" />
<path d="M523.69,495.41A5,5 0 1 1 513.69,495.41A5,5 0 1 1 523.69,495.41Z" style="fill:#00FF00" />
<path d="M720.31,597.93A5,5 0 1 1 710.31,597.93A5,5 0 1 1 720.31,597.93Z" style="fill:#00FF00" />
<path d="M916.92,680.45A5,5 0 1 1 906.92,680.45A5,5 0 1 1 916.92,680.45Z" style="fill:#00FF00" />
<path d="M1113.5,770.95A5,5 0 1 1 1103.5,770.95A5,5 0 1 1 1113.5,770.95Z" style="fill:#00FF00" />
<path d="M1310.2,814.83A5,5 0 1 1 1300.2,814.83A5,5 0 1 1 1310.2,814.83Z" style="fill:#00FF00" />
<path d="M1506.8,866.42A5,5 0 1 1 1496.8,866.42A5,5 0 1 1 1506.8,866.42Z" style="fill:#00FF00" />
<path d="M1703.4,919.52A5,5 0 1 1 1693.4,919.52A5,5 0 1 1 1703.4,919.52Z" style="fill:#00FF00" />
<path d="M1900,965.34A5,5 0 1 1 1890,965.34A5,5 0 1 1 1900,965.34Z" style="fill:#00FF00" />
<path d="M1900,126.03L1920,126.03" style="fill:none;stroke:#FF0000;stroke-width:4" />
<path d="M1915,126.03A5,5 0 1 1 1905,126.03A5,5 0 1 1 1915,126.03Z" style="fill:#FF0000" />
<text x="1823.3" y="-121.05" transform="scale(1, -1)"
	style="font-family:Liberation Serif;font-variant:normal;font-weight:normal;font-style:normal;font-size:24px">std::list</text>
<path d="M1900,105.66L1920,105.66" style="fill:none;stroke:#0000FF;stroke-width:4" />
<path d="M1915,105.66A5,5 0 1 1 1905,105.66A5,5 0 1 1 1915,105.66Z" style="fill:#0000FF" />
<text x="1795.4" y="-100.69" transform="scale(1, -1)"
	style="font-family:Liberation Serif;font-variant:normal;font-weight:normal;font-style:normal;font-size:24px">std::deque</text>
<path d="M1900,85.294L1920,85.294" style="fill:none;stroke:#00FF00;stroke-width:4" />
<path d="M1915,85.294A5,5 0 1 1 1905,85.294A5,5 0 1 1 1915,85.294Z" style="fill:#00FF00" />
<text x="1792.7" y="-80.319" transform="scale(1, -1)"
	style="font-family:Liberation Serif;font-variant:normal;font-weight:normal;font-style:normal;font-size:24px">std::vector</text>
</g>
</svg>
