<?xml version="1.0"?>
<!-- Generated by SVGo and Plotinum VG -->
<svg width="1920pt" height="1080pt" viewBox="0 0 1920 1080"
	xmlns="http://www.w3.org/2000/svg"
	xmlns:xlink="http://www.w3.org/1999/xlink">
<g transform="scale(1, -1) translate(0, -1080)">
<path d="M0,0L1920,0L1920,1080L0,1080Z" style="fill:#FFFFFF" />
<text x="628.86" y="-1040.9" transform="scale(1, -1)"
	style="font-family:Liberation Serif;font-variant:normal;font-weight:normal;font-style:normal;font-size:50px">random-sorted-insert - Log Scale</text>
<text x="880.35" y="-9.7559" transform="scale(1, -1)"
	style="font-family:Liberation Serif;font-variant:normal;font-weight:normal;font-style:normal;font-size:30px">Number of elements</text>
<text x="90.618" y="-39.727" transform="scale(1, -1)"
	style="font-family:Liberation Serif;font-variant:normal;font-weight:normal;font-style:normal;font-size:20px">10000</text>
<text x="287.77" y="-39.727" transform="scale(1, -1)"
	style="font-family:Liberation Serif;font-variant:normal;font-weight:normal;font-style:normal;font-size:20px">20000</text>
<text x="484.93" y="-39.727" transform="scale(1, -1)"
	style="font-family:Liberation Serif;font-variant:normal;font-weight:normal;font-style:normal;font-size:20px">30000</text>
<text x="682.08" y="-39.727" transform="scale(1, -1)"
	style="font-family:Liberation Serif;font-variant:normal;font-weight:normal;font-style:normal;font-size:20px">40000</text>
<text x="879.23" y="-39.727" transform="scale(1, -1)"
	style="font-family:Liberation Serif;font-variant:normal;font-weight:normal;font-style:normal;font-size:20px">50000</text>
<text x="1076.4" y="-39.727" transform="scale(1, -1)"
	style="font-family:Liberation Serif;font-variant:normal;font-weight:normal;font-style:normal;font-size:20px">60000</text>
<text x="1273.5" y="-39.727" transform="scale(1, -1)"
	style="font-family:Liberation Serif;font-variant:normal;font-weight:normal;font-style:normal;font-size:20px">70000</text>
<text x="1470.7" y="-39.727" transform="scale(1, -1)"
	style="font-family:Liberation Serif;font-variant:normal;font-weight:normal;font-style:normal;font-size:20px">80000</text>
<text x="1667.8" y="-39.727" transform="scale(1, -1)"
	style="font-family:Liberation Serif;font-variant:normal;font-weight:normal;font-style:normal;font-size:20px">90000</text>
<text x="1860" y="-39.727" transform="scale(1, -1)"
	style="font-family:Liberation Serif;font-variant:normal;font-weight:normal;font-style:normal;font-size:20px">100000</text>
<path d="M115.62,55.371L115.62,63.371" style="fill:none;stroke:#000000;stroke-width:0.5" />
<path d="M312.77,55.371L312.77,63.371" style="fill:none;stroke:#000000;stroke-width:0.5" />
<path d="M509.93,55.371L509.93,63.371" style="fill:none;stroke:#000000;stroke-width:0.5" />
<path d="M707.08,55.371L707.08,63.371" style="fill:none;stroke:#000000;stroke-width:0.5" />
<path d="M904.23,55.371L904.23,63.371" style="fill:none;stroke:#000000;stroke-width:0.5" />
<path d="M1101.4,55.371L1101.4,63.371" style="fill:none;stroke:#000000;stroke-width:0.5" />
<path d="M1298.5,55.371L1298.5,63.371" style="fill:none;stroke:#000000;stroke-width:0.5" />
<path d="M1495.7,55.371L1495.7,63.371" style="fill:none;stroke:#000000;stroke-width:0.5" />
<path d="M1692.8,55.371L1692.8,63.371" style="fill:none;stroke:#000000;stroke-width:0.5" />
<path d="M1890,55.371L1890,63.371" style="fill:none;stroke:#000000;stroke-width:0.5" />
<path d="M115.62,63.371L1890,63.371" style="fill:none;stroke:#000000;stroke-width:0.5" />
<g transform="rotate(90)">
<text x="485.87" y="23.467" transform="scale(1, -1)"
	style="font-family:Liberation Serif;font-variant:normal;font-weight:normal;font-style:normal;font-size:30px">log(μs + 1)</text>
</g>
<text x="39.712" y="-635.9" transform="scale(1, -1)"
	style="font-family:Liberation Serif;font-variant:normal;font-weight:normal;font-style:normal;font-size:20px">1e+07</text>
<text x="39.712" y="-887.01" transform="scale(1, -1)"
	style="font-family:Liberation Serif;font-variant:normal;font-weight:normal;font-style:normal;font-size:20px">4e+07</text>
<text x="39.712" y="-988.38" transform="scale(1, -1)"
	style="font-family:Liberation Serif;font-variant:normal;font-weight:normal;font-style:normal;font-size:20px">7e+07</text>
<path d="M94.868,640.47L102.87,640.47" style="fill:none;stroke:#000000;stroke-width:0.5" />
<path d="M94.868,891.58L102.87,891.58" style="fill:none;stroke:#000000;stroke-width:0.5" />
<path d="M94.868,992.95L102.87,992.95" style="fill:none;stroke:#000000;stroke-width:0.5" />
<path d="M98.868,766.02L102.87,766.02" style="fill:none;stroke:#000000;stroke-width:0.5" />
<path d="M98.868,839.47L102.87,839.47" style="fill:none;stroke:#000000;stroke-width:0.5" />
<path d="M98.868,932L102.87,932" style="fill:none;stroke:#000000;stroke-width:0.5" />
<path d="M98.868,965.02L102.87,965.02" style="fill:none;stroke:#000000;stroke-width:0.5" />
<path d="M98.868,1017.1L102.87,1017.1" style="fill:none;stroke:#000000;stroke-width:0.5" />
<path d="M102.87,80.11L102.87,1024.6" style="fill:none;stroke:#000000;stroke-width:0.5" />
<path d="M115.62,80.11L115.62,1024.6" style="fill:none;stroke:#808080;stroke-width:0.25" />
<path d="M312.77,80.11L312.77,1024.6" style="fill:none;stroke:#808080;stroke-width:0.25" />
<path d="M509.93,80.11L509.93,1024.6" style="fill:none;stroke:#808080;stroke-width:0.25" />
<path d="M707.08,80.11L707.08,1024.6" style="fill:none;stroke:#808080;stroke-width:0.25" />
<path d="M904.23,80.11L904.23,1024.6" style="fill:none;stroke:#808080;stroke-width:0.25" />
<path d="M1101.4,80.11L1101.4,1024.6" style="fill:none;stroke:#808080;stroke-width:0.25" />
<path d="M1298.5,80.11L1298.5,1024.6" style="fill:none;stroke:#808080;stroke-width:0.25" />
<path d="M1495.7,80.11L1495.7,1024.6" style="fill:none;stroke:#808080;stroke-width:0.25" />
<path d="M1692.8,80.11L1692.8,1024.6" style="fill:none;stroke:#808080;stroke-width:0.25" />
<path d="M1890,80.11L1890,1024.6" style="fill:none;stroke:#808080;stroke-width:0.25" />
<path d="M115.62,640.47L1890,640.47" style="fill:none;stroke:#808080;stroke-width:0.25" />
<path d="M115.62,891.58L1890,891.58" style="fill:none;stroke:#808080;stroke-width:0.25" />
<path d="M115.62,992.95L1890,992.95" style="fill:none;stroke:#808080;stroke-width:0.25" />
<path d="M115.62,80.11L312.77,341.14L509.93,486.62L707.08,592.1L904.23,673.76L1101.4,741.33L1298.5,798.28L1495.7,848.4L1692.8,904.12L1890,945.09" style="fill:none;stroke:#FF0000;stroke-width:4" />
<path d="M120.62,80.11A5,5 0 1 1 110.62,80.11A5,5 0 1 1 120.62,80.11Z" style="fill:#FF0000" />
<path d="M317.77,341.14A5,5 0 1 1 307.77,341.14A5,5 0 1 1 317.77,341.14Z" style="fill:#FF0000" />
<path d="M514.93,486.62A5,5 0 1 1 504.93,486.62A5,5 0 1 1 514.93,486.62Z" style="fill:#FF0000" />
<path d="M712.08,592.1A5,5 0 1 1 702.08,592.1A5,5 0 1 1 712.08,592.1Z" style="fill:#FF0000" />
<path d="M909.23,673.76A5,5 0 1 1 899.23,673.76A5,5 0 1 1 909.23,673.76Z" style="fill:#FF0000" />
<path d="M1106.4,741.33A5,5 0 1 1 1096.4,741.33A5,5 0 1 1 1106.4,741.33Z" style="fill:#FF0000" />
<path d="M1303.5,798.28A5,5 0 1 1 1293.5,798.28A5,5 0 1 1 1303.5,798.28Z" style="fill:#FF0000" />
<path d="M1500.7,848.4A5,5 0 1 1 1490.7,848.4A5,5 0 1 1 1500.7,848.4Z" style="fill:#FF0000" />
<path d="M1697.8,904.12A5,5 0 1 1 1687.8,904.12A5,5 0 1 1 1697.8,904.12Z" style="fill:#FF0000" />
<path d="M1895,945.09A5,5 0 1 1 1885,945.09A5,5 0 1 1 1895,945.09Z" style="fill:#FF0000" />
<path d="M115.62,110.78L312.77,361.86L509.93,513.76L707.08,621.74L904.23,705.19L1101.4,775.75L1298.5,837.38L1495.7,915.2L1692.8,962.53L1890,1007.4" style="fill:none;stroke:#0000FF;stroke-width:4" />
<path d="M120.62,110.78A5,5 0 1 1 110.62,110.78A5,5 0 1 1 120.62,110.78Z" style="fill:#0000FF" />
<path d="M317.77,361.86A5,5 0 1 1 307.77,361.86A5,5 0 1 1 317.77,361.86Z" style="fill:#0000FF" />
<path d="M514.93,513.76A5,5 0 1 1 504.93,513.76A5,5 0 1 1 514.93,513.76Z" style="fill:#0000FF" />
<path d="M712.08,621.74A5,5 0 1 1 702.08,621.74A5,5 0 1 1 712.08,621.74Z" style="fill:#0000FF" />
<path d="M909.23,705.19A5,5 0 1 1 899.23,705.19A5,5 0 1 1 909.23,705.19Z" style="fill:#0000FF" />
<path d="M1106.4,775.75A5,5 0 1 1 1096.4,775.75A5,5 0 1 1 1106.4,775.75Z" style="fill:#0000FF" />
<path d="M1303.5,837.38A5,5 0 1 1 1293.5,837.38A5,5 0 1 1 1303.5,837.38Z" style="fill:#0000FF" />
<path d="M1500.7,915.2A5,5 0 1 1 1490.7,915.2A5,5 0 1 1 1500.7,915.2Z" style="fill:#0000FF" />
<path d="M1697.8,962.53A5,5 0 1 1 1687.8,962.53A5,5 0 1 1 1697.8,962.53Z" style="fill:#0000FF" />
<path d="M1895,1007.4A5,5 0 1 1 1885,1007.4A5,5 0 1 1 1895,1007.4Z" style="fill:#0000FF" />
<path d="M115.62,140.74L312.77,393.36L509.93,541.6L707.08,647.04L904.23,729.9L1101.4,800.06L1298.5,859.97L1495.7,907.33L1692.8,945.47L1890,984.78" style="fill:none;stroke:#00FF00;stroke-width:4" />
<path d="M120.62,140.74A5,5 0 1 1 110.62,140.74A5,5 0 1 1 120.62,140.74Z" style="fill:#00FF00" />
<path d="M317.77,393.36A5,5 0 1 1 307.77,393.36A5,5 0 1 1 317.77,393.36Z" style="fill:#00FF00" />
<path d="M514.93,541.6A5,5 0 1 1 504.93,541.6A5,5 0 1 1 514.93,541.6Z" style="fill:#00FF00" />
<path d="M712.08,647.04A5,5 0 1 1 702.08,647.04A5,5 0 1 1 712.08,647.04Z" style="fill:#00FF00" />
<path d="M909.23,729.9A5,5 0 1 1 899.23,729.9A5,5 0 1 1 909.23,729.9Z" style="fill:#00FF00" />
<path d="M1106.4,800.06A5,5 0 1 1 1096.4,800.06A5,5 0 1 1 1106.4,800.06Z" style="fill:#00FF00" />
<path d="M1303.5,859.97A5,5 0 1 1 1293.5,859.97A5,5 0 1 1 1303.5,859.97Z" style="fill:#00FF00" />
<path d="M1500.7,907.33A5,5 0 1 1 1490.7,907.33A5,5 0 1 1 1500.7,907.33Z" style="fill:#00FF00" />
<path d="M1697.8,945.47A5,5 0 1 1 1687.8,945.47A5,5 0 1 1 1697.8,945.47Z" style="fill:#00FF00" />
<path d="M1895,984.78A5,5 0 1 1 1885,984.78A5,5 0 1 1 1895,984.78Z" style="fill:#00FF00" />
<path d="M1900,126.03L1920,126.03" style="fill:none;stroke:#FF0000;stroke-width:4" />
<path d="M1915,126.03A5,5 0 1 1 1905,126.03A5,5 0 1 1 1915,126.03Z" style="fill:#FF0000" />
<text x="1792.7" y="-121.05" transform="scale(1, -1)"
	style="font-family:Liberation Serif;font-variant:normal;font-weight:normal;font-style:normal;font-size:24px">std::vector</text>
<path d="M1900,105.66L1920,105.66" style="fill:none;stroke:#0000FF;stroke-width:4" />
<path d="M1915,105.66A5,5 0 1 1 1905,105.66A5,5 0 1 1 1915,105.66Z" style="fill:#0000FF" />
<text x="1823.3" y="-100.69" transform="scale(1, -1)"
	style="font-family:Liberation Serif;font-variant:normal;font-weight:normal;font-style:normal;font-size:24px">std::list</text>
<path d="M1900,85.294L1920,85.294" style="fill:none;stroke:#00FF00;stroke-width:4" />
<path d="M1915,85.294A5,5 0 1 1 1905,85.294A5,5 0 1 1 1915,85.294Z" style="fill:#00FF00" />
<text x="1795.4" y="-80.319" transform="scale(1, -1)"
	style="font-family:Liberation Serif;font-variant:normal;font-weight:normal;font-style:normal;font-size:24px">std::deque</text>
</g>
</svg>
