<?xml version="1.0"?>
<!-- Generated by SVGo and Plotinum VG -->
<svg width="1920pt" height="1080pt" viewBox="0 0 1920 1080"
	xmlns="http://www.w3.org/2000/svg"
	xmlns:xlink="http://www.w3.org/1999/xlink">
<g transform="scale(1, -1) translate(0, -1080)">
<path d="M0,0L1920,0L1920,1080L0,1080Z" style="fill:#FFFFFF" />
<text x="750.34" y="-1040.9" transform="scale(1, -1)"
	style="font-family:Liberation Serif;font-variant:normal;font-weight:normal;font-style:normal;font-size:50px">random-sorted-insert</text>
<text x="880.35" y="-9.7559" transform="scale(1, -1)"
	style="font-family:Liberation Serif;font-variant:normal;font-weight:normal;font-style:normal;font-size:30px">Number of elements</text>
<text x="90.618" y="-39.727" transform="scale(1, -1)"
	style="font-family:Liberation Serif;font-variant:normal;font-weight:normal;font-style:normal;font-size:20px">10000</text>
<text x="287.77" y="-39.727" transform="scale(1, -1)"
	style="font-family:Liberation Serif;font-variant:normal;font-weight:normal;font-style:normal;font-size:20px">20000</text>
<text x="484.93" y="-39.727" transform="scale(1, -1)"
	style="font-family:Liberation Serif;font-variant:normal;font-weight:normal;font-style:normal;font-size:20px">30000</text>
<text x="682.08" y="-39.727" transform="scale(1, -1)"
	style="font-family:Liberation Serif;font-variant:normal;font-weight:normal;font-style:normal;font-size:20px">40000</text>
<text x="879.23" y="-39.727" transform="scale(1, -1)"
	style="font-family:Liberation Serif;font-variant:normal;font-weight:normal;font-style:normal;font-size:20px">50000</text>
<text x="1076.4" y="-39.727" transform="scale(1, -1)"
	style="font-family:Liberation Serif;font-variant:normal;font-weight:normal;font-style:normal;font-size:20px">60000</text>
<text x="1273.5" y="-39.727" transform="scale(1, -1)"
	style="font-family:Liberation Serif;font-variant:normal;font-weight:normal;font-style:normal;font-size:20px">70000</text>
<text x="1470.7" y="-39.727" transform="scale(1, -1)"
	style="font-family:Liberation Serif;font-variant:normal;font-weight:normal;font-style:normal;font-size:20px">80000</text>
<text x="1667.8" y="-39.727" transform="scale(1, -1)"
	style="font-family:Liberation Serif;font-variant:normal;font-weight:normal;font-style:normal;font-size:20px">90000</text>
<text x="1860" y="-39.727" transform="scale(1, -1)"
	style="font-family:Liberation Serif;font-variant:normal;font-weight:normal;font-style:normal;font-size:20px">100000</text>
<path d="M115.62,55.371L115.62,63.371" style="fill:none;stroke:#000000;stroke-width:0.5" />
<path d="M312.77,55.371L312.77,63.371" style="fill:none;stroke:#000000;stroke-width:0.5" />
<path d="M509.93,55.371L509.93,63.371" style="fill:none;stroke:#000000;stroke-width:0.5" />
<path d="M707.08,55.371L707.08,63.371" style="fill:none;stroke:#000000;stroke-width:0.5" />
<path d="M904.23,55.371L904.23,63.371" style="fill:none;stroke:#000000;stroke-width:0.5" />
<path d="M1101.4,55.371L1101.4,63.371" style="fill:none;stroke:#000000;stroke-width:0.5" />
<path d="M1298.5,55.371L1298.5,63.371" style="fill:none;stroke:#000000;stroke-width:0.5" />
<path d="M1495.7,55.371L1495.7,63.371" style="fill:none;stroke:#000000;stroke-width:0.5" />
<path d="M1692.8,55.371L1692.8,63.371" style="fill:none;stroke:#000000;stroke-width:0.5" />
<path d="M1890,55.371L1890,63.371" style="fill:none;stroke:#000000;stroke-width:0.5" />
<path d="M115.62,63.371L1890,63.371" style="fill:none;stroke:#000000;stroke-width:0.5" />
<g transform="rotate(90)">
<text x="538.49" y="23.467" transform="scale(1, -1)"
	style="font-family:Liberation Serif;font-variant:normal;font-weight:normal;font-style:normal;font-size:30px">μs</text>
</g>
<text x="39.712" y="-201.96" transform="scale(1, -1)"
	style="font-family:Liberation Serif;font-variant:normal;font-weight:normal;font-style:normal;font-size:20px">1e+07</text>
<text x="39.712" y="-598.46" transform="scale(1, -1)"
	style="font-family:Liberation Serif;font-variant:normal;font-weight:normal;font-style:normal;font-size:20px">4e+07</text>
<text x="39.712" y="-994.96" transform="scale(1, -1)"
	style="font-family:Liberation Serif;font-variant:normal;font-weight:normal;font-style:normal;font-size:20px">7e+07</text>
<path d="M94.868,206.53L102.87,206.53" style="fill:none;stroke:#000000;stroke-width:0.5" />
<path d="M94.868,603.03L102.87,603.03" style="fill:none;stroke:#000000;stroke-width:0.5" />
<path d="M94.868,999.54L102.87,999.54" style="fill:none;stroke:#000000;stroke-width:0.5" />
<path d="M98.868,338.7L102.87,338.7" style="fill:none;stroke:#000000;stroke-width:0.5" />
<path d="M98.868,470.86L102.87,470.86" style="fill:none;stroke:#000000;stroke-width:0.5" />
<path d="M98.868,735.2L102.87,735.2" style="fill:none;stroke:#000000;stroke-width:0.5" />
<path d="M98.868,867.37L102.87,867.37" style="fill:none;stroke:#000000;stroke-width:0.5" />
<path d="M102.87,80.11L102.87,1024.6" style="fill:none;stroke:#000000;stroke-width:0.5" />
<path d="M115.62,80.11L115.62,1024.6" style="fill:none;stroke:#808080;stroke-width:0.25" />
<path d="M312.77,80.11L312.77,1024.6" style="fill:none;stroke:#808080;stroke-width:0.25" />
<path d="M509.93,80.11L509.93,1024.6" style="fill:none;stroke:#808080;stroke-width:0.25" />
<path d="M707.08,80.11L707.08,1024.6" style="fill:none;stroke:#808080;stroke-width:0.25" />
<path d="M904.23,80.11L904.23,1024.6" style="fill:none;stroke:#808080;stroke-width:0.25" />
<path d="M1101.4,80.11L1101.4,1024.6" style="fill:none;stroke:#808080;stroke-width:0.25" />
<path d="M1298.5,80.11L1298.5,1024.6" style="fill:none;stroke:#808080;stroke-width:0.25" />
<path d="M1495.7,80.11L1495.7,1024.6" style="fill:none;stroke:#808080;stroke-width:0.25" />
<path d="M1692.8,80.11L1692.8,1024.6" style="fill:none;stroke:#808080;stroke-width:0.25" />
<path d="M1890,80.11L1890,1024.6" style="fill:none;stroke:#808080;stroke-width:0.25" />
<path d="M115.62,206.53L1890,206.53" style="fill:none;stroke:#808080;stroke-width:0.25" />
<path d="M115.62,603.03L1890,603.03" style="fill:none;stroke:#808080;stroke-width:0.25" />
<path d="M115.62,999.54L1890,999.54" style="fill:none;stroke:#808080;stroke-width:0.25" />
<path d="M115.62,81.341L312.77,102.57L509.93,139.58L707.08,191.43L904.23,259.79L1101.4,344.16L1298.5,445.35L1495.7,569.26L1692.8,743.47L1890,938.24" style="fill:none;stroke:#FF0000;stroke-width:4" />
<path d="M120.62,81.341A5,5 0 1 1 110.62,81.341A5,5 0 1 1 120.62,81.341Z" style="fill:#FF0000" />
<path d="M317.77,102.57A5,5 0 1 1 307.77,102.57A5,5 0 1 1 317.77,102.57Z" style="fill:#FF0000" />
<path d="M514.93,139.58A5,5 0 1 1 504.93,139.58A5,5 0 1 1 514.93,139.58Z" style="fill:#FF0000" />
<path d="M712.08,191.43A5,5 0 1 1 702.08,191.43A5,5 0 1 1 712.08,191.43Z" style="fill:#FF0000" />
<path d="M909.23,259.79A5,5 0 1 1 899.23,259.79A5,5 0 1 1 909.23,259.79Z" style="fill:#FF0000" />
<path d="M1106.4,344.16A5,5 0 1 1 1096.4,344.16A5,5 0 1 1 1106.4,344.16Z" style="fill:#FF0000" />
<path d="M1303.5,445.35A5,5 0 1 1 1293.5,445.35A5,5 0 1 1 1303.5,445.35Z" style="fill:#FF0000" />
<path d="M1500.7,569.26A5,5 0 1 1 1490.7,569.26A5,5 0 1 1 1500.7,569.26Z" style="fill:#FF0000" />
<path d="M1697.8,743.47A5,5 0 1 1 1687.8,743.47A5,5 0 1 1 1697.8,743.47Z" style="fill:#FF0000" />
<path d="M1895,938.24A5,5 0 1 1 1885,938.24A5,5 0 1 1 1895,938.24Z" style="fill:#FF0000" />
<path d="M115.62,81.384L312.77,102.39L509.93,137.88L707.08,187.12L904.23,251.17L1101.4,331.49L1298.5,425.17L1495.7,534.41L1692.8,659.11L1890,801.06" style="fill:none;stroke:#0000FF;stroke-width:4" />
<path d="M120.62,81.384A5,5 0 1 1 110.62,81.384A5,5 0 1 1 120.62,81.384Z" style="fill:#0000FF" />
<path d="M317.77,102.39A5,5 0 1 1 307.77,102.39A5,5 0 1 1 317.77,102.39Z" style="fill:#0000FF" />
<path d="M514.93,137.88A5,5 0 1 1 504.93,137.88A5,5 0 1 1 514.93,137.88Z" style="fill:#0000FF" />
<path d="M712.08,187.12A5,5 0 1 1 702.08,187.12A5,5 0 1 1 712.08,187.12Z" style="fill:#0000FF" />
<path d="M909.23,251.17A5,5 0 1 1 899.23,251.17A5,5 0 1 1 909.23,251.17Z" style="fill:#0000FF" />
<path d="M1106.4,331.49A5,5 0 1 1 1096.4,331.49A5,5 0 1 1 1106.4,331.49Z" style="fill:#0000FF" />
<path d="M1303.5,425.17A5,5 0 1 1 1293.5,425.17A5,5 0 1 1 1303.5,425.17Z" style="fill:#0000FF" />
<path d="M1500.7,534.41A5,5 0 1 1 1490.7,534.41A5,5 0 1 1 1500.7,534.41Z" style="fill:#0000FF" />
<path d="M1697.8,659.11A5,5 0 1 1 1687.8,659.11A5,5 0 1 1 1697.8,659.11Z" style="fill:#0000FF" />
<path d="M1895,801.06A5,5 0 1 1 1885,801.06A5,5 0 1 1 1895,801.06Z" style="fill:#0000FF" />
<path d="M115.62,80.11L312.77,97.397L509.93,126.65L707.08,168.47L904.23,222.92L1101.4,288.79L1298.5,367.43L1495.7,464.02L1692.8,565.17L1890,681.5" style="fill:none;stroke:#00FF00;stroke-width:4" />
<path d="M120.62,80.11A5,5 0 1 1 110.62,80.11A5,5 0 1 1 120.62,80.11Z" style="fill:#00FF00" />
<path d="M317.77,97.397A5,5 0 1 1 307.77,97.397A5,5 0 1 1 317.77,97.397Z" style="fill:#00FF00" />
<path d="M514.93,126.65A5,5 0 1 1 504.93,126.65A5,5 0 1 1 514.93,126.65Z" style="fill:#00FF00" />
<path d="M712.08,168.47A5,5 0 1 1 702.08,168.47A5,5 0 1 1 712.08,168.47Z" style="fill:#00FF00" />
<path d="M909.23,222.92A5,5 0 1 1 899.23,222.92A5,5 0 1 1 909.23,222.92Z" style="fill:#00FF00" />
<path d="M1106.4,288.79A5,5 0 1 1 1096.4,288.79A5,5 0 1 1 1106.4,288.79Z" style="fill:#00FF00" />
<path d="M1303.5,367.43A5,5 0 1 1 1293.5,367.43A5,5 0 1 1 1303.5,367.43Z" style="fill:#00FF00" />
<path d="M1500.7,464.02A5,5 0 1 1 1490.7,464.02A5,5 0 1 1 1500.7,464.02Z" style="fill:#00FF00" />
<path d="M1697.8,565.17A5,5 0 1 1 1687.8,565.17A5,5 0 1 1 1697.8,565.17Z" style="fill:#00FF00" />
<path d="M1895,681.5A5,5 0 1 1 1885,681.5A5,5 0 1 1 1895,681.5Z" style="fill:#00FF00" />
<path d="M1900,126.03L1920,126.03" style="fill:none;stroke:#FF0000;stroke-width:4" />
<path d="M1915,126.03A5,5 0 1 1 1905,126.03A5,5 0 1 1 1915,126.03Z" style="fill:#FF0000" />
<text x="1823.3" y="-121.05" transform="scale(1, -1)"
	style="font-family:Liberation Serif;font-variant:normal;font-weight:normal;font-style:normal;font-size:24px">std::list</text>
<path d="M1900,105.66L1920,105.66" style="fill:none;stroke:#0000FF;stroke-width:4" />
<path d="M1915,105.66A5,5 0 1 1 1905,105.66A5,5 0 1 1 1915,105.66Z" style="fill:#0000FF" />
<text x="1795.4" y="-100.69" transform="scale(1, -1)"
	style="font-family:Liberation Serif;font-variant:normal;font-weight:normal;font-style:normal;font-size:24px">std::deque</text>
<path d="M1900,85.294L1920,85.294" style="fill:none;stroke:#00FF00;stroke-width:4" />
<path d="M1915,85.294A5,5 0 1 1 1905,85.294A5,5 0 1 1 1915,85.294Z" style="fill:#00FF00" />
<text x="1792.7" y="-80.319" transform="scale(1, -1)"
	style="font-family:Liberation Serif;font-variant:normal;font-weight:normal;font-style:normal;font-size:24px">std::vector</text>
</g>
</svg>
