<?xml version="1.0"?>
<!-- Generated by SVGo and Plotinum VG -->
<svg width="1920pt" height="1080pt" viewBox="0 0 1920 1080"
	xmlns="http://www.w3.org/2000/svg"
	xmlns:xlink="http://www.w3.org/1999/xlink">
<g transform="scale(1, -1) translate(0, -1080)">
<path d="M0,0L1920,0L1920,1080L0,1080Z" style="fill:#FFFFFF" />
<text x="628.86" y="-1040.9" transform="scale(1, -1)"
	style="font-family:Liberation Serif;font-variant:normal;font-weight:normal;font-style:normal;font-size:50px">random-sorted-insert - Log Scale</text>
<text x="880.35" y="-9.7559" transform="scale(1, -1)"
	style="font-family:Liberation Serif;font-variant:normal;font-weight:normal;font-style:normal;font-size:30px">Number of elements</text>
<text x="90.618" y="-39.727" transform="scale(1, -1)"
	style="font-family:Liberation Serif;font-variant:normal;font-weight:normal;font-style:normal;font-size:20px">10000</text>
<text x="287.77" y="-39.727" transform="scale(1, -1)"
	style="font-family:Liberation Serif;font-variant:normal;font-weight:normal;font-style:normal;font-size:20px">20000</text>
<text x="484.93" y="-39.727" transform="scale(1, -1)"
	style="font-family:Liberation Serif;font-variant:normal;font-weight:normal;font-style:normal;font-size:20px">30000</text>
<text x="682.08" y="-39.727" transform="scale(1, -1)"
	style="font-family:Liberation Serif;font-variant:normal;font-weight:normal;font-style:normal;font-size:20px">40000</text>
<text x="879.23" y="-39.727" transform="scale(1, -1)"
	style="font-family:Liberation Serif;font-variant:normal;font-weight:normal;font-style:normal;font-size:20px">50000</text>
<text x="1076.4" y="-39.727" transform="scale(1, -1)"
	style="font-family:Liberation Serif;font-variant:normal;font-weight:normal;font-style:normal;font-size:20px">60000</text>
<text x="1273.5" y="-39.727" transform="scale(1, -1)"
	style="font-family:Liberation Serif;font-variant:normal;font-weight:normal;font-style:normal;font-size:20px">70000</text>
<text x="1470.7" y="-39.727" transform="scale(1, -1)"
	style="font-family:Liberation Serif;font-variant:normal;font-weight:normal;font-style:normal;font-size:20px">80000</text>
<text x="1667.8" y="-39.727" transform="scale(1, -1)"
	style="font-family:Liberation Serif;font-variant:normal;font-weight:normal;font-style:normal;font-size:20px">90000</text>
<text x="1860" y="-39.727" transform="scale(1, -1)"
	style="font-family:Liberation Serif;font-variant:normal;font-weight:normal;font-style:normal;font-size:20px">100000</text>
<path d="M115.62,55.371L115.62,63.371" style="fill:none;stroke:#000000;stroke-width:0.5" />
<path d="M312.77,55.371L312.77,63.371" style="fill:none;stroke:#000000;stroke-width:0.5" />
<path d="M509.93,55.371L509.93,63.371" style="fill:none;stroke:#000000;stroke-width:0.5" />
<path d="M707.08,55.371L707.08,63.371" style="fill:none;stroke:#000000;stroke-width:0.5" />
<path d="M904.23,55.371L904.23,63.371" style="fill:none;stroke:#000000;stroke-width:0.5" />
<path d="M1101.4,55.371L1101.4,63.371" style="fill:none;stroke:#000000;stroke-width:0.5" />
<path d="M1298.5,55.371L1298.5,63.371" style="fill:none;stroke:#000000;stroke-width:0.5" />
<path d="M1495.7,55.371L1495.7,63.371" style="fill:none;stroke:#000000;stroke-width:0.5" />
<path d="M1692.8,55.371L1692.8,63.371" style="fill:none;stroke:#000000;stroke-width:0.5" />
<path d="M1890,55.371L1890,63.371" style="fill:none;stroke:#000000;stroke-width:0.5" />
<path d="M115.62,63.371L1890,63.371" style="fill:none;stroke:#000000;stroke-width:0.5" />
<g transform="rotate(90)">
<text x="485.87" y="23.467" transform="scale(1, -1)"
	style="font-family:Liberation Serif;font-variant:normal;font-weight:normal;font-style:normal;font-size:30px">log(μs + 1)</text>
</g>
<text x="39.712" y="-803.28" transform="scale(1, -1)"
	style="font-family:Liberation Serif;font-variant:normal;font-weight:normal;font-style:normal;font-size:20px">2e+08</text>
<text x="39.712" y="-941.3" transform="scale(1, -1)"
	style="font-family:Liberation Serif;font-variant:normal;font-weight:normal;font-style:normal;font-size:20px">6e+08</text>
<text x="39.712" y="-1005.5" transform="scale(1, -1)"
	style="font-family:Liberation Serif;font-variant:normal;font-weight:normal;font-style:normal;font-size:20px">1e+09</text>
<path d="M94.868,807.85L102.87,807.85" style="fill:none;stroke:#000000;stroke-width:0.5" />
<path d="M94.868,945.87L102.87,945.87" style="fill:none;stroke:#000000;stroke-width:0.5" />
<path d="M94.868,1010L102.87,1010" style="fill:none;stroke:#000000;stroke-width:0.5" />
<path d="M98.868,720.77L102.87,720.77" style="fill:none;stroke:#000000;stroke-width:0.5" />
<path d="M98.868,858.79L102.87,858.79" style="fill:none;stroke:#000000;stroke-width:0.5" />
<path d="M98.868,894.93L102.87,894.93" style="fill:none;stroke:#000000;stroke-width:0.5" />
<path d="M98.868,922.96L102.87,922.96" style="fill:none;stroke:#000000;stroke-width:0.5" />
<path d="M98.868,965.23L102.87,965.23" style="fill:none;stroke:#000000;stroke-width:0.5" />
<path d="M98.868,982.01L102.87,982.01" style="fill:none;stroke:#000000;stroke-width:0.5" />
<path d="M98.868,996.81L102.87,996.81" style="fill:none;stroke:#000000;stroke-width:0.5" />
<path d="M98.868,1022L102.87,1022" style="fill:none;stroke:#000000;stroke-width:0.5" />
<path d="M102.87,80.11L102.87,1024.6" style="fill:none;stroke:#000000;stroke-width:0.5" />
<path d="M115.62,80.11L115.62,1024.6" style="fill:none;stroke:#808080;stroke-width:0.25" />
<path d="M312.77,80.11L312.77,1024.6" style="fill:none;stroke:#808080;stroke-width:0.25" />
<path d="M509.93,80.11L509.93,1024.6" style="fill:none;stroke:#808080;stroke-width:0.25" />
<path d="M707.08,80.11L707.08,1024.6" style="fill:none;stroke:#808080;stroke-width:0.25" />
<path d="M904.23,80.11L904.23,1024.6" style="fill:none;stroke:#808080;stroke-width:0.25" />
<path d="M1101.4,80.11L1101.4,1024.6" style="fill:none;stroke:#808080;stroke-width:0.25" />
<path d="M1298.5,80.11L1298.5,1024.6" style="fill:none;stroke:#808080;stroke-width:0.25" />
<path d="M1495.7,80.11L1495.7,1024.6" style="fill:none;stroke:#808080;stroke-width:0.25" />
<path d="M1692.8,80.11L1692.8,1024.6" style="fill:none;stroke:#808080;stroke-width:0.25" />
<path d="M1890,80.11L1890,1024.6" style="fill:none;stroke:#808080;stroke-width:0.25" />
<path d="M115.62,807.85L1890,807.85" style="fill:none;stroke:#808080;stroke-width:0.25" />
<path d="M115.62,945.87L1890,945.87" style="fill:none;stroke:#808080;stroke-width:0.25" />
<path d="M115.62,1010L1890,1010" style="fill:none;stroke:#808080;stroke-width:0.25" />
<path d="M115.62,80.11L312.77,260.63L509.93,379.4L707.08,465.74L904.23,540.06L1101.4,605.43L1298.5,659.05L1495.7,708.52L1692.8,753.39L1890,773.18" style="fill:none;stroke:#FF0000;stroke-width:4" />
<path d="M120.62,80.11A5,5 0 1 1 110.62,80.11A5,5 0 1 1 120.62,80.11Z" style="fill:#FF0000" />
<path d="M317.77,260.63A5,5 0 1 1 307.77,260.63A5,5 0 1 1 317.77,260.63Z" style="fill:#FF0000" />
<path d="M514.93,379.4A5,5 0 1 1 504.93,379.4A5,5 0 1 1 514.93,379.4Z" style="fill:#FF0000" />
<path d="M712.08,465.74A5,5 0 1 1 702.08,465.74A5,5 0 1 1 712.08,465.74Z" style="fill:#FF0000" />
<path d="M909.23,540.06A5,5 0 1 1 899.23,540.06A5,5 0 1 1 909.23,540.06Z" style="fill:#FF0000" />
<path d="M1106.4,605.43A5,5 0 1 1 1096.4,605.43A5,5 0 1 1 1106.4,605.43Z" style="fill:#FF0000" />
<path d="M1303.5,659.05A5,5 0 1 1 1293.5,659.05A5,5 0 1 1 1303.5,659.05Z" style="fill:#FF0000" />
<path d="M1500.7,708.52A5,5 0 1 1 1490.7,708.52A5,5 0 1 1 1500.7,708.52Z" style="fill:#FF0000" />
<path d="M1697.8,753.39A5,5 0 1 1 1687.8,753.39A5,5 0 1 1 1697.8,753.39Z" style="fill:#FF0000" />
<path d="M1895,773.18A5,5 0 1 1 1885,773.18A5,5 0 1 1 1895,773.18Z" style="fill:#FF0000" />
<path d="M115.62,296.29L312.77,511.3L509.93,632.38L707.08,716.3L904.23,780.35L1101.4,831.02L1298.5,874.74L1495.7,910.9L1692.8,943.51L1890,972.16" style="fill:none;stroke:#0000FF;stroke-width:4" />
<path d="M120.62,296.29A5,5 0 1 1 110.62,296.29A5,5 0 1 1 120.62,296.29Z" style="fill:#0000FF" />
<path d="M317.77,511.3A5,5 0 1 1 307.77,511.3A5,5 0 1 1 317.77,511.3Z" style="fill:#0000FF" />
<path d="M514.93,632.38A5,5 0 1 1 504.93,632.38A5,5 0 1 1 514.93,632.38Z" style="fill:#0000FF" />
<path d="M712.08,716.3A5,5 0 1 1 702.08,716.3A5,5 0 1 1 712.08,716.3Z" style="fill:#0000FF" />
<path d="M909.23,780.35A5,5 0 1 1 899.23,780.35A5,5 0 1 1 909.23,780.35Z" style="fill:#0000FF" />
<path d="M1106.4,831.02A5,5 0 1 1 1096.4,831.02A5,5 0 1 1 1106.4,831.02Z" style="fill:#0000FF" />
<path d="M1303.5,874.74A5,5 0 1 1 1293.5,874.74A5,5 0 1 1 1303.5,874.74Z" style="fill:#0000FF" />
<path d="M1500.7,910.9A5,5 0 1 1 1490.7,910.9A5,5 0 1 1 1500.7,910.9Z" style="fill:#0000FF" />
<path d="M1697.8,943.51A5,5 0 1 1 1687.8,943.51A5,5 0 1 1 1697.8,943.51Z" style="fill:#0000FF" />
<path d="M1895,972.16A5,5 0 1 1 1885,972.16A5,5 0 1 1 1895,972.16Z" style="fill:#0000FF" />
<path d="M115.62,346.06L312.77,569.81L509.93,684.97L707.08,763.31L904.23,822.78L1101.4,871.3L1298.5,910.78L1495.7,946.04L1692.8,978.96L1890,1012.7" style="fill:none;stroke:#00FF00;stroke-width:4" />
<path d="M120.62,346.06A5,5 0 1 1 110.62,346.06A5,5 0 1 1 120.62,346.06Z" style="fill:#00FF00" />
<path d="M317.77,569.81A5,5 0 1 1 307.77,569.81A5,5 0 1 1 317.77,569.81Z" style="fill:#00FF00" />
<path d="M514.93,684.97A5,5 0 1 1 504.93,684.97A5,5 0 1 1 514.93,684.97Z" style="fill:#00FF00" />
<path d="M712.08,763.31A5,5 0 1 1 702.08,763.31A5,5 0 1 1 712.08,763.31Z" style="fill:#00FF00" />
<path d="M909.23,822.78A5,5 0 1 1 899.23,822.78A5,5 0 1 1 909.23,822.78Z" style="fill:#00FF00" />
<path d="M1106.4,871.3A5,5 0 1 1 1096.4,871.3A5,5 0 1 1 1106.4,871.3Z" style="fill:#00FF00" />
<path d="M1303.5,910.78A5,5 0 1 1 1293.5,910.78A5,5 0 1 1 1303.5,910.78Z" style="fill:#00FF00" />
<path d="M1500.7,946.04A5,5 0 1 1 1490.7,946.04A5,5 0 1 1 1500.7,946.04Z" style="fill:#00FF00" />
<path d="M1697.8,978.96A5,5 0 1 1 1687.8,978.96A5,5 0 1 1 1697.8,978.96Z" style="fill:#00FF00" />
<path d="M1895,1012.7A5,5 0 1 1 1885,1012.7A5,5 0 1 1 1895,1012.7Z" style="fill:#00FF00" />
<path d="M1900,126.03L1920,126.03" style="fill:none;stroke:#FF0000;stroke-width:4" />
<path d="M1915,126.03A5,5 0 1 1 1905,126.03A5,5 0 1 1 1915,126.03Z" style="fill:#FF0000" />
<text x="1823.3" y="-121.05" transform="scale(1, -1)"
	style="font-family:Liberation Serif;font-variant:normal;font-weight:normal;font-style:normal;font-size:24px">std::list</text>
<path d="M1900,105.66L1920,105.66" style="fill:none;stroke:#0000FF;stroke-width:4" />
<path d="M1915,105.66A5,5 0 1 1 1905,105.66A5,5 0 1 1 1915,105.66Z" style="fill:#0000FF" />
<text x="1795.4" y="-100.69" transform="scale(1, -1)"
	style="font-family:Liberation Serif;font-variant:normal;font-weight:normal;font-style:normal;font-size:24px">std::deque</text>
<path d="M1900,85.294L1920,85.294" style="fill:none;stroke:#00FF00;stroke-width:4" />
<path d="M1915,85.294A5,5 0 1 1 1905,85.294A5,5 0 1 1 1915,85.294Z" style="fill:#00FF00" />
<text x="1792.7" y="-80.319" transform="scale(1, -1)"
	style="font-family:Liberation Serif;font-variant:normal;font-weight:normal;font-style:normal;font-size:24px">std::vector</text>
</g>
</svg>
