<?xml version="1.0"?>
<!-- Generated by SVGo and Plotinum VG -->
<svg width="1920pt" height="1080pt" viewBox="0 0 1920 1080"
	xmlns="http://www.w3.org/2000/svg"
	xmlns:xlink="http://www.w3.org/1999/xlink">
<g transform="scale(1, -1) translate(0, -1080)">
<path d="M0,0L1920,0L1920,1080L0,1080Z" style="fill:#FFFFFF" />
<text x="750.34" y="-1040.9" transform="scale(1, -1)"
	style="font-family:Liberation Serif;font-variant:normal;font-weight:normal;font-style:normal;font-size:50px">random-sorted-insert</text>
<text x="880.35" y="-9.7559" transform="scale(1, -1)"
	style="font-family:Liberation Serif;font-variant:normal;font-weight:normal;font-style:normal;font-size:30px">Number of elements</text>
<text x="90.618" y="-39.727" transform="scale(1, -1)"
	style="font-family:Liberation Serif;font-variant:normal;font-weight:normal;font-style:normal;font-size:20px">10000</text>
<text x="287.77" y="-39.727" transform="scale(1, -1)"
	style="font-family:Liberation Serif;font-variant:normal;font-weight:normal;font-style:normal;font-size:20px">20000</text>
<text x="484.93" y="-39.727" transform="scale(1, -1)"
	style="font-family:Liberation Serif;font-variant:normal;font-weight:normal;font-style:normal;font-size:20px">30000</text>
<text x="682.08" y="-39.727" transform="scale(1, -1)"
	style="font-family:Liberation Serif;font-variant:normal;font-weight:normal;font-style:normal;font-size:20px">40000</text>
<text x="879.23" y="-39.727" transform="scale(1, -1)"
	style="font-family:Liberation Serif;font-variant:normal;font-weight:normal;font-style:normal;font-size:20px">50000</text>
<text x="1076.4" y="-39.727" transform="scale(1, -1)"
	style="font-family:Liberation Serif;font-variant:normal;font-weight:normal;font-style:normal;font-size:20px">60000</text>
<text x="1273.5" y="-39.727" transform="scale(1, -1)"
	style="font-family:Liberation Serif;font-variant:normal;font-weight:normal;font-style:normal;font-size:20px">70000</text>
<text x="1470.7" y="-39.727" transform="scale(1, -1)"
	style="font-family:Liberation Serif;font-variant:normal;font-weight:normal;font-style:normal;font-size:20px">80000</text>
<text x="1667.8" y="-39.727" transform="scale(1, -1)"
	style="font-family:Liberation Serif;font-variant:normal;font-weight:normal;font-style:normal;font-size:20px">90000</text>
<text x="1860" y="-39.727" transform="scale(1, -1)"
	style="font-family:Liberation Serif;font-variant:normal;font-weight:normal;font-style:normal;font-size:20px">100000</text>
<path d="M115.62,55.371L115.62,63.371" style="fill:none;stroke:#000000;stroke-width:0.5" />
<path d="M312.77,55.371L312.77,63.371" style="fill:none;stroke:#000000;stroke-width:0.5" />
<path d="M509.93,55.371L509.93,63.371" style="fill:none;stroke:#000000;stroke-width:0.5" />
<path d="M707.08,55.371L707.08,63.371" style="fill:none;stroke:#000000;stroke-width:0.5" />
<path d="M904.23,55.371L904.23,63.371" style="fill:none;stroke:#000000;stroke-width:0.5" />
<path d="M1101.4,55.371L1101.4,63.371" style="fill:none;stroke:#000000;stroke-width:0.5" />
<path d="M1298.5,55.371L1298.5,63.371" style="fill:none;stroke:#000000;stroke-width:0.5" />
<path d="M1495.7,55.371L1495.7,63.371" style="fill:none;stroke:#000000;stroke-width:0.5" />
<path d="M1692.8,55.371L1692.8,63.371" style="fill:none;stroke:#000000;stroke-width:0.5" />
<path d="M1890,55.371L1890,63.371" style="fill:none;stroke:#000000;stroke-width:0.5" />
<path d="M115.62,63.371L1890,63.371" style="fill:none;stroke:#000000;stroke-width:0.5" />
<g transform="rotate(90)">
<text x="538.49" y="23.467" transform="scale(1, -1)"
	style="font-family:Liberation Serif;font-variant:normal;font-weight:normal;font-style:normal;font-size:30px">μs</text>
</g>
<text x="39.712" y="-191.36" transform="scale(1, -1)"
	style="font-family:Liberation Serif;font-variant:normal;font-weight:normal;font-style:normal;font-size:20px">5e+07</text>
<text x="39.712" y="-556.43" transform="scale(1, -1)"
	style="font-family:Liberation Serif;font-variant:normal;font-weight:normal;font-style:normal;font-size:20px">2e+08</text>
<text x="39.712" y="-921.49" transform="scale(1, -1)"
	style="font-family:Liberation Serif;font-variant:normal;font-weight:normal;font-style:normal;font-size:20px">4e+08</text>
<path d="M94.868,195.93L102.87,195.93" style="fill:none;stroke:#000000;stroke-width:0.5" />
<path d="M94.868,561L102.87,561" style="fill:none;stroke:#000000;stroke-width:0.5" />
<path d="M94.868,926.06L102.87,926.06" style="fill:none;stroke:#000000;stroke-width:0.5" />
<path d="M98.868,378.46L102.87,378.46" style="fill:none;stroke:#000000;stroke-width:0.5" />
<path d="M98.868,743.53L102.87,743.53" style="fill:none;stroke:#000000;stroke-width:0.5" />
<path d="M102.87,80.11L102.87,1024.6" style="fill:none;stroke:#000000;stroke-width:0.5" />
<path d="M115.62,80.11L115.62,1024.6" style="fill:none;stroke:#808080;stroke-width:0.25" />
<path d="M312.77,80.11L312.77,1024.6" style="fill:none;stroke:#808080;stroke-width:0.25" />
<path d="M509.93,80.11L509.93,1024.6" style="fill:none;stroke:#808080;stroke-width:0.25" />
<path d="M707.08,80.11L707.08,1024.6" style="fill:none;stroke:#808080;stroke-width:0.25" />
<path d="M904.23,80.11L904.23,1024.6" style="fill:none;stroke:#808080;stroke-width:0.25" />
<path d="M1101.4,80.11L1101.4,1024.6" style="fill:none;stroke:#808080;stroke-width:0.25" />
<path d="M1298.5,80.11L1298.5,1024.6" style="fill:none;stroke:#808080;stroke-width:0.25" />
<path d="M1495.7,80.11L1495.7,1024.6" style="fill:none;stroke:#808080;stroke-width:0.25" />
<path d="M1692.8,80.11L1692.8,1024.6" style="fill:none;stroke:#808080;stroke-width:0.25" />
<path d="M1890,80.11L1890,1024.6" style="fill:none;stroke:#808080;stroke-width:0.25" />
<path d="M115.62,195.93L1890,195.93" style="fill:none;stroke:#808080;stroke-width:0.25" />
<path d="M115.62,561L1890,561" style="fill:none;stroke:#808080;stroke-width:0.25" />
<path d="M115.62,926.06L1890,926.06" style="fill:none;stroke:#808080;stroke-width:0.25" />
<path d="M115.62,81.884L312.77,104.71L509.93,144.57L707.08,201.41L904.23,275.85L1101.4,370.08L1298.5,485.32L1495.7,612.33L1692.8,815.46L1890,938.23" style="fill:none;stroke:#FF0000;stroke-width:4" />
<path d="M120.62,81.884A5,5 0 1 1 110.62,81.884A5,5 0 1 1 120.62,81.884Z" style="fill:#FF0000" />
<path d="M317.77,104.71A5,5 0 1 1 307.77,104.71A5,5 0 1 1 317.77,104.71Z" style="fill:#FF0000" />
<path d="M514.93,144.57A5,5 0 1 1 504.93,144.57A5,5 0 1 1 514.93,144.57Z" style="fill:#FF0000" />
<path d="M712.08,201.41A5,5 0 1 1 702.08,201.41A5,5 0 1 1 712.08,201.41Z" style="fill:#FF0000" />
<path d="M909.23,275.85A5,5 0 1 1 899.23,275.85A5,5 0 1 1 909.23,275.85Z" style="fill:#FF0000" />
<path d="M1106.4,370.08A5,5 0 1 1 1096.4,370.08A5,5 0 1 1 1106.4,370.08Z" style="fill:#FF0000" />
<path d="M1303.5,485.32A5,5 0 1 1 1293.5,485.32A5,5 0 1 1 1303.5,485.32Z" style="fill:#FF0000" />
<path d="M1500.7,612.33A5,5 0 1 1 1490.7,612.33A5,5 0 1 1 1500.7,612.33Z" style="fill:#FF0000" />
<path d="M1697.8,815.46A5,5 0 1 1 1687.8,815.46A5,5 0 1 1 1697.8,815.46Z" style="fill:#FF0000" />
<path d="M1895,938.23A5,5 0 1 1 1885,938.23A5,5 0 1 1 1895,938.23Z" style="fill:#FF0000" />
<path d="M115.62,80.245L312.77,98.371L509.93,129.11L707.08,172.86L904.23,234.36L1101.4,301.39L1298.5,383.07L1495.7,474.64L1692.8,585.1L1890,706.96" style="fill:none;stroke:#0000FF;stroke-width:4" />
<path d="M120.62,80.245A5,5 0 1 1 110.62,80.245A5,5 0 1 1 120.62,80.245Z" style="fill:#0000FF" />
<path d="M317.77,98.371A5,5 0 1 1 307.77,98.371A5,5 0 1 1 317.77,98.371Z" style="fill:#0000FF" />
<path d="M514.93,129.11A5,5 0 1 1 504.93,129.11A5,5 0 1 1 514.93,129.11Z" style="fill:#0000FF" />
<path d="M712.08,172.86A5,5 0 1 1 702.08,172.86A5,5 0 1 1 712.08,172.86Z" style="fill:#0000FF" />
<path d="M909.23,234.36A5,5 0 1 1 899.23,234.36A5,5 0 1 1 909.23,234.36Z" style="fill:#0000FF" />
<path d="M1106.4,301.39A5,5 0 1 1 1096.4,301.39A5,5 0 1 1 1106.4,301.39Z" style="fill:#0000FF" />
<path d="M1303.5,383.07A5,5 0 1 1 1293.5,383.07A5,5 0 1 1 1303.5,383.07Z" style="fill:#0000FF" />
<path d="M1500.7,474.64A5,5 0 1 1 1490.7,474.64A5,5 0 1 1 1500.7,474.64Z" style="fill:#0000FF" />
<path d="M1697.8,585.1A5,5 0 1 1 1687.8,585.1A5,5 0 1 1 1697.8,585.1Z" style="fill:#0000FF" />
<path d="M1895,706.96A5,5 0 1 1 1885,706.96A5,5 0 1 1 1895,706.96Z" style="fill:#0000FF" />
<path d="M115.62,80.11L312.77,98.019L509.93,127.8L707.08,170.08L904.23,224.48L1101.4,291.52L1298.5,370.6L1495.7,461.23L1692.8,565.11L1890,682.22" style="fill:none;stroke:#00FF00;stroke-width:4" />
<path d="M120.62,80.11A5,5 0 1 1 110.62,80.11A5,5 0 1 1 120.62,80.11Z" style="fill:#00FF00" />
<path d="M317.77,98.019A5,5 0 1 1 307.77,98.019A5,5 0 1 1 317.77,98.019Z" style="fill:#00FF00" />
<path d="M514.93,127.8A5,5 0 1 1 504.93,127.8A5,5 0 1 1 514.93,127.8Z" style="fill:#00FF00" />
<path d="M712.08,170.08A5,5 0 1 1 702.08,170.08A5,5 0 1 1 712.08,170.08Z" style="fill:#00FF00" />
<path d="M909.23,224.48A5,5 0 1 1 899.23,224.48A5,5 0 1 1 909.23,224.48Z" style="fill:#00FF00" />
<path d="M1106.4,291.52A5,5 0 1 1 1096.4,291.52A5,5 0 1 1 1106.4,291.52Z" style="fill:#00FF00" />
<path d="M1303.5,370.6A5,5 0 1 1 1293.5,370.6A5,5 0 1 1 1303.5,370.6Z" style="fill:#00FF00" />
<path d="M1500.7,461.23A5,5 0 1 1 1490.7,461.23A5,5 0 1 1 1500.7,461.23Z" style="fill:#00FF00" />
<path d="M1697.8,565.11A5,5 0 1 1 1687.8,565.11A5,5 0 1 1 1697.8,565.11Z" style="fill:#00FF00" />
<path d="M1895,682.22A5,5 0 1 1 1885,682.22A5,5 0 1 1 1895,682.22Z" style="fill:#00FF00" />
<path d="M1900,126.03L1920,126.03" style="fill:none;stroke:#FF0000;stroke-width:4" />
<path d="M1915,126.03A5,5 0 1 1 1905,126.03A5,5 0 1 1 1915,126.03Z" style="fill:#FF0000" />
<text x="1823.3" y="-121.05" transform="scale(1, -1)"
	style="font-family:Liberation Serif;font-variant:normal;font-weight:normal;font-style:normal;font-size:24px">std::list</text>
<path d="M1900,105.66L1920,105.66" style="fill:none;stroke:#0000FF;stroke-width:4" />
<path d="M1915,105.66A5,5 0 1 1 1905,105.66A5,5 0 1 1 1915,105.66Z" style="fill:#0000FF" />
<text x="1795.4" y="-100.69" transform="scale(1, -1)"
	style="font-family:Liberation Serif;font-variant:normal;font-weight:normal;font-style:normal;font-size:24px">std::deque</text>
<path d="M1900,85.294L1920,85.294" style="fill:none;stroke:#00FF00;stroke-width:4" />
<path d="M1915,85.294A5,5 0 1 1 1905,85.294A5,5 0 1 1 1915,85.294Z" style="fill:#00FF00" />
<text x="1792.7" y="-80.319" transform="scale(1, -1)"
	style="font-family:Liberation Serif;font-variant:normal;font-weight:normal;font-style:normal;font-size:24px">std::vector</text>
</g>
</svg>
