<?xml version="1.0"?>
<!-- Generated by SVGo and Plotinum VG -->
<svg width="1920pt" height="1080pt" viewBox="0 0 1920 1080"
	xmlns="http://www.w3.org/2000/svg"
	xmlns:xlink="http://www.w3.org/1999/xlink">
<g transform="scale(1, -1) translate(0, -1080)">
<path d="M0,0L1920,0L1920,1080L0,1080Z" style="fill:#FFFFFF" />
<text x="750.34" y="-1040.9" transform="scale(1, -1)"
	style="font-family:Liberation Serif;font-variant:normal;font-weight:normal;font-style:normal;font-size:50px">random-sorted-insert</text>
<text x="887.77" y="-9.7559" transform="scale(1, -1)"
	style="font-family:Liberation Serif;font-variant:normal;font-weight:normal;font-style:normal;font-size:30px">Number of elements</text>
<text x="105.46" y="-39.727" transform="scale(1, -1)"
	style="font-family:Liberation Serif;font-variant:normal;font-weight:normal;font-style:normal;font-size:20px">1000</text>
<text x="302.08" y="-39.727" transform="scale(1, -1)"
	style="font-family:Liberation Serif;font-variant:normal;font-weight:normal;font-style:normal;font-size:20px">2000</text>
<text x="498.69" y="-39.727" transform="scale(1, -1)"
	style="font-family:Liberation Serif;font-variant:normal;font-weight:normal;font-style:normal;font-size:20px">3000</text>
<text x="695.31" y="-39.727" transform="scale(1, -1)"
	style="font-family:Liberation Serif;font-variant:normal;font-weight:normal;font-style:normal;font-size:20px">4000</text>
<text x="891.92" y="-39.727" transform="scale(1, -1)"
	style="font-family:Liberation Serif;font-variant:normal;font-weight:normal;font-style:normal;font-size:20px">5000</text>
<text x="1088.5" y="-39.727" transform="scale(1, -1)"
	style="font-family:Liberation Serif;font-variant:normal;font-weight:normal;font-style:normal;font-size:20px">6000</text>
<text x="1285.2" y="-39.727" transform="scale(1, -1)"
	style="font-family:Liberation Serif;font-variant:normal;font-weight:normal;font-style:normal;font-size:20px">7000</text>
<text x="1481.8" y="-39.727" transform="scale(1, -1)"
	style="font-family:Liberation Serif;font-variant:normal;font-weight:normal;font-style:normal;font-size:20px">8000</text>
<text x="1678.4" y="-39.727" transform="scale(1, -1)"
	style="font-family:Liberation Serif;font-variant:normal;font-weight:normal;font-style:normal;font-size:20px">9000</text>
<text x="1870" y="-39.727" transform="scale(1, -1)"
	style="font-family:Liberation Serif;font-variant:normal;font-weight:normal;font-style:normal;font-size:20px">10000</text>
<path d="M125.46,55.371L125.46,63.371" style="fill:none;stroke:#000000;stroke-width:0.5" />
<path d="M322.08,55.371L322.08,63.371" style="fill:none;stroke:#000000;stroke-width:0.5" />
<path d="M518.69,55.371L518.69,63.371" style="fill:none;stroke:#000000;stroke-width:0.5" />
<path d="M715.31,55.371L715.31,63.371" style="fill:none;stroke:#000000;stroke-width:0.5" />
<path d="M911.92,55.371L911.92,63.371" style="fill:none;stroke:#000000;stroke-width:0.5" />
<path d="M1108.5,55.371L1108.5,63.371" style="fill:none;stroke:#000000;stroke-width:0.5" />
<path d="M1305.2,55.371L1305.2,63.371" style="fill:none;stroke:#000000;stroke-width:0.5" />
<path d="M1501.8,55.371L1501.8,63.371" style="fill:none;stroke:#000000;stroke-width:0.5" />
<path d="M1698.4,55.371L1698.4,63.371" style="fill:none;stroke:#000000;stroke-width:0.5" />
<path d="M1895,55.371L1895,63.371" style="fill:none;stroke:#000000;stroke-width:0.5" />
<path d="M125.46,63.371L1895,63.371" style="fill:none;stroke:#000000;stroke-width:0.5" />
<g transform="rotate(90)">
<text x="538.49" y="23.467" transform="scale(1, -1)"
	style="font-family:Liberation Serif;font-variant:normal;font-weight:normal;font-style:normal;font-size:30px">μs</text>
</g>
<text x="39.712" y="-186.99" transform="scale(1, -1)"
	style="font-family:Liberation Serif;font-variant:normal;font-weight:normal;font-style:normal;font-size:20px">100000</text>
<text x="39.712" y="-547.38" transform="scale(1, -1)"
	style="font-family:Liberation Serif;font-variant:normal;font-weight:normal;font-style:normal;font-size:20px">400000</text>
<text x="39.712" y="-907.77" transform="scale(1, -1)"
	style="font-family:Liberation Serif;font-variant:normal;font-weight:normal;font-style:normal;font-size:20px">700000</text>
<path d="M104.71,191.56L112.71,191.56" style="fill:none;stroke:#000000;stroke-width:0.5" />
<path d="M104.71,551.95L112.71,551.95" style="fill:none;stroke:#000000;stroke-width:0.5" />
<path d="M104.71,912.34L112.71,912.34" style="fill:none;stroke:#000000;stroke-width:0.5" />
<path d="M108.71,311.69L112.71,311.69" style="fill:none;stroke:#000000;stroke-width:0.5" />
<path d="M108.71,431.82L112.71,431.82" style="fill:none;stroke:#000000;stroke-width:0.5" />
<path d="M108.71,672.08L112.71,672.08" style="fill:none;stroke:#000000;stroke-width:0.5" />
<path d="M108.71,792.21L112.71,792.21" style="fill:none;stroke:#000000;stroke-width:0.5" />
<path d="M112.71,80.11L112.71,1024.6" style="fill:none;stroke:#000000;stroke-width:0.5" />
<path d="M125.46,80.11L125.46,1024.6" style="fill:none;stroke:#808080;stroke-width:0.25" />
<path d="M322.08,80.11L322.08,1024.6" style="fill:none;stroke:#808080;stroke-width:0.25" />
<path d="M518.69,80.11L518.69,1024.6" style="fill:none;stroke:#808080;stroke-width:0.25" />
<path d="M715.31,80.11L715.31,1024.6" style="fill:none;stroke:#808080;stroke-width:0.25" />
<path d="M911.92,80.11L911.92,1024.6" style="fill:none;stroke:#808080;stroke-width:0.25" />
<path d="M1108.5,80.11L1108.5,1024.6" style="fill:none;stroke:#808080;stroke-width:0.25" />
<path d="M1305.2,80.11L1305.2,1024.6" style="fill:none;stroke:#808080;stroke-width:0.25" />
<path d="M1501.8,80.11L1501.8,1024.6" style="fill:none;stroke:#808080;stroke-width:0.25" />
<path d="M1698.4,80.11L1698.4,1024.6" style="fill:none;stroke:#808080;stroke-width:0.25" />
<path d="M1895,80.11L1895,1024.6" style="fill:none;stroke:#808080;stroke-width:0.25" />
<path d="M125.46,191.56L1895,191.56" style="fill:none;stroke:#808080;stroke-width:0.25" />
<path d="M125.46,551.95L1895,551.95" style="fill:none;stroke:#808080;stroke-width:0.25" />
<path d="M125.46,912.34L1895,912.34" style="fill:none;stroke:#808080;stroke-width:0.25" />
<path d="M125.46,80.536L322.08,103.83L518.69,140.43L715.31,198.59L911.92,268.03L1108.5,349.66L1305.2,459.93L1501.8,619.01L1698.4,712.93L1895,937.97" style="fill:none;stroke:#FF0000;stroke-width:4" />
<path d="M130.46,80.536A5,5 0 1 1 120.46,80.536A5,5 0 1 1 130.46,80.536Z" style="fill:#FF0000" />
<path d="M327.08,103.83A5,5 0 1 1 317.08,103.83A5,5 0 1 1 327.08,103.83Z" style="fill:#FF0000" />
<path d="M523.69,140.43A5,5 0 1 1 513.69,140.43A5,5 0 1 1 523.69,140.43Z" style="fill:#FF0000" />
<path d="M720.31,198.59A5,5 0 1 1 710.31,198.59A5,5 0 1 1 720.31,198.59Z" style="fill:#FF0000" />
<path d="M916.92,268.03A5,5 0 1 1 906.92,268.03A5,5 0 1 1 916.92,268.03Z" style="fill:#FF0000" />
<path d="M1113.5,349.66A5,5 0 1 1 1103.5,349.66A5,5 0 1 1 1113.5,349.66Z" style="fill:#FF0000" />
<path d="M1310.2,459.93A5,5 0 1 1 1300.2,459.93A5,5 0 1 1 1310.2,459.93Z" style="fill:#FF0000" />
<path d="M1506.8,619.01A5,5 0 1 1 1496.8,619.01A5,5 0 1 1 1506.8,619.01Z" style="fill:#FF0000" />
<path d="M1703.4,712.93A5,5 0 1 1 1693.4,712.93A5,5 0 1 1 1703.4,712.93Z" style="fill:#FF0000" />
<path d="M1900,937.97A5,5 0 1 1 1890,937.97A5,5 0 1 1 1900,937.97Z" style="fill:#FF0000" />
<path d="M125.46,81.157L322.08,112.33L518.69,148.92L715.31,204.05L911.92,275.76L1108.5,356.48L1305.2,477.97L1501.8,590.72L1698.4,755.54L1895,861.08" style="fill:none;stroke:#0000FF;stroke-width:4" />
<path d="M130.46,81.157A5,5 0 1 1 120.46,81.157A5,5 0 1 1 130.46,81.157Z" style="fill:#0000FF" />
<path d="M327.08,112.33A5,5 0 1 1 317.08,112.33A5,5 0 1 1 327.08,112.33Z" style="fill:#0000FF" />
<path d="M523.69,148.92A5,5 0 1 1 513.69,148.92A5,5 0 1 1 523.69,148.92Z" style="fill:#0000FF" />
<path d="M720.31,204.05A5,5 0 1 1 710.31,204.05A5,5 0 1 1 720.31,204.05Z" style="fill:#0000FF" />
<path d="M916.92,275.76A5,5 0 1 1 906.92,275.76A5,5 0 1 1 916.92,275.76Z" style="fill:#0000FF" />
<path d="M1113.5,356.48A5,5 0 1 1 1103.5,356.48A5,5 0 1 1 1113.5,356.48Z" style="fill:#0000FF" />
<path d="M1310.2,477.97A5,5 0 1 1 1300.2,477.97A5,5 0 1 1 1310.2,477.97Z" style="fill:#0000FF" />
<path d="M1506.8,590.72A5,5 0 1 1 1496.8,590.72A5,5 0 1 1 1506.8,590.72Z" style="fill:#0000FF" />
<path d="M1703.4,755.54A5,5 0 1 1 1693.4,755.54A5,5 0 1 1 1703.4,755.54Z" style="fill:#0000FF" />
<path d="M1900,861.08A5,5 0 1 1 1890,861.08A5,5 0 1 1 1900,861.08Z" style="fill:#0000FF" />
<path d="M125.46,80.11L322.08,103.1L518.69,144.34L715.31,205.44L911.92,294.57L1108.5,379.6L1305.2,495.44L1501.8,595.74L1698.4,764.07L1895,887.41" style="fill:none;stroke:#00FF00;stroke-width:4" />
<path d="M130.46,80.11A5,5 0 1 1 120.46,80.11A5,5 0 1 1 130.46,80.11Z" style="fill:#00FF00" />
<path d="M327.08,103.1A5,5 0 1 1 317.08,103.1A5,5 0 1 1 327.08,103.1Z" style="fill:#00FF00" />
<path d="M523.69,144.34A5,5 0 1 1 513.69,144.34A5,5 0 1 1 523.69,144.34Z" style="fill:#00FF00" />
<path d="M720.31,205.44A5,5 0 1 1 710.31,205.44A5,5 0 1 1 720.31,205.44Z" style="fill:#00FF00" />
<path d="M916.92,294.57A5,5 0 1 1 906.92,294.57A5,5 0 1 1 916.92,294.57Z" style="fill:#00FF00" />
<path d="M1113.5,379.6A5,5 0 1 1 1103.5,379.6A5,5 0 1 1 1113.5,379.6Z" style="fill:#00FF00" />
<path d="M1310.2,495.44A5,5 0 1 1 1300.2,495.44A5,5 0 1 1 1310.2,495.44Z" style="fill:#00FF00" />
<path d="M1506.8,595.74A5,5 0 1 1 1496.8,595.74A5,5 0 1 1 1506.8,595.74Z" style="fill:#00FF00" />
<path d="M1703.4,764.07A5,5 0 1 1 1693.4,764.07A5,5 0 1 1 1703.4,764.07Z" style="fill:#00FF00" />
<path d="M1900,887.41A5,5 0 1 1 1890,887.41A5,5 0 1 1 1900,887.41Z" style="fill:#00FF00" />
<path d="M1900,126.03L1920,126.03" style="fill:none;stroke:#FF0000;stroke-width:4" />
<path d="M1915,126.03A5,5 0 1 1 1905,126.03A5,5 0 1 1 1915,126.03Z" style="fill:#FF0000" />
<text x="1823.3" y="-121.05" transform="scale(1, -1)"
	style="font-family:Liberation Serif;font-variant:normal;font-weight:normal;font-style:normal;font-size:24px">std::list</text>
<path d="M1900,105.66L1920,105.66" style="fill:none;stroke:#0000FF;stroke-width:4" />
<path d="M1915,105.66A5,5 0 1 1 1905,105.66A5,5 0 1 1 1915,105.66Z" style="fill:#0000FF" />
<text x="1795.4" y="-100.69" transform="scale(1, -1)"
	style="font-family:Liberation Serif;font-variant:normal;font-weight:normal;font-style:normal;font-size:24px">std::deque</text>
<path d="M1900,85.294L1920,85.294" style="fill:none;stroke:#00FF00;stroke-width:4" />
<path d="M1915,85.294A5,5 0 1 1 1905,85.294A5,5 0 1 1 1915,85.294Z" style="fill:#00FF00" />
<text x="1792.7" y="-80.319" transform="scale(1, -1)"
	style="font-family:Liberation Serif;font-variant:normal;font-weight:normal;font-style:normal;font-size:24px">std::vector</text>
</g>
</svg>
