<?xml version="1.0"?>
<!-- Generated by SVGo and Plotinum VG -->
<svg width="1920pt" height="1080pt" viewBox="0 0 1920 1080"
	xmlns="http://www.w3.org/2000/svg"
	xmlns:xlink="http://www.w3.org/1999/xlink">
<g transform="scale(1, -1) translate(0, -1080)">
<path d="M0,0L1920,0L1920,1080L0,1080Z" style="fill:#FFFFFF" />
<text x="750.34" y="-1040.9" transform="scale(1, -1)"
	style="font-family:Liberation Serif;font-variant:normal;font-weight:normal;font-style:normal;font-size:50px">random-sorted-insert</text>
<text x="892.77" y="-9.7559" transform="scale(1, -1)"
	style="font-family:Liberation Serif;font-variant:normal;font-weight:normal;font-style:normal;font-size:30px">Number of elements</text>
<text x="115.46" y="-39.727" transform="scale(1, -1)"
	style="font-family:Liberation Serif;font-variant:normal;font-weight:normal;font-style:normal;font-size:20px">1000</text>
<text x="310.97" y="-39.727" transform="scale(1, -1)"
	style="font-family:Liberation Serif;font-variant:normal;font-weight:normal;font-style:normal;font-size:20px">2000</text>
<text x="506.47" y="-39.727" transform="scale(1, -1)"
	style="font-family:Liberation Serif;font-variant:normal;font-weight:normal;font-style:normal;font-size:20px">3000</text>
<text x="701.97" y="-39.727" transform="scale(1, -1)"
	style="font-family:Liberation Serif;font-variant:normal;font-weight:normal;font-style:normal;font-size:20px">4000</text>
<text x="897.48" y="-39.727" transform="scale(1, -1)"
	style="font-family:Liberation Serif;font-variant:normal;font-weight:normal;font-style:normal;font-size:20px">5000</text>
<text x="1093" y="-39.727" transform="scale(1, -1)"
	style="font-family:Liberation Serif;font-variant:normal;font-weight:normal;font-style:normal;font-size:20px">6000</text>
<text x="1288.5" y="-39.727" transform="scale(1, -1)"
	style="font-family:Liberation Serif;font-variant:normal;font-weight:normal;font-style:normal;font-size:20px">7000</text>
<text x="1484" y="-39.727" transform="scale(1, -1)"
	style="font-family:Liberation Serif;font-variant:normal;font-weight:normal;font-style:normal;font-size:20px">8000</text>
<text x="1679.5" y="-39.727" transform="scale(1, -1)"
	style="font-family:Liberation Serif;font-variant:normal;font-weight:normal;font-style:normal;font-size:20px">9000</text>
<text x="1870" y="-39.727" transform="scale(1, -1)"
	style="font-family:Liberation Serif;font-variant:normal;font-weight:normal;font-style:normal;font-size:20px">10000</text>
<path d="M135.46,55.371L135.46,63.371" style="fill:none;stroke:#000000;stroke-width:0.5" />
<path d="M330.97,55.371L330.97,63.371" style="fill:none;stroke:#000000;stroke-width:0.5" />
<path d="M526.47,55.371L526.47,63.371" style="fill:none;stroke:#000000;stroke-width:0.5" />
<path d="M721.97,55.371L721.97,63.371" style="fill:none;stroke:#000000;stroke-width:0.5" />
<path d="M917.48,55.371L917.48,63.371" style="fill:none;stroke:#000000;stroke-width:0.5" />
<path d="M1113,55.371L1113,63.371" style="fill:none;stroke:#000000;stroke-width:0.5" />
<path d="M1308.5,55.371L1308.5,63.371" style="fill:none;stroke:#000000;stroke-width:0.5" />
<path d="M1504,55.371L1504,63.371" style="fill:none;stroke:#000000;stroke-width:0.5" />
<path d="M1699.5,55.371L1699.5,63.371" style="fill:none;stroke:#000000;stroke-width:0.5" />
<path d="M1895,55.371L1895,63.371" style="fill:none;stroke:#000000;stroke-width:0.5" />
<path d="M135.46,63.371L1895,63.371" style="fill:none;stroke:#000000;stroke-width:0.5" />
<g transform="rotate(90)">
<text x="538.49" y="23.467" transform="scale(1, -1)"
	style="font-family:Liberation Serif;font-variant:normal;font-weight:normal;font-style:normal;font-size:30px">μs</text>
</g>
<text x="39.712" y="-206.55" transform="scale(1, -1)"
	style="font-family:Liberation Serif;font-variant:normal;font-weight:normal;font-style:normal;font-size:20px">1000000</text>
<text x="39.712" y="-602.78" transform="scale(1, -1)"
	style="font-family:Liberation Serif;font-variant:normal;font-weight:normal;font-style:normal;font-size:20px">4000000</text>
<text x="39.712" y="-999" transform="scale(1, -1)"
	style="font-family:Liberation Serif;font-variant:normal;font-weight:normal;font-style:normal;font-size:20px">7000000</text>
<path d="M114.71,211.12L122.71,211.12" style="fill:none;stroke:#000000;stroke-width:0.5" />
<path d="M114.71,607.35L122.71,607.35" style="fill:none;stroke:#000000;stroke-width:0.5" />
<path d="M114.71,1003.6L122.71,1003.6" style="fill:none;stroke:#000000;stroke-width:0.5" />
<path d="M118.71,343.19L122.71,343.19" style="fill:none;stroke:#000000;stroke-width:0.5" />
<path d="M118.71,475.27L122.71,475.27" style="fill:none;stroke:#000000;stroke-width:0.5" />
<path d="M118.71,739.42L122.71,739.42" style="fill:none;stroke:#000000;stroke-width:0.5" />
<path d="M118.71,871.5L122.71,871.5" style="fill:none;stroke:#000000;stroke-width:0.5" />
<path d="M122.71,80.11L122.71,1024.6" style="fill:none;stroke:#000000;stroke-width:0.5" />
<path d="M135.46,80.11L135.46,1024.6" style="fill:none;stroke:#808080;stroke-width:0.25" />
<path d="M330.97,80.11L330.97,1024.6" style="fill:none;stroke:#808080;stroke-width:0.25" />
<path d="M526.47,80.11L526.47,1024.6" style="fill:none;stroke:#808080;stroke-width:0.25" />
<path d="M721.97,80.11L721.97,1024.6" style="fill:none;stroke:#808080;stroke-width:0.25" />
<path d="M917.48,80.11L917.48,1024.6" style="fill:none;stroke:#808080;stroke-width:0.25" />
<path d="M1113,80.11L1113,1024.6" style="fill:none;stroke:#808080;stroke-width:0.25" />
<path d="M1308.5,80.11L1308.5,1024.6" style="fill:none;stroke:#808080;stroke-width:0.25" />
<path d="M1504,80.11L1504,1024.6" style="fill:none;stroke:#808080;stroke-width:0.25" />
<path d="M1699.5,80.11L1699.5,1024.6" style="fill:none;stroke:#808080;stroke-width:0.25" />
<path d="M1895,80.11L1895,1024.6" style="fill:none;stroke:#808080;stroke-width:0.25" />
<path d="M135.46,211.12L1895,211.12" style="fill:none;stroke:#808080;stroke-width:0.25" />
<path d="M135.46,607.35L1895,607.35" style="fill:none;stroke:#808080;stroke-width:0.25" />
<path d="M135.46,1003.6L1895,1003.6" style="fill:none;stroke:#808080;stroke-width:0.25" />
<path d="M135.46,83.443L330.97,95.747L526.47,121.65L721.97,162.55L917.48,224.72L1113,301.28L1308.5,412.81L1504,543.26L1699.5,730.58L1895,938.67" style="fill:none;stroke:#FF0000;stroke-width:4" />
<path d="M140.46,83.443A5,5 0 1 1 130.46,83.443A5,5 0 1 1 140.46,83.443Z" style="fill:#FF0000" />
<path d="M335.97,95.747A5,5 0 1 1 325.97,95.747A5,5 0 1 1 335.97,95.747Z" style="fill:#FF0000" />
<path d="M531.47,121.65A5,5 0 1 1 521.47,121.65A5,5 0 1 1 531.47,121.65Z" style="fill:#FF0000" />
<path d="M726.97,162.55A5,5 0 1 1 716.97,162.55A5,5 0 1 1 726.97,162.55Z" style="fill:#FF0000" />
<path d="M922.48,224.72A5,5 0 1 1 912.48,224.72A5,5 0 1 1 922.48,224.72Z" style="fill:#FF0000" />
<path d="M1118,301.28A5,5 0 1 1 1108,301.28A5,5 0 1 1 1118,301.28Z" style="fill:#FF0000" />
<path d="M1313.5,412.81A5,5 0 1 1 1303.5,412.81A5,5 0 1 1 1313.5,412.81Z" style="fill:#FF0000" />
<path d="M1509,543.26A5,5 0 1 1 1499,543.26A5,5 0 1 1 1509,543.26Z" style="fill:#FF0000" />
<path d="M1704.5,730.58A5,5 0 1 1 1694.5,730.58A5,5 0 1 1 1704.5,730.58Z" style="fill:#FF0000" />
<path d="M1900,938.67A5,5 0 1 1 1890,938.67A5,5 0 1 1 1900,938.67Z" style="fill:#FF0000" />
<path d="M135.46,80.11L330.97,82.877L526.47,87.128L721.97,93.133L917.48,100.99L1113,113.5L1308.5,128.17L1504,142.34L1699.5,159.84L1895,175.86" style="fill:none;stroke:#0000FF;stroke-width:4" />
<path d="M140.46,80.11A5,5 0 1 1 130.46,80.11A5,5 0 1 1 140.46,80.11Z" style="fill:#0000FF" />
<path d="M335.97,82.877A5,5 0 1 1 325.97,82.877A5,5 0 1 1 335.97,82.877Z" style="fill:#0000FF" />
<path d="M531.47,87.128A5,5 0 1 1 521.47,87.128A5,5 0 1 1 531.47,87.128Z" style="fill:#0000FF" />
<path d="M726.97,93.133A5,5 0 1 1 716.97,93.133A5,5 0 1 1 726.97,93.133Z" style="fill:#0000FF" />
<path d="M922.48,100.99A5,5 0 1 1 912.48,100.99A5,5 0 1 1 922.48,100.99Z" style="fill:#0000FF" />
<path d="M1118,113.5A5,5 0 1 1 1108,113.5A5,5 0 1 1 1118,113.5Z" style="fill:#0000FF" />
<path d="M1313.5,128.17A5,5 0 1 1 1303.5,128.17A5,5 0 1 1 1313.5,128.17Z" style="fill:#0000FF" />
<path d="M1509,142.34A5,5 0 1 1 1499,142.34A5,5 0 1 1 1509,142.34Z" style="fill:#0000FF" />
<path d="M1704.5,159.84A5,5 0 1 1 1694.5,159.84A5,5 0 1 1 1704.5,159.84Z" style="fill:#0000FF" />
<path d="M1900,175.86A5,5 0 1 1 1890,175.86A5,5 0 1 1 1900,175.86Z" style="fill:#0000FF" />
<path d="M135.46,82.281L330.97,94.494L526.47,121.87L721.97,163.87L917.48,219.33L1113,273.86L1308.5,336.44L1504,468.78L1699.5,698.1L1895,800.21" style="fill:none;stroke:#00FF00;stroke-width:4" />
<path d="M140.46,82.281A5,5 0 1 1 130.46,82.281A5,5 0 1 1 140.46,82.281Z" style="fill:#00FF00" />
<path d="M335.97,94.494A5,5 0 1 1 325.97,94.494A5,5 0 1 1 335.97,94.494Z" style="fill:#00FF00" />
<path d="M531.47,121.87A5,5 0 1 1 521.47,121.87A5,5 0 1 1 531.47,121.87Z" style="fill:#00FF00" />
<path d="M726.97,163.87A5,5 0 1 1 716.97,163.87A5,5 0 1 1 726.97,163.87Z" style="fill:#00FF00" />
<path d="M922.48,219.33A5,5 0 1 1 912.48,219.33A5,5 0 1 1 922.48,219.33Z" style="fill:#00FF00" />
<path d="M1118,273.86A5,5 0 1 1 1108,273.86A5,5 0 1 1 1118,273.86Z" style="fill:#00FF00" />
<path d="M1313.5,336.44A5,5 0 1 1 1303.5,336.44A5,5 0 1 1 1313.5,336.44Z" style="fill:#00FF00" />
<path d="M1509,468.78A5,5 0 1 1 1499,468.78A5,5 0 1 1 1509,468.78Z" style="fill:#00FF00" />
<path d="M1704.5,698.1A5,5 0 1 1 1694.5,698.1A5,5 0 1 1 1704.5,698.1Z" style="fill:#00FF00" />
<path d="M1900,800.21A5,5 0 1 1 1890,800.21A5,5 0 1 1 1900,800.21Z" style="fill:#00FF00" />
<path d="M1900,126.03L1920,126.03" style="fill:none;stroke:#FF0000;stroke-width:4" />
<path d="M1915,126.03A5,5 0 1 1 1905,126.03A5,5 0 1 1 1915,126.03Z" style="fill:#FF0000" />
<text x="1792.7" y="-121.05" transform="scale(1, -1)"
	style="font-family:Liberation Serif;font-variant:normal;font-weight:normal;font-style:normal;font-size:24px">std::vector</text>
<path d="M1900,105.66L1920,105.66" style="fill:none;stroke:#0000FF;stroke-width:4" />
<path d="M1915,105.66A5,5 0 1 1 1905,105.66A5,5 0 1 1 1915,105.66Z" style="fill:#0000FF" />
<text x="1823.3" y="-100.69" transform="scale(1, -1)"
	style="font-family:Liberation Serif;font-variant:normal;font-weight:normal;font-style:normal;font-size:24px">std::list</text>
<path d="M1900,85.294L1920,85.294" style="fill:none;stroke:#00FF00;stroke-width:4" />
<path d="M1915,85.294A5,5 0 1 1 1905,85.294A5,5 0 1 1 1915,85.294Z" style="fill:#00FF00" />
<text x="1795.4" y="-80.319" transform="scale(1, -1)"
	style="font-family:Liberation Serif;font-variant:normal;font-weight:normal;font-style:normal;font-size:24px">std::deque</text>
</g>
</svg>
