<?xml version="1.0"?>
<!-- Generated by SVGo and Plotinum VG -->
<svg width="1920pt" height="1080pt" viewBox="0 0 1920 1080"
	xmlns="http://www.w3.org/2000/svg"
	xmlns:xlink="http://www.w3.org/1999/xlink">
<g transform="scale(1, -1) translate(0, -1080)">
<path d="M0,0L1920,0L1920,1080L0,1080Z" style="fill:#FFFFFF" />
<text x="886.4" y="-1040.9" transform="scale(1, -1)"
	style="font-family:Liberation Serif;font-variant:normal;font-weight:normal;font-style:normal;font-size:50px">destroy</text>
<text x="857.77" y="-9.7559" transform="scale(1, -1)"
	style="font-family:Liberation Serif;font-variant:normal;font-weight:normal;font-style:normal;font-size:30px">Number of elements</text>
<text x="45.462" y="-39.727" transform="scale(1, -1)"
	style="font-family:Liberation Serif;font-variant:normal;font-weight:normal;font-style:normal;font-size:20px">100000</text>
<text x="246.52" y="-39.727" transform="scale(1, -1)"
	style="font-family:Liberation Serif;font-variant:normal;font-weight:normal;font-style:normal;font-size:20px">200000</text>
<text x="447.58" y="-39.727" transform="scale(1, -1)"
	style="font-family:Liberation Serif;font-variant:normal;font-weight:normal;font-style:normal;font-size:20px">300000</text>
<text x="648.64" y="-39.727" transform="scale(1, -1)"
	style="font-family:Liberation Serif;font-variant:normal;font-weight:normal;font-style:normal;font-size:20px">400000</text>
<text x="849.7" y="-39.727" transform="scale(1, -1)"
	style="font-family:Liberation Serif;font-variant:normal;font-weight:normal;font-style:normal;font-size:20px">500000</text>
<text x="1050.8" y="-39.727" transform="scale(1, -1)"
	style="font-family:Liberation Serif;font-variant:normal;font-weight:normal;font-style:normal;font-size:20px">600000</text>
<text x="1251.8" y="-39.727" transform="scale(1, -1)"
	style="font-family:Liberation Serif;font-variant:normal;font-weight:normal;font-style:normal;font-size:20px">700000</text>
<text x="1452.9" y="-39.727" transform="scale(1, -1)"
	style="font-family:Liberation Serif;font-variant:normal;font-weight:normal;font-style:normal;font-size:20px">800000</text>
<text x="1653.9" y="-39.727" transform="scale(1, -1)"
	style="font-family:Liberation Serif;font-variant:normal;font-weight:normal;font-style:normal;font-size:20px">900000</text>
<text x="1850" y="-39.727" transform="scale(1, -1)"
	style="font-family:Liberation Serif;font-variant:normal;font-weight:normal;font-style:normal;font-size:20px">1000000</text>
<path d="M75.462,55.371L75.462,63.371" style="fill:none;stroke:#000000;stroke-width:0.5" />
<path d="M276.52,55.371L276.52,63.371" style="fill:none;stroke:#000000;stroke-width:0.5" />
<path d="M477.58,55.371L477.58,63.371" style="fill:none;stroke:#000000;stroke-width:0.5" />
<path d="M678.64,55.371L678.64,63.371" style="fill:none;stroke:#000000;stroke-width:0.5" />
<path d="M879.7,55.371L879.7,63.371" style="fill:none;stroke:#000000;stroke-width:0.5" />
<path d="M1080.8,55.371L1080.8,63.371" style="fill:none;stroke:#000000;stroke-width:0.5" />
<path d="M1281.8,55.371L1281.8,63.371" style="fill:none;stroke:#000000;stroke-width:0.5" />
<path d="M1482.9,55.371L1482.9,63.371" style="fill:none;stroke:#000000;stroke-width:0.5" />
<path d="M1683.9,55.371L1683.9,63.371" style="fill:none;stroke:#000000;stroke-width:0.5" />
<path d="M1885,55.371L1885,63.371" style="fill:none;stroke:#000000;stroke-width:0.5" />
<path d="M75.462,63.371L1885,63.371" style="fill:none;stroke:#000000;stroke-width:0.5" />
<g transform="rotate(90)">
<text x="538.49" y="23.467" transform="scale(1, -1)"
	style="font-family:Liberation Serif;font-variant:normal;font-weight:normal;font-style:normal;font-size:30px">μs</text>
</g>
<text x="39.712" y="-75.54" transform="scale(1, -1)"
	style="font-family:Liberation Serif;font-variant:normal;font-weight:normal;font-style:normal;font-size:20px">0</text>
<text x="39.712" y="-504.87" transform="scale(1, -1)"
	style="font-family:Liberation Serif;font-variant:normal;font-weight:normal;font-style:normal;font-size:20px">4</text>
<text x="39.712" y="-934.19" transform="scale(1, -1)"
	style="font-family:Liberation Serif;font-variant:normal;font-weight:normal;font-style:normal;font-size:20px">8</text>
<path d="M54.712,80.11L62.712,80.11" style="fill:none;stroke:#000000;stroke-width:0.5" />
<path d="M54.712,509.44L62.712,509.44" style="fill:none;stroke:#000000;stroke-width:0.5" />
<path d="M54.712,938.76L62.712,938.76" style="fill:none;stroke:#000000;stroke-width:0.5" />
<path d="M58.712,187.44L62.712,187.44" style="fill:none;stroke:#000000;stroke-width:0.5" />
<path d="M58.712,294.77L62.712,294.77" style="fill:none;stroke:#000000;stroke-width:0.5" />
<path d="M58.712,402.11L62.712,402.11" style="fill:none;stroke:#000000;stroke-width:0.5" />
<path d="M58.712,616.77L62.712,616.77" style="fill:none;stroke:#000000;stroke-width:0.5" />
<path d="M58.712,724.1L62.712,724.1" style="fill:none;stroke:#000000;stroke-width:0.5" />
<path d="M58.712,831.43L62.712,831.43" style="fill:none;stroke:#000000;stroke-width:0.5" />
<path d="M62.712,80.11L62.712,1024.6" style="fill:none;stroke:#000000;stroke-width:0.5" />
<path d="M75.462,80.11L75.462,1024.6" style="fill:none;stroke:#808080;stroke-width:0.25" />
<path d="M276.52,80.11L276.52,1024.6" style="fill:none;stroke:#808080;stroke-width:0.25" />
<path d="M477.58,80.11L477.58,1024.6" style="fill:none;stroke:#808080;stroke-width:0.25" />
<path d="M678.64,80.11L678.64,1024.6" style="fill:none;stroke:#808080;stroke-width:0.25" />
<path d="M879.7,80.11L879.7,1024.6" style="fill:none;stroke:#808080;stroke-width:0.25" />
<path d="M1080.8,80.11L1080.8,1024.6" style="fill:none;stroke:#808080;stroke-width:0.25" />
<path d="M1281.8,80.11L1281.8,1024.6" style="fill:none;stroke:#808080;stroke-width:0.25" />
<path d="M1482.9,80.11L1482.9,1024.6" style="fill:none;stroke:#808080;stroke-width:0.25" />
<path d="M1683.9,80.11L1683.9,1024.6" style="fill:none;stroke:#808080;stroke-width:0.25" />
<path d="M1885,80.11L1885,1024.6" style="fill:none;stroke:#808080;stroke-width:0.25" />
<path d="M75.462,80.11L1885,80.11" style="fill:none;stroke:#808080;stroke-width:0.25" />
<path d="M75.462,509.44L1885,509.44" style="fill:none;stroke:#808080;stroke-width:0.25" />
<path d="M75.462,938.76L1885,938.76" style="fill:none;stroke:#808080;stroke-width:0.25" />
<path d="M75.462,80.11L276.52,80.11L477.58,80.11L678.64,938.76L879.7,80.11L1080.8,80.11L1281.8,80.11L1482.9,80.11L1683.9,80.11L1885,80.11" style="fill:none;stroke:#FF0000;stroke-width:4" />
<path d="M80.462,80.11A5,5 0 1 1 70.462,80.11A5,5 0 1 1 80.462,80.11Z" style="fill:#FF0000" />
<path d="M281.52,80.11A5,5 0 1 1 271.52,80.11A5,5 0 1 1 281.52,80.11Z" style="fill:#FF0000" />
<path d="M482.58,80.11A5,5 0 1 1 472.58,80.11A5,5 0 1 1 482.58,80.11Z" style="fill:#FF0000" />
<path d="M683.64,938.76A5,5 0 1 1 673.64,938.76A5,5 0 1 1 683.64,938.76Z" style="fill:#FF0000" />
<path d="M884.7,80.11A5,5 0 1 1 874.7,80.11A5,5 0 1 1 884.7,80.11Z" style="fill:#FF0000" />
<path d="M1085.8,80.11A5,5 0 1 1 1075.8,80.11A5,5 0 1 1 1085.8,80.11Z" style="fill:#FF0000" />
<path d="M1286.8,80.11A5,5 0 1 1 1276.8,80.11A5,5 0 1 1 1286.8,80.11Z" style="fill:#FF0000" />
<path d="M1487.9,80.11A5,5 0 1 1 1477.9,80.11A5,5 0 1 1 1487.9,80.11Z" style="fill:#FF0000" />
<path d="M1688.9,80.11A5,5 0 1 1 1678.9,80.11A5,5 0 1 1 1688.9,80.11Z" style="fill:#FF0000" />
<path d="M1890,80.11A5,5 0 1 1 1880,80.11A5,5 0 1 1 1890,80.11Z" style="fill:#FF0000" />
<path d="M75.462,402.11L276.52,80.11L477.58,80.11L678.64,80.11L879.7,80.11L1080.8,80.11L1281.8,80.11L1482.9,80.11L1683.9,80.11L1885,80.11" style="fill:none;stroke:#0000FF;stroke-width:4" />
<path d="M80.462,402.11A5,5 0 1 1 70.462,402.11A5,5 0 1 1 80.462,402.11Z" style="fill:#0000FF" />
<path d="M281.52,80.11A5,5 0 1 1 271.52,80.11A5,5 0 1 1 281.52,80.11Z" style="fill:#0000FF" />
<path d="M482.58,80.11A5,5 0 1 1 472.58,80.11A5,5 0 1 1 482.58,80.11Z" style="fill:#0000FF" />
<path d="M683.64,80.11A5,5 0 1 1 673.64,80.11A5,5 0 1 1 683.64,80.11Z" style="fill:#0000FF" />
<path d="M884.7,80.11A5,5 0 1 1 874.7,80.11A5,5 0 1 1 884.7,80.11Z" style="fill:#0000FF" />
<path d="M1085.8,80.11A5,5 0 1 1 1075.8,80.11A5,5 0 1 1 1085.8,80.11Z" style="fill:#0000FF" />
<path d="M1286.8,80.11A5,5 0 1 1 1276.8,80.11A5,5 0 1 1 1286.8,80.11Z" style="fill:#0000FF" />
<path d="M1487.9,80.11A5,5 0 1 1 1477.9,80.11A5,5 0 1 1 1487.9,80.11Z" style="fill:#0000FF" />
<path d="M1688.9,80.11A5,5 0 1 1 1678.9,80.11A5,5 0 1 1 1688.9,80.11Z" style="fill:#0000FF" />
<path d="M1890,80.11A5,5 0 1 1 1880,80.11A5,5 0 1 1 1890,80.11Z" style="fill:#0000FF" />
<path d="M75.462,80.11L276.52,80.11L477.58,80.11L678.64,80.11L879.7,80.11L1080.8,80.11L1281.8,80.11L1482.9,80.11L1683.9,80.11L1885,80.11" style="fill:none;stroke:#00FF00;stroke-width:4" />
<path d="M80.462,80.11A5,5 0 1 1 70.462,80.11A5,5 0 1 1 80.462,80.11Z" style="fill:#00FF00" />
<path d="M281.52,80.11A5,5 0 1 1 271.52,80.11A5,5 0 1 1 281.52,80.11Z" style="fill:#00FF00" />
<path d="M482.58,80.11A5,5 0 1 1 472.58,80.11A5,5 0 1 1 482.58,80.11Z" style="fill:#00FF00" />
<path d="M683.64,80.11A5,5 0 1 1 673.64,80.11A5,5 0 1 1 683.64,80.11Z" style="fill:#00FF00" />
<path d="M884.7,80.11A5,5 0 1 1 874.7,80.11A5,5 0 1 1 884.7,80.11Z" style="fill:#00FF00" />
<path d="M1085.8,80.11A5,5 0 1 1 1075.8,80.11A5,5 0 1 1 1085.8,80.11Z" style="fill:#00FF00" />
<path d="M1286.8,80.11A5,5 0 1 1 1276.8,80.11A5,5 0 1 1 1286.8,80.11Z" style="fill:#00FF00" />
<path d="M1487.9,80.11A5,5 0 1 1 1477.9,80.11A5,5 0 1 1 1487.9,80.11Z" style="fill:#00FF00" />
<path d="M1688.9,80.11A5,5 0 1 1 1678.9,80.11A5,5 0 1 1 1688.9,80.11Z" style="fill:#00FF00" />
<path d="M1890,80.11A5,5 0 1 1 1880,80.11A5,5 0 1 1 1890,80.11Z" style="fill:#00FF00" />
<path d="M1900,126.03L1920,126.03" style="fill:none;stroke:#FF0000;stroke-width:4" />
<path d="M1915,126.03A5,5 0 1 1 1905,126.03A5,5 0 1 1 1915,126.03Z" style="fill:#FF0000" />
<text x="1795.4" y="-121.05" transform="scale(1, -1)"
	style="font-family:Liberation Serif;font-variant:normal;font-weight:normal;font-style:normal;font-size:24px">std::deque</text>
<path d="M1900,105.66L1920,105.66" style="fill:none;stroke:#0000FF;stroke-width:4" />
<path d="M1915,105.66A5,5 0 1 1 1905,105.66A5,5 0 1 1 1915,105.66Z" style="fill:#0000FF" />
<text x="1792.7" y="-100.69" transform="scale(1, -1)"
	style="font-family:Liberation Serif;font-variant:normal;font-weight:normal;font-style:normal;font-size:24px">std::vector</text>
<path d="M1900,85.294L1920,85.294" style="fill:none;stroke:#00FF00;stroke-width:4" />
<path d="M1915,85.294A5,5 0 1 1 1905,85.294A5,5 0 1 1 1915,85.294Z" style="fill:#00FF00" />
<text x="1823.3" y="-80.319" transform="scale(1, -1)"
	style="font-family:Liberation Serif;font-variant:normal;font-weight:normal;font-style:normal;font-size:24px">std::list</text>
</g>
</svg>
