<?xml version="1.0"?>
<!-- Generated by SVGo and Plotinum VG -->
<svg width="1920pt" height="1080pt" viewBox="0 0 1920 1080"
	xmlns="http://www.w3.org/2000/svg"
	xmlns:xlink="http://www.w3.org/1999/xlink">
<g transform="scale(1, -1) translate(0, -1080)">
<path d="M0,0L1920,0L1920,1080L0,1080Z" style="fill:#FFFFFF" />
<text x="764.92" y="-1040.9" transform="scale(1, -1)"
	style="font-family:Liberation Serif;font-variant:normal;font-weight:normal;font-style:normal;font-size:50px">destroy - Log Scale</text>
<text x="862.77" y="-9.7559" transform="scale(1, -1)"
	style="font-family:Liberation Serif;font-variant:normal;font-weight:normal;font-style:normal;font-size:30px">Number of elements</text>
<text x="55.462" y="-39.727" transform="scale(1, -1)"
	style="font-family:Liberation Serif;font-variant:normal;font-weight:normal;font-style:normal;font-size:20px">100000</text>
<text x="255.41" y="-39.727" transform="scale(1, -1)"
	style="font-family:Liberation Serif;font-variant:normal;font-weight:normal;font-style:normal;font-size:20px">200000</text>
<text x="455.36" y="-39.727" transform="scale(1, -1)"
	style="font-family:Liberation Serif;font-variant:normal;font-weight:normal;font-style:normal;font-size:20px">300000</text>
<text x="655.31" y="-39.727" transform="scale(1, -1)"
	style="font-family:Liberation Serif;font-variant:normal;font-weight:normal;font-style:normal;font-size:20px">400000</text>
<text x="855.26" y="-39.727" transform="scale(1, -1)"
	style="font-family:Liberation Serif;font-variant:normal;font-weight:normal;font-style:normal;font-size:20px">500000</text>
<text x="1055.2" y="-39.727" transform="scale(1, -1)"
	style="font-family:Liberation Serif;font-variant:normal;font-weight:normal;font-style:normal;font-size:20px">600000</text>
<text x="1255.2" y="-39.727" transform="scale(1, -1)"
	style="font-family:Liberation Serif;font-variant:normal;font-weight:normal;font-style:normal;font-size:20px">700000</text>
<text x="1455.1" y="-39.727" transform="scale(1, -1)"
	style="font-family:Liberation Serif;font-variant:normal;font-weight:normal;font-style:normal;font-size:20px">800000</text>
<text x="1655.1" y="-39.727" transform="scale(1, -1)"
	style="font-family:Liberation Serif;font-variant:normal;font-weight:normal;font-style:normal;font-size:20px">900000</text>
<text x="1850" y="-39.727" transform="scale(1, -1)"
	style="font-family:Liberation Serif;font-variant:normal;font-weight:normal;font-style:normal;font-size:20px">1000000</text>
<path d="M85.462,55.371L85.462,63.371" style="fill:none;stroke:#000000;stroke-width:0.5" />
<path d="M285.41,55.371L285.41,63.371" style="fill:none;stroke:#000000;stroke-width:0.5" />
<path d="M485.36,55.371L485.36,63.371" style="fill:none;stroke:#000000;stroke-width:0.5" />
<path d="M685.31,55.371L685.31,63.371" style="fill:none;stroke:#000000;stroke-width:0.5" />
<path d="M885.26,55.371L885.26,63.371" style="fill:none;stroke:#000000;stroke-width:0.5" />
<path d="M1085.2,55.371L1085.2,63.371" style="fill:none;stroke:#000000;stroke-width:0.5" />
<path d="M1285.2,55.371L1285.2,63.371" style="fill:none;stroke:#000000;stroke-width:0.5" />
<path d="M1485.1,55.371L1485.1,63.371" style="fill:none;stroke:#000000;stroke-width:0.5" />
<path d="M1685.1,55.371L1685.1,63.371" style="fill:none;stroke:#000000;stroke-width:0.5" />
<path d="M1885,55.371L1885,63.371" style="fill:none;stroke:#000000;stroke-width:0.5" />
<path d="M85.462,63.371L1885,63.371" style="fill:none;stroke:#000000;stroke-width:0.5" />
<g transform="rotate(90)">
<text x="483.37" y="23.467" transform="scale(1, -1)"
	style="font-family:Liberation Serif;font-variant:normal;font-weight:normal;font-style:normal;font-size:30px">log(μs + 1)</text>
</g>
<text x="49.712" y="-347.12" transform="scale(1, -1)"
	style="font-family:Liberation Serif;font-variant:normal;font-weight:normal;font-style:normal;font-size:20px">2</text>
<text x="49.712" y="-777.57" transform="scale(1, -1)"
	style="font-family:Liberation Serif;font-variant:normal;font-weight:normal;font-style:normal;font-size:20px">6</text>
<text x="39.712" y="-977.72" transform="scale(1, -1)"
	style="font-family:Liberation Serif;font-variant:normal;font-weight:normal;font-style:normal;font-size:20px">10</text>
<path d="M64.712,351.69L72.712,351.69" style="fill:none;stroke:#000000;stroke-width:0.5" />
<path d="M64.712,782.14L72.712,782.14" style="fill:none;stroke:#000000;stroke-width:0.5" />
<path d="M64.712,982.29L72.712,982.29" style="fill:none;stroke:#000000;stroke-width:0.5" />
<path d="M68.712,510.56L72.712,510.56" style="fill:none;stroke:#000000;stroke-width:0.5" />
<path d="M68.712,623.27L72.712,623.27" style="fill:none;stroke:#000000;stroke-width:0.5" />
<path d="M68.712,710.7L72.712,710.7" style="fill:none;stroke:#000000;stroke-width:0.5" />
<path d="M68.712,842.54L72.712,842.54" style="fill:none;stroke:#000000;stroke-width:0.5" />
<path d="M68.712,894.86L72.712,894.86" style="fill:none;stroke:#000000;stroke-width:0.5" />
<path d="M68.712,941L72.712,941" style="fill:none;stroke:#000000;stroke-width:0.5" />
<path d="M68.712,1019.6L72.712,1019.6" style="fill:none;stroke:#000000;stroke-width:0.5" />
<path d="M72.712,80.11L72.712,1019.6" style="fill:none;stroke:#000000;stroke-width:0.5" />
<path d="M85.462,80.11L85.462,1019.6" style="fill:none;stroke:#808080;stroke-width:0.25" />
<path d="M285.41,80.11L285.41,1019.6" style="fill:none;stroke:#808080;stroke-width:0.25" />
<path d="M485.36,80.11L485.36,1019.6" style="fill:none;stroke:#808080;stroke-width:0.25" />
<path d="M685.31,80.11L685.31,1019.6" style="fill:none;stroke:#808080;stroke-width:0.25" />
<path d="M885.26,80.11L885.26,1019.6" style="fill:none;stroke:#808080;stroke-width:0.25" />
<path d="M1085.2,80.11L1085.2,1019.6" style="fill:none;stroke:#808080;stroke-width:0.25" />
<path d="M1285.2,80.11L1285.2,1019.6" style="fill:none;stroke:#808080;stroke-width:0.25" />
<path d="M1485.1,80.11L1485.1,1019.6" style="fill:none;stroke:#808080;stroke-width:0.25" />
<path d="M1685.1,80.11L1685.1,1019.6" style="fill:none;stroke:#808080;stroke-width:0.25" />
<path d="M1885,80.11L1885,1019.6" style="fill:none;stroke:#808080;stroke-width:0.25" />
<path d="M85.462,351.69L1885,351.69" style="fill:none;stroke:#808080;stroke-width:0.25" />
<path d="M85.462,782.14L1885,782.14" style="fill:none;stroke:#808080;stroke-width:0.25" />
<path d="M85.462,982.29L1885,982.29" style="fill:none;stroke:#808080;stroke-width:0.25" />
<path d="M85.462,80.11L285.41,80.11L485.36,80.11L685.31,80.11L885.26,80.11L1085.2,80.11L1285.2,80.11L1485.1,80.11L1685.1,80.11L1885,80.11" style="fill:none;stroke:#FF0000;stroke-width:4" />
<path d="M90.462,80.11A5,5 0 1 1 80.462,80.11A5,5 0 1 1 90.462,80.11Z" style="fill:#FF0000" />
<path d="M290.41,80.11A5,5 0 1 1 280.41,80.11A5,5 0 1 1 290.41,80.11Z" style="fill:#FF0000" />
<path d="M490.36,80.11A5,5 0 1 1 480.36,80.11A5,5 0 1 1 490.36,80.11Z" style="fill:#FF0000" />
<path d="M690.31,80.11A5,5 0 1 1 680.31,80.11A5,5 0 1 1 690.31,80.11Z" style="fill:#FF0000" />
<path d="M890.26,80.11A5,5 0 1 1 880.26,80.11A5,5 0 1 1 890.26,80.11Z" style="fill:#FF0000" />
<path d="M1090.2,80.11A5,5 0 1 1 1080.2,80.11A5,5 0 1 1 1090.2,80.11Z" style="fill:#FF0000" />
<path d="M1290.2,80.11A5,5 0 1 1 1280.2,80.11A5,5 0 1 1 1290.2,80.11Z" style="fill:#FF0000" />
<path d="M1490.1,80.11A5,5 0 1 1 1480.1,80.11A5,5 0 1 1 1490.1,80.11Z" style="fill:#FF0000" />
<path d="M1690.1,80.11A5,5 0 1 1 1680.1,80.11A5,5 0 1 1 1690.1,80.11Z" style="fill:#FF0000" />
<path d="M1890,80.11A5,5 0 1 1 1880,80.11A5,5 0 1 1 1890,80.11Z" style="fill:#FF0000" />
<path d="M85.462,80.11L285.41,80.11L485.36,80.11L685.31,80.11L885.26,80.11L1085.2,80.11L1285.2,80.11L1485.1,80.11L1685.1,80.11L1885,80.11" style="fill:none;stroke:#0000FF;stroke-width:4" />
<path d="M90.462,80.11A5,5 0 1 1 80.462,80.11A5,5 0 1 1 90.462,80.11Z" style="fill:#0000FF" />
<path d="M290.41,80.11A5,5 0 1 1 280.41,80.11A5,5 0 1 1 290.41,80.11Z" style="fill:#0000FF" />
<path d="M490.36,80.11A5,5 0 1 1 480.36,80.11A5,5 0 1 1 490.36,80.11Z" style="fill:#0000FF" />
<path d="M690.31,80.11A5,5 0 1 1 680.31,80.11A5,5 0 1 1 690.31,80.11Z" style="fill:#0000FF" />
<path d="M890.26,80.11A5,5 0 1 1 880.26,80.11A5,5 0 1 1 890.26,80.11Z" style="fill:#0000FF" />
<path d="M1090.2,80.11A5,5 0 1 1 1080.2,80.11A5,5 0 1 1 1090.2,80.11Z" style="fill:#0000FF" />
<path d="M1290.2,80.11A5,5 0 1 1 1280.2,80.11A5,5 0 1 1 1290.2,80.11Z" style="fill:#0000FF" />
<path d="M1490.1,80.11A5,5 0 1 1 1480.1,80.11A5,5 0 1 1 1490.1,80.11Z" style="fill:#0000FF" />
<path d="M1690.1,80.11A5,5 0 1 1 1680.1,80.11A5,5 0 1 1 1690.1,80.11Z" style="fill:#0000FF" />
<path d="M1890,80.11A5,5 0 1 1 1880,80.11A5,5 0 1 1 1890,80.11Z" style="fill:#0000FF" />
<path d="M85.462,1019.6L285.41,80.11L485.36,80.11L685.31,80.11L885.26,80.11L1085.2,80.11L1285.2,80.11L1485.1,80.11L1685.1,80.11L1885,80.11" style="fill:none;stroke:#00FF00;stroke-width:4" />
<path d="M90.462,1019.6A5,5 0 1 1 80.462,1019.6A5,5 0 1 1 90.462,1019.6Z" style="fill:#00FF00" />
<path d="M290.41,80.11A5,5 0 1 1 280.41,80.11A5,5 0 1 1 290.41,80.11Z" style="fill:#00FF00" />
<path d="M490.36,80.11A5,5 0 1 1 480.36,80.11A5,5 0 1 1 490.36,80.11Z" style="fill:#00FF00" />
<path d="M690.31,80.11A5,5 0 1 1 680.31,80.11A5,5 0 1 1 690.31,80.11Z" style="fill:#00FF00" />
<path d="M890.26,80.11A5,5 0 1 1 880.26,80.11A5,5 0 1 1 890.26,80.11Z" style="fill:#00FF00" />
<path d="M1090.2,80.11A5,5 0 1 1 1080.2,80.11A5,5 0 1 1 1090.2,80.11Z" style="fill:#00FF00" />
<path d="M1290.2,80.11A5,5 0 1 1 1280.2,80.11A5,5 0 1 1 1290.2,80.11Z" style="fill:#00FF00" />
<path d="M1490.1,80.11A5,5 0 1 1 1480.1,80.11A5,5 0 1 1 1490.1,80.11Z" style="fill:#00FF00" />
<path d="M1690.1,80.11A5,5 0 1 1 1680.1,80.11A5,5 0 1 1 1690.1,80.11Z" style="fill:#00FF00" />
<path d="M1890,80.11A5,5 0 1 1 1880,80.11A5,5 0 1 1 1890,80.11Z" style="fill:#00FF00" />
<path d="M1900,126.03L1920,126.03" style="fill:none;stroke:#FF0000;stroke-width:4" />
<path d="M1915,126.03A5,5 0 1 1 1905,126.03A5,5 0 1 1 1915,126.03Z" style="fill:#FF0000" />
<text x="1823.3" y="-121.05" transform="scale(1, -1)"
	style="font-family:Liberation Serif;font-variant:normal;font-weight:normal;font-style:normal;font-size:24px">std::list</text>
<path d="M1900,105.66L1920,105.66" style="fill:none;stroke:#0000FF;stroke-width:4" />
<path d="M1915,105.66A5,5 0 1 1 1905,105.66A5,5 0 1 1 1915,105.66Z" style="fill:#0000FF" />
<text x="1795.4" y="-100.69" transform="scale(1, -1)"
	style="font-family:Liberation Serif;font-variant:normal;font-weight:normal;font-style:normal;font-size:24px">std::deque</text>
<path d="M1900,85.294L1920,85.294" style="fill:none;stroke:#00FF00;stroke-width:4" />
<path d="M1915,85.294A5,5 0 1 1 1905,85.294A5,5 0 1 1 1915,85.294Z" style="fill:#00FF00" />
<text x="1792.7" y="-80.319" transform="scale(1, -1)"
	style="font-family:Liberation Serif;font-variant:normal;font-weight:normal;font-style:normal;font-size:24px">std::vector</text>
</g>
</svg>
