<?xml version="1.0"?>
<!-- Generated by SVGo and Plotinum VG -->
<svg width="1920pt" height="1080pt" viewBox="0 0 1920 1080"
	xmlns="http://www.w3.org/2000/svg"
	xmlns:xlink="http://www.w3.org/1999/xlink">
<g transform="scale(1, -1) translate(0, -1080)">
<path d="M0,0L1920,0L1920,1080L0,1080Z" style="fill:#FFFFFF" />
<text x="886.4" y="-1040.9" transform="scale(1, -1)"
	style="font-family:Liberation Serif;font-variant:normal;font-weight:normal;font-style:normal;font-size:50px">destroy</text>
<text x="867.77" y="-9.7559" transform="scale(1, -1)"
	style="font-family:Liberation Serif;font-variant:normal;font-weight:normal;font-style:normal;font-size:30px">Number of elements</text>
<text x="65.462" y="-39.727" transform="scale(1, -1)"
	style="font-family:Liberation Serif;font-variant:normal;font-weight:normal;font-style:normal;font-size:20px">100000</text>
<text x="264.3" y="-39.727" transform="scale(1, -1)"
	style="font-family:Liberation Serif;font-variant:normal;font-weight:normal;font-style:normal;font-size:20px">200000</text>
<text x="463.14" y="-39.727" transform="scale(1, -1)"
	style="font-family:Liberation Serif;font-variant:normal;font-weight:normal;font-style:normal;font-size:20px">300000</text>
<text x="661.97" y="-39.727" transform="scale(1, -1)"
	style="font-family:Liberation Serif;font-variant:normal;font-weight:normal;font-style:normal;font-size:20px">400000</text>
<text x="860.81" y="-39.727" transform="scale(1, -1)"
	style="font-family:Liberation Serif;font-variant:normal;font-weight:normal;font-style:normal;font-size:20px">500000</text>
<text x="1059.6" y="-39.727" transform="scale(1, -1)"
	style="font-family:Liberation Serif;font-variant:normal;font-weight:normal;font-style:normal;font-size:20px">600000</text>
<text x="1258.5" y="-39.727" transform="scale(1, -1)"
	style="font-family:Liberation Serif;font-variant:normal;font-weight:normal;font-style:normal;font-size:20px">700000</text>
<text x="1457.3" y="-39.727" transform="scale(1, -1)"
	style="font-family:Liberation Serif;font-variant:normal;font-weight:normal;font-style:normal;font-size:20px">800000</text>
<text x="1656.2" y="-39.727" transform="scale(1, -1)"
	style="font-family:Liberation Serif;font-variant:normal;font-weight:normal;font-style:normal;font-size:20px">900000</text>
<text x="1850" y="-39.727" transform="scale(1, -1)"
	style="font-family:Liberation Serif;font-variant:normal;font-weight:normal;font-style:normal;font-size:20px">1000000</text>
<path d="M95.462,55.371L95.462,63.371" style="fill:none;stroke:#000000;stroke-width:0.5" />
<path d="M294.3,55.371L294.3,63.371" style="fill:none;stroke:#000000;stroke-width:0.5" />
<path d="M493.14,55.371L493.14,63.371" style="fill:none;stroke:#000000;stroke-width:0.5" />
<path d="M691.97,55.371L691.97,63.371" style="fill:none;stroke:#000000;stroke-width:0.5" />
<path d="M890.81,55.371L890.81,63.371" style="fill:none;stroke:#000000;stroke-width:0.5" />
<path d="M1089.6,55.371L1089.6,63.371" style="fill:none;stroke:#000000;stroke-width:0.5" />
<path d="M1288.5,55.371L1288.5,63.371" style="fill:none;stroke:#000000;stroke-width:0.5" />
<path d="M1487.3,55.371L1487.3,63.371" style="fill:none;stroke:#000000;stroke-width:0.5" />
<path d="M1686.2,55.371L1686.2,63.371" style="fill:none;stroke:#000000;stroke-width:0.5" />
<path d="M1885,55.371L1885,63.371" style="fill:none;stroke:#000000;stroke-width:0.5" />
<path d="M95.462,63.371L1885,63.371" style="fill:none;stroke:#000000;stroke-width:0.5" />
<g transform="rotate(90)">
<text x="538.49" y="23.467" transform="scale(1, -1)"
	style="font-family:Liberation Serif;font-variant:normal;font-weight:normal;font-style:normal;font-size:30px">μs</text>
</g>
<text x="59.712" y="-75.54" transform="scale(1, -1)"
	style="font-family:Liberation Serif;font-variant:normal;font-weight:normal;font-style:normal;font-size:20px">0</text>
<text x="39.712" y="-337.32" transform="scale(1, -1)"
	style="font-family:Liberation Serif;font-variant:normal;font-weight:normal;font-style:normal;font-size:20px">100</text>
<text x="39.712" y="-599.11" transform="scale(1, -1)"
	style="font-family:Liberation Serif;font-variant:normal;font-weight:normal;font-style:normal;font-size:20px">200</text>
<text x="39.712" y="-860.89" transform="scale(1, -1)"
	style="font-family:Liberation Serif;font-variant:normal;font-weight:normal;font-style:normal;font-size:20px">300</text>
<path d="M74.712,80.11L82.712,80.11" style="fill:none;stroke:#000000;stroke-width:0.5" />
<path d="M74.712,341.89L82.712,341.89" style="fill:none;stroke:#000000;stroke-width:0.5" />
<path d="M74.712,603.68L82.712,603.68" style="fill:none;stroke:#000000;stroke-width:0.5" />
<path d="M74.712,865.46L82.712,865.46" style="fill:none;stroke:#000000;stroke-width:0.5" />
<path d="M78.712,132.47L82.712,132.47" style="fill:none;stroke:#000000;stroke-width:0.5" />
<path d="M78.712,184.82L82.712,184.82" style="fill:none;stroke:#000000;stroke-width:0.5" />
<path d="M78.712,237.18L82.712,237.18" style="fill:none;stroke:#000000;stroke-width:0.5" />
<path d="M78.712,289.54L82.712,289.54" style="fill:none;stroke:#000000;stroke-width:0.5" />
<path d="M78.712,394.25L82.712,394.25" style="fill:none;stroke:#000000;stroke-width:0.5" />
<path d="M78.712,446.61L82.712,446.61" style="fill:none;stroke:#000000;stroke-width:0.5" />
<path d="M78.712,498.97L82.712,498.97" style="fill:none;stroke:#000000;stroke-width:0.5" />
<path d="M78.712,551.32L82.712,551.32" style="fill:none;stroke:#000000;stroke-width:0.5" />
<path d="M78.712,656.04L82.712,656.04" style="fill:none;stroke:#000000;stroke-width:0.5" />
<path d="M78.712,708.39L82.712,708.39" style="fill:none;stroke:#000000;stroke-width:0.5" />
<path d="M78.712,760.75L82.712,760.75" style="fill:none;stroke:#000000;stroke-width:0.5" />
<path d="M78.712,813.11L82.712,813.11" style="fill:none;stroke:#000000;stroke-width:0.5" />
<path d="M78.712,917.82L82.712,917.82" style="fill:none;stroke:#000000;stroke-width:0.5" />
<path d="M78.712,970.18L82.712,970.18" style="fill:none;stroke:#000000;stroke-width:0.5" />
<path d="M78.712,1022.5L82.712,1022.5" style="fill:none;stroke:#000000;stroke-width:0.5" />
<path d="M82.712,80.11L82.712,1024.6" style="fill:none;stroke:#000000;stroke-width:0.5" />
<path d="M95.462,80.11L95.462,1024.6" style="fill:none;stroke:#808080;stroke-width:0.25" />
<path d="M294.3,80.11L294.3,1024.6" style="fill:none;stroke:#808080;stroke-width:0.25" />
<path d="M493.14,80.11L493.14,1024.6" style="fill:none;stroke:#808080;stroke-width:0.25" />
<path d="M691.97,80.11L691.97,1024.6" style="fill:none;stroke:#808080;stroke-width:0.25" />
<path d="M890.81,80.11L890.81,1024.6" style="fill:none;stroke:#808080;stroke-width:0.25" />
<path d="M1089.6,80.11L1089.6,1024.6" style="fill:none;stroke:#808080;stroke-width:0.25" />
<path d="M1288.5,80.11L1288.5,1024.6" style="fill:none;stroke:#808080;stroke-width:0.25" />
<path d="M1487.3,80.11L1487.3,1024.6" style="fill:none;stroke:#808080;stroke-width:0.25" />
<path d="M1686.2,80.11L1686.2,1024.6" style="fill:none;stroke:#808080;stroke-width:0.25" />
<path d="M1885,80.11L1885,1024.6" style="fill:none;stroke:#808080;stroke-width:0.25" />
<path d="M95.462,80.11L1885,80.11" style="fill:none;stroke:#808080;stroke-width:0.25" />
<path d="M95.462,341.89L1885,341.89" style="fill:none;stroke:#808080;stroke-width:0.25" />
<path d="M95.462,603.68L1885,603.68" style="fill:none;stroke:#808080;stroke-width:0.25" />
<path d="M95.462,865.46L1885,865.46" style="fill:none;stroke:#808080;stroke-width:0.25" />
<path d="M95.462,80.11L294.3,80.11L493.14,80.11L691.97,80.11L890.81,80.11L1089.6,80.11L1288.5,80.11L1487.3,80.11L1686.2,80.11L1885,80.11" style="fill:none;stroke:#FF0000;stroke-width:4" />
<path d="M100.46,80.11A5,5 0 1 1 90.462,80.11A5,5 0 1 1 100.46,80.11Z" style="fill:#FF0000" />
<path d="M299.3,80.11A5,5 0 1 1 289.3,80.11A5,5 0 1 1 299.3,80.11Z" style="fill:#FF0000" />
<path d="M498.14,80.11A5,5 0 1 1 488.14,80.11A5,5 0 1 1 498.14,80.11Z" style="fill:#FF0000" />
<path d="M696.97,80.11A5,5 0 1 1 686.97,80.11A5,5 0 1 1 696.97,80.11Z" style="fill:#FF0000" />
<path d="M895.81,80.11A5,5 0 1 1 885.81,80.11A5,5 0 1 1 895.81,80.11Z" style="fill:#FF0000" />
<path d="M1094.6,80.11A5,5 0 1 1 1084.6,80.11A5,5 0 1 1 1094.6,80.11Z" style="fill:#FF0000" />
<path d="M1293.5,80.11A5,5 0 1 1 1283.5,80.11A5,5 0 1 1 1293.5,80.11Z" style="fill:#FF0000" />
<path d="M1492.3,80.11A5,5 0 1 1 1482.3,80.11A5,5 0 1 1 1492.3,80.11Z" style="fill:#FF0000" />
<path d="M1691.2,80.11A5,5 0 1 1 1681.2,80.11A5,5 0 1 1 1691.2,80.11Z" style="fill:#FF0000" />
<path d="M1890,80.11A5,5 0 1 1 1880,80.11A5,5 0 1 1 1890,80.11Z" style="fill:#FF0000" />
<path d="M95.462,938.76L294.3,80.11L493.14,80.11L691.97,80.11L890.81,80.11L1089.6,80.11L1288.5,80.11L1487.3,80.11L1686.2,80.11L1885,80.11" style="fill:none;stroke:#0000FF;stroke-width:4" />
<path d="M100.46,938.76A5,5 0 1 1 90.462,938.76A5,5 0 1 1 100.46,938.76Z" style="fill:#0000FF" />
<path d="M299.3,80.11A5,5 0 1 1 289.3,80.11A5,5 0 1 1 299.3,80.11Z" style="fill:#0000FF" />
<path d="M498.14,80.11A5,5 0 1 1 488.14,80.11A5,5 0 1 1 498.14,80.11Z" style="fill:#0000FF" />
<path d="M696.97,80.11A5,5 0 1 1 686.97,80.11A5,5 0 1 1 696.97,80.11Z" style="fill:#0000FF" />
<path d="M895.81,80.11A5,5 0 1 1 885.81,80.11A5,5 0 1 1 895.81,80.11Z" style="fill:#0000FF" />
<path d="M1094.6,80.11A5,5 0 1 1 1084.6,80.11A5,5 0 1 1 1094.6,80.11Z" style="fill:#0000FF" />
<path d="M1293.5,80.11A5,5 0 1 1 1283.5,80.11A5,5 0 1 1 1293.5,80.11Z" style="fill:#0000FF" />
<path d="M1492.3,80.11A5,5 0 1 1 1482.3,80.11A5,5 0 1 1 1492.3,80.11Z" style="fill:#0000FF" />
<path d="M1691.2,80.11A5,5 0 1 1 1681.2,80.11A5,5 0 1 1 1691.2,80.11Z" style="fill:#0000FF" />
<path d="M1890,80.11A5,5 0 1 1 1880,80.11A5,5 0 1 1 1890,80.11Z" style="fill:#0000FF" />
<path d="M95.462,80.11L294.3,80.11L493.14,80.11L691.97,80.11L890.81,80.11L1089.6,80.11L1288.5,80.11L1487.3,80.11L1686.2,80.11L1885,80.11" style="fill:none;stroke:#00FF00;stroke-width:4" />
<path d="M100.46,80.11A5,5 0 1 1 90.462,80.11A5,5 0 1 1 100.46,80.11Z" style="fill:#00FF00" />
<path d="M299.3,80.11A5,5 0 1 1 289.3,80.11A5,5 0 1 1 299.3,80.11Z" style="fill:#00FF00" />
<path d="M498.14,80.11A5,5 0 1 1 488.14,80.11A5,5 0 1 1 498.14,80.11Z" style="fill:#00FF00" />
<path d="M696.97,80.11A5,5 0 1 1 686.97,80.11A5,5 0 1 1 696.97,80.11Z" style="fill:#00FF00" />
<path d="M895.81,80.11A5,5 0 1 1 885.81,80.11A5,5 0 1 1 895.81,80.11Z" style="fill:#00FF00" />
<path d="M1094.6,80.11A5,5 0 1 1 1084.6,80.11A5,5 0 1 1 1094.6,80.11Z" style="fill:#00FF00" />
<path d="M1293.5,80.11A5,5 0 1 1 1283.5,80.11A5,5 0 1 1 1293.5,80.11Z" style="fill:#00FF00" />
<path d="M1492.3,80.11A5,5 0 1 1 1482.3,80.11A5,5 0 1 1 1492.3,80.11Z" style="fill:#00FF00" />
<path d="M1691.2,80.11A5,5 0 1 1 1681.2,80.11A5,5 0 1 1 1691.2,80.11Z" style="fill:#00FF00" />
<path d="M1890,80.11A5,5 0 1 1 1880,80.11A5,5 0 1 1 1890,80.11Z" style="fill:#00FF00" />
<path d="M1900,126.03L1920,126.03" style="fill:none;stroke:#FF0000;stroke-width:4" />
<path d="M1915,126.03A5,5 0 1 1 1905,126.03A5,5 0 1 1 1915,126.03Z" style="fill:#FF0000" />
<text x="1795.4" y="-121.05" transform="scale(1, -1)"
	style="font-family:Liberation Serif;font-variant:normal;font-weight:normal;font-style:normal;font-size:24px">std::deque</text>
<path d="M1900,105.66L1920,105.66" style="fill:none;stroke:#0000FF;stroke-width:4" />
<path d="M1915,105.66A5,5 0 1 1 1905,105.66A5,5 0 1 1 1915,105.66Z" style="fill:#0000FF" />
<text x="1792.7" y="-100.69" transform="scale(1, -1)"
	style="font-family:Liberation Serif;font-variant:normal;font-weight:normal;font-style:normal;font-size:24px">std::vector</text>
<path d="M1900,85.294L1920,85.294" style="fill:none;stroke:#00FF00;stroke-width:4" />
<path d="M1915,85.294A5,5 0 1 1 1905,85.294A5,5 0 1 1 1915,85.294Z" style="fill:#00FF00" />
<text x="1823.3" y="-80.319" transform="scale(1, -1)"
	style="font-family:Liberation Serif;font-variant:normal;font-weight:normal;font-style:normal;font-size:24px">std::list</text>
</g>
</svg>
