<?xml version="1.0"?>
<!-- Generated by SVGo and Plotinum VG -->
<svg width="1920pt" height="1080pt" viewBox="0 0 1920 1080"
	xmlns="http://www.w3.org/2000/svg"
	xmlns:xlink="http://www.w3.org/1999/xlink">
<g transform="scale(1, -1) translate(0, -1080)">
<path d="M0,0L1920,0L1920,1080L0,1080Z" style="fill:#FFFFFF" />
<text x="886.4" y="-1040.9" transform="scale(1, -1)"
	style="font-family:Liberation Serif;font-variant:normal;font-weight:normal;font-style:normal;font-size:50px">destroy</text>
<text x="877.77" y="-9.7559" transform="scale(1, -1)"
	style="font-family:Liberation Serif;font-variant:normal;font-weight:normal;font-style:normal;font-size:30px">Number of elements</text>
<text x="85.462" y="-39.727" transform="scale(1, -1)"
	style="font-family:Liberation Serif;font-variant:normal;font-weight:normal;font-style:normal;font-size:20px">100000</text>
<text x="282.08" y="-39.727" transform="scale(1, -1)"
	style="font-family:Liberation Serif;font-variant:normal;font-weight:normal;font-style:normal;font-size:20px">200000</text>
<text x="478.69" y="-39.727" transform="scale(1, -1)"
	style="font-family:Liberation Serif;font-variant:normal;font-weight:normal;font-style:normal;font-size:20px">300000</text>
<text x="675.31" y="-39.727" transform="scale(1, -1)"
	style="font-family:Liberation Serif;font-variant:normal;font-weight:normal;font-style:normal;font-size:20px">400000</text>
<text x="871.92" y="-39.727" transform="scale(1, -1)"
	style="font-family:Liberation Serif;font-variant:normal;font-weight:normal;font-style:normal;font-size:20px">500000</text>
<text x="1068.5" y="-39.727" transform="scale(1, -1)"
	style="font-family:Liberation Serif;font-variant:normal;font-weight:normal;font-style:normal;font-size:20px">600000</text>
<text x="1265.2" y="-39.727" transform="scale(1, -1)"
	style="font-family:Liberation Serif;font-variant:normal;font-weight:normal;font-style:normal;font-size:20px">700000</text>
<text x="1461.8" y="-39.727" transform="scale(1, -1)"
	style="font-family:Liberation Serif;font-variant:normal;font-weight:normal;font-style:normal;font-size:20px">800000</text>
<text x="1658.4" y="-39.727" transform="scale(1, -1)"
	style="font-family:Liberation Serif;font-variant:normal;font-weight:normal;font-style:normal;font-size:20px">900000</text>
<text x="1850" y="-39.727" transform="scale(1, -1)"
	style="font-family:Liberation Serif;font-variant:normal;font-weight:normal;font-style:normal;font-size:20px">1000000</text>
<path d="M115.46,55.371L115.46,63.371" style="fill:none;stroke:#000000;stroke-width:0.5" />
<path d="M312.08,55.371L312.08,63.371" style="fill:none;stroke:#000000;stroke-width:0.5" />
<path d="M508.69,55.371L508.69,63.371" style="fill:none;stroke:#000000;stroke-width:0.5" />
<path d="M705.31,55.371L705.31,63.371" style="fill:none;stroke:#000000;stroke-width:0.5" />
<path d="M901.92,55.371L901.92,63.371" style="fill:none;stroke:#000000;stroke-width:0.5" />
<path d="M1098.5,55.371L1098.5,63.371" style="fill:none;stroke:#000000;stroke-width:0.5" />
<path d="M1295.2,55.371L1295.2,63.371" style="fill:none;stroke:#000000;stroke-width:0.5" />
<path d="M1491.8,55.371L1491.8,63.371" style="fill:none;stroke:#000000;stroke-width:0.5" />
<path d="M1688.4,55.371L1688.4,63.371" style="fill:none;stroke:#000000;stroke-width:0.5" />
<path d="M1885,55.371L1885,63.371" style="fill:none;stroke:#000000;stroke-width:0.5" />
<path d="M115.46,63.371L1885,63.371" style="fill:none;stroke:#000000;stroke-width:0.5" />
<g transform="rotate(90)">
<text x="537.4" y="23.467" transform="scale(1, -1)"
	style="font-family:Liberation Serif;font-variant:normal;font-weight:normal;font-style:normal;font-size:30px">μs</text>
</g>
<text x="79.712" y="-75.54" transform="scale(1, -1)"
	style="font-family:Liberation Serif;font-variant:normal;font-weight:normal;font-style:normal;font-size:20px">0</text>
<text x="39.712" y="-542.26" transform="scale(1, -1)"
	style="font-family:Liberation Serif;font-variant:normal;font-weight:normal;font-style:normal;font-size:20px">30000</text>
<text x="39.712" y="-1009" transform="scale(1, -1)"
	style="font-family:Liberation Serif;font-variant:normal;font-weight:normal;font-style:normal;font-size:20px">60000</text>
<path d="M94.712,80.11L102.71,80.11" style="fill:none;stroke:#000000;stroke-width:0.5" />
<path d="M94.712,546.83L102.71,546.83" style="fill:none;stroke:#000000;stroke-width:0.5" />
<path d="M94.712,1013.6L102.71,1013.6" style="fill:none;stroke:#000000;stroke-width:0.5" />
<path d="M98.712,235.68L102.71,235.68" style="fill:none;stroke:#000000;stroke-width:0.5" />
<path d="M98.712,391.26L102.71,391.26" style="fill:none;stroke:#000000;stroke-width:0.5" />
<path d="M98.712,702.41L102.71,702.41" style="fill:none;stroke:#000000;stroke-width:0.5" />
<path d="M98.712,857.98L102.71,857.98" style="fill:none;stroke:#000000;stroke-width:0.5" />
<path d="M102.71,80.11L102.71,1022.4" style="fill:none;stroke:#000000;stroke-width:0.5" />
<path d="M115.46,80.11L115.46,1022.4" style="fill:none;stroke:#808080;stroke-width:0.25" />
<path d="M312.08,80.11L312.08,1022.4" style="fill:none;stroke:#808080;stroke-width:0.25" />
<path d="M508.69,80.11L508.69,1022.4" style="fill:none;stroke:#808080;stroke-width:0.25" />
<path d="M705.31,80.11L705.31,1022.4" style="fill:none;stroke:#808080;stroke-width:0.25" />
<path d="M901.92,80.11L901.92,1022.4" style="fill:none;stroke:#808080;stroke-width:0.25" />
<path d="M1098.5,80.11L1098.5,1022.4" style="fill:none;stroke:#808080;stroke-width:0.25" />
<path d="M1295.2,80.11L1295.2,1022.4" style="fill:none;stroke:#808080;stroke-width:0.25" />
<path d="M1491.8,80.11L1491.8,1022.4" style="fill:none;stroke:#808080;stroke-width:0.25" />
<path d="M1688.4,80.11L1688.4,1022.4" style="fill:none;stroke:#808080;stroke-width:0.25" />
<path d="M1885,80.11L1885,1022.4" style="fill:none;stroke:#808080;stroke-width:0.25" />
<path d="M115.46,80.11L1885,80.11" style="fill:none;stroke:#808080;stroke-width:0.25" />
<path d="M115.46,546.83L1885,546.83" style="fill:none;stroke:#808080;stroke-width:0.25" />
<path d="M115.46,1013.6L1885,1013.6" style="fill:none;stroke:#808080;stroke-width:0.25" />
<path d="M115.46,80.11L312.08,80.126L508.69,80.141L705.31,80.141L901.92,80.126L1098.5,80.126L1295.2,80.126L1491.8,80.141L1688.4,80.157L1885,80.173" style="fill:none;stroke:#FF0000;stroke-width:4" />
<path d="M120.46,80.11A5,5 0 1 1 110.46,80.11A5,5 0 1 1 120.46,80.11Z" style="fill:#FF0000" />
<path d="M317.08,80.126A5,5 0 1 1 307.08,80.126A5,5 0 1 1 317.08,80.126Z" style="fill:#FF0000" />
<path d="M513.69,80.141A5,5 0 1 1 503.69,80.141A5,5 0 1 1 513.69,80.141Z" style="fill:#FF0000" />
<path d="M710.31,80.141A5,5 0 1 1 700.31,80.141A5,5 0 1 1 710.31,80.141Z" style="fill:#FF0000" />
<path d="M906.92,80.126A5,5 0 1 1 896.92,80.126A5,5 0 1 1 906.92,80.126Z" style="fill:#FF0000" />
<path d="M1103.5,80.126A5,5 0 1 1 1093.5,80.126A5,5 0 1 1 1103.5,80.126Z" style="fill:#FF0000" />
<path d="M1300.2,80.126A5,5 0 1 1 1290.2,80.126A5,5 0 1 1 1300.2,80.126Z" style="fill:#FF0000" />
<path d="M1496.8,80.141A5,5 0 1 1 1486.8,80.141A5,5 0 1 1 1496.8,80.141Z" style="fill:#FF0000" />
<path d="M1693.4,80.157A5,5 0 1 1 1683.4,80.157A5,5 0 1 1 1693.4,80.157Z" style="fill:#FF0000" />
<path d="M1890,80.173A5,5 0 1 1 1880,80.173A5,5 0 1 1 1890,80.173Z" style="fill:#FF0000" />
<path d="M115.46,143.79L312.08,219.92L508.69,266.05L705.31,342.33L901.92,436.44L1098.5,520.12L1295.2,611.91L1491.8,711.79L1688.4,716.1L1885,936.78" style="fill:none;stroke:#0000FF;stroke-width:4" />
<path d="M120.46,143.79A5,5 0 1 1 110.46,143.79A5,5 0 1 1 120.46,143.79Z" style="fill:#0000FF" />
<path d="M317.08,219.92A5,5 0 1 1 307.08,219.92A5,5 0 1 1 317.08,219.92Z" style="fill:#0000FF" />
<path d="M513.69,266.05A5,5 0 1 1 503.69,266.05A5,5 0 1 1 513.69,266.05Z" style="fill:#0000FF" />
<path d="M710.31,342.33A5,5 0 1 1 700.31,342.33A5,5 0 1 1 710.31,342.33Z" style="fill:#0000FF" />
<path d="M906.92,436.44A5,5 0 1 1 896.92,436.44A5,5 0 1 1 906.92,436.44Z" style="fill:#0000FF" />
<path d="M1103.5,520.12A5,5 0 1 1 1093.5,520.12A5,5 0 1 1 1103.5,520.12Z" style="fill:#0000FF" />
<path d="M1300.2,611.91A5,5 0 1 1 1290.2,611.91A5,5 0 1 1 1300.2,611.91Z" style="fill:#0000FF" />
<path d="M1496.8,711.79A5,5 0 1 1 1486.8,711.79A5,5 0 1 1 1496.8,711.79Z" style="fill:#0000FF" />
<path d="M1693.4,716.1A5,5 0 1 1 1683.4,716.1A5,5 0 1 1 1693.4,716.1Z" style="fill:#0000FF" />
<path d="M1890,936.78A5,5 0 1 1 1880,936.78A5,5 0 1 1 1890,936.78Z" style="fill:#0000FF" />
<path d="M115.46,94.532L312.08,94.423L508.69,100.88L705.31,108.18L901.92,125.96L1098.5,142.04L1295.2,164.42L1491.8,184.11L1688.4,215.38L1885,212.15" style="fill:none;stroke:#00FF00;stroke-width:4" />
<path d="M120.46,94.532A5,5 0 1 1 110.46,94.532A5,5 0 1 1 120.46,94.532Z" style="fill:#00FF00" />
<path d="M317.08,94.423A5,5 0 1 1 307.08,94.423A5,5 0 1 1 317.08,94.423Z" style="fill:#00FF00" />
<path d="M513.69,100.88A5,5 0 1 1 503.69,100.88A5,5 0 1 1 513.69,100.88Z" style="fill:#00FF00" />
<path d="M710.31,108.18A5,5 0 1 1 700.31,108.18A5,5 0 1 1 710.31,108.18Z" style="fill:#00FF00" />
<path d="M906.92,125.96A5,5 0 1 1 896.92,125.96A5,5 0 1 1 906.92,125.96Z" style="fill:#00FF00" />
<path d="M1103.5,142.04A5,5 0 1 1 1093.5,142.04A5,5 0 1 1 1103.5,142.04Z" style="fill:#00FF00" />
<path d="M1300.2,164.42A5,5 0 1 1 1290.2,164.42A5,5 0 1 1 1300.2,164.42Z" style="fill:#00FF00" />
<path d="M1496.8,184.11A5,5 0 1 1 1486.8,184.11A5,5 0 1 1 1496.8,184.11Z" style="fill:#00FF00" />
<path d="M1693.4,215.38A5,5 0 1 1 1683.4,215.38A5,5 0 1 1 1693.4,215.38Z" style="fill:#00FF00" />
<path d="M1890,212.15A5,5 0 1 1 1880,212.15A5,5 0 1 1 1890,212.15Z" style="fill:#00FF00" />
<path d="M1900,126.03L1920,126.03" style="fill:none;stroke:#FF0000;stroke-width:4" />
<path d="M1915,126.03A5,5 0 1 1 1905,126.03A5,5 0 1 1 1915,126.03Z" style="fill:#FF0000" />
<text x="1792.7" y="-121.05" transform="scale(1, -1)"
	style="font-family:Liberation Serif;font-variant:normal;font-weight:normal;font-style:normal;font-size:24px">std::vector</text>
<path d="M1900,105.66L1920,105.66" style="fill:none;stroke:#0000FF;stroke-width:4" />
<path d="M1915,105.66A5,5 0 1 1 1905,105.66A5,5 0 1 1 1915,105.66Z" style="fill:#0000FF" />
<text x="1823.3" y="-100.69" transform="scale(1, -1)"
	style="font-family:Liberation Serif;font-variant:normal;font-weight:normal;font-style:normal;font-size:24px">std::list</text>
<path d="M1900,85.294L1920,85.294" style="fill:none;stroke:#00FF00;stroke-width:4" />
<path d="M1915,85.294A5,5 0 1 1 1905,85.294A5,5 0 1 1 1915,85.294Z" style="fill:#00FF00" />
<text x="1795.4" y="-80.319" transform="scale(1, -1)"
	style="font-family:Liberation Serif;font-variant:normal;font-weight:normal;font-style:normal;font-size:24px">std::deque</text>
</g>
</svg>
