<?xml version="1.0"?>
<!-- Generated by SVGo and Plotinum VG -->
<svg width="1920pt" height="1080pt" viewBox="0 0 1920 1080"
	xmlns="http://www.w3.org/2000/svg"
	xmlns:xlink="http://www.w3.org/1999/xlink">
<g transform="scale(1, -1) translate(0, -1080)">
<path d="M0,0L1920,0L1920,1080L0,1080Z" style="fill:#FFFFFF" />
<text x="886.4" y="-1040.9" transform="scale(1, -1)"
	style="font-family:Liberation Serif;font-variant:normal;font-weight:normal;font-style:normal;font-size:50px">destroy</text>
<text x="882.77" y="-9.7559" transform="scale(1, -1)"
	style="font-family:Liberation Serif;font-variant:normal;font-weight:normal;font-style:normal;font-size:30px">Number of elements</text>
<text x="95.462" y="-39.727" transform="scale(1, -1)"
	style="font-family:Liberation Serif;font-variant:normal;font-weight:normal;font-style:normal;font-size:20px">100000</text>
<text x="290.97" y="-39.727" transform="scale(1, -1)"
	style="font-family:Liberation Serif;font-variant:normal;font-weight:normal;font-style:normal;font-size:20px">200000</text>
<text x="486.47" y="-39.727" transform="scale(1, -1)"
	style="font-family:Liberation Serif;font-variant:normal;font-weight:normal;font-style:normal;font-size:20px">300000</text>
<text x="681.97" y="-39.727" transform="scale(1, -1)"
	style="font-family:Liberation Serif;font-variant:normal;font-weight:normal;font-style:normal;font-size:20px">400000</text>
<text x="877.48" y="-39.727" transform="scale(1, -1)"
	style="font-family:Liberation Serif;font-variant:normal;font-weight:normal;font-style:normal;font-size:20px">500000</text>
<text x="1073" y="-39.727" transform="scale(1, -1)"
	style="font-family:Liberation Serif;font-variant:normal;font-weight:normal;font-style:normal;font-size:20px">600000</text>
<text x="1268.5" y="-39.727" transform="scale(1, -1)"
	style="font-family:Liberation Serif;font-variant:normal;font-weight:normal;font-style:normal;font-size:20px">700000</text>
<text x="1464" y="-39.727" transform="scale(1, -1)"
	style="font-family:Liberation Serif;font-variant:normal;font-weight:normal;font-style:normal;font-size:20px">800000</text>
<text x="1659.5" y="-39.727" transform="scale(1, -1)"
	style="font-family:Liberation Serif;font-variant:normal;font-weight:normal;font-style:normal;font-size:20px">900000</text>
<text x="1850" y="-39.727" transform="scale(1, -1)"
	style="font-family:Liberation Serif;font-variant:normal;font-weight:normal;font-style:normal;font-size:20px">1000000</text>
<path d="M125.46,55.371L125.46,63.371" style="fill:none;stroke:#000000;stroke-width:0.5" />
<path d="M320.97,55.371L320.97,63.371" style="fill:none;stroke:#000000;stroke-width:0.5" />
<path d="M516.47,55.371L516.47,63.371" style="fill:none;stroke:#000000;stroke-width:0.5" />
<path d="M711.97,55.371L711.97,63.371" style="fill:none;stroke:#000000;stroke-width:0.5" />
<path d="M907.48,55.371L907.48,63.371" style="fill:none;stroke:#000000;stroke-width:0.5" />
<path d="M1103,55.371L1103,63.371" style="fill:none;stroke:#000000;stroke-width:0.5" />
<path d="M1298.5,55.371L1298.5,63.371" style="fill:none;stroke:#000000;stroke-width:0.5" />
<path d="M1494,55.371L1494,63.371" style="fill:none;stroke:#000000;stroke-width:0.5" />
<path d="M1689.5,55.371L1689.5,63.371" style="fill:none;stroke:#000000;stroke-width:0.5" />
<path d="M1885,55.371L1885,63.371" style="fill:none;stroke:#000000;stroke-width:0.5" />
<path d="M125.46,63.371L1885,63.371" style="fill:none;stroke:#000000;stroke-width:0.5" />
<g transform="rotate(90)">
<text x="538.49" y="23.467" transform="scale(1, -1)"
	style="font-family:Liberation Serif;font-variant:normal;font-weight:normal;font-style:normal;font-size:30px">μs</text>
</g>
<text x="49.712" y="-189.62" transform="scale(1, -1)"
	style="font-family:Liberation Serif;font-variant:normal;font-weight:normal;font-style:normal;font-size:20px">40000</text>
<text x="39.712" y="-531.87" transform="scale(1, -1)"
	style="font-family:Liberation Serif;font-variant:normal;font-weight:normal;font-style:normal;font-size:20px">160000</text>
<text x="39.712" y="-874.12" transform="scale(1, -1)"
	style="font-family:Liberation Serif;font-variant:normal;font-weight:normal;font-style:normal;font-size:20px">280000</text>
<path d="M104.71,194.19L112.71,194.19" style="fill:none;stroke:#000000;stroke-width:0.5" />
<path d="M104.71,536.44L112.71,536.44" style="fill:none;stroke:#000000;stroke-width:0.5" />
<path d="M104.71,878.69L112.71,878.69" style="fill:none;stroke:#000000;stroke-width:0.5" />
<path d="M108.71,365.31L112.71,365.31" style="fill:none;stroke:#000000;stroke-width:0.5" />
<path d="M108.71,707.56L112.71,707.56" style="fill:none;stroke:#000000;stroke-width:0.5" />
<path d="M112.71,80.11L112.71,1024.6" style="fill:none;stroke:#000000;stroke-width:0.5" />
<path d="M125.46,80.11L125.46,1024.6" style="fill:none;stroke:#808080;stroke-width:0.25" />
<path d="M320.97,80.11L320.97,1024.6" style="fill:none;stroke:#808080;stroke-width:0.25" />
<path d="M516.47,80.11L516.47,1024.6" style="fill:none;stroke:#808080;stroke-width:0.25" />
<path d="M711.97,80.11L711.97,1024.6" style="fill:none;stroke:#808080;stroke-width:0.25" />
<path d="M907.48,80.11L907.48,1024.6" style="fill:none;stroke:#808080;stroke-width:0.25" />
<path d="M1103,80.11L1103,1024.6" style="fill:none;stroke:#808080;stroke-width:0.25" />
<path d="M1298.5,80.11L1298.5,1024.6" style="fill:none;stroke:#808080;stroke-width:0.25" />
<path d="M1494,80.11L1494,1024.6" style="fill:none;stroke:#808080;stroke-width:0.25" />
<path d="M1689.5,80.11L1689.5,1024.6" style="fill:none;stroke:#808080;stroke-width:0.25" />
<path d="M1885,80.11L1885,1024.6" style="fill:none;stroke:#808080;stroke-width:0.25" />
<path d="M125.46,194.19L1885,194.19" style="fill:none;stroke:#808080;stroke-width:0.25" />
<path d="M125.46,536.44L1885,536.44" style="fill:none;stroke:#808080;stroke-width:0.25" />
<path d="M125.46,878.69L1885,878.69" style="fill:none;stroke:#808080;stroke-width:0.25" />
<path d="M125.46,128.51L320.97,194.16L516.47,240.35L711.97,453.2L907.48,394.92L1103,469.71L1298.5,560.66L1494,651.2L1689.5,938.76L1885,881.02" style="fill:none;stroke:#FF0000;stroke-width:4" />
<path d="M130.46,128.51A5,5 0 1 1 120.46,128.51A5,5 0 1 1 130.46,128.51Z" style="fill:#FF0000" />
<path d="M325.97,194.16A5,5 0 1 1 315.97,194.16A5,5 0 1 1 325.97,194.16Z" style="fill:#FF0000" />
<path d="M521.47,240.35A5,5 0 1 1 511.47,240.35A5,5 0 1 1 521.47,240.35Z" style="fill:#FF0000" />
<path d="M716.97,453.2A5,5 0 1 1 706.97,453.2A5,5 0 1 1 716.97,453.2Z" style="fill:#FF0000" />
<path d="M912.48,394.92A5,5 0 1 1 902.48,394.92A5,5 0 1 1 912.48,394.92Z" style="fill:#FF0000" />
<path d="M1108,469.71A5,5 0 1 1 1098,469.71A5,5 0 1 1 1108,469.71Z" style="fill:#FF0000" />
<path d="M1303.5,560.66A5,5 0 1 1 1293.5,560.66A5,5 0 1 1 1303.5,560.66Z" style="fill:#FF0000" />
<path d="M1499,651.2A5,5 0 1 1 1489,651.2A5,5 0 1 1 1499,651.2Z" style="fill:#FF0000" />
<path d="M1694.5,938.76A5,5 0 1 1 1684.5,938.76A5,5 0 1 1 1694.5,938.76Z" style="fill:#FF0000" />
<path d="M1890,881.02A5,5 0 1 1 1880,881.02A5,5 0 1 1 1890,881.02Z" style="fill:#FF0000" />
<path d="M125.46,130.23L320.97,209.62L516.47,294.13L711.97,339.15L907.48,382.56L1103,444.19L1298.5,474.17L1494,762.18L1689.5,585.01L1885,607.4" style="fill:none;stroke:#0000FF;stroke-width:4" />
<path d="M130.46,130.23A5,5 0 1 1 120.46,130.23A5,5 0 1 1 130.46,130.23Z" style="fill:#0000FF" />
<path d="M325.97,209.62A5,5 0 1 1 315.97,209.62A5,5 0 1 1 325.97,209.62Z" style="fill:#0000FF" />
<path d="M521.47,294.13A5,5 0 1 1 511.47,294.13A5,5 0 1 1 521.47,294.13Z" style="fill:#0000FF" />
<path d="M716.97,339.15A5,5 0 1 1 706.97,339.15A5,5 0 1 1 716.97,339.15Z" style="fill:#0000FF" />
<path d="M912.48,382.56A5,5 0 1 1 902.48,382.56A5,5 0 1 1 912.48,382.56Z" style="fill:#0000FF" />
<path d="M1108,444.19A5,5 0 1 1 1098,444.19A5,5 0 1 1 1108,444.19Z" style="fill:#0000FF" />
<path d="M1303.5,474.17A5,5 0 1 1 1293.5,474.17A5,5 0 1 1 1303.5,474.17Z" style="fill:#0000FF" />
<path d="M1499,762.18A5,5 0 1 1 1489,762.18A5,5 0 1 1 1499,762.18Z" style="fill:#0000FF" />
<path d="M1694.5,585.01A5,5 0 1 1 1684.5,585.01A5,5 0 1 1 1694.5,585.01Z" style="fill:#0000FF" />
<path d="M1890,607.4A5,5 0 1 1 1880,607.4A5,5 0 1 1 1890,607.4Z" style="fill:#0000FF" />
<path d="M125.46,80.125L320.97,80.11L516.47,80.11L711.97,80.11L907.48,80.113L1103,80.11L1298.5,80.113L1494,80.11L1689.5,80.113L1885,80.119" style="fill:none;stroke:#00FF00;stroke-width:4" />
<path d="M130.46,80.125A5,5 0 1 1 120.46,80.125A5,5 0 1 1 130.46,80.125Z" style="fill:#00FF00" />
<path d="M325.97,80.11A5,5 0 1 1 315.97,80.11A5,5 0 1 1 325.97,80.11Z" style="fill:#00FF00" />
<path d="M521.47,80.11A5,5 0 1 1 511.47,80.11A5,5 0 1 1 521.47,80.11Z" style="fill:#00FF00" />
<path d="M716.97,80.11A5,5 0 1 1 706.97,80.11A5,5 0 1 1 716.97,80.11Z" style="fill:#00FF00" />
<path d="M912.48,80.113A5,5 0 1 1 902.48,80.113A5,5 0 1 1 912.48,80.113Z" style="fill:#00FF00" />
<path d="M1108,80.11A5,5 0 1 1 1098,80.11A5,5 0 1 1 1108,80.11Z" style="fill:#00FF00" />
<path d="M1303.5,80.113A5,5 0 1 1 1293.5,80.113A5,5 0 1 1 1303.5,80.113Z" style="fill:#00FF00" />
<path d="M1499,80.11A5,5 0 1 1 1489,80.11A5,5 0 1 1 1499,80.11Z" style="fill:#00FF00" />
<path d="M1694.5,80.113A5,5 0 1 1 1684.5,80.113A5,5 0 1 1 1694.5,80.113Z" style="fill:#00FF00" />
<path d="M1890,80.119A5,5 0 1 1 1880,80.119A5,5 0 1 1 1890,80.119Z" style="fill:#00FF00" />
<path d="M1900,126.03L1920,126.03" style="fill:none;stroke:#FF0000;stroke-width:4" />
<path d="M1915,126.03A5,5 0 1 1 1905,126.03A5,5 0 1 1 1915,126.03Z" style="fill:#FF0000" />
<text x="1823.3" y="-121.05" transform="scale(1, -1)"
	style="font-family:Liberation Serif;font-variant:normal;font-weight:normal;font-style:normal;font-size:24px">std::list</text>
<path d="M1900,105.66L1920,105.66" style="fill:none;stroke:#0000FF;stroke-width:4" />
<path d="M1915,105.66A5,5 0 1 1 1905,105.66A5,5 0 1 1 1915,105.66Z" style="fill:#0000FF" />
<text x="1795.4" y="-100.69" transform="scale(1, -1)"
	style="font-family:Liberation Serif;font-variant:normal;font-weight:normal;font-style:normal;font-size:24px">std::deque</text>
<path d="M1900,85.294L1920,85.294" style="fill:none;stroke:#00FF00;stroke-width:4" />
<path d="M1915,85.294A5,5 0 1 1 1905,85.294A5,5 0 1 1 1915,85.294Z" style="fill:#00FF00" />
<text x="1792.7" y="-80.319" transform="scale(1, -1)"
	style="font-family:Liberation Serif;font-variant:normal;font-weight:normal;font-style:normal;font-size:24px">std::vector</text>
</g>
</svg>
