<?xml version="1.0"?>
<!-- Generated by SVGo and Plotinum VG -->
<svg width="1920pt" height="1080pt" viewBox="0 0 1920 1080"
	xmlns="http://www.w3.org/2000/svg"
	xmlns:xlink="http://www.w3.org/1999/xlink">
<g transform="scale(1, -1) translate(0, -1080)">
<path d="M0,0L1920,0L1920,1080L0,1080Z" style="fill:#FFFFFF" />
<text x="886.4" y="-1040.9" transform="scale(1, -1)"
	style="font-family:Liberation Serif;font-variant:normal;font-weight:normal;font-style:normal;font-size:50px">destroy</text>
<text x="895.27" y="-9.7559" transform="scale(1, -1)"
	style="font-family:Liberation Serif;font-variant:normal;font-weight:normal;font-style:normal;font-size:30px">Number of elements</text>
<text x="120.46" y="-39.727" transform="scale(1, -1)"
	style="font-family:Liberation Serif;font-variant:normal;font-weight:normal;font-style:normal;font-size:20px">100000</text>
<text x="313.19" y="-39.727" transform="scale(1, -1)"
	style="font-family:Liberation Serif;font-variant:normal;font-weight:normal;font-style:normal;font-size:20px">200000</text>
<text x="505.91" y="-39.727" transform="scale(1, -1)"
	style="font-family:Liberation Serif;font-variant:normal;font-weight:normal;font-style:normal;font-size:20px">300000</text>
<text x="698.64" y="-39.727" transform="scale(1, -1)"
	style="font-family:Liberation Serif;font-variant:normal;font-weight:normal;font-style:normal;font-size:20px">400000</text>
<text x="891.37" y="-39.727" transform="scale(1, -1)"
	style="font-family:Liberation Serif;font-variant:normal;font-weight:normal;font-style:normal;font-size:20px">500000</text>
<text x="1084.1" y="-39.727" transform="scale(1, -1)"
	style="font-family:Liberation Serif;font-variant:normal;font-weight:normal;font-style:normal;font-size:20px">600000</text>
<text x="1276.8" y="-39.727" transform="scale(1, -1)"
	style="font-family:Liberation Serif;font-variant:normal;font-weight:normal;font-style:normal;font-size:20px">700000</text>
<text x="1469.5" y="-39.727" transform="scale(1, -1)"
	style="font-family:Liberation Serif;font-variant:normal;font-weight:normal;font-style:normal;font-size:20px">800000</text>
<text x="1662.3" y="-39.727" transform="scale(1, -1)"
	style="font-family:Liberation Serif;font-variant:normal;font-weight:normal;font-style:normal;font-size:20px">900000</text>
<text x="1850" y="-39.727" transform="scale(1, -1)"
	style="font-family:Liberation Serif;font-variant:normal;font-weight:normal;font-style:normal;font-size:20px">1000000</text>
<path d="M150.46,55.371L150.46,63.371" style="fill:none;stroke:#000000;stroke-width:0.5" />
<path d="M343.19,55.371L343.19,63.371" style="fill:none;stroke:#000000;stroke-width:0.5" />
<path d="M535.91,55.371L535.91,63.371" style="fill:none;stroke:#000000;stroke-width:0.5" />
<path d="M728.64,55.371L728.64,63.371" style="fill:none;stroke:#000000;stroke-width:0.5" />
<path d="M921.37,55.371L921.37,63.371" style="fill:none;stroke:#000000;stroke-width:0.5" />
<path d="M1114.1,55.371L1114.1,63.371" style="fill:none;stroke:#000000;stroke-width:0.5" />
<path d="M1306.8,55.371L1306.8,63.371" style="fill:none;stroke:#000000;stroke-width:0.5" />
<path d="M1499.5,55.371L1499.5,63.371" style="fill:none;stroke:#000000;stroke-width:0.5" />
<path d="M1692.3,55.371L1692.3,63.371" style="fill:none;stroke:#000000;stroke-width:0.5" />
<path d="M1885,55.371L1885,63.371" style="fill:none;stroke:#000000;stroke-width:0.5" />
<path d="M150.46,63.371L1885,63.371" style="fill:none;stroke:#000000;stroke-width:0.5" />
<g transform="rotate(90)">
<text x="538.49" y="23.467" transform="scale(1, -1)"
	style="font-family:Liberation Serif;font-variant:normal;font-weight:normal;font-style:normal;font-size:30px">μs</text>
</g>
<text x="49.712" y="-172.92" transform="scale(1, -1)"
	style="font-family:Liberation Serif;font-variant:normal;font-weight:normal;font-style:normal;font-size:20px">25000.00</text>
<text x="39.712" y="-562.51" transform="scale(1, -1)"
	style="font-family:Liberation Serif;font-variant:normal;font-weight:normal;font-style:normal;font-size:20px">125000.00</text>
<text x="39.712" y="-952.1" transform="scale(1, -1)"
	style="font-family:Liberation Serif;font-variant:normal;font-weight:normal;font-style:normal;font-size:20px">225000.00</text>
<path d="M129.71,177.5L137.71,177.5" style="fill:none;stroke:#000000;stroke-width:0.5" />
<path d="M129.71,567.08L137.71,567.08" style="fill:none;stroke:#000000;stroke-width:0.5" />
<path d="M129.71,956.67L137.71,956.67" style="fill:none;stroke:#000000;stroke-width:0.5" />
<path d="M133.71,372.29L137.71,372.29" style="fill:none;stroke:#000000;stroke-width:0.5" />
<path d="M133.71,761.87L137.71,761.87" style="fill:none;stroke:#000000;stroke-width:0.5" />
<path d="M137.71,80.11L137.71,1024.6" style="fill:none;stroke:#000000;stroke-width:0.5" />
<path d="M150.46,80.11L150.46,1024.6" style="fill:none;stroke:#808080;stroke-width:0.25" />
<path d="M343.19,80.11L343.19,1024.6" style="fill:none;stroke:#808080;stroke-width:0.25" />
<path d="M535.91,80.11L535.91,1024.6" style="fill:none;stroke:#808080;stroke-width:0.25" />
<path d="M728.64,80.11L728.64,1024.6" style="fill:none;stroke:#808080;stroke-width:0.25" />
<path d="M921.37,80.11L921.37,1024.6" style="fill:none;stroke:#808080;stroke-width:0.25" />
<path d="M1114.1,80.11L1114.1,1024.6" style="fill:none;stroke:#808080;stroke-width:0.25" />
<path d="M1306.8,80.11L1306.8,1024.6" style="fill:none;stroke:#808080;stroke-width:0.25" />
<path d="M1499.5,80.11L1499.5,1024.6" style="fill:none;stroke:#808080;stroke-width:0.25" />
<path d="M1692.3,80.11L1692.3,1024.6" style="fill:none;stroke:#808080;stroke-width:0.25" />
<path d="M1885,80.11L1885,1024.6" style="fill:none;stroke:#808080;stroke-width:0.25" />
<path d="M150.46,177.5L1885,177.5" style="fill:none;stroke:#808080;stroke-width:0.25" />
<path d="M150.46,567.08L1885,567.08" style="fill:none;stroke:#808080;stroke-width:0.25" />
<path d="M150.46,956.67L1885,956.67" style="fill:none;stroke:#808080;stroke-width:0.25" />
<path d="M150.46,194.37L343.19,250.21L535.91,358.64L728.64,438.99L921.37,517.86L1114.1,617.14L1306.8,695.52L1499.5,760.82L1692.3,877.45L1885,938.76" style="fill:none;stroke:#FF0000;stroke-width:4" />
<path d="M155.46,194.37A5,5 0 1 1 145.46,194.37A5,5 0 1 1 155.46,194.37Z" style="fill:#FF0000" />
<path d="M348.19,250.21A5,5 0 1 1 338.19,250.21A5,5 0 1 1 348.19,250.21Z" style="fill:#FF0000" />
<path d="M540.91,358.64A5,5 0 1 1 530.91,358.64A5,5 0 1 1 540.91,358.64Z" style="fill:#FF0000" />
<path d="M733.64,438.99A5,5 0 1 1 723.64,438.99A5,5 0 1 1 733.64,438.99Z" style="fill:#FF0000" />
<path d="M926.37,517.86A5,5 0 1 1 916.37,517.86A5,5 0 1 1 926.37,517.86Z" style="fill:#FF0000" />
<path d="M1119.1,617.14A5,5 0 1 1 1109.1,617.14A5,5 0 1 1 1119.1,617.14Z" style="fill:#FF0000" />
<path d="M1311.8,695.52A5,5 0 1 1 1301.8,695.52A5,5 0 1 1 1311.8,695.52Z" style="fill:#FF0000" />
<path d="M1504.5,760.82A5,5 0 1 1 1494.5,760.82A5,5 0 1 1 1504.5,760.82Z" style="fill:#FF0000" />
<path d="M1697.3,877.45A5,5 0 1 1 1687.3,877.45A5,5 0 1 1 1697.3,877.45Z" style="fill:#FF0000" />
<path d="M1890,938.76A5,5 0 1 1 1880,938.76A5,5 0 1 1 1890,938.76Z" style="fill:#FF0000" />
<path d="M150.46,173.56L343.19,247.13L535.91,323.48L728.64,358.64L921.37,428.86L1114.1,479.02L1306.8,627.66L1499.5,591.1L1692.3,639.93L1885,764.26" style="fill:none;stroke:#0000FF;stroke-width:4" />
<path d="M155.46,173.56A5,5 0 1 1 145.46,173.56A5,5 0 1 1 155.46,173.56Z" style="fill:#0000FF" />
<path d="M348.19,247.13A5,5 0 1 1 338.19,247.13A5,5 0 1 1 348.19,247.13Z" style="fill:#0000FF" />
<path d="M540.91,323.48A5,5 0 1 1 530.91,323.48A5,5 0 1 1 540.91,323.48Z" style="fill:#0000FF" />
<path d="M733.64,358.64A5,5 0 1 1 723.64,358.64A5,5 0 1 1 733.64,358.64Z" style="fill:#0000FF" />
<path d="M926.37,428.86A5,5 0 1 1 916.37,428.86A5,5 0 1 1 926.37,428.86Z" style="fill:#0000FF" />
<path d="M1119.1,479.02A5,5 0 1 1 1109.1,479.02A5,5 0 1 1 1119.1,479.02Z" style="fill:#0000FF" />
<path d="M1311.8,627.66A5,5 0 1 1 1301.8,627.66A5,5 0 1 1 1311.8,627.66Z" style="fill:#0000FF" />
<path d="M1504.5,591.1A5,5 0 1 1 1494.5,591.1A5,5 0 1 1 1504.5,591.1Z" style="fill:#0000FF" />
<path d="M1697.3,639.93A5,5 0 1 1 1687.3,639.93A5,5 0 1 1 1697.3,639.93Z" style="fill:#0000FF" />
<path d="M1890,764.26A5,5 0 1 1 1880,764.26A5,5 0 1 1 1890,764.26Z" style="fill:#0000FF" />
<path d="M150.46,80.11L343.19,80.114L535.91,80.11L728.64,80.114L921.37,80.114L1114.1,80.114L1306.8,80.114L1499.5,80.11L1692.3,80.11L1885,80.11" style="fill:none;stroke:#00FF00;stroke-width:4" />
<path d="M155.46,80.11A5,5 0 1 1 145.46,80.11A5,5 0 1 1 155.46,80.11Z" style="fill:#00FF00" />
<path d="M348.19,80.114A5,5 0 1 1 338.19,80.114A5,5 0 1 1 348.19,80.114Z" style="fill:#00FF00" />
<path d="M540.91,80.11A5,5 0 1 1 530.91,80.11A5,5 0 1 1 540.91,80.11Z" style="fill:#00FF00" />
<path d="M733.64,80.114A5,5 0 1 1 723.64,80.114A5,5 0 1 1 733.64,80.114Z" style="fill:#00FF00" />
<path d="M926.37,80.114A5,5 0 1 1 916.37,80.114A5,5 0 1 1 926.37,80.114Z" style="fill:#00FF00" />
<path d="M1119.1,80.114A5,5 0 1 1 1109.1,80.114A5,5 0 1 1 1119.1,80.114Z" style="fill:#00FF00" />
<path d="M1311.8,80.114A5,5 0 1 1 1301.8,80.114A5,5 0 1 1 1311.8,80.114Z" style="fill:#00FF00" />
<path d="M1504.5,80.11A5,5 0 1 1 1494.5,80.11A5,5 0 1 1 1504.5,80.11Z" style="fill:#00FF00" />
<path d="M1697.3,80.11A5,5 0 1 1 1687.3,80.11A5,5 0 1 1 1697.3,80.11Z" style="fill:#00FF00" />
<path d="M1890,80.11A5,5 0 1 1 1880,80.11A5,5 0 1 1 1890,80.11Z" style="fill:#00FF00" />
<path d="M1900,126.03L1920,126.03" style="fill:none;stroke:#FF0000;stroke-width:4" />
<path d="M1915,126.03A5,5 0 1 1 1905,126.03A5,5 0 1 1 1915,126.03Z" style="fill:#FF0000" />
<text x="1823.3" y="-121.05" transform="scale(1, -1)"
	style="font-family:Liberation Serif;font-variant:normal;font-weight:normal;font-style:normal;font-size:24px">std::list</text>
<path d="M1900,105.66L1920,105.66" style="fill:none;stroke:#0000FF;stroke-width:4" />
<path d="M1915,105.66A5,5 0 1 1 1905,105.66A5,5 0 1 1 1915,105.66Z" style="fill:#0000FF" />
<text x="1795.4" y="-100.69" transform="scale(1, -1)"
	style="font-family:Liberation Serif;font-variant:normal;font-weight:normal;font-style:normal;font-size:24px">std::deque</text>
<path d="M1900,85.294L1920,85.294" style="fill:none;stroke:#00FF00;stroke-width:4" />
<path d="M1915,85.294A5,5 0 1 1 1905,85.294A5,5 0 1 1 1915,85.294Z" style="fill:#00FF00" />
<text x="1792.7" y="-80.319" transform="scale(1, -1)"
	style="font-family:Liberation Serif;font-variant:normal;font-weight:normal;font-style:normal;font-size:24px">std::vector</text>
</g>
</svg>
