<?xml version="1.0"?>
<!-- Generated by SVGo and Plotinum VG -->
<svg width="1920pt" height="1080pt" viewBox="0 0 1920 1080"
	xmlns="http://www.w3.org/2000/svg"
	xmlns:xlink="http://www.w3.org/1999/xlink">
<g transform="scale(1, -1) translate(0, -1080)">
<path d="M0,0L1920,0L1920,1080L0,1080Z" style="fill:#FFFFFF" />
<text x="764.92" y="-1040.9" transform="scale(1, -1)"
	style="font-family:Liberation Serif;font-variant:normal;font-weight:normal;font-style:normal;font-size:50px">destroy - Log Scale</text>
<text x="877.77" y="-9.7559" transform="scale(1, -1)"
	style="font-family:Liberation Serif;font-variant:normal;font-weight:normal;font-style:normal;font-size:30px">Number of elements</text>
<text x="85.462" y="-39.727" transform="scale(1, -1)"
	style="font-family:Liberation Serif;font-variant:normal;font-weight:normal;font-style:normal;font-size:20px">100000</text>
<text x="282.08" y="-39.727" transform="scale(1, -1)"
	style="font-family:Liberation Serif;font-variant:normal;font-weight:normal;font-style:normal;font-size:20px">200000</text>
<text x="478.69" y="-39.727" transform="scale(1, -1)"
	style="font-family:Liberation Serif;font-variant:normal;font-weight:normal;font-style:normal;font-size:20px">300000</text>
<text x="675.31" y="-39.727" transform="scale(1, -1)"
	style="font-family:Liberation Serif;font-variant:normal;font-weight:normal;font-style:normal;font-size:20px">400000</text>
<text x="871.92" y="-39.727" transform="scale(1, -1)"
	style="font-family:Liberation Serif;font-variant:normal;font-weight:normal;font-style:normal;font-size:20px">500000</text>
<text x="1068.5" y="-39.727" transform="scale(1, -1)"
	style="font-family:Liberation Serif;font-variant:normal;font-weight:normal;font-style:normal;font-size:20px">600000</text>
<text x="1265.2" y="-39.727" transform="scale(1, -1)"
	style="font-family:Liberation Serif;font-variant:normal;font-weight:normal;font-style:normal;font-size:20px">700000</text>
<text x="1461.8" y="-39.727" transform="scale(1, -1)"
	style="font-family:Liberation Serif;font-variant:normal;font-weight:normal;font-style:normal;font-size:20px">800000</text>
<text x="1658.4" y="-39.727" transform="scale(1, -1)"
	style="font-family:Liberation Serif;font-variant:normal;font-weight:normal;font-style:normal;font-size:20px">900000</text>
<text x="1850" y="-39.727" transform="scale(1, -1)"
	style="font-family:Liberation Serif;font-variant:normal;font-weight:normal;font-style:normal;font-size:20px">1000000</text>
<path d="M115.46,55.371L115.46,63.371" style="fill:none;stroke:#000000;stroke-width:0.5" />
<path d="M312.08,55.371L312.08,63.371" style="fill:none;stroke:#000000;stroke-width:0.5" />
<path d="M508.69,55.371L508.69,63.371" style="fill:none;stroke:#000000;stroke-width:0.5" />
<path d="M705.31,55.371L705.31,63.371" style="fill:none;stroke:#000000;stroke-width:0.5" />
<path d="M901.92,55.371L901.92,63.371" style="fill:none;stroke:#000000;stroke-width:0.5" />
<path d="M1098.5,55.371L1098.5,63.371" style="fill:none;stroke:#000000;stroke-width:0.5" />
<path d="M1295.2,55.371L1295.2,63.371" style="fill:none;stroke:#000000;stroke-width:0.5" />
<path d="M1491.8,55.371L1491.8,63.371" style="fill:none;stroke:#000000;stroke-width:0.5" />
<path d="M1688.4,55.371L1688.4,63.371" style="fill:none;stroke:#000000;stroke-width:0.5" />
<path d="M1885,55.371L1885,63.371" style="fill:none;stroke:#000000;stroke-width:0.5" />
<path d="M115.46,63.371L1885,63.371" style="fill:none;stroke:#000000;stroke-width:0.5" />
<g transform="rotate(90)">
<text x="482.71" y="23.467" transform="scale(1, -1)"
	style="font-family:Liberation Serif;font-variant:normal;font-weight:normal;font-style:normal;font-size:30px">log(μs + 1)</text>
</g>
<text x="49.712" y="-814.95" transform="scale(1, -1)"
	style="font-family:Liberation Serif;font-variant:normal;font-weight:normal;font-style:normal;font-size:20px">5000</text>
<text x="39.712" y="-954.67" transform="scale(1, -1)"
	style="font-family:Liberation Serif;font-variant:normal;font-weight:normal;font-style:normal;font-size:20px">25000</text>
<text x="39.712" y="-1005.7" transform="scale(1, -1)"
	style="font-family:Liberation Serif;font-variant:normal;font-weight:normal;font-style:normal;font-size:20px">45000</text>
<path d="M94.712,819.52L102.71,819.52" style="fill:none;stroke:#000000;stroke-width:0.5" />
<path d="M94.712,959.24L102.71,959.24" style="fill:none;stroke:#000000;stroke-width:0.5" />
<path d="M94.712,1010.3L102.71,1010.3" style="fill:none;stroke:#000000;stroke-width:0.5" />
<path d="M98.712,914.9L102.71,914.9" style="fill:none;stroke:#000000;stroke-width:0.5" />
<path d="M98.712,988.45L102.71,988.45" style="fill:none;stroke:#000000;stroke-width:0.5" />
<path d="M102.71,80.11L102.71,1018.3" style="fill:none;stroke:#000000;stroke-width:0.5" />
<path d="M115.46,80.11L115.46,1018.3" style="fill:none;stroke:#808080;stroke-width:0.25" />
<path d="M312.08,80.11L312.08,1018.3" style="fill:none;stroke:#808080;stroke-width:0.25" />
<path d="M508.69,80.11L508.69,1018.3" style="fill:none;stroke:#808080;stroke-width:0.25" />
<path d="M705.31,80.11L705.31,1018.3" style="fill:none;stroke:#808080;stroke-width:0.25" />
<path d="M901.92,80.11L901.92,1018.3" style="fill:none;stroke:#808080;stroke-width:0.25" />
<path d="M1098.5,80.11L1098.5,1018.3" style="fill:none;stroke:#808080;stroke-width:0.25" />
<path d="M1295.2,80.11L1295.2,1018.3" style="fill:none;stroke:#808080;stroke-width:0.25" />
<path d="M1491.8,80.11L1491.8,1018.3" style="fill:none;stroke:#808080;stroke-width:0.25" />
<path d="M1688.4,80.11L1688.4,1018.3" style="fill:none;stroke:#808080;stroke-width:0.25" />
<path d="M1885,80.11L1885,1018.3" style="fill:none;stroke:#808080;stroke-width:0.25" />
<path d="M115.46,819.52L1885,819.52" style="fill:none;stroke:#808080;stroke-width:0.25" />
<path d="M115.46,959.24L1885,959.24" style="fill:none;stroke:#808080;stroke-width:0.25" />
<path d="M115.46,1010.3L1885,1010.3" style="fill:none;stroke:#808080;stroke-width:0.25" />
<path d="M115.46,811.71L312.08,861.84L508.69,900.11L705.31,929.19L901.92,941.21L1098.5,956.18L1295.2,973.53L1491.8,998.15L1688.4,996.37L1885,1010" style="fill:none;stroke:#FF0000;stroke-width:4" />
<path d="M120.46,811.71A5,5 0 1 1 110.46,811.71A5,5 0 1 1 120.46,811.71Z" style="fill:#FF0000" />
<path d="M317.08,861.84A5,5 0 1 1 307.08,861.84A5,5 0 1 1 317.08,861.84Z" style="fill:#FF0000" />
<path d="M513.69,900.11A5,5 0 1 1 503.69,900.11A5,5 0 1 1 513.69,900.11Z" style="fill:#FF0000" />
<path d="M710.31,929.19A5,5 0 1 1 700.31,929.19A5,5 0 1 1 710.31,929.19Z" style="fill:#FF0000" />
<path d="M906.92,941.21A5,5 0 1 1 896.92,941.21A5,5 0 1 1 906.92,941.21Z" style="fill:#FF0000" />
<path d="M1103.5,956.18A5,5 0 1 1 1093.5,956.18A5,5 0 1 1 1103.5,956.18Z" style="fill:#FF0000" />
<path d="M1300.2,973.53A5,5 0 1 1 1290.2,973.53A5,5 0 1 1 1300.2,973.53Z" style="fill:#FF0000" />
<path d="M1496.8,998.15A5,5 0 1 1 1486.8,998.15A5,5 0 1 1 1496.8,998.15Z" style="fill:#FF0000" />
<path d="M1693.4,996.37A5,5 0 1 1 1683.4,996.37A5,5 0 1 1 1693.4,996.37Z" style="fill:#FF0000" />
<path d="M1890,1010A5,5 0 1 1 1880,1010A5,5 0 1 1 1890,1010Z" style="fill:#FF0000" />
<path d="M115.46,632.66L312.08,686.08L508.69,731.83L705.31,748.33L901.92,765.71L1098.5,804.63L1295.2,812.7L1491.8,829.79L1688.4,846.62L1885,853.56" style="fill:none;stroke:#0000FF;stroke-width:4" />
<path d="M120.46,632.66A5,5 0 1 1 110.46,632.66A5,5 0 1 1 120.46,632.66Z" style="fill:#0000FF" />
<path d="M317.08,686.08A5,5 0 1 1 307.08,686.08A5,5 0 1 1 317.08,686.08Z" style="fill:#0000FF" />
<path d="M513.69,731.83A5,5 0 1 1 503.69,731.83A5,5 0 1 1 513.69,731.83Z" style="fill:#0000FF" />
<path d="M710.31,748.33A5,5 0 1 1 700.31,748.33A5,5 0 1 1 710.31,748.33Z" style="fill:#0000FF" />
<path d="M906.92,765.71A5,5 0 1 1 896.92,765.71A5,5 0 1 1 906.92,765.71Z" style="fill:#0000FF" />
<path d="M1103.5,804.63A5,5 0 1 1 1093.5,804.63A5,5 0 1 1 1103.5,804.63Z" style="fill:#0000FF" />
<path d="M1300.2,812.7A5,5 0 1 1 1290.2,812.7A5,5 0 1 1 1300.2,812.7Z" style="fill:#0000FF" />
<path d="M1496.8,829.79A5,5 0 1 1 1486.8,829.79A5,5 0 1 1 1496.8,829.79Z" style="fill:#0000FF" />
<path d="M1693.4,846.62A5,5 0 1 1 1683.4,846.62A5,5 0 1 1 1693.4,846.62Z" style="fill:#0000FF" />
<path d="M1890,853.56A5,5 0 1 1 1880,853.56A5,5 0 1 1 1890,853.56Z" style="fill:#0000FF" />
<path d="M115.46,80.11L312.08,140.29L508.69,175.49L705.31,140.29L901.92,219.83L1098.5,140.29L1295.2,140.29L1491.8,140.29L1688.4,140.29L1885,140.29" style="fill:none;stroke:#00FF00;stroke-width:4" />
<path d="M120.46,80.11A5,5 0 1 1 110.46,80.11A5,5 0 1 1 120.46,80.11Z" style="fill:#00FF00" />
<path d="M317.08,140.29A5,5 0 1 1 307.08,140.29A5,5 0 1 1 317.08,140.29Z" style="fill:#00FF00" />
<path d="M513.69,175.49A5,5 0 1 1 503.69,175.49A5,5 0 1 1 513.69,175.49Z" style="fill:#00FF00" />
<path d="M710.31,140.29A5,5 0 1 1 700.31,140.29A5,5 0 1 1 710.31,140.29Z" style="fill:#00FF00" />
<path d="M906.92,219.83A5,5 0 1 1 896.92,219.83A5,5 0 1 1 906.92,219.83Z" style="fill:#00FF00" />
<path d="M1103.5,140.29A5,5 0 1 1 1093.5,140.29A5,5 0 1 1 1103.5,140.29Z" style="fill:#00FF00" />
<path d="M1300.2,140.29A5,5 0 1 1 1290.2,140.29A5,5 0 1 1 1300.2,140.29Z" style="fill:#00FF00" />
<path d="M1496.8,140.29A5,5 0 1 1 1486.8,140.29A5,5 0 1 1 1496.8,140.29Z" style="fill:#00FF00" />
<path d="M1693.4,140.29A5,5 0 1 1 1683.4,140.29A5,5 0 1 1 1693.4,140.29Z" style="fill:#00FF00" />
<path d="M1890,140.29A5,5 0 1 1 1880,140.29A5,5 0 1 1 1890,140.29Z" style="fill:#00FF00" />
<path d="M1900,126.03L1920,126.03" style="fill:none;stroke:#FF0000;stroke-width:4" />
<path d="M1915,126.03A5,5 0 1 1 1905,126.03A5,5 0 1 1 1915,126.03Z" style="fill:#FF0000" />
<text x="1823.3" y="-121.05" transform="scale(1, -1)"
	style="font-family:Liberation Serif;font-variant:normal;font-weight:normal;font-style:normal;font-size:24px">std::list</text>
<path d="M1900,105.66L1920,105.66" style="fill:none;stroke:#0000FF;stroke-width:4" />
<path d="M1915,105.66A5,5 0 1 1 1905,105.66A5,5 0 1 1 1915,105.66Z" style="fill:#0000FF" />
<text x="1795.4" y="-100.69" transform="scale(1, -1)"
	style="font-family:Liberation Serif;font-variant:normal;font-weight:normal;font-style:normal;font-size:24px">std::deque</text>
<path d="M1900,85.294L1920,85.294" style="fill:none;stroke:#00FF00;stroke-width:4" />
<path d="M1915,85.294A5,5 0 1 1 1905,85.294A5,5 0 1 1 1915,85.294Z" style="fill:#00FF00" />
<text x="1792.7" y="-80.319" transform="scale(1, -1)"
	style="font-family:Liberation Serif;font-variant:normal;font-weight:normal;font-style:normal;font-size:24px">std::vector</text>
</g>
</svg>
