<?xml version="1.0"?>
<!-- Generated by SVGo and Plotinum VG -->
<svg width="1920pt" height="1080pt" viewBox="0 0 1920 1080"
	xmlns="http://www.w3.org/2000/svg"
	xmlns:xlink="http://www.w3.org/1999/xlink">
<g transform="scale(1, -1) translate(0, -1080)">
<path d="M0,0L1920,0L1920,1080L0,1080Z" style="fill:#FFFFFF" />
<text x="764.92" y="-1040.9" transform="scale(1, -1)"
	style="font-family:Liberation Serif;font-variant:normal;font-weight:normal;font-style:normal;font-size:50px">destroy - Log Scale</text>
<text x="882.77" y="-9.7559" transform="scale(1, -1)"
	style="font-family:Liberation Serif;font-variant:normal;font-weight:normal;font-style:normal;font-size:30px">Number of elements</text>
<text x="95.462" y="-39.727" transform="scale(1, -1)"
	style="font-family:Liberation Serif;font-variant:normal;font-weight:normal;font-style:normal;font-size:20px">100000</text>
<text x="290.97" y="-39.727" transform="scale(1, -1)"
	style="font-family:Liberation Serif;font-variant:normal;font-weight:normal;font-style:normal;font-size:20px">200000</text>
<text x="486.47" y="-39.727" transform="scale(1, -1)"
	style="font-family:Liberation Serif;font-variant:normal;font-weight:normal;font-style:normal;font-size:20px">300000</text>
<text x="681.97" y="-39.727" transform="scale(1, -1)"
	style="font-family:Liberation Serif;font-variant:normal;font-weight:normal;font-style:normal;font-size:20px">400000</text>
<text x="877.48" y="-39.727" transform="scale(1, -1)"
	style="font-family:Liberation Serif;font-variant:normal;font-weight:normal;font-style:normal;font-size:20px">500000</text>
<text x="1073" y="-39.727" transform="scale(1, -1)"
	style="font-family:Liberation Serif;font-variant:normal;font-weight:normal;font-style:normal;font-size:20px">600000</text>
<text x="1268.5" y="-39.727" transform="scale(1, -1)"
	style="font-family:Liberation Serif;font-variant:normal;font-weight:normal;font-style:normal;font-size:20px">700000</text>
<text x="1464" y="-39.727" transform="scale(1, -1)"
	style="font-family:Liberation Serif;font-variant:normal;font-weight:normal;font-style:normal;font-size:20px">800000</text>
<text x="1659.5" y="-39.727" transform="scale(1, -1)"
	style="font-family:Liberation Serif;font-variant:normal;font-weight:normal;font-style:normal;font-size:20px">900000</text>
<text x="1850" y="-39.727" transform="scale(1, -1)"
	style="font-family:Liberation Serif;font-variant:normal;font-weight:normal;font-style:normal;font-size:20px">1000000</text>
<path d="M125.46,55.371L125.46,63.371" style="fill:none;stroke:#000000;stroke-width:0.5" />
<path d="M320.97,55.371L320.97,63.371" style="fill:none;stroke:#000000;stroke-width:0.5" />
<path d="M516.47,55.371L516.47,63.371" style="fill:none;stroke:#000000;stroke-width:0.5" />
<path d="M711.97,55.371L711.97,63.371" style="fill:none;stroke:#000000;stroke-width:0.5" />
<path d="M907.48,55.371L907.48,63.371" style="fill:none;stroke:#000000;stroke-width:0.5" />
<path d="M1103,55.371L1103,63.371" style="fill:none;stroke:#000000;stroke-width:0.5" />
<path d="M1298.5,55.371L1298.5,63.371" style="fill:none;stroke:#000000;stroke-width:0.5" />
<path d="M1494,55.371L1494,63.371" style="fill:none;stroke:#000000;stroke-width:0.5" />
<path d="M1689.5,55.371L1689.5,63.371" style="fill:none;stroke:#000000;stroke-width:0.5" />
<path d="M1885,55.371L1885,63.371" style="fill:none;stroke:#000000;stroke-width:0.5" />
<path d="M125.46,63.371L1885,63.371" style="fill:none;stroke:#000000;stroke-width:0.5" />
<g transform="rotate(90)">
<text x="507.8" y="23.467" transform="scale(1, -1)"
	style="font-family:Liberation Serif;font-variant:normal;font-weight:normal;font-style:normal;font-size:30px">log(μs)</text>
</g>
<text x="49.712" y="-864.73" transform="scale(1, -1)"
	style="font-family:Liberation Serif;font-variant:normal;font-weight:normal;font-style:normal;font-size:20px">20000</text>
<text x="49.712" y="-963.2" transform="scale(1, -1)"
	style="font-family:Liberation Serif;font-variant:normal;font-weight:normal;font-style:normal;font-size:20px">60000</text>
<text x="39.712" y="-1009" transform="scale(1, -1)"
	style="font-family:Liberation Serif;font-variant:normal;font-weight:normal;font-style:normal;font-size:20px">100000</text>
<path d="M104.71,869.3L112.71,869.3" style="fill:none;stroke:#000000;stroke-width:0.5" />
<path d="M104.71,967.77L112.71,967.77" style="fill:none;stroke:#000000;stroke-width:0.5" />
<path d="M104.71,1013.6L112.71,1013.6" style="fill:none;stroke:#000000;stroke-width:0.5" />
<path d="M108.71,807.17L112.71,807.17" style="fill:none;stroke:#000000;stroke-width:0.5" />
<path d="M108.71,905.64L112.71,905.64" style="fill:none;stroke:#000000;stroke-width:0.5" />
<path d="M108.71,931.43L112.71,931.43" style="fill:none;stroke:#000000;stroke-width:0.5" />
<path d="M108.71,951.43L112.71,951.43" style="fill:none;stroke:#000000;stroke-width:0.5" />
<path d="M108.71,981.59L112.71,981.59" style="fill:none;stroke:#000000;stroke-width:0.5" />
<path d="M108.71,993.55L112.71,993.55" style="fill:none;stroke:#000000;stroke-width:0.5" />
<path d="M108.71,1004.1L112.71,1004.1" style="fill:none;stroke:#000000;stroke-width:0.5" />
<path d="M112.71,80.11L112.71,1021.6" style="fill:none;stroke:#000000;stroke-width:0.5" />
<path d="M125.46,80.11L125.46,1021.6" style="fill:none;stroke:#808080;stroke-width:0.25" />
<path d="M320.97,80.11L320.97,1021.6" style="fill:none;stroke:#808080;stroke-width:0.25" />
<path d="M516.47,80.11L516.47,1021.6" style="fill:none;stroke:#808080;stroke-width:0.25" />
<path d="M711.97,80.11L711.97,1021.6" style="fill:none;stroke:#808080;stroke-width:0.25" />
<path d="M907.48,80.11L907.48,1021.6" style="fill:none;stroke:#808080;stroke-width:0.25" />
<path d="M1103,80.11L1103,1021.6" style="fill:none;stroke:#808080;stroke-width:0.25" />
<path d="M1298.5,80.11L1298.5,1021.6" style="fill:none;stroke:#808080;stroke-width:0.25" />
<path d="M1494,80.11L1494,1021.6" style="fill:none;stroke:#808080;stroke-width:0.25" />
<path d="M1689.5,80.11L1689.5,1021.6" style="fill:none;stroke:#808080;stroke-width:0.25" />
<path d="M1885,80.11L1885,1021.6" style="fill:none;stroke:#808080;stroke-width:0.25" />
<path d="M125.46,869.3L1885,869.3" style="fill:none;stroke:#808080;stroke-width:0.25" />
<path d="M125.46,967.77L1885,967.77" style="fill:none;stroke:#808080;stroke-width:0.25" />
<path d="M125.46,1013.6L1885,1013.6" style="fill:none;stroke:#808080;stroke-width:0.25" />
<path d="M125.46,813.29L320.97,884.93L516.47,914.53L711.97,943.16L907.48,966.64L1103,972.42L1298.5,977.02L1494,991.51L1689.5,1001.2L1885,1013" style="fill:none;stroke:#FF0000;stroke-width:4" />
<path d="M130.46,813.29A5,5 0 1 1 120.46,813.29A5,5 0 1 1 130.46,813.29Z" style="fill:#FF0000" />
<path d="M325.97,884.93A5,5 0 1 1 315.97,884.93A5,5 0 1 1 325.97,884.93Z" style="fill:#FF0000" />
<path d="M521.47,914.53A5,5 0 1 1 511.47,914.53A5,5 0 1 1 521.47,914.53Z" style="fill:#FF0000" />
<path d="M716.97,943.16A5,5 0 1 1 706.97,943.16A5,5 0 1 1 716.97,943.16Z" style="fill:#FF0000" />
<path d="M912.48,966.64A5,5 0 1 1 902.48,966.64A5,5 0 1 1 912.48,966.64Z" style="fill:#FF0000" />
<path d="M1108,972.42A5,5 0 1 1 1098,972.42A5,5 0 1 1 1108,972.42Z" style="fill:#FF0000" />
<path d="M1303.5,977.02A5,5 0 1 1 1293.5,977.02A5,5 0 1 1 1303.5,977.02Z" style="fill:#FF0000" />
<path d="M1499,991.51A5,5 0 1 1 1489,991.51A5,5 0 1 1 1499,991.51Z" style="fill:#FF0000" />
<path d="M1694.5,1001.2A5,5 0 1 1 1684.5,1001.2A5,5 0 1 1 1694.5,1001.2Z" style="fill:#FF0000" />
<path d="M1890,1013A5,5 0 1 1 1880,1013A5,5 0 1 1 1890,1013Z" style="fill:#FF0000" />
<path d="M125.46,780.97L320.97,848.75L516.47,893.26L711.97,919.97L907.48,935.05L1103,941.76L1298.5,967.54L1494,969.09L1689.5,985.06L1885,989.31" style="fill:none;stroke:#0000FF;stroke-width:4" />
<path d="M130.46,780.97A5,5 0 1 1 120.46,780.97A5,5 0 1 1 130.46,780.97Z" style="fill:#0000FF" />
<path d="M325.97,848.75A5,5 0 1 1 315.97,848.75A5,5 0 1 1 325.97,848.75Z" style="fill:#0000FF" />
<path d="M521.47,893.26A5,5 0 1 1 511.47,893.26A5,5 0 1 1 521.47,893.26Z" style="fill:#0000FF" />
<path d="M716.97,919.97A5,5 0 1 1 706.97,919.97A5,5 0 1 1 716.97,919.97Z" style="fill:#0000FF" />
<path d="M912.48,935.05A5,5 0 1 1 902.48,935.05A5,5 0 1 1 912.48,935.05Z" style="fill:#0000FF" />
<path d="M1108,941.76A5,5 0 1 1 1098,941.76A5,5 0 1 1 1108,941.76Z" style="fill:#0000FF" />
<path d="M1303.5,967.54A5,5 0 1 1 1293.5,967.54A5,5 0 1 1 1303.5,967.54Z" style="fill:#0000FF" />
<path d="M1499,969.09A5,5 0 1 1 1489,969.09A5,5 0 1 1 1499,969.09Z" style="fill:#0000FF" />
<path d="M1694.5,985.06A5,5 0 1 1 1684.5,985.06A5,5 0 1 1 1694.5,985.06Z" style="fill:#0000FF" />
<path d="M1890,989.31A5,5 0 1 1 1880,989.31A5,5 0 1 1 1890,989.31Z" style="fill:#0000FF" />
<path d="M125.46,80.11L320.97,125.9L516.47,105.9L711.97,105.9L907.48,80.11L1103,80.11L1298.5,80.11L1494,142.24L1689.5,80.11L1885,188.02" style="fill:none;stroke:#00FF00;stroke-width:4" />
<path d="M130.46,80.11A5,5 0 1 1 120.46,80.11A5,5 0 1 1 130.46,80.11Z" style="fill:#00FF00" />
<path d="M325.97,125.9A5,5 0 1 1 315.97,125.9A5,5 0 1 1 325.97,125.9Z" style="fill:#00FF00" />
<path d="M521.47,105.9A5,5 0 1 1 511.47,105.9A5,5 0 1 1 521.47,105.9Z" style="fill:#00FF00" />
<path d="M716.97,105.9A5,5 0 1 1 706.97,105.9A5,5 0 1 1 716.97,105.9Z" style="fill:#00FF00" />
<path d="M912.48,80.11A5,5 0 1 1 902.48,80.11A5,5 0 1 1 912.48,80.11Z" style="fill:#00FF00" />
<path d="M1108,80.11A5,5 0 1 1 1098,80.11A5,5 0 1 1 1108,80.11Z" style="fill:#00FF00" />
<path d="M1303.5,80.11A5,5 0 1 1 1293.5,80.11A5,5 0 1 1 1303.5,80.11Z" style="fill:#00FF00" />
<path d="M1499,142.24A5,5 0 1 1 1489,142.24A5,5 0 1 1 1499,142.24Z" style="fill:#00FF00" />
<path d="M1694.5,80.11A5,5 0 1 1 1684.5,80.11A5,5 0 1 1 1694.5,80.11Z" style="fill:#00FF00" />
<path d="M1890,188.02A5,5 0 1 1 1880,188.02A5,5 0 1 1 1890,188.02Z" style="fill:#00FF00" />
<path d="M1900,126.03L1920,126.03" style="fill:none;stroke:#FF0000;stroke-width:4" />
<path d="M1915,126.03A5,5 0 1 1 1905,126.03A5,5 0 1 1 1915,126.03Z" style="fill:#FF0000" />
<text x="1823.3" y="-121.05" transform="scale(1, -1)"
	style="font-family:Liberation Serif;font-variant:normal;font-weight:normal;font-style:normal;font-size:24px">std::list</text>
<path d="M1900,105.66L1920,105.66" style="fill:none;stroke:#0000FF;stroke-width:4" />
<path d="M1915,105.66A5,5 0 1 1 1905,105.66A5,5 0 1 1 1915,105.66Z" style="fill:#0000FF" />
<text x="1795.4" y="-100.69" transform="scale(1, -1)"
	style="font-family:Liberation Serif;font-variant:normal;font-weight:normal;font-style:normal;font-size:24px">std::deque</text>
<path d="M1900,85.294L1920,85.294" style="fill:none;stroke:#00FF00;stroke-width:4" />
<path d="M1915,85.294A5,5 0 1 1 1905,85.294A5,5 0 1 1 1915,85.294Z" style="fill:#00FF00" />
<text x="1792.7" y="-80.319" transform="scale(1, -1)"
	style="font-family:Liberation Serif;font-variant:normal;font-weight:normal;font-style:normal;font-size:24px">std::vector</text>
</g>
</svg>
