<?xml version="1.0"?>
<!-- Generated by SVGo and Plotinum VG -->
<svg width="1920pt" height="1080pt" viewBox="0 0 1920 1080"
	xmlns="http://www.w3.org/2000/svg"
	xmlns:xlink="http://www.w3.org/1999/xlink">
<g transform="scale(1, -1) translate(0, -1080)">
<path d="M0,0L1920,0L1920,1080L0,1080Z" style="fill:#FFFFFF" />
<text x="886.4" y="-1040.9" transform="scale(1, -1)"
	style="font-family:Liberation Serif;font-variant:normal;font-weight:normal;font-style:normal;font-size:50px">destroy</text>
<text x="877.77" y="-9.7559" transform="scale(1, -1)"
	style="font-family:Liberation Serif;font-variant:normal;font-weight:normal;font-style:normal;font-size:30px">Number of elements</text>
<text x="85.462" y="-39.727" transform="scale(1, -1)"
	style="font-family:Liberation Serif;font-variant:normal;font-weight:normal;font-style:normal;font-size:20px">100000</text>
<text x="282.08" y="-39.727" transform="scale(1, -1)"
	style="font-family:Liberation Serif;font-variant:normal;font-weight:normal;font-style:normal;font-size:20px">200000</text>
<text x="478.69" y="-39.727" transform="scale(1, -1)"
	style="font-family:Liberation Serif;font-variant:normal;font-weight:normal;font-style:normal;font-size:20px">300000</text>
<text x="675.31" y="-39.727" transform="scale(1, -1)"
	style="font-family:Liberation Serif;font-variant:normal;font-weight:normal;font-style:normal;font-size:20px">400000</text>
<text x="871.92" y="-39.727" transform="scale(1, -1)"
	style="font-family:Liberation Serif;font-variant:normal;font-weight:normal;font-style:normal;font-size:20px">500000</text>
<text x="1068.5" y="-39.727" transform="scale(1, -1)"
	style="font-family:Liberation Serif;font-variant:normal;font-weight:normal;font-style:normal;font-size:20px">600000</text>
<text x="1265.2" y="-39.727" transform="scale(1, -1)"
	style="font-family:Liberation Serif;font-variant:normal;font-weight:normal;font-style:normal;font-size:20px">700000</text>
<text x="1461.8" y="-39.727" transform="scale(1, -1)"
	style="font-family:Liberation Serif;font-variant:normal;font-weight:normal;font-style:normal;font-size:20px">800000</text>
<text x="1658.4" y="-39.727" transform="scale(1, -1)"
	style="font-family:Liberation Serif;font-variant:normal;font-weight:normal;font-style:normal;font-size:20px">900000</text>
<text x="1850" y="-39.727" transform="scale(1, -1)"
	style="font-family:Liberation Serif;font-variant:normal;font-weight:normal;font-style:normal;font-size:20px">1000000</text>
<path d="M115.46,55.371L115.46,63.371" style="fill:none;stroke:#000000;stroke-width:0.5" />
<path d="M312.08,55.371L312.08,63.371" style="fill:none;stroke:#000000;stroke-width:0.5" />
<path d="M508.69,55.371L508.69,63.371" style="fill:none;stroke:#000000;stroke-width:0.5" />
<path d="M705.31,55.371L705.31,63.371" style="fill:none;stroke:#000000;stroke-width:0.5" />
<path d="M901.92,55.371L901.92,63.371" style="fill:none;stroke:#000000;stroke-width:0.5" />
<path d="M1098.5,55.371L1098.5,63.371" style="fill:none;stroke:#000000;stroke-width:0.5" />
<path d="M1295.2,55.371L1295.2,63.371" style="fill:none;stroke:#000000;stroke-width:0.5" />
<path d="M1491.8,55.371L1491.8,63.371" style="fill:none;stroke:#000000;stroke-width:0.5" />
<path d="M1688.4,55.371L1688.4,63.371" style="fill:none;stroke:#000000;stroke-width:0.5" />
<path d="M1885,55.371L1885,63.371" style="fill:none;stroke:#000000;stroke-width:0.5" />
<path d="M115.46,63.371L1885,63.371" style="fill:none;stroke:#000000;stroke-width:0.5" />
<g transform="rotate(90)">
<text x="538.49" y="23.467" transform="scale(1, -1)"
	style="font-family:Liberation Serif;font-variant:normal;font-weight:normal;font-style:normal;font-size:30px">μs</text>
</g>
<text x="79.712" y="-75.54" transform="scale(1, -1)"
	style="font-family:Liberation Serif;font-variant:normal;font-weight:normal;font-style:normal;font-size:20px">0</text>
<text x="39.712" y="-321.39" transform="scale(1, -1)"
	style="font-family:Liberation Serif;font-variant:normal;font-weight:normal;font-style:normal;font-size:20px">10000</text>
<text x="39.712" y="-567.24" transform="scale(1, -1)"
	style="font-family:Liberation Serif;font-variant:normal;font-weight:normal;font-style:normal;font-size:20px">20000</text>
<text x="39.712" y="-813.09" transform="scale(1, -1)"
	style="font-family:Liberation Serif;font-variant:normal;font-weight:normal;font-style:normal;font-size:20px">30000</text>
<path d="M94.712,80.11L102.71,80.11" style="fill:none;stroke:#000000;stroke-width:0.5" />
<path d="M94.712,325.96L102.71,325.96" style="fill:none;stroke:#000000;stroke-width:0.5" />
<path d="M94.712,571.81L102.71,571.81" style="fill:none;stroke:#000000;stroke-width:0.5" />
<path d="M94.712,817.66L102.71,817.66" style="fill:none;stroke:#000000;stroke-width:0.5" />
<path d="M98.712,129.28L102.71,129.28" style="fill:none;stroke:#000000;stroke-width:0.5" />
<path d="M98.712,178.45L102.71,178.45" style="fill:none;stroke:#000000;stroke-width:0.5" />
<path d="M98.712,227.62L102.71,227.62" style="fill:none;stroke:#000000;stroke-width:0.5" />
<path d="M98.712,276.79L102.71,276.79" style="fill:none;stroke:#000000;stroke-width:0.5" />
<path d="M98.712,375.13L102.71,375.13" style="fill:none;stroke:#000000;stroke-width:0.5" />
<path d="M98.712,424.3L102.71,424.3" style="fill:none;stroke:#000000;stroke-width:0.5" />
<path d="M98.712,473.47L102.71,473.47" style="fill:none;stroke:#000000;stroke-width:0.5" />
<path d="M98.712,522.64L102.71,522.64" style="fill:none;stroke:#000000;stroke-width:0.5" />
<path d="M98.712,620.98L102.71,620.98" style="fill:none;stroke:#000000;stroke-width:0.5" />
<path d="M98.712,670.15L102.71,670.15" style="fill:none;stroke:#000000;stroke-width:0.5" />
<path d="M98.712,719.32L102.71,719.32" style="fill:none;stroke:#000000;stroke-width:0.5" />
<path d="M98.712,768.49L102.71,768.49" style="fill:none;stroke:#000000;stroke-width:0.5" />
<path d="M98.712,866.83L102.71,866.83" style="fill:none;stroke:#000000;stroke-width:0.5" />
<path d="M98.712,916L102.71,916" style="fill:none;stroke:#000000;stroke-width:0.5" />
<path d="M98.712,965.17L102.71,965.17" style="fill:none;stroke:#000000;stroke-width:0.5" />
<path d="M98.712,1014.3L102.71,1014.3" style="fill:none;stroke:#000000;stroke-width:0.5" />
<path d="M102.71,80.11L102.71,1024.6" style="fill:none;stroke:#000000;stroke-width:0.5" />
<path d="M115.46,80.11L115.46,1024.6" style="fill:none;stroke:#808080;stroke-width:0.25" />
<path d="M312.08,80.11L312.08,1024.6" style="fill:none;stroke:#808080;stroke-width:0.25" />
<path d="M508.69,80.11L508.69,1024.6" style="fill:none;stroke:#808080;stroke-width:0.25" />
<path d="M705.31,80.11L705.31,1024.6" style="fill:none;stroke:#808080;stroke-width:0.25" />
<path d="M901.92,80.11L901.92,1024.6" style="fill:none;stroke:#808080;stroke-width:0.25" />
<path d="M1098.5,80.11L1098.5,1024.6" style="fill:none;stroke:#808080;stroke-width:0.25" />
<path d="M1295.2,80.11L1295.2,1024.6" style="fill:none;stroke:#808080;stroke-width:0.25" />
<path d="M1491.8,80.11L1491.8,1024.6" style="fill:none;stroke:#808080;stroke-width:0.25" />
<path d="M1688.4,80.11L1688.4,1024.6" style="fill:none;stroke:#808080;stroke-width:0.25" />
<path d="M1885,80.11L1885,1024.6" style="fill:none;stroke:#808080;stroke-width:0.25" />
<path d="M115.46,80.11L1885,80.11" style="fill:none;stroke:#808080;stroke-width:0.25" />
<path d="M115.46,325.96L1885,325.96" style="fill:none;stroke:#808080;stroke-width:0.25" />
<path d="M115.46,571.81L1885,571.81" style="fill:none;stroke:#808080;stroke-width:0.25" />
<path d="M115.46,817.66L1885,817.66" style="fill:none;stroke:#808080;stroke-width:0.25" />
<path d="M115.46,175.33L312.08,269.96L508.69,357.33L705.31,427.69L901.92,506.78L1098.5,656.26L1295.2,776.53L1491.8,773.92L1688.4,935.13L1885,938.76" style="fill:none;stroke:#FF0000;stroke-width:4" />
<path d="M120.46,175.33A5,5 0 1 1 110.46,175.33A5,5 0 1 1 120.46,175.33Z" style="fill:#FF0000" />
<path d="M317.08,269.96A5,5 0 1 1 307.08,269.96A5,5 0 1 1 317.08,269.96Z" style="fill:#FF0000" />
<path d="M513.69,357.33A5,5 0 1 1 503.69,357.33A5,5 0 1 1 513.69,357.33Z" style="fill:#FF0000" />
<path d="M710.31,427.69A5,5 0 1 1 700.31,427.69A5,5 0 1 1 710.31,427.69Z" style="fill:#FF0000" />
<path d="M906.92,506.78A5,5 0 1 1 896.92,506.78A5,5 0 1 1 906.92,506.78Z" style="fill:#FF0000" />
<path d="M1103.5,656.26A5,5 0 1 1 1093.5,656.26A5,5 0 1 1 1103.5,656.26Z" style="fill:#FF0000" />
<path d="M1300.2,776.53A5,5 0 1 1 1290.2,776.53A5,5 0 1 1 1300.2,776.53Z" style="fill:#FF0000" />
<path d="M1496.8,773.92A5,5 0 1 1 1486.8,773.92A5,5 0 1 1 1496.8,773.92Z" style="fill:#FF0000" />
<path d="M1693.4,935.13A5,5 0 1 1 1683.4,935.13A5,5 0 1 1 1693.4,935.13Z" style="fill:#FF0000" />
<path d="M1890,938.76A5,5 0 1 1 1880,938.76A5,5 0 1 1 1890,938.76Z" style="fill:#FF0000" />
<path d="M115.46,81.684L312.08,82.839L508.69,84.904L705.31,84.241L901.92,85.445L1098.5,86.65L1295.2,88.666L1491.8,88.076L1688.4,88.027L1885,88.936" style="fill:none;stroke:#0000FF;stroke-width:4" />
<path d="M120.46,81.684A5,5 0 1 1 110.46,81.684A5,5 0 1 1 120.46,81.684Z" style="fill:#0000FF" />
<path d="M317.08,82.839A5,5 0 1 1 307.08,82.839A5,5 0 1 1 317.08,82.839Z" style="fill:#0000FF" />
<path d="M513.69,84.904A5,5 0 1 1 503.69,84.904A5,5 0 1 1 513.69,84.904Z" style="fill:#0000FF" />
<path d="M710.31,84.241A5,5 0 1 1 700.31,84.241A5,5 0 1 1 710.31,84.241Z" style="fill:#0000FF" />
<path d="M906.92,85.445A5,5 0 1 1 896.92,85.445A5,5 0 1 1 906.92,85.445Z" style="fill:#0000FF" />
<path d="M1103.5,86.65A5,5 0 1 1 1093.5,86.65A5,5 0 1 1 1103.5,86.65Z" style="fill:#0000FF" />
<path d="M1300.2,88.666A5,5 0 1 1 1290.2,88.666A5,5 0 1 1 1300.2,88.666Z" style="fill:#0000FF" />
<path d="M1496.8,88.076A5,5 0 1 1 1486.8,88.076A5,5 0 1 1 1496.8,88.076Z" style="fill:#0000FF" />
<path d="M1693.4,88.027A5,5 0 1 1 1683.4,88.027A5,5 0 1 1 1693.4,88.027Z" style="fill:#0000FF" />
<path d="M1890,88.936A5,5 0 1 1 1880,88.936A5,5 0 1 1 1890,88.936Z" style="fill:#0000FF" />
<path d="M115.46,80.282L312.08,80.11L508.69,80.135L705.31,80.11L901.92,80.11L1098.5,80.135L1295.2,80.184L1491.8,80.135L1688.4,80.135L1885,80.11" style="fill:none;stroke:#00FF00;stroke-width:4" />
<path d="M120.46,80.282A5,5 0 1 1 110.46,80.282A5,5 0 1 1 120.46,80.282Z" style="fill:#00FF00" />
<path d="M317.08,80.11A5,5 0 1 1 307.08,80.11A5,5 0 1 1 317.08,80.11Z" style="fill:#00FF00" />
<path d="M513.69,80.135A5,5 0 1 1 503.69,80.135A5,5 0 1 1 513.69,80.135Z" style="fill:#00FF00" />
<path d="M710.31,80.11A5,5 0 1 1 700.31,80.11A5,5 0 1 1 710.31,80.11Z" style="fill:#00FF00" />
<path d="M906.92,80.11A5,5 0 1 1 896.92,80.11A5,5 0 1 1 906.92,80.11Z" style="fill:#00FF00" />
<path d="M1103.5,80.135A5,5 0 1 1 1093.5,80.135A5,5 0 1 1 1103.5,80.135Z" style="fill:#00FF00" />
<path d="M1300.2,80.184A5,5 0 1 1 1290.2,80.184A5,5 0 1 1 1300.2,80.184Z" style="fill:#00FF00" />
<path d="M1496.8,80.135A5,5 0 1 1 1486.8,80.135A5,5 0 1 1 1496.8,80.135Z" style="fill:#00FF00" />
<path d="M1693.4,80.135A5,5 0 1 1 1683.4,80.135A5,5 0 1 1 1693.4,80.135Z" style="fill:#00FF00" />
<path d="M1890,80.11A5,5 0 1 1 1880,80.11A5,5 0 1 1 1890,80.11Z" style="fill:#00FF00" />
<path d="M1900,126.03L1920,126.03" style="fill:none;stroke:#FF0000;stroke-width:4" />
<path d="M1915,126.03A5,5 0 1 1 1905,126.03A5,5 0 1 1 1915,126.03Z" style="fill:#FF0000" />
<text x="1823.3" y="-121.05" transform="scale(1, -1)"
	style="font-family:Liberation Serif;font-variant:normal;font-weight:normal;font-style:normal;font-size:24px">std::list</text>
<path d="M1900,105.66L1920,105.66" style="fill:none;stroke:#0000FF;stroke-width:4" />
<path d="M1915,105.66A5,5 0 1 1 1905,105.66A5,5 0 1 1 1915,105.66Z" style="fill:#0000FF" />
<text x="1795.4" y="-100.69" transform="scale(1, -1)"
	style="font-family:Liberation Serif;font-variant:normal;font-weight:normal;font-style:normal;font-size:24px">std::deque</text>
<path d="M1900,85.294L1920,85.294" style="fill:none;stroke:#00FF00;stroke-width:4" />
<path d="M1915,85.294A5,5 0 1 1 1905,85.294A5,5 0 1 1 1915,85.294Z" style="fill:#00FF00" />
<text x="1792.7" y="-80.319" transform="scale(1, -1)"
	style="font-family:Liberation Serif;font-variant:normal;font-weight:normal;font-style:normal;font-size:24px">std::vector</text>
</g>
</svg>
