<?xml version="1.0"?>
<!-- Generated by SVGo and Plotinum VG -->
<svg width="1920pt" height="1080pt" viewBox="0 0 1920 1080"
	xmlns="http://www.w3.org/2000/svg"
	xmlns:xlink="http://www.w3.org/1999/xlink">
<g transform="scale(1, -1) translate(0, -1080)">
<path d="M0,0L1920,0L1920,1080L0,1080Z" style="fill:#FFFFFF" />
<text x="764.92" y="-1040.9" transform="scale(1, -1)"
	style="font-family:Liberation Serif;font-variant:normal;font-weight:normal;font-style:normal;font-size:50px">destroy - Log Scale</text>
<text x="882.77" y="-9.7559" transform="scale(1, -1)"
	style="font-family:Liberation Serif;font-variant:normal;font-weight:normal;font-style:normal;font-size:30px">Number of elements</text>
<text x="95.462" y="-39.727" transform="scale(1, -1)"
	style="font-family:Liberation Serif;font-variant:normal;font-weight:normal;font-style:normal;font-size:20px">100000</text>
<text x="290.97" y="-39.727" transform="scale(1, -1)"
	style="font-family:Liberation Serif;font-variant:normal;font-weight:normal;font-style:normal;font-size:20px">200000</text>
<text x="486.47" y="-39.727" transform="scale(1, -1)"
	style="font-family:Liberation Serif;font-variant:normal;font-weight:normal;font-style:normal;font-size:20px">300000</text>
<text x="681.97" y="-39.727" transform="scale(1, -1)"
	style="font-family:Liberation Serif;font-variant:normal;font-weight:normal;font-style:normal;font-size:20px">400000</text>
<text x="877.48" y="-39.727" transform="scale(1, -1)"
	style="font-family:Liberation Serif;font-variant:normal;font-weight:normal;font-style:normal;font-size:20px">500000</text>
<text x="1073" y="-39.727" transform="scale(1, -1)"
	style="font-family:Liberation Serif;font-variant:normal;font-weight:normal;font-style:normal;font-size:20px">600000</text>
<text x="1268.5" y="-39.727" transform="scale(1, -1)"
	style="font-family:Liberation Serif;font-variant:normal;font-weight:normal;font-style:normal;font-size:20px">700000</text>
<text x="1464" y="-39.727" transform="scale(1, -1)"
	style="font-family:Liberation Serif;font-variant:normal;font-weight:normal;font-style:normal;font-size:20px">800000</text>
<text x="1659.5" y="-39.727" transform="scale(1, -1)"
	style="font-family:Liberation Serif;font-variant:normal;font-weight:normal;font-style:normal;font-size:20px">900000</text>
<text x="1850" y="-39.727" transform="scale(1, -1)"
	style="font-family:Liberation Serif;font-variant:normal;font-weight:normal;font-style:normal;font-size:20px">1000000</text>
<path d="M125.46,55.371L125.46,63.371" style="fill:none;stroke:#000000;stroke-width:0.5" />
<path d="M320.97,55.371L320.97,63.371" style="fill:none;stroke:#000000;stroke-width:0.5" />
<path d="M516.47,55.371L516.47,63.371" style="fill:none;stroke:#000000;stroke-width:0.5" />
<path d="M711.97,55.371L711.97,63.371" style="fill:none;stroke:#000000;stroke-width:0.5" />
<path d="M907.48,55.371L907.48,63.371" style="fill:none;stroke:#000000;stroke-width:0.5" />
<path d="M1103,55.371L1103,63.371" style="fill:none;stroke:#000000;stroke-width:0.5" />
<path d="M1298.5,55.371L1298.5,63.371" style="fill:none;stroke:#000000;stroke-width:0.5" />
<path d="M1494,55.371L1494,63.371" style="fill:none;stroke:#000000;stroke-width:0.5" />
<path d="M1689.5,55.371L1689.5,63.371" style="fill:none;stroke:#000000;stroke-width:0.5" />
<path d="M1885,55.371L1885,63.371" style="fill:none;stroke:#000000;stroke-width:0.5" />
<path d="M125.46,63.371L1885,63.371" style="fill:none;stroke:#000000;stroke-width:0.5" />
<g transform="rotate(90)">
<text x="484.45" y="23.467" transform="scale(1, -1)"
	style="font-family:Liberation Serif;font-variant:normal;font-weight:normal;font-style:normal;font-size:30px">log(μs + 1)</text>
</g>
<text x="49.712" y="-860.63" transform="scale(1, -1)"
	style="font-family:Liberation Serif;font-variant:normal;font-weight:normal;font-style:normal;font-size:20px">20000</text>
<text x="49.712" y="-961.9" transform="scale(1, -1)"
	style="font-family:Liberation Serif;font-variant:normal;font-weight:normal;font-style:normal;font-size:20px">60000</text>
<text x="39.712" y="-1009" transform="scale(1, -1)"
	style="font-family:Liberation Serif;font-variant:normal;font-weight:normal;font-style:normal;font-size:20px">100000</text>
<path d="M104.71,865.2L112.71,865.2" style="fill:none;stroke:#000000;stroke-width:0.5" />
<path d="M104.71,966.47L112.71,966.47" style="fill:none;stroke:#000000;stroke-width:0.5" />
<path d="M104.71,1013.6L112.71,1013.6" style="fill:none;stroke:#000000;stroke-width:0.5" />
<path d="M108.71,801.31L112.71,801.31" style="fill:none;stroke:#000000;stroke-width:0.5" />
<path d="M108.71,902.58L112.71,902.58" style="fill:none;stroke:#000000;stroke-width:0.5" />
<path d="M108.71,929.09L112.71,929.09" style="fill:none;stroke:#000000;stroke-width:0.5" />
<path d="M108.71,949.66L112.71,949.66" style="fill:none;stroke:#000000;stroke-width:0.5" />
<path d="M108.71,980.68L112.71,980.68" style="fill:none;stroke:#000000;stroke-width:0.5" />
<path d="M108.71,992.99L112.71,992.99" style="fill:none;stroke:#000000;stroke-width:0.5" />
<path d="M108.71,1003.8L112.71,1003.8" style="fill:none;stroke:#000000;stroke-width:0.5" />
<path d="M112.71,80.11L112.71,1021.8" style="fill:none;stroke:#000000;stroke-width:0.5" />
<path d="M125.46,80.11L125.46,1021.8" style="fill:none;stroke:#808080;stroke-width:0.25" />
<path d="M320.97,80.11L320.97,1021.8" style="fill:none;stroke:#808080;stroke-width:0.25" />
<path d="M516.47,80.11L516.47,1021.8" style="fill:none;stroke:#808080;stroke-width:0.25" />
<path d="M711.97,80.11L711.97,1021.8" style="fill:none;stroke:#808080;stroke-width:0.25" />
<path d="M907.48,80.11L907.48,1021.8" style="fill:none;stroke:#808080;stroke-width:0.25" />
<path d="M1103,80.11L1103,1021.8" style="fill:none;stroke:#808080;stroke-width:0.25" />
<path d="M1298.5,80.11L1298.5,1021.8" style="fill:none;stroke:#808080;stroke-width:0.25" />
<path d="M1494,80.11L1494,1021.8" style="fill:none;stroke:#808080;stroke-width:0.25" />
<path d="M1689.5,80.11L1689.5,1021.8" style="fill:none;stroke:#808080;stroke-width:0.25" />
<path d="M1885,80.11L1885,1021.8" style="fill:none;stroke:#808080;stroke-width:0.25" />
<path d="M125.46,865.2L1885,865.2" style="fill:none;stroke:#808080;stroke-width:0.25" />
<path d="M125.46,966.47L1885,966.47" style="fill:none;stroke:#808080;stroke-width:0.25" />
<path d="M125.46,1013.6L1885,1013.6" style="fill:none;stroke:#808080;stroke-width:0.25" />
<path d="M125.46,774.37L320.97,844.07L516.47,889.84L711.97,917.32L907.48,932.82L1103,939.72L1298.5,966.23L1494,967.83L1689.5,984.25L1885,988.62" style="fill:none;stroke:#FF0000;stroke-width:4" />
<path d="M130.46,774.37A5,5 0 1 1 120.46,774.37A5,5 0 1 1 130.46,774.37Z" style="fill:#FF0000" />
<path d="M325.97,844.07A5,5 0 1 1 315.97,844.07A5,5 0 1 1 325.97,844.07Z" style="fill:#FF0000" />
<path d="M521.47,889.84A5,5 0 1 1 511.47,889.84A5,5 0 1 1 521.47,889.84Z" style="fill:#FF0000" />
<path d="M716.97,917.32A5,5 0 1 1 706.97,917.32A5,5 0 1 1 716.97,917.32Z" style="fill:#FF0000" />
<path d="M912.48,932.82A5,5 0 1 1 902.48,932.82A5,5 0 1 1 912.48,932.82Z" style="fill:#FF0000" />
<path d="M1108,939.72A5,5 0 1 1 1098,939.72A5,5 0 1 1 1108,939.72Z" style="fill:#FF0000" />
<path d="M1303.5,966.23A5,5 0 1 1 1293.5,966.23A5,5 0 1 1 1303.5,966.23Z" style="fill:#FF0000" />
<path d="M1499,967.83A5,5 0 1 1 1489,967.83A5,5 0 1 1 1499,967.83Z" style="fill:#FF0000" />
<path d="M1694.5,984.25A5,5 0 1 1 1684.5,984.25A5,5 0 1 1 1694.5,984.25Z" style="fill:#FF0000" />
<path d="M1890,988.62A5,5 0 1 1 1880,988.62A5,5 0 1 1 1890,988.62Z" style="fill:#FF0000" />
<path d="M125.46,80.11L320.97,117.48L516.47,100.68L711.97,100.68L907.48,80.11L1103,80.11L1298.5,80.11L1494,131.69L1689.5,80.11L1885,173.36" style="fill:none;stroke:#0000FF;stroke-width:4" />
<path d="M130.46,80.11A5,5 0 1 1 120.46,80.11A5,5 0 1 1 130.46,80.11Z" style="fill:#0000FF" />
<path d="M325.97,117.48A5,5 0 1 1 315.97,117.48A5,5 0 1 1 325.97,117.48Z" style="fill:#0000FF" />
<path d="M521.47,100.68A5,5 0 1 1 511.47,100.68A5,5 0 1 1 521.47,100.68Z" style="fill:#0000FF" />
<path d="M716.97,100.68A5,5 0 1 1 706.97,100.68A5,5 0 1 1 716.97,100.68Z" style="fill:#0000FF" />
<path d="M912.48,80.11A5,5 0 1 1 902.48,80.11A5,5 0 1 1 912.48,80.11Z" style="fill:#0000FF" />
<path d="M1108,80.11A5,5 0 1 1 1098,80.11A5,5 0 1 1 1108,80.11Z" style="fill:#0000FF" />
<path d="M1303.5,80.11A5,5 0 1 1 1293.5,80.11A5,5 0 1 1 1303.5,80.11Z" style="fill:#0000FF" />
<path d="M1499,131.69A5,5 0 1 1 1489,131.69A5,5 0 1 1 1499,131.69Z" style="fill:#0000FF" />
<path d="M1694.5,80.11A5,5 0 1 1 1684.5,80.11A5,5 0 1 1 1694.5,80.11Z" style="fill:#0000FF" />
<path d="M1890,173.36A5,5 0 1 1 1880,173.36A5,5 0 1 1 1890,173.36Z" style="fill:#0000FF" />
<path d="M125.46,807.61L320.97,881.28L516.47,911.72L711.97,941.16L907.48,965.31L1103,971.26L1298.5,975.99L1494,990.88L1689.5,1000.9L1885,1013" style="fill:none;stroke:#00FF00;stroke-width:4" />
<path d="M130.46,807.61A5,5 0 1 1 120.46,807.61A5,5 0 1 1 130.46,807.61Z" style="fill:#00FF00" />
<path d="M325.97,881.28A5,5 0 1 1 315.97,881.28A5,5 0 1 1 325.97,881.28Z" style="fill:#00FF00" />
<path d="M521.47,911.72A5,5 0 1 1 511.47,911.72A5,5 0 1 1 521.47,911.72Z" style="fill:#00FF00" />
<path d="M716.97,941.16A5,5 0 1 1 706.97,941.16A5,5 0 1 1 716.97,941.16Z" style="fill:#00FF00" />
<path d="M912.48,965.31A5,5 0 1 1 902.48,965.31A5,5 0 1 1 912.48,965.31Z" style="fill:#00FF00" />
<path d="M1108,971.26A5,5 0 1 1 1098,971.26A5,5 0 1 1 1108,971.26Z" style="fill:#00FF00" />
<path d="M1303.5,975.99A5,5 0 1 1 1293.5,975.99A5,5 0 1 1 1303.5,975.99Z" style="fill:#00FF00" />
<path d="M1499,990.88A5,5 0 1 1 1489,990.88A5,5 0 1 1 1499,990.88Z" style="fill:#00FF00" />
<path d="M1694.5,1000.9A5,5 0 1 1 1684.5,1000.9A5,5 0 1 1 1694.5,1000.9Z" style="fill:#00FF00" />
<path d="M1890,1013A5,5 0 1 1 1880,1013A5,5 0 1 1 1890,1013Z" style="fill:#00FF00" />
<path d="M1900,126.03L1920,126.03" style="fill:none;stroke:#FF0000;stroke-width:4" />
<path d="M1915,126.03A5,5 0 1 1 1905,126.03A5,5 0 1 1 1915,126.03Z" style="fill:#FF0000" />
<text x="1795.4" y="-121.05" transform="scale(1, -1)"
	style="font-family:Liberation Serif;font-variant:normal;font-weight:normal;font-style:normal;font-size:24px">std::deque</text>
<path d="M1900,105.66L1920,105.66" style="fill:none;stroke:#0000FF;stroke-width:4" />
<path d="M1915,105.66A5,5 0 1 1 1905,105.66A5,5 0 1 1 1915,105.66Z" style="fill:#0000FF" />
<text x="1792.7" y="-100.69" transform="scale(1, -1)"
	style="font-family:Liberation Serif;font-variant:normal;font-weight:normal;font-style:normal;font-size:24px">std::vector</text>
<path d="M1900,85.294L1920,85.294" style="fill:none;stroke:#00FF00;stroke-width:4" />
<path d="M1915,85.294A5,5 0 1 1 1905,85.294A5,5 0 1 1 1915,85.294Z" style="fill:#00FF00" />
<text x="1823.3" y="-80.319" transform="scale(1, -1)"
	style="font-family:Liberation Serif;font-variant:normal;font-weight:normal;font-style:normal;font-size:24px">std::list</text>
</g>
</svg>
