<?xml version="1.0"?>
<!-- Generated by SVGo and Plotinum VG -->
<svg width="1920pt" height="1080pt" viewBox="0 0 1920 1080"
	xmlns="http://www.w3.org/2000/svg"
	xmlns:xlink="http://www.w3.org/1999/xlink">
<g transform="scale(1, -1) translate(0, -1080)">
<path d="M0,0L1920,0L1920,1080L0,1080Z" style="fill:#FFFFFF" />
<text x="764.92" y="-1040.9" transform="scale(1, -1)"
	style="font-family:Liberation Serif;font-variant:normal;font-weight:normal;font-style:normal;font-size:50px">destroy - Log Scale</text>
<text x="877.77" y="-9.7559" transform="scale(1, -1)"
	style="font-family:Liberation Serif;font-variant:normal;font-weight:normal;font-style:normal;font-size:30px">Number of elements</text>
<text x="85.462" y="-39.727" transform="scale(1, -1)"
	style="font-family:Liberation Serif;font-variant:normal;font-weight:normal;font-style:normal;font-size:20px">100000</text>
<text x="282.08" y="-39.727" transform="scale(1, -1)"
	style="font-family:Liberation Serif;font-variant:normal;font-weight:normal;font-style:normal;font-size:20px">200000</text>
<text x="478.69" y="-39.727" transform="scale(1, -1)"
	style="font-family:Liberation Serif;font-variant:normal;font-weight:normal;font-style:normal;font-size:20px">300000</text>
<text x="675.31" y="-39.727" transform="scale(1, -1)"
	style="font-family:Liberation Serif;font-variant:normal;font-weight:normal;font-style:normal;font-size:20px">400000</text>
<text x="871.92" y="-39.727" transform="scale(1, -1)"
	style="font-family:Liberation Serif;font-variant:normal;font-weight:normal;font-style:normal;font-size:20px">500000</text>
<text x="1068.5" y="-39.727" transform="scale(1, -1)"
	style="font-family:Liberation Serif;font-variant:normal;font-weight:normal;font-style:normal;font-size:20px">600000</text>
<text x="1265.2" y="-39.727" transform="scale(1, -1)"
	style="font-family:Liberation Serif;font-variant:normal;font-weight:normal;font-style:normal;font-size:20px">700000</text>
<text x="1461.8" y="-39.727" transform="scale(1, -1)"
	style="font-family:Liberation Serif;font-variant:normal;font-weight:normal;font-style:normal;font-size:20px">800000</text>
<text x="1658.4" y="-39.727" transform="scale(1, -1)"
	style="font-family:Liberation Serif;font-variant:normal;font-weight:normal;font-style:normal;font-size:20px">900000</text>
<text x="1850" y="-39.727" transform="scale(1, -1)"
	style="font-family:Liberation Serif;font-variant:normal;font-weight:normal;font-style:normal;font-size:20px">1000000</text>
<path d="M115.46,55.371L115.46,63.371" style="fill:none;stroke:#000000;stroke-width:0.5" />
<path d="M312.08,55.371L312.08,63.371" style="fill:none;stroke:#000000;stroke-width:0.5" />
<path d="M508.69,55.371L508.69,63.371" style="fill:none;stroke:#000000;stroke-width:0.5" />
<path d="M705.31,55.371L705.31,63.371" style="fill:none;stroke:#000000;stroke-width:0.5" />
<path d="M901.92,55.371L901.92,63.371" style="fill:none;stroke:#000000;stroke-width:0.5" />
<path d="M1098.5,55.371L1098.5,63.371" style="fill:none;stroke:#000000;stroke-width:0.5" />
<path d="M1295.2,55.371L1295.2,63.371" style="fill:none;stroke:#000000;stroke-width:0.5" />
<path d="M1491.8,55.371L1491.8,63.371" style="fill:none;stroke:#000000;stroke-width:0.5" />
<path d="M1688.4,55.371L1688.4,63.371" style="fill:none;stroke:#000000;stroke-width:0.5" />
<path d="M1885,55.371L1885,63.371" style="fill:none;stroke:#000000;stroke-width:0.5" />
<path d="M115.46,63.371L1885,63.371" style="fill:none;stroke:#000000;stroke-width:0.5" />
<g transform="rotate(90)">
<text x="483.48" y="23.467" transform="scale(1, -1)"
	style="font-family:Liberation Serif;font-variant:normal;font-weight:normal;font-style:normal;font-size:30px">log(μs + 1)</text>
</g>
<text x="49.712" y="-833.74" transform="scale(1, -1)"
	style="font-family:Liberation Serif;font-variant:normal;font-weight:normal;font-style:normal;font-size:20px">5000</text>
<text x="39.712" y="-957.15" transform="scale(1, -1)"
	style="font-family:Liberation Serif;font-variant:normal;font-weight:normal;font-style:normal;font-size:20px">20000</text>
<text x="39.712" y="-1007" transform="scale(1, -1)"
	style="font-family:Liberation Serif;font-variant:normal;font-weight:normal;font-style:normal;font-size:20px">35000</text>
<path d="M94.712,838.31L102.71,838.31" style="fill:none;stroke:#000000;stroke-width:0.5" />
<path d="M94.712,961.72L102.71,961.72" style="fill:none;stroke:#000000;stroke-width:0.5" />
<path d="M94.712,1011.5L102.71,1011.5" style="fill:none;stroke:#000000;stroke-width:0.5" />
<path d="M98.712,919.88L102.71,919.88" style="fill:none;stroke:#000000;stroke-width:0.5" />
<path d="M98.712,990.07L102.71,990.07" style="fill:none;stroke:#000000;stroke-width:0.5" />
<path d="M102.71,80.11L102.71,1019.8" style="fill:none;stroke:#000000;stroke-width:0.5" />
<path d="M115.46,80.11L115.46,1019.8" style="fill:none;stroke:#808080;stroke-width:0.25" />
<path d="M312.08,80.11L312.08,1019.8" style="fill:none;stroke:#808080;stroke-width:0.25" />
<path d="M508.69,80.11L508.69,1019.8" style="fill:none;stroke:#808080;stroke-width:0.25" />
<path d="M705.31,80.11L705.31,1019.8" style="fill:none;stroke:#808080;stroke-width:0.25" />
<path d="M901.92,80.11L901.92,1019.8" style="fill:none;stroke:#808080;stroke-width:0.25" />
<path d="M1098.5,80.11L1098.5,1019.8" style="fill:none;stroke:#808080;stroke-width:0.25" />
<path d="M1295.2,80.11L1295.2,1019.8" style="fill:none;stroke:#808080;stroke-width:0.25" />
<path d="M1491.8,80.11L1491.8,1019.8" style="fill:none;stroke:#808080;stroke-width:0.25" />
<path d="M1688.4,80.11L1688.4,1019.8" style="fill:none;stroke:#808080;stroke-width:0.25" />
<path d="M1885,80.11L1885,1019.8" style="fill:none;stroke:#808080;stroke-width:0.25" />
<path d="M115.46,838.31L1885,838.31" style="fill:none;stroke:#808080;stroke-width:0.25" />
<path d="M115.46,961.72L1885,961.72" style="fill:none;stroke:#808080;stroke-width:0.25" />
<path d="M115.46,1011.5L1885,1011.5" style="fill:none;stroke:#808080;stroke-width:0.25" />
<path d="M115.46,815.6L312.08,877.02L508.69,910.72L705.31,930.85L901.92,949.1L1098.5,975.83L1295.2,992.71L1491.8,992.38L1688.4,1011L1885,1011.4" style="fill:none;stroke:#FF0000;stroke-width:4" />
<path d="M120.46,815.6A5,5 0 1 1 110.46,815.6A5,5 0 1 1 120.46,815.6Z" style="fill:#FF0000" />
<path d="M317.08,877.02A5,5 0 1 1 307.08,877.02A5,5 0 1 1 317.08,877.02Z" style="fill:#FF0000" />
<path d="M513.69,910.72A5,5 0 1 1 503.69,910.72A5,5 0 1 1 513.69,910.72Z" style="fill:#FF0000" />
<path d="M710.31,930.85A5,5 0 1 1 700.31,930.85A5,5 0 1 1 710.31,930.85Z" style="fill:#FF0000" />
<path d="M906.92,949.1A5,5 0 1 1 896.92,949.1A5,5 0 1 1 906.92,949.1Z" style="fill:#FF0000" />
<path d="M1103.5,975.83A5,5 0 1 1 1093.5,975.83A5,5 0 1 1 1103.5,975.83Z" style="fill:#FF0000" />
<path d="M1300.2,992.71A5,5 0 1 1 1290.2,992.71A5,5 0 1 1 1300.2,992.71Z" style="fill:#FF0000" />
<path d="M1496.8,992.38A5,5 0 1 1 1486.8,992.38A5,5 0 1 1 1496.8,992.38Z" style="fill:#FF0000" />
<path d="M1693.4,1011A5,5 0 1 1 1683.4,1011A5,5 0 1 1 1693.4,1011Z" style="fill:#FF0000" />
<path d="M1890,1011.4A5,5 0 1 1 1880,1011.4A5,5 0 1 1 1890,1011.4Z" style="fill:#FF0000" />
<path d="M115.46,451.72L312.08,500.15L508.69,549.97L705.31,536.78L901.92,559.44L1098.5,577.49L1295.2,601.33L1491.8,594.99L1688.4,594.44L1885,604.09" style="fill:none;stroke:#0000FF;stroke-width:4" />
<path d="M120.46,451.72A5,5 0 1 1 110.46,451.72A5,5 0 1 1 120.46,451.72Z" style="fill:#0000FF" />
<path d="M317.08,500.15A5,5 0 1 1 307.08,500.15A5,5 0 1 1 317.08,500.15Z" style="fill:#0000FF" />
<path d="M513.69,549.97A5,5 0 1 1 503.69,549.97A5,5 0 1 1 513.69,549.97Z" style="fill:#0000FF" />
<path d="M710.31,536.78A5,5 0 1 1 700.31,536.78A5,5 0 1 1 710.31,536.78Z" style="fill:#0000FF" />
<path d="M906.92,559.44A5,5 0 1 1 896.92,559.44A5,5 0 1 1 906.92,559.44Z" style="fill:#0000FF" />
<path d="M1103.5,577.49A5,5 0 1 1 1093.5,577.49A5,5 0 1 1 1103.5,577.49Z" style="fill:#0000FF" />
<path d="M1300.2,601.33A5,5 0 1 1 1290.2,601.33A5,5 0 1 1 1300.2,601.33Z" style="fill:#0000FF" />
<path d="M1496.8,594.99A5,5 0 1 1 1486.8,594.99A5,5 0 1 1 1496.8,594.99Z" style="fill:#0000FF" />
<path d="M1693.4,594.44A5,5 0 1 1 1683.4,594.44A5,5 0 1 1 1693.4,594.44Z" style="fill:#0000FF" />
<path d="M1890,604.09A5,5 0 1 1 1880,604.09A5,5 0 1 1 1890,604.09Z" style="fill:#0000FF" />
<path d="M115.46,265.22L312.08,80.11L508.69,141.81L705.31,80.11L901.92,80.11L1098.5,141.81L1295.2,203.52L1491.8,141.81L1688.4,141.81L1885,80.11" style="fill:none;stroke:#00FF00;stroke-width:4" />
<path d="M120.46,265.22A5,5 0 1 1 110.46,265.22A5,5 0 1 1 120.46,265.22Z" style="fill:#00FF00" />
<path d="M317.08,80.11A5,5 0 1 1 307.08,80.11A5,5 0 1 1 317.08,80.11Z" style="fill:#00FF00" />
<path d="M513.69,141.81A5,5 0 1 1 503.69,141.81A5,5 0 1 1 513.69,141.81Z" style="fill:#00FF00" />
<path d="M710.31,80.11A5,5 0 1 1 700.31,80.11A5,5 0 1 1 710.31,80.11Z" style="fill:#00FF00" />
<path d="M906.92,80.11A5,5 0 1 1 896.92,80.11A5,5 0 1 1 906.92,80.11Z" style="fill:#00FF00" />
<path d="M1103.5,141.81A5,5 0 1 1 1093.5,141.81A5,5 0 1 1 1103.5,141.81Z" style="fill:#00FF00" />
<path d="M1300.2,203.52A5,5 0 1 1 1290.2,203.52A5,5 0 1 1 1300.2,203.52Z" style="fill:#00FF00" />
<path d="M1496.8,141.81A5,5 0 1 1 1486.8,141.81A5,5 0 1 1 1496.8,141.81Z" style="fill:#00FF00" />
<path d="M1693.4,141.81A5,5 0 1 1 1683.4,141.81A5,5 0 1 1 1693.4,141.81Z" style="fill:#00FF00" />
<path d="M1890,80.11A5,5 0 1 1 1880,80.11A5,5 0 1 1 1890,80.11Z" style="fill:#00FF00" />
<path d="M1900,126.03L1920,126.03" style="fill:none;stroke:#FF0000;stroke-width:4" />
<path d="M1915,126.03A5,5 0 1 1 1905,126.03A5,5 0 1 1 1915,126.03Z" style="fill:#FF0000" />
<text x="1823.3" y="-121.05" transform="scale(1, -1)"
	style="font-family:Liberation Serif;font-variant:normal;font-weight:normal;font-style:normal;font-size:24px">std::list</text>
<path d="M1900,105.66L1920,105.66" style="fill:none;stroke:#0000FF;stroke-width:4" />
<path d="M1915,105.66A5,5 0 1 1 1905,105.66A5,5 0 1 1 1915,105.66Z" style="fill:#0000FF" />
<text x="1795.4" y="-100.69" transform="scale(1, -1)"
	style="font-family:Liberation Serif;font-variant:normal;font-weight:normal;font-style:normal;font-size:24px">std::deque</text>
<path d="M1900,85.294L1920,85.294" style="fill:none;stroke:#00FF00;stroke-width:4" />
<path d="M1915,85.294A5,5 0 1 1 1905,85.294A5,5 0 1 1 1915,85.294Z" style="fill:#00FF00" />
<text x="1792.7" y="-80.319" transform="scale(1, -1)"
	style="font-family:Liberation Serif;font-variant:normal;font-weight:normal;font-style:normal;font-size:24px">std::vector</text>
</g>
</svg>
