<?xml version="1.0"?>
<!-- Generated by SVGo and Plotinum VG -->
<svg width="1920pt" height="1080pt" viewBox="0 0 1920 1080"
	xmlns="http://www.w3.org/2000/svg"
	xmlns:xlink="http://www.w3.org/1999/xlink">
<g transform="scale(1, -1) translate(0, -1080)">
<path d="M0,0L1920,0L1920,1080L0,1080Z" style="fill:#FFFFFF" />
<text x="886.4" y="-1040.9" transform="scale(1, -1)"
	style="font-family:Liberation Serif;font-variant:normal;font-weight:normal;font-style:normal;font-size:50px">destroy</text>
<text x="882.77" y="-9.7559" transform="scale(1, -1)"
	style="font-family:Liberation Serif;font-variant:normal;font-weight:normal;font-style:normal;font-size:30px">Number of elements</text>
<text x="95.462" y="-39.727" transform="scale(1, -1)"
	style="font-family:Liberation Serif;font-variant:normal;font-weight:normal;font-style:normal;font-size:20px">100000</text>
<text x="290.97" y="-39.727" transform="scale(1, -1)"
	style="font-family:Liberation Serif;font-variant:normal;font-weight:normal;font-style:normal;font-size:20px">200000</text>
<text x="486.47" y="-39.727" transform="scale(1, -1)"
	style="font-family:Liberation Serif;font-variant:normal;font-weight:normal;font-style:normal;font-size:20px">300000</text>
<text x="681.97" y="-39.727" transform="scale(1, -1)"
	style="font-family:Liberation Serif;font-variant:normal;font-weight:normal;font-style:normal;font-size:20px">400000</text>
<text x="877.48" y="-39.727" transform="scale(1, -1)"
	style="font-family:Liberation Serif;font-variant:normal;font-weight:normal;font-style:normal;font-size:20px">500000</text>
<text x="1073" y="-39.727" transform="scale(1, -1)"
	style="font-family:Liberation Serif;font-variant:normal;font-weight:normal;font-style:normal;font-size:20px">600000</text>
<text x="1268.5" y="-39.727" transform="scale(1, -1)"
	style="font-family:Liberation Serif;font-variant:normal;font-weight:normal;font-style:normal;font-size:20px">700000</text>
<text x="1464" y="-39.727" transform="scale(1, -1)"
	style="font-family:Liberation Serif;font-variant:normal;font-weight:normal;font-style:normal;font-size:20px">800000</text>
<text x="1659.5" y="-39.727" transform="scale(1, -1)"
	style="font-family:Liberation Serif;font-variant:normal;font-weight:normal;font-style:normal;font-size:20px">900000</text>
<text x="1850" y="-39.727" transform="scale(1, -1)"
	style="font-family:Liberation Serif;font-variant:normal;font-weight:normal;font-style:normal;font-size:20px">1000000</text>
<path d="M125.46,55.371L125.46,63.371" style="fill:none;stroke:#000000;stroke-width:0.5" />
<path d="M320.97,55.371L320.97,63.371" style="fill:none;stroke:#000000;stroke-width:0.5" />
<path d="M516.47,55.371L516.47,63.371" style="fill:none;stroke:#000000;stroke-width:0.5" />
<path d="M711.97,55.371L711.97,63.371" style="fill:none;stroke:#000000;stroke-width:0.5" />
<path d="M907.48,55.371L907.48,63.371" style="fill:none;stroke:#000000;stroke-width:0.5" />
<path d="M1103,55.371L1103,63.371" style="fill:none;stroke:#000000;stroke-width:0.5" />
<path d="M1298.5,55.371L1298.5,63.371" style="fill:none;stroke:#000000;stroke-width:0.5" />
<path d="M1494,55.371L1494,63.371" style="fill:none;stroke:#000000;stroke-width:0.5" />
<path d="M1689.5,55.371L1689.5,63.371" style="fill:none;stroke:#000000;stroke-width:0.5" />
<path d="M1885,55.371L1885,63.371" style="fill:none;stroke:#000000;stroke-width:0.5" />
<path d="M125.46,63.371L1885,63.371" style="fill:none;stroke:#000000;stroke-width:0.5" />
<g transform="rotate(90)">
<text x="538.49" y="23.467" transform="scale(1, -1)"
	style="font-family:Liberation Serif;font-variant:normal;font-weight:normal;font-style:normal;font-size:30px">μs</text>
</g>
<text x="49.712" y="-248.28" transform="scale(1, -1)"
	style="font-family:Liberation Serif;font-variant:normal;font-weight:normal;font-style:normal;font-size:20px">20000</text>
<text x="49.712" y="-593.81" transform="scale(1, -1)"
	style="font-family:Liberation Serif;font-variant:normal;font-weight:normal;font-style:normal;font-size:20px">60000</text>
<text x="39.712" y="-939.34" transform="scale(1, -1)"
	style="font-family:Liberation Serif;font-variant:normal;font-weight:normal;font-style:normal;font-size:20px">100000</text>
<path d="M104.71,252.85L112.71,252.85" style="fill:none;stroke:#000000;stroke-width:0.5" />
<path d="M104.71,598.38L112.71,598.38" style="fill:none;stroke:#000000;stroke-width:0.5" />
<path d="M104.71,943.91L112.71,943.91" style="fill:none;stroke:#000000;stroke-width:0.5" />
<path d="M108.71,166.47L112.71,166.47" style="fill:none;stroke:#000000;stroke-width:0.5" />
<path d="M108.71,339.23L112.71,339.23" style="fill:none;stroke:#000000;stroke-width:0.5" />
<path d="M108.71,425.61L112.71,425.61" style="fill:none;stroke:#000000;stroke-width:0.5" />
<path d="M108.71,512L112.71,512" style="fill:none;stroke:#000000;stroke-width:0.5" />
<path d="M108.71,684.76L112.71,684.76" style="fill:none;stroke:#000000;stroke-width:0.5" />
<path d="M108.71,771.14L112.71,771.14" style="fill:none;stroke:#000000;stroke-width:0.5" />
<path d="M108.71,857.53L112.71,857.53" style="fill:none;stroke:#000000;stroke-width:0.5" />
<path d="M112.71,80.11L112.71,1024.6" style="fill:none;stroke:#000000;stroke-width:0.5" />
<path d="M125.46,80.11L125.46,1024.6" style="fill:none;stroke:#808080;stroke-width:0.25" />
<path d="M320.97,80.11L320.97,1024.6" style="fill:none;stroke:#808080;stroke-width:0.25" />
<path d="M516.47,80.11L516.47,1024.6" style="fill:none;stroke:#808080;stroke-width:0.25" />
<path d="M711.97,80.11L711.97,1024.6" style="fill:none;stroke:#808080;stroke-width:0.25" />
<path d="M907.48,80.11L907.48,1024.6" style="fill:none;stroke:#808080;stroke-width:0.25" />
<path d="M1103,80.11L1103,1024.6" style="fill:none;stroke:#808080;stroke-width:0.25" />
<path d="M1298.5,80.11L1298.5,1024.6" style="fill:none;stroke:#808080;stroke-width:0.25" />
<path d="M1494,80.11L1494,1024.6" style="fill:none;stroke:#808080;stroke-width:0.25" />
<path d="M1689.5,80.11L1689.5,1024.6" style="fill:none;stroke:#808080;stroke-width:0.25" />
<path d="M1885,80.11L1885,1024.6" style="fill:none;stroke:#808080;stroke-width:0.25" />
<path d="M125.46,252.85L1885,252.85" style="fill:none;stroke:#808080;stroke-width:0.25" />
<path d="M125.46,598.38L1885,598.38" style="fill:none;stroke:#808080;stroke-width:0.25" />
<path d="M125.46,943.91L1885,943.91" style="fill:none;stroke:#808080;stroke-width:0.25" />
<path d="M125.46,144.57L320.97,217.45L516.47,305.79L711.97,384.16L907.48,439.88L1103,467.83L1298.5,597.06L1494,606.07L1689.5,708.66L1885,739.19" style="fill:none;stroke:#FF0000;stroke-width:4" />
<path d="M130.46,144.57A5,5 0 1 1 120.46,144.57A5,5 0 1 1 130.46,144.57Z" style="fill:#FF0000" />
<path d="M325.97,217.45A5,5 0 1 1 315.97,217.45A5,5 0 1 1 325.97,217.45Z" style="fill:#FF0000" />
<path d="M521.47,305.79A5,5 0 1 1 511.47,305.79A5,5 0 1 1 521.47,305.79Z" style="fill:#FF0000" />
<path d="M716.97,384.16A5,5 0 1 1 706.97,384.16A5,5 0 1 1 716.97,384.16Z" style="fill:#FF0000" />
<path d="M912.48,439.88A5,5 0 1 1 902.48,439.88A5,5 0 1 1 912.48,439.88Z" style="fill:#FF0000" />
<path d="M1108,467.83A5,5 0 1 1 1098,467.83A5,5 0 1 1 1108,467.83Z" style="fill:#FF0000" />
<path d="M1303.5,597.06A5,5 0 1 1 1293.5,597.06A5,5 0 1 1 1303.5,597.06Z" style="fill:#FF0000" />
<path d="M1499,606.07A5,5 0 1 1 1489,606.07A5,5 0 1 1 1499,606.07Z" style="fill:#FF0000" />
<path d="M1694.5,708.66A5,5 0 1 1 1684.5,708.66A5,5 0 1 1 1694.5,708.66Z" style="fill:#FF0000" />
<path d="M1890,739.19A5,5 0 1 1 1880,739.19A5,5 0 1 1 1890,739.19Z" style="fill:#FF0000" />
<path d="M125.46,80.11L320.97,80.128L516.47,80.119L711.97,80.119L907.48,80.11L1103,80.11L1298.5,80.11L1494,80.136L1689.5,80.11L1885,80.171" style="fill:none;stroke:#0000FF;stroke-width:4" />
<path d="M130.46,80.11A5,5 0 1 1 120.46,80.11A5,5 0 1 1 130.46,80.11Z" style="fill:#0000FF" />
<path d="M325.97,80.128A5,5 0 1 1 315.97,80.128A5,5 0 1 1 325.97,80.128Z" style="fill:#0000FF" />
<path d="M521.47,80.119A5,5 0 1 1 511.47,80.119A5,5 0 1 1 521.47,80.119Z" style="fill:#0000FF" />
<path d="M716.97,80.119A5,5 0 1 1 706.97,80.119A5,5 0 1 1 716.97,80.119Z" style="fill:#0000FF" />
<path d="M912.48,80.11A5,5 0 1 1 902.48,80.11A5,5 0 1 1 912.48,80.11Z" style="fill:#0000FF" />
<path d="M1108,80.11A5,5 0 1 1 1098,80.11A5,5 0 1 1 1108,80.11Z" style="fill:#0000FF" />
<path d="M1303.5,80.11A5,5 0 1 1 1293.5,80.11A5,5 0 1 1 1303.5,80.11Z" style="fill:#0000FF" />
<path d="M1499,80.136A5,5 0 1 1 1489,80.136A5,5 0 1 1 1499,80.136Z" style="fill:#0000FF" />
<path d="M1694.5,80.11A5,5 0 1 1 1684.5,80.11A5,5 0 1 1 1694.5,80.11Z" style="fill:#0000FF" />
<path d="M1890,80.171A5,5 0 1 1 1880,80.171A5,5 0 1 1 1890,80.171Z" style="fill:#0000FF" />
<path d="M125.46,172.57L320.97,285.76L516.47,366.25L711.97,473.93L907.48,591.9L1103,626L1298.5,654.76L1494,755.55L1689.5,832.84L1885,938.76" style="fill:none;stroke:#00FF00;stroke-width:4" />
<path d="M130.46,172.57A5,5 0 1 1 120.46,172.57A5,5 0 1 1 130.46,172.57Z" style="fill:#00FF00" />
<path d="M325.97,285.76A5,5 0 1 1 315.97,285.76A5,5 0 1 1 325.97,285.76Z" style="fill:#00FF00" />
<path d="M521.47,366.25A5,5 0 1 1 511.47,366.25A5,5 0 1 1 521.47,366.25Z" style="fill:#00FF00" />
<path d="M716.97,473.93A5,5 0 1 1 706.97,473.93A5,5 0 1 1 716.97,473.93Z" style="fill:#00FF00" />
<path d="M912.48,591.9A5,5 0 1 1 902.48,591.9A5,5 0 1 1 912.48,591.9Z" style="fill:#00FF00" />
<path d="M1108,626A5,5 0 1 1 1098,626A5,5 0 1 1 1108,626Z" style="fill:#00FF00" />
<path d="M1303.5,654.76A5,5 0 1 1 1293.5,654.76A5,5 0 1 1 1303.5,654.76Z" style="fill:#00FF00" />
<path d="M1499,755.55A5,5 0 1 1 1489,755.55A5,5 0 1 1 1499,755.55Z" style="fill:#00FF00" />
<path d="M1694.5,832.84A5,5 0 1 1 1684.5,832.84A5,5 0 1 1 1694.5,832.84Z" style="fill:#00FF00" />
<path d="M1890,938.76A5,5 0 1 1 1880,938.76A5,5 0 1 1 1890,938.76Z" style="fill:#00FF00" />
<path d="M1900,126.03L1920,126.03" style="fill:none;stroke:#FF0000;stroke-width:4" />
<path d="M1915,126.03A5,5 0 1 1 1905,126.03A5,5 0 1 1 1915,126.03Z" style="fill:#FF0000" />
<text x="1795.4" y="-121.05" transform="scale(1, -1)"
	style="font-family:Liberation Serif;font-variant:normal;font-weight:normal;font-style:normal;font-size:24px">std::deque</text>
<path d="M1900,105.66L1920,105.66" style="fill:none;stroke:#0000FF;stroke-width:4" />
<path d="M1915,105.66A5,5 0 1 1 1905,105.66A5,5 0 1 1 1915,105.66Z" style="fill:#0000FF" />
<text x="1792.7" y="-100.69" transform="scale(1, -1)"
	style="font-family:Liberation Serif;font-variant:normal;font-weight:normal;font-style:normal;font-size:24px">std::vector</text>
<path d="M1900,85.294L1920,85.294" style="fill:none;stroke:#00FF00;stroke-width:4" />
<path d="M1915,85.294A5,5 0 1 1 1905,85.294A5,5 0 1 1 1915,85.294Z" style="fill:#00FF00" />
<text x="1823.3" y="-80.319" transform="scale(1, -1)"
	style="font-family:Liberation Serif;font-variant:normal;font-weight:normal;font-style:normal;font-size:24px">std::list</text>
</g>
</svg>
