<?xml version="1.0"?>
<!-- Generated by SVGo and Plotinum VG -->
<svg width="1920pt" height="1080pt" viewBox="0 0 1920 1080"
	xmlns="http://www.w3.org/2000/svg"
	xmlns:xlink="http://www.w3.org/1999/xlink">
<g transform="scale(1, -1) translate(0, -1080)">
<path d="M0,0L1920,0L1920,1080L0,1080Z" style="fill:#FFFFFF" />
<text x="764.92" y="-1040.9" transform="scale(1, -1)"
	style="font-family:Liberation Serif;font-variant:normal;font-weight:normal;font-style:normal;font-size:50px">destroy - Log Scale</text>
<text x="882.77" y="-9.7559" transform="scale(1, -1)"
	style="font-family:Liberation Serif;font-variant:normal;font-weight:normal;font-style:normal;font-size:30px">Number of elements</text>
<text x="95.462" y="-39.727" transform="scale(1, -1)"
	style="font-family:Liberation Serif;font-variant:normal;font-weight:normal;font-style:normal;font-size:20px">100000</text>
<text x="290.97" y="-39.727" transform="scale(1, -1)"
	style="font-family:Liberation Serif;font-variant:normal;font-weight:normal;font-style:normal;font-size:20px">200000</text>
<text x="486.47" y="-39.727" transform="scale(1, -1)"
	style="font-family:Liberation Serif;font-variant:normal;font-weight:normal;font-style:normal;font-size:20px">300000</text>
<text x="681.97" y="-39.727" transform="scale(1, -1)"
	style="font-family:Liberation Serif;font-variant:normal;font-weight:normal;font-style:normal;font-size:20px">400000</text>
<text x="877.48" y="-39.727" transform="scale(1, -1)"
	style="font-family:Liberation Serif;font-variant:normal;font-weight:normal;font-style:normal;font-size:20px">500000</text>
<text x="1073" y="-39.727" transform="scale(1, -1)"
	style="font-family:Liberation Serif;font-variant:normal;font-weight:normal;font-style:normal;font-size:20px">600000</text>
<text x="1268.5" y="-39.727" transform="scale(1, -1)"
	style="font-family:Liberation Serif;font-variant:normal;font-weight:normal;font-style:normal;font-size:20px">700000</text>
<text x="1464" y="-39.727" transform="scale(1, -1)"
	style="font-family:Liberation Serif;font-variant:normal;font-weight:normal;font-style:normal;font-size:20px">800000</text>
<text x="1659.5" y="-39.727" transform="scale(1, -1)"
	style="font-family:Liberation Serif;font-variant:normal;font-weight:normal;font-style:normal;font-size:20px">900000</text>
<text x="1850" y="-39.727" transform="scale(1, -1)"
	style="font-family:Liberation Serif;font-variant:normal;font-weight:normal;font-style:normal;font-size:20px">1000000</text>
<path d="M125.46,55.371L125.46,63.371" style="fill:none;stroke:#000000;stroke-width:0.5" />
<path d="M320.97,55.371L320.97,63.371" style="fill:none;stroke:#000000;stroke-width:0.5" />
<path d="M516.47,55.371L516.47,63.371" style="fill:none;stroke:#000000;stroke-width:0.5" />
<path d="M711.97,55.371L711.97,63.371" style="fill:none;stroke:#000000;stroke-width:0.5" />
<path d="M907.48,55.371L907.48,63.371" style="fill:none;stroke:#000000;stroke-width:0.5" />
<path d="M1103,55.371L1103,63.371" style="fill:none;stroke:#000000;stroke-width:0.5" />
<path d="M1298.5,55.371L1298.5,63.371" style="fill:none;stroke:#000000;stroke-width:0.5" />
<path d="M1494,55.371L1494,63.371" style="fill:none;stroke:#000000;stroke-width:0.5" />
<path d="M1689.5,55.371L1689.5,63.371" style="fill:none;stroke:#000000;stroke-width:0.5" />
<path d="M1885,55.371L1885,63.371" style="fill:none;stroke:#000000;stroke-width:0.5" />
<path d="M125.46,63.371L1885,63.371" style="fill:none;stroke:#000000;stroke-width:0.5" />
<g transform="rotate(90)">
<text x="481.09" y="23.467" transform="scale(1, -1)"
	style="font-family:Liberation Serif;font-variant:normal;font-weight:normal;font-style:normal;font-size:30px">log(μs + 1)</text>
</g>
<text x="49.712" y="-860.63" transform="scale(1, -1)"
	style="font-family:Liberation Serif;font-variant:normal;font-weight:normal;font-style:normal;font-size:20px">20000</text>
<text x="49.712" y="-961.9" transform="scale(1, -1)"
	style="font-family:Liberation Serif;font-variant:normal;font-weight:normal;font-style:normal;font-size:20px">60000</text>
<text x="39.712" y="-1009" transform="scale(1, -1)"
	style="font-family:Liberation Serif;font-variant:normal;font-weight:normal;font-style:normal;font-size:20px">100000</text>
<path d="M104.71,865.2L112.71,865.2" style="fill:none;stroke:#000000;stroke-width:0.5" />
<path d="M104.71,966.47L112.71,966.47" style="fill:none;stroke:#000000;stroke-width:0.5" />
<path d="M104.71,1013.6L112.71,1013.6" style="fill:none;stroke:#000000;stroke-width:0.5" />
<path d="M108.71,801.31L112.71,801.31" style="fill:none;stroke:#000000;stroke-width:0.5" />
<path d="M108.71,902.58L112.71,902.58" style="fill:none;stroke:#000000;stroke-width:0.5" />
<path d="M108.71,929.09L112.71,929.09" style="fill:none;stroke:#000000;stroke-width:0.5" />
<path d="M108.71,949.66L112.71,949.66" style="fill:none;stroke:#000000;stroke-width:0.5" />
<path d="M108.71,980.68L112.71,980.68" style="fill:none;stroke:#000000;stroke-width:0.5" />
<path d="M108.71,992.99L112.71,992.99" style="fill:none;stroke:#000000;stroke-width:0.5" />
<path d="M108.71,1003.8L112.71,1003.8" style="fill:none;stroke:#000000;stroke-width:0.5" />
<path d="M112.71,80.11L112.71,1015.1" style="fill:none;stroke:#000000;stroke-width:0.5" />
<path d="M125.46,80.11L125.46,1015.1" style="fill:none;stroke:#808080;stroke-width:0.25" />
<path d="M320.97,80.11L320.97,1015.1" style="fill:none;stroke:#808080;stroke-width:0.25" />
<path d="M516.47,80.11L516.47,1015.1" style="fill:none;stroke:#808080;stroke-width:0.25" />
<path d="M711.97,80.11L711.97,1015.1" style="fill:none;stroke:#808080;stroke-width:0.25" />
<path d="M907.48,80.11L907.48,1015.1" style="fill:none;stroke:#808080;stroke-width:0.25" />
<path d="M1103,80.11L1103,1015.1" style="fill:none;stroke:#808080;stroke-width:0.25" />
<path d="M1298.5,80.11L1298.5,1015.1" style="fill:none;stroke:#808080;stroke-width:0.25" />
<path d="M1494,80.11L1494,1015.1" style="fill:none;stroke:#808080;stroke-width:0.25" />
<path d="M1689.5,80.11L1689.5,1015.1" style="fill:none;stroke:#808080;stroke-width:0.25" />
<path d="M1885,80.11L1885,1015.1" style="fill:none;stroke:#808080;stroke-width:0.25" />
<path d="M125.46,865.2L1885,865.2" style="fill:none;stroke:#808080;stroke-width:0.25" />
<path d="M125.46,966.47L1885,966.47" style="fill:none;stroke:#808080;stroke-width:0.25" />
<path d="M125.46,1013.6L1885,1013.6" style="fill:none;stroke:#808080;stroke-width:0.25" />
<path d="M125.46,764.98L320.97,832.51L516.47,893.82L711.97,916.46L907.48,946.7L1103,960.59L1298.5,969.57L1494,1003.1L1689.5,995.71L1885,1006.3" style="fill:none;stroke:#FF0000;stroke-width:4" />
<path d="M130.46,764.98A5,5 0 1 1 120.46,764.98A5,5 0 1 1 130.46,764.98Z" style="fill:#FF0000" />
<path d="M325.97,832.51A5,5 0 1 1 315.97,832.51A5,5 0 1 1 325.97,832.51Z" style="fill:#FF0000" />
<path d="M521.47,893.82A5,5 0 1 1 511.47,893.82A5,5 0 1 1 521.47,893.82Z" style="fill:#FF0000" />
<path d="M716.97,916.46A5,5 0 1 1 706.97,916.46A5,5 0 1 1 716.97,916.46Z" style="fill:#FF0000" />
<path d="M912.48,946.7A5,5 0 1 1 902.48,946.7A5,5 0 1 1 912.48,946.7Z" style="fill:#FF0000" />
<path d="M1108,960.59A5,5 0 1 1 1098,960.59A5,5 0 1 1 1108,960.59Z" style="fill:#FF0000" />
<path d="M1303.5,969.57A5,5 0 1 1 1293.5,969.57A5,5 0 1 1 1303.5,969.57Z" style="fill:#FF0000" />
<path d="M1499,1003.1A5,5 0 1 1 1489,1003.1A5,5 0 1 1 1499,1003.1Z" style="fill:#FF0000" />
<path d="M1694.5,995.71A5,5 0 1 1 1684.5,995.71A5,5 0 1 1 1694.5,995.71Z" style="fill:#FF0000" />
<path d="M1890,1006.3A5,5 0 1 1 1880,1006.3A5,5 0 1 1 1890,1006.3Z" style="fill:#FF0000" />
<path d="M125.46,753.19L320.97,817.85L516.47,869.02L711.97,906.99L907.48,931.28L1103,939.42L1298.5,954.83L1494,968.54L1689.5,980.66L1885,989.67" style="fill:none;stroke:#0000FF;stroke-width:4" />
<path d="M130.46,753.19A5,5 0 1 1 120.46,753.19A5,5 0 1 1 130.46,753.19Z" style="fill:#0000FF" />
<path d="M325.97,817.85A5,5 0 1 1 315.97,817.85A5,5 0 1 1 325.97,817.85Z" style="fill:#0000FF" />
<path d="M521.47,869.02A5,5 0 1 1 511.47,869.02A5,5 0 1 1 521.47,869.02Z" style="fill:#0000FF" />
<path d="M716.97,906.99A5,5 0 1 1 706.97,906.99A5,5 0 1 1 716.97,906.99Z" style="fill:#0000FF" />
<path d="M912.48,931.28A5,5 0 1 1 902.48,931.28A5,5 0 1 1 912.48,931.28Z" style="fill:#0000FF" />
<path d="M1108,939.42A5,5 0 1 1 1098,939.42A5,5 0 1 1 1108,939.42Z" style="fill:#0000FF" />
<path d="M1303.5,954.83A5,5 0 1 1 1293.5,954.83A5,5 0 1 1 1303.5,954.83Z" style="fill:#0000FF" />
<path d="M1499,968.54A5,5 0 1 1 1489,968.54A5,5 0 1 1 1499,968.54Z" style="fill:#0000FF" />
<path d="M1694.5,980.66A5,5 0 1 1 1684.5,980.66A5,5 0 1 1 1694.5,980.66Z" style="fill:#0000FF" />
<path d="M1890,989.67A5,5 0 1 1 1880,989.67A5,5 0 1 1 1890,989.67Z" style="fill:#0000FF" />
<path d="M125.46,80.11L320.97,131.69L516.47,80.11L711.97,80.11L907.48,80.11L1103,100.68L1298.5,80.11L1494,80.11L1689.5,80.11L1885,80.11" style="fill:none;stroke:#00FF00;stroke-width:4" />
<path d="M130.46,80.11A5,5 0 1 1 120.46,80.11A5,5 0 1 1 130.46,80.11Z" style="fill:#00FF00" />
<path d="M325.97,131.69A5,5 0 1 1 315.97,131.69A5,5 0 1 1 325.97,131.69Z" style="fill:#00FF00" />
<path d="M521.47,80.11A5,5 0 1 1 511.47,80.11A5,5 0 1 1 521.47,80.11Z" style="fill:#00FF00" />
<path d="M716.97,80.11A5,5 0 1 1 706.97,80.11A5,5 0 1 1 716.97,80.11Z" style="fill:#00FF00" />
<path d="M912.48,80.11A5,5 0 1 1 902.48,80.11A5,5 0 1 1 912.48,80.11Z" style="fill:#00FF00" />
<path d="M1108,100.68A5,5 0 1 1 1098,100.68A5,5 0 1 1 1108,100.68Z" style="fill:#00FF00" />
<path d="M1303.5,80.11A5,5 0 1 1 1293.5,80.11A5,5 0 1 1 1303.5,80.11Z" style="fill:#00FF00" />
<path d="M1499,80.11A5,5 0 1 1 1489,80.11A5,5 0 1 1 1499,80.11Z" style="fill:#00FF00" />
<path d="M1694.5,80.11A5,5 0 1 1 1684.5,80.11A5,5 0 1 1 1694.5,80.11Z" style="fill:#00FF00" />
<path d="M1890,80.11A5,5 0 1 1 1880,80.11A5,5 0 1 1 1890,80.11Z" style="fill:#00FF00" />
<path d="M1900,126.03L1920,126.03" style="fill:none;stroke:#FF0000;stroke-width:4" />
<path d="M1915,126.03A5,5 0 1 1 1905,126.03A5,5 0 1 1 1915,126.03Z" style="fill:#FF0000" />
<text x="1823.3" y="-121.05" transform="scale(1, -1)"
	style="font-family:Liberation Serif;font-variant:normal;font-weight:normal;font-style:normal;font-size:24px">std::list</text>
<path d="M1900,105.66L1920,105.66" style="fill:none;stroke:#0000FF;stroke-width:4" />
<path d="M1915,105.66A5,5 0 1 1 1905,105.66A5,5 0 1 1 1915,105.66Z" style="fill:#0000FF" />
<text x="1795.4" y="-100.69" transform="scale(1, -1)"
	style="font-family:Liberation Serif;font-variant:normal;font-weight:normal;font-style:normal;font-size:24px">std::deque</text>
<path d="M1900,85.294L1920,85.294" style="fill:none;stroke:#00FF00;stroke-width:4" />
<path d="M1915,85.294A5,5 0 1 1 1905,85.294A5,5 0 1 1 1915,85.294Z" style="fill:#00FF00" />
<text x="1792.7" y="-80.319" transform="scale(1, -1)"
	style="font-family:Liberation Serif;font-variant:normal;font-weight:normal;font-style:normal;font-size:24px">std::vector</text>
</g>
</svg>
