<?xml version="1.0"?>
<!-- Generated by SVGo and Plotinum VG -->
<svg width="1920pt" height="1080pt" viewBox="0 0 1920 1080"
	xmlns="http://www.w3.org/2000/svg"
	xmlns:xlink="http://www.w3.org/1999/xlink">
<g transform="scale(1, -1) translate(0, -1080)">
<path d="M0,0L1920,0L1920,1080L0,1080Z" style="fill:#FFFFFF" />
<text x="764.92" y="-1040.9" transform="scale(1, -1)"
	style="font-family:Liberation Serif;font-variant:normal;font-weight:normal;font-style:normal;font-size:50px">destroy - Log Scale</text>
<text x="895.27" y="-9.7559" transform="scale(1, -1)"
	style="font-family:Liberation Serif;font-variant:normal;font-weight:normal;font-style:normal;font-size:30px">Number of elements</text>
<text x="120.46" y="-39.727" transform="scale(1, -1)"
	style="font-family:Liberation Serif;font-variant:normal;font-weight:normal;font-style:normal;font-size:20px">100000</text>
<text x="313.19" y="-39.727" transform="scale(1, -1)"
	style="font-family:Liberation Serif;font-variant:normal;font-weight:normal;font-style:normal;font-size:20px">200000</text>
<text x="505.91" y="-39.727" transform="scale(1, -1)"
	style="font-family:Liberation Serif;font-variant:normal;font-weight:normal;font-style:normal;font-size:20px">300000</text>
<text x="698.64" y="-39.727" transform="scale(1, -1)"
	style="font-family:Liberation Serif;font-variant:normal;font-weight:normal;font-style:normal;font-size:20px">400000</text>
<text x="891.37" y="-39.727" transform="scale(1, -1)"
	style="font-family:Liberation Serif;font-variant:normal;font-weight:normal;font-style:normal;font-size:20px">500000</text>
<text x="1084.1" y="-39.727" transform="scale(1, -1)"
	style="font-family:Liberation Serif;font-variant:normal;font-weight:normal;font-style:normal;font-size:20px">600000</text>
<text x="1276.8" y="-39.727" transform="scale(1, -1)"
	style="font-family:Liberation Serif;font-variant:normal;font-weight:normal;font-style:normal;font-size:20px">700000</text>
<text x="1469.5" y="-39.727" transform="scale(1, -1)"
	style="font-family:Liberation Serif;font-variant:normal;font-weight:normal;font-style:normal;font-size:20px">800000</text>
<text x="1662.3" y="-39.727" transform="scale(1, -1)"
	style="font-family:Liberation Serif;font-variant:normal;font-weight:normal;font-style:normal;font-size:20px">900000</text>
<text x="1850" y="-39.727" transform="scale(1, -1)"
	style="font-family:Liberation Serif;font-variant:normal;font-weight:normal;font-style:normal;font-size:20px">1000000</text>
<path d="M150.46,55.371L150.46,63.371" style="fill:none;stroke:#000000;stroke-width:0.5" />
<path d="M343.19,55.371L343.19,63.371" style="fill:none;stroke:#000000;stroke-width:0.5" />
<path d="M535.91,55.371L535.91,63.371" style="fill:none;stroke:#000000;stroke-width:0.5" />
<path d="M728.64,55.371L728.64,63.371" style="fill:none;stroke:#000000;stroke-width:0.5" />
<path d="M921.37,55.371L921.37,63.371" style="fill:none;stroke:#000000;stroke-width:0.5" />
<path d="M1114.1,55.371L1114.1,63.371" style="fill:none;stroke:#000000;stroke-width:0.5" />
<path d="M1306.8,55.371L1306.8,63.371" style="fill:none;stroke:#000000;stroke-width:0.5" />
<path d="M1499.5,55.371L1499.5,63.371" style="fill:none;stroke:#000000;stroke-width:0.5" />
<path d="M1692.3,55.371L1692.3,63.371" style="fill:none;stroke:#000000;stroke-width:0.5" />
<path d="M1885,55.371L1885,63.371" style="fill:none;stroke:#000000;stroke-width:0.5" />
<path d="M150.46,63.371L1885,63.371" style="fill:none;stroke:#000000;stroke-width:0.5" />
<g transform="rotate(90)">
<text x="482.11" y="23.467" transform="scale(1, -1)"
	style="font-family:Liberation Serif;font-variant:normal;font-weight:normal;font-style:normal;font-size:30px">log(μs + 1)</text>
</g>
<text x="49.712" y="-819.23" transform="scale(1, -1)"
	style="font-family:Liberation Serif;font-variant:normal;font-weight:normal;font-style:normal;font-size:20px">25000.00</text>
<text x="39.712" y="-956.17" transform="scale(1, -1)"
	style="font-family:Liberation Serif;font-variant:normal;font-weight:normal;font-style:normal;font-size:20px">125000.00</text>
<text x="39.712" y="-1006.2" transform="scale(1, -1)"
	style="font-family:Liberation Serif;font-variant:normal;font-weight:normal;font-style:normal;font-size:20px">225000.00</text>
<path d="M129.71,823.8L137.71,823.8" style="fill:none;stroke:#000000;stroke-width:0.5" />
<path d="M129.71,960.74L137.71,960.74" style="fill:none;stroke:#000000;stroke-width:0.5" />
<path d="M129.71,1010.8L137.71,1010.8" style="fill:none;stroke:#000000;stroke-width:0.5" />
<path d="M133.71,917.28L137.71,917.28" style="fill:none;stroke:#000000;stroke-width:0.5" />
<path d="M133.71,989.37L137.71,989.37" style="fill:none;stroke:#000000;stroke-width:0.5" />
<path d="M137.71,80.11L137.71,1017.1" style="fill:none;stroke:#000000;stroke-width:0.5" />
<path d="M150.46,80.11L150.46,1017.1" style="fill:none;stroke:#808080;stroke-width:0.25" />
<path d="M343.19,80.11L343.19,1017.1" style="fill:none;stroke:#808080;stroke-width:0.25" />
<path d="M535.91,80.11L535.91,1017.1" style="fill:none;stroke:#808080;stroke-width:0.25" />
<path d="M728.64,80.11L728.64,1017.1" style="fill:none;stroke:#808080;stroke-width:0.25" />
<path d="M921.37,80.11L921.37,1017.1" style="fill:none;stroke:#808080;stroke-width:0.25" />
<path d="M1114.1,80.11L1114.1,1017.1" style="fill:none;stroke:#808080;stroke-width:0.25" />
<path d="M1306.8,80.11L1306.8,1017.1" style="fill:none;stroke:#808080;stroke-width:0.25" />
<path d="M1499.5,80.11L1499.5,1017.1" style="fill:none;stroke:#808080;stroke-width:0.25" />
<path d="M1692.3,80.11L1692.3,1017.1" style="fill:none;stroke:#808080;stroke-width:0.25" />
<path d="M1885,80.11L1885,1017.1" style="fill:none;stroke:#808080;stroke-width:0.25" />
<path d="M150.46,823.8L1885,823.8" style="fill:none;stroke:#808080;stroke-width:0.25" />
<path d="M150.46,960.74L1885,960.74" style="fill:none;stroke:#808080;stroke-width:0.25" />
<path d="M150.46,1010.8L1885,1010.8" style="fill:none;stroke:#808080;stroke-width:0.25" />
<path d="M150.46,837.4L343.19,871.25L535.91,913.21L728.64,934.77L921.37,951.68L1114.1,969.07L1306.8,980.66L1499.5,989.24L1692.3,1002.7L1885,1009" style="fill:none;stroke:#FF0000;stroke-width:4" />
<path d="M155.46,837.4A5,5 0 1 1 145.46,837.4A5,5 0 1 1 155.46,837.4Z" style="fill:#FF0000" />
<path d="M348.19,871.25A5,5 0 1 1 338.19,871.25A5,5 0 1 1 348.19,871.25Z" style="fill:#FF0000" />
<path d="M540.91,913.21A5,5 0 1 1 530.91,913.21A5,5 0 1 1 540.91,913.21Z" style="fill:#FF0000" />
<path d="M733.64,934.77A5,5 0 1 1 723.64,934.77A5,5 0 1 1 733.64,934.77Z" style="fill:#FF0000" />
<path d="M926.37,951.68A5,5 0 1 1 916.37,951.68A5,5 0 1 1 926.37,951.68Z" style="fill:#FF0000" />
<path d="M1119.1,969.07A5,5 0 1 1 1109.1,969.07A5,5 0 1 1 1119.1,969.07Z" style="fill:#FF0000" />
<path d="M1311.8,980.66A5,5 0 1 1 1301.8,980.66A5,5 0 1 1 1311.8,980.66Z" style="fill:#FF0000" />
<path d="M1504.5,989.24A5,5 0 1 1 1494.5,989.24A5,5 0 1 1 1504.5,989.24Z" style="fill:#FF0000" />
<path d="M1697.3,1002.7A5,5 0 1 1 1687.3,1002.7A5,5 0 1 1 1697.3,1002.7Z" style="fill:#FF0000" />
<path d="M1890,1009A5,5 0 1 1 1880,1009A5,5 0 1 1 1890,1009Z" style="fill:#FF0000" />
<path d="M150.46,820.29L343.19,869.7L535.91,901.73L728.64,913.21L921.37,932.34L1114.1,943.77L1306.8,970.72L1499.5,964.84L1692.3,972.6L1885,989.67" style="fill:none;stroke:#0000FF;stroke-width:4" />
<path d="M155.46,820.29A5,5 0 1 1 145.46,820.29A5,5 0 1 1 155.46,820.29Z" style="fill:#0000FF" />
<path d="M348.19,869.7A5,5 0 1 1 338.19,869.7A5,5 0 1 1 348.19,869.7Z" style="fill:#0000FF" />
<path d="M540.91,901.73A5,5 0 1 1 530.91,901.73A5,5 0 1 1 540.91,901.73Z" style="fill:#0000FF" />
<path d="M733.64,913.21A5,5 0 1 1 723.64,913.21A5,5 0 1 1 733.64,913.21Z" style="fill:#0000FF" />
<path d="M926.37,932.34A5,5 0 1 1 916.37,932.34A5,5 0 1 1 926.37,932.34Z" style="fill:#0000FF" />
<path d="M1119.1,943.77A5,5 0 1 1 1109.1,943.77A5,5 0 1 1 1119.1,943.77Z" style="fill:#0000FF" />
<path d="M1311.8,970.72A5,5 0 1 1 1301.8,970.72A5,5 0 1 1 1311.8,970.72Z" style="fill:#0000FF" />
<path d="M1504.5,964.84A5,5 0 1 1 1494.5,964.84A5,5 0 1 1 1504.5,964.84Z" style="fill:#0000FF" />
<path d="M1697.3,972.6A5,5 0 1 1 1687.3,972.6A5,5 0 1 1 1697.3,972.6Z" style="fill:#0000FF" />
<path d="M1890,989.67A5,5 0 1 1 1880,989.67A5,5 0 1 1 1890,989.67Z" style="fill:#0000FF" />
<path d="M150.46,80.11L343.19,99.097L535.91,80.11L728.64,99.097L921.37,99.097L1114.1,99.097L1306.8,99.097L1499.5,80.11L1692.3,80.11L1885,80.11" style="fill:none;stroke:#00FF00;stroke-width:4" />
<path d="M155.46,80.11A5,5 0 1 1 145.46,80.11A5,5 0 1 1 155.46,80.11Z" style="fill:#00FF00" />
<path d="M348.19,99.097A5,5 0 1 1 338.19,99.097A5,5 0 1 1 348.19,99.097Z" style="fill:#00FF00" />
<path d="M540.91,80.11A5,5 0 1 1 530.91,80.11A5,5 0 1 1 540.91,80.11Z" style="fill:#00FF00" />
<path d="M733.64,99.097A5,5 0 1 1 723.64,99.097A5,5 0 1 1 733.64,99.097Z" style="fill:#00FF00" />
<path d="M926.37,99.097A5,5 0 1 1 916.37,99.097A5,5 0 1 1 926.37,99.097Z" style="fill:#00FF00" />
<path d="M1119.1,99.097A5,5 0 1 1 1109.1,99.097A5,5 0 1 1 1119.1,99.097Z" style="fill:#00FF00" />
<path d="M1311.8,99.097A5,5 0 1 1 1301.8,99.097A5,5 0 1 1 1311.8,99.097Z" style="fill:#00FF00" />
<path d="M1504.5,80.11A5,5 0 1 1 1494.5,80.11A5,5 0 1 1 1504.5,80.11Z" style="fill:#00FF00" />
<path d="M1697.3,80.11A5,5 0 1 1 1687.3,80.11A5,5 0 1 1 1697.3,80.11Z" style="fill:#00FF00" />
<path d="M1890,80.11A5,5 0 1 1 1880,80.11A5,5 0 1 1 1890,80.11Z" style="fill:#00FF00" />
<path d="M1900,126.03L1920,126.03" style="fill:none;stroke:#FF0000;stroke-width:4" />
<path d="M1915,126.03A5,5 0 1 1 1905,126.03A5,5 0 1 1 1915,126.03Z" style="fill:#FF0000" />
<text x="1823.3" y="-121.05" transform="scale(1, -1)"
	style="font-family:Liberation Serif;font-variant:normal;font-weight:normal;font-style:normal;font-size:24px">std::list</text>
<path d="M1900,105.66L1920,105.66" style="fill:none;stroke:#0000FF;stroke-width:4" />
<path d="M1915,105.66A5,5 0 1 1 1905,105.66A5,5 0 1 1 1915,105.66Z" style="fill:#0000FF" />
<text x="1795.4" y="-100.69" transform="scale(1, -1)"
	style="font-family:Liberation Serif;font-variant:normal;font-weight:normal;font-style:normal;font-size:24px">std::deque</text>
<path d="M1900,85.294L1920,85.294" style="fill:none;stroke:#00FF00;stroke-width:4" />
<path d="M1915,85.294A5,5 0 1 1 1905,85.294A5,5 0 1 1 1915,85.294Z" style="fill:#00FF00" />
<text x="1792.7" y="-80.319" transform="scale(1, -1)"
	style="font-family:Liberation Serif;font-variant:normal;font-weight:normal;font-style:normal;font-size:24px">std::vector</text>
</g>
</svg>
