<?xml version="1.0"?>
<!-- Generated by SVGo and Plotinum VG -->
<svg width="1920pt" height="1080pt" viewBox="0 0 1920 1080"
	xmlns="http://www.w3.org/2000/svg"
	xmlns:xlink="http://www.w3.org/1999/xlink">
<g transform="scale(1, -1) translate(0, -1080)">
<path d="M0,0L1920,0L1920,1080L0,1080Z" style="fill:#FFFFFF" />
<text x="764.92" y="-1040.9" transform="scale(1, -1)"
	style="font-family:Liberation Serif;font-variant:normal;font-weight:normal;font-style:normal;font-size:50px">destroy - Log Scale</text>
<text x="895.27" y="-9.7559" transform="scale(1, -1)"
	style="font-family:Liberation Serif;font-variant:normal;font-weight:normal;font-style:normal;font-size:30px">Number of elements</text>
<text x="120.46" y="-39.727" transform="scale(1, -1)"
	style="font-family:Liberation Serif;font-variant:normal;font-weight:normal;font-style:normal;font-size:20px">100000</text>
<text x="313.19" y="-39.727" transform="scale(1, -1)"
	style="font-family:Liberation Serif;font-variant:normal;font-weight:normal;font-style:normal;font-size:20px">200000</text>
<text x="505.91" y="-39.727" transform="scale(1, -1)"
	style="font-family:Liberation Serif;font-variant:normal;font-weight:normal;font-style:normal;font-size:20px">300000</text>
<text x="698.64" y="-39.727" transform="scale(1, -1)"
	style="font-family:Liberation Serif;font-variant:normal;font-weight:normal;font-style:normal;font-size:20px">400000</text>
<text x="891.37" y="-39.727" transform="scale(1, -1)"
	style="font-family:Liberation Serif;font-variant:normal;font-weight:normal;font-style:normal;font-size:20px">500000</text>
<text x="1084.1" y="-39.727" transform="scale(1, -1)"
	style="font-family:Liberation Serif;font-variant:normal;font-weight:normal;font-style:normal;font-size:20px">600000</text>
<text x="1276.8" y="-39.727" transform="scale(1, -1)"
	style="font-family:Liberation Serif;font-variant:normal;font-weight:normal;font-style:normal;font-size:20px">700000</text>
<text x="1469.5" y="-39.727" transform="scale(1, -1)"
	style="font-family:Liberation Serif;font-variant:normal;font-weight:normal;font-style:normal;font-size:20px">800000</text>
<text x="1662.3" y="-39.727" transform="scale(1, -1)"
	style="font-family:Liberation Serif;font-variant:normal;font-weight:normal;font-style:normal;font-size:20px">900000</text>
<text x="1850" y="-39.727" transform="scale(1, -1)"
	style="font-family:Liberation Serif;font-variant:normal;font-weight:normal;font-style:normal;font-size:20px">1000000</text>
<path d="M150.46,55.371L150.46,63.371" style="fill:none;stroke:#000000;stroke-width:0.5" />
<path d="M343.19,55.371L343.19,63.371" style="fill:none;stroke:#000000;stroke-width:0.5" />
<path d="M535.91,55.371L535.91,63.371" style="fill:none;stroke:#000000;stroke-width:0.5" />
<path d="M728.64,55.371L728.64,63.371" style="fill:none;stroke:#000000;stroke-width:0.5" />
<path d="M921.37,55.371L921.37,63.371" style="fill:none;stroke:#000000;stroke-width:0.5" />
<path d="M1114.1,55.371L1114.1,63.371" style="fill:none;stroke:#000000;stroke-width:0.5" />
<path d="M1306.8,55.371L1306.8,63.371" style="fill:none;stroke:#000000;stroke-width:0.5" />
<path d="M1499.5,55.371L1499.5,63.371" style="fill:none;stroke:#000000;stroke-width:0.5" />
<path d="M1692.3,55.371L1692.3,63.371" style="fill:none;stroke:#000000;stroke-width:0.5" />
<path d="M1885,55.371L1885,63.371" style="fill:none;stroke:#000000;stroke-width:0.5" />
<path d="M150.46,63.371L1885,63.371" style="fill:none;stroke:#000000;stroke-width:0.5" />
<g transform="rotate(90)">
<text x="506.9" y="23.467" transform="scale(1, -1)"
	style="font-family:Liberation Serif;font-variant:normal;font-weight:normal;font-style:normal;font-size:30px">log(μs)</text>
</g>
<text x="49.712" y="-826.27" transform="scale(1, -1)"
	style="font-family:Liberation Serif;font-variant:normal;font-weight:normal;font-style:normal;font-size:20px">25000.00</text>
<text x="39.712" y="-960.11" transform="scale(1, -1)"
	style="font-family:Liberation Serif;font-variant:normal;font-weight:normal;font-style:normal;font-size:20px">125000.00</text>
<text x="39.712" y="-1009" transform="scale(1, -1)"
	style="font-family:Liberation Serif;font-variant:normal;font-weight:normal;font-style:normal;font-size:20px">225000.00</text>
<path d="M129.71,830.84L137.71,830.84" style="fill:none;stroke:#000000;stroke-width:0.5" />
<path d="M129.71,964.68L137.71,964.68" style="fill:none;stroke:#000000;stroke-width:0.5" />
<path d="M129.71,1013.6L137.71,1013.6" style="fill:none;stroke:#000000;stroke-width:0.5" />
<path d="M133.71,922.2L137.71,922.2" style="fill:none;stroke:#000000;stroke-width:0.5" />
<path d="M133.71,992.66L137.71,992.66" style="fill:none;stroke:#000000;stroke-width:0.5" />
<path d="M137.71,80.11L137.71,1019.8" style="fill:none;stroke:#000000;stroke-width:0.5" />
<path d="M150.46,80.11L150.46,1019.8" style="fill:none;stroke:#808080;stroke-width:0.25" />
<path d="M343.19,80.11L343.19,1019.8" style="fill:none;stroke:#808080;stroke-width:0.25" />
<path d="M535.91,80.11L535.91,1019.8" style="fill:none;stroke:#808080;stroke-width:0.25" />
<path d="M728.64,80.11L728.64,1019.8" style="fill:none;stroke:#808080;stroke-width:0.25" />
<path d="M921.37,80.11L921.37,1019.8" style="fill:none;stroke:#808080;stroke-width:0.25" />
<path d="M1114.1,80.11L1114.1,1019.8" style="fill:none;stroke:#808080;stroke-width:0.25" />
<path d="M1306.8,80.11L1306.8,1019.8" style="fill:none;stroke:#808080;stroke-width:0.25" />
<path d="M1499.5,80.11L1499.5,1019.8" style="fill:none;stroke:#808080;stroke-width:0.25" />
<path d="M1692.3,80.11L1692.3,1019.8" style="fill:none;stroke:#808080;stroke-width:0.25" />
<path d="M1885,80.11L1885,1019.8" style="fill:none;stroke:#808080;stroke-width:0.25" />
<path d="M150.46,830.84L1885,830.84" style="fill:none;stroke:#808080;stroke-width:0.25" />
<path d="M150.46,964.68L1885,964.68" style="fill:none;stroke:#808080;stroke-width:0.25" />
<path d="M150.46,1013.6L1885,1013.6" style="fill:none;stroke:#808080;stroke-width:0.25" />
<path d="M150.46,844.13L343.19,877.22L535.91,918.22L728.64,939.3L921.37,955.82L1114.1,972.81L1306.8,984.14L1499.5,992.53L1692.3,1005.7L1885,1011.8" style="fill:none;stroke:#FF0000;stroke-width:4" />
<path d="M155.46,844.13A5,5 0 1 1 145.46,844.13A5,5 0 1 1 155.46,844.13Z" style="fill:#FF0000" />
<path d="M348.19,877.22A5,5 0 1 1 338.19,877.22A5,5 0 1 1 348.19,877.22Z" style="fill:#FF0000" />
<path d="M540.91,918.22A5,5 0 1 1 530.91,918.22A5,5 0 1 1 540.91,918.22Z" style="fill:#FF0000" />
<path d="M733.64,939.3A5,5 0 1 1 723.64,939.3A5,5 0 1 1 733.64,939.3Z" style="fill:#FF0000" />
<path d="M926.37,955.82A5,5 0 1 1 916.37,955.82A5,5 0 1 1 926.37,955.82Z" style="fill:#FF0000" />
<path d="M1119.1,972.81A5,5 0 1 1 1109.1,972.81A5,5 0 1 1 1119.1,972.81Z" style="fill:#FF0000" />
<path d="M1311.8,984.14A5,5 0 1 1 1301.8,984.14A5,5 0 1 1 1311.8,984.14Z" style="fill:#FF0000" />
<path d="M1504.5,992.53A5,5 0 1 1 1494.5,992.53A5,5 0 1 1 1504.5,992.53Z" style="fill:#FF0000" />
<path d="M1697.3,1005.7A5,5 0 1 1 1687.3,1005.7A5,5 0 1 1 1697.3,1005.7Z" style="fill:#FF0000" />
<path d="M1890,1011.8A5,5 0 1 1 1880,1011.8A5,5 0 1 1 1890,1011.8Z" style="fill:#FF0000" />
<path d="M150.46,827.41L343.19,875.7L535.91,907L728.64,918.22L921.37,936.92L1114.1,948.09L1306.8,974.43L1499.5,968.68L1692.3,976.27L1885,992.95" style="fill:none;stroke:#0000FF;stroke-width:4" />
<path d="M155.46,827.41A5,5 0 1 1 145.46,827.41A5,5 0 1 1 155.46,827.41Z" style="fill:#0000FF" />
<path d="M348.19,875.7A5,5 0 1 1 338.19,875.7A5,5 0 1 1 348.19,875.7Z" style="fill:#0000FF" />
<path d="M540.91,907A5,5 0 1 1 530.91,907A5,5 0 1 1 540.91,907Z" style="fill:#0000FF" />
<path d="M733.64,918.22A5,5 0 1 1 723.64,918.22A5,5 0 1 1 733.64,918.22Z" style="fill:#0000FF" />
<path d="M926.37,936.92A5,5 0 1 1 916.37,936.92A5,5 0 1 1 926.37,936.92Z" style="fill:#0000FF" />
<path d="M1119.1,948.09A5,5 0 1 1 1109.1,948.09A5,5 0 1 1 1119.1,948.09Z" style="fill:#0000FF" />
<path d="M1311.8,974.43A5,5 0 1 1 1301.8,974.43A5,5 0 1 1 1311.8,974.43Z" style="fill:#0000FF" />
<path d="M1504.5,968.68A5,5 0 1 1 1494.5,968.68A5,5 0 1 1 1504.5,968.68Z" style="fill:#0000FF" />
<path d="M1697.3,976.27A5,5 0 1 1 1687.3,976.27A5,5 0 1 1 1697.3,976.27Z" style="fill:#0000FF" />
<path d="M1890,992.95A5,5 0 1 1 1880,992.95A5,5 0 1 1 1890,992.95Z" style="fill:#0000FF" />
<path d="M150.46,80.11L343.19,104.03L535.91,80.11L728.64,104.03L921.37,104.03L1114.1,104.03L1306.8,104.03L1499.5,80.11L1692.3,80.11L1885,80.11" style="fill:none;stroke:#00FF00;stroke-width:4" />
<path d="M155.46,80.11A5,5 0 1 1 145.46,80.11A5,5 0 1 1 155.46,80.11Z" style="fill:#00FF00" />
<path d="M348.19,104.03A5,5 0 1 1 338.19,104.03A5,5 0 1 1 348.19,104.03Z" style="fill:#00FF00" />
<path d="M540.91,80.11A5,5 0 1 1 530.91,80.11A5,5 0 1 1 540.91,80.11Z" style="fill:#00FF00" />
<path d="M733.64,104.03A5,5 0 1 1 723.64,104.03A5,5 0 1 1 733.64,104.03Z" style="fill:#00FF00" />
<path d="M926.37,104.03A5,5 0 1 1 916.37,104.03A5,5 0 1 1 926.37,104.03Z" style="fill:#00FF00" />
<path d="M1119.1,104.03A5,5 0 1 1 1109.1,104.03A5,5 0 1 1 1119.1,104.03Z" style="fill:#00FF00" />
<path d="M1311.8,104.03A5,5 0 1 1 1301.8,104.03A5,5 0 1 1 1311.8,104.03Z" style="fill:#00FF00" />
<path d="M1504.5,80.11A5,5 0 1 1 1494.5,80.11A5,5 0 1 1 1504.5,80.11Z" style="fill:#00FF00" />
<path d="M1697.3,80.11A5,5 0 1 1 1687.3,80.11A5,5 0 1 1 1697.3,80.11Z" style="fill:#00FF00" />
<path d="M1890,80.11A5,5 0 1 1 1880,80.11A5,5 0 1 1 1890,80.11Z" style="fill:#00FF00" />
<path d="M1900,126.03L1920,126.03" style="fill:none;stroke:#FF0000;stroke-width:4" />
<path d="M1915,126.03A5,5 0 1 1 1905,126.03A5,5 0 1 1 1915,126.03Z" style="fill:#FF0000" />
<text x="1823.3" y="-121.05" transform="scale(1, -1)"
	style="font-family:Liberation Serif;font-variant:normal;font-weight:normal;font-style:normal;font-size:24px">std::list</text>
<path d="M1900,105.66L1920,105.66" style="fill:none;stroke:#0000FF;stroke-width:4" />
<path d="M1915,105.66A5,5 0 1 1 1905,105.66A5,5 0 1 1 1915,105.66Z" style="fill:#0000FF" />
<text x="1795.4" y="-100.69" transform="scale(1, -1)"
	style="font-family:Liberation Serif;font-variant:normal;font-weight:normal;font-style:normal;font-size:24px">std::deque</text>
<path d="M1900,85.294L1920,85.294" style="fill:none;stroke:#00FF00;stroke-width:4" />
<path d="M1915,85.294A5,5 0 1 1 1905,85.294A5,5 0 1 1 1915,85.294Z" style="fill:#00FF00" />
<text x="1792.7" y="-80.319" transform="scale(1, -1)"
	style="font-family:Liberation Serif;font-variant:normal;font-weight:normal;font-style:normal;font-size:24px">std::vector</text>
</g>
</svg>
