<?xml version="1.0"?>
<!-- Generated by SVGo and Plotinum VG -->
<svg width="1920pt" height="1080pt" viewBox="0 0 1920 1080"
	xmlns="http://www.w3.org/2000/svg"
	xmlns:xlink="http://www.w3.org/1999/xlink">
<g transform="scale(1, -1) translate(0, -1080)">
<path d="M0,0L1920,0L1920,1080L0,1080Z" style="fill:#FFFFFF" />
<text x="764.92" y="-1040.9" transform="scale(1, -1)"
	style="font-family:Liberation Serif;font-variant:normal;font-weight:normal;font-style:normal;font-size:50px">destroy - Log Scale</text>
<text x="877.77" y="-9.7559" transform="scale(1, -1)"
	style="font-family:Liberation Serif;font-variant:normal;font-weight:normal;font-style:normal;font-size:30px">Number of elements</text>
<text x="85.462" y="-39.727" transform="scale(1, -1)"
	style="font-family:Liberation Serif;font-variant:normal;font-weight:normal;font-style:normal;font-size:20px">100000</text>
<text x="282.08" y="-39.727" transform="scale(1, -1)"
	style="font-family:Liberation Serif;font-variant:normal;font-weight:normal;font-style:normal;font-size:20px">200000</text>
<text x="478.69" y="-39.727" transform="scale(1, -1)"
	style="font-family:Liberation Serif;font-variant:normal;font-weight:normal;font-style:normal;font-size:20px">300000</text>
<text x="675.31" y="-39.727" transform="scale(1, -1)"
	style="font-family:Liberation Serif;font-variant:normal;font-weight:normal;font-style:normal;font-size:20px">400000</text>
<text x="871.92" y="-39.727" transform="scale(1, -1)"
	style="font-family:Liberation Serif;font-variant:normal;font-weight:normal;font-style:normal;font-size:20px">500000</text>
<text x="1068.5" y="-39.727" transform="scale(1, -1)"
	style="font-family:Liberation Serif;font-variant:normal;font-weight:normal;font-style:normal;font-size:20px">600000</text>
<text x="1265.2" y="-39.727" transform="scale(1, -1)"
	style="font-family:Liberation Serif;font-variant:normal;font-weight:normal;font-style:normal;font-size:20px">700000</text>
<text x="1461.8" y="-39.727" transform="scale(1, -1)"
	style="font-family:Liberation Serif;font-variant:normal;font-weight:normal;font-style:normal;font-size:20px">800000</text>
<text x="1658.4" y="-39.727" transform="scale(1, -1)"
	style="font-family:Liberation Serif;font-variant:normal;font-weight:normal;font-style:normal;font-size:20px">900000</text>
<text x="1850" y="-39.727" transform="scale(1, -1)"
	style="font-family:Liberation Serif;font-variant:normal;font-weight:normal;font-style:normal;font-size:20px">1000000</text>
<path d="M115.46,55.371L115.46,63.371" style="fill:none;stroke:#000000;stroke-width:0.5" />
<path d="M312.08,55.371L312.08,63.371" style="fill:none;stroke:#000000;stroke-width:0.5" />
<path d="M508.69,55.371L508.69,63.371" style="fill:none;stroke:#000000;stroke-width:0.5" />
<path d="M705.31,55.371L705.31,63.371" style="fill:none;stroke:#000000;stroke-width:0.5" />
<path d="M901.92,55.371L901.92,63.371" style="fill:none;stroke:#000000;stroke-width:0.5" />
<path d="M1098.5,55.371L1098.5,63.371" style="fill:none;stroke:#000000;stroke-width:0.5" />
<path d="M1295.2,55.371L1295.2,63.371" style="fill:none;stroke:#000000;stroke-width:0.5" />
<path d="M1491.8,55.371L1491.8,63.371" style="fill:none;stroke:#000000;stroke-width:0.5" />
<path d="M1688.4,55.371L1688.4,63.371" style="fill:none;stroke:#000000;stroke-width:0.5" />
<path d="M1885,55.371L1885,63.371" style="fill:none;stroke:#000000;stroke-width:0.5" />
<path d="M115.46,63.371L1885,63.371" style="fill:none;stroke:#000000;stroke-width:0.5" />
<g transform="rotate(90)">
<text x="482.15" y="23.467" transform="scale(1, -1)"
	style="font-family:Liberation Serif;font-variant:normal;font-weight:normal;font-style:normal;font-size:30px">log(μs + 1)</text>
</g>
<text x="39.712" y="-835.05" transform="scale(1, -1)"
	style="font-family:Liberation Serif;font-variant:normal;font-weight:normal;font-style:normal;font-size:20px">10000</text>
<text x="39.712" y="-902.34" transform="scale(1, -1)"
	style="font-family:Liberation Serif;font-variant:normal;font-weight:normal;font-style:normal;font-size:20px">20000</text>
<text x="39.712" y="-941.7" transform="scale(1, -1)"
	style="font-family:Liberation Serif;font-variant:normal;font-weight:normal;font-style:normal;font-size:20px">30000</text>
<text x="39.712" y="-969.62" transform="scale(1, -1)"
	style="font-family:Liberation Serif;font-variant:normal;font-weight:normal;font-style:normal;font-size:20px">40000</text>
<text x="39.712" y="-991.29" transform="scale(1, -1)"
	style="font-family:Liberation Serif;font-variant:normal;font-weight:normal;font-style:normal;font-size:20px">50000</text>
<text x="39.712" y="-1009" transform="scale(1, -1)"
	style="font-family:Liberation Serif;font-variant:normal;font-weight:normal;font-style:normal;font-size:20px">60000</text>
<path d="M94.712,839.62L102.71,839.62" style="fill:none;stroke:#000000;stroke-width:0.5" />
<path d="M94.712,906.91L102.71,906.91" style="fill:none;stroke:#000000;stroke-width:0.5" />
<path d="M94.712,946.27L102.71,946.27" style="fill:none;stroke:#000000;stroke-width:0.5" />
<path d="M94.712,974.19L102.71,974.19" style="fill:none;stroke:#000000;stroke-width:0.5" />
<path d="M94.712,995.86L102.71,995.86" style="fill:none;stroke:#000000;stroke-width:0.5" />
<path d="M94.712,1013.6L102.71,1013.6" style="fill:none;stroke:#000000;stroke-width:0.5" />
<path d="M98.712,683.39L102.71,683.39" style="fill:none;stroke:#000000;stroke-width:0.5" />
<path d="M98.712,750.67L102.71,750.67" style="fill:none;stroke:#000000;stroke-width:0.5" />
<path d="M98.712,790.03L102.71,790.03" style="fill:none;stroke:#000000;stroke-width:0.5" />
<path d="M98.712,817.96L102.71,817.96" style="fill:none;stroke:#000000;stroke-width:0.5" />
<path d="M98.712,857.32L102.71,857.32" style="fill:none;stroke:#000000;stroke-width:0.5" />
<path d="M98.712,872.28L102.71,872.28" style="fill:none;stroke:#000000;stroke-width:0.5" />
<path d="M98.712,885.25L102.71,885.25" style="fill:none;stroke:#000000;stroke-width:0.5" />
<path d="M98.712,896.68L102.71,896.68" style="fill:none;stroke:#000000;stroke-width:0.5" />
<path d="M98.712,916.16L102.71,916.16" style="fill:none;stroke:#000000;stroke-width:0.5" />
<path d="M98.712,924.61L102.71,924.61" style="fill:none;stroke:#000000;stroke-width:0.5" />
<path d="M98.712,932.38L102.71,932.38" style="fill:none;stroke:#000000;stroke-width:0.5" />
<path d="M98.712,939.57L102.71,939.57" style="fill:none;stroke:#000000;stroke-width:0.5" />
<path d="M98.712,952.53L102.71,952.53" style="fill:none;stroke:#000000;stroke-width:0.5" />
<path d="M98.712,958.42L102.71,958.42" style="fill:none;stroke:#000000;stroke-width:0.5" />
<path d="M98.712,963.97L102.71,963.97" style="fill:none;stroke:#000000;stroke-width:0.5" />
<path d="M98.712,969.22L102.71,969.22" style="fill:none;stroke:#000000;stroke-width:0.5" />
<path d="M98.712,978.93L102.71,978.93" style="fill:none;stroke:#000000;stroke-width:0.5" />
<path d="M98.712,983.45L102.71,983.45" style="fill:none;stroke:#000000;stroke-width:0.5" />
<path d="M98.712,987.76L102.71,987.76" style="fill:none;stroke:#000000;stroke-width:0.5" />
<path d="M98.712,991.89L102.71,991.89" style="fill:none;stroke:#000000;stroke-width:0.5" />
<path d="M98.712,999.66L102.71,999.66" style="fill:none;stroke:#000000;stroke-width:0.5" />
<path d="M98.712,1003.3L102.71,1003.3" style="fill:none;stroke:#000000;stroke-width:0.5" />
<path d="M98.712,1006.9L102.71,1006.9" style="fill:none;stroke:#000000;stroke-width:0.5" />
<path d="M98.712,1010.3L102.71,1010.3" style="fill:none;stroke:#000000;stroke-width:0.5" />
<path d="M98.712,1016.7L102.71,1016.7" style="fill:none;stroke:#000000;stroke-width:0.5" />
<path d="M102.71,80.11L102.71,1017.2" style="fill:none;stroke:#000000;stroke-width:0.5" />
<path d="M115.46,80.11L115.46,1017.2" style="fill:none;stroke:#808080;stroke-width:0.25" />
<path d="M312.08,80.11L312.08,1017.2" style="fill:none;stroke:#808080;stroke-width:0.25" />
<path d="M508.69,80.11L508.69,1017.2" style="fill:none;stroke:#808080;stroke-width:0.25" />
<path d="M705.31,80.11L705.31,1017.2" style="fill:none;stroke:#808080;stroke-width:0.25" />
<path d="M901.92,80.11L901.92,1017.2" style="fill:none;stroke:#808080;stroke-width:0.25" />
<path d="M1098.5,80.11L1098.5,1017.2" style="fill:none;stroke:#808080;stroke-width:0.25" />
<path d="M1295.2,80.11L1295.2,1017.2" style="fill:none;stroke:#808080;stroke-width:0.25" />
<path d="M1491.8,80.11L1491.8,1017.2" style="fill:none;stroke:#808080;stroke-width:0.25" />
<path d="M1688.4,80.11L1688.4,1017.2" style="fill:none;stroke:#808080;stroke-width:0.25" />
<path d="M1885,80.11L1885,1017.2" style="fill:none;stroke:#808080;stroke-width:0.25" />
<path d="M115.46,839.62L1885,839.62" style="fill:none;stroke:#808080;stroke-width:0.25" />
<path d="M115.46,906.91L1885,906.91" style="fill:none;stroke:#808080;stroke-width:0.25" />
<path d="M115.46,946.27L1885,946.27" style="fill:none;stroke:#808080;stroke-width:0.25" />
<path d="M115.46,974.19L1885,974.19" style="fill:none;stroke:#808080;stroke-width:0.25" />
<path d="M115.46,995.86L1885,995.86" style="fill:none;stroke:#808080;stroke-width:0.25" />
<path d="M115.46,1013.6L1885,1013.6" style="fill:none;stroke:#808080;stroke-width:0.25" />
<path d="M115.46,778.12L312.08,838.51L508.69,893.2L705.31,923.6L901.92,942.84L1098.5,960.56L1295.2,978.51L1491.8,989.44L1688.4,1002.7L1885,1007.9" style="fill:none;stroke:#FF0000;stroke-width:4" />
<path d="M120.46,778.12A5,5 0 1 1 110.46,778.12A5,5 0 1 1 120.46,778.12Z" style="fill:#FF0000" />
<path d="M317.08,838.51A5,5 0 1 1 307.08,838.51A5,5 0 1 1 317.08,838.51Z" style="fill:#FF0000" />
<path d="M513.69,893.2A5,5 0 1 1 503.69,893.2A5,5 0 1 1 513.69,893.2Z" style="fill:#FF0000" />
<path d="M710.31,923.6A5,5 0 1 1 700.31,923.6A5,5 0 1 1 710.31,923.6Z" style="fill:#FF0000" />
<path d="M906.92,942.84A5,5 0 1 1 896.92,942.84A5,5 0 1 1 906.92,942.84Z" style="fill:#FF0000" />
<path d="M1103.5,960.56A5,5 0 1 1 1093.5,960.56A5,5 0 1 1 1103.5,960.56Z" style="fill:#FF0000" />
<path d="M1300.2,978.51A5,5 0 1 1 1290.2,978.51A5,5 0 1 1 1300.2,978.51Z" style="fill:#FF0000" />
<path d="M1496.8,989.44A5,5 0 1 1 1486.8,989.44A5,5 0 1 1 1496.8,989.44Z" style="fill:#FF0000" />
<path d="M1693.4,1002.7A5,5 0 1 1 1683.4,1002.7A5,5 0 1 1 1693.4,1002.7Z" style="fill:#FF0000" />
<path d="M1890,1007.9A5,5 0 1 1 1880,1007.9A5,5 0 1 1 1890,1007.9Z" style="fill:#FF0000" />
<path d="M115.46,642.76L312.08,722.36L508.69,715.7L705.31,781.23L901.92,788.91L1098.5,806.74L1295.2,822.67L1491.8,837.02L1688.4,859.56L1885,864.08" style="fill:none;stroke:#0000FF;stroke-width:4" />
<path d="M120.46,642.76A5,5 0 1 1 110.46,642.76A5,5 0 1 1 120.46,642.76Z" style="fill:#0000FF" />
<path d="M317.08,722.36A5,5 0 1 1 307.08,722.36A5,5 0 1 1 317.08,722.36Z" style="fill:#0000FF" />
<path d="M513.69,715.7A5,5 0 1 1 503.69,715.7A5,5 0 1 1 513.69,715.7Z" style="fill:#0000FF" />
<path d="M710.31,781.23A5,5 0 1 1 700.31,781.23A5,5 0 1 1 710.31,781.23Z" style="fill:#0000FF" />
<path d="M906.92,788.91A5,5 0 1 1 896.92,788.91A5,5 0 1 1 906.92,788.91Z" style="fill:#0000FF" />
<path d="M1103.5,806.74A5,5 0 1 1 1093.5,806.74A5,5 0 1 1 1103.5,806.74Z" style="fill:#0000FF" />
<path d="M1300.2,822.67A5,5 0 1 1 1290.2,822.67A5,5 0 1 1 1300.2,822.67Z" style="fill:#0000FF" />
<path d="M1496.8,837.02A5,5 0 1 1 1486.8,837.02A5,5 0 1 1 1496.8,837.02Z" style="fill:#0000FF" />
<path d="M1693.4,859.56A5,5 0 1 1 1683.4,859.56A5,5 0 1 1 1693.4,859.56Z" style="fill:#0000FF" />
<path d="M1890,864.08A5,5 0 1 1 1880,864.08A5,5 0 1 1 1890,864.08Z" style="fill:#0000FF" />
<path d="M115.46,178.31L312.08,134.43L508.69,119.47L705.31,80.11L901.92,80.11L1098.5,101.77L1295.2,80.11L1491.8,80.11L1688.4,101.77L1885,80.11" style="fill:none;stroke:#00FF00;stroke-width:4" />
<path d="M120.46,178.31A5,5 0 1 1 110.46,178.31A5,5 0 1 1 120.46,178.31Z" style="fill:#00FF00" />
<path d="M317.08,134.43A5,5 0 1 1 307.08,134.43A5,5 0 1 1 317.08,134.43Z" style="fill:#00FF00" />
<path d="M513.69,119.47A5,5 0 1 1 503.69,119.47A5,5 0 1 1 513.69,119.47Z" style="fill:#00FF00" />
<path d="M710.31,80.11A5,5 0 1 1 700.31,80.11A5,5 0 1 1 710.31,80.11Z" style="fill:#00FF00" />
<path d="M906.92,80.11A5,5 0 1 1 896.92,80.11A5,5 0 1 1 906.92,80.11Z" style="fill:#00FF00" />
<path d="M1103.5,101.77A5,5 0 1 1 1093.5,101.77A5,5 0 1 1 1103.5,101.77Z" style="fill:#00FF00" />
<path d="M1300.2,80.11A5,5 0 1 1 1290.2,80.11A5,5 0 1 1 1300.2,80.11Z" style="fill:#00FF00" />
<path d="M1496.8,80.11A5,5 0 1 1 1486.8,80.11A5,5 0 1 1 1496.8,80.11Z" style="fill:#00FF00" />
<path d="M1693.4,101.77A5,5 0 1 1 1683.4,101.77A5,5 0 1 1 1693.4,101.77Z" style="fill:#00FF00" />
<path d="M1890,80.11A5,5 0 1 1 1880,80.11A5,5 0 1 1 1890,80.11Z" style="fill:#00FF00" />
<path d="M1900,126.03L1920,126.03" style="fill:none;stroke:#FF0000;stroke-width:4" />
<path d="M1915,126.03A5,5 0 1 1 1905,126.03A5,5 0 1 1 1915,126.03Z" style="fill:#FF0000" />
<text x="1823.3" y="-121.05" transform="scale(1, -1)"
	style="font-family:Liberation Serif;font-variant:normal;font-weight:normal;font-style:normal;font-size:24px">std::list</text>
<path d="M1900,105.66L1920,105.66" style="fill:none;stroke:#0000FF;stroke-width:4" />
<path d="M1915,105.66A5,5 0 1 1 1905,105.66A5,5 0 1 1 1915,105.66Z" style="fill:#0000FF" />
<text x="1795.4" y="-100.69" transform="scale(1, -1)"
	style="font-family:Liberation Serif;font-variant:normal;font-weight:normal;font-style:normal;font-size:24px">std::deque</text>
<path d="M1900,85.294L1920,85.294" style="fill:none;stroke:#00FF00;stroke-width:4" />
<path d="M1915,85.294A5,5 0 1 1 1905,85.294A5,5 0 1 1 1915,85.294Z" style="fill:#00FF00" />
<text x="1792.7" y="-80.319" transform="scale(1, -1)"
	style="font-family:Liberation Serif;font-variant:normal;font-weight:normal;font-style:normal;font-size:24px">std::vector</text>
</g>
</svg>
