<?xml version="1.0"?>
<!-- Generated by SVGo and Plotinum VG -->
<svg width="1920pt" height="1080pt" viewBox="0 0 1920 1080"
	xmlns="http://www.w3.org/2000/svg"
	xmlns:xlink="http://www.w3.org/1999/xlink">
<g transform="scale(1, -1) translate(0, -1080)">
<path d="M0,0L1920,0L1920,1080L0,1080Z" style="fill:#FFFFFF" />
<text x="886.4" y="-1040.9" transform="scale(1, -1)"
	style="font-family:Liberation Serif;font-variant:normal;font-weight:normal;font-style:normal;font-size:50px">destroy</text>
<text x="877.77" y="-9.7559" transform="scale(1, -1)"
	style="font-family:Liberation Serif;font-variant:normal;font-weight:normal;font-style:normal;font-size:30px">Number of elements</text>
<text x="85.462" y="-39.727" transform="scale(1, -1)"
	style="font-family:Liberation Serif;font-variant:normal;font-weight:normal;font-style:normal;font-size:20px">100000</text>
<text x="282.08" y="-39.727" transform="scale(1, -1)"
	style="font-family:Liberation Serif;font-variant:normal;font-weight:normal;font-style:normal;font-size:20px">200000</text>
<text x="478.69" y="-39.727" transform="scale(1, -1)"
	style="font-family:Liberation Serif;font-variant:normal;font-weight:normal;font-style:normal;font-size:20px">300000</text>
<text x="675.31" y="-39.727" transform="scale(1, -1)"
	style="font-family:Liberation Serif;font-variant:normal;font-weight:normal;font-style:normal;font-size:20px">400000</text>
<text x="871.92" y="-39.727" transform="scale(1, -1)"
	style="font-family:Liberation Serif;font-variant:normal;font-weight:normal;font-style:normal;font-size:20px">500000</text>
<text x="1068.5" y="-39.727" transform="scale(1, -1)"
	style="font-family:Liberation Serif;font-variant:normal;font-weight:normal;font-style:normal;font-size:20px">600000</text>
<text x="1265.2" y="-39.727" transform="scale(1, -1)"
	style="font-family:Liberation Serif;font-variant:normal;font-weight:normal;font-style:normal;font-size:20px">700000</text>
<text x="1461.8" y="-39.727" transform="scale(1, -1)"
	style="font-family:Liberation Serif;font-variant:normal;font-weight:normal;font-style:normal;font-size:20px">800000</text>
<text x="1658.4" y="-39.727" transform="scale(1, -1)"
	style="font-family:Liberation Serif;font-variant:normal;font-weight:normal;font-style:normal;font-size:20px">900000</text>
<text x="1850" y="-39.727" transform="scale(1, -1)"
	style="font-family:Liberation Serif;font-variant:normal;font-weight:normal;font-style:normal;font-size:20px">1000000</text>
<path d="M115.46,55.371L115.46,63.371" style="fill:none;stroke:#000000;stroke-width:0.5" />
<path d="M312.08,55.371L312.08,63.371" style="fill:none;stroke:#000000;stroke-width:0.5" />
<path d="M508.69,55.371L508.69,63.371" style="fill:none;stroke:#000000;stroke-width:0.5" />
<path d="M705.31,55.371L705.31,63.371" style="fill:none;stroke:#000000;stroke-width:0.5" />
<path d="M901.92,55.371L901.92,63.371" style="fill:none;stroke:#000000;stroke-width:0.5" />
<path d="M1098.5,55.371L1098.5,63.371" style="fill:none;stroke:#000000;stroke-width:0.5" />
<path d="M1295.2,55.371L1295.2,63.371" style="fill:none;stroke:#000000;stroke-width:0.5" />
<path d="M1491.8,55.371L1491.8,63.371" style="fill:none;stroke:#000000;stroke-width:0.5" />
<path d="M1688.4,55.371L1688.4,63.371" style="fill:none;stroke:#000000;stroke-width:0.5" />
<path d="M1885,55.371L1885,63.371" style="fill:none;stroke:#000000;stroke-width:0.5" />
<path d="M115.46,63.371L1885,63.371" style="fill:none;stroke:#000000;stroke-width:0.5" />
<g transform="rotate(90)">
<text x="538.49" y="23.467" transform="scale(1, -1)"
	style="font-family:Liberation Serif;font-variant:normal;font-weight:normal;font-style:normal;font-size:30px">μs</text>
</g>
<text x="79.712" y="-75.54" transform="scale(1, -1)"
	style="font-family:Liberation Serif;font-variant:normal;font-weight:normal;font-style:normal;font-size:20px">0</text>
<text x="39.712" y="-524.65" transform="scale(1, -1)"
	style="font-family:Liberation Serif;font-variant:normal;font-weight:normal;font-style:normal;font-size:20px">20000</text>
<text x="39.712" y="-973.76" transform="scale(1, -1)"
	style="font-family:Liberation Serif;font-variant:normal;font-weight:normal;font-style:normal;font-size:20px">40000</text>
<path d="M94.712,80.11L102.71,80.11" style="fill:none;stroke:#000000;stroke-width:0.5" />
<path d="M94.712,529.22L102.71,529.22" style="fill:none;stroke:#000000;stroke-width:0.5" />
<path d="M94.712,978.33L102.71,978.33" style="fill:none;stroke:#000000;stroke-width:0.5" />
<path d="M98.712,304.67L102.71,304.67" style="fill:none;stroke:#000000;stroke-width:0.5" />
<path d="M98.712,753.78L102.71,753.78" style="fill:none;stroke:#000000;stroke-width:0.5" />
<path d="M102.71,80.11L102.71,1024.6" style="fill:none;stroke:#000000;stroke-width:0.5" />
<path d="M115.46,80.11L115.46,1024.6" style="fill:none;stroke:#808080;stroke-width:0.25" />
<path d="M312.08,80.11L312.08,1024.6" style="fill:none;stroke:#808080;stroke-width:0.25" />
<path d="M508.69,80.11L508.69,1024.6" style="fill:none;stroke:#808080;stroke-width:0.25" />
<path d="M705.31,80.11L705.31,1024.6" style="fill:none;stroke:#808080;stroke-width:0.25" />
<path d="M901.92,80.11L901.92,1024.6" style="fill:none;stroke:#808080;stroke-width:0.25" />
<path d="M1098.5,80.11L1098.5,1024.6" style="fill:none;stroke:#808080;stroke-width:0.25" />
<path d="M1295.2,80.11L1295.2,1024.6" style="fill:none;stroke:#808080;stroke-width:0.25" />
<path d="M1491.8,80.11L1491.8,1024.6" style="fill:none;stroke:#808080;stroke-width:0.25" />
<path d="M1688.4,80.11L1688.4,1024.6" style="fill:none;stroke:#808080;stroke-width:0.25" />
<path d="M1885,80.11L1885,1024.6" style="fill:none;stroke:#808080;stroke-width:0.25" />
<path d="M115.46,80.11L1885,80.11" style="fill:none;stroke:#808080;stroke-width:0.25" />
<path d="M115.46,529.22L1885,529.22" style="fill:none;stroke:#808080;stroke-width:0.25" />
<path d="M115.46,978.33L1885,978.33" style="fill:none;stroke:#808080;stroke-width:0.25" />
<path d="M115.46,82.289L312.08,82.266L508.69,83.771L705.31,86.533L901.92,85.455L1098.5,87.072L1295.2,86.42L1491.8,87.498L1688.4,88.868L1885,88.98" style="fill:none;stroke:#FF0000;stroke-width:4" />
<path d="M120.46,82.289A5,5 0 1 1 110.46,82.289A5,5 0 1 1 120.46,82.289Z" style="fill:#FF0000" />
<path d="M317.08,82.266A5,5 0 1 1 307.08,82.266A5,5 0 1 1 317.08,82.266Z" style="fill:#FF0000" />
<path d="M513.69,83.771A5,5 0 1 1 503.69,83.771A5,5 0 1 1 513.69,83.771Z" style="fill:#FF0000" />
<path d="M710.31,86.533A5,5 0 1 1 700.31,86.533A5,5 0 1 1 710.31,86.533Z" style="fill:#FF0000" />
<path d="M906.92,85.455A5,5 0 1 1 896.92,85.455A5,5 0 1 1 906.92,85.455Z" style="fill:#FF0000" />
<path d="M1103.5,87.072A5,5 0 1 1 1093.5,87.072A5,5 0 1 1 1103.5,87.072Z" style="fill:#FF0000" />
<path d="M1300.2,86.42A5,5 0 1 1 1290.2,86.42A5,5 0 1 1 1300.2,86.42Z" style="fill:#FF0000" />
<path d="M1496.8,87.498A5,5 0 1 1 1486.8,87.498A5,5 0 1 1 1496.8,87.498Z" style="fill:#FF0000" />
<path d="M1693.4,88.868A5,5 0 1 1 1683.4,88.868A5,5 0 1 1 1693.4,88.868Z" style="fill:#FF0000" />
<path d="M1890,88.98A5,5 0 1 1 1880,88.98A5,5 0 1 1 1890,88.98Z" style="fill:#FF0000" />
<path d="M115.46,80.11L312.08,80.11L508.69,80.11L705.31,80.11L901.92,80.11L1098.5,80.11L1295.2,80.11L1491.8,80.11L1688.4,80.11L1885,80.11" style="fill:none;stroke:#0000FF;stroke-width:4" />
<path d="M120.46,80.11A5,5 0 1 1 110.46,80.11A5,5 0 1 1 120.46,80.11Z" style="fill:#0000FF" />
<path d="M317.08,80.11A5,5 0 1 1 307.08,80.11A5,5 0 1 1 317.08,80.11Z" style="fill:#0000FF" />
<path d="M513.69,80.11A5,5 0 1 1 503.69,80.11A5,5 0 1 1 513.69,80.11Z" style="fill:#0000FF" />
<path d="M710.31,80.11A5,5 0 1 1 700.31,80.11A5,5 0 1 1 710.31,80.11Z" style="fill:#0000FF" />
<path d="M906.92,80.11A5,5 0 1 1 896.92,80.11A5,5 0 1 1 906.92,80.11Z" style="fill:#0000FF" />
<path d="M1103.5,80.11A5,5 0 1 1 1093.5,80.11A5,5 0 1 1 1103.5,80.11Z" style="fill:#0000FF" />
<path d="M1300.2,80.11A5,5 0 1 1 1290.2,80.11A5,5 0 1 1 1300.2,80.11Z" style="fill:#0000FF" />
<path d="M1496.8,80.11A5,5 0 1 1 1486.8,80.11A5,5 0 1 1 1496.8,80.11Z" style="fill:#0000FF" />
<path d="M1693.4,80.11A5,5 0 1 1 1683.4,80.11A5,5 0 1 1 1693.4,80.11Z" style="fill:#0000FF" />
<path d="M1890,80.11A5,5 0 1 1 1880,80.11A5,5 0 1 1 1890,80.11Z" style="fill:#0000FF" />
<path d="M115.46,168.54L312.08,246.86L508.69,341.6L705.31,399.52L901.92,542.13L1098.5,676.15L1295.2,696.81L1491.8,933.78L1688.4,866.66L1885,938.76" style="fill:none;stroke:#00FF00;stroke-width:4" />
<path d="M120.46,168.54A5,5 0 1 1 110.46,168.54A5,5 0 1 1 120.46,168.54Z" style="fill:#00FF00" />
<path d="M317.08,246.86A5,5 0 1 1 307.08,246.86A5,5 0 1 1 317.08,246.86Z" style="fill:#00FF00" />
<path d="M513.69,341.6A5,5 0 1 1 503.69,341.6A5,5 0 1 1 513.69,341.6Z" style="fill:#00FF00" />
<path d="M710.31,399.52A5,5 0 1 1 700.31,399.52A5,5 0 1 1 710.31,399.52Z" style="fill:#00FF00" />
<path d="M906.92,542.13A5,5 0 1 1 896.92,542.13A5,5 0 1 1 906.92,542.13Z" style="fill:#00FF00" />
<path d="M1103.5,676.15A5,5 0 1 1 1093.5,676.15A5,5 0 1 1 1103.5,676.15Z" style="fill:#00FF00" />
<path d="M1300.2,696.81A5,5 0 1 1 1290.2,696.81A5,5 0 1 1 1300.2,696.81Z" style="fill:#00FF00" />
<path d="M1496.8,933.78A5,5 0 1 1 1486.8,933.78A5,5 0 1 1 1496.8,933.78Z" style="fill:#00FF00" />
<path d="M1693.4,866.66A5,5 0 1 1 1683.4,866.66A5,5 0 1 1 1693.4,866.66Z" style="fill:#00FF00" />
<path d="M1890,938.76A5,5 0 1 1 1880,938.76A5,5 0 1 1 1890,938.76Z" style="fill:#00FF00" />
<path d="M1900,126.03L1920,126.03" style="fill:none;stroke:#FF0000;stroke-width:4" />
<path d="M1915,126.03A5,5 0 1 1 1905,126.03A5,5 0 1 1 1915,126.03Z" style="fill:#FF0000" />
<text x="1795.4" y="-121.05" transform="scale(1, -1)"
	style="font-family:Liberation Serif;font-variant:normal;font-weight:normal;font-style:normal;font-size:24px">std::deque</text>
<path d="M1900,105.66L1920,105.66" style="fill:none;stroke:#0000FF;stroke-width:4" />
<path d="M1915,105.66A5,5 0 1 1 1905,105.66A5,5 0 1 1 1915,105.66Z" style="fill:#0000FF" />
<text x="1792.7" y="-100.69" transform="scale(1, -1)"
	style="font-family:Liberation Serif;font-variant:normal;font-weight:normal;font-style:normal;font-size:24px">std::vector</text>
<path d="M1900,85.294L1920,85.294" style="fill:none;stroke:#00FF00;stroke-width:4" />
<path d="M1915,85.294A5,5 0 1 1 1905,85.294A5,5 0 1 1 1915,85.294Z" style="fill:#00FF00" />
<text x="1823.3" y="-80.319" transform="scale(1, -1)"
	style="font-family:Liberation Serif;font-variant:normal;font-weight:normal;font-style:normal;font-size:24px">std::list</text>
</g>
</svg>
