<?xml version="1.0"?>
<!-- Generated by SVGo and Plotinum VG -->
<svg width="1920pt" height="1080pt" viewBox="0 0 1920 1080"
	xmlns="http://www.w3.org/2000/svg"
	xmlns:xlink="http://www.w3.org/1999/xlink">
<g transform="scale(1, -1) translate(0, -1080)">
<path d="M0,0L1920,0L1920,1080L0,1080Z" style="fill:#FFFFFF" />
<text x="886.4" y="-1040.9" transform="scale(1, -1)"
	style="font-family:Liberation Serif;font-variant:normal;font-weight:normal;font-style:normal;font-size:50px">destroy</text>
<text x="877.77" y="-9.7559" transform="scale(1, -1)"
	style="font-family:Liberation Serif;font-variant:normal;font-weight:normal;font-style:normal;font-size:30px">Number of elements</text>
<text x="85.462" y="-39.727" transform="scale(1, -1)"
	style="font-family:Liberation Serif;font-variant:normal;font-weight:normal;font-style:normal;font-size:20px">100000</text>
<text x="282.08" y="-39.727" transform="scale(1, -1)"
	style="font-family:Liberation Serif;font-variant:normal;font-weight:normal;font-style:normal;font-size:20px">200000</text>
<text x="478.69" y="-39.727" transform="scale(1, -1)"
	style="font-family:Liberation Serif;font-variant:normal;font-weight:normal;font-style:normal;font-size:20px">300000</text>
<text x="675.31" y="-39.727" transform="scale(1, -1)"
	style="font-family:Liberation Serif;font-variant:normal;font-weight:normal;font-style:normal;font-size:20px">400000</text>
<text x="871.92" y="-39.727" transform="scale(1, -1)"
	style="font-family:Liberation Serif;font-variant:normal;font-weight:normal;font-style:normal;font-size:20px">500000</text>
<text x="1068.5" y="-39.727" transform="scale(1, -1)"
	style="font-family:Liberation Serif;font-variant:normal;font-weight:normal;font-style:normal;font-size:20px">600000</text>
<text x="1265.2" y="-39.727" transform="scale(1, -1)"
	style="font-family:Liberation Serif;font-variant:normal;font-weight:normal;font-style:normal;font-size:20px">700000</text>
<text x="1461.8" y="-39.727" transform="scale(1, -1)"
	style="font-family:Liberation Serif;font-variant:normal;font-weight:normal;font-style:normal;font-size:20px">800000</text>
<text x="1658.4" y="-39.727" transform="scale(1, -1)"
	style="font-family:Liberation Serif;font-variant:normal;font-weight:normal;font-style:normal;font-size:20px">900000</text>
<text x="1850" y="-39.727" transform="scale(1, -1)"
	style="font-family:Liberation Serif;font-variant:normal;font-weight:normal;font-style:normal;font-size:20px">1000000</text>
<path d="M115.46,55.371L115.46,63.371" style="fill:none;stroke:#000000;stroke-width:0.5" />
<path d="M312.08,55.371L312.08,63.371" style="fill:none;stroke:#000000;stroke-width:0.5" />
<path d="M508.69,55.371L508.69,63.371" style="fill:none;stroke:#000000;stroke-width:0.5" />
<path d="M705.31,55.371L705.31,63.371" style="fill:none;stroke:#000000;stroke-width:0.5" />
<path d="M901.92,55.371L901.92,63.371" style="fill:none;stroke:#000000;stroke-width:0.5" />
<path d="M1098.5,55.371L1098.5,63.371" style="fill:none;stroke:#000000;stroke-width:0.5" />
<path d="M1295.2,55.371L1295.2,63.371" style="fill:none;stroke:#000000;stroke-width:0.5" />
<path d="M1491.8,55.371L1491.8,63.371" style="fill:none;stroke:#000000;stroke-width:0.5" />
<path d="M1688.4,55.371L1688.4,63.371" style="fill:none;stroke:#000000;stroke-width:0.5" />
<path d="M1885,55.371L1885,63.371" style="fill:none;stroke:#000000;stroke-width:0.5" />
<path d="M115.46,63.371L1885,63.371" style="fill:none;stroke:#000000;stroke-width:0.5" />
<g transform="rotate(90)">
<text x="538.49" y="23.467" transform="scale(1, -1)"
	style="font-family:Liberation Serif;font-variant:normal;font-weight:normal;font-style:normal;font-size:30px">μs</text>
</g>
<text x="49.712" y="-143.7" transform="scale(1, -1)"
	style="font-family:Liberation Serif;font-variant:normal;font-weight:normal;font-style:normal;font-size:20px">5000</text>
<text x="39.712" y="-416.41" transform="scale(1, -1)"
	style="font-family:Liberation Serif;font-variant:normal;font-weight:normal;font-style:normal;font-size:20px">25000</text>
<text x="39.712" y="-689.12" transform="scale(1, -1)"
	style="font-family:Liberation Serif;font-variant:normal;font-weight:normal;font-style:normal;font-size:20px">45000</text>
<text x="39.712" y="-961.83" transform="scale(1, -1)"
	style="font-family:Liberation Serif;font-variant:normal;font-weight:normal;font-style:normal;font-size:20px">65000</text>
<path d="M94.712,148.27L102.71,148.27" style="fill:none;stroke:#000000;stroke-width:0.5" />
<path d="M94.712,420.98L102.71,420.98" style="fill:none;stroke:#000000;stroke-width:0.5" />
<path d="M94.712,693.69L102.71,693.69" style="fill:none;stroke:#000000;stroke-width:0.5" />
<path d="M94.712,966.4L102.71,966.4" style="fill:none;stroke:#000000;stroke-width:0.5" />
<path d="M98.712,284.63L102.71,284.63" style="fill:none;stroke:#000000;stroke-width:0.5" />
<path d="M98.712,557.34L102.71,557.34" style="fill:none;stroke:#000000;stroke-width:0.5" />
<path d="M98.712,830.05L102.71,830.05" style="fill:none;stroke:#000000;stroke-width:0.5" />
<path d="M102.71,80.11L102.71,1024.6" style="fill:none;stroke:#000000;stroke-width:0.5" />
<path d="M115.46,80.11L115.46,1024.6" style="fill:none;stroke:#808080;stroke-width:0.25" />
<path d="M312.08,80.11L312.08,1024.6" style="fill:none;stroke:#808080;stroke-width:0.25" />
<path d="M508.69,80.11L508.69,1024.6" style="fill:none;stroke:#808080;stroke-width:0.25" />
<path d="M705.31,80.11L705.31,1024.6" style="fill:none;stroke:#808080;stroke-width:0.25" />
<path d="M901.92,80.11L901.92,1024.6" style="fill:none;stroke:#808080;stroke-width:0.25" />
<path d="M1098.5,80.11L1098.5,1024.6" style="fill:none;stroke:#808080;stroke-width:0.25" />
<path d="M1295.2,80.11L1295.2,1024.6" style="fill:none;stroke:#808080;stroke-width:0.25" />
<path d="M1491.8,80.11L1491.8,1024.6" style="fill:none;stroke:#808080;stroke-width:0.25" />
<path d="M1688.4,80.11L1688.4,1024.6" style="fill:none;stroke:#808080;stroke-width:0.25" />
<path d="M1885,80.11L1885,1024.6" style="fill:none;stroke:#808080;stroke-width:0.25" />
<path d="M115.46,148.27L1885,148.27" style="fill:none;stroke:#808080;stroke-width:0.25" />
<path d="M115.46,420.98L1885,420.98" style="fill:none;stroke:#808080;stroke-width:0.25" />
<path d="M115.46,693.69L1885,693.69" style="fill:none;stroke:#808080;stroke-width:0.25" />
<path d="M115.46,966.4L1885,966.4" style="fill:none;stroke:#808080;stroke-width:0.25" />
<path d="M115.46,80.11L312.08,80.151L508.69,80.11L705.31,80.138L901.92,80.165L1098.5,80.138L1295.2,80.151L1491.8,80.151L1688.4,80.151L1885,80.151" style="fill:none;stroke:#FF0000;stroke-width:4" />
<path d="M120.46,80.11A5,5 0 1 1 110.46,80.11A5,5 0 1 1 120.46,80.11Z" style="fill:#FF0000" />
<path d="M317.08,80.151A5,5 0 1 1 307.08,80.151A5,5 0 1 1 317.08,80.151Z" style="fill:#FF0000" />
<path d="M513.69,80.11A5,5 0 1 1 503.69,80.11A5,5 0 1 1 513.69,80.11Z" style="fill:#FF0000" />
<path d="M710.31,80.138A5,5 0 1 1 700.31,80.138A5,5 0 1 1 710.31,80.138Z" style="fill:#FF0000" />
<path d="M906.92,80.165A5,5 0 1 1 896.92,80.165A5,5 0 1 1 906.92,80.165Z" style="fill:#FF0000" />
<path d="M1103.5,80.138A5,5 0 1 1 1093.5,80.138A5,5 0 1 1 1103.5,80.138Z" style="fill:#FF0000" />
<path d="M1300.2,80.151A5,5 0 1 1 1290.2,80.151A5,5 0 1 1 1300.2,80.151Z" style="fill:#FF0000" />
<path d="M1496.8,80.151A5,5 0 1 1 1486.8,80.151A5,5 0 1 1 1496.8,80.151Z" style="fill:#FF0000" />
<path d="M1693.4,80.151A5,5 0 1 1 1683.4,80.151A5,5 0 1 1 1693.4,80.151Z" style="fill:#FF0000" />
<path d="M1890,80.151A5,5 0 1 1 1880,80.151A5,5 0 1 1 1890,80.151Z" style="fill:#FF0000" />
<path d="M115.46,163.63L312.08,273.01L508.69,347.95L705.31,407.18L901.92,519.83L1098.5,663.19L1295.2,689.72L1491.8,758.5L1688.4,856.42L1885,938.76" style="fill:none;stroke:#0000FF;stroke-width:4" />
<path d="M120.46,163.63A5,5 0 1 1 110.46,163.63A5,5 0 1 1 120.46,163.63Z" style="fill:#0000FF" />
<path d="M317.08,273.01A5,5 0 1 1 307.08,273.01A5,5 0 1 1 317.08,273.01Z" style="fill:#0000FF" />
<path d="M513.69,347.95A5,5 0 1 1 503.69,347.95A5,5 0 1 1 513.69,347.95Z" style="fill:#0000FF" />
<path d="M710.31,407.18A5,5 0 1 1 700.31,407.18A5,5 0 1 1 710.31,407.18Z" style="fill:#0000FF" />
<path d="M906.92,519.83A5,5 0 1 1 896.92,519.83A5,5 0 1 1 906.92,519.83Z" style="fill:#0000FF" />
<path d="M1103.5,663.19A5,5 0 1 1 1093.5,663.19A5,5 0 1 1 1103.5,663.19Z" style="fill:#0000FF" />
<path d="M1300.2,689.72A5,5 0 1 1 1290.2,689.72A5,5 0 1 1 1300.2,689.72Z" style="fill:#0000FF" />
<path d="M1496.8,758.5A5,5 0 1 1 1486.8,758.5A5,5 0 1 1 1496.8,758.5Z" style="fill:#0000FF" />
<path d="M1693.4,856.42A5,5 0 1 1 1683.4,856.42A5,5 0 1 1 1693.4,856.42Z" style="fill:#0000FF" />
<path d="M1890,938.76A5,5 0 1 1 1880,938.76A5,5 0 1 1 1890,938.76Z" style="fill:#0000FF" />
<path d="M115.46,96.555L312.08,112.02L508.69,140.43L705.31,163.26L901.92,199.57L1098.5,199.58L1295.2,244.38L1491.8,282.04L1688.4,324.59L1885,326.84" style="fill:none;stroke:#00FF00;stroke-width:4" />
<path d="M120.46,96.555A5,5 0 1 1 110.46,96.555A5,5 0 1 1 120.46,96.555Z" style="fill:#00FF00" />
<path d="M317.08,112.02A5,5 0 1 1 307.08,112.02A5,5 0 1 1 317.08,112.02Z" style="fill:#00FF00" />
<path d="M513.69,140.43A5,5 0 1 1 503.69,140.43A5,5 0 1 1 513.69,140.43Z" style="fill:#00FF00" />
<path d="M710.31,163.26A5,5 0 1 1 700.31,163.26A5,5 0 1 1 710.31,163.26Z" style="fill:#00FF00" />
<path d="M906.92,199.57A5,5 0 1 1 896.92,199.57A5,5 0 1 1 906.92,199.57Z" style="fill:#00FF00" />
<path d="M1103.5,199.58A5,5 0 1 1 1093.5,199.58A5,5 0 1 1 1103.5,199.58Z" style="fill:#00FF00" />
<path d="M1300.2,244.38A5,5 0 1 1 1290.2,244.38A5,5 0 1 1 1300.2,244.38Z" style="fill:#00FF00" />
<path d="M1496.8,282.04A5,5 0 1 1 1486.8,282.04A5,5 0 1 1 1496.8,282.04Z" style="fill:#00FF00" />
<path d="M1693.4,324.59A5,5 0 1 1 1683.4,324.59A5,5 0 1 1 1693.4,324.59Z" style="fill:#00FF00" />
<path d="M1890,326.84A5,5 0 1 1 1880,326.84A5,5 0 1 1 1890,326.84Z" style="fill:#00FF00" />
<path d="M1900,126.03L1920,126.03" style="fill:none;stroke:#FF0000;stroke-width:4" />
<path d="M1915,126.03A5,5 0 1 1 1905,126.03A5,5 0 1 1 1915,126.03Z" style="fill:#FF0000" />
<text x="1792.7" y="-121.05" transform="scale(1, -1)"
	style="font-family:Liberation Serif;font-variant:normal;font-weight:normal;font-style:normal;font-size:24px">std::vector</text>
<path d="M1900,105.66L1920,105.66" style="fill:none;stroke:#0000FF;stroke-width:4" />
<path d="M1915,105.66A5,5 0 1 1 1905,105.66A5,5 0 1 1 1915,105.66Z" style="fill:#0000FF" />
<text x="1823.3" y="-100.69" transform="scale(1, -1)"
	style="font-family:Liberation Serif;font-variant:normal;font-weight:normal;font-style:normal;font-size:24px">std::list</text>
<path d="M1900,85.294L1920,85.294" style="fill:none;stroke:#00FF00;stroke-width:4" />
<path d="M1915,85.294A5,5 0 1 1 1905,85.294A5,5 0 1 1 1915,85.294Z" style="fill:#00FF00" />
<text x="1795.4" y="-80.319" transform="scale(1, -1)"
	style="font-family:Liberation Serif;font-variant:normal;font-weight:normal;font-style:normal;font-size:24px">std::deque</text>
</g>
</svg>
