<?xml version="1.0"?>
<!-- Generated by SVGo and Plotinum VG -->
<svg width="1920pt" height="1080pt" viewBox="0 0 1920 1080"
	xmlns="http://www.w3.org/2000/svg"
	xmlns:xlink="http://www.w3.org/1999/xlink">
<g transform="scale(1, -1) translate(0, -1080)">
<path d="M0,0L1920,0L1920,1080L0,1080Z" style="fill:#FFFFFF" />
<text x="886.4" y="-1040.9" transform="scale(1, -1)"
	style="font-family:Liberation Serif;font-variant:normal;font-weight:normal;font-style:normal;font-size:50px">destroy</text>
<text x="882.77" y="-9.7559" transform="scale(1, -1)"
	style="font-family:Liberation Serif;font-variant:normal;font-weight:normal;font-style:normal;font-size:30px">Number of elements</text>
<text x="95.462" y="-39.727" transform="scale(1, -1)"
	style="font-family:Liberation Serif;font-variant:normal;font-weight:normal;font-style:normal;font-size:20px">100000</text>
<text x="290.97" y="-39.727" transform="scale(1, -1)"
	style="font-family:Liberation Serif;font-variant:normal;font-weight:normal;font-style:normal;font-size:20px">200000</text>
<text x="486.47" y="-39.727" transform="scale(1, -1)"
	style="font-family:Liberation Serif;font-variant:normal;font-weight:normal;font-style:normal;font-size:20px">300000</text>
<text x="681.97" y="-39.727" transform="scale(1, -1)"
	style="font-family:Liberation Serif;font-variant:normal;font-weight:normal;font-style:normal;font-size:20px">400000</text>
<text x="877.48" y="-39.727" transform="scale(1, -1)"
	style="font-family:Liberation Serif;font-variant:normal;font-weight:normal;font-style:normal;font-size:20px">500000</text>
<text x="1073" y="-39.727" transform="scale(1, -1)"
	style="font-family:Liberation Serif;font-variant:normal;font-weight:normal;font-style:normal;font-size:20px">600000</text>
<text x="1268.5" y="-39.727" transform="scale(1, -1)"
	style="font-family:Liberation Serif;font-variant:normal;font-weight:normal;font-style:normal;font-size:20px">700000</text>
<text x="1464" y="-39.727" transform="scale(1, -1)"
	style="font-family:Liberation Serif;font-variant:normal;font-weight:normal;font-style:normal;font-size:20px">800000</text>
<text x="1659.5" y="-39.727" transform="scale(1, -1)"
	style="font-family:Liberation Serif;font-variant:normal;font-weight:normal;font-style:normal;font-size:20px">900000</text>
<text x="1850" y="-39.727" transform="scale(1, -1)"
	style="font-family:Liberation Serif;font-variant:normal;font-weight:normal;font-style:normal;font-size:20px">1000000</text>
<path d="M125.46,55.371L125.46,63.371" style="fill:none;stroke:#000000;stroke-width:0.5" />
<path d="M320.97,55.371L320.97,63.371" style="fill:none;stroke:#000000;stroke-width:0.5" />
<path d="M516.47,55.371L516.47,63.371" style="fill:none;stroke:#000000;stroke-width:0.5" />
<path d="M711.97,55.371L711.97,63.371" style="fill:none;stroke:#000000;stroke-width:0.5" />
<path d="M907.48,55.371L907.48,63.371" style="fill:none;stroke:#000000;stroke-width:0.5" />
<path d="M1103,55.371L1103,63.371" style="fill:none;stroke:#000000;stroke-width:0.5" />
<path d="M1298.5,55.371L1298.5,63.371" style="fill:none;stroke:#000000;stroke-width:0.5" />
<path d="M1494,55.371L1494,63.371" style="fill:none;stroke:#000000;stroke-width:0.5" />
<path d="M1689.5,55.371L1689.5,63.371" style="fill:none;stroke:#000000;stroke-width:0.5" />
<path d="M1885,55.371L1885,63.371" style="fill:none;stroke:#000000;stroke-width:0.5" />
<path d="M125.46,63.371L1885,63.371" style="fill:none;stroke:#000000;stroke-width:0.5" />
<g transform="rotate(90)">
<text x="538.49" y="23.467" transform="scale(1, -1)"
	style="font-family:Liberation Serif;font-variant:normal;font-weight:normal;font-style:normal;font-size:30px">μs</text>
</g>
<text x="49.712" y="-261.34" transform="scale(1, -1)"
	style="font-family:Liberation Serif;font-variant:normal;font-weight:normal;font-style:normal;font-size:20px">20000</text>
<text x="49.712" y="-632.99" transform="scale(1, -1)"
	style="font-family:Liberation Serif;font-variant:normal;font-weight:normal;font-style:normal;font-size:20px">60000</text>
<text x="39.712" y="-1004.6" transform="scale(1, -1)"
	style="font-family:Liberation Serif;font-variant:normal;font-weight:normal;font-style:normal;font-size:20px">100000</text>
<path d="M104.71,265.91L112.71,265.91" style="fill:none;stroke:#000000;stroke-width:0.5" />
<path d="M104.71,637.56L112.71,637.56" style="fill:none;stroke:#000000;stroke-width:0.5" />
<path d="M104.71,1009.2L112.71,1009.2" style="fill:none;stroke:#000000;stroke-width:0.5" />
<path d="M108.71,173L112.71,173" style="fill:none;stroke:#000000;stroke-width:0.5" />
<path d="M108.71,358.82L112.71,358.82" style="fill:none;stroke:#000000;stroke-width:0.5" />
<path d="M108.71,451.74L112.71,451.74" style="fill:none;stroke:#000000;stroke-width:0.5" />
<path d="M108.71,544.65L112.71,544.65" style="fill:none;stroke:#000000;stroke-width:0.5" />
<path d="M108.71,730.48L112.71,730.48" style="fill:none;stroke:#000000;stroke-width:0.5" />
<path d="M108.71,823.39L112.71,823.39" style="fill:none;stroke:#000000;stroke-width:0.5" />
<path d="M108.71,916.3L112.71,916.3" style="fill:none;stroke:#000000;stroke-width:0.5" />
<path d="M112.71,80.11L112.71,1024.6" style="fill:none;stroke:#000000;stroke-width:0.5" />
<path d="M125.46,80.11L125.46,1024.6" style="fill:none;stroke:#808080;stroke-width:0.25" />
<path d="M320.97,80.11L320.97,1024.6" style="fill:none;stroke:#808080;stroke-width:0.25" />
<path d="M516.47,80.11L516.47,1024.6" style="fill:none;stroke:#808080;stroke-width:0.25" />
<path d="M711.97,80.11L711.97,1024.6" style="fill:none;stroke:#808080;stroke-width:0.25" />
<path d="M907.48,80.11L907.48,1024.6" style="fill:none;stroke:#808080;stroke-width:0.25" />
<path d="M1103,80.11L1103,1024.6" style="fill:none;stroke:#808080;stroke-width:0.25" />
<path d="M1298.5,80.11L1298.5,1024.6" style="fill:none;stroke:#808080;stroke-width:0.25" />
<path d="M1494,80.11L1494,1024.6" style="fill:none;stroke:#808080;stroke-width:0.25" />
<path d="M1689.5,80.11L1689.5,1024.6" style="fill:none;stroke:#808080;stroke-width:0.25" />
<path d="M1885,80.11L1885,1024.6" style="fill:none;stroke:#808080;stroke-width:0.25" />
<path d="M125.46,265.91L1885,265.91" style="fill:none;stroke:#808080;stroke-width:0.25" />
<path d="M125.46,637.56L1885,637.56" style="fill:none;stroke:#808080;stroke-width:0.25" />
<path d="M125.46,1009.2L1885,1009.2" style="fill:none;stroke:#808080;stroke-width:0.25" />
<path d="M125.46,142.72L320.97,210.42L516.47,333.55L711.97,404.13L907.48,529.93L1103,603.12L1298.5,656.6L1494,909.89L1689.5,845.68L1885,938.76" style="fill:none;stroke:#FF0000;stroke-width:4" />
<path d="M130.46,142.72A5,5 0 1 1 120.46,142.72A5,5 0 1 1 130.46,142.72Z" style="fill:#FF0000" />
<path d="M325.97,210.42A5,5 0 1 1 315.97,210.42A5,5 0 1 1 325.97,210.42Z" style="fill:#FF0000" />
<path d="M521.47,333.55A5,5 0 1 1 511.47,333.55A5,5 0 1 1 521.47,333.55Z" style="fill:#FF0000" />
<path d="M716.97,404.13A5,5 0 1 1 706.97,404.13A5,5 0 1 1 716.97,404.13Z" style="fill:#FF0000" />
<path d="M912.48,529.93A5,5 0 1 1 902.48,529.93A5,5 0 1 1 912.48,529.93Z" style="fill:#FF0000" />
<path d="M1108,603.12A5,5 0 1 1 1098,603.12A5,5 0 1 1 1108,603.12Z" style="fill:#FF0000" />
<path d="M1303.5,656.6A5,5 0 1 1 1293.5,656.6A5,5 0 1 1 1303.5,656.6Z" style="fill:#FF0000" />
<path d="M1499,909.89A5,5 0 1 1 1489,909.89A5,5 0 1 1 1499,909.89Z" style="fill:#FF0000" />
<path d="M1694.5,845.68A5,5 0 1 1 1684.5,845.68A5,5 0 1 1 1694.5,845.68Z" style="fill:#FF0000" />
<path d="M1890,938.76A5,5 0 1 1 1880,938.76A5,5 0 1 1 1890,938.76Z" style="fill:#FF0000" />
<path d="M125.46,135.2L320.97,191.25L516.47,273.76L711.97,372.48L907.48,460.67L1103,495.81L1298.5,571.41L1494,650.24L1689.5,730.37L1885,797.12" style="fill:none;stroke:#0000FF;stroke-width:4" />
<path d="M130.46,135.2A5,5 0 1 1 120.46,135.2A5,5 0 1 1 130.46,135.2Z" style="fill:#0000FF" />
<path d="M325.97,191.25A5,5 0 1 1 315.97,191.25A5,5 0 1 1 325.97,191.25Z" style="fill:#0000FF" />
<path d="M521.47,273.76A5,5 0 1 1 511.47,273.76A5,5 0 1 1 521.47,273.76Z" style="fill:#0000FF" />
<path d="M716.97,372.48A5,5 0 1 1 706.97,372.48A5,5 0 1 1 716.97,372.48Z" style="fill:#0000FF" />
<path d="M912.48,460.67A5,5 0 1 1 902.48,460.67A5,5 0 1 1 912.48,460.67Z" style="fill:#0000FF" />
<path d="M1108,495.81A5,5 0 1 1 1098,495.81A5,5 0 1 1 1108,495.81Z" style="fill:#0000FF" />
<path d="M1303.5,571.41A5,5 0 1 1 1293.5,571.41A5,5 0 1 1 1303.5,571.41Z" style="fill:#0000FF" />
<path d="M1499,650.24A5,5 0 1 1 1489,650.24A5,5 0 1 1 1499,650.24Z" style="fill:#0000FF" />
<path d="M1694.5,730.37A5,5 0 1 1 1684.5,730.37A5,5 0 1 1 1694.5,730.37Z" style="fill:#0000FF" />
<path d="M1890,797.12A5,5 0 1 1 1880,797.12A5,5 0 1 1 1890,797.12Z" style="fill:#0000FF" />
<path d="M125.46,80.11L320.97,80.138L516.47,80.11L711.97,80.11L907.48,80.11L1103,80.12L1298.5,80.11L1494,80.11L1689.5,80.11L1885,80.11" style="fill:none;stroke:#00FF00;stroke-width:4" />
<path d="M130.46,80.11A5,5 0 1 1 120.46,80.11A5,5 0 1 1 130.46,80.11Z" style="fill:#00FF00" />
<path d="M325.97,80.138A5,5 0 1 1 315.97,80.138A5,5 0 1 1 325.97,80.138Z" style="fill:#00FF00" />
<path d="M521.47,80.11A5,5 0 1 1 511.47,80.11A5,5 0 1 1 521.47,80.11Z" style="fill:#00FF00" />
<path d="M716.97,80.11A5,5 0 1 1 706.97,80.11A5,5 0 1 1 716.97,80.11Z" style="fill:#00FF00" />
<path d="M912.48,80.11A5,5 0 1 1 902.48,80.11A5,5 0 1 1 912.48,80.11Z" style="fill:#00FF00" />
<path d="M1108,80.12A5,5 0 1 1 1098,80.12A5,5 0 1 1 1108,80.12Z" style="fill:#00FF00" />
<path d="M1303.5,80.11A5,5 0 1 1 1293.5,80.11A5,5 0 1 1 1303.5,80.11Z" style="fill:#00FF00" />
<path d="M1499,80.11A5,5 0 1 1 1489,80.11A5,5 0 1 1 1499,80.11Z" style="fill:#00FF00" />
<path d="M1694.5,80.11A5,5 0 1 1 1684.5,80.11A5,5 0 1 1 1694.5,80.11Z" style="fill:#00FF00" />
<path d="M1890,80.11A5,5 0 1 1 1880,80.11A5,5 0 1 1 1890,80.11Z" style="fill:#00FF00" />
<path d="M1900,126.03L1920,126.03" style="fill:none;stroke:#FF0000;stroke-width:4" />
<path d="M1915,126.03A5,5 0 1 1 1905,126.03A5,5 0 1 1 1915,126.03Z" style="fill:#FF0000" />
<text x="1823.3" y="-121.05" transform="scale(1, -1)"
	style="font-family:Liberation Serif;font-variant:normal;font-weight:normal;font-style:normal;font-size:24px">std::list</text>
<path d="M1900,105.66L1920,105.66" style="fill:none;stroke:#0000FF;stroke-width:4" />
<path d="M1915,105.66A5,5 0 1 1 1905,105.66A5,5 0 1 1 1915,105.66Z" style="fill:#0000FF" />
<text x="1795.4" y="-100.69" transform="scale(1, -1)"
	style="font-family:Liberation Serif;font-variant:normal;font-weight:normal;font-style:normal;font-size:24px">std::deque</text>
<path d="M1900,85.294L1920,85.294" style="fill:none;stroke:#00FF00;stroke-width:4" />
<path d="M1915,85.294A5,5 0 1 1 1905,85.294A5,5 0 1 1 1915,85.294Z" style="fill:#00FF00" />
<text x="1792.7" y="-80.319" transform="scale(1, -1)"
	style="font-family:Liberation Serif;font-variant:normal;font-weight:normal;font-style:normal;font-size:24px">std::vector</text>
</g>
</svg>
