<?xml version="1.0"?>
<!-- Generated by SVGo and Plotinum VG -->
<svg width="1920pt" height="1080pt" viewBox="0 0 1920 1080"
	xmlns="http://www.w3.org/2000/svg"
	xmlns:xlink="http://www.w3.org/1999/xlink">
<g transform="scale(1, -1) translate(0, -1080)">
<path d="M0,0L1920,0L1920,1080L0,1080Z" style="fill:#FFFFFF" />
<text x="886.4" y="-1040.9" transform="scale(1, -1)"
	style="font-family:Liberation Serif;font-variant:normal;font-weight:normal;font-style:normal;font-size:50px">destroy</text>
<text x="877.77" y="-9.7559" transform="scale(1, -1)"
	style="font-family:Liberation Serif;font-variant:normal;font-weight:normal;font-style:normal;font-size:30px">Number of elements</text>
<text x="85.462" y="-39.727" transform="scale(1, -1)"
	style="font-family:Liberation Serif;font-variant:normal;font-weight:normal;font-style:normal;font-size:20px">100000</text>
<text x="282.08" y="-39.727" transform="scale(1, -1)"
	style="font-family:Liberation Serif;font-variant:normal;font-weight:normal;font-style:normal;font-size:20px">200000</text>
<text x="478.69" y="-39.727" transform="scale(1, -1)"
	style="font-family:Liberation Serif;font-variant:normal;font-weight:normal;font-style:normal;font-size:20px">300000</text>
<text x="675.31" y="-39.727" transform="scale(1, -1)"
	style="font-family:Liberation Serif;font-variant:normal;font-weight:normal;font-style:normal;font-size:20px">400000</text>
<text x="871.92" y="-39.727" transform="scale(1, -1)"
	style="font-family:Liberation Serif;font-variant:normal;font-weight:normal;font-style:normal;font-size:20px">500000</text>
<text x="1068.5" y="-39.727" transform="scale(1, -1)"
	style="font-family:Liberation Serif;font-variant:normal;font-weight:normal;font-style:normal;font-size:20px">600000</text>
<text x="1265.2" y="-39.727" transform="scale(1, -1)"
	style="font-family:Liberation Serif;font-variant:normal;font-weight:normal;font-style:normal;font-size:20px">700000</text>
<text x="1461.8" y="-39.727" transform="scale(1, -1)"
	style="font-family:Liberation Serif;font-variant:normal;font-weight:normal;font-style:normal;font-size:20px">800000</text>
<text x="1658.4" y="-39.727" transform="scale(1, -1)"
	style="font-family:Liberation Serif;font-variant:normal;font-weight:normal;font-style:normal;font-size:20px">900000</text>
<text x="1850" y="-39.727" transform="scale(1, -1)"
	style="font-family:Liberation Serif;font-variant:normal;font-weight:normal;font-style:normal;font-size:20px">1000000</text>
<path d="M115.46,55.371L115.46,63.371" style="fill:none;stroke:#000000;stroke-width:0.5" />
<path d="M312.08,55.371L312.08,63.371" style="fill:none;stroke:#000000;stroke-width:0.5" />
<path d="M508.69,55.371L508.69,63.371" style="fill:none;stroke:#000000;stroke-width:0.5" />
<path d="M705.31,55.371L705.31,63.371" style="fill:none;stroke:#000000;stroke-width:0.5" />
<path d="M901.92,55.371L901.92,63.371" style="fill:none;stroke:#000000;stroke-width:0.5" />
<path d="M1098.5,55.371L1098.5,63.371" style="fill:none;stroke:#000000;stroke-width:0.5" />
<path d="M1295.2,55.371L1295.2,63.371" style="fill:none;stroke:#000000;stroke-width:0.5" />
<path d="M1491.8,55.371L1491.8,63.371" style="fill:none;stroke:#000000;stroke-width:0.5" />
<path d="M1688.4,55.371L1688.4,63.371" style="fill:none;stroke:#000000;stroke-width:0.5" />
<path d="M1885,55.371L1885,63.371" style="fill:none;stroke:#000000;stroke-width:0.5" />
<path d="M115.46,63.371L1885,63.371" style="fill:none;stroke:#000000;stroke-width:0.5" />
<g transform="rotate(90)">
<text x="538.49" y="23.467" transform="scale(1, -1)"
	style="font-family:Liberation Serif;font-variant:normal;font-weight:normal;font-style:normal;font-size:30px">μs</text>
</g>
<text x="39.712" y="-227.14" transform="scale(1, -1)"
	style="font-family:Liberation Serif;font-variant:normal;font-weight:normal;font-style:normal;font-size:20px">10000</text>
<text x="39.712" y="-378.79" transform="scale(1, -1)"
	style="font-family:Liberation Serif;font-variant:normal;font-weight:normal;font-style:normal;font-size:20px">20000</text>
<text x="39.712" y="-530.44" transform="scale(1, -1)"
	style="font-family:Liberation Serif;font-variant:normal;font-weight:normal;font-style:normal;font-size:20px">30000</text>
<text x="39.712" y="-682.09" transform="scale(1, -1)"
	style="font-family:Liberation Serif;font-variant:normal;font-weight:normal;font-style:normal;font-size:20px">40000</text>
<text x="39.712" y="-833.74" transform="scale(1, -1)"
	style="font-family:Liberation Serif;font-variant:normal;font-weight:normal;font-style:normal;font-size:20px">50000</text>
<text x="39.712" y="-985.39" transform="scale(1, -1)"
	style="font-family:Liberation Serif;font-variant:normal;font-weight:normal;font-style:normal;font-size:20px">60000</text>
<path d="M94.712,231.71L102.71,231.71" style="fill:none;stroke:#000000;stroke-width:0.5" />
<path d="M94.712,383.36L102.71,383.36" style="fill:none;stroke:#000000;stroke-width:0.5" />
<path d="M94.712,535.01L102.71,535.01" style="fill:none;stroke:#000000;stroke-width:0.5" />
<path d="M94.712,686.66L102.71,686.66" style="fill:none;stroke:#000000;stroke-width:0.5" />
<path d="M94.712,838.31L102.71,838.31" style="fill:none;stroke:#000000;stroke-width:0.5" />
<path d="M94.712,989.96L102.71,989.96" style="fill:none;stroke:#000000;stroke-width:0.5" />
<path d="M98.712,110.39L102.71,110.39" style="fill:none;stroke:#000000;stroke-width:0.5" />
<path d="M98.712,140.72L102.71,140.72" style="fill:none;stroke:#000000;stroke-width:0.5" />
<path d="M98.712,171.05L102.71,171.05" style="fill:none;stroke:#000000;stroke-width:0.5" />
<path d="M98.712,201.38L102.71,201.38" style="fill:none;stroke:#000000;stroke-width:0.5" />
<path d="M98.712,262.04L102.71,262.04" style="fill:none;stroke:#000000;stroke-width:0.5" />
<path d="M98.712,292.37L102.71,292.37" style="fill:none;stroke:#000000;stroke-width:0.5" />
<path d="M98.712,322.7L102.71,322.7" style="fill:none;stroke:#000000;stroke-width:0.5" />
<path d="M98.712,353.03L102.71,353.03" style="fill:none;stroke:#000000;stroke-width:0.5" />
<path d="M98.712,413.69L102.71,413.69" style="fill:none;stroke:#000000;stroke-width:0.5" />
<path d="M98.712,444.02L102.71,444.02" style="fill:none;stroke:#000000;stroke-width:0.5" />
<path d="M98.712,474.35L102.71,474.35" style="fill:none;stroke:#000000;stroke-width:0.5" />
<path d="M98.712,504.68L102.71,504.68" style="fill:none;stroke:#000000;stroke-width:0.5" />
<path d="M98.712,565.34L102.71,565.34" style="fill:none;stroke:#000000;stroke-width:0.5" />
<path d="M98.712,595.67L102.71,595.67" style="fill:none;stroke:#000000;stroke-width:0.5" />
<path d="M98.712,626L102.71,626" style="fill:none;stroke:#000000;stroke-width:0.5" />
<path d="M98.712,656.33L102.71,656.33" style="fill:none;stroke:#000000;stroke-width:0.5" />
<path d="M98.712,716.99L102.71,716.99" style="fill:none;stroke:#000000;stroke-width:0.5" />
<path d="M98.712,747.32L102.71,747.32" style="fill:none;stroke:#000000;stroke-width:0.5" />
<path d="M98.712,777.65L102.71,777.65" style="fill:none;stroke:#000000;stroke-width:0.5" />
<path d="M98.712,807.98L102.71,807.98" style="fill:none;stroke:#000000;stroke-width:0.5" />
<path d="M98.712,868.64L102.71,868.64" style="fill:none;stroke:#000000;stroke-width:0.5" />
<path d="M98.712,898.97L102.71,898.97" style="fill:none;stroke:#000000;stroke-width:0.5" />
<path d="M98.712,929.3L102.71,929.3" style="fill:none;stroke:#000000;stroke-width:0.5" />
<path d="M98.712,959.63L102.71,959.63" style="fill:none;stroke:#000000;stroke-width:0.5" />
<path d="M98.712,1020.3L102.71,1020.3" style="fill:none;stroke:#000000;stroke-width:0.5" />
<path d="M102.71,80.11L102.71,1024.6" style="fill:none;stroke:#000000;stroke-width:0.5" />
<path d="M115.46,80.11L115.46,1024.6" style="fill:none;stroke:#808080;stroke-width:0.25" />
<path d="M312.08,80.11L312.08,1024.6" style="fill:none;stroke:#808080;stroke-width:0.25" />
<path d="M508.69,80.11L508.69,1024.6" style="fill:none;stroke:#808080;stroke-width:0.25" />
<path d="M705.31,80.11L705.31,1024.6" style="fill:none;stroke:#808080;stroke-width:0.25" />
<path d="M901.92,80.11L901.92,1024.6" style="fill:none;stroke:#808080;stroke-width:0.25" />
<path d="M1098.5,80.11L1098.5,1024.6" style="fill:none;stroke:#808080;stroke-width:0.25" />
<path d="M1295.2,80.11L1295.2,1024.6" style="fill:none;stroke:#808080;stroke-width:0.25" />
<path d="M1491.8,80.11L1491.8,1024.6" style="fill:none;stroke:#808080;stroke-width:0.25" />
<path d="M1688.4,80.11L1688.4,1024.6" style="fill:none;stroke:#808080;stroke-width:0.25" />
<path d="M1885,80.11L1885,1024.6" style="fill:none;stroke:#808080;stroke-width:0.25" />
<path d="M115.46,231.71L1885,231.71" style="fill:none;stroke:#808080;stroke-width:0.25" />
<path d="M115.46,383.36L1885,383.36" style="fill:none;stroke:#808080;stroke-width:0.25" />
<path d="M115.46,535.01L1885,535.01" style="fill:none;stroke:#808080;stroke-width:0.25" />
<path d="M115.46,686.66L1885,686.66" style="fill:none;stroke:#808080;stroke-width:0.25" />
<path d="M115.46,838.31L1885,838.31" style="fill:none;stroke:#808080;stroke-width:0.25" />
<path d="M115.46,989.96L1885,989.96" style="fill:none;stroke:#808080;stroke-width:0.25" />
<path d="M115.46,160.53L312.08,229.97L508.69,343.4L705.31,440.26L901.92,519.19L1098.5,607.16L1295.2,714.21L1491.8,789.76L1688.4,893.69L1885,938.76" style="fill:none;stroke:#FF0000;stroke-width:4" />
<path d="M120.46,160.53A5,5 0 1 1 110.46,160.53A5,5 0 1 1 120.46,160.53Z" style="fill:#FF0000" />
<path d="M317.08,229.97A5,5 0 1 1 307.08,229.97A5,5 0 1 1 317.08,229.97Z" style="fill:#FF0000" />
<path d="M513.69,343.4A5,5 0 1 1 503.69,343.4A5,5 0 1 1 513.69,343.4Z" style="fill:#FF0000" />
<path d="M710.31,440.26A5,5 0 1 1 700.31,440.26A5,5 0 1 1 710.31,440.26Z" style="fill:#FF0000" />
<path d="M906.92,519.19A5,5 0 1 1 896.92,519.19A5,5 0 1 1 906.92,519.19Z" style="fill:#FF0000" />
<path d="M1103.5,607.16A5,5 0 1 1 1093.5,607.16A5,5 0 1 1 1103.5,607.16Z" style="fill:#FF0000" />
<path d="M1300.2,714.21A5,5 0 1 1 1290.2,714.21A5,5 0 1 1 1300.2,714.21Z" style="fill:#FF0000" />
<path d="M1496.8,789.76A5,5 0 1 1 1486.8,789.76A5,5 0 1 1 1496.8,789.76Z" style="fill:#FF0000" />
<path d="M1693.4,893.69A5,5 0 1 1 1683.4,893.69A5,5 0 1 1 1693.4,893.69Z" style="fill:#FF0000" />
<path d="M1890,938.76A5,5 0 1 1 1880,938.76A5,5 0 1 1 1890,938.76Z" style="fill:#FF0000" />
<path d="M115.46,100.01L312.08,125.36L508.69,122.36L705.31,163.15L901.92,169.99L1098.5,188.13L1295.2,207.4L1491.8,227.69L1688.4,266.27L1885,275.15" style="fill:none;stroke:#0000FF;stroke-width:4" />
<path d="M120.46,100.01A5,5 0 1 1 110.46,100.01A5,5 0 1 1 120.46,100.01Z" style="fill:#0000FF" />
<path d="M317.08,125.36A5,5 0 1 1 307.08,125.36A5,5 0 1 1 317.08,125.36Z" style="fill:#0000FF" />
<path d="M513.69,122.36A5,5 0 1 1 503.69,122.36A5,5 0 1 1 513.69,122.36Z" style="fill:#0000FF" />
<path d="M710.31,163.15A5,5 0 1 1 700.31,163.15A5,5 0 1 1 710.31,163.15Z" style="fill:#0000FF" />
<path d="M906.92,169.99A5,5 0 1 1 896.92,169.99A5,5 0 1 1 906.92,169.99Z" style="fill:#0000FF" />
<path d="M1103.5,188.13A5,5 0 1 1 1093.5,188.13A5,5 0 1 1 1103.5,188.13Z" style="fill:#0000FF" />
<path d="M1300.2,207.4A5,5 0 1 1 1290.2,207.4A5,5 0 1 1 1300.2,207.4Z" style="fill:#0000FF" />
<path d="M1496.8,227.69A5,5 0 1 1 1486.8,227.69A5,5 0 1 1 1496.8,227.69Z" style="fill:#0000FF" />
<path d="M1693.4,266.27A5,5 0 1 1 1683.4,266.27A5,5 0 1 1 1693.4,266.27Z" style="fill:#0000FF" />
<path d="M1890,275.15A5,5 0 1 1 1880,275.15A5,5 0 1 1 1890,275.15Z" style="fill:#0000FF" />
<path d="M115.46,80.217L312.08,80.156L508.69,80.141L705.31,80.11L901.92,80.11L1098.5,80.126L1295.2,80.11L1491.8,80.11L1688.4,80.126L1885,80.11" style="fill:none;stroke:#00FF00;stroke-width:4" />
<path d="M120.46,80.217A5,5 0 1 1 110.46,80.217A5,5 0 1 1 120.46,80.217Z" style="fill:#00FF00" />
<path d="M317.08,80.156A5,5 0 1 1 307.08,80.156A5,5 0 1 1 317.08,80.156Z" style="fill:#00FF00" />
<path d="M513.69,80.141A5,5 0 1 1 503.69,80.141A5,5 0 1 1 513.69,80.141Z" style="fill:#00FF00" />
<path d="M710.31,80.11A5,5 0 1 1 700.31,80.11A5,5 0 1 1 710.31,80.11Z" style="fill:#00FF00" />
<path d="M906.92,80.11A5,5 0 1 1 896.92,80.11A5,5 0 1 1 906.92,80.11Z" style="fill:#00FF00" />
<path d="M1103.5,80.126A5,5 0 1 1 1093.5,80.126A5,5 0 1 1 1103.5,80.126Z" style="fill:#00FF00" />
<path d="M1300.2,80.11A5,5 0 1 1 1290.2,80.11A5,5 0 1 1 1300.2,80.11Z" style="fill:#00FF00" />
<path d="M1496.8,80.11A5,5 0 1 1 1486.8,80.11A5,5 0 1 1 1496.8,80.11Z" style="fill:#00FF00" />
<path d="M1693.4,80.126A5,5 0 1 1 1683.4,80.126A5,5 0 1 1 1693.4,80.126Z" style="fill:#00FF00" />
<path d="M1890,80.11A5,5 0 1 1 1880,80.11A5,5 0 1 1 1890,80.11Z" style="fill:#00FF00" />
<path d="M1900,126.03L1920,126.03" style="fill:none;stroke:#FF0000;stroke-width:4" />
<path d="M1915,126.03A5,5 0 1 1 1905,126.03A5,5 0 1 1 1915,126.03Z" style="fill:#FF0000" />
<text x="1823.3" y="-121.05" transform="scale(1, -1)"
	style="font-family:Liberation Serif;font-variant:normal;font-weight:normal;font-style:normal;font-size:24px">std::list</text>
<path d="M1900,105.66L1920,105.66" style="fill:none;stroke:#0000FF;stroke-width:4" />
<path d="M1915,105.66A5,5 0 1 1 1905,105.66A5,5 0 1 1 1915,105.66Z" style="fill:#0000FF" />
<text x="1795.4" y="-100.69" transform="scale(1, -1)"
	style="font-family:Liberation Serif;font-variant:normal;font-weight:normal;font-style:normal;font-size:24px">std::deque</text>
<path d="M1900,85.294L1920,85.294" style="fill:none;stroke:#00FF00;stroke-width:4" />
<path d="M1915,85.294A5,5 0 1 1 1905,85.294A5,5 0 1 1 1915,85.294Z" style="fill:#00FF00" />
<text x="1792.7" y="-80.319" transform="scale(1, -1)"
	style="font-family:Liberation Serif;font-variant:normal;font-weight:normal;font-style:normal;font-size:24px">std::vector</text>
</g>
</svg>
