<?xml version="1.0"?>
<!-- Generated by SVGo and Plotinum VG -->
<svg width="1920pt" height="1080pt" viewBox="0 0 1920 1080"
	xmlns="http://www.w3.org/2000/svg"
	xmlns:xlink="http://www.w3.org/1999/xlink">
<g transform="scale(1, -1) translate(0, -1080)">
<path d="M0,0L1920,0L1920,1080L0,1080Z" style="fill:#FFFFFF" />
<text x="886.4" y="-1040.9" transform="scale(1, -1)"
	style="font-family:Liberation Serif;font-variant:normal;font-weight:normal;font-style:normal;font-size:50px">destroy</text>
<text x="877.77" y="-9.7559" transform="scale(1, -1)"
	style="font-family:Liberation Serif;font-variant:normal;font-weight:normal;font-style:normal;font-size:30px">Number of elements</text>
<text x="85.462" y="-39.727" transform="scale(1, -1)"
	style="font-family:Liberation Serif;font-variant:normal;font-weight:normal;font-style:normal;font-size:20px">100000</text>
<text x="282.08" y="-39.727" transform="scale(1, -1)"
	style="font-family:Liberation Serif;font-variant:normal;font-weight:normal;font-style:normal;font-size:20px">200000</text>
<text x="478.69" y="-39.727" transform="scale(1, -1)"
	style="font-family:Liberation Serif;font-variant:normal;font-weight:normal;font-style:normal;font-size:20px">300000</text>
<text x="675.31" y="-39.727" transform="scale(1, -1)"
	style="font-family:Liberation Serif;font-variant:normal;font-weight:normal;font-style:normal;font-size:20px">400000</text>
<text x="871.92" y="-39.727" transform="scale(1, -1)"
	style="font-family:Liberation Serif;font-variant:normal;font-weight:normal;font-style:normal;font-size:20px">500000</text>
<text x="1068.5" y="-39.727" transform="scale(1, -1)"
	style="font-family:Liberation Serif;font-variant:normal;font-weight:normal;font-style:normal;font-size:20px">600000</text>
<text x="1265.2" y="-39.727" transform="scale(1, -1)"
	style="font-family:Liberation Serif;font-variant:normal;font-weight:normal;font-style:normal;font-size:20px">700000</text>
<text x="1461.8" y="-39.727" transform="scale(1, -1)"
	style="font-family:Liberation Serif;font-variant:normal;font-weight:normal;font-style:normal;font-size:20px">800000</text>
<text x="1658.4" y="-39.727" transform="scale(1, -1)"
	style="font-family:Liberation Serif;font-variant:normal;font-weight:normal;font-style:normal;font-size:20px">900000</text>
<text x="1850" y="-39.727" transform="scale(1, -1)"
	style="font-family:Liberation Serif;font-variant:normal;font-weight:normal;font-style:normal;font-size:20px">1000000</text>
<path d="M115.46,55.371L115.46,63.371" style="fill:none;stroke:#000000;stroke-width:0.5" />
<path d="M312.08,55.371L312.08,63.371" style="fill:none;stroke:#000000;stroke-width:0.5" />
<path d="M508.69,55.371L508.69,63.371" style="fill:none;stroke:#000000;stroke-width:0.5" />
<path d="M705.31,55.371L705.31,63.371" style="fill:none;stroke:#000000;stroke-width:0.5" />
<path d="M901.92,55.371L901.92,63.371" style="fill:none;stroke:#000000;stroke-width:0.5" />
<path d="M1098.5,55.371L1098.5,63.371" style="fill:none;stroke:#000000;stroke-width:0.5" />
<path d="M1295.2,55.371L1295.2,63.371" style="fill:none;stroke:#000000;stroke-width:0.5" />
<path d="M1491.8,55.371L1491.8,63.371" style="fill:none;stroke:#000000;stroke-width:0.5" />
<path d="M1688.4,55.371L1688.4,63.371" style="fill:none;stroke:#000000;stroke-width:0.5" />
<path d="M1885,55.371L1885,63.371" style="fill:none;stroke:#000000;stroke-width:0.5" />
<path d="M115.46,63.371L1885,63.371" style="fill:none;stroke:#000000;stroke-width:0.5" />
<g transform="rotate(90)">
<text x="537.4" y="23.467" transform="scale(1, -1)"
	style="font-family:Liberation Serif;font-variant:normal;font-weight:normal;font-style:normal;font-size:30px">μs</text>
</g>
<text x="39.712" y="-231.1" transform="scale(1, -1)"
	style="font-family:Liberation Serif;font-variant:normal;font-weight:normal;font-style:normal;font-size:20px">10000</text>
<text x="39.712" y="-386.68" transform="scale(1, -1)"
	style="font-family:Liberation Serif;font-variant:normal;font-weight:normal;font-style:normal;font-size:20px">20000</text>
<text x="39.712" y="-542.25" transform="scale(1, -1)"
	style="font-family:Liberation Serif;font-variant:normal;font-weight:normal;font-style:normal;font-size:20px">30000</text>
<text x="39.712" y="-697.83" transform="scale(1, -1)"
	style="font-family:Liberation Serif;font-variant:normal;font-weight:normal;font-style:normal;font-size:20px">40000</text>
<text x="39.712" y="-853.41" transform="scale(1, -1)"
	style="font-family:Liberation Serif;font-variant:normal;font-weight:normal;font-style:normal;font-size:20px">50000</text>
<text x="39.712" y="-1009" transform="scale(1, -1)"
	style="font-family:Liberation Serif;font-variant:normal;font-weight:normal;font-style:normal;font-size:20px">60000</text>
<path d="M94.712,235.67L102.71,235.67" style="fill:none;stroke:#000000;stroke-width:0.5" />
<path d="M94.712,391.25L102.71,391.25" style="fill:none;stroke:#000000;stroke-width:0.5" />
<path d="M94.712,546.82L102.71,546.82" style="fill:none;stroke:#000000;stroke-width:0.5" />
<path d="M94.712,702.4L102.71,702.4" style="fill:none;stroke:#000000;stroke-width:0.5" />
<path d="M94.712,857.98L102.71,857.98" style="fill:none;stroke:#000000;stroke-width:0.5" />
<path d="M94.712,1013.6L102.71,1013.6" style="fill:none;stroke:#000000;stroke-width:0.5" />
<path d="M98.712,111.21L102.71,111.21" style="fill:none;stroke:#000000;stroke-width:0.5" />
<path d="M98.712,142.33L102.71,142.33" style="fill:none;stroke:#000000;stroke-width:0.5" />
<path d="M98.712,173.44L102.71,173.44" style="fill:none;stroke:#000000;stroke-width:0.5" />
<path d="M98.712,204.56L102.71,204.56" style="fill:none;stroke:#000000;stroke-width:0.5" />
<path d="M98.712,266.79L102.71,266.79" style="fill:none;stroke:#000000;stroke-width:0.5" />
<path d="M98.712,297.9L102.71,297.9" style="fill:none;stroke:#000000;stroke-width:0.5" />
<path d="M98.712,329.02L102.71,329.02" style="fill:none;stroke:#000000;stroke-width:0.5" />
<path d="M98.712,360.13L102.71,360.13" style="fill:none;stroke:#000000;stroke-width:0.5" />
<path d="M98.712,422.36L102.71,422.36" style="fill:none;stroke:#000000;stroke-width:0.5" />
<path d="M98.712,453.48L102.71,453.48" style="fill:none;stroke:#000000;stroke-width:0.5" />
<path d="M98.712,484.59L102.71,484.59" style="fill:none;stroke:#000000;stroke-width:0.5" />
<path d="M98.712,515.71L102.71,515.71" style="fill:none;stroke:#000000;stroke-width:0.5" />
<path d="M98.712,577.94L102.71,577.94" style="fill:none;stroke:#000000;stroke-width:0.5" />
<path d="M98.712,609.06L102.71,609.06" style="fill:none;stroke:#000000;stroke-width:0.5" />
<path d="M98.712,640.17L102.71,640.17" style="fill:none;stroke:#000000;stroke-width:0.5" />
<path d="M98.712,671.29L102.71,671.29" style="fill:none;stroke:#000000;stroke-width:0.5" />
<path d="M98.712,733.52L102.71,733.52" style="fill:none;stroke:#000000;stroke-width:0.5" />
<path d="M98.712,764.63L102.71,764.63" style="fill:none;stroke:#000000;stroke-width:0.5" />
<path d="M98.712,795.75L102.71,795.75" style="fill:none;stroke:#000000;stroke-width:0.5" />
<path d="M98.712,826.86L102.71,826.86" style="fill:none;stroke:#000000;stroke-width:0.5" />
<path d="M98.712,889.09L102.71,889.09" style="fill:none;stroke:#000000;stroke-width:0.5" />
<path d="M98.712,920.21L102.71,920.21" style="fill:none;stroke:#000000;stroke-width:0.5" />
<path d="M98.712,951.32L102.71,951.32" style="fill:none;stroke:#000000;stroke-width:0.5" />
<path d="M98.712,982.44L102.71,982.44" style="fill:none;stroke:#000000;stroke-width:0.5" />
<path d="M102.71,80.11L102.71,1022.4" style="fill:none;stroke:#000000;stroke-width:0.5" />
<path d="M115.46,80.11L115.46,1022.4" style="fill:none;stroke:#808080;stroke-width:0.25" />
<path d="M312.08,80.11L312.08,1022.4" style="fill:none;stroke:#808080;stroke-width:0.25" />
<path d="M508.69,80.11L508.69,1022.4" style="fill:none;stroke:#808080;stroke-width:0.25" />
<path d="M705.31,80.11L705.31,1022.4" style="fill:none;stroke:#808080;stroke-width:0.25" />
<path d="M901.92,80.11L901.92,1022.4" style="fill:none;stroke:#808080;stroke-width:0.25" />
<path d="M1098.5,80.11L1098.5,1022.4" style="fill:none;stroke:#808080;stroke-width:0.25" />
<path d="M1295.2,80.11L1295.2,1022.4" style="fill:none;stroke:#808080;stroke-width:0.25" />
<path d="M1491.8,80.11L1491.8,1022.4" style="fill:none;stroke:#808080;stroke-width:0.25" />
<path d="M1688.4,80.11L1688.4,1022.4" style="fill:none;stroke:#808080;stroke-width:0.25" />
<path d="M1885,80.11L1885,1022.4" style="fill:none;stroke:#808080;stroke-width:0.25" />
<path d="M115.46,235.67L1885,235.67" style="fill:none;stroke:#808080;stroke-width:0.25" />
<path d="M115.46,391.25L1885,391.25" style="fill:none;stroke:#808080;stroke-width:0.25" />
<path d="M115.46,546.82L1885,546.82" style="fill:none;stroke:#808080;stroke-width:0.25" />
<path d="M115.46,702.4L1885,702.4" style="fill:none;stroke:#808080;stroke-width:0.25" />
<path d="M115.46,857.98L1885,857.98" style="fill:none;stroke:#808080;stroke-width:0.25" />
<path d="M115.46,1013.6L1885,1013.6" style="fill:none;stroke:#808080;stroke-width:0.25" />
<path d="M115.46,143.77L312.08,219.91L508.69,266.04L705.31,342.32L901.92,436.43L1098.5,520.11L1295.2,611.9L1491.8,711.78L1688.4,716.09L1885,936.78" style="fill:none;stroke:#FF0000;stroke-width:4" />
<path d="M120.46,143.77A5,5 0 1 1 110.46,143.77A5,5 0 1 1 120.46,143.77Z" style="fill:#FF0000" />
<path d="M317.08,219.91A5,5 0 1 1 307.08,219.91A5,5 0 1 1 317.08,219.91Z" style="fill:#FF0000" />
<path d="M513.69,266.04A5,5 0 1 1 503.69,266.04A5,5 0 1 1 513.69,266.04Z" style="fill:#FF0000" />
<path d="M710.31,342.32A5,5 0 1 1 700.31,342.32A5,5 0 1 1 710.31,342.32Z" style="fill:#FF0000" />
<path d="M906.92,436.43A5,5 0 1 1 896.92,436.43A5,5 0 1 1 906.92,436.43Z" style="fill:#FF0000" />
<path d="M1103.5,520.11A5,5 0 1 1 1093.5,520.11A5,5 0 1 1 1103.5,520.11Z" style="fill:#FF0000" />
<path d="M1300.2,611.9A5,5 0 1 1 1290.2,611.9A5,5 0 1 1 1300.2,611.9Z" style="fill:#FF0000" />
<path d="M1496.8,711.78A5,5 0 1 1 1486.8,711.78A5,5 0 1 1 1496.8,711.78Z" style="fill:#FF0000" />
<path d="M1693.4,716.09A5,5 0 1 1 1683.4,716.09A5,5 0 1 1 1693.4,716.09Z" style="fill:#FF0000" />
<path d="M1890,936.78A5,5 0 1 1 1880,936.78A5,5 0 1 1 1890,936.78Z" style="fill:#FF0000" />
<path d="M115.46,94.517L312.08,94.408L508.69,100.86L705.31,108.16L901.92,125.94L1098.5,142.03L1295.2,164.4L1491.8,184.1L1688.4,215.37L1885,212.13" style="fill:none;stroke:#0000FF;stroke-width:4" />
<path d="M120.46,94.517A5,5 0 1 1 110.46,94.517A5,5 0 1 1 120.46,94.517Z" style="fill:#0000FF" />
<path d="M317.08,94.408A5,5 0 1 1 307.08,94.408A5,5 0 1 1 317.08,94.408Z" style="fill:#0000FF" />
<path d="M513.69,100.86A5,5 0 1 1 503.69,100.86A5,5 0 1 1 513.69,100.86Z" style="fill:#0000FF" />
<path d="M710.31,108.16A5,5 0 1 1 700.31,108.16A5,5 0 1 1 710.31,108.16Z" style="fill:#0000FF" />
<path d="M906.92,125.94A5,5 0 1 1 896.92,125.94A5,5 0 1 1 906.92,125.94Z" style="fill:#0000FF" />
<path d="M1103.5,142.03A5,5 0 1 1 1093.5,142.03A5,5 0 1 1 1103.5,142.03Z" style="fill:#0000FF" />
<path d="M1300.2,164.4A5,5 0 1 1 1290.2,164.4A5,5 0 1 1 1300.2,164.4Z" style="fill:#0000FF" />
<path d="M1496.8,184.1A5,5 0 1 1 1486.8,184.1A5,5 0 1 1 1496.8,184.1Z" style="fill:#0000FF" />
<path d="M1693.4,215.37A5,5 0 1 1 1683.4,215.37A5,5 0 1 1 1693.4,215.37Z" style="fill:#0000FF" />
<path d="M1890,212.13A5,5 0 1 1 1880,212.13A5,5 0 1 1 1890,212.13Z" style="fill:#0000FF" />
<path d="M115.46,80.11L312.08,80.11L508.69,80.126L705.31,80.126L901.92,80.11L1098.5,80.11L1295.2,80.11L1491.8,80.126L1688.4,80.141L1885,80.157" style="fill:none;stroke:#00FF00;stroke-width:4" />
<path d="M120.46,80.11A5,5 0 1 1 110.46,80.11A5,5 0 1 1 120.46,80.11Z" style="fill:#00FF00" />
<path d="M317.08,80.11A5,5 0 1 1 307.08,80.11A5,5 0 1 1 317.08,80.11Z" style="fill:#00FF00" />
<path d="M513.69,80.126A5,5 0 1 1 503.69,80.126A5,5 0 1 1 513.69,80.126Z" style="fill:#00FF00" />
<path d="M710.31,80.126A5,5 0 1 1 700.31,80.126A5,5 0 1 1 710.31,80.126Z" style="fill:#00FF00" />
<path d="M906.92,80.11A5,5 0 1 1 896.92,80.11A5,5 0 1 1 906.92,80.11Z" style="fill:#00FF00" />
<path d="M1103.5,80.11A5,5 0 1 1 1093.5,80.11A5,5 0 1 1 1103.5,80.11Z" style="fill:#00FF00" />
<path d="M1300.2,80.11A5,5 0 1 1 1290.2,80.11A5,5 0 1 1 1300.2,80.11Z" style="fill:#00FF00" />
<path d="M1496.8,80.126A5,5 0 1 1 1486.8,80.126A5,5 0 1 1 1496.8,80.126Z" style="fill:#00FF00" />
<path d="M1693.4,80.141A5,5 0 1 1 1683.4,80.141A5,5 0 1 1 1693.4,80.141Z" style="fill:#00FF00" />
<path d="M1890,80.157A5,5 0 1 1 1880,80.157A5,5 0 1 1 1890,80.157Z" style="fill:#00FF00" />
<path d="M1900,126.03L1920,126.03" style="fill:none;stroke:#FF0000;stroke-width:4" />
<path d="M1915,126.03A5,5 0 1 1 1905,126.03A5,5 0 1 1 1915,126.03Z" style="fill:#FF0000" />
<text x="1823.3" y="-121.05" transform="scale(1, -1)"
	style="font-family:Liberation Serif;font-variant:normal;font-weight:normal;font-style:normal;font-size:24px">std::list</text>
<path d="M1900,105.66L1920,105.66" style="fill:none;stroke:#0000FF;stroke-width:4" />
<path d="M1915,105.66A5,5 0 1 1 1905,105.66A5,5 0 1 1 1915,105.66Z" style="fill:#0000FF" />
<text x="1795.4" y="-100.69" transform="scale(1, -1)"
	style="font-family:Liberation Serif;font-variant:normal;font-weight:normal;font-style:normal;font-size:24px">std::deque</text>
<path d="M1900,85.294L1920,85.294" style="fill:none;stroke:#00FF00;stroke-width:4" />
<path d="M1915,85.294A5,5 0 1 1 1905,85.294A5,5 0 1 1 1915,85.294Z" style="fill:#00FF00" />
<text x="1792.7" y="-80.319" transform="scale(1, -1)"
	style="font-family:Liberation Serif;font-variant:normal;font-weight:normal;font-style:normal;font-size:24px">std::vector</text>
</g>
</svg>
