<?xml version="1.0"?>
<!-- Generated by SVGo and Plotinum VG -->
<svg width="1920pt" height="1080pt" viewBox="0 0 1920 1080"
	xmlns="http://www.w3.org/2000/svg"
	xmlns:xlink="http://www.w3.org/1999/xlink">
<g transform="scale(1, -1) translate(0, -1080)">
<path d="M0,0L1920,0L1920,1080L0,1080Z" style="fill:#FFFFFF" />
<text x="734.37" y="-1040.9" transform="scale(1, -1)"
	style="font-family:Liberation Serif;font-variant:normal;font-weight:normal;font-style:normal;font-size:50px">push-front - Log Scale</text>
<text x="882.77" y="-9.7559" transform="scale(1, -1)"
	style="font-family:Liberation Serif;font-variant:normal;font-weight:normal;font-style:normal;font-size:30px">Number of elements</text>
<text x="95.462" y="-39.727" transform="scale(1, -1)"
	style="font-family:Liberation Serif;font-variant:normal;font-weight:normal;font-style:normal;font-size:20px">100000</text>
<text x="290.97" y="-39.727" transform="scale(1, -1)"
	style="font-family:Liberation Serif;font-variant:normal;font-weight:normal;font-style:normal;font-size:20px">200000</text>
<text x="486.47" y="-39.727" transform="scale(1, -1)"
	style="font-family:Liberation Serif;font-variant:normal;font-weight:normal;font-style:normal;font-size:20px">300000</text>
<text x="681.97" y="-39.727" transform="scale(1, -1)"
	style="font-family:Liberation Serif;font-variant:normal;font-weight:normal;font-style:normal;font-size:20px">400000</text>
<text x="877.48" y="-39.727" transform="scale(1, -1)"
	style="font-family:Liberation Serif;font-variant:normal;font-weight:normal;font-style:normal;font-size:20px">500000</text>
<text x="1073" y="-39.727" transform="scale(1, -1)"
	style="font-family:Liberation Serif;font-variant:normal;font-weight:normal;font-style:normal;font-size:20px">600000</text>
<text x="1268.5" y="-39.727" transform="scale(1, -1)"
	style="font-family:Liberation Serif;font-variant:normal;font-weight:normal;font-style:normal;font-size:20px">700000</text>
<text x="1464" y="-39.727" transform="scale(1, -1)"
	style="font-family:Liberation Serif;font-variant:normal;font-weight:normal;font-style:normal;font-size:20px">800000</text>
<text x="1659.5" y="-39.727" transform="scale(1, -1)"
	style="font-family:Liberation Serif;font-variant:normal;font-weight:normal;font-style:normal;font-size:20px">900000</text>
<text x="1850" y="-39.727" transform="scale(1, -1)"
	style="font-family:Liberation Serif;font-variant:normal;font-weight:normal;font-style:normal;font-size:20px">1000000</text>
<path d="M125.46,55.371L125.46,63.371" style="fill:none;stroke:#000000;stroke-width:0.5" />
<path d="M320.97,55.371L320.97,63.371" style="fill:none;stroke:#000000;stroke-width:0.5" />
<path d="M516.47,55.371L516.47,63.371" style="fill:none;stroke:#000000;stroke-width:0.5" />
<path d="M711.97,55.371L711.97,63.371" style="fill:none;stroke:#000000;stroke-width:0.5" />
<path d="M907.48,55.371L907.48,63.371" style="fill:none;stroke:#000000;stroke-width:0.5" />
<path d="M1103,55.371L1103,63.371" style="fill:none;stroke:#000000;stroke-width:0.5" />
<path d="M1298.5,55.371L1298.5,63.371" style="fill:none;stroke:#000000;stroke-width:0.5" />
<path d="M1494,55.371L1494,63.371" style="fill:none;stroke:#000000;stroke-width:0.5" />
<path d="M1689.5,55.371L1689.5,63.371" style="fill:none;stroke:#000000;stroke-width:0.5" />
<path d="M1885,55.371L1885,63.371" style="fill:none;stroke:#000000;stroke-width:0.5" />
<path d="M125.46,63.371L1885,63.371" style="fill:none;stroke:#000000;stroke-width:0.5" />
<g transform="rotate(90)">
<text x="485.03" y="23.467" transform="scale(1, -1)"
	style="font-family:Liberation Serif;font-variant:normal;font-weight:normal;font-style:normal;font-size:30px">log(μs + 1)</text>
</g>
<text x="39.712" y="-546.84" transform="scale(1, -1)"
	style="font-family:Liberation Serif;font-variant:normal;font-weight:normal;font-style:normal;font-size:20px">100000</text>
<text x="39.712" y="-838.42" transform="scale(1, -1)"
	style="font-family:Liberation Serif;font-variant:normal;font-weight:normal;font-style:normal;font-size:20px">200000</text>
<text x="39.712" y="-1009" transform="scale(1, -1)"
	style="font-family:Liberation Serif;font-variant:normal;font-weight:normal;font-style:normal;font-size:20px">300000</text>
<path d="M104.71,551.41L112.71,551.41" style="fill:none;stroke:#000000;stroke-width:0.5" />
<path d="M104.71,842.99L112.71,842.99" style="fill:none;stroke:#000000;stroke-width:0.5" />
<path d="M104.71,1013.6L112.71,1013.6" style="fill:none;stroke:#000000;stroke-width:0.5" />
<path d="M108.71,165.96L112.71,165.96" style="fill:none;stroke:#000000;stroke-width:0.5" />
<path d="M108.71,336.52L112.71,336.52" style="fill:none;stroke:#000000;stroke-width:0.5" />
<path d="M108.71,457.54L112.71,457.54" style="fill:none;stroke:#000000;stroke-width:0.5" />
<path d="M108.71,628.1L112.71,628.1" style="fill:none;stroke:#000000;stroke-width:0.5" />
<path d="M108.71,692.95L112.71,692.95" style="fill:none;stroke:#000000;stroke-width:0.5" />
<path d="M108.71,749.12L112.71,749.12" style="fill:none;stroke:#000000;stroke-width:0.5" />
<path d="M108.71,798.67L112.71,798.67" style="fill:none;stroke:#000000;stroke-width:0.5" />
<path d="M108.71,883.08L112.71,883.08" style="fill:none;stroke:#000000;stroke-width:0.5" />
<path d="M108.71,919.69L112.71,919.69" style="fill:none;stroke:#000000;stroke-width:0.5" />
<path d="M108.71,953.36L112.71,953.36" style="fill:none;stroke:#000000;stroke-width:0.5" />
<path d="M108.71,984.53L112.71,984.53" style="fill:none;stroke:#000000;stroke-width:0.5" />
<path d="M112.71,80.11L112.71,1022.9" style="fill:none;stroke:#000000;stroke-width:0.5" />
<path d="M125.46,80.11L125.46,1022.9" style="fill:none;stroke:#808080;stroke-width:0.25" />
<path d="M320.97,80.11L320.97,1022.9" style="fill:none;stroke:#808080;stroke-width:0.25" />
<path d="M516.47,80.11L516.47,1022.9" style="fill:none;stroke:#808080;stroke-width:0.25" />
<path d="M711.97,80.11L711.97,1022.9" style="fill:none;stroke:#808080;stroke-width:0.25" />
<path d="M907.48,80.11L907.48,1022.9" style="fill:none;stroke:#808080;stroke-width:0.25" />
<path d="M1103,80.11L1103,1022.9" style="fill:none;stroke:#808080;stroke-width:0.25" />
<path d="M1298.5,80.11L1298.5,1022.9" style="fill:none;stroke:#808080;stroke-width:0.25" />
<path d="M1494,80.11L1494,1022.9" style="fill:none;stroke:#808080;stroke-width:0.25" />
<path d="M1689.5,80.11L1689.5,1022.9" style="fill:none;stroke:#808080;stroke-width:0.25" />
<path d="M1885,80.11L1885,1022.9" style="fill:none;stroke:#808080;stroke-width:0.25" />
<path d="M125.46,551.41L1885,551.41" style="fill:none;stroke:#808080;stroke-width:0.25" />
<path d="M125.46,842.99L1885,842.99" style="fill:none;stroke:#808080;stroke-width:0.25" />
<path d="M125.46,1013.6L1885,1013.6" style="fill:none;stroke:#808080;stroke-width:0.25" />
<path d="M125.46,125.57L320.97,396.44L516.47,516.79L711.97,643.01L907.48,748.33L1103,846.98L1298.5,886.53L1494,950.68L1689.5,922.17L1885,982.85" style="fill:none;stroke:#FF0000;stroke-width:4" />
<path d="M130.46,125.57A5,5 0 1 1 120.46,125.57A5,5 0 1 1 130.46,125.57Z" style="fill:#FF0000" />
<path d="M325.97,396.44A5,5 0 1 1 315.97,396.44A5,5 0 1 1 325.97,396.44Z" style="fill:#FF0000" />
<path d="M521.47,516.79A5,5 0 1 1 511.47,516.79A5,5 0 1 1 521.47,516.79Z" style="fill:#FF0000" />
<path d="M716.97,643.01A5,5 0 1 1 706.97,643.01A5,5 0 1 1 716.97,643.01Z" style="fill:#FF0000" />
<path d="M912.48,748.33A5,5 0 1 1 902.48,748.33A5,5 0 1 1 912.48,748.33Z" style="fill:#FF0000" />
<path d="M1108,846.98A5,5 0 1 1 1098,846.98A5,5 0 1 1 1108,846.98Z" style="fill:#FF0000" />
<path d="M1303.5,886.53A5,5 0 1 1 1293.5,886.53A5,5 0 1 1 1303.5,886.53Z" style="fill:#FF0000" />
<path d="M1499,950.68A5,5 0 1 1 1489,950.68A5,5 0 1 1 1499,950.68Z" style="fill:#FF0000" />
<path d="M1694.5,922.17A5,5 0 1 1 1684.5,922.17A5,5 0 1 1 1694.5,922.17Z" style="fill:#FF0000" />
<path d="M1890,982.85A5,5 0 1 1 1880,982.85A5,5 0 1 1 1890,982.85Z" style="fill:#FF0000" />
<path d="M125.46,80.11L320.97,196.88L516.47,367.77L711.97,497.55L907.48,626.01L1103,674.07L1298.5,738.49L1494,780.85L1689.5,896.12L1885,876.26" style="fill:none;stroke:#0000FF;stroke-width:4" />
<path d="M130.46,80.11A5,5 0 1 1 120.46,80.11A5,5 0 1 1 130.46,80.11Z" style="fill:#0000FF" />
<path d="M325.97,196.88A5,5 0 1 1 315.97,196.88A5,5 0 1 1 325.97,196.88Z" style="fill:#0000FF" />
<path d="M521.47,367.77A5,5 0 1 1 511.47,367.77A5,5 0 1 1 521.47,367.77Z" style="fill:#0000FF" />
<path d="M716.97,497.55A5,5 0 1 1 706.97,497.55A5,5 0 1 1 716.97,497.55Z" style="fill:#0000FF" />
<path d="M912.48,626.01A5,5 0 1 1 902.48,626.01A5,5 0 1 1 912.48,626.01Z" style="fill:#0000FF" />
<path d="M1108,674.07A5,5 0 1 1 1098,674.07A5,5 0 1 1 1108,674.07Z" style="fill:#0000FF" />
<path d="M1303.5,738.49A5,5 0 1 1 1293.5,738.49A5,5 0 1 1 1303.5,738.49Z" style="fill:#0000FF" />
<path d="M1499,780.85A5,5 0 1 1 1489,780.85A5,5 0 1 1 1499,780.85Z" style="fill:#0000FF" />
<path d="M1694.5,896.12A5,5 0 1 1 1684.5,896.12A5,5 0 1 1 1694.5,896.12Z" style="fill:#0000FF" />
<path d="M1890,876.26A5,5 0 1 1 1880,876.26A5,5 0 1 1 1890,876.26Z" style="fill:#0000FF" />
<path d="M1900,105.66L1920,105.66" style="fill:none;stroke:#FF0000;stroke-width:4" />
<path d="M1915,105.66A5,5 0 1 1 1905,105.66A5,5 0 1 1 1915,105.66Z" style="fill:#FF0000" />
<text x="1823.3" y="-100.69" transform="scale(1, -1)"
	style="font-family:Liberation Serif;font-variant:normal;font-weight:normal;font-style:normal;font-size:24px">std::list</text>
<path d="M1900,85.294L1920,85.294" style="fill:none;stroke:#0000FF;stroke-width:4" />
<path d="M1915,85.294A5,5 0 1 1 1905,85.294A5,5 0 1 1 1915,85.294Z" style="fill:#0000FF" />
<text x="1795.4" y="-80.319" transform="scale(1, -1)"
	style="font-family:Liberation Serif;font-variant:normal;font-weight:normal;font-style:normal;font-size:24px">std::deque</text>
</g>
</svg>
