<?xml version="1.0"?>
<!-- Generated by SVGo and Plotinum VG -->
<svg width="1920pt" height="1080pt" viewBox="0 0 1920 1080"
	xmlns="http://www.w3.org/2000/svg"
	xmlns:xlink="http://www.w3.org/1999/xlink">
<g transform="scale(1, -1) translate(0, -1080)">
<path d="M0,0L1920,0L1920,1080L0,1080Z" style="fill:#FFFFFF" />
<text x="734.37" y="-1040.9" transform="scale(1, -1)"
	style="font-family:Liberation Serif;font-variant:normal;font-weight:normal;font-style:normal;font-size:50px">push-front - Log Scale</text>
<text x="895.27" y="-9.7559" transform="scale(1, -1)"
	style="font-family:Liberation Serif;font-variant:normal;font-weight:normal;font-style:normal;font-size:30px">Number of elements</text>
<text x="120.46" y="-39.727" transform="scale(1, -1)"
	style="font-family:Liberation Serif;font-variant:normal;font-weight:normal;font-style:normal;font-size:20px">100000</text>
<text x="313.19" y="-39.727" transform="scale(1, -1)"
	style="font-family:Liberation Serif;font-variant:normal;font-weight:normal;font-style:normal;font-size:20px">200000</text>
<text x="505.91" y="-39.727" transform="scale(1, -1)"
	style="font-family:Liberation Serif;font-variant:normal;font-weight:normal;font-style:normal;font-size:20px">300000</text>
<text x="698.64" y="-39.727" transform="scale(1, -1)"
	style="font-family:Liberation Serif;font-variant:normal;font-weight:normal;font-style:normal;font-size:20px">400000</text>
<text x="891.37" y="-39.727" transform="scale(1, -1)"
	style="font-family:Liberation Serif;font-variant:normal;font-weight:normal;font-style:normal;font-size:20px">500000</text>
<text x="1084.1" y="-39.727" transform="scale(1, -1)"
	style="font-family:Liberation Serif;font-variant:normal;font-weight:normal;font-style:normal;font-size:20px">600000</text>
<text x="1276.8" y="-39.727" transform="scale(1, -1)"
	style="font-family:Liberation Serif;font-variant:normal;font-weight:normal;font-style:normal;font-size:20px">700000</text>
<text x="1469.5" y="-39.727" transform="scale(1, -1)"
	style="font-family:Liberation Serif;font-variant:normal;font-weight:normal;font-style:normal;font-size:20px">800000</text>
<text x="1662.3" y="-39.727" transform="scale(1, -1)"
	style="font-family:Liberation Serif;font-variant:normal;font-weight:normal;font-style:normal;font-size:20px">900000</text>
<text x="1850" y="-39.727" transform="scale(1, -1)"
	style="font-family:Liberation Serif;font-variant:normal;font-weight:normal;font-style:normal;font-size:20px">1000000</text>
<path d="M150.46,55.371L150.46,63.371" style="fill:none;stroke:#000000;stroke-width:0.5" />
<path d="M343.19,55.371L343.19,63.371" style="fill:none;stroke:#000000;stroke-width:0.5" />
<path d="M535.91,55.371L535.91,63.371" style="fill:none;stroke:#000000;stroke-width:0.5" />
<path d="M728.64,55.371L728.64,63.371" style="fill:none;stroke:#000000;stroke-width:0.5" />
<path d="M921.37,55.371L921.37,63.371" style="fill:none;stroke:#000000;stroke-width:0.5" />
<path d="M1114.1,55.371L1114.1,63.371" style="fill:none;stroke:#000000;stroke-width:0.5" />
<path d="M1306.8,55.371L1306.8,63.371" style="fill:none;stroke:#000000;stroke-width:0.5" />
<path d="M1499.5,55.371L1499.5,63.371" style="fill:none;stroke:#000000;stroke-width:0.5" />
<path d="M1692.3,55.371L1692.3,63.371" style="fill:none;stroke:#000000;stroke-width:0.5" />
<path d="M1885,55.371L1885,63.371" style="fill:none;stroke:#000000;stroke-width:0.5" />
<path d="M150.46,63.371L1885,63.371" style="fill:none;stroke:#000000;stroke-width:0.5" />
<g transform="rotate(90)">
<text x="485.87" y="23.467" transform="scale(1, -1)"
	style="font-family:Liberation Serif;font-variant:normal;font-weight:normal;font-style:normal;font-size:30px">log(μs + 1)</text>
</g>
<text x="49.712" y="-107.9" transform="scale(1, -1)"
	style="font-family:Liberation Serif;font-variant:normal;font-weight:normal;font-style:normal;font-size:20px">25000.00</text>
<text x="39.712" y="-746.81" transform="scale(1, -1)"
	style="font-family:Liberation Serif;font-variant:normal;font-weight:normal;font-style:normal;font-size:20px">125000.00</text>
<text x="39.712" y="-980.14" transform="scale(1, -1)"
	style="font-family:Liberation Serif;font-variant:normal;font-weight:normal;font-style:normal;font-size:20px">225000.00</text>
<path d="M129.71,112.47L137.71,112.47" style="fill:none;stroke:#000000;stroke-width:0.5" />
<path d="M129.71,751.38L137.71,751.38" style="fill:none;stroke:#000000;stroke-width:0.5" />
<path d="M129.71,984.71L137.71,984.71" style="fill:none;stroke:#000000;stroke-width:0.5" />
<path d="M133.71,548.59L137.71,548.59" style="fill:none;stroke:#000000;stroke-width:0.5" />
<path d="M133.71,884.95L137.71,884.95" style="fill:none;stroke:#000000;stroke-width:0.5" />
<path d="M137.71,80.11L137.71,1024.6" style="fill:none;stroke:#000000;stroke-width:0.5" />
<path d="M150.46,80.11L150.46,1024.6" style="fill:none;stroke:#808080;stroke-width:0.25" />
<path d="M343.19,80.11L343.19,1024.6" style="fill:none;stroke:#808080;stroke-width:0.25" />
<path d="M535.91,80.11L535.91,1024.6" style="fill:none;stroke:#808080;stroke-width:0.25" />
<path d="M728.64,80.11L728.64,1024.6" style="fill:none;stroke:#808080;stroke-width:0.25" />
<path d="M921.37,80.11L921.37,1024.6" style="fill:none;stroke:#808080;stroke-width:0.25" />
<path d="M1114.1,80.11L1114.1,1024.6" style="fill:none;stroke:#808080;stroke-width:0.25" />
<path d="M1306.8,80.11L1306.8,1024.6" style="fill:none;stroke:#808080;stroke-width:0.25" />
<path d="M1499.5,80.11L1499.5,1024.6" style="fill:none;stroke:#808080;stroke-width:0.25" />
<path d="M1692.3,80.11L1692.3,1024.6" style="fill:none;stroke:#808080;stroke-width:0.25" />
<path d="M1885,80.11L1885,1024.6" style="fill:none;stroke:#808080;stroke-width:0.25" />
<path d="M150.46,112.47L1885,112.47" style="fill:none;stroke:#808080;stroke-width:0.25" />
<path d="M150.46,751.38L1885,751.38" style="fill:none;stroke:#808080;stroke-width:0.25" />
<path d="M150.46,984.71L1885,984.71" style="fill:none;stroke:#808080;stroke-width:0.25" />
<path d="M150.46,206.16L343.19,262.94L535.91,466.73L728.64,538.05L921.37,582.91L1114.1,654.52L1306.8,740.13L1499.5,784.48L1692.3,806.02L1885,874.82" style="fill:none;stroke:#FF0000;stroke-width:4" />
<path d="M155.46,206.16A5,5 0 1 1 145.46,206.16A5,5 0 1 1 155.46,206.16Z" style="fill:#FF0000" />
<path d="M348.19,262.94A5,5 0 1 1 338.19,262.94A5,5 0 1 1 348.19,262.94Z" style="fill:#FF0000" />
<path d="M540.91,466.73A5,5 0 1 1 530.91,466.73A5,5 0 1 1 540.91,466.73Z" style="fill:#FF0000" />
<path d="M733.64,538.05A5,5 0 1 1 723.64,538.05A5,5 0 1 1 733.64,538.05Z" style="fill:#FF0000" />
<path d="M926.37,582.91A5,5 0 1 1 916.37,582.91A5,5 0 1 1 926.37,582.91Z" style="fill:#FF0000" />
<path d="M1119.1,654.52A5,5 0 1 1 1109.1,654.52A5,5 0 1 1 1119.1,654.52Z" style="fill:#FF0000" />
<path d="M1311.8,740.13A5,5 0 1 1 1301.8,740.13A5,5 0 1 1 1311.8,740.13Z" style="fill:#FF0000" />
<path d="M1504.5,784.48A5,5 0 1 1 1494.5,784.48A5,5 0 1 1 1504.5,784.48Z" style="fill:#FF0000" />
<path d="M1697.3,806.02A5,5 0 1 1 1687.3,806.02A5,5 0 1 1 1697.3,806.02Z" style="fill:#FF0000" />
<path d="M1890,874.82A5,5 0 1 1 1880,874.82A5,5 0 1 1 1890,874.82Z" style="fill:#FF0000" />
<path d="M150.46,80.11L343.19,392.84L535.91,590.11L728.64,646.96L921.37,698.41L1114.1,747.87L1306.8,827.99L1499.5,885.4L1692.3,904.44L1885,986.79" style="fill:none;stroke:#0000FF;stroke-width:4" />
<path d="M155.46,80.11A5,5 0 1 1 145.46,80.11A5,5 0 1 1 155.46,80.11Z" style="fill:#0000FF" />
<path d="M348.19,392.84A5,5 0 1 1 338.19,392.84A5,5 0 1 1 348.19,392.84Z" style="fill:#0000FF" />
<path d="M540.91,590.11A5,5 0 1 1 530.91,590.11A5,5 0 1 1 540.91,590.11Z" style="fill:#0000FF" />
<path d="M733.64,646.96A5,5 0 1 1 723.64,646.96A5,5 0 1 1 733.64,646.96Z" style="fill:#0000FF" />
<path d="M926.37,698.41A5,5 0 1 1 916.37,698.41A5,5 0 1 1 926.37,698.41Z" style="fill:#0000FF" />
<path d="M1119.1,747.87A5,5 0 1 1 1109.1,747.87A5,5 0 1 1 1119.1,747.87Z" style="fill:#0000FF" />
<path d="M1311.8,827.99A5,5 0 1 1 1301.8,827.99A5,5 0 1 1 1311.8,827.99Z" style="fill:#0000FF" />
<path d="M1504.5,885.4A5,5 0 1 1 1494.5,885.4A5,5 0 1 1 1504.5,885.4Z" style="fill:#0000FF" />
<path d="M1697.3,904.44A5,5 0 1 1 1687.3,904.44A5,5 0 1 1 1697.3,904.44Z" style="fill:#0000FF" />
<path d="M1890,986.79A5,5 0 1 1 1880,986.79A5,5 0 1 1 1890,986.79Z" style="fill:#0000FF" />
<path d="M1900,105.66L1920,105.66" style="fill:none;stroke:#FF0000;stroke-width:4" />
<path d="M1915,105.66A5,5 0 1 1 1905,105.66A5,5 0 1 1 1915,105.66Z" style="fill:#FF0000" />
<text x="1795.4" y="-100.69" transform="scale(1, -1)"
	style="font-family:Liberation Serif;font-variant:normal;font-weight:normal;font-style:normal;font-size:24px">std::deque</text>
<path d="M1900,85.294L1920,85.294" style="fill:none;stroke:#0000FF;stroke-width:4" />
<path d="M1915,85.294A5,5 0 1 1 1905,85.294A5,5 0 1 1 1915,85.294Z" style="fill:#0000FF" />
<text x="1823.3" y="-80.319" transform="scale(1, -1)"
	style="font-family:Liberation Serif;font-variant:normal;font-weight:normal;font-style:normal;font-size:24px">std::list</text>
</g>
</svg>
