<?xml version="1.0"?>
<!-- Generated by SVGo and Plotinum VG -->
<svg width="1920pt" height="1080pt" viewBox="0 0 1920 1080"
	xmlns="http://www.w3.org/2000/svg"
	xmlns:xlink="http://www.w3.org/1999/xlink">
<g transform="scale(1, -1) translate(0, -1080)">
<path d="M0,0L1920,0L1920,1080L0,1080Z" style="fill:#FFFFFF" />
<text x="734.37" y="-1040.9" transform="scale(1, -1)"
	style="font-family:Liberation Serif;font-variant:normal;font-weight:normal;font-style:normal;font-size:50px">push-front - Log Scale</text>
<text x="877.77" y="-9.7559" transform="scale(1, -1)"
	style="font-family:Liberation Serif;font-variant:normal;font-weight:normal;font-style:normal;font-size:30px">Number of elements</text>
<text x="85.462" y="-39.727" transform="scale(1, -1)"
	style="font-family:Liberation Serif;font-variant:normal;font-weight:normal;font-style:normal;font-size:20px">100000</text>
<text x="282.08" y="-39.727" transform="scale(1, -1)"
	style="font-family:Liberation Serif;font-variant:normal;font-weight:normal;font-style:normal;font-size:20px">200000</text>
<text x="478.69" y="-39.727" transform="scale(1, -1)"
	style="font-family:Liberation Serif;font-variant:normal;font-weight:normal;font-style:normal;font-size:20px">300000</text>
<text x="675.31" y="-39.727" transform="scale(1, -1)"
	style="font-family:Liberation Serif;font-variant:normal;font-weight:normal;font-style:normal;font-size:20px">400000</text>
<text x="871.92" y="-39.727" transform="scale(1, -1)"
	style="font-family:Liberation Serif;font-variant:normal;font-weight:normal;font-style:normal;font-size:20px">500000</text>
<text x="1068.5" y="-39.727" transform="scale(1, -1)"
	style="font-family:Liberation Serif;font-variant:normal;font-weight:normal;font-style:normal;font-size:20px">600000</text>
<text x="1265.2" y="-39.727" transform="scale(1, -1)"
	style="font-family:Liberation Serif;font-variant:normal;font-weight:normal;font-style:normal;font-size:20px">700000</text>
<text x="1461.8" y="-39.727" transform="scale(1, -1)"
	style="font-family:Liberation Serif;font-variant:normal;font-weight:normal;font-style:normal;font-size:20px">800000</text>
<text x="1658.4" y="-39.727" transform="scale(1, -1)"
	style="font-family:Liberation Serif;font-variant:normal;font-weight:normal;font-style:normal;font-size:20px">900000</text>
<text x="1850" y="-39.727" transform="scale(1, -1)"
	style="font-family:Liberation Serif;font-variant:normal;font-weight:normal;font-style:normal;font-size:20px">1000000</text>
<path d="M115.46,55.371L115.46,63.371" style="fill:none;stroke:#000000;stroke-width:0.5" />
<path d="M312.08,55.371L312.08,63.371" style="fill:none;stroke:#000000;stroke-width:0.5" />
<path d="M508.69,55.371L508.69,63.371" style="fill:none;stroke:#000000;stroke-width:0.5" />
<path d="M705.31,55.371L705.31,63.371" style="fill:none;stroke:#000000;stroke-width:0.5" />
<path d="M901.92,55.371L901.92,63.371" style="fill:none;stroke:#000000;stroke-width:0.5" />
<path d="M1098.5,55.371L1098.5,63.371" style="fill:none;stroke:#000000;stroke-width:0.5" />
<path d="M1295.2,55.371L1295.2,63.371" style="fill:none;stroke:#000000;stroke-width:0.5" />
<path d="M1491.8,55.371L1491.8,63.371" style="fill:none;stroke:#000000;stroke-width:0.5" />
<path d="M1688.4,55.371L1688.4,63.371" style="fill:none;stroke:#000000;stroke-width:0.5" />
<path d="M1885,55.371L1885,63.371" style="fill:none;stroke:#000000;stroke-width:0.5" />
<path d="M115.46,63.371L1885,63.371" style="fill:none;stroke:#000000;stroke-width:0.5" />
<g transform="rotate(90)">
<text x="483.46" y="23.467" transform="scale(1, -1)"
	style="font-family:Liberation Serif;font-variant:normal;font-weight:normal;font-style:normal;font-size:30px">log(μs + 1)</text>
</g>
<text x="49.712" y="-111.85" transform="scale(1, -1)"
	style="font-family:Liberation Serif;font-variant:normal;font-weight:normal;font-style:normal;font-size:20px">5000</text>
<text x="39.712" y="-674.78" transform="scale(1, -1)"
	style="font-family:Liberation Serif;font-variant:normal;font-weight:normal;font-style:normal;font-size:20px">25000</text>
<text x="39.712" y="-880.37" transform="scale(1, -1)"
	style="font-family:Liberation Serif;font-variant:normal;font-weight:normal;font-style:normal;font-size:20px">45000</text>
<text x="39.712" y="-1009" transform="scale(1, -1)"
	style="font-family:Liberation Serif;font-variant:normal;font-weight:normal;font-style:normal;font-size:20px">65000</text>
<path d="M94.712,116.42L102.71,116.42" style="fill:none;stroke:#000000;stroke-width:0.5" />
<path d="M94.712,679.35L102.71,679.35" style="fill:none;stroke:#000000;stroke-width:0.5" />
<path d="M94.712,884.94L102.71,884.94" style="fill:none;stroke:#000000;stroke-width:0.5" />
<path d="M94.712,1013.6L102.71,1013.6" style="fill:none;stroke:#000000;stroke-width:0.5" />
<path d="M98.712,500.68L102.71,500.68" style="fill:none;stroke:#000000;stroke-width:0.5" />
<path d="M98.712,797.03L102.71,797.03" style="fill:none;stroke:#000000;stroke-width:0.5" />
<path d="M98.712,955.12L102.71,955.12" style="fill:none;stroke:#000000;stroke-width:0.5" />
<path d="M102.71,80.11L102.71,1019.8" style="fill:none;stroke:#000000;stroke-width:0.5" />
<path d="M115.46,80.11L115.46,1019.8" style="fill:none;stroke:#808080;stroke-width:0.25" />
<path d="M312.08,80.11L312.08,1019.8" style="fill:none;stroke:#808080;stroke-width:0.25" />
<path d="M508.69,80.11L508.69,1019.8" style="fill:none;stroke:#808080;stroke-width:0.25" />
<path d="M705.31,80.11L705.31,1019.8" style="fill:none;stroke:#808080;stroke-width:0.25" />
<path d="M901.92,80.11L901.92,1019.8" style="fill:none;stroke:#808080;stroke-width:0.25" />
<path d="M1098.5,80.11L1098.5,1019.8" style="fill:none;stroke:#808080;stroke-width:0.25" />
<path d="M1295.2,80.11L1295.2,1019.8" style="fill:none;stroke:#808080;stroke-width:0.25" />
<path d="M1491.8,80.11L1491.8,1019.8" style="fill:none;stroke:#808080;stroke-width:0.25" />
<path d="M1688.4,80.11L1688.4,1019.8" style="fill:none;stroke:#808080;stroke-width:0.25" />
<path d="M1885,80.11L1885,1019.8" style="fill:none;stroke:#808080;stroke-width:0.25" />
<path d="M115.46,116.42L1885,116.42" style="fill:none;stroke:#808080;stroke-width:0.25" />
<path d="M115.46,679.35L1885,679.35" style="fill:none;stroke:#808080;stroke-width:0.25" />
<path d="M115.46,884.94L1885,884.94" style="fill:none;stroke:#808080;stroke-width:0.25" />
<path d="M115.46,1013.6L1885,1013.6" style="fill:none;stroke:#808080;stroke-width:0.25" />
<path d="M115.46,258.8L312.08,500.91L508.69,697.24L705.31,736.62L901.92,831.93L1098.5,873.63L1295.2,885.33L1491.8,902.45L1688.4,951.62L1885,986.47" style="fill:none;stroke:#FF0000;stroke-width:4" />
<path d="M120.46,258.8A5,5 0 1 1 110.46,258.8A5,5 0 1 1 120.46,258.8Z" style="fill:#FF0000" />
<path d="M317.08,500.91A5,5 0 1 1 307.08,500.91A5,5 0 1 1 317.08,500.91Z" style="fill:#FF0000" />
<path d="M513.69,697.24A5,5 0 1 1 503.69,697.24A5,5 0 1 1 513.69,697.24Z" style="fill:#FF0000" />
<path d="M710.31,736.62A5,5 0 1 1 700.31,736.62A5,5 0 1 1 710.31,736.62Z" style="fill:#FF0000" />
<path d="M906.92,831.93A5,5 0 1 1 896.92,831.93A5,5 0 1 1 906.92,831.93Z" style="fill:#FF0000" />
<path d="M1103.5,873.63A5,5 0 1 1 1093.5,873.63A5,5 0 1 1 1103.5,873.63Z" style="fill:#FF0000" />
<path d="M1300.2,885.33A5,5 0 1 1 1290.2,885.33A5,5 0 1 1 1300.2,885.33Z" style="fill:#FF0000" />
<path d="M1496.8,902.45A5,5 0 1 1 1486.8,902.45A5,5 0 1 1 1496.8,902.45Z" style="fill:#FF0000" />
<path d="M1693.4,951.62A5,5 0 1 1 1683.4,951.62A5,5 0 1 1 1693.4,951.62Z" style="fill:#FF0000" />
<path d="M1890,986.47A5,5 0 1 1 1880,986.47A5,5 0 1 1 1890,986.47Z" style="fill:#FF0000" />
<path d="M115.46,80.11L312.08,176.85L508.69,270.02L705.31,394.1L901.92,458.74L1098.5,532.46L1295.2,645.84L1491.8,706.32L1688.4,722.4L1885,741.06" style="fill:none;stroke:#0000FF;stroke-width:4" />
<path d="M120.46,80.11A5,5 0 1 1 110.46,80.11A5,5 0 1 1 120.46,80.11Z" style="fill:#0000FF" />
<path d="M317.08,176.85A5,5 0 1 1 307.08,176.85A5,5 0 1 1 317.08,176.85Z" style="fill:#0000FF" />
<path d="M513.69,270.02A5,5 0 1 1 503.69,270.02A5,5 0 1 1 513.69,270.02Z" style="fill:#0000FF" />
<path d="M710.31,394.1A5,5 0 1 1 700.31,394.1A5,5 0 1 1 710.31,394.1Z" style="fill:#0000FF" />
<path d="M906.92,458.74A5,5 0 1 1 896.92,458.74A5,5 0 1 1 906.92,458.74Z" style="fill:#0000FF" />
<path d="M1103.5,532.46A5,5 0 1 1 1093.5,532.46A5,5 0 1 1 1103.5,532.46Z" style="fill:#0000FF" />
<path d="M1300.2,645.84A5,5 0 1 1 1290.2,645.84A5,5 0 1 1 1300.2,645.84Z" style="fill:#0000FF" />
<path d="M1496.8,706.32A5,5 0 1 1 1486.8,706.32A5,5 0 1 1 1496.8,706.32Z" style="fill:#0000FF" />
<path d="M1693.4,722.4A5,5 0 1 1 1683.4,722.4A5,5 0 1 1 1693.4,722.4Z" style="fill:#0000FF" />
<path d="M1890,741.06A5,5 0 1 1 1880,741.06A5,5 0 1 1 1890,741.06Z" style="fill:#0000FF" />
<path d="M1900,105.66L1920,105.66" style="fill:none;stroke:#FF0000;stroke-width:4" />
<path d="M1915,105.66A5,5 0 1 1 1905,105.66A5,5 0 1 1 1915,105.66Z" style="fill:#FF0000" />
<text x="1823.3" y="-100.69" transform="scale(1, -1)"
	style="font-family:Liberation Serif;font-variant:normal;font-weight:normal;font-style:normal;font-size:24px">std::list</text>
<path d="M1900,85.294L1920,85.294" style="fill:none;stroke:#0000FF;stroke-width:4" />
<path d="M1915,85.294A5,5 0 1 1 1905,85.294A5,5 0 1 1 1915,85.294Z" style="fill:#0000FF" />
<text x="1795.4" y="-80.319" transform="scale(1, -1)"
	style="font-family:Liberation Serif;font-variant:normal;font-weight:normal;font-style:normal;font-size:24px">std::deque</text>
</g>
</svg>
