<?xml version="1.0"?>
<!-- Generated by SVGo and Plotinum VG -->
<svg width="1920pt" height="1080pt" viewBox="0 0 1920 1080"
	xmlns="http://www.w3.org/2000/svg"
	xmlns:xlink="http://www.w3.org/1999/xlink">
<g transform="scale(1, -1) translate(0, -1080)">
<path d="M0,0L1920,0L1920,1080L0,1080Z" style="fill:#FFFFFF" />
<text x="855.85" y="-1040.9" transform="scale(1, -1)"
	style="font-family:Liberation Serif;font-variant:normal;font-weight:normal;font-style:normal;font-size:50px">push-front</text>
<text x="877.77" y="-9.7559" transform="scale(1, -1)"
	style="font-family:Liberation Serif;font-variant:normal;font-weight:normal;font-style:normal;font-size:30px">Number of elements</text>
<text x="85.462" y="-39.727" transform="scale(1, -1)"
	style="font-family:Liberation Serif;font-variant:normal;font-weight:normal;font-style:normal;font-size:20px">100000</text>
<text x="282.08" y="-39.727" transform="scale(1, -1)"
	style="font-family:Liberation Serif;font-variant:normal;font-weight:normal;font-style:normal;font-size:20px">200000</text>
<text x="478.69" y="-39.727" transform="scale(1, -1)"
	style="font-family:Liberation Serif;font-variant:normal;font-weight:normal;font-style:normal;font-size:20px">300000</text>
<text x="675.31" y="-39.727" transform="scale(1, -1)"
	style="font-family:Liberation Serif;font-variant:normal;font-weight:normal;font-style:normal;font-size:20px">400000</text>
<text x="871.92" y="-39.727" transform="scale(1, -1)"
	style="font-family:Liberation Serif;font-variant:normal;font-weight:normal;font-style:normal;font-size:20px">500000</text>
<text x="1068.5" y="-39.727" transform="scale(1, -1)"
	style="font-family:Liberation Serif;font-variant:normal;font-weight:normal;font-style:normal;font-size:20px">600000</text>
<text x="1265.2" y="-39.727" transform="scale(1, -1)"
	style="font-family:Liberation Serif;font-variant:normal;font-weight:normal;font-style:normal;font-size:20px">700000</text>
<text x="1461.8" y="-39.727" transform="scale(1, -1)"
	style="font-family:Liberation Serif;font-variant:normal;font-weight:normal;font-style:normal;font-size:20px">800000</text>
<text x="1658.4" y="-39.727" transform="scale(1, -1)"
	style="font-family:Liberation Serif;font-variant:normal;font-weight:normal;font-style:normal;font-size:20px">900000</text>
<text x="1850" y="-39.727" transform="scale(1, -1)"
	style="font-family:Liberation Serif;font-variant:normal;font-weight:normal;font-style:normal;font-size:20px">1000000</text>
<path d="M115.46,55.371L115.46,63.371" style="fill:none;stroke:#000000;stroke-width:0.5" />
<path d="M312.08,55.371L312.08,63.371" style="fill:none;stroke:#000000;stroke-width:0.5" />
<path d="M508.69,55.371L508.69,63.371" style="fill:none;stroke:#000000;stroke-width:0.5" />
<path d="M705.31,55.371L705.31,63.371" style="fill:none;stroke:#000000;stroke-width:0.5" />
<path d="M901.92,55.371L901.92,63.371" style="fill:none;stroke:#000000;stroke-width:0.5" />
<path d="M1098.5,55.371L1098.5,63.371" style="fill:none;stroke:#000000;stroke-width:0.5" />
<path d="M1295.2,55.371L1295.2,63.371" style="fill:none;stroke:#000000;stroke-width:0.5" />
<path d="M1491.8,55.371L1491.8,63.371" style="fill:none;stroke:#000000;stroke-width:0.5" />
<path d="M1688.4,55.371L1688.4,63.371" style="fill:none;stroke:#000000;stroke-width:0.5" />
<path d="M1885,55.371L1885,63.371" style="fill:none;stroke:#000000;stroke-width:0.5" />
<path d="M115.46,63.371L1885,63.371" style="fill:none;stroke:#000000;stroke-width:0.5" />
<g transform="rotate(90)">
<text x="538.49" y="23.467" transform="scale(1, -1)"
	style="font-family:Liberation Serif;font-variant:normal;font-weight:normal;font-style:normal;font-size:30px">μs</text>
</g>
<text x="49.712" y="-83.107" transform="scale(1, -1)"
	style="font-family:Liberation Serif;font-variant:normal;font-weight:normal;font-style:normal;font-size:20px">5000</text>
<text x="39.712" y="-389.44" transform="scale(1, -1)"
	style="font-family:Liberation Serif;font-variant:normal;font-weight:normal;font-style:normal;font-size:20px">25000</text>
<text x="39.712" y="-695.78" transform="scale(1, -1)"
	style="font-family:Liberation Serif;font-variant:normal;font-weight:normal;font-style:normal;font-size:20px">45000</text>
<text x="39.712" y="-1002.1" transform="scale(1, -1)"
	style="font-family:Liberation Serif;font-variant:normal;font-weight:normal;font-style:normal;font-size:20px">65000</text>
<path d="M94.712,87.677L102.71,87.677" style="fill:none;stroke:#000000;stroke-width:0.5" />
<path d="M94.712,394.01L102.71,394.01" style="fill:none;stroke:#000000;stroke-width:0.5" />
<path d="M94.712,700.35L102.71,700.35" style="fill:none;stroke:#000000;stroke-width:0.5" />
<path d="M94.712,1006.7L102.71,1006.7" style="fill:none;stroke:#000000;stroke-width:0.5" />
<path d="M98.712,240.84L102.71,240.84" style="fill:none;stroke:#000000;stroke-width:0.5" />
<path d="M98.712,547.18L102.71,547.18" style="fill:none;stroke:#000000;stroke-width:0.5" />
<path d="M98.712,853.52L102.71,853.52" style="fill:none;stroke:#000000;stroke-width:0.5" />
<path d="M102.71,80.11L102.71,1024.6" style="fill:none;stroke:#000000;stroke-width:0.5" />
<path d="M115.46,80.11L115.46,1024.6" style="fill:none;stroke:#808080;stroke-width:0.25" />
<path d="M312.08,80.11L312.08,1024.6" style="fill:none;stroke:#808080;stroke-width:0.25" />
<path d="M508.69,80.11L508.69,1024.6" style="fill:none;stroke:#808080;stroke-width:0.25" />
<path d="M705.31,80.11L705.31,1024.6" style="fill:none;stroke:#808080;stroke-width:0.25" />
<path d="M901.92,80.11L901.92,1024.6" style="fill:none;stroke:#808080;stroke-width:0.25" />
<path d="M1098.5,80.11L1098.5,1024.6" style="fill:none;stroke:#808080;stroke-width:0.25" />
<path d="M1295.2,80.11L1295.2,1024.6" style="fill:none;stroke:#808080;stroke-width:0.25" />
<path d="M1491.8,80.11L1491.8,1024.6" style="fill:none;stroke:#808080;stroke-width:0.25" />
<path d="M1688.4,80.11L1688.4,1024.6" style="fill:none;stroke:#808080;stroke-width:0.25" />
<path d="M1885,80.11L1885,1024.6" style="fill:none;stroke:#808080;stroke-width:0.25" />
<path d="M115.46,87.677L1885,87.677" style="fill:none;stroke:#808080;stroke-width:0.25" />
<path d="M115.46,394.01L1885,394.01" style="fill:none;stroke:#808080;stroke-width:0.25" />
<path d="M115.46,700.35L1885,700.35" style="fill:none;stroke:#808080;stroke-width:0.25" />
<path d="M115.46,1006.7L1885,1006.7" style="fill:none;stroke:#808080;stroke-width:0.25" />
<path d="M115.46,126.14L312.08,240.98L508.69,414.09L705.31,462.13L901.92,603.41L1098.5,678.4L1295.2,701.11L1491.8,735.73L1688.4,845.09L1885,932.49" style="fill:none;stroke:#FF0000;stroke-width:4" />
<path d="M120.46,126.14A5,5 0 1 1 110.46,126.14A5,5 0 1 1 120.46,126.14Z" style="fill:#FF0000" />
<path d="M317.08,240.98A5,5 0 1 1 307.08,240.98A5,5 0 1 1 317.08,240.98Z" style="fill:#FF0000" />
<path d="M513.69,414.09A5,5 0 1 1 503.69,414.09A5,5 0 1 1 513.69,414.09Z" style="fill:#FF0000" />
<path d="M710.31,462.13A5,5 0 1 1 700.31,462.13A5,5 0 1 1 710.31,462.13Z" style="fill:#FF0000" />
<path d="M906.92,603.41A5,5 0 1 1 896.92,603.41A5,5 0 1 1 906.92,603.41Z" style="fill:#FF0000" />
<path d="M1103.5,678.4A5,5 0 1 1 1093.5,678.4A5,5 0 1 1 1103.5,678.4Z" style="fill:#FF0000" />
<path d="M1300.2,701.11A5,5 0 1 1 1290.2,701.11A5,5 0 1 1 1300.2,701.11Z" style="fill:#FF0000" />
<path d="M1496.8,735.73A5,5 0 1 1 1486.8,735.73A5,5 0 1 1 1496.8,735.73Z" style="fill:#FF0000" />
<path d="M1693.4,845.09A5,5 0 1 1 1683.4,845.09A5,5 0 1 1 1693.4,845.09Z" style="fill:#FF0000" />
<path d="M1890,932.49A5,5 0 1 1 1880,932.49A5,5 0 1 1 1890,932.49Z" style="fill:#FF0000" />
<path d="M115.46,80.11L312.08,102.11L508.69,129.89L705.31,180.48L901.92,214.87L1098.5,262.69L1295.2,359.01L1491.8,424.69L1688.4,444.16L1885,467.89" style="fill:none;stroke:#0000FF;stroke-width:4" />
<path d="M120.46,80.11A5,5 0 1 1 110.46,80.11A5,5 0 1 1 120.46,80.11Z" style="fill:#0000FF" />
<path d="M317.08,102.11A5,5 0 1 1 307.08,102.11A5,5 0 1 1 317.08,102.11Z" style="fill:#0000FF" />
<path d="M513.69,129.89A5,5 0 1 1 503.69,129.89A5,5 0 1 1 513.69,129.89Z" style="fill:#0000FF" />
<path d="M710.31,180.48A5,5 0 1 1 700.31,180.48A5,5 0 1 1 710.31,180.48Z" style="fill:#0000FF" />
<path d="M906.92,214.87A5,5 0 1 1 896.92,214.87A5,5 0 1 1 906.92,214.87Z" style="fill:#0000FF" />
<path d="M1103.5,262.69A5,5 0 1 1 1093.5,262.69A5,5 0 1 1 1103.5,262.69Z" style="fill:#0000FF" />
<path d="M1300.2,359.01A5,5 0 1 1 1290.2,359.01A5,5 0 1 1 1300.2,359.01Z" style="fill:#0000FF" />
<path d="M1496.8,424.69A5,5 0 1 1 1486.8,424.69A5,5 0 1 1 1496.8,424.69Z" style="fill:#0000FF" />
<path d="M1693.4,444.16A5,5 0 1 1 1683.4,444.16A5,5 0 1 1 1693.4,444.16Z" style="fill:#0000FF" />
<path d="M1890,467.89A5,5 0 1 1 1880,467.89A5,5 0 1 1 1890,467.89Z" style="fill:#0000FF" />
<path d="M1900,105.66L1920,105.66" style="fill:none;stroke:#FF0000;stroke-width:4" />
<path d="M1915,105.66A5,5 0 1 1 1905,105.66A5,5 0 1 1 1915,105.66Z" style="fill:#FF0000" />
<text x="1823.3" y="-100.69" transform="scale(1, -1)"
	style="font-family:Liberation Serif;font-variant:normal;font-weight:normal;font-style:normal;font-size:24px">std::list</text>
<path d="M1900,85.294L1920,85.294" style="fill:none;stroke:#0000FF;stroke-width:4" />
<path d="M1915,85.294A5,5 0 1 1 1905,85.294A5,5 0 1 1 1915,85.294Z" style="fill:#0000FF" />
<text x="1795.4" y="-80.319" transform="scale(1, -1)"
	style="font-family:Liberation Serif;font-variant:normal;font-weight:normal;font-style:normal;font-size:24px">std::deque</text>
</g>
</svg>
