<?xml version="1.0"?>
<!-- Generated by SVGo and Plotinum VG -->
<svg width="1920pt" height="1080pt" viewBox="0 0 1920 1080"
	xmlns="http://www.w3.org/2000/svg"
	xmlns:xlink="http://www.w3.org/1999/xlink">
<g transform="scale(1, -1) translate(0, -1080)">
<path d="M0,0L1920,0L1920,1080L0,1080Z" style="fill:#FFFFFF" />
<text x="855.85" y="-1040.9" transform="scale(1, -1)"
	style="font-family:Liberation Serif;font-variant:normal;font-weight:normal;font-style:normal;font-size:50px">push-front</text>
<text x="877.77" y="-9.7559" transform="scale(1, -1)"
	style="font-family:Liberation Serif;font-variant:normal;font-weight:normal;font-style:normal;font-size:30px">Number of elements</text>
<text x="85.462" y="-39.727" transform="scale(1, -1)"
	style="font-family:Liberation Serif;font-variant:normal;font-weight:normal;font-style:normal;font-size:20px">100000</text>
<text x="282.08" y="-39.727" transform="scale(1, -1)"
	style="font-family:Liberation Serif;font-variant:normal;font-weight:normal;font-style:normal;font-size:20px">200000</text>
<text x="478.69" y="-39.727" transform="scale(1, -1)"
	style="font-family:Liberation Serif;font-variant:normal;font-weight:normal;font-style:normal;font-size:20px">300000</text>
<text x="675.31" y="-39.727" transform="scale(1, -1)"
	style="font-family:Liberation Serif;font-variant:normal;font-weight:normal;font-style:normal;font-size:20px">400000</text>
<text x="871.92" y="-39.727" transform="scale(1, -1)"
	style="font-family:Liberation Serif;font-variant:normal;font-weight:normal;font-style:normal;font-size:20px">500000</text>
<text x="1068.5" y="-39.727" transform="scale(1, -1)"
	style="font-family:Liberation Serif;font-variant:normal;font-weight:normal;font-style:normal;font-size:20px">600000</text>
<text x="1265.2" y="-39.727" transform="scale(1, -1)"
	style="font-family:Liberation Serif;font-variant:normal;font-weight:normal;font-style:normal;font-size:20px">700000</text>
<text x="1461.8" y="-39.727" transform="scale(1, -1)"
	style="font-family:Liberation Serif;font-variant:normal;font-weight:normal;font-style:normal;font-size:20px">800000</text>
<text x="1658.4" y="-39.727" transform="scale(1, -1)"
	style="font-family:Liberation Serif;font-variant:normal;font-weight:normal;font-style:normal;font-size:20px">900000</text>
<text x="1850" y="-39.727" transform="scale(1, -1)"
	style="font-family:Liberation Serif;font-variant:normal;font-weight:normal;font-style:normal;font-size:20px">1000000</text>
<path d="M115.46,55.371L115.46,63.371" style="fill:none;stroke:#000000;stroke-width:0.5" />
<path d="M312.08,55.371L312.08,63.371" style="fill:none;stroke:#000000;stroke-width:0.5" />
<path d="M508.69,55.371L508.69,63.371" style="fill:none;stroke:#000000;stroke-width:0.5" />
<path d="M705.31,55.371L705.31,63.371" style="fill:none;stroke:#000000;stroke-width:0.5" />
<path d="M901.92,55.371L901.92,63.371" style="fill:none;stroke:#000000;stroke-width:0.5" />
<path d="M1098.5,55.371L1098.5,63.371" style="fill:none;stroke:#000000;stroke-width:0.5" />
<path d="M1295.2,55.371L1295.2,63.371" style="fill:none;stroke:#000000;stroke-width:0.5" />
<path d="M1491.8,55.371L1491.8,63.371" style="fill:none;stroke:#000000;stroke-width:0.5" />
<path d="M1688.4,55.371L1688.4,63.371" style="fill:none;stroke:#000000;stroke-width:0.5" />
<path d="M1885,55.371L1885,63.371" style="fill:none;stroke:#000000;stroke-width:0.5" />
<path d="M115.46,63.371L1885,63.371" style="fill:none;stroke:#000000;stroke-width:0.5" />
<g transform="rotate(90)">
<text x="538.49" y="23.467" transform="scale(1, -1)"
	style="font-family:Liberation Serif;font-variant:normal;font-weight:normal;font-style:normal;font-size:30px">μs</text>
</g>
<text x="39.712" y="-240.71" transform="scale(1, -1)"
	style="font-family:Liberation Serif;font-variant:normal;font-weight:normal;font-style:normal;font-size:20px">20000</text>
<text x="39.712" y="-480.49" transform="scale(1, -1)"
	style="font-family:Liberation Serif;font-variant:normal;font-weight:normal;font-style:normal;font-size:20px">40000</text>
<text x="39.712" y="-720.28" transform="scale(1, -1)"
	style="font-family:Liberation Serif;font-variant:normal;font-weight:normal;font-style:normal;font-size:20px">60000</text>
<text x="39.712" y="-960.06" transform="scale(1, -1)"
	style="font-family:Liberation Serif;font-variant:normal;font-weight:normal;font-style:normal;font-size:20px">80000</text>
<path d="M94.712,245.28L102.71,245.28" style="fill:none;stroke:#000000;stroke-width:0.5" />
<path d="M94.712,485.06L102.71,485.06" style="fill:none;stroke:#000000;stroke-width:0.5" />
<path d="M94.712,724.85L102.71,724.85" style="fill:none;stroke:#000000;stroke-width:0.5" />
<path d="M94.712,964.63L102.71,964.63" style="fill:none;stroke:#000000;stroke-width:0.5" />
<path d="M98.712,125.39L102.71,125.39" style="fill:none;stroke:#000000;stroke-width:0.5" />
<path d="M98.712,365.17L102.71,365.17" style="fill:none;stroke:#000000;stroke-width:0.5" />
<path d="M98.712,604.96L102.71,604.96" style="fill:none;stroke:#000000;stroke-width:0.5" />
<path d="M98.712,844.74L102.71,844.74" style="fill:none;stroke:#000000;stroke-width:0.5" />
<path d="M102.71,80.11L102.71,1024.6" style="fill:none;stroke:#000000;stroke-width:0.5" />
<path d="M115.46,80.11L115.46,1024.6" style="fill:none;stroke:#808080;stroke-width:0.25" />
<path d="M312.08,80.11L312.08,1024.6" style="fill:none;stroke:#808080;stroke-width:0.25" />
<path d="M508.69,80.11L508.69,1024.6" style="fill:none;stroke:#808080;stroke-width:0.25" />
<path d="M705.31,80.11L705.31,1024.6" style="fill:none;stroke:#808080;stroke-width:0.25" />
<path d="M901.92,80.11L901.92,1024.6" style="fill:none;stroke:#808080;stroke-width:0.25" />
<path d="M1098.5,80.11L1098.5,1024.6" style="fill:none;stroke:#808080;stroke-width:0.25" />
<path d="M1295.2,80.11L1295.2,1024.6" style="fill:none;stroke:#808080;stroke-width:0.25" />
<path d="M1491.8,80.11L1491.8,1024.6" style="fill:none;stroke:#808080;stroke-width:0.25" />
<path d="M1688.4,80.11L1688.4,1024.6" style="fill:none;stroke:#808080;stroke-width:0.25" />
<path d="M1885,80.11L1885,1024.6" style="fill:none;stroke:#808080;stroke-width:0.25" />
<path d="M115.46,245.28L1885,245.28" style="fill:none;stroke:#808080;stroke-width:0.25" />
<path d="M115.46,485.06L1885,485.06" style="fill:none;stroke:#808080;stroke-width:0.25" />
<path d="M115.46,724.85L1885,724.85" style="fill:none;stroke:#808080;stroke-width:0.25" />
<path d="M115.46,964.63L1885,964.63" style="fill:none;stroke:#808080;stroke-width:0.25" />
<path d="M115.46,85.374L312.08,80.11L508.69,120.56L705.31,159.48L901.92,191.82L1098.5,227.84L1295.2,306.9L1491.8,354.11L1688.4,364.12L1885,383.63" style="fill:none;stroke:#FF0000;stroke-width:4" />
<path d="M120.46,85.374A5,5 0 1 1 110.46,85.374A5,5 0 1 1 120.46,85.374Z" style="fill:#FF0000" />
<path d="M317.08,80.11A5,5 0 1 1 307.08,80.11A5,5 0 1 1 317.08,80.11Z" style="fill:#FF0000" />
<path d="M513.69,120.56A5,5 0 1 1 503.69,120.56A5,5 0 1 1 513.69,120.56Z" style="fill:#FF0000" />
<path d="M710.31,159.48A5,5 0 1 1 700.31,159.48A5,5 0 1 1 710.31,159.48Z" style="fill:#FF0000" />
<path d="M906.92,191.82A5,5 0 1 1 896.92,191.82A5,5 0 1 1 906.92,191.82Z" style="fill:#FF0000" />
<path d="M1103.5,227.84A5,5 0 1 1 1093.5,227.84A5,5 0 1 1 1103.5,227.84Z" style="fill:#FF0000" />
<path d="M1300.2,306.9A5,5 0 1 1 1290.2,306.9A5,5 0 1 1 1300.2,306.9Z" style="fill:#FF0000" />
<path d="M1496.8,354.11A5,5 0 1 1 1486.8,354.11A5,5 0 1 1 1496.8,354.11Z" style="fill:#FF0000" />
<path d="M1693.4,364.12A5,5 0 1 1 1683.4,364.12A5,5 0 1 1 1693.4,364.12Z" style="fill:#FF0000" />
<path d="M1890,383.63A5,5 0 1 1 1880,383.63A5,5 0 1 1 1890,383.63Z" style="fill:#FF0000" />
<path d="M115.46,142.3L312.08,172.71L508.69,284.57L705.31,365.87L901.92,458.35L1098.5,552.67L1295.2,587.61L1491.8,665.73L1688.4,840.96L1885,931.98" style="fill:none;stroke:#0000FF;stroke-width:4" />
<path d="M120.46,142.3A5,5 0 1 1 110.46,142.3A5,5 0 1 1 120.46,142.3Z" style="fill:#0000FF" />
<path d="M317.08,172.71A5,5 0 1 1 307.08,172.71A5,5 0 1 1 317.08,172.71Z" style="fill:#0000FF" />
<path d="M513.69,284.57A5,5 0 1 1 503.69,284.57A5,5 0 1 1 513.69,284.57Z" style="fill:#0000FF" />
<path d="M710.31,365.87A5,5 0 1 1 700.31,365.87A5,5 0 1 1 710.31,365.87Z" style="fill:#0000FF" />
<path d="M906.92,458.35A5,5 0 1 1 896.92,458.35A5,5 0 1 1 906.92,458.35Z" style="fill:#0000FF" />
<path d="M1103.5,552.67A5,5 0 1 1 1093.5,552.67A5,5 0 1 1 1103.5,552.67Z" style="fill:#0000FF" />
<path d="M1300.2,587.61A5,5 0 1 1 1290.2,587.61A5,5 0 1 1 1300.2,587.61Z" style="fill:#0000FF" />
<path d="M1496.8,665.73A5,5 0 1 1 1486.8,665.73A5,5 0 1 1 1496.8,665.73Z" style="fill:#0000FF" />
<path d="M1693.4,840.96A5,5 0 1 1 1683.4,840.96A5,5 0 1 1 1693.4,840.96Z" style="fill:#0000FF" />
<path d="M1890,931.98A5,5 0 1 1 1880,931.98A5,5 0 1 1 1890,931.98Z" style="fill:#0000FF" />
<path d="M1900,105.66L1920,105.66" style="fill:none;stroke:#FF0000;stroke-width:4" />
<path d="M1915,105.66A5,5 0 1 1 1905,105.66A5,5 0 1 1 1915,105.66Z" style="fill:#FF0000" />
<text x="1795.4" y="-100.69" transform="scale(1, -1)"
	style="font-family:Liberation Serif;font-variant:normal;font-weight:normal;font-style:normal;font-size:24px">std::deque</text>
<path d="M1900,85.294L1920,85.294" style="fill:none;stroke:#0000FF;stroke-width:4" />
<path d="M1915,85.294A5,5 0 1 1 1905,85.294A5,5 0 1 1 1915,85.294Z" style="fill:#0000FF" />
<text x="1823.3" y="-80.319" transform="scale(1, -1)"
	style="font-family:Liberation Serif;font-variant:normal;font-weight:normal;font-style:normal;font-size:24px">std::list</text>
</g>
</svg>
