<?xml version="1.0"?>
<!-- Generated by SVGo and Plotinum VG -->
<svg width="1920pt" height="1080pt" viewBox="0 0 1920 1080"
	xmlns="http://www.w3.org/2000/svg"
	xmlns:xlink="http://www.w3.org/1999/xlink">
<g transform="scale(1, -1) translate(0, -1080)">
<path d="M0,0L1920,0L1920,1080L0,1080Z" style="fill:#FFFFFF" />
<text x="734.37" y="-1040.9" transform="scale(1, -1)"
	style="font-family:Liberation Serif;font-variant:normal;font-weight:normal;font-style:normal;font-size:50px">push-front - Log Scale</text>
<text x="877.77" y="-9.7559" transform="scale(1, -1)"
	style="font-family:Liberation Serif;font-variant:normal;font-weight:normal;font-style:normal;font-size:30px">Number of elements</text>
<text x="85.462" y="-39.727" transform="scale(1, -1)"
	style="font-family:Liberation Serif;font-variant:normal;font-weight:normal;font-style:normal;font-size:20px">100000</text>
<text x="282.08" y="-39.727" transform="scale(1, -1)"
	style="font-family:Liberation Serif;font-variant:normal;font-weight:normal;font-style:normal;font-size:20px">200000</text>
<text x="478.69" y="-39.727" transform="scale(1, -1)"
	style="font-family:Liberation Serif;font-variant:normal;font-weight:normal;font-style:normal;font-size:20px">300000</text>
<text x="675.31" y="-39.727" transform="scale(1, -1)"
	style="font-family:Liberation Serif;font-variant:normal;font-weight:normal;font-style:normal;font-size:20px">400000</text>
<text x="871.92" y="-39.727" transform="scale(1, -1)"
	style="font-family:Liberation Serif;font-variant:normal;font-weight:normal;font-style:normal;font-size:20px">500000</text>
<text x="1068.5" y="-39.727" transform="scale(1, -1)"
	style="font-family:Liberation Serif;font-variant:normal;font-weight:normal;font-style:normal;font-size:20px">600000</text>
<text x="1265.2" y="-39.727" transform="scale(1, -1)"
	style="font-family:Liberation Serif;font-variant:normal;font-weight:normal;font-style:normal;font-size:20px">700000</text>
<text x="1461.8" y="-39.727" transform="scale(1, -1)"
	style="font-family:Liberation Serif;font-variant:normal;font-weight:normal;font-style:normal;font-size:20px">800000</text>
<text x="1658.4" y="-39.727" transform="scale(1, -1)"
	style="font-family:Liberation Serif;font-variant:normal;font-weight:normal;font-style:normal;font-size:20px">900000</text>
<text x="1850" y="-39.727" transform="scale(1, -1)"
	style="font-family:Liberation Serif;font-variant:normal;font-weight:normal;font-style:normal;font-size:20px">1000000</text>
<path d="M115.46,55.371L115.46,63.371" style="fill:none;stroke:#000000;stroke-width:0.5" />
<path d="M312.08,55.371L312.08,63.371" style="fill:none;stroke:#000000;stroke-width:0.5" />
<path d="M508.69,55.371L508.69,63.371" style="fill:none;stroke:#000000;stroke-width:0.5" />
<path d="M705.31,55.371L705.31,63.371" style="fill:none;stroke:#000000;stroke-width:0.5" />
<path d="M901.92,55.371L901.92,63.371" style="fill:none;stroke:#000000;stroke-width:0.5" />
<path d="M1098.5,55.371L1098.5,63.371" style="fill:none;stroke:#000000;stroke-width:0.5" />
<path d="M1295.2,55.371L1295.2,63.371" style="fill:none;stroke:#000000;stroke-width:0.5" />
<path d="M1491.8,55.371L1491.8,63.371" style="fill:none;stroke:#000000;stroke-width:0.5" />
<path d="M1688.4,55.371L1688.4,63.371" style="fill:none;stroke:#000000;stroke-width:0.5" />
<path d="M1885,55.371L1885,63.371" style="fill:none;stroke:#000000;stroke-width:0.5" />
<path d="M115.46,63.371L1885,63.371" style="fill:none;stroke:#000000;stroke-width:0.5" />
<g transform="rotate(90)">
<text x="485.87" y="23.467" transform="scale(1, -1)"
	style="font-family:Liberation Serif;font-variant:normal;font-weight:normal;font-style:normal;font-size:30px">log(μs + 1)</text>
</g>
<text x="39.712" y="-237.95" transform="scale(1, -1)"
	style="font-family:Liberation Serif;font-variant:normal;font-weight:normal;font-style:normal;font-size:20px">10000</text>
<text x="39.712" y="-802.15" transform="scale(1, -1)"
	style="font-family:Liberation Serif;font-variant:normal;font-weight:normal;font-style:normal;font-size:20px">50000</text>
<text x="39.712" y="-1008.2" transform="scale(1, -1)"
	style="font-family:Liberation Serif;font-variant:normal;font-weight:normal;font-style:normal;font-size:20px">90000</text>
<path d="M94.712,242.52L102.71,242.52" style="fill:none;stroke:#000000;stroke-width:0.5" />
<path d="M94.712,806.72L102.71,806.72" style="fill:none;stroke:#000000;stroke-width:0.5" />
<path d="M94.712,1012.8L102.71,1012.8" style="fill:none;stroke:#000000;stroke-width:0.5" />
<path d="M98.712,485.51L102.71,485.51" style="fill:none;stroke:#000000;stroke-width:0.5" />
<path d="M98.712,627.65L102.71,627.65" style="fill:none;stroke:#000000;stroke-width:0.5" />
<path d="M98.712,728.5L102.71,728.5" style="fill:none;stroke:#000000;stroke-width:0.5" />
<path d="M98.712,870.63L102.71,870.63" style="fill:none;stroke:#000000;stroke-width:0.5" />
<path d="M98.712,924.67L102.71,924.67" style="fill:none;stroke:#000000;stroke-width:0.5" />
<path d="M98.712,971.48L102.71,971.48" style="fill:none;stroke:#000000;stroke-width:0.5" />
<path d="M102.71,80.11L102.71,1024.6" style="fill:none;stroke:#000000;stroke-width:0.5" />
<path d="M115.46,80.11L115.46,1024.6" style="fill:none;stroke:#808080;stroke-width:0.25" />
<path d="M312.08,80.11L312.08,1024.6" style="fill:none;stroke:#808080;stroke-width:0.25" />
<path d="M508.69,80.11L508.69,1024.6" style="fill:none;stroke:#808080;stroke-width:0.25" />
<path d="M705.31,80.11L705.31,1024.6" style="fill:none;stroke:#808080;stroke-width:0.25" />
<path d="M901.92,80.11L901.92,1024.6" style="fill:none;stroke:#808080;stroke-width:0.25" />
<path d="M1098.5,80.11L1098.5,1024.6" style="fill:none;stroke:#808080;stroke-width:0.25" />
<path d="M1295.2,80.11L1295.2,1024.6" style="fill:none;stroke:#808080;stroke-width:0.25" />
<path d="M1491.8,80.11L1491.8,1024.6" style="fill:none;stroke:#808080;stroke-width:0.25" />
<path d="M1688.4,80.11L1688.4,1024.6" style="fill:none;stroke:#808080;stroke-width:0.25" />
<path d="M1885,80.11L1885,1024.6" style="fill:none;stroke:#808080;stroke-width:0.25" />
<path d="M115.46,242.52L1885,242.52" style="fill:none;stroke:#808080;stroke-width:0.25" />
<path d="M115.46,806.72L1885,806.72" style="fill:none;stroke:#808080;stroke-width:0.25" />
<path d="M115.46,1012.8L1885,1012.8" style="fill:none;stroke:#808080;stroke-width:0.25" />
<path d="M115.46,228.4L312.08,420.06L508.69,623.53L705.31,731.8L901.92,762.04L1098.5,790.18L1295.2,883.88L1491.8,906.51L1688.4,925.8L1885,991.22" style="fill:none;stroke:#FF0000;stroke-width:4" />
<path d="M120.46,228.4A5,5 0 1 1 110.46,228.4A5,5 0 1 1 120.46,228.4Z" style="fill:#FF0000" />
<path d="M317.08,420.06A5,5 0 1 1 307.08,420.06A5,5 0 1 1 317.08,420.06Z" style="fill:#FF0000" />
<path d="M513.69,623.53A5,5 0 1 1 503.69,623.53A5,5 0 1 1 513.69,623.53Z" style="fill:#FF0000" />
<path d="M710.31,731.8A5,5 0 1 1 700.31,731.8A5,5 0 1 1 710.31,731.8Z" style="fill:#FF0000" />
<path d="M906.92,762.04A5,5 0 1 1 896.92,762.04A5,5 0 1 1 906.92,762.04Z" style="fill:#FF0000" />
<path d="M1103.5,790.18A5,5 0 1 1 1093.5,790.18A5,5 0 1 1 1103.5,790.18Z" style="fill:#FF0000" />
<path d="M1300.2,883.88A5,5 0 1 1 1290.2,883.88A5,5 0 1 1 1300.2,883.88Z" style="fill:#FF0000" />
<path d="M1496.8,906.51A5,5 0 1 1 1486.8,906.51A5,5 0 1 1 1496.8,906.51Z" style="fill:#FF0000" />
<path d="M1693.4,925.8A5,5 0 1 1 1683.4,925.8A5,5 0 1 1 1693.4,925.8Z" style="fill:#FF0000" />
<path d="M1890,991.22A5,5 0 1 1 1880,991.22A5,5 0 1 1 1890,991.22Z" style="fill:#FF0000" />
<path d="M115.46,80.11L312.08,267.81L508.69,396.68L705.31,517.23L901.92,588.47L1098.5,709.1L1295.2,710.77L1491.8,742.06L1688.4,797.2L1885,838.2" style="fill:none;stroke:#0000FF;stroke-width:4" />
<path d="M120.46,80.11A5,5 0 1 1 110.46,80.11A5,5 0 1 1 120.46,80.11Z" style="fill:#0000FF" />
<path d="M317.08,267.81A5,5 0 1 1 307.08,267.81A5,5 0 1 1 317.08,267.81Z" style="fill:#0000FF" />
<path d="M513.69,396.68A5,5 0 1 1 503.69,396.68A5,5 0 1 1 513.69,396.68Z" style="fill:#0000FF" />
<path d="M710.31,517.23A5,5 0 1 1 700.31,517.23A5,5 0 1 1 710.31,517.23Z" style="fill:#0000FF" />
<path d="M906.92,588.47A5,5 0 1 1 896.92,588.47A5,5 0 1 1 906.92,588.47Z" style="fill:#0000FF" />
<path d="M1103.5,709.1A5,5 0 1 1 1093.5,709.1A5,5 0 1 1 1103.5,709.1Z" style="fill:#0000FF" />
<path d="M1300.2,710.77A5,5 0 1 1 1290.2,710.77A5,5 0 1 1 1300.2,710.77Z" style="fill:#0000FF" />
<path d="M1496.8,742.06A5,5 0 1 1 1486.8,742.06A5,5 0 1 1 1496.8,742.06Z" style="fill:#0000FF" />
<path d="M1693.4,797.2A5,5 0 1 1 1683.4,797.2A5,5 0 1 1 1693.4,797.2Z" style="fill:#0000FF" />
<path d="M1890,838.2A5,5 0 1 1 1880,838.2A5,5 0 1 1 1890,838.2Z" style="fill:#0000FF" />
<path d="M1900,105.66L1920,105.66" style="fill:none;stroke:#FF0000;stroke-width:4" />
<path d="M1915,105.66A5,5 0 1 1 1905,105.66A5,5 0 1 1 1915,105.66Z" style="fill:#FF0000" />
<text x="1823.3" y="-100.69" transform="scale(1, -1)"
	style="font-family:Liberation Serif;font-variant:normal;font-weight:normal;font-style:normal;font-size:24px">std::list</text>
<path d="M1900,85.294L1920,85.294" style="fill:none;stroke:#0000FF;stroke-width:4" />
<path d="M1915,85.294A5,5 0 1 1 1905,85.294A5,5 0 1 1 1915,85.294Z" style="fill:#0000FF" />
<text x="1795.4" y="-80.319" transform="scale(1, -1)"
	style="font-family:Liberation Serif;font-variant:normal;font-weight:normal;font-style:normal;font-size:24px">std::deque</text>
</g>
</svg>
