<?xml version="1.0"?>
<!-- Generated by SVGo and Plotinum VG -->
<svg width="1920pt" height="1080pt" viewBox="0 0 1920 1080"
	xmlns="http://www.w3.org/2000/svg"
	xmlns:xlink="http://www.w3.org/1999/xlink">
<g transform="scale(1, -1) translate(0, -1080)">
<path d="M0,0L1920,0L1920,1080L0,1080Z" style="fill:#FFFFFF" />
<text x="855.85" y="-1040.9" transform="scale(1, -1)"
	style="font-family:Liberation Serif;font-variant:normal;font-weight:normal;font-style:normal;font-size:50px">push-front</text>
<text x="877.85" y="-9.7559" transform="scale(1, -1)"
	style="font-family:Liberation Serif;font-variant:normal;font-weight:normal;font-style:normal;font-size:30px">Number of elements</text>
<text x="85.618" y="-39.727" transform="scale(1, -1)"
	style="font-family:Liberation Serif;font-variant:normal;font-weight:normal;font-style:normal;font-size:20px">100000</text>
<text x="282.22" y="-39.727" transform="scale(1, -1)"
	style="font-family:Liberation Serif;font-variant:normal;font-weight:normal;font-style:normal;font-size:20px">200000</text>
<text x="478.81" y="-39.727" transform="scale(1, -1)"
	style="font-family:Liberation Serif;font-variant:normal;font-weight:normal;font-style:normal;font-size:20px">300000</text>
<text x="675.41" y="-39.727" transform="scale(1, -1)"
	style="font-family:Liberation Serif;font-variant:normal;font-weight:normal;font-style:normal;font-size:20px">400000</text>
<text x="872.01" y="-39.727" transform="scale(1, -1)"
	style="font-family:Liberation Serif;font-variant:normal;font-weight:normal;font-style:normal;font-size:20px">500000</text>
<text x="1068.6" y="-39.727" transform="scale(1, -1)"
	style="font-family:Liberation Serif;font-variant:normal;font-weight:normal;font-style:normal;font-size:20px">600000</text>
<text x="1265.2" y="-39.727" transform="scale(1, -1)"
	style="font-family:Liberation Serif;font-variant:normal;font-weight:normal;font-style:normal;font-size:20px">700000</text>
<text x="1461.8" y="-39.727" transform="scale(1, -1)"
	style="font-family:Liberation Serif;font-variant:normal;font-weight:normal;font-style:normal;font-size:20px">800000</text>
<text x="1658.4" y="-39.727" transform="scale(1, -1)"
	style="font-family:Liberation Serif;font-variant:normal;font-weight:normal;font-style:normal;font-size:20px">900000</text>
<text x="1850" y="-39.727" transform="scale(1, -1)"
	style="font-family:Liberation Serif;font-variant:normal;font-weight:normal;font-style:normal;font-size:20px">1000000</text>
<path d="M115.62,55.371L115.62,63.371" style="fill:none;stroke:#000000;stroke-width:0.5" />
<path d="M312.22,55.371L312.22,63.371" style="fill:none;stroke:#000000;stroke-width:0.5" />
<path d="M508.81,55.371L508.81,63.371" style="fill:none;stroke:#000000;stroke-width:0.5" />
<path d="M705.41,55.371L705.41,63.371" style="fill:none;stroke:#000000;stroke-width:0.5" />
<path d="M902.01,55.371L902.01,63.371" style="fill:none;stroke:#000000;stroke-width:0.5" />
<path d="M1098.6,55.371L1098.6,63.371" style="fill:none;stroke:#000000;stroke-width:0.5" />
<path d="M1295.2,55.371L1295.2,63.371" style="fill:none;stroke:#000000;stroke-width:0.5" />
<path d="M1491.8,55.371L1491.8,63.371" style="fill:none;stroke:#000000;stroke-width:0.5" />
<path d="M1688.4,55.371L1688.4,63.371" style="fill:none;stroke:#000000;stroke-width:0.5" />
<path d="M1885,55.371L1885,63.371" style="fill:none;stroke:#000000;stroke-width:0.5" />
<path d="M115.62,63.371L1885,63.371" style="fill:none;stroke:#000000;stroke-width:0.5" />
<g transform="rotate(90)">
<text x="538.49" y="23.467" transform="scale(1, -1)"
	style="font-family:Liberation Serif;font-variant:normal;font-weight:normal;font-style:normal;font-size:30px">μs</text>
</g>
<text x="39.712" y="-152.35" transform="scale(1, -1)"
	style="font-family:Liberation Serif;font-variant:normal;font-weight:normal;font-style:normal;font-size:20px">1e+07</text>
<text x="39.712" y="-536.55" transform="scale(1, -1)"
	style="font-family:Liberation Serif;font-variant:normal;font-weight:normal;font-style:normal;font-size:20px">6e+07</text>
<text x="39.712" y="-920.75" transform="scale(1, -1)"
	style="font-family:Liberation Serif;font-variant:normal;font-weight:normal;font-style:normal;font-size:20px">1e+08</text>
<path d="M94.868,156.92L102.87,156.92" style="fill:none;stroke:#000000;stroke-width:0.5" />
<path d="M94.868,541.12L102.87,541.12" style="fill:none;stroke:#000000;stroke-width:0.5" />
<path d="M94.868,925.32L102.87,925.32" style="fill:none;stroke:#000000;stroke-width:0.5" />
<path d="M98.868,233.76L102.87,233.76" style="fill:none;stroke:#000000;stroke-width:0.5" />
<path d="M98.868,310.6L102.87,310.6" style="fill:none;stroke:#000000;stroke-width:0.5" />
<path d="M98.868,387.44L102.87,387.44" style="fill:none;stroke:#000000;stroke-width:0.5" />
<path d="M98.868,464.28L102.87,464.28" style="fill:none;stroke:#000000;stroke-width:0.5" />
<path d="M98.868,617.96L102.87,617.96" style="fill:none;stroke:#000000;stroke-width:0.5" />
<path d="M98.868,694.8L102.87,694.8" style="fill:none;stroke:#000000;stroke-width:0.5" />
<path d="M98.868,771.64L102.87,771.64" style="fill:none;stroke:#000000;stroke-width:0.5" />
<path d="M98.868,848.48L102.87,848.48" style="fill:none;stroke:#000000;stroke-width:0.5" />
<path d="M98.868,1002.2L102.87,1002.2" style="fill:none;stroke:#000000;stroke-width:0.5" />
<path d="M102.87,80.11L102.87,1024.6" style="fill:none;stroke:#000000;stroke-width:0.5" />
<path d="M115.62,80.11L115.62,1024.6" style="fill:none;stroke:#808080;stroke-width:0.25" />
<path d="M312.22,80.11L312.22,1024.6" style="fill:none;stroke:#808080;stroke-width:0.25" />
<path d="M508.81,80.11L508.81,1024.6" style="fill:none;stroke:#808080;stroke-width:0.25" />
<path d="M705.41,80.11L705.41,1024.6" style="fill:none;stroke:#808080;stroke-width:0.25" />
<path d="M902.01,80.11L902.01,1024.6" style="fill:none;stroke:#808080;stroke-width:0.25" />
<path d="M1098.6,80.11L1098.6,1024.6" style="fill:none;stroke:#808080;stroke-width:0.25" />
<path d="M1295.2,80.11L1295.2,1024.6" style="fill:none;stroke:#808080;stroke-width:0.25" />
<path d="M1491.8,80.11L1491.8,1024.6" style="fill:none;stroke:#808080;stroke-width:0.25" />
<path d="M1688.4,80.11L1688.4,1024.6" style="fill:none;stroke:#808080;stroke-width:0.25" />
<path d="M1885,80.11L1885,1024.6" style="fill:none;stroke:#808080;stroke-width:0.25" />
<path d="M115.62,156.92L1885,156.92" style="fill:none;stroke:#808080;stroke-width:0.25" />
<path d="M115.62,541.12L1885,541.12" style="fill:none;stroke:#808080;stroke-width:0.25" />
<path d="M115.62,925.32L1885,925.32" style="fill:none;stroke:#808080;stroke-width:0.25" />
<path d="M115.62,80.131L312.22,80.179L508.81,80.229L705.41,80.251L902.01,80.289L1098.6,80.339L1295.2,80.372L1491.8,80.41L1688.4,80.521L1885,80.542" style="fill:none;stroke:#FF0000;stroke-width:4" />
<path d="M120.62,80.131A5,5 0 1 1 110.62,80.131A5,5 0 1 1 120.62,80.131Z" style="fill:#FF0000" />
<path d="M317.22,80.179A5,5 0 1 1 307.22,80.179A5,5 0 1 1 317.22,80.179Z" style="fill:#FF0000" />
<path d="M513.81,80.229A5,5 0 1 1 503.81,80.229A5,5 0 1 1 513.81,80.229Z" style="fill:#FF0000" />
<path d="M710.41,80.251A5,5 0 1 1 700.41,80.251A5,5 0 1 1 710.41,80.251Z" style="fill:#FF0000" />
<path d="M907.01,80.289A5,5 0 1 1 897.01,80.289A5,5 0 1 1 907.01,80.289Z" style="fill:#FF0000" />
<path d="M1103.6,80.339A5,5 0 1 1 1093.6,80.339A5,5 0 1 1 1103.6,80.339Z" style="fill:#FF0000" />
<path d="M1300.2,80.372A5,5 0 1 1 1290.2,80.372A5,5 0 1 1 1300.2,80.372Z" style="fill:#FF0000" />
<path d="M1496.8,80.41A5,5 0 1 1 1486.8,80.41A5,5 0 1 1 1496.8,80.41Z" style="fill:#FF0000" />
<path d="M1693.4,80.521A5,5 0 1 1 1683.4,80.521A5,5 0 1 1 1693.4,80.521Z" style="fill:#FF0000" />
<path d="M1890,80.542A5,5 0 1 1 1880,80.542A5,5 0 1 1 1890,80.542Z" style="fill:#FF0000" />
<path d="M115.62,80.11L312.22,80.116L508.81,80.129L705.41,80.142L902.01,80.159L1098.6,80.179L1295.2,80.193L1491.8,80.205L1688.4,80.225L1885,80.266" style="fill:none;stroke:#0000FF;stroke-width:4" />
<path d="M120.62,80.11A5,5 0 1 1 110.62,80.11A5,5 0 1 1 120.62,80.11Z" style="fill:#0000FF" />
<path d="M317.22,80.116A5,5 0 1 1 307.22,80.116A5,5 0 1 1 317.22,80.116Z" style="fill:#0000FF" />
<path d="M513.81,80.129A5,5 0 1 1 503.81,80.129A5,5 0 1 1 513.81,80.129Z" style="fill:#0000FF" />
<path d="M710.41,80.142A5,5 0 1 1 700.41,80.142A5,5 0 1 1 710.41,80.142Z" style="fill:#0000FF" />
<path d="M907.01,80.159A5,5 0 1 1 897.01,80.159A5,5 0 1 1 907.01,80.159Z" style="fill:#0000FF" />
<path d="M1103.6,80.179A5,5 0 1 1 1093.6,80.179A5,5 0 1 1 1103.6,80.179Z" style="fill:#0000FF" />
<path d="M1300.2,80.193A5,5 0 1 1 1290.2,80.193A5,5 0 1 1 1300.2,80.193Z" style="fill:#0000FF" />
<path d="M1496.8,80.205A5,5 0 1 1 1486.8,80.205A5,5 0 1 1 1496.8,80.205Z" style="fill:#0000FF" />
<path d="M1693.4,80.225A5,5 0 1 1 1683.4,80.225A5,5 0 1 1 1693.4,80.225Z" style="fill:#0000FF" />
<path d="M1890,80.266A5,5 0 1 1 1880,80.266A5,5 0 1 1 1890,80.266Z" style="fill:#0000FF" />
<path d="M115.62,85.443L312.22,104.4L508.81,148.42L705.41,213.26L902.01,295.34L1098.6,394.5L1295.2,526.07L1491.8,657.54L1688.4,805.7L1885,938.76" style="fill:none;stroke:#00FF00;stroke-width:4" />
<path d="M120.62,85.443A5,5 0 1 1 110.62,85.443A5,5 0 1 1 120.62,85.443Z" style="fill:#00FF00" />
<path d="M317.22,104.4A5,5 0 1 1 307.22,104.4A5,5 0 1 1 317.22,104.4Z" style="fill:#00FF00" />
<path d="M513.81,148.42A5,5 0 1 1 503.81,148.42A5,5 0 1 1 513.81,148.42Z" style="fill:#00FF00" />
<path d="M710.41,213.26A5,5 0 1 1 700.41,213.26A5,5 0 1 1 710.41,213.26Z" style="fill:#00FF00" />
<path d="M907.01,295.34A5,5 0 1 1 897.01,295.34A5,5 0 1 1 907.01,295.34Z" style="fill:#00FF00" />
<path d="M1103.6,394.5A5,5 0 1 1 1093.6,394.5A5,5 0 1 1 1103.6,394.5Z" style="fill:#00FF00" />
<path d="M1300.2,526.07A5,5 0 1 1 1290.2,526.07A5,5 0 1 1 1300.2,526.07Z" style="fill:#00FF00" />
<path d="M1496.8,657.54A5,5 0 1 1 1486.8,657.54A5,5 0 1 1 1496.8,657.54Z" style="fill:#00FF00" />
<path d="M1693.4,805.7A5,5 0 1 1 1683.4,805.7A5,5 0 1 1 1693.4,805.7Z" style="fill:#00FF00" />
<path d="M1890,938.76A5,5 0 1 1 1880,938.76A5,5 0 1 1 1890,938.76Z" style="fill:#00FF00" />
<path d="M115.62,85.404L312.22,102.44L508.81,145.79L705.41,209.62L902.01,293.51L1098.6,391.68L1295.2,512.41L1491.8,600.8L1688.4,759.79L1885,864.81" style="fill:none;stroke:#FF8000;stroke-width:4" />
<path d="M120.62,85.404A5,5 0 1 1 110.62,85.404A5,5 0 1 1 120.62,85.404Z" style="fill:#FF8000" />
<path d="M317.22,102.44A5,5 0 1 1 307.22,102.44A5,5 0 1 1 317.22,102.44Z" style="fill:#FF8000" />
<path d="M513.81,145.79A5,5 0 1 1 503.81,145.79A5,5 0 1 1 513.81,145.79Z" style="fill:#FF8000" />
<path d="M710.41,209.62A5,5 0 1 1 700.41,209.62A5,5 0 1 1 710.41,209.62Z" style="fill:#FF8000" />
<path d="M907.01,293.51A5,5 0 1 1 897.01,293.51A5,5 0 1 1 907.01,293.51Z" style="fill:#FF8000" />
<path d="M1103.6,391.68A5,5 0 1 1 1093.6,391.68A5,5 0 1 1 1103.6,391.68Z" style="fill:#FF8000" />
<path d="M1300.2,512.41A5,5 0 1 1 1290.2,512.41A5,5 0 1 1 1300.2,512.41Z" style="fill:#FF8000" />
<path d="M1496.8,600.8A5,5 0 1 1 1486.8,600.8A5,5 0 1 1 1496.8,600.8Z" style="fill:#FF8000" />
<path d="M1693.4,759.79A5,5 0 1 1 1683.4,759.79A5,5 0 1 1 1693.4,759.79Z" style="fill:#FF8000" />
<path d="M1890,864.81A5,5 0 1 1 1880,864.81A5,5 0 1 1 1890,864.81Z" style="fill:#FF8000" />
<path d="M1900,146.4L1920,146.4" style="fill:none;stroke:#FF0000;stroke-width:4" />
<path d="M1915,146.4A5,5 0 1 1 1905,146.4A5,5 0 1 1 1915,146.4Z" style="fill:#FF0000" />
<text x="1823.3" y="-141.42" transform="scale(1, -1)"
	style="font-family:Liberation Serif;font-variant:normal;font-weight:normal;font-style:normal;font-size:24px">std::list</text>
<path d="M1900,126.03L1920,126.03" style="fill:none;stroke:#0000FF;stroke-width:4" />
<path d="M1915,126.03A5,5 0 1 1 1905,126.03A5,5 0 1 1 1915,126.03Z" style="fill:#0000FF" />
<text x="1795.4" y="-121.05" transform="scale(1, -1)"
	style="font-family:Liberation Serif;font-variant:normal;font-weight:normal;font-style:normal;font-size:24px">std::deque</text>
<path d="M1900,105.66L1920,105.66" style="fill:none;stroke:#00FF00;stroke-width:4" />
<path d="M1915,105.66A5,5 0 1 1 1905,105.66A5,5 0 1 1 1915,105.66Z" style="fill:#00FF00" />
<text x="1792.7" y="-100.69" transform="scale(1, -1)"
	style="font-family:Liberation Serif;font-variant:normal;font-weight:normal;font-style:normal;font-size:24px">std::vector</text>
<path d="M1900,85.294L1920,85.294" style="fill:none;stroke:#FF8000;stroke-width:4" />
<path d="M1915,85.294A5,5 0 1 1 1905,85.294A5,5 0 1 1 1915,85.294Z" style="fill:#FF8000" />
<text x="1669.4" y="-80.319" transform="scale(1, -1)"
	style="font-family:Liberation Serif;font-variant:normal;font-weight:normal;font-style:normal;font-size:24px">preallocated std::vector</text>
</g>
</svg>
