<?xml version="1.0"?>
<!-- Generated by SVGo and Plotinum VG -->
<svg width="1920pt" height="1080pt" viewBox="0 0 1920 1080"
	xmlns="http://www.w3.org/2000/svg"
	xmlns:xlink="http://www.w3.org/1999/xlink">
<g transform="scale(1, -1) translate(0, -1080)">
<path d="M0,0L1920,0L1920,1080L0,1080Z" style="fill:#FFFFFF" />
<text x="734.37" y="-1040.9" transform="scale(1, -1)"
	style="font-family:Liberation Serif;font-variant:normal;font-weight:normal;font-style:normal;font-size:50px">push-front - Log Scale</text>
<text x="877.77" y="-9.7559" transform="scale(1, -1)"
	style="font-family:Liberation Serif;font-variant:normal;font-weight:normal;font-style:normal;font-size:30px">Number of elements</text>
<text x="85.462" y="-39.727" transform="scale(1, -1)"
	style="font-family:Liberation Serif;font-variant:normal;font-weight:normal;font-style:normal;font-size:20px">100000</text>
<text x="282.08" y="-39.727" transform="scale(1, -1)"
	style="font-family:Liberation Serif;font-variant:normal;font-weight:normal;font-style:normal;font-size:20px">200000</text>
<text x="478.69" y="-39.727" transform="scale(1, -1)"
	style="font-family:Liberation Serif;font-variant:normal;font-weight:normal;font-style:normal;font-size:20px">300000</text>
<text x="675.31" y="-39.727" transform="scale(1, -1)"
	style="font-family:Liberation Serif;font-variant:normal;font-weight:normal;font-style:normal;font-size:20px">400000</text>
<text x="871.92" y="-39.727" transform="scale(1, -1)"
	style="font-family:Liberation Serif;font-variant:normal;font-weight:normal;font-style:normal;font-size:20px">500000</text>
<text x="1068.5" y="-39.727" transform="scale(1, -1)"
	style="font-family:Liberation Serif;font-variant:normal;font-weight:normal;font-style:normal;font-size:20px">600000</text>
<text x="1265.2" y="-39.727" transform="scale(1, -1)"
	style="font-family:Liberation Serif;font-variant:normal;font-weight:normal;font-style:normal;font-size:20px">700000</text>
<text x="1461.8" y="-39.727" transform="scale(1, -1)"
	style="font-family:Liberation Serif;font-variant:normal;font-weight:normal;font-style:normal;font-size:20px">800000</text>
<text x="1658.4" y="-39.727" transform="scale(1, -1)"
	style="font-family:Liberation Serif;font-variant:normal;font-weight:normal;font-style:normal;font-size:20px">900000</text>
<text x="1850" y="-39.727" transform="scale(1, -1)"
	style="font-family:Liberation Serif;font-variant:normal;font-weight:normal;font-style:normal;font-size:20px">1000000</text>
<path d="M115.46,55.371L115.46,63.371" style="fill:none;stroke:#000000;stroke-width:0.5" />
<path d="M312.08,55.371L312.08,63.371" style="fill:none;stroke:#000000;stroke-width:0.5" />
<path d="M508.69,55.371L508.69,63.371" style="fill:none;stroke:#000000;stroke-width:0.5" />
<path d="M705.31,55.371L705.31,63.371" style="fill:none;stroke:#000000;stroke-width:0.5" />
<path d="M901.92,55.371L901.92,63.371" style="fill:none;stroke:#000000;stroke-width:0.5" />
<path d="M1098.5,55.371L1098.5,63.371" style="fill:none;stroke:#000000;stroke-width:0.5" />
<path d="M1295.2,55.371L1295.2,63.371" style="fill:none;stroke:#000000;stroke-width:0.5" />
<path d="M1491.8,55.371L1491.8,63.371" style="fill:none;stroke:#000000;stroke-width:0.5" />
<path d="M1688.4,55.371L1688.4,63.371" style="fill:none;stroke:#000000;stroke-width:0.5" />
<path d="M1885,55.371L1885,63.371" style="fill:none;stroke:#000000;stroke-width:0.5" />
<path d="M115.46,63.371L1885,63.371" style="fill:none;stroke:#000000;stroke-width:0.5" />
<g transform="rotate(90)">
<text x="485.87" y="23.467" transform="scale(1, -1)"
	style="font-family:Liberation Serif;font-variant:normal;font-weight:normal;font-style:normal;font-size:30px">log(μs + 1)</text>
</g>
<text x="39.712" y="-238.64" transform="scale(1, -1)"
	style="font-family:Liberation Serif;font-variant:normal;font-weight:normal;font-style:normal;font-size:20px">10000</text>
<text x="39.712" y="-792.05" transform="scale(1, -1)"
	style="font-family:Liberation Serif;font-variant:normal;font-weight:normal;font-style:normal;font-size:20px">50000</text>
<text x="39.712" y="-994.16" transform="scale(1, -1)"
	style="font-family:Liberation Serif;font-variant:normal;font-weight:normal;font-style:normal;font-size:20px">90000</text>
<path d="M94.712,243.21L102.71,243.21" style="fill:none;stroke:#000000;stroke-width:0.5" />
<path d="M94.712,796.62L102.71,796.62" style="fill:none;stroke:#000000;stroke-width:0.5" />
<path d="M94.712,998.73L102.71,998.73" style="fill:none;stroke:#000000;stroke-width:0.5" />
<path d="M98.712,481.55L102.71,481.55" style="fill:none;stroke:#000000;stroke-width:0.5" />
<path d="M98.712,620.97L102.71,620.97" style="fill:none;stroke:#000000;stroke-width:0.5" />
<path d="M98.712,719.89L102.71,719.89" style="fill:none;stroke:#000000;stroke-width:0.5" />
<path d="M98.712,859.31L102.71,859.31" style="fill:none;stroke:#000000;stroke-width:0.5" />
<path d="M98.712,912.32L102.71,912.32" style="fill:none;stroke:#000000;stroke-width:0.5" />
<path d="M98.712,958.23L102.71,958.23" style="fill:none;stroke:#000000;stroke-width:0.5" />
<path d="M102.71,80.11L102.71,1024.6" style="fill:none;stroke:#000000;stroke-width:0.5" />
<path d="M115.46,80.11L115.46,1024.6" style="fill:none;stroke:#808080;stroke-width:0.25" />
<path d="M312.08,80.11L312.08,1024.6" style="fill:none;stroke:#808080;stroke-width:0.25" />
<path d="M508.69,80.11L508.69,1024.6" style="fill:none;stroke:#808080;stroke-width:0.25" />
<path d="M705.31,80.11L705.31,1024.6" style="fill:none;stroke:#808080;stroke-width:0.25" />
<path d="M901.92,80.11L901.92,1024.6" style="fill:none;stroke:#808080;stroke-width:0.25" />
<path d="M1098.5,80.11L1098.5,1024.6" style="fill:none;stroke:#808080;stroke-width:0.25" />
<path d="M1295.2,80.11L1295.2,1024.6" style="fill:none;stroke:#808080;stroke-width:0.25" />
<path d="M1491.8,80.11L1491.8,1024.6" style="fill:none;stroke:#808080;stroke-width:0.25" />
<path d="M1688.4,80.11L1688.4,1024.6" style="fill:none;stroke:#808080;stroke-width:0.25" />
<path d="M1885,80.11L1885,1024.6" style="fill:none;stroke:#808080;stroke-width:0.25" />
<path d="M115.46,243.21L1885,243.21" style="fill:none;stroke:#808080;stroke-width:0.25" />
<path d="M115.46,796.62L1885,796.62" style="fill:none;stroke:#808080;stroke-width:0.25" />
<path d="M115.46,998.73L1885,998.73" style="fill:none;stroke:#808080;stroke-width:0.25" />
<path d="M115.46,189.26L312.08,394.17L508.69,518.23L705.31,636.18L901.92,726.39L1098.5,783.83L1295.2,849.98L1491.8,910.91L1688.4,991.86L1885,924.36" style="fill:none;stroke:#FF0000;stroke-width:4" />
<path d="M120.46,189.26A5,5 0 1 1 110.46,189.26A5,5 0 1 1 120.46,189.26Z" style="fill:#FF0000" />
<path d="M317.08,394.17A5,5 0 1 1 307.08,394.17A5,5 0 1 1 317.08,394.17Z" style="fill:#FF0000" />
<path d="M513.69,518.23A5,5 0 1 1 503.69,518.23A5,5 0 1 1 513.69,518.23Z" style="fill:#FF0000" />
<path d="M710.31,636.18A5,5 0 1 1 700.31,636.18A5,5 0 1 1 710.31,636.18Z" style="fill:#FF0000" />
<path d="M906.92,726.39A5,5 0 1 1 896.92,726.39A5,5 0 1 1 906.92,726.39Z" style="fill:#FF0000" />
<path d="M1103.5,783.83A5,5 0 1 1 1093.5,783.83A5,5 0 1 1 1103.5,783.83Z" style="fill:#FF0000" />
<path d="M1300.2,849.98A5,5 0 1 1 1290.2,849.98A5,5 0 1 1 1300.2,849.98Z" style="fill:#FF0000" />
<path d="M1496.8,910.91A5,5 0 1 1 1486.8,910.91A5,5 0 1 1 1496.8,910.91Z" style="fill:#FF0000" />
<path d="M1693.4,991.86A5,5 0 1 1 1683.4,991.86A5,5 0 1 1 1693.4,991.86Z" style="fill:#FF0000" />
<path d="M1890,924.36A5,5 0 1 1 1880,924.36A5,5 0 1 1 1890,924.36Z" style="fill:#FF0000" />
<path d="M115.46,80.11L312.08,257.26L508.69,407.82L705.31,484.17L901.92,564.59L1098.5,637.64L1295.2,692.42L1491.8,789.07L1688.4,813.06L1885,814.65" style="fill:none;stroke:#0000FF;stroke-width:4" />
<path d="M120.46,80.11A5,5 0 1 1 110.46,80.11A5,5 0 1 1 120.46,80.11Z" style="fill:#0000FF" />
<path d="M317.08,257.26A5,5 0 1 1 307.08,257.26A5,5 0 1 1 317.08,257.26Z" style="fill:#0000FF" />
<path d="M513.69,407.82A5,5 0 1 1 503.69,407.82A5,5 0 1 1 513.69,407.82Z" style="fill:#0000FF" />
<path d="M710.31,484.17A5,5 0 1 1 700.31,484.17A5,5 0 1 1 710.31,484.17Z" style="fill:#0000FF" />
<path d="M906.92,564.59A5,5 0 1 1 896.92,564.59A5,5 0 1 1 906.92,564.59Z" style="fill:#0000FF" />
<path d="M1103.5,637.64A5,5 0 1 1 1093.5,637.64A5,5 0 1 1 1103.5,637.64Z" style="fill:#0000FF" />
<path d="M1300.2,692.42A5,5 0 1 1 1290.2,692.42A5,5 0 1 1 1300.2,692.42Z" style="fill:#0000FF" />
<path d="M1496.8,789.07A5,5 0 1 1 1486.8,789.07A5,5 0 1 1 1496.8,789.07Z" style="fill:#0000FF" />
<path d="M1693.4,813.06A5,5 0 1 1 1683.4,813.06A5,5 0 1 1 1693.4,813.06Z" style="fill:#0000FF" />
<path d="M1890,814.65A5,5 0 1 1 1880,814.65A5,5 0 1 1 1890,814.65Z" style="fill:#0000FF" />
<path d="M1900,105.66L1920,105.66" style="fill:none;stroke:#FF0000;stroke-width:4" />
<path d="M1915,105.66A5,5 0 1 1 1905,105.66A5,5 0 1 1 1915,105.66Z" style="fill:#FF0000" />
<text x="1823.3" y="-100.69" transform="scale(1, -1)"
	style="font-family:Liberation Serif;font-variant:normal;font-weight:normal;font-style:normal;font-size:24px">std::list</text>
<path d="M1900,85.294L1920,85.294" style="fill:none;stroke:#0000FF;stroke-width:4" />
<path d="M1915,85.294A5,5 0 1 1 1905,85.294A5,5 0 1 1 1915,85.294Z" style="fill:#0000FF" />
<text x="1795.4" y="-80.319" transform="scale(1, -1)"
	style="font-family:Liberation Serif;font-variant:normal;font-weight:normal;font-style:normal;font-size:24px">std::deque</text>
</g>
</svg>
