<?xml version="1.0"?>
<!-- Generated by SVGo and Plotinum VG -->
<svg width="1920pt" height="1080pt" viewBox="0 0 1920 1080"
	xmlns="http://www.w3.org/2000/svg"
	xmlns:xlink="http://www.w3.org/1999/xlink">
<g transform="scale(1, -1) translate(0, -1080)">
<path d="M0,0L1920,0L1920,1080L0,1080Z" style="fill:#FFFFFF" />
<text x="734.37" y="-1040.9" transform="scale(1, -1)"
	style="font-family:Liberation Serif;font-variant:normal;font-weight:normal;font-style:normal;font-size:50px">push-front - Log Scale</text>
<text x="877.77" y="-9.7559" transform="scale(1, -1)"
	style="font-family:Liberation Serif;font-variant:normal;font-weight:normal;font-style:normal;font-size:30px">Number of elements</text>
<text x="85.462" y="-39.727" transform="scale(1, -1)"
	style="font-family:Liberation Serif;font-variant:normal;font-weight:normal;font-style:normal;font-size:20px">100000</text>
<text x="282.08" y="-39.727" transform="scale(1, -1)"
	style="font-family:Liberation Serif;font-variant:normal;font-weight:normal;font-style:normal;font-size:20px">200000</text>
<text x="478.69" y="-39.727" transform="scale(1, -1)"
	style="font-family:Liberation Serif;font-variant:normal;font-weight:normal;font-style:normal;font-size:20px">300000</text>
<text x="675.31" y="-39.727" transform="scale(1, -1)"
	style="font-family:Liberation Serif;font-variant:normal;font-weight:normal;font-style:normal;font-size:20px">400000</text>
<text x="871.92" y="-39.727" transform="scale(1, -1)"
	style="font-family:Liberation Serif;font-variant:normal;font-weight:normal;font-style:normal;font-size:20px">500000</text>
<text x="1068.5" y="-39.727" transform="scale(1, -1)"
	style="font-family:Liberation Serif;font-variant:normal;font-weight:normal;font-style:normal;font-size:20px">600000</text>
<text x="1265.2" y="-39.727" transform="scale(1, -1)"
	style="font-family:Liberation Serif;font-variant:normal;font-weight:normal;font-style:normal;font-size:20px">700000</text>
<text x="1461.8" y="-39.727" transform="scale(1, -1)"
	style="font-family:Liberation Serif;font-variant:normal;font-weight:normal;font-style:normal;font-size:20px">800000</text>
<text x="1658.4" y="-39.727" transform="scale(1, -1)"
	style="font-family:Liberation Serif;font-variant:normal;font-weight:normal;font-style:normal;font-size:20px">900000</text>
<text x="1850" y="-39.727" transform="scale(1, -1)"
	style="font-family:Liberation Serif;font-variant:normal;font-weight:normal;font-style:normal;font-size:20px">1000000</text>
<path d="M115.46,55.371L115.46,63.371" style="fill:none;stroke:#000000;stroke-width:0.5" />
<path d="M312.08,55.371L312.08,63.371" style="fill:none;stroke:#000000;stroke-width:0.5" />
<path d="M508.69,55.371L508.69,63.371" style="fill:none;stroke:#000000;stroke-width:0.5" />
<path d="M705.31,55.371L705.31,63.371" style="fill:none;stroke:#000000;stroke-width:0.5" />
<path d="M901.92,55.371L901.92,63.371" style="fill:none;stroke:#000000;stroke-width:0.5" />
<path d="M1098.5,55.371L1098.5,63.371" style="fill:none;stroke:#000000;stroke-width:0.5" />
<path d="M1295.2,55.371L1295.2,63.371" style="fill:none;stroke:#000000;stroke-width:0.5" />
<path d="M1491.8,55.371L1491.8,63.371" style="fill:none;stroke:#000000;stroke-width:0.5" />
<path d="M1688.4,55.371L1688.4,63.371" style="fill:none;stroke:#000000;stroke-width:0.5" />
<path d="M1885,55.371L1885,63.371" style="fill:none;stroke:#000000;stroke-width:0.5" />
<path d="M115.46,63.371L1885,63.371" style="fill:none;stroke:#000000;stroke-width:0.5" />
<g transform="rotate(90)">
<text x="485.87" y="23.467" transform="scale(1, -1)"
	style="font-family:Liberation Serif;font-variant:normal;font-weight:normal;font-style:normal;font-size:30px">log(μs + 1)</text>
</g>
<text x="39.712" y="-270.49" transform="scale(1, -1)"
	style="font-family:Liberation Serif;font-variant:normal;font-weight:normal;font-style:normal;font-size:20px">10000</text>
<text x="39.712" y="-778.95" transform="scale(1, -1)"
	style="font-family:Liberation Serif;font-variant:normal;font-weight:normal;font-style:normal;font-size:20px">40000</text>
<text x="39.712" y="-984.2" transform="scale(1, -1)"
	style="font-family:Liberation Serif;font-variant:normal;font-weight:normal;font-style:normal;font-size:20px">70000</text>
<path d="M94.712,275.06L102.71,275.06" style="fill:none;stroke:#000000;stroke-width:0.5" />
<path d="M94.712,783.52L102.71,783.52" style="fill:none;stroke:#000000;stroke-width:0.5" />
<path d="M94.712,988.77L102.71,988.77" style="fill:none;stroke:#000000;stroke-width:0.5" />
<path d="M98.712,529.29L102.71,529.29" style="fill:none;stroke:#000000;stroke-width:0.5" />
<path d="M98.712,678.01L102.71,678.01" style="fill:none;stroke:#000000;stroke-width:0.5" />
<path d="M98.712,865.36L102.71,865.36" style="fill:none;stroke:#000000;stroke-width:0.5" />
<path d="M98.712,932.23L102.71,932.23" style="fill:none;stroke:#000000;stroke-width:0.5" />
<path d="M102.71,80.11L102.71,1024.6" style="fill:none;stroke:#000000;stroke-width:0.5" />
<path d="M115.46,80.11L115.46,1024.6" style="fill:none;stroke:#808080;stroke-width:0.25" />
<path d="M312.08,80.11L312.08,1024.6" style="fill:none;stroke:#808080;stroke-width:0.25" />
<path d="M508.69,80.11L508.69,1024.6" style="fill:none;stroke:#808080;stroke-width:0.25" />
<path d="M705.31,80.11L705.31,1024.6" style="fill:none;stroke:#808080;stroke-width:0.25" />
<path d="M901.92,80.11L901.92,1024.6" style="fill:none;stroke:#808080;stroke-width:0.25" />
<path d="M1098.5,80.11L1098.5,1024.6" style="fill:none;stroke:#808080;stroke-width:0.25" />
<path d="M1295.2,80.11L1295.2,1024.6" style="fill:none;stroke:#808080;stroke-width:0.25" />
<path d="M1491.8,80.11L1491.8,1024.6" style="fill:none;stroke:#808080;stroke-width:0.25" />
<path d="M1688.4,80.11L1688.4,1024.6" style="fill:none;stroke:#808080;stroke-width:0.25" />
<path d="M1885,80.11L1885,1024.6" style="fill:none;stroke:#808080;stroke-width:0.25" />
<path d="M115.46,275.06L1885,275.06" style="fill:none;stroke:#808080;stroke-width:0.25" />
<path d="M115.46,783.52L1885,783.52" style="fill:none;stroke:#808080;stroke-width:0.25" />
<path d="M115.46,988.77L1885,988.77" style="fill:none;stroke:#808080;stroke-width:0.25" />
<path d="M115.46,270.93L312.08,436.89L508.69,575.28L705.31,692.27L901.92,743.24L1098.5,809.09L1295.2,921.4L1491.8,912.74L1688.4,961.4L1885,989.68" style="fill:none;stroke:#FF0000;stroke-width:4" />
<path d="M120.46,270.93A5,5 0 1 1 110.46,270.93A5,5 0 1 1 120.46,270.93Z" style="fill:#FF0000" />
<path d="M317.08,436.89A5,5 0 1 1 307.08,436.89A5,5 0 1 1 317.08,436.89Z" style="fill:#FF0000" />
<path d="M513.69,575.28A5,5 0 1 1 503.69,575.28A5,5 0 1 1 513.69,575.28Z" style="fill:#FF0000" />
<path d="M710.31,692.27A5,5 0 1 1 700.31,692.27A5,5 0 1 1 710.31,692.27Z" style="fill:#FF0000" />
<path d="M906.92,743.24A5,5 0 1 1 896.92,743.24A5,5 0 1 1 906.92,743.24Z" style="fill:#FF0000" />
<path d="M1103.5,809.09A5,5 0 1 1 1093.5,809.09A5,5 0 1 1 1103.5,809.09Z" style="fill:#FF0000" />
<path d="M1300.2,921.4A5,5 0 1 1 1290.2,921.4A5,5 0 1 1 1300.2,921.4Z" style="fill:#FF0000" />
<path d="M1496.8,912.74A5,5 0 1 1 1486.8,912.74A5,5 0 1 1 1496.8,912.74Z" style="fill:#FF0000" />
<path d="M1693.4,961.4A5,5 0 1 1 1683.4,961.4A5,5 0 1 1 1693.4,961.4Z" style="fill:#FF0000" />
<path d="M1890,989.68A5,5 0 1 1 1880,989.68A5,5 0 1 1 1890,989.68Z" style="fill:#FF0000" />
<path d="M115.46,80.11L312.08,131.78L508.69,298.54L705.31,399.1L901.92,429.6L1098.5,535.66L1295.2,580.9L1491.8,615.45L1688.4,673.58L1885,736.26" style="fill:none;stroke:#0000FF;stroke-width:4" />
<path d="M120.46,80.11A5,5 0 1 1 110.46,80.11A5,5 0 1 1 120.46,80.11Z" style="fill:#0000FF" />
<path d="M317.08,131.78A5,5 0 1 1 307.08,131.78A5,5 0 1 1 317.08,131.78Z" style="fill:#0000FF" />
<path d="M513.69,298.54A5,5 0 1 1 503.69,298.54A5,5 0 1 1 513.69,298.54Z" style="fill:#0000FF" />
<path d="M710.31,399.1A5,5 0 1 1 700.31,399.1A5,5 0 1 1 710.31,399.1Z" style="fill:#0000FF" />
<path d="M906.92,429.6A5,5 0 1 1 896.92,429.6A5,5 0 1 1 906.92,429.6Z" style="fill:#0000FF" />
<path d="M1103.5,535.66A5,5 0 1 1 1093.5,535.66A5,5 0 1 1 1103.5,535.66Z" style="fill:#0000FF" />
<path d="M1300.2,580.9A5,5 0 1 1 1290.2,580.9A5,5 0 1 1 1300.2,580.9Z" style="fill:#0000FF" />
<path d="M1496.8,615.45A5,5 0 1 1 1486.8,615.45A5,5 0 1 1 1496.8,615.45Z" style="fill:#0000FF" />
<path d="M1693.4,673.58A5,5 0 1 1 1683.4,673.58A5,5 0 1 1 1693.4,673.58Z" style="fill:#0000FF" />
<path d="M1890,736.26A5,5 0 1 1 1880,736.26A5,5 0 1 1 1890,736.26Z" style="fill:#0000FF" />
<path d="M1900,105.66L1920,105.66" style="fill:none;stroke:#FF0000;stroke-width:4" />
<path d="M1915,105.66A5,5 0 1 1 1905,105.66A5,5 0 1 1 1915,105.66Z" style="fill:#FF0000" />
<text x="1823.3" y="-100.69" transform="scale(1, -1)"
	style="font-family:Liberation Serif;font-variant:normal;font-weight:normal;font-style:normal;font-size:24px">std::list</text>
<path d="M1900,85.294L1920,85.294" style="fill:none;stroke:#0000FF;stroke-width:4" />
<path d="M1915,85.294A5,5 0 1 1 1905,85.294A5,5 0 1 1 1915,85.294Z" style="fill:#0000FF" />
<text x="1795.4" y="-80.319" transform="scale(1, -1)"
	style="font-family:Liberation Serif;font-variant:normal;font-weight:normal;font-style:normal;font-size:24px">std::deque</text>
</g>
</svg>
