<?xml version="1.0"?>
<!-- Generated by SVGo and Plotinum VG -->
<svg width="1920pt" height="1080pt" viewBox="0 0 1920 1080"
	xmlns="http://www.w3.org/2000/svg"
	xmlns:xlink="http://www.w3.org/1999/xlink">
<g transform="scale(1, -1) translate(0, -1080)">
<path d="M0,0L1920,0L1920,1080L0,1080Z" style="fill:#FFFFFF" />
<text x="734.37" y="-1040.9" transform="scale(1, -1)"
	style="font-family:Liberation Serif;font-variant:normal;font-weight:normal;font-style:normal;font-size:50px">push-front - Log Scale</text>
<text x="887.77" y="-9.7559" transform="scale(1, -1)"
	style="font-family:Liberation Serif;font-variant:normal;font-weight:normal;font-style:normal;font-size:30px">Number of elements</text>
<text x="105.46" y="-39.727" transform="scale(1, -1)"
	style="font-family:Liberation Serif;font-variant:normal;font-weight:normal;font-style:normal;font-size:20px">100000</text>
<text x="299.86" y="-39.727" transform="scale(1, -1)"
	style="font-family:Liberation Serif;font-variant:normal;font-weight:normal;font-style:normal;font-size:20px">200000</text>
<text x="494.25" y="-39.727" transform="scale(1, -1)"
	style="font-family:Liberation Serif;font-variant:normal;font-weight:normal;font-style:normal;font-size:20px">300000</text>
<text x="688.64" y="-39.727" transform="scale(1, -1)"
	style="font-family:Liberation Serif;font-variant:normal;font-weight:normal;font-style:normal;font-size:20px">400000</text>
<text x="883.03" y="-39.727" transform="scale(1, -1)"
	style="font-family:Liberation Serif;font-variant:normal;font-weight:normal;font-style:normal;font-size:20px">500000</text>
<text x="1077.4" y="-39.727" transform="scale(1, -1)"
	style="font-family:Liberation Serif;font-variant:normal;font-weight:normal;font-style:normal;font-size:20px">600000</text>
<text x="1271.8" y="-39.727" transform="scale(1, -1)"
	style="font-family:Liberation Serif;font-variant:normal;font-weight:normal;font-style:normal;font-size:20px">700000</text>
<text x="1466.2" y="-39.727" transform="scale(1, -1)"
	style="font-family:Liberation Serif;font-variant:normal;font-weight:normal;font-style:normal;font-size:20px">800000</text>
<text x="1660.6" y="-39.727" transform="scale(1, -1)"
	style="font-family:Liberation Serif;font-variant:normal;font-weight:normal;font-style:normal;font-size:20px">900000</text>
<text x="1850" y="-39.727" transform="scale(1, -1)"
	style="font-family:Liberation Serif;font-variant:normal;font-weight:normal;font-style:normal;font-size:20px">1000000</text>
<path d="M135.46,55.371L135.46,63.371" style="fill:none;stroke:#000000;stroke-width:0.5" />
<path d="M329.86,55.371L329.86,63.371" style="fill:none;stroke:#000000;stroke-width:0.5" />
<path d="M524.25,55.371L524.25,63.371" style="fill:none;stroke:#000000;stroke-width:0.5" />
<path d="M718.64,55.371L718.64,63.371" style="fill:none;stroke:#000000;stroke-width:0.5" />
<path d="M913.03,55.371L913.03,63.371" style="fill:none;stroke:#000000;stroke-width:0.5" />
<path d="M1107.4,55.371L1107.4,63.371" style="fill:none;stroke:#000000;stroke-width:0.5" />
<path d="M1301.8,55.371L1301.8,63.371" style="fill:none;stroke:#000000;stroke-width:0.5" />
<path d="M1496.2,55.371L1496.2,63.371" style="fill:none;stroke:#000000;stroke-width:0.5" />
<path d="M1690.6,55.371L1690.6,63.371" style="fill:none;stroke:#000000;stroke-width:0.5" />
<path d="M1885,55.371L1885,63.371" style="fill:none;stroke:#000000;stroke-width:0.5" />
<path d="M135.46,63.371L1885,63.371" style="fill:none;stroke:#000000;stroke-width:0.5" />
<g transform="rotate(90)">
<text x="485.87" y="23.467" transform="scale(1, -1)"
	style="font-family:Liberation Serif;font-variant:normal;font-weight:normal;font-style:normal;font-size:30px">log(μs + 1)</text>
</g>
<text x="49.712" y="-521.05" transform="scale(1, -1)"
	style="font-family:Liberation Serif;font-variant:normal;font-weight:normal;font-style:normal;font-size:20px">200000</text>
<text x="49.712" y="-838.45" transform="scale(1, -1)"
	style="font-family:Liberation Serif;font-variant:normal;font-weight:normal;font-style:normal;font-size:20px">600000</text>
<text x="39.712" y="-986.03" transform="scale(1, -1)"
	style="font-family:Liberation Serif;font-variant:normal;font-weight:normal;font-style:normal;font-size:20px">1000000</text>
<path d="M114.71,525.62L122.71,525.62" style="fill:none;stroke:#000000;stroke-width:0.5" />
<path d="M114.71,843.02L122.71,843.02" style="fill:none;stroke:#000000;stroke-width:0.5" />
<path d="M114.71,990.61L122.71,990.61" style="fill:none;stroke:#000000;stroke-width:0.5" />
<path d="M118.71,325.37L122.71,325.37" style="fill:none;stroke:#000000;stroke-width:0.5" />
<path d="M118.71,642.77L122.71,642.77" style="fill:none;stroke:#000000;stroke-width:0.5" />
<path d="M118.71,725.88L122.71,725.88" style="fill:none;stroke:#000000;stroke-width:0.5" />
<path d="M118.71,790.35L122.71,790.35" style="fill:none;stroke:#000000;stroke-width:0.5" />
<path d="M118.71,887.56L122.71,887.56" style="fill:none;stroke:#000000;stroke-width:0.5" />
<path d="M118.71,926.14L122.71,926.14" style="fill:none;stroke:#000000;stroke-width:0.5" />
<path d="M118.71,960.17L122.71,960.17" style="fill:none;stroke:#000000;stroke-width:0.5" />
<path d="M118.71,1018.1L122.71,1018.1" style="fill:none;stroke:#000000;stroke-width:0.5" />
<path d="M122.71,80.11L122.71,1024.6" style="fill:none;stroke:#000000;stroke-width:0.5" />
<path d="M135.46,80.11L135.46,1024.6" style="fill:none;stroke:#808080;stroke-width:0.25" />
<path d="M329.86,80.11L329.86,1024.6" style="fill:none;stroke:#808080;stroke-width:0.25" />
<path d="M524.25,80.11L524.25,1024.6" style="fill:none;stroke:#808080;stroke-width:0.25" />
<path d="M718.64,80.11L718.64,1024.6" style="fill:none;stroke:#808080;stroke-width:0.25" />
<path d="M913.03,80.11L913.03,1024.6" style="fill:none;stroke:#808080;stroke-width:0.25" />
<path d="M1107.4,80.11L1107.4,1024.6" style="fill:none;stroke:#808080;stroke-width:0.25" />
<path d="M1301.8,80.11L1301.8,1024.6" style="fill:none;stroke:#808080;stroke-width:0.25" />
<path d="M1496.2,80.11L1496.2,1024.6" style="fill:none;stroke:#808080;stroke-width:0.25" />
<path d="M1690.6,80.11L1690.6,1024.6" style="fill:none;stroke:#808080;stroke-width:0.25" />
<path d="M1885,80.11L1885,1024.6" style="fill:none;stroke:#808080;stroke-width:0.25" />
<path d="M135.46,525.62L1885,525.62" style="fill:none;stroke:#808080;stroke-width:0.25" />
<path d="M135.46,843.02L1885,843.02" style="fill:none;stroke:#808080;stroke-width:0.25" />
<path d="M135.46,990.61L1885,990.61" style="fill:none;stroke:#808080;stroke-width:0.25" />
<path d="M135.46,80.11L329.86,287.73L524.25,467.07L718.64,614.63L913.03,721.2L1107.4,829.52L1301.8,858.51L1496.2,910.4L1690.6,953.57L1885,993.9" style="fill:none;stroke:#FF0000;stroke-width:4" />
<path d="M140.46,80.11A5,5 0 1 1 130.46,80.11A5,5 0 1 1 140.46,80.11Z" style="fill:#FF0000" />
<path d="M334.86,287.73A5,5 0 1 1 324.86,287.73A5,5 0 1 1 334.86,287.73Z" style="fill:#FF0000" />
<path d="M529.25,467.07A5,5 0 1 1 519.25,467.07A5,5 0 1 1 529.25,467.07Z" style="fill:#FF0000" />
<path d="M723.64,614.63A5,5 0 1 1 713.64,614.63A5,5 0 1 1 723.64,614.63Z" style="fill:#FF0000" />
<path d="M918.03,721.2A5,5 0 1 1 908.03,721.2A5,5 0 1 1 918.03,721.2Z" style="fill:#FF0000" />
<path d="M1112.4,829.52A5,5 0 1 1 1102.4,829.52A5,5 0 1 1 1112.4,829.52Z" style="fill:#FF0000" />
<path d="M1306.8,858.51A5,5 0 1 1 1296.8,858.51A5,5 0 1 1 1306.8,858.51Z" style="fill:#FF0000" />
<path d="M1501.2,910.4A5,5 0 1 1 1491.2,910.4A5,5 0 1 1 1501.2,910.4Z" style="fill:#FF0000" />
<path d="M1695.6,953.57A5,5 0 1 1 1685.6,953.57A5,5 0 1 1 1695.6,953.57Z" style="fill:#FF0000" />
<path d="M1890,993.9A5,5 0 1 1 1880,993.9A5,5 0 1 1 1890,993.9Z" style="fill:#FF0000" />
<path d="M135.46,119.06L329.86,279.96L524.25,472.38L718.64,639.27L913.03,739.89L1107.4,846.93L1301.8,878.28L1496.2,958.93L1690.6,984.24L1885,997.09" style="fill:none;stroke:#0000FF;stroke-width:4" />
<path d="M140.46,119.06A5,5 0 1 1 130.46,119.06A5,5 0 1 1 140.46,119.06Z" style="fill:#0000FF" />
<path d="M334.86,279.96A5,5 0 1 1 324.86,279.96A5,5 0 1 1 334.86,279.96Z" style="fill:#0000FF" />
<path d="M529.25,472.38A5,5 0 1 1 519.25,472.38A5,5 0 1 1 529.25,472.38Z" style="fill:#0000FF" />
<path d="M723.64,639.27A5,5 0 1 1 713.64,639.27A5,5 0 1 1 723.64,639.27Z" style="fill:#0000FF" />
<path d="M918.03,739.89A5,5 0 1 1 908.03,739.89A5,5 0 1 1 918.03,739.89Z" style="fill:#0000FF" />
<path d="M1112.4,846.93A5,5 0 1 1 1102.4,846.93A5,5 0 1 1 1112.4,846.93Z" style="fill:#0000FF" />
<path d="M1306.8,878.28A5,5 0 1 1 1296.8,878.28A5,5 0 1 1 1306.8,878.28Z" style="fill:#0000FF" />
<path d="M1501.2,958.93A5,5 0 1 1 1491.2,958.93A5,5 0 1 1 1501.2,958.93Z" style="fill:#0000FF" />
<path d="M1695.6,984.24A5,5 0 1 1 1685.6,984.24A5,5 0 1 1 1695.6,984.24Z" style="fill:#0000FF" />
<path d="M1890,997.09A5,5 0 1 1 1880,997.09A5,5 0 1 1 1890,997.09Z" style="fill:#0000FF" />
<path d="M1900,105.66L1920,105.66" style="fill:none;stroke:#FF0000;stroke-width:4" />
<path d="M1915,105.66A5,5 0 1 1 1905,105.66A5,5 0 1 1 1915,105.66Z" style="fill:#FF0000" />
<text x="1795.4" y="-100.69" transform="scale(1, -1)"
	style="font-family:Liberation Serif;font-variant:normal;font-weight:normal;font-style:normal;font-size:24px">std::deque</text>
<path d="M1900,85.294L1920,85.294" style="fill:none;stroke:#0000FF;stroke-width:4" />
<path d="M1915,85.294A5,5 0 1 1 1905,85.294A5,5 0 1 1 1915,85.294Z" style="fill:#0000FF" />
<text x="1823.3" y="-80.319" transform="scale(1, -1)"
	style="font-family:Liberation Serif;font-variant:normal;font-weight:normal;font-style:normal;font-size:24px">std::list</text>
</g>
</svg>
