<?xml version="1.0"?>
<!-- Generated by SVGo and Plotinum VG -->
<svg width="1920pt" height="1080pt" viewBox="0 0 1920 1080"
	xmlns="http://www.w3.org/2000/svg"
	xmlns:xlink="http://www.w3.org/1999/xlink">
<g transform="scale(1, -1) translate(0, -1080)">
<path d="M0,0L1920,0L1920,1080L0,1080Z" style="fill:#FFFFFF" />
<text x="734.37" y="-1040.9" transform="scale(1, -1)"
	style="font-family:Liberation Serif;font-variant:normal;font-weight:normal;font-style:normal;font-size:50px">push-front - Log Scale</text>
<text x="877.85" y="-9.7559" transform="scale(1, -1)"
	style="font-family:Liberation Serif;font-variant:normal;font-weight:normal;font-style:normal;font-size:30px">Number of elements</text>
<text x="85.618" y="-39.727" transform="scale(1, -1)"
	style="font-family:Liberation Serif;font-variant:normal;font-weight:normal;font-style:normal;font-size:20px">100000</text>
<text x="282.22" y="-39.727" transform="scale(1, -1)"
	style="font-family:Liberation Serif;font-variant:normal;font-weight:normal;font-style:normal;font-size:20px">200000</text>
<text x="478.81" y="-39.727" transform="scale(1, -1)"
	style="font-family:Liberation Serif;font-variant:normal;font-weight:normal;font-style:normal;font-size:20px">300000</text>
<text x="675.41" y="-39.727" transform="scale(1, -1)"
	style="font-family:Liberation Serif;font-variant:normal;font-weight:normal;font-style:normal;font-size:20px">400000</text>
<text x="872.01" y="-39.727" transform="scale(1, -1)"
	style="font-family:Liberation Serif;font-variant:normal;font-weight:normal;font-style:normal;font-size:20px">500000</text>
<text x="1068.6" y="-39.727" transform="scale(1, -1)"
	style="font-family:Liberation Serif;font-variant:normal;font-weight:normal;font-style:normal;font-size:20px">600000</text>
<text x="1265.2" y="-39.727" transform="scale(1, -1)"
	style="font-family:Liberation Serif;font-variant:normal;font-weight:normal;font-style:normal;font-size:20px">700000</text>
<text x="1461.8" y="-39.727" transform="scale(1, -1)"
	style="font-family:Liberation Serif;font-variant:normal;font-weight:normal;font-style:normal;font-size:20px">800000</text>
<text x="1658.4" y="-39.727" transform="scale(1, -1)"
	style="font-family:Liberation Serif;font-variant:normal;font-weight:normal;font-style:normal;font-size:20px">900000</text>
<text x="1850" y="-39.727" transform="scale(1, -1)"
	style="font-family:Liberation Serif;font-variant:normal;font-weight:normal;font-style:normal;font-size:20px">1000000</text>
<path d="M115.62,55.371L115.62,63.371" style="fill:none;stroke:#000000;stroke-width:0.5" />
<path d="M312.22,55.371L312.22,63.371" style="fill:none;stroke:#000000;stroke-width:0.5" />
<path d="M508.81,55.371L508.81,63.371" style="fill:none;stroke:#000000;stroke-width:0.5" />
<path d="M705.41,55.371L705.41,63.371" style="fill:none;stroke:#000000;stroke-width:0.5" />
<path d="M902.01,55.371L902.01,63.371" style="fill:none;stroke:#000000;stroke-width:0.5" />
<path d="M1098.6,55.371L1098.6,63.371" style="fill:none;stroke:#000000;stroke-width:0.5" />
<path d="M1295.2,55.371L1295.2,63.371" style="fill:none;stroke:#000000;stroke-width:0.5" />
<path d="M1491.8,55.371L1491.8,63.371" style="fill:none;stroke:#000000;stroke-width:0.5" />
<path d="M1688.4,55.371L1688.4,63.371" style="fill:none;stroke:#000000;stroke-width:0.5" />
<path d="M1885,55.371L1885,63.371" style="fill:none;stroke:#000000;stroke-width:0.5" />
<path d="M115.62,63.371L1885,63.371" style="fill:none;stroke:#000000;stroke-width:0.5" />
<g transform="rotate(90)">
<text x="508.86" y="23.467" transform="scale(1, -1)"
	style="font-family:Liberation Serif;font-variant:normal;font-weight:normal;font-style:normal;font-size:30px">log(μs)</text>
</g>
<text x="39.712" y="-790.31" transform="scale(1, -1)"
	style="font-family:Liberation Serif;font-variant:normal;font-weight:normal;font-style:normal;font-size:20px">1e+07</text>
<text x="39.712" y="-953.71" transform="scale(1, -1)"
	style="font-family:Liberation Serif;font-variant:normal;font-weight:normal;font-style:normal;font-size:20px">6e+07</text>
<text x="39.712" y="-1009" transform="scale(1, -1)"
	style="font-family:Liberation Serif;font-variant:normal;font-weight:normal;font-style:normal;font-size:20px">1e+08</text>
<path d="M94.868,794.88L102.87,794.88" style="fill:none;stroke:#000000;stroke-width:0.5" />
<path d="M94.868,958.28L102.87,958.28" style="fill:none;stroke:#000000;stroke-width:0.5" />
<path d="M94.868,1013.6L102.87,1013.6" style="fill:none;stroke:#000000;stroke-width:0.5" />
<path d="M98.868,858.09L102.87,858.09" style="fill:none;stroke:#000000;stroke-width:0.5" />
<path d="M98.868,895.07L102.87,895.07" style="fill:none;stroke:#000000;stroke-width:0.5" />
<path d="M98.868,921.3L102.87,921.3" style="fill:none;stroke:#000000;stroke-width:0.5" />
<path d="M98.868,941.65L102.87,941.65" style="fill:none;stroke:#000000;stroke-width:0.5" />
<path d="M98.868,972.34L102.87,972.34" style="fill:none;stroke:#000000;stroke-width:0.5" />
<path d="M98.868,984.51L102.87,984.51" style="fill:none;stroke:#000000;stroke-width:0.5" />
<path d="M98.868,995.25L102.87,995.25" style="fill:none;stroke:#000000;stroke-width:0.5" />
<path d="M98.868,1004.9L102.87,1004.9" style="fill:none;stroke:#000000;stroke-width:0.5" />
<path d="M98.868,1021.5L102.87,1021.5" style="fill:none;stroke:#000000;stroke-width:0.5" />
<path d="M102.87,80.11L102.87,1023.7" style="fill:none;stroke:#000000;stroke-width:0.5" />
<path d="M115.62,80.11L115.62,1023.7" style="fill:none;stroke:#808080;stroke-width:0.25" />
<path d="M312.22,80.11L312.22,1023.7" style="fill:none;stroke:#808080;stroke-width:0.25" />
<path d="M508.81,80.11L508.81,1023.7" style="fill:none;stroke:#808080;stroke-width:0.25" />
<path d="M705.41,80.11L705.41,1023.7" style="fill:none;stroke:#808080;stroke-width:0.25" />
<path d="M902.01,80.11L902.01,1023.7" style="fill:none;stroke:#808080;stroke-width:0.25" />
<path d="M1098.6,80.11L1098.6,1023.7" style="fill:none;stroke:#808080;stroke-width:0.25" />
<path d="M1295.2,80.11L1295.2,1023.7" style="fill:none;stroke:#808080;stroke-width:0.25" />
<path d="M1491.8,80.11L1491.8,1023.7" style="fill:none;stroke:#808080;stroke-width:0.25" />
<path d="M1688.4,80.11L1688.4,1023.7" style="fill:none;stroke:#808080;stroke-width:0.25" />
<path d="M1885,80.11L1885,1023.7" style="fill:none;stroke:#808080;stroke-width:0.25" />
<path d="M115.62,794.88L1885,794.88" style="fill:none;stroke:#808080;stroke-width:0.25" />
<path d="M115.62,958.28L1885,958.28" style="fill:none;stroke:#808080;stroke-width:0.25" />
<path d="M115.62,1013.6L1885,1013.6" style="fill:none;stroke:#808080;stroke-width:0.25" />
<path d="M115.62,126.96L312.22,188.1L508.81,225.19L705.41,238.01L902.01,255.97L1098.6,275.7L1295.2,286.6L1491.8,297.88L1688.4,324.31L1885,328.43" style="fill:none;stroke:#FF0000;stroke-width:4" />
<path d="M120.62,126.96A5,5 0 1 1 110.62,126.96A5,5 0 1 1 120.62,126.96Z" style="fill:#FF0000" />
<path d="M317.22,188.1A5,5 0 1 1 307.22,188.1A5,5 0 1 1 317.22,188.1Z" style="fill:#FF0000" />
<path d="M513.81,225.19A5,5 0 1 1 503.81,225.19A5,5 0 1 1 513.81,225.19Z" style="fill:#FF0000" />
<path d="M710.41,238.01A5,5 0 1 1 700.41,238.01A5,5 0 1 1 710.41,238.01Z" style="fill:#FF0000" />
<path d="M907.01,255.97A5,5 0 1 1 897.01,255.97A5,5 0 1 1 907.01,255.97Z" style="fill:#FF0000" />
<path d="M1103.6,275.7A5,5 0 1 1 1093.6,275.7A5,5 0 1 1 1103.6,275.7Z" style="fill:#FF0000" />
<path d="M1300.2,286.6A5,5 0 1 1 1290.2,286.6A5,5 0 1 1 1300.2,286.6Z" style="fill:#FF0000" />
<path d="M1496.8,297.88A5,5 0 1 1 1486.8,297.88A5,5 0 1 1 1496.8,297.88Z" style="fill:#FF0000" />
<path d="M1693.4,324.31A5,5 0 1 1 1683.4,324.31A5,5 0 1 1 1693.4,324.31Z" style="fill:#FF0000" />
<path d="M1890,328.43A5,5 0 1 1 1880,328.43A5,5 0 1 1 1890,328.43Z" style="fill:#FF0000" />
<path d="M115.62,80.11L312.22,95.515L508.81,123.07L705.41,145.91L902.01,167.75L1098.6,187.94L1295.2,199.75L1491.8,209.39L1688.4,223.12L1885,245.36" style="fill:none;stroke:#0000FF;stroke-width:4" />
<path d="M120.62,80.11A5,5 0 1 1 110.62,80.11A5,5 0 1 1 120.62,80.11Z" style="fill:#0000FF" />
<path d="M317.22,95.515A5,5 0 1 1 307.22,95.515A5,5 0 1 1 317.22,95.515Z" style="fill:#0000FF" />
<path d="M513.81,123.07A5,5 0 1 1 503.81,123.07A5,5 0 1 1 513.81,123.07Z" style="fill:#0000FF" />
<path d="M710.41,145.91A5,5 0 1 1 700.41,145.91A5,5 0 1 1 710.41,145.91Z" style="fill:#0000FF" />
<path d="M907.01,167.75A5,5 0 1 1 897.01,167.75A5,5 0 1 1 907.01,167.75Z" style="fill:#0000FF" />
<path d="M1103.6,187.94A5,5 0 1 1 1093.6,187.94A5,5 0 1 1 1103.6,187.94Z" style="fill:#0000FF" />
<path d="M1300.2,199.75A5,5 0 1 1 1290.2,199.75A5,5 0 1 1 1300.2,199.75Z" style="fill:#0000FF" />
<path d="M1496.8,209.39A5,5 0 1 1 1486.8,209.39A5,5 0 1 1 1496.8,209.39Z" style="fill:#0000FF" />
<path d="M1693.4,223.12A5,5 0 1 1 1683.4,223.12A5,5 0 1 1 1693.4,223.12Z" style="fill:#0000FF" />
<path d="M1890,245.36A5,5 0 1 1 1880,245.36A5,5 0 1 1 1890,245.36Z" style="fill:#0000FF" />
<path d="M115.62,552.1L312.22,689.95L508.81,784.19L705.41,845.03L902.01,888.82L1098.6,923.37L1295.2,955.25L1491.8,978.81L1688.4,999.64L1885,1015" style="fill:none;stroke:#00FF00;stroke-width:4" />
<path d="M120.62,552.1A5,5 0 1 1 110.62,552.1A5,5 0 1 1 120.62,552.1Z" style="fill:#00FF00" />
<path d="M317.22,689.95A5,5 0 1 1 307.22,689.95A5,5 0 1 1 317.22,689.95Z" style="fill:#00FF00" />
<path d="M513.81,784.19A5,5 0 1 1 503.81,784.19A5,5 0 1 1 513.81,784.19Z" style="fill:#00FF00" />
<path d="M710.41,845.03A5,5 0 1 1 700.41,845.03A5,5 0 1 1 710.41,845.03Z" style="fill:#00FF00" />
<path d="M907.01,888.82A5,5 0 1 1 897.01,888.82A5,5 0 1 1 907.01,888.82Z" style="fill:#00FF00" />
<path d="M1103.6,923.37A5,5 0 1 1 1093.6,923.37A5,5 0 1 1 1103.6,923.37Z" style="fill:#00FF00" />
<path d="M1300.2,955.25A5,5 0 1 1 1290.2,955.25A5,5 0 1 1 1300.2,955.25Z" style="fill:#00FF00" />
<path d="M1496.8,978.81A5,5 0 1 1 1486.8,978.81A5,5 0 1 1 1496.8,978.81Z" style="fill:#00FF00" />
<path d="M1693.4,999.64A5,5 0 1 1 1683.4,999.64A5,5 0 1 1 1693.4,999.64Z" style="fill:#00FF00" />
<path d="M1890,1015A5,5 0 1 1 1880,1015A5,5 0 1 1 1890,1015Z" style="fill:#00FF00" />
<path d="M115.62,551.44L312.22,682.31L508.81,780.61L705.41,842.51L902.01,888.04L1098.6,922.55L1295.2,952.42L1491.8,969.38L1688.4,993.68L1885,1006.8" style="fill:none;stroke:#FF8000;stroke-width:4" />
<path d="M120.62,551.44A5,5 0 1 1 110.62,551.44A5,5 0 1 1 120.62,551.44Z" style="fill:#FF8000" />
<path d="M317.22,682.31A5,5 0 1 1 307.22,682.31A5,5 0 1 1 317.22,682.31Z" style="fill:#FF8000" />
<path d="M513.81,780.61A5,5 0 1 1 503.81,780.61A5,5 0 1 1 513.81,780.61Z" style="fill:#FF8000" />
<path d="M710.41,842.51A5,5 0 1 1 700.41,842.51A5,5 0 1 1 710.41,842.51Z" style="fill:#FF8000" />
<path d="M907.01,888.04A5,5 0 1 1 897.01,888.04A5,5 0 1 1 907.01,888.04Z" style="fill:#FF8000" />
<path d="M1103.6,922.55A5,5 0 1 1 1093.6,922.55A5,5 0 1 1 1103.6,922.55Z" style="fill:#FF8000" />
<path d="M1300.2,952.42A5,5 0 1 1 1290.2,952.42A5,5 0 1 1 1300.2,952.42Z" style="fill:#FF8000" />
<path d="M1496.8,969.38A5,5 0 1 1 1486.8,969.38A5,5 0 1 1 1496.8,969.38Z" style="fill:#FF8000" />
<path d="M1693.4,993.68A5,5 0 1 1 1683.4,993.68A5,5 0 1 1 1693.4,993.68Z" style="fill:#FF8000" />
<path d="M1890,1006.8A5,5 0 1 1 1880,1006.8A5,5 0 1 1 1890,1006.8Z" style="fill:#FF8000" />
<path d="M1900,146.4L1920,146.4" style="fill:none;stroke:#FF0000;stroke-width:4" />
<path d="M1915,146.4A5,5 0 1 1 1905,146.4A5,5 0 1 1 1915,146.4Z" style="fill:#FF0000" />
<text x="1823.3" y="-141.42" transform="scale(1, -1)"
	style="font-family:Liberation Serif;font-variant:normal;font-weight:normal;font-style:normal;font-size:24px">std::list</text>
<path d="M1900,126.03L1920,126.03" style="fill:none;stroke:#0000FF;stroke-width:4" />
<path d="M1915,126.03A5,5 0 1 1 1905,126.03A5,5 0 1 1 1915,126.03Z" style="fill:#0000FF" />
<text x="1795.4" y="-121.05" transform="scale(1, -1)"
	style="font-family:Liberation Serif;font-variant:normal;font-weight:normal;font-style:normal;font-size:24px">std::deque</text>
<path d="M1900,105.66L1920,105.66" style="fill:none;stroke:#00FF00;stroke-width:4" />
<path d="M1915,105.66A5,5 0 1 1 1905,105.66A5,5 0 1 1 1915,105.66Z" style="fill:#00FF00" />
<text x="1792.7" y="-100.69" transform="scale(1, -1)"
	style="font-family:Liberation Serif;font-variant:normal;font-weight:normal;font-style:normal;font-size:24px">std::vector</text>
<path d="M1900,85.294L1920,85.294" style="fill:none;stroke:#FF8000;stroke-width:4" />
<path d="M1915,85.294A5,5 0 1 1 1905,85.294A5,5 0 1 1 1915,85.294Z" style="fill:#FF8000" />
<text x="1669.4" y="-80.319" transform="scale(1, -1)"
	style="font-family:Liberation Serif;font-variant:normal;font-weight:normal;font-style:normal;font-size:24px">preallocated std::vector</text>
</g>
</svg>
