<?xml version="1.0"?>
<!-- Generated by SVGo and Plotinum VG -->
<svg width="1920pt" height="1080pt" viewBox="0 0 1920 1080"
	xmlns="http://www.w3.org/2000/svg"
	xmlns:xlink="http://www.w3.org/1999/xlink">
<g transform="scale(1, -1) translate(0, -1080)">
<path d="M0,0L1920,0L1920,1080L0,1080Z" style="fill:#FFFFFF" />
<text x="855.85" y="-1040.9" transform="scale(1, -1)"
	style="font-family:Liberation Serif;font-variant:normal;font-weight:normal;font-style:normal;font-size:50px">push-front</text>
<text x="877.85" y="-9.7559" transform="scale(1, -1)"
	style="font-family:Liberation Serif;font-variant:normal;font-weight:normal;font-style:normal;font-size:30px">Number of elements</text>
<text x="85.618" y="-39.727" transform="scale(1, -1)"
	style="font-family:Liberation Serif;font-variant:normal;font-weight:normal;font-style:normal;font-size:20px">100000</text>
<text x="282.22" y="-39.727" transform="scale(1, -1)"
	style="font-family:Liberation Serif;font-variant:normal;font-weight:normal;font-style:normal;font-size:20px">200000</text>
<text x="478.81" y="-39.727" transform="scale(1, -1)"
	style="font-family:Liberation Serif;font-variant:normal;font-weight:normal;font-style:normal;font-size:20px">300000</text>
<text x="675.41" y="-39.727" transform="scale(1, -1)"
	style="font-family:Liberation Serif;font-variant:normal;font-weight:normal;font-style:normal;font-size:20px">400000</text>
<text x="872.01" y="-39.727" transform="scale(1, -1)"
	style="font-family:Liberation Serif;font-variant:normal;font-weight:normal;font-style:normal;font-size:20px">500000</text>
<text x="1068.6" y="-39.727" transform="scale(1, -1)"
	style="font-family:Liberation Serif;font-variant:normal;font-weight:normal;font-style:normal;font-size:20px">600000</text>
<text x="1265.2" y="-39.727" transform="scale(1, -1)"
	style="font-family:Liberation Serif;font-variant:normal;font-weight:normal;font-style:normal;font-size:20px">700000</text>
<text x="1461.8" y="-39.727" transform="scale(1, -1)"
	style="font-family:Liberation Serif;font-variant:normal;font-weight:normal;font-style:normal;font-size:20px">800000</text>
<text x="1658.4" y="-39.727" transform="scale(1, -1)"
	style="font-family:Liberation Serif;font-variant:normal;font-weight:normal;font-style:normal;font-size:20px">900000</text>
<text x="1850" y="-39.727" transform="scale(1, -1)"
	style="font-family:Liberation Serif;font-variant:normal;font-weight:normal;font-style:normal;font-size:20px">1000000</text>
<path d="M115.62,55.371L115.62,63.371" style="fill:none;stroke:#000000;stroke-width:0.5" />
<path d="M312.22,55.371L312.22,63.371" style="fill:none;stroke:#000000;stroke-width:0.5" />
<path d="M508.81,55.371L508.81,63.371" style="fill:none;stroke:#000000;stroke-width:0.5" />
<path d="M705.41,55.371L705.41,63.371" style="fill:none;stroke:#000000;stroke-width:0.5" />
<path d="M902.01,55.371L902.01,63.371" style="fill:none;stroke:#000000;stroke-width:0.5" />
<path d="M1098.6,55.371L1098.6,63.371" style="fill:none;stroke:#000000;stroke-width:0.5" />
<path d="M1295.2,55.371L1295.2,63.371" style="fill:none;stroke:#000000;stroke-width:0.5" />
<path d="M1491.8,55.371L1491.8,63.371" style="fill:none;stroke:#000000;stroke-width:0.5" />
<path d="M1688.4,55.371L1688.4,63.371" style="fill:none;stroke:#000000;stroke-width:0.5" />
<path d="M1885,55.371L1885,63.371" style="fill:none;stroke:#000000;stroke-width:0.5" />
<path d="M115.62,63.371L1885,63.371" style="fill:none;stroke:#000000;stroke-width:0.5" />
<g transform="rotate(90)">
<text x="538.49" y="23.467" transform="scale(1, -1)"
	style="font-family:Liberation Serif;font-variant:normal;font-weight:normal;font-style:normal;font-size:30px">μs</text>
</g>
<text x="39.712" y="-234.72" transform="scale(1, -1)"
	style="font-family:Liberation Serif;font-variant:normal;font-weight:normal;font-style:normal;font-size:20px">2e+07</text>
<text x="39.712" y="-553.15" transform="scale(1, -1)"
	style="font-family:Liberation Serif;font-variant:normal;font-weight:normal;font-style:normal;font-size:20px">6e+07</text>
<text x="39.712" y="-871.57" transform="scale(1, -1)"
	style="font-family:Liberation Serif;font-variant:normal;font-weight:normal;font-style:normal;font-size:20px">1e+08</text>
<path d="M94.868,239.29L102.87,239.29" style="fill:none;stroke:#000000;stroke-width:0.5" />
<path d="M94.868,557.72L102.87,557.72" style="fill:none;stroke:#000000;stroke-width:0.5" />
<path d="M94.868,876.14L102.87,876.14" style="fill:none;stroke:#000000;stroke-width:0.5" />
<path d="M98.868,159.69L102.87,159.69" style="fill:none;stroke:#000000;stroke-width:0.5" />
<path d="M98.868,318.9L102.87,318.9" style="fill:none;stroke:#000000;stroke-width:0.5" />
<path d="M98.868,398.51L102.87,398.51" style="fill:none;stroke:#000000;stroke-width:0.5" />
<path d="M98.868,478.11L102.87,478.11" style="fill:none;stroke:#000000;stroke-width:0.5" />
<path d="M98.868,637.32L102.87,637.32" style="fill:none;stroke:#000000;stroke-width:0.5" />
<path d="M98.868,716.93L102.87,716.93" style="fill:none;stroke:#000000;stroke-width:0.5" />
<path d="M98.868,796.54L102.87,796.54" style="fill:none;stroke:#000000;stroke-width:0.5" />
<path d="M98.868,955.75L102.87,955.75" style="fill:none;stroke:#000000;stroke-width:0.5" />
<path d="M102.87,80.11L102.87,1024.6" style="fill:none;stroke:#000000;stroke-width:0.5" />
<path d="M115.62,80.11L115.62,1024.6" style="fill:none;stroke:#808080;stroke-width:0.25" />
<path d="M312.22,80.11L312.22,1024.6" style="fill:none;stroke:#808080;stroke-width:0.25" />
<path d="M508.81,80.11L508.81,1024.6" style="fill:none;stroke:#808080;stroke-width:0.25" />
<path d="M705.41,80.11L705.41,1024.6" style="fill:none;stroke:#808080;stroke-width:0.25" />
<path d="M902.01,80.11L902.01,1024.6" style="fill:none;stroke:#808080;stroke-width:0.25" />
<path d="M1098.6,80.11L1098.6,1024.6" style="fill:none;stroke:#808080;stroke-width:0.25" />
<path d="M1295.2,80.11L1295.2,1024.6" style="fill:none;stroke:#808080;stroke-width:0.25" />
<path d="M1491.8,80.11L1491.8,1024.6" style="fill:none;stroke:#808080;stroke-width:0.25" />
<path d="M1688.4,80.11L1688.4,1024.6" style="fill:none;stroke:#808080;stroke-width:0.25" />
<path d="M1885,80.11L1885,1024.6" style="fill:none;stroke:#808080;stroke-width:0.25" />
<path d="M115.62,239.29L1885,239.29" style="fill:none;stroke:#808080;stroke-width:0.25" />
<path d="M115.62,557.72L1885,557.72" style="fill:none;stroke:#808080;stroke-width:0.25" />
<path d="M115.62,876.14L1885,876.14" style="fill:none;stroke:#808080;stroke-width:0.25" />
<path d="M115.62,80.129L312.22,80.172L508.81,80.24L705.41,80.277L902.01,80.308L1098.6,80.347L1295.2,80.388L1491.8,80.438L1688.4,80.476L1885,80.519" style="fill:none;stroke:#FF0000;stroke-width:4" />
<path d="M120.62,80.129A5,5 0 1 1 110.62,80.129A5,5 0 1 1 120.62,80.129Z" style="fill:#FF0000" />
<path d="M317.22,80.172A5,5 0 1 1 307.22,80.172A5,5 0 1 1 317.22,80.172Z" style="fill:#FF0000" />
<path d="M513.81,80.24A5,5 0 1 1 503.81,80.24A5,5 0 1 1 513.81,80.24Z" style="fill:#FF0000" />
<path d="M710.41,80.277A5,5 0 1 1 700.41,80.277A5,5 0 1 1 710.41,80.277Z" style="fill:#FF0000" />
<path d="M907.01,80.308A5,5 0 1 1 897.01,80.308A5,5 0 1 1 907.01,80.308Z" style="fill:#FF0000" />
<path d="M1103.6,80.347A5,5 0 1 1 1093.6,80.347A5,5 0 1 1 1103.6,80.347Z" style="fill:#FF0000" />
<path d="M1300.2,80.388A5,5 0 1 1 1290.2,80.388A5,5 0 1 1 1300.2,80.388Z" style="fill:#FF0000" />
<path d="M1496.8,80.438A5,5 0 1 1 1486.8,80.438A5,5 0 1 1 1496.8,80.438Z" style="fill:#FF0000" />
<path d="M1693.4,80.476A5,5 0 1 1 1683.4,80.476A5,5 0 1 1 1693.4,80.476Z" style="fill:#FF0000" />
<path d="M1890,80.519A5,5 0 1 1 1880,80.519A5,5 0 1 1 1890,80.519Z" style="fill:#FF0000" />
<path d="M115.62,80.11L312.22,80.117L508.81,80.13L705.41,80.15L902.01,80.168L1098.6,80.19L1295.2,80.223L1491.8,80.248L1688.4,80.26L1885,80.279" style="fill:none;stroke:#0000FF;stroke-width:4" />
<path d="M120.62,80.11A5,5 0 1 1 110.62,80.11A5,5 0 1 1 120.62,80.11Z" style="fill:#0000FF" />
<path d="M317.22,80.117A5,5 0 1 1 307.22,80.117A5,5 0 1 1 317.22,80.117Z" style="fill:#0000FF" />
<path d="M513.81,80.13A5,5 0 1 1 503.81,80.13A5,5 0 1 1 513.81,80.13Z" style="fill:#0000FF" />
<path d="M710.41,80.15A5,5 0 1 1 700.41,80.15A5,5 0 1 1 710.41,80.15Z" style="fill:#0000FF" />
<path d="M907.01,80.168A5,5 0 1 1 897.01,80.168A5,5 0 1 1 907.01,80.168Z" style="fill:#0000FF" />
<path d="M1103.6,80.19A5,5 0 1 1 1093.6,80.19A5,5 0 1 1 1103.6,80.19Z" style="fill:#0000FF" />
<path d="M1300.2,80.223A5,5 0 1 1 1290.2,80.223A5,5 0 1 1 1300.2,80.223Z" style="fill:#0000FF" />
<path d="M1496.8,80.248A5,5 0 1 1 1486.8,80.248A5,5 0 1 1 1496.8,80.248Z" style="fill:#0000FF" />
<path d="M1693.4,80.26A5,5 0 1 1 1683.4,80.26A5,5 0 1 1 1693.4,80.26Z" style="fill:#0000FF" />
<path d="M1890,80.279A5,5 0 1 1 1880,80.279A5,5 0 1 1 1890,80.279Z" style="fill:#0000FF" />
<path d="M115.62,84.884L312.22,102.42L508.81,142.7L705.41,205.56L902.01,291.68L1098.6,374.52L1295.2,475.12L1491.8,586.59L1688.4,759.17L1885,938.76" style="fill:none;stroke:#00FF00;stroke-width:4" />
<path d="M120.62,84.884A5,5 0 1 1 110.62,84.884A5,5 0 1 1 120.62,84.884Z" style="fill:#00FF00" />
<path d="M317.22,102.42A5,5 0 1 1 307.22,102.42A5,5 0 1 1 317.22,102.42Z" style="fill:#00FF00" />
<path d="M513.81,142.7A5,5 0 1 1 503.81,142.7A5,5 0 1 1 513.81,142.7Z" style="fill:#00FF00" />
<path d="M710.41,205.56A5,5 0 1 1 700.41,205.56A5,5 0 1 1 710.41,205.56Z" style="fill:#00FF00" />
<path d="M907.01,291.68A5,5 0 1 1 897.01,291.68A5,5 0 1 1 907.01,291.68Z" style="fill:#00FF00" />
<path d="M1103.6,374.52A5,5 0 1 1 1093.6,374.52A5,5 0 1 1 1103.6,374.52Z" style="fill:#00FF00" />
<path d="M1300.2,475.12A5,5 0 1 1 1290.2,475.12A5,5 0 1 1 1300.2,475.12Z" style="fill:#00FF00" />
<path d="M1496.8,586.59A5,5 0 1 1 1486.8,586.59A5,5 0 1 1 1496.8,586.59Z" style="fill:#00FF00" />
<path d="M1693.4,759.17A5,5 0 1 1 1683.4,759.17A5,5 0 1 1 1693.4,759.17Z" style="fill:#00FF00" />
<path d="M1890,938.76A5,5 0 1 1 1880,938.76A5,5 0 1 1 1890,938.76Z" style="fill:#00FF00" />
<path d="M1900,126.03L1920,126.03" style="fill:none;stroke:#FF0000;stroke-width:4" />
<path d="M1915,126.03A5,5 0 1 1 1905,126.03A5,5 0 1 1 1915,126.03Z" style="fill:#FF0000" />
<text x="1823.3" y="-121.05" transform="scale(1, -1)"
	style="font-family:Liberation Serif;font-variant:normal;font-weight:normal;font-style:normal;font-size:24px">std::list</text>
<path d="M1900,105.66L1920,105.66" style="fill:none;stroke:#0000FF;stroke-width:4" />
<path d="M1915,105.66A5,5 0 1 1 1905,105.66A5,5 0 1 1 1915,105.66Z" style="fill:#0000FF" />
<text x="1795.4" y="-100.69" transform="scale(1, -1)"
	style="font-family:Liberation Serif;font-variant:normal;font-weight:normal;font-style:normal;font-size:24px">std::deque</text>
<path d="M1900,85.294L1920,85.294" style="fill:none;stroke:#00FF00;stroke-width:4" />
<path d="M1915,85.294A5,5 0 1 1 1905,85.294A5,5 0 1 1 1915,85.294Z" style="fill:#00FF00" />
<text x="1792.7" y="-80.319" transform="scale(1, -1)"
	style="font-family:Liberation Serif;font-variant:normal;font-weight:normal;font-style:normal;font-size:24px">std::vector</text>
</g>
</svg>
