<?xml version="1.0"?>
<!-- Generated by SVGo and Plotinum VG -->
<svg width="1920pt" height="1080pt" viewBox="0 0 1920 1080"
	xmlns="http://www.w3.org/2000/svg"
	xmlns:xlink="http://www.w3.org/1999/xlink">
<g transform="scale(1, -1) translate(0, -1080)">
<path d="M0,0L1920,0L1920,1080L0,1080Z" style="fill:#FFFFFF" />
<text x="734.37" y="-1040.9" transform="scale(1, -1)"
	style="font-family:Liberation Serif;font-variant:normal;font-weight:normal;font-style:normal;font-size:50px">push-front - Log Scale</text>
<text x="877.85" y="-9.7559" transform="scale(1, -1)"
	style="font-family:Liberation Serif;font-variant:normal;font-weight:normal;font-style:normal;font-size:30px">Number of elements</text>
<text x="85.618" y="-39.727" transform="scale(1, -1)"
	style="font-family:Liberation Serif;font-variant:normal;font-weight:normal;font-style:normal;font-size:20px">100000</text>
<text x="282.22" y="-39.727" transform="scale(1, -1)"
	style="font-family:Liberation Serif;font-variant:normal;font-weight:normal;font-style:normal;font-size:20px">200000</text>
<text x="478.81" y="-39.727" transform="scale(1, -1)"
	style="font-family:Liberation Serif;font-variant:normal;font-weight:normal;font-style:normal;font-size:20px">300000</text>
<text x="675.41" y="-39.727" transform="scale(1, -1)"
	style="font-family:Liberation Serif;font-variant:normal;font-weight:normal;font-style:normal;font-size:20px">400000</text>
<text x="872.01" y="-39.727" transform="scale(1, -1)"
	style="font-family:Liberation Serif;font-variant:normal;font-weight:normal;font-style:normal;font-size:20px">500000</text>
<text x="1068.6" y="-39.727" transform="scale(1, -1)"
	style="font-family:Liberation Serif;font-variant:normal;font-weight:normal;font-style:normal;font-size:20px">600000</text>
<text x="1265.2" y="-39.727" transform="scale(1, -1)"
	style="font-family:Liberation Serif;font-variant:normal;font-weight:normal;font-style:normal;font-size:20px">700000</text>
<text x="1461.8" y="-39.727" transform="scale(1, -1)"
	style="font-family:Liberation Serif;font-variant:normal;font-weight:normal;font-style:normal;font-size:20px">800000</text>
<text x="1658.4" y="-39.727" transform="scale(1, -1)"
	style="font-family:Liberation Serif;font-variant:normal;font-weight:normal;font-style:normal;font-size:20px">900000</text>
<text x="1850" y="-39.727" transform="scale(1, -1)"
	style="font-family:Liberation Serif;font-variant:normal;font-weight:normal;font-style:normal;font-size:20px">1000000</text>
<path d="M115.62,55.371L115.62,63.371" style="fill:none;stroke:#000000;stroke-width:0.5" />
<path d="M312.22,55.371L312.22,63.371" style="fill:none;stroke:#000000;stroke-width:0.5" />
<path d="M508.81,55.371L508.81,63.371" style="fill:none;stroke:#000000;stroke-width:0.5" />
<path d="M705.41,55.371L705.41,63.371" style="fill:none;stroke:#000000;stroke-width:0.5" />
<path d="M902.01,55.371L902.01,63.371" style="fill:none;stroke:#000000;stroke-width:0.5" />
<path d="M1098.6,55.371L1098.6,63.371" style="fill:none;stroke:#000000;stroke-width:0.5" />
<path d="M1295.2,55.371L1295.2,63.371" style="fill:none;stroke:#000000;stroke-width:0.5" />
<path d="M1491.8,55.371L1491.8,63.371" style="fill:none;stroke:#000000;stroke-width:0.5" />
<path d="M1688.4,55.371L1688.4,63.371" style="fill:none;stroke:#000000;stroke-width:0.5" />
<path d="M1885,55.371L1885,63.371" style="fill:none;stroke:#000000;stroke-width:0.5" />
<path d="M115.62,63.371L1885,63.371" style="fill:none;stroke:#000000;stroke-width:0.5" />
<g transform="rotate(90)">
<text x="484.42" y="23.467" transform="scale(1, -1)"
	style="font-family:Liberation Serif;font-variant:normal;font-weight:normal;font-style:normal;font-size:30px">log(μs + 1)</text>
</g>
<text x="39.712" y="-857.27" transform="scale(1, -1)"
	style="font-family:Liberation Serif;font-variant:normal;font-weight:normal;font-style:normal;font-size:20px">2e+07</text>
<text x="39.712" y="-958.06" transform="scale(1, -1)"
	style="font-family:Liberation Serif;font-variant:normal;font-weight:normal;font-style:normal;font-size:20px">6e+07</text>
<text x="39.712" y="-1004.9" transform="scale(1, -1)"
	style="font-family:Liberation Serif;font-variant:normal;font-weight:normal;font-style:normal;font-size:20px">1e+08</text>
<path d="M94.868,861.84L102.87,861.84" style="fill:none;stroke:#000000;stroke-width:0.5" />
<path d="M94.868,962.63L102.87,962.63" style="fill:none;stroke:#000000;stroke-width:0.5" />
<path d="M94.868,1009.5L102.87,1009.5" style="fill:none;stroke:#000000;stroke-width:0.5" />
<path d="M98.868,798.25L102.87,798.25" style="fill:none;stroke:#000000;stroke-width:0.5" />
<path d="M98.868,899.04L102.87,899.04" style="fill:none;stroke:#000000;stroke-width:0.5" />
<path d="M98.868,925.43L102.87,925.43" style="fill:none;stroke:#000000;stroke-width:0.5" />
<path d="M98.868,945.9L102.87,945.9" style="fill:none;stroke:#000000;stroke-width:0.5" />
<path d="M98.868,976.77L102.87,976.77" style="fill:none;stroke:#000000;stroke-width:0.5" />
<path d="M98.868,989.02L102.87,989.02" style="fill:none;stroke:#000000;stroke-width:0.5" />
<path d="M98.868,999.83L102.87,999.83" style="fill:none;stroke:#000000;stroke-width:0.5" />
<path d="M98.868,1018.2L102.87,1018.2" style="fill:none;stroke:#000000;stroke-width:0.5" />
<path d="M102.87,80.11L102.87,1021.7" style="fill:none;stroke:#000000;stroke-width:0.5" />
<path d="M115.62,80.11L115.62,1021.7" style="fill:none;stroke:#808080;stroke-width:0.25" />
<path d="M312.22,80.11L312.22,1021.7" style="fill:none;stroke:#808080;stroke-width:0.25" />
<path d="M508.81,80.11L508.81,1021.7" style="fill:none;stroke:#808080;stroke-width:0.25" />
<path d="M705.41,80.11L705.41,1021.7" style="fill:none;stroke:#808080;stroke-width:0.25" />
<path d="M902.01,80.11L902.01,1021.7" style="fill:none;stroke:#808080;stroke-width:0.25" />
<path d="M1098.6,80.11L1098.6,1021.7" style="fill:none;stroke:#808080;stroke-width:0.25" />
<path d="M1295.2,80.11L1295.2,1021.7" style="fill:none;stroke:#808080;stroke-width:0.25" />
<path d="M1491.8,80.11L1491.8,1021.7" style="fill:none;stroke:#808080;stroke-width:0.25" />
<path d="M1688.4,80.11L1688.4,1021.7" style="fill:none;stroke:#808080;stroke-width:0.25" />
<path d="M1885,80.11L1885,1021.7" style="fill:none;stroke:#808080;stroke-width:0.25" />
<path d="M115.62,861.84L1885,861.84" style="fill:none;stroke:#808080;stroke-width:0.25" />
<path d="M115.62,962.63L1885,962.63" style="fill:none;stroke:#808080;stroke-width:0.25" />
<path d="M115.62,1009.5L1885,1009.5" style="fill:none;stroke:#808080;stroke-width:0.25" />
<path d="M115.62,546.78L312.22,684.44L508.81,778.98L705.41,836.51L902.01,876.77L1098.6,914.51L1295.2,950.09L1491.8,973.37L1688.4,996.13L1885,1013" style="fill:none;stroke:#FF0000;stroke-width:4" />
<path d="M120.62,546.78A5,5 0 1 1 110.62,546.78A5,5 0 1 1 120.62,546.78Z" style="fill:#FF0000" />
<path d="M317.22,684.44A5,5 0 1 1 307.22,684.44A5,5 0 1 1 317.22,684.44Z" style="fill:#FF0000" />
<path d="M513.81,778.98A5,5 0 1 1 503.81,778.98A5,5 0 1 1 513.81,778.98Z" style="fill:#FF0000" />
<path d="M710.41,836.51A5,5 0 1 1 700.41,836.51A5,5 0 1 1 710.41,836.51Z" style="fill:#FF0000" />
<path d="M907.01,876.77A5,5 0 1 1 897.01,876.77A5,5 0 1 1 907.01,876.77Z" style="fill:#FF0000" />
<path d="M1103.6,914.51A5,5 0 1 1 1093.6,914.51A5,5 0 1 1 1103.6,914.51Z" style="fill:#FF0000" />
<path d="M1300.2,950.09A5,5 0 1 1 1290.2,950.09A5,5 0 1 1 1300.2,950.09Z" style="fill:#FF0000" />
<path d="M1496.8,973.37A5,5 0 1 1 1486.8,973.37A5,5 0 1 1 1496.8,973.37Z" style="fill:#FF0000" />
<path d="M1693.4,996.13A5,5 0 1 1 1683.4,996.13A5,5 0 1 1 1693.4,996.13Z" style="fill:#FF0000" />
<path d="M1890,1013A5,5 0 1 1 1880,1013A5,5 0 1 1 1890,1013Z" style="fill:#FF0000" />
<path d="M115.62,137.55L312.22,195.28L508.81,218.27L705.41,265.16L902.01,275.76L1098.6,288.58L1295.2,297.94L1491.8,311.07L1688.4,330L1885,347.23" style="fill:none;stroke:#0000FF;stroke-width:4" />
<path d="M120.62,137.55A5,5 0 1 1 110.62,137.55A5,5 0 1 1 120.62,137.55Z" style="fill:#0000FF" />
<path d="M317.22,195.28A5,5 0 1 1 307.22,195.28A5,5 0 1 1 317.22,195.28Z" style="fill:#0000FF" />
<path d="M513.81,218.27A5,5 0 1 1 503.81,218.27A5,5 0 1 1 513.81,218.27Z" style="fill:#0000FF" />
<path d="M710.41,265.16A5,5 0 1 1 700.41,265.16A5,5 0 1 1 710.41,265.16Z" style="fill:#0000FF" />
<path d="M907.01,275.76A5,5 0 1 1 897.01,275.76A5,5 0 1 1 907.01,275.76Z" style="fill:#0000FF" />
<path d="M1103.6,288.58A5,5 0 1 1 1093.6,288.58A5,5 0 1 1 1103.6,288.58Z" style="fill:#0000FF" />
<path d="M1300.2,297.94A5,5 0 1 1 1290.2,297.94A5,5 0 1 1 1300.2,297.94Z" style="fill:#0000FF" />
<path d="M1496.8,311.07A5,5 0 1 1 1486.8,311.07A5,5 0 1 1 1496.8,311.07Z" style="fill:#0000FF" />
<path d="M1693.4,330A5,5 0 1 1 1683.4,330A5,5 0 1 1 1693.4,330Z" style="fill:#0000FF" />
<path d="M1890,347.23A5,5 0 1 1 1880,347.23A5,5 0 1 1 1890,347.23Z" style="fill:#0000FF" />
<path d="M115.62,80.11L312.22,99.804L508.81,133.49L705.41,165.26L902.01,181L1098.6,193.67L1295.2,216.45L1491.8,215.9L1688.4,229.67L1885,246.89" style="fill:none;stroke:#00FF00;stroke-width:4" />
<path d="M120.62,80.11A5,5 0 1 1 110.62,80.11A5,5 0 1 1 120.62,80.11Z" style="fill:#00FF00" />
<path d="M317.22,99.804A5,5 0 1 1 307.22,99.804A5,5 0 1 1 317.22,99.804Z" style="fill:#00FF00" />
<path d="M513.81,133.49A5,5 0 1 1 503.81,133.49A5,5 0 1 1 513.81,133.49Z" style="fill:#00FF00" />
<path d="M710.41,165.26A5,5 0 1 1 700.41,165.26A5,5 0 1 1 710.41,165.26Z" style="fill:#00FF00" />
<path d="M907.01,181A5,5 0 1 1 897.01,181A5,5 0 1 1 907.01,181Z" style="fill:#00FF00" />
<path d="M1103.6,193.67A5,5 0 1 1 1093.6,193.67A5,5 0 1 1 1103.6,193.67Z" style="fill:#00FF00" />
<path d="M1300.2,216.45A5,5 0 1 1 1290.2,216.45A5,5 0 1 1 1300.2,216.45Z" style="fill:#00FF00" />
<path d="M1496.8,215.9A5,5 0 1 1 1486.8,215.9A5,5 0 1 1 1496.8,215.9Z" style="fill:#00FF00" />
<path d="M1693.4,229.67A5,5 0 1 1 1683.4,229.67A5,5 0 1 1 1693.4,229.67Z" style="fill:#00FF00" />
<path d="M1890,246.89A5,5 0 1 1 1880,246.89A5,5 0 1 1 1890,246.89Z" style="fill:#00FF00" />
<path d="M1900,126.03L1920,126.03" style="fill:none;stroke:#FF0000;stroke-width:4" />
<path d="M1915,126.03A5,5 0 1 1 1905,126.03A5,5 0 1 1 1915,126.03Z" style="fill:#FF0000" />
<text x="1792.7" y="-121.05" transform="scale(1, -1)"
	style="font-family:Liberation Serif;font-variant:normal;font-weight:normal;font-style:normal;font-size:24px">std::vector</text>
<path d="M1900,105.66L1920,105.66" style="fill:none;stroke:#0000FF;stroke-width:4" />
<path d="M1915,105.66A5,5 0 1 1 1905,105.66A5,5 0 1 1 1915,105.66Z" style="fill:#0000FF" />
<text x="1823.3" y="-100.69" transform="scale(1, -1)"
	style="font-family:Liberation Serif;font-variant:normal;font-weight:normal;font-style:normal;font-size:24px">std::list</text>
<path d="M1900,85.294L1920,85.294" style="fill:none;stroke:#00FF00;stroke-width:4" />
<path d="M1915,85.294A5,5 0 1 1 1905,85.294A5,5 0 1 1 1915,85.294Z" style="fill:#00FF00" />
<text x="1795.4" y="-80.319" transform="scale(1, -1)"
	style="font-family:Liberation Serif;font-variant:normal;font-weight:normal;font-style:normal;font-size:24px">std::deque</text>
</g>
</svg>
