<?xml version="1.0"?>
<!-- Generated by SVGo and Plotinum VG -->
<svg width="1920pt" height="1080pt" viewBox="0 0 1920 1080"
	xmlns="http://www.w3.org/2000/svg"
	xmlns:xlink="http://www.w3.org/1999/xlink">
<g transform="scale(1, -1) translate(0, -1080)">
<path d="M0,0L1920,0L1920,1080L0,1080Z" style="fill:#FFFFFF" />
<text x="734.37" y="-1040.9" transform="scale(1, -1)"
	style="font-family:Liberation Serif;font-variant:normal;font-weight:normal;font-style:normal;font-size:50px">push-front - Log Scale</text>
<text x="882.77" y="-9.7559" transform="scale(1, -1)"
	style="font-family:Liberation Serif;font-variant:normal;font-weight:normal;font-style:normal;font-size:30px">Number of elements</text>
<text x="95.462" y="-39.727" transform="scale(1, -1)"
	style="font-family:Liberation Serif;font-variant:normal;font-weight:normal;font-style:normal;font-size:20px">100000</text>
<text x="290.97" y="-39.727" transform="scale(1, -1)"
	style="font-family:Liberation Serif;font-variant:normal;font-weight:normal;font-style:normal;font-size:20px">200000</text>
<text x="486.47" y="-39.727" transform="scale(1, -1)"
	style="font-family:Liberation Serif;font-variant:normal;font-weight:normal;font-style:normal;font-size:20px">300000</text>
<text x="681.97" y="-39.727" transform="scale(1, -1)"
	style="font-family:Liberation Serif;font-variant:normal;font-weight:normal;font-style:normal;font-size:20px">400000</text>
<text x="877.48" y="-39.727" transform="scale(1, -1)"
	style="font-family:Liberation Serif;font-variant:normal;font-weight:normal;font-style:normal;font-size:20px">500000</text>
<text x="1073" y="-39.727" transform="scale(1, -1)"
	style="font-family:Liberation Serif;font-variant:normal;font-weight:normal;font-style:normal;font-size:20px">600000</text>
<text x="1268.5" y="-39.727" transform="scale(1, -1)"
	style="font-family:Liberation Serif;font-variant:normal;font-weight:normal;font-style:normal;font-size:20px">700000</text>
<text x="1464" y="-39.727" transform="scale(1, -1)"
	style="font-family:Liberation Serif;font-variant:normal;font-weight:normal;font-style:normal;font-size:20px">800000</text>
<text x="1659.5" y="-39.727" transform="scale(1, -1)"
	style="font-family:Liberation Serif;font-variant:normal;font-weight:normal;font-style:normal;font-size:20px">900000</text>
<text x="1850" y="-39.727" transform="scale(1, -1)"
	style="font-family:Liberation Serif;font-variant:normal;font-weight:normal;font-style:normal;font-size:20px">1000000</text>
<path d="M125.46,55.371L125.46,63.371" style="fill:none;stroke:#000000;stroke-width:0.5" />
<path d="M320.97,55.371L320.97,63.371" style="fill:none;stroke:#000000;stroke-width:0.5" />
<path d="M516.47,55.371L516.47,63.371" style="fill:none;stroke:#000000;stroke-width:0.5" />
<path d="M711.97,55.371L711.97,63.371" style="fill:none;stroke:#000000;stroke-width:0.5" />
<path d="M907.48,55.371L907.48,63.371" style="fill:none;stroke:#000000;stroke-width:0.5" />
<path d="M1103,55.371L1103,63.371" style="fill:none;stroke:#000000;stroke-width:0.5" />
<path d="M1298.5,55.371L1298.5,63.371" style="fill:none;stroke:#000000;stroke-width:0.5" />
<path d="M1494,55.371L1494,63.371" style="fill:none;stroke:#000000;stroke-width:0.5" />
<path d="M1689.5,55.371L1689.5,63.371" style="fill:none;stroke:#000000;stroke-width:0.5" />
<path d="M1885,55.371L1885,63.371" style="fill:none;stroke:#000000;stroke-width:0.5" />
<path d="M125.46,63.371L1885,63.371" style="fill:none;stroke:#000000;stroke-width:0.5" />
<g transform="rotate(90)">
<text x="485.87" y="23.467" transform="scale(1, -1)"
	style="font-family:Liberation Serif;font-variant:normal;font-weight:normal;font-style:normal;font-size:30px">log(μs + 1)</text>
</g>
<text x="39.712" y="-547.96" transform="scale(1, -1)"
	style="font-family:Liberation Serif;font-variant:normal;font-weight:normal;font-style:normal;font-size:20px">100000</text>
<text x="39.712" y="-776.29" transform="scale(1, -1)"
	style="font-family:Liberation Serif;font-variant:normal;font-weight:normal;font-style:normal;font-size:20px">200000</text>
<text x="39.712" y="-909.85" transform="scale(1, -1)"
	style="font-family:Liberation Serif;font-variant:normal;font-weight:normal;font-style:normal;font-size:20px">300000</text>
<text x="39.712" y="-1004.6" transform="scale(1, -1)"
	style="font-family:Liberation Serif;font-variant:normal;font-weight:normal;font-style:normal;font-size:20px">400000</text>
<path d="M104.71,552.53L112.71,552.53" style="fill:none;stroke:#000000;stroke-width:0.5" />
<path d="M104.71,780.86L112.71,780.86" style="fill:none;stroke:#000000;stroke-width:0.5" />
<path d="M104.71,914.42L112.71,914.42" style="fill:none;stroke:#000000;stroke-width:0.5" />
<path d="M104.71,1009.2L112.71,1009.2" style="fill:none;stroke:#000000;stroke-width:0.5" />
<path d="M108.71,250.7L112.71,250.7" style="fill:none;stroke:#000000;stroke-width:0.5" />
<path d="M108.71,384.27L112.71,384.27" style="fill:none;stroke:#000000;stroke-width:0.5" />
<path d="M108.71,479.03L112.71,479.03" style="fill:none;stroke:#000000;stroke-width:0.5" />
<path d="M108.71,612.59L112.71,612.59" style="fill:none;stroke:#000000;stroke-width:0.5" />
<path d="M108.71,663.37L112.71,663.37" style="fill:none;stroke:#000000;stroke-width:0.5" />
<path d="M108.71,707.35L112.71,707.35" style="fill:none;stroke:#000000;stroke-width:0.5" />
<path d="M108.71,746.15L112.71,746.15" style="fill:none;stroke:#000000;stroke-width:0.5" />
<path d="M108.71,812.25L112.71,812.25" style="fill:none;stroke:#000000;stroke-width:0.5" />
<path d="M108.71,840.91L112.71,840.91" style="fill:none;stroke:#000000;stroke-width:0.5" />
<path d="M108.71,867.28L112.71,867.28" style="fill:none;stroke:#000000;stroke-width:0.5" />
<path d="M108.71,891.69L112.71,891.69" style="fill:none;stroke:#000000;stroke-width:0.5" />
<path d="M108.71,935.68L112.71,935.68" style="fill:none;stroke:#000000;stroke-width:0.5" />
<path d="M108.71,955.65L112.71,955.65" style="fill:none;stroke:#000000;stroke-width:0.5" />
<path d="M108.71,974.47L112.71,974.47" style="fill:none;stroke:#000000;stroke-width:0.5" />
<path d="M108.71,992.28L112.71,992.28" style="fill:none;stroke:#000000;stroke-width:0.5" />
<path d="M112.71,80.11L112.71,1024.6" style="fill:none;stroke:#000000;stroke-width:0.5" />
<path d="M125.46,80.11L125.46,1024.6" style="fill:none;stroke:#808080;stroke-width:0.25" />
<path d="M320.97,80.11L320.97,1024.6" style="fill:none;stroke:#808080;stroke-width:0.25" />
<path d="M516.47,80.11L516.47,1024.6" style="fill:none;stroke:#808080;stroke-width:0.25" />
<path d="M711.97,80.11L711.97,1024.6" style="fill:none;stroke:#808080;stroke-width:0.25" />
<path d="M907.48,80.11L907.48,1024.6" style="fill:none;stroke:#808080;stroke-width:0.25" />
<path d="M1103,80.11L1103,1024.6" style="fill:none;stroke:#808080;stroke-width:0.25" />
<path d="M1298.5,80.11L1298.5,1024.6" style="fill:none;stroke:#808080;stroke-width:0.25" />
<path d="M1494,80.11L1494,1024.6" style="fill:none;stroke:#808080;stroke-width:0.25" />
<path d="M1689.5,80.11L1689.5,1024.6" style="fill:none;stroke:#808080;stroke-width:0.25" />
<path d="M1885,80.11L1885,1024.6" style="fill:none;stroke:#808080;stroke-width:0.25" />
<path d="M125.46,552.53L1885,552.53" style="fill:none;stroke:#808080;stroke-width:0.25" />
<path d="M125.46,780.86L1885,780.86" style="fill:none;stroke:#808080;stroke-width:0.25" />
<path d="M125.46,914.42L1885,914.42" style="fill:none;stroke:#808080;stroke-width:0.25" />
<path d="M125.46,1009.2L1885,1009.2" style="fill:none;stroke:#808080;stroke-width:0.25" />
<path d="M125.46,80.11L320.97,366.71L516.47,573.46L711.97,711.06L907.48,790.67L1103,873.73L1298.5,866.33L1494,938.63L1689.5,969.43L1885,993.23" style="fill:none;stroke:#FF0000;stroke-width:4" />
<path d="M130.46,80.11A5,5 0 1 1 120.46,80.11A5,5 0 1 1 130.46,80.11Z" style="fill:#FF0000" />
<path d="M325.97,366.71A5,5 0 1 1 315.97,366.71A5,5 0 1 1 325.97,366.71Z" style="fill:#FF0000" />
<path d="M521.47,573.46A5,5 0 1 1 511.47,573.46A5,5 0 1 1 521.47,573.46Z" style="fill:#FF0000" />
<path d="M716.97,711.06A5,5 0 1 1 706.97,711.06A5,5 0 1 1 716.97,711.06Z" style="fill:#FF0000" />
<path d="M912.48,790.67A5,5 0 1 1 902.48,790.67A5,5 0 1 1 912.48,790.67Z" style="fill:#FF0000" />
<path d="M1108,873.73A5,5 0 1 1 1098,873.73A5,5 0 1 1 1108,873.73Z" style="fill:#FF0000" />
<path d="M1303.5,866.33A5,5 0 1 1 1293.5,866.33A5,5 0 1 1 1303.5,866.33Z" style="fill:#FF0000" />
<path d="M1499,938.63A5,5 0 1 1 1489,938.63A5,5 0 1 1 1499,938.63Z" style="fill:#FF0000" />
<path d="M1694.5,969.43A5,5 0 1 1 1684.5,969.43A5,5 0 1 1 1694.5,969.43Z" style="fill:#FF0000" />
<path d="M1890,993.23A5,5 0 1 1 1880,993.23A5,5 0 1 1 1890,993.23Z" style="fill:#FF0000" />
<path d="M125.46,100.8L320.97,330.17L516.47,504.67L711.97,582.73L907.48,627.35L1103,681.69L1298.5,751.31L1494,787.01L1689.5,820.28L1885,866.39" style="fill:none;stroke:#0000FF;stroke-width:4" />
<path d="M130.46,100.8A5,5 0 1 1 120.46,100.8A5,5 0 1 1 130.46,100.8Z" style="fill:#0000FF" />
<path d="M325.97,330.17A5,5 0 1 1 315.97,330.17A5,5 0 1 1 325.97,330.17Z" style="fill:#0000FF" />
<path d="M521.47,504.67A5,5 0 1 1 511.47,504.67A5,5 0 1 1 521.47,504.67Z" style="fill:#0000FF" />
<path d="M716.97,582.73A5,5 0 1 1 706.97,582.73A5,5 0 1 1 716.97,582.73Z" style="fill:#0000FF" />
<path d="M912.48,627.35A5,5 0 1 1 902.48,627.35A5,5 0 1 1 912.48,627.35Z" style="fill:#0000FF" />
<path d="M1108,681.69A5,5 0 1 1 1098,681.69A5,5 0 1 1 1108,681.69Z" style="fill:#0000FF" />
<path d="M1303.5,751.31A5,5 0 1 1 1293.5,751.31A5,5 0 1 1 1303.5,751.31Z" style="fill:#0000FF" />
<path d="M1499,787.01A5,5 0 1 1 1489,787.01A5,5 0 1 1 1499,787.01Z" style="fill:#0000FF" />
<path d="M1694.5,820.28A5,5 0 1 1 1684.5,820.28A5,5 0 1 1 1694.5,820.28Z" style="fill:#0000FF" />
<path d="M1890,866.39A5,5 0 1 1 1880,866.39A5,5 0 1 1 1890,866.39Z" style="fill:#0000FF" />
<path d="M1900,105.66L1920,105.66" style="fill:none;stroke:#FF0000;stroke-width:4" />
<path d="M1915,105.66A5,5 0 1 1 1905,105.66A5,5 0 1 1 1915,105.66Z" style="fill:#FF0000" />
<text x="1823.3" y="-100.69" transform="scale(1, -1)"
	style="font-family:Liberation Serif;font-variant:normal;font-weight:normal;font-style:normal;font-size:24px">std::list</text>
<path d="M1900,85.294L1920,85.294" style="fill:none;stroke:#0000FF;stroke-width:4" />
<path d="M1915,85.294A5,5 0 1 1 1905,85.294A5,5 0 1 1 1915,85.294Z" style="fill:#0000FF" />
<text x="1795.4" y="-80.319" transform="scale(1, -1)"
	style="font-family:Liberation Serif;font-variant:normal;font-weight:normal;font-style:normal;font-size:24px">std::deque</text>
</g>
</svg>
