<?xml version="1.0"?>
<!-- Generated by SVGo and Plotinum VG -->
<svg width="1920pt" height="1080pt" viewBox="0 0 1920 1080"
	xmlns="http://www.w3.org/2000/svg"
	xmlns:xlink="http://www.w3.org/1999/xlink">
<g transform="scale(1, -1) translate(0, -1080)">
<path d="M0,0L1920,0L1920,1080L0,1080Z" style="fill:#FFFFFF" />
<text x="855.85" y="-1040.9" transform="scale(1, -1)"
	style="font-family:Liberation Serif;font-variant:normal;font-weight:normal;font-style:normal;font-size:50px">push-front</text>
<text x="877.77" y="-9.7559" transform="scale(1, -1)"
	style="font-family:Liberation Serif;font-variant:normal;font-weight:normal;font-style:normal;font-size:30px">Number of elements</text>
<text x="85.462" y="-39.727" transform="scale(1, -1)"
	style="font-family:Liberation Serif;font-variant:normal;font-weight:normal;font-style:normal;font-size:20px">100000</text>
<text x="282.08" y="-39.727" transform="scale(1, -1)"
	style="font-family:Liberation Serif;font-variant:normal;font-weight:normal;font-style:normal;font-size:20px">200000</text>
<text x="478.69" y="-39.727" transform="scale(1, -1)"
	style="font-family:Liberation Serif;font-variant:normal;font-weight:normal;font-style:normal;font-size:20px">300000</text>
<text x="675.31" y="-39.727" transform="scale(1, -1)"
	style="font-family:Liberation Serif;font-variant:normal;font-weight:normal;font-style:normal;font-size:20px">400000</text>
<text x="871.92" y="-39.727" transform="scale(1, -1)"
	style="font-family:Liberation Serif;font-variant:normal;font-weight:normal;font-style:normal;font-size:20px">500000</text>
<text x="1068.5" y="-39.727" transform="scale(1, -1)"
	style="font-family:Liberation Serif;font-variant:normal;font-weight:normal;font-style:normal;font-size:20px">600000</text>
<text x="1265.2" y="-39.727" transform="scale(1, -1)"
	style="font-family:Liberation Serif;font-variant:normal;font-weight:normal;font-style:normal;font-size:20px">700000</text>
<text x="1461.8" y="-39.727" transform="scale(1, -1)"
	style="font-family:Liberation Serif;font-variant:normal;font-weight:normal;font-style:normal;font-size:20px">800000</text>
<text x="1658.4" y="-39.727" transform="scale(1, -1)"
	style="font-family:Liberation Serif;font-variant:normal;font-weight:normal;font-style:normal;font-size:20px">900000</text>
<text x="1850" y="-39.727" transform="scale(1, -1)"
	style="font-family:Liberation Serif;font-variant:normal;font-weight:normal;font-style:normal;font-size:20px">1000000</text>
<path d="M115.46,55.371L115.46,63.371" style="fill:none;stroke:#000000;stroke-width:0.5" />
<path d="M312.08,55.371L312.08,63.371" style="fill:none;stroke:#000000;stroke-width:0.5" />
<path d="M508.69,55.371L508.69,63.371" style="fill:none;stroke:#000000;stroke-width:0.5" />
<path d="M705.31,55.371L705.31,63.371" style="fill:none;stroke:#000000;stroke-width:0.5" />
<path d="M901.92,55.371L901.92,63.371" style="fill:none;stroke:#000000;stroke-width:0.5" />
<path d="M1098.5,55.371L1098.5,63.371" style="fill:none;stroke:#000000;stroke-width:0.5" />
<path d="M1295.2,55.371L1295.2,63.371" style="fill:none;stroke:#000000;stroke-width:0.5" />
<path d="M1491.8,55.371L1491.8,63.371" style="fill:none;stroke:#000000;stroke-width:0.5" />
<path d="M1688.4,55.371L1688.4,63.371" style="fill:none;stroke:#000000;stroke-width:0.5" />
<path d="M1885,55.371L1885,63.371" style="fill:none;stroke:#000000;stroke-width:0.5" />
<path d="M115.46,63.371L1885,63.371" style="fill:none;stroke:#000000;stroke-width:0.5" />
<g transform="rotate(90)">
<text x="538.49" y="23.467" transform="scale(1, -1)"
	style="font-family:Liberation Serif;font-variant:normal;font-weight:normal;font-style:normal;font-size:30px">μs</text>
</g>
<text x="39.712" y="-114.83" transform="scale(1, -1)"
	style="font-family:Liberation Serif;font-variant:normal;font-weight:normal;font-style:normal;font-size:20px">10000</text>
<text x="39.712" y="-530.84" transform="scale(1, -1)"
	style="font-family:Liberation Serif;font-variant:normal;font-weight:normal;font-style:normal;font-size:20px">50000</text>
<text x="39.712" y="-946.84" transform="scale(1, -1)"
	style="font-family:Liberation Serif;font-variant:normal;font-weight:normal;font-style:normal;font-size:20px">90000</text>
<path d="M94.712,119.4L102.71,119.4" style="fill:none;stroke:#000000;stroke-width:0.5" />
<path d="M94.712,535.41L102.71,535.41" style="fill:none;stroke:#000000;stroke-width:0.5" />
<path d="M94.712,951.41L102.71,951.41" style="fill:none;stroke:#000000;stroke-width:0.5" />
<path d="M98.712,223.4L102.71,223.4" style="fill:none;stroke:#000000;stroke-width:0.5" />
<path d="M98.712,327.41L102.71,327.41" style="fill:none;stroke:#000000;stroke-width:0.5" />
<path d="M98.712,431.41L102.71,431.41" style="fill:none;stroke:#000000;stroke-width:0.5" />
<path d="M98.712,639.41L102.71,639.41" style="fill:none;stroke:#000000;stroke-width:0.5" />
<path d="M98.712,743.41L102.71,743.41" style="fill:none;stroke:#000000;stroke-width:0.5" />
<path d="M98.712,847.41L102.71,847.41" style="fill:none;stroke:#000000;stroke-width:0.5" />
<path d="M102.71,80.11L102.71,1024.6" style="fill:none;stroke:#000000;stroke-width:0.5" />
<path d="M115.46,80.11L115.46,1024.6" style="fill:none;stroke:#808080;stroke-width:0.25" />
<path d="M312.08,80.11L312.08,1024.6" style="fill:none;stroke:#808080;stroke-width:0.25" />
<path d="M508.69,80.11L508.69,1024.6" style="fill:none;stroke:#808080;stroke-width:0.25" />
<path d="M705.31,80.11L705.31,1024.6" style="fill:none;stroke:#808080;stroke-width:0.25" />
<path d="M901.92,80.11L901.92,1024.6" style="fill:none;stroke:#808080;stroke-width:0.25" />
<path d="M1098.5,80.11L1098.5,1024.6" style="fill:none;stroke:#808080;stroke-width:0.25" />
<path d="M1295.2,80.11L1295.2,1024.6" style="fill:none;stroke:#808080;stroke-width:0.25" />
<path d="M1491.8,80.11L1491.8,1024.6" style="fill:none;stroke:#808080;stroke-width:0.25" />
<path d="M1688.4,80.11L1688.4,1024.6" style="fill:none;stroke:#808080;stroke-width:0.25" />
<path d="M1885,80.11L1885,1024.6" style="fill:none;stroke:#808080;stroke-width:0.25" />
<path d="M115.46,119.4L1885,119.4" style="fill:none;stroke:#808080;stroke-width:0.25" />
<path d="M115.46,535.41L1885,535.41" style="fill:none;stroke:#808080;stroke-width:0.25" />
<path d="M115.46,951.41L1885,951.41" style="fill:none;stroke:#808080;stroke-width:0.25" />
<path d="M115.46,104.29L312.08,176.72L508.69,246.8L705.31,341.51L901.92,439.33L1098.5,516.41L1295.2,622.7L1491.8,740.44L1688.4,932.88L1885,769.34" style="fill:none;stroke:#FF0000;stroke-width:4" />
<path d="M120.46,104.29A5,5 0 1 1 110.46,104.29A5,5 0 1 1 120.46,104.29Z" style="fill:#FF0000" />
<path d="M317.08,176.72A5,5 0 1 1 307.08,176.72A5,5 0 1 1 317.08,176.72Z" style="fill:#FF0000" />
<path d="M513.69,246.8A5,5 0 1 1 503.69,246.8A5,5 0 1 1 513.69,246.8Z" style="fill:#FF0000" />
<path d="M710.31,341.51A5,5 0 1 1 700.31,341.51A5,5 0 1 1 710.31,341.51Z" style="fill:#FF0000" />
<path d="M906.92,439.33A5,5 0 1 1 896.92,439.33A5,5 0 1 1 906.92,439.33Z" style="fill:#FF0000" />
<path d="M1103.5,516.41A5,5 0 1 1 1093.5,516.41A5,5 0 1 1 1103.5,516.41Z" style="fill:#FF0000" />
<path d="M1300.2,622.7A5,5 0 1 1 1290.2,622.7A5,5 0 1 1 1300.2,622.7Z" style="fill:#FF0000" />
<path d="M1496.8,740.44A5,5 0 1 1 1486.8,740.44A5,5 0 1 1 1496.8,740.44Z" style="fill:#FF0000" />
<path d="M1693.4,932.88A5,5 0 1 1 1683.4,932.88A5,5 0 1 1 1693.4,932.88Z" style="fill:#FF0000" />
<path d="M1890,769.34A5,5 0 1 1 1880,769.34A5,5 0 1 1 1890,769.34Z" style="fill:#FF0000" />
<path d="M115.46,80.11L312.08,123.73L508.69,183.25L705.31,224.98L901.92,280.21L1098.5,342.89L1295.2,399.45L1491.8,524.1L1688.4,560.87L1885,563.38" style="fill:none;stroke:#0000FF;stroke-width:4" />
<path d="M120.46,80.11A5,5 0 1 1 110.46,80.11A5,5 0 1 1 120.46,80.11Z" style="fill:#0000FF" />
<path d="M317.08,123.73A5,5 0 1 1 307.08,123.73A5,5 0 1 1 317.08,123.73Z" style="fill:#0000FF" />
<path d="M513.69,183.25A5,5 0 1 1 503.69,183.25A5,5 0 1 1 513.69,183.25Z" style="fill:#0000FF" />
<path d="M710.31,224.98A5,5 0 1 1 700.31,224.98A5,5 0 1 1 710.31,224.98Z" style="fill:#0000FF" />
<path d="M906.92,280.21A5,5 0 1 1 896.92,280.21A5,5 0 1 1 906.92,280.21Z" style="fill:#0000FF" />
<path d="M1103.5,342.89A5,5 0 1 1 1093.5,342.89A5,5 0 1 1 1103.5,342.89Z" style="fill:#0000FF" />
<path d="M1300.2,399.45A5,5 0 1 1 1290.2,399.45A5,5 0 1 1 1300.2,399.45Z" style="fill:#0000FF" />
<path d="M1496.8,524.1A5,5 0 1 1 1486.8,524.1A5,5 0 1 1 1496.8,524.1Z" style="fill:#0000FF" />
<path d="M1693.4,560.87A5,5 0 1 1 1683.4,560.87A5,5 0 1 1 1693.4,560.87Z" style="fill:#0000FF" />
<path d="M1890,563.38A5,5 0 1 1 1880,563.38A5,5 0 1 1 1890,563.38Z" style="fill:#0000FF" />
<path d="M1900,105.66L1920,105.66" style="fill:none;stroke:#FF0000;stroke-width:4" />
<path d="M1915,105.66A5,5 0 1 1 1905,105.66A5,5 0 1 1 1915,105.66Z" style="fill:#FF0000" />
<text x="1823.3" y="-100.69" transform="scale(1, -1)"
	style="font-family:Liberation Serif;font-variant:normal;font-weight:normal;font-style:normal;font-size:24px">std::list</text>
<path d="M1900,85.294L1920,85.294" style="fill:none;stroke:#0000FF;stroke-width:4" />
<path d="M1915,85.294A5,5 0 1 1 1905,85.294A5,5 0 1 1 1915,85.294Z" style="fill:#0000FF" />
<text x="1795.4" y="-80.319" transform="scale(1, -1)"
	style="font-family:Liberation Serif;font-variant:normal;font-weight:normal;font-style:normal;font-size:24px">std::deque</text>
</g>
</svg>
