<?xml version="1.0"?>
<!-- Generated by SVGo and Plotinum VG -->
<svg width="1920pt" height="1080pt" viewBox="0 0 1920 1080"
	xmlns="http://www.w3.org/2000/svg"
	xmlns:xlink="http://www.w3.org/1999/xlink">
<g transform="scale(1, -1) translate(0, -1080)">
<path d="M0,0L1920,0L1920,1080L0,1080Z" style="fill:#FFFFFF" />
<text x="855.85" y="-1040.9" transform="scale(1, -1)"
	style="font-family:Liberation Serif;font-variant:normal;font-weight:normal;font-style:normal;font-size:50px">push-front</text>
<text x="877.77" y="-9.7559" transform="scale(1, -1)"
	style="font-family:Liberation Serif;font-variant:normal;font-weight:normal;font-style:normal;font-size:30px">Number of elements</text>
<text x="85.462" y="-39.727" transform="scale(1, -1)"
	style="font-family:Liberation Serif;font-variant:normal;font-weight:normal;font-style:normal;font-size:20px">100000</text>
<text x="282.08" y="-39.727" transform="scale(1, -1)"
	style="font-family:Liberation Serif;font-variant:normal;font-weight:normal;font-style:normal;font-size:20px">200000</text>
<text x="478.69" y="-39.727" transform="scale(1, -1)"
	style="font-family:Liberation Serif;font-variant:normal;font-weight:normal;font-style:normal;font-size:20px">300000</text>
<text x="675.31" y="-39.727" transform="scale(1, -1)"
	style="font-family:Liberation Serif;font-variant:normal;font-weight:normal;font-style:normal;font-size:20px">400000</text>
<text x="871.92" y="-39.727" transform="scale(1, -1)"
	style="font-family:Liberation Serif;font-variant:normal;font-weight:normal;font-style:normal;font-size:20px">500000</text>
<text x="1068.5" y="-39.727" transform="scale(1, -1)"
	style="font-family:Liberation Serif;font-variant:normal;font-weight:normal;font-style:normal;font-size:20px">600000</text>
<text x="1265.2" y="-39.727" transform="scale(1, -1)"
	style="font-family:Liberation Serif;font-variant:normal;font-weight:normal;font-style:normal;font-size:20px">700000</text>
<text x="1461.8" y="-39.727" transform="scale(1, -1)"
	style="font-family:Liberation Serif;font-variant:normal;font-weight:normal;font-style:normal;font-size:20px">800000</text>
<text x="1658.4" y="-39.727" transform="scale(1, -1)"
	style="font-family:Liberation Serif;font-variant:normal;font-weight:normal;font-style:normal;font-size:20px">900000</text>
<text x="1850" y="-39.727" transform="scale(1, -1)"
	style="font-family:Liberation Serif;font-variant:normal;font-weight:normal;font-style:normal;font-size:20px">1000000</text>
<path d="M115.46,55.371L115.46,63.371" style="fill:none;stroke:#000000;stroke-width:0.5" />
<path d="M312.08,55.371L312.08,63.371" style="fill:none;stroke:#000000;stroke-width:0.5" />
<path d="M508.69,55.371L508.69,63.371" style="fill:none;stroke:#000000;stroke-width:0.5" />
<path d="M705.31,55.371L705.31,63.371" style="fill:none;stroke:#000000;stroke-width:0.5" />
<path d="M901.92,55.371L901.92,63.371" style="fill:none;stroke:#000000;stroke-width:0.5" />
<path d="M1098.5,55.371L1098.5,63.371" style="fill:none;stroke:#000000;stroke-width:0.5" />
<path d="M1295.2,55.371L1295.2,63.371" style="fill:none;stroke:#000000;stroke-width:0.5" />
<path d="M1491.8,55.371L1491.8,63.371" style="fill:none;stroke:#000000;stroke-width:0.5" />
<path d="M1688.4,55.371L1688.4,63.371" style="fill:none;stroke:#000000;stroke-width:0.5" />
<path d="M1885,55.371L1885,63.371" style="fill:none;stroke:#000000;stroke-width:0.5" />
<path d="M115.46,63.371L1885,63.371" style="fill:none;stroke:#000000;stroke-width:0.5" />
<g transform="rotate(90)">
<text x="538.49" y="23.467" transform="scale(1, -1)"
	style="font-family:Liberation Serif;font-variant:normal;font-weight:normal;font-style:normal;font-size:30px">μs</text>
</g>
<text x="39.712" y="-230.46" transform="scale(1, -1)"
	style="font-family:Liberation Serif;font-variant:normal;font-weight:normal;font-style:normal;font-size:20px">20000</text>
<text x="39.712" y="-466.98" transform="scale(1, -1)"
	style="font-family:Liberation Serif;font-variant:normal;font-weight:normal;font-style:normal;font-size:20px">40000</text>
<text x="39.712" y="-703.5" transform="scale(1, -1)"
	style="font-family:Liberation Serif;font-variant:normal;font-weight:normal;font-style:normal;font-size:20px">60000</text>
<text x="39.712" y="-940.02" transform="scale(1, -1)"
	style="font-family:Liberation Serif;font-variant:normal;font-weight:normal;font-style:normal;font-size:20px">80000</text>
<path d="M94.712,235.03L102.71,235.03" style="fill:none;stroke:#000000;stroke-width:0.5" />
<path d="M94.712,471.55L102.71,471.55" style="fill:none;stroke:#000000;stroke-width:0.5" />
<path d="M94.712,708.07L102.71,708.07" style="fill:none;stroke:#000000;stroke-width:0.5" />
<path d="M94.712,944.59L102.71,944.59" style="fill:none;stroke:#000000;stroke-width:0.5" />
<path d="M98.712,116.77L102.71,116.77" style="fill:none;stroke:#000000;stroke-width:0.5" />
<path d="M98.712,353.29L102.71,353.29" style="fill:none;stroke:#000000;stroke-width:0.5" />
<path d="M98.712,589.81L102.71,589.81" style="fill:none;stroke:#000000;stroke-width:0.5" />
<path d="M98.712,826.33L102.71,826.33" style="fill:none;stroke:#000000;stroke-width:0.5" />
<path d="M102.71,80.11L102.71,1024.6" style="fill:none;stroke:#000000;stroke-width:0.5" />
<path d="M115.46,80.11L115.46,1024.6" style="fill:none;stroke:#808080;stroke-width:0.25" />
<path d="M312.08,80.11L312.08,1024.6" style="fill:none;stroke:#808080;stroke-width:0.25" />
<path d="M508.69,80.11L508.69,1024.6" style="fill:none;stroke:#808080;stroke-width:0.25" />
<path d="M705.31,80.11L705.31,1024.6" style="fill:none;stroke:#808080;stroke-width:0.25" />
<path d="M901.92,80.11L901.92,1024.6" style="fill:none;stroke:#808080;stroke-width:0.25" />
<path d="M1098.5,80.11L1098.5,1024.6" style="fill:none;stroke:#808080;stroke-width:0.25" />
<path d="M1295.2,80.11L1295.2,1024.6" style="fill:none;stroke:#808080;stroke-width:0.25" />
<path d="M1491.8,80.11L1491.8,1024.6" style="fill:none;stroke:#808080;stroke-width:0.25" />
<path d="M1688.4,80.11L1688.4,1024.6" style="fill:none;stroke:#808080;stroke-width:0.25" />
<path d="M1885,80.11L1885,1024.6" style="fill:none;stroke:#808080;stroke-width:0.25" />
<path d="M115.46,235.03L1885,235.03" style="fill:none;stroke:#808080;stroke-width:0.25" />
<path d="M115.46,471.55L1885,471.55" style="fill:none;stroke:#808080;stroke-width:0.25" />
<path d="M115.46,708.07L1885,708.07" style="fill:none;stroke:#808080;stroke-width:0.25" />
<path d="M115.46,944.59L1885,944.59" style="fill:none;stroke:#808080;stroke-width:0.25" />
<path d="M115.46,115.16L312.08,201.92L508.69,396.24L705.31,462.75L901.92,476.66L1098.5,521.11L1295.2,643.02L1491.8,686.52L1688.4,756.68L1885,931.35" style="fill:none;stroke:#FF0000;stroke-width:4" />
<path d="M120.46,115.16A5,5 0 1 1 110.46,115.16A5,5 0 1 1 120.46,115.16Z" style="fill:#FF0000" />
<path d="M317.08,201.92A5,5 0 1 1 307.08,201.92A5,5 0 1 1 317.08,201.92Z" style="fill:#FF0000" />
<path d="M513.69,396.24A5,5 0 1 1 503.69,396.24A5,5 0 1 1 513.69,396.24Z" style="fill:#FF0000" />
<path d="M710.31,462.75A5,5 0 1 1 700.31,462.75A5,5 0 1 1 710.31,462.75Z" style="fill:#FF0000" />
<path d="M906.92,476.66A5,5 0 1 1 896.92,476.66A5,5 0 1 1 906.92,476.66Z" style="fill:#FF0000" />
<path d="M1103.5,521.11A5,5 0 1 1 1093.5,521.11A5,5 0 1 1 1103.5,521.11Z" style="fill:#FF0000" />
<path d="M1300.2,643.02A5,5 0 1 1 1290.2,643.02A5,5 0 1 1 1300.2,643.02Z" style="fill:#FF0000" />
<path d="M1496.8,686.52A5,5 0 1 1 1486.8,686.52A5,5 0 1 1 1496.8,686.52Z" style="fill:#FF0000" />
<path d="M1693.4,756.68A5,5 0 1 1 1683.4,756.68A5,5 0 1 1 1693.4,756.68Z" style="fill:#FF0000" />
<path d="M1890,931.35A5,5 0 1 1 1880,931.35A5,5 0 1 1 1890,931.35Z" style="fill:#FF0000" />
<path d="M115.46,80.11L312.08,86.78L508.69,123.15L705.31,174.68L901.92,203.59L1098.5,248.69L1295.2,327.64L1491.8,367.13L1688.4,404.91L1885,445.25" style="fill:none;stroke:#0000FF;stroke-width:4" />
<path d="M120.46,80.11A5,5 0 1 1 110.46,80.11A5,5 0 1 1 120.46,80.11Z" style="fill:#0000FF" />
<path d="M317.08,86.78A5,5 0 1 1 307.08,86.78A5,5 0 1 1 317.08,86.78Z" style="fill:#0000FF" />
<path d="M513.69,123.15A5,5 0 1 1 503.69,123.15A5,5 0 1 1 513.69,123.15Z" style="fill:#0000FF" />
<path d="M710.31,174.68A5,5 0 1 1 700.31,174.68A5,5 0 1 1 710.31,174.68Z" style="fill:#0000FF" />
<path d="M906.92,203.59A5,5 0 1 1 896.92,203.59A5,5 0 1 1 906.92,203.59Z" style="fill:#0000FF" />
<path d="M1103.5,248.69A5,5 0 1 1 1093.5,248.69A5,5 0 1 1 1103.5,248.69Z" style="fill:#0000FF" />
<path d="M1300.2,327.64A5,5 0 1 1 1290.2,327.64A5,5 0 1 1 1300.2,327.64Z" style="fill:#0000FF" />
<path d="M1496.8,367.13A5,5 0 1 1 1486.8,367.13A5,5 0 1 1 1496.8,367.13Z" style="fill:#0000FF" />
<path d="M1693.4,404.91A5,5 0 1 1 1683.4,404.91A5,5 0 1 1 1693.4,404.91Z" style="fill:#0000FF" />
<path d="M1890,445.25A5,5 0 1 1 1880,445.25A5,5 0 1 1 1890,445.25Z" style="fill:#0000FF" />
<path d="M1900,105.66L1920,105.66" style="fill:none;stroke:#FF0000;stroke-width:4" />
<path d="M1915,105.66A5,5 0 1 1 1905,105.66A5,5 0 1 1 1915,105.66Z" style="fill:#FF0000" />
<text x="1823.3" y="-100.69" transform="scale(1, -1)"
	style="font-family:Liberation Serif;font-variant:normal;font-weight:normal;font-style:normal;font-size:24px">std::list</text>
<path d="M1900,85.294L1920,85.294" style="fill:none;stroke:#0000FF;stroke-width:4" />
<path d="M1915,85.294A5,5 0 1 1 1905,85.294A5,5 0 1 1 1915,85.294Z" style="fill:#0000FF" />
<text x="1795.4" y="-80.319" transform="scale(1, -1)"
	style="font-family:Liberation Serif;font-variant:normal;font-weight:normal;font-style:normal;font-size:24px">std::deque</text>
</g>
</svg>
