<?xml version="1.0"?>
<!-- Generated by SVGo and Plotinum VG -->
<svg width="1920pt" height="1080pt" viewBox="0 0 1920 1080"
	xmlns="http://www.w3.org/2000/svg"
	xmlns:xlink="http://www.w3.org/1999/xlink">
<g transform="scale(1, -1) translate(0, -1080)">
<path d="M0,0L1920,0L1920,1080L0,1080Z" style="fill:#FFFFFF" />
<text x="855.85" y="-1040.9" transform="scale(1, -1)"
	style="font-family:Liberation Serif;font-variant:normal;font-weight:normal;font-style:normal;font-size:50px">push-front</text>
<text x="887.77" y="-9.7559" transform="scale(1, -1)"
	style="font-family:Liberation Serif;font-variant:normal;font-weight:normal;font-style:normal;font-size:30px">Number of elements</text>
<text x="105.46" y="-39.727" transform="scale(1, -1)"
	style="font-family:Liberation Serif;font-variant:normal;font-weight:normal;font-style:normal;font-size:20px">100000</text>
<text x="299.86" y="-39.727" transform="scale(1, -1)"
	style="font-family:Liberation Serif;font-variant:normal;font-weight:normal;font-style:normal;font-size:20px">200000</text>
<text x="494.25" y="-39.727" transform="scale(1, -1)"
	style="font-family:Liberation Serif;font-variant:normal;font-weight:normal;font-style:normal;font-size:20px">300000</text>
<text x="688.64" y="-39.727" transform="scale(1, -1)"
	style="font-family:Liberation Serif;font-variant:normal;font-weight:normal;font-style:normal;font-size:20px">400000</text>
<text x="883.03" y="-39.727" transform="scale(1, -1)"
	style="font-family:Liberation Serif;font-variant:normal;font-weight:normal;font-style:normal;font-size:20px">500000</text>
<text x="1077.4" y="-39.727" transform="scale(1, -1)"
	style="font-family:Liberation Serif;font-variant:normal;font-weight:normal;font-style:normal;font-size:20px">600000</text>
<text x="1271.8" y="-39.727" transform="scale(1, -1)"
	style="font-family:Liberation Serif;font-variant:normal;font-weight:normal;font-style:normal;font-size:20px">700000</text>
<text x="1466.2" y="-39.727" transform="scale(1, -1)"
	style="font-family:Liberation Serif;font-variant:normal;font-weight:normal;font-style:normal;font-size:20px">800000</text>
<text x="1660.6" y="-39.727" transform="scale(1, -1)"
	style="font-family:Liberation Serif;font-variant:normal;font-weight:normal;font-style:normal;font-size:20px">900000</text>
<text x="1850" y="-39.727" transform="scale(1, -1)"
	style="font-family:Liberation Serif;font-variant:normal;font-weight:normal;font-style:normal;font-size:20px">1000000</text>
<path d="M135.46,55.371L135.46,63.371" style="fill:none;stroke:#000000;stroke-width:0.5" />
<path d="M329.86,55.371L329.86,63.371" style="fill:none;stroke:#000000;stroke-width:0.5" />
<path d="M524.25,55.371L524.25,63.371" style="fill:none;stroke:#000000;stroke-width:0.5" />
<path d="M718.64,55.371L718.64,63.371" style="fill:none;stroke:#000000;stroke-width:0.5" />
<path d="M913.03,55.371L913.03,63.371" style="fill:none;stroke:#000000;stroke-width:0.5" />
<path d="M1107.4,55.371L1107.4,63.371" style="fill:none;stroke:#000000;stroke-width:0.5" />
<path d="M1301.8,55.371L1301.8,63.371" style="fill:none;stroke:#000000;stroke-width:0.5" />
<path d="M1496.2,55.371L1496.2,63.371" style="fill:none;stroke:#000000;stroke-width:0.5" />
<path d="M1690.6,55.371L1690.6,63.371" style="fill:none;stroke:#000000;stroke-width:0.5" />
<path d="M1885,55.371L1885,63.371" style="fill:none;stroke:#000000;stroke-width:0.5" />
<path d="M135.46,63.371L1885,63.371" style="fill:none;stroke:#000000;stroke-width:0.5" />
<g transform="rotate(90)">
<text x="538.49" y="23.467" transform="scale(1, -1)"
	style="font-family:Liberation Serif;font-variant:normal;font-weight:normal;font-style:normal;font-size:30px">μs</text>
</g>
<text x="49.712" y="-212.75" transform="scale(1, -1)"
	style="font-family:Liberation Serif;font-variant:normal;font-weight:normal;font-style:normal;font-size:20px">200000</text>
<text x="49.712" y="-561.87" transform="scale(1, -1)"
	style="font-family:Liberation Serif;font-variant:normal;font-weight:normal;font-style:normal;font-size:20px">600000</text>
<text x="39.712" y="-910.98" transform="scale(1, -1)"
	style="font-family:Liberation Serif;font-variant:normal;font-weight:normal;font-style:normal;font-size:20px">1000000</text>
<path d="M114.71,217.32L122.71,217.32" style="fill:none;stroke:#000000;stroke-width:0.5" />
<path d="M114.71,566.44L122.71,566.44" style="fill:none;stroke:#000000;stroke-width:0.5" />
<path d="M114.71,915.55L122.71,915.55" style="fill:none;stroke:#000000;stroke-width:0.5" />
<path d="M118.71,130.04L122.71,130.04" style="fill:none;stroke:#000000;stroke-width:0.5" />
<path d="M118.71,304.6L122.71,304.6" style="fill:none;stroke:#000000;stroke-width:0.5" />
<path d="M118.71,391.88L122.71,391.88" style="fill:none;stroke:#000000;stroke-width:0.5" />
<path d="M118.71,479.16L122.71,479.16" style="fill:none;stroke:#000000;stroke-width:0.5" />
<path d="M118.71,653.71L122.71,653.71" style="fill:none;stroke:#000000;stroke-width:0.5" />
<path d="M118.71,740.99L122.71,740.99" style="fill:none;stroke:#000000;stroke-width:0.5" />
<path d="M118.71,828.27L122.71,828.27" style="fill:none;stroke:#000000;stroke-width:0.5" />
<path d="M118.71,1002.8L122.71,1002.8" style="fill:none;stroke:#000000;stroke-width:0.5" />
<path d="M122.71,80.11L122.71,1024.6" style="fill:none;stroke:#000000;stroke-width:0.5" />
<path d="M135.46,80.11L135.46,1024.6" style="fill:none;stroke:#808080;stroke-width:0.25" />
<path d="M329.86,80.11L329.86,1024.6" style="fill:none;stroke:#808080;stroke-width:0.25" />
<path d="M524.25,80.11L524.25,1024.6" style="fill:none;stroke:#808080;stroke-width:0.25" />
<path d="M718.64,80.11L718.64,1024.6" style="fill:none;stroke:#808080;stroke-width:0.25" />
<path d="M913.03,80.11L913.03,1024.6" style="fill:none;stroke:#808080;stroke-width:0.25" />
<path d="M1107.4,80.11L1107.4,1024.6" style="fill:none;stroke:#808080;stroke-width:0.25" />
<path d="M1301.8,80.11L1301.8,1024.6" style="fill:none;stroke:#808080;stroke-width:0.25" />
<path d="M1496.2,80.11L1496.2,1024.6" style="fill:none;stroke:#808080;stroke-width:0.25" />
<path d="M1690.6,80.11L1690.6,1024.6" style="fill:none;stroke:#808080;stroke-width:0.25" />
<path d="M1885,80.11L1885,1024.6" style="fill:none;stroke:#808080;stroke-width:0.25" />
<path d="M135.46,217.32L1885,217.32" style="fill:none;stroke:#808080;stroke-width:0.25" />
<path d="M135.46,566.44L1885,566.44" style="fill:none;stroke:#808080;stroke-width:0.25" />
<path d="M135.46,915.55L1885,915.55" style="fill:none;stroke:#808080;stroke-width:0.25" />
<path d="M135.46,80.11L329.86,119.38L524.25,185.3L718.64,280.3L913.03,386.27L1107.4,542.52L1301.8,595.27L1496.2,703.97L1690.6,810.54L1885,925.57" style="fill:none;stroke:#FF0000;stroke-width:4" />
<path d="M140.46,80.11A5,5 0 1 1 130.46,80.11A5,5 0 1 1 140.46,80.11Z" style="fill:#FF0000" />
<path d="M334.86,119.38A5,5 0 1 1 324.86,119.38A5,5 0 1 1 334.86,119.38Z" style="fill:#FF0000" />
<path d="M529.25,185.3A5,5 0 1 1 519.25,185.3A5,5 0 1 1 529.25,185.3Z" style="fill:#FF0000" />
<path d="M723.64,280.3A5,5 0 1 1 713.64,280.3A5,5 0 1 1 723.64,280.3Z" style="fill:#FF0000" />
<path d="M918.03,386.27A5,5 0 1 1 908.03,386.27A5,5 0 1 1 918.03,386.27Z" style="fill:#FF0000" />
<path d="M1112.4,542.52A5,5 0 1 1 1102.4,542.52A5,5 0 1 1 1112.4,542.52Z" style="fill:#FF0000" />
<path d="M1306.8,595.27A5,5 0 1 1 1296.8,595.27A5,5 0 1 1 1306.8,595.27Z" style="fill:#FF0000" />
<path d="M1501.2,703.97A5,5 0 1 1 1491.2,703.97A5,5 0 1 1 1501.2,703.97Z" style="fill:#FF0000" />
<path d="M1695.6,810.54A5,5 0 1 1 1685.6,810.54A5,5 0 1 1 1695.6,810.54Z" style="fill:#FF0000" />
<path d="M1890,925.57A5,5 0 1 1 1880,925.57A5,5 0 1 1 1890,925.57Z" style="fill:#FF0000" />
<path d="M135.46,85.5L329.86,117.35L524.25,187.94L718.64,301.45L913.03,409.23L1107.4,573.56L1301.8,634.41L1496.2,824.92L1690.6,896.52L1885,935.37" style="fill:none;stroke:#0000FF;stroke-width:4" />
<path d="M140.46,85.5A5,5 0 1 1 130.46,85.5A5,5 0 1 1 140.46,85.5Z" style="fill:#0000FF" />
<path d="M334.86,117.35A5,5 0 1 1 324.86,117.35A5,5 0 1 1 334.86,117.35Z" style="fill:#0000FF" />
<path d="M529.25,187.94A5,5 0 1 1 519.25,187.94A5,5 0 1 1 529.25,187.94Z" style="fill:#0000FF" />
<path d="M723.64,301.45A5,5 0 1 1 713.64,301.45A5,5 0 1 1 723.64,301.45Z" style="fill:#0000FF" />
<path d="M918.03,409.23A5,5 0 1 1 908.03,409.23A5,5 0 1 1 918.03,409.23Z" style="fill:#0000FF" />
<path d="M1112.4,573.56A5,5 0 1 1 1102.4,573.56A5,5 0 1 1 1112.4,573.56Z" style="fill:#0000FF" />
<path d="M1306.8,634.41A5,5 0 1 1 1296.8,634.41A5,5 0 1 1 1306.8,634.41Z" style="fill:#0000FF" />
<path d="M1501.2,824.92A5,5 0 1 1 1491.2,824.92A5,5 0 1 1 1501.2,824.92Z" style="fill:#0000FF" />
<path d="M1695.6,896.52A5,5 0 1 1 1685.6,896.52A5,5 0 1 1 1695.6,896.52Z" style="fill:#0000FF" />
<path d="M1890,935.37A5,5 0 1 1 1880,935.37A5,5 0 1 1 1890,935.37Z" style="fill:#0000FF" />
<path d="M1900,105.66L1920,105.66" style="fill:none;stroke:#FF0000;stroke-width:4" />
<path d="M1915,105.66A5,5 0 1 1 1905,105.66A5,5 0 1 1 1915,105.66Z" style="fill:#FF0000" />
<text x="1795.4" y="-100.69" transform="scale(1, -1)"
	style="font-family:Liberation Serif;font-variant:normal;font-weight:normal;font-style:normal;font-size:24px">std::deque</text>
<path d="M1900,85.294L1920,85.294" style="fill:none;stroke:#0000FF;stroke-width:4" />
<path d="M1915,85.294A5,5 0 1 1 1905,85.294A5,5 0 1 1 1915,85.294Z" style="fill:#0000FF" />
<text x="1823.3" y="-80.319" transform="scale(1, -1)"
	style="font-family:Liberation Serif;font-variant:normal;font-weight:normal;font-style:normal;font-size:24px">std::list</text>
</g>
</svg>
