<?xml version="1.0"?>
<!-- Generated by SVGo and Plotinum VG -->
<svg width="1920pt" height="1080pt" viewBox="0 0 1920 1080"
	xmlns="http://www.w3.org/2000/svg"
	xmlns:xlink="http://www.w3.org/1999/xlink">
<g transform="scale(1, -1) translate(0, -1080)">
<path d="M0,0L1920,0L1920,1080L0,1080Z" style="fill:#FFFFFF" />
<text x="855.85" y="-1040.9" transform="scale(1, -1)"
	style="font-family:Liberation Serif;font-variant:normal;font-weight:normal;font-style:normal;font-size:50px">push-front</text>
<text x="877.77" y="-9.7559" transform="scale(1, -1)"
	style="font-family:Liberation Serif;font-variant:normal;font-weight:normal;font-style:normal;font-size:30px">Number of elements</text>
<text x="85.462" y="-39.727" transform="scale(1, -1)"
	style="font-family:Liberation Serif;font-variant:normal;font-weight:normal;font-style:normal;font-size:20px">100000</text>
<text x="282.08" y="-39.727" transform="scale(1, -1)"
	style="font-family:Liberation Serif;font-variant:normal;font-weight:normal;font-style:normal;font-size:20px">200000</text>
<text x="478.69" y="-39.727" transform="scale(1, -1)"
	style="font-family:Liberation Serif;font-variant:normal;font-weight:normal;font-style:normal;font-size:20px">300000</text>
<text x="675.31" y="-39.727" transform="scale(1, -1)"
	style="font-family:Liberation Serif;font-variant:normal;font-weight:normal;font-style:normal;font-size:20px">400000</text>
<text x="871.92" y="-39.727" transform="scale(1, -1)"
	style="font-family:Liberation Serif;font-variant:normal;font-weight:normal;font-style:normal;font-size:20px">500000</text>
<text x="1068.5" y="-39.727" transform="scale(1, -1)"
	style="font-family:Liberation Serif;font-variant:normal;font-weight:normal;font-style:normal;font-size:20px">600000</text>
<text x="1265.2" y="-39.727" transform="scale(1, -1)"
	style="font-family:Liberation Serif;font-variant:normal;font-weight:normal;font-style:normal;font-size:20px">700000</text>
<text x="1461.8" y="-39.727" transform="scale(1, -1)"
	style="font-family:Liberation Serif;font-variant:normal;font-weight:normal;font-style:normal;font-size:20px">800000</text>
<text x="1658.4" y="-39.727" transform="scale(1, -1)"
	style="font-family:Liberation Serif;font-variant:normal;font-weight:normal;font-style:normal;font-size:20px">900000</text>
<text x="1850" y="-39.727" transform="scale(1, -1)"
	style="font-family:Liberation Serif;font-variant:normal;font-weight:normal;font-style:normal;font-size:20px">1000000</text>
<path d="M115.46,55.371L115.46,63.371" style="fill:none;stroke:#000000;stroke-width:0.5" />
<path d="M312.08,55.371L312.08,63.371" style="fill:none;stroke:#000000;stroke-width:0.5" />
<path d="M508.69,55.371L508.69,63.371" style="fill:none;stroke:#000000;stroke-width:0.5" />
<path d="M705.31,55.371L705.31,63.371" style="fill:none;stroke:#000000;stroke-width:0.5" />
<path d="M901.92,55.371L901.92,63.371" style="fill:none;stroke:#000000;stroke-width:0.5" />
<path d="M1098.5,55.371L1098.5,63.371" style="fill:none;stroke:#000000;stroke-width:0.5" />
<path d="M1295.2,55.371L1295.2,63.371" style="fill:none;stroke:#000000;stroke-width:0.5" />
<path d="M1491.8,55.371L1491.8,63.371" style="fill:none;stroke:#000000;stroke-width:0.5" />
<path d="M1688.4,55.371L1688.4,63.371" style="fill:none;stroke:#000000;stroke-width:0.5" />
<path d="M1885,55.371L1885,63.371" style="fill:none;stroke:#000000;stroke-width:0.5" />
<path d="M115.46,63.371L1885,63.371" style="fill:none;stroke:#000000;stroke-width:0.5" />
<g transform="rotate(90)">
<text x="538.49" y="23.467" transform="scale(1, -1)"
	style="font-family:Liberation Serif;font-variant:normal;font-weight:normal;font-style:normal;font-size:30px">μs</text>
</g>
<text x="39.712" y="-115.9" transform="scale(1, -1)"
	style="font-family:Liberation Serif;font-variant:normal;font-weight:normal;font-style:normal;font-size:20px">10000</text>
<text x="39.712" y="-551.13" transform="scale(1, -1)"
	style="font-family:Liberation Serif;font-variant:normal;font-weight:normal;font-style:normal;font-size:20px">50000</text>
<text x="39.712" y="-986.37" transform="scale(1, -1)"
	style="font-family:Liberation Serif;font-variant:normal;font-weight:normal;font-style:normal;font-size:20px">90000</text>
<path d="M94.712,120.47L102.71,120.47" style="fill:none;stroke:#000000;stroke-width:0.5" />
<path d="M94.712,555.7L102.71,555.7" style="fill:none;stroke:#000000;stroke-width:0.5" />
<path d="M94.712,990.94L102.71,990.94" style="fill:none;stroke:#000000;stroke-width:0.5" />
<path d="M98.712,229.28L102.71,229.28" style="fill:none;stroke:#000000;stroke-width:0.5" />
<path d="M98.712,338.09L102.71,338.09" style="fill:none;stroke:#000000;stroke-width:0.5" />
<path d="M98.712,446.89L102.71,446.89" style="fill:none;stroke:#000000;stroke-width:0.5" />
<path d="M98.712,664.51L102.71,664.51" style="fill:none;stroke:#000000;stroke-width:0.5" />
<path d="M98.712,773.32L102.71,773.32" style="fill:none;stroke:#000000;stroke-width:0.5" />
<path d="M98.712,882.13L102.71,882.13" style="fill:none;stroke:#000000;stroke-width:0.5" />
<path d="M102.71,80.11L102.71,1024.6" style="fill:none;stroke:#000000;stroke-width:0.5" />
<path d="M115.46,80.11L115.46,1024.6" style="fill:none;stroke:#808080;stroke-width:0.25" />
<path d="M312.08,80.11L312.08,1024.6" style="fill:none;stroke:#808080;stroke-width:0.25" />
<path d="M508.69,80.11L508.69,1024.6" style="fill:none;stroke:#808080;stroke-width:0.25" />
<path d="M705.31,80.11L705.31,1024.6" style="fill:none;stroke:#808080;stroke-width:0.25" />
<path d="M901.92,80.11L901.92,1024.6" style="fill:none;stroke:#808080;stroke-width:0.25" />
<path d="M1098.5,80.11L1098.5,1024.6" style="fill:none;stroke:#808080;stroke-width:0.25" />
<path d="M1295.2,80.11L1295.2,1024.6" style="fill:none;stroke:#808080;stroke-width:0.25" />
<path d="M1491.8,80.11L1491.8,1024.6" style="fill:none;stroke:#808080;stroke-width:0.25" />
<path d="M1688.4,80.11L1688.4,1024.6" style="fill:none;stroke:#808080;stroke-width:0.25" />
<path d="M1885,80.11L1885,1024.6" style="fill:none;stroke:#808080;stroke-width:0.25" />
<path d="M115.46,120.47L1885,120.47" style="fill:none;stroke:#808080;stroke-width:0.25" />
<path d="M115.46,555.7L1885,555.7" style="fill:none;stroke:#808080;stroke-width:0.25" />
<path d="M115.46,990.94L1885,990.94" style="fill:none;stroke:#808080;stroke-width:0.25" />
<path d="M115.46,116.16L312.08,192.21L508.69,334.27L705.31,451.01L901.92,490.59L1098.5,530.62L1295.2,689.65L1491.8,734.86L1688.4,775.76L1885,932.54" style="fill:none;stroke:#FF0000;stroke-width:4" />
<path d="M120.46,116.16A5,5 0 1 1 110.46,116.16A5,5 0 1 1 120.46,116.16Z" style="fill:#FF0000" />
<path d="M317.08,192.21A5,5 0 1 1 307.08,192.21A5,5 0 1 1 317.08,192.21Z" style="fill:#FF0000" />
<path d="M513.69,334.27A5,5 0 1 1 503.69,334.27A5,5 0 1 1 513.69,334.27Z" style="fill:#FF0000" />
<path d="M710.31,451.01A5,5 0 1 1 700.31,451.01A5,5 0 1 1 710.31,451.01Z" style="fill:#FF0000" />
<path d="M906.92,490.59A5,5 0 1 1 896.92,490.59A5,5 0 1 1 906.92,490.59Z" style="fill:#FF0000" />
<path d="M1103.5,530.62A5,5 0 1 1 1093.5,530.62A5,5 0 1 1 1103.5,530.62Z" style="fill:#FF0000" />
<path d="M1300.2,689.65A5,5 0 1 1 1290.2,689.65A5,5 0 1 1 1300.2,689.65Z" style="fill:#FF0000" />
<path d="M1496.8,734.86A5,5 0 1 1 1486.8,734.86A5,5 0 1 1 1496.8,734.86Z" style="fill:#FF0000" />
<path d="M1693.4,775.76A5,5 0 1 1 1683.4,775.76A5,5 0 1 1 1693.4,775.76Z" style="fill:#FF0000" />
<path d="M1890,932.54A5,5 0 1 1 1880,932.54A5,5 0 1 1 1890,932.54Z" style="fill:#FF0000" />
<path d="M115.46,80.11L312.08,128.6L508.69,180.55L705.31,249.87L901.92,303.56L1098.5,423.46L1295.2,425.43L1491.8,464.05L1688.4,541.12L1885,606.8" style="fill:none;stroke:#0000FF;stroke-width:4" />
<path d="M120.46,80.11A5,5 0 1 1 110.46,80.11A5,5 0 1 1 120.46,80.11Z" style="fill:#0000FF" />
<path d="M317.08,128.6A5,5 0 1 1 307.08,128.6A5,5 0 1 1 317.08,128.6Z" style="fill:#0000FF" />
<path d="M513.69,180.55A5,5 0 1 1 503.69,180.55A5,5 0 1 1 513.69,180.55Z" style="fill:#0000FF" />
<path d="M710.31,249.87A5,5 0 1 1 700.31,249.87A5,5 0 1 1 710.31,249.87Z" style="fill:#0000FF" />
<path d="M906.92,303.56A5,5 0 1 1 896.92,303.56A5,5 0 1 1 906.92,303.56Z" style="fill:#0000FF" />
<path d="M1103.5,423.46A5,5 0 1 1 1093.5,423.46A5,5 0 1 1 1103.5,423.46Z" style="fill:#0000FF" />
<path d="M1300.2,425.43A5,5 0 1 1 1290.2,425.43A5,5 0 1 1 1300.2,425.43Z" style="fill:#0000FF" />
<path d="M1496.8,464.05A5,5 0 1 1 1486.8,464.05A5,5 0 1 1 1496.8,464.05Z" style="fill:#0000FF" />
<path d="M1693.4,541.12A5,5 0 1 1 1683.4,541.12A5,5 0 1 1 1693.4,541.12Z" style="fill:#0000FF" />
<path d="M1890,606.8A5,5 0 1 1 1880,606.8A5,5 0 1 1 1890,606.8Z" style="fill:#0000FF" />
<path d="M1900,105.66L1920,105.66" style="fill:none;stroke:#FF0000;stroke-width:4" />
<path d="M1915,105.66A5,5 0 1 1 1905,105.66A5,5 0 1 1 1915,105.66Z" style="fill:#FF0000" />
<text x="1823.3" y="-100.69" transform="scale(1, -1)"
	style="font-family:Liberation Serif;font-variant:normal;font-weight:normal;font-style:normal;font-size:24px">std::list</text>
<path d="M1900,85.294L1920,85.294" style="fill:none;stroke:#0000FF;stroke-width:4" />
<path d="M1915,85.294A5,5 0 1 1 1905,85.294A5,5 0 1 1 1915,85.294Z" style="fill:#0000FF" />
<text x="1795.4" y="-80.319" transform="scale(1, -1)"
	style="font-family:Liberation Serif;font-variant:normal;font-weight:normal;font-style:normal;font-size:24px">std::deque</text>
</g>
</svg>
