<?xml version="1.0"?>
<!-- Generated by SVGo and Plotinum VG -->
<svg width="1920pt" height="1080pt" viewBox="0 0 1920 1080"
	xmlns="http://www.w3.org/2000/svg"
	xmlns:xlink="http://www.w3.org/1999/xlink">
<g transform="scale(1, -1) translate(0, -1080)">
<path d="M0,0L1920,0L1920,1080L0,1080Z" style="fill:#FFFFFF" />
<text x="855.85" y="-1040.9" transform="scale(1, -1)"
	style="font-family:Liberation Serif;font-variant:normal;font-weight:normal;font-style:normal;font-size:50px">push-front</text>
<text x="882.77" y="-9.7559" transform="scale(1, -1)"
	style="font-family:Liberation Serif;font-variant:normal;font-weight:normal;font-style:normal;font-size:30px">Number of elements</text>
<text x="95.462" y="-39.727" transform="scale(1, -1)"
	style="font-family:Liberation Serif;font-variant:normal;font-weight:normal;font-style:normal;font-size:20px">100000</text>
<text x="290.97" y="-39.727" transform="scale(1, -1)"
	style="font-family:Liberation Serif;font-variant:normal;font-weight:normal;font-style:normal;font-size:20px">200000</text>
<text x="486.47" y="-39.727" transform="scale(1, -1)"
	style="font-family:Liberation Serif;font-variant:normal;font-weight:normal;font-style:normal;font-size:20px">300000</text>
<text x="681.97" y="-39.727" transform="scale(1, -1)"
	style="font-family:Liberation Serif;font-variant:normal;font-weight:normal;font-style:normal;font-size:20px">400000</text>
<text x="877.48" y="-39.727" transform="scale(1, -1)"
	style="font-family:Liberation Serif;font-variant:normal;font-weight:normal;font-style:normal;font-size:20px">500000</text>
<text x="1073" y="-39.727" transform="scale(1, -1)"
	style="font-family:Liberation Serif;font-variant:normal;font-weight:normal;font-style:normal;font-size:20px">600000</text>
<text x="1268.5" y="-39.727" transform="scale(1, -1)"
	style="font-family:Liberation Serif;font-variant:normal;font-weight:normal;font-style:normal;font-size:20px">700000</text>
<text x="1464" y="-39.727" transform="scale(1, -1)"
	style="font-family:Liberation Serif;font-variant:normal;font-weight:normal;font-style:normal;font-size:20px">800000</text>
<text x="1659.5" y="-39.727" transform="scale(1, -1)"
	style="font-family:Liberation Serif;font-variant:normal;font-weight:normal;font-style:normal;font-size:20px">900000</text>
<text x="1850" y="-39.727" transform="scale(1, -1)"
	style="font-family:Liberation Serif;font-variant:normal;font-weight:normal;font-style:normal;font-size:20px">1000000</text>
<path d="M125.46,55.371L125.46,63.371" style="fill:none;stroke:#000000;stroke-width:0.5" />
<path d="M320.97,55.371L320.97,63.371" style="fill:none;stroke:#000000;stroke-width:0.5" />
<path d="M516.47,55.371L516.47,63.371" style="fill:none;stroke:#000000;stroke-width:0.5" />
<path d="M711.97,55.371L711.97,63.371" style="fill:none;stroke:#000000;stroke-width:0.5" />
<path d="M907.48,55.371L907.48,63.371" style="fill:none;stroke:#000000;stroke-width:0.5" />
<path d="M1103,55.371L1103,63.371" style="fill:none;stroke:#000000;stroke-width:0.5" />
<path d="M1298.5,55.371L1298.5,63.371" style="fill:none;stroke:#000000;stroke-width:0.5" />
<path d="M1494,55.371L1494,63.371" style="fill:none;stroke:#000000;stroke-width:0.5" />
<path d="M1689.5,55.371L1689.5,63.371" style="fill:none;stroke:#000000;stroke-width:0.5" />
<path d="M1885,55.371L1885,63.371" style="fill:none;stroke:#000000;stroke-width:0.5" />
<path d="M125.46,63.371L1885,63.371" style="fill:none;stroke:#000000;stroke-width:0.5" />
<g transform="rotate(90)">
<text x="538.49" y="23.467" transform="scale(1, -1)"
	style="font-family:Liberation Serif;font-variant:normal;font-weight:normal;font-style:normal;font-size:30px">μs</text>
</g>
<text x="39.712" y="-248.75" transform="scale(1, -1)"
	style="font-family:Liberation Serif;font-variant:normal;font-weight:normal;font-style:normal;font-size:20px">100000</text>
<text x="39.712" y="-479.82" transform="scale(1, -1)"
	style="font-family:Liberation Serif;font-variant:normal;font-weight:normal;font-style:normal;font-size:20px">200000</text>
<text x="39.712" y="-710.89" transform="scale(1, -1)"
	style="font-family:Liberation Serif;font-variant:normal;font-weight:normal;font-style:normal;font-size:20px">300000</text>
<text x="39.712" y="-941.95" transform="scale(1, -1)"
	style="font-family:Liberation Serif;font-variant:normal;font-weight:normal;font-style:normal;font-size:20px">400000</text>
<path d="M104.71,253.32L112.71,253.32" style="fill:none;stroke:#000000;stroke-width:0.5" />
<path d="M104.71,484.39L112.71,484.39" style="fill:none;stroke:#000000;stroke-width:0.5" />
<path d="M104.71,715.46L112.71,715.46" style="fill:none;stroke:#000000;stroke-width:0.5" />
<path d="M104.71,946.52L112.71,946.52" style="fill:none;stroke:#000000;stroke-width:0.5" />
<path d="M108.71,114.68L112.71,114.68" style="fill:none;stroke:#000000;stroke-width:0.5" />
<path d="M108.71,160.9L112.71,160.9" style="fill:none;stroke:#000000;stroke-width:0.5" />
<path d="M108.71,207.11L112.71,207.11" style="fill:none;stroke:#000000;stroke-width:0.5" />
<path d="M108.71,299.54L112.71,299.54" style="fill:none;stroke:#000000;stroke-width:0.5" />
<path d="M108.71,345.75L112.71,345.75" style="fill:none;stroke:#000000;stroke-width:0.5" />
<path d="M108.71,391.96L112.71,391.96" style="fill:none;stroke:#000000;stroke-width:0.5" />
<path d="M108.71,438.18L112.71,438.18" style="fill:none;stroke:#000000;stroke-width:0.5" />
<path d="M108.71,530.6L112.71,530.6" style="fill:none;stroke:#000000;stroke-width:0.5" />
<path d="M108.71,576.82L112.71,576.82" style="fill:none;stroke:#000000;stroke-width:0.5" />
<path d="M108.71,623.03L112.71,623.03" style="fill:none;stroke:#000000;stroke-width:0.5" />
<path d="M108.71,669.24L112.71,669.24" style="fill:none;stroke:#000000;stroke-width:0.5" />
<path d="M108.71,761.67L112.71,761.67" style="fill:none;stroke:#000000;stroke-width:0.5" />
<path d="M108.71,807.88L112.71,807.88" style="fill:none;stroke:#000000;stroke-width:0.5" />
<path d="M108.71,854.1L112.71,854.1" style="fill:none;stroke:#000000;stroke-width:0.5" />
<path d="M108.71,900.31L112.71,900.31" style="fill:none;stroke:#000000;stroke-width:0.5" />
<path d="M108.71,992.74L112.71,992.74" style="fill:none;stroke:#000000;stroke-width:0.5" />
<path d="M112.71,80.11L112.71,1024.6" style="fill:none;stroke:#000000;stroke-width:0.5" />
<path d="M125.46,80.11L125.46,1024.6" style="fill:none;stroke:#808080;stroke-width:0.25" />
<path d="M320.97,80.11L320.97,1024.6" style="fill:none;stroke:#808080;stroke-width:0.25" />
<path d="M516.47,80.11L516.47,1024.6" style="fill:none;stroke:#808080;stroke-width:0.25" />
<path d="M711.97,80.11L711.97,1024.6" style="fill:none;stroke:#808080;stroke-width:0.25" />
<path d="M907.48,80.11L907.48,1024.6" style="fill:none;stroke:#808080;stroke-width:0.25" />
<path d="M1103,80.11L1103,1024.6" style="fill:none;stroke:#808080;stroke-width:0.25" />
<path d="M1298.5,80.11L1298.5,1024.6" style="fill:none;stroke:#808080;stroke-width:0.25" />
<path d="M1494,80.11L1494,1024.6" style="fill:none;stroke:#808080;stroke-width:0.25" />
<path d="M1689.5,80.11L1689.5,1024.6" style="fill:none;stroke:#808080;stroke-width:0.25" />
<path d="M1885,80.11L1885,1024.6" style="fill:none;stroke:#808080;stroke-width:0.25" />
<path d="M125.46,253.32L1885,253.32" style="fill:none;stroke:#808080;stroke-width:0.25" />
<path d="M125.46,484.39L1885,484.39" style="fill:none;stroke:#808080;stroke-width:0.25" />
<path d="M125.46,715.46L1885,715.46" style="fill:none;stroke:#808080;stroke-width:0.25" />
<path d="M125.46,946.52L1885,946.52" style="fill:none;stroke:#808080;stroke-width:0.25" />
<path d="M125.46,91.093L320.97,163.12L516.47,227.34L711.97,279.53L907.48,339.49L1103,407.66L1298.5,458.06L1494,514.39L1689.5,613.87L1885,653.13" style="fill:none;stroke:#FF0000;stroke-width:4" />
<path d="M130.46,91.093A5,5 0 1 1 120.46,91.093A5,5 0 1 1 130.46,91.093Z" style="fill:#FF0000" />
<path d="M325.97,163.12A5,5 0 1 1 315.97,163.12A5,5 0 1 1 325.97,163.12Z" style="fill:#FF0000" />
<path d="M521.47,227.34A5,5 0 1 1 511.47,227.34A5,5 0 1 1 521.47,227.34Z" style="fill:#FF0000" />
<path d="M716.97,279.53A5,5 0 1 1 706.97,279.53A5,5 0 1 1 716.97,279.53Z" style="fill:#FF0000" />
<path d="M912.48,339.49A5,5 0 1 1 902.48,339.49A5,5 0 1 1 912.48,339.49Z" style="fill:#FF0000" />
<path d="M1108,407.66A5,5 0 1 1 1098,407.66A5,5 0 1 1 1108,407.66Z" style="fill:#FF0000" />
<path d="M1303.5,458.06A5,5 0 1 1 1293.5,458.06A5,5 0 1 1 1303.5,458.06Z" style="fill:#FF0000" />
<path d="M1499,514.39A5,5 0 1 1 1489,514.39A5,5 0 1 1 1499,514.39Z" style="fill:#FF0000" />
<path d="M1694.5,613.87A5,5 0 1 1 1684.5,613.87A5,5 0 1 1 1694.5,613.87Z" style="fill:#FF0000" />
<path d="M1890,653.13A5,5 0 1 1 1880,653.13A5,5 0 1 1 1890,653.13Z" style="fill:#FF0000" />
<path d="M125.46,80.11L320.97,168.46L516.47,255.54L711.97,327.25L907.48,384.6L1103,456.62L1298.5,587.07L1494,681.15L1689.5,774.71L1885,933.5" style="fill:none;stroke:#0000FF;stroke-width:4" />
<path d="M130.46,80.11A5,5 0 1 1 120.46,80.11A5,5 0 1 1 130.46,80.11Z" style="fill:#0000FF" />
<path d="M325.97,168.46A5,5 0 1 1 315.97,168.46A5,5 0 1 1 325.97,168.46Z" style="fill:#0000FF" />
<path d="M521.47,255.54A5,5 0 1 1 511.47,255.54A5,5 0 1 1 521.47,255.54Z" style="fill:#0000FF" />
<path d="M716.97,327.25A5,5 0 1 1 706.97,327.25A5,5 0 1 1 716.97,327.25Z" style="fill:#0000FF" />
<path d="M912.48,384.6A5,5 0 1 1 902.48,384.6A5,5 0 1 1 912.48,384.6Z" style="fill:#0000FF" />
<path d="M1108,456.62A5,5 0 1 1 1098,456.62A5,5 0 1 1 1108,456.62Z" style="fill:#0000FF" />
<path d="M1303.5,587.07A5,5 0 1 1 1293.5,587.07A5,5 0 1 1 1303.5,587.07Z" style="fill:#0000FF" />
<path d="M1499,681.15A5,5 0 1 1 1489,681.15A5,5 0 1 1 1499,681.15Z" style="fill:#0000FF" />
<path d="M1694.5,774.71A5,5 0 1 1 1684.5,774.71A5,5 0 1 1 1694.5,774.71Z" style="fill:#0000FF" />
<path d="M1890,933.5A5,5 0 1 1 1880,933.5A5,5 0 1 1 1890,933.5Z" style="fill:#0000FF" />
<path d="M1900,105.66L1920,105.66" style="fill:none;stroke:#FF0000;stroke-width:4" />
<path d="M1915,105.66A5,5 0 1 1 1905,105.66A5,5 0 1 1 1915,105.66Z" style="fill:#FF0000" />
<text x="1795.4" y="-100.69" transform="scale(1, -1)"
	style="font-family:Liberation Serif;font-variant:normal;font-weight:normal;font-style:normal;font-size:24px">std::deque</text>
<path d="M1900,85.294L1920,85.294" style="fill:none;stroke:#0000FF;stroke-width:4" />
<path d="M1915,85.294A5,5 0 1 1 1905,85.294A5,5 0 1 1 1915,85.294Z" style="fill:#0000FF" />
<text x="1823.3" y="-80.319" transform="scale(1, -1)"
	style="font-family:Liberation Serif;font-variant:normal;font-weight:normal;font-style:normal;font-size:24px">std::list</text>
</g>
</svg>
