<?xml version="1.0"?>
<!-- Generated by SVGo and Plotinum VG -->
<svg width="1920pt" height="1080pt" viewBox="0 0 1920 1080"
	xmlns="http://www.w3.org/2000/svg"
	xmlns:xlink="http://www.w3.org/1999/xlink">
<g transform="scale(1, -1) translate(0, -1080)">
<path d="M0,0L1920,0L1920,1080L0,1080Z" style="fill:#FFFFFF" />
<text x="855.85" y="-1040.9" transform="scale(1, -1)"
	style="font-family:Liberation Serif;font-variant:normal;font-weight:normal;font-style:normal;font-size:50px">push-front</text>
<text x="877.77" y="-9.7559" transform="scale(1, -1)"
	style="font-family:Liberation Serif;font-variant:normal;font-weight:normal;font-style:normal;font-size:30px">Number of elements</text>
<text x="85.462" y="-39.727" transform="scale(1, -1)"
	style="font-family:Liberation Serif;font-variant:normal;font-weight:normal;font-style:normal;font-size:20px">100000</text>
<text x="282.08" y="-39.727" transform="scale(1, -1)"
	style="font-family:Liberation Serif;font-variant:normal;font-weight:normal;font-style:normal;font-size:20px">200000</text>
<text x="478.69" y="-39.727" transform="scale(1, -1)"
	style="font-family:Liberation Serif;font-variant:normal;font-weight:normal;font-style:normal;font-size:20px">300000</text>
<text x="675.31" y="-39.727" transform="scale(1, -1)"
	style="font-family:Liberation Serif;font-variant:normal;font-weight:normal;font-style:normal;font-size:20px">400000</text>
<text x="871.92" y="-39.727" transform="scale(1, -1)"
	style="font-family:Liberation Serif;font-variant:normal;font-weight:normal;font-style:normal;font-size:20px">500000</text>
<text x="1068.5" y="-39.727" transform="scale(1, -1)"
	style="font-family:Liberation Serif;font-variant:normal;font-weight:normal;font-style:normal;font-size:20px">600000</text>
<text x="1265.2" y="-39.727" transform="scale(1, -1)"
	style="font-family:Liberation Serif;font-variant:normal;font-weight:normal;font-style:normal;font-size:20px">700000</text>
<text x="1461.8" y="-39.727" transform="scale(1, -1)"
	style="font-family:Liberation Serif;font-variant:normal;font-weight:normal;font-style:normal;font-size:20px">800000</text>
<text x="1658.4" y="-39.727" transform="scale(1, -1)"
	style="font-family:Liberation Serif;font-variant:normal;font-weight:normal;font-style:normal;font-size:20px">900000</text>
<text x="1850" y="-39.727" transform="scale(1, -1)"
	style="font-family:Liberation Serif;font-variant:normal;font-weight:normal;font-style:normal;font-size:20px">1000000</text>
<path d="M115.46,55.371L115.46,63.371" style="fill:none;stroke:#000000;stroke-width:0.5" />
<path d="M312.08,55.371L312.08,63.371" style="fill:none;stroke:#000000;stroke-width:0.5" />
<path d="M508.69,55.371L508.69,63.371" style="fill:none;stroke:#000000;stroke-width:0.5" />
<path d="M705.31,55.371L705.31,63.371" style="fill:none;stroke:#000000;stroke-width:0.5" />
<path d="M901.92,55.371L901.92,63.371" style="fill:none;stroke:#000000;stroke-width:0.5" />
<path d="M1098.5,55.371L1098.5,63.371" style="fill:none;stroke:#000000;stroke-width:0.5" />
<path d="M1295.2,55.371L1295.2,63.371" style="fill:none;stroke:#000000;stroke-width:0.5" />
<path d="M1491.8,55.371L1491.8,63.371" style="fill:none;stroke:#000000;stroke-width:0.5" />
<path d="M1688.4,55.371L1688.4,63.371" style="fill:none;stroke:#000000;stroke-width:0.5" />
<path d="M1885,55.371L1885,63.371" style="fill:none;stroke:#000000;stroke-width:0.5" />
<path d="M115.46,63.371L1885,63.371" style="fill:none;stroke:#000000;stroke-width:0.5" />
<g transform="rotate(90)">
<text x="538.49" y="23.467" transform="scale(1, -1)"
	style="font-family:Liberation Serif;font-variant:normal;font-weight:normal;font-style:normal;font-size:30px">μs</text>
</g>
<text x="39.712" y="-130.16" transform="scale(1, -1)"
	style="font-family:Liberation Serif;font-variant:normal;font-weight:normal;font-style:normal;font-size:20px">10000</text>
<text x="39.712" y="-527.5" transform="scale(1, -1)"
	style="font-family:Liberation Serif;font-variant:normal;font-weight:normal;font-style:normal;font-size:20px">40000</text>
<text x="39.712" y="-924.84" transform="scale(1, -1)"
	style="font-family:Liberation Serif;font-variant:normal;font-weight:normal;font-style:normal;font-size:20px">70000</text>
<path d="M94.712,134.73L102.71,134.73" style="fill:none;stroke:#000000;stroke-width:0.5" />
<path d="M94.712,532.07L102.71,532.07" style="fill:none;stroke:#000000;stroke-width:0.5" />
<path d="M94.712,929.41L102.71,929.41" style="fill:none;stroke:#000000;stroke-width:0.5" />
<path d="M98.712,267.18L102.71,267.18" style="fill:none;stroke:#000000;stroke-width:0.5" />
<path d="M98.712,399.62L102.71,399.62" style="fill:none;stroke:#000000;stroke-width:0.5" />
<path d="M98.712,664.52L102.71,664.52" style="fill:none;stroke:#000000;stroke-width:0.5" />
<path d="M98.712,796.96L102.71,796.96" style="fill:none;stroke:#000000;stroke-width:0.5" />
<path d="M102.71,80.11L102.71,1024.6" style="fill:none;stroke:#000000;stroke-width:0.5" />
<path d="M115.46,80.11L115.46,1024.6" style="fill:none;stroke:#808080;stroke-width:0.25" />
<path d="M312.08,80.11L312.08,1024.6" style="fill:none;stroke:#808080;stroke-width:0.25" />
<path d="M508.69,80.11L508.69,1024.6" style="fill:none;stroke:#808080;stroke-width:0.25" />
<path d="M705.31,80.11L705.31,1024.6" style="fill:none;stroke:#808080;stroke-width:0.25" />
<path d="M901.92,80.11L901.92,1024.6" style="fill:none;stroke:#808080;stroke-width:0.25" />
<path d="M1098.5,80.11L1098.5,1024.6" style="fill:none;stroke:#808080;stroke-width:0.25" />
<path d="M1295.2,80.11L1295.2,1024.6" style="fill:none;stroke:#808080;stroke-width:0.25" />
<path d="M1491.8,80.11L1491.8,1024.6" style="fill:none;stroke:#808080;stroke-width:0.25" />
<path d="M1688.4,80.11L1688.4,1024.6" style="fill:none;stroke:#808080;stroke-width:0.25" />
<path d="M1885,80.11L1885,1024.6" style="fill:none;stroke:#808080;stroke-width:0.25" />
<path d="M115.46,134.73L1885,134.73" style="fill:none;stroke:#808080;stroke-width:0.25" />
<path d="M115.46,532.07L1885,532.07" style="fill:none;stroke:#808080;stroke-width:0.25" />
<path d="M115.46,929.41L1885,929.41" style="fill:none;stroke:#808080;stroke-width:0.25" />
<path d="M115.46,133.23L312.08,208.17L508.69,302.55L705.31,415.37L901.92,476.96L1098.5,570.31L1295.2,773.81L1491.8,755.83L1688.4,862.72L1885,931.69" style="fill:none;stroke:#FF0000;stroke-width:4" />
<path d="M120.46,133.23A5,5 0 1 1 110.46,133.23A5,5 0 1 1 120.46,133.23Z" style="fill:#FF0000" />
<path d="M317.08,208.17A5,5 0 1 1 307.08,208.17A5,5 0 1 1 317.08,208.17Z" style="fill:#FF0000" />
<path d="M513.69,302.55A5,5 0 1 1 503.69,302.55A5,5 0 1 1 513.69,302.55Z" style="fill:#FF0000" />
<path d="M710.31,415.37A5,5 0 1 1 700.31,415.37A5,5 0 1 1 710.31,415.37Z" style="fill:#FF0000" />
<path d="M906.92,476.96A5,5 0 1 1 896.92,476.96A5,5 0 1 1 906.92,476.96Z" style="fill:#FF0000" />
<path d="M1103.5,570.31A5,5 0 1 1 1093.5,570.31A5,5 0 1 1 1103.5,570.31Z" style="fill:#FF0000" />
<path d="M1300.2,773.81A5,5 0 1 1 1290.2,773.81A5,5 0 1 1 1300.2,773.81Z" style="fill:#FF0000" />
<path d="M1496.8,755.83A5,5 0 1 1 1486.8,755.83A5,5 0 1 1 1496.8,755.83Z" style="fill:#FF0000" />
<path d="M1693.4,862.72A5,5 0 1 1 1683.4,862.72A5,5 0 1 1 1693.4,862.72Z" style="fill:#FF0000" />
<path d="M1890,931.69A5,5 0 1 1 1880,931.69A5,5 0 1 1 1890,931.69Z" style="fill:#FF0000" />
<path d="M115.46,80.11L312.08,91.885L508.69,143.47L705.31,188.01L901.92,204.12L1098.5,271.8L1295.2,307.19L1491.8,337.31L1688.4,394.84L1885,468.01" style="fill:none;stroke:#0000FF;stroke-width:4" />
<path d="M120.46,80.11A5,5 0 1 1 110.46,80.11A5,5 0 1 1 120.46,80.11Z" style="fill:#0000FF" />
<path d="M317.08,91.885A5,5 0 1 1 307.08,91.885A5,5 0 1 1 317.08,91.885Z" style="fill:#0000FF" />
<path d="M513.69,143.47A5,5 0 1 1 503.69,143.47A5,5 0 1 1 513.69,143.47Z" style="fill:#0000FF" />
<path d="M710.31,188.01A5,5 0 1 1 700.31,188.01A5,5 0 1 1 710.31,188.01Z" style="fill:#0000FF" />
<path d="M906.92,204.12A5,5 0 1 1 896.92,204.12A5,5 0 1 1 906.92,204.12Z" style="fill:#0000FF" />
<path d="M1103.5,271.8A5,5 0 1 1 1093.5,271.8A5,5 0 1 1 1103.5,271.8Z" style="fill:#0000FF" />
<path d="M1300.2,307.19A5,5 0 1 1 1290.2,307.19A5,5 0 1 1 1300.2,307.19Z" style="fill:#0000FF" />
<path d="M1496.8,337.31A5,5 0 1 1 1486.8,337.31A5,5 0 1 1 1496.8,337.31Z" style="fill:#0000FF" />
<path d="M1693.4,394.84A5,5 0 1 1 1683.4,394.84A5,5 0 1 1 1693.4,394.84Z" style="fill:#0000FF" />
<path d="M1890,468.01A5,5 0 1 1 1880,468.01A5,5 0 1 1 1890,468.01Z" style="fill:#0000FF" />
<path d="M1900,105.66L1920,105.66" style="fill:none;stroke:#FF0000;stroke-width:4" />
<path d="M1915,105.66A5,5 0 1 1 1905,105.66A5,5 0 1 1 1915,105.66Z" style="fill:#FF0000" />
<text x="1823.3" y="-100.69" transform="scale(1, -1)"
	style="font-family:Liberation Serif;font-variant:normal;font-weight:normal;font-style:normal;font-size:24px">std::list</text>
<path d="M1900,85.294L1920,85.294" style="fill:none;stroke:#0000FF;stroke-width:4" />
<path d="M1915,85.294A5,5 0 1 1 1905,85.294A5,5 0 1 1 1915,85.294Z" style="fill:#0000FF" />
<text x="1795.4" y="-80.319" transform="scale(1, -1)"
	style="font-family:Liberation Serif;font-variant:normal;font-weight:normal;font-style:normal;font-size:24px">std::deque</text>
</g>
</svg>
