<?xml version="1.0"?>
<!-- Generated by SVGo and Plotinum VG -->
<svg width="1920pt" height="1080pt" viewBox="0 0 1920 1080"
	xmlns="http://www.w3.org/2000/svg"
	xmlns:xlink="http://www.w3.org/1999/xlink">
<g transform="scale(1, -1) translate(0, -1080)">
<path d="M0,0L1920,0L1920,1080L0,1080Z" style="fill:#FFFFFF" />
<text x="734.37" y="-1040.9" transform="scale(1, -1)"
	style="font-family:Liberation Serif;font-variant:normal;font-weight:normal;font-style:normal;font-size:50px">push-front - Log Scale</text>
<text x="882.77" y="-9.7559" transform="scale(1, -1)"
	style="font-family:Liberation Serif;font-variant:normal;font-weight:normal;font-style:normal;font-size:30px">Number of elements</text>
<text x="95.462" y="-39.727" transform="scale(1, -1)"
	style="font-family:Liberation Serif;font-variant:normal;font-weight:normal;font-style:normal;font-size:20px">100000</text>
<text x="290.97" y="-39.727" transform="scale(1, -1)"
	style="font-family:Liberation Serif;font-variant:normal;font-weight:normal;font-style:normal;font-size:20px">200000</text>
<text x="486.47" y="-39.727" transform="scale(1, -1)"
	style="font-family:Liberation Serif;font-variant:normal;font-weight:normal;font-style:normal;font-size:20px">300000</text>
<text x="681.97" y="-39.727" transform="scale(1, -1)"
	style="font-family:Liberation Serif;font-variant:normal;font-weight:normal;font-style:normal;font-size:20px">400000</text>
<text x="877.48" y="-39.727" transform="scale(1, -1)"
	style="font-family:Liberation Serif;font-variant:normal;font-weight:normal;font-style:normal;font-size:20px">500000</text>
<text x="1073" y="-39.727" transform="scale(1, -1)"
	style="font-family:Liberation Serif;font-variant:normal;font-weight:normal;font-style:normal;font-size:20px">600000</text>
<text x="1268.5" y="-39.727" transform="scale(1, -1)"
	style="font-family:Liberation Serif;font-variant:normal;font-weight:normal;font-style:normal;font-size:20px">700000</text>
<text x="1464" y="-39.727" transform="scale(1, -1)"
	style="font-family:Liberation Serif;font-variant:normal;font-weight:normal;font-style:normal;font-size:20px">800000</text>
<text x="1659.5" y="-39.727" transform="scale(1, -1)"
	style="font-family:Liberation Serif;font-variant:normal;font-weight:normal;font-style:normal;font-size:20px">900000</text>
<text x="1850" y="-39.727" transform="scale(1, -1)"
	style="font-family:Liberation Serif;font-variant:normal;font-weight:normal;font-style:normal;font-size:20px">1000000</text>
<path d="M125.46,55.371L125.46,63.371" style="fill:none;stroke:#000000;stroke-width:0.5" />
<path d="M320.97,55.371L320.97,63.371" style="fill:none;stroke:#000000;stroke-width:0.5" />
<path d="M516.47,55.371L516.47,63.371" style="fill:none;stroke:#000000;stroke-width:0.5" />
<path d="M711.97,55.371L711.97,63.371" style="fill:none;stroke:#000000;stroke-width:0.5" />
<path d="M907.48,55.371L907.48,63.371" style="fill:none;stroke:#000000;stroke-width:0.5" />
<path d="M1103,55.371L1103,63.371" style="fill:none;stroke:#000000;stroke-width:0.5" />
<path d="M1298.5,55.371L1298.5,63.371" style="fill:none;stroke:#000000;stroke-width:0.5" />
<path d="M1494,55.371L1494,63.371" style="fill:none;stroke:#000000;stroke-width:0.5" />
<path d="M1689.5,55.371L1689.5,63.371" style="fill:none;stroke:#000000;stroke-width:0.5" />
<path d="M1885,55.371L1885,63.371" style="fill:none;stroke:#000000;stroke-width:0.5" />
<path d="M125.46,63.371L1885,63.371" style="fill:none;stroke:#000000;stroke-width:0.5" />
<g transform="rotate(90)">
<text x="485.87" y="23.467" transform="scale(1, -1)"
	style="font-family:Liberation Serif;font-variant:normal;font-weight:normal;font-style:normal;font-size:30px">log(μs + 1)</text>
</g>
<text x="39.712" y="-534.12" transform="scale(1, -1)"
	style="font-family:Liberation Serif;font-variant:normal;font-weight:normal;font-style:normal;font-size:20px">100000</text>
<text x="39.712" y="-763.66" transform="scale(1, -1)"
	style="font-family:Liberation Serif;font-variant:normal;font-weight:normal;font-style:normal;font-size:20px">200000</text>
<text x="39.712" y="-897.93" transform="scale(1, -1)"
	style="font-family:Liberation Serif;font-variant:normal;font-weight:normal;font-style:normal;font-size:20px">300000</text>
<text x="39.712" y="-993.19" transform="scale(1, -1)"
	style="font-family:Liberation Serif;font-variant:normal;font-weight:normal;font-style:normal;font-size:20px">400000</text>
<path d="M104.71,538.69L112.71,538.69" style="fill:none;stroke:#000000;stroke-width:0.5" />
<path d="M104.71,768.23L112.71,768.23" style="fill:none;stroke:#000000;stroke-width:0.5" />
<path d="M104.71,902.5L112.71,902.5" style="fill:none;stroke:#000000;stroke-width:0.5" />
<path d="M104.71,997.76L112.71,997.76" style="fill:none;stroke:#000000;stroke-width:0.5" />
<path d="M108.71,235.25L112.71,235.25" style="fill:none;stroke:#000000;stroke-width:0.5" />
<path d="M108.71,369.52L112.71,369.52" style="fill:none;stroke:#000000;stroke-width:0.5" />
<path d="M108.71,464.79L112.71,464.79" style="fill:none;stroke:#000000;stroke-width:0.5" />
<path d="M108.71,599.06L112.71,599.06" style="fill:none;stroke:#000000;stroke-width:0.5" />
<path d="M108.71,650.11L112.71,650.11" style="fill:none;stroke:#000000;stroke-width:0.5" />
<path d="M108.71,694.33L112.71,694.33" style="fill:none;stroke:#000000;stroke-width:0.5" />
<path d="M108.71,733.33L112.71,733.33" style="fill:none;stroke:#000000;stroke-width:0.5" />
<path d="M108.71,799.79L112.71,799.79" style="fill:none;stroke:#000000;stroke-width:0.5" />
<path d="M108.71,828.6L112.71,828.6" style="fill:none;stroke:#000000;stroke-width:0.5" />
<path d="M108.71,855.11L112.71,855.11" style="fill:none;stroke:#000000;stroke-width:0.5" />
<path d="M108.71,879.65L112.71,879.65" style="fill:none;stroke:#000000;stroke-width:0.5" />
<path d="M108.71,923.87L112.71,923.87" style="fill:none;stroke:#000000;stroke-width:0.5" />
<path d="M108.71,943.95L112.71,943.95" style="fill:none;stroke:#000000;stroke-width:0.5" />
<path d="M108.71,962.87L112.71,962.87" style="fill:none;stroke:#000000;stroke-width:0.5" />
<path d="M108.71,980.78L112.71,980.78" style="fill:none;stroke:#000000;stroke-width:0.5" />
<path d="M108.71,1013.9L112.71,1013.9" style="fill:none;stroke:#000000;stroke-width:0.5" />
<path d="M112.71,80.11L112.71,1024.6" style="fill:none;stroke:#000000;stroke-width:0.5" />
<path d="M125.46,80.11L125.46,1024.6" style="fill:none;stroke:#808080;stroke-width:0.25" />
<path d="M320.97,80.11L320.97,1024.6" style="fill:none;stroke:#808080;stroke-width:0.25" />
<path d="M516.47,80.11L516.47,1024.6" style="fill:none;stroke:#808080;stroke-width:0.25" />
<path d="M711.97,80.11L711.97,1024.6" style="fill:none;stroke:#808080;stroke-width:0.25" />
<path d="M907.48,80.11L907.48,1024.6" style="fill:none;stroke:#808080;stroke-width:0.25" />
<path d="M1103,80.11L1103,1024.6" style="fill:none;stroke:#808080;stroke-width:0.25" />
<path d="M1298.5,80.11L1298.5,1024.6" style="fill:none;stroke:#808080;stroke-width:0.25" />
<path d="M1494,80.11L1494,1024.6" style="fill:none;stroke:#808080;stroke-width:0.25" />
<path d="M1689.5,80.11L1689.5,1024.6" style="fill:none;stroke:#808080;stroke-width:0.25" />
<path d="M1885,80.11L1885,1024.6" style="fill:none;stroke:#808080;stroke-width:0.25" />
<path d="M125.46,538.69L1885,538.69" style="fill:none;stroke:#808080;stroke-width:0.25" />
<path d="M125.46,768.23L1885,768.23" style="fill:none;stroke:#808080;stroke-width:0.25" />
<path d="M125.46,902.5L1885,902.5" style="fill:none;stroke:#808080;stroke-width:0.25" />
<path d="M125.46,997.76L1885,997.76" style="fill:none;stroke:#808080;stroke-width:0.25" />
<path d="M125.46,137.67L320.97,374.8L516.47,499.19L711.97,574.27L907.48,643.64L1103,708.1L1298.5,748.8L1494,789.05L1689.5,850.02L1885,871.3" style="fill:none;stroke:#FF0000;stroke-width:4" />
<path d="M130.46,137.67A5,5 0 1 1 120.46,137.67A5,5 0 1 1 130.46,137.67Z" style="fill:#FF0000" />
<path d="M325.97,374.8A5,5 0 1 1 315.97,374.8A5,5 0 1 1 325.97,374.8Z" style="fill:#FF0000" />
<path d="M521.47,499.19A5,5 0 1 1 511.47,499.19A5,5 0 1 1 521.47,499.19Z" style="fill:#FF0000" />
<path d="M716.97,574.27A5,5 0 1 1 706.97,574.27A5,5 0 1 1 716.97,574.27Z" style="fill:#FF0000" />
<path d="M912.48,643.64A5,5 0 1 1 902.48,643.64A5,5 0 1 1 912.48,643.64Z" style="fill:#FF0000" />
<path d="M1108,708.1A5,5 0 1 1 1098,708.1A5,5 0 1 1 1108,708.1Z" style="fill:#FF0000" />
<path d="M1303.5,748.8A5,5 0 1 1 1293.5,748.8A5,5 0 1 1 1303.5,748.8Z" style="fill:#FF0000" />
<path d="M1499,789.05A5,5 0 1 1 1489,789.05A5,5 0 1 1 1499,789.05Z" style="fill:#FF0000" />
<path d="M1694.5,850.02A5,5 0 1 1 1684.5,850.02A5,5 0 1 1 1694.5,850.02Z" style="fill:#FF0000" />
<path d="M1890,871.3A5,5 0 1 1 1880,871.3A5,5 0 1 1 1890,871.3Z" style="fill:#FF0000" />
<path d="M125.46,80.11L320.97,387.12L516.47,541.84L711.97,630.61L907.48,687.67L1103,747.7L1298.5,834.67L1494,885.69L1689.5,929.66L1885,993.07" style="fill:none;stroke:#0000FF;stroke-width:4" />
<path d="M130.46,80.11A5,5 0 1 1 120.46,80.11A5,5 0 1 1 130.46,80.11Z" style="fill:#0000FF" />
<path d="M325.97,387.12A5,5 0 1 1 315.97,387.12A5,5 0 1 1 325.97,387.12Z" style="fill:#0000FF" />
<path d="M521.47,541.84A5,5 0 1 1 511.47,541.84A5,5 0 1 1 521.47,541.84Z" style="fill:#0000FF" />
<path d="M716.97,630.61A5,5 0 1 1 706.97,630.61A5,5 0 1 1 716.97,630.61Z" style="fill:#0000FF" />
<path d="M912.48,687.67A5,5 0 1 1 902.48,687.67A5,5 0 1 1 912.48,687.67Z" style="fill:#0000FF" />
<path d="M1108,747.7A5,5 0 1 1 1098,747.7A5,5 0 1 1 1108,747.7Z" style="fill:#0000FF" />
<path d="M1303.5,834.67A5,5 0 1 1 1293.5,834.67A5,5 0 1 1 1303.5,834.67Z" style="fill:#0000FF" />
<path d="M1499,885.69A5,5 0 1 1 1489,885.69A5,5 0 1 1 1499,885.69Z" style="fill:#0000FF" />
<path d="M1694.5,929.66A5,5 0 1 1 1684.5,929.66A5,5 0 1 1 1694.5,929.66Z" style="fill:#0000FF" />
<path d="M1890,993.07A5,5 0 1 1 1880,993.07A5,5 0 1 1 1890,993.07Z" style="fill:#0000FF" />
<path d="M1900,105.66L1920,105.66" style="fill:none;stroke:#FF0000;stroke-width:4" />
<path d="M1915,105.66A5,5 0 1 1 1905,105.66A5,5 0 1 1 1915,105.66Z" style="fill:#FF0000" />
<text x="1795.4" y="-100.69" transform="scale(1, -1)"
	style="font-family:Liberation Serif;font-variant:normal;font-weight:normal;font-style:normal;font-size:24px">std::deque</text>
<path d="M1900,85.294L1920,85.294" style="fill:none;stroke:#0000FF;stroke-width:4" />
<path d="M1915,85.294A5,5 0 1 1 1905,85.294A5,5 0 1 1 1915,85.294Z" style="fill:#0000FF" />
<text x="1823.3" y="-80.319" transform="scale(1, -1)"
	style="font-family:Liberation Serif;font-variant:normal;font-weight:normal;font-style:normal;font-size:24px">std::list</text>
</g>
</svg>
