<?xml version="1.0"?>
<!-- Generated by SVGo and Plotinum VG -->
<svg width="1920pt" height="1080pt" viewBox="0 0 1920 1080"
	xmlns="http://www.w3.org/2000/svg"
	xmlns:xlink="http://www.w3.org/1999/xlink">
<g transform="scale(1, -1) translate(0, -1080)">
<path d="M0,0L1920,0L1920,1080L0,1080Z" style="fill:#FFFFFF" />
<text x="855.85" y="-1040.9" transform="scale(1, -1)"
	style="font-family:Liberation Serif;font-variant:normal;font-weight:normal;font-style:normal;font-size:50px">push-front</text>
<text x="900.27" y="-9.7559" transform="scale(1, -1)"
	style="font-family:Liberation Serif;font-variant:normal;font-weight:normal;font-style:normal;font-size:30px">Number of elements</text>
<text x="130.46" y="-39.727" transform="scale(1, -1)"
	style="font-family:Liberation Serif;font-variant:normal;font-weight:normal;font-style:normal;font-size:20px">100000</text>
<text x="322.08" y="-39.727" transform="scale(1, -1)"
	style="font-family:Liberation Serif;font-variant:normal;font-weight:normal;font-style:normal;font-size:20px">200000</text>
<text x="513.69" y="-39.727" transform="scale(1, -1)"
	style="font-family:Liberation Serif;font-variant:normal;font-weight:normal;font-style:normal;font-size:20px">300000</text>
<text x="705.31" y="-39.727" transform="scale(1, -1)"
	style="font-family:Liberation Serif;font-variant:normal;font-weight:normal;font-style:normal;font-size:20px">400000</text>
<text x="896.92" y="-39.727" transform="scale(1, -1)"
	style="font-family:Liberation Serif;font-variant:normal;font-weight:normal;font-style:normal;font-size:20px">500000</text>
<text x="1088.5" y="-39.727" transform="scale(1, -1)"
	style="font-family:Liberation Serif;font-variant:normal;font-weight:normal;font-style:normal;font-size:20px">600000</text>
<text x="1280.2" y="-39.727" transform="scale(1, -1)"
	style="font-family:Liberation Serif;font-variant:normal;font-weight:normal;font-style:normal;font-size:20px">700000</text>
<text x="1471.8" y="-39.727" transform="scale(1, -1)"
	style="font-family:Liberation Serif;font-variant:normal;font-weight:normal;font-style:normal;font-size:20px">800000</text>
<text x="1663.4" y="-39.727" transform="scale(1, -1)"
	style="font-family:Liberation Serif;font-variant:normal;font-weight:normal;font-style:normal;font-size:20px">900000</text>
<text x="1850" y="-39.727" transform="scale(1, -1)"
	style="font-family:Liberation Serif;font-variant:normal;font-weight:normal;font-style:normal;font-size:20px">1000000</text>
<path d="M160.46,55.371L160.46,63.371" style="fill:none;stroke:#000000;stroke-width:0.5" />
<path d="M352.08,55.371L352.08,63.371" style="fill:none;stroke:#000000;stroke-width:0.5" />
<path d="M543.69,55.371L543.69,63.371" style="fill:none;stroke:#000000;stroke-width:0.5" />
<path d="M735.31,55.371L735.31,63.371" style="fill:none;stroke:#000000;stroke-width:0.5" />
<path d="M926.92,55.371L926.92,63.371" style="fill:none;stroke:#000000;stroke-width:0.5" />
<path d="M1118.5,55.371L1118.5,63.371" style="fill:none;stroke:#000000;stroke-width:0.5" />
<path d="M1310.2,55.371L1310.2,63.371" style="fill:none;stroke:#000000;stroke-width:0.5" />
<path d="M1501.8,55.371L1501.8,63.371" style="fill:none;stroke:#000000;stroke-width:0.5" />
<path d="M1693.4,55.371L1693.4,63.371" style="fill:none;stroke:#000000;stroke-width:0.5" />
<path d="M1885,55.371L1885,63.371" style="fill:none;stroke:#000000;stroke-width:0.5" />
<path d="M160.46,63.371L1885,63.371" style="fill:none;stroke:#000000;stroke-width:0.5" />
<g transform="rotate(90)">
<text x="538.49" y="23.467" transform="scale(1, -1)"
	style="font-family:Liberation Serif;font-variant:normal;font-weight:normal;font-style:normal;font-size:30px">μs</text>
</g>
<text x="49.712" y="-152.31" transform="scale(1, -1)"
	style="font-family:Liberation Serif;font-variant:normal;font-weight:normal;font-style:normal;font-size:20px">250000.00</text>
<text x="39.712" y="-540.68" transform="scale(1, -1)"
	style="font-family:Liberation Serif;font-variant:normal;font-weight:normal;font-style:normal;font-size:20px">1250000.00</text>
<text x="39.712" y="-929.05" transform="scale(1, -1)"
	style="font-family:Liberation Serif;font-variant:normal;font-weight:normal;font-style:normal;font-size:20px">2250000.00</text>
<path d="M139.71,156.88L147.71,156.88" style="fill:none;stroke:#000000;stroke-width:0.5" />
<path d="M139.71,545.25L147.71,545.25" style="fill:none;stroke:#000000;stroke-width:0.5" />
<path d="M139.71,933.62L147.71,933.62" style="fill:none;stroke:#000000;stroke-width:0.5" />
<path d="M143.71,351.07L147.71,351.07" style="fill:none;stroke:#000000;stroke-width:0.5" />
<path d="M143.71,739.44L147.71,739.44" style="fill:none;stroke:#000000;stroke-width:0.5" />
<path d="M147.71,80.11L147.71,1024.6" style="fill:none;stroke:#000000;stroke-width:0.5" />
<path d="M160.46,80.11L160.46,1024.6" style="fill:none;stroke:#808080;stroke-width:0.25" />
<path d="M352.08,80.11L352.08,1024.6" style="fill:none;stroke:#808080;stroke-width:0.25" />
<path d="M543.69,80.11L543.69,1024.6" style="fill:none;stroke:#808080;stroke-width:0.25" />
<path d="M735.31,80.11L735.31,1024.6" style="fill:none;stroke:#808080;stroke-width:0.25" />
<path d="M926.92,80.11L926.92,1024.6" style="fill:none;stroke:#808080;stroke-width:0.25" />
<path d="M1118.5,80.11L1118.5,1024.6" style="fill:none;stroke:#808080;stroke-width:0.25" />
<path d="M1310.2,80.11L1310.2,1024.6" style="fill:none;stroke:#808080;stroke-width:0.25" />
<path d="M1501.8,80.11L1501.8,1024.6" style="fill:none;stroke:#808080;stroke-width:0.25" />
<path d="M1693.4,80.11L1693.4,1024.6" style="fill:none;stroke:#808080;stroke-width:0.25" />
<path d="M1885,80.11L1885,1024.6" style="fill:none;stroke:#808080;stroke-width:0.25" />
<path d="M160.46,156.88L1885,156.88" style="fill:none;stroke:#808080;stroke-width:0.25" />
<path d="M160.46,545.25L1885,545.25" style="fill:none;stroke:#808080;stroke-width:0.25" />
<path d="M160.46,933.62L1885,933.62" style="fill:none;stroke:#808080;stroke-width:0.25" />
<path d="M160.46,80.621L352.08,97.334L543.69,130.12L735.31,210.22L926.92,356.47L1118.5,362.15L1310.2,503.08L1501.8,936.92L1693.4,900.01L1885,544.96" style="fill:none;stroke:#FF0000;stroke-width:4" />
<path d="M165.46,80.621A5,5 0 1 1 155.46,80.621A5,5 0 1 1 165.46,80.621Z" style="fill:#FF0000" />
<path d="M357.08,97.334A5,5 0 1 1 347.08,97.334A5,5 0 1 1 357.08,97.334Z" style="fill:#FF0000" />
<path d="M548.69,130.12A5,5 0 1 1 538.69,130.12A5,5 0 1 1 548.69,130.12Z" style="fill:#FF0000" />
<path d="M740.31,210.22A5,5 0 1 1 730.31,210.22A5,5 0 1 1 740.31,210.22Z" style="fill:#FF0000" />
<path d="M931.92,356.47A5,5 0 1 1 921.92,356.47A5,5 0 1 1 931.92,356.47Z" style="fill:#FF0000" />
<path d="M1123.5,362.15A5,5 0 1 1 1113.5,362.15A5,5 0 1 1 1123.5,362.15Z" style="fill:#FF0000" />
<path d="M1315.2,503.08A5,5 0 1 1 1305.2,503.08A5,5 0 1 1 1315.2,503.08Z" style="fill:#FF0000" />
<path d="M1506.8,936.92A5,5 0 1 1 1496.8,936.92A5,5 0 1 1 1506.8,936.92Z" style="fill:#FF0000" />
<path d="M1698.4,900.01A5,5 0 1 1 1688.4,900.01A5,5 0 1 1 1698.4,900.01Z" style="fill:#FF0000" />
<path d="M1890,544.96A5,5 0 1 1 1880,544.96A5,5 0 1 1 1890,544.96Z" style="fill:#FF0000" />
<path d="M160.46,80.11L352.08,97.32L543.69,128.45L735.31,174.08L926.92,221.05L1118.5,268.67L1310.2,322.5L1501.8,377.02L1693.4,486.93L1885,494.44" style="fill:none;stroke:#0000FF;stroke-width:4" />
<path d="M165.46,80.11A5,5 0 1 1 155.46,80.11A5,5 0 1 1 165.46,80.11Z" style="fill:#0000FF" />
<path d="M357.08,97.32A5,5 0 1 1 347.08,97.32A5,5 0 1 1 357.08,97.32Z" style="fill:#0000FF" />
<path d="M548.69,128.45A5,5 0 1 1 538.69,128.45A5,5 0 1 1 548.69,128.45Z" style="fill:#0000FF" />
<path d="M740.31,174.08A5,5 0 1 1 730.31,174.08A5,5 0 1 1 740.31,174.08Z" style="fill:#0000FF" />
<path d="M931.92,221.05A5,5 0 1 1 921.92,221.05A5,5 0 1 1 931.92,221.05Z" style="fill:#0000FF" />
<path d="M1123.5,268.67A5,5 0 1 1 1113.5,268.67A5,5 0 1 1 1123.5,268.67Z" style="fill:#0000FF" />
<path d="M1315.2,322.5A5,5 0 1 1 1305.2,322.5A5,5 0 1 1 1315.2,322.5Z" style="fill:#0000FF" />
<path d="M1506.8,377.02A5,5 0 1 1 1496.8,377.02A5,5 0 1 1 1506.8,377.02Z" style="fill:#0000FF" />
<path d="M1698.4,486.93A5,5 0 1 1 1688.4,486.93A5,5 0 1 1 1698.4,486.93Z" style="fill:#0000FF" />
<path d="M1890,494.44A5,5 0 1 1 1880,494.44A5,5 0 1 1 1890,494.44Z" style="fill:#0000FF" />
<path d="M1900,105.66L1920,105.66" style="fill:none;stroke:#FF0000;stroke-width:4" />
<path d="M1915,105.66A5,5 0 1 1 1905,105.66A5,5 0 1 1 1915,105.66Z" style="fill:#FF0000" />
<text x="1823.3" y="-100.69" transform="scale(1, -1)"
	style="font-family:Liberation Serif;font-variant:normal;font-weight:normal;font-style:normal;font-size:24px">std::list</text>
<path d="M1900,85.294L1920,85.294" style="fill:none;stroke:#0000FF;stroke-width:4" />
<path d="M1915,85.294A5,5 0 1 1 1905,85.294A5,5 0 1 1 1915,85.294Z" style="fill:#0000FF" />
<text x="1795.4" y="-80.319" transform="scale(1, -1)"
	style="font-family:Liberation Serif;font-variant:normal;font-weight:normal;font-style:normal;font-size:24px">std::deque</text>
</g>
</svg>
