<?xml version="1.0"?>
<!-- Generated by SVGo and Plotinum VG -->
<svg width="1920pt" height="1080pt" viewBox="0 0 1920 1080"
	xmlns="http://www.w3.org/2000/svg"
	xmlns:xlink="http://www.w3.org/1999/xlink">
<g transform="scale(1, -1) translate(0, -1080)">
<path d="M0,0L1920,0L1920,1080L0,1080Z" style="fill:#FFFFFF" />
<text x="855.85" y="-1040.9" transform="scale(1, -1)"
	style="font-family:Liberation Serif;font-variant:normal;font-weight:normal;font-style:normal;font-size:50px">push-front</text>
<text x="877.85" y="-9.7559" transform="scale(1, -1)"
	style="font-family:Liberation Serif;font-variant:normal;font-weight:normal;font-style:normal;font-size:30px">Number of elements</text>
<text x="85.618" y="-39.727" transform="scale(1, -1)"
	style="font-family:Liberation Serif;font-variant:normal;font-weight:normal;font-style:normal;font-size:20px">100000</text>
<text x="282.22" y="-39.727" transform="scale(1, -1)"
	style="font-family:Liberation Serif;font-variant:normal;font-weight:normal;font-style:normal;font-size:20px">200000</text>
<text x="478.81" y="-39.727" transform="scale(1, -1)"
	style="font-family:Liberation Serif;font-variant:normal;font-weight:normal;font-style:normal;font-size:20px">300000</text>
<text x="675.41" y="-39.727" transform="scale(1, -1)"
	style="font-family:Liberation Serif;font-variant:normal;font-weight:normal;font-style:normal;font-size:20px">400000</text>
<text x="872.01" y="-39.727" transform="scale(1, -1)"
	style="font-family:Liberation Serif;font-variant:normal;font-weight:normal;font-style:normal;font-size:20px">500000</text>
<text x="1068.6" y="-39.727" transform="scale(1, -1)"
	style="font-family:Liberation Serif;font-variant:normal;font-weight:normal;font-style:normal;font-size:20px">600000</text>
<text x="1265.2" y="-39.727" transform="scale(1, -1)"
	style="font-family:Liberation Serif;font-variant:normal;font-weight:normal;font-style:normal;font-size:20px">700000</text>
<text x="1461.8" y="-39.727" transform="scale(1, -1)"
	style="font-family:Liberation Serif;font-variant:normal;font-weight:normal;font-style:normal;font-size:20px">800000</text>
<text x="1658.4" y="-39.727" transform="scale(1, -1)"
	style="font-family:Liberation Serif;font-variant:normal;font-weight:normal;font-style:normal;font-size:20px">900000</text>
<text x="1850" y="-39.727" transform="scale(1, -1)"
	style="font-family:Liberation Serif;font-variant:normal;font-weight:normal;font-style:normal;font-size:20px">1000000</text>
<path d="M115.62,55.371L115.62,63.371" style="fill:none;stroke:#000000;stroke-width:0.5" />
<path d="M312.22,55.371L312.22,63.371" style="fill:none;stroke:#000000;stroke-width:0.5" />
<path d="M508.81,55.371L508.81,63.371" style="fill:none;stroke:#000000;stroke-width:0.5" />
<path d="M705.41,55.371L705.41,63.371" style="fill:none;stroke:#000000;stroke-width:0.5" />
<path d="M902.01,55.371L902.01,63.371" style="fill:none;stroke:#000000;stroke-width:0.5" />
<path d="M1098.6,55.371L1098.6,63.371" style="fill:none;stroke:#000000;stroke-width:0.5" />
<path d="M1295.2,55.371L1295.2,63.371" style="fill:none;stroke:#000000;stroke-width:0.5" />
<path d="M1491.8,55.371L1491.8,63.371" style="fill:none;stroke:#000000;stroke-width:0.5" />
<path d="M1688.4,55.371L1688.4,63.371" style="fill:none;stroke:#000000;stroke-width:0.5" />
<path d="M1885,55.371L1885,63.371" style="fill:none;stroke:#000000;stroke-width:0.5" />
<path d="M115.62,63.371L1885,63.371" style="fill:none;stroke:#000000;stroke-width:0.5" />
<g transform="rotate(90)">
<text x="538.49" y="23.467" transform="scale(1, -1)"
	style="font-family:Liberation Serif;font-variant:normal;font-weight:normal;font-style:normal;font-size:30px">μs</text>
</g>
<text x="39.712" y="-240.85" transform="scale(1, -1)"
	style="font-family:Liberation Serif;font-variant:normal;font-weight:normal;font-style:normal;font-size:20px">2e+07</text>
<text x="39.712" y="-571.53" transform="scale(1, -1)"
	style="font-family:Liberation Serif;font-variant:normal;font-weight:normal;font-style:normal;font-size:20px">6e+07</text>
<text x="39.712" y="-902.21" transform="scale(1, -1)"
	style="font-family:Liberation Serif;font-variant:normal;font-weight:normal;font-style:normal;font-size:20px">1e+08</text>
<path d="M94.868,245.42L102.87,245.42" style="fill:none;stroke:#000000;stroke-width:0.5" />
<path d="M94.868,576.1L102.87,576.1" style="fill:none;stroke:#000000;stroke-width:0.5" />
<path d="M94.868,906.78L102.87,906.78" style="fill:none;stroke:#000000;stroke-width:0.5" />
<path d="M98.868,162.75L102.87,162.75" style="fill:none;stroke:#000000;stroke-width:0.5" />
<path d="M98.868,328.09L102.87,328.09" style="fill:none;stroke:#000000;stroke-width:0.5" />
<path d="M98.868,410.76L102.87,410.76" style="fill:none;stroke:#000000;stroke-width:0.5" />
<path d="M98.868,493.43L102.87,493.43" style="fill:none;stroke:#000000;stroke-width:0.5" />
<path d="M98.868,658.77L102.87,658.77" style="fill:none;stroke:#000000;stroke-width:0.5" />
<path d="M98.868,741.44L102.87,741.44" style="fill:none;stroke:#000000;stroke-width:0.5" />
<path d="M98.868,824.11L102.87,824.11" style="fill:none;stroke:#000000;stroke-width:0.5" />
<path d="M98.868,989.45L102.87,989.45" style="fill:none;stroke:#000000;stroke-width:0.5" />
<path d="M102.87,80.11L102.87,1024.6" style="fill:none;stroke:#000000;stroke-width:0.5" />
<path d="M115.62,80.11L115.62,1024.6" style="fill:none;stroke:#808080;stroke-width:0.25" />
<path d="M312.22,80.11L312.22,1024.6" style="fill:none;stroke:#808080;stroke-width:0.25" />
<path d="M508.81,80.11L508.81,1024.6" style="fill:none;stroke:#808080;stroke-width:0.25" />
<path d="M705.41,80.11L705.41,1024.6" style="fill:none;stroke:#808080;stroke-width:0.25" />
<path d="M902.01,80.11L902.01,1024.6" style="fill:none;stroke:#808080;stroke-width:0.25" />
<path d="M1098.6,80.11L1098.6,1024.6" style="fill:none;stroke:#808080;stroke-width:0.25" />
<path d="M1295.2,80.11L1295.2,1024.6" style="fill:none;stroke:#808080;stroke-width:0.25" />
<path d="M1491.8,80.11L1491.8,1024.6" style="fill:none;stroke:#808080;stroke-width:0.25" />
<path d="M1688.4,80.11L1688.4,1024.6" style="fill:none;stroke:#808080;stroke-width:0.25" />
<path d="M1885,80.11L1885,1024.6" style="fill:none;stroke:#808080;stroke-width:0.25" />
<path d="M115.62,245.42L1885,245.42" style="fill:none;stroke:#808080;stroke-width:0.25" />
<path d="M115.62,576.1L1885,576.1" style="fill:none;stroke:#808080;stroke-width:0.25" />
<path d="M115.62,906.78L1885,906.78" style="fill:none;stroke:#808080;stroke-width:0.25" />
<path d="M115.62,85.409L312.22,103.99L508.81,147.08L705.41,205.52L902.01,274.63L1098.6,373.63L1295.2,512.71L1491.8,637.72L1688.4,794.71L1885,938.76" style="fill:none;stroke:#FF0000;stroke-width:4" />
<path d="M120.62,85.409A5,5 0 1 1 110.62,85.409A5,5 0 1 1 120.62,85.409Z" style="fill:#FF0000" />
<path d="M317.22,103.99A5,5 0 1 1 307.22,103.99A5,5 0 1 1 317.22,103.99Z" style="fill:#FF0000" />
<path d="M513.81,147.08A5,5 0 1 1 503.81,147.08A5,5 0 1 1 513.81,147.08Z" style="fill:#FF0000" />
<path d="M710.41,205.52A5,5 0 1 1 700.41,205.52A5,5 0 1 1 710.41,205.52Z" style="fill:#FF0000" />
<path d="M907.01,274.63A5,5 0 1 1 897.01,274.63A5,5 0 1 1 907.01,274.63Z" style="fill:#FF0000" />
<path d="M1103.6,373.63A5,5 0 1 1 1093.6,373.63A5,5 0 1 1 1103.6,373.63Z" style="fill:#FF0000" />
<path d="M1300.2,512.71A5,5 0 1 1 1290.2,512.71A5,5 0 1 1 1300.2,512.71Z" style="fill:#FF0000" />
<path d="M1496.8,637.72A5,5 0 1 1 1486.8,637.72A5,5 0 1 1 1496.8,637.72Z" style="fill:#FF0000" />
<path d="M1693.4,794.71A5,5 0 1 1 1683.4,794.71A5,5 0 1 1 1693.4,794.71Z" style="fill:#FF0000" />
<path d="M1890,938.76A5,5 0 1 1 1880,938.76A5,5 0 1 1 1890,938.76Z" style="fill:#FF0000" />
<path d="M115.62,80.139L312.22,80.193L508.81,80.226L705.41,80.325L902.01,80.355L1098.6,80.397L1295.2,80.431L1491.8,80.486L1688.4,80.579L1885,80.683" style="fill:none;stroke:#0000FF;stroke-width:4" />
<path d="M120.62,80.139A5,5 0 1 1 110.62,80.139A5,5 0 1 1 120.62,80.139Z" style="fill:#0000FF" />
<path d="M317.22,80.193A5,5 0 1 1 307.22,80.193A5,5 0 1 1 317.22,80.193Z" style="fill:#0000FF" />
<path d="M513.81,80.226A5,5 0 1 1 503.81,80.226A5,5 0 1 1 513.81,80.226Z" style="fill:#0000FF" />
<path d="M710.41,80.325A5,5 0 1 1 700.41,80.325A5,5 0 1 1 710.41,80.325Z" style="fill:#0000FF" />
<path d="M907.01,80.355A5,5 0 1 1 897.01,80.355A5,5 0 1 1 907.01,80.355Z" style="fill:#0000FF" />
<path d="M1103.6,80.397A5,5 0 1 1 1093.6,80.397A5,5 0 1 1 1103.6,80.397Z" style="fill:#0000FF" />
<path d="M1300.2,80.431A5,5 0 1 1 1290.2,80.431A5,5 0 1 1 1300.2,80.431Z" style="fill:#0000FF" />
<path d="M1496.8,80.486A5,5 0 1 1 1486.8,80.486A5,5 0 1 1 1496.8,80.486Z" style="fill:#0000FF" />
<path d="M1693.4,80.579A5,5 0 1 1 1683.4,80.579A5,5 0 1 1 1693.4,80.579Z" style="fill:#0000FF" />
<path d="M1890,80.683A5,5 0 1 1 1880,80.683A5,5 0 1 1 1890,80.683Z" style="fill:#0000FF" />
<path d="M115.62,80.11L312.22,80.118L508.81,80.136L705.41,80.161L902.01,80.176L1098.6,80.191L1295.2,80.223L1491.8,80.222L1688.4,80.246L1885,80.28" style="fill:none;stroke:#00FF00;stroke-width:4" />
<path d="M120.62,80.11A5,5 0 1 1 110.62,80.11A5,5 0 1 1 120.62,80.11Z" style="fill:#00FF00" />
<path d="M317.22,80.118A5,5 0 1 1 307.22,80.118A5,5 0 1 1 317.22,80.118Z" style="fill:#00FF00" />
<path d="M513.81,80.136A5,5 0 1 1 503.81,80.136A5,5 0 1 1 513.81,80.136Z" style="fill:#00FF00" />
<path d="M710.41,80.161A5,5 0 1 1 700.41,80.161A5,5 0 1 1 710.41,80.161Z" style="fill:#00FF00" />
<path d="M907.01,80.176A5,5 0 1 1 897.01,80.176A5,5 0 1 1 907.01,80.176Z" style="fill:#00FF00" />
<path d="M1103.6,80.191A5,5 0 1 1 1093.6,80.191A5,5 0 1 1 1103.6,80.191Z" style="fill:#00FF00" />
<path d="M1300.2,80.223A5,5 0 1 1 1290.2,80.223A5,5 0 1 1 1300.2,80.223Z" style="fill:#00FF00" />
<path d="M1496.8,80.222A5,5 0 1 1 1486.8,80.222A5,5 0 1 1 1496.8,80.222Z" style="fill:#00FF00" />
<path d="M1693.4,80.246A5,5 0 1 1 1683.4,80.246A5,5 0 1 1 1693.4,80.246Z" style="fill:#00FF00" />
<path d="M1890,80.28A5,5 0 1 1 1880,80.28A5,5 0 1 1 1890,80.28Z" style="fill:#00FF00" />
<path d="M1900,126.03L1920,126.03" style="fill:none;stroke:#FF0000;stroke-width:4" />
<path d="M1915,126.03A5,5 0 1 1 1905,126.03A5,5 0 1 1 1915,126.03Z" style="fill:#FF0000" />
<text x="1792.7" y="-121.05" transform="scale(1, -1)"
	style="font-family:Liberation Serif;font-variant:normal;font-weight:normal;font-style:normal;font-size:24px">std::vector</text>
<path d="M1900,105.66L1920,105.66" style="fill:none;stroke:#0000FF;stroke-width:4" />
<path d="M1915,105.66A5,5 0 1 1 1905,105.66A5,5 0 1 1 1915,105.66Z" style="fill:#0000FF" />
<text x="1823.3" y="-100.69" transform="scale(1, -1)"
	style="font-family:Liberation Serif;font-variant:normal;font-weight:normal;font-style:normal;font-size:24px">std::list</text>
<path d="M1900,85.294L1920,85.294" style="fill:none;stroke:#00FF00;stroke-width:4" />
<path d="M1915,85.294A5,5 0 1 1 1905,85.294A5,5 0 1 1 1915,85.294Z" style="fill:#00FF00" />
<text x="1795.4" y="-80.319" transform="scale(1, -1)"
	style="font-family:Liberation Serif;font-variant:normal;font-weight:normal;font-style:normal;font-size:24px">std::deque</text>
</g>
</svg>
