<?xml version="1.0"?>
<!-- Generated by SVGo and Plotinum VG -->
<svg width="1920pt" height="1080pt" viewBox="0 0 1920 1080"
	xmlns="http://www.w3.org/2000/svg"
	xmlns:xlink="http://www.w3.org/1999/xlink">
<g transform="scale(1, -1) translate(0, -1080)">
<path d="M0,0L1920,0L1920,1080L0,1080Z" style="fill:#FFFFFF" />
<text x="801.02" y="-1040.9" transform="scale(1, -1)"
	style="font-family:Liberation Serif;font-variant:normal;font-weight:normal;font-style:normal;font-size:50px">sort - Log Scale</text>
<text x="897.77" y="-9.7559" transform="scale(1, -1)"
	style="font-family:Liberation Serif;font-variant:normal;font-weight:normal;font-style:normal;font-size:30px">Number of elements</text>
<text x="125.46" y="-39.727" transform="scale(1, -1)"
	style="font-family:Liberation Serif;font-variant:normal;font-weight:normal;font-style:normal;font-size:20px">10000</text>
<text x="318.74" y="-39.727" transform="scale(1, -1)"
	style="font-family:Liberation Serif;font-variant:normal;font-weight:normal;font-style:normal;font-size:20px">20000</text>
<text x="512.03" y="-39.727" transform="scale(1, -1)"
	style="font-family:Liberation Serif;font-variant:normal;font-weight:normal;font-style:normal;font-size:20px">30000</text>
<text x="705.31" y="-39.727" transform="scale(1, -1)"
	style="font-family:Liberation Serif;font-variant:normal;font-weight:normal;font-style:normal;font-size:20px">40000</text>
<text x="898.59" y="-39.727" transform="scale(1, -1)"
	style="font-family:Liberation Serif;font-variant:normal;font-weight:normal;font-style:normal;font-size:20px">50000</text>
<text x="1091.9" y="-39.727" transform="scale(1, -1)"
	style="font-family:Liberation Serif;font-variant:normal;font-weight:normal;font-style:normal;font-size:20px">60000</text>
<text x="1285.2" y="-39.727" transform="scale(1, -1)"
	style="font-family:Liberation Serif;font-variant:normal;font-weight:normal;font-style:normal;font-size:20px">70000</text>
<text x="1478.4" y="-39.727" transform="scale(1, -1)"
	style="font-family:Liberation Serif;font-variant:normal;font-weight:normal;font-style:normal;font-size:20px">80000</text>
<text x="1671.7" y="-39.727" transform="scale(1, -1)"
	style="font-family:Liberation Serif;font-variant:normal;font-weight:normal;font-style:normal;font-size:20px">90000</text>
<text x="1860" y="-39.727" transform="scale(1, -1)"
	style="font-family:Liberation Serif;font-variant:normal;font-weight:normal;font-style:normal;font-size:20px">100000</text>
<path d="M150.46,55.371L150.46,63.371" style="fill:none;stroke:#000000;stroke-width:0.5" />
<path d="M343.74,55.371L343.74,63.371" style="fill:none;stroke:#000000;stroke-width:0.5" />
<path d="M537.03,55.371L537.03,63.371" style="fill:none;stroke:#000000;stroke-width:0.5" />
<path d="M730.31,55.371L730.31,63.371" style="fill:none;stroke:#000000;stroke-width:0.5" />
<path d="M923.59,55.371L923.59,63.371" style="fill:none;stroke:#000000;stroke-width:0.5" />
<path d="M1116.9,55.371L1116.9,63.371" style="fill:none;stroke:#000000;stroke-width:0.5" />
<path d="M1310.2,55.371L1310.2,63.371" style="fill:none;stroke:#000000;stroke-width:0.5" />
<path d="M1503.4,55.371L1503.4,63.371" style="fill:none;stroke:#000000;stroke-width:0.5" />
<path d="M1696.7,55.371L1696.7,63.371" style="fill:none;stroke:#000000;stroke-width:0.5" />
<path d="M1890,55.371L1890,63.371" style="fill:none;stroke:#000000;stroke-width:0.5" />
<path d="M150.46,63.371L1890,63.371" style="fill:none;stroke:#000000;stroke-width:0.5" />
<g transform="rotate(90)">
<text x="485.87" y="23.467" transform="scale(1, -1)"
	style="font-family:Liberation Serif;font-variant:normal;font-weight:normal;font-style:normal;font-size:30px">log(μs + 1)</text>
</g>
<text x="49.712" y="-492.56" transform="scale(1, -1)"
	style="font-family:Liberation Serif;font-variant:normal;font-weight:normal;font-style:normal;font-size:20px">25000.00</text>
<text x="39.712" y="-870.58" transform="scale(1, -1)"
	style="font-family:Liberation Serif;font-variant:normal;font-weight:normal;font-style:normal;font-size:20px">125000.00</text>
<text x="39.712" y="-1008.6" transform="scale(1, -1)"
	style="font-family:Liberation Serif;font-variant:normal;font-weight:normal;font-style:normal;font-size:20px">225000.00</text>
<path d="M129.71,497.13L137.71,497.13" style="fill:none;stroke:#000000;stroke-width:0.5" />
<path d="M129.71,875.15L137.71,875.15" style="fill:none;stroke:#000000;stroke-width:0.5" />
<path d="M129.71,1013.2L137.71,1013.2" style="fill:none;stroke:#000000;stroke-width:0.5" />
<path d="M133.71,755.17L137.71,755.17" style="fill:none;stroke:#000000;stroke-width:0.5" />
<path d="M133.71,954.18L137.71,954.18" style="fill:none;stroke:#000000;stroke-width:0.5" />
<path d="M137.71,80.11L137.71,1024.6" style="fill:none;stroke:#000000;stroke-width:0.5" />
<path d="M150.46,80.11L150.46,1024.6" style="fill:none;stroke:#808080;stroke-width:0.25" />
<path d="M343.74,80.11L343.74,1024.6" style="fill:none;stroke:#808080;stroke-width:0.25" />
<path d="M537.03,80.11L537.03,1024.6" style="fill:none;stroke:#808080;stroke-width:0.25" />
<path d="M730.31,80.11L730.31,1024.6" style="fill:none;stroke:#808080;stroke-width:0.25" />
<path d="M923.59,80.11L923.59,1024.6" style="fill:none;stroke:#808080;stroke-width:0.25" />
<path d="M1116.9,80.11L1116.9,1024.6" style="fill:none;stroke:#808080;stroke-width:0.25" />
<path d="M1310.2,80.11L1310.2,1024.6" style="fill:none;stroke:#808080;stroke-width:0.25" />
<path d="M1503.4,80.11L1503.4,1024.6" style="fill:none;stroke:#808080;stroke-width:0.25" />
<path d="M1696.7,80.11L1696.7,1024.6" style="fill:none;stroke:#808080;stroke-width:0.25" />
<path d="M1890,80.11L1890,1024.6" style="fill:none;stroke:#808080;stroke-width:0.25" />
<path d="M150.46,497.13L1890,497.13" style="fill:none;stroke:#808080;stroke-width:0.25" />
<path d="M150.46,875.15L1890,875.15" style="fill:none;stroke:#808080;stroke-width:0.25" />
<path d="M150.46,1013.2L1890,1013.2" style="fill:none;stroke:#808080;stroke-width:0.25" />
<path d="M150.46,80.11L343.74,283.97L537.03,438.8L730.31,510.9L923.59,558.6L1116.9,616.17L1310.2,639.89L1503.4,668.13L1696.7,659.9L1890,723.93" style="fill:none;stroke:#FF0000;stroke-width:4" />
<path d="M155.46,80.11A5,5 0 1 1 145.46,80.11A5,5 0 1 1 155.46,80.11Z" style="fill:#FF0000" />
<path d="M348.74,283.97A5,5 0 1 1 338.74,283.97A5,5 0 1 1 348.74,283.97Z" style="fill:#FF0000" />
<path d="M542.03,438.8A5,5 0 1 1 532.03,438.8A5,5 0 1 1 542.03,438.8Z" style="fill:#FF0000" />
<path d="M735.31,510.9A5,5 0 1 1 725.31,510.9A5,5 0 1 1 735.31,510.9Z" style="fill:#FF0000" />
<path d="M928.59,558.6A5,5 0 1 1 918.59,558.6A5,5 0 1 1 928.59,558.6Z" style="fill:#FF0000" />
<path d="M1121.9,616.17A5,5 0 1 1 1111.9,616.17A5,5 0 1 1 1121.9,616.17Z" style="fill:#FF0000" />
<path d="M1315.2,639.89A5,5 0 1 1 1305.2,639.89A5,5 0 1 1 1315.2,639.89Z" style="fill:#FF0000" />
<path d="M1508.4,668.13A5,5 0 1 1 1498.4,668.13A5,5 0 1 1 1508.4,668.13Z" style="fill:#FF0000" />
<path d="M1701.7,659.9A5,5 0 1 1 1691.7,659.9A5,5 0 1 1 1701.7,659.9Z" style="fill:#FF0000" />
<path d="M1895,723.93A5,5 0 1 1 1885,723.93A5,5 0 1 1 1895,723.93Z" style="fill:#FF0000" />
<path d="M150.46,382.14L343.74,570.85L537.03,690.08L730.31,750.5L923.59,799.02L1116.9,844.53L1310.2,904.5L1503.4,952.37L1696.7,964.24L1890,1002.2" style="fill:none;stroke:#0000FF;stroke-width:4" />
<path d="M155.46,382.14A5,5 0 1 1 145.46,382.14A5,5 0 1 1 155.46,382.14Z" style="fill:#0000FF" />
<path d="M348.74,570.85A5,5 0 1 1 338.74,570.85A5,5 0 1 1 348.74,570.85Z" style="fill:#0000FF" />
<path d="M542.03,690.08A5,5 0 1 1 532.03,690.08A5,5 0 1 1 542.03,690.08Z" style="fill:#0000FF" />
<path d="M735.31,750.5A5,5 0 1 1 725.31,750.5A5,5 0 1 1 735.31,750.5Z" style="fill:#0000FF" />
<path d="M928.59,799.02A5,5 0 1 1 918.59,799.02A5,5 0 1 1 928.59,799.02Z" style="fill:#0000FF" />
<path d="M1121.9,844.53A5,5 0 1 1 1111.9,844.53A5,5 0 1 1 1121.9,844.53Z" style="fill:#0000FF" />
<path d="M1315.2,904.5A5,5 0 1 1 1305.2,904.5A5,5 0 1 1 1315.2,904.5Z" style="fill:#0000FF" />
<path d="M1508.4,952.37A5,5 0 1 1 1498.4,952.37A5,5 0 1 1 1508.4,952.37Z" style="fill:#0000FF" />
<path d="M1701.7,964.24A5,5 0 1 1 1691.7,964.24A5,5 0 1 1 1701.7,964.24Z" style="fill:#0000FF" />
<path d="M1895,1002.2A5,5 0 1 1 1885,1002.2A5,5 0 1 1 1895,1002.2Z" style="fill:#0000FF" />
<path d="M150.46,366.55L343.74,563.77L537.03,656.02L730.31,723.02L923.59,780.78L1116.9,847.84L1310.2,880L1503.4,906.64L1696.7,931.64L1890,975.67" style="fill:none;stroke:#00FF00;stroke-width:4" />
<path d="M155.46,366.55A5,5 0 1 1 145.46,366.55A5,5 0 1 1 155.46,366.55Z" style="fill:#00FF00" />
<path d="M348.74,563.77A5,5 0 1 1 338.74,563.77A5,5 0 1 1 348.74,563.77Z" style="fill:#00FF00" />
<path d="M542.03,656.02A5,5 0 1 1 532.03,656.02A5,5 0 1 1 542.03,656.02Z" style="fill:#00FF00" />
<path d="M735.31,723.02A5,5 0 1 1 725.31,723.02A5,5 0 1 1 735.31,723.02Z" style="fill:#00FF00" />
<path d="M928.59,780.78A5,5 0 1 1 918.59,780.78A5,5 0 1 1 928.59,780.78Z" style="fill:#00FF00" />
<path d="M1121.9,847.84A5,5 0 1 1 1111.9,847.84A5,5 0 1 1 1121.9,847.84Z" style="fill:#00FF00" />
<path d="M1315.2,880A5,5 0 1 1 1305.2,880A5,5 0 1 1 1315.2,880Z" style="fill:#00FF00" />
<path d="M1508.4,906.64A5,5 0 1 1 1498.4,906.64A5,5 0 1 1 1508.4,906.64Z" style="fill:#00FF00" />
<path d="M1701.7,931.64A5,5 0 1 1 1691.7,931.64A5,5 0 1 1 1701.7,931.64Z" style="fill:#00FF00" />
<path d="M1895,975.67A5,5 0 1 1 1885,975.67A5,5 0 1 1 1895,975.67Z" style="fill:#00FF00" />
<path d="M1900,126.03L1920,126.03" style="fill:none;stroke:#FF0000;stroke-width:4" />
<path d="M1915,126.03A5,5 0 1 1 1905,126.03A5,5 0 1 1 1915,126.03Z" style="fill:#FF0000" />
<text x="1823.3" y="-121.05" transform="scale(1, -1)"
	style="font-family:Liberation Serif;font-variant:normal;font-weight:normal;font-style:normal;font-size:24px">std::list</text>
<path d="M1900,105.66L1920,105.66" style="fill:none;stroke:#0000FF;stroke-width:4" />
<path d="M1915,105.66A5,5 0 1 1 1905,105.66A5,5 0 1 1 1915,105.66Z" style="fill:#0000FF" />
<text x="1795.4" y="-100.69" transform="scale(1, -1)"
	style="font-family:Liberation Serif;font-variant:normal;font-weight:normal;font-style:normal;font-size:24px">std::deque</text>
<path d="M1900,85.294L1920,85.294" style="fill:none;stroke:#00FF00;stroke-width:4" />
<path d="M1915,85.294A5,5 0 1 1 1905,85.294A5,5 0 1 1 1915,85.294Z" style="fill:#00FF00" />
<text x="1792.7" y="-80.319" transform="scale(1, -1)"
	style="font-family:Liberation Serif;font-variant:normal;font-weight:normal;font-style:normal;font-size:24px">std::vector</text>
</g>
</svg>
