<?xml version="1.0"?>
<!-- Generated by SVGo and Plotinum VG -->
<svg width="1920pt" height="1080pt" viewBox="0 0 1920 1080"
	xmlns="http://www.w3.org/2000/svg"
	xmlns:xlink="http://www.w3.org/1999/xlink">
<g transform="scale(1, -1) translate(0, -1080)">
<path d="M0,0L1920,0L1920,1080L0,1080Z" style="fill:#FFFFFF" />
<text x="801.02" y="-1040.9" transform="scale(1, -1)"
	style="font-family:Liberation Serif;font-variant:normal;font-weight:normal;font-style:normal;font-size:50px">sort - Log Scale</text>
<text x="897.77" y="-9.7559" transform="scale(1, -1)"
	style="font-family:Liberation Serif;font-variant:normal;font-weight:normal;font-style:normal;font-size:30px">Number of elements</text>
<text x="125.46" y="-39.727" transform="scale(1, -1)"
	style="font-family:Liberation Serif;font-variant:normal;font-weight:normal;font-style:normal;font-size:20px">10000</text>
<text x="318.74" y="-39.727" transform="scale(1, -1)"
	style="font-family:Liberation Serif;font-variant:normal;font-weight:normal;font-style:normal;font-size:20px">20000</text>
<text x="512.03" y="-39.727" transform="scale(1, -1)"
	style="font-family:Liberation Serif;font-variant:normal;font-weight:normal;font-style:normal;font-size:20px">30000</text>
<text x="705.31" y="-39.727" transform="scale(1, -1)"
	style="font-family:Liberation Serif;font-variant:normal;font-weight:normal;font-style:normal;font-size:20px">40000</text>
<text x="898.59" y="-39.727" transform="scale(1, -1)"
	style="font-family:Liberation Serif;font-variant:normal;font-weight:normal;font-style:normal;font-size:20px">50000</text>
<text x="1091.9" y="-39.727" transform="scale(1, -1)"
	style="font-family:Liberation Serif;font-variant:normal;font-weight:normal;font-style:normal;font-size:20px">60000</text>
<text x="1285.2" y="-39.727" transform="scale(1, -1)"
	style="font-family:Liberation Serif;font-variant:normal;font-weight:normal;font-style:normal;font-size:20px">70000</text>
<text x="1478.4" y="-39.727" transform="scale(1, -1)"
	style="font-family:Liberation Serif;font-variant:normal;font-weight:normal;font-style:normal;font-size:20px">80000</text>
<text x="1671.7" y="-39.727" transform="scale(1, -1)"
	style="font-family:Liberation Serif;font-variant:normal;font-weight:normal;font-style:normal;font-size:20px">90000</text>
<text x="1860" y="-39.727" transform="scale(1, -1)"
	style="font-family:Liberation Serif;font-variant:normal;font-weight:normal;font-style:normal;font-size:20px">100000</text>
<path d="M150.46,55.371L150.46,63.371" style="fill:none;stroke:#000000;stroke-width:0.5" />
<path d="M343.74,55.371L343.74,63.371" style="fill:none;stroke:#000000;stroke-width:0.5" />
<path d="M537.03,55.371L537.03,63.371" style="fill:none;stroke:#000000;stroke-width:0.5" />
<path d="M730.31,55.371L730.31,63.371" style="fill:none;stroke:#000000;stroke-width:0.5" />
<path d="M923.59,55.371L923.59,63.371" style="fill:none;stroke:#000000;stroke-width:0.5" />
<path d="M1116.9,55.371L1116.9,63.371" style="fill:none;stroke:#000000;stroke-width:0.5" />
<path d="M1310.2,55.371L1310.2,63.371" style="fill:none;stroke:#000000;stroke-width:0.5" />
<path d="M1503.4,55.371L1503.4,63.371" style="fill:none;stroke:#000000;stroke-width:0.5" />
<path d="M1696.7,55.371L1696.7,63.371" style="fill:none;stroke:#000000;stroke-width:0.5" />
<path d="M1890,55.371L1890,63.371" style="fill:none;stroke:#000000;stroke-width:0.5" />
<path d="M150.46,63.371L1890,63.371" style="fill:none;stroke:#000000;stroke-width:0.5" />
<g transform="rotate(90)">
<text x="485.87" y="23.467" transform="scale(1, -1)"
	style="font-family:Liberation Serif;font-variant:normal;font-weight:normal;font-style:normal;font-size:30px">log(μs + 1)</text>
</g>
<text x="49.712" y="-517.37" transform="scale(1, -1)"
	style="font-family:Liberation Serif;font-variant:normal;font-weight:normal;font-style:normal;font-size:20px">25000.00</text>
<text x="39.712" y="-855.02" transform="scale(1, -1)"
	style="font-family:Liberation Serif;font-variant:normal;font-weight:normal;font-style:normal;font-size:20px">100000.00</text>
<text x="39.712" y="-991.32" transform="scale(1, -1)"
	style="font-family:Liberation Serif;font-variant:normal;font-weight:normal;font-style:normal;font-size:20px">175000.00</text>
<path d="M129.71,521.94L137.71,521.94" style="fill:none;stroke:#000000;stroke-width:0.5" />
<path d="M129.71,859.59L137.71,859.59" style="fill:none;stroke:#000000;stroke-width:0.5" />
<path d="M129.71,995.89L137.71,995.89" style="fill:none;stroke:#000000;stroke-width:0.5" />
<path d="M133.71,745.11L137.71,745.11" style="fill:none;stroke:#000000;stroke-width:0.5" />
<path d="M133.71,937.15L137.71,937.15" style="fill:none;stroke:#000000;stroke-width:0.5" />
<path d="M137.71,80.11L137.71,1024.6" style="fill:none;stroke:#000000;stroke-width:0.5" />
<path d="M150.46,80.11L150.46,1024.6" style="fill:none;stroke:#808080;stroke-width:0.25" />
<path d="M343.74,80.11L343.74,1024.6" style="fill:none;stroke:#808080;stroke-width:0.25" />
<path d="M537.03,80.11L537.03,1024.6" style="fill:none;stroke:#808080;stroke-width:0.25" />
<path d="M730.31,80.11L730.31,1024.6" style="fill:none;stroke:#808080;stroke-width:0.25" />
<path d="M923.59,80.11L923.59,1024.6" style="fill:none;stroke:#808080;stroke-width:0.25" />
<path d="M1116.9,80.11L1116.9,1024.6" style="fill:none;stroke:#808080;stroke-width:0.25" />
<path d="M1310.2,80.11L1310.2,1024.6" style="fill:none;stroke:#808080;stroke-width:0.25" />
<path d="M1503.4,80.11L1503.4,1024.6" style="fill:none;stroke:#808080;stroke-width:0.25" />
<path d="M1696.7,80.11L1696.7,1024.6" style="fill:none;stroke:#808080;stroke-width:0.25" />
<path d="M1890,80.11L1890,1024.6" style="fill:none;stroke:#808080;stroke-width:0.25" />
<path d="M150.46,521.94L1890,521.94" style="fill:none;stroke:#808080;stroke-width:0.25" />
<path d="M150.46,859.59L1890,859.59" style="fill:none;stroke:#808080;stroke-width:0.25" />
<path d="M150.46,995.89L1890,995.89" style="fill:none;stroke:#808080;stroke-width:0.25" />
<path d="M150.46,80.11L343.74,278.98L537.03,435.92L730.31,522.26L923.59,561.2L1116.9,623.39L1310.2,667.44L1503.4,686.8L1696.7,706.26L1890,723.56" style="fill:none;stroke:#FF0000;stroke-width:4" />
<path d="M155.46,80.11A5,5 0 1 1 145.46,80.11A5,5 0 1 1 155.46,80.11Z" style="fill:#FF0000" />
<path d="M348.74,278.98A5,5 0 1 1 338.74,278.98A5,5 0 1 1 348.74,278.98Z" style="fill:#FF0000" />
<path d="M542.03,435.92A5,5 0 1 1 532.03,435.92A5,5 0 1 1 542.03,435.92Z" style="fill:#FF0000" />
<path d="M735.31,522.26A5,5 0 1 1 725.31,522.26A5,5 0 1 1 735.31,522.26Z" style="fill:#FF0000" />
<path d="M928.59,561.2A5,5 0 1 1 918.59,561.2A5,5 0 1 1 928.59,561.2Z" style="fill:#FF0000" />
<path d="M1121.9,623.39A5,5 0 1 1 1111.9,623.39A5,5 0 1 1 1121.9,623.39Z" style="fill:#FF0000" />
<path d="M1315.2,667.44A5,5 0 1 1 1305.2,667.44A5,5 0 1 1 1315.2,667.44Z" style="fill:#FF0000" />
<path d="M1508.4,686.8A5,5 0 1 1 1498.4,686.8A5,5 0 1 1 1508.4,686.8Z" style="fill:#FF0000" />
<path d="M1701.7,706.26A5,5 0 1 1 1691.7,706.26A5,5 0 1 1 1701.7,706.26Z" style="fill:#FF0000" />
<path d="M1895,723.56A5,5 0 1 1 1885,723.56A5,5 0 1 1 1895,723.56Z" style="fill:#FF0000" />
<path d="M150.46,399.86L343.74,572.25L537.03,677.01L730.31,753.69L923.59,836.79L1116.9,870.99L1310.2,901.86L1503.4,937.59L1696.7,984L1890,1001.4" style="fill:none;stroke:#0000FF;stroke-width:4" />
<path d="M155.46,399.86A5,5 0 1 1 145.46,399.86A5,5 0 1 1 155.46,399.86Z" style="fill:#0000FF" />
<path d="M348.74,572.25A5,5 0 1 1 338.74,572.25A5,5 0 1 1 348.74,572.25Z" style="fill:#0000FF" />
<path d="M542.03,677.01A5,5 0 1 1 532.03,677.01A5,5 0 1 1 542.03,677.01Z" style="fill:#0000FF" />
<path d="M735.31,753.69A5,5 0 1 1 725.31,753.69A5,5 0 1 1 735.31,753.69Z" style="fill:#0000FF" />
<path d="M928.59,836.79A5,5 0 1 1 918.59,836.79A5,5 0 1 1 928.59,836.79Z" style="fill:#0000FF" />
<path d="M1121.9,870.99A5,5 0 1 1 1111.9,870.99A5,5 0 1 1 1121.9,870.99Z" style="fill:#0000FF" />
<path d="M1315.2,901.86A5,5 0 1 1 1305.2,901.86A5,5 0 1 1 1315.2,901.86Z" style="fill:#0000FF" />
<path d="M1508.4,937.59A5,5 0 1 1 1498.4,937.59A5,5 0 1 1 1508.4,937.59Z" style="fill:#0000FF" />
<path d="M1701.7,984A5,5 0 1 1 1691.7,984A5,5 0 1 1 1701.7,984Z" style="fill:#0000FF" />
<path d="M1895,1001.4A5,5 0 1 1 1885,1001.4A5,5 0 1 1 1895,1001.4Z" style="fill:#0000FF" />
<path d="M150.46,390.17L343.74,553L537.03,658.53L730.31,739.33L923.59,813.89L1116.9,841.94L1310.2,901.85L1503.4,913.87L1696.7,955.03L1890,970.73" style="fill:none;stroke:#00FF00;stroke-width:4" />
<path d="M155.46,390.17A5,5 0 1 1 145.46,390.17A5,5 0 1 1 155.46,390.17Z" style="fill:#00FF00" />
<path d="M348.74,553A5,5 0 1 1 338.74,553A5,5 0 1 1 348.74,553Z" style="fill:#00FF00" />
<path d="M542.03,658.53A5,5 0 1 1 532.03,658.53A5,5 0 1 1 542.03,658.53Z" style="fill:#00FF00" />
<path d="M735.31,739.33A5,5 0 1 1 725.31,739.33A5,5 0 1 1 735.31,739.33Z" style="fill:#00FF00" />
<path d="M928.59,813.89A5,5 0 1 1 918.59,813.89A5,5 0 1 1 928.59,813.89Z" style="fill:#00FF00" />
<path d="M1121.9,841.94A5,5 0 1 1 1111.9,841.94A5,5 0 1 1 1121.9,841.94Z" style="fill:#00FF00" />
<path d="M1315.2,901.85A5,5 0 1 1 1305.2,901.85A5,5 0 1 1 1315.2,901.85Z" style="fill:#00FF00" />
<path d="M1508.4,913.87A5,5 0 1 1 1498.4,913.87A5,5 0 1 1 1508.4,913.87Z" style="fill:#00FF00" />
<path d="M1701.7,955.03A5,5 0 1 1 1691.7,955.03A5,5 0 1 1 1701.7,955.03Z" style="fill:#00FF00" />
<path d="M1895,970.73A5,5 0 1 1 1885,970.73A5,5 0 1 1 1895,970.73Z" style="fill:#00FF00" />
<path d="M1900,126.03L1920,126.03" style="fill:none;stroke:#FF0000;stroke-width:4" />
<path d="M1915,126.03A5,5 0 1 1 1905,126.03A5,5 0 1 1 1915,126.03Z" style="fill:#FF0000" />
<text x="1823.3" y="-121.05" transform="scale(1, -1)"
	style="font-family:Liberation Serif;font-variant:normal;font-weight:normal;font-style:normal;font-size:24px">std::list</text>
<path d="M1900,105.66L1920,105.66" style="fill:none;stroke:#0000FF;stroke-width:4" />
<path d="M1915,105.66A5,5 0 1 1 1905,105.66A5,5 0 1 1 1915,105.66Z" style="fill:#0000FF" />
<text x="1795.4" y="-100.69" transform="scale(1, -1)"
	style="font-family:Liberation Serif;font-variant:normal;font-weight:normal;font-style:normal;font-size:24px">std::deque</text>
<path d="M1900,85.294L1920,85.294" style="fill:none;stroke:#00FF00;stroke-width:4" />
<path d="M1915,85.294A5,5 0 1 1 1905,85.294A5,5 0 1 1 1915,85.294Z" style="fill:#00FF00" />
<text x="1792.7" y="-80.319" transform="scale(1, -1)"
	style="font-family:Liberation Serif;font-variant:normal;font-weight:normal;font-style:normal;font-size:24px">std::vector</text>
</g>
</svg>
