<?xml version="1.0"?>
<!-- Generated by SVGo and Plotinum VG -->
<svg width="1920pt" height="1080pt" viewBox="0 0 1920 1080"
	xmlns="http://www.w3.org/2000/svg"
	xmlns:xlink="http://www.w3.org/1999/xlink">
<g transform="scale(1, -1) translate(0, -1080)">
<path d="M0,0L1920,0L1920,1080L0,1080Z" style="fill:#FFFFFF" />
<text x="922.5" y="-1040.9" transform="scale(1, -1)"
	style="font-family:Liberation Serif;font-variant:normal;font-weight:normal;font-style:normal;font-size:50px">sort</text>
<text x="885.27" y="-9.7559" transform="scale(1, -1)"
	style="font-family:Liberation Serif;font-variant:normal;font-weight:normal;font-style:normal;font-size:30px">Number of elements</text>
<text x="100.46" y="-39.727" transform="scale(1, -1)"
	style="font-family:Liberation Serif;font-variant:normal;font-weight:normal;font-style:normal;font-size:20px">10000</text>
<text x="296.52" y="-39.727" transform="scale(1, -1)"
	style="font-family:Liberation Serif;font-variant:normal;font-weight:normal;font-style:normal;font-size:20px">20000</text>
<text x="492.58" y="-39.727" transform="scale(1, -1)"
	style="font-family:Liberation Serif;font-variant:normal;font-weight:normal;font-style:normal;font-size:20px">30000</text>
<text x="688.64" y="-39.727" transform="scale(1, -1)"
	style="font-family:Liberation Serif;font-variant:normal;font-weight:normal;font-style:normal;font-size:20px">40000</text>
<text x="884.7" y="-39.727" transform="scale(1, -1)"
	style="font-family:Liberation Serif;font-variant:normal;font-weight:normal;font-style:normal;font-size:20px">50000</text>
<text x="1080.8" y="-39.727" transform="scale(1, -1)"
	style="font-family:Liberation Serif;font-variant:normal;font-weight:normal;font-style:normal;font-size:20px">60000</text>
<text x="1276.8" y="-39.727" transform="scale(1, -1)"
	style="font-family:Liberation Serif;font-variant:normal;font-weight:normal;font-style:normal;font-size:20px">70000</text>
<text x="1472.9" y="-39.727" transform="scale(1, -1)"
	style="font-family:Liberation Serif;font-variant:normal;font-weight:normal;font-style:normal;font-size:20px">80000</text>
<text x="1668.9" y="-39.727" transform="scale(1, -1)"
	style="font-family:Liberation Serif;font-variant:normal;font-weight:normal;font-style:normal;font-size:20px">90000</text>
<text x="1860" y="-39.727" transform="scale(1, -1)"
	style="font-family:Liberation Serif;font-variant:normal;font-weight:normal;font-style:normal;font-size:20px">100000</text>
<path d="M125.46,55.371L125.46,63.371" style="fill:none;stroke:#000000;stroke-width:0.5" />
<path d="M321.52,55.371L321.52,63.371" style="fill:none;stroke:#000000;stroke-width:0.5" />
<path d="M517.58,55.371L517.58,63.371" style="fill:none;stroke:#000000;stroke-width:0.5" />
<path d="M713.64,55.371L713.64,63.371" style="fill:none;stroke:#000000;stroke-width:0.5" />
<path d="M909.7,55.371L909.7,63.371" style="fill:none;stroke:#000000;stroke-width:0.5" />
<path d="M1105.8,55.371L1105.8,63.371" style="fill:none;stroke:#000000;stroke-width:0.5" />
<path d="M1301.8,55.371L1301.8,63.371" style="fill:none;stroke:#000000;stroke-width:0.5" />
<path d="M1497.9,55.371L1497.9,63.371" style="fill:none;stroke:#000000;stroke-width:0.5" />
<path d="M1693.9,55.371L1693.9,63.371" style="fill:none;stroke:#000000;stroke-width:0.5" />
<path d="M1890,55.371L1890,63.371" style="fill:none;stroke:#000000;stroke-width:0.5" />
<path d="M125.46,63.371L1890,63.371" style="fill:none;stroke:#000000;stroke-width:0.5" />
<g transform="rotate(90)">
<text x="538.49" y="23.467" transform="scale(1, -1)"
	style="font-family:Liberation Serif;font-variant:normal;font-weight:normal;font-style:normal;font-size:30px">μs</text>
</g>
<text x="49.712" y="-208.03" transform="scale(1, -1)"
	style="font-family:Liberation Serif;font-variant:normal;font-weight:normal;font-style:normal;font-size:20px">20000</text>
<text x="49.712" y="-542.54" transform="scale(1, -1)"
	style="font-family:Liberation Serif;font-variant:normal;font-weight:normal;font-style:normal;font-size:20px">60000</text>
<text x="39.712" y="-877.05" transform="scale(1, -1)"
	style="font-family:Liberation Serif;font-variant:normal;font-weight:normal;font-style:normal;font-size:20px">100000</text>
<path d="M104.71,212.6L112.71,212.6" style="fill:none;stroke:#000000;stroke-width:0.5" />
<path d="M104.71,547.11L112.71,547.11" style="fill:none;stroke:#000000;stroke-width:0.5" />
<path d="M104.71,881.62L112.71,881.62" style="fill:none;stroke:#000000;stroke-width:0.5" />
<path d="M108.71,128.97L112.71,128.97" style="fill:none;stroke:#000000;stroke-width:0.5" />
<path d="M108.71,296.23L112.71,296.23" style="fill:none;stroke:#000000;stroke-width:0.5" />
<path d="M108.71,379.86L112.71,379.86" style="fill:none;stroke:#000000;stroke-width:0.5" />
<path d="M108.71,463.48L112.71,463.48" style="fill:none;stroke:#000000;stroke-width:0.5" />
<path d="M108.71,630.74L112.71,630.74" style="fill:none;stroke:#000000;stroke-width:0.5" />
<path d="M108.71,714.37L112.71,714.37" style="fill:none;stroke:#000000;stroke-width:0.5" />
<path d="M108.71,797.99L112.71,797.99" style="fill:none;stroke:#000000;stroke-width:0.5" />
<path d="M108.71,965.25L112.71,965.25" style="fill:none;stroke:#000000;stroke-width:0.5" />
<path d="M112.71,80.11L112.71,1024.6" style="fill:none;stroke:#000000;stroke-width:0.5" />
<path d="M125.46,80.11L125.46,1024.6" style="fill:none;stroke:#808080;stroke-width:0.25" />
<path d="M321.52,80.11L321.52,1024.6" style="fill:none;stroke:#808080;stroke-width:0.25" />
<path d="M517.58,80.11L517.58,1024.6" style="fill:none;stroke:#808080;stroke-width:0.25" />
<path d="M713.64,80.11L713.64,1024.6" style="fill:none;stroke:#808080;stroke-width:0.25" />
<path d="M909.7,80.11L909.7,1024.6" style="fill:none;stroke:#808080;stroke-width:0.25" />
<path d="M1105.8,80.11L1105.8,1024.6" style="fill:none;stroke:#808080;stroke-width:0.25" />
<path d="M1301.8,80.11L1301.8,1024.6" style="fill:none;stroke:#808080;stroke-width:0.25" />
<path d="M1497.9,80.11L1497.9,1024.6" style="fill:none;stroke:#808080;stroke-width:0.25" />
<path d="M1693.9,80.11L1693.9,1024.6" style="fill:none;stroke:#808080;stroke-width:0.25" />
<path d="M1890,80.11L1890,1024.6" style="fill:none;stroke:#808080;stroke-width:0.25" />
<path d="M125.46,212.6L1890,212.6" style="fill:none;stroke:#808080;stroke-width:0.25" />
<path d="M125.46,547.11L1890,547.11" style="fill:none;stroke:#808080;stroke-width:0.25" />
<path d="M125.46,881.62L1890,881.62" style="fill:none;stroke:#808080;stroke-width:0.25" />
<path d="M125.46,80.11L321.52,113.73L517.58,160.97L713.64,223.18L909.7,269.96L1105.8,307.33L1301.8,360.33L1497.9,405.19L1693.9,483.33L1890,565.23" style="fill:none;stroke:#FF0000;stroke-width:4" />
<path d="M130.46,80.11A5,5 0 1 1 120.46,80.11A5,5 0 1 1 130.46,80.11Z" style="fill:#FF0000" />
<path d="M326.52,113.73A5,5 0 1 1 316.52,113.73A5,5 0 1 1 326.52,113.73Z" style="fill:#FF0000" />
<path d="M522.58,160.97A5,5 0 1 1 512.58,160.97A5,5 0 1 1 522.58,160.97Z" style="fill:#FF0000" />
<path d="M718.64,223.18A5,5 0 1 1 708.64,223.18A5,5 0 1 1 718.64,223.18Z" style="fill:#FF0000" />
<path d="M914.7,269.96A5,5 0 1 1 904.7,269.96A5,5 0 1 1 914.7,269.96Z" style="fill:#FF0000" />
<path d="M1110.8,307.33A5,5 0 1 1 1100.8,307.33A5,5 0 1 1 1110.8,307.33Z" style="fill:#FF0000" />
<path d="M1306.8,360.33A5,5 0 1 1 1296.8,360.33A5,5 0 1 1 1306.8,360.33Z" style="fill:#FF0000" />
<path d="M1502.9,405.19A5,5 0 1 1 1492.9,405.19A5,5 0 1 1 1502.9,405.19Z" style="fill:#FF0000" />
<path d="M1698.9,483.33A5,5 0 1 1 1688.9,483.33A5,5 0 1 1 1698.9,483.33Z" style="fill:#FF0000" />
<path d="M1895,565.23A5,5 0 1 1 1885,565.23A5,5 0 1 1 1895,565.23Z" style="fill:#FF0000" />
<path d="M125.46,139.13L321.52,221.37L517.58,284.57L713.64,388.5L909.7,459.23L1105.8,607.17L1301.8,646.13L1497.9,734.7L1693.9,831.35L1890,935.6" style="fill:none;stroke:#0000FF;stroke-width:4" />
<path d="M130.46,139.13A5,5 0 1 1 120.46,139.13A5,5 0 1 1 130.46,139.13Z" style="fill:#0000FF" />
<path d="M326.52,221.37A5,5 0 1 1 316.52,221.37A5,5 0 1 1 326.52,221.37Z" style="fill:#0000FF" />
<path d="M522.58,284.57A5,5 0 1 1 512.58,284.57A5,5 0 1 1 522.58,284.57Z" style="fill:#0000FF" />
<path d="M718.64,388.5A5,5 0 1 1 708.64,388.5A5,5 0 1 1 718.64,388.5Z" style="fill:#0000FF" />
<path d="M914.7,459.23A5,5 0 1 1 904.7,459.23A5,5 0 1 1 914.7,459.23Z" style="fill:#0000FF" />
<path d="M1110.8,607.17A5,5 0 1 1 1100.8,607.17A5,5 0 1 1 1110.8,607.17Z" style="fill:#0000FF" />
<path d="M1306.8,646.13A5,5 0 1 1 1296.8,646.13A5,5 0 1 1 1306.8,646.13Z" style="fill:#0000FF" />
<path d="M1502.9,734.7A5,5 0 1 1 1492.9,734.7A5,5 0 1 1 1502.9,734.7Z" style="fill:#0000FF" />
<path d="M1698.9,831.35A5,5 0 1 1 1688.9,831.35A5,5 0 1 1 1698.9,831.35Z" style="fill:#0000FF" />
<path d="M1895,935.6A5,5 0 1 1 1885,935.6A5,5 0 1 1 1895,935.6Z" style="fill:#0000FF" />
<path d="M125.46,115.17L321.52,193.22L517.58,293.32L713.64,379.1L909.7,392.65L1105.8,474.52L1301.8,613.72L1497.9,646.61L1693.9,709.31L1890,834.1" style="fill:none;stroke:#00FF00;stroke-width:4" />
<path d="M130.46,115.17A5,5 0 1 1 120.46,115.17A5,5 0 1 1 130.46,115.17Z" style="fill:#00FF00" />
<path d="M326.52,193.22A5,5 0 1 1 316.52,193.22A5,5 0 1 1 326.52,193.22Z" style="fill:#00FF00" />
<path d="M522.58,293.32A5,5 0 1 1 512.58,293.32A5,5 0 1 1 522.58,293.32Z" style="fill:#00FF00" />
<path d="M718.64,379.1A5,5 0 1 1 708.64,379.1A5,5 0 1 1 718.64,379.1Z" style="fill:#00FF00" />
<path d="M914.7,392.65A5,5 0 1 1 904.7,392.65A5,5 0 1 1 914.7,392.65Z" style="fill:#00FF00" />
<path d="M1110.8,474.52A5,5 0 1 1 1100.8,474.52A5,5 0 1 1 1110.8,474.52Z" style="fill:#00FF00" />
<path d="M1306.8,613.72A5,5 0 1 1 1296.8,613.72A5,5 0 1 1 1306.8,613.72Z" style="fill:#00FF00" />
<path d="M1502.9,646.61A5,5 0 1 1 1492.9,646.61A5,5 0 1 1 1502.9,646.61Z" style="fill:#00FF00" />
<path d="M1698.9,709.31A5,5 0 1 1 1688.9,709.31A5,5 0 1 1 1698.9,709.31Z" style="fill:#00FF00" />
<path d="M1895,834.1A5,5 0 1 1 1885,834.1A5,5 0 1 1 1895,834.1Z" style="fill:#00FF00" />
<path d="M1900,126.03L1920,126.03" style="fill:none;stroke:#FF0000;stroke-width:4" />
<path d="M1915,126.03A5,5 0 1 1 1905,126.03A5,5 0 1 1 1915,126.03Z" style="fill:#FF0000" />
<text x="1823.3" y="-121.05" transform="scale(1, -1)"
	style="font-family:Liberation Serif;font-variant:normal;font-weight:normal;font-style:normal;font-size:24px">std::list</text>
<path d="M1900,105.66L1920,105.66" style="fill:none;stroke:#0000FF;stroke-width:4" />
<path d="M1915,105.66A5,5 0 1 1 1905,105.66A5,5 0 1 1 1915,105.66Z" style="fill:#0000FF" />
<text x="1795.4" y="-100.69" transform="scale(1, -1)"
	style="font-family:Liberation Serif;font-variant:normal;font-weight:normal;font-style:normal;font-size:24px">std::deque</text>
<path d="M1900,85.294L1920,85.294" style="fill:none;stroke:#00FF00;stroke-width:4" />
<path d="M1915,85.294A5,5 0 1 1 1905,85.294A5,5 0 1 1 1915,85.294Z" style="fill:#00FF00" />
<text x="1792.7" y="-80.319" transform="scale(1, -1)"
	style="font-family:Liberation Serif;font-variant:normal;font-weight:normal;font-style:normal;font-size:24px">std::vector</text>
</g>
</svg>
