<?xml version="1.0"?>
<!-- Generated by SVGo and Plotinum VG -->
<svg width="1920pt" height="1080pt" viewBox="0 0 1920 1080"
	xmlns="http://www.w3.org/2000/svg"
	xmlns:xlink="http://www.w3.org/1999/xlink">
<g transform="scale(1, -1) translate(0, -1080)">
<path d="M0,0L1920,0L1920,1080L0,1080Z" style="fill:#FFFFFF" />
<text x="801.02" y="-1040.9" transform="scale(1, -1)"
	style="font-family:Liberation Serif;font-variant:normal;font-weight:normal;font-style:normal;font-size:50px">sort - Log Scale</text>
<text x="885.27" y="-9.7559" transform="scale(1, -1)"
	style="font-family:Liberation Serif;font-variant:normal;font-weight:normal;font-style:normal;font-size:30px">Number of elements</text>
<text x="100.46" y="-39.727" transform="scale(1, -1)"
	style="font-family:Liberation Serif;font-variant:normal;font-weight:normal;font-style:normal;font-size:20px">10000</text>
<text x="296.52" y="-39.727" transform="scale(1, -1)"
	style="font-family:Liberation Serif;font-variant:normal;font-weight:normal;font-style:normal;font-size:20px">20000</text>
<text x="492.58" y="-39.727" transform="scale(1, -1)"
	style="font-family:Liberation Serif;font-variant:normal;font-weight:normal;font-style:normal;font-size:20px">30000</text>
<text x="688.64" y="-39.727" transform="scale(1, -1)"
	style="font-family:Liberation Serif;font-variant:normal;font-weight:normal;font-style:normal;font-size:20px">40000</text>
<text x="884.7" y="-39.727" transform="scale(1, -1)"
	style="font-family:Liberation Serif;font-variant:normal;font-weight:normal;font-style:normal;font-size:20px">50000</text>
<text x="1080.8" y="-39.727" transform="scale(1, -1)"
	style="font-family:Liberation Serif;font-variant:normal;font-weight:normal;font-style:normal;font-size:20px">60000</text>
<text x="1276.8" y="-39.727" transform="scale(1, -1)"
	style="font-family:Liberation Serif;font-variant:normal;font-weight:normal;font-style:normal;font-size:20px">70000</text>
<text x="1472.9" y="-39.727" transform="scale(1, -1)"
	style="font-family:Liberation Serif;font-variant:normal;font-weight:normal;font-style:normal;font-size:20px">80000</text>
<text x="1668.9" y="-39.727" transform="scale(1, -1)"
	style="font-family:Liberation Serif;font-variant:normal;font-weight:normal;font-style:normal;font-size:20px">90000</text>
<text x="1860" y="-39.727" transform="scale(1, -1)"
	style="font-family:Liberation Serif;font-variant:normal;font-weight:normal;font-style:normal;font-size:20px">100000</text>
<path d="M125.46,55.371L125.46,63.371" style="fill:none;stroke:#000000;stroke-width:0.5" />
<path d="M321.52,55.371L321.52,63.371" style="fill:none;stroke:#000000;stroke-width:0.5" />
<path d="M517.58,55.371L517.58,63.371" style="fill:none;stroke:#000000;stroke-width:0.5" />
<path d="M713.64,55.371L713.64,63.371" style="fill:none;stroke:#000000;stroke-width:0.5" />
<path d="M909.7,55.371L909.7,63.371" style="fill:none;stroke:#000000;stroke-width:0.5" />
<path d="M1105.8,55.371L1105.8,63.371" style="fill:none;stroke:#000000;stroke-width:0.5" />
<path d="M1301.8,55.371L1301.8,63.371" style="fill:none;stroke:#000000;stroke-width:0.5" />
<path d="M1497.9,55.371L1497.9,63.371" style="fill:none;stroke:#000000;stroke-width:0.5" />
<path d="M1693.9,55.371L1693.9,63.371" style="fill:none;stroke:#000000;stroke-width:0.5" />
<path d="M1890,55.371L1890,63.371" style="fill:none;stroke:#000000;stroke-width:0.5" />
<path d="M125.46,63.371L1890,63.371" style="fill:none;stroke:#000000;stroke-width:0.5" />
<g transform="rotate(90)">
<text x="485.87" y="23.467" transform="scale(1, -1)"
	style="font-family:Liberation Serif;font-variant:normal;font-weight:normal;font-style:normal;font-size:30px">log(μs + 1)</text>
</g>
<text x="49.712" y="-519.98" transform="scale(1, -1)"
	style="font-family:Liberation Serif;font-variant:normal;font-weight:normal;font-style:normal;font-size:20px">20000</text>
<text x="49.712" y="-830.85" transform="scale(1, -1)"
	style="font-family:Liberation Serif;font-variant:normal;font-weight:normal;font-style:normal;font-size:20px">60000</text>
<text x="39.712" y="-975.39" transform="scale(1, -1)"
	style="font-family:Liberation Serif;font-variant:normal;font-weight:normal;font-style:normal;font-size:20px">100000</text>
<path d="M104.71,524.55L112.71,524.55" style="fill:none;stroke:#000000;stroke-width:0.5" />
<path d="M104.71,835.42L112.71,835.42" style="fill:none;stroke:#000000;stroke-width:0.5" />
<path d="M104.71,979.96L112.71,979.96" style="fill:none;stroke:#000000;stroke-width:0.5" />
<path d="M108.71,328.42L112.71,328.42" style="fill:none;stroke:#000000;stroke-width:0.5" />
<path d="M108.71,639.28L112.71,639.28" style="fill:none;stroke:#000000;stroke-width:0.5" />
<path d="M108.71,720.69L112.71,720.69" style="fill:none;stroke:#000000;stroke-width:0.5" />
<path d="M108.71,783.83L112.71,783.83" style="fill:none;stroke:#000000;stroke-width:0.5" />
<path d="M108.71,879.04L112.71,879.04" style="fill:none;stroke:#000000;stroke-width:0.5" />
<path d="M108.71,916.82L112.71,916.82" style="fill:none;stroke:#000000;stroke-width:0.5" />
<path d="M108.71,950.15L112.71,950.15" style="fill:none;stroke:#000000;stroke-width:0.5" />
<path d="M108.71,1006.9L112.71,1006.9" style="fill:none;stroke:#000000;stroke-width:0.5" />
<path d="M112.71,80.11L112.71,1024.6" style="fill:none;stroke:#000000;stroke-width:0.5" />
<path d="M125.46,80.11L125.46,1024.6" style="fill:none;stroke:#808080;stroke-width:0.25" />
<path d="M321.52,80.11L321.52,1024.6" style="fill:none;stroke:#808080;stroke-width:0.25" />
<path d="M517.58,80.11L517.58,1024.6" style="fill:none;stroke:#808080;stroke-width:0.25" />
<path d="M713.64,80.11L713.64,1024.6" style="fill:none;stroke:#808080;stroke-width:0.25" />
<path d="M909.7,80.11L909.7,1024.6" style="fill:none;stroke:#808080;stroke-width:0.25" />
<path d="M1105.8,80.11L1105.8,1024.6" style="fill:none;stroke:#808080;stroke-width:0.25" />
<path d="M1301.8,80.11L1301.8,1024.6" style="fill:none;stroke:#808080;stroke-width:0.25" />
<path d="M1497.9,80.11L1497.9,1024.6" style="fill:none;stroke:#808080;stroke-width:0.25" />
<path d="M1693.9,80.11L1693.9,1024.6" style="fill:none;stroke:#808080;stroke-width:0.25" />
<path d="M1890,80.11L1890,1024.6" style="fill:none;stroke:#808080;stroke-width:0.25" />
<path d="M125.46,524.55L1890,524.55" style="fill:none;stroke:#808080;stroke-width:0.25" />
<path d="M125.46,835.42L1890,835.42" style="fill:none;stroke:#808080;stroke-width:0.25" />
<path d="M125.46,979.96L1890,979.96" style="fill:none;stroke:#808080;stroke-width:0.25" />
<path d="M125.46,80.11L321.52,271.51L517.58,420.11L713.64,541.92L909.7,608L1105.8,651.54L1301.8,703.68L1497.9,741.35L1693.9,796.95L1890,845.46" style="fill:none;stroke:#FF0000;stroke-width:4" />
<path d="M130.46,80.11A5,5 0 1 1 120.46,80.11A5,5 0 1 1 130.46,80.11Z" style="fill:#FF0000" />
<path d="M326.52,271.51A5,5 0 1 1 316.52,271.51A5,5 0 1 1 326.52,271.51Z" style="fill:#FF0000" />
<path d="M522.58,420.11A5,5 0 1 1 512.58,420.11A5,5 0 1 1 522.58,420.11Z" style="fill:#FF0000" />
<path d="M718.64,541.92A5,5 0 1 1 708.64,541.92A5,5 0 1 1 718.64,541.92Z" style="fill:#FF0000" />
<path d="M914.7,608A5,5 0 1 1 904.7,608A5,5 0 1 1 914.7,608Z" style="fill:#FF0000" />
<path d="M1110.8,651.54A5,5 0 1 1 1100.8,651.54A5,5 0 1 1 1110.8,651.54Z" style="fill:#FF0000" />
<path d="M1306.8,703.68A5,5 0 1 1 1296.8,703.68A5,5 0 1 1 1306.8,703.68Z" style="fill:#FF0000" />
<path d="M1502.9,741.35A5,5 0 1 1 1492.9,741.35A5,5 0 1 1 1502.9,741.35Z" style="fill:#FF0000" />
<path d="M1698.9,796.95A5,5 0 1 1 1688.9,796.95A5,5 0 1 1 1698.9,796.95Z" style="fill:#FF0000" />
<path d="M1895,845.46A5,5 0 1 1 1885,845.46A5,5 0 1 1 1895,845.46Z" style="fill:#FF0000" />
<path d="M125.46,360.89L321.52,539.03L517.58,625.83L713.64,727.92L909.7,780.94L1105.8,867.41L1301.8,886.39L1497.9,925.29L1693.9,962.42L1890,997.66" style="fill:none;stroke:#0000FF;stroke-width:4" />
<path d="M130.46,360.89A5,5 0 1 1 120.46,360.89A5,5 0 1 1 130.46,360.89Z" style="fill:#0000FF" />
<path d="M326.52,539.03A5,5 0 1 1 316.52,539.03A5,5 0 1 1 326.52,539.03Z" style="fill:#0000FF" />
<path d="M522.58,625.83A5,5 0 1 1 512.58,625.83A5,5 0 1 1 522.58,625.83Z" style="fill:#0000FF" />
<path d="M718.64,727.92A5,5 0 1 1 708.64,727.92A5,5 0 1 1 718.64,727.92Z" style="fill:#0000FF" />
<path d="M914.7,780.94A5,5 0 1 1 904.7,780.94A5,5 0 1 1 914.7,780.94Z" style="fill:#0000FF" />
<path d="M1110.8,867.41A5,5 0 1 1 1100.8,867.41A5,5 0 1 1 1110.8,867.41Z" style="fill:#0000FF" />
<path d="M1306.8,886.39A5,5 0 1 1 1296.8,886.39A5,5 0 1 1 1306.8,886.39Z" style="fill:#0000FF" />
<path d="M1502.9,925.29A5,5 0 1 1 1492.9,925.29A5,5 0 1 1 1502.9,925.29Z" style="fill:#0000FF" />
<path d="M1698.9,962.42A5,5 0 1 1 1688.9,962.42A5,5 0 1 1 1698.9,962.42Z" style="fill:#0000FF" />
<path d="M1895,997.66A5,5 0 1 1 1885,997.66A5,5 0 1 1 1895,997.66Z" style="fill:#0000FF" />
<path d="M125.46,277.4L321.52,489.71L517.58,635.99L713.64,720.06L909.7,731.32L1105.8,791.21L1301.8,870.69L1497.9,886.61L1693.9,914.68L1890,963.41" style="fill:none;stroke:#00FF00;stroke-width:4" />
<path d="M130.46,277.4A5,5 0 1 1 120.46,277.4A5,5 0 1 1 130.46,277.4Z" style="fill:#00FF00" />
<path d="M326.52,489.71A5,5 0 1 1 316.52,489.71A5,5 0 1 1 326.52,489.71Z" style="fill:#00FF00" />
<path d="M522.58,635.99A5,5 0 1 1 512.58,635.99A5,5 0 1 1 522.58,635.99Z" style="fill:#00FF00" />
<path d="M718.64,720.06A5,5 0 1 1 708.64,720.06A5,5 0 1 1 718.64,720.06Z" style="fill:#00FF00" />
<path d="M914.7,731.32A5,5 0 1 1 904.7,731.32A5,5 0 1 1 914.7,731.32Z" style="fill:#00FF00" />
<path d="M1110.8,791.21A5,5 0 1 1 1100.8,791.21A5,5 0 1 1 1110.8,791.21Z" style="fill:#00FF00" />
<path d="M1306.8,870.69A5,5 0 1 1 1296.8,870.69A5,5 0 1 1 1306.8,870.69Z" style="fill:#00FF00" />
<path d="M1502.9,886.61A5,5 0 1 1 1492.9,886.61A5,5 0 1 1 1502.9,886.61Z" style="fill:#00FF00" />
<path d="M1698.9,914.68A5,5 0 1 1 1688.9,914.68A5,5 0 1 1 1698.9,914.68Z" style="fill:#00FF00" />
<path d="M1895,963.41A5,5 0 1 1 1885,963.41A5,5 0 1 1 1895,963.41Z" style="fill:#00FF00" />
<path d="M1900,126.03L1920,126.03" style="fill:none;stroke:#FF0000;stroke-width:4" />
<path d="M1915,126.03A5,5 0 1 1 1905,126.03A5,5 0 1 1 1915,126.03Z" style="fill:#FF0000" />
<text x="1823.3" y="-121.05" transform="scale(1, -1)"
	style="font-family:Liberation Serif;font-variant:normal;font-weight:normal;font-style:normal;font-size:24px">std::list</text>
<path d="M1900,105.66L1920,105.66" style="fill:none;stroke:#0000FF;stroke-width:4" />
<path d="M1915,105.66A5,5 0 1 1 1905,105.66A5,5 0 1 1 1915,105.66Z" style="fill:#0000FF" />
<text x="1795.4" y="-100.69" transform="scale(1, -1)"
	style="font-family:Liberation Serif;font-variant:normal;font-weight:normal;font-style:normal;font-size:24px">std::deque</text>
<path d="M1900,85.294L1920,85.294" style="fill:none;stroke:#00FF00;stroke-width:4" />
<path d="M1915,85.294A5,5 0 1 1 1905,85.294A5,5 0 1 1 1915,85.294Z" style="fill:#00FF00" />
<text x="1792.7" y="-80.319" transform="scale(1, -1)"
	style="font-family:Liberation Serif;font-variant:normal;font-weight:normal;font-style:normal;font-size:24px">std::vector</text>
</g>
</svg>
