<?xml version="1.0"?>
<!-- Generated by SVGo and Plotinum VG -->
<svg width="1920pt" height="1080pt" viewBox="0 0 1920 1080"
	xmlns="http://www.w3.org/2000/svg"
	xmlns:xlink="http://www.w3.org/1999/xlink">
<g transform="scale(1, -1) translate(0, -1080)">
<path d="M0,0L1920,0L1920,1080L0,1080Z" style="fill:#FFFFFF" />
<text x="922.5" y="-1040.9" transform="scale(1, -1)"
	style="font-family:Liberation Serif;font-variant:normal;font-weight:normal;font-style:normal;font-size:50px">sort</text>
<text x="897.77" y="-9.7559" transform="scale(1, -1)"
	style="font-family:Liberation Serif;font-variant:normal;font-weight:normal;font-style:normal;font-size:30px">Number of elements</text>
<text x="125.46" y="-39.727" transform="scale(1, -1)"
	style="font-family:Liberation Serif;font-variant:normal;font-weight:normal;font-style:normal;font-size:20px">10000</text>
<text x="318.74" y="-39.727" transform="scale(1, -1)"
	style="font-family:Liberation Serif;font-variant:normal;font-weight:normal;font-style:normal;font-size:20px">20000</text>
<text x="512.03" y="-39.727" transform="scale(1, -1)"
	style="font-family:Liberation Serif;font-variant:normal;font-weight:normal;font-style:normal;font-size:20px">30000</text>
<text x="705.31" y="-39.727" transform="scale(1, -1)"
	style="font-family:Liberation Serif;font-variant:normal;font-weight:normal;font-style:normal;font-size:20px">40000</text>
<text x="898.59" y="-39.727" transform="scale(1, -1)"
	style="font-family:Liberation Serif;font-variant:normal;font-weight:normal;font-style:normal;font-size:20px">50000</text>
<text x="1091.9" y="-39.727" transform="scale(1, -1)"
	style="font-family:Liberation Serif;font-variant:normal;font-weight:normal;font-style:normal;font-size:20px">60000</text>
<text x="1285.2" y="-39.727" transform="scale(1, -1)"
	style="font-family:Liberation Serif;font-variant:normal;font-weight:normal;font-style:normal;font-size:20px">70000</text>
<text x="1478.4" y="-39.727" transform="scale(1, -1)"
	style="font-family:Liberation Serif;font-variant:normal;font-weight:normal;font-style:normal;font-size:20px">80000</text>
<text x="1671.7" y="-39.727" transform="scale(1, -1)"
	style="font-family:Liberation Serif;font-variant:normal;font-weight:normal;font-style:normal;font-size:20px">90000</text>
<text x="1860" y="-39.727" transform="scale(1, -1)"
	style="font-family:Liberation Serif;font-variant:normal;font-weight:normal;font-style:normal;font-size:20px">100000</text>
<path d="M150.46,55.371L150.46,63.371" style="fill:none;stroke:#000000;stroke-width:0.5" />
<path d="M343.74,55.371L343.74,63.371" style="fill:none;stroke:#000000;stroke-width:0.5" />
<path d="M537.03,55.371L537.03,63.371" style="fill:none;stroke:#000000;stroke-width:0.5" />
<path d="M730.31,55.371L730.31,63.371" style="fill:none;stroke:#000000;stroke-width:0.5" />
<path d="M923.59,55.371L923.59,63.371" style="fill:none;stroke:#000000;stroke-width:0.5" />
<path d="M1116.9,55.371L1116.9,63.371" style="fill:none;stroke:#000000;stroke-width:0.5" />
<path d="M1310.2,55.371L1310.2,63.371" style="fill:none;stroke:#000000;stroke-width:0.5" />
<path d="M1503.4,55.371L1503.4,63.371" style="fill:none;stroke:#000000;stroke-width:0.5" />
<path d="M1696.7,55.371L1696.7,63.371" style="fill:none;stroke:#000000;stroke-width:0.5" />
<path d="M1890,55.371L1890,63.371" style="fill:none;stroke:#000000;stroke-width:0.5" />
<path d="M150.46,63.371L1890,63.371" style="fill:none;stroke:#000000;stroke-width:0.5" />
<g transform="rotate(90)">
<text x="538.49" y="23.467" transform="scale(1, -1)"
	style="font-family:Liberation Serif;font-variant:normal;font-weight:normal;font-style:normal;font-size:30px">μs</text>
</g>
<text x="49.712" y="-160.09" transform="scale(1, -1)"
	style="font-family:Liberation Serif;font-variant:normal;font-weight:normal;font-style:normal;font-size:20px">25000.00</text>
<text x="39.712" y="-567.24" transform="scale(1, -1)"
	style="font-family:Liberation Serif;font-variant:normal;font-weight:normal;font-style:normal;font-size:20px">125000.00</text>
<text x="39.712" y="-974.4" transform="scale(1, -1)"
	style="font-family:Liberation Serif;font-variant:normal;font-weight:normal;font-style:normal;font-size:20px">225000.00</text>
<path d="M129.71,164.66L137.71,164.66" style="fill:none;stroke:#000000;stroke-width:0.5" />
<path d="M129.71,571.81L137.71,571.81" style="fill:none;stroke:#000000;stroke-width:0.5" />
<path d="M129.71,978.97L137.71,978.97" style="fill:none;stroke:#000000;stroke-width:0.5" />
<path d="M133.71,368.24L137.71,368.24" style="fill:none;stroke:#000000;stroke-width:0.5" />
<path d="M133.71,775.39L137.71,775.39" style="fill:none;stroke:#000000;stroke-width:0.5" />
<path d="M137.71,80.11L137.71,1024.6" style="fill:none;stroke:#000000;stroke-width:0.5" />
<path d="M150.46,80.11L150.46,1024.6" style="fill:none;stroke:#808080;stroke-width:0.25" />
<path d="M343.74,80.11L343.74,1024.6" style="fill:none;stroke:#808080;stroke-width:0.25" />
<path d="M537.03,80.11L537.03,1024.6" style="fill:none;stroke:#808080;stroke-width:0.25" />
<path d="M730.31,80.11L730.31,1024.6" style="fill:none;stroke:#808080;stroke-width:0.25" />
<path d="M923.59,80.11L923.59,1024.6" style="fill:none;stroke:#808080;stroke-width:0.25" />
<path d="M1116.9,80.11L1116.9,1024.6" style="fill:none;stroke:#808080;stroke-width:0.25" />
<path d="M1310.2,80.11L1310.2,1024.6" style="fill:none;stroke:#808080;stroke-width:0.25" />
<path d="M1503.4,80.11L1503.4,1024.6" style="fill:none;stroke:#808080;stroke-width:0.25" />
<path d="M1696.7,80.11L1696.7,1024.6" style="fill:none;stroke:#808080;stroke-width:0.25" />
<path d="M1890,80.11L1890,1024.6" style="fill:none;stroke:#808080;stroke-width:0.25" />
<path d="M150.46,164.66L1890,164.66" style="fill:none;stroke:#808080;stroke-width:0.25" />
<path d="M150.46,571.81L1890,571.81" style="fill:none;stroke:#808080;stroke-width:0.25" />
<path d="M150.46,978.97L1890,978.97" style="fill:none;stroke:#808080;stroke-width:0.25" />
<path d="M150.46,80.11L343.74,103.94L537.03,142.27L730.31,170.8L923.59,195.11L1116.9,231.84L1310.2,249.79L1503.4,273.67L1696.7,266.42L1890,330.21" style="fill:none;stroke:#FF0000;stroke-width:4" />
<path d="M155.46,80.11A5,5 0 1 1 145.46,80.11A5,5 0 1 1 155.46,80.11Z" style="fill:#FF0000" />
<path d="M348.74,103.94A5,5 0 1 1 338.74,103.94A5,5 0 1 1 348.74,103.94Z" style="fill:#FF0000" />
<path d="M542.03,142.27A5,5 0 1 1 532.03,142.27A5,5 0 1 1 542.03,142.27Z" style="fill:#FF0000" />
<path d="M735.31,170.8A5,5 0 1 1 725.31,170.8A5,5 0 1 1 735.31,170.8Z" style="fill:#FF0000" />
<path d="M928.59,195.11A5,5 0 1 1 918.59,195.11A5,5 0 1 1 928.59,195.11Z" style="fill:#FF0000" />
<path d="M1121.9,231.84A5,5 0 1 1 1111.9,231.84A5,5 0 1 1 1121.9,231.84Z" style="fill:#FF0000" />
<path d="M1315.2,249.79A5,5 0 1 1 1305.2,249.79A5,5 0 1 1 1315.2,249.79Z" style="fill:#FF0000" />
<path d="M1508.4,273.67A5,5 0 1 1 1498.4,273.67A5,5 0 1 1 1508.4,273.67Z" style="fill:#FF0000" />
<path d="M1701.7,266.42A5,5 0 1 1 1691.7,266.42A5,5 0 1 1 1701.7,266.42Z" style="fill:#FF0000" />
<path d="M1895,330.21A5,5 0 1 1 1885,330.21A5,5 0 1 1 1895,330.21Z" style="fill:#FF0000" />
<path d="M150.46,125.25L343.74,202.19L537.03,294.32L730.31,362.23L923.59,430.92L1116.9,509.61L1310.2,639.55L1503.4,769.93L1696.7,806.57L1890,937.2" style="fill:none;stroke:#0000FF;stroke-width:4" />
<path d="M155.46,125.25A5,5 0 1 1 145.46,125.25A5,5 0 1 1 155.46,125.25Z" style="fill:#0000FF" />
<path d="M348.74,202.19A5,5 0 1 1 338.74,202.19A5,5 0 1 1 348.74,202.19Z" style="fill:#0000FF" />
<path d="M542.03,294.32A5,5 0 1 1 532.03,294.32A5,5 0 1 1 542.03,294.32Z" style="fill:#0000FF" />
<path d="M735.31,362.23A5,5 0 1 1 725.31,362.23A5,5 0 1 1 735.31,362.23Z" style="fill:#0000FF" />
<path d="M928.59,430.92A5,5 0 1 1 918.59,430.92A5,5 0 1 1 928.59,430.92Z" style="fill:#0000FF" />
<path d="M1121.9,509.61A5,5 0 1 1 1111.9,509.61A5,5 0 1 1 1121.9,509.61Z" style="fill:#0000FF" />
<path d="M1315.2,639.55A5,5 0 1 1 1305.2,639.55A5,5 0 1 1 1315.2,639.55Z" style="fill:#0000FF" />
<path d="M1508.4,769.93A5,5 0 1 1 1498.4,769.93A5,5 0 1 1 1508.4,769.93Z" style="fill:#0000FF" />
<path d="M1701.7,806.57A5,5 0 1 1 1691.7,806.57A5,5 0 1 1 1701.7,806.57Z" style="fill:#0000FF" />
<path d="M1895,937.2A5,5 0 1 1 1885,937.2A5,5 0 1 1 1895,937.2Z" style="fill:#0000FF" />
<path d="M150.46,121.25L343.74,198.05L537.03,263.08L730.31,329.17L923.59,403.41L1116.9,515.95L1310.2,582.43L1503.4,644.84L1696.7,710.2L1890,843.67" style="fill:none;stroke:#00FF00;stroke-width:4" />
<path d="M155.46,121.25A5,5 0 1 1 145.46,121.25A5,5 0 1 1 155.46,121.25Z" style="fill:#00FF00" />
<path d="M348.74,198.05A5,5 0 1 1 338.74,198.05A5,5 0 1 1 348.74,198.05Z" style="fill:#00FF00" />
<path d="M542.03,263.08A5,5 0 1 1 532.03,263.08A5,5 0 1 1 542.03,263.08Z" style="fill:#00FF00" />
<path d="M735.31,329.17A5,5 0 1 1 725.31,329.17A5,5 0 1 1 735.31,329.17Z" style="fill:#00FF00" />
<path d="M928.59,403.41A5,5 0 1 1 918.59,403.41A5,5 0 1 1 928.59,403.41Z" style="fill:#00FF00" />
<path d="M1121.9,515.95A5,5 0 1 1 1111.9,515.95A5,5 0 1 1 1121.9,515.95Z" style="fill:#00FF00" />
<path d="M1315.2,582.43A5,5 0 1 1 1305.2,582.43A5,5 0 1 1 1315.2,582.43Z" style="fill:#00FF00" />
<path d="M1508.4,644.84A5,5 0 1 1 1498.4,644.84A5,5 0 1 1 1508.4,644.84Z" style="fill:#00FF00" />
<path d="M1701.7,710.2A5,5 0 1 1 1691.7,710.2A5,5 0 1 1 1701.7,710.2Z" style="fill:#00FF00" />
<path d="M1895,843.67A5,5 0 1 1 1885,843.67A5,5 0 1 1 1895,843.67Z" style="fill:#00FF00" />
<path d="M1900,126.03L1920,126.03" style="fill:none;stroke:#FF0000;stroke-width:4" />
<path d="M1915,126.03A5,5 0 1 1 1905,126.03A5,5 0 1 1 1915,126.03Z" style="fill:#FF0000" />
<text x="1823.3" y="-121.05" transform="scale(1, -1)"
	style="font-family:Liberation Serif;font-variant:normal;font-weight:normal;font-style:normal;font-size:24px">std::list</text>
<path d="M1900,105.66L1920,105.66" style="fill:none;stroke:#0000FF;stroke-width:4" />
<path d="M1915,105.66A5,5 0 1 1 1905,105.66A5,5 0 1 1 1915,105.66Z" style="fill:#0000FF" />
<text x="1795.4" y="-100.69" transform="scale(1, -1)"
	style="font-family:Liberation Serif;font-variant:normal;font-weight:normal;font-style:normal;font-size:24px">std::deque</text>
<path d="M1900,85.294L1920,85.294" style="fill:none;stroke:#00FF00;stroke-width:4" />
<path d="M1915,85.294A5,5 0 1 1 1905,85.294A5,5 0 1 1 1915,85.294Z" style="fill:#00FF00" />
<text x="1792.7" y="-80.319" transform="scale(1, -1)"
	style="font-family:Liberation Serif;font-variant:normal;font-weight:normal;font-style:normal;font-size:24px">std::vector</text>
</g>
</svg>
