<?xml version="1.0"?>
<!-- Generated by SVGo and Plotinum VG -->
<svg width="1920pt" height="1080pt" viewBox="0 0 1920 1080"
	xmlns="http://www.w3.org/2000/svg"
	xmlns:xlink="http://www.w3.org/1999/xlink">
<g transform="scale(1, -1) translate(0, -1080)">
<path d="M0,0L1920,0L1920,1080L0,1080Z" style="fill:#FFFFFF" />
<text x="922.5" y="-1040.9" transform="scale(1, -1)"
	style="font-family:Liberation Serif;font-variant:normal;font-weight:normal;font-style:normal;font-size:50px">sort</text>
<text x="897.77" y="-9.7559" transform="scale(1, -1)"
	style="font-family:Liberation Serif;font-variant:normal;font-weight:normal;font-style:normal;font-size:30px">Number of elements</text>
<text x="125.46" y="-39.727" transform="scale(1, -1)"
	style="font-family:Liberation Serif;font-variant:normal;font-weight:normal;font-style:normal;font-size:20px">10000</text>
<text x="318.74" y="-39.727" transform="scale(1, -1)"
	style="font-family:Liberation Serif;font-variant:normal;font-weight:normal;font-style:normal;font-size:20px">20000</text>
<text x="512.03" y="-39.727" transform="scale(1, -1)"
	style="font-family:Liberation Serif;font-variant:normal;font-weight:normal;font-style:normal;font-size:20px">30000</text>
<text x="705.31" y="-39.727" transform="scale(1, -1)"
	style="font-family:Liberation Serif;font-variant:normal;font-weight:normal;font-style:normal;font-size:20px">40000</text>
<text x="898.59" y="-39.727" transform="scale(1, -1)"
	style="font-family:Liberation Serif;font-variant:normal;font-weight:normal;font-style:normal;font-size:20px">50000</text>
<text x="1091.9" y="-39.727" transform="scale(1, -1)"
	style="font-family:Liberation Serif;font-variant:normal;font-weight:normal;font-style:normal;font-size:20px">60000</text>
<text x="1285.2" y="-39.727" transform="scale(1, -1)"
	style="font-family:Liberation Serif;font-variant:normal;font-weight:normal;font-style:normal;font-size:20px">70000</text>
<text x="1478.4" y="-39.727" transform="scale(1, -1)"
	style="font-family:Liberation Serif;font-variant:normal;font-weight:normal;font-style:normal;font-size:20px">80000</text>
<text x="1671.7" y="-39.727" transform="scale(1, -1)"
	style="font-family:Liberation Serif;font-variant:normal;font-weight:normal;font-style:normal;font-size:20px">90000</text>
<text x="1860" y="-39.727" transform="scale(1, -1)"
	style="font-family:Liberation Serif;font-variant:normal;font-weight:normal;font-style:normal;font-size:20px">100000</text>
<path d="M150.46,55.371L150.46,63.371" style="fill:none;stroke:#000000;stroke-width:0.5" />
<path d="M343.74,55.371L343.74,63.371" style="fill:none;stroke:#000000;stroke-width:0.5" />
<path d="M537.03,55.371L537.03,63.371" style="fill:none;stroke:#000000;stroke-width:0.5" />
<path d="M730.31,55.371L730.31,63.371" style="fill:none;stroke:#000000;stroke-width:0.5" />
<path d="M923.59,55.371L923.59,63.371" style="fill:none;stroke:#000000;stroke-width:0.5" />
<path d="M1116.9,55.371L1116.9,63.371" style="fill:none;stroke:#000000;stroke-width:0.5" />
<path d="M1310.2,55.371L1310.2,63.371" style="fill:none;stroke:#000000;stroke-width:0.5" />
<path d="M1503.4,55.371L1503.4,63.371" style="fill:none;stroke:#000000;stroke-width:0.5" />
<path d="M1696.7,55.371L1696.7,63.371" style="fill:none;stroke:#000000;stroke-width:0.5" />
<path d="M1890,55.371L1890,63.371" style="fill:none;stroke:#000000;stroke-width:0.5" />
<path d="M150.46,63.371L1890,63.371" style="fill:none;stroke:#000000;stroke-width:0.5" />
<g transform="rotate(90)">
<text x="538.49" y="23.467" transform="scale(1, -1)"
	style="font-family:Liberation Serif;font-variant:normal;font-weight:normal;font-style:normal;font-size:30px">μs</text>
</g>
<text x="49.712" y="-178.03" transform="scale(1, -1)"
	style="font-family:Liberation Serif;font-variant:normal;font-weight:normal;font-style:normal;font-size:20px">25000.00</text>
<text x="39.712" y="-545.37" transform="scale(1, -1)"
	style="font-family:Liberation Serif;font-variant:normal;font-weight:normal;font-style:normal;font-size:20px">100000.00</text>
<text x="39.712" y="-912.71" transform="scale(1, -1)"
	style="font-family:Liberation Serif;font-variant:normal;font-weight:normal;font-style:normal;font-size:20px">175000.00</text>
<path d="M129.71,182.6L137.71,182.6" style="fill:none;stroke:#000000;stroke-width:0.5" />
<path d="M129.71,549.94L137.71,549.94" style="fill:none;stroke:#000000;stroke-width:0.5" />
<path d="M129.71,917.28L137.71,917.28" style="fill:none;stroke:#000000;stroke-width:0.5" />
<path d="M133.71,366.27L137.71,366.27" style="fill:none;stroke:#000000;stroke-width:0.5" />
<path d="M133.71,733.61L137.71,733.61" style="fill:none;stroke:#000000;stroke-width:0.5" />
<path d="M137.71,80.11L137.71,1024.6" style="fill:none;stroke:#000000;stroke-width:0.5" />
<path d="M150.46,80.11L150.46,1024.6" style="fill:none;stroke:#808080;stroke-width:0.25" />
<path d="M343.74,80.11L343.74,1024.6" style="fill:none;stroke:#808080;stroke-width:0.25" />
<path d="M537.03,80.11L537.03,1024.6" style="fill:none;stroke:#808080;stroke-width:0.25" />
<path d="M730.31,80.11L730.31,1024.6" style="fill:none;stroke:#808080;stroke-width:0.25" />
<path d="M923.59,80.11L923.59,1024.6" style="fill:none;stroke:#808080;stroke-width:0.25" />
<path d="M1116.9,80.11L1116.9,1024.6" style="fill:none;stroke:#808080;stroke-width:0.25" />
<path d="M1310.2,80.11L1310.2,1024.6" style="fill:none;stroke:#808080;stroke-width:0.25" />
<path d="M1503.4,80.11L1503.4,1024.6" style="fill:none;stroke:#808080;stroke-width:0.25" />
<path d="M1696.7,80.11L1696.7,1024.6" style="fill:none;stroke:#808080;stroke-width:0.25" />
<path d="M1890,80.11L1890,1024.6" style="fill:none;stroke:#808080;stroke-width:0.25" />
<path d="M150.46,182.6L1890,182.6" style="fill:none;stroke:#808080;stroke-width:0.25" />
<path d="M150.46,549.94L1890,549.94" style="fill:none;stroke:#808080;stroke-width:0.25" />
<path d="M150.46,917.28L1890,917.28" style="fill:none;stroke:#808080;stroke-width:0.25" />
<path d="M150.46,80.11L343.74,105.31L537.03,146.17L730.31,182.76L923.59,204.02L1116.9,245.86L1310.2,282.69L1503.4,301.09L1696.7,321.13L1890,340.35" style="fill:none;stroke:#FF0000;stroke-width:4" />
<path d="M155.46,80.11A5,5 0 1 1 145.46,80.11A5,5 0 1 1 155.46,80.11Z" style="fill:#FF0000" />
<path d="M348.74,105.31A5,5 0 1 1 338.74,105.31A5,5 0 1 1 348.74,105.31Z" style="fill:#FF0000" />
<path d="M542.03,146.17A5,5 0 1 1 532.03,146.17A5,5 0 1 1 542.03,146.17Z" style="fill:#FF0000" />
<path d="M735.31,182.76A5,5 0 1 1 725.31,182.76A5,5 0 1 1 735.31,182.76Z" style="fill:#FF0000" />
<path d="M928.59,204.02A5,5 0 1 1 918.59,204.02A5,5 0 1 1 928.59,204.02Z" style="fill:#FF0000" />
<path d="M1121.9,245.86A5,5 0 1 1 1111.9,245.86A5,5 0 1 1 1121.9,245.86Z" style="fill:#FF0000" />
<path d="M1315.2,282.69A5,5 0 1 1 1305.2,282.69A5,5 0 1 1 1315.2,282.69Z" style="fill:#FF0000" />
<path d="M1508.4,301.09A5,5 0 1 1 1498.4,301.09A5,5 0 1 1 1508.4,301.09Z" style="fill:#FF0000" />
<path d="M1701.7,321.13A5,5 0 1 1 1691.7,321.13A5,5 0 1 1 1701.7,321.13Z" style="fill:#FF0000" />
<path d="M1895,340.35A5,5 0 1 1 1885,340.35A5,5 0 1 1 1895,340.35Z" style="fill:#FF0000" />
<path d="M150.46,134.33L343.74,210.69L537.03,291.61L730.31,377.24L923.59,506.17L1116.9,573.41L1310.2,642.77L1503.4,734.83L1696.7,876.43L1890,936.95" style="fill:none;stroke:#0000FF;stroke-width:4" />
<path d="M155.46,134.33A5,5 0 1 1 145.46,134.33A5,5 0 1 1 155.46,134.33Z" style="fill:#0000FF" />
<path d="M348.74,210.69A5,5 0 1 1 338.74,210.69A5,5 0 1 1 348.74,210.69Z" style="fill:#0000FF" />
<path d="M542.03,291.61A5,5 0 1 1 532.03,291.61A5,5 0 1 1 542.03,291.61Z" style="fill:#0000FF" />
<path d="M735.31,377.24A5,5 0 1 1 725.31,377.24A5,5 0 1 1 735.31,377.24Z" style="fill:#0000FF" />
<path d="M928.59,506.17A5,5 0 1 1 918.59,506.17A5,5 0 1 1 928.59,506.17Z" style="fill:#0000FF" />
<path d="M1121.9,573.41A5,5 0 1 1 1111.9,573.41A5,5 0 1 1 1121.9,573.41Z" style="fill:#0000FF" />
<path d="M1315.2,642.77A5,5 0 1 1 1305.2,642.77A5,5 0 1 1 1315.2,642.77Z" style="fill:#0000FF" />
<path d="M1508.4,734.83A5,5 0 1 1 1498.4,734.83A5,5 0 1 1 1508.4,734.83Z" style="fill:#0000FF" />
<path d="M1701.7,876.43A5,5 0 1 1 1691.7,876.43A5,5 0 1 1 1701.7,876.43Z" style="fill:#0000FF" />
<path d="M1895,936.95A5,5 0 1 1 1885,936.95A5,5 0 1 1 1895,936.95Z" style="fill:#0000FF" />
<path d="M150.46,131.44L343.74,199.26L537.03,274.69L730.31,359.09L923.59,466.15L1116.9,515.71L1310.2,642.74L1503.4,672.21L1696.7,784.91L1890,833.15" style="fill:none;stroke:#00FF00;stroke-width:4" />
<path d="M155.46,131.44A5,5 0 1 1 145.46,131.44A5,5 0 1 1 155.46,131.44Z" style="fill:#00FF00" />
<path d="M348.74,199.26A5,5 0 1 1 338.74,199.26A5,5 0 1 1 348.74,199.26Z" style="fill:#00FF00" />
<path d="M542.03,274.69A5,5 0 1 1 532.03,274.69A5,5 0 1 1 542.03,274.69Z" style="fill:#00FF00" />
<path d="M735.31,359.09A5,5 0 1 1 725.31,359.09A5,5 0 1 1 735.31,359.09Z" style="fill:#00FF00" />
<path d="M928.59,466.15A5,5 0 1 1 918.59,466.15A5,5 0 1 1 928.59,466.15Z" style="fill:#00FF00" />
<path d="M1121.9,515.71A5,5 0 1 1 1111.9,515.71A5,5 0 1 1 1121.9,515.71Z" style="fill:#00FF00" />
<path d="M1315.2,642.74A5,5 0 1 1 1305.2,642.74A5,5 0 1 1 1315.2,642.74Z" style="fill:#00FF00" />
<path d="M1508.4,672.21A5,5 0 1 1 1498.4,672.21A5,5 0 1 1 1508.4,672.21Z" style="fill:#00FF00" />
<path d="M1701.7,784.91A5,5 0 1 1 1691.7,784.91A5,5 0 1 1 1701.7,784.91Z" style="fill:#00FF00" />
<path d="M1895,833.15A5,5 0 1 1 1885,833.15A5,5 0 1 1 1895,833.15Z" style="fill:#00FF00" />
<path d="M1900,126.03L1920,126.03" style="fill:none;stroke:#FF0000;stroke-width:4" />
<path d="M1915,126.03A5,5 0 1 1 1905,126.03A5,5 0 1 1 1915,126.03Z" style="fill:#FF0000" />
<text x="1823.3" y="-121.05" transform="scale(1, -1)"
	style="font-family:Liberation Serif;font-variant:normal;font-weight:normal;font-style:normal;font-size:24px">std::list</text>
<path d="M1900,105.66L1920,105.66" style="fill:none;stroke:#0000FF;stroke-width:4" />
<path d="M1915,105.66A5,5 0 1 1 1905,105.66A5,5 0 1 1 1915,105.66Z" style="fill:#0000FF" />
<text x="1795.4" y="-100.69" transform="scale(1, -1)"
	style="font-family:Liberation Serif;font-variant:normal;font-weight:normal;font-style:normal;font-size:24px">std::deque</text>
<path d="M1900,85.294L1920,85.294" style="fill:none;stroke:#00FF00;stroke-width:4" />
<path d="M1915,85.294A5,5 0 1 1 1905,85.294A5,5 0 1 1 1915,85.294Z" style="fill:#00FF00" />
<text x="1792.7" y="-80.319" transform="scale(1, -1)"
	style="font-family:Liberation Serif;font-variant:normal;font-weight:normal;font-style:normal;font-size:24px">std::vector</text>
</g>
</svg>
