<?xml version="1.0"?>
<!-- Generated by SVGo and Plotinum VG -->
<svg width="1920pt" height="1080pt" viewBox="0 0 1920 1080"
	xmlns="http://www.w3.org/2000/svg"
	xmlns:xlink="http://www.w3.org/1999/xlink">
<g transform="scale(1, -1) translate(0, -1080)">
<path d="M0,0L1920,0L1920,1080L0,1080Z" style="fill:#FFFFFF" />
<text x="922.5" y="-1040.9" transform="scale(1, -1)"
	style="font-family:Liberation Serif;font-variant:normal;font-weight:normal;font-style:normal;font-size:50px">sort</text>
<text x="885.27" y="-9.7559" transform="scale(1, -1)"
	style="font-family:Liberation Serif;font-variant:normal;font-weight:normal;font-style:normal;font-size:30px">Number of elements</text>
<text x="100.46" y="-39.727" transform="scale(1, -1)"
	style="font-family:Liberation Serif;font-variant:normal;font-weight:normal;font-style:normal;font-size:20px">10000</text>
<text x="296.52" y="-39.727" transform="scale(1, -1)"
	style="font-family:Liberation Serif;font-variant:normal;font-weight:normal;font-style:normal;font-size:20px">20000</text>
<text x="492.58" y="-39.727" transform="scale(1, -1)"
	style="font-family:Liberation Serif;font-variant:normal;font-weight:normal;font-style:normal;font-size:20px">30000</text>
<text x="688.64" y="-39.727" transform="scale(1, -1)"
	style="font-family:Liberation Serif;font-variant:normal;font-weight:normal;font-style:normal;font-size:20px">40000</text>
<text x="884.7" y="-39.727" transform="scale(1, -1)"
	style="font-family:Liberation Serif;font-variant:normal;font-weight:normal;font-style:normal;font-size:20px">50000</text>
<text x="1080.8" y="-39.727" transform="scale(1, -1)"
	style="font-family:Liberation Serif;font-variant:normal;font-weight:normal;font-style:normal;font-size:20px">60000</text>
<text x="1276.8" y="-39.727" transform="scale(1, -1)"
	style="font-family:Liberation Serif;font-variant:normal;font-weight:normal;font-style:normal;font-size:20px">70000</text>
<text x="1472.9" y="-39.727" transform="scale(1, -1)"
	style="font-family:Liberation Serif;font-variant:normal;font-weight:normal;font-style:normal;font-size:20px">80000</text>
<text x="1668.9" y="-39.727" transform="scale(1, -1)"
	style="font-family:Liberation Serif;font-variant:normal;font-weight:normal;font-style:normal;font-size:20px">90000</text>
<text x="1860" y="-39.727" transform="scale(1, -1)"
	style="font-family:Liberation Serif;font-variant:normal;font-weight:normal;font-style:normal;font-size:20px">100000</text>
<path d="M125.46,55.371L125.46,63.371" style="fill:none;stroke:#000000;stroke-width:0.5" />
<path d="M321.52,55.371L321.52,63.371" style="fill:none;stroke:#000000;stroke-width:0.5" />
<path d="M517.58,55.371L517.58,63.371" style="fill:none;stroke:#000000;stroke-width:0.5" />
<path d="M713.64,55.371L713.64,63.371" style="fill:none;stroke:#000000;stroke-width:0.5" />
<path d="M909.7,55.371L909.7,63.371" style="fill:none;stroke:#000000;stroke-width:0.5" />
<path d="M1105.8,55.371L1105.8,63.371" style="fill:none;stroke:#000000;stroke-width:0.5" />
<path d="M1301.8,55.371L1301.8,63.371" style="fill:none;stroke:#000000;stroke-width:0.5" />
<path d="M1497.9,55.371L1497.9,63.371" style="fill:none;stroke:#000000;stroke-width:0.5" />
<path d="M1693.9,55.371L1693.9,63.371" style="fill:none;stroke:#000000;stroke-width:0.5" />
<path d="M1890,55.371L1890,63.371" style="fill:none;stroke:#000000;stroke-width:0.5" />
<path d="M125.46,63.371L1890,63.371" style="fill:none;stroke:#000000;stroke-width:0.5" />
<g transform="rotate(90)">
<text x="538.49" y="23.467" transform="scale(1, -1)"
	style="font-family:Liberation Serif;font-variant:normal;font-weight:normal;font-style:normal;font-size:30px">μs</text>
</g>
<text x="49.712" y="-226.49" transform="scale(1, -1)"
	style="font-family:Liberation Serif;font-variant:normal;font-weight:normal;font-style:normal;font-size:20px">40000</text>
<text x="39.712" y="-574.47" transform="scale(1, -1)"
	style="font-family:Liberation Serif;font-variant:normal;font-weight:normal;font-style:normal;font-size:20px">120000</text>
<text x="39.712" y="-922.46" transform="scale(1, -1)"
	style="font-family:Liberation Serif;font-variant:normal;font-weight:normal;font-style:normal;font-size:20px">200000</text>
<path d="M104.71,231.06L112.71,231.06" style="fill:none;stroke:#000000;stroke-width:0.5" />
<path d="M104.71,579.05L112.71,579.05" style="fill:none;stroke:#000000;stroke-width:0.5" />
<path d="M104.71,927.03L112.71,927.03" style="fill:none;stroke:#000000;stroke-width:0.5" />
<path d="M108.71,405.05L112.71,405.05" style="fill:none;stroke:#000000;stroke-width:0.5" />
<path d="M108.71,753.04L112.71,753.04" style="fill:none;stroke:#000000;stroke-width:0.5" />
<path d="M112.71,80.11L112.71,1024.6" style="fill:none;stroke:#000000;stroke-width:0.5" />
<path d="M125.46,80.11L125.46,1024.6" style="fill:none;stroke:#808080;stroke-width:0.25" />
<path d="M321.52,80.11L321.52,1024.6" style="fill:none;stroke:#808080;stroke-width:0.25" />
<path d="M517.58,80.11L517.58,1024.6" style="fill:none;stroke:#808080;stroke-width:0.25" />
<path d="M713.64,80.11L713.64,1024.6" style="fill:none;stroke:#808080;stroke-width:0.25" />
<path d="M909.7,80.11L909.7,1024.6" style="fill:none;stroke:#808080;stroke-width:0.25" />
<path d="M1105.8,80.11L1105.8,1024.6" style="fill:none;stroke:#808080;stroke-width:0.25" />
<path d="M1301.8,80.11L1301.8,1024.6" style="fill:none;stroke:#808080;stroke-width:0.25" />
<path d="M1497.9,80.11L1497.9,1024.6" style="fill:none;stroke:#808080;stroke-width:0.25" />
<path d="M1693.9,80.11L1693.9,1024.6" style="fill:none;stroke:#808080;stroke-width:0.25" />
<path d="M1890,80.11L1890,1024.6" style="fill:none;stroke:#808080;stroke-width:0.25" />
<path d="M125.46,231.06L1890,231.06" style="fill:none;stroke:#808080;stroke-width:0.25" />
<path d="M125.46,579.05L1890,579.05" style="fill:none;stroke:#808080;stroke-width:0.25" />
<path d="M125.46,927.03L1890,927.03" style="fill:none;stroke:#808080;stroke-width:0.25" />
<path d="M125.46,119.57L321.52,185.46L517.58,296.19L713.64,362.37L909.7,433.87L1105.8,522.72L1301.8,658.1L1497.9,735.01L1693.9,833.78L1890,936.67" style="fill:none;stroke:#FF0000;stroke-width:4" />
<path d="M130.46,119.57A5,5 0 1 1 120.46,119.57A5,5 0 1 1 130.46,119.57Z" style="fill:#FF0000" />
<path d="M326.52,185.46A5,5 0 1 1 316.52,185.46A5,5 0 1 1 326.52,185.46Z" style="fill:#FF0000" />
<path d="M522.58,296.19A5,5 0 1 1 512.58,296.19A5,5 0 1 1 522.58,296.19Z" style="fill:#FF0000" />
<path d="M718.64,362.37A5,5 0 1 1 708.64,362.37A5,5 0 1 1 718.64,362.37Z" style="fill:#FF0000" />
<path d="M914.7,433.87A5,5 0 1 1 904.7,433.87A5,5 0 1 1 914.7,433.87Z" style="fill:#FF0000" />
<path d="M1110.8,522.72A5,5 0 1 1 1100.8,522.72A5,5 0 1 1 1110.8,522.72Z" style="fill:#FF0000" />
<path d="M1306.8,658.1A5,5 0 1 1 1296.8,658.1A5,5 0 1 1 1306.8,658.1Z" style="fill:#FF0000" />
<path d="M1502.9,735.01A5,5 0 1 1 1492.9,735.01A5,5 0 1 1 1502.9,735.01Z" style="fill:#FF0000" />
<path d="M1698.9,833.78A5,5 0 1 1 1688.9,833.78A5,5 0 1 1 1698.9,833.78Z" style="fill:#FF0000" />
<path d="M1895,936.67A5,5 0 1 1 1885,936.67A5,5 0 1 1 1895,936.67Z" style="fill:#FF0000" />
<path d="M125.46,114.18L321.52,171.6L517.58,263.9L713.64,326.18L909.7,382.2L1105.8,522.6L1301.8,573.43L1497.9,635.08L1693.9,731.6L1890,852.02" style="fill:none;stroke:#0000FF;stroke-width:4" />
<path d="M130.46,114.18A5,5 0 1 1 120.46,114.18A5,5 0 1 1 130.46,114.18Z" style="fill:#0000FF" />
<path d="M326.52,171.6A5,5 0 1 1 316.52,171.6A5,5 0 1 1 326.52,171.6Z" style="fill:#0000FF" />
<path d="M522.58,263.9A5,5 0 1 1 512.58,263.9A5,5 0 1 1 522.58,263.9Z" style="fill:#0000FF" />
<path d="M718.64,326.18A5,5 0 1 1 708.64,326.18A5,5 0 1 1 718.64,326.18Z" style="fill:#0000FF" />
<path d="M914.7,382.2A5,5 0 1 1 904.7,382.2A5,5 0 1 1 914.7,382.2Z" style="fill:#0000FF" />
<path d="M1110.8,522.6A5,5 0 1 1 1100.8,522.6A5,5 0 1 1 1110.8,522.6Z" style="fill:#0000FF" />
<path d="M1306.8,573.43A5,5 0 1 1 1296.8,573.43A5,5 0 1 1 1306.8,573.43Z" style="fill:#0000FF" />
<path d="M1502.9,635.08A5,5 0 1 1 1492.9,635.08A5,5 0 1 1 1502.9,635.08Z" style="fill:#0000FF" />
<path d="M1698.9,731.6A5,5 0 1 1 1688.9,731.6A5,5 0 1 1 1698.9,731.6Z" style="fill:#0000FF" />
<path d="M1895,852.02A5,5 0 1 1 1885,852.02A5,5 0 1 1 1895,852.02Z" style="fill:#0000FF" />
<path d="M125.46,80.11L321.52,105.99L517.58,147.32L713.64,181.36L909.7,189.34L1105.8,229.21L1301.8,263.31L1497.9,283.68L1693.9,323.78L1890,382.78" style="fill:none;stroke:#00FF00;stroke-width:4" />
<path d="M130.46,80.11A5,5 0 1 1 120.46,80.11A5,5 0 1 1 130.46,80.11Z" style="fill:#00FF00" />
<path d="M326.52,105.99A5,5 0 1 1 316.52,105.99A5,5 0 1 1 326.52,105.99Z" style="fill:#00FF00" />
<path d="M522.58,147.32A5,5 0 1 1 512.58,147.32A5,5 0 1 1 522.58,147.32Z" style="fill:#00FF00" />
<path d="M718.64,181.36A5,5 0 1 1 708.64,181.36A5,5 0 1 1 718.64,181.36Z" style="fill:#00FF00" />
<path d="M914.7,189.34A5,5 0 1 1 904.7,189.34A5,5 0 1 1 914.7,189.34Z" style="fill:#00FF00" />
<path d="M1110.8,229.21A5,5 0 1 1 1100.8,229.21A5,5 0 1 1 1110.8,229.21Z" style="fill:#00FF00" />
<path d="M1306.8,263.31A5,5 0 1 1 1296.8,263.31A5,5 0 1 1 1306.8,263.31Z" style="fill:#00FF00" />
<path d="M1502.9,283.68A5,5 0 1 1 1492.9,283.68A5,5 0 1 1 1502.9,283.68Z" style="fill:#00FF00" />
<path d="M1698.9,323.78A5,5 0 1 1 1688.9,323.78A5,5 0 1 1 1698.9,323.78Z" style="fill:#00FF00" />
<path d="M1895,382.78A5,5 0 1 1 1885,382.78A5,5 0 1 1 1895,382.78Z" style="fill:#00FF00" />
<path d="M1900,126.03L1920,126.03" style="fill:none;stroke:#FF0000;stroke-width:4" />
<path d="M1915,126.03A5,5 0 1 1 1905,126.03A5,5 0 1 1 1915,126.03Z" style="fill:#FF0000" />
<text x="1795.4" y="-121.05" transform="scale(1, -1)"
	style="font-family:Liberation Serif;font-variant:normal;font-weight:normal;font-style:normal;font-size:24px">std::deque</text>
<path d="M1900,105.66L1920,105.66" style="fill:none;stroke:#0000FF;stroke-width:4" />
<path d="M1915,105.66A5,5 0 1 1 1905,105.66A5,5 0 1 1 1915,105.66Z" style="fill:#0000FF" />
<text x="1792.7" y="-100.69" transform="scale(1, -1)"
	style="font-family:Liberation Serif;font-variant:normal;font-weight:normal;font-style:normal;font-size:24px">std::vector</text>
<path d="M1900,85.294L1920,85.294" style="fill:none;stroke:#00FF00;stroke-width:4" />
<path d="M1915,85.294A5,5 0 1 1 1905,85.294A5,5 0 1 1 1915,85.294Z" style="fill:#00FF00" />
<text x="1823.3" y="-80.319" transform="scale(1, -1)"
	style="font-family:Liberation Serif;font-variant:normal;font-weight:normal;font-style:normal;font-size:24px">std::list</text>
</g>
</svg>
