<?xml version="1.0"?>
<!-- Generated by SVGo and Plotinum VG -->
<svg width="1920pt" height="1080pt" viewBox="0 0 1920 1080"
	xmlns="http://www.w3.org/2000/svg"
	xmlns:xlink="http://www.w3.org/1999/xlink">
<g transform="scale(1, -1) translate(0, -1080)">
<path d="M0,0L1920,0L1920,1080L0,1080Z" style="fill:#FFFFFF" />
<text x="801.02" y="-1040.9" transform="scale(1, -1)"
	style="font-family:Liberation Serif;font-variant:normal;font-weight:normal;font-style:normal;font-size:50px">sort - Log Scale</text>
<text x="885.27" y="-9.7559" transform="scale(1, -1)"
	style="font-family:Liberation Serif;font-variant:normal;font-weight:normal;font-style:normal;font-size:30px">Number of elements</text>
<text x="100.46" y="-39.727" transform="scale(1, -1)"
	style="font-family:Liberation Serif;font-variant:normal;font-weight:normal;font-style:normal;font-size:20px">10000</text>
<text x="296.52" y="-39.727" transform="scale(1, -1)"
	style="font-family:Liberation Serif;font-variant:normal;font-weight:normal;font-style:normal;font-size:20px">20000</text>
<text x="492.58" y="-39.727" transform="scale(1, -1)"
	style="font-family:Liberation Serif;font-variant:normal;font-weight:normal;font-style:normal;font-size:20px">30000</text>
<text x="688.64" y="-39.727" transform="scale(1, -1)"
	style="font-family:Liberation Serif;font-variant:normal;font-weight:normal;font-style:normal;font-size:20px">40000</text>
<text x="884.7" y="-39.727" transform="scale(1, -1)"
	style="font-family:Liberation Serif;font-variant:normal;font-weight:normal;font-style:normal;font-size:20px">50000</text>
<text x="1080.8" y="-39.727" transform="scale(1, -1)"
	style="font-family:Liberation Serif;font-variant:normal;font-weight:normal;font-style:normal;font-size:20px">60000</text>
<text x="1276.8" y="-39.727" transform="scale(1, -1)"
	style="font-family:Liberation Serif;font-variant:normal;font-weight:normal;font-style:normal;font-size:20px">70000</text>
<text x="1472.9" y="-39.727" transform="scale(1, -1)"
	style="font-family:Liberation Serif;font-variant:normal;font-weight:normal;font-style:normal;font-size:20px">80000</text>
<text x="1668.9" y="-39.727" transform="scale(1, -1)"
	style="font-family:Liberation Serif;font-variant:normal;font-weight:normal;font-style:normal;font-size:20px">90000</text>
<text x="1860" y="-39.727" transform="scale(1, -1)"
	style="font-family:Liberation Serif;font-variant:normal;font-weight:normal;font-style:normal;font-size:20px">100000</text>
<path d="M125.46,55.371L125.46,63.371" style="fill:none;stroke:#000000;stroke-width:0.5" />
<path d="M321.52,55.371L321.52,63.371" style="fill:none;stroke:#000000;stroke-width:0.5" />
<path d="M517.58,55.371L517.58,63.371" style="fill:none;stroke:#000000;stroke-width:0.5" />
<path d="M713.64,55.371L713.64,63.371" style="fill:none;stroke:#000000;stroke-width:0.5" />
<path d="M909.7,55.371L909.7,63.371" style="fill:none;stroke:#000000;stroke-width:0.5" />
<path d="M1105.8,55.371L1105.8,63.371" style="fill:none;stroke:#000000;stroke-width:0.5" />
<path d="M1301.8,55.371L1301.8,63.371" style="fill:none;stroke:#000000;stroke-width:0.5" />
<path d="M1497.9,55.371L1497.9,63.371" style="fill:none;stroke:#000000;stroke-width:0.5" />
<path d="M1693.9,55.371L1693.9,63.371" style="fill:none;stroke:#000000;stroke-width:0.5" />
<path d="M1890,55.371L1890,63.371" style="fill:none;stroke:#000000;stroke-width:0.5" />
<path d="M125.46,63.371L1890,63.371" style="fill:none;stroke:#000000;stroke-width:0.5" />
<g transform="rotate(90)">
<text x="485.87" y="23.467" transform="scale(1, -1)"
	style="font-family:Liberation Serif;font-variant:normal;font-weight:normal;font-style:normal;font-size:30px">log(μs + 1)</text>
</g>
<text x="49.712" y="-441.99" transform="scale(1, -1)"
	style="font-family:Liberation Serif;font-variant:normal;font-weight:normal;font-style:normal;font-size:20px">20000</text>
<text x="49.712" y="-838.84" transform="scale(1, -1)"
	style="font-family:Liberation Serif;font-variant:normal;font-weight:normal;font-style:normal;font-size:20px">80000</text>
<text x="39.712" y="-999.03" transform="scale(1, -1)"
	style="font-family:Liberation Serif;font-variant:normal;font-weight:normal;font-style:normal;font-size:20px">140000</text>
<path d="M104.71,446.56L112.71,446.56" style="fill:none;stroke:#000000;stroke-width:0.5" />
<path d="M104.71,843.41L112.71,843.41" style="fill:none;stroke:#000000;stroke-width:0.5" />
<path d="M104.71,1003.6L112.71,1003.6" style="fill:none;stroke:#000000;stroke-width:0.5" />
<path d="M108.71,708.86L112.71,708.86" style="fill:none;stroke:#000000;stroke-width:0.5" />
<path d="M108.71,934.57L112.71,934.57" style="fill:none;stroke:#000000;stroke-width:0.5" />
<path d="M112.71,80.11L112.71,1024.6" style="fill:none;stroke:#000000;stroke-width:0.5" />
<path d="M125.46,80.11L125.46,1024.6" style="fill:none;stroke:#808080;stroke-width:0.25" />
<path d="M321.52,80.11L321.52,1024.6" style="fill:none;stroke:#808080;stroke-width:0.25" />
<path d="M517.58,80.11L517.58,1024.6" style="fill:none;stroke:#808080;stroke-width:0.25" />
<path d="M713.64,80.11L713.64,1024.6" style="fill:none;stroke:#808080;stroke-width:0.25" />
<path d="M909.7,80.11L909.7,1024.6" style="fill:none;stroke:#808080;stroke-width:0.25" />
<path d="M1105.8,80.11L1105.8,1024.6" style="fill:none;stroke:#808080;stroke-width:0.25" />
<path d="M1301.8,80.11L1301.8,1024.6" style="fill:none;stroke:#808080;stroke-width:0.25" />
<path d="M1497.9,80.11L1497.9,1024.6" style="fill:none;stroke:#808080;stroke-width:0.25" />
<path d="M1693.9,80.11L1693.9,1024.6" style="fill:none;stroke:#808080;stroke-width:0.25" />
<path d="M1890,80.11L1890,1024.6" style="fill:none;stroke:#808080;stroke-width:0.25" />
<path d="M125.46,446.56L1890,446.56" style="fill:none;stroke:#808080;stroke-width:0.25" />
<path d="M125.46,843.41L1890,843.41" style="fill:none;stroke:#808080;stroke-width:0.25" />
<path d="M125.46,1003.6L1890,1003.6" style="fill:none;stroke:#808080;stroke-width:0.25" />
<path d="M125.46,285.9L321.52,470.15L517.58,631.94L713.64,710.93L909.7,771.51L1105.8,824.83L1301.8,848.66L1497.9,903.69L1693.9,924.26L1890,997.35" style="fill:none;stroke:#FF0000;stroke-width:4" />
<path d="M130.46,285.9A5,5 0 1 1 120.46,285.9A5,5 0 1 1 130.46,285.9Z" style="fill:#FF0000" />
<path d="M326.52,470.15A5,5 0 1 1 316.52,470.15A5,5 0 1 1 326.52,470.15Z" style="fill:#FF0000" />
<path d="M522.58,631.94A5,5 0 1 1 512.58,631.94A5,5 0 1 1 522.58,631.94Z" style="fill:#FF0000" />
<path d="M718.64,710.93A5,5 0 1 1 708.64,710.93A5,5 0 1 1 718.64,710.93Z" style="fill:#FF0000" />
<path d="M914.7,771.51A5,5 0 1 1 904.7,771.51A5,5 0 1 1 914.7,771.51Z" style="fill:#FF0000" />
<path d="M1110.8,824.83A5,5 0 1 1 1100.8,824.83A5,5 0 1 1 1110.8,824.83Z" style="fill:#FF0000" />
<path d="M1306.8,848.66A5,5 0 1 1 1296.8,848.66A5,5 0 1 1 1306.8,848.66Z" style="fill:#FF0000" />
<path d="M1502.9,903.69A5,5 0 1 1 1492.9,903.69A5,5 0 1 1 1502.9,903.69Z" style="fill:#FF0000" />
<path d="M1698.9,924.26A5,5 0 1 1 1688.9,924.26A5,5 0 1 1 1698.9,924.26Z" style="fill:#FF0000" />
<path d="M1895,997.35A5,5 0 1 1 1885,997.35A5,5 0 1 1 1895,997.35Z" style="fill:#FF0000" />
<path d="M125.46,293.99L321.52,440.68L517.58,558.56L713.64,631.21L909.7,683.42L1105.8,779.12L1301.8,794.81L1497.9,835.61L1693.9,876.85L1890,903.12" style="fill:none;stroke:#0000FF;stroke-width:4" />
<path d="M130.46,293.99A5,5 0 1 1 120.46,293.99A5,5 0 1 1 130.46,293.99Z" style="fill:#0000FF" />
<path d="M326.52,440.68A5,5 0 1 1 316.52,440.68A5,5 0 1 1 326.52,440.68Z" style="fill:#0000FF" />
<path d="M522.58,558.56A5,5 0 1 1 512.58,558.56A5,5 0 1 1 522.58,558.56Z" style="fill:#0000FF" />
<path d="M718.64,631.21A5,5 0 1 1 708.64,631.21A5,5 0 1 1 718.64,631.21Z" style="fill:#0000FF" />
<path d="M914.7,683.42A5,5 0 1 1 904.7,683.42A5,5 0 1 1 914.7,683.42Z" style="fill:#0000FF" />
<path d="M1110.8,779.12A5,5 0 1 1 1100.8,779.12A5,5 0 1 1 1110.8,779.12Z" style="fill:#0000FF" />
<path d="M1306.8,794.81A5,5 0 1 1 1296.8,794.81A5,5 0 1 1 1306.8,794.81Z" style="fill:#0000FF" />
<path d="M1502.9,835.61A5,5 0 1 1 1492.9,835.61A5,5 0 1 1 1502.9,835.61Z" style="fill:#0000FF" />
<path d="M1698.9,876.85A5,5 0 1 1 1688.9,876.85A5,5 0 1 1 1698.9,876.85Z" style="fill:#0000FF" />
<path d="M1895,903.12A5,5 0 1 1 1885,903.12A5,5 0 1 1 1895,903.12Z" style="fill:#0000FF" />
<path d="M125.46,80.11L321.52,277.22L517.58,456.23L713.64,540.25L909.7,663.51L1105.8,601.59L1301.8,648.02L1497.9,709.11L1693.9,751.29L1890,784.36" style="fill:none;stroke:#00FF00;stroke-width:4" />
<path d="M130.46,80.11A5,5 0 1 1 120.46,80.11A5,5 0 1 1 130.46,80.11Z" style="fill:#00FF00" />
<path d="M326.52,277.22A5,5 0 1 1 316.52,277.22A5,5 0 1 1 326.52,277.22Z" style="fill:#00FF00" />
<path d="M522.58,456.23A5,5 0 1 1 512.58,456.23A5,5 0 1 1 522.58,456.23Z" style="fill:#00FF00" />
<path d="M718.64,540.25A5,5 0 1 1 708.64,540.25A5,5 0 1 1 718.64,540.25Z" style="fill:#00FF00" />
<path d="M914.7,663.51A5,5 0 1 1 904.7,663.51A5,5 0 1 1 914.7,663.51Z" style="fill:#00FF00" />
<path d="M1110.8,601.59A5,5 0 1 1 1100.8,601.59A5,5 0 1 1 1110.8,601.59Z" style="fill:#00FF00" />
<path d="M1306.8,648.02A5,5 0 1 1 1296.8,648.02A5,5 0 1 1 1306.8,648.02Z" style="fill:#00FF00" />
<path d="M1502.9,709.11A5,5 0 1 1 1492.9,709.11A5,5 0 1 1 1502.9,709.11Z" style="fill:#00FF00" />
<path d="M1698.9,751.29A5,5 0 1 1 1688.9,751.29A5,5 0 1 1 1698.9,751.29Z" style="fill:#00FF00" />
<path d="M1895,784.36A5,5 0 1 1 1885,784.36A5,5 0 1 1 1895,784.36Z" style="fill:#00FF00" />
<path d="M1900,126.03L1920,126.03" style="fill:none;stroke:#FF0000;stroke-width:4" />
<path d="M1915,126.03A5,5 0 1 1 1905,126.03A5,5 0 1 1 1915,126.03Z" style="fill:#FF0000" />
<text x="1795.4" y="-121.05" transform="scale(1, -1)"
	style="font-family:Liberation Serif;font-variant:normal;font-weight:normal;font-style:normal;font-size:24px">std::deque</text>
<path d="M1900,105.66L1920,105.66" style="fill:none;stroke:#0000FF;stroke-width:4" />
<path d="M1915,105.66A5,5 0 1 1 1905,105.66A5,5 0 1 1 1915,105.66Z" style="fill:#0000FF" />
<text x="1792.7" y="-100.69" transform="scale(1, -1)"
	style="font-family:Liberation Serif;font-variant:normal;font-weight:normal;font-style:normal;font-size:24px">std::vector</text>
<path d="M1900,85.294L1920,85.294" style="fill:none;stroke:#00FF00;stroke-width:4" />
<path d="M1915,85.294A5,5 0 1 1 1905,85.294A5,5 0 1 1 1915,85.294Z" style="fill:#00FF00" />
<text x="1823.3" y="-80.319" transform="scale(1, -1)"
	style="font-family:Liberation Serif;font-variant:normal;font-weight:normal;font-style:normal;font-size:24px">std::list</text>
</g>
</svg>
