<?xml version="1.0"?>
<!-- Generated by SVGo and Plotinum VG -->
<svg width="1920pt" height="1080pt" viewBox="0 0 1920 1080"
	xmlns="http://www.w3.org/2000/svg"
	xmlns:xlink="http://www.w3.org/1999/xlink">
<g transform="scale(1, -1) translate(0, -1080)">
<path d="M0,0L1920,0L1920,1080L0,1080Z" style="fill:#FFFFFF" />
<text x="922.5" y="-1040.9" transform="scale(1, -1)"
	style="font-family:Liberation Serif;font-variant:normal;font-weight:normal;font-style:normal;font-size:50px">sort</text>
<text x="885.27" y="-9.7559" transform="scale(1, -1)"
	style="font-family:Liberation Serif;font-variant:normal;font-weight:normal;font-style:normal;font-size:30px">Number of elements</text>
<text x="100.46" y="-39.727" transform="scale(1, -1)"
	style="font-family:Liberation Serif;font-variant:normal;font-weight:normal;font-style:normal;font-size:20px">10000</text>
<text x="296.52" y="-39.727" transform="scale(1, -1)"
	style="font-family:Liberation Serif;font-variant:normal;font-weight:normal;font-style:normal;font-size:20px">20000</text>
<text x="492.58" y="-39.727" transform="scale(1, -1)"
	style="font-family:Liberation Serif;font-variant:normal;font-weight:normal;font-style:normal;font-size:20px">30000</text>
<text x="688.64" y="-39.727" transform="scale(1, -1)"
	style="font-family:Liberation Serif;font-variant:normal;font-weight:normal;font-style:normal;font-size:20px">40000</text>
<text x="884.7" y="-39.727" transform="scale(1, -1)"
	style="font-family:Liberation Serif;font-variant:normal;font-weight:normal;font-style:normal;font-size:20px">50000</text>
<text x="1080.8" y="-39.727" transform="scale(1, -1)"
	style="font-family:Liberation Serif;font-variant:normal;font-weight:normal;font-style:normal;font-size:20px">60000</text>
<text x="1276.8" y="-39.727" transform="scale(1, -1)"
	style="font-family:Liberation Serif;font-variant:normal;font-weight:normal;font-style:normal;font-size:20px">70000</text>
<text x="1472.9" y="-39.727" transform="scale(1, -1)"
	style="font-family:Liberation Serif;font-variant:normal;font-weight:normal;font-style:normal;font-size:20px">80000</text>
<text x="1668.9" y="-39.727" transform="scale(1, -1)"
	style="font-family:Liberation Serif;font-variant:normal;font-weight:normal;font-style:normal;font-size:20px">90000</text>
<text x="1860" y="-39.727" transform="scale(1, -1)"
	style="font-family:Liberation Serif;font-variant:normal;font-weight:normal;font-style:normal;font-size:20px">100000</text>
<path d="M125.46,55.371L125.46,63.371" style="fill:none;stroke:#000000;stroke-width:0.5" />
<path d="M321.52,55.371L321.52,63.371" style="fill:none;stroke:#000000;stroke-width:0.5" />
<path d="M517.58,55.371L517.58,63.371" style="fill:none;stroke:#000000;stroke-width:0.5" />
<path d="M713.64,55.371L713.64,63.371" style="fill:none;stroke:#000000;stroke-width:0.5" />
<path d="M909.7,55.371L909.7,63.371" style="fill:none;stroke:#000000;stroke-width:0.5" />
<path d="M1105.8,55.371L1105.8,63.371" style="fill:none;stroke:#000000;stroke-width:0.5" />
<path d="M1301.8,55.371L1301.8,63.371" style="fill:none;stroke:#000000;stroke-width:0.5" />
<path d="M1497.9,55.371L1497.9,63.371" style="fill:none;stroke:#000000;stroke-width:0.5" />
<path d="M1693.9,55.371L1693.9,63.371" style="fill:none;stroke:#000000;stroke-width:0.5" />
<path d="M1890,55.371L1890,63.371" style="fill:none;stroke:#000000;stroke-width:0.5" />
<path d="M125.46,63.371L1890,63.371" style="fill:none;stroke:#000000;stroke-width:0.5" />
<g transform="rotate(90)">
<text x="538.49" y="23.467" transform="scale(1, -1)"
	style="font-family:Liberation Serif;font-variant:normal;font-weight:normal;font-style:normal;font-size:30px">μs</text>
</g>
<text x="49.712" y="-230.56" transform="scale(1, -1)"
	style="font-family:Liberation Serif;font-variant:normal;font-weight:normal;font-style:normal;font-size:20px">40000</text>
<text x="39.712" y="-593.66" transform="scale(1, -1)"
	style="font-family:Liberation Serif;font-variant:normal;font-weight:normal;font-style:normal;font-size:20px">120000</text>
<text x="39.712" y="-956.76" transform="scale(1, -1)"
	style="font-family:Liberation Serif;font-variant:normal;font-weight:normal;font-style:normal;font-size:20px">200000</text>
<path d="M104.71,235.13L112.71,235.13" style="fill:none;stroke:#000000;stroke-width:0.5" />
<path d="M104.71,598.23L112.71,598.23" style="fill:none;stroke:#000000;stroke-width:0.5" />
<path d="M104.71,961.33L112.71,961.33" style="fill:none;stroke:#000000;stroke-width:0.5" />
<path d="M108.71,416.68L112.71,416.68" style="fill:none;stroke:#000000;stroke-width:0.5" />
<path d="M108.71,779.78L112.71,779.78" style="fill:none;stroke:#000000;stroke-width:0.5" />
<path d="M112.71,80.11L112.71,1024.6" style="fill:none;stroke:#000000;stroke-width:0.5" />
<path d="M125.46,80.11L125.46,1024.6" style="fill:none;stroke:#808080;stroke-width:0.25" />
<path d="M321.52,80.11L321.52,1024.6" style="fill:none;stroke:#808080;stroke-width:0.25" />
<path d="M517.58,80.11L517.58,1024.6" style="fill:none;stroke:#808080;stroke-width:0.25" />
<path d="M713.64,80.11L713.64,1024.6" style="fill:none;stroke:#808080;stroke-width:0.25" />
<path d="M909.7,80.11L909.7,1024.6" style="fill:none;stroke:#808080;stroke-width:0.25" />
<path d="M1105.8,80.11L1105.8,1024.6" style="fill:none;stroke:#808080;stroke-width:0.25" />
<path d="M1301.8,80.11L1301.8,1024.6" style="fill:none;stroke:#808080;stroke-width:0.25" />
<path d="M1497.9,80.11L1497.9,1024.6" style="fill:none;stroke:#808080;stroke-width:0.25" />
<path d="M1693.9,80.11L1693.9,1024.6" style="fill:none;stroke:#808080;stroke-width:0.25" />
<path d="M1890,80.11L1890,1024.6" style="fill:none;stroke:#808080;stroke-width:0.25" />
<path d="M125.46,235.13L1890,235.13" style="fill:none;stroke:#808080;stroke-width:0.25" />
<path d="M125.46,598.23L1890,598.23" style="fill:none;stroke:#808080;stroke-width:0.25" />
<path d="M125.46,961.33L1890,961.33" style="fill:none;stroke:#808080;stroke-width:0.25" />
<path d="M125.46,80.11L321.52,101L517.58,129.78L713.64,162.38L909.7,195.4L1105.8,227.75L1301.8,262.23L1497.9,324.51L1693.9,343.12L1890,373.56" style="fill:none;stroke:#FF0000;stroke-width:4" />
<path d="M130.46,80.11A5,5 0 1 1 120.46,80.11A5,5 0 1 1 130.46,80.11Z" style="fill:#FF0000" />
<path d="M326.52,101A5,5 0 1 1 316.52,101A5,5 0 1 1 326.52,101Z" style="fill:#FF0000" />
<path d="M522.58,129.78A5,5 0 1 1 512.58,129.78A5,5 0 1 1 522.58,129.78Z" style="fill:#FF0000" />
<path d="M718.64,162.38A5,5 0 1 1 708.64,162.38A5,5 0 1 1 718.64,162.38Z" style="fill:#FF0000" />
<path d="M914.7,195.4A5,5 0 1 1 904.7,195.4A5,5 0 1 1 914.7,195.4Z" style="fill:#FF0000" />
<path d="M1110.8,227.75A5,5 0 1 1 1100.8,227.75A5,5 0 1 1 1110.8,227.75Z" style="fill:#FF0000" />
<path d="M1306.8,262.23A5,5 0 1 1 1296.8,262.23A5,5 0 1 1 1306.8,262.23Z" style="fill:#FF0000" />
<path d="M1502.9,324.51A5,5 0 1 1 1492.9,324.51A5,5 0 1 1 1502.9,324.51Z" style="fill:#FF0000" />
<path d="M1698.9,343.12A5,5 0 1 1 1688.9,343.12A5,5 0 1 1 1698.9,343.12Z" style="fill:#FF0000" />
<path d="M1895,373.56A5,5 0 1 1 1885,373.56A5,5 0 1 1 1895,373.56Z" style="fill:#FF0000" />
<path d="M125.46,114.6L321.52,197.11L517.58,265.22L713.64,358.91L909.7,503.87L1105.8,575.23L1301.8,692.27L1497.9,774.78L1693.9,859.08L1890,936.35" style="fill:none;stroke:#0000FF;stroke-width:4" />
<path d="M130.46,114.6A5,5 0 1 1 120.46,114.6A5,5 0 1 1 130.46,114.6Z" style="fill:#0000FF" />
<path d="M326.52,197.11A5,5 0 1 1 316.52,197.11A5,5 0 1 1 326.52,197.11Z" style="fill:#0000FF" />
<path d="M522.58,265.22A5,5 0 1 1 512.58,265.22A5,5 0 1 1 522.58,265.22Z" style="fill:#0000FF" />
<path d="M718.64,358.91A5,5 0 1 1 708.64,358.91A5,5 0 1 1 718.64,358.91Z" style="fill:#0000FF" />
<path d="M914.7,503.87A5,5 0 1 1 904.7,503.87A5,5 0 1 1 914.7,503.87Z" style="fill:#0000FF" />
<path d="M1110.8,575.23A5,5 0 1 1 1100.8,575.23A5,5 0 1 1 1110.8,575.23Z" style="fill:#0000FF" />
<path d="M1306.8,692.27A5,5 0 1 1 1296.8,692.27A5,5 0 1 1 1306.8,692.27Z" style="fill:#0000FF" />
<path d="M1502.9,774.78A5,5 0 1 1 1492.9,774.78A5,5 0 1 1 1502.9,774.78Z" style="fill:#0000FF" />
<path d="M1698.9,859.08A5,5 0 1 1 1688.9,859.08A5,5 0 1 1 1698.9,859.08Z" style="fill:#0000FF" />
<path d="M1895,936.35A5,5 0 1 1 1885,936.35A5,5 0 1 1 1895,936.35Z" style="fill:#0000FF" />
<path d="M125.46,110L321.52,176.6L517.58,302.52L713.64,374.55L909.7,448.72L1105.8,489.23L1301.8,567.7L1497.9,716L1693.9,772.1L1890,842.13" style="fill:none;stroke:#00FF00;stroke-width:4" />
<path d="M130.46,110A5,5 0 1 1 120.46,110A5,5 0 1 1 130.46,110Z" style="fill:#00FF00" />
<path d="M326.52,176.6A5,5 0 1 1 316.52,176.6A5,5 0 1 1 326.52,176.6Z" style="fill:#00FF00" />
<path d="M522.58,302.52A5,5 0 1 1 512.58,302.52A5,5 0 1 1 522.58,302.52Z" style="fill:#00FF00" />
<path d="M718.64,374.55A5,5 0 1 1 708.64,374.55A5,5 0 1 1 718.64,374.55Z" style="fill:#00FF00" />
<path d="M914.7,448.72A5,5 0 1 1 904.7,448.72A5,5 0 1 1 914.7,448.72Z" style="fill:#00FF00" />
<path d="M1110.8,489.23A5,5 0 1 1 1100.8,489.23A5,5 0 1 1 1110.8,489.23Z" style="fill:#00FF00" />
<path d="M1306.8,567.7A5,5 0 1 1 1296.8,567.7A5,5 0 1 1 1306.8,567.7Z" style="fill:#00FF00" />
<path d="M1502.9,716A5,5 0 1 1 1492.9,716A5,5 0 1 1 1502.9,716Z" style="fill:#00FF00" />
<path d="M1698.9,772.1A5,5 0 1 1 1688.9,772.1A5,5 0 1 1 1698.9,772.1Z" style="fill:#00FF00" />
<path d="M1895,842.13A5,5 0 1 1 1885,842.13A5,5 0 1 1 1895,842.13Z" style="fill:#00FF00" />
<path d="M1900,126.03L1920,126.03" style="fill:none;stroke:#FF0000;stroke-width:4" />
<path d="M1915,126.03A5,5 0 1 1 1905,126.03A5,5 0 1 1 1915,126.03Z" style="fill:#FF0000" />
<text x="1823.3" y="-121.05" transform="scale(1, -1)"
	style="font-family:Liberation Serif;font-variant:normal;font-weight:normal;font-style:normal;font-size:24px">std::list</text>
<path d="M1900,105.66L1920,105.66" style="fill:none;stroke:#0000FF;stroke-width:4" />
<path d="M1915,105.66A5,5 0 1 1 1905,105.66A5,5 0 1 1 1915,105.66Z" style="fill:#0000FF" />
<text x="1795.4" y="-100.69" transform="scale(1, -1)"
	style="font-family:Liberation Serif;font-variant:normal;font-weight:normal;font-style:normal;font-size:24px">std::deque</text>
<path d="M1900,85.294L1920,85.294" style="fill:none;stroke:#00FF00;stroke-width:4" />
<path d="M1915,85.294A5,5 0 1 1 1905,85.294A5,5 0 1 1 1915,85.294Z" style="fill:#00FF00" />
<text x="1792.7" y="-80.319" transform="scale(1, -1)"
	style="font-family:Liberation Serif;font-variant:normal;font-weight:normal;font-style:normal;font-size:24px">std::vector</text>
</g>
</svg>
