<?xml version="1.0"?>
<!-- Generated by SVGo and Plotinum VG -->
<svg width="1920pt" height="1080pt" viewBox="0 0 1920 1080"
	xmlns="http://www.w3.org/2000/svg"
	xmlns:xlink="http://www.w3.org/1999/xlink">
<g transform="scale(1, -1) translate(0, -1080)">
<path d="M0,0L1920,0L1920,1080L0,1080Z" style="fill:#FFFFFF" />
<text x="922.5" y="-1040.9" transform="scale(1, -1)"
	style="font-family:Liberation Serif;font-variant:normal;font-weight:normal;font-style:normal;font-size:50px">sort</text>
<text x="897.77" y="-9.7559" transform="scale(1, -1)"
	style="font-family:Liberation Serif;font-variant:normal;font-weight:normal;font-style:normal;font-size:30px">Number of elements</text>
<text x="125.46" y="-39.727" transform="scale(1, -1)"
	style="font-family:Liberation Serif;font-variant:normal;font-weight:normal;font-style:normal;font-size:20px">10000</text>
<text x="318.74" y="-39.727" transform="scale(1, -1)"
	style="font-family:Liberation Serif;font-variant:normal;font-weight:normal;font-style:normal;font-size:20px">20000</text>
<text x="512.03" y="-39.727" transform="scale(1, -1)"
	style="font-family:Liberation Serif;font-variant:normal;font-weight:normal;font-style:normal;font-size:20px">30000</text>
<text x="705.31" y="-39.727" transform="scale(1, -1)"
	style="font-family:Liberation Serif;font-variant:normal;font-weight:normal;font-style:normal;font-size:20px">40000</text>
<text x="898.59" y="-39.727" transform="scale(1, -1)"
	style="font-family:Liberation Serif;font-variant:normal;font-weight:normal;font-style:normal;font-size:20px">50000</text>
<text x="1091.9" y="-39.727" transform="scale(1, -1)"
	style="font-family:Liberation Serif;font-variant:normal;font-weight:normal;font-style:normal;font-size:20px">60000</text>
<text x="1285.2" y="-39.727" transform="scale(1, -1)"
	style="font-family:Liberation Serif;font-variant:normal;font-weight:normal;font-style:normal;font-size:20px">70000</text>
<text x="1478.4" y="-39.727" transform="scale(1, -1)"
	style="font-family:Liberation Serif;font-variant:normal;font-weight:normal;font-style:normal;font-size:20px">80000</text>
<text x="1671.7" y="-39.727" transform="scale(1, -1)"
	style="font-family:Liberation Serif;font-variant:normal;font-weight:normal;font-style:normal;font-size:20px">90000</text>
<text x="1860" y="-39.727" transform="scale(1, -1)"
	style="font-family:Liberation Serif;font-variant:normal;font-weight:normal;font-style:normal;font-size:20px">100000</text>
<path d="M150.46,55.371L150.46,63.371" style="fill:none;stroke:#000000;stroke-width:0.5" />
<path d="M343.74,55.371L343.74,63.371" style="fill:none;stroke:#000000;stroke-width:0.5" />
<path d="M537.03,55.371L537.03,63.371" style="fill:none;stroke:#000000;stroke-width:0.5" />
<path d="M730.31,55.371L730.31,63.371" style="fill:none;stroke:#000000;stroke-width:0.5" />
<path d="M923.59,55.371L923.59,63.371" style="fill:none;stroke:#000000;stroke-width:0.5" />
<path d="M1116.9,55.371L1116.9,63.371" style="fill:none;stroke:#000000;stroke-width:0.5" />
<path d="M1310.2,55.371L1310.2,63.371" style="fill:none;stroke:#000000;stroke-width:0.5" />
<path d="M1503.4,55.371L1503.4,63.371" style="fill:none;stroke:#000000;stroke-width:0.5" />
<path d="M1696.7,55.371L1696.7,63.371" style="fill:none;stroke:#000000;stroke-width:0.5" />
<path d="M1890,55.371L1890,63.371" style="fill:none;stroke:#000000;stroke-width:0.5" />
<path d="M150.46,63.371L1890,63.371" style="fill:none;stroke:#000000;stroke-width:0.5" />
<g transform="rotate(90)">
<text x="538.49" y="23.467" transform="scale(1, -1)"
	style="font-family:Liberation Serif;font-variant:normal;font-weight:normal;font-style:normal;font-size:30px">μs</text>
</g>
<text x="49.712" y="-231.21" transform="scale(1, -1)"
	style="font-family:Liberation Serif;font-variant:normal;font-weight:normal;font-style:normal;font-size:20px">25000.00</text>
<text x="49.712" y="-615.21" transform="scale(1, -1)"
	style="font-family:Liberation Serif;font-variant:normal;font-weight:normal;font-style:normal;font-size:20px">75000.00</text>
<text x="39.712" y="-999.21" transform="scale(1, -1)"
	style="font-family:Liberation Serif;font-variant:normal;font-weight:normal;font-style:normal;font-size:20px">125000.00</text>
<path d="M129.71,235.78L137.71,235.78" style="fill:none;stroke:#000000;stroke-width:0.5" />
<path d="M129.71,619.78L137.71,619.78" style="fill:none;stroke:#000000;stroke-width:0.5" />
<path d="M129.71,1003.8L137.71,1003.8" style="fill:none;stroke:#000000;stroke-width:0.5" />
<path d="M133.71,82.176L137.71,82.176" style="fill:none;stroke:#000000;stroke-width:0.5" />
<path d="M133.71,158.98L137.71,158.98" style="fill:none;stroke:#000000;stroke-width:0.5" />
<path d="M133.71,312.58L137.71,312.58" style="fill:none;stroke:#000000;stroke-width:0.5" />
<path d="M133.71,389.38L137.71,389.38" style="fill:none;stroke:#000000;stroke-width:0.5" />
<path d="M133.71,466.18L137.71,466.18" style="fill:none;stroke:#000000;stroke-width:0.5" />
<path d="M133.71,542.98L137.71,542.98" style="fill:none;stroke:#000000;stroke-width:0.5" />
<path d="M133.71,696.58L137.71,696.58" style="fill:none;stroke:#000000;stroke-width:0.5" />
<path d="M133.71,773.38L137.71,773.38" style="fill:none;stroke:#000000;stroke-width:0.5" />
<path d="M133.71,850.18L137.71,850.18" style="fill:none;stroke:#000000;stroke-width:0.5" />
<path d="M133.71,926.98L137.71,926.98" style="fill:none;stroke:#000000;stroke-width:0.5" />
<path d="M137.71,80.11L137.71,1024.6" style="fill:none;stroke:#000000;stroke-width:0.5" />
<path d="M150.46,80.11L150.46,1024.6" style="fill:none;stroke:#808080;stroke-width:0.25" />
<path d="M343.74,80.11L343.74,1024.6" style="fill:none;stroke:#808080;stroke-width:0.25" />
<path d="M537.03,80.11L537.03,1024.6" style="fill:none;stroke:#808080;stroke-width:0.25" />
<path d="M730.31,80.11L730.31,1024.6" style="fill:none;stroke:#808080;stroke-width:0.25" />
<path d="M923.59,80.11L923.59,1024.6" style="fill:none;stroke:#808080;stroke-width:0.25" />
<path d="M1116.9,80.11L1116.9,1024.6" style="fill:none;stroke:#808080;stroke-width:0.25" />
<path d="M1310.2,80.11L1310.2,1024.6" style="fill:none;stroke:#808080;stroke-width:0.25" />
<path d="M1503.4,80.11L1503.4,1024.6" style="fill:none;stroke:#808080;stroke-width:0.25" />
<path d="M1696.7,80.11L1696.7,1024.6" style="fill:none;stroke:#808080;stroke-width:0.25" />
<path d="M1890,80.11L1890,1024.6" style="fill:none;stroke:#808080;stroke-width:0.25" />
<path d="M150.46,235.78L1890,235.78" style="fill:none;stroke:#808080;stroke-width:0.25" />
<path d="M150.46,619.78L1890,619.78" style="fill:none;stroke:#808080;stroke-width:0.25" />
<path d="M150.46,1003.8L1890,1003.8" style="fill:none;stroke:#808080;stroke-width:0.25" />
<path d="M150.46,80.11L343.74,106.91L537.03,147.29L730.31,174.5L923.59,232.2L1116.9,251.01L1310.2,324.97L1503.4,348.43L1696.7,400.39L1890,463.39" style="fill:none;stroke:#FF0000;stroke-width:4" />
<path d="M155.46,80.11A5,5 0 1 1 145.46,80.11A5,5 0 1 1 155.46,80.11Z" style="fill:#FF0000" />
<path d="M348.74,106.91A5,5 0 1 1 338.74,106.91A5,5 0 1 1 348.74,106.91Z" style="fill:#FF0000" />
<path d="M542.03,147.29A5,5 0 1 1 532.03,147.29A5,5 0 1 1 542.03,147.29Z" style="fill:#FF0000" />
<path d="M735.31,174.5A5,5 0 1 1 725.31,174.5A5,5 0 1 1 735.31,174.5Z" style="fill:#FF0000" />
<path d="M928.59,232.2A5,5 0 1 1 918.59,232.2A5,5 0 1 1 928.59,232.2Z" style="fill:#FF0000" />
<path d="M1121.9,251.01A5,5 0 1 1 1111.9,251.01A5,5 0 1 1 1121.9,251.01Z" style="fill:#FF0000" />
<path d="M1315.2,324.97A5,5 0 1 1 1305.2,324.97A5,5 0 1 1 1315.2,324.97Z" style="fill:#FF0000" />
<path d="M1508.4,348.43A5,5 0 1 1 1498.4,348.43A5,5 0 1 1 1508.4,348.43Z" style="fill:#FF0000" />
<path d="M1701.7,400.39A5,5 0 1 1 1691.7,400.39A5,5 0 1 1 1701.7,400.39Z" style="fill:#FF0000" />
<path d="M1895,463.39A5,5 0 1 1 1885,463.39A5,5 0 1 1 1895,463.39Z" style="fill:#FF0000" />
<path d="M150.46,117.58L343.74,196.05L537.03,312.2L730.31,406.15L923.59,502.52L1116.9,623.68L1310.2,668.93L1503.4,723.54L1696.7,935.46L1890,896.18" style="fill:none;stroke:#0000FF;stroke-width:4" />
<path d="M155.46,117.58A5,5 0 1 1 145.46,117.58A5,5 0 1 1 155.46,117.58Z" style="fill:#0000FF" />
<path d="M348.74,196.05A5,5 0 1 1 338.74,196.05A5,5 0 1 1 348.74,196.05Z" style="fill:#0000FF" />
<path d="M542.03,312.2A5,5 0 1 1 532.03,312.2A5,5 0 1 1 542.03,312.2Z" style="fill:#0000FF" />
<path d="M735.31,406.15A5,5 0 1 1 725.31,406.15A5,5 0 1 1 735.31,406.15Z" style="fill:#0000FF" />
<path d="M928.59,502.52A5,5 0 1 1 918.59,502.52A5,5 0 1 1 928.59,502.52Z" style="fill:#0000FF" />
<path d="M1121.9,623.68A5,5 0 1 1 1111.9,623.68A5,5 0 1 1 1121.9,623.68Z" style="fill:#0000FF" />
<path d="M1315.2,668.93A5,5 0 1 1 1305.2,668.93A5,5 0 1 1 1315.2,668.93Z" style="fill:#0000FF" />
<path d="M1508.4,723.54A5,5 0 1 1 1498.4,723.54A5,5 0 1 1 1508.4,723.54Z" style="fill:#0000FF" />
<path d="M1701.7,935.46A5,5 0 1 1 1691.7,935.46A5,5 0 1 1 1701.7,935.46Z" style="fill:#0000FF" />
<path d="M1895,896.18A5,5 0 1 1 1885,896.18A5,5 0 1 1 1895,896.18Z" style="fill:#0000FF" />
<path d="M150.46,106.05L343.74,177.4L537.03,269.6L730.31,356.01L923.59,381.24L1116.9,449.08L1310.2,583.54L1503.4,638.78L1696.7,692.09L1890,766.48" style="fill:none;stroke:#00FF00;stroke-width:4" />
<path d="M155.46,106.05A5,5 0 1 1 145.46,106.05A5,5 0 1 1 155.46,106.05Z" style="fill:#00FF00" />
<path d="M348.74,177.4A5,5 0 1 1 338.74,177.4A5,5 0 1 1 348.74,177.4Z" style="fill:#00FF00" />
<path d="M542.03,269.6A5,5 0 1 1 532.03,269.6A5,5 0 1 1 542.03,269.6Z" style="fill:#00FF00" />
<path d="M735.31,356.01A5,5 0 1 1 725.31,356.01A5,5 0 1 1 735.31,356.01Z" style="fill:#00FF00" />
<path d="M928.59,381.24A5,5 0 1 1 918.59,381.24A5,5 0 1 1 928.59,381.24Z" style="fill:#00FF00" />
<path d="M1121.9,449.08A5,5 0 1 1 1111.9,449.08A5,5 0 1 1 1121.9,449.08Z" style="fill:#00FF00" />
<path d="M1315.2,583.54A5,5 0 1 1 1305.2,583.54A5,5 0 1 1 1315.2,583.54Z" style="fill:#00FF00" />
<path d="M1508.4,638.78A5,5 0 1 1 1498.4,638.78A5,5 0 1 1 1508.4,638.78Z" style="fill:#00FF00" />
<path d="M1701.7,692.09A5,5 0 1 1 1691.7,692.09A5,5 0 1 1 1701.7,692.09Z" style="fill:#00FF00" />
<path d="M1895,766.48A5,5 0 1 1 1885,766.48A5,5 0 1 1 1895,766.48Z" style="fill:#00FF00" />
<path d="M1900,126.03L1920,126.03" style="fill:none;stroke:#FF0000;stroke-width:4" />
<path d="M1915,126.03A5,5 0 1 1 1905,126.03A5,5 0 1 1 1915,126.03Z" style="fill:#FF0000" />
<text x="1823.3" y="-121.05" transform="scale(1, -1)"
	style="font-family:Liberation Serif;font-variant:normal;font-weight:normal;font-style:normal;font-size:24px">std::list</text>
<path d="M1900,105.66L1920,105.66" style="fill:none;stroke:#0000FF;stroke-width:4" />
<path d="M1915,105.66A5,5 0 1 1 1905,105.66A5,5 0 1 1 1915,105.66Z" style="fill:#0000FF" />
<text x="1795.4" y="-100.69" transform="scale(1, -1)"
	style="font-family:Liberation Serif;font-variant:normal;font-weight:normal;font-style:normal;font-size:24px">std::deque</text>
<path d="M1900,85.294L1920,85.294" style="fill:none;stroke:#00FF00;stroke-width:4" />
<path d="M1915,85.294A5,5 0 1 1 1905,85.294A5,5 0 1 1 1915,85.294Z" style="fill:#00FF00" />
<text x="1792.7" y="-80.319" transform="scale(1, -1)"
	style="font-family:Liberation Serif;font-variant:normal;font-weight:normal;font-style:normal;font-size:24px">std::vector</text>
</g>
</svg>
