<?xml version="1.0"?>
<!-- Generated by SVGo and Plotinum VG -->
<svg width="1920pt" height="1080pt" viewBox="0 0 1920 1080"
	xmlns="http://www.w3.org/2000/svg"
	xmlns:xlink="http://www.w3.org/1999/xlink">
<g transform="scale(1, -1) translate(0, -1080)">
<path d="M0,0L1920,0L1920,1080L0,1080Z" style="fill:#FFFFFF" />
<text x="922.5" y="-1040.9" transform="scale(1, -1)"
	style="font-family:Liberation Serif;font-variant:normal;font-weight:normal;font-style:normal;font-size:50px">sort</text>
<text x="885.27" y="-9.7559" transform="scale(1, -1)"
	style="font-family:Liberation Serif;font-variant:normal;font-weight:normal;font-style:normal;font-size:30px">Number of elements</text>
<text x="100.46" y="-39.727" transform="scale(1, -1)"
	style="font-family:Liberation Serif;font-variant:normal;font-weight:normal;font-style:normal;font-size:20px">10000</text>
<text x="296.52" y="-39.727" transform="scale(1, -1)"
	style="font-family:Liberation Serif;font-variant:normal;font-weight:normal;font-style:normal;font-size:20px">20000</text>
<text x="492.58" y="-39.727" transform="scale(1, -1)"
	style="font-family:Liberation Serif;font-variant:normal;font-weight:normal;font-style:normal;font-size:20px">30000</text>
<text x="688.64" y="-39.727" transform="scale(1, -1)"
	style="font-family:Liberation Serif;font-variant:normal;font-weight:normal;font-style:normal;font-size:20px">40000</text>
<text x="884.7" y="-39.727" transform="scale(1, -1)"
	style="font-family:Liberation Serif;font-variant:normal;font-weight:normal;font-style:normal;font-size:20px">50000</text>
<text x="1080.8" y="-39.727" transform="scale(1, -1)"
	style="font-family:Liberation Serif;font-variant:normal;font-weight:normal;font-style:normal;font-size:20px">60000</text>
<text x="1276.8" y="-39.727" transform="scale(1, -1)"
	style="font-family:Liberation Serif;font-variant:normal;font-weight:normal;font-style:normal;font-size:20px">70000</text>
<text x="1472.9" y="-39.727" transform="scale(1, -1)"
	style="font-family:Liberation Serif;font-variant:normal;font-weight:normal;font-style:normal;font-size:20px">80000</text>
<text x="1668.9" y="-39.727" transform="scale(1, -1)"
	style="font-family:Liberation Serif;font-variant:normal;font-weight:normal;font-style:normal;font-size:20px">90000</text>
<text x="1860" y="-39.727" transform="scale(1, -1)"
	style="font-family:Liberation Serif;font-variant:normal;font-weight:normal;font-style:normal;font-size:20px">100000</text>
<path d="M125.46,55.371L125.46,63.371" style="fill:none;stroke:#000000;stroke-width:0.5" />
<path d="M321.52,55.371L321.52,63.371" style="fill:none;stroke:#000000;stroke-width:0.5" />
<path d="M517.58,55.371L517.58,63.371" style="fill:none;stroke:#000000;stroke-width:0.5" />
<path d="M713.64,55.371L713.64,63.371" style="fill:none;stroke:#000000;stroke-width:0.5" />
<path d="M909.7,55.371L909.7,63.371" style="fill:none;stroke:#000000;stroke-width:0.5" />
<path d="M1105.8,55.371L1105.8,63.371" style="fill:none;stroke:#000000;stroke-width:0.5" />
<path d="M1301.8,55.371L1301.8,63.371" style="fill:none;stroke:#000000;stroke-width:0.5" />
<path d="M1497.9,55.371L1497.9,63.371" style="fill:none;stroke:#000000;stroke-width:0.5" />
<path d="M1693.9,55.371L1693.9,63.371" style="fill:none;stroke:#000000;stroke-width:0.5" />
<path d="M1890,55.371L1890,63.371" style="fill:none;stroke:#000000;stroke-width:0.5" />
<path d="M125.46,63.371L1890,63.371" style="fill:none;stroke:#000000;stroke-width:0.5" />
<g transform="rotate(90)">
<text x="538.49" y="23.467" transform="scale(1, -1)"
	style="font-family:Liberation Serif;font-variant:normal;font-weight:normal;font-style:normal;font-size:30px">μs</text>
</g>
<text x="49.712" y="-209.44" transform="scale(1, -1)"
	style="font-family:Liberation Serif;font-variant:normal;font-weight:normal;font-style:normal;font-size:20px">20000</text>
<text x="49.712" y="-553.43" transform="scale(1, -1)"
	style="font-family:Liberation Serif;font-variant:normal;font-weight:normal;font-style:normal;font-size:20px">60000</text>
<text x="39.712" y="-897.41" transform="scale(1, -1)"
	style="font-family:Liberation Serif;font-variant:normal;font-weight:normal;font-style:normal;font-size:20px">100000</text>
<path d="M104.71,214.01L112.71,214.01" style="fill:none;stroke:#000000;stroke-width:0.5" />
<path d="M104.71,558L112.71,558" style="fill:none;stroke:#000000;stroke-width:0.5" />
<path d="M104.71,901.98L112.71,901.98" style="fill:none;stroke:#000000;stroke-width:0.5" />
<path d="M108.71,128.01L112.71,128.01" style="fill:none;stroke:#000000;stroke-width:0.5" />
<path d="M108.71,300.01L112.71,300.01" style="fill:none;stroke:#000000;stroke-width:0.5" />
<path d="M108.71,386L112.71,386" style="fill:none;stroke:#000000;stroke-width:0.5" />
<path d="M108.71,472L112.71,472" style="fill:none;stroke:#000000;stroke-width:0.5" />
<path d="M108.71,643.99L112.71,643.99" style="fill:none;stroke:#000000;stroke-width:0.5" />
<path d="M108.71,729.99L112.71,729.99" style="fill:none;stroke:#000000;stroke-width:0.5" />
<path d="M108.71,815.99L112.71,815.99" style="fill:none;stroke:#000000;stroke-width:0.5" />
<path d="M108.71,987.98L112.71,987.98" style="fill:none;stroke:#000000;stroke-width:0.5" />
<path d="M112.71,80.11L112.71,1024.6" style="fill:none;stroke:#000000;stroke-width:0.5" />
<path d="M125.46,80.11L125.46,1024.6" style="fill:none;stroke:#808080;stroke-width:0.25" />
<path d="M321.52,80.11L321.52,1024.6" style="fill:none;stroke:#808080;stroke-width:0.25" />
<path d="M517.58,80.11L517.58,1024.6" style="fill:none;stroke:#808080;stroke-width:0.25" />
<path d="M713.64,80.11L713.64,1024.6" style="fill:none;stroke:#808080;stroke-width:0.25" />
<path d="M909.7,80.11L909.7,1024.6" style="fill:none;stroke:#808080;stroke-width:0.25" />
<path d="M1105.8,80.11L1105.8,1024.6" style="fill:none;stroke:#808080;stroke-width:0.25" />
<path d="M1301.8,80.11L1301.8,1024.6" style="fill:none;stroke:#808080;stroke-width:0.25" />
<path d="M1497.9,80.11L1497.9,1024.6" style="fill:none;stroke:#808080;stroke-width:0.25" />
<path d="M1693.9,80.11L1693.9,1024.6" style="fill:none;stroke:#808080;stroke-width:0.25" />
<path d="M1890,80.11L1890,1024.6" style="fill:none;stroke:#808080;stroke-width:0.25" />
<path d="M125.46,214.01L1890,214.01" style="fill:none;stroke:#808080;stroke-width:0.25" />
<path d="M125.46,558L1890,558" style="fill:none;stroke:#808080;stroke-width:0.25" />
<path d="M125.46,901.98L1890,901.98" style="fill:none;stroke:#808080;stroke-width:0.25" />
<path d="M125.46,80.11L321.52,107.77L517.58,147.38L713.64,183.05L909.7,226.56L1105.8,304.92L1301.8,337.17L1497.9,372.46L1693.9,385.08L1890,457.12" style="fill:none;stroke:#FF0000;stroke-width:4" />
<path d="M130.46,80.11A5,5 0 1 1 120.46,80.11A5,5 0 1 1 130.46,80.11Z" style="fill:#FF0000" />
<path d="M326.52,107.77A5,5 0 1 1 316.52,107.77A5,5 0 1 1 326.52,107.77Z" style="fill:#FF0000" />
<path d="M522.58,147.38A5,5 0 1 1 512.58,147.38A5,5 0 1 1 522.58,147.38Z" style="fill:#FF0000" />
<path d="M718.64,183.05A5,5 0 1 1 708.64,183.05A5,5 0 1 1 718.64,183.05Z" style="fill:#FF0000" />
<path d="M914.7,226.56A5,5 0 1 1 904.7,226.56A5,5 0 1 1 914.7,226.56Z" style="fill:#FF0000" />
<path d="M1110.8,304.92A5,5 0 1 1 1100.8,304.92A5,5 0 1 1 1110.8,304.92Z" style="fill:#FF0000" />
<path d="M1306.8,337.17A5,5 0 1 1 1296.8,337.17A5,5 0 1 1 1306.8,337.17Z" style="fill:#FF0000" />
<path d="M1502.9,372.46A5,5 0 1 1 1492.9,372.46A5,5 0 1 1 1502.9,372.46Z" style="fill:#FF0000" />
<path d="M1698.9,385.08A5,5 0 1 1 1688.9,385.08A5,5 0 1 1 1698.9,385.08Z" style="fill:#FF0000" />
<path d="M1895,457.12A5,5 0 1 1 1885,457.12A5,5 0 1 1 1895,457.12Z" style="fill:#FF0000" />
<path d="M125.46,122.64L321.52,202.41L517.58,294.89L713.64,386.04L909.7,495.51L1105.8,614.82L1301.8,725.77L1497.9,731.05L1693.9,885.98L1890,928.96" style="fill:none;stroke:#0000FF;stroke-width:4" />
<path d="M130.46,122.64A5,5 0 1 1 120.46,122.64A5,5 0 1 1 130.46,122.64Z" style="fill:#0000FF" />
<path d="M326.52,202.41A5,5 0 1 1 316.52,202.41A5,5 0 1 1 326.52,202.41Z" style="fill:#0000FF" />
<path d="M522.58,294.89A5,5 0 1 1 512.58,294.89A5,5 0 1 1 522.58,294.89Z" style="fill:#0000FF" />
<path d="M718.64,386.04A5,5 0 1 1 708.64,386.04A5,5 0 1 1 718.64,386.04Z" style="fill:#0000FF" />
<path d="M914.7,495.51A5,5 0 1 1 904.7,495.51A5,5 0 1 1 914.7,495.51Z" style="fill:#0000FF" />
<path d="M1110.8,614.82A5,5 0 1 1 1100.8,614.82A5,5 0 1 1 1110.8,614.82Z" style="fill:#0000FF" />
<path d="M1306.8,725.77A5,5 0 1 1 1296.8,725.77A5,5 0 1 1 1306.8,725.77Z" style="fill:#0000FF" />
<path d="M1502.9,731.05A5,5 0 1 1 1492.9,731.05A5,5 0 1 1 1502.9,731.05Z" style="fill:#0000FF" />
<path d="M1698.9,885.98A5,5 0 1 1 1688.9,885.98A5,5 0 1 1 1698.9,885.98Z" style="fill:#0000FF" />
<path d="M1895,928.96A5,5 0 1 1 1885,928.96A5,5 0 1 1 1895,928.96Z" style="fill:#0000FF" />
<path d="M125.46,109.54L321.52,190.41L517.58,262.56L713.64,330.3L909.7,387.74L1105.8,512.17L1301.8,635.65L1497.9,817.48L1693.9,795.5L1890,935.3" style="fill:none;stroke:#00FF00;stroke-width:4" />
<path d="M130.46,109.54A5,5 0 1 1 120.46,109.54A5,5 0 1 1 130.46,109.54Z" style="fill:#00FF00" />
<path d="M326.52,190.41A5,5 0 1 1 316.52,190.41A5,5 0 1 1 326.52,190.41Z" style="fill:#00FF00" />
<path d="M522.58,262.56A5,5 0 1 1 512.58,262.56A5,5 0 1 1 522.58,262.56Z" style="fill:#00FF00" />
<path d="M718.64,330.3A5,5 0 1 1 708.64,330.3A5,5 0 1 1 718.64,330.3Z" style="fill:#00FF00" />
<path d="M914.7,387.74A5,5 0 1 1 904.7,387.74A5,5 0 1 1 914.7,387.74Z" style="fill:#00FF00" />
<path d="M1110.8,512.17A5,5 0 1 1 1100.8,512.17A5,5 0 1 1 1110.8,512.17Z" style="fill:#00FF00" />
<path d="M1306.8,635.65A5,5 0 1 1 1296.8,635.65A5,5 0 1 1 1306.8,635.65Z" style="fill:#00FF00" />
<path d="M1502.9,817.48A5,5 0 1 1 1492.9,817.48A5,5 0 1 1 1502.9,817.48Z" style="fill:#00FF00" />
<path d="M1698.9,795.5A5,5 0 1 1 1688.9,795.5A5,5 0 1 1 1698.9,795.5Z" style="fill:#00FF00" />
<path d="M1895,935.3A5,5 0 1 1 1885,935.3A5,5 0 1 1 1895,935.3Z" style="fill:#00FF00" />
<path d="M1900,126.03L1920,126.03" style="fill:none;stroke:#FF0000;stroke-width:4" />
<path d="M1915,126.03A5,5 0 1 1 1905,126.03A5,5 0 1 1 1915,126.03Z" style="fill:#FF0000" />
<text x="1823.3" y="-121.05" transform="scale(1, -1)"
	style="font-family:Liberation Serif;font-variant:normal;font-weight:normal;font-style:normal;font-size:24px">std::list</text>
<path d="M1900,105.66L1920,105.66" style="fill:none;stroke:#0000FF;stroke-width:4" />
<path d="M1915,105.66A5,5 0 1 1 1905,105.66A5,5 0 1 1 1915,105.66Z" style="fill:#0000FF" />
<text x="1795.4" y="-100.69" transform="scale(1, -1)"
	style="font-family:Liberation Serif;font-variant:normal;font-weight:normal;font-style:normal;font-size:24px">std::deque</text>
<path d="M1900,85.294L1920,85.294" style="fill:none;stroke:#00FF00;stroke-width:4" />
<path d="M1915,85.294A5,5 0 1 1 1905,85.294A5,5 0 1 1 1915,85.294Z" style="fill:#00FF00" />
<text x="1792.7" y="-80.319" transform="scale(1, -1)"
	style="font-family:Liberation Serif;font-variant:normal;font-weight:normal;font-style:normal;font-size:24px">std::vector</text>
</g>
</svg>
