<?xml version="1.0"?>
<!-- Generated by SVGo and Plotinum VG -->
<svg width="1920pt" height="1080pt" viewBox="0 0 1920 1080"
	xmlns="http://www.w3.org/2000/svg"
	xmlns:xlink="http://www.w3.org/1999/xlink">
<g transform="scale(1, -1) translate(0, -1080)">
<path d="M0,0L1920,0L1920,1080L0,1080Z" style="fill:#FFFFFF" />
<text x="922.5" y="-1040.9" transform="scale(1, -1)"
	style="font-family:Liberation Serif;font-variant:normal;font-weight:normal;font-style:normal;font-size:50px">sort</text>
<text x="885.27" y="-9.7559" transform="scale(1, -1)"
	style="font-family:Liberation Serif;font-variant:normal;font-weight:normal;font-style:normal;font-size:30px">Number of elements</text>
<text x="100.46" y="-39.727" transform="scale(1, -1)"
	style="font-family:Liberation Serif;font-variant:normal;font-weight:normal;font-style:normal;font-size:20px">10000</text>
<text x="296.52" y="-39.727" transform="scale(1, -1)"
	style="font-family:Liberation Serif;font-variant:normal;font-weight:normal;font-style:normal;font-size:20px">20000</text>
<text x="492.58" y="-39.727" transform="scale(1, -1)"
	style="font-family:Liberation Serif;font-variant:normal;font-weight:normal;font-style:normal;font-size:20px">30000</text>
<text x="688.64" y="-39.727" transform="scale(1, -1)"
	style="font-family:Liberation Serif;font-variant:normal;font-weight:normal;font-style:normal;font-size:20px">40000</text>
<text x="884.7" y="-39.727" transform="scale(1, -1)"
	style="font-family:Liberation Serif;font-variant:normal;font-weight:normal;font-style:normal;font-size:20px">50000</text>
<text x="1080.8" y="-39.727" transform="scale(1, -1)"
	style="font-family:Liberation Serif;font-variant:normal;font-weight:normal;font-style:normal;font-size:20px">60000</text>
<text x="1276.8" y="-39.727" transform="scale(1, -1)"
	style="font-family:Liberation Serif;font-variant:normal;font-weight:normal;font-style:normal;font-size:20px">70000</text>
<text x="1472.9" y="-39.727" transform="scale(1, -1)"
	style="font-family:Liberation Serif;font-variant:normal;font-weight:normal;font-style:normal;font-size:20px">80000</text>
<text x="1668.9" y="-39.727" transform="scale(1, -1)"
	style="font-family:Liberation Serif;font-variant:normal;font-weight:normal;font-style:normal;font-size:20px">90000</text>
<text x="1860" y="-39.727" transform="scale(1, -1)"
	style="font-family:Liberation Serif;font-variant:normal;font-weight:normal;font-style:normal;font-size:20px">100000</text>
<path d="M125.46,55.371L125.46,63.371" style="fill:none;stroke:#000000;stroke-width:0.5" />
<path d="M321.52,55.371L321.52,63.371" style="fill:none;stroke:#000000;stroke-width:0.5" />
<path d="M517.58,55.371L517.58,63.371" style="fill:none;stroke:#000000;stroke-width:0.5" />
<path d="M713.64,55.371L713.64,63.371" style="fill:none;stroke:#000000;stroke-width:0.5" />
<path d="M909.7,55.371L909.7,63.371" style="fill:none;stroke:#000000;stroke-width:0.5" />
<path d="M1105.8,55.371L1105.8,63.371" style="fill:none;stroke:#000000;stroke-width:0.5" />
<path d="M1301.8,55.371L1301.8,63.371" style="fill:none;stroke:#000000;stroke-width:0.5" />
<path d="M1497.9,55.371L1497.9,63.371" style="fill:none;stroke:#000000;stroke-width:0.5" />
<path d="M1693.9,55.371L1693.9,63.371" style="fill:none;stroke:#000000;stroke-width:0.5" />
<path d="M1890,55.371L1890,63.371" style="fill:none;stroke:#000000;stroke-width:0.5" />
<path d="M125.46,63.371L1890,63.371" style="fill:none;stroke:#000000;stroke-width:0.5" />
<g transform="rotate(90)">
<text x="538.49" y="23.467" transform="scale(1, -1)"
	style="font-family:Liberation Serif;font-variant:normal;font-weight:normal;font-style:normal;font-size:30px">μs</text>
</g>
<text x="49.712" y="-169.54" transform="scale(1, -1)"
	style="font-family:Liberation Serif;font-variant:normal;font-weight:normal;font-style:normal;font-size:20px">20000</text>
<text x="49.712" y="-560.07" transform="scale(1, -1)"
	style="font-family:Liberation Serif;font-variant:normal;font-weight:normal;font-style:normal;font-size:20px">80000</text>
<text x="39.712" y="-950.61" transform="scale(1, -1)"
	style="font-family:Liberation Serif;font-variant:normal;font-weight:normal;font-style:normal;font-size:20px">140000</text>
<path d="M104.71,174.11L112.71,174.11" style="fill:none;stroke:#000000;stroke-width:0.5" />
<path d="M104.71,564.64L112.71,564.64" style="fill:none;stroke:#000000;stroke-width:0.5" />
<path d="M104.71,955.18L112.71,955.18" style="fill:none;stroke:#000000;stroke-width:0.5" />
<path d="M108.71,369.37L112.71,369.37" style="fill:none;stroke:#000000;stroke-width:0.5" />
<path d="M108.71,759.91L112.71,759.91" style="fill:none;stroke:#000000;stroke-width:0.5" />
<path d="M112.71,80.11L112.71,1024.6" style="fill:none;stroke:#000000;stroke-width:0.5" />
<path d="M125.46,80.11L125.46,1024.6" style="fill:none;stroke:#808080;stroke-width:0.25" />
<path d="M321.52,80.11L321.52,1024.6" style="fill:none;stroke:#808080;stroke-width:0.25" />
<path d="M517.58,80.11L517.58,1024.6" style="fill:none;stroke:#808080;stroke-width:0.25" />
<path d="M713.64,80.11L713.64,1024.6" style="fill:none;stroke:#808080;stroke-width:0.25" />
<path d="M909.7,80.11L909.7,1024.6" style="fill:none;stroke:#808080;stroke-width:0.25" />
<path d="M1105.8,80.11L1105.8,1024.6" style="fill:none;stroke:#808080;stroke-width:0.25" />
<path d="M1301.8,80.11L1301.8,1024.6" style="fill:none;stroke:#808080;stroke-width:0.25" />
<path d="M1497.9,80.11L1497.9,1024.6" style="fill:none;stroke:#808080;stroke-width:0.25" />
<path d="M1693.9,80.11L1693.9,1024.6" style="fill:none;stroke:#808080;stroke-width:0.25" />
<path d="M1890,80.11L1890,1024.6" style="fill:none;stroke:#808080;stroke-width:0.25" />
<path d="M125.46,174.11L1890,174.11" style="fill:none;stroke:#808080;stroke-width:0.25" />
<path d="M125.46,564.64L1890,564.64" style="fill:none;stroke:#808080;stroke-width:0.25" />
<path d="M125.46,955.18L1890,955.18" style="fill:none;stroke:#808080;stroke-width:0.25" />
<path d="M125.46,80.11L321.52,115.97L517.58,178.57L713.64,224.5L909.7,321.68L1105.8,267.66L1301.8,307.05L1497.9,369.65L1693.9,421.37L1890,467.58" style="fill:none;stroke:#FF0000;stroke-width:4" />
<path d="M130.46,80.11A5,5 0 1 1 120.46,80.11A5,5 0 1 1 130.46,80.11Z" style="fill:#FF0000" />
<path d="M326.52,115.97A5,5 0 1 1 316.52,115.97A5,5 0 1 1 326.52,115.97Z" style="fill:#FF0000" />
<path d="M522.58,178.57A5,5 0 1 1 512.58,178.57A5,5 0 1 1 522.58,178.57Z" style="fill:#FF0000" />
<path d="M718.64,224.5A5,5 0 1 1 708.64,224.5A5,5 0 1 1 718.64,224.5Z" style="fill:#FF0000" />
<path d="M914.7,321.68A5,5 0 1 1 904.7,321.68A5,5 0 1 1 914.7,321.68Z" style="fill:#FF0000" />
<path d="M1110.8,267.66A5,5 0 1 1 1100.8,267.66A5,5 0 1 1 1110.8,267.66Z" style="fill:#FF0000" />
<path d="M1306.8,307.05A5,5 0 1 1 1296.8,307.05A5,5 0 1 1 1306.8,307.05Z" style="fill:#FF0000" />
<path d="M1502.9,369.65A5,5 0 1 1 1492.9,369.65A5,5 0 1 1 1502.9,369.65Z" style="fill:#FF0000" />
<path d="M1698.9,421.37A5,5 0 1 1 1688.9,421.37A5,5 0 1 1 1698.9,421.37Z" style="fill:#FF0000" />
<path d="M1895,467.58A5,5 0 1 1 1885,467.58A5,5 0 1 1 1895,467.58Z" style="fill:#FF0000" />
<path d="M125.46,118.19L321.52,185.28L517.58,292.68L713.64,371.73L909.7,448.99L1105.8,531.92L1301.8,574.29L1497.9,686.68L1693.9,734.57L1890,935.47" style="fill:none;stroke:#0000FF;stroke-width:4" />
<path d="M130.46,118.19A5,5 0 1 1 120.46,118.19A5,5 0 1 1 130.46,118.19Z" style="fill:#0000FF" />
<path d="M326.52,185.28A5,5 0 1 1 316.52,185.28A5,5 0 1 1 326.52,185.28Z" style="fill:#0000FF" />
<path d="M522.58,292.68A5,5 0 1 1 512.58,292.68A5,5 0 1 1 522.58,292.68Z" style="fill:#0000FF" />
<path d="M718.64,371.73A5,5 0 1 1 708.64,371.73A5,5 0 1 1 718.64,371.73Z" style="fill:#0000FF" />
<path d="M914.7,448.99A5,5 0 1 1 904.7,448.99A5,5 0 1 1 914.7,448.99Z" style="fill:#0000FF" />
<path d="M1110.8,531.92A5,5 0 1 1 1100.8,531.92A5,5 0 1 1 1110.8,531.92Z" style="fill:#0000FF" />
<path d="M1306.8,574.29A5,5 0 1 1 1296.8,574.29A5,5 0 1 1 1306.8,574.29Z" style="fill:#0000FF" />
<path d="M1502.9,686.68A5,5 0 1 1 1492.9,686.68A5,5 0 1 1 1502.9,686.68Z" style="fill:#0000FF" />
<path d="M1698.9,734.57A5,5 0 1 1 1688.9,734.57A5,5 0 1 1 1698.9,734.57Z" style="fill:#0000FF" />
<path d="M1895,935.47A5,5 0 1 1 1885,935.47A5,5 0 1 1 1895,935.47Z" style="fill:#0000FF" />
<path d="M125.46,120.32L321.52,171.45L517.58,236.43L713.64,292.05L909.7,341.69L1105.8,459.89L1301.8,483.33L1497.9,550.65L1693.9,629.16L1890,685.41" style="fill:none;stroke:#00FF00;stroke-width:4" />
<path d="M130.46,120.32A5,5 0 1 1 120.46,120.32A5,5 0 1 1 130.46,120.32Z" style="fill:#00FF00" />
<path d="M326.52,171.45A5,5 0 1 1 316.52,171.45A5,5 0 1 1 326.52,171.45Z" style="fill:#00FF00" />
<path d="M522.58,236.43A5,5 0 1 1 512.58,236.43A5,5 0 1 1 522.58,236.43Z" style="fill:#00FF00" />
<path d="M718.64,292.05A5,5 0 1 1 708.64,292.05A5,5 0 1 1 718.64,292.05Z" style="fill:#00FF00" />
<path d="M914.7,341.69A5,5 0 1 1 904.7,341.69A5,5 0 1 1 914.7,341.69Z" style="fill:#00FF00" />
<path d="M1110.8,459.89A5,5 0 1 1 1100.8,459.89A5,5 0 1 1 1110.8,459.89Z" style="fill:#00FF00" />
<path d="M1306.8,483.33A5,5 0 1 1 1296.8,483.33A5,5 0 1 1 1306.8,483.33Z" style="fill:#00FF00" />
<path d="M1502.9,550.65A5,5 0 1 1 1492.9,550.65A5,5 0 1 1 1502.9,550.65Z" style="fill:#00FF00" />
<path d="M1698.9,629.16A5,5 0 1 1 1688.9,629.16A5,5 0 1 1 1698.9,629.16Z" style="fill:#00FF00" />
<path d="M1895,685.41A5,5 0 1 1 1885,685.41A5,5 0 1 1 1895,685.41Z" style="fill:#00FF00" />
<path d="M1900,126.03L1920,126.03" style="fill:none;stroke:#FF0000;stroke-width:4" />
<path d="M1915,126.03A5,5 0 1 1 1905,126.03A5,5 0 1 1 1915,126.03Z" style="fill:#FF0000" />
<text x="1823.3" y="-121.05" transform="scale(1, -1)"
	style="font-family:Liberation Serif;font-variant:normal;font-weight:normal;font-style:normal;font-size:24px">std::list</text>
<path d="M1900,105.66L1920,105.66" style="fill:none;stroke:#0000FF;stroke-width:4" />
<path d="M1915,105.66A5,5 0 1 1 1905,105.66A5,5 0 1 1 1915,105.66Z" style="fill:#0000FF" />
<text x="1795.4" y="-100.69" transform="scale(1, -1)"
	style="font-family:Liberation Serif;font-variant:normal;font-weight:normal;font-style:normal;font-size:24px">std::deque</text>
<path d="M1900,85.294L1920,85.294" style="fill:none;stroke:#00FF00;stroke-width:4" />
<path d="M1915,85.294A5,5 0 1 1 1905,85.294A5,5 0 1 1 1915,85.294Z" style="fill:#00FF00" />
<text x="1792.7" y="-80.319" transform="scale(1, -1)"
	style="font-family:Liberation Serif;font-variant:normal;font-weight:normal;font-style:normal;font-size:24px">std::vector</text>
</g>
</svg>
