<?xml version="1.0"?>
<!-- Generated by SVGo and Plotinum VG -->
<svg width="1920pt" height="1080pt" viewBox="0 0 1920 1080"
	xmlns="http://www.w3.org/2000/svg"
	xmlns:xlink="http://www.w3.org/1999/xlink">
<g transform="scale(1, -1) translate(0, -1080)">
<path d="M0,0L1920,0L1920,1080L0,1080Z" style="fill:#FFFFFF" />
<text x="801.02" y="-1040.9" transform="scale(1, -1)"
	style="font-family:Liberation Serif;font-variant:normal;font-weight:normal;font-style:normal;font-size:50px">sort - Log Scale</text>
<text x="885.27" y="-9.7559" transform="scale(1, -1)"
	style="font-family:Liberation Serif;font-variant:normal;font-weight:normal;font-style:normal;font-size:30px">Number of elements</text>
<text x="100.46" y="-39.727" transform="scale(1, -1)"
	style="font-family:Liberation Serif;font-variant:normal;font-weight:normal;font-style:normal;font-size:20px">10000</text>
<text x="296.52" y="-39.727" transform="scale(1, -1)"
	style="font-family:Liberation Serif;font-variant:normal;font-weight:normal;font-style:normal;font-size:20px">20000</text>
<text x="492.58" y="-39.727" transform="scale(1, -1)"
	style="font-family:Liberation Serif;font-variant:normal;font-weight:normal;font-style:normal;font-size:20px">30000</text>
<text x="688.64" y="-39.727" transform="scale(1, -1)"
	style="font-family:Liberation Serif;font-variant:normal;font-weight:normal;font-style:normal;font-size:20px">40000</text>
<text x="884.7" y="-39.727" transform="scale(1, -1)"
	style="font-family:Liberation Serif;font-variant:normal;font-weight:normal;font-style:normal;font-size:20px">50000</text>
<text x="1080.8" y="-39.727" transform="scale(1, -1)"
	style="font-family:Liberation Serif;font-variant:normal;font-weight:normal;font-style:normal;font-size:20px">60000</text>
<text x="1276.8" y="-39.727" transform="scale(1, -1)"
	style="font-family:Liberation Serif;font-variant:normal;font-weight:normal;font-style:normal;font-size:20px">70000</text>
<text x="1472.9" y="-39.727" transform="scale(1, -1)"
	style="font-family:Liberation Serif;font-variant:normal;font-weight:normal;font-style:normal;font-size:20px">80000</text>
<text x="1668.9" y="-39.727" transform="scale(1, -1)"
	style="font-family:Liberation Serif;font-variant:normal;font-weight:normal;font-style:normal;font-size:20px">90000</text>
<text x="1860" y="-39.727" transform="scale(1, -1)"
	style="font-family:Liberation Serif;font-variant:normal;font-weight:normal;font-style:normal;font-size:20px">100000</text>
<path d="M125.46,55.371L125.46,63.371" style="fill:none;stroke:#000000;stroke-width:0.5" />
<path d="M321.52,55.371L321.52,63.371" style="fill:none;stroke:#000000;stroke-width:0.5" />
<path d="M517.58,55.371L517.58,63.371" style="fill:none;stroke:#000000;stroke-width:0.5" />
<path d="M713.64,55.371L713.64,63.371" style="fill:none;stroke:#000000;stroke-width:0.5" />
<path d="M909.7,55.371L909.7,63.371" style="fill:none;stroke:#000000;stroke-width:0.5" />
<path d="M1105.8,55.371L1105.8,63.371" style="fill:none;stroke:#000000;stroke-width:0.5" />
<path d="M1301.8,55.371L1301.8,63.371" style="fill:none;stroke:#000000;stroke-width:0.5" />
<path d="M1497.9,55.371L1497.9,63.371" style="fill:none;stroke:#000000;stroke-width:0.5" />
<path d="M1693.9,55.371L1693.9,63.371" style="fill:none;stroke:#000000;stroke-width:0.5" />
<path d="M1890,55.371L1890,63.371" style="fill:none;stroke:#000000;stroke-width:0.5" />
<path d="M125.46,63.371L1890,63.371" style="fill:none;stroke:#000000;stroke-width:0.5" />
<g transform="rotate(90)">
<text x="509.33" y="23.467" transform="scale(1, -1)"
	style="font-family:Liberation Serif;font-variant:normal;font-weight:normal;font-style:normal;font-size:30px">log(μs)</text>
</g>
<text x="49.712" y="-539.61" transform="scale(1, -1)"
	style="font-family:Liberation Serif;font-variant:normal;font-weight:normal;font-style:normal;font-size:20px">50000</text>
<text x="39.712" y="-877.13" transform="scale(1, -1)"
	style="font-family:Liberation Serif;font-variant:normal;font-weight:normal;font-style:normal;font-size:20px">250000</text>
<text x="39.712" y="-1000.4" transform="scale(1, -1)"
	style="font-family:Liberation Serif;font-variant:normal;font-weight:normal;font-style:normal;font-size:20px">450000</text>
<path d="M104.71,544.18L112.71,544.18" style="fill:none;stroke:#000000;stroke-width:0.5" />
<path d="M104.71,881.7L112.71,881.7" style="fill:none;stroke:#000000;stroke-width:0.5" />
<path d="M104.71,1005L112.71,1005" style="fill:none;stroke:#000000;stroke-width:0.5" />
<path d="M108.71,774.57L112.71,774.57" style="fill:none;stroke:#000000;stroke-width:0.5" />
<path d="M108.71,952.26L112.71,952.26" style="fill:none;stroke:#000000;stroke-width:0.5" />
<path d="M112.71,80.11L112.71,1024.6" style="fill:none;stroke:#000000;stroke-width:0.5" />
<path d="M125.46,80.11L125.46,1024.6" style="fill:none;stroke:#808080;stroke-width:0.25" />
<path d="M321.52,80.11L321.52,1024.6" style="fill:none;stroke:#808080;stroke-width:0.25" />
<path d="M517.58,80.11L517.58,1024.6" style="fill:none;stroke:#808080;stroke-width:0.25" />
<path d="M713.64,80.11L713.64,1024.6" style="fill:none;stroke:#808080;stroke-width:0.25" />
<path d="M909.7,80.11L909.7,1024.6" style="fill:none;stroke:#808080;stroke-width:0.25" />
<path d="M1105.8,80.11L1105.8,1024.6" style="fill:none;stroke:#808080;stroke-width:0.25" />
<path d="M1301.8,80.11L1301.8,1024.6" style="fill:none;stroke:#808080;stroke-width:0.25" />
<path d="M1497.9,80.11L1497.9,1024.6" style="fill:none;stroke:#808080;stroke-width:0.25" />
<path d="M1693.9,80.11L1693.9,1024.6" style="fill:none;stroke:#808080;stroke-width:0.25" />
<path d="M1890,80.11L1890,1024.6" style="fill:none;stroke:#808080;stroke-width:0.25" />
<path d="M125.46,544.18L1890,544.18" style="fill:none;stroke:#808080;stroke-width:0.25" />
<path d="M125.46,881.7L1890,881.7" style="fill:none;stroke:#808080;stroke-width:0.25" />
<path d="M125.46,1005L1890,1005" style="fill:none;stroke:#808080;stroke-width:0.25" />
<path d="M125.46,80.11L321.52,262.08L517.58,374.33L713.64,449.65L909.7,487.63L1105.8,527.28L1301.8,632.24L1497.9,631.26L1693.9,657.99L1890,682.84" style="fill:none;stroke:#FF0000;stroke-width:4" />
<path d="M130.46,80.11A5,5 0 1 1 120.46,80.11A5,5 0 1 1 130.46,80.11Z" style="fill:#FF0000" />
<path d="M326.52,262.08A5,5 0 1 1 316.52,262.08A5,5 0 1 1 326.52,262.08Z" style="fill:#FF0000" />
<path d="M522.58,374.33A5,5 0 1 1 512.58,374.33A5,5 0 1 1 522.58,374.33Z" style="fill:#FF0000" />
<path d="M718.64,449.65A5,5 0 1 1 708.64,449.65A5,5 0 1 1 718.64,449.65Z" style="fill:#FF0000" />
<path d="M914.7,487.63A5,5 0 1 1 904.7,487.63A5,5 0 1 1 914.7,487.63Z" style="fill:#FF0000" />
<path d="M1110.8,527.28A5,5 0 1 1 1100.8,527.28A5,5 0 1 1 1110.8,527.28Z" style="fill:#FF0000" />
<path d="M1306.8,632.24A5,5 0 1 1 1296.8,632.24A5,5 0 1 1 1306.8,632.24Z" style="fill:#FF0000" />
<path d="M1502.9,631.26A5,5 0 1 1 1492.9,631.26A5,5 0 1 1 1502.9,631.26Z" style="fill:#FF0000" />
<path d="M1698.9,657.99A5,5 0 1 1 1688.9,657.99A5,5 0 1 1 1698.9,657.99Z" style="fill:#FF0000" />
<path d="M1895,682.84A5,5 0 1 1 1885,682.84A5,5 0 1 1 1895,682.84Z" style="fill:#FF0000" />
<path d="M125.46,410.65L321.52,597.18L517.58,693.51L713.64,770.58L909.7,829.7L1105.8,872.56L1301.8,905.85L1497.9,946.69L1693.9,967.27L1890,1004.6" style="fill:none;stroke:#0000FF;stroke-width:4" />
<path d="M130.46,410.65A5,5 0 1 1 120.46,410.65A5,5 0 1 1 130.46,410.65Z" style="fill:#0000FF" />
<path d="M326.52,597.18A5,5 0 1 1 316.52,597.18A5,5 0 1 1 326.52,597.18Z" style="fill:#0000FF" />
<path d="M522.58,693.51A5,5 0 1 1 512.58,693.51A5,5 0 1 1 522.58,693.51Z" style="fill:#0000FF" />
<path d="M718.64,770.58A5,5 0 1 1 708.64,770.58A5,5 0 1 1 718.64,770.58Z" style="fill:#0000FF" />
<path d="M914.7,829.7A5,5 0 1 1 904.7,829.7A5,5 0 1 1 914.7,829.7Z" style="fill:#0000FF" />
<path d="M1110.8,872.56A5,5 0 1 1 1100.8,872.56A5,5 0 1 1 1110.8,872.56Z" style="fill:#0000FF" />
<path d="M1306.8,905.85A5,5 0 1 1 1296.8,905.85A5,5 0 1 1 1306.8,905.85Z" style="fill:#0000FF" />
<path d="M1502.9,946.69A5,5 0 1 1 1492.9,946.69A5,5 0 1 1 1502.9,946.69Z" style="fill:#0000FF" />
<path d="M1698.9,967.27A5,5 0 1 1 1688.9,967.27A5,5 0 1 1 1698.9,967.27Z" style="fill:#0000FF" />
<path d="M1895,1004.6A5,5 0 1 1 1885,1004.6A5,5 0 1 1 1895,1004.6Z" style="fill:#0000FF" />
<path d="M125.46,415.35L321.52,564.92L517.58,671.04L713.64,726.13L909.7,793.77L1105.8,839.93L1301.8,875.32L1497.9,911.11L1693.9,930.76L1890,958.4" style="fill:none;stroke:#00FF00;stroke-width:4" />
<path d="M130.46,415.35A5,5 0 1 1 120.46,415.35A5,5 0 1 1 130.46,415.35Z" style="fill:#00FF00" />
<path d="M326.52,564.92A5,5 0 1 1 316.52,564.92A5,5 0 1 1 326.52,564.92Z" style="fill:#00FF00" />
<path d="M522.58,671.04A5,5 0 1 1 512.58,671.04A5,5 0 1 1 522.58,671.04Z" style="fill:#00FF00" />
<path d="M718.64,726.13A5,5 0 1 1 708.64,726.13A5,5 0 1 1 718.64,726.13Z" style="fill:#00FF00" />
<path d="M914.7,793.77A5,5 0 1 1 904.7,793.77A5,5 0 1 1 914.7,793.77Z" style="fill:#00FF00" />
<path d="M1110.8,839.93A5,5 0 1 1 1100.8,839.93A5,5 0 1 1 1110.8,839.93Z" style="fill:#00FF00" />
<path d="M1306.8,875.32A5,5 0 1 1 1296.8,875.32A5,5 0 1 1 1306.8,875.32Z" style="fill:#00FF00" />
<path d="M1502.9,911.11A5,5 0 1 1 1492.9,911.11A5,5 0 1 1 1502.9,911.11Z" style="fill:#00FF00" />
<path d="M1698.9,930.76A5,5 0 1 1 1688.9,930.76A5,5 0 1 1 1698.9,930.76Z" style="fill:#00FF00" />
<path d="M1895,958.4A5,5 0 1 1 1885,958.4A5,5 0 1 1 1895,958.4Z" style="fill:#00FF00" />
<path d="M1900,126.03L1920,126.03" style="fill:none;stroke:#FF0000;stroke-width:4" />
<path d="M1915,126.03A5,5 0 1 1 1905,126.03A5,5 0 1 1 1915,126.03Z" style="fill:#FF0000" />
<text x="1823.3" y="-121.05" transform="scale(1, -1)"
	style="font-family:Liberation Serif;font-variant:normal;font-weight:normal;font-style:normal;font-size:24px">std::list</text>
<path d="M1900,105.66L1920,105.66" style="fill:none;stroke:#0000FF;stroke-width:4" />
<path d="M1915,105.66A5,5 0 1 1 1905,105.66A5,5 0 1 1 1915,105.66Z" style="fill:#0000FF" />
<text x="1795.4" y="-100.69" transform="scale(1, -1)"
	style="font-family:Liberation Serif;font-variant:normal;font-weight:normal;font-style:normal;font-size:24px">std::deque</text>
<path d="M1900,85.294L1920,85.294" style="fill:none;stroke:#00FF00;stroke-width:4" />
<path d="M1915,85.294A5,5 0 1 1 1905,85.294A5,5 0 1 1 1915,85.294Z" style="fill:#00FF00" />
<text x="1792.7" y="-80.319" transform="scale(1, -1)"
	style="font-family:Liberation Serif;font-variant:normal;font-weight:normal;font-style:normal;font-size:24px">std::vector</text>
</g>
</svg>
