<?xml version="1.0"?>
<!-- Generated by SVGo and Plotinum VG -->
<svg width="1920pt" height="1080pt" viewBox="0 0 1920 1080"
	xmlns="http://www.w3.org/2000/svg"
	xmlns:xlink="http://www.w3.org/1999/xlink">
<g transform="scale(1, -1) translate(0, -1080)">
<path d="M0,0L1920,0L1920,1080L0,1080Z" style="fill:#FFFFFF" />
<text x="922.5" y="-1040.9" transform="scale(1, -1)"
	style="font-family:Liberation Serif;font-variant:normal;font-weight:normal;font-style:normal;font-size:50px">sort</text>
<text x="885.27" y="-9.7559" transform="scale(1, -1)"
	style="font-family:Liberation Serif;font-variant:normal;font-weight:normal;font-style:normal;font-size:30px">Number of elements</text>
<text x="100.46" y="-39.727" transform="scale(1, -1)"
	style="font-family:Liberation Serif;font-variant:normal;font-weight:normal;font-style:normal;font-size:20px">10000</text>
<text x="296.52" y="-39.727" transform="scale(1, -1)"
	style="font-family:Liberation Serif;font-variant:normal;font-weight:normal;font-style:normal;font-size:20px">20000</text>
<text x="492.58" y="-39.727" transform="scale(1, -1)"
	style="font-family:Liberation Serif;font-variant:normal;font-weight:normal;font-style:normal;font-size:20px">30000</text>
<text x="688.64" y="-39.727" transform="scale(1, -1)"
	style="font-family:Liberation Serif;font-variant:normal;font-weight:normal;font-style:normal;font-size:20px">40000</text>
<text x="884.7" y="-39.727" transform="scale(1, -1)"
	style="font-family:Liberation Serif;font-variant:normal;font-weight:normal;font-style:normal;font-size:20px">50000</text>
<text x="1080.8" y="-39.727" transform="scale(1, -1)"
	style="font-family:Liberation Serif;font-variant:normal;font-weight:normal;font-style:normal;font-size:20px">60000</text>
<text x="1276.8" y="-39.727" transform="scale(1, -1)"
	style="font-family:Liberation Serif;font-variant:normal;font-weight:normal;font-style:normal;font-size:20px">70000</text>
<text x="1472.9" y="-39.727" transform="scale(1, -1)"
	style="font-family:Liberation Serif;font-variant:normal;font-weight:normal;font-style:normal;font-size:20px">80000</text>
<text x="1668.9" y="-39.727" transform="scale(1, -1)"
	style="font-family:Liberation Serif;font-variant:normal;font-weight:normal;font-style:normal;font-size:20px">90000</text>
<text x="1860" y="-39.727" transform="scale(1, -1)"
	style="font-family:Liberation Serif;font-variant:normal;font-weight:normal;font-style:normal;font-size:20px">100000</text>
<path d="M125.46,55.371L125.46,63.371" style="fill:none;stroke:#000000;stroke-width:0.5" />
<path d="M321.52,55.371L321.52,63.371" style="fill:none;stroke:#000000;stroke-width:0.5" />
<path d="M517.58,55.371L517.58,63.371" style="fill:none;stroke:#000000;stroke-width:0.5" />
<path d="M713.64,55.371L713.64,63.371" style="fill:none;stroke:#000000;stroke-width:0.5" />
<path d="M909.7,55.371L909.7,63.371" style="fill:none;stroke:#000000;stroke-width:0.5" />
<path d="M1105.8,55.371L1105.8,63.371" style="fill:none;stroke:#000000;stroke-width:0.5" />
<path d="M1301.8,55.371L1301.8,63.371" style="fill:none;stroke:#000000;stroke-width:0.5" />
<path d="M1497.9,55.371L1497.9,63.371" style="fill:none;stroke:#000000;stroke-width:0.5" />
<path d="M1693.9,55.371L1693.9,63.371" style="fill:none;stroke:#000000;stroke-width:0.5" />
<path d="M1890,55.371L1890,63.371" style="fill:none;stroke:#000000;stroke-width:0.5" />
<path d="M125.46,63.371L1890,63.371" style="fill:none;stroke:#000000;stroke-width:0.5" />
<g transform="rotate(90)">
<text x="538.49" y="23.467" transform="scale(1, -1)"
	style="font-family:Liberation Serif;font-variant:normal;font-weight:normal;font-style:normal;font-size:30px">μs</text>
</g>
<text x="39.712" y="-284.08" transform="scale(1, -1)"
	style="font-family:Liberation Serif;font-variant:normal;font-weight:normal;font-style:normal;font-size:20px">100000</text>
<text x="39.712" y="-506.87" transform="scale(1, -1)"
	style="font-family:Liberation Serif;font-variant:normal;font-weight:normal;font-style:normal;font-size:20px">200000</text>
<text x="39.712" y="-729.66" transform="scale(1, -1)"
	style="font-family:Liberation Serif;font-variant:normal;font-weight:normal;font-style:normal;font-size:20px">300000</text>
<text x="39.712" y="-952.45" transform="scale(1, -1)"
	style="font-family:Liberation Serif;font-variant:normal;font-weight:normal;font-style:normal;font-size:20px">400000</text>
<path d="M104.71,288.65L112.71,288.65" style="fill:none;stroke:#000000;stroke-width:0.5" />
<path d="M104.71,511.44L112.71,511.44" style="fill:none;stroke:#000000;stroke-width:0.5" />
<path d="M104.71,734.23L112.71,734.23" style="fill:none;stroke:#000000;stroke-width:0.5" />
<path d="M104.71,957.02L112.71,957.02" style="fill:none;stroke:#000000;stroke-width:0.5" />
<path d="M108.71,110.42L112.71,110.42" style="fill:none;stroke:#000000;stroke-width:0.5" />
<path d="M108.71,154.98L112.71,154.98" style="fill:none;stroke:#000000;stroke-width:0.5" />
<path d="M108.71,199.54L112.71,199.54" style="fill:none;stroke:#000000;stroke-width:0.5" />
<path d="M108.71,244.09L112.71,244.09" style="fill:none;stroke:#000000;stroke-width:0.5" />
<path d="M108.71,333.21L112.71,333.21" style="fill:none;stroke:#000000;stroke-width:0.5" />
<path d="M108.71,377.77L112.71,377.77" style="fill:none;stroke:#000000;stroke-width:0.5" />
<path d="M108.71,422.33L112.71,422.33" style="fill:none;stroke:#000000;stroke-width:0.5" />
<path d="M108.71,466.88L112.71,466.88" style="fill:none;stroke:#000000;stroke-width:0.5" />
<path d="M108.71,556L112.71,556" style="fill:none;stroke:#000000;stroke-width:0.5" />
<path d="M108.71,600.56L112.71,600.56" style="fill:none;stroke:#000000;stroke-width:0.5" />
<path d="M108.71,645.12L112.71,645.12" style="fill:none;stroke:#000000;stroke-width:0.5" />
<path d="M108.71,689.68L112.71,689.68" style="fill:none;stroke:#000000;stroke-width:0.5" />
<path d="M108.71,778.79L112.71,778.79" style="fill:none;stroke:#000000;stroke-width:0.5" />
<path d="M108.71,823.35L112.71,823.35" style="fill:none;stroke:#000000;stroke-width:0.5" />
<path d="M108.71,867.91L112.71,867.91" style="fill:none;stroke:#000000;stroke-width:0.5" />
<path d="M108.71,912.47L112.71,912.47" style="fill:none;stroke:#000000;stroke-width:0.5" />
<path d="M108.71,1001.6L112.71,1001.6" style="fill:none;stroke:#000000;stroke-width:0.5" />
<path d="M112.71,80.11L112.71,1024.6" style="fill:none;stroke:#000000;stroke-width:0.5" />
<path d="M125.46,80.11L125.46,1024.6" style="fill:none;stroke:#808080;stroke-width:0.25" />
<path d="M321.52,80.11L321.52,1024.6" style="fill:none;stroke:#808080;stroke-width:0.25" />
<path d="M517.58,80.11L517.58,1024.6" style="fill:none;stroke:#808080;stroke-width:0.25" />
<path d="M713.64,80.11L713.64,1024.6" style="fill:none;stroke:#808080;stroke-width:0.25" />
<path d="M909.7,80.11L909.7,1024.6" style="fill:none;stroke:#808080;stroke-width:0.25" />
<path d="M1105.8,80.11L1105.8,1024.6" style="fill:none;stroke:#808080;stroke-width:0.25" />
<path d="M1301.8,80.11L1301.8,1024.6" style="fill:none;stroke:#808080;stroke-width:0.25" />
<path d="M1497.9,80.11L1497.9,1024.6" style="fill:none;stroke:#808080;stroke-width:0.25" />
<path d="M1693.9,80.11L1693.9,1024.6" style="fill:none;stroke:#808080;stroke-width:0.25" />
<path d="M1890,80.11L1890,1024.6" style="fill:none;stroke:#808080;stroke-width:0.25" />
<path d="M125.46,288.65L1890,288.65" style="fill:none;stroke:#808080;stroke-width:0.25" />
<path d="M125.46,511.44L1890,511.44" style="fill:none;stroke:#808080;stroke-width:0.25" />
<path d="M125.46,734.23L1890,734.23" style="fill:none;stroke:#808080;stroke-width:0.25" />
<path d="M125.46,957.02L1890,957.02" style="fill:none;stroke:#808080;stroke-width:0.25" />
<path d="M125.46,123.42L321.52,199.92L517.58,266.09L713.64,322.69L909.7,431.59L1105.8,491.49L1301.8,572.84L1497.9,662.45L1693.9,771.51L1890,852.35" style="fill:none;stroke:#FF0000;stroke-width:4" />
<path d="M130.46,123.42A5,5 0 1 1 120.46,123.42A5,5 0 1 1 130.46,123.42Z" style="fill:#FF0000" />
<path d="M326.52,199.92A5,5 0 1 1 316.52,199.92A5,5 0 1 1 326.52,199.92Z" style="fill:#FF0000" />
<path d="M522.58,266.09A5,5 0 1 1 512.58,266.09A5,5 0 1 1 522.58,266.09Z" style="fill:#FF0000" />
<path d="M718.64,322.69A5,5 0 1 1 708.64,322.69A5,5 0 1 1 718.64,322.69Z" style="fill:#FF0000" />
<path d="M914.7,431.59A5,5 0 1 1 904.7,431.59A5,5 0 1 1 914.7,431.59Z" style="fill:#FF0000" />
<path d="M1110.8,491.49A5,5 0 1 1 1100.8,491.49A5,5 0 1 1 1110.8,491.49Z" style="fill:#FF0000" />
<path d="M1306.8,572.84A5,5 0 1 1 1296.8,572.84A5,5 0 1 1 1306.8,572.84Z" style="fill:#FF0000" />
<path d="M1502.9,662.45A5,5 0 1 1 1492.9,662.45A5,5 0 1 1 1502.9,662.45Z" style="fill:#FF0000" />
<path d="M1698.9,771.51A5,5 0 1 1 1688.9,771.51A5,5 0 1 1 1698.9,771.51Z" style="fill:#FF0000" />
<path d="M1895,852.35A5,5 0 1 1 1885,852.35A5,5 0 1 1 1895,852.35Z" style="fill:#FF0000" />
<path d="M125.46,80.11L321.52,92.179L517.58,104.07L713.64,121.25L909.7,141.61L1105.8,158.42L1301.8,181.17L1497.9,226.54L1693.9,233.4L1890,264.25" style="fill:none;stroke:#0000FF;stroke-width:4" />
<path d="M130.46,80.11A5,5 0 1 1 120.46,80.11A5,5 0 1 1 130.46,80.11Z" style="fill:#0000FF" />
<path d="M326.52,92.179A5,5 0 1 1 316.52,92.179A5,5 0 1 1 326.52,92.179Z" style="fill:#0000FF" />
<path d="M522.58,104.07A5,5 0 1 1 512.58,104.07A5,5 0 1 1 522.58,104.07Z" style="fill:#0000FF" />
<path d="M718.64,121.25A5,5 0 1 1 708.64,121.25A5,5 0 1 1 718.64,121.25Z" style="fill:#0000FF" />
<path d="M914.7,141.61A5,5 0 1 1 904.7,141.61A5,5 0 1 1 914.7,141.61Z" style="fill:#0000FF" />
<path d="M1110.8,158.42A5,5 0 1 1 1100.8,158.42A5,5 0 1 1 1110.8,158.42Z" style="fill:#0000FF" />
<path d="M1306.8,181.17A5,5 0 1 1 1296.8,181.17A5,5 0 1 1 1306.8,181.17Z" style="fill:#0000FF" />
<path d="M1502.9,226.54A5,5 0 1 1 1492.9,226.54A5,5 0 1 1 1502.9,226.54Z" style="fill:#0000FF" />
<path d="M1698.9,233.4A5,5 0 1 1 1688.9,233.4A5,5 0 1 1 1698.9,233.4Z" style="fill:#0000FF" />
<path d="M1895,264.25A5,5 0 1 1 1885,264.25A5,5 0 1 1 1895,264.25Z" style="fill:#0000FF" />
<path d="M125.46,125.95L321.52,206.29L517.58,289.09L713.64,379.94L909.7,466.16L1105.8,565.18L1301.8,640.75L1497.9,776.31L1693.9,866.18L1890,937.47" style="fill:none;stroke:#00FF00;stroke-width:4" />
<path d="M130.46,125.95A5,5 0 1 1 120.46,125.95A5,5 0 1 1 130.46,125.95Z" style="fill:#00FF00" />
<path d="M326.52,206.29A5,5 0 1 1 316.52,206.29A5,5 0 1 1 326.52,206.29Z" style="fill:#00FF00" />
<path d="M522.58,289.09A5,5 0 1 1 512.58,289.09A5,5 0 1 1 522.58,289.09Z" style="fill:#00FF00" />
<path d="M718.64,379.94A5,5 0 1 1 708.64,379.94A5,5 0 1 1 718.64,379.94Z" style="fill:#00FF00" />
<path d="M914.7,466.16A5,5 0 1 1 904.7,466.16A5,5 0 1 1 914.7,466.16Z" style="fill:#00FF00" />
<path d="M1110.8,565.18A5,5 0 1 1 1100.8,565.18A5,5 0 1 1 1110.8,565.18Z" style="fill:#00FF00" />
<path d="M1306.8,640.75A5,5 0 1 1 1296.8,640.75A5,5 0 1 1 1306.8,640.75Z" style="fill:#00FF00" />
<path d="M1502.9,776.31A5,5 0 1 1 1492.9,776.31A5,5 0 1 1 1502.9,776.31Z" style="fill:#00FF00" />
<path d="M1698.9,866.18A5,5 0 1 1 1688.9,866.18A5,5 0 1 1 1698.9,866.18Z" style="fill:#00FF00" />
<path d="M1895,937.47A5,5 0 1 1 1885,937.47A5,5 0 1 1 1895,937.47Z" style="fill:#00FF00" />
<path d="M1900,126.03L1920,126.03" style="fill:none;stroke:#FF0000;stroke-width:4" />
<path d="M1915,126.03A5,5 0 1 1 1905,126.03A5,5 0 1 1 1915,126.03Z" style="fill:#FF0000" />
<text x="1792.7" y="-121.05" transform="scale(1, -1)"
	style="font-family:Liberation Serif;font-variant:normal;font-weight:normal;font-style:normal;font-size:24px">std::vector</text>
<path d="M1900,105.66L1920,105.66" style="fill:none;stroke:#0000FF;stroke-width:4" />
<path d="M1915,105.66A5,5 0 1 1 1905,105.66A5,5 0 1 1 1915,105.66Z" style="fill:#0000FF" />
<text x="1823.3" y="-100.69" transform="scale(1, -1)"
	style="font-family:Liberation Serif;font-variant:normal;font-weight:normal;font-style:normal;font-size:24px">std::list</text>
<path d="M1900,85.294L1920,85.294" style="fill:none;stroke:#00FF00;stroke-width:4" />
<path d="M1915,85.294A5,5 0 1 1 1905,85.294A5,5 0 1 1 1915,85.294Z" style="fill:#00FF00" />
<text x="1795.4" y="-80.319" transform="scale(1, -1)"
	style="font-family:Liberation Serif;font-variant:normal;font-weight:normal;font-style:normal;font-size:24px">std::deque</text>
</g>
</svg>
