<?xml version="1.0"?>
<!-- Generated by SVGo and Plotinum VG -->
<svg width="1920pt" height="1080pt" viewBox="0 0 1920 1080"
	xmlns="http://www.w3.org/2000/svg"
	xmlns:xlink="http://www.w3.org/1999/xlink">
<g transform="scale(1, -1) translate(0, -1080)">
<path d="M0,0L1920,0L1920,1080L0,1080Z" style="fill:#FFFFFF" />
<text x="922.5" y="-1040.9" transform="scale(1, -1)"
	style="font-family:Liberation Serif;font-variant:normal;font-weight:normal;font-style:normal;font-size:50px">sort</text>
<text x="885.27" y="-9.7559" transform="scale(1, -1)"
	style="font-family:Liberation Serif;font-variant:normal;font-weight:normal;font-style:normal;font-size:30px">Number of elements</text>
<text x="100.46" y="-39.727" transform="scale(1, -1)"
	style="font-family:Liberation Serif;font-variant:normal;font-weight:normal;font-style:normal;font-size:20px">10000</text>
<text x="296.52" y="-39.727" transform="scale(1, -1)"
	style="font-family:Liberation Serif;font-variant:normal;font-weight:normal;font-style:normal;font-size:20px">20000</text>
<text x="492.58" y="-39.727" transform="scale(1, -1)"
	style="font-family:Liberation Serif;font-variant:normal;font-weight:normal;font-style:normal;font-size:20px">30000</text>
<text x="688.64" y="-39.727" transform="scale(1, -1)"
	style="font-family:Liberation Serif;font-variant:normal;font-weight:normal;font-style:normal;font-size:20px">40000</text>
<text x="884.7" y="-39.727" transform="scale(1, -1)"
	style="font-family:Liberation Serif;font-variant:normal;font-weight:normal;font-style:normal;font-size:20px">50000</text>
<text x="1080.8" y="-39.727" transform="scale(1, -1)"
	style="font-family:Liberation Serif;font-variant:normal;font-weight:normal;font-style:normal;font-size:20px">60000</text>
<text x="1276.8" y="-39.727" transform="scale(1, -1)"
	style="font-family:Liberation Serif;font-variant:normal;font-weight:normal;font-style:normal;font-size:20px">70000</text>
<text x="1472.9" y="-39.727" transform="scale(1, -1)"
	style="font-family:Liberation Serif;font-variant:normal;font-weight:normal;font-style:normal;font-size:20px">80000</text>
<text x="1668.9" y="-39.727" transform="scale(1, -1)"
	style="font-family:Liberation Serif;font-variant:normal;font-weight:normal;font-style:normal;font-size:20px">90000</text>
<text x="1860" y="-39.727" transform="scale(1, -1)"
	style="font-family:Liberation Serif;font-variant:normal;font-weight:normal;font-style:normal;font-size:20px">100000</text>
<path d="M125.46,55.371L125.46,63.371" style="fill:none;stroke:#000000;stroke-width:0.5" />
<path d="M321.52,55.371L321.52,63.371" style="fill:none;stroke:#000000;stroke-width:0.5" />
<path d="M517.58,55.371L517.58,63.371" style="fill:none;stroke:#000000;stroke-width:0.5" />
<path d="M713.64,55.371L713.64,63.371" style="fill:none;stroke:#000000;stroke-width:0.5" />
<path d="M909.7,55.371L909.7,63.371" style="fill:none;stroke:#000000;stroke-width:0.5" />
<path d="M1105.8,55.371L1105.8,63.371" style="fill:none;stroke:#000000;stroke-width:0.5" />
<path d="M1301.8,55.371L1301.8,63.371" style="fill:none;stroke:#000000;stroke-width:0.5" />
<path d="M1497.9,55.371L1497.9,63.371" style="fill:none;stroke:#000000;stroke-width:0.5" />
<path d="M1693.9,55.371L1693.9,63.371" style="fill:none;stroke:#000000;stroke-width:0.5" />
<path d="M1890,55.371L1890,63.371" style="fill:none;stroke:#000000;stroke-width:0.5" />
<path d="M125.46,63.371L1890,63.371" style="fill:none;stroke:#000000;stroke-width:0.5" />
<g transform="rotate(90)">
<text x="538.49" y="23.467" transform="scale(1, -1)"
	style="font-family:Liberation Serif;font-variant:normal;font-weight:normal;font-style:normal;font-size:30px">μs</text>
</g>
<text x="49.712" y="-184.8" transform="scale(1, -1)"
	style="font-family:Liberation Serif;font-variant:normal;font-weight:normal;font-style:normal;font-size:20px">20000</text>
<text x="49.712" y="-594.94" transform="scale(1, -1)"
	style="font-family:Liberation Serif;font-variant:normal;font-weight:normal;font-style:normal;font-size:20px">80000</text>
<text x="39.712" y="-1005.1" transform="scale(1, -1)"
	style="font-family:Liberation Serif;font-variant:normal;font-weight:normal;font-style:normal;font-size:20px">140000</text>
<path d="M104.71,189.37L112.71,189.37" style="fill:none;stroke:#000000;stroke-width:0.5" />
<path d="M104.71,599.51L112.71,599.51" style="fill:none;stroke:#000000;stroke-width:0.5" />
<path d="M104.71,1009.6L112.71,1009.6" style="fill:none;stroke:#000000;stroke-width:0.5" />
<path d="M108.71,394.44L112.71,394.44" style="fill:none;stroke:#000000;stroke-width:0.5" />
<path d="M108.71,804.57L112.71,804.57" style="fill:none;stroke:#000000;stroke-width:0.5" />
<path d="M112.71,80.11L112.71,1024.6" style="fill:none;stroke:#000000;stroke-width:0.5" />
<path d="M125.46,80.11L125.46,1024.6" style="fill:none;stroke:#808080;stroke-width:0.25" />
<path d="M321.52,80.11L321.52,1024.6" style="fill:none;stroke:#808080;stroke-width:0.25" />
<path d="M517.58,80.11L517.58,1024.6" style="fill:none;stroke:#808080;stroke-width:0.25" />
<path d="M713.64,80.11L713.64,1024.6" style="fill:none;stroke:#808080;stroke-width:0.25" />
<path d="M909.7,80.11L909.7,1024.6" style="fill:none;stroke:#808080;stroke-width:0.25" />
<path d="M1105.8,80.11L1105.8,1024.6" style="fill:none;stroke:#808080;stroke-width:0.25" />
<path d="M1301.8,80.11L1301.8,1024.6" style="fill:none;stroke:#808080;stroke-width:0.25" />
<path d="M1497.9,80.11L1497.9,1024.6" style="fill:none;stroke:#808080;stroke-width:0.25" />
<path d="M1693.9,80.11L1693.9,1024.6" style="fill:none;stroke:#808080;stroke-width:0.25" />
<path d="M1890,80.11L1890,1024.6" style="fill:none;stroke:#808080;stroke-width:0.25" />
<path d="M125.46,189.37L1890,189.37" style="fill:none;stroke:#808080;stroke-width:0.25" />
<path d="M125.46,599.51L1890,599.51" style="fill:none;stroke:#808080;stroke-width:0.25" />
<path d="M125.46,1009.6L1890,1009.6" style="fill:none;stroke:#808080;stroke-width:0.25" />
<path d="M125.46,80.11L321.52,106.22L517.58,135.96L713.64,172.94L909.7,212.81L1105.8,244.57L1301.8,376.85L1497.9,347.44L1693.9,394.03L1890,477.98" style="fill:none;stroke:#FF0000;stroke-width:4" />
<path d="M130.46,80.11A5,5 0 1 1 120.46,80.11A5,5 0 1 1 130.46,80.11Z" style="fill:#FF0000" />
<path d="M326.52,106.22A5,5 0 1 1 316.52,106.22A5,5 0 1 1 326.52,106.22Z" style="fill:#FF0000" />
<path d="M522.58,135.96A5,5 0 1 1 512.58,135.96A5,5 0 1 1 522.58,135.96Z" style="fill:#FF0000" />
<path d="M718.64,172.94A5,5 0 1 1 708.64,172.94A5,5 0 1 1 718.64,172.94Z" style="fill:#FF0000" />
<path d="M914.7,212.81A5,5 0 1 1 904.7,212.81A5,5 0 1 1 914.7,212.81Z" style="fill:#FF0000" />
<path d="M1110.8,244.57A5,5 0 1 1 1100.8,244.57A5,5 0 1 1 1110.8,244.57Z" style="fill:#FF0000" />
<path d="M1306.8,376.85A5,5 0 1 1 1296.8,376.85A5,5 0 1 1 1306.8,376.85Z" style="fill:#FF0000" />
<path d="M1502.9,347.44A5,5 0 1 1 1492.9,347.44A5,5 0 1 1 1502.9,347.44Z" style="fill:#FF0000" />
<path d="M1698.9,394.03A5,5 0 1 1 1688.9,394.03A5,5 0 1 1 1698.9,394.03Z" style="fill:#FF0000" />
<path d="M1895,477.98A5,5 0 1 1 1885,477.98A5,5 0 1 1 1895,477.98Z" style="fill:#FF0000" />
<path d="M125.46,120.69L321.52,193.87L517.58,282.39L713.64,351.46L909.7,437.5L1105.8,546.3L1301.8,608.43L1497.9,768.58L1693.9,797.77L1890,936.27" style="fill:none;stroke:#0000FF;stroke-width:4" />
<path d="M130.46,120.69A5,5 0 1 1 120.46,120.69A5,5 0 1 1 130.46,120.69Z" style="fill:#0000FF" />
<path d="M326.52,193.87A5,5 0 1 1 316.52,193.87A5,5 0 1 1 326.52,193.87Z" style="fill:#0000FF" />
<path d="M522.58,282.39A5,5 0 1 1 512.58,282.39A5,5 0 1 1 522.58,282.39Z" style="fill:#0000FF" />
<path d="M718.64,351.46A5,5 0 1 1 708.64,351.46A5,5 0 1 1 718.64,351.46Z" style="fill:#0000FF" />
<path d="M914.7,437.5A5,5 0 1 1 904.7,437.5A5,5 0 1 1 914.7,437.5Z" style="fill:#0000FF" />
<path d="M1110.8,546.3A5,5 0 1 1 1100.8,546.3A5,5 0 1 1 1110.8,546.3Z" style="fill:#0000FF" />
<path d="M1306.8,608.43A5,5 0 1 1 1296.8,608.43A5,5 0 1 1 1306.8,608.43Z" style="fill:#0000FF" />
<path d="M1502.9,768.58A5,5 0 1 1 1492.9,768.58A5,5 0 1 1 1502.9,768.58Z" style="fill:#0000FF" />
<path d="M1698.9,797.77A5,5 0 1 1 1688.9,797.77A5,5 0 1 1 1698.9,797.77Z" style="fill:#0000FF" />
<path d="M1895,936.27A5,5 0 1 1 1885,936.27A5,5 0 1 1 1895,936.27Z" style="fill:#0000FF" />
<path d="M125.46,115.52L321.52,174.34L517.58,235.59L713.64,301.35L909.7,366.37L1105.8,431.28L1301.8,523.58L1497.9,605.63L1693.9,717.72L1890,757.16" style="fill:none;stroke:#00FF00;stroke-width:4" />
<path d="M130.46,115.52A5,5 0 1 1 120.46,115.52A5,5 0 1 1 130.46,115.52Z" style="fill:#00FF00" />
<path d="M326.52,174.34A5,5 0 1 1 316.52,174.34A5,5 0 1 1 326.52,174.34Z" style="fill:#00FF00" />
<path d="M522.58,235.59A5,5 0 1 1 512.58,235.59A5,5 0 1 1 522.58,235.59Z" style="fill:#00FF00" />
<path d="M718.64,301.35A5,5 0 1 1 708.64,301.35A5,5 0 1 1 718.64,301.35Z" style="fill:#00FF00" />
<path d="M914.7,366.37A5,5 0 1 1 904.7,366.37A5,5 0 1 1 914.7,366.37Z" style="fill:#00FF00" />
<path d="M1110.8,431.28A5,5 0 1 1 1100.8,431.28A5,5 0 1 1 1110.8,431.28Z" style="fill:#00FF00" />
<path d="M1306.8,523.58A5,5 0 1 1 1296.8,523.58A5,5 0 1 1 1306.8,523.58Z" style="fill:#00FF00" />
<path d="M1502.9,605.63A5,5 0 1 1 1492.9,605.63A5,5 0 1 1 1502.9,605.63Z" style="fill:#00FF00" />
<path d="M1698.9,717.72A5,5 0 1 1 1688.9,717.72A5,5 0 1 1 1698.9,717.72Z" style="fill:#00FF00" />
<path d="M1895,757.16A5,5 0 1 1 1885,757.16A5,5 0 1 1 1895,757.16Z" style="fill:#00FF00" />
<path d="M1900,126.03L1920,126.03" style="fill:none;stroke:#FF0000;stroke-width:4" />
<path d="M1915,126.03A5,5 0 1 1 1905,126.03A5,5 0 1 1 1915,126.03Z" style="fill:#FF0000" />
<text x="1823.3" y="-121.05" transform="scale(1, -1)"
	style="font-family:Liberation Serif;font-variant:normal;font-weight:normal;font-style:normal;font-size:24px">std::list</text>
<path d="M1900,105.66L1920,105.66" style="fill:none;stroke:#0000FF;stroke-width:4" />
<path d="M1915,105.66A5,5 0 1 1 1905,105.66A5,5 0 1 1 1915,105.66Z" style="fill:#0000FF" />
<text x="1795.4" y="-100.69" transform="scale(1, -1)"
	style="font-family:Liberation Serif;font-variant:normal;font-weight:normal;font-style:normal;font-size:24px">std::deque</text>
<path d="M1900,85.294L1920,85.294" style="fill:none;stroke:#00FF00;stroke-width:4" />
<path d="M1915,85.294A5,5 0 1 1 1905,85.294A5,5 0 1 1 1915,85.294Z" style="fill:#00FF00" />
<text x="1792.7" y="-80.319" transform="scale(1, -1)"
	style="font-family:Liberation Serif;font-variant:normal;font-weight:normal;font-style:normal;font-size:24px">std::vector</text>
</g>
</svg>
