<?xml version="1.0"?>
<!-- Generated by SVGo and Plotinum VG -->
<svg width="1920pt" height="1080pt" viewBox="0 0 1920 1080"
	xmlns="http://www.w3.org/2000/svg"
	xmlns:xlink="http://www.w3.org/1999/xlink">
<g transform="scale(1, -1) translate(0, -1080)">
<path d="M0,0L1920,0L1920,1080L0,1080Z" style="fill:#FFFFFF" />
<text x="922.5" y="-1040.9" transform="scale(1, -1)"
	style="font-family:Liberation Serif;font-variant:normal;font-weight:normal;font-style:normal;font-size:50px">sort</text>
<text x="885.27" y="-9.7559" transform="scale(1, -1)"
	style="font-family:Liberation Serif;font-variant:normal;font-weight:normal;font-style:normal;font-size:30px">Number of elements</text>
<text x="100.46" y="-39.727" transform="scale(1, -1)"
	style="font-family:Liberation Serif;font-variant:normal;font-weight:normal;font-style:normal;font-size:20px">10000</text>
<text x="296.52" y="-39.727" transform="scale(1, -1)"
	style="font-family:Liberation Serif;font-variant:normal;font-weight:normal;font-style:normal;font-size:20px">20000</text>
<text x="492.58" y="-39.727" transform="scale(1, -1)"
	style="font-family:Liberation Serif;font-variant:normal;font-weight:normal;font-style:normal;font-size:20px">30000</text>
<text x="688.64" y="-39.727" transform="scale(1, -1)"
	style="font-family:Liberation Serif;font-variant:normal;font-weight:normal;font-style:normal;font-size:20px">40000</text>
<text x="884.7" y="-39.727" transform="scale(1, -1)"
	style="font-family:Liberation Serif;font-variant:normal;font-weight:normal;font-style:normal;font-size:20px">50000</text>
<text x="1080.8" y="-39.727" transform="scale(1, -1)"
	style="font-family:Liberation Serif;font-variant:normal;font-weight:normal;font-style:normal;font-size:20px">60000</text>
<text x="1276.8" y="-39.727" transform="scale(1, -1)"
	style="font-family:Liberation Serif;font-variant:normal;font-weight:normal;font-style:normal;font-size:20px">70000</text>
<text x="1472.9" y="-39.727" transform="scale(1, -1)"
	style="font-family:Liberation Serif;font-variant:normal;font-weight:normal;font-style:normal;font-size:20px">80000</text>
<text x="1668.9" y="-39.727" transform="scale(1, -1)"
	style="font-family:Liberation Serif;font-variant:normal;font-weight:normal;font-style:normal;font-size:20px">90000</text>
<text x="1860" y="-39.727" transform="scale(1, -1)"
	style="font-family:Liberation Serif;font-variant:normal;font-weight:normal;font-style:normal;font-size:20px">100000</text>
<path d="M125.46,55.371L125.46,63.371" style="fill:none;stroke:#000000;stroke-width:0.5" />
<path d="M321.52,55.371L321.52,63.371" style="fill:none;stroke:#000000;stroke-width:0.5" />
<path d="M517.58,55.371L517.58,63.371" style="fill:none;stroke:#000000;stroke-width:0.5" />
<path d="M713.64,55.371L713.64,63.371" style="fill:none;stroke:#000000;stroke-width:0.5" />
<path d="M909.7,55.371L909.7,63.371" style="fill:none;stroke:#000000;stroke-width:0.5" />
<path d="M1105.8,55.371L1105.8,63.371" style="fill:none;stroke:#000000;stroke-width:0.5" />
<path d="M1301.8,55.371L1301.8,63.371" style="fill:none;stroke:#000000;stroke-width:0.5" />
<path d="M1497.9,55.371L1497.9,63.371" style="fill:none;stroke:#000000;stroke-width:0.5" />
<path d="M1693.9,55.371L1693.9,63.371" style="fill:none;stroke:#000000;stroke-width:0.5" />
<path d="M1890,55.371L1890,63.371" style="fill:none;stroke:#000000;stroke-width:0.5" />
<path d="M125.46,63.371L1890,63.371" style="fill:none;stroke:#000000;stroke-width:0.5" />
<g transform="rotate(90)">
<text x="538.49" y="23.467" transform="scale(1, -1)"
	style="font-family:Liberation Serif;font-variant:normal;font-weight:normal;font-style:normal;font-size:30px">μs</text>
</g>
<text x="49.712" y="-161.59" transform="scale(1, -1)"
	style="font-family:Liberation Serif;font-variant:normal;font-weight:normal;font-style:normal;font-size:20px">50000</text>
<text x="39.712" y="-548.08" transform="scale(1, -1)"
	style="font-family:Liberation Serif;font-variant:normal;font-weight:normal;font-style:normal;font-size:20px">250000</text>
<text x="39.712" y="-934.56" transform="scale(1, -1)"
	style="font-family:Liberation Serif;font-variant:normal;font-weight:normal;font-style:normal;font-size:20px">450000</text>
<path d="M104.71,166.16L112.71,166.16" style="fill:none;stroke:#000000;stroke-width:0.5" />
<path d="M104.71,552.65L112.71,552.65" style="fill:none;stroke:#000000;stroke-width:0.5" />
<path d="M104.71,939.13L112.71,939.13" style="fill:none;stroke:#000000;stroke-width:0.5" />
<path d="M108.71,359.41L112.71,359.41" style="fill:none;stroke:#000000;stroke-width:0.5" />
<path d="M108.71,745.89L112.71,745.89" style="fill:none;stroke:#000000;stroke-width:0.5" />
<path d="M112.71,80.11L112.71,1024.6" style="fill:none;stroke:#000000;stroke-width:0.5" />
<path d="M125.46,80.11L125.46,1024.6" style="fill:none;stroke:#808080;stroke-width:0.25" />
<path d="M321.52,80.11L321.52,1024.6" style="fill:none;stroke:#808080;stroke-width:0.25" />
<path d="M517.58,80.11L517.58,1024.6" style="fill:none;stroke:#808080;stroke-width:0.25" />
<path d="M713.64,80.11L713.64,1024.6" style="fill:none;stroke:#808080;stroke-width:0.25" />
<path d="M909.7,80.11L909.7,1024.6" style="fill:none;stroke:#808080;stroke-width:0.25" />
<path d="M1105.8,80.11L1105.8,1024.6" style="fill:none;stroke:#808080;stroke-width:0.25" />
<path d="M1301.8,80.11L1301.8,1024.6" style="fill:none;stroke:#808080;stroke-width:0.25" />
<path d="M1497.9,80.11L1497.9,1024.6" style="fill:none;stroke:#808080;stroke-width:0.25" />
<path d="M1693.9,80.11L1693.9,1024.6" style="fill:none;stroke:#808080;stroke-width:0.25" />
<path d="M1890,80.11L1890,1024.6" style="fill:none;stroke:#808080;stroke-width:0.25" />
<path d="M125.46,166.16L1890,166.16" style="fill:none;stroke:#808080;stroke-width:0.25" />
<path d="M125.46,552.65L1890,552.65" style="fill:none;stroke:#808080;stroke-width:0.25" />
<path d="M125.46,939.13L1890,939.13" style="fill:none;stroke:#808080;stroke-width:0.25" />
<path d="M125.46,80.11L321.52,94.71L517.58,112.53L713.64,131.1L909.7,143.32L1105.8,158.68L1301.8,216.58L1497.9,215.89L1693.9,235.79L1890,256.7" style="fill:none;stroke:#FF0000;stroke-width:4" />
<path d="M130.46,80.11A5,5 0 1 1 120.46,80.11A5,5 0 1 1 130.46,80.11Z" style="fill:#FF0000" />
<path d="M326.52,94.71A5,5 0 1 1 316.52,94.71A5,5 0 1 1 326.52,94.71Z" style="fill:#FF0000" />
<path d="M522.58,112.53A5,5 0 1 1 512.58,112.53A5,5 0 1 1 522.58,112.53Z" style="fill:#FF0000" />
<path d="M718.64,131.1A5,5 0 1 1 708.64,131.1A5,5 0 1 1 718.64,131.1Z" style="fill:#FF0000" />
<path d="M914.7,143.32A5,5 0 1 1 904.7,143.32A5,5 0 1 1 914.7,143.32Z" style="fill:#FF0000" />
<path d="M1110.8,158.68A5,5 0 1 1 1100.8,158.68A5,5 0 1 1 1110.8,158.68Z" style="fill:#FF0000" />
<path d="M1306.8,216.58A5,5 0 1 1 1296.8,216.58A5,5 0 1 1 1306.8,216.58Z" style="fill:#FF0000" />
<path d="M1502.9,215.89A5,5 0 1 1 1492.9,215.89A5,5 0 1 1 1502.9,215.89Z" style="fill:#FF0000" />
<path d="M1698.9,235.79A5,5 0 1 1 1688.9,235.79A5,5 0 1 1 1698.9,235.79Z" style="fill:#FF0000" />
<path d="M1895,256.7A5,5 0 1 1 1885,256.7A5,5 0 1 1 1895,256.7Z" style="fill:#FF0000" />
<path d="M125.46,120.65L321.52,193.94L517.58,266.48L713.64,353.94L909.7,446.56L1105.8,532.05L1301.8,611.61L1497.9,728.16L1693.9,796.07L1890,937.8" style="fill:none;stroke:#0000FF;stroke-width:4" />
<path d="M130.46,120.65A5,5 0 1 1 120.46,120.65A5,5 0 1 1 130.46,120.65Z" style="fill:#0000FF" />
<path d="M326.52,193.94A5,5 0 1 1 316.52,193.94A5,5 0 1 1 326.52,193.94Z" style="fill:#0000FF" />
<path d="M522.58,266.48A5,5 0 1 1 512.58,266.48A5,5 0 1 1 522.58,266.48Z" style="fill:#0000FF" />
<path d="M718.64,353.94A5,5 0 1 1 708.64,353.94A5,5 0 1 1 718.64,353.94Z" style="fill:#0000FF" />
<path d="M914.7,446.56A5,5 0 1 1 904.7,446.56A5,5 0 1 1 914.7,446.56Z" style="fill:#0000FF" />
<path d="M1110.8,532.05A5,5 0 1 1 1100.8,532.05A5,5 0 1 1 1110.8,532.05Z" style="fill:#0000FF" />
<path d="M1306.8,611.61A5,5 0 1 1 1296.8,611.61A5,5 0 1 1 1306.8,611.61Z" style="fill:#0000FF" />
<path d="M1502.9,728.16A5,5 0 1 1 1492.9,728.16A5,5 0 1 1 1502.9,728.16Z" style="fill:#0000FF" />
<path d="M1698.9,796.07A5,5 0 1 1 1688.9,796.07A5,5 0 1 1 1698.9,796.07Z" style="fill:#0000FF" />
<path d="M1895,937.8A5,5 0 1 1 1885,937.8A5,5 0 1 1 1895,937.8Z" style="fill:#0000FF" />
<path d="M125.46,121.81L321.52,176.21L517.58,246.46L713.64,299.62L909.7,387.19L1105.8,465.41L1301.8,538.17L1497.9,625.39L1693.9,679.99L1890,765.99" style="fill:none;stroke:#00FF00;stroke-width:4" />
<path d="M130.46,121.81A5,5 0 1 1 120.46,121.81A5,5 0 1 1 130.46,121.81Z" style="fill:#00FF00" />
<path d="M326.52,176.21A5,5 0 1 1 316.52,176.21A5,5 0 1 1 326.52,176.21Z" style="fill:#00FF00" />
<path d="M522.58,246.46A5,5 0 1 1 512.58,246.46A5,5 0 1 1 522.58,246.46Z" style="fill:#00FF00" />
<path d="M718.64,299.62A5,5 0 1 1 708.64,299.62A5,5 0 1 1 718.64,299.62Z" style="fill:#00FF00" />
<path d="M914.7,387.19A5,5 0 1 1 904.7,387.19A5,5 0 1 1 914.7,387.19Z" style="fill:#00FF00" />
<path d="M1110.8,465.41A5,5 0 1 1 1100.8,465.41A5,5 0 1 1 1110.8,465.41Z" style="fill:#00FF00" />
<path d="M1306.8,538.17A5,5 0 1 1 1296.8,538.17A5,5 0 1 1 1306.8,538.17Z" style="fill:#00FF00" />
<path d="M1502.9,625.39A5,5 0 1 1 1492.9,625.39A5,5 0 1 1 1502.9,625.39Z" style="fill:#00FF00" />
<path d="M1698.9,679.99A5,5 0 1 1 1688.9,679.99A5,5 0 1 1 1698.9,679.99Z" style="fill:#00FF00" />
<path d="M1895,765.99A5,5 0 1 1 1885,765.99A5,5 0 1 1 1895,765.99Z" style="fill:#00FF00" />
<path d="M1900,126.03L1920,126.03" style="fill:none;stroke:#FF0000;stroke-width:4" />
<path d="M1915,126.03A5,5 0 1 1 1905,126.03A5,5 0 1 1 1915,126.03Z" style="fill:#FF0000" />
<text x="1823.3" y="-121.05" transform="scale(1, -1)"
	style="font-family:Liberation Serif;font-variant:normal;font-weight:normal;font-style:normal;font-size:24px">std::list</text>
<path d="M1900,105.66L1920,105.66" style="fill:none;stroke:#0000FF;stroke-width:4" />
<path d="M1915,105.66A5,5 0 1 1 1905,105.66A5,5 0 1 1 1915,105.66Z" style="fill:#0000FF" />
<text x="1795.4" y="-100.69" transform="scale(1, -1)"
	style="font-family:Liberation Serif;font-variant:normal;font-weight:normal;font-style:normal;font-size:24px">std::deque</text>
<path d="M1900,85.294L1920,85.294" style="fill:none;stroke:#00FF00;stroke-width:4" />
<path d="M1915,85.294A5,5 0 1 1 1905,85.294A5,5 0 1 1 1915,85.294Z" style="fill:#00FF00" />
<text x="1792.7" y="-80.319" transform="scale(1, -1)"
	style="font-family:Liberation Serif;font-variant:normal;font-weight:normal;font-style:normal;font-size:24px">std::vector</text>
</g>
</svg>
