<?xml version="1.0"?>
<!-- Generated by SVGo and Plotinum VG -->
<svg width="1920pt" height="1080pt" viewBox="0 0 1920 1080"
	xmlns="http://www.w3.org/2000/svg"
	xmlns:xlink="http://www.w3.org/1999/xlink">
<g transform="scale(1, -1) translate(0, -1080)">
<path d="M0,0L1920,0L1920,1080L0,1080Z" style="fill:#FFFFFF" />
<text x="801.02" y="-1040.9" transform="scale(1, -1)"
	style="font-family:Liberation Serif;font-variant:normal;font-weight:normal;font-style:normal;font-size:50px">sort - Log Scale</text>
<text x="885.27" y="-9.7559" transform="scale(1, -1)"
	style="font-family:Liberation Serif;font-variant:normal;font-weight:normal;font-style:normal;font-size:30px">Number of elements</text>
<text x="100.46" y="-39.727" transform="scale(1, -1)"
	style="font-family:Liberation Serif;font-variant:normal;font-weight:normal;font-style:normal;font-size:20px">10000</text>
<text x="296.52" y="-39.727" transform="scale(1, -1)"
	style="font-family:Liberation Serif;font-variant:normal;font-weight:normal;font-style:normal;font-size:20px">20000</text>
<text x="492.58" y="-39.727" transform="scale(1, -1)"
	style="font-family:Liberation Serif;font-variant:normal;font-weight:normal;font-style:normal;font-size:20px">30000</text>
<text x="688.64" y="-39.727" transform="scale(1, -1)"
	style="font-family:Liberation Serif;font-variant:normal;font-weight:normal;font-style:normal;font-size:20px">40000</text>
<text x="884.7" y="-39.727" transform="scale(1, -1)"
	style="font-family:Liberation Serif;font-variant:normal;font-weight:normal;font-style:normal;font-size:20px">50000</text>
<text x="1080.8" y="-39.727" transform="scale(1, -1)"
	style="font-family:Liberation Serif;font-variant:normal;font-weight:normal;font-style:normal;font-size:20px">60000</text>
<text x="1276.8" y="-39.727" transform="scale(1, -1)"
	style="font-family:Liberation Serif;font-variant:normal;font-weight:normal;font-style:normal;font-size:20px">70000</text>
<text x="1472.9" y="-39.727" transform="scale(1, -1)"
	style="font-family:Liberation Serif;font-variant:normal;font-weight:normal;font-style:normal;font-size:20px">80000</text>
<text x="1668.9" y="-39.727" transform="scale(1, -1)"
	style="font-family:Liberation Serif;font-variant:normal;font-weight:normal;font-style:normal;font-size:20px">90000</text>
<text x="1860" y="-39.727" transform="scale(1, -1)"
	style="font-family:Liberation Serif;font-variant:normal;font-weight:normal;font-style:normal;font-size:20px">100000</text>
<path d="M125.46,55.371L125.46,63.371" style="fill:none;stroke:#000000;stroke-width:0.5" />
<path d="M321.52,55.371L321.52,63.371" style="fill:none;stroke:#000000;stroke-width:0.5" />
<path d="M517.58,55.371L517.58,63.371" style="fill:none;stroke:#000000;stroke-width:0.5" />
<path d="M713.64,55.371L713.64,63.371" style="fill:none;stroke:#000000;stroke-width:0.5" />
<path d="M909.7,55.371L909.7,63.371" style="fill:none;stroke:#000000;stroke-width:0.5" />
<path d="M1105.8,55.371L1105.8,63.371" style="fill:none;stroke:#000000;stroke-width:0.5" />
<path d="M1301.8,55.371L1301.8,63.371" style="fill:none;stroke:#000000;stroke-width:0.5" />
<path d="M1497.9,55.371L1497.9,63.371" style="fill:none;stroke:#000000;stroke-width:0.5" />
<path d="M1693.9,55.371L1693.9,63.371" style="fill:none;stroke:#000000;stroke-width:0.5" />
<path d="M1890,55.371L1890,63.371" style="fill:none;stroke:#000000;stroke-width:0.5" />
<path d="M125.46,63.371L1890,63.371" style="fill:none;stroke:#000000;stroke-width:0.5" />
<g transform="rotate(90)">
<text x="485.87" y="23.467" transform="scale(1, -1)"
	style="font-family:Liberation Serif;font-variant:normal;font-weight:normal;font-style:normal;font-size:30px">log(μs + 1)</text>
</g>
<text x="49.712" y="-586.46" transform="scale(1, -1)"
	style="font-family:Liberation Serif;font-variant:normal;font-weight:normal;font-style:normal;font-size:20px">40000</text>
<text x="39.712" y="-864.09" transform="scale(1, -1)"
	style="font-family:Liberation Serif;font-variant:normal;font-weight:normal;font-style:normal;font-size:20px">120000</text>
<text x="39.712" y="-993.19" transform="scale(1, -1)"
	style="font-family:Liberation Serif;font-variant:normal;font-weight:normal;font-style:normal;font-size:20px">200000</text>
<path d="M104.71,591.03L112.71,591.03" style="fill:none;stroke:#000000;stroke-width:0.5" />
<path d="M104.71,868.66L112.71,868.66" style="fill:none;stroke:#000000;stroke-width:0.5" />
<path d="M104.71,997.76L112.71,997.76" style="fill:none;stroke:#000000;stroke-width:0.5" />
<path d="M108.71,766.2L112.71,766.2" style="fill:none;stroke:#000000;stroke-width:0.5" />
<path d="M108.71,941.37L112.71,941.37" style="fill:none;stroke:#000000;stroke-width:0.5" />
<path d="M112.71,80.11L112.71,1024.6" style="fill:none;stroke:#000000;stroke-width:0.5" />
<path d="M125.46,80.11L125.46,1024.6" style="fill:none;stroke:#808080;stroke-width:0.25" />
<path d="M321.52,80.11L321.52,1024.6" style="fill:none;stroke:#808080;stroke-width:0.25" />
<path d="M517.58,80.11L517.58,1024.6" style="fill:none;stroke:#808080;stroke-width:0.25" />
<path d="M713.64,80.11L713.64,1024.6" style="fill:none;stroke:#808080;stroke-width:0.25" />
<path d="M909.7,80.11L909.7,1024.6" style="fill:none;stroke:#808080;stroke-width:0.25" />
<path d="M1105.8,80.11L1105.8,1024.6" style="fill:none;stroke:#808080;stroke-width:0.25" />
<path d="M1301.8,80.11L1301.8,1024.6" style="fill:none;stroke:#808080;stroke-width:0.25" />
<path d="M1497.9,80.11L1497.9,1024.6" style="fill:none;stroke:#808080;stroke-width:0.25" />
<path d="M1693.9,80.11L1693.9,1024.6" style="fill:none;stroke:#808080;stroke-width:0.25" />
<path d="M1890,80.11L1890,1024.6" style="fill:none;stroke:#808080;stroke-width:0.25" />
<path d="M125.46,591.03L1890,591.03" style="fill:none;stroke:#808080;stroke-width:0.25" />
<path d="M125.46,868.66L1890,868.66" style="fill:none;stroke:#808080;stroke-width:0.25" />
<path d="M125.46,997.76L1890,997.76" style="fill:none;stroke:#808080;stroke-width:0.25" />
<path d="M125.46,332.3L321.52,514.22L517.58,671.39L713.64,733.13L909.7,786.31L1105.8,839.81L1301.8,904.31L1497.9,934.74L1693.9,969.11L1890,1000.5" style="fill:none;stroke:#FF0000;stroke-width:4" />
<path d="M130.46,332.3A5,5 0 1 1 120.46,332.3A5,5 0 1 1 130.46,332.3Z" style="fill:#FF0000" />
<path d="M326.52,514.22A5,5 0 1 1 316.52,514.22A5,5 0 1 1 326.52,514.22Z" style="fill:#FF0000" />
<path d="M522.58,671.39A5,5 0 1 1 512.58,671.39A5,5 0 1 1 522.58,671.39Z" style="fill:#FF0000" />
<path d="M718.64,733.13A5,5 0 1 1 708.64,733.13A5,5 0 1 1 718.64,733.13Z" style="fill:#FF0000" />
<path d="M914.7,786.31A5,5 0 1 1 904.7,786.31A5,5 0 1 1 914.7,786.31Z" style="fill:#FF0000" />
<path d="M1110.8,839.81A5,5 0 1 1 1100.8,839.81A5,5 0 1 1 1110.8,839.81Z" style="fill:#FF0000" />
<path d="M1306.8,904.31A5,5 0 1 1 1296.8,904.31A5,5 0 1 1 1306.8,904.31Z" style="fill:#FF0000" />
<path d="M1502.9,934.74A5,5 0 1 1 1492.9,934.74A5,5 0 1 1 1502.9,934.74Z" style="fill:#FF0000" />
<path d="M1698.9,969.11A5,5 0 1 1 1688.9,969.11A5,5 0 1 1 1698.9,969.11Z" style="fill:#FF0000" />
<path d="M1895,1000.5A5,5 0 1 1 1885,1000.5A5,5 0 1 1 1895,1000.5Z" style="fill:#FF0000" />
<path d="M125.46,309.49L321.52,485.36L517.58,634.73L713.64,701.24L909.7,749.03L1105.8,839.75L1301.8,865.94L1497.9,894.44L1693.9,933.46L1890,974.97" style="fill:none;stroke:#0000FF;stroke-width:4" />
<path d="M130.46,309.49A5,5 0 1 1 120.46,309.49A5,5 0 1 1 130.46,309.49Z" style="fill:#0000FF" />
<path d="M326.52,485.36A5,5 0 1 1 316.52,485.36A5,5 0 1 1 326.52,485.36Z" style="fill:#0000FF" />
<path d="M522.58,634.73A5,5 0 1 1 512.58,634.73A5,5 0 1 1 522.58,634.73Z" style="fill:#0000FF" />
<path d="M718.64,701.24A5,5 0 1 1 708.64,701.24A5,5 0 1 1 718.64,701.24Z" style="fill:#0000FF" />
<path d="M914.7,749.03A5,5 0 1 1 904.7,749.03A5,5 0 1 1 914.7,749.03Z" style="fill:#0000FF" />
<path d="M1110.8,839.75A5,5 0 1 1 1100.8,839.75A5,5 0 1 1 1110.8,839.75Z" style="fill:#0000FF" />
<path d="M1306.8,865.94A5,5 0 1 1 1296.8,865.94A5,5 0 1 1 1306.8,865.94Z" style="fill:#0000FF" />
<path d="M1502.9,894.44A5,5 0 1 1 1492.9,894.44A5,5 0 1 1 1502.9,894.44Z" style="fill:#0000FF" />
<path d="M1698.9,933.46A5,5 0 1 1 1688.9,933.46A5,5 0 1 1 1698.9,933.46Z" style="fill:#0000FF" />
<path d="M1895,974.97A5,5 0 1 1 1885,974.97A5,5 0 1 1 1895,974.97Z" style="fill:#0000FF" />
<path d="M125.46,80.11L321.52,270.37L517.58,425.14L713.64,506.02L909.7,521.75L1105.8,588.33L1301.8,634L1497.9,657.8L1693.9,698.98L1890,749.49" style="fill:none;stroke:#00FF00;stroke-width:4" />
<path d="M130.46,80.11A5,5 0 1 1 120.46,80.11A5,5 0 1 1 130.46,80.11Z" style="fill:#00FF00" />
<path d="M326.52,270.37A5,5 0 1 1 316.52,270.37A5,5 0 1 1 326.52,270.37Z" style="fill:#00FF00" />
<path d="M522.58,425.14A5,5 0 1 1 512.58,425.14A5,5 0 1 1 522.58,425.14Z" style="fill:#00FF00" />
<path d="M718.64,506.02A5,5 0 1 1 708.64,506.02A5,5 0 1 1 718.64,506.02Z" style="fill:#00FF00" />
<path d="M914.7,521.75A5,5 0 1 1 904.7,521.75A5,5 0 1 1 914.7,521.75Z" style="fill:#00FF00" />
<path d="M1110.8,588.33A5,5 0 1 1 1100.8,588.33A5,5 0 1 1 1110.8,588.33Z" style="fill:#00FF00" />
<path d="M1306.8,634A5,5 0 1 1 1296.8,634A5,5 0 1 1 1306.8,634Z" style="fill:#00FF00" />
<path d="M1502.9,657.8A5,5 0 1 1 1492.9,657.8A5,5 0 1 1 1502.9,657.8Z" style="fill:#00FF00" />
<path d="M1698.9,698.98A5,5 0 1 1 1688.9,698.98A5,5 0 1 1 1698.9,698.98Z" style="fill:#00FF00" />
<path d="M1895,749.49A5,5 0 1 1 1885,749.49A5,5 0 1 1 1895,749.49Z" style="fill:#00FF00" />
<path d="M1900,126.03L1920,126.03" style="fill:none;stroke:#FF0000;stroke-width:4" />
<path d="M1915,126.03A5,5 0 1 1 1905,126.03A5,5 0 1 1 1915,126.03Z" style="fill:#FF0000" />
<text x="1795.4" y="-121.05" transform="scale(1, -1)"
	style="font-family:Liberation Serif;font-variant:normal;font-weight:normal;font-style:normal;font-size:24px">std::deque</text>
<path d="M1900,105.66L1920,105.66" style="fill:none;stroke:#0000FF;stroke-width:4" />
<path d="M1915,105.66A5,5 0 1 1 1905,105.66A5,5 0 1 1 1915,105.66Z" style="fill:#0000FF" />
<text x="1792.7" y="-100.69" transform="scale(1, -1)"
	style="font-family:Liberation Serif;font-variant:normal;font-weight:normal;font-style:normal;font-size:24px">std::vector</text>
<path d="M1900,85.294L1920,85.294" style="fill:none;stroke:#00FF00;stroke-width:4" />
<path d="M1915,85.294A5,5 0 1 1 1905,85.294A5,5 0 1 1 1915,85.294Z" style="fill:#00FF00" />
<text x="1823.3" y="-80.319" transform="scale(1, -1)"
	style="font-family:Liberation Serif;font-variant:normal;font-weight:normal;font-style:normal;font-size:24px">std::list</text>
</g>
</svg>
