<?xml version="1.0"?>
<!-- Generated by SVGo and Plotinum VG -->
<svg width="1920pt" height="1080pt" viewBox="0 0 1920 1080"
	xmlns="http://www.w3.org/2000/svg"
	xmlns:xlink="http://www.w3.org/1999/xlink">
<g transform="scale(1, -1) translate(0, -1080)">
<path d="M0,0L1920,0L1920,1080L0,1080Z" style="fill:#FFFFFF" />
<text x="801.02" y="-1040.9" transform="scale(1, -1)"
	style="font-family:Liberation Serif;font-variant:normal;font-weight:normal;font-style:normal;font-size:50px">sort - Log Scale</text>
<text x="885.27" y="-9.7559" transform="scale(1, -1)"
	style="font-family:Liberation Serif;font-variant:normal;font-weight:normal;font-style:normal;font-size:30px">Number of elements</text>
<text x="100.46" y="-39.727" transform="scale(1, -1)"
	style="font-family:Liberation Serif;font-variant:normal;font-weight:normal;font-style:normal;font-size:20px">10000</text>
<text x="296.52" y="-39.727" transform="scale(1, -1)"
	style="font-family:Liberation Serif;font-variant:normal;font-weight:normal;font-style:normal;font-size:20px">20000</text>
<text x="492.58" y="-39.727" transform="scale(1, -1)"
	style="font-family:Liberation Serif;font-variant:normal;font-weight:normal;font-style:normal;font-size:20px">30000</text>
<text x="688.64" y="-39.727" transform="scale(1, -1)"
	style="font-family:Liberation Serif;font-variant:normal;font-weight:normal;font-style:normal;font-size:20px">40000</text>
<text x="884.7" y="-39.727" transform="scale(1, -1)"
	style="font-family:Liberation Serif;font-variant:normal;font-weight:normal;font-style:normal;font-size:20px">50000</text>
<text x="1080.8" y="-39.727" transform="scale(1, -1)"
	style="font-family:Liberation Serif;font-variant:normal;font-weight:normal;font-style:normal;font-size:20px">60000</text>
<text x="1276.8" y="-39.727" transform="scale(1, -1)"
	style="font-family:Liberation Serif;font-variant:normal;font-weight:normal;font-style:normal;font-size:20px">70000</text>
<text x="1472.9" y="-39.727" transform="scale(1, -1)"
	style="font-family:Liberation Serif;font-variant:normal;font-weight:normal;font-style:normal;font-size:20px">80000</text>
<text x="1668.9" y="-39.727" transform="scale(1, -1)"
	style="font-family:Liberation Serif;font-variant:normal;font-weight:normal;font-style:normal;font-size:20px">90000</text>
<text x="1860" y="-39.727" transform="scale(1, -1)"
	style="font-family:Liberation Serif;font-variant:normal;font-weight:normal;font-style:normal;font-size:20px">100000</text>
<path d="M125.46,55.371L125.46,63.371" style="fill:none;stroke:#000000;stroke-width:0.5" />
<path d="M321.52,55.371L321.52,63.371" style="fill:none;stroke:#000000;stroke-width:0.5" />
<path d="M517.58,55.371L517.58,63.371" style="fill:none;stroke:#000000;stroke-width:0.5" />
<path d="M713.64,55.371L713.64,63.371" style="fill:none;stroke:#000000;stroke-width:0.5" />
<path d="M909.7,55.371L909.7,63.371" style="fill:none;stroke:#000000;stroke-width:0.5" />
<path d="M1105.8,55.371L1105.8,63.371" style="fill:none;stroke:#000000;stroke-width:0.5" />
<path d="M1301.8,55.371L1301.8,63.371" style="fill:none;stroke:#000000;stroke-width:0.5" />
<path d="M1497.9,55.371L1497.9,63.371" style="fill:none;stroke:#000000;stroke-width:0.5" />
<path d="M1693.9,55.371L1693.9,63.371" style="fill:none;stroke:#000000;stroke-width:0.5" />
<path d="M1890,55.371L1890,63.371" style="fill:none;stroke:#000000;stroke-width:0.5" />
<path d="M125.46,63.371L1890,63.371" style="fill:none;stroke:#000000;stroke-width:0.5" />
<g transform="rotate(90)">
<text x="509.33" y="23.467" transform="scale(1, -1)"
	style="font-family:Liberation Serif;font-variant:normal;font-weight:normal;font-style:normal;font-size:30px">log(μs)</text>
</g>
<text x="49.712" y="-513.59" transform="scale(1, -1)"
	style="font-family:Liberation Serif;font-variant:normal;font-weight:normal;font-style:normal;font-size:20px">20000</text>
<text x="49.712" y="-832.86" transform="scale(1, -1)"
	style="font-family:Liberation Serif;font-variant:normal;font-weight:normal;font-style:normal;font-size:20px">60000</text>
<text x="39.712" y="-981.31" transform="scale(1, -1)"
	style="font-family:Liberation Serif;font-variant:normal;font-weight:normal;font-style:normal;font-size:20px">100000</text>
<path d="M104.71,518.16L112.71,518.16" style="fill:none;stroke:#000000;stroke-width:0.5" />
<path d="M104.71,837.43L112.71,837.43" style="fill:none;stroke:#000000;stroke-width:0.5" />
<path d="M104.71,985.88L112.71,985.88" style="fill:none;stroke:#000000;stroke-width:0.5" />
<path d="M108.71,316.72L112.71,316.72" style="fill:none;stroke:#000000;stroke-width:0.5" />
<path d="M108.71,635.99L112.71,635.99" style="fill:none;stroke:#000000;stroke-width:0.5" />
<path d="M108.71,719.6L112.71,719.6" style="fill:none;stroke:#000000;stroke-width:0.5" />
<path d="M108.71,784.45L112.71,784.45" style="fill:none;stroke:#000000;stroke-width:0.5" />
<path d="M108.71,882.23L112.71,882.23" style="fill:none;stroke:#000000;stroke-width:0.5" />
<path d="M108.71,921.04L112.71,921.04" style="fill:none;stroke:#000000;stroke-width:0.5" />
<path d="M108.71,955.27L112.71,955.27" style="fill:none;stroke:#000000;stroke-width:0.5" />
<path d="M108.71,1013.6L112.71,1013.6" style="fill:none;stroke:#000000;stroke-width:0.5" />
<path d="M112.71,80.11L112.71,1024.6" style="fill:none;stroke:#000000;stroke-width:0.5" />
<path d="M125.46,80.11L125.46,1024.6" style="fill:none;stroke:#808080;stroke-width:0.25" />
<path d="M321.52,80.11L321.52,1024.6" style="fill:none;stroke:#808080;stroke-width:0.25" />
<path d="M517.58,80.11L517.58,1024.6" style="fill:none;stroke:#808080;stroke-width:0.25" />
<path d="M713.64,80.11L713.64,1024.6" style="fill:none;stroke:#808080;stroke-width:0.25" />
<path d="M909.7,80.11L909.7,1024.6" style="fill:none;stroke:#808080;stroke-width:0.25" />
<path d="M1105.8,80.11L1105.8,1024.6" style="fill:none;stroke:#808080;stroke-width:0.25" />
<path d="M1301.8,80.11L1301.8,1024.6" style="fill:none;stroke:#808080;stroke-width:0.25" />
<path d="M1497.9,80.11L1497.9,1024.6" style="fill:none;stroke:#808080;stroke-width:0.25" />
<path d="M1693.9,80.11L1693.9,1024.6" style="fill:none;stroke:#808080;stroke-width:0.25" />
<path d="M1890,80.11L1890,1024.6" style="fill:none;stroke:#808080;stroke-width:0.25" />
<path d="M125.46,518.16L1890,518.16" style="fill:none;stroke:#808080;stroke-width:0.25" />
<path d="M125.46,837.43L1890,837.43" style="fill:none;stroke:#808080;stroke-width:0.25" />
<path d="M125.46,985.88L1890,985.88" style="fill:none;stroke:#808080;stroke-width:0.25" />
<path d="M125.46,80.11L321.52,238.72L517.58,375.75L713.64,460.49L909.7,538.64L1105.8,641.47L1301.8,675.11L1497.9,707.92L1693.9,718.82L1890,774.21" style="fill:none;stroke:#FF0000;stroke-width:4" />
<path d="M130.46,80.11A5,5 0 1 1 120.46,80.11A5,5 0 1 1 130.46,80.11Z" style="fill:#FF0000" />
<path d="M326.52,238.72A5,5 0 1 1 316.52,238.72A5,5 0 1 1 326.52,238.72Z" style="fill:#FF0000" />
<path d="M522.58,375.75A5,5 0 1 1 512.58,375.75A5,5 0 1 1 522.58,375.75Z" style="fill:#FF0000" />
<path d="M718.64,460.49A5,5 0 1 1 708.64,460.49A5,5 0 1 1 718.64,460.49Z" style="fill:#FF0000" />
<path d="M914.7,538.64A5,5 0 1 1 904.7,538.64A5,5 0 1 1 914.7,538.64Z" style="fill:#FF0000" />
<path d="M1110.8,641.47A5,5 0 1 1 1100.8,641.47A5,5 0 1 1 1110.8,641.47Z" style="fill:#FF0000" />
<path d="M1306.8,675.11A5,5 0 1 1 1296.8,675.11A5,5 0 1 1 1306.8,675.11Z" style="fill:#FF0000" />
<path d="M1502.9,707.92A5,5 0 1 1 1492.9,707.92A5,5 0 1 1 1502.9,707.92Z" style="fill:#FF0000" />
<path d="M1698.9,718.82A5,5 0 1 1 1688.9,718.82A5,5 0 1 1 1698.9,718.82Z" style="fill:#FF0000" />
<path d="M1895,774.21A5,5 0 1 1 1885,774.21A5,5 0 1 1 1895,774.21Z" style="fill:#FF0000" />
<path d="M125.46,297.97L321.52,497.87L517.58,630.17L713.64,719.63L909.7,799.92L1105.8,867.8L1301.8,919.25L1497.9,921.48L1693.9,980.43L1890,994.86" style="fill:none;stroke:#0000FF;stroke-width:4" />
<path d="M130.46,297.97A5,5 0 1 1 120.46,297.97A5,5 0 1 1 130.46,297.97Z" style="fill:#0000FF" />
<path d="M326.52,497.87A5,5 0 1 1 316.52,497.87A5,5 0 1 1 326.52,497.87Z" style="fill:#0000FF" />
<path d="M522.58,630.17A5,5 0 1 1 512.58,630.17A5,5 0 1 1 522.58,630.17Z" style="fill:#0000FF" />
<path d="M718.64,719.63A5,5 0 1 1 708.64,719.63A5,5 0 1 1 718.64,719.63Z" style="fill:#0000FF" />
<path d="M914.7,799.92A5,5 0 1 1 904.7,799.92A5,5 0 1 1 914.7,799.92Z" style="fill:#0000FF" />
<path d="M1110.8,867.8A5,5 0 1 1 1100.8,867.8A5,5 0 1 1 1110.8,867.8Z" style="fill:#0000FF" />
<path d="M1306.8,919.25A5,5 0 1 1 1296.8,919.25A5,5 0 1 1 1306.8,919.25Z" style="fill:#0000FF" />
<path d="M1502.9,921.48A5,5 0 1 1 1492.9,921.48A5,5 0 1 1 1502.9,921.48Z" style="fill:#0000FF" />
<path d="M1698.9,980.43A5,5 0 1 1 1688.9,980.43A5,5 0 1 1 1698.9,980.43Z" style="fill:#0000FF" />
<path d="M1895,994.86A5,5 0 1 1 1885,994.86A5,5 0 1 1 1895,994.86Z" style="fill:#0000FF" />
<path d="M125.46,246.45L321.52,475.27L517.58,590.42L713.64,668.26L909.7,721.06L1105.8,810.4L1301.8,878.18L1497.9,955.82L1693.9,947.47L1890,996.93" style="fill:none;stroke:#00FF00;stroke-width:4" />
<path d="M130.46,246.45A5,5 0 1 1 120.46,246.45A5,5 0 1 1 130.46,246.45Z" style="fill:#00FF00" />
<path d="M326.52,475.27A5,5 0 1 1 316.52,475.27A5,5 0 1 1 326.52,475.27Z" style="fill:#00FF00" />
<path d="M522.58,590.42A5,5 0 1 1 512.58,590.42A5,5 0 1 1 522.58,590.42Z" style="fill:#00FF00" />
<path d="M718.64,668.26A5,5 0 1 1 708.64,668.26A5,5 0 1 1 718.64,668.26Z" style="fill:#00FF00" />
<path d="M914.7,721.06A5,5 0 1 1 904.7,721.06A5,5 0 1 1 914.7,721.06Z" style="fill:#00FF00" />
<path d="M1110.8,810.4A5,5 0 1 1 1100.8,810.4A5,5 0 1 1 1110.8,810.4Z" style="fill:#00FF00" />
<path d="M1306.8,878.18A5,5 0 1 1 1296.8,878.18A5,5 0 1 1 1306.8,878.18Z" style="fill:#00FF00" />
<path d="M1502.9,955.82A5,5 0 1 1 1492.9,955.82A5,5 0 1 1 1502.9,955.82Z" style="fill:#00FF00" />
<path d="M1698.9,947.47A5,5 0 1 1 1688.9,947.47A5,5 0 1 1 1698.9,947.47Z" style="fill:#00FF00" />
<path d="M1895,996.93A5,5 0 1 1 1885,996.93A5,5 0 1 1 1895,996.93Z" style="fill:#00FF00" />
<path d="M1900,126.03L1920,126.03" style="fill:none;stroke:#FF0000;stroke-width:4" />
<path d="M1915,126.03A5,5 0 1 1 1905,126.03A5,5 0 1 1 1915,126.03Z" style="fill:#FF0000" />
<text x="1823.3" y="-121.05" transform="scale(1, -1)"
	style="font-family:Liberation Serif;font-variant:normal;font-weight:normal;font-style:normal;font-size:24px">std::list</text>
<path d="M1900,105.66L1920,105.66" style="fill:none;stroke:#0000FF;stroke-width:4" />
<path d="M1915,105.66A5,5 0 1 1 1905,105.66A5,5 0 1 1 1915,105.66Z" style="fill:#0000FF" />
<text x="1795.4" y="-100.69" transform="scale(1, -1)"
	style="font-family:Liberation Serif;font-variant:normal;font-weight:normal;font-style:normal;font-size:24px">std::deque</text>
<path d="M1900,85.294L1920,85.294" style="fill:none;stroke:#00FF00;stroke-width:4" />
<path d="M1915,85.294A5,5 0 1 1 1905,85.294A5,5 0 1 1 1915,85.294Z" style="fill:#00FF00" />
<text x="1792.7" y="-80.319" transform="scale(1, -1)"
	style="font-family:Liberation Serif;font-variant:normal;font-weight:normal;font-style:normal;font-size:24px">std::vector</text>
</g>
</svg>
