<?xml version="1.0"?>
<!-- Generated by SVGo and Plotinum VG -->
<svg width="1920pt" height="1080pt" viewBox="0 0 1920 1080"
	xmlns="http://www.w3.org/2000/svg"
	xmlns:xlink="http://www.w3.org/1999/xlink">
<g transform="scale(1, -1) translate(0, -1080)">
<path d="M0,0L1920,0L1920,1080L0,1080Z" style="fill:#FFFFFF" />
<text x="801.02" y="-1040.9" transform="scale(1, -1)"
	style="font-family:Liberation Serif;font-variant:normal;font-weight:normal;font-style:normal;font-size:50px">sort - Log Scale</text>
<text x="885.27" y="-9.7559" transform="scale(1, -1)"
	style="font-family:Liberation Serif;font-variant:normal;font-weight:normal;font-style:normal;font-size:30px">Number of elements</text>
<text x="100.46" y="-39.727" transform="scale(1, -1)"
	style="font-family:Liberation Serif;font-variant:normal;font-weight:normal;font-style:normal;font-size:20px">10000</text>
<text x="296.52" y="-39.727" transform="scale(1, -1)"
	style="font-family:Liberation Serif;font-variant:normal;font-weight:normal;font-style:normal;font-size:20px">20000</text>
<text x="492.58" y="-39.727" transform="scale(1, -1)"
	style="font-family:Liberation Serif;font-variant:normal;font-weight:normal;font-style:normal;font-size:20px">30000</text>
<text x="688.64" y="-39.727" transform="scale(1, -1)"
	style="font-family:Liberation Serif;font-variant:normal;font-weight:normal;font-style:normal;font-size:20px">40000</text>
<text x="884.7" y="-39.727" transform="scale(1, -1)"
	style="font-family:Liberation Serif;font-variant:normal;font-weight:normal;font-style:normal;font-size:20px">50000</text>
<text x="1080.8" y="-39.727" transform="scale(1, -1)"
	style="font-family:Liberation Serif;font-variant:normal;font-weight:normal;font-style:normal;font-size:20px">60000</text>
<text x="1276.8" y="-39.727" transform="scale(1, -1)"
	style="font-family:Liberation Serif;font-variant:normal;font-weight:normal;font-style:normal;font-size:20px">70000</text>
<text x="1472.9" y="-39.727" transform="scale(1, -1)"
	style="font-family:Liberation Serif;font-variant:normal;font-weight:normal;font-style:normal;font-size:20px">80000</text>
<text x="1668.9" y="-39.727" transform="scale(1, -1)"
	style="font-family:Liberation Serif;font-variant:normal;font-weight:normal;font-style:normal;font-size:20px">90000</text>
<text x="1860" y="-39.727" transform="scale(1, -1)"
	style="font-family:Liberation Serif;font-variant:normal;font-weight:normal;font-style:normal;font-size:20px">100000</text>
<path d="M125.46,55.371L125.46,63.371" style="fill:none;stroke:#000000;stroke-width:0.5" />
<path d="M321.52,55.371L321.52,63.371" style="fill:none;stroke:#000000;stroke-width:0.5" />
<path d="M517.58,55.371L517.58,63.371" style="fill:none;stroke:#000000;stroke-width:0.5" />
<path d="M713.64,55.371L713.64,63.371" style="fill:none;stroke:#000000;stroke-width:0.5" />
<path d="M909.7,55.371L909.7,63.371" style="fill:none;stroke:#000000;stroke-width:0.5" />
<path d="M1105.8,55.371L1105.8,63.371" style="fill:none;stroke:#000000;stroke-width:0.5" />
<path d="M1301.8,55.371L1301.8,63.371" style="fill:none;stroke:#000000;stroke-width:0.5" />
<path d="M1497.9,55.371L1497.9,63.371" style="fill:none;stroke:#000000;stroke-width:0.5" />
<path d="M1693.9,55.371L1693.9,63.371" style="fill:none;stroke:#000000;stroke-width:0.5" />
<path d="M1890,55.371L1890,63.371" style="fill:none;stroke:#000000;stroke-width:0.5" />
<path d="M125.46,63.371L1890,63.371" style="fill:none;stroke:#000000;stroke-width:0.5" />
<g transform="rotate(90)">
<text x="509.33" y="23.467" transform="scale(1, -1)"
	style="font-family:Liberation Serif;font-variant:normal;font-weight:normal;font-style:normal;font-size:30px">log(μs)</text>
</g>
<text x="49.712" y="-580.13" transform="scale(1, -1)"
	style="font-family:Liberation Serif;font-variant:normal;font-weight:normal;font-style:normal;font-size:20px">40000</text>
<text x="39.712" y="-868.36" transform="scale(1, -1)"
	style="font-family:Liberation Serif;font-variant:normal;font-weight:normal;font-style:normal;font-size:20px">120000</text>
<text x="39.712" y="-1002.4" transform="scale(1, -1)"
	style="font-family:Liberation Serif;font-variant:normal;font-weight:normal;font-style:normal;font-size:20px">200000</text>
<path d="M104.71,584.7L112.71,584.7" style="fill:none;stroke:#000000;stroke-width:0.5" />
<path d="M104.71,872.93L112.71,872.93" style="fill:none;stroke:#000000;stroke-width:0.5" />
<path d="M104.71,1006.9L112.71,1006.9" style="fill:none;stroke:#000000;stroke-width:0.5" />
<path d="M108.71,766.55L112.71,766.55" style="fill:none;stroke:#000000;stroke-width:0.5" />
<path d="M108.71,948.4L112.71,948.4" style="fill:none;stroke:#000000;stroke-width:0.5" />
<path d="M112.71,80.11L112.71,1024.6" style="fill:none;stroke:#000000;stroke-width:0.5" />
<path d="M125.46,80.11L125.46,1024.6" style="fill:none;stroke:#808080;stroke-width:0.25" />
<path d="M321.52,80.11L321.52,1024.6" style="fill:none;stroke:#808080;stroke-width:0.25" />
<path d="M517.58,80.11L517.58,1024.6" style="fill:none;stroke:#808080;stroke-width:0.25" />
<path d="M713.64,80.11L713.64,1024.6" style="fill:none;stroke:#808080;stroke-width:0.25" />
<path d="M909.7,80.11L909.7,1024.6" style="fill:none;stroke:#808080;stroke-width:0.25" />
<path d="M1105.8,80.11L1105.8,1024.6" style="fill:none;stroke:#808080;stroke-width:0.25" />
<path d="M1301.8,80.11L1301.8,1024.6" style="fill:none;stroke:#808080;stroke-width:0.25" />
<path d="M1497.9,80.11L1497.9,1024.6" style="fill:none;stroke:#808080;stroke-width:0.25" />
<path d="M1693.9,80.11L1693.9,1024.6" style="fill:none;stroke:#808080;stroke-width:0.25" />
<path d="M1890,80.11L1890,1024.6" style="fill:none;stroke:#808080;stroke-width:0.25" />
<path d="M125.46,584.7L1890,584.7" style="fill:none;stroke:#808080;stroke-width:0.25" />
<path d="M125.46,872.93L1890,872.93" style="fill:none;stroke:#808080;stroke-width:0.25" />
<path d="M125.46,1006.9L1890,1006.9" style="fill:none;stroke:#808080;stroke-width:0.25" />
<path d="M125.46,298.62L321.52,523.05L517.58,624.93L713.64,721.08L909.7,823.01L1105.8,861.61L1301.8,914.71L1497.9,946.59L1693.9,975.59L1890,999.62" style="fill:none;stroke:#FF0000;stroke-width:4" />
<path d="M130.46,298.62A5,5 0 1 1 120.46,298.62A5,5 0 1 1 130.46,298.62Z" style="fill:#FF0000" />
<path d="M326.52,523.05A5,5 0 1 1 316.52,523.05A5,5 0 1 1 326.52,523.05Z" style="fill:#FF0000" />
<path d="M522.58,624.93A5,5 0 1 1 512.58,624.93A5,5 0 1 1 522.58,624.93Z" style="fill:#FF0000" />
<path d="M718.64,721.08A5,5 0 1 1 708.64,721.08A5,5 0 1 1 718.64,721.08Z" style="fill:#FF0000" />
<path d="M914.7,823.01A5,5 0 1 1 904.7,823.01A5,5 0 1 1 914.7,823.01Z" style="fill:#FF0000" />
<path d="M1110.8,861.61A5,5 0 1 1 1100.8,861.61A5,5 0 1 1 1110.8,861.61Z" style="fill:#FF0000" />
<path d="M1306.8,914.71A5,5 0 1 1 1296.8,914.71A5,5 0 1 1 1306.8,914.71Z" style="fill:#FF0000" />
<path d="M1502.9,946.59A5,5 0 1 1 1492.9,946.59A5,5 0 1 1 1502.9,946.59Z" style="fill:#FF0000" />
<path d="M1698.9,975.59A5,5 0 1 1 1688.9,975.59A5,5 0 1 1 1698.9,975.59Z" style="fill:#FF0000" />
<path d="M1895,999.62A5,5 0 1 1 1885,999.62A5,5 0 1 1 1895,999.62Z" style="fill:#FF0000" />
<path d="M125.46,278.07L321.52,482.59L517.58,667.52L713.64,734.19L909.7,788.73L1105.8,814.34L1301.8,857.79L1497.9,924.28L1693.9,945.61L1890,970.01" style="fill:none;stroke:#0000FF;stroke-width:4" />
<path d="M130.46,278.07A5,5 0 1 1 120.46,278.07A5,5 0 1 1 130.46,278.07Z" style="fill:#0000FF" />
<path d="M326.52,482.59A5,5 0 1 1 316.52,482.59A5,5 0 1 1 326.52,482.59Z" style="fill:#0000FF" />
<path d="M522.58,667.52A5,5 0 1 1 512.58,667.52A5,5 0 1 1 522.58,667.52Z" style="fill:#0000FF" />
<path d="M718.64,734.19A5,5 0 1 1 708.64,734.19A5,5 0 1 1 718.64,734.19Z" style="fill:#0000FF" />
<path d="M914.7,788.73A5,5 0 1 1 904.7,788.73A5,5 0 1 1 914.7,788.73Z" style="fill:#0000FF" />
<path d="M1110.8,814.34A5,5 0 1 1 1100.8,814.34A5,5 0 1 1 1110.8,814.34Z" style="fill:#0000FF" />
<path d="M1306.8,857.79A5,5 0 1 1 1296.8,857.79A5,5 0 1 1 1306.8,857.79Z" style="fill:#0000FF" />
<path d="M1502.9,924.28A5,5 0 1 1 1492.9,924.28A5,5 0 1 1 1502.9,924.28Z" style="fill:#0000FF" />
<path d="M1698.9,945.61A5,5 0 1 1 1688.9,945.61A5,5 0 1 1 1698.9,945.61Z" style="fill:#0000FF" />
<path d="M1895,970.01A5,5 0 1 1 1885,970.01A5,5 0 1 1 1895,970.01Z" style="fill:#0000FF" />
<path d="M125.46,80.11L321.52,232.47L517.58,356.93L713.64,450.37L909.7,519.9L1105.8,573.81L1301.8,621.19L1497.9,689.72L1693.9,707.15L1890,733.38" style="fill:none;stroke:#00FF00;stroke-width:4" />
<path d="M130.46,80.11A5,5 0 1 1 120.46,80.11A5,5 0 1 1 130.46,80.11Z" style="fill:#00FF00" />
<path d="M326.52,232.47A5,5 0 1 1 316.52,232.47A5,5 0 1 1 326.52,232.47Z" style="fill:#00FF00" />
<path d="M522.58,356.93A5,5 0 1 1 512.58,356.93A5,5 0 1 1 522.58,356.93Z" style="fill:#00FF00" />
<path d="M718.64,450.37A5,5 0 1 1 708.64,450.37A5,5 0 1 1 718.64,450.37Z" style="fill:#00FF00" />
<path d="M914.7,519.9A5,5 0 1 1 904.7,519.9A5,5 0 1 1 914.7,519.9Z" style="fill:#00FF00" />
<path d="M1110.8,573.81A5,5 0 1 1 1100.8,573.81A5,5 0 1 1 1110.8,573.81Z" style="fill:#00FF00" />
<path d="M1306.8,621.19A5,5 0 1 1 1296.8,621.19A5,5 0 1 1 1306.8,621.19Z" style="fill:#00FF00" />
<path d="M1502.9,689.72A5,5 0 1 1 1492.9,689.72A5,5 0 1 1 1502.9,689.72Z" style="fill:#00FF00" />
<path d="M1698.9,707.15A5,5 0 1 1 1688.9,707.15A5,5 0 1 1 1698.9,707.15Z" style="fill:#00FF00" />
<path d="M1895,733.38A5,5 0 1 1 1885,733.38A5,5 0 1 1 1895,733.38Z" style="fill:#00FF00" />
<path d="M1900,126.03L1920,126.03" style="fill:none;stroke:#FF0000;stroke-width:4" />
<path d="M1915,126.03A5,5 0 1 1 1905,126.03A5,5 0 1 1 1915,126.03Z" style="fill:#FF0000" />
<text x="1795.4" y="-121.05" transform="scale(1, -1)"
	style="font-family:Liberation Serif;font-variant:normal;font-weight:normal;font-style:normal;font-size:24px">std::deque</text>
<path d="M1900,105.66L1920,105.66" style="fill:none;stroke:#0000FF;stroke-width:4" />
<path d="M1915,105.66A5,5 0 1 1 1905,105.66A5,5 0 1 1 1915,105.66Z" style="fill:#0000FF" />
<text x="1792.7" y="-100.69" transform="scale(1, -1)"
	style="font-family:Liberation Serif;font-variant:normal;font-weight:normal;font-style:normal;font-size:24px">std::vector</text>
<path d="M1900,85.294L1920,85.294" style="fill:none;stroke:#00FF00;stroke-width:4" />
<path d="M1915,85.294A5,5 0 1 1 1905,85.294A5,5 0 1 1 1915,85.294Z" style="fill:#00FF00" />
<text x="1823.3" y="-80.319" transform="scale(1, -1)"
	style="font-family:Liberation Serif;font-variant:normal;font-weight:normal;font-style:normal;font-size:24px">std::list</text>
</g>
</svg>
