<?xml version="1.0"?>
<!-- Generated by SVGo and Plotinum VG -->
<svg width="1920pt" height="1080pt" viewBox="0 0 1920 1080"
	xmlns="http://www.w3.org/2000/svg"
	xmlns:xlink="http://www.w3.org/1999/xlink">
<g transform="scale(1, -1) translate(0, -1080)">
<path d="M0,0L1920,0L1920,1080L0,1080Z" style="fill:#FFFFFF" />
<text x="922.5" y="-1040.9" transform="scale(1, -1)"
	style="font-family:Liberation Serif;font-variant:normal;font-weight:normal;font-style:normal;font-size:50px">sort</text>
<text x="897.77" y="-9.7559" transform="scale(1, -1)"
	style="font-family:Liberation Serif;font-variant:normal;font-weight:normal;font-style:normal;font-size:30px">Number of elements</text>
<text x="125.46" y="-39.727" transform="scale(1, -1)"
	style="font-family:Liberation Serif;font-variant:normal;font-weight:normal;font-style:normal;font-size:20px">10000</text>
<text x="318.74" y="-39.727" transform="scale(1, -1)"
	style="font-family:Liberation Serif;font-variant:normal;font-weight:normal;font-style:normal;font-size:20px">20000</text>
<text x="512.03" y="-39.727" transform="scale(1, -1)"
	style="font-family:Liberation Serif;font-variant:normal;font-weight:normal;font-style:normal;font-size:20px">30000</text>
<text x="705.31" y="-39.727" transform="scale(1, -1)"
	style="font-family:Liberation Serif;font-variant:normal;font-weight:normal;font-style:normal;font-size:20px">40000</text>
<text x="898.59" y="-39.727" transform="scale(1, -1)"
	style="font-family:Liberation Serif;font-variant:normal;font-weight:normal;font-style:normal;font-size:20px">50000</text>
<text x="1091.9" y="-39.727" transform="scale(1, -1)"
	style="font-family:Liberation Serif;font-variant:normal;font-weight:normal;font-style:normal;font-size:20px">60000</text>
<text x="1285.2" y="-39.727" transform="scale(1, -1)"
	style="font-family:Liberation Serif;font-variant:normal;font-weight:normal;font-style:normal;font-size:20px">70000</text>
<text x="1478.4" y="-39.727" transform="scale(1, -1)"
	style="font-family:Liberation Serif;font-variant:normal;font-weight:normal;font-style:normal;font-size:20px">80000</text>
<text x="1671.7" y="-39.727" transform="scale(1, -1)"
	style="font-family:Liberation Serif;font-variant:normal;font-weight:normal;font-style:normal;font-size:20px">90000</text>
<text x="1860" y="-39.727" transform="scale(1, -1)"
	style="font-family:Liberation Serif;font-variant:normal;font-weight:normal;font-style:normal;font-size:20px">100000</text>
<path d="M150.46,55.371L150.46,63.371" style="fill:none;stroke:#000000;stroke-width:0.5" />
<path d="M343.74,55.371L343.74,63.371" style="fill:none;stroke:#000000;stroke-width:0.5" />
<path d="M537.03,55.371L537.03,63.371" style="fill:none;stroke:#000000;stroke-width:0.5" />
<path d="M730.31,55.371L730.31,63.371" style="fill:none;stroke:#000000;stroke-width:0.5" />
<path d="M923.59,55.371L923.59,63.371" style="fill:none;stroke:#000000;stroke-width:0.5" />
<path d="M1116.9,55.371L1116.9,63.371" style="fill:none;stroke:#000000;stroke-width:0.5" />
<path d="M1310.2,55.371L1310.2,63.371" style="fill:none;stroke:#000000;stroke-width:0.5" />
<path d="M1503.4,55.371L1503.4,63.371" style="fill:none;stroke:#000000;stroke-width:0.5" />
<path d="M1696.7,55.371L1696.7,63.371" style="fill:none;stroke:#000000;stroke-width:0.5" />
<path d="M1890,55.371L1890,63.371" style="fill:none;stroke:#000000;stroke-width:0.5" />
<path d="M150.46,63.371L1890,63.371" style="fill:none;stroke:#000000;stroke-width:0.5" />
<g transform="rotate(90)">
<text x="538.49" y="23.467" transform="scale(1, -1)"
	style="font-family:Liberation Serif;font-variant:normal;font-weight:normal;font-style:normal;font-size:30px">μs</text>
</g>
<text x="49.712" y="-232.21" transform="scale(1, -1)"
	style="font-family:Liberation Serif;font-variant:normal;font-weight:normal;font-style:normal;font-size:20px">25000.00</text>
<text x="49.712" y="-608.27" transform="scale(1, -1)"
	style="font-family:Liberation Serif;font-variant:normal;font-weight:normal;font-style:normal;font-size:20px">75000.00</text>
<text x="39.712" y="-984.34" transform="scale(1, -1)"
	style="font-family:Liberation Serif;font-variant:normal;font-weight:normal;font-style:normal;font-size:20px">125000.00</text>
<path d="M129.71,236.78L137.71,236.78" style="fill:none;stroke:#000000;stroke-width:0.5" />
<path d="M129.71,612.84L137.71,612.84" style="fill:none;stroke:#000000;stroke-width:0.5" />
<path d="M129.71,988.91L137.71,988.91" style="fill:none;stroke:#000000;stroke-width:0.5" />
<path d="M133.71,86.353L137.71,86.353" style="fill:none;stroke:#000000;stroke-width:0.5" />
<path d="M133.71,161.57L137.71,161.57" style="fill:none;stroke:#000000;stroke-width:0.5" />
<path d="M133.71,311.99L137.71,311.99" style="fill:none;stroke:#000000;stroke-width:0.5" />
<path d="M133.71,387.2L137.71,387.2" style="fill:none;stroke:#000000;stroke-width:0.5" />
<path d="M133.71,462.42L137.71,462.42" style="fill:none;stroke:#000000;stroke-width:0.5" />
<path d="M133.71,537.63L137.71,537.63" style="fill:none;stroke:#000000;stroke-width:0.5" />
<path d="M133.71,688.06L137.71,688.06" style="fill:none;stroke:#000000;stroke-width:0.5" />
<path d="M133.71,763.27L137.71,763.27" style="fill:none;stroke:#000000;stroke-width:0.5" />
<path d="M133.71,838.48L137.71,838.48" style="fill:none;stroke:#000000;stroke-width:0.5" />
<path d="M133.71,913.69L137.71,913.69" style="fill:none;stroke:#000000;stroke-width:0.5" />
<path d="M137.71,80.11L137.71,1024.6" style="fill:none;stroke:#000000;stroke-width:0.5" />
<path d="M150.46,80.11L150.46,1024.6" style="fill:none;stroke:#808080;stroke-width:0.25" />
<path d="M343.74,80.11L343.74,1024.6" style="fill:none;stroke:#808080;stroke-width:0.25" />
<path d="M537.03,80.11L537.03,1024.6" style="fill:none;stroke:#808080;stroke-width:0.25" />
<path d="M730.31,80.11L730.31,1024.6" style="fill:none;stroke:#808080;stroke-width:0.25" />
<path d="M923.59,80.11L923.59,1024.6" style="fill:none;stroke:#808080;stroke-width:0.25" />
<path d="M1116.9,80.11L1116.9,1024.6" style="fill:none;stroke:#808080;stroke-width:0.25" />
<path d="M1310.2,80.11L1310.2,1024.6" style="fill:none;stroke:#808080;stroke-width:0.25" />
<path d="M1503.4,80.11L1503.4,1024.6" style="fill:none;stroke:#808080;stroke-width:0.25" />
<path d="M1696.7,80.11L1696.7,1024.6" style="fill:none;stroke:#808080;stroke-width:0.25" />
<path d="M1890,80.11L1890,1024.6" style="fill:none;stroke:#808080;stroke-width:0.25" />
<path d="M150.46,236.78L1890,236.78" style="fill:none;stroke:#808080;stroke-width:0.25" />
<path d="M150.46,612.84L1890,612.84" style="fill:none;stroke:#808080;stroke-width:0.25" />
<path d="M150.46,988.91L1890,988.91" style="fill:none;stroke:#808080;stroke-width:0.25" />
<path d="M150.46,105.81L343.74,174.74L537.03,231.02L730.31,318.11L923.59,397.46L1116.9,452.69L1310.2,523.75L1503.4,599.72L1696.7,725.33L1890,838.06" style="fill:none;stroke:#FF0000;stroke-width:4" />
<path d="M155.46,105.81A5,5 0 1 1 145.46,105.81A5,5 0 1 1 155.46,105.81Z" style="fill:#FF0000" />
<path d="M348.74,174.74A5,5 0 1 1 338.74,174.74A5,5 0 1 1 348.74,174.74Z" style="fill:#FF0000" />
<path d="M542.03,231.02A5,5 0 1 1 532.03,231.02A5,5 0 1 1 542.03,231.02Z" style="fill:#FF0000" />
<path d="M735.31,318.11A5,5 0 1 1 725.31,318.11A5,5 0 1 1 735.31,318.11Z" style="fill:#FF0000" />
<path d="M928.59,397.46A5,5 0 1 1 918.59,397.46A5,5 0 1 1 928.59,397.46Z" style="fill:#FF0000" />
<path d="M1121.9,452.69A5,5 0 1 1 1111.9,452.69A5,5 0 1 1 1121.9,452.69Z" style="fill:#FF0000" />
<path d="M1315.2,523.75A5,5 0 1 1 1305.2,523.75A5,5 0 1 1 1315.2,523.75Z" style="fill:#FF0000" />
<path d="M1508.4,599.72A5,5 0 1 1 1498.4,599.72A5,5 0 1 1 1508.4,599.72Z" style="fill:#FF0000" />
<path d="M1701.7,725.33A5,5 0 1 1 1691.7,725.33A5,5 0 1 1 1701.7,725.33Z" style="fill:#FF0000" />
<path d="M1895,838.06A5,5 0 1 1 1885,838.06A5,5 0 1 1 1895,838.06Z" style="fill:#FF0000" />
<path d="M150.46,80.11L343.74,106.5L537.03,139.64L730.31,190.49L923.59,209.91L1116.9,309.38L1310.2,386.04L1503.4,347.28L1696.7,468.22L1890,488.97" style="fill:none;stroke:#0000FF;stroke-width:4" />
<path d="M155.46,80.11A5,5 0 1 1 145.46,80.11A5,5 0 1 1 155.46,80.11Z" style="fill:#0000FF" />
<path d="M348.74,106.5A5,5 0 1 1 338.74,106.5A5,5 0 1 1 348.74,106.5Z" style="fill:#0000FF" />
<path d="M542.03,139.64A5,5 0 1 1 532.03,139.64A5,5 0 1 1 542.03,139.64Z" style="fill:#0000FF" />
<path d="M735.31,190.49A5,5 0 1 1 725.31,190.49A5,5 0 1 1 735.31,190.49Z" style="fill:#0000FF" />
<path d="M928.59,209.91A5,5 0 1 1 918.59,209.91A5,5 0 1 1 928.59,209.91Z" style="fill:#0000FF" />
<path d="M1121.9,309.38A5,5 0 1 1 1111.9,309.38A5,5 0 1 1 1121.9,309.38Z" style="fill:#0000FF" />
<path d="M1315.2,386.04A5,5 0 1 1 1305.2,386.04A5,5 0 1 1 1315.2,386.04Z" style="fill:#0000FF" />
<path d="M1508.4,347.28A5,5 0 1 1 1498.4,347.28A5,5 0 1 1 1508.4,347.28Z" style="fill:#0000FF" />
<path d="M1701.7,468.22A5,5 0 1 1 1691.7,468.22A5,5 0 1 1 1701.7,468.22Z" style="fill:#0000FF" />
<path d="M1895,488.97A5,5 0 1 1 1885,488.97A5,5 0 1 1 1895,488.97Z" style="fill:#0000FF" />
<path d="M150.46,126.08L343.74,183.77L537.03,264.07L730.31,339.97L923.59,436.28L1116.9,537.76L1310.2,592.56L1503.4,731.72L1696.7,852.62L1890,935.91" style="fill:none;stroke:#00FF00;stroke-width:4" />
<path d="M155.46,126.08A5,5 0 1 1 145.46,126.08A5,5 0 1 1 155.46,126.08Z" style="fill:#00FF00" />
<path d="M348.74,183.77A5,5 0 1 1 338.74,183.77A5,5 0 1 1 348.74,183.77Z" style="fill:#00FF00" />
<path d="M542.03,264.07A5,5 0 1 1 532.03,264.07A5,5 0 1 1 542.03,264.07Z" style="fill:#00FF00" />
<path d="M735.31,339.97A5,5 0 1 1 725.31,339.97A5,5 0 1 1 735.31,339.97Z" style="fill:#00FF00" />
<path d="M928.59,436.28A5,5 0 1 1 918.59,436.28A5,5 0 1 1 928.59,436.28Z" style="fill:#00FF00" />
<path d="M1121.9,537.76A5,5 0 1 1 1111.9,537.76A5,5 0 1 1 1121.9,537.76Z" style="fill:#00FF00" />
<path d="M1315.2,592.56A5,5 0 1 1 1305.2,592.56A5,5 0 1 1 1315.2,592.56Z" style="fill:#00FF00" />
<path d="M1508.4,731.72A5,5 0 1 1 1498.4,731.72A5,5 0 1 1 1508.4,731.72Z" style="fill:#00FF00" />
<path d="M1701.7,852.62A5,5 0 1 1 1691.7,852.62A5,5 0 1 1 1701.7,852.62Z" style="fill:#00FF00" />
<path d="M1895,935.91A5,5 0 1 1 1885,935.91A5,5 0 1 1 1895,935.91Z" style="fill:#00FF00" />
<path d="M1900,126.03L1920,126.03" style="fill:none;stroke:#FF0000;stroke-width:4" />
<path d="M1915,126.03A5,5 0 1 1 1905,126.03A5,5 0 1 1 1915,126.03Z" style="fill:#FF0000" />
<text x="1792.7" y="-121.05" transform="scale(1, -1)"
	style="font-family:Liberation Serif;font-variant:normal;font-weight:normal;font-style:normal;font-size:24px">std::vector</text>
<path d="M1900,105.66L1920,105.66" style="fill:none;stroke:#0000FF;stroke-width:4" />
<path d="M1915,105.66A5,5 0 1 1 1905,105.66A5,5 0 1 1 1915,105.66Z" style="fill:#0000FF" />
<text x="1823.3" y="-100.69" transform="scale(1, -1)"
	style="font-family:Liberation Serif;font-variant:normal;font-weight:normal;font-style:normal;font-size:24px">std::list</text>
<path d="M1900,85.294L1920,85.294" style="fill:none;stroke:#00FF00;stroke-width:4" />
<path d="M1915,85.294A5,5 0 1 1 1905,85.294A5,5 0 1 1 1915,85.294Z" style="fill:#00FF00" />
<text x="1795.4" y="-80.319" transform="scale(1, -1)"
	style="font-family:Liberation Serif;font-variant:normal;font-weight:normal;font-style:normal;font-size:24px">std::deque</text>
</g>
</svg>
