<?xml version="1.0"?>
<!-- Generated by SVGo and Plotinum VG -->
<svg width="1920pt" height="1080pt" viewBox="0 0 1920 1080"
	xmlns="http://www.w3.org/2000/svg"
	xmlns:xlink="http://www.w3.org/1999/xlink">
<g transform="scale(1, -1) translate(0, -1080)">
<path d="M0,0L1920,0L1920,1080L0,1080Z" style="fill:#FFFFFF" />
<text x="801.02" y="-1040.9" transform="scale(1, -1)"
	style="font-family:Liberation Serif;font-variant:normal;font-weight:normal;font-style:normal;font-size:50px">sort - Log Scale</text>
<text x="897.77" y="-9.7559" transform="scale(1, -1)"
	style="font-family:Liberation Serif;font-variant:normal;font-weight:normal;font-style:normal;font-size:30px">Number of elements</text>
<text x="125.46" y="-39.727" transform="scale(1, -1)"
	style="font-family:Liberation Serif;font-variant:normal;font-weight:normal;font-style:normal;font-size:20px">10000</text>
<text x="318.74" y="-39.727" transform="scale(1, -1)"
	style="font-family:Liberation Serif;font-variant:normal;font-weight:normal;font-style:normal;font-size:20px">20000</text>
<text x="512.03" y="-39.727" transform="scale(1, -1)"
	style="font-family:Liberation Serif;font-variant:normal;font-weight:normal;font-style:normal;font-size:20px">30000</text>
<text x="705.31" y="-39.727" transform="scale(1, -1)"
	style="font-family:Liberation Serif;font-variant:normal;font-weight:normal;font-style:normal;font-size:20px">40000</text>
<text x="898.59" y="-39.727" transform="scale(1, -1)"
	style="font-family:Liberation Serif;font-variant:normal;font-weight:normal;font-style:normal;font-size:20px">50000</text>
<text x="1091.9" y="-39.727" transform="scale(1, -1)"
	style="font-family:Liberation Serif;font-variant:normal;font-weight:normal;font-style:normal;font-size:20px">60000</text>
<text x="1285.2" y="-39.727" transform="scale(1, -1)"
	style="font-family:Liberation Serif;font-variant:normal;font-weight:normal;font-style:normal;font-size:20px">70000</text>
<text x="1478.4" y="-39.727" transform="scale(1, -1)"
	style="font-family:Liberation Serif;font-variant:normal;font-weight:normal;font-style:normal;font-size:20px">80000</text>
<text x="1671.7" y="-39.727" transform="scale(1, -1)"
	style="font-family:Liberation Serif;font-variant:normal;font-weight:normal;font-style:normal;font-size:20px">90000</text>
<text x="1860" y="-39.727" transform="scale(1, -1)"
	style="font-family:Liberation Serif;font-variant:normal;font-weight:normal;font-style:normal;font-size:20px">100000</text>
<path d="M150.46,55.371L150.46,63.371" style="fill:none;stroke:#000000;stroke-width:0.5" />
<path d="M343.74,55.371L343.74,63.371" style="fill:none;stroke:#000000;stroke-width:0.5" />
<path d="M537.03,55.371L537.03,63.371" style="fill:none;stroke:#000000;stroke-width:0.5" />
<path d="M730.31,55.371L730.31,63.371" style="fill:none;stroke:#000000;stroke-width:0.5" />
<path d="M923.59,55.371L923.59,63.371" style="fill:none;stroke:#000000;stroke-width:0.5" />
<path d="M1116.9,55.371L1116.9,63.371" style="fill:none;stroke:#000000;stroke-width:0.5" />
<path d="M1310.2,55.371L1310.2,63.371" style="fill:none;stroke:#000000;stroke-width:0.5" />
<path d="M1503.4,55.371L1503.4,63.371" style="fill:none;stroke:#000000;stroke-width:0.5" />
<path d="M1696.7,55.371L1696.7,63.371" style="fill:none;stroke:#000000;stroke-width:0.5" />
<path d="M1890,55.371L1890,63.371" style="fill:none;stroke:#000000;stroke-width:0.5" />
<path d="M150.46,63.371L1890,63.371" style="fill:none;stroke:#000000;stroke-width:0.5" />
<g transform="rotate(90)">
<text x="480.49" y="23.467" transform="scale(1, -1)"
	style="font-family:Liberation Serif;font-variant:normal;font-weight:normal;font-style:normal;font-size:30px">log(μs + 1)</text>
</g>
<text x="49.712" y="-574.01" transform="scale(1, -1)"
	style="font-family:Liberation Serif;font-variant:normal;font-weight:normal;font-style:normal;font-size:20px">25000.00</text>
<text x="49.712" y="-870.93" transform="scale(1, -1)"
	style="font-family:Liberation Serif;font-variant:normal;font-weight:normal;font-style:normal;font-size:20px">75000.00</text>
<text x="39.712" y="-1009" transform="scale(1, -1)"
	style="font-family:Liberation Serif;font-variant:normal;font-weight:normal;font-style:normal;font-size:20px">125000.00</text>
<path d="M129.71,578.58L137.71,578.58" style="fill:none;stroke:#000000;stroke-width:0.5" />
<path d="M129.71,875.5L137.71,875.5" style="fill:none;stroke:#000000;stroke-width:0.5" />
<path d="M129.71,1013.6L137.71,1013.6" style="fill:none;stroke:#000000;stroke-width:0.5" />
<path d="M133.71,143.61L137.71,143.61" style="fill:none;stroke:#000000;stroke-width:0.5" />
<path d="M133.71,440.53L137.71,440.53" style="fill:none;stroke:#000000;stroke-width:0.5" />
<path d="M133.71,669.52L137.71,669.52" style="fill:none;stroke:#000000;stroke-width:0.5" />
<path d="M133.71,737.44L137.71,737.44" style="fill:none;stroke:#000000;stroke-width:0.5" />
<path d="M133.71,791.67L137.71,791.67" style="fill:none;stroke:#000000;stroke-width:0.5" />
<path d="M133.71,836.82L137.71,836.82" style="fill:none;stroke:#000000;stroke-width:0.5" />
<path d="M133.71,909.32L137.71,909.32" style="fill:none;stroke:#000000;stroke-width:0.5" />
<path d="M133.71,939.38L137.71,939.38" style="fill:none;stroke:#000000;stroke-width:0.5" />
<path d="M133.71,966.43L137.71,966.43" style="fill:none;stroke:#000000;stroke-width:0.5" />
<path d="M133.71,991.02L137.71,991.02" style="fill:none;stroke:#000000;stroke-width:0.5" />
<path d="M137.71,80.11L137.71,1013.9" style="fill:none;stroke:#000000;stroke-width:0.5" />
<path d="M150.46,80.11L150.46,1013.9" style="fill:none;stroke:#808080;stroke-width:0.25" />
<path d="M343.74,80.11L343.74,1013.9" style="fill:none;stroke:#808080;stroke-width:0.25" />
<path d="M537.03,80.11L537.03,1013.9" style="fill:none;stroke:#808080;stroke-width:0.25" />
<path d="M730.31,80.11L730.31,1013.9" style="fill:none;stroke:#808080;stroke-width:0.25" />
<path d="M923.59,80.11L923.59,1013.9" style="fill:none;stroke:#808080;stroke-width:0.25" />
<path d="M1116.9,80.11L1116.9,1013.9" style="fill:none;stroke:#808080;stroke-width:0.25" />
<path d="M1310.2,80.11L1310.2,1013.9" style="fill:none;stroke:#808080;stroke-width:0.25" />
<path d="M1503.4,80.11L1503.4,1013.9" style="fill:none;stroke:#808080;stroke-width:0.25" />
<path d="M1696.7,80.11L1696.7,1013.9" style="fill:none;stroke:#808080;stroke-width:0.25" />
<path d="M1890,80.11L1890,1013.9" style="fill:none;stroke:#808080;stroke-width:0.25" />
<path d="M150.46,578.58L1890,578.58" style="fill:none;stroke:#808080;stroke-width:0.25" />
<path d="M150.46,875.5L1890,875.5" style="fill:none;stroke:#808080;stroke-width:0.25" />
<path d="M150.46,1013.6L1890,1013.6" style="fill:none;stroke:#808080;stroke-width:0.25" />
<path d="M150.46,80.11L343.74,263.07L537.03,419.83L730.31,477.62L923.59,595.28L1116.9,575.67L1310.2,635.13L1503.4,731.55L1696.7,708.01L1890,752.31" style="fill:none;stroke:#FF0000;stroke-width:4" />
<path d="M155.46,80.11A5,5 0 1 1 145.46,80.11A5,5 0 1 1 155.46,80.11Z" style="fill:#FF0000" />
<path d="M348.74,263.07A5,5 0 1 1 338.74,263.07A5,5 0 1 1 348.74,263.07Z" style="fill:#FF0000" />
<path d="M542.03,419.83A5,5 0 1 1 532.03,419.83A5,5 0 1 1 542.03,419.83Z" style="fill:#FF0000" />
<path d="M735.31,477.62A5,5 0 1 1 725.31,477.62A5,5 0 1 1 735.31,477.62Z" style="fill:#FF0000" />
<path d="M928.59,595.28A5,5 0 1 1 918.59,595.28A5,5 0 1 1 928.59,595.28Z" style="fill:#FF0000" />
<path d="M1121.9,575.67A5,5 0 1 1 1111.9,575.67A5,5 0 1 1 1121.9,575.67Z" style="fill:#FF0000" />
<path d="M1315.2,635.13A5,5 0 1 1 1305.2,635.13A5,5 0 1 1 1315.2,635.13Z" style="fill:#FF0000" />
<path d="M1508.4,731.55A5,5 0 1 1 1498.4,731.55A5,5 0 1 1 1508.4,731.55Z" style="fill:#FF0000" />
<path d="M1701.7,708.01A5,5 0 1 1 1691.7,708.01A5,5 0 1 1 1701.7,708.01Z" style="fill:#FF0000" />
<path d="M1895,752.31A5,5 0 1 1 1885,752.31A5,5 0 1 1 1895,752.31Z" style="fill:#FF0000" />
<path d="M150.46,299.48L343.74,515.7L537.03,656.37L730.31,688.3L923.59,749L1116.9,806.1L1310.2,850.98L1503.4,889.57L1696.7,917.1L1890,988.11" style="fill:none;stroke:#0000FF;stroke-width:4" />
<path d="M155.46,299.48A5,5 0 1 1 145.46,299.48A5,5 0 1 1 155.46,299.48Z" style="fill:#0000FF" />
<path d="M348.74,515.7A5,5 0 1 1 338.74,515.7A5,5 0 1 1 348.74,515.7Z" style="fill:#0000FF" />
<path d="M542.03,656.37A5,5 0 1 1 532.03,656.37A5,5 0 1 1 542.03,656.37Z" style="fill:#0000FF" />
<path d="M735.31,688.3A5,5 0 1 1 725.31,688.3A5,5 0 1 1 735.31,688.3Z" style="fill:#0000FF" />
<path d="M928.59,749A5,5 0 1 1 918.59,749A5,5 0 1 1 928.59,749Z" style="fill:#0000FF" />
<path d="M1121.9,806.1A5,5 0 1 1 1111.9,806.1A5,5 0 1 1 1121.9,806.1Z" style="fill:#0000FF" />
<path d="M1315.2,850.98A5,5 0 1 1 1305.2,850.98A5,5 0 1 1 1315.2,850.98Z" style="fill:#0000FF" />
<path d="M1508.4,889.57A5,5 0 1 1 1498.4,889.57A5,5 0 1 1 1508.4,889.57Z" style="fill:#0000FF" />
<path d="M1701.7,917.1A5,5 0 1 1 1691.7,917.1A5,5 0 1 1 1701.7,917.1Z" style="fill:#0000FF" />
<path d="M1895,988.11A5,5 0 1 1 1885,988.11A5,5 0 1 1 1895,988.11Z" style="fill:#0000FF" />
<path d="M150.46,283.34L343.74,489.08L537.03,548.52L730.31,655.97L923.59,709.95L1116.9,807.41L1310.2,814.42L1503.4,850.49L1696.7,889.45L1890,918.88" style="fill:none;stroke:#00FF00;stroke-width:4" />
<path d="M155.46,283.34A5,5 0 1 1 145.46,283.34A5,5 0 1 1 155.46,283.34Z" style="fill:#00FF00" />
<path d="M348.74,489.08A5,5 0 1 1 338.74,489.08A5,5 0 1 1 348.74,489.08Z" style="fill:#00FF00" />
<path d="M542.03,548.52A5,5 0 1 1 532.03,548.52A5,5 0 1 1 542.03,548.52Z" style="fill:#00FF00" />
<path d="M735.31,655.97A5,5 0 1 1 725.31,655.97A5,5 0 1 1 735.31,655.97Z" style="fill:#00FF00" />
<path d="M928.59,709.95A5,5 0 1 1 918.59,709.95A5,5 0 1 1 928.59,709.95Z" style="fill:#00FF00" />
<path d="M1121.9,807.41A5,5 0 1 1 1111.9,807.41A5,5 0 1 1 1121.9,807.41Z" style="fill:#00FF00" />
<path d="M1315.2,814.42A5,5 0 1 1 1305.2,814.42A5,5 0 1 1 1315.2,814.42Z" style="fill:#00FF00" />
<path d="M1508.4,850.49A5,5 0 1 1 1498.4,850.49A5,5 0 1 1 1508.4,850.49Z" style="fill:#00FF00" />
<path d="M1701.7,889.45A5,5 0 1 1 1691.7,889.45A5,5 0 1 1 1701.7,889.45Z" style="fill:#00FF00" />
<path d="M1895,918.88A5,5 0 1 1 1885,918.88A5,5 0 1 1 1895,918.88Z" style="fill:#00FF00" />
<path d="M1900,126.03L1920,126.03" style="fill:none;stroke:#FF0000;stroke-width:4" />
<path d="M1915,126.03A5,5 0 1 1 1905,126.03A5,5 0 1 1 1915,126.03Z" style="fill:#FF0000" />
<text x="1823.3" y="-121.05" transform="scale(1, -1)"
	style="font-family:Liberation Serif;font-variant:normal;font-weight:normal;font-style:normal;font-size:24px">std::list</text>
<path d="M1900,105.66L1920,105.66" style="fill:none;stroke:#0000FF;stroke-width:4" />
<path d="M1915,105.66A5,5 0 1 1 1905,105.66A5,5 0 1 1 1915,105.66Z" style="fill:#0000FF" />
<text x="1795.4" y="-100.69" transform="scale(1, -1)"
	style="font-family:Liberation Serif;font-variant:normal;font-weight:normal;font-style:normal;font-size:24px">std::deque</text>
<path d="M1900,85.294L1920,85.294" style="fill:none;stroke:#00FF00;stroke-width:4" />
<path d="M1915,85.294A5,5 0 1 1 1905,85.294A5,5 0 1 1 1915,85.294Z" style="fill:#00FF00" />
<text x="1792.7" y="-80.319" transform="scale(1, -1)"
	style="font-family:Liberation Serif;font-variant:normal;font-weight:normal;font-style:normal;font-size:24px">std::vector</text>
</g>
</svg>
