<?xml version="1.0"?>
<!-- Generated by SVGo and Plotinum VG -->
<svg width="1920pt" height="1080pt" viewBox="0 0 1920 1080"
	xmlns="http://www.w3.org/2000/svg"
	xmlns:xlink="http://www.w3.org/1999/xlink">
<g transform="scale(1, -1) translate(0, -1080)">
<path d="M0,0L1920,0L1920,1080L0,1080Z" style="fill:#FFFFFF" />
<text x="801.02" y="-1040.9" transform="scale(1, -1)"
	style="font-family:Liberation Serif;font-variant:normal;font-weight:normal;font-style:normal;font-size:50px">sort - Log Scale</text>
<text x="885.27" y="-9.7559" transform="scale(1, -1)"
	style="font-family:Liberation Serif;font-variant:normal;font-weight:normal;font-style:normal;font-size:30px">Number of elements</text>
<text x="100.46" y="-39.727" transform="scale(1, -1)"
	style="font-family:Liberation Serif;font-variant:normal;font-weight:normal;font-style:normal;font-size:20px">10000</text>
<text x="296.52" y="-39.727" transform="scale(1, -1)"
	style="font-family:Liberation Serif;font-variant:normal;font-weight:normal;font-style:normal;font-size:20px">20000</text>
<text x="492.58" y="-39.727" transform="scale(1, -1)"
	style="font-family:Liberation Serif;font-variant:normal;font-weight:normal;font-style:normal;font-size:20px">30000</text>
<text x="688.64" y="-39.727" transform="scale(1, -1)"
	style="font-family:Liberation Serif;font-variant:normal;font-weight:normal;font-style:normal;font-size:20px">40000</text>
<text x="884.7" y="-39.727" transform="scale(1, -1)"
	style="font-family:Liberation Serif;font-variant:normal;font-weight:normal;font-style:normal;font-size:20px">50000</text>
<text x="1080.8" y="-39.727" transform="scale(1, -1)"
	style="font-family:Liberation Serif;font-variant:normal;font-weight:normal;font-style:normal;font-size:20px">60000</text>
<text x="1276.8" y="-39.727" transform="scale(1, -1)"
	style="font-family:Liberation Serif;font-variant:normal;font-weight:normal;font-style:normal;font-size:20px">70000</text>
<text x="1472.9" y="-39.727" transform="scale(1, -1)"
	style="font-family:Liberation Serif;font-variant:normal;font-weight:normal;font-style:normal;font-size:20px">80000</text>
<text x="1668.9" y="-39.727" transform="scale(1, -1)"
	style="font-family:Liberation Serif;font-variant:normal;font-weight:normal;font-style:normal;font-size:20px">90000</text>
<text x="1860" y="-39.727" transform="scale(1, -1)"
	style="font-family:Liberation Serif;font-variant:normal;font-weight:normal;font-style:normal;font-size:20px">100000</text>
<path d="M125.46,55.371L125.46,63.371" style="fill:none;stroke:#000000;stroke-width:0.5" />
<path d="M321.52,55.371L321.52,63.371" style="fill:none;stroke:#000000;stroke-width:0.5" />
<path d="M517.58,55.371L517.58,63.371" style="fill:none;stroke:#000000;stroke-width:0.5" />
<path d="M713.64,55.371L713.64,63.371" style="fill:none;stroke:#000000;stroke-width:0.5" />
<path d="M909.7,55.371L909.7,63.371" style="fill:none;stroke:#000000;stroke-width:0.5" />
<path d="M1105.8,55.371L1105.8,63.371" style="fill:none;stroke:#000000;stroke-width:0.5" />
<path d="M1301.8,55.371L1301.8,63.371" style="fill:none;stroke:#000000;stroke-width:0.5" />
<path d="M1497.9,55.371L1497.9,63.371" style="fill:none;stroke:#000000;stroke-width:0.5" />
<path d="M1693.9,55.371L1693.9,63.371" style="fill:none;stroke:#000000;stroke-width:0.5" />
<path d="M1890,55.371L1890,63.371" style="fill:none;stroke:#000000;stroke-width:0.5" />
<path d="M125.46,63.371L1890,63.371" style="fill:none;stroke:#000000;stroke-width:0.5" />
<g transform="rotate(90)">
<text x="505.84" y="23.467" transform="scale(1, -1)"
	style="font-family:Liberation Serif;font-variant:normal;font-weight:normal;font-style:normal;font-size:30px">log(μs)</text>
</g>
<text x="49.712" y="-497.52" transform="scale(1, -1)"
	style="font-family:Liberation Serif;font-variant:normal;font-weight:normal;font-style:normal;font-size:20px">20000</text>
<text x="49.712" y="-861.89" transform="scale(1, -1)"
	style="font-family:Liberation Serif;font-variant:normal;font-weight:normal;font-style:normal;font-size:20px">80000</text>
<text x="39.712" y="-1009" transform="scale(1, -1)"
	style="font-family:Liberation Serif;font-variant:normal;font-weight:normal;font-style:normal;font-size:20px">140000</text>
<path d="M104.71,502.09L112.71,502.09" style="fill:none;stroke:#000000;stroke-width:0.5" />
<path d="M104.71,866.46L112.71,866.46" style="fill:none;stroke:#000000;stroke-width:0.5" />
<path d="M104.71,1013.6L112.71,1013.6" style="fill:none;stroke:#000000;stroke-width:0.5" />
<path d="M108.71,742.93L112.71,742.93" style="fill:none;stroke:#000000;stroke-width:0.5" />
<path d="M108.71,950.17L112.71,950.17" style="fill:none;stroke:#000000;stroke-width:0.5" />
<path d="M112.71,80.11L112.71,1017.6" style="fill:none;stroke:#000000;stroke-width:0.5" />
<path d="M125.46,80.11L125.46,1017.6" style="fill:none;stroke:#808080;stroke-width:0.25" />
<path d="M321.52,80.11L321.52,1017.6" style="fill:none;stroke:#808080;stroke-width:0.25" />
<path d="M517.58,80.11L517.58,1017.6" style="fill:none;stroke:#808080;stroke-width:0.25" />
<path d="M713.64,80.11L713.64,1017.6" style="fill:none;stroke:#808080;stroke-width:0.25" />
<path d="M909.7,80.11L909.7,1017.6" style="fill:none;stroke:#808080;stroke-width:0.25" />
<path d="M1105.8,80.11L1105.8,1017.6" style="fill:none;stroke:#808080;stroke-width:0.25" />
<path d="M1301.8,80.11L1301.8,1017.6" style="fill:none;stroke:#808080;stroke-width:0.25" />
<path d="M1497.9,80.11L1497.9,1017.6" style="fill:none;stroke:#808080;stroke-width:0.25" />
<path d="M1693.9,80.11L1693.9,1017.6" style="fill:none;stroke:#808080;stroke-width:0.25" />
<path d="M1890,80.11L1890,1017.6" style="fill:none;stroke:#808080;stroke-width:0.25" />
<path d="M125.46,502.09L1890,502.09" style="fill:none;stroke:#808080;stroke-width:0.25" />
<path d="M125.46,866.46L1890,866.46" style="fill:none;stroke:#808080;stroke-width:0.25" />
<path d="M125.46,1013.6L1890,1013.6" style="fill:none;stroke:#808080;stroke-width:0.25" />
<path d="M125.46,80.11L321.52,255.8L517.58,371.89L713.64,468.43L909.7,543.68L1105.8,591.24L1301.8,729.04L1497.9,704.05L1693.9,742.61L1890,800.4" style="fill:none;stroke:#FF0000;stroke-width:4" />
<path d="M130.46,80.11A5,5 0 1 1 120.46,80.11A5,5 0 1 1 130.46,80.11Z" style="fill:#FF0000" />
<path d="M326.52,255.8A5,5 0 1 1 316.52,255.8A5,5 0 1 1 326.52,255.8Z" style="fill:#FF0000" />
<path d="M522.58,371.89A5,5 0 1 1 512.58,371.89A5,5 0 1 1 522.58,371.89Z" style="fill:#FF0000" />
<path d="M718.64,468.43A5,5 0 1 1 708.64,468.43A5,5 0 1 1 718.64,468.43Z" style="fill:#FF0000" />
<path d="M914.7,543.68A5,5 0 1 1 904.7,543.68A5,5 0 1 1 914.7,543.68Z" style="fill:#FF0000" />
<path d="M1110.8,591.24A5,5 0 1 1 1100.8,591.24A5,5 0 1 1 1110.8,591.24Z" style="fill:#FF0000" />
<path d="M1306.8,729.04A5,5 0 1 1 1296.8,729.04A5,5 0 1 1 1306.8,729.04Z" style="fill:#FF0000" />
<path d="M1502.9,704.05A5,5 0 1 1 1492.9,704.05A5,5 0 1 1 1502.9,704.05Z" style="fill:#FF0000" />
<path d="M1698.9,742.61A5,5 0 1 1 1688.9,742.61A5,5 0 1 1 1698.9,742.61Z" style="fill:#FF0000" />
<path d="M1895,800.4A5,5 0 1 1 1885,800.4A5,5 0 1 1 1895,800.4Z" style="fill:#FF0000" />
<path d="M125.46,318.64L321.52,510.6L517.58,638.51L713.64,707.61L909.7,774.11L1105.8,839.56L1301.8,870.72L1497.9,937.28L1693.9,947.78L1890,992.59" style="fill:none;stroke:#0000FF;stroke-width:4" />
<path d="M130.46,318.64A5,5 0 1 1 120.46,318.64A5,5 0 1 1 130.46,318.64Z" style="fill:#0000FF" />
<path d="M326.52,510.6A5,5 0 1 1 316.52,510.6A5,5 0 1 1 326.52,510.6Z" style="fill:#0000FF" />
<path d="M522.58,638.51A5,5 0 1 1 512.58,638.51A5,5 0 1 1 522.58,638.51Z" style="fill:#0000FF" />
<path d="M718.64,707.61A5,5 0 1 1 708.64,707.61A5,5 0 1 1 718.64,707.61Z" style="fill:#0000FF" />
<path d="M914.7,774.11A5,5 0 1 1 904.7,774.11A5,5 0 1 1 914.7,774.11Z" style="fill:#0000FF" />
<path d="M1110.8,839.56A5,5 0 1 1 1100.8,839.56A5,5 0 1 1 1110.8,839.56Z" style="fill:#0000FF" />
<path d="M1306.8,870.72A5,5 0 1 1 1296.8,870.72A5,5 0 1 1 1306.8,870.72Z" style="fill:#0000FF" />
<path d="M1502.9,937.28A5,5 0 1 1 1492.9,937.28A5,5 0 1 1 1502.9,937.28Z" style="fill:#0000FF" />
<path d="M1698.9,947.78A5,5 0 1 1 1688.9,947.78A5,5 0 1 1 1698.9,947.78Z" style="fill:#0000FF" />
<path d="M1895,992.59A5,5 0 1 1 1885,992.59A5,5 0 1 1 1895,992.59Z" style="fill:#0000FF" />
<path d="M125.46,297.87L321.52,471.47L517.58,578.63L713.64,659.36L909.7,720.41L1105.8,769.83L1301.8,827.18L1497.9,869.39L1693.9,917.91L1890,933.05" style="fill:none;stroke:#00FF00;stroke-width:4" />
<path d="M130.46,297.87A5,5 0 1 1 120.46,297.87A5,5 0 1 1 130.46,297.87Z" style="fill:#00FF00" />
<path d="M326.52,471.47A5,5 0 1 1 316.52,471.47A5,5 0 1 1 326.52,471.47Z" style="fill:#00FF00" />
<path d="M522.58,578.63A5,5 0 1 1 512.58,578.63A5,5 0 1 1 522.58,578.63Z" style="fill:#00FF00" />
<path d="M718.64,659.36A5,5 0 1 1 708.64,659.36A5,5 0 1 1 718.64,659.36Z" style="fill:#00FF00" />
<path d="M914.7,720.41A5,5 0 1 1 904.7,720.41A5,5 0 1 1 914.7,720.41Z" style="fill:#00FF00" />
<path d="M1110.8,769.83A5,5 0 1 1 1100.8,769.83A5,5 0 1 1 1110.8,769.83Z" style="fill:#00FF00" />
<path d="M1306.8,827.18A5,5 0 1 1 1296.8,827.18A5,5 0 1 1 1306.8,827.18Z" style="fill:#00FF00" />
<path d="M1502.9,869.39A5,5 0 1 1 1492.9,869.39A5,5 0 1 1 1502.9,869.39Z" style="fill:#00FF00" />
<path d="M1698.9,917.91A5,5 0 1 1 1688.9,917.91A5,5 0 1 1 1698.9,917.91Z" style="fill:#00FF00" />
<path d="M1895,933.05A5,5 0 1 1 1885,933.05A5,5 0 1 1 1895,933.05Z" style="fill:#00FF00" />
<path d="M1900,126.03L1920,126.03" style="fill:none;stroke:#FF0000;stroke-width:4" />
<path d="M1915,126.03A5,5 0 1 1 1905,126.03A5,5 0 1 1 1915,126.03Z" style="fill:#FF0000" />
<text x="1823.3" y="-121.05" transform="scale(1, -1)"
	style="font-family:Liberation Serif;font-variant:normal;font-weight:normal;font-style:normal;font-size:24px">std::list</text>
<path d="M1900,105.66L1920,105.66" style="fill:none;stroke:#0000FF;stroke-width:4" />
<path d="M1915,105.66A5,5 0 1 1 1905,105.66A5,5 0 1 1 1915,105.66Z" style="fill:#0000FF" />
<text x="1795.4" y="-100.69" transform="scale(1, -1)"
	style="font-family:Liberation Serif;font-variant:normal;font-weight:normal;font-style:normal;font-size:24px">std::deque</text>
<path d="M1900,85.294L1920,85.294" style="fill:none;stroke:#00FF00;stroke-width:4" />
<path d="M1915,85.294A5,5 0 1 1 1905,85.294A5,5 0 1 1 1915,85.294Z" style="fill:#00FF00" />
<text x="1792.7" y="-80.319" transform="scale(1, -1)"
	style="font-family:Liberation Serif;font-variant:normal;font-weight:normal;font-style:normal;font-size:24px">std::vector</text>
</g>
</svg>
