<?xml version="1.0"?>
<!-- Generated by SVGo and Plotinum VG -->
<svg width="1920pt" height="1080pt" viewBox="0 0 1920 1080"
	xmlns="http://www.w3.org/2000/svg"
	xmlns:xlink="http://www.w3.org/1999/xlink">
<g transform="scale(1, -1) translate(0, -1080)">
<path d="M0,0L1920,0L1920,1080L0,1080Z" style="fill:#FFFFFF" />
<text x="801.02" y="-1040.9" transform="scale(1, -1)"
	style="font-family:Liberation Serif;font-variant:normal;font-weight:normal;font-style:normal;font-size:50px">sort - Log Scale</text>
<text x="885.27" y="-9.7559" transform="scale(1, -1)"
	style="font-family:Liberation Serif;font-variant:normal;font-weight:normal;font-style:normal;font-size:30px">Number of elements</text>
<text x="100.46" y="-39.727" transform="scale(1, -1)"
	style="font-family:Liberation Serif;font-variant:normal;font-weight:normal;font-style:normal;font-size:20px">10000</text>
<text x="296.52" y="-39.727" transform="scale(1, -1)"
	style="font-family:Liberation Serif;font-variant:normal;font-weight:normal;font-style:normal;font-size:20px">20000</text>
<text x="492.58" y="-39.727" transform="scale(1, -1)"
	style="font-family:Liberation Serif;font-variant:normal;font-weight:normal;font-style:normal;font-size:20px">30000</text>
<text x="688.64" y="-39.727" transform="scale(1, -1)"
	style="font-family:Liberation Serif;font-variant:normal;font-weight:normal;font-style:normal;font-size:20px">40000</text>
<text x="884.7" y="-39.727" transform="scale(1, -1)"
	style="font-family:Liberation Serif;font-variant:normal;font-weight:normal;font-style:normal;font-size:20px">50000</text>
<text x="1080.8" y="-39.727" transform="scale(1, -1)"
	style="font-family:Liberation Serif;font-variant:normal;font-weight:normal;font-style:normal;font-size:20px">60000</text>
<text x="1276.8" y="-39.727" transform="scale(1, -1)"
	style="font-family:Liberation Serif;font-variant:normal;font-weight:normal;font-style:normal;font-size:20px">70000</text>
<text x="1472.9" y="-39.727" transform="scale(1, -1)"
	style="font-family:Liberation Serif;font-variant:normal;font-weight:normal;font-style:normal;font-size:20px">80000</text>
<text x="1668.9" y="-39.727" transform="scale(1, -1)"
	style="font-family:Liberation Serif;font-variant:normal;font-weight:normal;font-style:normal;font-size:20px">90000</text>
<text x="1860" y="-39.727" transform="scale(1, -1)"
	style="font-family:Liberation Serif;font-variant:normal;font-weight:normal;font-style:normal;font-size:20px">100000</text>
<path d="M125.46,55.371L125.46,63.371" style="fill:none;stroke:#000000;stroke-width:0.5" />
<path d="M321.52,55.371L321.52,63.371" style="fill:none;stroke:#000000;stroke-width:0.5" />
<path d="M517.58,55.371L517.58,63.371" style="fill:none;stroke:#000000;stroke-width:0.5" />
<path d="M713.64,55.371L713.64,63.371" style="fill:none;stroke:#000000;stroke-width:0.5" />
<path d="M909.7,55.371L909.7,63.371" style="fill:none;stroke:#000000;stroke-width:0.5" />
<path d="M1105.8,55.371L1105.8,63.371" style="fill:none;stroke:#000000;stroke-width:0.5" />
<path d="M1301.8,55.371L1301.8,63.371" style="fill:none;stroke:#000000;stroke-width:0.5" />
<path d="M1497.9,55.371L1497.9,63.371" style="fill:none;stroke:#000000;stroke-width:0.5" />
<path d="M1693.9,55.371L1693.9,63.371" style="fill:none;stroke:#000000;stroke-width:0.5" />
<path d="M1890,55.371L1890,63.371" style="fill:none;stroke:#000000;stroke-width:0.5" />
<path d="M125.46,63.371L1890,63.371" style="fill:none;stroke:#000000;stroke-width:0.5" />
<g transform="rotate(90)">
<text x="485.87" y="23.467" transform="scale(1, -1)"
	style="font-family:Liberation Serif;font-variant:normal;font-weight:normal;font-style:normal;font-size:30px">log(μs + 1)</text>
</g>
<text x="39.712" y="-692.54" transform="scale(1, -1)"
	style="font-family:Liberation Serif;font-variant:normal;font-weight:normal;font-style:normal;font-size:20px">100000</text>
<text x="39.712" y="-848.09" transform="scale(1, -1)"
	style="font-family:Liberation Serif;font-variant:normal;font-weight:normal;font-style:normal;font-size:20px">200000</text>
<text x="39.712" y="-939.09" transform="scale(1, -1)"
	style="font-family:Liberation Serif;font-variant:normal;font-weight:normal;font-style:normal;font-size:20px">300000</text>
<text x="39.712" y="-1003.6" transform="scale(1, -1)"
	style="font-family:Liberation Serif;font-variant:normal;font-weight:normal;font-style:normal;font-size:20px">400000</text>
<path d="M104.71,697.11L112.71,697.11" style="fill:none;stroke:#000000;stroke-width:0.5" />
<path d="M104.71,852.66L112.71,852.66" style="fill:none;stroke:#000000;stroke-width:0.5" />
<path d="M104.71,943.66L112.71,943.66" style="fill:none;stroke:#000000;stroke-width:0.5" />
<path d="M104.71,1008.2L112.71,1008.2" style="fill:none;stroke:#000000;stroke-width:0.5" />
<path d="M108.71,335.92L112.71,335.92" style="fill:none;stroke:#000000;stroke-width:0.5" />
<path d="M108.71,491.48L112.71,491.48" style="fill:none;stroke:#000000;stroke-width:0.5" />
<path d="M108.71,582.47L112.71,582.47" style="fill:none;stroke:#000000;stroke-width:0.5" />
<path d="M108.71,647.03L112.71,647.03" style="fill:none;stroke:#000000;stroke-width:0.5" />
<path d="M108.71,738.03L112.71,738.03" style="fill:none;stroke:#000000;stroke-width:0.5" />
<path d="M108.71,772.62L112.71,772.62" style="fill:none;stroke:#000000;stroke-width:0.5" />
<path d="M108.71,802.59L112.71,802.59" style="fill:none;stroke:#000000;stroke-width:0.5" />
<path d="M108.71,829.02L112.71,829.02" style="fill:none;stroke:#000000;stroke-width:0.5" />
<path d="M108.71,874.05L112.71,874.05" style="fill:none;stroke:#000000;stroke-width:0.5" />
<path d="M108.71,893.58L112.71,893.58" style="fill:none;stroke:#000000;stroke-width:0.5" />
<path d="M108.71,911.54L112.71,911.54" style="fill:none;stroke:#000000;stroke-width:0.5" />
<path d="M108.71,928.18L112.71,928.18" style="fill:none;stroke:#000000;stroke-width:0.5" />
<path d="M108.71,958.14L112.71,958.14" style="fill:none;stroke:#000000;stroke-width:0.5" />
<path d="M108.71,971.75L112.71,971.75" style="fill:none;stroke:#000000;stroke-width:0.5" />
<path d="M108.71,984.57L112.71,984.57" style="fill:none;stroke:#000000;stroke-width:0.5" />
<path d="M108.71,996.71L112.71,996.71" style="fill:none;stroke:#000000;stroke-width:0.5" />
<path d="M108.71,1019.2L112.71,1019.2" style="fill:none;stroke:#000000;stroke-width:0.5" />
<path d="M112.71,80.11L112.71,1024.6" style="fill:none;stroke:#000000;stroke-width:0.5" />
<path d="M125.46,80.11L125.46,1024.6" style="fill:none;stroke:#808080;stroke-width:0.25" />
<path d="M321.52,80.11L321.52,1024.6" style="fill:none;stroke:#808080;stroke-width:0.25" />
<path d="M517.58,80.11L517.58,1024.6" style="fill:none;stroke:#808080;stroke-width:0.25" />
<path d="M713.64,80.11L713.64,1024.6" style="fill:none;stroke:#808080;stroke-width:0.25" />
<path d="M909.7,80.11L909.7,1024.6" style="fill:none;stroke:#808080;stroke-width:0.25" />
<path d="M1105.8,80.11L1105.8,1024.6" style="fill:none;stroke:#808080;stroke-width:0.25" />
<path d="M1301.8,80.11L1301.8,1024.6" style="fill:none;stroke:#808080;stroke-width:0.25" />
<path d="M1497.9,80.11L1497.9,1024.6" style="fill:none;stroke:#808080;stroke-width:0.25" />
<path d="M1693.9,80.11L1693.9,1024.6" style="fill:none;stroke:#808080;stroke-width:0.25" />
<path d="M1890,80.11L1890,1024.6" style="fill:none;stroke:#808080;stroke-width:0.25" />
<path d="M125.46,697.11L1890,697.11" style="fill:none;stroke:#808080;stroke-width:0.25" />
<path d="M125.46,852.66L1890,852.66" style="fill:none;stroke:#808080;stroke-width:0.25" />
<path d="M125.46,943.66L1890,943.66" style="fill:none;stroke:#808080;stroke-width:0.25" />
<path d="M125.46,1008.2L1890,1008.2" style="fill:none;stroke:#808080;stroke-width:0.25" />
<path d="M125.46,393.4L321.52,583.12L517.58,673.15L713.64,729.02L909.7,808.35L1105.8,842.39L1301.8,881.64L1497.9,918.16L1693.9,955.84L1890,980.18" style="fill:none;stroke:#FF0000;stroke-width:4" />
<path d="M130.46,393.4A5,5 0 1 1 120.46,393.4A5,5 0 1 1 130.46,393.4Z" style="fill:#FF0000" />
<path d="M326.52,583.12A5,5 0 1 1 316.52,583.12A5,5 0 1 1 326.52,583.12Z" style="fill:#FF0000" />
<path d="M522.58,673.15A5,5 0 1 1 512.58,673.15A5,5 0 1 1 522.58,673.15Z" style="fill:#FF0000" />
<path d="M718.64,729.02A5,5 0 1 1 708.64,729.02A5,5 0 1 1 718.64,729.02Z" style="fill:#FF0000" />
<path d="M914.7,808.35A5,5 0 1 1 904.7,808.35A5,5 0 1 1 914.7,808.35Z" style="fill:#FF0000" />
<path d="M1110.8,842.39A5,5 0 1 1 1100.8,842.39A5,5 0 1 1 1110.8,842.39Z" style="fill:#FF0000" />
<path d="M1306.8,881.64A5,5 0 1 1 1296.8,881.64A5,5 0 1 1 1306.8,881.64Z" style="fill:#FF0000" />
<path d="M1502.9,918.16A5,5 0 1 1 1492.9,918.16A5,5 0 1 1 1502.9,918.16Z" style="fill:#FF0000" />
<path d="M1698.9,955.84A5,5 0 1 1 1688.9,955.84A5,5 0 1 1 1698.9,955.84Z" style="fill:#FF0000" />
<path d="M1895,980.18A5,5 0 1 1 1885,980.18A5,5 0 1 1 1895,980.18Z" style="fill:#FF0000" />
<path d="M125.46,80.11L321.52,217.78L517.58,301.44L713.64,384.76L909.7,455.01L1105.8,499.99L1301.8,549.31L1497.9,623.77L1693.9,633.16L1890,671.08" style="fill:none;stroke:#0000FF;stroke-width:4" />
<path d="M130.46,80.11A5,5 0 1 1 120.46,80.11A5,5 0 1 1 130.46,80.11Z" style="fill:#0000FF" />
<path d="M326.52,217.78A5,5 0 1 1 316.52,217.78A5,5 0 1 1 326.52,217.78Z" style="fill:#0000FF" />
<path d="M522.58,301.44A5,5 0 1 1 512.58,301.44A5,5 0 1 1 522.58,301.44Z" style="fill:#0000FF" />
<path d="M718.64,384.76A5,5 0 1 1 708.64,384.76A5,5 0 1 1 718.64,384.76Z" style="fill:#0000FF" />
<path d="M914.7,455.01A5,5 0 1 1 904.7,455.01A5,5 0 1 1 914.7,455.01Z" style="fill:#0000FF" />
<path d="M1110.8,499.99A5,5 0 1 1 1100.8,499.99A5,5 0 1 1 1110.8,499.99Z" style="fill:#0000FF" />
<path d="M1306.8,549.31A5,5 0 1 1 1296.8,549.31A5,5 0 1 1 1306.8,549.31Z" style="fill:#0000FF" />
<path d="M1502.9,623.77A5,5 0 1 1 1492.9,623.77A5,5 0 1 1 1502.9,623.77Z" style="fill:#0000FF" />
<path d="M1698.9,633.16A5,5 0 1 1 1688.9,633.16A5,5 0 1 1 1698.9,633.16Z" style="fill:#0000FF" />
<path d="M1895,671.08A5,5 0 1 1 1885,671.08A5,5 0 1 1 1895,671.08Z" style="fill:#0000FF" />
<path d="M125.46,403.02L321.52,593.54L517.58,697.56L713.64,774.18L909.7,828.62L1105.8,878.22L1301.8,909.85L1497.9,957.36L1693.9,984.09L1890,1003.2" style="fill:none;stroke:#00FF00;stroke-width:4" />
<path d="M130.46,403.02A5,5 0 1 1 120.46,403.02A5,5 0 1 1 130.46,403.02Z" style="fill:#00FF00" />
<path d="M326.52,593.54A5,5 0 1 1 316.52,593.54A5,5 0 1 1 326.52,593.54Z" style="fill:#00FF00" />
<path d="M522.58,697.56A5,5 0 1 1 512.58,697.56A5,5 0 1 1 522.58,697.56Z" style="fill:#00FF00" />
<path d="M718.64,774.18A5,5 0 1 1 708.64,774.18A5,5 0 1 1 718.64,774.18Z" style="fill:#00FF00" />
<path d="M914.7,828.62A5,5 0 1 1 904.7,828.62A5,5 0 1 1 914.7,828.62Z" style="fill:#00FF00" />
<path d="M1110.8,878.22A5,5 0 1 1 1100.8,878.22A5,5 0 1 1 1110.8,878.22Z" style="fill:#00FF00" />
<path d="M1306.8,909.85A5,5 0 1 1 1296.8,909.85A5,5 0 1 1 1306.8,909.85Z" style="fill:#00FF00" />
<path d="M1502.9,957.36A5,5 0 1 1 1492.9,957.36A5,5 0 1 1 1502.9,957.36Z" style="fill:#00FF00" />
<path d="M1698.9,984.09A5,5 0 1 1 1688.9,984.09A5,5 0 1 1 1698.9,984.09Z" style="fill:#00FF00" />
<path d="M1895,1003.2A5,5 0 1 1 1885,1003.2A5,5 0 1 1 1895,1003.2Z" style="fill:#00FF00" />
<path d="M1900,126.03L1920,126.03" style="fill:none;stroke:#FF0000;stroke-width:4" />
<path d="M1915,126.03A5,5 0 1 1 1905,126.03A5,5 0 1 1 1915,126.03Z" style="fill:#FF0000" />
<text x="1792.7" y="-121.05" transform="scale(1, -1)"
	style="font-family:Liberation Serif;font-variant:normal;font-weight:normal;font-style:normal;font-size:24px">std::vector</text>
<path d="M1900,105.66L1920,105.66" style="fill:none;stroke:#0000FF;stroke-width:4" />
<path d="M1915,105.66A5,5 0 1 1 1905,105.66A5,5 0 1 1 1915,105.66Z" style="fill:#0000FF" />
<text x="1823.3" y="-100.69" transform="scale(1, -1)"
	style="font-family:Liberation Serif;font-variant:normal;font-weight:normal;font-style:normal;font-size:24px">std::list</text>
<path d="M1900,85.294L1920,85.294" style="fill:none;stroke:#00FF00;stroke-width:4" />
<path d="M1915,85.294A5,5 0 1 1 1905,85.294A5,5 0 1 1 1915,85.294Z" style="fill:#00FF00" />
<text x="1795.4" y="-80.319" transform="scale(1, -1)"
	style="font-family:Liberation Serif;font-variant:normal;font-weight:normal;font-style:normal;font-size:24px">std::deque</text>
</g>
</svg>
