<?xml version="1.0"?>
<!-- Generated by SVGo and Plotinum VG -->
<svg width="1920pt" height="1080pt" viewBox="0 0 1920 1080"
	xmlns="http://www.w3.org/2000/svg"
	xmlns:xlink="http://www.w3.org/1999/xlink">
<g transform="scale(1, -1) translate(0, -1080)">
<path d="M0,0L1920,0L1920,1080L0,1080Z" style="fill:#FFFFFF" />
<text x="698.28" y="-1040.9" transform="scale(1, -1)"
	style="font-family:Liberation Serif;font-variant:normal;font-weight:normal;font-style:normal;font-size:50px">random-insert - Log Scale</text>
<text x="890.27" y="-9.7559" transform="scale(1, -1)"
	style="font-family:Liberation Serif;font-variant:normal;font-weight:normal;font-style:normal;font-size:30px">Number of elements</text>
<text x="110.46" y="-39.727" transform="scale(1, -1)"
	style="font-family:Liberation Serif;font-variant:normal;font-weight:normal;font-style:normal;font-size:20px">10000</text>
<text x="305.41" y="-39.727" transform="scale(1, -1)"
	style="font-family:Liberation Serif;font-variant:normal;font-weight:normal;font-style:normal;font-size:20px">20000</text>
<text x="500.36" y="-39.727" transform="scale(1, -1)"
	style="font-family:Liberation Serif;font-variant:normal;font-weight:normal;font-style:normal;font-size:20px">30000</text>
<text x="695.31" y="-39.727" transform="scale(1, -1)"
	style="font-family:Liberation Serif;font-variant:normal;font-weight:normal;font-style:normal;font-size:20px">40000</text>
<text x="890.26" y="-39.727" transform="scale(1, -1)"
	style="font-family:Liberation Serif;font-variant:normal;font-weight:normal;font-style:normal;font-size:20px">50000</text>
<text x="1085.2" y="-39.727" transform="scale(1, -1)"
	style="font-family:Liberation Serif;font-variant:normal;font-weight:normal;font-style:normal;font-size:20px">60000</text>
<text x="1280.2" y="-39.727" transform="scale(1, -1)"
	style="font-family:Liberation Serif;font-variant:normal;font-weight:normal;font-style:normal;font-size:20px">70000</text>
<text x="1475.1" y="-39.727" transform="scale(1, -1)"
	style="font-family:Liberation Serif;font-variant:normal;font-weight:normal;font-style:normal;font-size:20px">80000</text>
<text x="1670.1" y="-39.727" transform="scale(1, -1)"
	style="font-family:Liberation Serif;font-variant:normal;font-weight:normal;font-style:normal;font-size:20px">90000</text>
<text x="1860" y="-39.727" transform="scale(1, -1)"
	style="font-family:Liberation Serif;font-variant:normal;font-weight:normal;font-style:normal;font-size:20px">100000</text>
<path d="M135.46,55.371L135.46,63.371" style="fill:none;stroke:#000000;stroke-width:0.5" />
<path d="M330.41,55.371L330.41,63.371" style="fill:none;stroke:#000000;stroke-width:0.5" />
<path d="M525.36,55.371L525.36,63.371" style="fill:none;stroke:#000000;stroke-width:0.5" />
<path d="M720.31,55.371L720.31,63.371" style="fill:none;stroke:#000000;stroke-width:0.5" />
<path d="M915.26,55.371L915.26,63.371" style="fill:none;stroke:#000000;stroke-width:0.5" />
<path d="M1110.2,55.371L1110.2,63.371" style="fill:none;stroke:#000000;stroke-width:0.5" />
<path d="M1305.2,55.371L1305.2,63.371" style="fill:none;stroke:#000000;stroke-width:0.5" />
<path d="M1500.1,55.371L1500.1,63.371" style="fill:none;stroke:#000000;stroke-width:0.5" />
<path d="M1695.1,55.371L1695.1,63.371" style="fill:none;stroke:#000000;stroke-width:0.5" />
<path d="M1890,55.371L1890,63.371" style="fill:none;stroke:#000000;stroke-width:0.5" />
<path d="M135.46,63.371L1890,63.371" style="fill:none;stroke:#000000;stroke-width:0.5" />
<g transform="rotate(90)">
<text x="485.87" y="23.467" transform="scale(1, -1)"
	style="font-family:Liberation Serif;font-variant:normal;font-weight:normal;font-style:normal;font-size:30px">log(μs + 1)</text>
</g>
<text x="49.712" y="-408.56" transform="scale(1, -1)"
	style="font-family:Liberation Serif;font-variant:normal;font-weight:normal;font-style:normal;font-size:20px">300000</text>
<text x="49.712" y="-815.04" transform="scale(1, -1)"
	style="font-family:Liberation Serif;font-variant:normal;font-weight:normal;font-style:normal;font-size:20px">900000</text>
<text x="39.712" y="-1004" transform="scale(1, -1)"
	style="font-family:Liberation Serif;font-variant:normal;font-weight:normal;font-style:normal;font-size:20px">1500000</text>
<path d="M114.71,413.13L122.71,413.13" style="fill:none;stroke:#000000;stroke-width:0.5" />
<path d="M114.71,819.61L122.71,819.61" style="fill:none;stroke:#000000;stroke-width:0.5" />
<path d="M114.71,1008.6L122.71,1008.6" style="fill:none;stroke:#000000;stroke-width:0.5" />
<path d="M118.71,669.59L122.71,669.59" style="fill:none;stroke:#000000;stroke-width:0.5" />
<path d="M118.71,926.06L122.71,926.06" style="fill:none;stroke:#000000;stroke-width:0.5" />
<path d="M122.71,80.11L122.71,1024.6" style="fill:none;stroke:#000000;stroke-width:0.5" />
<path d="M135.46,80.11L135.46,1024.6" style="fill:none;stroke:#808080;stroke-width:0.25" />
<path d="M330.41,80.11L330.41,1024.6" style="fill:none;stroke:#808080;stroke-width:0.25" />
<path d="M525.36,80.11L525.36,1024.6" style="fill:none;stroke:#808080;stroke-width:0.25" />
<path d="M720.31,80.11L720.31,1024.6" style="fill:none;stroke:#808080;stroke-width:0.25" />
<path d="M915.26,80.11L915.26,1024.6" style="fill:none;stroke:#808080;stroke-width:0.25" />
<path d="M1110.2,80.11L1110.2,1024.6" style="fill:none;stroke:#808080;stroke-width:0.25" />
<path d="M1305.2,80.11L1305.2,1024.6" style="fill:none;stroke:#808080;stroke-width:0.25" />
<path d="M1500.1,80.11L1500.1,1024.6" style="fill:none;stroke:#808080;stroke-width:0.25" />
<path d="M1695.1,80.11L1695.1,1024.6" style="fill:none;stroke:#808080;stroke-width:0.25" />
<path d="M1890,80.11L1890,1024.6" style="fill:none;stroke:#808080;stroke-width:0.25" />
<path d="M135.46,413.13L1890,413.13" style="fill:none;stroke:#808080;stroke-width:0.25" />
<path d="M135.46,819.61L1890,819.61" style="fill:none;stroke:#808080;stroke-width:0.25" />
<path d="M135.46,1008.6L1890,1008.6" style="fill:none;stroke:#808080;stroke-width:0.25" />
<path d="M135.46,175.24L330.41,442.52L525.36,539.22L720.31,651.93L915.26,739.04L1110.2,786.48L1305.2,856.88L1500.1,921.35L1695.1,935.23L1890,989.36" style="fill:none;stroke:#FF0000;stroke-width:4" />
<path d="M140.46,175.24A5,5 0 1 1 130.46,175.24A5,5 0 1 1 140.46,175.24Z" style="fill:#FF0000" />
<path d="M335.41,442.52A5,5 0 1 1 325.41,442.52A5,5 0 1 1 335.41,442.52Z" style="fill:#FF0000" />
<path d="M530.36,539.22A5,5 0 1 1 520.36,539.22A5,5 0 1 1 530.36,539.22Z" style="fill:#FF0000" />
<path d="M725.31,651.93A5,5 0 1 1 715.31,651.93A5,5 0 1 1 725.31,651.93Z" style="fill:#FF0000" />
<path d="M920.26,739.04A5,5 0 1 1 910.26,739.04A5,5 0 1 1 920.26,739.04Z" style="fill:#FF0000" />
<path d="M1115.2,786.48A5,5 0 1 1 1105.2,786.48A5,5 0 1 1 1115.2,786.48Z" style="fill:#FF0000" />
<path d="M1310.2,856.88A5,5 0 1 1 1300.2,856.88A5,5 0 1 1 1310.2,856.88Z" style="fill:#FF0000" />
<path d="M1505.1,921.35A5,5 0 1 1 1495.1,921.35A5,5 0 1 1 1505.1,921.35Z" style="fill:#FF0000" />
<path d="M1700.1,935.23A5,5 0 1 1 1690.1,935.23A5,5 0 1 1 1700.1,935.23Z" style="fill:#FF0000" />
<path d="M1895,989.36A5,5 0 1 1 1885,989.36A5,5 0 1 1 1895,989.36Z" style="fill:#FF0000" />
<path d="M135.46,80.11L330.41,319.74L525.36,508.82L720.31,599.02L915.26,714.87L1110.2,790.19L1305.2,823.91L1500.1,896.09L1695.1,935.02L1890,976.75" style="fill:none;stroke:#0000FF;stroke-width:4" />
<path d="M140.46,80.11A5,5 0 1 1 130.46,80.11A5,5 0 1 1 140.46,80.11Z" style="fill:#0000FF" />
<path d="M335.41,319.74A5,5 0 1 1 325.41,319.74A5,5 0 1 1 335.41,319.74Z" style="fill:#0000FF" />
<path d="M530.36,508.82A5,5 0 1 1 520.36,508.82A5,5 0 1 1 530.36,508.82Z" style="fill:#0000FF" />
<path d="M725.31,599.02A5,5 0 1 1 715.31,599.02A5,5 0 1 1 725.31,599.02Z" style="fill:#0000FF" />
<path d="M920.26,714.87A5,5 0 1 1 910.26,714.87A5,5 0 1 1 920.26,714.87Z" style="fill:#0000FF" />
<path d="M1115.2,790.19A5,5 0 1 1 1105.2,790.19A5,5 0 1 1 1115.2,790.19Z" style="fill:#0000FF" />
<path d="M1310.2,823.91A5,5 0 1 1 1300.2,823.91A5,5 0 1 1 1310.2,823.91Z" style="fill:#0000FF" />
<path d="M1505.1,896.09A5,5 0 1 1 1495.1,896.09A5,5 0 1 1 1505.1,896.09Z" style="fill:#0000FF" />
<path d="M1700.1,935.02A5,5 0 1 1 1690.1,935.02A5,5 0 1 1 1700.1,935.02Z" style="fill:#0000FF" />
<path d="M1895,976.75A5,5 0 1 1 1885,976.75A5,5 0 1 1 1895,976.75Z" style="fill:#0000FF" />
<path d="M135.46,96.5L330.41,310.59L525.36,505.2L720.31,592.25L915.26,700.21L1110.2,753.8L1305.2,786.04L1500.1,843.45L1695.1,880.62L1890,952.55" style="fill:none;stroke:#00FF00;stroke-width:4" />
<path d="M140.46,96.5A5,5 0 1 1 130.46,96.5A5,5 0 1 1 140.46,96.5Z" style="fill:#00FF00" />
<path d="M335.41,310.59A5,5 0 1 1 325.41,310.59A5,5 0 1 1 335.41,310.59Z" style="fill:#00FF00" />
<path d="M530.36,505.2A5,5 0 1 1 520.36,505.2A5,5 0 1 1 530.36,505.2Z" style="fill:#00FF00" />
<path d="M725.31,592.25A5,5 0 1 1 715.31,592.25A5,5 0 1 1 725.31,592.25Z" style="fill:#00FF00" />
<path d="M920.26,700.21A5,5 0 1 1 910.26,700.21A5,5 0 1 1 920.26,700.21Z" style="fill:#00FF00" />
<path d="M1115.2,753.8A5,5 0 1 1 1105.2,753.8A5,5 0 1 1 1115.2,753.8Z" style="fill:#00FF00" />
<path d="M1310.2,786.04A5,5 0 1 1 1300.2,786.04A5,5 0 1 1 1310.2,786.04Z" style="fill:#00FF00" />
<path d="M1505.1,843.45A5,5 0 1 1 1495.1,843.45A5,5 0 1 1 1505.1,843.45Z" style="fill:#00FF00" />
<path d="M1700.1,880.62A5,5 0 1 1 1690.1,880.62A5,5 0 1 1 1700.1,880.62Z" style="fill:#00FF00" />
<path d="M1895,952.55A5,5 0 1 1 1885,952.55A5,5 0 1 1 1895,952.55Z" style="fill:#00FF00" />
<path d="M1900,126.03L1920,126.03" style="fill:none;stroke:#FF0000;stroke-width:4" />
<path d="M1915,126.03A5,5 0 1 1 1905,126.03A5,5 0 1 1 1915,126.03Z" style="fill:#FF0000" />
<text x="1823.3" y="-121.05" transform="scale(1, -1)"
	style="font-family:Liberation Serif;font-variant:normal;font-weight:normal;font-style:normal;font-size:24px">std::list</text>
<path d="M1900,105.66L1920,105.66" style="fill:none;stroke:#0000FF;stroke-width:4" />
<path d="M1915,105.66A5,5 0 1 1 1905,105.66A5,5 0 1 1 1915,105.66Z" style="fill:#0000FF" />
<text x="1795.4" y="-100.69" transform="scale(1, -1)"
	style="font-family:Liberation Serif;font-variant:normal;font-weight:normal;font-style:normal;font-size:24px">std::deque</text>
<path d="M1900,85.294L1920,85.294" style="fill:none;stroke:#00FF00;stroke-width:4" />
<path d="M1915,85.294A5,5 0 1 1 1905,85.294A5,5 0 1 1 1915,85.294Z" style="fill:#00FF00" />
<text x="1792.7" y="-80.319" transform="scale(1, -1)"
	style="font-family:Liberation Serif;font-variant:normal;font-weight:normal;font-style:normal;font-size:24px">std::vector</text>
</g>
</svg>
