<?xml version="1.0"?>
<!-- Generated by SVGo and Plotinum VG -->
<svg width="1920pt" height="1080pt" viewBox="0 0 1920 1080"
	xmlns="http://www.w3.org/2000/svg"
	xmlns:xlink="http://www.w3.org/1999/xlink">
<g transform="scale(1, -1) translate(0, -1080)">
<path d="M0,0L1920,0L1920,1080L0,1080Z" style="fill:#FFFFFF" />
<text x="819.77" y="-1040.9" transform="scale(1, -1)"
	style="font-family:Liberation Serif;font-variant:normal;font-weight:normal;font-style:normal;font-size:50px">random-insert</text>
<text x="895.27" y="-9.7559" transform="scale(1, -1)"
	style="font-family:Liberation Serif;font-variant:normal;font-weight:normal;font-style:normal;font-size:30px">Number of elements</text>
<text x="120.46" y="-39.727" transform="scale(1, -1)"
	style="font-family:Liberation Serif;font-variant:normal;font-weight:normal;font-style:normal;font-size:20px">10000</text>
<text x="314.3" y="-39.727" transform="scale(1, -1)"
	style="font-family:Liberation Serif;font-variant:normal;font-weight:normal;font-style:normal;font-size:20px">20000</text>
<text x="508.14" y="-39.727" transform="scale(1, -1)"
	style="font-family:Liberation Serif;font-variant:normal;font-weight:normal;font-style:normal;font-size:20px">30000</text>
<text x="701.97" y="-39.727" transform="scale(1, -1)"
	style="font-family:Liberation Serif;font-variant:normal;font-weight:normal;font-style:normal;font-size:20px">40000</text>
<text x="895.81" y="-39.727" transform="scale(1, -1)"
	style="font-family:Liberation Serif;font-variant:normal;font-weight:normal;font-style:normal;font-size:20px">50000</text>
<text x="1089.6" y="-39.727" transform="scale(1, -1)"
	style="font-family:Liberation Serif;font-variant:normal;font-weight:normal;font-style:normal;font-size:20px">60000</text>
<text x="1283.5" y="-39.727" transform="scale(1, -1)"
	style="font-family:Liberation Serif;font-variant:normal;font-weight:normal;font-style:normal;font-size:20px">70000</text>
<text x="1477.3" y="-39.727" transform="scale(1, -1)"
	style="font-family:Liberation Serif;font-variant:normal;font-weight:normal;font-style:normal;font-size:20px">80000</text>
<text x="1671.2" y="-39.727" transform="scale(1, -1)"
	style="font-family:Liberation Serif;font-variant:normal;font-weight:normal;font-style:normal;font-size:20px">90000</text>
<text x="1860" y="-39.727" transform="scale(1, -1)"
	style="font-family:Liberation Serif;font-variant:normal;font-weight:normal;font-style:normal;font-size:20px">100000</text>
<path d="M145.46,55.371L145.46,63.371" style="fill:none;stroke:#000000;stroke-width:0.5" />
<path d="M339.3,55.371L339.3,63.371" style="fill:none;stroke:#000000;stroke-width:0.5" />
<path d="M533.14,55.371L533.14,63.371" style="fill:none;stroke:#000000;stroke-width:0.5" />
<path d="M726.97,55.371L726.97,63.371" style="fill:none;stroke:#000000;stroke-width:0.5" />
<path d="M920.81,55.371L920.81,63.371" style="fill:none;stroke:#000000;stroke-width:0.5" />
<path d="M1114.6,55.371L1114.6,63.371" style="fill:none;stroke:#000000;stroke-width:0.5" />
<path d="M1308.5,55.371L1308.5,63.371" style="fill:none;stroke:#000000;stroke-width:0.5" />
<path d="M1502.3,55.371L1502.3,63.371" style="fill:none;stroke:#000000;stroke-width:0.5" />
<path d="M1696.2,55.371L1696.2,63.371" style="fill:none;stroke:#000000;stroke-width:0.5" />
<path d="M1890,55.371L1890,63.371" style="fill:none;stroke:#000000;stroke-width:0.5" />
<path d="M145.46,63.371L1890,63.371" style="fill:none;stroke:#000000;stroke-width:0.5" />
<g transform="rotate(90)">
<text x="538.49" y="23.467" transform="scale(1, -1)"
	style="font-family:Liberation Serif;font-variant:normal;font-weight:normal;font-style:normal;font-size:30px">μs</text>
</g>
<text x="49.712" y="-179.62" transform="scale(1, -1)"
	style="font-family:Liberation Serif;font-variant:normal;font-weight:normal;font-style:normal;font-size:20px">2000000</text>
<text x="49.712" y="-555.58" transform="scale(1, -1)"
	style="font-family:Liberation Serif;font-variant:normal;font-weight:normal;font-style:normal;font-size:20px">6000000</text>
<text x="39.712" y="-931.54" transform="scale(1, -1)"
	style="font-family:Liberation Serif;font-variant:normal;font-weight:normal;font-style:normal;font-size:20px">10000000</text>
<path d="M124.71,184.19L132.71,184.19" style="fill:none;stroke:#000000;stroke-width:0.5" />
<path d="M124.71,560.15L132.71,560.15" style="fill:none;stroke:#000000;stroke-width:0.5" />
<path d="M124.71,936.11L132.71,936.11" style="fill:none;stroke:#000000;stroke-width:0.5" />
<path d="M128.71,90.202L132.71,90.202" style="fill:none;stroke:#000000;stroke-width:0.5" />
<path d="M128.71,278.18L132.71,278.18" style="fill:none;stroke:#000000;stroke-width:0.5" />
<path d="M128.71,372.17L132.71,372.17" style="fill:none;stroke:#000000;stroke-width:0.5" />
<path d="M128.71,466.16L132.71,466.16" style="fill:none;stroke:#000000;stroke-width:0.5" />
<path d="M128.71,654.14L132.71,654.14" style="fill:none;stroke:#000000;stroke-width:0.5" />
<path d="M128.71,748.13L132.71,748.13" style="fill:none;stroke:#000000;stroke-width:0.5" />
<path d="M128.71,842.12L132.71,842.12" style="fill:none;stroke:#000000;stroke-width:0.5" />
<path d="M132.71,80.11L132.71,1024.6" style="fill:none;stroke:#000000;stroke-width:0.5" />
<path d="M145.46,80.11L145.46,1024.6" style="fill:none;stroke:#808080;stroke-width:0.25" />
<path d="M339.3,80.11L339.3,1024.6" style="fill:none;stroke:#808080;stroke-width:0.25" />
<path d="M533.14,80.11L533.14,1024.6" style="fill:none;stroke:#808080;stroke-width:0.25" />
<path d="M726.97,80.11L726.97,1024.6" style="fill:none;stroke:#808080;stroke-width:0.25" />
<path d="M920.81,80.11L920.81,1024.6" style="fill:none;stroke:#808080;stroke-width:0.25" />
<path d="M1114.6,80.11L1114.6,1024.6" style="fill:none;stroke:#808080;stroke-width:0.25" />
<path d="M1308.5,80.11L1308.5,1024.6" style="fill:none;stroke:#808080;stroke-width:0.25" />
<path d="M1502.3,80.11L1502.3,1024.6" style="fill:none;stroke:#808080;stroke-width:0.25" />
<path d="M1696.2,80.11L1696.2,1024.6" style="fill:none;stroke:#808080;stroke-width:0.25" />
<path d="M1890,80.11L1890,1024.6" style="fill:none;stroke:#808080;stroke-width:0.25" />
<path d="M145.46,184.19L1890,184.19" style="fill:none;stroke:#808080;stroke-width:0.25" />
<path d="M145.46,560.15L1890,560.15" style="fill:none;stroke:#808080;stroke-width:0.25" />
<path d="M145.46,936.11L1890,936.11" style="fill:none;stroke:#808080;stroke-width:0.25" />
<path d="M145.46,80.147L339.3,155.16L533.14,209.29L726.97,279.21L920.81,355.04L1114.6,422.17L1308.5,488.8L1502.3,569.98L1696.2,647.95L1890,716.92" style="fill:none;stroke:#FF0000;stroke-width:4" />
<path d="M150.46,80.147A5,5 0 1 1 140.46,80.147A5,5 0 1 1 150.46,80.147Z" style="fill:#FF0000" />
<path d="M344.3,155.16A5,5 0 1 1 334.3,155.16A5,5 0 1 1 344.3,155.16Z" style="fill:#FF0000" />
<path d="M538.14,209.29A5,5 0 1 1 528.14,209.29A5,5 0 1 1 538.14,209.29Z" style="fill:#FF0000" />
<path d="M731.97,279.21A5,5 0 1 1 721.97,279.21A5,5 0 1 1 731.97,279.21Z" style="fill:#FF0000" />
<path d="M925.81,355.04A5,5 0 1 1 915.81,355.04A5,5 0 1 1 925.81,355.04Z" style="fill:#FF0000" />
<path d="M1119.6,422.17A5,5 0 1 1 1109.6,422.17A5,5 0 1 1 1119.6,422.17Z" style="fill:#FF0000" />
<path d="M1313.5,488.8A5,5 0 1 1 1303.5,488.8A5,5 0 1 1 1313.5,488.8Z" style="fill:#FF0000" />
<path d="M1507.3,569.98A5,5 0 1 1 1497.3,569.98A5,5 0 1 1 1507.3,569.98Z" style="fill:#FF0000" />
<path d="M1701.2,647.95A5,5 0 1 1 1691.2,647.95A5,5 0 1 1 1701.2,647.95Z" style="fill:#FF0000" />
<path d="M1895,716.92A5,5 0 1 1 1885,716.92A5,5 0 1 1 1895,716.92Z" style="fill:#FF0000" />
<path d="M145.46,80.11L339.3,167.55L533.14,240.64L726.97,303.05L920.81,402.24L1114.6,474.36L1308.5,554.74L1502.3,637.5L1696.2,695.74L1890,818.55" style="fill:none;stroke:#0000FF;stroke-width:4" />
<path d="M150.46,80.11A5,5 0 1 1 140.46,80.11A5,5 0 1 1 150.46,80.11Z" style="fill:#0000FF" />
<path d="M344.3,167.55A5,5 0 1 1 334.3,167.55A5,5 0 1 1 344.3,167.55Z" style="fill:#0000FF" />
<path d="M538.14,240.64A5,5 0 1 1 528.14,240.64A5,5 0 1 1 538.14,240.64Z" style="fill:#0000FF" />
<path d="M731.97,303.05A5,5 0 1 1 721.97,303.05A5,5 0 1 1 731.97,303.05Z" style="fill:#0000FF" />
<path d="M925.81,402.24A5,5 0 1 1 915.81,402.24A5,5 0 1 1 925.81,402.24Z" style="fill:#0000FF" />
<path d="M1119.6,474.36A5,5 0 1 1 1109.6,474.36A5,5 0 1 1 1119.6,474.36Z" style="fill:#0000FF" />
<path d="M1313.5,554.74A5,5 0 1 1 1303.5,554.74A5,5 0 1 1 1313.5,554.74Z" style="fill:#0000FF" />
<path d="M1507.3,637.5A5,5 0 1 1 1497.3,637.5A5,5 0 1 1 1507.3,637.5Z" style="fill:#0000FF" />
<path d="M1701.2,695.74A5,5 0 1 1 1691.2,695.74A5,5 0 1 1 1701.2,695.74Z" style="fill:#0000FF" />
<path d="M1895,818.55A5,5 0 1 1 1885,818.55A5,5 0 1 1 1895,818.55Z" style="fill:#0000FF" />
<path d="M145.46,84.244L339.3,157.25L533.14,272.7L726.97,367.23L920.81,430.55L1114.6,515.89L1308.5,616.61L1502.3,718.43L1696.2,813.05L1890,931.14" style="fill:none;stroke:#00FF00;stroke-width:4" />
<path d="M150.46,84.244A5,5 0 1 1 140.46,84.244A5,5 0 1 1 150.46,84.244Z" style="fill:#00FF00" />
<path d="M344.3,157.25A5,5 0 1 1 334.3,157.25A5,5 0 1 1 344.3,157.25Z" style="fill:#00FF00" />
<path d="M538.14,272.7A5,5 0 1 1 528.14,272.7A5,5 0 1 1 538.14,272.7Z" style="fill:#00FF00" />
<path d="M731.97,367.23A5,5 0 1 1 721.97,367.23A5,5 0 1 1 731.97,367.23Z" style="fill:#00FF00" />
<path d="M925.81,430.55A5,5 0 1 1 915.81,430.55A5,5 0 1 1 925.81,430.55Z" style="fill:#00FF00" />
<path d="M1119.6,515.89A5,5 0 1 1 1109.6,515.89A5,5 0 1 1 1119.6,515.89Z" style="fill:#00FF00" />
<path d="M1313.5,616.61A5,5 0 1 1 1303.5,616.61A5,5 0 1 1 1313.5,616.61Z" style="fill:#00FF00" />
<path d="M1507.3,718.43A5,5 0 1 1 1497.3,718.43A5,5 0 1 1 1507.3,718.43Z" style="fill:#00FF00" />
<path d="M1701.2,813.05A5,5 0 1 1 1691.2,813.05A5,5 0 1 1 1701.2,813.05Z" style="fill:#00FF00" />
<path d="M1895,931.14A5,5 0 1 1 1885,931.14A5,5 0 1 1 1895,931.14Z" style="fill:#00FF00" />
<path d="M1900,126.03L1920,126.03" style="fill:none;stroke:#FF0000;stroke-width:4" />
<path d="M1915,126.03A5,5 0 1 1 1905,126.03A5,5 0 1 1 1915,126.03Z" style="fill:#FF0000" />
<text x="1823.3" y="-121.05" transform="scale(1, -1)"
	style="font-family:Liberation Serif;font-variant:normal;font-weight:normal;font-style:normal;font-size:24px">std::list</text>
<path d="M1900,105.66L1920,105.66" style="fill:none;stroke:#0000FF;stroke-width:4" />
<path d="M1915,105.66A5,5 0 1 1 1905,105.66A5,5 0 1 1 1915,105.66Z" style="fill:#0000FF" />
<text x="1795.4" y="-100.69" transform="scale(1, -1)"
	style="font-family:Liberation Serif;font-variant:normal;font-weight:normal;font-style:normal;font-size:24px">std::deque</text>
<path d="M1900,85.294L1920,85.294" style="fill:none;stroke:#00FF00;stroke-width:4" />
<path d="M1915,85.294A5,5 0 1 1 1905,85.294A5,5 0 1 1 1915,85.294Z" style="fill:#00FF00" />
<text x="1792.7" y="-80.319" transform="scale(1, -1)"
	style="font-family:Liberation Serif;font-variant:normal;font-weight:normal;font-style:normal;font-size:24px">std::vector</text>
</g>
</svg>
