<?xml version="1.0"?>
<!-- Generated by SVGo and Plotinum VG -->
<svg width="1920pt" height="1080pt" viewBox="0 0 1920 1080"
	xmlns="http://www.w3.org/2000/svg"
	xmlns:xlink="http://www.w3.org/1999/xlink">
<g transform="scale(1, -1) translate(0, -1080)">
<path d="M0,0L1920,0L1920,1080L0,1080Z" style="fill:#FFFFFF" />
<text x="819.77" y="-1040.9" transform="scale(1, -1)"
	style="font-family:Liberation Serif;font-variant:normal;font-weight:normal;font-style:normal;font-size:50px">random-insert</text>
<text x="895.27" y="-9.7559" transform="scale(1, -1)"
	style="font-family:Liberation Serif;font-variant:normal;font-weight:normal;font-style:normal;font-size:30px">Number of elements</text>
<text x="120.46" y="-39.727" transform="scale(1, -1)"
	style="font-family:Liberation Serif;font-variant:normal;font-weight:normal;font-style:normal;font-size:20px">10000</text>
<text x="314.3" y="-39.727" transform="scale(1, -1)"
	style="font-family:Liberation Serif;font-variant:normal;font-weight:normal;font-style:normal;font-size:20px">20000</text>
<text x="508.14" y="-39.727" transform="scale(1, -1)"
	style="font-family:Liberation Serif;font-variant:normal;font-weight:normal;font-style:normal;font-size:20px">30000</text>
<text x="701.97" y="-39.727" transform="scale(1, -1)"
	style="font-family:Liberation Serif;font-variant:normal;font-weight:normal;font-style:normal;font-size:20px">40000</text>
<text x="895.81" y="-39.727" transform="scale(1, -1)"
	style="font-family:Liberation Serif;font-variant:normal;font-weight:normal;font-style:normal;font-size:20px">50000</text>
<text x="1089.6" y="-39.727" transform="scale(1, -1)"
	style="font-family:Liberation Serif;font-variant:normal;font-weight:normal;font-style:normal;font-size:20px">60000</text>
<text x="1283.5" y="-39.727" transform="scale(1, -1)"
	style="font-family:Liberation Serif;font-variant:normal;font-weight:normal;font-style:normal;font-size:20px">70000</text>
<text x="1477.3" y="-39.727" transform="scale(1, -1)"
	style="font-family:Liberation Serif;font-variant:normal;font-weight:normal;font-style:normal;font-size:20px">80000</text>
<text x="1671.2" y="-39.727" transform="scale(1, -1)"
	style="font-family:Liberation Serif;font-variant:normal;font-weight:normal;font-style:normal;font-size:20px">90000</text>
<text x="1860" y="-39.727" transform="scale(1, -1)"
	style="font-family:Liberation Serif;font-variant:normal;font-weight:normal;font-style:normal;font-size:20px">100000</text>
<path d="M145.46,55.371L145.46,63.371" style="fill:none;stroke:#000000;stroke-width:0.5" />
<path d="M339.3,55.371L339.3,63.371" style="fill:none;stroke:#000000;stroke-width:0.5" />
<path d="M533.14,55.371L533.14,63.371" style="fill:none;stroke:#000000;stroke-width:0.5" />
<path d="M726.97,55.371L726.97,63.371" style="fill:none;stroke:#000000;stroke-width:0.5" />
<path d="M920.81,55.371L920.81,63.371" style="fill:none;stroke:#000000;stroke-width:0.5" />
<path d="M1114.6,55.371L1114.6,63.371" style="fill:none;stroke:#000000;stroke-width:0.5" />
<path d="M1308.5,55.371L1308.5,63.371" style="fill:none;stroke:#000000;stroke-width:0.5" />
<path d="M1502.3,55.371L1502.3,63.371" style="fill:none;stroke:#000000;stroke-width:0.5" />
<path d="M1696.2,55.371L1696.2,63.371" style="fill:none;stroke:#000000;stroke-width:0.5" />
<path d="M1890,55.371L1890,63.371" style="fill:none;stroke:#000000;stroke-width:0.5" />
<path d="M145.46,63.371L1890,63.371" style="fill:none;stroke:#000000;stroke-width:0.5" />
<g transform="rotate(90)">
<text x="538.49" y="23.467" transform="scale(1, -1)"
	style="font-family:Liberation Serif;font-variant:normal;font-weight:normal;font-style:normal;font-size:30px">μs</text>
</g>
<text x="49.712" y="-184.97" transform="scale(1, -1)"
	style="font-family:Liberation Serif;font-variant:normal;font-weight:normal;font-style:normal;font-size:20px">2000000</text>
<text x="49.712" y="-552.6" transform="scale(1, -1)"
	style="font-family:Liberation Serif;font-variant:normal;font-weight:normal;font-style:normal;font-size:20px">6000000</text>
<text x="39.712" y="-920.23" transform="scale(1, -1)"
	style="font-family:Liberation Serif;font-variant:normal;font-weight:normal;font-style:normal;font-size:20px">10000000</text>
<path d="M124.71,189.54L132.71,189.54" style="fill:none;stroke:#000000;stroke-width:0.5" />
<path d="M124.71,557.17L132.71,557.17" style="fill:none;stroke:#000000;stroke-width:0.5" />
<path d="M124.71,924.8L132.71,924.8" style="fill:none;stroke:#000000;stroke-width:0.5" />
<path d="M128.71,97.632L132.71,97.632" style="fill:none;stroke:#000000;stroke-width:0.5" />
<path d="M128.71,281.45L132.71,281.45" style="fill:none;stroke:#000000;stroke-width:0.5" />
<path d="M128.71,373.35L132.71,373.35" style="fill:none;stroke:#000000;stroke-width:0.5" />
<path d="M128.71,465.26L132.71,465.26" style="fill:none;stroke:#000000;stroke-width:0.5" />
<path d="M128.71,649.07L132.71,649.07" style="fill:none;stroke:#000000;stroke-width:0.5" />
<path d="M128.71,740.98L132.71,740.98" style="fill:none;stroke:#000000;stroke-width:0.5" />
<path d="M128.71,832.89L132.71,832.89" style="fill:none;stroke:#000000;stroke-width:0.5" />
<path d="M128.71,1016.7L132.71,1016.7" style="fill:none;stroke:#000000;stroke-width:0.5" />
<path d="M132.71,80.11L132.71,1024.6" style="fill:none;stroke:#000000;stroke-width:0.5" />
<path d="M145.46,80.11L145.46,1024.6" style="fill:none;stroke:#808080;stroke-width:0.25" />
<path d="M339.3,80.11L339.3,1024.6" style="fill:none;stroke:#808080;stroke-width:0.25" />
<path d="M533.14,80.11L533.14,1024.6" style="fill:none;stroke:#808080;stroke-width:0.25" />
<path d="M726.97,80.11L726.97,1024.6" style="fill:none;stroke:#808080;stroke-width:0.25" />
<path d="M920.81,80.11L920.81,1024.6" style="fill:none;stroke:#808080;stroke-width:0.25" />
<path d="M1114.6,80.11L1114.6,1024.6" style="fill:none;stroke:#808080;stroke-width:0.25" />
<path d="M1308.5,80.11L1308.5,1024.6" style="fill:none;stroke:#808080;stroke-width:0.25" />
<path d="M1502.3,80.11L1502.3,1024.6" style="fill:none;stroke:#808080;stroke-width:0.25" />
<path d="M1696.2,80.11L1696.2,1024.6" style="fill:none;stroke:#808080;stroke-width:0.25" />
<path d="M1890,80.11L1890,1024.6" style="fill:none;stroke:#808080;stroke-width:0.25" />
<path d="M145.46,189.54L1890,189.54" style="fill:none;stroke:#808080;stroke-width:0.25" />
<path d="M145.46,557.17L1890,557.17" style="fill:none;stroke:#808080;stroke-width:0.25" />
<path d="M145.46,924.8L1890,924.8" style="fill:none;stroke:#808080;stroke-width:0.25" />
<path d="M145.46,80.11L339.3,150.31L533.14,209.5L726.97,265.32L920.81,345.59L1114.6,410.18L1308.5,498.57L1502.3,559.38L1696.2,613.54L1890,707.54" style="fill:none;stroke:#FF0000;stroke-width:4" />
<path d="M150.46,80.11A5,5 0 1 1 140.46,80.11A5,5 0 1 1 150.46,80.11Z" style="fill:#FF0000" />
<path d="M344.3,150.31A5,5 0 1 1 334.3,150.31A5,5 0 1 1 344.3,150.31Z" style="fill:#FF0000" />
<path d="M538.14,209.5A5,5 0 1 1 528.14,209.5A5,5 0 1 1 538.14,209.5Z" style="fill:#FF0000" />
<path d="M731.97,265.32A5,5 0 1 1 721.97,265.32A5,5 0 1 1 731.97,265.32Z" style="fill:#FF0000" />
<path d="M925.81,345.59A5,5 0 1 1 915.81,345.59A5,5 0 1 1 925.81,345.59Z" style="fill:#FF0000" />
<path d="M1119.6,410.18A5,5 0 1 1 1109.6,410.18A5,5 0 1 1 1119.6,410.18Z" style="fill:#FF0000" />
<path d="M1313.5,498.57A5,5 0 1 1 1303.5,498.57A5,5 0 1 1 1313.5,498.57Z" style="fill:#FF0000" />
<path d="M1507.3,559.38A5,5 0 1 1 1497.3,559.38A5,5 0 1 1 1507.3,559.38Z" style="fill:#FF0000" />
<path d="M1701.2,613.54A5,5 0 1 1 1691.2,613.54A5,5 0 1 1 1701.2,613.54Z" style="fill:#FF0000" />
<path d="M1895,707.54A5,5 0 1 1 1885,707.54A5,5 0 1 1 1895,707.54Z" style="fill:#FF0000" />
<path d="M145.46,86.708L339.3,170.66L533.14,245.32L726.97,338.62L920.81,425.21L1114.6,502.95L1308.5,576.37L1502.3,684.99L1696.2,737.92L1890,840.25" style="fill:none;stroke:#0000FF;stroke-width:4" />
<path d="M150.46,86.708A5,5 0 1 1 140.46,86.708A5,5 0 1 1 150.46,86.708Z" style="fill:#0000FF" />
<path d="M344.3,170.66A5,5 0 1 1 334.3,170.66A5,5 0 1 1 344.3,170.66Z" style="fill:#0000FF" />
<path d="M538.14,245.32A5,5 0 1 1 528.14,245.32A5,5 0 1 1 538.14,245.32Z" style="fill:#0000FF" />
<path d="M731.97,338.62A5,5 0 1 1 721.97,338.62A5,5 0 1 1 731.97,338.62Z" style="fill:#0000FF" />
<path d="M925.81,425.21A5,5 0 1 1 915.81,425.21A5,5 0 1 1 925.81,425.21Z" style="fill:#0000FF" />
<path d="M1119.6,502.95A5,5 0 1 1 1109.6,502.95A5,5 0 1 1 1119.6,502.95Z" style="fill:#0000FF" />
<path d="M1313.5,576.37A5,5 0 1 1 1303.5,576.37A5,5 0 1 1 1313.5,576.37Z" style="fill:#0000FF" />
<path d="M1507.3,684.99A5,5 0 1 1 1497.3,684.99A5,5 0 1 1 1507.3,684.99Z" style="fill:#0000FF" />
<path d="M1701.2,737.92A5,5 0 1 1 1691.2,737.92A5,5 0 1 1 1701.2,737.92Z" style="fill:#0000FF" />
<path d="M1895,840.25A5,5 0 1 1 1885,840.25A5,5 0 1 1 1895,840.25Z" style="fill:#0000FF" />
<path d="M145.46,94.813L339.3,187.13L533.14,269.46L726.97,384.89L920.81,463.07L1114.6,556.54L1308.5,653.81L1502.3,700.28L1696.2,822.46L1890,932" style="fill:none;stroke:#00FF00;stroke-width:4" />
<path d="M150.46,94.813A5,5 0 1 1 140.46,94.813A5,5 0 1 1 150.46,94.813Z" style="fill:#00FF00" />
<path d="M344.3,187.13A5,5 0 1 1 334.3,187.13A5,5 0 1 1 344.3,187.13Z" style="fill:#00FF00" />
<path d="M538.14,269.46A5,5 0 1 1 528.14,269.46A5,5 0 1 1 538.14,269.46Z" style="fill:#00FF00" />
<path d="M731.97,384.89A5,5 0 1 1 721.97,384.89A5,5 0 1 1 731.97,384.89Z" style="fill:#00FF00" />
<path d="M925.81,463.07A5,5 0 1 1 915.81,463.07A5,5 0 1 1 925.81,463.07Z" style="fill:#00FF00" />
<path d="M1119.6,556.54A5,5 0 1 1 1109.6,556.54A5,5 0 1 1 1119.6,556.54Z" style="fill:#00FF00" />
<path d="M1313.5,653.81A5,5 0 1 1 1303.5,653.81A5,5 0 1 1 1313.5,653.81Z" style="fill:#00FF00" />
<path d="M1507.3,700.28A5,5 0 1 1 1497.3,700.28A5,5 0 1 1 1507.3,700.28Z" style="fill:#00FF00" />
<path d="M1701.2,822.46A5,5 0 1 1 1691.2,822.46A5,5 0 1 1 1701.2,822.46Z" style="fill:#00FF00" />
<path d="M1895,932A5,5 0 1 1 1885,932A5,5 0 1 1 1895,932Z" style="fill:#00FF00" />
<path d="M1900,126.03L1920,126.03" style="fill:none;stroke:#FF0000;stroke-width:4" />
<path d="M1915,126.03A5,5 0 1 1 1905,126.03A5,5 0 1 1 1915,126.03Z" style="fill:#FF0000" />
<text x="1823.3" y="-121.05" transform="scale(1, -1)"
	style="font-family:Liberation Serif;font-variant:normal;font-weight:normal;font-style:normal;font-size:24px">std::list</text>
<path d="M1900,105.66L1920,105.66" style="fill:none;stroke:#0000FF;stroke-width:4" />
<path d="M1915,105.66A5,5 0 1 1 1905,105.66A5,5 0 1 1 1915,105.66Z" style="fill:#0000FF" />
<text x="1795.4" y="-100.69" transform="scale(1, -1)"
	style="font-family:Liberation Serif;font-variant:normal;font-weight:normal;font-style:normal;font-size:24px">std::deque</text>
<path d="M1900,85.294L1920,85.294" style="fill:none;stroke:#00FF00;stroke-width:4" />
<path d="M1915,85.294A5,5 0 1 1 1905,85.294A5,5 0 1 1 1915,85.294Z" style="fill:#00FF00" />
<text x="1792.7" y="-80.319" transform="scale(1, -1)"
	style="font-family:Liberation Serif;font-variant:normal;font-weight:normal;font-style:normal;font-size:24px">std::vector</text>
</g>
</svg>
