<?xml version="1.0"?>
<!-- Generated by SVGo and Plotinum VG -->
<svg width="1920pt" height="1080pt" viewBox="0 0 1920 1080"
	xmlns="http://www.w3.org/2000/svg"
	xmlns:xlink="http://www.w3.org/1999/xlink">
<g transform="scale(1, -1) translate(0, -1080)">
<path d="M0,0L1920,0L1920,1080L0,1080Z" style="fill:#FFFFFF" />
<text x="819.77" y="-1040.9" transform="scale(1, -1)"
	style="font-family:Liberation Serif;font-variant:normal;font-weight:normal;font-style:normal;font-size:50px">random-insert</text>
<text x="890.27" y="-9.7559" transform="scale(1, -1)"
	style="font-family:Liberation Serif;font-variant:normal;font-weight:normal;font-style:normal;font-size:30px">Number of elements</text>
<text x="110.46" y="-39.727" transform="scale(1, -1)"
	style="font-family:Liberation Serif;font-variant:normal;font-weight:normal;font-style:normal;font-size:20px">10000</text>
<text x="305.41" y="-39.727" transform="scale(1, -1)"
	style="font-family:Liberation Serif;font-variant:normal;font-weight:normal;font-style:normal;font-size:20px">20000</text>
<text x="500.36" y="-39.727" transform="scale(1, -1)"
	style="font-family:Liberation Serif;font-variant:normal;font-weight:normal;font-style:normal;font-size:20px">30000</text>
<text x="695.31" y="-39.727" transform="scale(1, -1)"
	style="font-family:Liberation Serif;font-variant:normal;font-weight:normal;font-style:normal;font-size:20px">40000</text>
<text x="890.26" y="-39.727" transform="scale(1, -1)"
	style="font-family:Liberation Serif;font-variant:normal;font-weight:normal;font-style:normal;font-size:20px">50000</text>
<text x="1085.2" y="-39.727" transform="scale(1, -1)"
	style="font-family:Liberation Serif;font-variant:normal;font-weight:normal;font-style:normal;font-size:20px">60000</text>
<text x="1280.2" y="-39.727" transform="scale(1, -1)"
	style="font-family:Liberation Serif;font-variant:normal;font-weight:normal;font-style:normal;font-size:20px">70000</text>
<text x="1475.1" y="-39.727" transform="scale(1, -1)"
	style="font-family:Liberation Serif;font-variant:normal;font-weight:normal;font-style:normal;font-size:20px">80000</text>
<text x="1670.1" y="-39.727" transform="scale(1, -1)"
	style="font-family:Liberation Serif;font-variant:normal;font-weight:normal;font-style:normal;font-size:20px">90000</text>
<text x="1860" y="-39.727" transform="scale(1, -1)"
	style="font-family:Liberation Serif;font-variant:normal;font-weight:normal;font-style:normal;font-size:20px">100000</text>
<path d="M135.46,55.371L135.46,63.371" style="fill:none;stroke:#000000;stroke-width:0.5" />
<path d="M330.41,55.371L330.41,63.371" style="fill:none;stroke:#000000;stroke-width:0.5" />
<path d="M525.36,55.371L525.36,63.371" style="fill:none;stroke:#000000;stroke-width:0.5" />
<path d="M720.31,55.371L720.31,63.371" style="fill:none;stroke:#000000;stroke-width:0.5" />
<path d="M915.26,55.371L915.26,63.371" style="fill:none;stroke:#000000;stroke-width:0.5" />
<path d="M1110.2,55.371L1110.2,63.371" style="fill:none;stroke:#000000;stroke-width:0.5" />
<path d="M1305.2,55.371L1305.2,63.371" style="fill:none;stroke:#000000;stroke-width:0.5" />
<path d="M1500.1,55.371L1500.1,63.371" style="fill:none;stroke:#000000;stroke-width:0.5" />
<path d="M1695.1,55.371L1695.1,63.371" style="fill:none;stroke:#000000;stroke-width:0.5" />
<path d="M1890,55.371L1890,63.371" style="fill:none;stroke:#000000;stroke-width:0.5" />
<path d="M135.46,63.371L1890,63.371" style="fill:none;stroke:#000000;stroke-width:0.5" />
<g transform="rotate(90)">
<text x="538.49" y="23.467" transform="scale(1, -1)"
	style="font-family:Liberation Serif;font-variant:normal;font-weight:normal;font-style:normal;font-size:30px">μs</text>
</g>
<text x="49.712" y="-191.97" transform="scale(1, -1)"
	style="font-family:Liberation Serif;font-variant:normal;font-weight:normal;font-style:normal;font-size:20px">300000</text>
<text x="49.712" y="-584.32" transform="scale(1, -1)"
	style="font-family:Liberation Serif;font-variant:normal;font-weight:normal;font-style:normal;font-size:20px">900000</text>
<text x="39.712" y="-976.68" transform="scale(1, -1)"
	style="font-family:Liberation Serif;font-variant:normal;font-weight:normal;font-style:normal;font-size:20px">1500000</text>
<path d="M114.71,196.54L122.71,196.54" style="fill:none;stroke:#000000;stroke-width:0.5" />
<path d="M114.71,588.89L122.71,588.89" style="fill:none;stroke:#000000;stroke-width:0.5" />
<path d="M114.71,981.25L122.71,981.25" style="fill:none;stroke:#000000;stroke-width:0.5" />
<path d="M118.71,392.71L122.71,392.71" style="fill:none;stroke:#000000;stroke-width:0.5" />
<path d="M118.71,785.07L122.71,785.07" style="fill:none;stroke:#000000;stroke-width:0.5" />
<path d="M122.71,80.11L122.71,1024.6" style="fill:none;stroke:#000000;stroke-width:0.5" />
<path d="M135.46,80.11L135.46,1024.6" style="fill:none;stroke:#808080;stroke-width:0.25" />
<path d="M330.41,80.11L330.41,1024.6" style="fill:none;stroke:#808080;stroke-width:0.25" />
<path d="M525.36,80.11L525.36,1024.6" style="fill:none;stroke:#808080;stroke-width:0.25" />
<path d="M720.31,80.11L720.31,1024.6" style="fill:none;stroke:#808080;stroke-width:0.25" />
<path d="M915.26,80.11L915.26,1024.6" style="fill:none;stroke:#808080;stroke-width:0.25" />
<path d="M1110.2,80.11L1110.2,1024.6" style="fill:none;stroke:#808080;stroke-width:0.25" />
<path d="M1305.2,80.11L1305.2,1024.6" style="fill:none;stroke:#808080;stroke-width:0.25" />
<path d="M1500.1,80.11L1500.1,1024.6" style="fill:none;stroke:#808080;stroke-width:0.25" />
<path d="M1695.1,80.11L1695.1,1024.6" style="fill:none;stroke:#808080;stroke-width:0.25" />
<path d="M1890,80.11L1890,1024.6" style="fill:none;stroke:#808080;stroke-width:0.25" />
<path d="M135.46,196.54L1890,196.54" style="fill:none;stroke:#808080;stroke-width:0.25" />
<path d="M135.46,588.89L1890,588.89" style="fill:none;stroke:#808080;stroke-width:0.25" />
<path d="M135.46,981.25L1890,981.25" style="fill:none;stroke:#808080;stroke-width:0.25" />
<path d="M135.46,103.49L330.41,212.75L525.36,276.19L720.31,374.42L915.26,473.72L1110.2,538.48L1305.2,651.25L1500.1,775.16L1695.1,804.77L1890,931.51" style="fill:none;stroke:#FF0000;stroke-width:4" />
<path d="M140.46,103.49A5,5 0 1 1 130.46,103.49A5,5 0 1 1 140.46,103.49Z" style="fill:#FF0000" />
<path d="M335.41,212.75A5,5 0 1 1 325.41,212.75A5,5 0 1 1 335.41,212.75Z" style="fill:#FF0000" />
<path d="M530.36,276.19A5,5 0 1 1 520.36,276.19A5,5 0 1 1 530.36,276.19Z" style="fill:#FF0000" />
<path d="M725.31,374.42A5,5 0 1 1 715.31,374.42A5,5 0 1 1 725.31,374.42Z" style="fill:#FF0000" />
<path d="M920.26,473.72A5,5 0 1 1 910.26,473.72A5,5 0 1 1 920.26,473.72Z" style="fill:#FF0000" />
<path d="M1115.2,538.48A5,5 0 1 1 1105.2,538.48A5,5 0 1 1 1115.2,538.48Z" style="fill:#FF0000" />
<path d="M1310.2,651.25A5,5 0 1 1 1300.2,651.25A5,5 0 1 1 1310.2,651.25Z" style="fill:#FF0000" />
<path d="M1505.1,775.16A5,5 0 1 1 1495.1,775.16A5,5 0 1 1 1505.1,775.16Z" style="fill:#FF0000" />
<path d="M1700.1,804.77A5,5 0 1 1 1690.1,804.77A5,5 0 1 1 1700.1,804.77Z" style="fill:#FF0000" />
<path d="M1895,931.51A5,5 0 1 1 1885,931.51A5,5 0 1 1 1895,931.51Z" style="fill:#FF0000" />
<path d="M135.46,80.11L330.41,152.77L525.36,254.43L720.31,324.58L915.26,443.79L1110.2,543.9L1305.2,595.76L1500.1,724.01L1695.1,804.3L1890,900.31" style="fill:none;stroke:#0000FF;stroke-width:4" />
<path d="M140.46,80.11A5,5 0 1 1 130.46,80.11A5,5 0 1 1 140.46,80.11Z" style="fill:#0000FF" />
<path d="M335.41,152.77A5,5 0 1 1 325.41,152.77A5,5 0 1 1 335.41,152.77Z" style="fill:#0000FF" />
<path d="M530.36,254.43A5,5 0 1 1 520.36,254.43A5,5 0 1 1 530.36,254.43Z" style="fill:#0000FF" />
<path d="M725.31,324.58A5,5 0 1 1 715.31,324.58A5,5 0 1 1 725.31,324.58Z" style="fill:#0000FF" />
<path d="M920.26,443.79A5,5 0 1 1 910.26,443.79A5,5 0 1 1 920.26,443.79Z" style="fill:#0000FF" />
<path d="M1115.2,543.9A5,5 0 1 1 1105.2,543.9A5,5 0 1 1 1115.2,543.9Z" style="fill:#0000FF" />
<path d="M1310.2,595.76A5,5 0 1 1 1300.2,595.76A5,5 0 1 1 1310.2,595.76Z" style="fill:#0000FF" />
<path d="M1505.1,724.01A5,5 0 1 1 1495.1,724.01A5,5 0 1 1 1505.1,724.01Z" style="fill:#0000FF" />
<path d="M1700.1,804.3A5,5 0 1 1 1690.1,804.3A5,5 0 1 1 1700.1,804.3Z" style="fill:#0000FF" />
<path d="M1895,900.31A5,5 0 1 1 1885,900.31A5,5 0 1 1 1895,900.31Z" style="fill:#0000FF" />
<path d="M135.46,83.723L330.41,149.05L525.36,251.96L720.31,318.7L915.26,426.56L1110.2,492.98L1305.2,537.84L1500.1,628.06L1695.1,694.39L1890,843.32" style="fill:none;stroke:#00FF00;stroke-width:4" />
<path d="M140.46,83.723A5,5 0 1 1 130.46,83.723A5,5 0 1 1 140.46,83.723Z" style="fill:#00FF00" />
<path d="M335.41,149.05A5,5 0 1 1 325.41,149.05A5,5 0 1 1 335.41,149.05Z" style="fill:#00FF00" />
<path d="M530.36,251.96A5,5 0 1 1 520.36,251.96A5,5 0 1 1 530.36,251.96Z" style="fill:#00FF00" />
<path d="M725.31,318.7A5,5 0 1 1 715.31,318.7A5,5 0 1 1 725.31,318.7Z" style="fill:#00FF00" />
<path d="M920.26,426.56A5,5 0 1 1 910.26,426.56A5,5 0 1 1 920.26,426.56Z" style="fill:#00FF00" />
<path d="M1115.2,492.98A5,5 0 1 1 1105.2,492.98A5,5 0 1 1 1115.2,492.98Z" style="fill:#00FF00" />
<path d="M1310.2,537.84A5,5 0 1 1 1300.2,537.84A5,5 0 1 1 1310.2,537.84Z" style="fill:#00FF00" />
<path d="M1505.1,628.06A5,5 0 1 1 1495.1,628.06A5,5 0 1 1 1505.1,628.06Z" style="fill:#00FF00" />
<path d="M1700.1,694.39A5,5 0 1 1 1690.1,694.39A5,5 0 1 1 1700.1,694.39Z" style="fill:#00FF00" />
<path d="M1895,843.32A5,5 0 1 1 1885,843.32A5,5 0 1 1 1895,843.32Z" style="fill:#00FF00" />
<path d="M1900,126.03L1920,126.03" style="fill:none;stroke:#FF0000;stroke-width:4" />
<path d="M1915,126.03A5,5 0 1 1 1905,126.03A5,5 0 1 1 1915,126.03Z" style="fill:#FF0000" />
<text x="1823.3" y="-121.05" transform="scale(1, -1)"
	style="font-family:Liberation Serif;font-variant:normal;font-weight:normal;font-style:normal;font-size:24px">std::list</text>
<path d="M1900,105.66L1920,105.66" style="fill:none;stroke:#0000FF;stroke-width:4" />
<path d="M1915,105.66A5,5 0 1 1 1905,105.66A5,5 0 1 1 1915,105.66Z" style="fill:#0000FF" />
<text x="1795.4" y="-100.69" transform="scale(1, -1)"
	style="font-family:Liberation Serif;font-variant:normal;font-weight:normal;font-style:normal;font-size:24px">std::deque</text>
<path d="M1900,85.294L1920,85.294" style="fill:none;stroke:#00FF00;stroke-width:4" />
<path d="M1915,85.294A5,5 0 1 1 1905,85.294A5,5 0 1 1 1915,85.294Z" style="fill:#00FF00" />
<text x="1792.7" y="-80.319" transform="scale(1, -1)"
	style="font-family:Liberation Serif;font-variant:normal;font-weight:normal;font-style:normal;font-size:24px">std::vector</text>
</g>
</svg>
