<?xml version="1.0"?>
<!-- Generated by SVGo and Plotinum VG -->
<svg width="1920pt" height="1080pt" viewBox="0 0 1920 1080"
	xmlns="http://www.w3.org/2000/svg"
	xmlns:xlink="http://www.w3.org/1999/xlink">
<g transform="scale(1, -1) translate(0, -1080)">
<path d="M0,0L1920,0L1920,1080L0,1080Z" style="fill:#FFFFFF" />
<text x="698.28" y="-1040.9" transform="scale(1, -1)"
	style="font-family:Liberation Serif;font-variant:normal;font-weight:normal;font-style:normal;font-size:50px">random-insert - Log Scale</text>
<text x="895.27" y="-9.7559" transform="scale(1, -1)"
	style="font-family:Liberation Serif;font-variant:normal;font-weight:normal;font-style:normal;font-size:30px">Number of elements</text>
<text x="120.46" y="-39.727" transform="scale(1, -1)"
	style="font-family:Liberation Serif;font-variant:normal;font-weight:normal;font-style:normal;font-size:20px">10000</text>
<text x="314.3" y="-39.727" transform="scale(1, -1)"
	style="font-family:Liberation Serif;font-variant:normal;font-weight:normal;font-style:normal;font-size:20px">20000</text>
<text x="508.14" y="-39.727" transform="scale(1, -1)"
	style="font-family:Liberation Serif;font-variant:normal;font-weight:normal;font-style:normal;font-size:20px">30000</text>
<text x="701.97" y="-39.727" transform="scale(1, -1)"
	style="font-family:Liberation Serif;font-variant:normal;font-weight:normal;font-style:normal;font-size:20px">40000</text>
<text x="895.81" y="-39.727" transform="scale(1, -1)"
	style="font-family:Liberation Serif;font-variant:normal;font-weight:normal;font-style:normal;font-size:20px">50000</text>
<text x="1089.6" y="-39.727" transform="scale(1, -1)"
	style="font-family:Liberation Serif;font-variant:normal;font-weight:normal;font-style:normal;font-size:20px">60000</text>
<text x="1283.5" y="-39.727" transform="scale(1, -1)"
	style="font-family:Liberation Serif;font-variant:normal;font-weight:normal;font-style:normal;font-size:20px">70000</text>
<text x="1477.3" y="-39.727" transform="scale(1, -1)"
	style="font-family:Liberation Serif;font-variant:normal;font-weight:normal;font-style:normal;font-size:20px">80000</text>
<text x="1671.2" y="-39.727" transform="scale(1, -1)"
	style="font-family:Liberation Serif;font-variant:normal;font-weight:normal;font-style:normal;font-size:20px">90000</text>
<text x="1860" y="-39.727" transform="scale(1, -1)"
	style="font-family:Liberation Serif;font-variant:normal;font-weight:normal;font-style:normal;font-size:20px">100000</text>
<path d="M145.46,55.371L145.46,63.371" style="fill:none;stroke:#000000;stroke-width:0.5" />
<path d="M339.3,55.371L339.3,63.371" style="fill:none;stroke:#000000;stroke-width:0.5" />
<path d="M533.14,55.371L533.14,63.371" style="fill:none;stroke:#000000;stroke-width:0.5" />
<path d="M726.97,55.371L726.97,63.371" style="fill:none;stroke:#000000;stroke-width:0.5" />
<path d="M920.81,55.371L920.81,63.371" style="fill:none;stroke:#000000;stroke-width:0.5" />
<path d="M1114.6,55.371L1114.6,63.371" style="fill:none;stroke:#000000;stroke-width:0.5" />
<path d="M1308.5,55.371L1308.5,63.371" style="fill:none;stroke:#000000;stroke-width:0.5" />
<path d="M1502.3,55.371L1502.3,63.371" style="fill:none;stroke:#000000;stroke-width:0.5" />
<path d="M1696.2,55.371L1696.2,63.371" style="fill:none;stroke:#000000;stroke-width:0.5" />
<path d="M1890,55.371L1890,63.371" style="fill:none;stroke:#000000;stroke-width:0.5" />
<path d="M145.46,63.371L1890,63.371" style="fill:none;stroke:#000000;stroke-width:0.5" />
<g transform="rotate(90)">
<text x="485.87" y="23.467" transform="scale(1, -1)"
	style="font-family:Liberation Serif;font-variant:normal;font-weight:normal;font-style:normal;font-size:30px">log(μs + 1)</text>
</g>
<text x="49.712" y="-379.58" transform="scale(1, -1)"
	style="font-family:Liberation Serif;font-variant:normal;font-weight:normal;font-style:normal;font-size:20px">2000000</text>
<text x="49.712" y="-793.62" transform="scale(1, -1)"
	style="font-family:Liberation Serif;font-variant:normal;font-weight:normal;font-style:normal;font-size:20px">6000000</text>
<text x="39.712" y="-986.14" transform="scale(1, -1)"
	style="font-family:Liberation Serif;font-variant:normal;font-weight:normal;font-style:normal;font-size:20px">10000000</text>
<path d="M124.71,384.15L132.71,384.15" style="fill:none;stroke:#000000;stroke-width:0.5" />
<path d="M124.71,798.19L132.71,798.19" style="fill:none;stroke:#000000;stroke-width:0.5" />
<path d="M124.71,990.71L132.71,990.71" style="fill:none;stroke:#000000;stroke-width:0.5" />
<path d="M128.71,122.92L132.71,122.92" style="fill:none;stroke:#000000;stroke-width:0.5" />
<path d="M128.71,536.96L132.71,536.96" style="fill:none;stroke:#000000;stroke-width:0.5" />
<path d="M128.71,645.38L132.71,645.38" style="fill:none;stroke:#000000;stroke-width:0.5" />
<path d="M128.71,729.48L132.71,729.48" style="fill:none;stroke:#000000;stroke-width:0.5" />
<path d="M128.71,856.29L132.71,856.29" style="fill:none;stroke:#000000;stroke-width:0.5" />
<path d="M128.71,906.61L132.71,906.61" style="fill:none;stroke:#000000;stroke-width:0.5" />
<path d="M128.71,951L132.71,951" style="fill:none;stroke:#000000;stroke-width:0.5" />
<path d="M132.71,80.11L132.71,1024.6" style="fill:none;stroke:#000000;stroke-width:0.5" />
<path d="M145.46,80.11L145.46,1024.6" style="fill:none;stroke:#808080;stroke-width:0.25" />
<path d="M339.3,80.11L339.3,1024.6" style="fill:none;stroke:#808080;stroke-width:0.25" />
<path d="M533.14,80.11L533.14,1024.6" style="fill:none;stroke:#808080;stroke-width:0.25" />
<path d="M726.97,80.11L726.97,1024.6" style="fill:none;stroke:#808080;stroke-width:0.25" />
<path d="M920.81,80.11L920.81,1024.6" style="fill:none;stroke:#808080;stroke-width:0.25" />
<path d="M1114.6,80.11L1114.6,1024.6" style="fill:none;stroke:#808080;stroke-width:0.25" />
<path d="M1308.5,80.11L1308.5,1024.6" style="fill:none;stroke:#808080;stroke-width:0.25" />
<path d="M1502.3,80.11L1502.3,1024.6" style="fill:none;stroke:#808080;stroke-width:0.25" />
<path d="M1696.2,80.11L1696.2,1024.6" style="fill:none;stroke:#808080;stroke-width:0.25" />
<path d="M1890,80.11L1890,1024.6" style="fill:none;stroke:#808080;stroke-width:0.25" />
<path d="M145.46,384.15L1890,384.15" style="fill:none;stroke:#808080;stroke-width:0.25" />
<path d="M145.46,798.19L1890,798.19" style="fill:none;stroke:#808080;stroke-width:0.25" />
<path d="M145.46,990.71L1890,990.71" style="fill:none;stroke:#808080;stroke-width:0.25" />
<path d="M145.46,80.276L339.3,320.92L533.14,431.39L726.97,538.33L920.81,627.8L1114.6,692.44L1308.5,747.21L1502.3,804.7L1696.2,852.72L1890,890.64" style="fill:none;stroke:#FF0000;stroke-width:4" />
<path d="M150.46,80.276A5,5 0 1 1 140.46,80.276A5,5 0 1 1 150.46,80.276Z" style="fill:#FF0000" />
<path d="M344.3,320.92A5,5 0 1 1 334.3,320.92A5,5 0 1 1 344.3,320.92Z" style="fill:#FF0000" />
<path d="M538.14,431.39A5,5 0 1 1 528.14,431.39A5,5 0 1 1 538.14,431.39Z" style="fill:#FF0000" />
<path d="M731.97,538.33A5,5 0 1 1 721.97,538.33A5,5 0 1 1 731.97,538.33Z" style="fill:#FF0000" />
<path d="M925.81,627.8A5,5 0 1 1 915.81,627.8A5,5 0 1 1 925.81,627.8Z" style="fill:#FF0000" />
<path d="M1119.6,692.44A5,5 0 1 1 1109.6,692.44A5,5 0 1 1 1119.6,692.44Z" style="fill:#FF0000" />
<path d="M1313.5,747.21A5,5 0 1 1 1303.5,747.21A5,5 0 1 1 1313.5,747.21Z" style="fill:#FF0000" />
<path d="M1507.3,804.7A5,5 0 1 1 1497.3,804.7A5,5 0 1 1 1507.3,804.7Z" style="fill:#FF0000" />
<path d="M1701.2,852.72A5,5 0 1 1 1691.2,852.72A5,5 0 1 1 1701.2,852.72Z" style="fill:#FF0000" />
<path d="M1895,890.64A5,5 0 1 1 1885,890.64A5,5 0 1 1 1895,890.64Z" style="fill:#FF0000" />
<path d="M145.46,80.11L339.3,349.22L533.14,483.12L726.97,568.81L920.81,674.37L1114.6,735.99L1308.5,794.55L1502.3,846.63L1696.2,879.39L1890,940.35" style="fill:none;stroke:#0000FF;stroke-width:4" />
<path d="M150.46,80.11A5,5 0 1 1 140.46,80.11A5,5 0 1 1 150.46,80.11Z" style="fill:#0000FF" />
<path d="M344.3,349.22A5,5 0 1 1 334.3,349.22A5,5 0 1 1 344.3,349.22Z" style="fill:#0000FF" />
<path d="M538.14,483.12A5,5 0 1 1 528.14,483.12A5,5 0 1 1 538.14,483.12Z" style="fill:#0000FF" />
<path d="M731.97,568.81A5,5 0 1 1 721.97,568.81A5,5 0 1 1 731.97,568.81Z" style="fill:#0000FF" />
<path d="M925.81,674.37A5,5 0 1 1 915.81,674.37A5,5 0 1 1 925.81,674.37Z" style="fill:#0000FF" />
<path d="M1119.6,735.99A5,5 0 1 1 1109.6,735.99A5,5 0 1 1 1119.6,735.99Z" style="fill:#0000FF" />
<path d="M1313.5,794.55A5,5 0 1 1 1303.5,794.55A5,5 0 1 1 1313.5,794.55Z" style="fill:#0000FF" />
<path d="M1507.3,846.63A5,5 0 1 1 1497.3,846.63A5,5 0 1 1 1507.3,846.63Z" style="fill:#0000FF" />
<path d="M1701.2,879.39A5,5 0 1 1 1691.2,879.39A5,5 0 1 1 1701.2,879.39Z" style="fill:#0000FF" />
<path d="M1895,940.35A5,5 0 1 1 1885,940.35A5,5 0 1 1 1895,940.35Z" style="fill:#0000FF" />
<path d="M145.46,98.237L339.3,325.84L533.14,529.56L726.97,640.4L920.81,699.78L1114.6,767.39L1308.5,834.15L1502.3,891.42L1696.2,937.82L1890,988.71" style="fill:none;stroke:#00FF00;stroke-width:4" />
<path d="M150.46,98.237A5,5 0 1 1 140.46,98.237A5,5 0 1 1 150.46,98.237Z" style="fill:#00FF00" />
<path d="M344.3,325.84A5,5 0 1 1 334.3,325.84A5,5 0 1 1 344.3,325.84Z" style="fill:#00FF00" />
<path d="M538.14,529.56A5,5 0 1 1 528.14,529.56A5,5 0 1 1 538.14,529.56Z" style="fill:#00FF00" />
<path d="M731.97,640.4A5,5 0 1 1 721.97,640.4A5,5 0 1 1 731.97,640.4Z" style="fill:#00FF00" />
<path d="M925.81,699.78A5,5 0 1 1 915.81,699.78A5,5 0 1 1 925.81,699.78Z" style="fill:#00FF00" />
<path d="M1119.6,767.39A5,5 0 1 1 1109.6,767.39A5,5 0 1 1 1119.6,767.39Z" style="fill:#00FF00" />
<path d="M1313.5,834.15A5,5 0 1 1 1303.5,834.15A5,5 0 1 1 1313.5,834.15Z" style="fill:#00FF00" />
<path d="M1507.3,891.42A5,5 0 1 1 1497.3,891.42A5,5 0 1 1 1507.3,891.42Z" style="fill:#00FF00" />
<path d="M1701.2,937.82A5,5 0 1 1 1691.2,937.82A5,5 0 1 1 1701.2,937.82Z" style="fill:#00FF00" />
<path d="M1895,988.71A5,5 0 1 1 1885,988.71A5,5 0 1 1 1895,988.71Z" style="fill:#00FF00" />
<path d="M1900,126.03L1920,126.03" style="fill:none;stroke:#FF0000;stroke-width:4" />
<path d="M1915,126.03A5,5 0 1 1 1905,126.03A5,5 0 1 1 1915,126.03Z" style="fill:#FF0000" />
<text x="1823.3" y="-121.05" transform="scale(1, -1)"
	style="font-family:Liberation Serif;font-variant:normal;font-weight:normal;font-style:normal;font-size:24px">std::list</text>
<path d="M1900,105.66L1920,105.66" style="fill:none;stroke:#0000FF;stroke-width:4" />
<path d="M1915,105.66A5,5 0 1 1 1905,105.66A5,5 0 1 1 1915,105.66Z" style="fill:#0000FF" />
<text x="1795.4" y="-100.69" transform="scale(1, -1)"
	style="font-family:Liberation Serif;font-variant:normal;font-weight:normal;font-style:normal;font-size:24px">std::deque</text>
<path d="M1900,85.294L1920,85.294" style="fill:none;stroke:#00FF00;stroke-width:4" />
<path d="M1915,85.294A5,5 0 1 1 1905,85.294A5,5 0 1 1 1915,85.294Z" style="fill:#00FF00" />
<text x="1792.7" y="-80.319" transform="scale(1, -1)"
	style="font-family:Liberation Serif;font-variant:normal;font-weight:normal;font-style:normal;font-size:24px">std::vector</text>
</g>
</svg>
