<?xml version="1.0"?>
<!-- Generated by SVGo and Plotinum VG -->
<svg width="1920pt" height="1080pt" viewBox="0 0 1920 1080"
	xmlns="http://www.w3.org/2000/svg"
	xmlns:xlink="http://www.w3.org/1999/xlink">
<g transform="scale(1, -1) translate(0, -1080)">
<path d="M0,0L1920,0L1920,1080L0,1080Z" style="fill:#FFFFFF" />
<text x="819.77" y="-1040.9" transform="scale(1, -1)"
	style="font-family:Liberation Serif;font-variant:normal;font-weight:normal;font-style:normal;font-size:50px">random-insert</text>
<text x="880.35" y="-9.7559" transform="scale(1, -1)"
	style="font-family:Liberation Serif;font-variant:normal;font-weight:normal;font-style:normal;font-size:30px">Number of elements</text>
<text x="90.618" y="-39.727" transform="scale(1, -1)"
	style="font-family:Liberation Serif;font-variant:normal;font-weight:normal;font-style:normal;font-size:20px">10000</text>
<text x="287.77" y="-39.727" transform="scale(1, -1)"
	style="font-family:Liberation Serif;font-variant:normal;font-weight:normal;font-style:normal;font-size:20px">20000</text>
<text x="484.93" y="-39.727" transform="scale(1, -1)"
	style="font-family:Liberation Serif;font-variant:normal;font-weight:normal;font-style:normal;font-size:20px">30000</text>
<text x="682.08" y="-39.727" transform="scale(1, -1)"
	style="font-family:Liberation Serif;font-variant:normal;font-weight:normal;font-style:normal;font-size:20px">40000</text>
<text x="879.23" y="-39.727" transform="scale(1, -1)"
	style="font-family:Liberation Serif;font-variant:normal;font-weight:normal;font-style:normal;font-size:20px">50000</text>
<text x="1076.4" y="-39.727" transform="scale(1, -1)"
	style="font-family:Liberation Serif;font-variant:normal;font-weight:normal;font-style:normal;font-size:20px">60000</text>
<text x="1273.5" y="-39.727" transform="scale(1, -1)"
	style="font-family:Liberation Serif;font-variant:normal;font-weight:normal;font-style:normal;font-size:20px">70000</text>
<text x="1470.7" y="-39.727" transform="scale(1, -1)"
	style="font-family:Liberation Serif;font-variant:normal;font-weight:normal;font-style:normal;font-size:20px">80000</text>
<text x="1667.8" y="-39.727" transform="scale(1, -1)"
	style="font-family:Liberation Serif;font-variant:normal;font-weight:normal;font-style:normal;font-size:20px">90000</text>
<text x="1860" y="-39.727" transform="scale(1, -1)"
	style="font-family:Liberation Serif;font-variant:normal;font-weight:normal;font-style:normal;font-size:20px">100000</text>
<path d="M115.62,55.371L115.62,63.371" style="fill:none;stroke:#000000;stroke-width:0.5" />
<path d="M312.77,55.371L312.77,63.371" style="fill:none;stroke:#000000;stroke-width:0.5" />
<path d="M509.93,55.371L509.93,63.371" style="fill:none;stroke:#000000;stroke-width:0.5" />
<path d="M707.08,55.371L707.08,63.371" style="fill:none;stroke:#000000;stroke-width:0.5" />
<path d="M904.23,55.371L904.23,63.371" style="fill:none;stroke:#000000;stroke-width:0.5" />
<path d="M1101.4,55.371L1101.4,63.371" style="fill:none;stroke:#000000;stroke-width:0.5" />
<path d="M1298.5,55.371L1298.5,63.371" style="fill:none;stroke:#000000;stroke-width:0.5" />
<path d="M1495.7,55.371L1495.7,63.371" style="fill:none;stroke:#000000;stroke-width:0.5" />
<path d="M1692.8,55.371L1692.8,63.371" style="fill:none;stroke:#000000;stroke-width:0.5" />
<path d="M1890,55.371L1890,63.371" style="fill:none;stroke:#000000;stroke-width:0.5" />
<path d="M115.62,63.371L1890,63.371" style="fill:none;stroke:#000000;stroke-width:0.5" />
<g transform="rotate(90)">
<text x="538.49" y="23.467" transform="scale(1, -1)"
	style="font-family:Liberation Serif;font-variant:normal;font-weight:normal;font-style:normal;font-size:30px">μs</text>
</g>
<text x="39.712" y="-337.81" transform="scale(1, -1)"
	style="font-family:Liberation Serif;font-variant:normal;font-weight:normal;font-style:normal;font-size:20px">1e+07</text>
<text x="39.712" y="-637.98" transform="scale(1, -1)"
	style="font-family:Liberation Serif;font-variant:normal;font-weight:normal;font-style:normal;font-size:20px">2e+07</text>
<text x="39.712" y="-938.14" transform="scale(1, -1)"
	style="font-family:Liberation Serif;font-variant:normal;font-weight:normal;font-style:normal;font-size:20px">3e+07</text>
<path d="M94.868,342.38L102.87,342.38" style="fill:none;stroke:#000000;stroke-width:0.5" />
<path d="M94.868,642.55L102.87,642.55" style="fill:none;stroke:#000000;stroke-width:0.5" />
<path d="M94.868,942.71L102.87,942.71" style="fill:none;stroke:#000000;stroke-width:0.5" />
<path d="M98.868,102.25L102.87,102.25" style="fill:none;stroke:#000000;stroke-width:0.5" />
<path d="M98.868,162.28L102.87,162.28" style="fill:none;stroke:#000000;stroke-width:0.5" />
<path d="M98.868,222.31L102.87,222.31" style="fill:none;stroke:#000000;stroke-width:0.5" />
<path d="M98.868,282.35L102.87,282.35" style="fill:none;stroke:#000000;stroke-width:0.5" />
<path d="M98.868,402.41L102.87,402.41" style="fill:none;stroke:#000000;stroke-width:0.5" />
<path d="M98.868,462.45L102.87,462.45" style="fill:none;stroke:#000000;stroke-width:0.5" />
<path d="M98.868,522.48L102.87,522.48" style="fill:none;stroke:#000000;stroke-width:0.5" />
<path d="M98.868,582.51L102.87,582.51" style="fill:none;stroke:#000000;stroke-width:0.5" />
<path d="M98.868,702.58L102.87,702.58" style="fill:none;stroke:#000000;stroke-width:0.5" />
<path d="M98.868,762.61L102.87,762.61" style="fill:none;stroke:#000000;stroke-width:0.5" />
<path d="M98.868,822.65L102.87,822.65" style="fill:none;stroke:#000000;stroke-width:0.5" />
<path d="M98.868,882.68L102.87,882.68" style="fill:none;stroke:#000000;stroke-width:0.5" />
<path d="M98.868,1002.7L102.87,1002.7" style="fill:none;stroke:#000000;stroke-width:0.5" />
<path d="M102.87,80.11L102.87,1024.6" style="fill:none;stroke:#000000;stroke-width:0.5" />
<path d="M115.62,80.11L115.62,1024.6" style="fill:none;stroke:#808080;stroke-width:0.25" />
<path d="M312.77,80.11L312.77,1024.6" style="fill:none;stroke:#808080;stroke-width:0.25" />
<path d="M509.93,80.11L509.93,1024.6" style="fill:none;stroke:#808080;stroke-width:0.25" />
<path d="M707.08,80.11L707.08,1024.6" style="fill:none;stroke:#808080;stroke-width:0.25" />
<path d="M904.23,80.11L904.23,1024.6" style="fill:none;stroke:#808080;stroke-width:0.25" />
<path d="M1101.4,80.11L1101.4,1024.6" style="fill:none;stroke:#808080;stroke-width:0.25" />
<path d="M1298.5,80.11L1298.5,1024.6" style="fill:none;stroke:#808080;stroke-width:0.25" />
<path d="M1495.7,80.11L1495.7,1024.6" style="fill:none;stroke:#808080;stroke-width:0.25" />
<path d="M1692.8,80.11L1692.8,1024.6" style="fill:none;stroke:#808080;stroke-width:0.25" />
<path d="M1890,80.11L1890,1024.6" style="fill:none;stroke:#808080;stroke-width:0.25" />
<path d="M115.62,342.38L1890,342.38" style="fill:none;stroke:#808080;stroke-width:0.25" />
<path d="M115.62,642.55L1890,642.55" style="fill:none;stroke:#808080;stroke-width:0.25" />
<path d="M115.62,942.71L1890,942.71" style="fill:none;stroke:#808080;stroke-width:0.25" />
<path d="M115.62,80.11L312.77,128.43L509.93,178.78L707.08,225.99L904.23,268.8L1101.4,312.43L1298.5,353.9L1495.7,394.85L1692.8,484.45L1890,514.58" style="fill:none;stroke:#FF0000;stroke-width:4" />
<path d="M120.62,80.11A5,5 0 1 1 110.62,80.11A5,5 0 1 1 120.62,80.11Z" style="fill:#FF0000" />
<path d="M317.77,128.43A5,5 0 1 1 307.77,128.43A5,5 0 1 1 317.77,128.43Z" style="fill:#FF0000" />
<path d="M514.93,178.78A5,5 0 1 1 504.93,178.78A5,5 0 1 1 514.93,178.78Z" style="fill:#FF0000" />
<path d="M712.08,225.99A5,5 0 1 1 702.08,225.99A5,5 0 1 1 712.08,225.99Z" style="fill:#FF0000" />
<path d="M909.23,268.8A5,5 0 1 1 899.23,268.8A5,5 0 1 1 909.23,268.8Z" style="fill:#FF0000" />
<path d="M1106.4,312.43A5,5 0 1 1 1096.4,312.43A5,5 0 1 1 1106.4,312.43Z" style="fill:#FF0000" />
<path d="M1303.5,353.9A5,5 0 1 1 1293.5,353.9A5,5 0 1 1 1303.5,353.9Z" style="fill:#FF0000" />
<path d="M1500.7,394.85A5,5 0 1 1 1490.7,394.85A5,5 0 1 1 1500.7,394.85Z" style="fill:#FF0000" />
<path d="M1697.8,484.45A5,5 0 1 1 1687.8,484.45A5,5 0 1 1 1697.8,484.45Z" style="fill:#FF0000" />
<path d="M1895,514.58A5,5 0 1 1 1885,514.58A5,5 0 1 1 1895,514.58Z" style="fill:#FF0000" />
<path d="M115.62,105.2L312.77,191.79L509.93,260.03L707.08,330.28L904.23,402.89L1101.4,507.32L1298.5,550.96L1495.7,612.03L1692.8,685.36L1890,770.07" style="fill:none;stroke:#0000FF;stroke-width:4" />
<path d="M120.62,105.2A5,5 0 1 1 110.62,105.2A5,5 0 1 1 120.62,105.2Z" style="fill:#0000FF" />
<path d="M317.77,191.79A5,5 0 1 1 307.77,191.79A5,5 0 1 1 317.77,191.79Z" style="fill:#0000FF" />
<path d="M514.93,260.03A5,5 0 1 1 504.93,260.03A5,5 0 1 1 514.93,260.03Z" style="fill:#0000FF" />
<path d="M712.08,330.28A5,5 0 1 1 702.08,330.28A5,5 0 1 1 712.08,330.28Z" style="fill:#0000FF" />
<path d="M909.23,402.89A5,5 0 1 1 899.23,402.89A5,5 0 1 1 909.23,402.89Z" style="fill:#0000FF" />
<path d="M1106.4,507.32A5,5 0 1 1 1096.4,507.32A5,5 0 1 1 1106.4,507.32Z" style="fill:#0000FF" />
<path d="M1303.5,550.96A5,5 0 1 1 1293.5,550.96A5,5 0 1 1 1303.5,550.96Z" style="fill:#0000FF" />
<path d="M1500.7,612.03A5,5 0 1 1 1490.7,612.03A5,5 0 1 1 1500.7,612.03Z" style="fill:#0000FF" />
<path d="M1697.8,685.36A5,5 0 1 1 1687.8,685.36A5,5 0 1 1 1697.8,685.36Z" style="fill:#0000FF" />
<path d="M1895,770.07A5,5 0 1 1 1885,770.07A5,5 0 1 1 1895,770.07Z" style="fill:#0000FF" />
<path d="M115.62,131.69L312.77,225.65L509.93,300.71L707.08,385.39L904.23,479.92L1101.4,587.47L1298.5,694.21L1495.7,744.32L1692.8,831.58L1890,935.32" style="fill:none;stroke:#00FF00;stroke-width:4" />
<path d="M120.62,131.69A5,5 0 1 1 110.62,131.69A5,5 0 1 1 120.62,131.69Z" style="fill:#00FF00" />
<path d="M317.77,225.65A5,5 0 1 1 307.77,225.65A5,5 0 1 1 317.77,225.65Z" style="fill:#00FF00" />
<path d="M514.93,300.71A5,5 0 1 1 504.93,300.71A5,5 0 1 1 514.93,300.71Z" style="fill:#00FF00" />
<path d="M712.08,385.39A5,5 0 1 1 702.08,385.39A5,5 0 1 1 712.08,385.39Z" style="fill:#00FF00" />
<path d="M909.23,479.92A5,5 0 1 1 899.23,479.92A5,5 0 1 1 909.23,479.92Z" style="fill:#00FF00" />
<path d="M1106.4,587.47A5,5 0 1 1 1096.4,587.47A5,5 0 1 1 1106.4,587.47Z" style="fill:#00FF00" />
<path d="M1303.5,694.21A5,5 0 1 1 1293.5,694.21A5,5 0 1 1 1303.5,694.21Z" style="fill:#00FF00" />
<path d="M1500.7,744.32A5,5 0 1 1 1490.7,744.32A5,5 0 1 1 1500.7,744.32Z" style="fill:#00FF00" />
<path d="M1697.8,831.58A5,5 0 1 1 1687.8,831.58A5,5 0 1 1 1697.8,831.58Z" style="fill:#00FF00" />
<path d="M1895,935.32A5,5 0 1 1 1885,935.32A5,5 0 1 1 1895,935.32Z" style="fill:#00FF00" />
<path d="M1900,126.03L1920,126.03" style="fill:none;stroke:#FF0000;stroke-width:4" />
<path d="M1915,126.03A5,5 0 1 1 1905,126.03A5,5 0 1 1 1915,126.03Z" style="fill:#FF0000" />
<text x="1823.3" y="-121.05" transform="scale(1, -1)"
	style="font-family:Liberation Serif;font-variant:normal;font-weight:normal;font-style:normal;font-size:24px">std::list</text>
<path d="M1900,105.66L1920,105.66" style="fill:none;stroke:#0000FF;stroke-width:4" />
<path d="M1915,105.66A5,5 0 1 1 1905,105.66A5,5 0 1 1 1915,105.66Z" style="fill:#0000FF" />
<text x="1795.4" y="-100.69" transform="scale(1, -1)"
	style="font-family:Liberation Serif;font-variant:normal;font-weight:normal;font-style:normal;font-size:24px">std::deque</text>
<path d="M1900,85.294L1920,85.294" style="fill:none;stroke:#00FF00;stroke-width:4" />
<path d="M1915,85.294A5,5 0 1 1 1905,85.294A5,5 0 1 1 1915,85.294Z" style="fill:#00FF00" />
<text x="1792.7" y="-80.319" transform="scale(1, -1)"
	style="font-family:Liberation Serif;font-variant:normal;font-weight:normal;font-style:normal;font-size:24px">std::vector</text>
</g>
</svg>
