<?xml version="1.0"?>
<!-- Generated by SVGo and Plotinum VG -->
<svg width="1920pt" height="1080pt" viewBox="0 0 1920 1080"
	xmlns="http://www.w3.org/2000/svg"
	xmlns:xlink="http://www.w3.org/1999/xlink">
<g transform="scale(1, -1) translate(0, -1080)">
<path d="M0,0L1920,0L1920,1080L0,1080Z" style="fill:#FFFFFF" />
<text x="698.28" y="-1040.9" transform="scale(1, -1)"
	style="font-family:Liberation Serif;font-variant:normal;font-weight:normal;font-style:normal;font-size:50px">random-insert - Log Scale</text>
<text x="890.27" y="-9.7559" transform="scale(1, -1)"
	style="font-family:Liberation Serif;font-variant:normal;font-weight:normal;font-style:normal;font-size:30px">Number of elements</text>
<text x="110.46" y="-39.727" transform="scale(1, -1)"
	style="font-family:Liberation Serif;font-variant:normal;font-weight:normal;font-style:normal;font-size:20px">10000</text>
<text x="305.41" y="-39.727" transform="scale(1, -1)"
	style="font-family:Liberation Serif;font-variant:normal;font-weight:normal;font-style:normal;font-size:20px">20000</text>
<text x="500.36" y="-39.727" transform="scale(1, -1)"
	style="font-family:Liberation Serif;font-variant:normal;font-weight:normal;font-style:normal;font-size:20px">30000</text>
<text x="695.31" y="-39.727" transform="scale(1, -1)"
	style="font-family:Liberation Serif;font-variant:normal;font-weight:normal;font-style:normal;font-size:20px">40000</text>
<text x="890.26" y="-39.727" transform="scale(1, -1)"
	style="font-family:Liberation Serif;font-variant:normal;font-weight:normal;font-style:normal;font-size:20px">50000</text>
<text x="1085.2" y="-39.727" transform="scale(1, -1)"
	style="font-family:Liberation Serif;font-variant:normal;font-weight:normal;font-style:normal;font-size:20px">60000</text>
<text x="1280.2" y="-39.727" transform="scale(1, -1)"
	style="font-family:Liberation Serif;font-variant:normal;font-weight:normal;font-style:normal;font-size:20px">70000</text>
<text x="1475.1" y="-39.727" transform="scale(1, -1)"
	style="font-family:Liberation Serif;font-variant:normal;font-weight:normal;font-style:normal;font-size:20px">80000</text>
<text x="1670.1" y="-39.727" transform="scale(1, -1)"
	style="font-family:Liberation Serif;font-variant:normal;font-weight:normal;font-style:normal;font-size:20px">90000</text>
<text x="1860" y="-39.727" transform="scale(1, -1)"
	style="font-family:Liberation Serif;font-variant:normal;font-weight:normal;font-style:normal;font-size:20px">100000</text>
<path d="M135.46,55.371L135.46,63.371" style="fill:none;stroke:#000000;stroke-width:0.5" />
<path d="M330.41,55.371L330.41,63.371" style="fill:none;stroke:#000000;stroke-width:0.5" />
<path d="M525.36,55.371L525.36,63.371" style="fill:none;stroke:#000000;stroke-width:0.5" />
<path d="M720.31,55.371L720.31,63.371" style="fill:none;stroke:#000000;stroke-width:0.5" />
<path d="M915.26,55.371L915.26,63.371" style="fill:none;stroke:#000000;stroke-width:0.5" />
<path d="M1110.2,55.371L1110.2,63.371" style="fill:none;stroke:#000000;stroke-width:0.5" />
<path d="M1305.2,55.371L1305.2,63.371" style="fill:none;stroke:#000000;stroke-width:0.5" />
<path d="M1500.1,55.371L1500.1,63.371" style="fill:none;stroke:#000000;stroke-width:0.5" />
<path d="M1695.1,55.371L1695.1,63.371" style="fill:none;stroke:#000000;stroke-width:0.5" />
<path d="M1890,55.371L1890,63.371" style="fill:none;stroke:#000000;stroke-width:0.5" />
<path d="M135.46,63.371L1890,63.371" style="fill:none;stroke:#000000;stroke-width:0.5" />
<g transform="rotate(90)">
<text x="485.87" y="23.467" transform="scale(1, -1)"
	style="font-family:Liberation Serif;font-variant:normal;font-weight:normal;font-style:normal;font-size:30px">log(μs + 1)</text>
</g>
<text x="49.712" y="-418.71" transform="scale(1, -1)"
	style="font-family:Liberation Serif;font-variant:normal;font-weight:normal;font-style:normal;font-size:20px">400000</text>
<text x="39.712" y="-799.9" transform="scale(1, -1)"
	style="font-family:Liberation Serif;font-variant:normal;font-weight:normal;font-style:normal;font-size:20px">1200000</text>
<text x="39.712" y="-977.14" transform="scale(1, -1)"
	style="font-family:Liberation Serif;font-variant:normal;font-weight:normal;font-style:normal;font-size:20px">2000000</text>
<path d="M114.71,423.28L122.71,423.28" style="fill:none;stroke:#000000;stroke-width:0.5" />
<path d="M114.71,804.47L122.71,804.47" style="fill:none;stroke:#000000;stroke-width:0.5" />
<path d="M114.71,981.71L122.71,981.71" style="fill:none;stroke:#000000;stroke-width:0.5" />
<path d="M118.71,663.78L122.71,663.78" style="fill:none;stroke:#000000;stroke-width:0.5" />
<path d="M118.71,904.29L122.71,904.29" style="fill:none;stroke:#000000;stroke-width:0.5" />
<path d="M122.71,80.11L122.71,1024.6" style="fill:none;stroke:#000000;stroke-width:0.5" />
<path d="M135.46,80.11L135.46,1024.6" style="fill:none;stroke:#808080;stroke-width:0.25" />
<path d="M330.41,80.11L330.41,1024.6" style="fill:none;stroke:#808080;stroke-width:0.25" />
<path d="M525.36,80.11L525.36,1024.6" style="fill:none;stroke:#808080;stroke-width:0.25" />
<path d="M720.31,80.11L720.31,1024.6" style="fill:none;stroke:#808080;stroke-width:0.25" />
<path d="M915.26,80.11L915.26,1024.6" style="fill:none;stroke:#808080;stroke-width:0.25" />
<path d="M1110.2,80.11L1110.2,1024.6" style="fill:none;stroke:#808080;stroke-width:0.25" />
<path d="M1305.2,80.11L1305.2,1024.6" style="fill:none;stroke:#808080;stroke-width:0.25" />
<path d="M1500.1,80.11L1500.1,1024.6" style="fill:none;stroke:#808080;stroke-width:0.25" />
<path d="M1695.1,80.11L1695.1,1024.6" style="fill:none;stroke:#808080;stroke-width:0.25" />
<path d="M1890,80.11L1890,1024.6" style="fill:none;stroke:#808080;stroke-width:0.25" />
<path d="M135.46,423.28L1890,423.28" style="fill:none;stroke:#808080;stroke-width:0.25" />
<path d="M135.46,804.47L1890,804.47" style="fill:none;stroke:#808080;stroke-width:0.25" />
<path d="M135.46,981.71L1890,981.71" style="fill:none;stroke:#808080;stroke-width:0.25" />
<path d="M135.46,123.3L330.41,333.87L525.36,475.33L720.31,603.81L915.26,664.55L1110.2,731.34L1305.2,779.85L1500.1,925.2L1695.1,870.45L1890,918.28" style="fill:none;stroke:#FF0000;stroke-width:4" />
<path d="M140.46,123.3A5,5 0 1 1 130.46,123.3A5,5 0 1 1 140.46,123.3Z" style="fill:#FF0000" />
<path d="M335.41,333.87A5,5 0 1 1 325.41,333.87A5,5 0 1 1 335.41,333.87Z" style="fill:#FF0000" />
<path d="M530.36,475.33A5,5 0 1 1 520.36,475.33A5,5 0 1 1 530.36,475.33Z" style="fill:#FF0000" />
<path d="M725.31,603.81A5,5 0 1 1 715.31,603.81A5,5 0 1 1 725.31,603.81Z" style="fill:#FF0000" />
<path d="M920.26,664.55A5,5 0 1 1 910.26,664.55A5,5 0 1 1 920.26,664.55Z" style="fill:#FF0000" />
<path d="M1115.2,731.34A5,5 0 1 1 1105.2,731.34A5,5 0 1 1 1115.2,731.34Z" style="fill:#FF0000" />
<path d="M1310.2,779.85A5,5 0 1 1 1300.2,779.85A5,5 0 1 1 1310.2,779.85Z" style="fill:#FF0000" />
<path d="M1505.1,925.2A5,5 0 1 1 1495.1,925.2A5,5 0 1 1 1505.1,925.2Z" style="fill:#FF0000" />
<path d="M1700.1,870.45A5,5 0 1 1 1690.1,870.45A5,5 0 1 1 1700.1,870.45Z" style="fill:#FF0000" />
<path d="M1895,918.28A5,5 0 1 1 1885,918.28A5,5 0 1 1 1895,918.28Z" style="fill:#FF0000" />
<path d="M135.46,150.78L330.41,390.99L525.36,526.16L720.31,606.71L915.26,685.4L1110.2,751.51L1305.2,819.57L1500.1,906.34L1695.1,947.58L1890,991.56" style="fill:none;stroke:#0000FF;stroke-width:4" />
<path d="M140.46,150.78A5,5 0 1 1 130.46,150.78A5,5 0 1 1 140.46,150.78Z" style="fill:#0000FF" />
<path d="M335.41,390.99A5,5 0 1 1 325.41,390.99A5,5 0 1 1 335.41,390.99Z" style="fill:#0000FF" />
<path d="M530.36,526.16A5,5 0 1 1 520.36,526.16A5,5 0 1 1 530.36,526.16Z" style="fill:#0000FF" />
<path d="M725.31,606.71A5,5 0 1 1 715.31,606.71A5,5 0 1 1 725.31,606.71Z" style="fill:#0000FF" />
<path d="M920.26,685.4A5,5 0 1 1 910.26,685.4A5,5 0 1 1 920.26,685.4Z" style="fill:#0000FF" />
<path d="M1115.2,751.51A5,5 0 1 1 1105.2,751.51A5,5 0 1 1 1115.2,751.51Z" style="fill:#0000FF" />
<path d="M1310.2,819.57A5,5 0 1 1 1300.2,819.57A5,5 0 1 1 1310.2,819.57Z" style="fill:#0000FF" />
<path d="M1505.1,906.34A5,5 0 1 1 1495.1,906.34A5,5 0 1 1 1505.1,906.34Z" style="fill:#0000FF" />
<path d="M1700.1,947.58A5,5 0 1 1 1690.1,947.58A5,5 0 1 1 1700.1,947.58Z" style="fill:#0000FF" />
<path d="M1895,991.56A5,5 0 1 1 1885,991.56A5,5 0 1 1 1895,991.56Z" style="fill:#0000FF" />
<path d="M135.46,80.11L330.41,359.34L525.36,478.4L720.31,596.18L915.26,618.28L1110.2,668.96L1305.2,737.56L1500.1,825.07L1695.1,846.82L1890,916.2" style="fill:none;stroke:#00FF00;stroke-width:4" />
<path d="M140.46,80.11A5,5 0 1 1 130.46,80.11A5,5 0 1 1 140.46,80.11Z" style="fill:#00FF00" />
<path d="M335.41,359.34A5,5 0 1 1 325.41,359.34A5,5 0 1 1 335.41,359.34Z" style="fill:#00FF00" />
<path d="M530.36,478.4A5,5 0 1 1 520.36,478.4A5,5 0 1 1 530.36,478.4Z" style="fill:#00FF00" />
<path d="M725.31,596.18A5,5 0 1 1 715.31,596.18A5,5 0 1 1 725.31,596.18Z" style="fill:#00FF00" />
<path d="M920.26,618.28A5,5 0 1 1 910.26,618.28A5,5 0 1 1 920.26,618.28Z" style="fill:#00FF00" />
<path d="M1115.2,668.96A5,5 0 1 1 1105.2,668.96A5,5 0 1 1 1115.2,668.96Z" style="fill:#00FF00" />
<path d="M1310.2,737.56A5,5 0 1 1 1300.2,737.56A5,5 0 1 1 1310.2,737.56Z" style="fill:#00FF00" />
<path d="M1505.1,825.07A5,5 0 1 1 1495.1,825.07A5,5 0 1 1 1505.1,825.07Z" style="fill:#00FF00" />
<path d="M1700.1,846.82A5,5 0 1 1 1690.1,846.82A5,5 0 1 1 1700.1,846.82Z" style="fill:#00FF00" />
<path d="M1895,916.2A5,5 0 1 1 1885,916.2A5,5 0 1 1 1895,916.2Z" style="fill:#00FF00" />
<path d="M1900,126.03L1920,126.03" style="fill:none;stroke:#FF0000;stroke-width:4" />
<path d="M1915,126.03A5,5 0 1 1 1905,126.03A5,5 0 1 1 1915,126.03Z" style="fill:#FF0000" />
<text x="1823.3" y="-121.05" transform="scale(1, -1)"
	style="font-family:Liberation Serif;font-variant:normal;font-weight:normal;font-style:normal;font-size:24px">std::list</text>
<path d="M1900,105.66L1920,105.66" style="fill:none;stroke:#0000FF;stroke-width:4" />
<path d="M1915,105.66A5,5 0 1 1 1905,105.66A5,5 0 1 1 1915,105.66Z" style="fill:#0000FF" />
<text x="1795.4" y="-100.69" transform="scale(1, -1)"
	style="font-family:Liberation Serif;font-variant:normal;font-weight:normal;font-style:normal;font-size:24px">std::deque</text>
<path d="M1900,85.294L1920,85.294" style="fill:none;stroke:#00FF00;stroke-width:4" />
<path d="M1915,85.294A5,5 0 1 1 1905,85.294A5,5 0 1 1 1915,85.294Z" style="fill:#00FF00" />
<text x="1792.7" y="-80.319" transform="scale(1, -1)"
	style="font-family:Liberation Serif;font-variant:normal;font-weight:normal;font-style:normal;font-size:24px">std::vector</text>
</g>
</svg>
