<?xml version="1.0"?>
<!-- Generated by SVGo and Plotinum VG -->
<svg width="1920pt" height="1080pt" viewBox="0 0 1920 1080"
	xmlns="http://www.w3.org/2000/svg"
	xmlns:xlink="http://www.w3.org/1999/xlink">
<g transform="scale(1, -1) translate(0, -1080)">
<path d="M0,0L1920,0L1920,1080L0,1080Z" style="fill:#FFFFFF" />
<text x="698.28" y="-1040.9" transform="scale(1, -1)"
	style="font-family:Liberation Serif;font-variant:normal;font-weight:normal;font-style:normal;font-size:50px">random-insert - Log Scale</text>
<text x="890.27" y="-9.7559" transform="scale(1, -1)"
	style="font-family:Liberation Serif;font-variant:normal;font-weight:normal;font-style:normal;font-size:30px">Number of elements</text>
<text x="110.46" y="-39.727" transform="scale(1, -1)"
	style="font-family:Liberation Serif;font-variant:normal;font-weight:normal;font-style:normal;font-size:20px">10000</text>
<text x="305.41" y="-39.727" transform="scale(1, -1)"
	style="font-family:Liberation Serif;font-variant:normal;font-weight:normal;font-style:normal;font-size:20px">20000</text>
<text x="500.36" y="-39.727" transform="scale(1, -1)"
	style="font-family:Liberation Serif;font-variant:normal;font-weight:normal;font-style:normal;font-size:20px">30000</text>
<text x="695.31" y="-39.727" transform="scale(1, -1)"
	style="font-family:Liberation Serif;font-variant:normal;font-weight:normal;font-style:normal;font-size:20px">40000</text>
<text x="890.26" y="-39.727" transform="scale(1, -1)"
	style="font-family:Liberation Serif;font-variant:normal;font-weight:normal;font-style:normal;font-size:20px">50000</text>
<text x="1085.2" y="-39.727" transform="scale(1, -1)"
	style="font-family:Liberation Serif;font-variant:normal;font-weight:normal;font-style:normal;font-size:20px">60000</text>
<text x="1280.2" y="-39.727" transform="scale(1, -1)"
	style="font-family:Liberation Serif;font-variant:normal;font-weight:normal;font-style:normal;font-size:20px">70000</text>
<text x="1475.1" y="-39.727" transform="scale(1, -1)"
	style="font-family:Liberation Serif;font-variant:normal;font-weight:normal;font-style:normal;font-size:20px">80000</text>
<text x="1670.1" y="-39.727" transform="scale(1, -1)"
	style="font-family:Liberation Serif;font-variant:normal;font-weight:normal;font-style:normal;font-size:20px">90000</text>
<text x="1860" y="-39.727" transform="scale(1, -1)"
	style="font-family:Liberation Serif;font-variant:normal;font-weight:normal;font-style:normal;font-size:20px">100000</text>
<path d="M135.46,55.371L135.46,63.371" style="fill:none;stroke:#000000;stroke-width:0.5" />
<path d="M330.41,55.371L330.41,63.371" style="fill:none;stroke:#000000;stroke-width:0.5" />
<path d="M525.36,55.371L525.36,63.371" style="fill:none;stroke:#000000;stroke-width:0.5" />
<path d="M720.31,55.371L720.31,63.371" style="fill:none;stroke:#000000;stroke-width:0.5" />
<path d="M915.26,55.371L915.26,63.371" style="fill:none;stroke:#000000;stroke-width:0.5" />
<path d="M1110.2,55.371L1110.2,63.371" style="fill:none;stroke:#000000;stroke-width:0.5" />
<path d="M1305.2,55.371L1305.2,63.371" style="fill:none;stroke:#000000;stroke-width:0.5" />
<path d="M1500.1,55.371L1500.1,63.371" style="fill:none;stroke:#000000;stroke-width:0.5" />
<path d="M1695.1,55.371L1695.1,63.371" style="fill:none;stroke:#000000;stroke-width:0.5" />
<path d="M1890,55.371L1890,63.371" style="fill:none;stroke:#000000;stroke-width:0.5" />
<path d="M135.46,63.371L1890,63.371" style="fill:none;stroke:#000000;stroke-width:0.5" />
<g transform="rotate(90)">
<text x="507.89" y="23.467" transform="scale(1, -1)"
	style="font-family:Liberation Serif;font-variant:normal;font-weight:normal;font-style:normal;font-size:30px">log(μs)</text>
</g>
<text x="39.712" y="-390.35" transform="scale(1, -1)"
	style="font-family:Liberation Serif;font-variant:normal;font-weight:normal;font-style:normal;font-size:20px">1000000</text>
<text x="39.712" y="-843.49" transform="scale(1, -1)"
	style="font-family:Liberation Serif;font-variant:normal;font-weight:normal;font-style:normal;font-size:20px">5000000</text>
<text x="39.712" y="-1009" transform="scale(1, -1)"
	style="font-family:Liberation Serif;font-variant:normal;font-weight:normal;font-style:normal;font-size:20px">9000000</text>
<path d="M114.71,394.92L122.71,394.92" style="fill:none;stroke:#000000;stroke-width:0.5" />
<path d="M114.71,848.06L122.71,848.06" style="fill:none;stroke:#000000;stroke-width:0.5" />
<path d="M114.71,1013.6L122.71,1013.6" style="fill:none;stroke:#000000;stroke-width:0.5" />
<path d="M118.71,590.08L122.71,590.08" style="fill:none;stroke:#000000;stroke-width:0.5" />
<path d="M118.71,704.24L122.71,704.24" style="fill:none;stroke:#000000;stroke-width:0.5" />
<path d="M118.71,785.24L122.71,785.24" style="fill:none;stroke:#000000;stroke-width:0.5" />
<path d="M118.71,899.39L122.71,899.39" style="fill:none;stroke:#000000;stroke-width:0.5" />
<path d="M118.71,942.8L122.71,942.8" style="fill:none;stroke:#000000;stroke-width:0.5" />
<path d="M118.71,980.39L122.71,980.39" style="fill:none;stroke:#000000;stroke-width:0.5" />
<path d="M122.71,80.11L122.71,1021.7" style="fill:none;stroke:#000000;stroke-width:0.5" />
<path d="M135.46,80.11L135.46,1021.7" style="fill:none;stroke:#808080;stroke-width:0.25" />
<path d="M330.41,80.11L330.41,1021.7" style="fill:none;stroke:#808080;stroke-width:0.25" />
<path d="M525.36,80.11L525.36,1021.7" style="fill:none;stroke:#808080;stroke-width:0.25" />
<path d="M720.31,80.11L720.31,1021.7" style="fill:none;stroke:#808080;stroke-width:0.25" />
<path d="M915.26,80.11L915.26,1021.7" style="fill:none;stroke:#808080;stroke-width:0.25" />
<path d="M1110.2,80.11L1110.2,1021.7" style="fill:none;stroke:#808080;stroke-width:0.25" />
<path d="M1305.2,80.11L1305.2,1021.7" style="fill:none;stroke:#808080;stroke-width:0.25" />
<path d="M1500.1,80.11L1500.1,1021.7" style="fill:none;stroke:#808080;stroke-width:0.25" />
<path d="M1695.1,80.11L1695.1,1021.7" style="fill:none;stroke:#808080;stroke-width:0.25" />
<path d="M1890,80.11L1890,1021.7" style="fill:none;stroke:#808080;stroke-width:0.25" />
<path d="M135.46,394.92L1890,394.92" style="fill:none;stroke:#808080;stroke-width:0.25" />
<path d="M135.46,848.06L1890,848.06" style="fill:none;stroke:#808080;stroke-width:0.25" />
<path d="M135.46,1013.6L1890,1013.6" style="fill:none;stroke:#808080;stroke-width:0.25" />
<path d="M135.46,177.24L330.41,490.17L525.36,637.65L720.31,726.79L915.26,794.44L1110.2,846.7L1305.2,893.21L1500.1,929.69L1695.1,989.22L1890,994.44" style="fill:none;stroke:#FF0000;stroke-width:4" />
<path d="M140.46,177.24A5,5 0 1 1 130.46,177.24A5,5 0 1 1 140.46,177.24Z" style="fill:#FF0000" />
<path d="M335.41,490.17A5,5 0 1 1 325.41,490.17A5,5 0 1 1 335.41,490.17Z" style="fill:#FF0000" />
<path d="M530.36,637.65A5,5 0 1 1 520.36,637.65A5,5 0 1 1 530.36,637.65Z" style="fill:#FF0000" />
<path d="M725.31,726.79A5,5 0 1 1 715.31,726.79A5,5 0 1 1 725.31,726.79Z" style="fill:#FF0000" />
<path d="M920.26,794.44A5,5 0 1 1 910.26,794.44A5,5 0 1 1 920.26,794.44Z" style="fill:#FF0000" />
<path d="M1115.2,846.7A5,5 0 1 1 1105.2,846.7A5,5 0 1 1 1115.2,846.7Z" style="fill:#FF0000" />
<path d="M1310.2,893.21A5,5 0 1 1 1300.2,893.21A5,5 0 1 1 1310.2,893.21Z" style="fill:#FF0000" />
<path d="M1505.1,929.69A5,5 0 1 1 1495.1,929.69A5,5 0 1 1 1505.1,929.69Z" style="fill:#FF0000" />
<path d="M1700.1,989.22A5,5 0 1 1 1690.1,989.22A5,5 0 1 1 1700.1,989.22Z" style="fill:#FF0000" />
<path d="M1895,994.44A5,5 0 1 1 1885,994.44A5,5 0 1 1 1895,994.44Z" style="fill:#FF0000" />
<path d="M135.46,80.11L330.41,362.98L525.36,513.74L720.31,609.58L915.26,735.6L1110.2,756.56L1305.2,784.21L1500.1,818.42L1695.1,854.08L1890,880.28" style="fill:none;stroke:#0000FF;stroke-width:4" />
<path d="M140.46,80.11A5,5 0 1 1 130.46,80.11A5,5 0 1 1 140.46,80.11Z" style="fill:#0000FF" />
<path d="M335.41,362.98A5,5 0 1 1 325.41,362.98A5,5 0 1 1 335.41,362.98Z" style="fill:#0000FF" />
<path d="M530.36,513.74A5,5 0 1 1 520.36,513.74A5,5 0 1 1 530.36,513.74Z" style="fill:#0000FF" />
<path d="M725.31,609.58A5,5 0 1 1 715.31,609.58A5,5 0 1 1 725.31,609.58Z" style="fill:#0000FF" />
<path d="M920.26,735.6A5,5 0 1 1 910.26,735.6A5,5 0 1 1 920.26,735.6Z" style="fill:#0000FF" />
<path d="M1115.2,756.56A5,5 0 1 1 1105.2,756.56A5,5 0 1 1 1115.2,756.56Z" style="fill:#0000FF" />
<path d="M1310.2,784.21A5,5 0 1 1 1300.2,784.21A5,5 0 1 1 1310.2,784.21Z" style="fill:#0000FF" />
<path d="M1505.1,818.42A5,5 0 1 1 1495.1,818.42A5,5 0 1 1 1505.1,818.42Z" style="fill:#0000FF" />
<path d="M1700.1,854.08A5,5 0 1 1 1690.1,854.08A5,5 0 1 1 1700.1,854.08Z" style="fill:#0000FF" />
<path d="M1895,880.28A5,5 0 1 1 1885,880.28A5,5 0 1 1 1895,880.28Z" style="fill:#0000FF" />
<path d="M135.46,180.48L330.41,488.15L525.36,651.97L720.31,738.97L915.26,788.29L1110.2,828.36L1305.2,882.22L1500.1,928.79L1695.1,961.48L1890,994.91" style="fill:none;stroke:#00FF00;stroke-width:4" />
<path d="M140.46,180.48A5,5 0 1 1 130.46,180.48A5,5 0 1 1 140.46,180.48Z" style="fill:#00FF00" />
<path d="M335.41,488.15A5,5 0 1 1 325.41,488.15A5,5 0 1 1 335.41,488.15Z" style="fill:#00FF00" />
<path d="M530.36,651.97A5,5 0 1 1 520.36,651.97A5,5 0 1 1 530.36,651.97Z" style="fill:#00FF00" />
<path d="M725.31,738.97A5,5 0 1 1 715.31,738.97A5,5 0 1 1 725.31,738.97Z" style="fill:#00FF00" />
<path d="M920.26,788.29A5,5 0 1 1 910.26,788.29A5,5 0 1 1 920.26,788.29Z" style="fill:#00FF00" />
<path d="M1115.2,828.36A5,5 0 1 1 1105.2,828.36A5,5 0 1 1 1115.2,828.36Z" style="fill:#00FF00" />
<path d="M1310.2,882.22A5,5 0 1 1 1300.2,882.22A5,5 0 1 1 1310.2,882.22Z" style="fill:#00FF00" />
<path d="M1505.1,928.79A5,5 0 1 1 1495.1,928.79A5,5 0 1 1 1505.1,928.79Z" style="fill:#00FF00" />
<path d="M1700.1,961.48A5,5 0 1 1 1690.1,961.48A5,5 0 1 1 1700.1,961.48Z" style="fill:#00FF00" />
<path d="M1895,994.91A5,5 0 1 1 1885,994.91A5,5 0 1 1 1895,994.91Z" style="fill:#00FF00" />
<path d="M1900,126.03L1920,126.03" style="fill:none;stroke:#FF0000;stroke-width:4" />
<path d="M1915,126.03A5,5 0 1 1 1905,126.03A5,5 0 1 1 1915,126.03Z" style="fill:#FF0000" />
<text x="1792.7" y="-121.05" transform="scale(1, -1)"
	style="font-family:Liberation Serif;font-variant:normal;font-weight:normal;font-style:normal;font-size:24px">std::vector</text>
<path d="M1900,105.66L1920,105.66" style="fill:none;stroke:#0000FF;stroke-width:4" />
<path d="M1915,105.66A5,5 0 1 1 1905,105.66A5,5 0 1 1 1915,105.66Z" style="fill:#0000FF" />
<text x="1823.3" y="-100.69" transform="scale(1, -1)"
	style="font-family:Liberation Serif;font-variant:normal;font-weight:normal;font-style:normal;font-size:24px">std::list</text>
<path d="M1900,85.294L1920,85.294" style="fill:none;stroke:#00FF00;stroke-width:4" />
<path d="M1915,85.294A5,5 0 1 1 1905,85.294A5,5 0 1 1 1915,85.294Z" style="fill:#00FF00" />
<text x="1795.4" y="-80.319" transform="scale(1, -1)"
	style="font-family:Liberation Serif;font-variant:normal;font-weight:normal;font-style:normal;font-size:24px">std::deque</text>
</g>
</svg>
