<?xml version="1.0"?>
<!-- Generated by SVGo and Plotinum VG -->
<svg width="1920pt" height="1080pt" viewBox="0 0 1920 1080"
	xmlns="http://www.w3.org/2000/svg"
	xmlns:xlink="http://www.w3.org/1999/xlink">
<g transform="scale(1, -1) translate(0, -1080)">
<path d="M0,0L1920,0L1920,1080L0,1080Z" style="fill:#FFFFFF" />
<text x="819.77" y="-1040.9" transform="scale(1, -1)"
	style="font-family:Liberation Serif;font-variant:normal;font-weight:normal;font-style:normal;font-size:50px">random-insert</text>
<text x="890.27" y="-9.7559" transform="scale(1, -1)"
	style="font-family:Liberation Serif;font-variant:normal;font-weight:normal;font-style:normal;font-size:30px">Number of elements</text>
<text x="110.46" y="-39.727" transform="scale(1, -1)"
	style="font-family:Liberation Serif;font-variant:normal;font-weight:normal;font-style:normal;font-size:20px">10000</text>
<text x="305.41" y="-39.727" transform="scale(1, -1)"
	style="font-family:Liberation Serif;font-variant:normal;font-weight:normal;font-style:normal;font-size:20px">20000</text>
<text x="500.36" y="-39.727" transform="scale(1, -1)"
	style="font-family:Liberation Serif;font-variant:normal;font-weight:normal;font-style:normal;font-size:20px">30000</text>
<text x="695.31" y="-39.727" transform="scale(1, -1)"
	style="font-family:Liberation Serif;font-variant:normal;font-weight:normal;font-style:normal;font-size:20px">40000</text>
<text x="890.26" y="-39.727" transform="scale(1, -1)"
	style="font-family:Liberation Serif;font-variant:normal;font-weight:normal;font-style:normal;font-size:20px">50000</text>
<text x="1085.2" y="-39.727" transform="scale(1, -1)"
	style="font-family:Liberation Serif;font-variant:normal;font-weight:normal;font-style:normal;font-size:20px">60000</text>
<text x="1280.2" y="-39.727" transform="scale(1, -1)"
	style="font-family:Liberation Serif;font-variant:normal;font-weight:normal;font-style:normal;font-size:20px">70000</text>
<text x="1475.1" y="-39.727" transform="scale(1, -1)"
	style="font-family:Liberation Serif;font-variant:normal;font-weight:normal;font-style:normal;font-size:20px">80000</text>
<text x="1670.1" y="-39.727" transform="scale(1, -1)"
	style="font-family:Liberation Serif;font-variant:normal;font-weight:normal;font-style:normal;font-size:20px">90000</text>
<text x="1860" y="-39.727" transform="scale(1, -1)"
	style="font-family:Liberation Serif;font-variant:normal;font-weight:normal;font-style:normal;font-size:20px">100000</text>
<path d="M135.46,55.371L135.46,63.371" style="fill:none;stroke:#000000;stroke-width:0.5" />
<path d="M330.41,55.371L330.41,63.371" style="fill:none;stroke:#000000;stroke-width:0.5" />
<path d="M525.36,55.371L525.36,63.371" style="fill:none;stroke:#000000;stroke-width:0.5" />
<path d="M720.31,55.371L720.31,63.371" style="fill:none;stroke:#000000;stroke-width:0.5" />
<path d="M915.26,55.371L915.26,63.371" style="fill:none;stroke:#000000;stroke-width:0.5" />
<path d="M1110.2,55.371L1110.2,63.371" style="fill:none;stroke:#000000;stroke-width:0.5" />
<path d="M1305.2,55.371L1305.2,63.371" style="fill:none;stroke:#000000;stroke-width:0.5" />
<path d="M1500.1,55.371L1500.1,63.371" style="fill:none;stroke:#000000;stroke-width:0.5" />
<path d="M1695.1,55.371L1695.1,63.371" style="fill:none;stroke:#000000;stroke-width:0.5" />
<path d="M1890,55.371L1890,63.371" style="fill:none;stroke:#000000;stroke-width:0.5" />
<path d="M135.46,63.371L1890,63.371" style="fill:none;stroke:#000000;stroke-width:0.5" />
<g transform="rotate(90)">
<text x="538.49" y="23.467" transform="scale(1, -1)"
	style="font-family:Liberation Serif;font-variant:normal;font-weight:normal;font-style:normal;font-size:30px">μs</text>
</g>
<text x="49.712" y="-125.15" transform="scale(1, -1)"
	style="font-family:Liberation Serif;font-variant:normal;font-weight:normal;font-style:normal;font-size:20px">200000</text>
<text x="49.712" y="-552.5" transform="scale(1, -1)"
	style="font-family:Liberation Serif;font-variant:normal;font-weight:normal;font-style:normal;font-size:20px">800000</text>
<text x="39.712" y="-979.84" transform="scale(1, -1)"
	style="font-family:Liberation Serif;font-variant:normal;font-weight:normal;font-style:normal;font-size:20px">1400000</text>
<path d="M114.71,129.72L122.71,129.72" style="fill:none;stroke:#000000;stroke-width:0.5" />
<path d="M114.71,557.07L122.71,557.07" style="fill:none;stroke:#000000;stroke-width:0.5" />
<path d="M114.71,984.41L122.71,984.41" style="fill:none;stroke:#000000;stroke-width:0.5" />
<path d="M118.71,343.39L122.71,343.39" style="fill:none;stroke:#000000;stroke-width:0.5" />
<path d="M118.71,770.74L122.71,770.74" style="fill:none;stroke:#000000;stroke-width:0.5" />
<path d="M122.71,80.11L122.71,1024.6" style="fill:none;stroke:#000000;stroke-width:0.5" />
<path d="M135.46,80.11L135.46,1024.6" style="fill:none;stroke:#808080;stroke-width:0.25" />
<path d="M330.41,80.11L330.41,1024.6" style="fill:none;stroke:#808080;stroke-width:0.25" />
<path d="M525.36,80.11L525.36,1024.6" style="fill:none;stroke:#808080;stroke-width:0.25" />
<path d="M720.31,80.11L720.31,1024.6" style="fill:none;stroke:#808080;stroke-width:0.25" />
<path d="M915.26,80.11L915.26,1024.6" style="fill:none;stroke:#808080;stroke-width:0.25" />
<path d="M1110.2,80.11L1110.2,1024.6" style="fill:none;stroke:#808080;stroke-width:0.25" />
<path d="M1305.2,80.11L1305.2,1024.6" style="fill:none;stroke:#808080;stroke-width:0.25" />
<path d="M1500.1,80.11L1500.1,1024.6" style="fill:none;stroke:#808080;stroke-width:0.25" />
<path d="M1695.1,80.11L1695.1,1024.6" style="fill:none;stroke:#808080;stroke-width:0.25" />
<path d="M1890,80.11L1890,1024.6" style="fill:none;stroke:#808080;stroke-width:0.25" />
<path d="M135.46,129.72L1890,129.72" style="fill:none;stroke:#808080;stroke-width:0.25" />
<path d="M135.46,557.07L1890,557.07" style="fill:none;stroke:#808080;stroke-width:0.25" />
<path d="M135.46,984.41L1890,984.41" style="fill:none;stroke:#808080;stroke-width:0.25" />
<path d="M135.46,96.761L330.41,181.99L525.36,284.46L720.31,362.16L915.26,497.01L1110.2,629.89L1305.2,667.6L1500.1,742.89L1695.1,860.1L1890,930.32" style="fill:none;stroke:#FF0000;stroke-width:4" />
<path d="M140.46,96.761A5,5 0 1 1 130.46,96.761A5,5 0 1 1 140.46,96.761Z" style="fill:#FF0000" />
<path d="M335.41,181.99A5,5 0 1 1 325.41,181.99A5,5 0 1 1 335.41,181.99Z" style="fill:#FF0000" />
<path d="M530.36,284.46A5,5 0 1 1 520.36,284.46A5,5 0 1 1 530.36,284.46Z" style="fill:#FF0000" />
<path d="M725.31,362.16A5,5 0 1 1 715.31,362.16A5,5 0 1 1 725.31,362.16Z" style="fill:#FF0000" />
<path d="M920.26,497.01A5,5 0 1 1 910.26,497.01A5,5 0 1 1 920.26,497.01Z" style="fill:#FF0000" />
<path d="M1115.2,629.89A5,5 0 1 1 1105.2,629.89A5,5 0 1 1 1115.2,629.89Z" style="fill:#FF0000" />
<path d="M1310.2,667.6A5,5 0 1 1 1300.2,667.6A5,5 0 1 1 1310.2,667.6Z" style="fill:#FF0000" />
<path d="M1505.1,742.89A5,5 0 1 1 1495.1,742.89A5,5 0 1 1 1505.1,742.89Z" style="fill:#FF0000" />
<path d="M1700.1,860.1A5,5 0 1 1 1690.1,860.1A5,5 0 1 1 1700.1,860.1Z" style="fill:#FF0000" />
<path d="M1895,930.32A5,5 0 1 1 1885,930.32A5,5 0 1 1 1895,930.32Z" style="fill:#FF0000" />
<path d="M135.46,82.072L330.41,163.28L525.36,229.52L720.31,326.09L915.26,396.29L1110.2,484.96L1305.2,583.59L1500.1,694.19L1695.1,739.86L1890,843.22" style="fill:none;stroke:#0000FF;stroke-width:4" />
<path d="M140.46,82.072A5,5 0 1 1 130.46,82.072A5,5 0 1 1 140.46,82.072Z" style="fill:#0000FF" />
<path d="M335.41,163.28A5,5 0 1 1 325.41,163.28A5,5 0 1 1 335.41,163.28Z" style="fill:#0000FF" />
<path d="M530.36,229.52A5,5 0 1 1 520.36,229.52A5,5 0 1 1 530.36,229.52Z" style="fill:#0000FF" />
<path d="M725.31,326.09A5,5 0 1 1 715.31,326.09A5,5 0 1 1 725.31,326.09Z" style="fill:#0000FF" />
<path d="M920.26,396.29A5,5 0 1 1 910.26,396.29A5,5 0 1 1 920.26,396.29Z" style="fill:#0000FF" />
<path d="M1115.2,484.96A5,5 0 1 1 1105.2,484.96A5,5 0 1 1 1115.2,484.96Z" style="fill:#0000FF" />
<path d="M1310.2,583.59A5,5 0 1 1 1300.2,583.59A5,5 0 1 1 1310.2,583.59Z" style="fill:#0000FF" />
<path d="M1505.1,694.19A5,5 0 1 1 1495.1,694.19A5,5 0 1 1 1505.1,694.19Z" style="fill:#0000FF" />
<path d="M1700.1,739.86A5,5 0 1 1 1690.1,739.86A5,5 0 1 1 1700.1,739.86Z" style="fill:#0000FF" />
<path d="M1895,843.22A5,5 0 1 1 1885,843.22A5,5 0 1 1 1895,843.22Z" style="fill:#0000FF" />
<path d="M135.46,80.11L330.41,168.06L525.36,218.44L720.31,321.87L915.26,401.99L1110.2,487.41L1305.2,514.92L1500.1,575.87L1695.1,668.79L1890,764.91" style="fill:none;stroke:#00FF00;stroke-width:4" />
<path d="M140.46,80.11A5,5 0 1 1 130.46,80.11A5,5 0 1 1 140.46,80.11Z" style="fill:#00FF00" />
<path d="M335.41,168.06A5,5 0 1 1 325.41,168.06A5,5 0 1 1 335.41,168.06Z" style="fill:#00FF00" />
<path d="M530.36,218.44A5,5 0 1 1 520.36,218.44A5,5 0 1 1 530.36,218.44Z" style="fill:#00FF00" />
<path d="M725.31,321.87A5,5 0 1 1 715.31,321.87A5,5 0 1 1 725.31,321.87Z" style="fill:#00FF00" />
<path d="M920.26,401.99A5,5 0 1 1 910.26,401.99A5,5 0 1 1 920.26,401.99Z" style="fill:#00FF00" />
<path d="M1115.2,487.41A5,5 0 1 1 1105.2,487.41A5,5 0 1 1 1115.2,487.41Z" style="fill:#00FF00" />
<path d="M1310.2,514.92A5,5 0 1 1 1300.2,514.92A5,5 0 1 1 1310.2,514.92Z" style="fill:#00FF00" />
<path d="M1505.1,575.87A5,5 0 1 1 1495.1,575.87A5,5 0 1 1 1505.1,575.87Z" style="fill:#00FF00" />
<path d="M1700.1,668.79A5,5 0 1 1 1690.1,668.79A5,5 0 1 1 1700.1,668.79Z" style="fill:#00FF00" />
<path d="M1895,764.91A5,5 0 1 1 1885,764.91A5,5 0 1 1 1895,764.91Z" style="fill:#00FF00" />
<path d="M1900,126.03L1920,126.03" style="fill:none;stroke:#FF0000;stroke-width:4" />
<path d="M1915,126.03A5,5 0 1 1 1905,126.03A5,5 0 1 1 1915,126.03Z" style="fill:#FF0000" />
<text x="1823.3" y="-121.05" transform="scale(1, -1)"
	style="font-family:Liberation Serif;font-variant:normal;font-weight:normal;font-style:normal;font-size:24px">std::list</text>
<path d="M1900,105.66L1920,105.66" style="fill:none;stroke:#0000FF;stroke-width:4" />
<path d="M1915,105.66A5,5 0 1 1 1905,105.66A5,5 0 1 1 1915,105.66Z" style="fill:#0000FF" />
<text x="1795.4" y="-100.69" transform="scale(1, -1)"
	style="font-family:Liberation Serif;font-variant:normal;font-weight:normal;font-style:normal;font-size:24px">std::deque</text>
<path d="M1900,85.294L1920,85.294" style="fill:none;stroke:#00FF00;stroke-width:4" />
<path d="M1915,85.294A5,5 0 1 1 1905,85.294A5,5 0 1 1 1915,85.294Z" style="fill:#00FF00" />
<text x="1792.7" y="-80.319" transform="scale(1, -1)"
	style="font-family:Liberation Serif;font-variant:normal;font-weight:normal;font-style:normal;font-size:24px">std::vector</text>
</g>
</svg>
