<?xml version="1.0"?>
<!-- Generated by SVGo and Plotinum VG -->
<svg width="1920pt" height="1080pt" viewBox="0 0 1920 1080"
	xmlns="http://www.w3.org/2000/svg"
	xmlns:xlink="http://www.w3.org/1999/xlink">
<g transform="scale(1, -1) translate(0, -1080)">
<path d="M0,0L1920,0L1920,1080L0,1080Z" style="fill:#FFFFFF" />
<text x="698.28" y="-1040.9" transform="scale(1, -1)"
	style="font-family:Liberation Serif;font-variant:normal;font-weight:normal;font-style:normal;font-size:50px">random-insert - Log Scale</text>
<text x="890.27" y="-9.7559" transform="scale(1, -1)"
	style="font-family:Liberation Serif;font-variant:normal;font-weight:normal;font-style:normal;font-size:30px">Number of elements</text>
<text x="110.46" y="-39.727" transform="scale(1, -1)"
	style="font-family:Liberation Serif;font-variant:normal;font-weight:normal;font-style:normal;font-size:20px">10000</text>
<text x="305.41" y="-39.727" transform="scale(1, -1)"
	style="font-family:Liberation Serif;font-variant:normal;font-weight:normal;font-style:normal;font-size:20px">20000</text>
<text x="500.36" y="-39.727" transform="scale(1, -1)"
	style="font-family:Liberation Serif;font-variant:normal;font-weight:normal;font-style:normal;font-size:20px">30000</text>
<text x="695.31" y="-39.727" transform="scale(1, -1)"
	style="font-family:Liberation Serif;font-variant:normal;font-weight:normal;font-style:normal;font-size:20px">40000</text>
<text x="890.26" y="-39.727" transform="scale(1, -1)"
	style="font-family:Liberation Serif;font-variant:normal;font-weight:normal;font-style:normal;font-size:20px">50000</text>
<text x="1085.2" y="-39.727" transform="scale(1, -1)"
	style="font-family:Liberation Serif;font-variant:normal;font-weight:normal;font-style:normal;font-size:20px">60000</text>
<text x="1280.2" y="-39.727" transform="scale(1, -1)"
	style="font-family:Liberation Serif;font-variant:normal;font-weight:normal;font-style:normal;font-size:20px">70000</text>
<text x="1475.1" y="-39.727" transform="scale(1, -1)"
	style="font-family:Liberation Serif;font-variant:normal;font-weight:normal;font-style:normal;font-size:20px">80000</text>
<text x="1670.1" y="-39.727" transform="scale(1, -1)"
	style="font-family:Liberation Serif;font-variant:normal;font-weight:normal;font-style:normal;font-size:20px">90000</text>
<text x="1860" y="-39.727" transform="scale(1, -1)"
	style="font-family:Liberation Serif;font-variant:normal;font-weight:normal;font-style:normal;font-size:20px">100000</text>
<path d="M135.46,55.371L135.46,63.371" style="fill:none;stroke:#000000;stroke-width:0.5" />
<path d="M330.41,55.371L330.41,63.371" style="fill:none;stroke:#000000;stroke-width:0.5" />
<path d="M525.36,55.371L525.36,63.371" style="fill:none;stroke:#000000;stroke-width:0.5" />
<path d="M720.31,55.371L720.31,63.371" style="fill:none;stroke:#000000;stroke-width:0.5" />
<path d="M915.26,55.371L915.26,63.371" style="fill:none;stroke:#000000;stroke-width:0.5" />
<path d="M1110.2,55.371L1110.2,63.371" style="fill:none;stroke:#000000;stroke-width:0.5" />
<path d="M1305.2,55.371L1305.2,63.371" style="fill:none;stroke:#000000;stroke-width:0.5" />
<path d="M1500.1,55.371L1500.1,63.371" style="fill:none;stroke:#000000;stroke-width:0.5" />
<path d="M1695.1,55.371L1695.1,63.371" style="fill:none;stroke:#000000;stroke-width:0.5" />
<path d="M1890,55.371L1890,63.371" style="fill:none;stroke:#000000;stroke-width:0.5" />
<path d="M135.46,63.371L1890,63.371" style="fill:none;stroke:#000000;stroke-width:0.5" />
<g transform="rotate(90)">
<text x="485.87" y="23.467" transform="scale(1, -1)"
	style="font-family:Liberation Serif;font-variant:normal;font-weight:normal;font-style:normal;font-size:30px">log(μs + 1)</text>
</g>
<text x="39.712" y="-395.52" transform="scale(1, -1)"
	style="font-family:Liberation Serif;font-variant:normal;font-weight:normal;font-style:normal;font-size:20px">1000000</text>
<text x="39.712" y="-837.62" transform="scale(1, -1)"
	style="font-family:Liberation Serif;font-variant:normal;font-weight:normal;font-style:normal;font-size:20px">5000000</text>
<text x="39.712" y="-999.08" transform="scale(1, -1)"
	style="font-family:Liberation Serif;font-variant:normal;font-weight:normal;font-style:normal;font-size:20px">9000000</text>
<path d="M114.71,400.09L122.71,400.09" style="fill:none;stroke:#000000;stroke-width:0.5" />
<path d="M114.71,842.19L122.71,842.19" style="fill:none;stroke:#000000;stroke-width:0.5" />
<path d="M114.71,1003.7L122.71,1003.7" style="fill:none;stroke:#000000;stroke-width:0.5" />
<path d="M118.71,590.49L122.71,590.49" style="fill:none;stroke:#000000;stroke-width:0.5" />
<path d="M118.71,701.87L122.71,701.87" style="fill:none;stroke:#000000;stroke-width:0.5" />
<path d="M118.71,780.89L122.71,780.89" style="fill:none;stroke:#000000;stroke-width:0.5" />
<path d="M118.71,892.27L122.71,892.27" style="fill:none;stroke:#000000;stroke-width:0.5" />
<path d="M118.71,934.62L122.71,934.62" style="fill:none;stroke:#000000;stroke-width:0.5" />
<path d="M118.71,971.3L122.71,971.3" style="fill:none;stroke:#000000;stroke-width:0.5" />
<path d="M122.71,80.11L122.71,1024.6" style="fill:none;stroke:#000000;stroke-width:0.5" />
<path d="M135.46,80.11L135.46,1024.6" style="fill:none;stroke:#808080;stroke-width:0.25" />
<path d="M330.41,80.11L330.41,1024.6" style="fill:none;stroke:#808080;stroke-width:0.25" />
<path d="M525.36,80.11L525.36,1024.6" style="fill:none;stroke:#808080;stroke-width:0.25" />
<path d="M720.31,80.11L720.31,1024.6" style="fill:none;stroke:#808080;stroke-width:0.25" />
<path d="M915.26,80.11L915.26,1024.6" style="fill:none;stroke:#808080;stroke-width:0.25" />
<path d="M1110.2,80.11L1110.2,1024.6" style="fill:none;stroke:#808080;stroke-width:0.25" />
<path d="M1305.2,80.11L1305.2,1024.6" style="fill:none;stroke:#808080;stroke-width:0.25" />
<path d="M1500.1,80.11L1500.1,1024.6" style="fill:none;stroke:#808080;stroke-width:0.25" />
<path d="M1695.1,80.11L1695.1,1024.6" style="fill:none;stroke:#808080;stroke-width:0.25" />
<path d="M1890,80.11L1890,1024.6" style="fill:none;stroke:#808080;stroke-width:0.25" />
<path d="M135.46,400.09L1890,400.09" style="fill:none;stroke:#808080;stroke-width:0.25" />
<path d="M135.46,842.19L1890,842.19" style="fill:none;stroke:#808080;stroke-width:0.25" />
<path d="M135.46,1003.7L1890,1003.7" style="fill:none;stroke:#808080;stroke-width:0.25" />
<path d="M135.46,80.11L330.41,306.69L525.36,477.57L720.31,566L915.26,635.89L1110.2,681.03L1305.2,728.68L1500.1,754.02L1695.1,806.71L1890,826.27" style="fill:none;stroke:#FF0000;stroke-width:4" />
<path d="M140.46,80.11A5,5 0 1 1 130.46,80.11A5,5 0 1 1 140.46,80.11Z" style="fill:#FF0000" />
<path d="M335.41,306.69A5,5 0 1 1 325.41,306.69A5,5 0 1 1 335.41,306.69Z" style="fill:#FF0000" />
<path d="M530.36,477.57A5,5 0 1 1 520.36,477.57A5,5 0 1 1 530.36,477.57Z" style="fill:#FF0000" />
<path d="M725.31,566A5,5 0 1 1 715.31,566A5,5 0 1 1 725.31,566Z" style="fill:#FF0000" />
<path d="M920.26,635.89A5,5 0 1 1 910.26,635.89A5,5 0 1 1 920.26,635.89Z" style="fill:#FF0000" />
<path d="M1115.2,681.03A5,5 0 1 1 1105.2,681.03A5,5 0 1 1 1115.2,681.03Z" style="fill:#FF0000" />
<path d="M1310.2,728.68A5,5 0 1 1 1300.2,728.68A5,5 0 1 1 1310.2,728.68Z" style="fill:#FF0000" />
<path d="M1505.1,754.02A5,5 0 1 1 1495.1,754.02A5,5 0 1 1 1505.1,754.02Z" style="fill:#FF0000" />
<path d="M1700.1,806.71A5,5 0 1 1 1690.1,806.71A5,5 0 1 1 1700.1,806.71Z" style="fill:#FF0000" />
<path d="M1895,826.27A5,5 0 1 1 1885,826.27A5,5 0 1 1 1895,826.27Z" style="fill:#FF0000" />
<path d="M135.46,240.17L330.41,507.42L525.36,655.12L720.31,735.68L915.26,795.1L1110.2,846.61L1305.2,890.46L1500.1,928.57L1695.1,964.63L1890,972.32" style="fill:none;stroke:#0000FF;stroke-width:4" />
<path d="M140.46,240.17A5,5 0 1 1 130.46,240.17A5,5 0 1 1 140.46,240.17Z" style="fill:#0000FF" />
<path d="M335.41,507.42A5,5 0 1 1 325.41,507.42A5,5 0 1 1 335.41,507.42Z" style="fill:#0000FF" />
<path d="M530.36,655.12A5,5 0 1 1 520.36,655.12A5,5 0 1 1 530.36,655.12Z" style="fill:#0000FF" />
<path d="M725.31,735.68A5,5 0 1 1 715.31,735.68A5,5 0 1 1 725.31,735.68Z" style="fill:#0000FF" />
<path d="M920.26,795.1A5,5 0 1 1 910.26,795.1A5,5 0 1 1 920.26,795.1Z" style="fill:#0000FF" />
<path d="M1115.2,846.61A5,5 0 1 1 1105.2,846.61A5,5 0 1 1 1115.2,846.61Z" style="fill:#0000FF" />
<path d="M1310.2,890.46A5,5 0 1 1 1300.2,890.46A5,5 0 1 1 1310.2,890.46Z" style="fill:#0000FF" />
<path d="M1505.1,928.57A5,5 0 1 1 1495.1,928.57A5,5 0 1 1 1505.1,928.57Z" style="fill:#0000FF" />
<path d="M1700.1,964.63A5,5 0 1 1 1690.1,964.63A5,5 0 1 1 1700.1,964.63Z" style="fill:#0000FF" />
<path d="M1895,972.32A5,5 0 1 1 1885,972.32A5,5 0 1 1 1895,972.32Z" style="fill:#0000FF" />
<path d="M135.46,158.97L330.41,450.1L525.36,630.06L720.31,717.71L915.26,803.69L1110.2,855.3L1305.2,893.43L1500.1,932.4L1695.1,970.89L1890,998.45" style="fill:none;stroke:#00FF00;stroke-width:4" />
<path d="M140.46,158.97A5,5 0 1 1 130.46,158.97A5,5 0 1 1 140.46,158.97Z" style="fill:#00FF00" />
<path d="M335.41,450.1A5,5 0 1 1 325.41,450.1A5,5 0 1 1 335.41,450.1Z" style="fill:#00FF00" />
<path d="M530.36,630.06A5,5 0 1 1 520.36,630.06A5,5 0 1 1 530.36,630.06Z" style="fill:#00FF00" />
<path d="M725.31,717.71A5,5 0 1 1 715.31,717.71A5,5 0 1 1 725.31,717.71Z" style="fill:#00FF00" />
<path d="M920.26,803.69A5,5 0 1 1 910.26,803.69A5,5 0 1 1 920.26,803.69Z" style="fill:#00FF00" />
<path d="M1115.2,855.3A5,5 0 1 1 1105.2,855.3A5,5 0 1 1 1115.2,855.3Z" style="fill:#00FF00" />
<path d="M1310.2,893.43A5,5 0 1 1 1300.2,893.43A5,5 0 1 1 1310.2,893.43Z" style="fill:#00FF00" />
<path d="M1505.1,932.4A5,5 0 1 1 1495.1,932.4A5,5 0 1 1 1505.1,932.4Z" style="fill:#00FF00" />
<path d="M1700.1,970.89A5,5 0 1 1 1690.1,970.89A5,5 0 1 1 1700.1,970.89Z" style="fill:#00FF00" />
<path d="M1895,998.45A5,5 0 1 1 1885,998.45A5,5 0 1 1 1895,998.45Z" style="fill:#00FF00" />
<path d="M1900,126.03L1920,126.03" style="fill:none;stroke:#FF0000;stroke-width:4" />
<path d="M1915,126.03A5,5 0 1 1 1905,126.03A5,5 0 1 1 1915,126.03Z" style="fill:#FF0000" />
<text x="1823.3" y="-121.05" transform="scale(1, -1)"
	style="font-family:Liberation Serif;font-variant:normal;font-weight:normal;font-style:normal;font-size:24px">std::list</text>
<path d="M1900,105.66L1920,105.66" style="fill:none;stroke:#0000FF;stroke-width:4" />
<path d="M1915,105.66A5,5 0 1 1 1905,105.66A5,5 0 1 1 1915,105.66Z" style="fill:#0000FF" />
<text x="1795.4" y="-100.69" transform="scale(1, -1)"
	style="font-family:Liberation Serif;font-variant:normal;font-weight:normal;font-style:normal;font-size:24px">std::deque</text>
<path d="M1900,85.294L1920,85.294" style="fill:none;stroke:#00FF00;stroke-width:4" />
<path d="M1915,85.294A5,5 0 1 1 1905,85.294A5,5 0 1 1 1915,85.294Z" style="fill:#00FF00" />
<text x="1792.7" y="-80.319" transform="scale(1, -1)"
	style="font-family:Liberation Serif;font-variant:normal;font-weight:normal;font-style:normal;font-size:24px">std::vector</text>
</g>
</svg>
