<?xml version="1.0"?>
<!-- Generated by SVGo and Plotinum VG -->
<svg width="1920pt" height="1080pt" viewBox="0 0 1920 1080"
	xmlns="http://www.w3.org/2000/svg"
	xmlns:xlink="http://www.w3.org/1999/xlink">
<g transform="scale(1, -1) translate(0, -1080)">
<path d="M0,0L1920,0L1920,1080L0,1080Z" style="fill:#FFFFFF" />
<text x="819.77" y="-1040.9" transform="scale(1, -1)"
	style="font-family:Liberation Serif;font-variant:normal;font-weight:normal;font-style:normal;font-size:50px">random-insert</text>
<text x="902.77" y="-9.7559" transform="scale(1, -1)"
	style="font-family:Liberation Serif;font-variant:normal;font-weight:normal;font-style:normal;font-size:30px">Number of elements</text>
<text x="135.46" y="-39.727" transform="scale(1, -1)"
	style="font-family:Liberation Serif;font-variant:normal;font-weight:normal;font-style:normal;font-size:20px">10000</text>
<text x="327.63" y="-39.727" transform="scale(1, -1)"
	style="font-family:Liberation Serif;font-variant:normal;font-weight:normal;font-style:normal;font-size:20px">20000</text>
<text x="519.8" y="-39.727" transform="scale(1, -1)"
	style="font-family:Liberation Serif;font-variant:normal;font-weight:normal;font-style:normal;font-size:20px">30000</text>
<text x="711.97" y="-39.727" transform="scale(1, -1)"
	style="font-family:Liberation Serif;font-variant:normal;font-weight:normal;font-style:normal;font-size:20px">40000</text>
<text x="904.15" y="-39.727" transform="scale(1, -1)"
	style="font-family:Liberation Serif;font-variant:normal;font-weight:normal;font-style:normal;font-size:20px">50000</text>
<text x="1096.3" y="-39.727" transform="scale(1, -1)"
	style="font-family:Liberation Serif;font-variant:normal;font-weight:normal;font-style:normal;font-size:20px">60000</text>
<text x="1288.5" y="-39.727" transform="scale(1, -1)"
	style="font-family:Liberation Serif;font-variant:normal;font-weight:normal;font-style:normal;font-size:20px">70000</text>
<text x="1480.7" y="-39.727" transform="scale(1, -1)"
	style="font-family:Liberation Serif;font-variant:normal;font-weight:normal;font-style:normal;font-size:20px">80000</text>
<text x="1672.8" y="-39.727" transform="scale(1, -1)"
	style="font-family:Liberation Serif;font-variant:normal;font-weight:normal;font-style:normal;font-size:20px">90000</text>
<text x="1860" y="-39.727" transform="scale(1, -1)"
	style="font-family:Liberation Serif;font-variant:normal;font-weight:normal;font-style:normal;font-size:20px">100000</text>
<path d="M160.46,55.371L160.46,63.371" style="fill:none;stroke:#000000;stroke-width:0.5" />
<path d="M352.63,55.371L352.63,63.371" style="fill:none;stroke:#000000;stroke-width:0.5" />
<path d="M544.8,55.371L544.8,63.371" style="fill:none;stroke:#000000;stroke-width:0.5" />
<path d="M736.97,55.371L736.97,63.371" style="fill:none;stroke:#000000;stroke-width:0.5" />
<path d="M929.15,55.371L929.15,63.371" style="fill:none;stroke:#000000;stroke-width:0.5" />
<path d="M1121.3,55.371L1121.3,63.371" style="fill:none;stroke:#000000;stroke-width:0.5" />
<path d="M1313.5,55.371L1313.5,63.371" style="fill:none;stroke:#000000;stroke-width:0.5" />
<path d="M1505.7,55.371L1505.7,63.371" style="fill:none;stroke:#000000;stroke-width:0.5" />
<path d="M1697.8,55.371L1697.8,63.371" style="fill:none;stroke:#000000;stroke-width:0.5" />
<path d="M1890,55.371L1890,63.371" style="fill:none;stroke:#000000;stroke-width:0.5" />
<path d="M160.46,63.371L1890,63.371" style="fill:none;stroke:#000000;stroke-width:0.5" />
<g transform="rotate(90)">
<text x="538.49" y="23.467" transform="scale(1, -1)"
	style="font-family:Liberation Serif;font-variant:normal;font-weight:normal;font-style:normal;font-size:30px">μs</text>
</g>
<text x="49.712" y="-142.25" transform="scale(1, -1)"
	style="font-family:Liberation Serif;font-variant:normal;font-weight:normal;font-style:normal;font-size:20px">250000.00</text>
<text x="39.712" y="-572.4" transform="scale(1, -1)"
	style="font-family:Liberation Serif;font-variant:normal;font-weight:normal;font-style:normal;font-size:20px">1000000.00</text>
<text x="39.712" y="-1002.6" transform="scale(1, -1)"
	style="font-family:Liberation Serif;font-variant:normal;font-weight:normal;font-style:normal;font-size:20px">1750000.00</text>
<path d="M139.71,146.82L147.71,146.82" style="fill:none;stroke:#000000;stroke-width:0.5" />
<path d="M139.71,576.97L147.71,576.97" style="fill:none;stroke:#000000;stroke-width:0.5" />
<path d="M139.71,1007.1L147.71,1007.1" style="fill:none;stroke:#000000;stroke-width:0.5" />
<path d="M143.71,361.9L147.71,361.9" style="fill:none;stroke:#000000;stroke-width:0.5" />
<path d="M143.71,792.05L147.71,792.05" style="fill:none;stroke:#000000;stroke-width:0.5" />
<path d="M147.71,80.11L147.71,1024.6" style="fill:none;stroke:#000000;stroke-width:0.5" />
<path d="M160.46,80.11L160.46,1024.6" style="fill:none;stroke:#808080;stroke-width:0.25" />
<path d="M352.63,80.11L352.63,1024.6" style="fill:none;stroke:#808080;stroke-width:0.25" />
<path d="M544.8,80.11L544.8,1024.6" style="fill:none;stroke:#808080;stroke-width:0.25" />
<path d="M736.97,80.11L736.97,1024.6" style="fill:none;stroke:#808080;stroke-width:0.25" />
<path d="M929.15,80.11L929.15,1024.6" style="fill:none;stroke:#808080;stroke-width:0.25" />
<path d="M1121.3,80.11L1121.3,1024.6" style="fill:none;stroke:#808080;stroke-width:0.25" />
<path d="M1313.5,80.11L1313.5,1024.6" style="fill:none;stroke:#808080;stroke-width:0.25" />
<path d="M1505.7,80.11L1505.7,1024.6" style="fill:none;stroke:#808080;stroke-width:0.25" />
<path d="M1697.8,80.11L1697.8,1024.6" style="fill:none;stroke:#808080;stroke-width:0.25" />
<path d="M1890,80.11L1890,1024.6" style="fill:none;stroke:#808080;stroke-width:0.25" />
<path d="M160.46,146.82L1890,146.82" style="fill:none;stroke:#808080;stroke-width:0.25" />
<path d="M160.46,576.97L1890,576.97" style="fill:none;stroke:#808080;stroke-width:0.25" />
<path d="M160.46,1007.1L1890,1007.1" style="fill:none;stroke:#808080;stroke-width:0.25" />
<path d="M160.46,83.135L352.63,170.63L544.8,255.66L736.97,400.27L929.15,520.37L1121.3,621.26L1313.5,702.84L1505.7,821.3L1697.8,840.1L1890,931.79" style="fill:none;stroke:#FF0000;stroke-width:4" />
<path d="M165.46,83.135A5,5 0 1 1 155.46,83.135A5,5 0 1 1 165.46,83.135Z" style="fill:#FF0000" />
<path d="M357.63,170.63A5,5 0 1 1 347.63,170.63A5,5 0 1 1 357.63,170.63Z" style="fill:#FF0000" />
<path d="M549.8,255.66A5,5 0 1 1 539.8,255.66A5,5 0 1 1 549.8,255.66Z" style="fill:#FF0000" />
<path d="M741.97,400.27A5,5 0 1 1 731.97,400.27A5,5 0 1 1 741.97,400.27Z" style="fill:#FF0000" />
<path d="M934.15,520.37A5,5 0 1 1 924.15,520.37A5,5 0 1 1 934.15,520.37Z" style="fill:#FF0000" />
<path d="M1126.3,621.26A5,5 0 1 1 1116.3,621.26A5,5 0 1 1 1126.3,621.26Z" style="fill:#FF0000" />
<path d="M1318.5,702.84A5,5 0 1 1 1308.5,702.84A5,5 0 1 1 1318.5,702.84Z" style="fill:#FF0000" />
<path d="M1510.7,821.3A5,5 0 1 1 1500.7,821.3A5,5 0 1 1 1510.7,821.3Z" style="fill:#FF0000" />
<path d="M1702.8,840.1A5,5 0 1 1 1692.8,840.1A5,5 0 1 1 1702.8,840.1Z" style="fill:#FF0000" />
<path d="M1895,931.79A5,5 0 1 1 1885,931.79A5,5 0 1 1 1895,931.79Z" style="fill:#FF0000" />
<path d="M160.46,94.023L352.63,186.41L544.8,250.79L736.97,342.16L929.15,419.77L1121.3,534.26L1313.5,563.87L1505.7,752.64L1697.8,846.09L1890,857.53" style="fill:none;stroke:#0000FF;stroke-width:4" />
<path d="M165.46,94.023A5,5 0 1 1 155.46,94.023A5,5 0 1 1 165.46,94.023Z" style="fill:#0000FF" />
<path d="M357.63,186.41A5,5 0 1 1 347.63,186.41A5,5 0 1 1 357.63,186.41Z" style="fill:#0000FF" />
<path d="M549.8,250.79A5,5 0 1 1 539.8,250.79A5,5 0 1 1 549.8,250.79Z" style="fill:#0000FF" />
<path d="M741.97,342.16A5,5 0 1 1 731.97,342.16A5,5 0 1 1 741.97,342.16Z" style="fill:#0000FF" />
<path d="M934.15,419.77A5,5 0 1 1 924.15,419.77A5,5 0 1 1 934.15,419.77Z" style="fill:#0000FF" />
<path d="M1126.3,534.26A5,5 0 1 1 1116.3,534.26A5,5 0 1 1 1126.3,534.26Z" style="fill:#0000FF" />
<path d="M1318.5,563.87A5,5 0 1 1 1308.5,563.87A5,5 0 1 1 1318.5,563.87Z" style="fill:#0000FF" />
<path d="M1510.7,752.64A5,5 0 1 1 1500.7,752.64A5,5 0 1 1 1510.7,752.64Z" style="fill:#0000FF" />
<path d="M1702.8,846.09A5,5 0 1 1 1692.8,846.09A5,5 0 1 1 1702.8,846.09Z" style="fill:#0000FF" />
<path d="M1895,857.53A5,5 0 1 1 1885,857.53A5,5 0 1 1 1895,857.53Z" style="fill:#0000FF" />
<path d="M160.46,80.11L352.63,149.11L544.8,210.72L736.97,319.57L929.15,389.47L1121.3,447.06L1313.5,578.42L1505.7,600.58L1697.8,717.87L1890,824.8" style="fill:none;stroke:#00FF00;stroke-width:4" />
<path d="M165.46,80.11A5,5 0 1 1 155.46,80.11A5,5 0 1 1 165.46,80.11Z" style="fill:#00FF00" />
<path d="M357.63,149.11A5,5 0 1 1 347.63,149.11A5,5 0 1 1 357.63,149.11Z" style="fill:#00FF00" />
<path d="M549.8,210.72A5,5 0 1 1 539.8,210.72A5,5 0 1 1 549.8,210.72Z" style="fill:#00FF00" />
<path d="M741.97,319.57A5,5 0 1 1 731.97,319.57A5,5 0 1 1 741.97,319.57Z" style="fill:#00FF00" />
<path d="M934.15,389.47A5,5 0 1 1 924.15,389.47A5,5 0 1 1 934.15,389.47Z" style="fill:#00FF00" />
<path d="M1126.3,447.06A5,5 0 1 1 1116.3,447.06A5,5 0 1 1 1126.3,447.06Z" style="fill:#00FF00" />
<path d="M1318.5,578.42A5,5 0 1 1 1308.5,578.42A5,5 0 1 1 1318.5,578.42Z" style="fill:#00FF00" />
<path d="M1510.7,600.58A5,5 0 1 1 1500.7,600.58A5,5 0 1 1 1510.7,600.58Z" style="fill:#00FF00" />
<path d="M1702.8,717.87A5,5 0 1 1 1692.8,717.87A5,5 0 1 1 1702.8,717.87Z" style="fill:#00FF00" />
<path d="M1895,824.8A5,5 0 1 1 1885,824.8A5,5 0 1 1 1895,824.8Z" style="fill:#00FF00" />
<path d="M1900,126.03L1920,126.03" style="fill:none;stroke:#FF0000;stroke-width:4" />
<path d="M1915,126.03A5,5 0 1 1 1905,126.03A5,5 0 1 1 1915,126.03Z" style="fill:#FF0000" />
<text x="1823.3" y="-121.05" transform="scale(1, -1)"
	style="font-family:Liberation Serif;font-variant:normal;font-weight:normal;font-style:normal;font-size:24px">std::list</text>
<path d="M1900,105.66L1920,105.66" style="fill:none;stroke:#0000FF;stroke-width:4" />
<path d="M1915,105.66A5,5 0 1 1 1905,105.66A5,5 0 1 1 1915,105.66Z" style="fill:#0000FF" />
<text x="1795.4" y="-100.69" transform="scale(1, -1)"
	style="font-family:Liberation Serif;font-variant:normal;font-weight:normal;font-style:normal;font-size:24px">std::deque</text>
<path d="M1900,85.294L1920,85.294" style="fill:none;stroke:#00FF00;stroke-width:4" />
<path d="M1915,85.294A5,5 0 1 1 1905,85.294A5,5 0 1 1 1915,85.294Z" style="fill:#00FF00" />
<text x="1792.7" y="-80.319" transform="scale(1, -1)"
	style="font-family:Liberation Serif;font-variant:normal;font-weight:normal;font-style:normal;font-size:24px">std::vector</text>
</g>
</svg>
