<?xml version="1.0"?>
<!-- Generated by SVGo and Plotinum VG -->
<svg width="1920pt" height="1080pt" viewBox="0 0 1920 1080"
	xmlns="http://www.w3.org/2000/svg"
	xmlns:xlink="http://www.w3.org/1999/xlink">
<g transform="scale(1, -1) translate(0, -1080)">
<path d="M0,0L1920,0L1920,1080L0,1080Z" style="fill:#FFFFFF" />
<text x="819.77" y="-1040.9" transform="scale(1, -1)"
	style="font-family:Liberation Serif;font-variant:normal;font-weight:normal;font-style:normal;font-size:50px">random-insert</text>
<text x="880.35" y="-9.7559" transform="scale(1, -1)"
	style="font-family:Liberation Serif;font-variant:normal;font-weight:normal;font-style:normal;font-size:30px">Number of elements</text>
<text x="90.618" y="-39.727" transform="scale(1, -1)"
	style="font-family:Liberation Serif;font-variant:normal;font-weight:normal;font-style:normal;font-size:20px">10000</text>
<text x="287.77" y="-39.727" transform="scale(1, -1)"
	style="font-family:Liberation Serif;font-variant:normal;font-weight:normal;font-style:normal;font-size:20px">20000</text>
<text x="484.93" y="-39.727" transform="scale(1, -1)"
	style="font-family:Liberation Serif;font-variant:normal;font-weight:normal;font-style:normal;font-size:20px">30000</text>
<text x="682.08" y="-39.727" transform="scale(1, -1)"
	style="font-family:Liberation Serif;font-variant:normal;font-weight:normal;font-style:normal;font-size:20px">40000</text>
<text x="879.23" y="-39.727" transform="scale(1, -1)"
	style="font-family:Liberation Serif;font-variant:normal;font-weight:normal;font-style:normal;font-size:20px">50000</text>
<text x="1076.4" y="-39.727" transform="scale(1, -1)"
	style="font-family:Liberation Serif;font-variant:normal;font-weight:normal;font-style:normal;font-size:20px">60000</text>
<text x="1273.5" y="-39.727" transform="scale(1, -1)"
	style="font-family:Liberation Serif;font-variant:normal;font-weight:normal;font-style:normal;font-size:20px">70000</text>
<text x="1470.7" y="-39.727" transform="scale(1, -1)"
	style="font-family:Liberation Serif;font-variant:normal;font-weight:normal;font-style:normal;font-size:20px">80000</text>
<text x="1667.8" y="-39.727" transform="scale(1, -1)"
	style="font-family:Liberation Serif;font-variant:normal;font-weight:normal;font-style:normal;font-size:20px">90000</text>
<text x="1860" y="-39.727" transform="scale(1, -1)"
	style="font-family:Liberation Serif;font-variant:normal;font-weight:normal;font-style:normal;font-size:20px">100000</text>
<path d="M115.62,55.371L115.62,63.371" style="fill:none;stroke:#000000;stroke-width:0.5" />
<path d="M312.77,55.371L312.77,63.371" style="fill:none;stroke:#000000;stroke-width:0.5" />
<path d="M509.93,55.371L509.93,63.371" style="fill:none;stroke:#000000;stroke-width:0.5" />
<path d="M707.08,55.371L707.08,63.371" style="fill:none;stroke:#000000;stroke-width:0.5" />
<path d="M904.23,55.371L904.23,63.371" style="fill:none;stroke:#000000;stroke-width:0.5" />
<path d="M1101.4,55.371L1101.4,63.371" style="fill:none;stroke:#000000;stroke-width:0.5" />
<path d="M1298.5,55.371L1298.5,63.371" style="fill:none;stroke:#000000;stroke-width:0.5" />
<path d="M1495.7,55.371L1495.7,63.371" style="fill:none;stroke:#000000;stroke-width:0.5" />
<path d="M1692.8,55.371L1692.8,63.371" style="fill:none;stroke:#000000;stroke-width:0.5" />
<path d="M1890,55.371L1890,63.371" style="fill:none;stroke:#000000;stroke-width:0.5" />
<path d="M115.62,63.371L1890,63.371" style="fill:none;stroke:#000000;stroke-width:0.5" />
<g transform="rotate(90)">
<text x="538.49" y="23.467" transform="scale(1, -1)"
	style="font-family:Liberation Serif;font-variant:normal;font-weight:normal;font-style:normal;font-size:30px">μs</text>
</g>
<text x="39.712" y="-321.24" transform="scale(1, -1)"
	style="font-family:Liberation Serif;font-variant:normal;font-weight:normal;font-style:normal;font-size:20px">1e+07</text>
<text x="39.712" y="-880.55" transform="scale(1, -1)"
	style="font-family:Liberation Serif;font-variant:normal;font-weight:normal;font-style:normal;font-size:20px">3e+07</text>
<path d="M94.868,325.81L102.87,325.81" style="fill:none;stroke:#000000;stroke-width:0.5" />
<path d="M94.868,885.12L102.87,885.12" style="fill:none;stroke:#000000;stroke-width:0.5" />
<path d="M98.868,605.46L102.87,605.46" style="fill:none;stroke:#000000;stroke-width:0.5" />
<path d="M102.87,80.11L102.87,1024.6" style="fill:none;stroke:#000000;stroke-width:0.5" />
<path d="M115.62,80.11L115.62,1024.6" style="fill:none;stroke:#808080;stroke-width:0.25" />
<path d="M312.77,80.11L312.77,1024.6" style="fill:none;stroke:#808080;stroke-width:0.25" />
<path d="M509.93,80.11L509.93,1024.6" style="fill:none;stroke:#808080;stroke-width:0.25" />
<path d="M707.08,80.11L707.08,1024.6" style="fill:none;stroke:#808080;stroke-width:0.25" />
<path d="M904.23,80.11L904.23,1024.6" style="fill:none;stroke:#808080;stroke-width:0.25" />
<path d="M1101.4,80.11L1101.4,1024.6" style="fill:none;stroke:#808080;stroke-width:0.25" />
<path d="M1298.5,80.11L1298.5,1024.6" style="fill:none;stroke:#808080;stroke-width:0.25" />
<path d="M1495.7,80.11L1495.7,1024.6" style="fill:none;stroke:#808080;stroke-width:0.25" />
<path d="M1692.8,80.11L1692.8,1024.6" style="fill:none;stroke:#808080;stroke-width:0.25" />
<path d="M1890,80.11L1890,1024.6" style="fill:none;stroke:#808080;stroke-width:0.25" />
<path d="M115.62,325.81L1890,325.81" style="fill:none;stroke:#808080;stroke-width:0.25" />
<path d="M115.62,885.12L1890,885.12" style="fill:none;stroke:#808080;stroke-width:0.25" />
<path d="M115.62,128.3L312.77,216.73L509.93,310.14L707.08,411.67L904.23,506.35L1101.4,595.17L1298.5,656.36L1495.7,740.74L1692.8,848.37L1890,935.68" style="fill:none;stroke:#FF0000;stroke-width:4" />
<path d="M120.62,128.3A5,5 0 1 1 110.62,128.3A5,5 0 1 1 120.62,128.3Z" style="fill:#FF0000" />
<path d="M317.77,216.73A5,5 0 1 1 307.77,216.73A5,5 0 1 1 317.77,216.73Z" style="fill:#FF0000" />
<path d="M514.93,310.14A5,5 0 1 1 504.93,310.14A5,5 0 1 1 514.93,310.14Z" style="fill:#FF0000" />
<path d="M712.08,411.67A5,5 0 1 1 702.08,411.67A5,5 0 1 1 712.08,411.67Z" style="fill:#FF0000" />
<path d="M909.23,506.35A5,5 0 1 1 899.23,506.35A5,5 0 1 1 909.23,506.35Z" style="fill:#FF0000" />
<path d="M1106.4,595.17A5,5 0 1 1 1096.4,595.17A5,5 0 1 1 1106.4,595.17Z" style="fill:#FF0000" />
<path d="M1303.5,656.36A5,5 0 1 1 1293.5,656.36A5,5 0 1 1 1303.5,656.36Z" style="fill:#FF0000" />
<path d="M1500.7,740.74A5,5 0 1 1 1490.7,740.74A5,5 0 1 1 1500.7,740.74Z" style="fill:#FF0000" />
<path d="M1697.8,848.37A5,5 0 1 1 1687.8,848.37A5,5 0 1 1 1697.8,848.37Z" style="fill:#FF0000" />
<path d="M1895,935.68A5,5 0 1 1 1885,935.68A5,5 0 1 1 1895,935.68Z" style="fill:#FF0000" />
<path d="M115.62,80.11L312.77,121.94L509.93,161.85L707.08,197.47L904.23,242.52L1101.4,280.34L1298.5,329.39L1495.7,376.46L1692.8,419.7L1890,470.62" style="fill:none;stroke:#0000FF;stroke-width:4" />
<path d="M120.62,80.11A5,5 0 1 1 110.62,80.11A5,5 0 1 1 120.62,80.11Z" style="fill:#0000FF" />
<path d="M317.77,121.94A5,5 0 1 1 307.77,121.94A5,5 0 1 1 317.77,121.94Z" style="fill:#0000FF" />
<path d="M514.93,161.85A5,5 0 1 1 504.93,161.85A5,5 0 1 1 514.93,161.85Z" style="fill:#0000FF" />
<path d="M712.08,197.47A5,5 0 1 1 702.08,197.47A5,5 0 1 1 712.08,197.47Z" style="fill:#0000FF" />
<path d="M909.23,242.52A5,5 0 1 1 899.23,242.52A5,5 0 1 1 909.23,242.52Z" style="fill:#0000FF" />
<path d="M1106.4,280.34A5,5 0 1 1 1096.4,280.34A5,5 0 1 1 1106.4,280.34Z" style="fill:#0000FF" />
<path d="M1303.5,329.39A5,5 0 1 1 1293.5,329.39A5,5 0 1 1 1303.5,329.39Z" style="fill:#0000FF" />
<path d="M1500.7,376.46A5,5 0 1 1 1490.7,376.46A5,5 0 1 1 1500.7,376.46Z" style="fill:#0000FF" />
<path d="M1697.8,419.7A5,5 0 1 1 1687.8,419.7A5,5 0 1 1 1697.8,419.7Z" style="fill:#0000FF" />
<path d="M1895,470.62A5,5 0 1 1 1885,470.62A5,5 0 1 1 1895,470.62Z" style="fill:#0000FF" />
<path d="M115.62,112.83L312.77,184.48L509.93,253.95L707.08,324.53L904.23,368.53L1101.4,438.08L1298.5,514.95L1495.7,577.71L1692.8,646.67L1890,736.15" style="fill:none;stroke:#00FF00;stroke-width:4" />
<path d="M120.62,112.83A5,5 0 1 1 110.62,112.83A5,5 0 1 1 120.62,112.83Z" style="fill:#00FF00" />
<path d="M317.77,184.48A5,5 0 1 1 307.77,184.48A5,5 0 1 1 317.77,184.48Z" style="fill:#00FF00" />
<path d="M514.93,253.95A5,5 0 1 1 504.93,253.95A5,5 0 1 1 514.93,253.95Z" style="fill:#00FF00" />
<path d="M712.08,324.53A5,5 0 1 1 702.08,324.53A5,5 0 1 1 712.08,324.53Z" style="fill:#00FF00" />
<path d="M909.23,368.53A5,5 0 1 1 899.23,368.53A5,5 0 1 1 909.23,368.53Z" style="fill:#00FF00" />
<path d="M1106.4,438.08A5,5 0 1 1 1096.4,438.08A5,5 0 1 1 1106.4,438.08Z" style="fill:#00FF00" />
<path d="M1303.5,514.95A5,5 0 1 1 1293.5,514.95A5,5 0 1 1 1303.5,514.95Z" style="fill:#00FF00" />
<path d="M1500.7,577.71A5,5 0 1 1 1490.7,577.71A5,5 0 1 1 1500.7,577.71Z" style="fill:#00FF00" />
<path d="M1697.8,646.67A5,5 0 1 1 1687.8,646.67A5,5 0 1 1 1697.8,646.67Z" style="fill:#00FF00" />
<path d="M1895,736.15A5,5 0 1 1 1885,736.15A5,5 0 1 1 1895,736.15Z" style="fill:#00FF00" />
<path d="M1900,126.03L1920,126.03" style="fill:none;stroke:#FF0000;stroke-width:4" />
<path d="M1915,126.03A5,5 0 1 1 1905,126.03A5,5 0 1 1 1915,126.03Z" style="fill:#FF0000" />
<text x="1792.7" y="-121.05" transform="scale(1, -1)"
	style="font-family:Liberation Serif;font-variant:normal;font-weight:normal;font-style:normal;font-size:24px">std::vector</text>
<path d="M1900,105.66L1920,105.66" style="fill:none;stroke:#0000FF;stroke-width:4" />
<path d="M1915,105.66A5,5 0 1 1 1905,105.66A5,5 0 1 1 1915,105.66Z" style="fill:#0000FF" />
<text x="1823.3" y="-100.69" transform="scale(1, -1)"
	style="font-family:Liberation Serif;font-variant:normal;font-weight:normal;font-style:normal;font-size:24px">std::list</text>
<path d="M1900,85.294L1920,85.294" style="fill:none;stroke:#00FF00;stroke-width:4" />
<path d="M1915,85.294A5,5 0 1 1 1905,85.294A5,5 0 1 1 1915,85.294Z" style="fill:#00FF00" />
<text x="1795.4" y="-80.319" transform="scale(1, -1)"
	style="font-family:Liberation Serif;font-variant:normal;font-weight:normal;font-style:normal;font-size:24px">std::deque</text>
</g>
</svg>
