<?xml version="1.0"?>
<!-- Generated by SVGo and Plotinum VG -->
<svg width="1920pt" height="1080pt" viewBox="0 0 1920 1080"
	xmlns="http://www.w3.org/2000/svg"
	xmlns:xlink="http://www.w3.org/1999/xlink">
<g transform="scale(1, -1) translate(0, -1080)">
<path d="M0,0L1920,0L1920,1080L0,1080Z" style="fill:#FFFFFF" />
<text x="698.28" y="-1040.9" transform="scale(1, -1)"
	style="font-family:Liberation Serif;font-variant:normal;font-weight:normal;font-style:normal;font-size:50px">random-insert - Log Scale</text>
<text x="902.77" y="-9.7559" transform="scale(1, -1)"
	style="font-family:Liberation Serif;font-variant:normal;font-weight:normal;font-style:normal;font-size:30px">Number of elements</text>
<text x="135.46" y="-39.727" transform="scale(1, -1)"
	style="font-family:Liberation Serif;font-variant:normal;font-weight:normal;font-style:normal;font-size:20px">10000</text>
<text x="327.63" y="-39.727" transform="scale(1, -1)"
	style="font-family:Liberation Serif;font-variant:normal;font-weight:normal;font-style:normal;font-size:20px">20000</text>
<text x="519.8" y="-39.727" transform="scale(1, -1)"
	style="font-family:Liberation Serif;font-variant:normal;font-weight:normal;font-style:normal;font-size:20px">30000</text>
<text x="711.97" y="-39.727" transform="scale(1, -1)"
	style="font-family:Liberation Serif;font-variant:normal;font-weight:normal;font-style:normal;font-size:20px">40000</text>
<text x="904.15" y="-39.727" transform="scale(1, -1)"
	style="font-family:Liberation Serif;font-variant:normal;font-weight:normal;font-style:normal;font-size:20px">50000</text>
<text x="1096.3" y="-39.727" transform="scale(1, -1)"
	style="font-family:Liberation Serif;font-variant:normal;font-weight:normal;font-style:normal;font-size:20px">60000</text>
<text x="1288.5" y="-39.727" transform="scale(1, -1)"
	style="font-family:Liberation Serif;font-variant:normal;font-weight:normal;font-style:normal;font-size:20px">70000</text>
<text x="1480.7" y="-39.727" transform="scale(1, -1)"
	style="font-family:Liberation Serif;font-variant:normal;font-weight:normal;font-style:normal;font-size:20px">80000</text>
<text x="1672.8" y="-39.727" transform="scale(1, -1)"
	style="font-family:Liberation Serif;font-variant:normal;font-weight:normal;font-style:normal;font-size:20px">90000</text>
<text x="1860" y="-39.727" transform="scale(1, -1)"
	style="font-family:Liberation Serif;font-variant:normal;font-weight:normal;font-style:normal;font-size:20px">100000</text>
<path d="M160.46,55.371L160.46,63.371" style="fill:none;stroke:#000000;stroke-width:0.5" />
<path d="M352.63,55.371L352.63,63.371" style="fill:none;stroke:#000000;stroke-width:0.5" />
<path d="M544.8,55.371L544.8,63.371" style="fill:none;stroke:#000000;stroke-width:0.5" />
<path d="M736.97,55.371L736.97,63.371" style="fill:none;stroke:#000000;stroke-width:0.5" />
<path d="M929.15,55.371L929.15,63.371" style="fill:none;stroke:#000000;stroke-width:0.5" />
<path d="M1121.3,55.371L1121.3,63.371" style="fill:none;stroke:#000000;stroke-width:0.5" />
<path d="M1313.5,55.371L1313.5,63.371" style="fill:none;stroke:#000000;stroke-width:0.5" />
<path d="M1505.7,55.371L1505.7,63.371" style="fill:none;stroke:#000000;stroke-width:0.5" />
<path d="M1697.8,55.371L1697.8,63.371" style="fill:none;stroke:#000000;stroke-width:0.5" />
<path d="M1890,55.371L1890,63.371" style="fill:none;stroke:#000000;stroke-width:0.5" />
<path d="M160.46,63.371L1890,63.371" style="fill:none;stroke:#000000;stroke-width:0.5" />
<g transform="rotate(90)">
<text x="483.47" y="23.467" transform="scale(1, -1)"
	style="font-family:Liberation Serif;font-variant:normal;font-weight:normal;font-style:normal;font-size:30px">log(μs + 1)</text>
</g>
<text x="49.712" y="-302.72" transform="scale(1, -1)"
	style="font-family:Liberation Serif;font-variant:normal;font-weight:normal;font-style:normal;font-size:20px">250000.00</text>
<text x="39.712" y="-805.87" transform="scale(1, -1)"
	style="font-family:Liberation Serif;font-variant:normal;font-weight:normal;font-style:normal;font-size:20px">1000000.00</text>
<text x="39.712" y="-1009" transform="scale(1, -1)"
	style="font-family:Liberation Serif;font-variant:normal;font-weight:normal;font-style:normal;font-size:20px">1750000.00</text>
<path d="M139.71,307.29L147.71,307.29" style="fill:none;stroke:#000000;stroke-width:0.5" />
<path d="M139.71,810.44L147.71,810.44" style="fill:none;stroke:#000000;stroke-width:0.5" />
<path d="M139.71,1013.6L147.71,1013.6" style="fill:none;stroke:#000000;stroke-width:0.5" />
<path d="M143.71,639.85L147.71,639.85" style="fill:none;stroke:#000000;stroke-width:0.5" />
<path d="M143.71,926.02L147.71,926.02" style="fill:none;stroke:#000000;stroke-width:0.5" />
<path d="M147.71,80.11L147.71,1019.8" style="fill:none;stroke:#000000;stroke-width:0.5" />
<path d="M160.46,80.11L160.46,1019.8" style="fill:none;stroke:#808080;stroke-width:0.25" />
<path d="M352.63,80.11L352.63,1019.8" style="fill:none;stroke:#808080;stroke-width:0.25" />
<path d="M544.8,80.11L544.8,1019.8" style="fill:none;stroke:#808080;stroke-width:0.25" />
<path d="M736.97,80.11L736.97,1019.8" style="fill:none;stroke:#808080;stroke-width:0.25" />
<path d="M929.15,80.11L929.15,1019.8" style="fill:none;stroke:#808080;stroke-width:0.25" />
<path d="M1121.3,80.11L1121.3,1019.8" style="fill:none;stroke:#808080;stroke-width:0.25" />
<path d="M1313.5,80.11L1313.5,1019.8" style="fill:none;stroke:#808080;stroke-width:0.25" />
<path d="M1505.7,80.11L1505.7,1019.8" style="fill:none;stroke:#808080;stroke-width:0.25" />
<path d="M1697.8,80.11L1697.8,1019.8" style="fill:none;stroke:#808080;stroke-width:0.25" />
<path d="M1890,80.11L1890,1019.8" style="fill:none;stroke:#808080;stroke-width:0.25" />
<path d="M160.46,307.29L1890,307.29" style="fill:none;stroke:#808080;stroke-width:0.25" />
<path d="M160.46,810.44L1890,810.44" style="fill:none;stroke:#808080;stroke-width:0.25" />
<path d="M160.46,1013.6L1890,1013.6" style="fill:none;stroke:#808080;stroke-width:0.25" />
<path d="M160.46,94.15L352.63,363.06L544.8,512.28L736.97,676.77L929.15,772.73L1121.3,837.44L1313.5,882.45L1505.7,939.24L1697.8,947.49L1890,985.24" style="fill:none;stroke:#FF0000;stroke-width:4" />
<path d="M165.46,94.15A5,5 0 1 1 155.46,94.15A5,5 0 1 1 165.46,94.15Z" style="fill:#FF0000" />
<path d="M357.63,363.06A5,5 0 1 1 347.63,363.06A5,5 0 1 1 357.63,363.06Z" style="fill:#FF0000" />
<path d="M549.8,512.28A5,5 0 1 1 539.8,512.28A5,5 0 1 1 549.8,512.28Z" style="fill:#FF0000" />
<path d="M741.97,676.77A5,5 0 1 1 731.97,676.77A5,5 0 1 1 741.97,676.77Z" style="fill:#FF0000" />
<path d="M934.15,772.73A5,5 0 1 1 924.15,772.73A5,5 0 1 1 934.15,772.73Z" style="fill:#FF0000" />
<path d="M1126.3,837.44A5,5 0 1 1 1116.3,837.44A5,5 0 1 1 1126.3,837.44Z" style="fill:#FF0000" />
<path d="M1318.5,882.45A5,5 0 1 1 1308.5,882.45A5,5 0 1 1 1318.5,882.45Z" style="fill:#FF0000" />
<path d="M1510.7,939.24A5,5 0 1 1 1500.7,939.24A5,5 0 1 1 1510.7,939.24Z" style="fill:#FF0000" />
<path d="M1702.8,947.49A5,5 0 1 1 1692.8,947.49A5,5 0 1 1 1702.8,947.49Z" style="fill:#FF0000" />
<path d="M1895,985.24A5,5 0 1 1 1885,985.24A5,5 0 1 1 1895,985.24Z" style="fill:#FF0000" />
<path d="M160.46,140.63L352.63,395.78L544.8,505.2L736.97,619.3L929.15,694.18L1121.3,782.35L1313.5,802.05L1505.7,907.42L1697.8,950.08L1890,954.98" style="fill:none;stroke:#0000FF;stroke-width:4" />
<path d="M165.46,140.63A5,5 0 1 1 155.46,140.63A5,5 0 1 1 165.46,140.63Z" style="fill:#0000FF" />
<path d="M357.63,395.78A5,5 0 1 1 347.63,395.78A5,5 0 1 1 357.63,395.78Z" style="fill:#0000FF" />
<path d="M549.8,505.2A5,5 0 1 1 539.8,505.2A5,5 0 1 1 549.8,505.2Z" style="fill:#0000FF" />
<path d="M741.97,619.3A5,5 0 1 1 731.97,619.3A5,5 0 1 1 741.97,619.3Z" style="fill:#0000FF" />
<path d="M934.15,694.18A5,5 0 1 1 924.15,694.18A5,5 0 1 1 934.15,694.18Z" style="fill:#0000FF" />
<path d="M1126.3,782.35A5,5 0 1 1 1116.3,782.35A5,5 0 1 1 1126.3,782.35Z" style="fill:#0000FF" />
<path d="M1318.5,802.05A5,5 0 1 1 1308.5,802.05A5,5 0 1 1 1318.5,802.05Z" style="fill:#0000FF" />
<path d="M1510.7,907.42A5,5 0 1 1 1500.7,907.42A5,5 0 1 1 1510.7,907.42Z" style="fill:#0000FF" />
<path d="M1702.8,950.08A5,5 0 1 1 1692.8,950.08A5,5 0 1 1 1702.8,950.08Z" style="fill:#0000FF" />
<path d="M1895,954.98A5,5 0 1 1 1885,954.98A5,5 0 1 1 1895,954.98Z" style="fill:#0000FF" />
<path d="M160.46,80.11L352.63,313.04L544.8,441.06L736.97,594.25L929.15,666.75L1121.3,717.22L1313.5,811.36L1505.7,825.08L1697.8,890.17L1890,940.8" style="fill:none;stroke:#00FF00;stroke-width:4" />
<path d="M165.46,80.11A5,5 0 1 1 155.46,80.11A5,5 0 1 1 165.46,80.11Z" style="fill:#00FF00" />
<path d="M357.63,313.04A5,5 0 1 1 347.63,313.04A5,5 0 1 1 357.63,313.04Z" style="fill:#00FF00" />
<path d="M549.8,441.06A5,5 0 1 1 539.8,441.06A5,5 0 1 1 549.8,441.06Z" style="fill:#00FF00" />
<path d="M741.97,594.25A5,5 0 1 1 731.97,594.25A5,5 0 1 1 741.97,594.25Z" style="fill:#00FF00" />
<path d="M934.15,666.75A5,5 0 1 1 924.15,666.75A5,5 0 1 1 934.15,666.75Z" style="fill:#00FF00" />
<path d="M1126.3,717.22A5,5 0 1 1 1116.3,717.22A5,5 0 1 1 1126.3,717.22Z" style="fill:#00FF00" />
<path d="M1318.5,811.36A5,5 0 1 1 1308.5,811.36A5,5 0 1 1 1318.5,811.36Z" style="fill:#00FF00" />
<path d="M1510.7,825.08A5,5 0 1 1 1500.7,825.08A5,5 0 1 1 1510.7,825.08Z" style="fill:#00FF00" />
<path d="M1702.8,890.17A5,5 0 1 1 1692.8,890.17A5,5 0 1 1 1702.8,890.17Z" style="fill:#00FF00" />
<path d="M1895,940.8A5,5 0 1 1 1885,940.8A5,5 0 1 1 1895,940.8Z" style="fill:#00FF00" />
<path d="M1900,126.03L1920,126.03" style="fill:none;stroke:#FF0000;stroke-width:4" />
<path d="M1915,126.03A5,5 0 1 1 1905,126.03A5,5 0 1 1 1915,126.03Z" style="fill:#FF0000" />
<text x="1823.3" y="-121.05" transform="scale(1, -1)"
	style="font-family:Liberation Serif;font-variant:normal;font-weight:normal;font-style:normal;font-size:24px">std::list</text>
<path d="M1900,105.66L1920,105.66" style="fill:none;stroke:#0000FF;stroke-width:4" />
<path d="M1915,105.66A5,5 0 1 1 1905,105.66A5,5 0 1 1 1915,105.66Z" style="fill:#0000FF" />
<text x="1795.4" y="-100.69" transform="scale(1, -1)"
	style="font-family:Liberation Serif;font-variant:normal;font-weight:normal;font-style:normal;font-size:24px">std::deque</text>
<path d="M1900,85.294L1920,85.294" style="fill:none;stroke:#00FF00;stroke-width:4" />
<path d="M1915,85.294A5,5 0 1 1 1905,85.294A5,5 0 1 1 1915,85.294Z" style="fill:#00FF00" />
<text x="1792.7" y="-80.319" transform="scale(1, -1)"
	style="font-family:Liberation Serif;font-variant:normal;font-weight:normal;font-style:normal;font-size:24px">std::vector</text>
</g>
</svg>
