<?xml version="1.0"?>
<!-- Generated by SVGo and Plotinum VG -->
<svg width="1920pt" height="1080pt" viewBox="0 0 1920 1080"
	xmlns="http://www.w3.org/2000/svg"
	xmlns:xlink="http://www.w3.org/1999/xlink">
<g transform="scale(1, -1) translate(0, -1080)">
<path d="M0,0L1920,0L1920,1080L0,1080Z" style="fill:#FFFFFF" />
<text x="819.77" y="-1040.9" transform="scale(1, -1)"
	style="font-family:Liberation Serif;font-variant:normal;font-weight:normal;font-style:normal;font-size:50px">random-insert</text>
<text x="902.77" y="-9.7559" transform="scale(1, -1)"
	style="font-family:Liberation Serif;font-variant:normal;font-weight:normal;font-style:normal;font-size:30px">Number of elements</text>
<text x="135.46" y="-39.727" transform="scale(1, -1)"
	style="font-family:Liberation Serif;font-variant:normal;font-weight:normal;font-style:normal;font-size:20px">10000</text>
<text x="327.63" y="-39.727" transform="scale(1, -1)"
	style="font-family:Liberation Serif;font-variant:normal;font-weight:normal;font-style:normal;font-size:20px">20000</text>
<text x="519.8" y="-39.727" transform="scale(1, -1)"
	style="font-family:Liberation Serif;font-variant:normal;font-weight:normal;font-style:normal;font-size:20px">30000</text>
<text x="711.97" y="-39.727" transform="scale(1, -1)"
	style="font-family:Liberation Serif;font-variant:normal;font-weight:normal;font-style:normal;font-size:20px">40000</text>
<text x="904.15" y="-39.727" transform="scale(1, -1)"
	style="font-family:Liberation Serif;font-variant:normal;font-weight:normal;font-style:normal;font-size:20px">50000</text>
<text x="1096.3" y="-39.727" transform="scale(1, -1)"
	style="font-family:Liberation Serif;font-variant:normal;font-weight:normal;font-style:normal;font-size:20px">60000</text>
<text x="1288.5" y="-39.727" transform="scale(1, -1)"
	style="font-family:Liberation Serif;font-variant:normal;font-weight:normal;font-style:normal;font-size:20px">70000</text>
<text x="1480.7" y="-39.727" transform="scale(1, -1)"
	style="font-family:Liberation Serif;font-variant:normal;font-weight:normal;font-style:normal;font-size:20px">80000</text>
<text x="1672.8" y="-39.727" transform="scale(1, -1)"
	style="font-family:Liberation Serif;font-variant:normal;font-weight:normal;font-style:normal;font-size:20px">90000</text>
<text x="1860" y="-39.727" transform="scale(1, -1)"
	style="font-family:Liberation Serif;font-variant:normal;font-weight:normal;font-style:normal;font-size:20px">100000</text>
<path d="M160.46,55.371L160.46,63.371" style="fill:none;stroke:#000000;stroke-width:0.5" />
<path d="M352.63,55.371L352.63,63.371" style="fill:none;stroke:#000000;stroke-width:0.5" />
<path d="M544.8,55.371L544.8,63.371" style="fill:none;stroke:#000000;stroke-width:0.5" />
<path d="M736.97,55.371L736.97,63.371" style="fill:none;stroke:#000000;stroke-width:0.5" />
<path d="M929.15,55.371L929.15,63.371" style="fill:none;stroke:#000000;stroke-width:0.5" />
<path d="M1121.3,55.371L1121.3,63.371" style="fill:none;stroke:#000000;stroke-width:0.5" />
<path d="M1313.5,55.371L1313.5,63.371" style="fill:none;stroke:#000000;stroke-width:0.5" />
<path d="M1505.7,55.371L1505.7,63.371" style="fill:none;stroke:#000000;stroke-width:0.5" />
<path d="M1697.8,55.371L1697.8,63.371" style="fill:none;stroke:#000000;stroke-width:0.5" />
<path d="M1890,55.371L1890,63.371" style="fill:none;stroke:#000000;stroke-width:0.5" />
<path d="M160.46,63.371L1890,63.371" style="fill:none;stroke:#000000;stroke-width:0.5" />
<g transform="rotate(90)">
<text x="538.49" y="23.467" transform="scale(1, -1)"
	style="font-family:Liberation Serif;font-variant:normal;font-weight:normal;font-style:normal;font-size:30px">μs</text>
</g>
<text x="49.712" y="-141.4" transform="scale(1, -1)"
	style="font-family:Liberation Serif;font-variant:normal;font-weight:normal;font-style:normal;font-size:20px">250000.00</text>
<text x="39.712" y="-528.97" transform="scale(1, -1)"
	style="font-family:Liberation Serif;font-variant:normal;font-weight:normal;font-style:normal;font-size:20px">1000000.00</text>
<text x="39.712" y="-916.53" transform="scale(1, -1)"
	style="font-family:Liberation Serif;font-variant:normal;font-weight:normal;font-style:normal;font-size:20px">1750000.00</text>
<path d="M139.71,145.97L147.71,145.97" style="fill:none;stroke:#000000;stroke-width:0.5" />
<path d="M139.71,533.54L147.71,533.54" style="fill:none;stroke:#000000;stroke-width:0.5" />
<path d="M139.71,921.1L147.71,921.1" style="fill:none;stroke:#000000;stroke-width:0.5" />
<path d="M143.71,339.75L147.71,339.75" style="fill:none;stroke:#000000;stroke-width:0.5" />
<path d="M143.71,727.32L147.71,727.32" style="fill:none;stroke:#000000;stroke-width:0.5" />
<path d="M147.71,80.11L147.71,1024.6" style="fill:none;stroke:#000000;stroke-width:0.5" />
<path d="M160.46,80.11L160.46,1024.6" style="fill:none;stroke:#808080;stroke-width:0.25" />
<path d="M352.63,80.11L352.63,1024.6" style="fill:none;stroke:#808080;stroke-width:0.25" />
<path d="M544.8,80.11L544.8,1024.6" style="fill:none;stroke:#808080;stroke-width:0.25" />
<path d="M736.97,80.11L736.97,1024.6" style="fill:none;stroke:#808080;stroke-width:0.25" />
<path d="M929.15,80.11L929.15,1024.6" style="fill:none;stroke:#808080;stroke-width:0.25" />
<path d="M1121.3,80.11L1121.3,1024.6" style="fill:none;stroke:#808080;stroke-width:0.25" />
<path d="M1313.5,80.11L1313.5,1024.6" style="fill:none;stroke:#808080;stroke-width:0.25" />
<path d="M1505.7,80.11L1505.7,1024.6" style="fill:none;stroke:#808080;stroke-width:0.25" />
<path d="M1697.8,80.11L1697.8,1024.6" style="fill:none;stroke:#808080;stroke-width:0.25" />
<path d="M1890,80.11L1890,1024.6" style="fill:none;stroke:#808080;stroke-width:0.25" />
<path d="M160.46,145.97L1890,145.97" style="fill:none;stroke:#808080;stroke-width:0.25" />
<path d="M160.46,533.54L1890,533.54" style="fill:none;stroke:#808080;stroke-width:0.25" />
<path d="M160.46,921.1L1890,921.1" style="fill:none;stroke:#808080;stroke-width:0.25" />
<path d="M160.46,90.704L352.63,168.97L544.8,223.82L736.97,305.77L929.15,374.27L1121.3,483.08L1313.5,549.63L1505.7,627.42L1697.8,692.73L1890,842.98" style="fill:none;stroke:#FF0000;stroke-width:4" />
<path d="M165.46,90.704A5,5 0 1 1 155.46,90.704A5,5 0 1 1 165.46,90.704Z" style="fill:#FF0000" />
<path d="M357.63,168.97A5,5 0 1 1 347.63,168.97A5,5 0 1 1 357.63,168.97Z" style="fill:#FF0000" />
<path d="M549.8,223.82A5,5 0 1 1 539.8,223.82A5,5 0 1 1 549.8,223.82Z" style="fill:#FF0000" />
<path d="M741.97,305.77A5,5 0 1 1 731.97,305.77A5,5 0 1 1 741.97,305.77Z" style="fill:#FF0000" />
<path d="M934.15,374.27A5,5 0 1 1 924.15,374.27A5,5 0 1 1 934.15,374.27Z" style="fill:#FF0000" />
<path d="M1126.3,483.08A5,5 0 1 1 1116.3,483.08A5,5 0 1 1 1126.3,483.08Z" style="fill:#FF0000" />
<path d="M1318.5,549.63A5,5 0 1 1 1308.5,549.63A5,5 0 1 1 1318.5,549.63Z" style="fill:#FF0000" />
<path d="M1510.7,627.42A5,5 0 1 1 1500.7,627.42A5,5 0 1 1 1510.7,627.42Z" style="fill:#FF0000" />
<path d="M1702.8,692.73A5,5 0 1 1 1692.8,692.73A5,5 0 1 1 1702.8,692.73Z" style="fill:#FF0000" />
<path d="M1895,842.98A5,5 0 1 1 1885,842.98A5,5 0 1 1 1895,842.98Z" style="fill:#FF0000" />
<path d="M160.46,100.97L352.63,171.21L544.8,255.07L736.97,343.19L929.15,425.7L1121.3,529.31L1313.5,618.49L1505.7,705L1697.8,769.8L1890,933.01" style="fill:none;stroke:#0000FF;stroke-width:4" />
<path d="M165.46,100.97A5,5 0 1 1 155.46,100.97A5,5 0 1 1 165.46,100.97Z" style="fill:#0000FF" />
<path d="M357.63,171.21A5,5 0 1 1 347.63,171.21A5,5 0 1 1 357.63,171.21Z" style="fill:#0000FF" />
<path d="M549.8,255.07A5,5 0 1 1 539.8,255.07A5,5 0 1 1 549.8,255.07Z" style="fill:#0000FF" />
<path d="M741.97,343.19A5,5 0 1 1 731.97,343.19A5,5 0 1 1 741.97,343.19Z" style="fill:#0000FF" />
<path d="M934.15,425.7A5,5 0 1 1 924.15,425.7A5,5 0 1 1 934.15,425.7Z" style="fill:#0000FF" />
<path d="M1126.3,529.31A5,5 0 1 1 1116.3,529.31A5,5 0 1 1 1126.3,529.31Z" style="fill:#0000FF" />
<path d="M1318.5,618.49A5,5 0 1 1 1308.5,618.49A5,5 0 1 1 1318.5,618.49Z" style="fill:#0000FF" />
<path d="M1510.7,705A5,5 0 1 1 1500.7,705A5,5 0 1 1 1510.7,705Z" style="fill:#0000FF" />
<path d="M1702.8,769.8A5,5 0 1 1 1692.8,769.8A5,5 0 1 1 1702.8,769.8Z" style="fill:#0000FF" />
<path d="M1895,933.01A5,5 0 1 1 1885,933.01A5,5 0 1 1 1895,933.01Z" style="fill:#0000FF" />
<path d="M160.46,80.11L352.63,153.47L544.8,232.32L736.97,281L929.15,341.44L1121.3,398.47L1313.5,486.97L1505.7,580.14L1697.8,675.82L1890,758.74" style="fill:none;stroke:#00FF00;stroke-width:4" />
<path d="M165.46,80.11A5,5 0 1 1 155.46,80.11A5,5 0 1 1 165.46,80.11Z" style="fill:#00FF00" />
<path d="M357.63,153.47A5,5 0 1 1 347.63,153.47A5,5 0 1 1 357.63,153.47Z" style="fill:#00FF00" />
<path d="M549.8,232.32A5,5 0 1 1 539.8,232.32A5,5 0 1 1 549.8,232.32Z" style="fill:#00FF00" />
<path d="M741.97,281A5,5 0 1 1 731.97,281A5,5 0 1 1 741.97,281Z" style="fill:#00FF00" />
<path d="M934.15,341.44A5,5 0 1 1 924.15,341.44A5,5 0 1 1 934.15,341.44Z" style="fill:#00FF00" />
<path d="M1126.3,398.47A5,5 0 1 1 1116.3,398.47A5,5 0 1 1 1126.3,398.47Z" style="fill:#00FF00" />
<path d="M1318.5,486.97A5,5 0 1 1 1308.5,486.97A5,5 0 1 1 1318.5,486.97Z" style="fill:#00FF00" />
<path d="M1510.7,580.14A5,5 0 1 1 1500.7,580.14A5,5 0 1 1 1510.7,580.14Z" style="fill:#00FF00" />
<path d="M1702.8,675.82A5,5 0 1 1 1692.8,675.82A5,5 0 1 1 1702.8,675.82Z" style="fill:#00FF00" />
<path d="M1895,758.74A5,5 0 1 1 1885,758.74A5,5 0 1 1 1895,758.74Z" style="fill:#00FF00" />
<path d="M1900,126.03L1920,126.03" style="fill:none;stroke:#FF0000;stroke-width:4" />
<path d="M1915,126.03A5,5 0 1 1 1905,126.03A5,5 0 1 1 1915,126.03Z" style="fill:#FF0000" />
<text x="1823.3" y="-121.05" transform="scale(1, -1)"
	style="font-family:Liberation Serif;font-variant:normal;font-weight:normal;font-style:normal;font-size:24px">std::list</text>
<path d="M1900,105.66L1920,105.66" style="fill:none;stroke:#0000FF;stroke-width:4" />
<path d="M1915,105.66A5,5 0 1 1 1905,105.66A5,5 0 1 1 1915,105.66Z" style="fill:#0000FF" />
<text x="1795.4" y="-100.69" transform="scale(1, -1)"
	style="font-family:Liberation Serif;font-variant:normal;font-weight:normal;font-style:normal;font-size:24px">std::deque</text>
<path d="M1900,85.294L1920,85.294" style="fill:none;stroke:#00FF00;stroke-width:4" />
<path d="M1915,85.294A5,5 0 1 1 1905,85.294A5,5 0 1 1 1915,85.294Z" style="fill:#00FF00" />
<text x="1792.7" y="-80.319" transform="scale(1, -1)"
	style="font-family:Liberation Serif;font-variant:normal;font-weight:normal;font-style:normal;font-size:24px">std::vector</text>
</g>
</svg>
