<?xml version="1.0"?>
<!-- Generated by SVGo and Plotinum VG -->
<svg width="1920pt" height="1080pt" viewBox="0 0 1920 1080"
	xmlns="http://www.w3.org/2000/svg"
	xmlns:xlink="http://www.w3.org/1999/xlink">
<g transform="scale(1, -1) translate(0, -1080)">
<path d="M0,0L1920,0L1920,1080L0,1080Z" style="fill:#FFFFFF" />
<text x="819.77" y="-1040.9" transform="scale(1, -1)"
	style="font-family:Liberation Serif;font-variant:normal;font-weight:normal;font-style:normal;font-size:50px">random-insert</text>
<text x="890.27" y="-9.7559" transform="scale(1, -1)"
	style="font-family:Liberation Serif;font-variant:normal;font-weight:normal;font-style:normal;font-size:30px">Number of elements</text>
<text x="110.46" y="-39.727" transform="scale(1, -1)"
	style="font-family:Liberation Serif;font-variant:normal;font-weight:normal;font-style:normal;font-size:20px">10000</text>
<text x="305.41" y="-39.727" transform="scale(1, -1)"
	style="font-family:Liberation Serif;font-variant:normal;font-weight:normal;font-style:normal;font-size:20px">20000</text>
<text x="500.36" y="-39.727" transform="scale(1, -1)"
	style="font-family:Liberation Serif;font-variant:normal;font-weight:normal;font-style:normal;font-size:20px">30000</text>
<text x="695.31" y="-39.727" transform="scale(1, -1)"
	style="font-family:Liberation Serif;font-variant:normal;font-weight:normal;font-style:normal;font-size:20px">40000</text>
<text x="890.26" y="-39.727" transform="scale(1, -1)"
	style="font-family:Liberation Serif;font-variant:normal;font-weight:normal;font-style:normal;font-size:20px">50000</text>
<text x="1085.2" y="-39.727" transform="scale(1, -1)"
	style="font-family:Liberation Serif;font-variant:normal;font-weight:normal;font-style:normal;font-size:20px">60000</text>
<text x="1280.2" y="-39.727" transform="scale(1, -1)"
	style="font-family:Liberation Serif;font-variant:normal;font-weight:normal;font-style:normal;font-size:20px">70000</text>
<text x="1475.1" y="-39.727" transform="scale(1, -1)"
	style="font-family:Liberation Serif;font-variant:normal;font-weight:normal;font-style:normal;font-size:20px">80000</text>
<text x="1670.1" y="-39.727" transform="scale(1, -1)"
	style="font-family:Liberation Serif;font-variant:normal;font-weight:normal;font-style:normal;font-size:20px">90000</text>
<text x="1860" y="-39.727" transform="scale(1, -1)"
	style="font-family:Liberation Serif;font-variant:normal;font-weight:normal;font-style:normal;font-size:20px">100000</text>
<path d="M135.46,55.371L135.46,63.371" style="fill:none;stroke:#000000;stroke-width:0.5" />
<path d="M330.41,55.371L330.41,63.371" style="fill:none;stroke:#000000;stroke-width:0.5" />
<path d="M525.36,55.371L525.36,63.371" style="fill:none;stroke:#000000;stroke-width:0.5" />
<path d="M720.31,55.371L720.31,63.371" style="fill:none;stroke:#000000;stroke-width:0.5" />
<path d="M915.26,55.371L915.26,63.371" style="fill:none;stroke:#000000;stroke-width:0.5" />
<path d="M1110.2,55.371L1110.2,63.371" style="fill:none;stroke:#000000;stroke-width:0.5" />
<path d="M1305.2,55.371L1305.2,63.371" style="fill:none;stroke:#000000;stroke-width:0.5" />
<path d="M1500.1,55.371L1500.1,63.371" style="fill:none;stroke:#000000;stroke-width:0.5" />
<path d="M1695.1,55.371L1695.1,63.371" style="fill:none;stroke:#000000;stroke-width:0.5" />
<path d="M1890,55.371L1890,63.371" style="fill:none;stroke:#000000;stroke-width:0.5" />
<path d="M135.46,63.371L1890,63.371" style="fill:none;stroke:#000000;stroke-width:0.5" />
<g transform="rotate(90)">
<text x="538.49" y="23.467" transform="scale(1, -1)"
	style="font-family:Liberation Serif;font-variant:normal;font-weight:normal;font-style:normal;font-size:30px">μs</text>
</g>
<text x="39.712" y="-144.66" transform="scale(1, -1)"
	style="font-family:Liberation Serif;font-variant:normal;font-weight:normal;font-style:normal;font-size:20px">1000000</text>
<text x="39.712" y="-546.48" transform="scale(1, -1)"
	style="font-family:Liberation Serif;font-variant:normal;font-weight:normal;font-style:normal;font-size:20px">5000000</text>
<text x="39.712" y="-948.31" transform="scale(1, -1)"
	style="font-family:Liberation Serif;font-variant:normal;font-weight:normal;font-style:normal;font-size:20px">9000000</text>
<path d="M114.71,149.23L122.71,149.23" style="fill:none;stroke:#000000;stroke-width:0.5" />
<path d="M114.71,551.05L122.71,551.05" style="fill:none;stroke:#000000;stroke-width:0.5" />
<path d="M114.71,952.88L122.71,952.88" style="fill:none;stroke:#000000;stroke-width:0.5" />
<path d="M118.71,249.68L122.71,249.68" style="fill:none;stroke:#000000;stroke-width:0.5" />
<path d="M118.71,350.14L122.71,350.14" style="fill:none;stroke:#000000;stroke-width:0.5" />
<path d="M118.71,450.6L122.71,450.6" style="fill:none;stroke:#000000;stroke-width:0.5" />
<path d="M118.71,651.51L122.71,651.51" style="fill:none;stroke:#000000;stroke-width:0.5" />
<path d="M118.71,751.97L122.71,751.97" style="fill:none;stroke:#000000;stroke-width:0.5" />
<path d="M118.71,852.42L122.71,852.42" style="fill:none;stroke:#000000;stroke-width:0.5" />
<path d="M122.71,80.11L122.71,1024.6" style="fill:none;stroke:#000000;stroke-width:0.5" />
<path d="M135.46,80.11L135.46,1024.6" style="fill:none;stroke:#808080;stroke-width:0.25" />
<path d="M330.41,80.11L330.41,1024.6" style="fill:none;stroke:#808080;stroke-width:0.25" />
<path d="M525.36,80.11L525.36,1024.6" style="fill:none;stroke:#808080;stroke-width:0.25" />
<path d="M720.31,80.11L720.31,1024.6" style="fill:none;stroke:#808080;stroke-width:0.25" />
<path d="M915.26,80.11L915.26,1024.6" style="fill:none;stroke:#808080;stroke-width:0.25" />
<path d="M1110.2,80.11L1110.2,1024.6" style="fill:none;stroke:#808080;stroke-width:0.25" />
<path d="M1305.2,80.11L1305.2,1024.6" style="fill:none;stroke:#808080;stroke-width:0.25" />
<path d="M1500.1,80.11L1500.1,1024.6" style="fill:none;stroke:#808080;stroke-width:0.25" />
<path d="M1695.1,80.11L1695.1,1024.6" style="fill:none;stroke:#808080;stroke-width:0.25" />
<path d="M1890,80.11L1890,1024.6" style="fill:none;stroke:#808080;stroke-width:0.25" />
<path d="M135.46,149.23L1890,149.23" style="fill:none;stroke:#808080;stroke-width:0.25" />
<path d="M135.46,551.05L1890,551.05" style="fill:none;stroke:#808080;stroke-width:0.25" />
<path d="M135.46,952.88L1890,952.88" style="fill:none;stroke:#808080;stroke-width:0.25" />
<path d="M135.46,90.532L330.41,169.29L525.36,280.81L720.31,368.02L915.26,485.36L1110.2,575.6L1305.2,654.06L1500.1,746.31L1695.1,851.24L1890,935.91" style="fill:none;stroke:#FF0000;stroke-width:4" />
<path d="M140.46,90.532A5,5 0 1 1 130.46,90.532A5,5 0 1 1 140.46,90.532Z" style="fill:#FF0000" />
<path d="M335.41,169.29A5,5 0 1 1 325.41,169.29A5,5 0 1 1 335.41,169.29Z" style="fill:#FF0000" />
<path d="M530.36,280.81A5,5 0 1 1 520.36,280.81A5,5 0 1 1 530.36,280.81Z" style="fill:#FF0000" />
<path d="M725.31,368.02A5,5 0 1 1 715.31,368.02A5,5 0 1 1 725.31,368.02Z" style="fill:#FF0000" />
<path d="M920.26,485.36A5,5 0 1 1 910.26,485.36A5,5 0 1 1 920.26,485.36Z" style="fill:#FF0000" />
<path d="M1115.2,575.6A5,5 0 1 1 1105.2,575.6A5,5 0 1 1 1115.2,575.6Z" style="fill:#FF0000" />
<path d="M1310.2,654.06A5,5 0 1 1 1300.2,654.06A5,5 0 1 1 1310.2,654.06Z" style="fill:#FF0000" />
<path d="M1505.1,746.31A5,5 0 1 1 1495.1,746.31A5,5 0 1 1 1505.1,746.31Z" style="fill:#FF0000" />
<path d="M1700.1,851.24A5,5 0 1 1 1690.1,851.24A5,5 0 1 1 1700.1,851.24Z" style="fill:#FF0000" />
<path d="M1895,935.91A5,5 0 1 1 1885,935.91A5,5 0 1 1 1895,935.91Z" style="fill:#FF0000" />
<path d="M135.46,80.11L330.41,120.27L525.36,181.96L720.31,232.54L915.26,285.79L1110.2,328.12L1305.2,381.03L1500.1,413.15L1695.1,490.19L1890,522.78" style="fill:none;stroke:#0000FF;stroke-width:4" />
<path d="M140.46,80.11A5,5 0 1 1 130.46,80.11A5,5 0 1 1 140.46,80.11Z" style="fill:#0000FF" />
<path d="M335.41,120.27A5,5 0 1 1 325.41,120.27A5,5 0 1 1 335.41,120.27Z" style="fill:#0000FF" />
<path d="M530.36,181.96A5,5 0 1 1 520.36,181.96A5,5 0 1 1 530.36,181.96Z" style="fill:#0000FF" />
<path d="M725.31,232.54A5,5 0 1 1 715.31,232.54A5,5 0 1 1 725.31,232.54Z" style="fill:#0000FF" />
<path d="M920.26,285.79A5,5 0 1 1 910.26,285.79A5,5 0 1 1 920.26,285.79Z" style="fill:#0000FF" />
<path d="M1115.2,328.12A5,5 0 1 1 1105.2,328.12A5,5 0 1 1 1115.2,328.12Z" style="fill:#0000FF" />
<path d="M1310.2,381.03A5,5 0 1 1 1300.2,381.03A5,5 0 1 1 1310.2,381.03Z" style="fill:#0000FF" />
<path d="M1505.1,413.15A5,5 0 1 1 1495.1,413.15A5,5 0 1 1 1505.1,413.15Z" style="fill:#0000FF" />
<path d="M1700.1,490.19A5,5 0 1 1 1690.1,490.19A5,5 0 1 1 1700.1,490.19Z" style="fill:#0000FF" />
<path d="M1895,522.78A5,5 0 1 1 1885,522.78A5,5 0 1 1 1895,522.78Z" style="fill:#0000FF" />
<path d="M135.46,104.89L330.41,197.25L525.36,302.97L720.31,389.61L915.26,471.92L1110.2,559.2L1305.2,647.55L1500.1,736.67L1695.1,833.15L1890,855.42" style="fill:none;stroke:#00FF00;stroke-width:4" />
<path d="M140.46,104.89A5,5 0 1 1 130.46,104.89A5,5 0 1 1 140.46,104.89Z" style="fill:#00FF00" />
<path d="M335.41,197.25A5,5 0 1 1 325.41,197.25A5,5 0 1 1 335.41,197.25Z" style="fill:#00FF00" />
<path d="M530.36,302.97A5,5 0 1 1 520.36,302.97A5,5 0 1 1 530.36,302.97Z" style="fill:#00FF00" />
<path d="M725.31,389.61A5,5 0 1 1 715.31,389.61A5,5 0 1 1 725.31,389.61Z" style="fill:#00FF00" />
<path d="M920.26,471.92A5,5 0 1 1 910.26,471.92A5,5 0 1 1 920.26,471.92Z" style="fill:#00FF00" />
<path d="M1115.2,559.2A5,5 0 1 1 1105.2,559.2A5,5 0 1 1 1115.2,559.2Z" style="fill:#00FF00" />
<path d="M1310.2,647.55A5,5 0 1 1 1300.2,647.55A5,5 0 1 1 1310.2,647.55Z" style="fill:#00FF00" />
<path d="M1505.1,736.67A5,5 0 1 1 1495.1,736.67A5,5 0 1 1 1505.1,736.67Z" style="fill:#00FF00" />
<path d="M1700.1,833.15A5,5 0 1 1 1690.1,833.15A5,5 0 1 1 1700.1,833.15Z" style="fill:#00FF00" />
<path d="M1895,855.42A5,5 0 1 1 1885,855.42A5,5 0 1 1 1895,855.42Z" style="fill:#00FF00" />
<path d="M1900,126.03L1920,126.03" style="fill:none;stroke:#FF0000;stroke-width:4" />
<path d="M1915,126.03A5,5 0 1 1 1905,126.03A5,5 0 1 1 1915,126.03Z" style="fill:#FF0000" />
<text x="1792.7" y="-121.05" transform="scale(1, -1)"
	style="font-family:Liberation Serif;font-variant:normal;font-weight:normal;font-style:normal;font-size:24px">std::vector</text>
<path d="M1900,105.66L1920,105.66" style="fill:none;stroke:#0000FF;stroke-width:4" />
<path d="M1915,105.66A5,5 0 1 1 1905,105.66A5,5 0 1 1 1915,105.66Z" style="fill:#0000FF" />
<text x="1823.3" y="-100.69" transform="scale(1, -1)"
	style="font-family:Liberation Serif;font-variant:normal;font-weight:normal;font-style:normal;font-size:24px">std::list</text>
<path d="M1900,85.294L1920,85.294" style="fill:none;stroke:#00FF00;stroke-width:4" />
<path d="M1915,85.294A5,5 0 1 1 1905,85.294A5,5 0 1 1 1915,85.294Z" style="fill:#00FF00" />
<text x="1795.4" y="-80.319" transform="scale(1, -1)"
	style="font-family:Liberation Serif;font-variant:normal;font-weight:normal;font-style:normal;font-size:24px">std::deque</text>
</g>
</svg>
