<?xml version="1.0"?>
<!-- Generated by SVGo and Plotinum VG -->
<svg width="1920pt" height="1080pt" viewBox="0 0 1920 1080"
	xmlns="http://www.w3.org/2000/svg"
	xmlns:xlink="http://www.w3.org/1999/xlink">
<g transform="scale(1, -1) translate(0, -1080)">
<path d="M0,0L1920,0L1920,1080L0,1080Z" style="fill:#FFFFFF" />
<text x="819.77" y="-1040.9" transform="scale(1, -1)"
	style="font-family:Liberation Serif;font-variant:normal;font-weight:normal;font-style:normal;font-size:50px">random-insert</text>
<text x="890.27" y="-9.7559" transform="scale(1, -1)"
	style="font-family:Liberation Serif;font-variant:normal;font-weight:normal;font-style:normal;font-size:30px">Number of elements</text>
<text x="110.46" y="-39.727" transform="scale(1, -1)"
	style="font-family:Liberation Serif;font-variant:normal;font-weight:normal;font-style:normal;font-size:20px">10000</text>
<text x="305.41" y="-39.727" transform="scale(1, -1)"
	style="font-family:Liberation Serif;font-variant:normal;font-weight:normal;font-style:normal;font-size:20px">20000</text>
<text x="500.36" y="-39.727" transform="scale(1, -1)"
	style="font-family:Liberation Serif;font-variant:normal;font-weight:normal;font-style:normal;font-size:20px">30000</text>
<text x="695.31" y="-39.727" transform="scale(1, -1)"
	style="font-family:Liberation Serif;font-variant:normal;font-weight:normal;font-style:normal;font-size:20px">40000</text>
<text x="890.26" y="-39.727" transform="scale(1, -1)"
	style="font-family:Liberation Serif;font-variant:normal;font-weight:normal;font-style:normal;font-size:20px">50000</text>
<text x="1085.2" y="-39.727" transform="scale(1, -1)"
	style="font-family:Liberation Serif;font-variant:normal;font-weight:normal;font-style:normal;font-size:20px">60000</text>
<text x="1280.2" y="-39.727" transform="scale(1, -1)"
	style="font-family:Liberation Serif;font-variant:normal;font-weight:normal;font-style:normal;font-size:20px">70000</text>
<text x="1475.1" y="-39.727" transform="scale(1, -1)"
	style="font-family:Liberation Serif;font-variant:normal;font-weight:normal;font-style:normal;font-size:20px">80000</text>
<text x="1670.1" y="-39.727" transform="scale(1, -1)"
	style="font-family:Liberation Serif;font-variant:normal;font-weight:normal;font-style:normal;font-size:20px">90000</text>
<text x="1860" y="-39.727" transform="scale(1, -1)"
	style="font-family:Liberation Serif;font-variant:normal;font-weight:normal;font-style:normal;font-size:20px">100000</text>
<path d="M135.46,55.371L135.46,63.371" style="fill:none;stroke:#000000;stroke-width:0.5" />
<path d="M330.41,55.371L330.41,63.371" style="fill:none;stroke:#000000;stroke-width:0.5" />
<path d="M525.36,55.371L525.36,63.371" style="fill:none;stroke:#000000;stroke-width:0.5" />
<path d="M720.31,55.371L720.31,63.371" style="fill:none;stroke:#000000;stroke-width:0.5" />
<path d="M915.26,55.371L915.26,63.371" style="fill:none;stroke:#000000;stroke-width:0.5" />
<path d="M1110.2,55.371L1110.2,63.371" style="fill:none;stroke:#000000;stroke-width:0.5" />
<path d="M1305.2,55.371L1305.2,63.371" style="fill:none;stroke:#000000;stroke-width:0.5" />
<path d="M1500.1,55.371L1500.1,63.371" style="fill:none;stroke:#000000;stroke-width:0.5" />
<path d="M1695.1,55.371L1695.1,63.371" style="fill:none;stroke:#000000;stroke-width:0.5" />
<path d="M1890,55.371L1890,63.371" style="fill:none;stroke:#000000;stroke-width:0.5" />
<path d="M135.46,63.371L1890,63.371" style="fill:none;stroke:#000000;stroke-width:0.5" />
<g transform="rotate(90)">
<text x="538.49" y="23.467" transform="scale(1, -1)"
	style="font-family:Liberation Serif;font-variant:normal;font-weight:normal;font-style:normal;font-size:30px">μs</text>
</g>
<text x="49.712" y="-190.13" transform="scale(1, -1)"
	style="font-family:Liberation Serif;font-variant:normal;font-weight:normal;font-style:normal;font-size:20px">300000</text>
<text x="49.712" y="-559.27" transform="scale(1, -1)"
	style="font-family:Liberation Serif;font-variant:normal;font-weight:normal;font-style:normal;font-size:20px">900000</text>
<text x="39.712" y="-928.42" transform="scale(1, -1)"
	style="font-family:Liberation Serif;font-variant:normal;font-weight:normal;font-style:normal;font-size:20px">1500000</text>
<path d="M114.71,194.7L122.71,194.7" style="fill:none;stroke:#000000;stroke-width:0.5" />
<path d="M114.71,563.84L122.71,563.84" style="fill:none;stroke:#000000;stroke-width:0.5" />
<path d="M114.71,932.99L122.71,932.99" style="fill:none;stroke:#000000;stroke-width:0.5" />
<path d="M118.71,379.27L122.71,379.27" style="fill:none;stroke:#000000;stroke-width:0.5" />
<path d="M118.71,748.42L122.71,748.42" style="fill:none;stroke:#000000;stroke-width:0.5" />
<path d="M122.71,80.11L122.71,1024.6" style="fill:none;stroke:#000000;stroke-width:0.5" />
<path d="M135.46,80.11L135.46,1024.6" style="fill:none;stroke:#808080;stroke-width:0.25" />
<path d="M330.41,80.11L330.41,1024.6" style="fill:none;stroke:#808080;stroke-width:0.25" />
<path d="M525.36,80.11L525.36,1024.6" style="fill:none;stroke:#808080;stroke-width:0.25" />
<path d="M720.31,80.11L720.31,1024.6" style="fill:none;stroke:#808080;stroke-width:0.25" />
<path d="M915.26,80.11L915.26,1024.6" style="fill:none;stroke:#808080;stroke-width:0.25" />
<path d="M1110.2,80.11L1110.2,1024.6" style="fill:none;stroke:#808080;stroke-width:0.25" />
<path d="M1305.2,80.11L1305.2,1024.6" style="fill:none;stroke:#808080;stroke-width:0.25" />
<path d="M1500.1,80.11L1500.1,1024.6" style="fill:none;stroke:#808080;stroke-width:0.25" />
<path d="M1695.1,80.11L1695.1,1024.6" style="fill:none;stroke:#808080;stroke-width:0.25" />
<path d="M1890,80.11L1890,1024.6" style="fill:none;stroke:#808080;stroke-width:0.25" />
<path d="M135.46,194.7L1890,194.7" style="fill:none;stroke:#808080;stroke-width:0.25" />
<path d="M135.46,563.84L1890,563.84" style="fill:none;stroke:#808080;stroke-width:0.25" />
<path d="M135.46,932.99L1890,932.99" style="fill:none;stroke:#808080;stroke-width:0.25" />
<path d="M135.46,94.919L330.41,171.86L525.36,271.66L720.31,347.09L915.26,431.78L1110.2,537.22L1305.2,599.83L1500.1,716.93L1695.1,815.65L1890,932.4" style="fill:none;stroke:#FF0000;stroke-width:4" />
<path d="M140.46,94.919A5,5 0 1 1 130.46,94.919A5,5 0 1 1 140.46,94.919Z" style="fill:#FF0000" />
<path d="M335.41,171.86A5,5 0 1 1 325.41,171.86A5,5 0 1 1 335.41,171.86Z" style="fill:#FF0000" />
<path d="M530.36,271.66A5,5 0 1 1 520.36,271.66A5,5 0 1 1 530.36,271.66Z" style="fill:#FF0000" />
<path d="M725.31,347.09A5,5 0 1 1 715.31,347.09A5,5 0 1 1 725.31,347.09Z" style="fill:#FF0000" />
<path d="M920.26,431.78A5,5 0 1 1 910.26,431.78A5,5 0 1 1 920.26,431.78Z" style="fill:#FF0000" />
<path d="M1115.2,537.22A5,5 0 1 1 1105.2,537.22A5,5 0 1 1 1115.2,537.22Z" style="fill:#FF0000" />
<path d="M1310.2,599.83A5,5 0 1 1 1300.2,599.83A5,5 0 1 1 1310.2,599.83Z" style="fill:#FF0000" />
<path d="M1505.1,716.93A5,5 0 1 1 1495.1,716.93A5,5 0 1 1 1505.1,716.93Z" style="fill:#FF0000" />
<path d="M1700.1,815.65A5,5 0 1 1 1690.1,815.65A5,5 0 1 1 1700.1,815.65Z" style="fill:#FF0000" />
<path d="M1895,932.4A5,5 0 1 1 1885,932.4A5,5 0 1 1 1895,932.4Z" style="fill:#FF0000" />
<path d="M135.46,91.486L330.41,172.16L525.36,254.95L720.31,326.94L915.26,421.3L1110.2,498.87L1305.2,596.9L1500.1,673.65L1695.1,760.64L1890,851.1" style="fill:none;stroke:#0000FF;stroke-width:4" />
<path d="M140.46,91.486A5,5 0 1 1 130.46,91.486A5,5 0 1 1 140.46,91.486Z" style="fill:#0000FF" />
<path d="M335.41,172.16A5,5 0 1 1 325.41,172.16A5,5 0 1 1 335.41,172.16Z" style="fill:#0000FF" />
<path d="M530.36,254.95A5,5 0 1 1 520.36,254.95A5,5 0 1 1 530.36,254.95Z" style="fill:#0000FF" />
<path d="M725.31,326.94A5,5 0 1 1 715.31,326.94A5,5 0 1 1 725.31,326.94Z" style="fill:#0000FF" />
<path d="M920.26,421.3A5,5 0 1 1 910.26,421.3A5,5 0 1 1 920.26,421.3Z" style="fill:#0000FF" />
<path d="M1115.2,498.87A5,5 0 1 1 1105.2,498.87A5,5 0 1 1 1115.2,498.87Z" style="fill:#0000FF" />
<path d="M1310.2,596.9A5,5 0 1 1 1300.2,596.9A5,5 0 1 1 1310.2,596.9Z" style="fill:#0000FF" />
<path d="M1505.1,673.65A5,5 0 1 1 1495.1,673.65A5,5 0 1 1 1505.1,673.65Z" style="fill:#0000FF" />
<path d="M1700.1,760.64A5,5 0 1 1 1690.1,760.64A5,5 0 1 1 1700.1,760.64Z" style="fill:#0000FF" />
<path d="M1895,851.1A5,5 0 1 1 1885,851.1A5,5 0 1 1 1895,851.1Z" style="fill:#0000FF" />
<path d="M135.46,80.11L330.41,161.39L525.36,218.1L720.31,298.3L915.26,363.13L1110.2,435.29L1305.2,507.84L1500.1,576.26L1695.1,657.97L1890,724.96" style="fill:none;stroke:#00FF00;stroke-width:4" />
<path d="M140.46,80.11A5,5 0 1 1 130.46,80.11A5,5 0 1 1 140.46,80.11Z" style="fill:#00FF00" />
<path d="M335.41,161.39A5,5 0 1 1 325.41,161.39A5,5 0 1 1 335.41,161.39Z" style="fill:#00FF00" />
<path d="M530.36,218.1A5,5 0 1 1 520.36,218.1A5,5 0 1 1 530.36,218.1Z" style="fill:#00FF00" />
<path d="M725.31,298.3A5,5 0 1 1 715.31,298.3A5,5 0 1 1 725.31,298.3Z" style="fill:#00FF00" />
<path d="M920.26,363.13A5,5 0 1 1 910.26,363.13A5,5 0 1 1 920.26,363.13Z" style="fill:#00FF00" />
<path d="M1115.2,435.29A5,5 0 1 1 1105.2,435.29A5,5 0 1 1 1115.2,435.29Z" style="fill:#00FF00" />
<path d="M1310.2,507.84A5,5 0 1 1 1300.2,507.84A5,5 0 1 1 1310.2,507.84Z" style="fill:#00FF00" />
<path d="M1505.1,576.26A5,5 0 1 1 1495.1,576.26A5,5 0 1 1 1505.1,576.26Z" style="fill:#00FF00" />
<path d="M1700.1,657.97A5,5 0 1 1 1690.1,657.97A5,5 0 1 1 1700.1,657.97Z" style="fill:#00FF00" />
<path d="M1895,724.96A5,5 0 1 1 1885,724.96A5,5 0 1 1 1895,724.96Z" style="fill:#00FF00" />
<path d="M1900,126.03L1920,126.03" style="fill:none;stroke:#FF0000;stroke-width:4" />
<path d="M1915,126.03A5,5 0 1 1 1905,126.03A5,5 0 1 1 1915,126.03Z" style="fill:#FF0000" />
<text x="1823.3" y="-121.05" transform="scale(1, -1)"
	style="font-family:Liberation Serif;font-variant:normal;font-weight:normal;font-style:normal;font-size:24px">std::list</text>
<path d="M1900,105.66L1920,105.66" style="fill:none;stroke:#0000FF;stroke-width:4" />
<path d="M1915,105.66A5,5 0 1 1 1905,105.66A5,5 0 1 1 1915,105.66Z" style="fill:#0000FF" />
<text x="1795.4" y="-100.69" transform="scale(1, -1)"
	style="font-family:Liberation Serif;font-variant:normal;font-weight:normal;font-style:normal;font-size:24px">std::deque</text>
<path d="M1900,85.294L1920,85.294" style="fill:none;stroke:#00FF00;stroke-width:4" />
<path d="M1915,85.294A5,5 0 1 1 1905,85.294A5,5 0 1 1 1915,85.294Z" style="fill:#00FF00" />
<text x="1792.7" y="-80.319" transform="scale(1, -1)"
	style="font-family:Liberation Serif;font-variant:normal;font-weight:normal;font-style:normal;font-size:24px">std::vector</text>
</g>
</svg>
