<?xml version="1.0"?>
<!-- Generated by SVGo and Plotinum VG -->
<svg width="1920pt" height="1080pt" viewBox="0 0 1920 1080"
	xmlns="http://www.w3.org/2000/svg"
	xmlns:xlink="http://www.w3.org/1999/xlink">
<g transform="scale(1, -1) translate(0, -1080)">
<path d="M0,0L1920,0L1920,1080L0,1080Z" style="fill:#FFFFFF" />
<text x="819.77" y="-1040.9" transform="scale(1, -1)"
	style="font-family:Liberation Serif;font-variant:normal;font-weight:normal;font-style:normal;font-size:50px">random-insert</text>
<text x="890.27" y="-9.7559" transform="scale(1, -1)"
	style="font-family:Liberation Serif;font-variant:normal;font-weight:normal;font-style:normal;font-size:30px">Number of elements</text>
<text x="110.46" y="-39.727" transform="scale(1, -1)"
	style="font-family:Liberation Serif;font-variant:normal;font-weight:normal;font-style:normal;font-size:20px">10000</text>
<text x="305.41" y="-39.727" transform="scale(1, -1)"
	style="font-family:Liberation Serif;font-variant:normal;font-weight:normal;font-style:normal;font-size:20px">20000</text>
<text x="500.36" y="-39.727" transform="scale(1, -1)"
	style="font-family:Liberation Serif;font-variant:normal;font-weight:normal;font-style:normal;font-size:20px">30000</text>
<text x="695.31" y="-39.727" transform="scale(1, -1)"
	style="font-family:Liberation Serif;font-variant:normal;font-weight:normal;font-style:normal;font-size:20px">40000</text>
<text x="890.26" y="-39.727" transform="scale(1, -1)"
	style="font-family:Liberation Serif;font-variant:normal;font-weight:normal;font-style:normal;font-size:20px">50000</text>
<text x="1085.2" y="-39.727" transform="scale(1, -1)"
	style="font-family:Liberation Serif;font-variant:normal;font-weight:normal;font-style:normal;font-size:20px">60000</text>
<text x="1280.2" y="-39.727" transform="scale(1, -1)"
	style="font-family:Liberation Serif;font-variant:normal;font-weight:normal;font-style:normal;font-size:20px">70000</text>
<text x="1475.1" y="-39.727" transform="scale(1, -1)"
	style="font-family:Liberation Serif;font-variant:normal;font-weight:normal;font-style:normal;font-size:20px">80000</text>
<text x="1670.1" y="-39.727" transform="scale(1, -1)"
	style="font-family:Liberation Serif;font-variant:normal;font-weight:normal;font-style:normal;font-size:20px">90000</text>
<text x="1860" y="-39.727" transform="scale(1, -1)"
	style="font-family:Liberation Serif;font-variant:normal;font-weight:normal;font-style:normal;font-size:20px">100000</text>
<path d="M135.46,55.371L135.46,63.371" style="fill:none;stroke:#000000;stroke-width:0.5" />
<path d="M330.41,55.371L330.41,63.371" style="fill:none;stroke:#000000;stroke-width:0.5" />
<path d="M525.36,55.371L525.36,63.371" style="fill:none;stroke:#000000;stroke-width:0.5" />
<path d="M720.31,55.371L720.31,63.371" style="fill:none;stroke:#000000;stroke-width:0.5" />
<path d="M915.26,55.371L915.26,63.371" style="fill:none;stroke:#000000;stroke-width:0.5" />
<path d="M1110.2,55.371L1110.2,63.371" style="fill:none;stroke:#000000;stroke-width:0.5" />
<path d="M1305.2,55.371L1305.2,63.371" style="fill:none;stroke:#000000;stroke-width:0.5" />
<path d="M1500.1,55.371L1500.1,63.371" style="fill:none;stroke:#000000;stroke-width:0.5" />
<path d="M1695.1,55.371L1695.1,63.371" style="fill:none;stroke:#000000;stroke-width:0.5" />
<path d="M1890,55.371L1890,63.371" style="fill:none;stroke:#000000;stroke-width:0.5" />
<path d="M135.46,63.371L1890,63.371" style="fill:none;stroke:#000000;stroke-width:0.5" />
<g transform="rotate(90)">
<text x="538.49" y="23.467" transform="scale(1, -1)"
	style="font-family:Liberation Serif;font-variant:normal;font-weight:normal;font-style:normal;font-size:30px">μs</text>
</g>
<text x="39.712" y="-147.72" transform="scale(1, -1)"
	style="font-family:Liberation Serif;font-variant:normal;font-weight:normal;font-style:normal;font-size:20px">1000000</text>
<text x="39.712" y="-536.08" transform="scale(1, -1)"
	style="font-family:Liberation Serif;font-variant:normal;font-weight:normal;font-style:normal;font-size:20px">5000000</text>
<text x="39.712" y="-924.44" transform="scale(1, -1)"
	style="font-family:Liberation Serif;font-variant:normal;font-weight:normal;font-style:normal;font-size:20px">9000000</text>
<path d="M114.71,152.29L122.71,152.29" style="fill:none;stroke:#000000;stroke-width:0.5" />
<path d="M114.71,540.65L122.71,540.65" style="fill:none;stroke:#000000;stroke-width:0.5" />
<path d="M114.71,929.01L122.71,929.01" style="fill:none;stroke:#000000;stroke-width:0.5" />
<path d="M118.71,249.38L122.71,249.38" style="fill:none;stroke:#000000;stroke-width:0.5" />
<path d="M118.71,346.47L122.71,346.47" style="fill:none;stroke:#000000;stroke-width:0.5" />
<path d="M118.71,443.56L122.71,443.56" style="fill:none;stroke:#000000;stroke-width:0.5" />
<path d="M118.71,637.74L122.71,637.74" style="fill:none;stroke:#000000;stroke-width:0.5" />
<path d="M118.71,734.83L122.71,734.83" style="fill:none;stroke:#000000;stroke-width:0.5" />
<path d="M118.71,831.92L122.71,831.92" style="fill:none;stroke:#000000;stroke-width:0.5" />
<path d="M122.71,80.11L122.71,1024.6" style="fill:none;stroke:#000000;stroke-width:0.5" />
<path d="M135.46,80.11L135.46,1024.6" style="fill:none;stroke:#808080;stroke-width:0.25" />
<path d="M330.41,80.11L330.41,1024.6" style="fill:none;stroke:#808080;stroke-width:0.25" />
<path d="M525.36,80.11L525.36,1024.6" style="fill:none;stroke:#808080;stroke-width:0.25" />
<path d="M720.31,80.11L720.31,1024.6" style="fill:none;stroke:#808080;stroke-width:0.25" />
<path d="M915.26,80.11L915.26,1024.6" style="fill:none;stroke:#808080;stroke-width:0.25" />
<path d="M1110.2,80.11L1110.2,1024.6" style="fill:none;stroke:#808080;stroke-width:0.25" />
<path d="M1305.2,80.11L1305.2,1024.6" style="fill:none;stroke:#808080;stroke-width:0.25" />
<path d="M1500.1,80.11L1500.1,1024.6" style="fill:none;stroke:#808080;stroke-width:0.25" />
<path d="M1695.1,80.11L1695.1,1024.6" style="fill:none;stroke:#808080;stroke-width:0.25" />
<path d="M1890,80.11L1890,1024.6" style="fill:none;stroke:#808080;stroke-width:0.25" />
<path d="M135.46,152.29L1890,152.29" style="fill:none;stroke:#808080;stroke-width:0.25" />
<path d="M135.46,540.65L1890,540.65" style="fill:none;stroke:#808080;stroke-width:0.25" />
<path d="M135.46,929.01L1890,929.01" style="fill:none;stroke:#808080;stroke-width:0.25" />
<path d="M135.46,80.11L330.41,113.14L525.36,169.57L720.31,220.89L915.26,265.72L1110.2,327.72L1305.2,388.72L1500.1,434.16L1695.1,486.07L1890,541.69" style="fill:none;stroke:#FF0000;stroke-width:4" />
<path d="M140.46,80.11A5,5 0 1 1 130.46,80.11A5,5 0 1 1 140.46,80.11Z" style="fill:#FF0000" />
<path d="M335.41,113.14A5,5 0 1 1 325.41,113.14A5,5 0 1 1 335.41,113.14Z" style="fill:#FF0000" />
<path d="M530.36,169.57A5,5 0 1 1 520.36,169.57A5,5 0 1 1 530.36,169.57Z" style="fill:#FF0000" />
<path d="M725.31,220.89A5,5 0 1 1 715.31,220.89A5,5 0 1 1 725.31,220.89Z" style="fill:#FF0000" />
<path d="M920.26,265.72A5,5 0 1 1 910.26,265.72A5,5 0 1 1 920.26,265.72Z" style="fill:#FF0000" />
<path d="M1115.2,327.72A5,5 0 1 1 1105.2,327.72A5,5 0 1 1 1115.2,327.72Z" style="fill:#FF0000" />
<path d="M1310.2,388.72A5,5 0 1 1 1300.2,388.72A5,5 0 1 1 1310.2,388.72Z" style="fill:#FF0000" />
<path d="M1505.1,434.16A5,5 0 1 1 1495.1,434.16A5,5 0 1 1 1505.1,434.16Z" style="fill:#FF0000" />
<path d="M1700.1,486.07A5,5 0 1 1 1690.1,486.07A5,5 0 1 1 1700.1,486.07Z" style="fill:#FF0000" />
<path d="M1895,541.69A5,5 0 1 1 1885,541.69A5,5 0 1 1 1895,541.69Z" style="fill:#FF0000" />
<path d="M135.46,103.76L330.41,179.32L525.36,286.05L720.31,371.28L915.26,452.53L1110.2,534.66L1305.2,643.14L1500.1,755.12L1695.1,833.11L1890,936.5" style="fill:none;stroke:#0000FF;stroke-width:4" />
<path d="M140.46,103.76A5,5 0 1 1 130.46,103.76A5,5 0 1 1 140.46,103.76Z" style="fill:#0000FF" />
<path d="M335.41,179.32A5,5 0 1 1 325.41,179.32A5,5 0 1 1 335.41,179.32Z" style="fill:#0000FF" />
<path d="M530.36,286.05A5,5 0 1 1 520.36,286.05A5,5 0 1 1 530.36,286.05Z" style="fill:#0000FF" />
<path d="M725.31,371.28A5,5 0 1 1 715.31,371.28A5,5 0 1 1 725.31,371.28Z" style="fill:#0000FF" />
<path d="M920.26,452.53A5,5 0 1 1 910.26,452.53A5,5 0 1 1 920.26,452.53Z" style="fill:#0000FF" />
<path d="M1115.2,534.66A5,5 0 1 1 1105.2,534.66A5,5 0 1 1 1115.2,534.66Z" style="fill:#0000FF" />
<path d="M1310.2,643.14A5,5 0 1 1 1300.2,643.14A5,5 0 1 1 1310.2,643.14Z" style="fill:#0000FF" />
<path d="M1505.1,755.12A5,5 0 1 1 1495.1,755.12A5,5 0 1 1 1505.1,755.12Z" style="fill:#0000FF" />
<path d="M1700.1,833.11A5,5 0 1 1 1690.1,833.11A5,5 0 1 1 1700.1,833.11Z" style="fill:#0000FF" />
<path d="M1895,936.5A5,5 0 1 1 1885,936.5A5,5 0 1 1 1895,936.5Z" style="fill:#0000FF" />
<path d="M135.46,91.414L330.41,167.72L525.36,270.82L720.31,353L915.26,435.76L1110.2,517.89L1305.2,596.16L1500.1,670.44L1695.1,755.61L1890,832.11" style="fill:none;stroke:#00FF00;stroke-width:4" />
<path d="M140.46,91.414A5,5 0 1 1 130.46,91.414A5,5 0 1 1 140.46,91.414Z" style="fill:#00FF00" />
<path d="M335.41,167.72A5,5 0 1 1 325.41,167.72A5,5 0 1 1 335.41,167.72Z" style="fill:#00FF00" />
<path d="M530.36,270.82A5,5 0 1 1 520.36,270.82A5,5 0 1 1 530.36,270.82Z" style="fill:#00FF00" />
<path d="M725.31,353A5,5 0 1 1 715.31,353A5,5 0 1 1 725.31,353Z" style="fill:#00FF00" />
<path d="M920.26,435.76A5,5 0 1 1 910.26,435.76A5,5 0 1 1 920.26,435.76Z" style="fill:#00FF00" />
<path d="M1115.2,517.89A5,5 0 1 1 1105.2,517.89A5,5 0 1 1 1115.2,517.89Z" style="fill:#00FF00" />
<path d="M1310.2,596.16A5,5 0 1 1 1300.2,596.16A5,5 0 1 1 1310.2,596.16Z" style="fill:#00FF00" />
<path d="M1505.1,670.44A5,5 0 1 1 1495.1,670.44A5,5 0 1 1 1505.1,670.44Z" style="fill:#00FF00" />
<path d="M1700.1,755.61A5,5 0 1 1 1690.1,755.61A5,5 0 1 1 1700.1,755.61Z" style="fill:#00FF00" />
<path d="M1895,832.11A5,5 0 1 1 1885,832.11A5,5 0 1 1 1895,832.11Z" style="fill:#00FF00" />
<path d="M1900,126.03L1920,126.03" style="fill:none;stroke:#FF0000;stroke-width:4" />
<path d="M1915,126.03A5,5 0 1 1 1905,126.03A5,5 0 1 1 1915,126.03Z" style="fill:#FF0000" />
<text x="1823.3" y="-121.05" transform="scale(1, -1)"
	style="font-family:Liberation Serif;font-variant:normal;font-weight:normal;font-style:normal;font-size:24px">std::list</text>
<path d="M1900,105.66L1920,105.66" style="fill:none;stroke:#0000FF;stroke-width:4" />
<path d="M1915,105.66A5,5 0 1 1 1905,105.66A5,5 0 1 1 1915,105.66Z" style="fill:#0000FF" />
<text x="1795.4" y="-100.69" transform="scale(1, -1)"
	style="font-family:Liberation Serif;font-variant:normal;font-weight:normal;font-style:normal;font-size:24px">std::deque</text>
<path d="M1900,85.294L1920,85.294" style="fill:none;stroke:#00FF00;stroke-width:4" />
<path d="M1915,85.294A5,5 0 1 1 1905,85.294A5,5 0 1 1 1915,85.294Z" style="fill:#00FF00" />
<text x="1792.7" y="-80.319" transform="scale(1, -1)"
	style="font-family:Liberation Serif;font-variant:normal;font-weight:normal;font-style:normal;font-size:24px">std::vector</text>
</g>
</svg>
