<?xml version="1.0"?>
<!-- Generated by SVGo and Plotinum VG -->
<svg width="1920pt" height="1080pt" viewBox="0 0 1920 1080"
	xmlns="http://www.w3.org/2000/svg"
	xmlns:xlink="http://www.w3.org/1999/xlink">
<g transform="scale(1, -1) translate(0, -1080)">
<path d="M0,0L1920,0L1920,1080L0,1080Z" style="fill:#FFFFFF" />
<text x="819.77" y="-1040.9" transform="scale(1, -1)"
	style="font-family:Liberation Serif;font-variant:normal;font-weight:normal;font-style:normal;font-size:50px">random-insert</text>
<text x="895.27" y="-9.7559" transform="scale(1, -1)"
	style="font-family:Liberation Serif;font-variant:normal;font-weight:normal;font-style:normal;font-size:30px">Number of elements</text>
<text x="120.46" y="-39.727" transform="scale(1, -1)"
	style="font-family:Liberation Serif;font-variant:normal;font-weight:normal;font-style:normal;font-size:20px">10000</text>
<text x="314.3" y="-39.727" transform="scale(1, -1)"
	style="font-family:Liberation Serif;font-variant:normal;font-weight:normal;font-style:normal;font-size:20px">20000</text>
<text x="508.14" y="-39.727" transform="scale(1, -1)"
	style="font-family:Liberation Serif;font-variant:normal;font-weight:normal;font-style:normal;font-size:20px">30000</text>
<text x="701.97" y="-39.727" transform="scale(1, -1)"
	style="font-family:Liberation Serif;font-variant:normal;font-weight:normal;font-style:normal;font-size:20px">40000</text>
<text x="895.81" y="-39.727" transform="scale(1, -1)"
	style="font-family:Liberation Serif;font-variant:normal;font-weight:normal;font-style:normal;font-size:20px">50000</text>
<text x="1089.6" y="-39.727" transform="scale(1, -1)"
	style="font-family:Liberation Serif;font-variant:normal;font-weight:normal;font-style:normal;font-size:20px">60000</text>
<text x="1283.5" y="-39.727" transform="scale(1, -1)"
	style="font-family:Liberation Serif;font-variant:normal;font-weight:normal;font-style:normal;font-size:20px">70000</text>
<text x="1477.3" y="-39.727" transform="scale(1, -1)"
	style="font-family:Liberation Serif;font-variant:normal;font-weight:normal;font-style:normal;font-size:20px">80000</text>
<text x="1671.2" y="-39.727" transform="scale(1, -1)"
	style="font-family:Liberation Serif;font-variant:normal;font-weight:normal;font-style:normal;font-size:20px">90000</text>
<text x="1860" y="-39.727" transform="scale(1, -1)"
	style="font-family:Liberation Serif;font-variant:normal;font-weight:normal;font-style:normal;font-size:20px">100000</text>
<path d="M145.46,55.371L145.46,63.371" style="fill:none;stroke:#000000;stroke-width:0.5" />
<path d="M339.3,55.371L339.3,63.371" style="fill:none;stroke:#000000;stroke-width:0.5" />
<path d="M533.14,55.371L533.14,63.371" style="fill:none;stroke:#000000;stroke-width:0.5" />
<path d="M726.97,55.371L726.97,63.371" style="fill:none;stroke:#000000;stroke-width:0.5" />
<path d="M920.81,55.371L920.81,63.371" style="fill:none;stroke:#000000;stroke-width:0.5" />
<path d="M1114.6,55.371L1114.6,63.371" style="fill:none;stroke:#000000;stroke-width:0.5" />
<path d="M1308.5,55.371L1308.5,63.371" style="fill:none;stroke:#000000;stroke-width:0.5" />
<path d="M1502.3,55.371L1502.3,63.371" style="fill:none;stroke:#000000;stroke-width:0.5" />
<path d="M1696.2,55.371L1696.2,63.371" style="fill:none;stroke:#000000;stroke-width:0.5" />
<path d="M1890,55.371L1890,63.371" style="fill:none;stroke:#000000;stroke-width:0.5" />
<path d="M145.46,63.371L1890,63.371" style="fill:none;stroke:#000000;stroke-width:0.5" />
<g transform="rotate(90)">
<text x="538.49" y="23.467" transform="scale(1, -1)"
	style="font-family:Liberation Serif;font-variant:normal;font-weight:normal;font-style:normal;font-size:30px">μs</text>
</g>
<text x="49.712" y="-162.8" transform="scale(1, -1)"
	style="font-family:Liberation Serif;font-variant:normal;font-weight:normal;font-style:normal;font-size:20px">4000000</text>
<text x="39.712" y="-529.33" transform="scale(1, -1)"
	style="font-family:Liberation Serif;font-variant:normal;font-weight:normal;font-style:normal;font-size:20px">16000000</text>
<text x="39.712" y="-895.87" transform="scale(1, -1)"
	style="font-family:Liberation Serif;font-variant:normal;font-weight:normal;font-style:normal;font-size:20px">28000000</text>
<path d="M124.71,167.37L132.71,167.37" style="fill:none;stroke:#000000;stroke-width:0.5" />
<path d="M124.71,533.9L132.71,533.9" style="fill:none;stroke:#000000;stroke-width:0.5" />
<path d="M124.71,900.44L132.71,900.44" style="fill:none;stroke:#000000;stroke-width:0.5" />
<path d="M128.71,350.63L132.71,350.63" style="fill:none;stroke:#000000;stroke-width:0.5" />
<path d="M128.71,717.17L132.71,717.17" style="fill:none;stroke:#000000;stroke-width:0.5" />
<path d="M132.71,80.11L132.71,1024.6" style="fill:none;stroke:#000000;stroke-width:0.5" />
<path d="M145.46,80.11L145.46,1024.6" style="fill:none;stroke:#808080;stroke-width:0.25" />
<path d="M339.3,80.11L339.3,1024.6" style="fill:none;stroke:#808080;stroke-width:0.25" />
<path d="M533.14,80.11L533.14,1024.6" style="fill:none;stroke:#808080;stroke-width:0.25" />
<path d="M726.97,80.11L726.97,1024.6" style="fill:none;stroke:#808080;stroke-width:0.25" />
<path d="M920.81,80.11L920.81,1024.6" style="fill:none;stroke:#808080;stroke-width:0.25" />
<path d="M1114.6,80.11L1114.6,1024.6" style="fill:none;stroke:#808080;stroke-width:0.25" />
<path d="M1308.5,80.11L1308.5,1024.6" style="fill:none;stroke:#808080;stroke-width:0.25" />
<path d="M1502.3,80.11L1502.3,1024.6" style="fill:none;stroke:#808080;stroke-width:0.25" />
<path d="M1696.2,80.11L1696.2,1024.6" style="fill:none;stroke:#808080;stroke-width:0.25" />
<path d="M1890,80.11L1890,1024.6" style="fill:none;stroke:#808080;stroke-width:0.25" />
<path d="M145.46,167.37L1890,167.37" style="fill:none;stroke:#808080;stroke-width:0.25" />
<path d="M145.46,533.9L1890,533.9" style="fill:none;stroke:#808080;stroke-width:0.25" />
<path d="M145.46,900.44L1890,900.44" style="fill:none;stroke:#808080;stroke-width:0.25" />
<path d="M145.46,108.81L339.3,186.74L533.14,274.31L726.97,356.24L920.81,438.85L1114.6,518.19L1308.5,604.79L1502.3,686.12L1696.2,763.39L1890,836.31" style="fill:none;stroke:#FF0000;stroke-width:4" />
<path d="M150.46,108.81A5,5 0 1 1 140.46,108.81A5,5 0 1 1 150.46,108.81Z" style="fill:#FF0000" />
<path d="M344.3,186.74A5,5 0 1 1 334.3,186.74A5,5 0 1 1 344.3,186.74Z" style="fill:#FF0000" />
<path d="M538.14,274.31A5,5 0 1 1 528.14,274.31A5,5 0 1 1 538.14,274.31Z" style="fill:#FF0000" />
<path d="M731.97,356.24A5,5 0 1 1 721.97,356.24A5,5 0 1 1 731.97,356.24Z" style="fill:#FF0000" />
<path d="M925.81,438.85A5,5 0 1 1 915.81,438.85A5,5 0 1 1 925.81,438.85Z" style="fill:#FF0000" />
<path d="M1119.6,518.19A5,5 0 1 1 1109.6,518.19A5,5 0 1 1 1119.6,518.19Z" style="fill:#FF0000" />
<path d="M1313.5,604.79A5,5 0 1 1 1303.5,604.79A5,5 0 1 1 1313.5,604.79Z" style="fill:#FF0000" />
<path d="M1507.3,686.12A5,5 0 1 1 1497.3,686.12A5,5 0 1 1 1507.3,686.12Z" style="fill:#FF0000" />
<path d="M1701.2,763.39A5,5 0 1 1 1691.2,763.39A5,5 0 1 1 1701.2,763.39Z" style="fill:#FF0000" />
<path d="M1895,836.31A5,5 0 1 1 1885,836.31A5,5 0 1 1 1895,836.31Z" style="fill:#FF0000" />
<path d="M145.46,127.9L339.3,219.63L533.14,310.29L726.97,400.41L920.81,497.82L1114.6,587.79L1308.5,679.54L1502.3,758.8L1696.2,847.32L1890,935.59" style="fill:none;stroke:#0000FF;stroke-width:4" />
<path d="M150.46,127.9A5,5 0 1 1 140.46,127.9A5,5 0 1 1 150.46,127.9Z" style="fill:#0000FF" />
<path d="M344.3,219.63A5,5 0 1 1 334.3,219.63A5,5 0 1 1 344.3,219.63Z" style="fill:#0000FF" />
<path d="M538.14,310.29A5,5 0 1 1 528.14,310.29A5,5 0 1 1 538.14,310.29Z" style="fill:#0000FF" />
<path d="M731.97,400.41A5,5 0 1 1 721.97,400.41A5,5 0 1 1 731.97,400.41Z" style="fill:#0000FF" />
<path d="M925.81,497.82A5,5 0 1 1 915.81,497.82A5,5 0 1 1 925.81,497.82Z" style="fill:#0000FF" />
<path d="M1119.6,587.79A5,5 0 1 1 1109.6,587.79A5,5 0 1 1 1119.6,587.79Z" style="fill:#0000FF" />
<path d="M1313.5,679.54A5,5 0 1 1 1303.5,679.54A5,5 0 1 1 1313.5,679.54Z" style="fill:#0000FF" />
<path d="M1507.3,758.8A5,5 0 1 1 1497.3,758.8A5,5 0 1 1 1507.3,758.8Z" style="fill:#0000FF" />
<path d="M1701.2,847.32A5,5 0 1 1 1691.2,847.32A5,5 0 1 1 1701.2,847.32Z" style="fill:#0000FF" />
<path d="M1895,935.59A5,5 0 1 1 1885,935.59A5,5 0 1 1 1895,935.59Z" style="fill:#0000FF" />
<path d="M145.46,80.11L339.3,130.12L533.14,179.6L726.97,229.77L920.81,281.31L1114.6,328.13L1308.5,382.54L1502.3,422.8L1696.2,471.67L1890,516.46" style="fill:none;stroke:#00FF00;stroke-width:4" />
<path d="M150.46,80.11A5,5 0 1 1 140.46,80.11A5,5 0 1 1 150.46,80.11Z" style="fill:#00FF00" />
<path d="M344.3,130.12A5,5 0 1 1 334.3,130.12A5,5 0 1 1 344.3,130.12Z" style="fill:#00FF00" />
<path d="M538.14,179.6A5,5 0 1 1 528.14,179.6A5,5 0 1 1 538.14,179.6Z" style="fill:#00FF00" />
<path d="M731.97,229.77A5,5 0 1 1 721.97,229.77A5,5 0 1 1 731.97,229.77Z" style="fill:#00FF00" />
<path d="M925.81,281.31A5,5 0 1 1 915.81,281.31A5,5 0 1 1 925.81,281.31Z" style="fill:#00FF00" />
<path d="M1119.6,328.13A5,5 0 1 1 1109.6,328.13A5,5 0 1 1 1119.6,328.13Z" style="fill:#00FF00" />
<path d="M1313.5,382.54A5,5 0 1 1 1303.5,382.54A5,5 0 1 1 1313.5,382.54Z" style="fill:#00FF00" />
<path d="M1507.3,422.8A5,5 0 1 1 1497.3,422.8A5,5 0 1 1 1507.3,422.8Z" style="fill:#00FF00" />
<path d="M1701.2,471.67A5,5 0 1 1 1691.2,471.67A5,5 0 1 1 1701.2,471.67Z" style="fill:#00FF00" />
<path d="M1895,516.46A5,5 0 1 1 1885,516.46A5,5 0 1 1 1895,516.46Z" style="fill:#00FF00" />
<path d="M1900,126.03L1920,126.03" style="fill:none;stroke:#FF0000;stroke-width:4" />
<path d="M1915,126.03A5,5 0 1 1 1905,126.03A5,5 0 1 1 1915,126.03Z" style="fill:#FF0000" />
<text x="1795.4" y="-121.05" transform="scale(1, -1)"
	style="font-family:Liberation Serif;font-variant:normal;font-weight:normal;font-style:normal;font-size:24px">std::deque</text>
<path d="M1900,105.66L1920,105.66" style="fill:none;stroke:#0000FF;stroke-width:4" />
<path d="M1915,105.66A5,5 0 1 1 1905,105.66A5,5 0 1 1 1915,105.66Z" style="fill:#0000FF" />
<text x="1792.7" y="-100.69" transform="scale(1, -1)"
	style="font-family:Liberation Serif;font-variant:normal;font-weight:normal;font-style:normal;font-size:24px">std::vector</text>
<path d="M1900,85.294L1920,85.294" style="fill:none;stroke:#00FF00;stroke-width:4" />
<path d="M1915,85.294A5,5 0 1 1 1905,85.294A5,5 0 1 1 1915,85.294Z" style="fill:#00FF00" />
<text x="1823.3" y="-80.319" transform="scale(1, -1)"
	style="font-family:Liberation Serif;font-variant:normal;font-weight:normal;font-style:normal;font-size:24px">std::list</text>
</g>
</svg>
