<?xml version="1.0"?>
<!-- Generated by SVGo and Plotinum VG -->
<svg width="1920pt" height="1080pt" viewBox="0 0 1920 1080"
	xmlns="http://www.w3.org/2000/svg"
	xmlns:xlink="http://www.w3.org/1999/xlink">
<g transform="scale(1, -1) translate(0, -1080)">
<path d="M0,0L1920,0L1920,1080L0,1080Z" style="fill:#FFFFFF" />
<text x="698.28" y="-1040.9" transform="scale(1, -1)"
	style="font-family:Liberation Serif;font-variant:normal;font-weight:normal;font-style:normal;font-size:50px">random-insert - Log Scale</text>
<text x="880.35" y="-9.7559" transform="scale(1, -1)"
	style="font-family:Liberation Serif;font-variant:normal;font-weight:normal;font-style:normal;font-size:30px">Number of elements</text>
<text x="90.618" y="-39.727" transform="scale(1, -1)"
	style="font-family:Liberation Serif;font-variant:normal;font-weight:normal;font-style:normal;font-size:20px">10000</text>
<text x="287.77" y="-39.727" transform="scale(1, -1)"
	style="font-family:Liberation Serif;font-variant:normal;font-weight:normal;font-style:normal;font-size:20px">20000</text>
<text x="484.93" y="-39.727" transform="scale(1, -1)"
	style="font-family:Liberation Serif;font-variant:normal;font-weight:normal;font-style:normal;font-size:20px">30000</text>
<text x="682.08" y="-39.727" transform="scale(1, -1)"
	style="font-family:Liberation Serif;font-variant:normal;font-weight:normal;font-style:normal;font-size:20px">40000</text>
<text x="879.23" y="-39.727" transform="scale(1, -1)"
	style="font-family:Liberation Serif;font-variant:normal;font-weight:normal;font-style:normal;font-size:20px">50000</text>
<text x="1076.4" y="-39.727" transform="scale(1, -1)"
	style="font-family:Liberation Serif;font-variant:normal;font-weight:normal;font-style:normal;font-size:20px">60000</text>
<text x="1273.5" y="-39.727" transform="scale(1, -1)"
	style="font-family:Liberation Serif;font-variant:normal;font-weight:normal;font-style:normal;font-size:20px">70000</text>
<text x="1470.7" y="-39.727" transform="scale(1, -1)"
	style="font-family:Liberation Serif;font-variant:normal;font-weight:normal;font-style:normal;font-size:20px">80000</text>
<text x="1667.8" y="-39.727" transform="scale(1, -1)"
	style="font-family:Liberation Serif;font-variant:normal;font-weight:normal;font-style:normal;font-size:20px">90000</text>
<text x="1860" y="-39.727" transform="scale(1, -1)"
	style="font-family:Liberation Serif;font-variant:normal;font-weight:normal;font-style:normal;font-size:20px">100000</text>
<path d="M115.62,55.371L115.62,63.371" style="fill:none;stroke:#000000;stroke-width:0.5" />
<path d="M312.77,55.371L312.77,63.371" style="fill:none;stroke:#000000;stroke-width:0.5" />
<path d="M509.93,55.371L509.93,63.371" style="fill:none;stroke:#000000;stroke-width:0.5" />
<path d="M707.08,55.371L707.08,63.371" style="fill:none;stroke:#000000;stroke-width:0.5" />
<path d="M904.23,55.371L904.23,63.371" style="fill:none;stroke:#000000;stroke-width:0.5" />
<path d="M1101.4,55.371L1101.4,63.371" style="fill:none;stroke:#000000;stroke-width:0.5" />
<path d="M1298.5,55.371L1298.5,63.371" style="fill:none;stroke:#000000;stroke-width:0.5" />
<path d="M1495.7,55.371L1495.7,63.371" style="fill:none;stroke:#000000;stroke-width:0.5" />
<path d="M1692.8,55.371L1692.8,63.371" style="fill:none;stroke:#000000;stroke-width:0.5" />
<path d="M1890,55.371L1890,63.371" style="fill:none;stroke:#000000;stroke-width:0.5" />
<path d="M115.62,63.371L1890,63.371" style="fill:none;stroke:#000000;stroke-width:0.5" />
<g transform="rotate(90)">
<text x="509.33" y="23.467" transform="scale(1, -1)"
	style="font-family:Liberation Serif;font-variant:normal;font-weight:normal;font-style:normal;font-size:30px">log(μs)</text>
</g>
<text x="39.712" y="-676.02" transform="scale(1, -1)"
	style="font-family:Liberation Serif;font-variant:normal;font-weight:normal;font-style:normal;font-size:20px">1e+07</text>
<text x="39.712" y="-877.14" transform="scale(1, -1)"
	style="font-family:Liberation Serif;font-variant:normal;font-weight:normal;font-style:normal;font-size:20px">2e+07</text>
<text x="39.712" y="-994.8" transform="scale(1, -1)"
	style="font-family:Liberation Serif;font-variant:normal;font-weight:normal;font-style:normal;font-size:20px">3e+07</text>
<path d="M94.868,680.59L102.87,680.59" style="fill:none;stroke:#000000;stroke-width:0.5" />
<path d="M94.868,881.72L102.87,881.72" style="fill:none;stroke:#000000;stroke-width:0.5" />
<path d="M94.868,999.37L102.87,999.37" style="fill:none;stroke:#000000;stroke-width:0.5" />
<path d="M98.868,213.59L102.87,213.59" style="fill:none;stroke:#000000;stroke-width:0.5" />
<path d="M98.868,414.72L102.87,414.72" style="fill:none;stroke:#000000;stroke-width:0.5" />
<path d="M98.868,532.37L102.87,532.37" style="fill:none;stroke:#000000;stroke-width:0.5" />
<path d="M98.868,615.84L102.87,615.84" style="fill:none;stroke:#000000;stroke-width:0.5" />
<path d="M98.868,733.49L102.87,733.49" style="fill:none;stroke:#000000;stroke-width:0.5" />
<path d="M98.868,778.22L102.87,778.22" style="fill:none;stroke:#000000;stroke-width:0.5" />
<path d="M98.868,816.97L102.87,816.97" style="fill:none;stroke:#000000;stroke-width:0.5" />
<path d="M98.868,851.14L102.87,851.14" style="fill:none;stroke:#000000;stroke-width:0.5" />
<path d="M98.868,909.37L102.87,909.37" style="fill:none;stroke:#000000;stroke-width:0.5" />
<path d="M98.868,934.62L102.87,934.62" style="fill:none;stroke:#000000;stroke-width:0.5" />
<path d="M98.868,957.84L102.87,957.84" style="fill:none;stroke:#000000;stroke-width:0.5" />
<path d="M98.868,979.35L102.87,979.35" style="fill:none;stroke:#000000;stroke-width:0.5" />
<path d="M98.868,1018.1L102.87,1018.1" style="fill:none;stroke:#000000;stroke-width:0.5" />
<path d="M102.87,80.11L102.87,1024.6" style="fill:none;stroke:#000000;stroke-width:0.5" />
<path d="M115.62,80.11L115.62,1024.6" style="fill:none;stroke:#808080;stroke-width:0.25" />
<path d="M312.77,80.11L312.77,1024.6" style="fill:none;stroke:#808080;stroke-width:0.25" />
<path d="M509.93,80.11L509.93,1024.6" style="fill:none;stroke:#808080;stroke-width:0.25" />
<path d="M707.08,80.11L707.08,1024.6" style="fill:none;stroke:#808080;stroke-width:0.25" />
<path d="M904.23,80.11L904.23,1024.6" style="fill:none;stroke:#808080;stroke-width:0.25" />
<path d="M1101.4,80.11L1101.4,1024.6" style="fill:none;stroke:#808080;stroke-width:0.25" />
<path d="M1298.5,80.11L1298.5,1024.6" style="fill:none;stroke:#808080;stroke-width:0.25" />
<path d="M1495.7,80.11L1495.7,1024.6" style="fill:none;stroke:#808080;stroke-width:0.25" />
<path d="M1692.8,80.11L1692.8,1024.6" style="fill:none;stroke:#808080;stroke-width:0.25" />
<path d="M1890,80.11L1890,1024.6" style="fill:none;stroke:#808080;stroke-width:0.25" />
<path d="M115.62,680.59L1890,680.59" style="fill:none;stroke:#808080;stroke-width:0.25" />
<path d="M115.62,881.72L1890,881.72" style="fill:none;stroke:#808080;stroke-width:0.25" />
<path d="M115.62,999.37L1890,999.37" style="fill:none;stroke:#808080;stroke-width:0.25" />
<path d="M115.62,80.11L312.77,318.62L509.93,452.07L707.08,538.24L904.23,599L1101.4,650.09L1298.5,691.52L1495.7,727.34L1692.8,793.03L1890,812.15" style="fill:none;stroke:#FF0000;stroke-width:4" />
<path d="M120.62,80.11A5,5 0 1 1 110.62,80.11A5,5 0 1 1 120.62,80.11Z" style="fill:#FF0000" />
<path d="M317.77,318.62A5,5 0 1 1 307.77,318.62A5,5 0 1 1 317.77,318.62Z" style="fill:#FF0000" />
<path d="M514.93,452.07A5,5 0 1 1 504.93,452.07A5,5 0 1 1 514.93,452.07Z" style="fill:#FF0000" />
<path d="M712.08,538.24A5,5 0 1 1 702.08,538.24A5,5 0 1 1 712.08,538.24Z" style="fill:#FF0000" />
<path d="M909.23,599A5,5 0 1 1 899.23,599A5,5 0 1 1 909.23,599Z" style="fill:#FF0000" />
<path d="M1106.4,650.09A5,5 0 1 1 1096.4,650.09A5,5 0 1 1 1106.4,650.09Z" style="fill:#FF0000" />
<path d="M1303.5,691.52A5,5 0 1 1 1293.5,691.52A5,5 0 1 1 1303.5,691.52Z" style="fill:#FF0000" />
<path d="M1500.7,727.34A5,5 0 1 1 1490.7,727.34A5,5 0 1 1 1500.7,727.34Z" style="fill:#FF0000" />
<path d="M1697.8,793.03A5,5 0 1 1 1687.8,793.03A5,5 0 1 1 1697.8,793.03Z" style="fill:#FF0000" />
<path d="M1895,812.15A5,5 0 1 1 1885,812.15A5,5 0 1 1 1895,812.15Z" style="fill:#FF0000" />
<path d="M115.62,227.54L312.77,478.48L509.93,587.54L707.08,668.65L904.23,733.88L1101.4,807.66L1298.5,833.68L1495.7,866.58L1692.8,901.7L1890,937.61" style="fill:none;stroke:#0000FF;stroke-width:4" />
<path d="M120.62,227.54A5,5 0 1 1 110.62,227.54A5,5 0 1 1 120.62,227.54Z" style="fill:#0000FF" />
<path d="M317.77,478.48A5,5 0 1 1 307.77,478.48A5,5 0 1 1 317.77,478.48Z" style="fill:#0000FF" />
<path d="M514.93,587.54A5,5 0 1 1 504.93,587.54A5,5 0 1 1 514.93,587.54Z" style="fill:#0000FF" />
<path d="M712.08,668.65A5,5 0 1 1 702.08,668.65A5,5 0 1 1 712.08,668.65Z" style="fill:#0000FF" />
<path d="M909.23,733.88A5,5 0 1 1 899.23,733.88A5,5 0 1 1 909.23,733.88Z" style="fill:#0000FF" />
<path d="M1106.4,807.66A5,5 0 1 1 1096.4,807.66A5,5 0 1 1 1106.4,807.66Z" style="fill:#0000FF" />
<path d="M1303.5,833.68A5,5 0 1 1 1293.5,833.68A5,5 0 1 1 1303.5,833.68Z" style="fill:#0000FF" />
<path d="M1500.7,866.58A5,5 0 1 1 1490.7,866.58A5,5 0 1 1 1500.7,866.58Z" style="fill:#0000FF" />
<path d="M1697.8,901.7A5,5 0 1 1 1687.8,901.7A5,5 0 1 1 1697.8,901.7Z" style="fill:#0000FF" />
<path d="M1895,937.61A5,5 0 1 1 1885,937.61A5,5 0 1 1 1895,937.61Z" style="fill:#0000FF" />
<path d="M115.62,329.39L312.77,537.7L509.93,637.23L707.08,719.45L904.23,790.04L1101.4,853.8L1298.5,905.67L1495.7,927.16L1692.8,961.14L1890,996.97" style="fill:none;stroke:#00FF00;stroke-width:4" />
<path d="M120.62,329.39A5,5 0 1 1 110.62,329.39A5,5 0 1 1 120.62,329.39Z" style="fill:#00FF00" />
<path d="M317.77,537.7A5,5 0 1 1 307.77,537.7A5,5 0 1 1 317.77,537.7Z" style="fill:#00FF00" />
<path d="M514.93,637.23A5,5 0 1 1 504.93,637.23A5,5 0 1 1 514.93,637.23Z" style="fill:#00FF00" />
<path d="M712.08,719.45A5,5 0 1 1 702.08,719.45A5,5 0 1 1 712.08,719.45Z" style="fill:#00FF00" />
<path d="M909.23,790.04A5,5 0 1 1 899.23,790.04A5,5 0 1 1 909.23,790.04Z" style="fill:#00FF00" />
<path d="M1106.4,853.8A5,5 0 1 1 1096.4,853.8A5,5 0 1 1 1106.4,853.8Z" style="fill:#00FF00" />
<path d="M1303.5,905.67A5,5 0 1 1 1293.5,905.67A5,5 0 1 1 1303.5,905.67Z" style="fill:#00FF00" />
<path d="M1500.7,927.16A5,5 0 1 1 1490.7,927.16A5,5 0 1 1 1500.7,927.16Z" style="fill:#00FF00" />
<path d="M1697.8,961.14A5,5 0 1 1 1687.8,961.14A5,5 0 1 1 1697.8,961.14Z" style="fill:#00FF00" />
<path d="M1895,996.97A5,5 0 1 1 1885,996.97A5,5 0 1 1 1895,996.97Z" style="fill:#00FF00" />
<path d="M1900,126.03L1920,126.03" style="fill:none;stroke:#FF0000;stroke-width:4" />
<path d="M1915,126.03A5,5 0 1 1 1905,126.03A5,5 0 1 1 1915,126.03Z" style="fill:#FF0000" />
<text x="1823.3" y="-121.05" transform="scale(1, -1)"
	style="font-family:Liberation Serif;font-variant:normal;font-weight:normal;font-style:normal;font-size:24px">std::list</text>
<path d="M1900,105.66L1920,105.66" style="fill:none;stroke:#0000FF;stroke-width:4" />
<path d="M1915,105.66A5,5 0 1 1 1905,105.66A5,5 0 1 1 1915,105.66Z" style="fill:#0000FF" />
<text x="1795.4" y="-100.69" transform="scale(1, -1)"
	style="font-family:Liberation Serif;font-variant:normal;font-weight:normal;font-style:normal;font-size:24px">std::deque</text>
<path d="M1900,85.294L1920,85.294" style="fill:none;stroke:#00FF00;stroke-width:4" />
<path d="M1915,85.294A5,5 0 1 1 1905,85.294A5,5 0 1 1 1915,85.294Z" style="fill:#00FF00" />
<text x="1792.7" y="-80.319" transform="scale(1, -1)"
	style="font-family:Liberation Serif;font-variant:normal;font-weight:normal;font-style:normal;font-size:24px">std::vector</text>
</g>
</svg>
