<?xml version="1.0"?>
<!-- Generated by SVGo and Plotinum VG -->
<svg width="1920pt" height="1080pt" viewBox="0 0 1920 1080"
	xmlns="http://www.w3.org/2000/svg"
	xmlns:xlink="http://www.w3.org/1999/xlink">
<g transform="scale(1, -1) translate(0, -1080)">
<path d="M0,0L1920,0L1920,1080L0,1080Z" style="fill:#FFFFFF" />
<text x="819.77" y="-1040.9" transform="scale(1, -1)"
	style="font-family:Liberation Serif;font-variant:normal;font-weight:normal;font-style:normal;font-size:50px">random-insert</text>
<text x="890.27" y="-9.7559" transform="scale(1, -1)"
	style="font-family:Liberation Serif;font-variant:normal;font-weight:normal;font-style:normal;font-size:30px">Number of elements</text>
<text x="110.46" y="-39.727" transform="scale(1, -1)"
	style="font-family:Liberation Serif;font-variant:normal;font-weight:normal;font-style:normal;font-size:20px">10000</text>
<text x="305.41" y="-39.727" transform="scale(1, -1)"
	style="font-family:Liberation Serif;font-variant:normal;font-weight:normal;font-style:normal;font-size:20px">20000</text>
<text x="500.36" y="-39.727" transform="scale(1, -1)"
	style="font-family:Liberation Serif;font-variant:normal;font-weight:normal;font-style:normal;font-size:20px">30000</text>
<text x="695.31" y="-39.727" transform="scale(1, -1)"
	style="font-family:Liberation Serif;font-variant:normal;font-weight:normal;font-style:normal;font-size:20px">40000</text>
<text x="890.26" y="-39.727" transform="scale(1, -1)"
	style="font-family:Liberation Serif;font-variant:normal;font-weight:normal;font-style:normal;font-size:20px">50000</text>
<text x="1085.2" y="-39.727" transform="scale(1, -1)"
	style="font-family:Liberation Serif;font-variant:normal;font-weight:normal;font-style:normal;font-size:20px">60000</text>
<text x="1280.2" y="-39.727" transform="scale(1, -1)"
	style="font-family:Liberation Serif;font-variant:normal;font-weight:normal;font-style:normal;font-size:20px">70000</text>
<text x="1475.1" y="-39.727" transform="scale(1, -1)"
	style="font-family:Liberation Serif;font-variant:normal;font-weight:normal;font-style:normal;font-size:20px">80000</text>
<text x="1670.1" y="-39.727" transform="scale(1, -1)"
	style="font-family:Liberation Serif;font-variant:normal;font-weight:normal;font-style:normal;font-size:20px">90000</text>
<text x="1860" y="-39.727" transform="scale(1, -1)"
	style="font-family:Liberation Serif;font-variant:normal;font-weight:normal;font-style:normal;font-size:20px">100000</text>
<path d="M135.46,55.371L135.46,63.371" style="fill:none;stroke:#000000;stroke-width:0.5" />
<path d="M330.41,55.371L330.41,63.371" style="fill:none;stroke:#000000;stroke-width:0.5" />
<path d="M525.36,55.371L525.36,63.371" style="fill:none;stroke:#000000;stroke-width:0.5" />
<path d="M720.31,55.371L720.31,63.371" style="fill:none;stroke:#000000;stroke-width:0.5" />
<path d="M915.26,55.371L915.26,63.371" style="fill:none;stroke:#000000;stroke-width:0.5" />
<path d="M1110.2,55.371L1110.2,63.371" style="fill:none;stroke:#000000;stroke-width:0.5" />
<path d="M1305.2,55.371L1305.2,63.371" style="fill:none;stroke:#000000;stroke-width:0.5" />
<path d="M1500.1,55.371L1500.1,63.371" style="fill:none;stroke:#000000;stroke-width:0.5" />
<path d="M1695.1,55.371L1695.1,63.371" style="fill:none;stroke:#000000;stroke-width:0.5" />
<path d="M1890,55.371L1890,63.371" style="fill:none;stroke:#000000;stroke-width:0.5" />
<path d="M135.46,63.371L1890,63.371" style="fill:none;stroke:#000000;stroke-width:0.5" />
<g transform="rotate(90)">
<text x="538.49" y="23.467" transform="scale(1, -1)"
	style="font-family:Liberation Serif;font-variant:normal;font-weight:normal;font-style:normal;font-size:30px">μs</text>
</g>
<text x="39.712" y="-146.66" transform="scale(1, -1)"
	style="font-family:Liberation Serif;font-variant:normal;font-weight:normal;font-style:normal;font-size:20px">1000000</text>
<text x="39.712" y="-569.33" transform="scale(1, -1)"
	style="font-family:Liberation Serif;font-variant:normal;font-weight:normal;font-style:normal;font-size:20px">5000000</text>
<text x="39.712" y="-992" transform="scale(1, -1)"
	style="font-family:Liberation Serif;font-variant:normal;font-weight:normal;font-style:normal;font-size:20px">9000000</text>
<path d="M114.71,151.24L122.71,151.24" style="fill:none;stroke:#000000;stroke-width:0.5" />
<path d="M114.71,573.9L122.71,573.9" style="fill:none;stroke:#000000;stroke-width:0.5" />
<path d="M114.71,996.57L122.71,996.57" style="fill:none;stroke:#000000;stroke-width:0.5" />
<path d="M118.71,256.9L122.71,256.9" style="fill:none;stroke:#000000;stroke-width:0.5" />
<path d="M118.71,362.57L122.71,362.57" style="fill:none;stroke:#000000;stroke-width:0.5" />
<path d="M118.71,468.23L122.71,468.23" style="fill:none;stroke:#000000;stroke-width:0.5" />
<path d="M118.71,679.57L122.71,679.57" style="fill:none;stroke:#000000;stroke-width:0.5" />
<path d="M118.71,785.23L122.71,785.23" style="fill:none;stroke:#000000;stroke-width:0.5" />
<path d="M118.71,890.9L122.71,890.9" style="fill:none;stroke:#000000;stroke-width:0.5" />
<path d="M122.71,80.11L122.71,1024.6" style="fill:none;stroke:#000000;stroke-width:0.5" />
<path d="M135.46,80.11L135.46,1024.6" style="fill:none;stroke:#808080;stroke-width:0.25" />
<path d="M330.41,80.11L330.41,1024.6" style="fill:none;stroke:#808080;stroke-width:0.25" />
<path d="M525.36,80.11L525.36,1024.6" style="fill:none;stroke:#808080;stroke-width:0.25" />
<path d="M720.31,80.11L720.31,1024.6" style="fill:none;stroke:#808080;stroke-width:0.25" />
<path d="M915.26,80.11L915.26,1024.6" style="fill:none;stroke:#808080;stroke-width:0.25" />
<path d="M1110.2,80.11L1110.2,1024.6" style="fill:none;stroke:#808080;stroke-width:0.25" />
<path d="M1305.2,80.11L1305.2,1024.6" style="fill:none;stroke:#808080;stroke-width:0.25" />
<path d="M1500.1,80.11L1500.1,1024.6" style="fill:none;stroke:#808080;stroke-width:0.25" />
<path d="M1695.1,80.11L1695.1,1024.6" style="fill:none;stroke:#808080;stroke-width:0.25" />
<path d="M1890,80.11L1890,1024.6" style="fill:none;stroke:#808080;stroke-width:0.25" />
<path d="M135.46,151.24L1890,151.24" style="fill:none;stroke:#808080;stroke-width:0.25" />
<path d="M135.46,573.9L1890,573.9" style="fill:none;stroke:#808080;stroke-width:0.25" />
<path d="M135.46,996.57L1890,996.57" style="fill:none;stroke:#808080;stroke-width:0.25" />
<path d="M135.46,94.34L330.41,193.77L525.36,295.8L720.31,389.01L915.26,482.28L1110.2,571.36L1305.2,665.79L1500.1,751.59L1695.1,917.83L1890,934.15" style="fill:none;stroke:#FF0000;stroke-width:4" />
<path d="M140.46,94.34A5,5 0 1 1 130.46,94.34A5,5 0 1 1 140.46,94.34Z" style="fill:#FF0000" />
<path d="M335.41,193.77A5,5 0 1 1 325.41,193.77A5,5 0 1 1 335.41,193.77Z" style="fill:#FF0000" />
<path d="M530.36,295.8A5,5 0 1 1 520.36,295.8A5,5 0 1 1 530.36,295.8Z" style="fill:#FF0000" />
<path d="M725.31,389.01A5,5 0 1 1 715.31,389.01A5,5 0 1 1 725.31,389.01Z" style="fill:#FF0000" />
<path d="M920.26,482.28A5,5 0 1 1 910.26,482.28A5,5 0 1 1 920.26,482.28Z" style="fill:#FF0000" />
<path d="M1115.2,571.36A5,5 0 1 1 1105.2,571.36A5,5 0 1 1 1115.2,571.36Z" style="fill:#FF0000" />
<path d="M1310.2,665.79A5,5 0 1 1 1300.2,665.79A5,5 0 1 1 1310.2,665.79Z" style="fill:#FF0000" />
<path d="M1505.1,751.59A5,5 0 1 1 1495.1,751.59A5,5 0 1 1 1505.1,751.59Z" style="fill:#FF0000" />
<path d="M1700.1,917.83A5,5 0 1 1 1690.1,917.83A5,5 0 1 1 1700.1,917.83Z" style="fill:#FF0000" />
<path d="M1895,934.15A5,5 0 1 1 1885,934.15A5,5 0 1 1 1895,934.15Z" style="fill:#FF0000" />
<path d="M135.46,80.11L330.41,139.9L525.36,206.71L720.31,272.06L915.26,399.93L1110.2,427.31L1305.2,466.71L1500.1,521.11L1695.1,585.31L1890,637.96" style="fill:none;stroke:#0000FF;stroke-width:4" />
<path d="M140.46,80.11A5,5 0 1 1 130.46,80.11A5,5 0 1 1 140.46,80.11Z" style="fill:#0000FF" />
<path d="M335.41,139.9A5,5 0 1 1 325.41,139.9A5,5 0 1 1 335.41,139.9Z" style="fill:#0000FF" />
<path d="M530.36,206.71A5,5 0 1 1 520.36,206.71A5,5 0 1 1 530.36,206.71Z" style="fill:#0000FF" />
<path d="M725.31,272.06A5,5 0 1 1 715.31,272.06A5,5 0 1 1 725.31,272.06Z" style="fill:#0000FF" />
<path d="M920.26,399.93A5,5 0 1 1 910.26,399.93A5,5 0 1 1 920.26,399.93Z" style="fill:#0000FF" />
<path d="M1115.2,427.31A5,5 0 1 1 1105.2,427.31A5,5 0 1 1 1115.2,427.31Z" style="fill:#0000FF" />
<path d="M1310.2,466.71A5,5 0 1 1 1300.2,466.71A5,5 0 1 1 1310.2,466.71Z" style="fill:#0000FF" />
<path d="M1505.1,521.11A5,5 0 1 1 1495.1,521.11A5,5 0 1 1 1505.1,521.11Z" style="fill:#0000FF" />
<path d="M1700.1,585.31A5,5 0 1 1 1690.1,585.31A5,5 0 1 1 1700.1,585.31Z" style="fill:#0000FF" />
<path d="M1895,637.96A5,5 0 1 1 1885,637.96A5,5 0 1 1 1895,637.96Z" style="fill:#0000FF" />
<path d="M135.46,94.904L330.41,192.71L525.36,308.86L720.31,404.18L915.26,472.85L1110.2,538.2L1305.2,642.05L1500.1,749.34L1695.1,835.99L1890,935.62" style="fill:none;stroke:#00FF00;stroke-width:4" />
<path d="M140.46,94.904A5,5 0 1 1 130.46,94.904A5,5 0 1 1 140.46,94.904Z" style="fill:#00FF00" />
<path d="M335.41,192.71A5,5 0 1 1 325.41,192.71A5,5 0 1 1 335.41,192.71Z" style="fill:#00FF00" />
<path d="M530.36,308.86A5,5 0 1 1 520.36,308.86A5,5 0 1 1 530.36,308.86Z" style="fill:#00FF00" />
<path d="M725.31,404.18A5,5 0 1 1 715.31,404.18A5,5 0 1 1 725.31,404.18Z" style="fill:#00FF00" />
<path d="M920.26,472.85A5,5 0 1 1 910.26,472.85A5,5 0 1 1 920.26,472.85Z" style="fill:#00FF00" />
<path d="M1115.2,538.2A5,5 0 1 1 1105.2,538.2A5,5 0 1 1 1115.2,538.2Z" style="fill:#00FF00" />
<path d="M1310.2,642.05A5,5 0 1 1 1300.2,642.05A5,5 0 1 1 1310.2,642.05Z" style="fill:#00FF00" />
<path d="M1505.1,749.34A5,5 0 1 1 1495.1,749.34A5,5 0 1 1 1505.1,749.34Z" style="fill:#00FF00" />
<path d="M1700.1,835.99A5,5 0 1 1 1690.1,835.99A5,5 0 1 1 1700.1,835.99Z" style="fill:#00FF00" />
<path d="M1895,935.62A5,5 0 1 1 1885,935.62A5,5 0 1 1 1895,935.62Z" style="fill:#00FF00" />
<path d="M1900,126.03L1920,126.03" style="fill:none;stroke:#FF0000;stroke-width:4" />
<path d="M1915,126.03A5,5 0 1 1 1905,126.03A5,5 0 1 1 1915,126.03Z" style="fill:#FF0000" />
<text x="1792.7" y="-121.05" transform="scale(1, -1)"
	style="font-family:Liberation Serif;font-variant:normal;font-weight:normal;font-style:normal;font-size:24px">std::vector</text>
<path d="M1900,105.66L1920,105.66" style="fill:none;stroke:#0000FF;stroke-width:4" />
<path d="M1915,105.66A5,5 0 1 1 1905,105.66A5,5 0 1 1 1915,105.66Z" style="fill:#0000FF" />
<text x="1823.3" y="-100.69" transform="scale(1, -1)"
	style="font-family:Liberation Serif;font-variant:normal;font-weight:normal;font-style:normal;font-size:24px">std::list</text>
<path d="M1900,85.294L1920,85.294" style="fill:none;stroke:#00FF00;stroke-width:4" />
<path d="M1915,85.294A5,5 0 1 1 1905,85.294A5,5 0 1 1 1915,85.294Z" style="fill:#00FF00" />
<text x="1795.4" y="-80.319" transform="scale(1, -1)"
	style="font-family:Liberation Serif;font-variant:normal;font-weight:normal;font-style:normal;font-size:24px">std::deque</text>
</g>
</svg>
