<?xml version="1.0"?>
<!-- Generated by SVGo and Plotinum VG -->
<svg width="1920pt" height="1080pt" viewBox="0 0 1920 1080"
	xmlns="http://www.w3.org/2000/svg"
	xmlns:xlink="http://www.w3.org/1999/xlink">
<g transform="scale(1, -1) translate(0, -1080)">
<path d="M0,0L1920,0L1920,1080L0,1080Z" style="fill:#FFFFFF" />
<text x="698.28" y="-1040.9" transform="scale(1, -1)"
	style="font-family:Liberation Serif;font-variant:normal;font-weight:normal;font-style:normal;font-size:50px">random-insert - Log Scale</text>
<text x="902.77" y="-9.7559" transform="scale(1, -1)"
	style="font-family:Liberation Serif;font-variant:normal;font-weight:normal;font-style:normal;font-size:30px">Number of elements</text>
<text x="135.46" y="-39.727" transform="scale(1, -1)"
	style="font-family:Liberation Serif;font-variant:normal;font-weight:normal;font-style:normal;font-size:20px">10000</text>
<text x="327.63" y="-39.727" transform="scale(1, -1)"
	style="font-family:Liberation Serif;font-variant:normal;font-weight:normal;font-style:normal;font-size:20px">20000</text>
<text x="519.8" y="-39.727" transform="scale(1, -1)"
	style="font-family:Liberation Serif;font-variant:normal;font-weight:normal;font-style:normal;font-size:20px">30000</text>
<text x="711.97" y="-39.727" transform="scale(1, -1)"
	style="font-family:Liberation Serif;font-variant:normal;font-weight:normal;font-style:normal;font-size:20px">40000</text>
<text x="904.15" y="-39.727" transform="scale(1, -1)"
	style="font-family:Liberation Serif;font-variant:normal;font-weight:normal;font-style:normal;font-size:20px">50000</text>
<text x="1096.3" y="-39.727" transform="scale(1, -1)"
	style="font-family:Liberation Serif;font-variant:normal;font-weight:normal;font-style:normal;font-size:20px">60000</text>
<text x="1288.5" y="-39.727" transform="scale(1, -1)"
	style="font-family:Liberation Serif;font-variant:normal;font-weight:normal;font-style:normal;font-size:20px">70000</text>
<text x="1480.7" y="-39.727" transform="scale(1, -1)"
	style="font-family:Liberation Serif;font-variant:normal;font-weight:normal;font-style:normal;font-size:20px">80000</text>
<text x="1672.8" y="-39.727" transform="scale(1, -1)"
	style="font-family:Liberation Serif;font-variant:normal;font-weight:normal;font-style:normal;font-size:20px">90000</text>
<text x="1860" y="-39.727" transform="scale(1, -1)"
	style="font-family:Liberation Serif;font-variant:normal;font-weight:normal;font-style:normal;font-size:20px">100000</text>
<path d="M160.46,55.371L160.46,63.371" style="fill:none;stroke:#000000;stroke-width:0.5" />
<path d="M352.63,55.371L352.63,63.371" style="fill:none;stroke:#000000;stroke-width:0.5" />
<path d="M544.8,55.371L544.8,63.371" style="fill:none;stroke:#000000;stroke-width:0.5" />
<path d="M736.97,55.371L736.97,63.371" style="fill:none;stroke:#000000;stroke-width:0.5" />
<path d="M929.15,55.371L929.15,63.371" style="fill:none;stroke:#000000;stroke-width:0.5" />
<path d="M1121.3,55.371L1121.3,63.371" style="fill:none;stroke:#000000;stroke-width:0.5" />
<path d="M1313.5,55.371L1313.5,63.371" style="fill:none;stroke:#000000;stroke-width:0.5" />
<path d="M1505.7,55.371L1505.7,63.371" style="fill:none;stroke:#000000;stroke-width:0.5" />
<path d="M1697.8,55.371L1697.8,63.371" style="fill:none;stroke:#000000;stroke-width:0.5" />
<path d="M1890,55.371L1890,63.371" style="fill:none;stroke:#000000;stroke-width:0.5" />
<path d="M160.46,63.371L1890,63.371" style="fill:none;stroke:#000000;stroke-width:0.5" />
<g transform="rotate(90)">
<text x="509.33" y="23.467" transform="scale(1, -1)"
	style="font-family:Liberation Serif;font-variant:normal;font-weight:normal;font-style:normal;font-size:30px">log(μs)</text>
</g>
<text x="49.712" y="-330.87" transform="scale(1, -1)"
	style="font-family:Liberation Serif;font-variant:normal;font-weight:normal;font-style:normal;font-size:20px">250000.00</text>
<text x="39.712" y="-810.27" transform="scale(1, -1)"
	style="font-family:Liberation Serif;font-variant:normal;font-weight:normal;font-style:normal;font-size:20px">1000000.00</text>
<text x="39.712" y="-1003.8" transform="scale(1, -1)"
	style="font-family:Liberation Serif;font-variant:normal;font-weight:normal;font-style:normal;font-size:20px">1750000.00</text>
<path d="M139.71,335.44L147.71,335.44" style="fill:none;stroke:#000000;stroke-width:0.5" />
<path d="M139.71,814.84L147.71,814.84" style="fill:none;stroke:#000000;stroke-width:0.5" />
<path d="M139.71,1008.4L147.71,1008.4" style="fill:none;stroke:#000000;stroke-width:0.5" />
<path d="M143.71,652.3L147.71,652.3" style="fill:none;stroke:#000000;stroke-width:0.5" />
<path d="M143.71,924.96L147.71,924.96" style="fill:none;stroke:#000000;stroke-width:0.5" />
<path d="M147.71,80.11L147.71,1024.6" style="fill:none;stroke:#000000;stroke-width:0.5" />
<path d="M160.46,80.11L160.46,1024.6" style="fill:none;stroke:#808080;stroke-width:0.25" />
<path d="M352.63,80.11L352.63,1024.6" style="fill:none;stroke:#808080;stroke-width:0.25" />
<path d="M544.8,80.11L544.8,1024.6" style="fill:none;stroke:#808080;stroke-width:0.25" />
<path d="M736.97,80.11L736.97,1024.6" style="fill:none;stroke:#808080;stroke-width:0.25" />
<path d="M929.15,80.11L929.15,1024.6" style="fill:none;stroke:#808080;stroke-width:0.25" />
<path d="M1121.3,80.11L1121.3,1024.6" style="fill:none;stroke:#808080;stroke-width:0.25" />
<path d="M1313.5,80.11L1313.5,1024.6" style="fill:none;stroke:#808080;stroke-width:0.25" />
<path d="M1505.7,80.11L1505.7,1024.6" style="fill:none;stroke:#808080;stroke-width:0.25" />
<path d="M1697.8,80.11L1697.8,1024.6" style="fill:none;stroke:#808080;stroke-width:0.25" />
<path d="M1890,80.11L1890,1024.6" style="fill:none;stroke:#808080;stroke-width:0.25" />
<path d="M160.46,335.44L1890,335.44" style="fill:none;stroke:#808080;stroke-width:0.25" />
<path d="M160.46,814.84L1890,814.84" style="fill:none;stroke:#808080;stroke-width:0.25" />
<path d="M160.46,1008.4L1890,1008.4" style="fill:none;stroke:#808080;stroke-width:0.25" />
<path d="M160.46,92.421L352.63,359.62L544.8,514.84L736.97,634.57L929.15,689.14L1121.3,771.25L1313.5,819.27L1505.7,878.69L1697.8,895.53L1890,991.67" style="fill:none;stroke:#FF0000;stroke-width:4" />
<path d="M165.46,92.421A5,5 0 1 1 155.46,92.421A5,5 0 1 1 165.46,92.421Z" style="fill:#FF0000" />
<path d="M357.63,359.62A5,5 0 1 1 347.63,359.62A5,5 0 1 1 357.63,359.62Z" style="fill:#FF0000" />
<path d="M549.8,514.84A5,5 0 1 1 539.8,514.84A5,5 0 1 1 549.8,514.84Z" style="fill:#FF0000" />
<path d="M741.97,634.57A5,5 0 1 1 731.97,634.57A5,5 0 1 1 741.97,634.57Z" style="fill:#FF0000" />
<path d="M934.15,689.14A5,5 0 1 1 924.15,689.14A5,5 0 1 1 934.15,689.14Z" style="fill:#FF0000" />
<path d="M1126.3,771.25A5,5 0 1 1 1116.3,771.25A5,5 0 1 1 1126.3,771.25Z" style="fill:#FF0000" />
<path d="M1318.5,819.27A5,5 0 1 1 1308.5,819.27A5,5 0 1 1 1318.5,819.27Z" style="fill:#FF0000" />
<path d="M1510.7,878.69A5,5 0 1 1 1500.7,878.69A5,5 0 1 1 1510.7,878.69Z" style="fill:#FF0000" />
<path d="M1702.8,895.53A5,5 0 1 1 1692.8,895.53A5,5 0 1 1 1702.8,895.53Z" style="fill:#FF0000" />
<path d="M1895,991.67A5,5 0 1 1 1885,991.67A5,5 0 1 1 1895,991.67Z" style="fill:#FF0000" />
<path d="M160.46,121.98L352.63,335.18L544.8,486.23L736.97,580.9L929.15,675.95L1121.3,720.05L1313.5,795.05L1505.7,833.61L1697.8,890.56L1890,937.82" style="fill:none;stroke:#0000FF;stroke-width:4" />
<path d="M165.46,121.98A5,5 0 1 1 155.46,121.98A5,5 0 1 1 165.46,121.98Z" style="fill:#0000FF" />
<path d="M357.63,335.18A5,5 0 1 1 347.63,335.18A5,5 0 1 1 357.63,335.18Z" style="fill:#0000FF" />
<path d="M549.8,486.23A5,5 0 1 1 539.8,486.23A5,5 0 1 1 549.8,486.23Z" style="fill:#0000FF" />
<path d="M741.97,580.9A5,5 0 1 1 731.97,580.9A5,5 0 1 1 741.97,580.9Z" style="fill:#0000FF" />
<path d="M934.15,675.95A5,5 0 1 1 924.15,675.95A5,5 0 1 1 934.15,675.95Z" style="fill:#0000FF" />
<path d="M1126.3,720.05A5,5 0 1 1 1116.3,720.05A5,5 0 1 1 1126.3,720.05Z" style="fill:#0000FF" />
<path d="M1318.5,795.05A5,5 0 1 1 1308.5,795.05A5,5 0 1 1 1318.5,795.05Z" style="fill:#0000FF" />
<path d="M1510.7,833.61A5,5 0 1 1 1500.7,833.61A5,5 0 1 1 1510.7,833.61Z" style="fill:#0000FF" />
<path d="M1702.8,890.56A5,5 0 1 1 1692.8,890.56A5,5 0 1 1 1702.8,890.56Z" style="fill:#0000FF" />
<path d="M1895,937.82A5,5 0 1 1 1885,937.82A5,5 0 1 1 1895,937.82Z" style="fill:#0000FF" />
<path d="M160.46,80.11L352.63,303.88L544.8,446.86L736.97,545.44L929.15,662.86L1121.3,690.79L1313.5,755.94L1505.7,789.8L1697.8,818.19L1890,867.36" style="fill:none;stroke:#00FF00;stroke-width:4" />
<path d="M165.46,80.11A5,5 0 1 1 155.46,80.11A5,5 0 1 1 165.46,80.11Z" style="fill:#00FF00" />
<path d="M357.63,303.88A5,5 0 1 1 347.63,303.88A5,5 0 1 1 357.63,303.88Z" style="fill:#00FF00" />
<path d="M549.8,446.86A5,5 0 1 1 539.8,446.86A5,5 0 1 1 549.8,446.86Z" style="fill:#00FF00" />
<path d="M741.97,545.44A5,5 0 1 1 731.97,545.44A5,5 0 1 1 741.97,545.44Z" style="fill:#00FF00" />
<path d="M934.15,662.86A5,5 0 1 1 924.15,662.86A5,5 0 1 1 934.15,662.86Z" style="fill:#00FF00" />
<path d="M1126.3,690.79A5,5 0 1 1 1116.3,690.79A5,5 0 1 1 1126.3,690.79Z" style="fill:#00FF00" />
<path d="M1318.5,755.94A5,5 0 1 1 1308.5,755.94A5,5 0 1 1 1318.5,755.94Z" style="fill:#00FF00" />
<path d="M1510.7,789.8A5,5 0 1 1 1500.7,789.8A5,5 0 1 1 1510.7,789.8Z" style="fill:#00FF00" />
<path d="M1702.8,818.19A5,5 0 1 1 1692.8,818.19A5,5 0 1 1 1702.8,818.19Z" style="fill:#00FF00" />
<path d="M1895,867.36A5,5 0 1 1 1885,867.36A5,5 0 1 1 1895,867.36Z" style="fill:#00FF00" />
<path d="M1900,126.03L1920,126.03" style="fill:none;stroke:#FF0000;stroke-width:4" />
<path d="M1915,126.03A5,5 0 1 1 1905,126.03A5,5 0 1 1 1915,126.03Z" style="fill:#FF0000" />
<text x="1823.3" y="-121.05" transform="scale(1, -1)"
	style="font-family:Liberation Serif;font-variant:normal;font-weight:normal;font-style:normal;font-size:24px">std::list</text>
<path d="M1900,105.66L1920,105.66" style="fill:none;stroke:#0000FF;stroke-width:4" />
<path d="M1915,105.66A5,5 0 1 1 1905,105.66A5,5 0 1 1 1915,105.66Z" style="fill:#0000FF" />
<text x="1795.4" y="-100.69" transform="scale(1, -1)"
	style="font-family:Liberation Serif;font-variant:normal;font-weight:normal;font-style:normal;font-size:24px">std::deque</text>
<path d="M1900,85.294L1920,85.294" style="fill:none;stroke:#00FF00;stroke-width:4" />
<path d="M1915,85.294A5,5 0 1 1 1905,85.294A5,5 0 1 1 1915,85.294Z" style="fill:#00FF00" />
<text x="1792.7" y="-80.319" transform="scale(1, -1)"
	style="font-family:Liberation Serif;font-variant:normal;font-weight:normal;font-style:normal;font-size:24px">std::vector</text>
</g>
</svg>
