<?xml version="1.0"?>
<!-- Generated by SVGo and Plotinum VG -->
<svg width="1920pt" height="1080pt" viewBox="0 0 1920 1080"
	xmlns="http://www.w3.org/2000/svg"
	xmlns:xlink="http://www.w3.org/1999/xlink">
<g transform="scale(1, -1) translate(0, -1080)">
<path d="M0,0L1920,0L1920,1080L0,1080Z" style="fill:#FFFFFF" />
<text x="698.28" y="-1040.9" transform="scale(1, -1)"
	style="font-family:Liberation Serif;font-variant:normal;font-weight:normal;font-style:normal;font-size:50px">random-insert - Log Scale</text>
<text x="880.35" y="-9.7559" transform="scale(1, -1)"
	style="font-family:Liberation Serif;font-variant:normal;font-weight:normal;font-style:normal;font-size:30px">Number of elements</text>
<text x="90.618" y="-39.727" transform="scale(1, -1)"
	style="font-family:Liberation Serif;font-variant:normal;font-weight:normal;font-style:normal;font-size:20px">10000</text>
<text x="287.77" y="-39.727" transform="scale(1, -1)"
	style="font-family:Liberation Serif;font-variant:normal;font-weight:normal;font-style:normal;font-size:20px">20000</text>
<text x="484.93" y="-39.727" transform="scale(1, -1)"
	style="font-family:Liberation Serif;font-variant:normal;font-weight:normal;font-style:normal;font-size:20px">30000</text>
<text x="682.08" y="-39.727" transform="scale(1, -1)"
	style="font-family:Liberation Serif;font-variant:normal;font-weight:normal;font-style:normal;font-size:20px">40000</text>
<text x="879.23" y="-39.727" transform="scale(1, -1)"
	style="font-family:Liberation Serif;font-variant:normal;font-weight:normal;font-style:normal;font-size:20px">50000</text>
<text x="1076.4" y="-39.727" transform="scale(1, -1)"
	style="font-family:Liberation Serif;font-variant:normal;font-weight:normal;font-style:normal;font-size:20px">60000</text>
<text x="1273.5" y="-39.727" transform="scale(1, -1)"
	style="font-family:Liberation Serif;font-variant:normal;font-weight:normal;font-style:normal;font-size:20px">70000</text>
<text x="1470.7" y="-39.727" transform="scale(1, -1)"
	style="font-family:Liberation Serif;font-variant:normal;font-weight:normal;font-style:normal;font-size:20px">80000</text>
<text x="1667.8" y="-39.727" transform="scale(1, -1)"
	style="font-family:Liberation Serif;font-variant:normal;font-weight:normal;font-style:normal;font-size:20px">90000</text>
<text x="1860" y="-39.727" transform="scale(1, -1)"
	style="font-family:Liberation Serif;font-variant:normal;font-weight:normal;font-style:normal;font-size:20px">100000</text>
<path d="M115.62,55.371L115.62,63.371" style="fill:none;stroke:#000000;stroke-width:0.5" />
<path d="M312.77,55.371L312.77,63.371" style="fill:none;stroke:#000000;stroke-width:0.5" />
<path d="M509.93,55.371L509.93,63.371" style="fill:none;stroke:#000000;stroke-width:0.5" />
<path d="M707.08,55.371L707.08,63.371" style="fill:none;stroke:#000000;stroke-width:0.5" />
<path d="M904.23,55.371L904.23,63.371" style="fill:none;stroke:#000000;stroke-width:0.5" />
<path d="M1101.4,55.371L1101.4,63.371" style="fill:none;stroke:#000000;stroke-width:0.5" />
<path d="M1298.5,55.371L1298.5,63.371" style="fill:none;stroke:#000000;stroke-width:0.5" />
<path d="M1495.7,55.371L1495.7,63.371" style="fill:none;stroke:#000000;stroke-width:0.5" />
<path d="M1692.8,55.371L1692.8,63.371" style="fill:none;stroke:#000000;stroke-width:0.5" />
<path d="M1890,55.371L1890,63.371" style="fill:none;stroke:#000000;stroke-width:0.5" />
<path d="M115.62,63.371L1890,63.371" style="fill:none;stroke:#000000;stroke-width:0.5" />
<g transform="rotate(90)">
<text x="485.87" y="23.467" transform="scale(1, -1)"
	style="font-family:Liberation Serif;font-variant:normal;font-weight:normal;font-style:normal;font-size:30px">log(μs + 1)</text>
</g>
<text x="39.712" y="-668.1" transform="scale(1, -1)"
	style="font-family:Liberation Serif;font-variant:normal;font-weight:normal;font-style:normal;font-size:20px">1e+07</text>
<text x="39.712" y="-976.83" transform="scale(1, -1)"
	style="font-family:Liberation Serif;font-variant:normal;font-weight:normal;font-style:normal;font-size:20px">3e+07</text>
<path d="M94.868,672.67L102.87,672.67" style="fill:none;stroke:#000000;stroke-width:0.5" />
<path d="M94.868,981.4L102.87,981.4" style="fill:none;stroke:#000000;stroke-width:0.5" />
<path d="M98.868,867.46L102.87,867.46" style="fill:none;stroke:#000000;stroke-width:0.5" />
<path d="M102.87,80.11L102.87,1024.6" style="fill:none;stroke:#000000;stroke-width:0.5" />
<path d="M115.62,80.11L115.62,1024.6" style="fill:none;stroke:#808080;stroke-width:0.25" />
<path d="M312.77,80.11L312.77,1024.6" style="fill:none;stroke:#808080;stroke-width:0.25" />
<path d="M509.93,80.11L509.93,1024.6" style="fill:none;stroke:#808080;stroke-width:0.25" />
<path d="M707.08,80.11L707.08,1024.6" style="fill:none;stroke:#808080;stroke-width:0.25" />
<path d="M904.23,80.11L904.23,1024.6" style="fill:none;stroke:#808080;stroke-width:0.25" />
<path d="M1101.4,80.11L1101.4,1024.6" style="fill:none;stroke:#808080;stroke-width:0.25" />
<path d="M1298.5,80.11L1298.5,1024.6" style="fill:none;stroke:#808080;stroke-width:0.25" />
<path d="M1495.7,80.11L1495.7,1024.6" style="fill:none;stroke:#808080;stroke-width:0.25" />
<path d="M1692.8,80.11L1692.8,1024.6" style="fill:none;stroke:#808080;stroke-width:0.25" />
<path d="M1890,80.11L1890,1024.6" style="fill:none;stroke:#808080;stroke-width:0.25" />
<path d="M115.62,672.67L1890,672.67" style="fill:none;stroke:#808080;stroke-width:0.25" />
<path d="M115.62,981.4L1890,981.4" style="fill:none;stroke:#808080;stroke-width:0.25" />
<path d="M115.62,328.39L312.77,533.73L509.93,656.46L707.08,747.91L904.23,812.64L1101.4,862.23L1298.5,891.93L1495.7,928.33L1692.8,968.81L1890,997.84" style="fill:none;stroke:#FF0000;stroke-width:4" />
<path d="M120.62,328.39A5,5 0 1 1 110.62,328.39A5,5 0 1 1 120.62,328.39Z" style="fill:#FF0000" />
<path d="M317.77,533.73A5,5 0 1 1 307.77,533.73A5,5 0 1 1 317.77,533.73Z" style="fill:#FF0000" />
<path d="M514.93,656.46A5,5 0 1 1 504.93,656.46A5,5 0 1 1 514.93,656.46Z" style="fill:#FF0000" />
<path d="M712.08,747.91A5,5 0 1 1 702.08,747.91A5,5 0 1 1 712.08,747.91Z" style="fill:#FF0000" />
<path d="M909.23,812.64A5,5 0 1 1 899.23,812.64A5,5 0 1 1 909.23,812.64Z" style="fill:#FF0000" />
<path d="M1106.4,862.23A5,5 0 1 1 1096.4,862.23A5,5 0 1 1 1106.4,862.23Z" style="fill:#FF0000" />
<path d="M1303.5,891.93A5,5 0 1 1 1293.5,891.93A5,5 0 1 1 1303.5,891.93Z" style="fill:#FF0000" />
<path d="M1500.7,928.33A5,5 0 1 1 1490.7,928.33A5,5 0 1 1 1500.7,928.33Z" style="fill:#FF0000" />
<path d="M1697.8,968.81A5,5 0 1 1 1687.8,968.81A5,5 0 1 1 1697.8,968.81Z" style="fill:#FF0000" />
<path d="M1895,997.84A5,5 0 1 1 1885,997.84A5,5 0 1 1 1895,997.84Z" style="fill:#FF0000" />
<path d="M115.62,80.11L312.77,305.72L509.93,424.64L707.08,500.05L904.23,573.3L1101.4,622.8L1298.5,676.24L1495.7,719.45L1692.8,754.02L1890,789.93" style="fill:none;stroke:#0000FF;stroke-width:4" />
<path d="M120.62,80.11A5,5 0 1 1 110.62,80.11A5,5 0 1 1 120.62,80.11Z" style="fill:#0000FF" />
<path d="M317.77,305.72A5,5 0 1 1 307.77,305.72A5,5 0 1 1 317.77,305.72Z" style="fill:#0000FF" />
<path d="M514.93,424.64A5,5 0 1 1 504.93,424.64A5,5 0 1 1 514.93,424.64Z" style="fill:#0000FF" />
<path d="M712.08,500.05A5,5 0 1 1 702.08,500.05A5,5 0 1 1 712.08,500.05Z" style="fill:#0000FF" />
<path d="M909.23,573.3A5,5 0 1 1 899.23,573.3A5,5 0 1 1 909.23,573.3Z" style="fill:#0000FF" />
<path d="M1106.4,622.8A5,5 0 1 1 1096.4,622.8A5,5 0 1 1 1106.4,622.8Z" style="fill:#0000FF" />
<path d="M1303.5,676.24A5,5 0 1 1 1293.5,676.24A5,5 0 1 1 1303.5,676.24Z" style="fill:#0000FF" />
<path d="M1500.7,719.45A5,5 0 1 1 1490.7,719.45A5,5 0 1 1 1500.7,719.45Z" style="fill:#0000FF" />
<path d="M1697.8,754.02A5,5 0 1 1 1687.8,754.02A5,5 0 1 1 1697.8,754.02Z" style="fill:#0000FF" />
<path d="M1895,789.93A5,5 0 1 1 1885,789.93A5,5 0 1 1 1895,789.93Z" style="fill:#0000FF" />
<path d="M115.62,269.74L312.77,474.84L509.93,589.2L707.08,671.37L904.23,712.62L1101.4,767.51L1298.5,817.85L1495.7,853.15L1692.8,887.43L1890,926.46" style="fill:none;stroke:#00FF00;stroke-width:4" />
<path d="M120.62,269.74A5,5 0 1 1 110.62,269.74A5,5 0 1 1 120.62,269.74Z" style="fill:#00FF00" />
<path d="M317.77,474.84A5,5 0 1 1 307.77,474.84A5,5 0 1 1 317.77,474.84Z" style="fill:#00FF00" />
<path d="M514.93,589.2A5,5 0 1 1 504.93,589.2A5,5 0 1 1 514.93,589.2Z" style="fill:#00FF00" />
<path d="M712.08,671.37A5,5 0 1 1 702.08,671.37A5,5 0 1 1 712.08,671.37Z" style="fill:#00FF00" />
<path d="M909.23,712.62A5,5 0 1 1 899.23,712.62A5,5 0 1 1 909.23,712.62Z" style="fill:#00FF00" />
<path d="M1106.4,767.51A5,5 0 1 1 1096.4,767.51A5,5 0 1 1 1106.4,767.51Z" style="fill:#00FF00" />
<path d="M1303.5,817.85A5,5 0 1 1 1293.5,817.85A5,5 0 1 1 1303.5,817.85Z" style="fill:#00FF00" />
<path d="M1500.7,853.15A5,5 0 1 1 1490.7,853.15A5,5 0 1 1 1500.7,853.15Z" style="fill:#00FF00" />
<path d="M1697.8,887.43A5,5 0 1 1 1687.8,887.43A5,5 0 1 1 1697.8,887.43Z" style="fill:#00FF00" />
<path d="M1895,926.46A5,5 0 1 1 1885,926.46A5,5 0 1 1 1895,926.46Z" style="fill:#00FF00" />
<path d="M1900,126.03L1920,126.03" style="fill:none;stroke:#FF0000;stroke-width:4" />
<path d="M1915,126.03A5,5 0 1 1 1905,126.03A5,5 0 1 1 1915,126.03Z" style="fill:#FF0000" />
<text x="1792.7" y="-121.05" transform="scale(1, -1)"
	style="font-family:Liberation Serif;font-variant:normal;font-weight:normal;font-style:normal;font-size:24px">std::vector</text>
<path d="M1900,105.66L1920,105.66" style="fill:none;stroke:#0000FF;stroke-width:4" />
<path d="M1915,105.66A5,5 0 1 1 1905,105.66A5,5 0 1 1 1915,105.66Z" style="fill:#0000FF" />
<text x="1823.3" y="-100.69" transform="scale(1, -1)"
	style="font-family:Liberation Serif;font-variant:normal;font-weight:normal;font-style:normal;font-size:24px">std::list</text>
<path d="M1900,85.294L1920,85.294" style="fill:none;stroke:#00FF00;stroke-width:4" />
<path d="M1915,85.294A5,5 0 1 1 1905,85.294A5,5 0 1 1 1915,85.294Z" style="fill:#00FF00" />
<text x="1795.4" y="-80.319" transform="scale(1, -1)"
	style="font-family:Liberation Serif;font-variant:normal;font-weight:normal;font-style:normal;font-size:24px">std::deque</text>
</g>
</svg>
