<?xml version="1.0"?>
<!-- Generated by SVGo and Plotinum VG -->
<svg width="1920pt" height="1080pt" viewBox="0 0 1920 1080"
	xmlns="http://www.w3.org/2000/svg"
	xmlns:xlink="http://www.w3.org/1999/xlink">
<g transform="scale(1, -1) translate(0, -1080)">
<path d="M0,0L1920,0L1920,1080L0,1080Z" style="fill:#FFFFFF" />
<text x="819.77" y="-1040.9" transform="scale(1, -1)"
	style="font-family:Liberation Serif;font-variant:normal;font-weight:normal;font-style:normal;font-size:50px">random-insert</text>
<text x="902.77" y="-9.7559" transform="scale(1, -1)"
	style="font-family:Liberation Serif;font-variant:normal;font-weight:normal;font-style:normal;font-size:30px">Number of elements</text>
<text x="135.46" y="-39.727" transform="scale(1, -1)"
	style="font-family:Liberation Serif;font-variant:normal;font-weight:normal;font-style:normal;font-size:20px">10000</text>
<text x="327.63" y="-39.727" transform="scale(1, -1)"
	style="font-family:Liberation Serif;font-variant:normal;font-weight:normal;font-style:normal;font-size:20px">20000</text>
<text x="519.8" y="-39.727" transform="scale(1, -1)"
	style="font-family:Liberation Serif;font-variant:normal;font-weight:normal;font-style:normal;font-size:20px">30000</text>
<text x="711.97" y="-39.727" transform="scale(1, -1)"
	style="font-family:Liberation Serif;font-variant:normal;font-weight:normal;font-style:normal;font-size:20px">40000</text>
<text x="904.15" y="-39.727" transform="scale(1, -1)"
	style="font-family:Liberation Serif;font-variant:normal;font-weight:normal;font-style:normal;font-size:20px">50000</text>
<text x="1096.3" y="-39.727" transform="scale(1, -1)"
	style="font-family:Liberation Serif;font-variant:normal;font-weight:normal;font-style:normal;font-size:20px">60000</text>
<text x="1288.5" y="-39.727" transform="scale(1, -1)"
	style="font-family:Liberation Serif;font-variant:normal;font-weight:normal;font-style:normal;font-size:20px">70000</text>
<text x="1480.7" y="-39.727" transform="scale(1, -1)"
	style="font-family:Liberation Serif;font-variant:normal;font-weight:normal;font-style:normal;font-size:20px">80000</text>
<text x="1672.8" y="-39.727" transform="scale(1, -1)"
	style="font-family:Liberation Serif;font-variant:normal;font-weight:normal;font-style:normal;font-size:20px">90000</text>
<text x="1860" y="-39.727" transform="scale(1, -1)"
	style="font-family:Liberation Serif;font-variant:normal;font-weight:normal;font-style:normal;font-size:20px">100000</text>
<path d="M160.46,55.371L160.46,63.371" style="fill:none;stroke:#000000;stroke-width:0.5" />
<path d="M352.63,55.371L352.63,63.371" style="fill:none;stroke:#000000;stroke-width:0.5" />
<path d="M544.8,55.371L544.8,63.371" style="fill:none;stroke:#000000;stroke-width:0.5" />
<path d="M736.97,55.371L736.97,63.371" style="fill:none;stroke:#000000;stroke-width:0.5" />
<path d="M929.15,55.371L929.15,63.371" style="fill:none;stroke:#000000;stroke-width:0.5" />
<path d="M1121.3,55.371L1121.3,63.371" style="fill:none;stroke:#000000;stroke-width:0.5" />
<path d="M1313.5,55.371L1313.5,63.371" style="fill:none;stroke:#000000;stroke-width:0.5" />
<path d="M1505.7,55.371L1505.7,63.371" style="fill:none;stroke:#000000;stroke-width:0.5" />
<path d="M1697.8,55.371L1697.8,63.371" style="fill:none;stroke:#000000;stroke-width:0.5" />
<path d="M1890,55.371L1890,63.371" style="fill:none;stroke:#000000;stroke-width:0.5" />
<path d="M160.46,63.371L1890,63.371" style="fill:none;stroke:#000000;stroke-width:0.5" />
<g transform="rotate(90)">
<text x="538.49" y="23.467" transform="scale(1, -1)"
	style="font-family:Liberation Serif;font-variant:normal;font-weight:normal;font-style:normal;font-size:30px">μs</text>
</g>
<text x="49.712" y="-142.69" transform="scale(1, -1)"
	style="font-family:Liberation Serif;font-variant:normal;font-weight:normal;font-style:normal;font-size:20px">250000.00</text>
<text x="39.712" y="-546.52" transform="scale(1, -1)"
	style="font-family:Liberation Serif;font-variant:normal;font-weight:normal;font-style:normal;font-size:20px">1000000.00</text>
<text x="39.712" y="-950.34" transform="scale(1, -1)"
	style="font-family:Liberation Serif;font-variant:normal;font-weight:normal;font-style:normal;font-size:20px">1750000.00</text>
<path d="M139.71,147.26L147.71,147.26" style="fill:none;stroke:#000000;stroke-width:0.5" />
<path d="M139.71,551.09L147.71,551.09" style="fill:none;stroke:#000000;stroke-width:0.5" />
<path d="M139.71,954.91L147.71,954.91" style="fill:none;stroke:#000000;stroke-width:0.5" />
<path d="M143.71,349.18L147.71,349.18" style="fill:none;stroke:#000000;stroke-width:0.5" />
<path d="M143.71,753L147.71,753" style="fill:none;stroke:#000000;stroke-width:0.5" />
<path d="M147.71,80.11L147.71,1024.6" style="fill:none;stroke:#000000;stroke-width:0.5" />
<path d="M160.46,80.11L160.46,1024.6" style="fill:none;stroke:#808080;stroke-width:0.25" />
<path d="M352.63,80.11L352.63,1024.6" style="fill:none;stroke:#808080;stroke-width:0.25" />
<path d="M544.8,80.11L544.8,1024.6" style="fill:none;stroke:#808080;stroke-width:0.25" />
<path d="M736.97,80.11L736.97,1024.6" style="fill:none;stroke:#808080;stroke-width:0.25" />
<path d="M929.15,80.11L929.15,1024.6" style="fill:none;stroke:#808080;stroke-width:0.25" />
<path d="M1121.3,80.11L1121.3,1024.6" style="fill:none;stroke:#808080;stroke-width:0.25" />
<path d="M1313.5,80.11L1313.5,1024.6" style="fill:none;stroke:#808080;stroke-width:0.25" />
<path d="M1505.7,80.11L1505.7,1024.6" style="fill:none;stroke:#808080;stroke-width:0.25" />
<path d="M1697.8,80.11L1697.8,1024.6" style="fill:none;stroke:#808080;stroke-width:0.25" />
<path d="M1890,80.11L1890,1024.6" style="fill:none;stroke:#808080;stroke-width:0.25" />
<path d="M160.46,147.26L1890,147.26" style="fill:none;stroke:#808080;stroke-width:0.25" />
<path d="M160.46,551.09L1890,551.09" style="fill:none;stroke:#808080;stroke-width:0.25" />
<path d="M160.46,954.91L1890,954.91" style="fill:none;stroke:#808080;stroke-width:0.25" />
<path d="M160.46,99.465L352.63,163.84L544.8,234.25L736.97,310.05L929.15,384.1L1121.3,473.86L1313.5,548.73L1505.7,635.43L1697.8,701.76L1890,806.83" style="fill:none;stroke:#FF0000;stroke-width:4" />
<path d="M165.46,99.465A5,5 0 1 1 155.46,99.465A5,5 0 1 1 165.46,99.465Z" style="fill:#FF0000" />
<path d="M357.63,163.84A5,5 0 1 1 347.63,163.84A5,5 0 1 1 357.63,163.84Z" style="fill:#FF0000" />
<path d="M549.8,234.25A5,5 0 1 1 539.8,234.25A5,5 0 1 1 549.8,234.25Z" style="fill:#FF0000" />
<path d="M741.97,310.05A5,5 0 1 1 731.97,310.05A5,5 0 1 1 741.97,310.05Z" style="fill:#FF0000" />
<path d="M934.15,384.1A5,5 0 1 1 924.15,384.1A5,5 0 1 1 934.15,384.1Z" style="fill:#FF0000" />
<path d="M1126.3,473.86A5,5 0 1 1 1116.3,473.86A5,5 0 1 1 1126.3,473.86Z" style="fill:#FF0000" />
<path d="M1318.5,548.73A5,5 0 1 1 1308.5,548.73A5,5 0 1 1 1318.5,548.73Z" style="fill:#FF0000" />
<path d="M1510.7,635.43A5,5 0 1 1 1500.7,635.43A5,5 0 1 1 1510.7,635.43Z" style="fill:#FF0000" />
<path d="M1702.8,701.76A5,5 0 1 1 1692.8,701.76A5,5 0 1 1 1702.8,701.76Z" style="fill:#FF0000" />
<path d="M1895,806.83A5,5 0 1 1 1885,806.83A5,5 0 1 1 1895,806.83Z" style="fill:#FF0000" />
<path d="M160.46,100.61L352.63,178.05L544.8,264.38L736.97,339.84L929.15,439.49L1121.3,525.32L1313.5,624.42L1505.7,728.45L1697.8,833.5L1890,932.63" style="fill:none;stroke:#0000FF;stroke-width:4" />
<path d="M165.46,100.61A5,5 0 1 1 155.46,100.61A5,5 0 1 1 165.46,100.61Z" style="fill:#0000FF" />
<path d="M357.63,178.05A5,5 0 1 1 347.63,178.05A5,5 0 1 1 357.63,178.05Z" style="fill:#0000FF" />
<path d="M549.8,264.38A5,5 0 1 1 539.8,264.38A5,5 0 1 1 549.8,264.38Z" style="fill:#0000FF" />
<path d="M741.97,339.84A5,5 0 1 1 731.97,339.84A5,5 0 1 1 741.97,339.84Z" style="fill:#0000FF" />
<path d="M934.15,439.49A5,5 0 1 1 924.15,439.49A5,5 0 1 1 934.15,439.49Z" style="fill:#0000FF" />
<path d="M1126.3,525.32A5,5 0 1 1 1116.3,525.32A5,5 0 1 1 1126.3,525.32Z" style="fill:#0000FF" />
<path d="M1318.5,624.42A5,5 0 1 1 1308.5,624.42A5,5 0 1 1 1318.5,624.42Z" style="fill:#0000FF" />
<path d="M1510.7,728.45A5,5 0 1 1 1500.7,728.45A5,5 0 1 1 1510.7,728.45Z" style="fill:#0000FF" />
<path d="M1702.8,833.5A5,5 0 1 1 1692.8,833.5A5,5 0 1 1 1702.8,833.5Z" style="fill:#0000FF" />
<path d="M1895,932.63A5,5 0 1 1 1885,932.63A5,5 0 1 1 1895,932.63Z" style="fill:#0000FF" />
<path d="M160.46,80.11L352.63,159.61L544.8,220.47L736.97,298.29L929.15,357.86L1121.3,439.12L1313.5,510.93L1505.7,603.17L1697.8,676.5L1890,780.77" style="fill:none;stroke:#00FF00;stroke-width:4" />
<path d="M165.46,80.11A5,5 0 1 1 155.46,80.11A5,5 0 1 1 165.46,80.11Z" style="fill:#00FF00" />
<path d="M357.63,159.61A5,5 0 1 1 347.63,159.61A5,5 0 1 1 357.63,159.61Z" style="fill:#00FF00" />
<path d="M549.8,220.47A5,5 0 1 1 539.8,220.47A5,5 0 1 1 549.8,220.47Z" style="fill:#00FF00" />
<path d="M741.97,298.29A5,5 0 1 1 731.97,298.29A5,5 0 1 1 741.97,298.29Z" style="fill:#00FF00" />
<path d="M934.15,357.86A5,5 0 1 1 924.15,357.86A5,5 0 1 1 934.15,357.86Z" style="fill:#00FF00" />
<path d="M1126.3,439.12A5,5 0 1 1 1116.3,439.12A5,5 0 1 1 1126.3,439.12Z" style="fill:#00FF00" />
<path d="M1318.5,510.93A5,5 0 1 1 1308.5,510.93A5,5 0 1 1 1318.5,510.93Z" style="fill:#00FF00" />
<path d="M1510.7,603.17A5,5 0 1 1 1500.7,603.17A5,5 0 1 1 1510.7,603.17Z" style="fill:#00FF00" />
<path d="M1702.8,676.5A5,5 0 1 1 1692.8,676.5A5,5 0 1 1 1702.8,676.5Z" style="fill:#00FF00" />
<path d="M1895,780.77A5,5 0 1 1 1885,780.77A5,5 0 1 1 1895,780.77Z" style="fill:#00FF00" />
<path d="M1900,126.03L1920,126.03" style="fill:none;stroke:#FF0000;stroke-width:4" />
<path d="M1915,126.03A5,5 0 1 1 1905,126.03A5,5 0 1 1 1915,126.03Z" style="fill:#FF0000" />
<text x="1823.3" y="-121.05" transform="scale(1, -1)"
	style="font-family:Liberation Serif;font-variant:normal;font-weight:normal;font-style:normal;font-size:24px">std::list</text>
<path d="M1900,105.66L1920,105.66" style="fill:none;stroke:#0000FF;stroke-width:4" />
<path d="M1915,105.66A5,5 0 1 1 1905,105.66A5,5 0 1 1 1915,105.66Z" style="fill:#0000FF" />
<text x="1795.4" y="-100.69" transform="scale(1, -1)"
	style="font-family:Liberation Serif;font-variant:normal;font-weight:normal;font-style:normal;font-size:24px">std::deque</text>
<path d="M1900,85.294L1920,85.294" style="fill:none;stroke:#00FF00;stroke-width:4" />
<path d="M1915,85.294A5,5 0 1 1 1905,85.294A5,5 0 1 1 1915,85.294Z" style="fill:#00FF00" />
<text x="1792.7" y="-80.319" transform="scale(1, -1)"
	style="font-family:Liberation Serif;font-variant:normal;font-weight:normal;font-style:normal;font-size:24px">std::vector</text>
</g>
</svg>
