<?xml version="1.0"?>
<!-- Generated by SVGo and Plotinum VG -->
<svg width="1920pt" height="1080pt" viewBox="0 0 1920 1080"
	xmlns="http://www.w3.org/2000/svg"
	xmlns:xlink="http://www.w3.org/1999/xlink">
<g transform="scale(1, -1) translate(0, -1080)">
<path d="M0,0L1920,0L1920,1080L0,1080Z" style="fill:#FFFFFF" />
<text x="819.77" y="-1040.9" transform="scale(1, -1)"
	style="font-family:Liberation Serif;font-variant:normal;font-weight:normal;font-style:normal;font-size:50px">random-insert</text>
<text x="890.27" y="-9.7559" transform="scale(1, -1)"
	style="font-family:Liberation Serif;font-variant:normal;font-weight:normal;font-style:normal;font-size:30px">Number of elements</text>
<text x="110.46" y="-39.727" transform="scale(1, -1)"
	style="font-family:Liberation Serif;font-variant:normal;font-weight:normal;font-style:normal;font-size:20px">10000</text>
<text x="305.41" y="-39.727" transform="scale(1, -1)"
	style="font-family:Liberation Serif;font-variant:normal;font-weight:normal;font-style:normal;font-size:20px">20000</text>
<text x="500.36" y="-39.727" transform="scale(1, -1)"
	style="font-family:Liberation Serif;font-variant:normal;font-weight:normal;font-style:normal;font-size:20px">30000</text>
<text x="695.31" y="-39.727" transform="scale(1, -1)"
	style="font-family:Liberation Serif;font-variant:normal;font-weight:normal;font-style:normal;font-size:20px">40000</text>
<text x="890.26" y="-39.727" transform="scale(1, -1)"
	style="font-family:Liberation Serif;font-variant:normal;font-weight:normal;font-style:normal;font-size:20px">50000</text>
<text x="1085.2" y="-39.727" transform="scale(1, -1)"
	style="font-family:Liberation Serif;font-variant:normal;font-weight:normal;font-style:normal;font-size:20px">60000</text>
<text x="1280.2" y="-39.727" transform="scale(1, -1)"
	style="font-family:Liberation Serif;font-variant:normal;font-weight:normal;font-style:normal;font-size:20px">70000</text>
<text x="1475.1" y="-39.727" transform="scale(1, -1)"
	style="font-family:Liberation Serif;font-variant:normal;font-weight:normal;font-style:normal;font-size:20px">80000</text>
<text x="1670.1" y="-39.727" transform="scale(1, -1)"
	style="font-family:Liberation Serif;font-variant:normal;font-weight:normal;font-style:normal;font-size:20px">90000</text>
<text x="1860" y="-39.727" transform="scale(1, -1)"
	style="font-family:Liberation Serif;font-variant:normal;font-weight:normal;font-style:normal;font-size:20px">100000</text>
<path d="M135.46,55.371L135.46,63.371" style="fill:none;stroke:#000000;stroke-width:0.5" />
<path d="M330.41,55.371L330.41,63.371" style="fill:none;stroke:#000000;stroke-width:0.5" />
<path d="M525.36,55.371L525.36,63.371" style="fill:none;stroke:#000000;stroke-width:0.5" />
<path d="M720.31,55.371L720.31,63.371" style="fill:none;stroke:#000000;stroke-width:0.5" />
<path d="M915.26,55.371L915.26,63.371" style="fill:none;stroke:#000000;stroke-width:0.5" />
<path d="M1110.2,55.371L1110.2,63.371" style="fill:none;stroke:#000000;stroke-width:0.5" />
<path d="M1305.2,55.371L1305.2,63.371" style="fill:none;stroke:#000000;stroke-width:0.5" />
<path d="M1500.1,55.371L1500.1,63.371" style="fill:none;stroke:#000000;stroke-width:0.5" />
<path d="M1695.1,55.371L1695.1,63.371" style="fill:none;stroke:#000000;stroke-width:0.5" />
<path d="M1890,55.371L1890,63.371" style="fill:none;stroke:#000000;stroke-width:0.5" />
<path d="M135.46,63.371L1890,63.371" style="fill:none;stroke:#000000;stroke-width:0.5" />
<g transform="rotate(90)">
<text x="538.49" y="23.467" transform="scale(1, -1)"
	style="font-family:Liberation Serif;font-variant:normal;font-weight:normal;font-style:normal;font-size:30px">μs</text>
</g>
<text x="49.712" y="-187.76" transform="scale(1, -1)"
	style="font-family:Liberation Serif;font-variant:normal;font-weight:normal;font-style:normal;font-size:20px">400000</text>
<text x="39.712" y="-545.09" transform="scale(1, -1)"
	style="font-family:Liberation Serif;font-variant:normal;font-weight:normal;font-style:normal;font-size:20px">1200000</text>
<text x="39.712" y="-902.43" transform="scale(1, -1)"
	style="font-family:Liberation Serif;font-variant:normal;font-weight:normal;font-style:normal;font-size:20px">2000000</text>
<path d="M114.71,192.33L122.71,192.33" style="fill:none;stroke:#000000;stroke-width:0.5" />
<path d="M114.71,549.67L122.71,549.67" style="fill:none;stroke:#000000;stroke-width:0.5" />
<path d="M114.71,907L122.71,907" style="fill:none;stroke:#000000;stroke-width:0.5" />
<path d="M118.71,371L122.71,371" style="fill:none;stroke:#000000;stroke-width:0.5" />
<path d="M118.71,728.33L122.71,728.33" style="fill:none;stroke:#000000;stroke-width:0.5" />
<path d="M122.71,80.11L122.71,1024.6" style="fill:none;stroke:#000000;stroke-width:0.5" />
<path d="M135.46,80.11L135.46,1024.6" style="fill:none;stroke:#808080;stroke-width:0.25" />
<path d="M330.41,80.11L330.41,1024.6" style="fill:none;stroke:#808080;stroke-width:0.25" />
<path d="M525.36,80.11L525.36,1024.6" style="fill:none;stroke:#808080;stroke-width:0.25" />
<path d="M720.31,80.11L720.31,1024.6" style="fill:none;stroke:#808080;stroke-width:0.25" />
<path d="M915.26,80.11L915.26,1024.6" style="fill:none;stroke:#808080;stroke-width:0.25" />
<path d="M1110.2,80.11L1110.2,1024.6" style="fill:none;stroke:#808080;stroke-width:0.25" />
<path d="M1305.2,80.11L1305.2,1024.6" style="fill:none;stroke:#808080;stroke-width:0.25" />
<path d="M1500.1,80.11L1500.1,1024.6" style="fill:none;stroke:#808080;stroke-width:0.25" />
<path d="M1695.1,80.11L1695.1,1024.6" style="fill:none;stroke:#808080;stroke-width:0.25" />
<path d="M1890,80.11L1890,1024.6" style="fill:none;stroke:#808080;stroke-width:0.25" />
<path d="M135.46,192.33L1890,192.33" style="fill:none;stroke:#808080;stroke-width:0.25" />
<path d="M135.46,549.67L1890,549.67" style="fill:none;stroke:#808080;stroke-width:0.25" />
<path d="M135.46,907L1890,907" style="fill:none;stroke:#808080;stroke-width:0.25" />
<path d="M135.46,88.919L330.41,151.74L525.36,221.24L720.31,314.28L915.26,371.78L1110.2,447.8L1305.2,512.95L1500.1,772.73L1695.1,661.93L1890,757.76" style="fill:none;stroke:#FF0000;stroke-width:4" />
<path d="M140.46,88.919A5,5 0 1 1 130.46,88.919A5,5 0 1 1 140.46,88.919Z" style="fill:#FF0000" />
<path d="M335.41,151.74A5,5 0 1 1 325.41,151.74A5,5 0 1 1 335.41,151.74Z" style="fill:#FF0000" />
<path d="M530.36,221.24A5,5 0 1 1 520.36,221.24A5,5 0 1 1 530.36,221.24Z" style="fill:#FF0000" />
<path d="M725.31,314.28A5,5 0 1 1 715.31,314.28A5,5 0 1 1 725.31,314.28Z" style="fill:#FF0000" />
<path d="M920.26,371.78A5,5 0 1 1 910.26,371.78A5,5 0 1 1 920.26,371.78Z" style="fill:#FF0000" />
<path d="M1115.2,447.8A5,5 0 1 1 1105.2,447.8A5,5 0 1 1 1115.2,447.8Z" style="fill:#FF0000" />
<path d="M1310.2,512.95A5,5 0 1 1 1300.2,512.95A5,5 0 1 1 1310.2,512.95Z" style="fill:#FF0000" />
<path d="M1505.1,772.73A5,5 0 1 1 1495.1,772.73A5,5 0 1 1 1505.1,772.73Z" style="fill:#FF0000" />
<path d="M1700.1,661.93A5,5 0 1 1 1690.1,661.93A5,5 0 1 1 1700.1,661.93Z" style="fill:#FF0000" />
<path d="M1895,757.76A5,5 0 1 1 1885,757.76A5,5 0 1 1 1895,757.76Z" style="fill:#FF0000" />
<path d="M135.46,95.123L330.41,176.45L525.36,253.99L720.31,316.8L915.26,393.97L1110.2,473.79L1305.2,573.51L1500.1,732.57L1695.1,823.31L1890,932.72" style="fill:none;stroke:#0000FF;stroke-width:4" />
<path d="M140.46,95.123A5,5 0 1 1 130.46,95.123A5,5 0 1 1 140.46,95.123Z" style="fill:#0000FF" />
<path d="M335.41,176.45A5,5 0 1 1 325.41,176.45A5,5 0 1 1 335.41,176.45Z" style="fill:#0000FF" />
<path d="M530.36,253.99A5,5 0 1 1 520.36,253.99A5,5 0 1 1 530.36,253.99Z" style="fill:#0000FF" />
<path d="M725.31,316.8A5,5 0 1 1 715.31,316.8A5,5 0 1 1 725.31,316.8Z" style="fill:#0000FF" />
<path d="M920.26,393.97A5,5 0 1 1 910.26,393.97A5,5 0 1 1 920.26,393.97Z" style="fill:#0000FF" />
<path d="M1115.2,473.79A5,5 0 1 1 1105.2,473.79A5,5 0 1 1 1115.2,473.79Z" style="fill:#0000FF" />
<path d="M1310.2,573.51A5,5 0 1 1 1300.2,573.51A5,5 0 1 1 1310.2,573.51Z" style="fill:#0000FF" />
<path d="M1505.1,732.57A5,5 0 1 1 1495.1,732.57A5,5 0 1 1 1505.1,732.57Z" style="fill:#0000FF" />
<path d="M1700.1,823.31A5,5 0 1 1 1690.1,823.31A5,5 0 1 1 1700.1,823.31Z" style="fill:#0000FF" />
<path d="M1895,932.72A5,5 0 1 1 1885,932.72A5,5 0 1 1 1895,932.72Z" style="fill:#0000FF" />
<path d="M135.46,80.11L330.41,162.26L525.36,223.09L720.31,307.73L915.26,327.07L1110.2,376.37L1305.2,455.66L1500.1,582.45L1695.1,619.24L1890,753.29" style="fill:none;stroke:#00FF00;stroke-width:4" />
<path d="M140.46,80.11A5,5 0 1 1 130.46,80.11A5,5 0 1 1 140.46,80.11Z" style="fill:#00FF00" />
<path d="M335.41,162.26A5,5 0 1 1 325.41,162.26A5,5 0 1 1 335.41,162.26Z" style="fill:#00FF00" />
<path d="M530.36,223.09A5,5 0 1 1 520.36,223.09A5,5 0 1 1 530.36,223.09Z" style="fill:#00FF00" />
<path d="M725.31,307.73A5,5 0 1 1 715.31,307.73A5,5 0 1 1 725.31,307.73Z" style="fill:#00FF00" />
<path d="M920.26,327.07A5,5 0 1 1 910.26,327.07A5,5 0 1 1 920.26,327.07Z" style="fill:#00FF00" />
<path d="M1115.2,376.37A5,5 0 1 1 1105.2,376.37A5,5 0 1 1 1115.2,376.37Z" style="fill:#00FF00" />
<path d="M1310.2,455.66A5,5 0 1 1 1300.2,455.66A5,5 0 1 1 1310.2,455.66Z" style="fill:#00FF00" />
<path d="M1505.1,582.45A5,5 0 1 1 1495.1,582.45A5,5 0 1 1 1505.1,582.45Z" style="fill:#00FF00" />
<path d="M1700.1,619.24A5,5 0 1 1 1690.1,619.24A5,5 0 1 1 1700.1,619.24Z" style="fill:#00FF00" />
<path d="M1895,753.29A5,5 0 1 1 1885,753.29A5,5 0 1 1 1895,753.29Z" style="fill:#00FF00" />
<path d="M1900,126.03L1920,126.03" style="fill:none;stroke:#FF0000;stroke-width:4" />
<path d="M1915,126.03A5,5 0 1 1 1905,126.03A5,5 0 1 1 1915,126.03Z" style="fill:#FF0000" />
<text x="1823.3" y="-121.05" transform="scale(1, -1)"
	style="font-family:Liberation Serif;font-variant:normal;font-weight:normal;font-style:normal;font-size:24px">std::list</text>
<path d="M1900,105.66L1920,105.66" style="fill:none;stroke:#0000FF;stroke-width:4" />
<path d="M1915,105.66A5,5 0 1 1 1905,105.66A5,5 0 1 1 1915,105.66Z" style="fill:#0000FF" />
<text x="1795.4" y="-100.69" transform="scale(1, -1)"
	style="font-family:Liberation Serif;font-variant:normal;font-weight:normal;font-style:normal;font-size:24px">std::deque</text>
<path d="M1900,85.294L1920,85.294" style="fill:none;stroke:#00FF00;stroke-width:4" />
<path d="M1915,85.294A5,5 0 1 1 1905,85.294A5,5 0 1 1 1915,85.294Z" style="fill:#00FF00" />
<text x="1792.7" y="-80.319" transform="scale(1, -1)"
	style="font-family:Liberation Serif;font-variant:normal;font-weight:normal;font-style:normal;font-size:24px">std::vector</text>
</g>
</svg>
