<?xml version="1.0"?>
<!-- Generated by SVGo and Plotinum VG -->
<svg width="1920pt" height="1080pt" viewBox="0 0 1920 1080"
	xmlns="http://www.w3.org/2000/svg"
	xmlns:xlink="http://www.w3.org/1999/xlink">
<g transform="scale(1, -1) translate(0, -1080)">
<path d="M0,0L1920,0L1920,1080L0,1080Z" style="fill:#FFFFFF" />
<text x="819.77" y="-1040.9" transform="scale(1, -1)"
	style="font-family:Liberation Serif;font-variant:normal;font-weight:normal;font-style:normal;font-size:50px">random-insert</text>
<text x="902.77" y="-9.7559" transform="scale(1, -1)"
	style="font-family:Liberation Serif;font-variant:normal;font-weight:normal;font-style:normal;font-size:30px">Number of elements</text>
<text x="135.46" y="-39.727" transform="scale(1, -1)"
	style="font-family:Liberation Serif;font-variant:normal;font-weight:normal;font-style:normal;font-size:20px">10000</text>
<text x="327.63" y="-39.727" transform="scale(1, -1)"
	style="font-family:Liberation Serif;font-variant:normal;font-weight:normal;font-style:normal;font-size:20px">20000</text>
<text x="519.8" y="-39.727" transform="scale(1, -1)"
	style="font-family:Liberation Serif;font-variant:normal;font-weight:normal;font-style:normal;font-size:20px">30000</text>
<text x="711.97" y="-39.727" transform="scale(1, -1)"
	style="font-family:Liberation Serif;font-variant:normal;font-weight:normal;font-style:normal;font-size:20px">40000</text>
<text x="904.15" y="-39.727" transform="scale(1, -1)"
	style="font-family:Liberation Serif;font-variant:normal;font-weight:normal;font-style:normal;font-size:20px">50000</text>
<text x="1096.3" y="-39.727" transform="scale(1, -1)"
	style="font-family:Liberation Serif;font-variant:normal;font-weight:normal;font-style:normal;font-size:20px">60000</text>
<text x="1288.5" y="-39.727" transform="scale(1, -1)"
	style="font-family:Liberation Serif;font-variant:normal;font-weight:normal;font-style:normal;font-size:20px">70000</text>
<text x="1480.7" y="-39.727" transform="scale(1, -1)"
	style="font-family:Liberation Serif;font-variant:normal;font-weight:normal;font-style:normal;font-size:20px">80000</text>
<text x="1672.8" y="-39.727" transform="scale(1, -1)"
	style="font-family:Liberation Serif;font-variant:normal;font-weight:normal;font-style:normal;font-size:20px">90000</text>
<text x="1860" y="-39.727" transform="scale(1, -1)"
	style="font-family:Liberation Serif;font-variant:normal;font-weight:normal;font-style:normal;font-size:20px">100000</text>
<path d="M160.46,55.371L160.46,63.371" style="fill:none;stroke:#000000;stroke-width:0.5" />
<path d="M352.63,55.371L352.63,63.371" style="fill:none;stroke:#000000;stroke-width:0.5" />
<path d="M544.8,55.371L544.8,63.371" style="fill:none;stroke:#000000;stroke-width:0.5" />
<path d="M736.97,55.371L736.97,63.371" style="fill:none;stroke:#000000;stroke-width:0.5" />
<path d="M929.15,55.371L929.15,63.371" style="fill:none;stroke:#000000;stroke-width:0.5" />
<path d="M1121.3,55.371L1121.3,63.371" style="fill:none;stroke:#000000;stroke-width:0.5" />
<path d="M1313.5,55.371L1313.5,63.371" style="fill:none;stroke:#000000;stroke-width:0.5" />
<path d="M1505.7,55.371L1505.7,63.371" style="fill:none;stroke:#000000;stroke-width:0.5" />
<path d="M1697.8,55.371L1697.8,63.371" style="fill:none;stroke:#000000;stroke-width:0.5" />
<path d="M1890,55.371L1890,63.371" style="fill:none;stroke:#000000;stroke-width:0.5" />
<path d="M160.46,63.371L1890,63.371" style="fill:none;stroke:#000000;stroke-width:0.5" />
<g transform="rotate(90)">
<text x="538.49" y="23.467" transform="scale(1, -1)"
	style="font-family:Liberation Serif;font-variant:normal;font-weight:normal;font-style:normal;font-size:30px">μs</text>
</g>
<text x="49.712" y="-147.43" transform="scale(1, -1)"
	style="font-family:Liberation Serif;font-variant:normal;font-weight:normal;font-style:normal;font-size:20px">250000.00</text>
<text x="39.712" y="-560.53" transform="scale(1, -1)"
	style="font-family:Liberation Serif;font-variant:normal;font-weight:normal;font-style:normal;font-size:20px">1000000.00</text>
<text x="39.712" y="-973.63" transform="scale(1, -1)"
	style="font-family:Liberation Serif;font-variant:normal;font-weight:normal;font-style:normal;font-size:20px">1750000.00</text>
<path d="M139.71,152L147.71,152" style="fill:none;stroke:#000000;stroke-width:0.5" />
<path d="M139.71,565.1L147.71,565.1" style="fill:none;stroke:#000000;stroke-width:0.5" />
<path d="M139.71,978.2L147.71,978.2" style="fill:none;stroke:#000000;stroke-width:0.5" />
<path d="M143.71,358.55L147.71,358.55" style="fill:none;stroke:#000000;stroke-width:0.5" />
<path d="M143.71,771.65L147.71,771.65" style="fill:none;stroke:#000000;stroke-width:0.5" />
<path d="M147.71,80.11L147.71,1024.6" style="fill:none;stroke:#000000;stroke-width:0.5" />
<path d="M160.46,80.11L160.46,1024.6" style="fill:none;stroke:#808080;stroke-width:0.25" />
<path d="M352.63,80.11L352.63,1024.6" style="fill:none;stroke:#808080;stroke-width:0.25" />
<path d="M544.8,80.11L544.8,1024.6" style="fill:none;stroke:#808080;stroke-width:0.25" />
<path d="M736.97,80.11L736.97,1024.6" style="fill:none;stroke:#808080;stroke-width:0.25" />
<path d="M929.15,80.11L929.15,1024.6" style="fill:none;stroke:#808080;stroke-width:0.25" />
<path d="M1121.3,80.11L1121.3,1024.6" style="fill:none;stroke:#808080;stroke-width:0.25" />
<path d="M1313.5,80.11L1313.5,1024.6" style="fill:none;stroke:#808080;stroke-width:0.25" />
<path d="M1505.7,80.11L1505.7,1024.6" style="fill:none;stroke:#808080;stroke-width:0.25" />
<path d="M1697.8,80.11L1697.8,1024.6" style="fill:none;stroke:#808080;stroke-width:0.25" />
<path d="M1890,80.11L1890,1024.6" style="fill:none;stroke:#808080;stroke-width:0.25" />
<path d="M160.46,152L1890,152" style="fill:none;stroke:#808080;stroke-width:0.25" />
<path d="M160.46,565.1L1890,565.1" style="fill:none;stroke:#808080;stroke-width:0.25" />
<path d="M160.46,978.2L1890,978.2" style="fill:none;stroke:#808080;stroke-width:0.25" />
<path d="M160.46,82.495L352.63,161.98L544.8,245.64L736.97,341.34L929.15,397.25L1121.3,499.87L1313.5,572.21L1505.7,676.8L1697.8,709.86L1890,932.78" style="fill:none;stroke:#FF0000;stroke-width:4" />
<path d="M165.46,82.495A5,5 0 1 1 155.46,82.495A5,5 0 1 1 165.46,82.495Z" style="fill:#FF0000" />
<path d="M357.63,161.98A5,5 0 1 1 347.63,161.98A5,5 0 1 1 357.63,161.98Z" style="fill:#FF0000" />
<path d="M549.8,245.64A5,5 0 1 1 539.8,245.64A5,5 0 1 1 549.8,245.64Z" style="fill:#FF0000" />
<path d="M741.97,341.34A5,5 0 1 1 731.97,341.34A5,5 0 1 1 741.97,341.34Z" style="fill:#FF0000" />
<path d="M934.15,397.25A5,5 0 1 1 924.15,397.25A5,5 0 1 1 934.15,397.25Z" style="fill:#FF0000" />
<path d="M1126.3,499.87A5,5 0 1 1 1116.3,499.87A5,5 0 1 1 1126.3,499.87Z" style="fill:#FF0000" />
<path d="M1318.5,572.21A5,5 0 1 1 1308.5,572.21A5,5 0 1 1 1318.5,572.21Z" style="fill:#FF0000" />
<path d="M1510.7,676.8A5,5 0 1 1 1500.7,676.8A5,5 0 1 1 1510.7,676.8Z" style="fill:#FF0000" />
<path d="M1702.8,709.86A5,5 0 1 1 1692.8,709.86A5,5 0 1 1 1702.8,709.86Z" style="fill:#FF0000" />
<path d="M1895,932.78A5,5 0 1 1 1885,932.78A5,5 0 1 1 1895,932.78Z" style="fill:#FF0000" />
<path d="M160.46,88.579L352.63,151.9L544.8,227.27L736.97,294.33L929.15,382.92L1121.3,433.05L1313.5,534.47L1505.7,595.83L1697.8,699.93L1890,800.35" style="fill:none;stroke:#0000FF;stroke-width:4" />
<path d="M165.46,88.579A5,5 0 1 1 155.46,88.579A5,5 0 1 1 165.46,88.579Z" style="fill:#0000FF" />
<path d="M357.63,151.9A5,5 0 1 1 347.63,151.9A5,5 0 1 1 357.63,151.9Z" style="fill:#0000FF" />
<path d="M549.8,227.27A5,5 0 1 1 539.8,227.27A5,5 0 1 1 549.8,227.27Z" style="fill:#0000FF" />
<path d="M741.97,294.33A5,5 0 1 1 731.97,294.33A5,5 0 1 1 741.97,294.33Z" style="fill:#0000FF" />
<path d="M934.15,382.92A5,5 0 1 1 924.15,382.92A5,5 0 1 1 934.15,382.92Z" style="fill:#0000FF" />
<path d="M1126.3,433.05A5,5 0 1 1 1116.3,433.05A5,5 0 1 1 1126.3,433.05Z" style="fill:#0000FF" />
<path d="M1318.5,534.47A5,5 0 1 1 1308.5,534.47A5,5 0 1 1 1318.5,534.47Z" style="fill:#0000FF" />
<path d="M1510.7,595.83A5,5 0 1 1 1500.7,595.83A5,5 0 1 1 1510.7,595.83Z" style="fill:#0000FF" />
<path d="M1702.8,699.93A5,5 0 1 1 1692.8,699.93A5,5 0 1 1 1702.8,699.93Z" style="fill:#0000FF" />
<path d="M1895,800.35A5,5 0 1 1 1885,800.35A5,5 0 1 1 1895,800.35Z" style="fill:#0000FF" />
<path d="M160.46,80.11L352.63,139.99L544.8,204.35L736.97,267.03L929.15,369.22L1121.3,399.07L1313.5,478.84L1505.7,526.63L1697.8,570.47L1890,655.44" style="fill:none;stroke:#00FF00;stroke-width:4" />
<path d="M165.46,80.11A5,5 0 1 1 155.46,80.11A5,5 0 1 1 165.46,80.11Z" style="fill:#00FF00" />
<path d="M357.63,139.99A5,5 0 1 1 347.63,139.99A5,5 0 1 1 357.63,139.99Z" style="fill:#00FF00" />
<path d="M549.8,204.35A5,5 0 1 1 539.8,204.35A5,5 0 1 1 549.8,204.35Z" style="fill:#00FF00" />
<path d="M741.97,267.03A5,5 0 1 1 731.97,267.03A5,5 0 1 1 741.97,267.03Z" style="fill:#00FF00" />
<path d="M934.15,369.22A5,5 0 1 1 924.15,369.22A5,5 0 1 1 934.15,369.22Z" style="fill:#00FF00" />
<path d="M1126.3,399.07A5,5 0 1 1 1116.3,399.07A5,5 0 1 1 1126.3,399.07Z" style="fill:#00FF00" />
<path d="M1318.5,478.84A5,5 0 1 1 1308.5,478.84A5,5 0 1 1 1318.5,478.84Z" style="fill:#00FF00" />
<path d="M1510.7,526.63A5,5 0 1 1 1500.7,526.63A5,5 0 1 1 1510.7,526.63Z" style="fill:#00FF00" />
<path d="M1702.8,570.47A5,5 0 1 1 1692.8,570.47A5,5 0 1 1 1702.8,570.47Z" style="fill:#00FF00" />
<path d="M1895,655.44A5,5 0 1 1 1885,655.44A5,5 0 1 1 1895,655.44Z" style="fill:#00FF00" />
<path d="M1900,126.03L1920,126.03" style="fill:none;stroke:#FF0000;stroke-width:4" />
<path d="M1915,126.03A5,5 0 1 1 1905,126.03A5,5 0 1 1 1915,126.03Z" style="fill:#FF0000" />
<text x="1823.3" y="-121.05" transform="scale(1, -1)"
	style="font-family:Liberation Serif;font-variant:normal;font-weight:normal;font-style:normal;font-size:24px">std::list</text>
<path d="M1900,105.66L1920,105.66" style="fill:none;stroke:#0000FF;stroke-width:4" />
<path d="M1915,105.66A5,5 0 1 1 1905,105.66A5,5 0 1 1 1915,105.66Z" style="fill:#0000FF" />
<text x="1795.4" y="-100.69" transform="scale(1, -1)"
	style="font-family:Liberation Serif;font-variant:normal;font-weight:normal;font-style:normal;font-size:24px">std::deque</text>
<path d="M1900,85.294L1920,85.294" style="fill:none;stroke:#00FF00;stroke-width:4" />
<path d="M1915,85.294A5,5 0 1 1 1905,85.294A5,5 0 1 1 1915,85.294Z" style="fill:#00FF00" />
<text x="1792.7" y="-80.319" transform="scale(1, -1)"
	style="font-family:Liberation Serif;font-variant:normal;font-weight:normal;font-style:normal;font-size:24px">std::vector</text>
</g>
</svg>
