<?xml version="1.0"?>
<!-- Generated by SVGo and Plotinum VG -->
<svg width="1920pt" height="1080pt" viewBox="0 0 1920 1080"
	xmlns="http://www.w3.org/2000/svg"
	xmlns:xlink="http://www.w3.org/1999/xlink">
<g transform="scale(1, -1) translate(0, -1080)">
<path d="M0,0L1920,0L1920,1080L0,1080Z" style="fill:#FFFFFF" />
<text x="735.77" y="-1040.9" transform="scale(1, -1)"
	style="font-family:Liberation Serif;font-variant:normal;font-weight:normal;font-style:normal;font-size:50px">push-back - Log Scale</text>
<text x="882.77" y="-9.7559" transform="scale(1, -1)"
	style="font-family:Liberation Serif;font-variant:normal;font-weight:normal;font-style:normal;font-size:30px">Number of elements</text>
<text x="95.462" y="-39.727" transform="scale(1, -1)"
	style="font-family:Liberation Serif;font-variant:normal;font-weight:normal;font-style:normal;font-size:20px">100000</text>
<text x="290.97" y="-39.727" transform="scale(1, -1)"
	style="font-family:Liberation Serif;font-variant:normal;font-weight:normal;font-style:normal;font-size:20px">200000</text>
<text x="486.47" y="-39.727" transform="scale(1, -1)"
	style="font-family:Liberation Serif;font-variant:normal;font-weight:normal;font-style:normal;font-size:20px">300000</text>
<text x="681.97" y="-39.727" transform="scale(1, -1)"
	style="font-family:Liberation Serif;font-variant:normal;font-weight:normal;font-style:normal;font-size:20px">400000</text>
<text x="877.48" y="-39.727" transform="scale(1, -1)"
	style="font-family:Liberation Serif;font-variant:normal;font-weight:normal;font-style:normal;font-size:20px">500000</text>
<text x="1073" y="-39.727" transform="scale(1, -1)"
	style="font-family:Liberation Serif;font-variant:normal;font-weight:normal;font-style:normal;font-size:20px">600000</text>
<text x="1268.5" y="-39.727" transform="scale(1, -1)"
	style="font-family:Liberation Serif;font-variant:normal;font-weight:normal;font-style:normal;font-size:20px">700000</text>
<text x="1464" y="-39.727" transform="scale(1, -1)"
	style="font-family:Liberation Serif;font-variant:normal;font-weight:normal;font-style:normal;font-size:20px">800000</text>
<text x="1659.5" y="-39.727" transform="scale(1, -1)"
	style="font-family:Liberation Serif;font-variant:normal;font-weight:normal;font-style:normal;font-size:20px">900000</text>
<text x="1850" y="-39.727" transform="scale(1, -1)"
	style="font-family:Liberation Serif;font-variant:normal;font-weight:normal;font-style:normal;font-size:20px">1000000</text>
<path d="M125.46,55.371L125.46,63.371" style="fill:none;stroke:#000000;stroke-width:0.5" />
<path d="M320.97,55.371L320.97,63.371" style="fill:none;stroke:#000000;stroke-width:0.5" />
<path d="M516.47,55.371L516.47,63.371" style="fill:none;stroke:#000000;stroke-width:0.5" />
<path d="M711.97,55.371L711.97,63.371" style="fill:none;stroke:#000000;stroke-width:0.5" />
<path d="M907.48,55.371L907.48,63.371" style="fill:none;stroke:#000000;stroke-width:0.5" />
<path d="M1103,55.371L1103,63.371" style="fill:none;stroke:#000000;stroke-width:0.5" />
<path d="M1298.5,55.371L1298.5,63.371" style="fill:none;stroke:#000000;stroke-width:0.5" />
<path d="M1494,55.371L1494,63.371" style="fill:none;stroke:#000000;stroke-width:0.5" />
<path d="M1689.5,55.371L1689.5,63.371" style="fill:none;stroke:#000000;stroke-width:0.5" />
<path d="M1885,55.371L1885,63.371" style="fill:none;stroke:#000000;stroke-width:0.5" />
<path d="M125.46,63.371L1885,63.371" style="fill:none;stroke:#000000;stroke-width:0.5" />
<g transform="rotate(90)">
<text x="485.87" y="23.467" transform="scale(1, -1)"
	style="font-family:Liberation Serif;font-variant:normal;font-weight:normal;font-style:normal;font-size:30px">log(μs + 1)</text>
</g>
<text x="39.712" y="-527.64" transform="scale(1, -1)"
	style="font-family:Liberation Serif;font-variant:normal;font-weight:normal;font-style:normal;font-size:20px">100000</text>
<text x="39.712" y="-757.28" transform="scale(1, -1)"
	style="font-family:Liberation Serif;font-variant:normal;font-weight:normal;font-style:normal;font-size:20px">200000</text>
<text x="39.712" y="-891.61" transform="scale(1, -1)"
	style="font-family:Liberation Serif;font-variant:normal;font-weight:normal;font-style:normal;font-size:20px">300000</text>
<text x="39.712" y="-986.92" transform="scale(1, -1)"
	style="font-family:Liberation Serif;font-variant:normal;font-weight:normal;font-style:normal;font-size:20px">400000</text>
<path d="M104.71,532.21L112.71,532.21" style="fill:none;stroke:#000000;stroke-width:0.5" />
<path d="M104.71,761.85L112.71,761.85" style="fill:none;stroke:#000000;stroke-width:0.5" />
<path d="M104.71,896.18L112.71,896.18" style="fill:none;stroke:#000000;stroke-width:0.5" />
<path d="M104.71,991.49L112.71,991.49" style="fill:none;stroke:#000000;stroke-width:0.5" />
<path d="M108.71,228.65L112.71,228.65" style="fill:none;stroke:#000000;stroke-width:0.5" />
<path d="M108.71,362.98L112.71,362.98" style="fill:none;stroke:#000000;stroke-width:0.5" />
<path d="M108.71,458.29L112.71,458.29" style="fill:none;stroke:#000000;stroke-width:0.5" />
<path d="M108.71,592.62L112.71,592.62" style="fill:none;stroke:#000000;stroke-width:0.5" />
<path d="M108.71,643.69L112.71,643.69" style="fill:none;stroke:#000000;stroke-width:0.5" />
<path d="M108.71,687.92L112.71,687.92" style="fill:none;stroke:#000000;stroke-width:0.5" />
<path d="M108.71,726.95L112.71,726.95" style="fill:none;stroke:#000000;stroke-width:0.5" />
<path d="M108.71,793.43L112.71,793.43" style="fill:none;stroke:#000000;stroke-width:0.5" />
<path d="M108.71,822.25L112.71,822.25" style="fill:none;stroke:#000000;stroke-width:0.5" />
<path d="M108.71,848.77L112.71,848.77" style="fill:none;stroke:#000000;stroke-width:0.5" />
<path d="M108.71,873.32L112.71,873.32" style="fill:none;stroke:#000000;stroke-width:0.5" />
<path d="M108.71,917.56L112.71,917.56" style="fill:none;stroke:#000000;stroke-width:0.5" />
<path d="M108.71,937.65L112.71,937.65" style="fill:none;stroke:#000000;stroke-width:0.5" />
<path d="M108.71,956.58L112.71,956.58" style="fill:none;stroke:#000000;stroke-width:0.5" />
<path d="M108.71,974.49L112.71,974.49" style="fill:none;stroke:#000000;stroke-width:0.5" />
<path d="M108.71,1007.7L112.71,1007.7" style="fill:none;stroke:#000000;stroke-width:0.5" />
<path d="M108.71,1023.1L112.71,1023.1" style="fill:none;stroke:#000000;stroke-width:0.5" />
<path d="M112.71,80.11L112.71,1024.6" style="fill:none;stroke:#000000;stroke-width:0.5" />
<path d="M125.46,80.11L125.46,1024.6" style="fill:none;stroke:#808080;stroke-width:0.25" />
<path d="M320.97,80.11L320.97,1024.6" style="fill:none;stroke:#808080;stroke-width:0.25" />
<path d="M516.47,80.11L516.47,1024.6" style="fill:none;stroke:#808080;stroke-width:0.25" />
<path d="M711.97,80.11L711.97,1024.6" style="fill:none;stroke:#808080;stroke-width:0.25" />
<path d="M907.48,80.11L907.48,1024.6" style="fill:none;stroke:#808080;stroke-width:0.25" />
<path d="M1103,80.11L1103,1024.6" style="fill:none;stroke:#808080;stroke-width:0.25" />
<path d="M1298.5,80.11L1298.5,1024.6" style="fill:none;stroke:#808080;stroke-width:0.25" />
<path d="M1494,80.11L1494,1024.6" style="fill:none;stroke:#808080;stroke-width:0.25" />
<path d="M1689.5,80.11L1689.5,1024.6" style="fill:none;stroke:#808080;stroke-width:0.25" />
<path d="M1885,80.11L1885,1024.6" style="fill:none;stroke:#808080;stroke-width:0.25" />
<path d="M125.46,532.21L1885,532.21" style="fill:none;stroke:#808080;stroke-width:0.25" />
<path d="M125.46,761.85L1885,761.85" style="fill:none;stroke:#808080;stroke-width:0.25" />
<path d="M125.46,896.18L1885,896.18" style="fill:none;stroke:#808080;stroke-width:0.25" />
<path d="M125.46,991.49L1885,991.49" style="fill:none;stroke:#808080;stroke-width:0.25" />
<path d="M125.46,163.48L320.97,447.92L516.47,559.84L711.97,629.95L907.48,704L1103,721.26L1298.5,766.22L1494,793.59L1689.5,855.27L1885,861.65" style="fill:none;stroke:#FF0000;stroke-width:4" />
<path d="M130.46,163.48A5,5 0 1 1 120.46,163.48A5,5 0 1 1 130.46,163.48Z" style="fill:#FF0000" />
<path d="M325.97,447.92A5,5 0 1 1 315.97,447.92A5,5 0 1 1 325.97,447.92Z" style="fill:#FF0000" />
<path d="M521.47,559.84A5,5 0 1 1 511.47,559.84A5,5 0 1 1 521.47,559.84Z" style="fill:#FF0000" />
<path d="M716.97,629.95A5,5 0 1 1 706.97,629.95A5,5 0 1 1 716.97,629.95Z" style="fill:#FF0000" />
<path d="M912.48,704A5,5 0 1 1 902.48,704A5,5 0 1 1 912.48,704Z" style="fill:#FF0000" />
<path d="M1108,721.26A5,5 0 1 1 1098,721.26A5,5 0 1 1 1108,721.26Z" style="fill:#FF0000" />
<path d="M1303.5,766.22A5,5 0 1 1 1293.5,766.22A5,5 0 1 1 1303.5,766.22Z" style="fill:#FF0000" />
<path d="M1499,793.59A5,5 0 1 1 1489,793.59A5,5 0 1 1 1499,793.59Z" style="fill:#FF0000" />
<path d="M1694.5,855.27A5,5 0 1 1 1684.5,855.27A5,5 0 1 1 1694.5,855.27Z" style="fill:#FF0000" />
<path d="M1890,861.65A5,5 0 1 1 1880,861.65A5,5 0 1 1 1890,861.65Z" style="fill:#FF0000" />
<path d="M125.46,193.02L320.97,285.29L516.47,396.91L711.97,518.84L907.48,567.64L1103,629.41L1298.5,701.59L1494,723.52L1689.5,758.03L1885,812.71" style="fill:none;stroke:#0000FF;stroke-width:4" />
<path d="M130.46,193.02A5,5 0 1 1 120.46,193.02A5,5 0 1 1 130.46,193.02Z" style="fill:#0000FF" />
<path d="M325.97,285.29A5,5 0 1 1 315.97,285.29A5,5 0 1 1 325.97,285.29Z" style="fill:#0000FF" />
<path d="M521.47,396.91A5,5 0 1 1 511.47,396.91A5,5 0 1 1 521.47,396.91Z" style="fill:#0000FF" />
<path d="M716.97,518.84A5,5 0 1 1 706.97,518.84A5,5 0 1 1 716.97,518.84Z" style="fill:#0000FF" />
<path d="M912.48,567.64A5,5 0 1 1 902.48,567.64A5,5 0 1 1 912.48,567.64Z" style="fill:#0000FF" />
<path d="M1108,629.41A5,5 0 1 1 1098,629.41A5,5 0 1 1 1108,629.41Z" style="fill:#0000FF" />
<path d="M1303.5,701.59A5,5 0 1 1 1293.5,701.59A5,5 0 1 1 1303.5,701.59Z" style="fill:#0000FF" />
<path d="M1499,723.52A5,5 0 1 1 1489,723.52A5,5 0 1 1 1499,723.52Z" style="fill:#0000FF" />
<path d="M1694.5,758.03A5,5 0 1 1 1684.5,758.03A5,5 0 1 1 1694.5,758.03Z" style="fill:#0000FF" />
<path d="M1890,812.71A5,5 0 1 1 1880,812.71A5,5 0 1 1 1890,812.71Z" style="fill:#0000FF" />
<path d="M125.46,242.69L320.97,446.38L516.47,654.52L711.97,690.39L907.48,753.34L1103,871.01L1298.5,909.63L1494,925.84L1689.5,957.96L1885,993.05" style="fill:none;stroke:#00FF00;stroke-width:4" />
<path d="M130.46,242.69A5,5 0 1 1 120.46,242.69A5,5 0 1 1 130.46,242.69Z" style="fill:#00FF00" />
<path d="M325.97,446.38A5,5 0 1 1 315.97,446.38A5,5 0 1 1 325.97,446.38Z" style="fill:#00FF00" />
<path d="M521.47,654.52A5,5 0 1 1 511.47,654.52A5,5 0 1 1 521.47,654.52Z" style="fill:#00FF00" />
<path d="M716.97,690.39A5,5 0 1 1 706.97,690.39A5,5 0 1 1 716.97,690.39Z" style="fill:#00FF00" />
<path d="M912.48,753.34A5,5 0 1 1 902.48,753.34A5,5 0 1 1 912.48,753.34Z" style="fill:#00FF00" />
<path d="M1108,871.01A5,5 0 1 1 1098,871.01A5,5 0 1 1 1108,871.01Z" style="fill:#00FF00" />
<path d="M1303.5,909.63A5,5 0 1 1 1293.5,909.63A5,5 0 1 1 1303.5,909.63Z" style="fill:#00FF00" />
<path d="M1499,925.84A5,5 0 1 1 1489,925.84A5,5 0 1 1 1499,925.84Z" style="fill:#00FF00" />
<path d="M1694.5,957.96A5,5 0 1 1 1684.5,957.96A5,5 0 1 1 1694.5,957.96Z" style="fill:#00FF00" />
<path d="M1890,993.05A5,5 0 1 1 1880,993.05A5,5 0 1 1 1890,993.05Z" style="fill:#00FF00" />
<path d="M125.46,80.11L320.97,262.44L516.47,386.37L711.97,511.65L907.48,550.86L1103,623.95L1298.5,712.12L1494,737.89L1689.5,762.27L1885,815.47" style="fill:none;stroke:#FF8000;stroke-width:4" />
<path d="M130.46,80.11A5,5 0 1 1 120.46,80.11A5,5 0 1 1 130.46,80.11Z" style="fill:#FF8000" />
<path d="M325.97,262.44A5,5 0 1 1 315.97,262.44A5,5 0 1 1 325.97,262.44Z" style="fill:#FF8000" />
<path d="M521.47,386.37A5,5 0 1 1 511.47,386.37A5,5 0 1 1 521.47,386.37Z" style="fill:#FF8000" />
<path d="M716.97,511.65A5,5 0 1 1 706.97,511.65A5,5 0 1 1 716.97,511.65Z" style="fill:#FF8000" />
<path d="M912.48,550.86A5,5 0 1 1 902.48,550.86A5,5 0 1 1 912.48,550.86Z" style="fill:#FF8000" />
<path d="M1108,623.95A5,5 0 1 1 1098,623.95A5,5 0 1 1 1108,623.95Z" style="fill:#FF8000" />
<path d="M1303.5,712.12A5,5 0 1 1 1293.5,712.12A5,5 0 1 1 1303.5,712.12Z" style="fill:#FF8000" />
<path d="M1499,737.89A5,5 0 1 1 1489,737.89A5,5 0 1 1 1499,737.89Z" style="fill:#FF8000" />
<path d="M1694.5,762.27A5,5 0 1 1 1684.5,762.27A5,5 0 1 1 1694.5,762.27Z" style="fill:#FF8000" />
<path d="M1890,815.47A5,5 0 1 1 1880,815.47A5,5 0 1 1 1890,815.47Z" style="fill:#FF8000" />
<path d="M1900,146.4L1920,146.4" style="fill:none;stroke:#FF0000;stroke-width:4" />
<path d="M1915,146.4A5,5 0 1 1 1905,146.4A5,5 0 1 1 1915,146.4Z" style="fill:#FF0000" />
<text x="1823.3" y="-141.42" transform="scale(1, -1)"
	style="font-family:Liberation Serif;font-variant:normal;font-weight:normal;font-style:normal;font-size:24px">std::list</text>
<path d="M1900,126.03L1920,126.03" style="fill:none;stroke:#0000FF;stroke-width:4" />
<path d="M1915,126.03A5,5 0 1 1 1905,126.03A5,5 0 1 1 1915,126.03Z" style="fill:#0000FF" />
<text x="1795.4" y="-121.05" transform="scale(1, -1)"
	style="font-family:Liberation Serif;font-variant:normal;font-weight:normal;font-style:normal;font-size:24px">std::deque</text>
<path d="M1900,105.66L1920,105.66" style="fill:none;stroke:#00FF00;stroke-width:4" />
<path d="M1915,105.66A5,5 0 1 1 1905,105.66A5,5 0 1 1 1915,105.66Z" style="fill:#00FF00" />
<text x="1792.7" y="-100.69" transform="scale(1, -1)"
	style="font-family:Liberation Serif;font-variant:normal;font-weight:normal;font-style:normal;font-size:24px">std::vector</text>
<path d="M1900,85.294L1920,85.294" style="fill:none;stroke:#FF8000;stroke-width:4" />
<path d="M1915,85.294A5,5 0 1 1 1905,85.294A5,5 0 1 1 1915,85.294Z" style="fill:#FF8000" />
<text x="1669.4" y="-80.319" transform="scale(1, -1)"
	style="font-family:Liberation Serif;font-variant:normal;font-weight:normal;font-style:normal;font-size:24px">preallocated std::vector</text>
</g>
</svg>
