<?xml version="1.0"?>
<!-- Generated by SVGo and Plotinum VG -->
<svg width="1920pt" height="1080pt" viewBox="0 0 1920 1080"
	xmlns="http://www.w3.org/2000/svg"
	xmlns:xlink="http://www.w3.org/1999/xlink">
<g transform="scale(1, -1) translate(0, -1080)">
<path d="M0,0L1920,0L1920,1080L0,1080Z" style="fill:#FFFFFF" />
<text x="857.25" y="-1040.9" transform="scale(1, -1)"
	style="font-family:Liberation Serif;font-variant:normal;font-weight:normal;font-style:normal;font-size:50px">push-back</text>
<text x="882.77" y="-9.7559" transform="scale(1, -1)"
	style="font-family:Liberation Serif;font-variant:normal;font-weight:normal;font-style:normal;font-size:30px">Number of elements</text>
<text x="95.462" y="-39.727" transform="scale(1, -1)"
	style="font-family:Liberation Serif;font-variant:normal;font-weight:normal;font-style:normal;font-size:20px">100000</text>
<text x="290.97" y="-39.727" transform="scale(1, -1)"
	style="font-family:Liberation Serif;font-variant:normal;font-weight:normal;font-style:normal;font-size:20px">200000</text>
<text x="486.47" y="-39.727" transform="scale(1, -1)"
	style="font-family:Liberation Serif;font-variant:normal;font-weight:normal;font-style:normal;font-size:20px">300000</text>
<text x="681.97" y="-39.727" transform="scale(1, -1)"
	style="font-family:Liberation Serif;font-variant:normal;font-weight:normal;font-style:normal;font-size:20px">400000</text>
<text x="877.48" y="-39.727" transform="scale(1, -1)"
	style="font-family:Liberation Serif;font-variant:normal;font-weight:normal;font-style:normal;font-size:20px">500000</text>
<text x="1073" y="-39.727" transform="scale(1, -1)"
	style="font-family:Liberation Serif;font-variant:normal;font-weight:normal;font-style:normal;font-size:20px">600000</text>
<text x="1268.5" y="-39.727" transform="scale(1, -1)"
	style="font-family:Liberation Serif;font-variant:normal;font-weight:normal;font-style:normal;font-size:20px">700000</text>
<text x="1464" y="-39.727" transform="scale(1, -1)"
	style="font-family:Liberation Serif;font-variant:normal;font-weight:normal;font-style:normal;font-size:20px">800000</text>
<text x="1659.5" y="-39.727" transform="scale(1, -1)"
	style="font-family:Liberation Serif;font-variant:normal;font-weight:normal;font-style:normal;font-size:20px">900000</text>
<text x="1850" y="-39.727" transform="scale(1, -1)"
	style="font-family:Liberation Serif;font-variant:normal;font-weight:normal;font-style:normal;font-size:20px">1000000</text>
<path d="M125.46,55.371L125.46,63.371" style="fill:none;stroke:#000000;stroke-width:0.5" />
<path d="M320.97,55.371L320.97,63.371" style="fill:none;stroke:#000000;stroke-width:0.5" />
<path d="M516.47,55.371L516.47,63.371" style="fill:none;stroke:#000000;stroke-width:0.5" />
<path d="M711.97,55.371L711.97,63.371" style="fill:none;stroke:#000000;stroke-width:0.5" />
<path d="M907.48,55.371L907.48,63.371" style="fill:none;stroke:#000000;stroke-width:0.5" />
<path d="M1103,55.371L1103,63.371" style="fill:none;stroke:#000000;stroke-width:0.5" />
<path d="M1298.5,55.371L1298.5,63.371" style="fill:none;stroke:#000000;stroke-width:0.5" />
<path d="M1494,55.371L1494,63.371" style="fill:none;stroke:#000000;stroke-width:0.5" />
<path d="M1689.5,55.371L1689.5,63.371" style="fill:none;stroke:#000000;stroke-width:0.5" />
<path d="M1885,55.371L1885,63.371" style="fill:none;stroke:#000000;stroke-width:0.5" />
<path d="M125.46,63.371L1885,63.371" style="fill:none;stroke:#000000;stroke-width:0.5" />
<g transform="rotate(90)">
<text x="538.49" y="23.467" transform="scale(1, -1)"
	style="font-family:Liberation Serif;font-variant:normal;font-weight:normal;font-style:normal;font-size:30px">μs</text>
</g>
<text x="49.712" y="-188.85" transform="scale(1, -1)"
	style="font-family:Liberation Serif;font-variant:normal;font-weight:normal;font-style:normal;font-size:20px">50000</text>
<text x="39.712" y="-542.52" transform="scale(1, -1)"
	style="font-family:Liberation Serif;font-variant:normal;font-weight:normal;font-style:normal;font-size:20px">150000</text>
<text x="39.712" y="-896.2" transform="scale(1, -1)"
	style="font-family:Liberation Serif;font-variant:normal;font-weight:normal;font-style:normal;font-size:20px">250000</text>
<path d="M104.71,193.42L112.71,193.42" style="fill:none;stroke:#000000;stroke-width:0.5" />
<path d="M104.71,547.09L112.71,547.09" style="fill:none;stroke:#000000;stroke-width:0.5" />
<path d="M104.71,900.77L112.71,900.77" style="fill:none;stroke:#000000;stroke-width:0.5" />
<path d="M108.71,370.26L112.71,370.26" style="fill:none;stroke:#000000;stroke-width:0.5" />
<path d="M108.71,723.93L112.71,723.93" style="fill:none;stroke:#000000;stroke-width:0.5" />
<path d="M112.71,80.11L112.71,1024.6" style="fill:none;stroke:#000000;stroke-width:0.5" />
<path d="M125.46,80.11L125.46,1024.6" style="fill:none;stroke:#808080;stroke-width:0.25" />
<path d="M320.97,80.11L320.97,1024.6" style="fill:none;stroke:#808080;stroke-width:0.25" />
<path d="M516.47,80.11L516.47,1024.6" style="fill:none;stroke:#808080;stroke-width:0.25" />
<path d="M711.97,80.11L711.97,1024.6" style="fill:none;stroke:#808080;stroke-width:0.25" />
<path d="M907.48,80.11L907.48,1024.6" style="fill:none;stroke:#808080;stroke-width:0.25" />
<path d="M1103,80.11L1103,1024.6" style="fill:none;stroke:#808080;stroke-width:0.25" />
<path d="M1298.5,80.11L1298.5,1024.6" style="fill:none;stroke:#808080;stroke-width:0.25" />
<path d="M1494,80.11L1494,1024.6" style="fill:none;stroke:#808080;stroke-width:0.25" />
<path d="M1689.5,80.11L1689.5,1024.6" style="fill:none;stroke:#808080;stroke-width:0.25" />
<path d="M1885,80.11L1885,1024.6" style="fill:none;stroke:#808080;stroke-width:0.25" />
<path d="M125.46,193.42L1885,193.42" style="fill:none;stroke:#808080;stroke-width:0.25" />
<path d="M125.46,547.09L1885,547.09" style="fill:none;stroke:#808080;stroke-width:0.25" />
<path d="M125.46,900.77L1885,900.77" style="fill:none;stroke:#808080;stroke-width:0.25" />
<path d="M125.46,109.6L320.97,213.97L516.47,309.52L711.97,346.91L907.48,446.33L1103,510.46L1298.5,570.58L1494,639.3L1689.5,780.78L1885,840.86" style="fill:none;stroke:#FF0000;stroke-width:4" />
<path d="M130.46,109.6A5,5 0 1 1 120.46,109.6A5,5 0 1 1 130.46,109.6Z" style="fill:#FF0000" />
<path d="M325.97,213.97A5,5 0 1 1 315.97,213.97A5,5 0 1 1 325.97,213.97Z" style="fill:#FF0000" />
<path d="M521.47,309.52A5,5 0 1 1 511.47,309.52A5,5 0 1 1 521.47,309.52Z" style="fill:#FF0000" />
<path d="M716.97,346.91A5,5 0 1 1 706.97,346.91A5,5 0 1 1 716.97,346.91Z" style="fill:#FF0000" />
<path d="M912.48,446.33A5,5 0 1 1 902.48,446.33A5,5 0 1 1 912.48,446.33Z" style="fill:#FF0000" />
<path d="M1108,510.46A5,5 0 1 1 1098,510.46A5,5 0 1 1 1108,510.46Z" style="fill:#FF0000" />
<path d="M1303.5,570.58A5,5 0 1 1 1293.5,570.58A5,5 0 1 1 1303.5,570.58Z" style="fill:#FF0000" />
<path d="M1499,639.3A5,5 0 1 1 1489,639.3A5,5 0 1 1 1499,639.3Z" style="fill:#FF0000" />
<path d="M1694.5,780.78A5,5 0 1 1 1684.5,780.78A5,5 0 1 1 1694.5,780.78Z" style="fill:#FF0000" />
<path d="M1890,840.86A5,5 0 1 1 1880,840.86A5,5 0 1 1 1890,840.86Z" style="fill:#FF0000" />
<path d="M125.46,113.31L320.97,152.75L516.47,225.48L711.97,308.93L907.48,377.5L1103,422.85L1298.5,477.57L1494,592.86L1689.5,645.07L1885,698.24" style="fill:none;stroke:#0000FF;stroke-width:4" />
<path d="M130.46,113.31A5,5 0 1 1 120.46,113.31A5,5 0 1 1 130.46,113.31Z" style="fill:#0000FF" />
<path d="M325.97,152.75A5,5 0 1 1 315.97,152.75A5,5 0 1 1 325.97,152.75Z" style="fill:#0000FF" />
<path d="M521.47,225.48A5,5 0 1 1 511.47,225.48A5,5 0 1 1 521.47,225.48Z" style="fill:#0000FF" />
<path d="M716.97,308.93A5,5 0 1 1 706.97,308.93A5,5 0 1 1 716.97,308.93Z" style="fill:#0000FF" />
<path d="M912.48,377.5A5,5 0 1 1 902.48,377.5A5,5 0 1 1 912.48,377.5Z" style="fill:#0000FF" />
<path d="M1108,422.85A5,5 0 1 1 1098,422.85A5,5 0 1 1 1108,422.85Z" style="fill:#0000FF" />
<path d="M1303.5,477.57A5,5 0 1 1 1293.5,477.57A5,5 0 1 1 1303.5,477.57Z" style="fill:#0000FF" />
<path d="M1499,592.86A5,5 0 1 1 1489,592.86A5,5 0 1 1 1499,592.86Z" style="fill:#0000FF" />
<path d="M1694.5,645.07A5,5 0 1 1 1684.5,645.07A5,5 0 1 1 1694.5,645.07Z" style="fill:#0000FF" />
<path d="M1890,698.24A5,5 0 1 1 1880,698.24A5,5 0 1 1 1890,698.24Z" style="fill:#0000FF" />
<path d="M125.46,118.62L320.97,245.37L516.47,369.29L711.97,442.32L907.48,504.91L1103,732.4L1298.5,818.67L1494,855.08L1689.5,929.94L1885,932.99" style="fill:none;stroke:#00FF00;stroke-width:4" />
<path d="M130.46,118.62A5,5 0 1 1 120.46,118.62A5,5 0 1 1 130.46,118.62Z" style="fill:#00FF00" />
<path d="M325.97,245.37A5,5 0 1 1 315.97,245.37A5,5 0 1 1 325.97,245.37Z" style="fill:#00FF00" />
<path d="M521.47,369.29A5,5 0 1 1 511.47,369.29A5,5 0 1 1 521.47,369.29Z" style="fill:#00FF00" />
<path d="M716.97,442.32A5,5 0 1 1 706.97,442.32A5,5 0 1 1 716.97,442.32Z" style="fill:#00FF00" />
<path d="M912.48,504.91A5,5 0 1 1 902.48,504.91A5,5 0 1 1 912.48,504.91Z" style="fill:#00FF00" />
<path d="M1108,732.4A5,5 0 1 1 1098,732.4A5,5 0 1 1 1108,732.4Z" style="fill:#00FF00" />
<path d="M1303.5,818.67A5,5 0 1 1 1293.5,818.67A5,5 0 1 1 1303.5,818.67Z" style="fill:#00FF00" />
<path d="M1499,855.08A5,5 0 1 1 1489,855.08A5,5 0 1 1 1499,855.08Z" style="fill:#00FF00" />
<path d="M1694.5,929.94A5,5 0 1 1 1684.5,929.94A5,5 0 1 1 1694.5,929.94Z" style="fill:#00FF00" />
<path d="M1890,932.99A5,5 0 1 1 1880,932.99A5,5 0 1 1 1890,932.99Z" style="fill:#00FF00" />
<path d="M125.46,80.11L320.97,145.9L516.47,219.99L711.97,306.39L907.48,351.26L1103,431.98L1298.5,480.24L1494,558.87L1689.5,653.6L1885,667" style="fill:none;stroke:#FF8000;stroke-width:4" />
<path d="M130.46,80.11A5,5 0 1 1 120.46,80.11A5,5 0 1 1 130.46,80.11Z" style="fill:#FF8000" />
<path d="M325.97,145.9A5,5 0 1 1 315.97,145.9A5,5 0 1 1 325.97,145.9Z" style="fill:#FF8000" />
<path d="M521.47,219.99A5,5 0 1 1 511.47,219.99A5,5 0 1 1 521.47,219.99Z" style="fill:#FF8000" />
<path d="M716.97,306.39A5,5 0 1 1 706.97,306.39A5,5 0 1 1 716.97,306.39Z" style="fill:#FF8000" />
<path d="M912.48,351.26A5,5 0 1 1 902.48,351.26A5,5 0 1 1 912.48,351.26Z" style="fill:#FF8000" />
<path d="M1108,431.98A5,5 0 1 1 1098,431.98A5,5 0 1 1 1108,431.98Z" style="fill:#FF8000" />
<path d="M1303.5,480.24A5,5 0 1 1 1293.5,480.24A5,5 0 1 1 1303.5,480.24Z" style="fill:#FF8000" />
<path d="M1499,558.87A5,5 0 1 1 1489,558.87A5,5 0 1 1 1499,558.87Z" style="fill:#FF8000" />
<path d="M1694.5,653.6A5,5 0 1 1 1684.5,653.6A5,5 0 1 1 1694.5,653.6Z" style="fill:#FF8000" />
<path d="M1890,667A5,5 0 1 1 1880,667A5,5 0 1 1 1890,667Z" style="fill:#FF8000" />
<path d="M1900,146.4L1920,146.4" style="fill:none;stroke:#FF0000;stroke-width:4" />
<path d="M1915,146.4A5,5 0 1 1 1905,146.4A5,5 0 1 1 1915,146.4Z" style="fill:#FF0000" />
<text x="1823.3" y="-141.42" transform="scale(1, -1)"
	style="font-family:Liberation Serif;font-variant:normal;font-weight:normal;font-style:normal;font-size:24px">std::list</text>
<path d="M1900,126.03L1920,126.03" style="fill:none;stroke:#0000FF;stroke-width:4" />
<path d="M1915,126.03A5,5 0 1 1 1905,126.03A5,5 0 1 1 1915,126.03Z" style="fill:#0000FF" />
<text x="1795.4" y="-121.05" transform="scale(1, -1)"
	style="font-family:Liberation Serif;font-variant:normal;font-weight:normal;font-style:normal;font-size:24px">std::deque</text>
<path d="M1900,105.66L1920,105.66" style="fill:none;stroke:#00FF00;stroke-width:4" />
<path d="M1915,105.66A5,5 0 1 1 1905,105.66A5,5 0 1 1 1915,105.66Z" style="fill:#00FF00" />
<text x="1792.7" y="-100.69" transform="scale(1, -1)"
	style="font-family:Liberation Serif;font-variant:normal;font-weight:normal;font-style:normal;font-size:24px">std::vector</text>
<path d="M1900,85.294L1920,85.294" style="fill:none;stroke:#FF8000;stroke-width:4" />
<path d="M1915,85.294A5,5 0 1 1 1905,85.294A5,5 0 1 1 1915,85.294Z" style="fill:#FF8000" />
<text x="1669.4" y="-80.319" transform="scale(1, -1)"
	style="font-family:Liberation Serif;font-variant:normal;font-weight:normal;font-style:normal;font-size:24px">preallocated std::vector</text>
</g>
</svg>
