<?xml version="1.0"?>
<!-- Generated by SVGo and Plotinum VG -->
<svg width="1920pt" height="1080pt" viewBox="0 0 1920 1080"
	xmlns="http://www.w3.org/2000/svg"
	xmlns:xlink="http://www.w3.org/1999/xlink">
<g transform="scale(1, -1) translate(0, -1080)">
<path d="M0,0L1920,0L1920,1080L0,1080Z" style="fill:#FFFFFF" />
<text x="735.77" y="-1040.9" transform="scale(1, -1)"
	style="font-family:Liberation Serif;font-variant:normal;font-weight:normal;font-style:normal;font-size:50px">push-back - Log Scale</text>
<text x="882.77" y="-9.7559" transform="scale(1, -1)"
	style="font-family:Liberation Serif;font-variant:normal;font-weight:normal;font-style:normal;font-size:30px">Number of elements</text>
<text x="95.462" y="-39.727" transform="scale(1, -1)"
	style="font-family:Liberation Serif;font-variant:normal;font-weight:normal;font-style:normal;font-size:20px">100000</text>
<text x="290.97" y="-39.727" transform="scale(1, -1)"
	style="font-family:Liberation Serif;font-variant:normal;font-weight:normal;font-style:normal;font-size:20px">200000</text>
<text x="486.47" y="-39.727" transform="scale(1, -1)"
	style="font-family:Liberation Serif;font-variant:normal;font-weight:normal;font-style:normal;font-size:20px">300000</text>
<text x="681.97" y="-39.727" transform="scale(1, -1)"
	style="font-family:Liberation Serif;font-variant:normal;font-weight:normal;font-style:normal;font-size:20px">400000</text>
<text x="877.48" y="-39.727" transform="scale(1, -1)"
	style="font-family:Liberation Serif;font-variant:normal;font-weight:normal;font-style:normal;font-size:20px">500000</text>
<text x="1073" y="-39.727" transform="scale(1, -1)"
	style="font-family:Liberation Serif;font-variant:normal;font-weight:normal;font-style:normal;font-size:20px">600000</text>
<text x="1268.5" y="-39.727" transform="scale(1, -1)"
	style="font-family:Liberation Serif;font-variant:normal;font-weight:normal;font-style:normal;font-size:20px">700000</text>
<text x="1464" y="-39.727" transform="scale(1, -1)"
	style="font-family:Liberation Serif;font-variant:normal;font-weight:normal;font-style:normal;font-size:20px">800000</text>
<text x="1659.5" y="-39.727" transform="scale(1, -1)"
	style="font-family:Liberation Serif;font-variant:normal;font-weight:normal;font-style:normal;font-size:20px">900000</text>
<text x="1850" y="-39.727" transform="scale(1, -1)"
	style="font-family:Liberation Serif;font-variant:normal;font-weight:normal;font-style:normal;font-size:20px">1000000</text>
<path d="M125.46,55.371L125.46,63.371" style="fill:none;stroke:#000000;stroke-width:0.5" />
<path d="M320.97,55.371L320.97,63.371" style="fill:none;stroke:#000000;stroke-width:0.5" />
<path d="M516.47,55.371L516.47,63.371" style="fill:none;stroke:#000000;stroke-width:0.5" />
<path d="M711.97,55.371L711.97,63.371" style="fill:none;stroke:#000000;stroke-width:0.5" />
<path d="M907.48,55.371L907.48,63.371" style="fill:none;stroke:#000000;stroke-width:0.5" />
<path d="M1103,55.371L1103,63.371" style="fill:none;stroke:#000000;stroke-width:0.5" />
<path d="M1298.5,55.371L1298.5,63.371" style="fill:none;stroke:#000000;stroke-width:0.5" />
<path d="M1494,55.371L1494,63.371" style="fill:none;stroke:#000000;stroke-width:0.5" />
<path d="M1689.5,55.371L1689.5,63.371" style="fill:none;stroke:#000000;stroke-width:0.5" />
<path d="M1885,55.371L1885,63.371" style="fill:none;stroke:#000000;stroke-width:0.5" />
<path d="M125.46,63.371L1885,63.371" style="fill:none;stroke:#000000;stroke-width:0.5" />
<g transform="rotate(90)">
<text x="485.87" y="23.467" transform="scale(1, -1)"
	style="font-family:Liberation Serif;font-variant:normal;font-weight:normal;font-style:normal;font-size:30px">log(μs + 1)</text>
</g>
<text x="49.712" y="-425.32" transform="scale(1, -1)"
	style="font-family:Liberation Serif;font-variant:normal;font-weight:normal;font-style:normal;font-size:20px">50000</text>
<text x="39.712" y="-800.71" transform="scale(1, -1)"
	style="font-family:Liberation Serif;font-variant:normal;font-weight:normal;font-style:normal;font-size:20px">150000</text>
<text x="39.712" y="-975.26" transform="scale(1, -1)"
	style="font-family:Liberation Serif;font-variant:normal;font-weight:normal;font-style:normal;font-size:20px">250000</text>
<path d="M104.71,429.89L112.71,429.89" style="fill:none;stroke:#000000;stroke-width:0.5" />
<path d="M104.71,805.28L112.71,805.28" style="fill:none;stroke:#000000;stroke-width:0.5" />
<path d="M104.71,979.83L112.71,979.83" style="fill:none;stroke:#000000;stroke-width:0.5" />
<path d="M108.71,666.74L112.71,666.74" style="fill:none;stroke:#000000;stroke-width:0.5" />
<path d="M108.71,903.59L112.71,903.59" style="fill:none;stroke:#000000;stroke-width:0.5" />
<path d="M112.71,80.11L112.71,1024.6" style="fill:none;stroke:#000000;stroke-width:0.5" />
<path d="M125.46,80.11L125.46,1024.6" style="fill:none;stroke:#808080;stroke-width:0.25" />
<path d="M320.97,80.11L320.97,1024.6" style="fill:none;stroke:#808080;stroke-width:0.25" />
<path d="M516.47,80.11L516.47,1024.6" style="fill:none;stroke:#808080;stroke-width:0.25" />
<path d="M711.97,80.11L711.97,1024.6" style="fill:none;stroke:#808080;stroke-width:0.25" />
<path d="M907.48,80.11L907.48,1024.6" style="fill:none;stroke:#808080;stroke-width:0.25" />
<path d="M1103,80.11L1103,1024.6" style="fill:none;stroke:#808080;stroke-width:0.25" />
<path d="M1298.5,80.11L1298.5,1024.6" style="fill:none;stroke:#808080;stroke-width:0.25" />
<path d="M1494,80.11L1494,1024.6" style="fill:none;stroke:#808080;stroke-width:0.25" />
<path d="M1689.5,80.11L1689.5,1024.6" style="fill:none;stroke:#808080;stroke-width:0.25" />
<path d="M1885,80.11L1885,1024.6" style="fill:none;stroke:#808080;stroke-width:0.25" />
<path d="M125.46,429.89L1885,429.89" style="fill:none;stroke:#808080;stroke-width:0.25" />
<path d="M125.46,805.28L1885,805.28" style="fill:none;stroke:#808080;stroke-width:0.25" />
<path d="M125.46,979.83L1885,979.83" style="fill:none;stroke:#808080;stroke-width:0.25" />
<path d="M125.46,210.39L320.97,467.47L516.47,602.36L711.97,643.41L907.48,733.31L1103,780.84L1298.5,820.09L1494,860.04L1689.5,930L1885,955.86" style="fill:none;stroke:#FF0000;stroke-width:4" />
<path d="M130.46,210.39A5,5 0 1 1 120.46,210.39A5,5 0 1 1 130.46,210.39Z" style="fill:#FF0000" />
<path d="M325.97,467.47A5,5 0 1 1 315.97,467.47A5,5 0 1 1 325.97,467.47Z" style="fill:#FF0000" />
<path d="M521.47,602.36A5,5 0 1 1 511.47,602.36A5,5 0 1 1 521.47,602.36Z" style="fill:#FF0000" />
<path d="M716.97,643.41A5,5 0 1 1 706.97,643.41A5,5 0 1 1 716.97,643.41Z" style="fill:#FF0000" />
<path d="M912.48,733.31A5,5 0 1 1 902.48,733.31A5,5 0 1 1 912.48,733.31Z" style="fill:#FF0000" />
<path d="M1108,780.84A5,5 0 1 1 1098,780.84A5,5 0 1 1 1108,780.84Z" style="fill:#FF0000" />
<path d="M1303.5,820.09A5,5 0 1 1 1293.5,820.09A5,5 0 1 1 1303.5,820.09Z" style="fill:#FF0000" />
<path d="M1499,860.04A5,5 0 1 1 1489,860.04A5,5 0 1 1 1499,860.04Z" style="fill:#FF0000" />
<path d="M1694.5,930A5,5 0 1 1 1684.5,930A5,5 0 1 1 1694.5,930Z" style="fill:#FF0000" />
<path d="M1890,955.86A5,5 0 1 1 1880,955.86A5,5 0 1 1 1890,955.86Z" style="fill:#FF0000" />
<path d="M125.46,223.74L320.97,340.6L516.47,486.83L711.97,601.67L907.48,673.67L1103,714.11L1298.5,757.29L1494,833.56L1689.5,863.2L1885,890.94" style="fill:none;stroke:#0000FF;stroke-width:4" />
<path d="M130.46,223.74A5,5 0 1 1 120.46,223.74A5,5 0 1 1 130.46,223.74Z" style="fill:#0000FF" />
<path d="M325.97,340.6A5,5 0 1 1 315.97,340.6A5,5 0 1 1 325.97,340.6Z" style="fill:#0000FF" />
<path d="M521.47,486.83A5,5 0 1 1 511.47,486.83A5,5 0 1 1 521.47,486.83Z" style="fill:#0000FF" />
<path d="M716.97,601.67A5,5 0 1 1 706.97,601.67A5,5 0 1 1 716.97,601.67Z" style="fill:#0000FF" />
<path d="M912.48,673.67A5,5 0 1 1 902.48,673.67A5,5 0 1 1 912.48,673.67Z" style="fill:#0000FF" />
<path d="M1108,714.11A5,5 0 1 1 1098,714.11A5,5 0 1 1 1108,714.11Z" style="fill:#0000FF" />
<path d="M1303.5,757.29A5,5 0 1 1 1293.5,757.29A5,5 0 1 1 1303.5,757.29Z" style="fill:#0000FF" />
<path d="M1499,833.56A5,5 0 1 1 1489,833.56A5,5 0 1 1 1499,833.56Z" style="fill:#0000FF" />
<path d="M1694.5,863.2A5,5 0 1 1 1684.5,863.2A5,5 0 1 1 1694.5,863.2Z" style="fill:#0000FF" />
<path d="M1890,890.94A5,5 0 1 1 1880,890.94A5,5 0 1 1 1890,890.94Z" style="fill:#0000FF" />
<path d="M125.46,242L320.97,517.91L516.47,665.8L711.97,730.11L907.48,776.97L1103,907.65L1298.5,946.53L1494,961.7L1689.5,990.93L1885,992.06" style="fill:none;stroke:#00FF00;stroke-width:4" />
<path d="M130.46,242A5,5 0 1 1 120.46,242A5,5 0 1 1 130.46,242Z" style="fill:#00FF00" />
<path d="M325.97,517.91A5,5 0 1 1 315.97,517.91A5,5 0 1 1 325.97,517.91Z" style="fill:#00FF00" />
<path d="M521.47,665.8A5,5 0 1 1 511.47,665.8A5,5 0 1 1 521.47,665.8Z" style="fill:#00FF00" />
<path d="M716.97,730.11A5,5 0 1 1 706.97,730.11A5,5 0 1 1 716.97,730.11Z" style="fill:#00FF00" />
<path d="M912.48,776.97A5,5 0 1 1 902.48,776.97A5,5 0 1 1 912.48,776.97Z" style="fill:#00FF00" />
<path d="M1108,907.65A5,5 0 1 1 1098,907.65A5,5 0 1 1 1108,907.65Z" style="fill:#00FF00" />
<path d="M1303.5,946.53A5,5 0 1 1 1293.5,946.53A5,5 0 1 1 1303.5,946.53Z" style="fill:#00FF00" />
<path d="M1499,961.7A5,5 0 1 1 1489,961.7A5,5 0 1 1 1499,961.7Z" style="fill:#00FF00" />
<path d="M1694.5,990.93A5,5 0 1 1 1684.5,990.93A5,5 0 1 1 1694.5,990.93Z" style="fill:#00FF00" />
<path d="M1890,992.06A5,5 0 1 1 1880,992.06A5,5 0 1 1 1890,992.06Z" style="fill:#00FF00" />
<path d="M125.46,80.11L320.97,322.98L516.47,477.72L711.97,598.69L907.48,647.87L1103,721.7L1298.5,759.26L1494,812.79L1689.5,867.8L1885,874.91" style="fill:none;stroke:#FF8000;stroke-width:4" />
<path d="M130.46,80.11A5,5 0 1 1 120.46,80.11A5,5 0 1 1 130.46,80.11Z" style="fill:#FF8000" />
<path d="M325.97,322.98A5,5 0 1 1 315.97,322.98A5,5 0 1 1 325.97,322.98Z" style="fill:#FF8000" />
<path d="M521.47,477.72A5,5 0 1 1 511.47,477.72A5,5 0 1 1 521.47,477.72Z" style="fill:#FF8000" />
<path d="M716.97,598.69A5,5 0 1 1 706.97,598.69A5,5 0 1 1 716.97,598.69Z" style="fill:#FF8000" />
<path d="M912.48,647.87A5,5 0 1 1 902.48,647.87A5,5 0 1 1 912.48,647.87Z" style="fill:#FF8000" />
<path d="M1108,721.7A5,5 0 1 1 1098,721.7A5,5 0 1 1 1108,721.7Z" style="fill:#FF8000" />
<path d="M1303.5,759.26A5,5 0 1 1 1293.5,759.26A5,5 0 1 1 1303.5,759.26Z" style="fill:#FF8000" />
<path d="M1499,812.79A5,5 0 1 1 1489,812.79A5,5 0 1 1 1499,812.79Z" style="fill:#FF8000" />
<path d="M1694.5,867.8A5,5 0 1 1 1684.5,867.8A5,5 0 1 1 1694.5,867.8Z" style="fill:#FF8000" />
<path d="M1890,874.91A5,5 0 1 1 1880,874.91A5,5 0 1 1 1890,874.91Z" style="fill:#FF8000" />
<path d="M1900,146.4L1920,146.4" style="fill:none;stroke:#FF0000;stroke-width:4" />
<path d="M1915,146.4A5,5 0 1 1 1905,146.4A5,5 0 1 1 1915,146.4Z" style="fill:#FF0000" />
<text x="1823.3" y="-141.42" transform="scale(1, -1)"
	style="font-family:Liberation Serif;font-variant:normal;font-weight:normal;font-style:normal;font-size:24px">std::list</text>
<path d="M1900,126.03L1920,126.03" style="fill:none;stroke:#0000FF;stroke-width:4" />
<path d="M1915,126.03A5,5 0 1 1 1905,126.03A5,5 0 1 1 1915,126.03Z" style="fill:#0000FF" />
<text x="1795.4" y="-121.05" transform="scale(1, -1)"
	style="font-family:Liberation Serif;font-variant:normal;font-weight:normal;font-style:normal;font-size:24px">std::deque</text>
<path d="M1900,105.66L1920,105.66" style="fill:none;stroke:#00FF00;stroke-width:4" />
<path d="M1915,105.66A5,5 0 1 1 1905,105.66A5,5 0 1 1 1915,105.66Z" style="fill:#00FF00" />
<text x="1792.7" y="-100.69" transform="scale(1, -1)"
	style="font-family:Liberation Serif;font-variant:normal;font-weight:normal;font-style:normal;font-size:24px">std::vector</text>
<path d="M1900,85.294L1920,85.294" style="fill:none;stroke:#FF8000;stroke-width:4" />
<path d="M1915,85.294A5,5 0 1 1 1905,85.294A5,5 0 1 1 1915,85.294Z" style="fill:#FF8000" />
<text x="1669.4" y="-80.319" transform="scale(1, -1)"
	style="font-family:Liberation Serif;font-variant:normal;font-weight:normal;font-style:normal;font-size:24px">preallocated std::vector</text>
</g>
</svg>
