<?xml version="1.0"?>
<!-- Generated by SVGo and Plotinum VG -->
<svg width="1920pt" height="1080pt" viewBox="0 0 1920 1080"
	xmlns="http://www.w3.org/2000/svg"
	xmlns:xlink="http://www.w3.org/1999/xlink">
<g transform="scale(1, -1) translate(0, -1080)">
<path d="M0,0L1920,0L1920,1080L0,1080Z" style="fill:#FFFFFF" />
<text x="735.77" y="-1040.9" transform="scale(1, -1)"
	style="font-family:Liberation Serif;font-variant:normal;font-weight:normal;font-style:normal;font-size:50px">push-back - Log Scale</text>
<text x="877.77" y="-9.7559" transform="scale(1, -1)"
	style="font-family:Liberation Serif;font-variant:normal;font-weight:normal;font-style:normal;font-size:30px">Number of elements</text>
<text x="85.462" y="-39.727" transform="scale(1, -1)"
	style="font-family:Liberation Serif;font-variant:normal;font-weight:normal;font-style:normal;font-size:20px">100000</text>
<text x="282.08" y="-39.727" transform="scale(1, -1)"
	style="font-family:Liberation Serif;font-variant:normal;font-weight:normal;font-style:normal;font-size:20px">200000</text>
<text x="478.69" y="-39.727" transform="scale(1, -1)"
	style="font-family:Liberation Serif;font-variant:normal;font-weight:normal;font-style:normal;font-size:20px">300000</text>
<text x="675.31" y="-39.727" transform="scale(1, -1)"
	style="font-family:Liberation Serif;font-variant:normal;font-weight:normal;font-style:normal;font-size:20px">400000</text>
<text x="871.92" y="-39.727" transform="scale(1, -1)"
	style="font-family:Liberation Serif;font-variant:normal;font-weight:normal;font-style:normal;font-size:20px">500000</text>
<text x="1068.5" y="-39.727" transform="scale(1, -1)"
	style="font-family:Liberation Serif;font-variant:normal;font-weight:normal;font-style:normal;font-size:20px">600000</text>
<text x="1265.2" y="-39.727" transform="scale(1, -1)"
	style="font-family:Liberation Serif;font-variant:normal;font-weight:normal;font-style:normal;font-size:20px">700000</text>
<text x="1461.8" y="-39.727" transform="scale(1, -1)"
	style="font-family:Liberation Serif;font-variant:normal;font-weight:normal;font-style:normal;font-size:20px">800000</text>
<text x="1658.4" y="-39.727" transform="scale(1, -1)"
	style="font-family:Liberation Serif;font-variant:normal;font-weight:normal;font-style:normal;font-size:20px">900000</text>
<text x="1850" y="-39.727" transform="scale(1, -1)"
	style="font-family:Liberation Serif;font-variant:normal;font-weight:normal;font-style:normal;font-size:20px">1000000</text>
<path d="M115.46,55.371L115.46,63.371" style="fill:none;stroke:#000000;stroke-width:0.5" />
<path d="M312.08,55.371L312.08,63.371" style="fill:none;stroke:#000000;stroke-width:0.5" />
<path d="M508.69,55.371L508.69,63.371" style="fill:none;stroke:#000000;stroke-width:0.5" />
<path d="M705.31,55.371L705.31,63.371" style="fill:none;stroke:#000000;stroke-width:0.5" />
<path d="M901.92,55.371L901.92,63.371" style="fill:none;stroke:#000000;stroke-width:0.5" />
<path d="M1098.5,55.371L1098.5,63.371" style="fill:none;stroke:#000000;stroke-width:0.5" />
<path d="M1295.2,55.371L1295.2,63.371" style="fill:none;stroke:#000000;stroke-width:0.5" />
<path d="M1491.8,55.371L1491.8,63.371" style="fill:none;stroke:#000000;stroke-width:0.5" />
<path d="M1688.4,55.371L1688.4,63.371" style="fill:none;stroke:#000000;stroke-width:0.5" />
<path d="M1885,55.371L1885,63.371" style="fill:none;stroke:#000000;stroke-width:0.5" />
<path d="M115.46,63.371L1885,63.371" style="fill:none;stroke:#000000;stroke-width:0.5" />
<g transform="rotate(90)">
<text x="485.87" y="23.467" transform="scale(1, -1)"
	style="font-family:Liberation Serif;font-variant:normal;font-weight:normal;font-style:normal;font-size:30px">log(μs + 1)</text>
</g>
<text x="39.712" y="-436.61" transform="scale(1, -1)"
	style="font-family:Liberation Serif;font-variant:normal;font-weight:normal;font-style:normal;font-size:20px">10000</text>
<text x="39.712" y="-830.71" transform="scale(1, -1)"
	style="font-family:Liberation Serif;font-variant:normal;font-weight:normal;font-style:normal;font-size:20px">40000</text>
<text x="39.712" y="-989.79" transform="scale(1, -1)"
	style="font-family:Liberation Serif;font-variant:normal;font-weight:normal;font-style:normal;font-size:20px">70000</text>
<path d="M94.712,441.18L102.71,441.18" style="fill:none;stroke:#000000;stroke-width:0.5" />
<path d="M94.712,835.28L102.71,835.28" style="fill:none;stroke:#000000;stroke-width:0.5" />
<path d="M94.712,994.36L102.71,994.36" style="fill:none;stroke:#000000;stroke-width:0.5" />
<path d="M98.712,638.23L102.71,638.23" style="fill:none;stroke:#000000;stroke-width:0.5" />
<path d="M98.712,753.49L102.71,753.49" style="fill:none;stroke:#000000;stroke-width:0.5" />
<path d="M98.712,898.71L102.71,898.71" style="fill:none;stroke:#000000;stroke-width:0.5" />
<path d="M98.712,950.54L102.71,950.54" style="fill:none;stroke:#000000;stroke-width:0.5" />
<path d="M102.71,80.11L102.71,1024.6" style="fill:none;stroke:#000000;stroke-width:0.5" />
<path d="M115.46,80.11L115.46,1024.6" style="fill:none;stroke:#808080;stroke-width:0.25" />
<path d="M312.08,80.11L312.08,1024.6" style="fill:none;stroke:#808080;stroke-width:0.25" />
<path d="M508.69,80.11L508.69,1024.6" style="fill:none;stroke:#808080;stroke-width:0.25" />
<path d="M705.31,80.11L705.31,1024.6" style="fill:none;stroke:#808080;stroke-width:0.25" />
<path d="M901.92,80.11L901.92,1024.6" style="fill:none;stroke:#808080;stroke-width:0.25" />
<path d="M1098.5,80.11L1098.5,1024.6" style="fill:none;stroke:#808080;stroke-width:0.25" />
<path d="M1295.2,80.11L1295.2,1024.6" style="fill:none;stroke:#808080;stroke-width:0.25" />
<path d="M1491.8,80.11L1491.8,1024.6" style="fill:none;stroke:#808080;stroke-width:0.25" />
<path d="M1688.4,80.11L1688.4,1024.6" style="fill:none;stroke:#808080;stroke-width:0.25" />
<path d="M1885,80.11L1885,1024.6" style="fill:none;stroke:#808080;stroke-width:0.25" />
<path d="M115.46,441.18L1885,441.18" style="fill:none;stroke:#808080;stroke-width:0.25" />
<path d="M115.46,835.28L1885,835.28" style="fill:none;stroke:#808080;stroke-width:0.25" />
<path d="M115.46,994.36L1885,994.36" style="fill:none;stroke:#808080;stroke-width:0.25" />
<path d="M115.46,327.8L312.08,427.64L508.69,591.83L705.31,638.38L901.92,690.67L1098.5,805.39L1295.2,844.35L1491.8,865.43L1688.4,899.55L1885,874.59" style="fill:none;stroke:#FF0000;stroke-width:4" />
<path d="M120.46,327.8A5,5 0 1 1 110.46,327.8A5,5 0 1 1 120.46,327.8Z" style="fill:#FF0000" />
<path d="M317.08,427.64A5,5 0 1 1 307.08,427.64A5,5 0 1 1 317.08,427.64Z" style="fill:#FF0000" />
<path d="M513.69,591.83A5,5 0 1 1 503.69,591.83A5,5 0 1 1 513.69,591.83Z" style="fill:#FF0000" />
<path d="M710.31,638.38A5,5 0 1 1 700.31,638.38A5,5 0 1 1 710.31,638.38Z" style="fill:#FF0000" />
<path d="M906.92,690.67A5,5 0 1 1 896.92,690.67A5,5 0 1 1 906.92,690.67Z" style="fill:#FF0000" />
<path d="M1103.5,805.39A5,5 0 1 1 1093.5,805.39A5,5 0 1 1 1103.5,805.39Z" style="fill:#FF0000" />
<path d="M1300.2,844.35A5,5 0 1 1 1290.2,844.35A5,5 0 1 1 1300.2,844.35Z" style="fill:#FF0000" />
<path d="M1496.8,865.43A5,5 0 1 1 1486.8,865.43A5,5 0 1 1 1496.8,865.43Z" style="fill:#FF0000" />
<path d="M1693.4,899.55A5,5 0 1 1 1683.4,899.55A5,5 0 1 1 1693.4,899.55Z" style="fill:#FF0000" />
<path d="M1890,874.59A5,5 0 1 1 1880,874.59A5,5 0 1 1 1890,874.59Z" style="fill:#FF0000" />
<path d="M115.46,80.11L312.08,297.33L508.69,381.98L705.31,447.75L901.92,569.56L1098.5,586.28L1295.2,621.38L1491.8,654.59L1688.4,740.97L1885,762" style="fill:none;stroke:#0000FF;stroke-width:4" />
<path d="M120.46,80.11A5,5 0 1 1 110.46,80.11A5,5 0 1 1 120.46,80.11Z" style="fill:#0000FF" />
<path d="M317.08,297.33A5,5 0 1 1 307.08,297.33A5,5 0 1 1 317.08,297.33Z" style="fill:#0000FF" />
<path d="M513.69,381.98A5,5 0 1 1 503.69,381.98A5,5 0 1 1 513.69,381.98Z" style="fill:#0000FF" />
<path d="M710.31,447.75A5,5 0 1 1 700.31,447.75A5,5 0 1 1 710.31,447.75Z" style="fill:#0000FF" />
<path d="M906.92,569.56A5,5 0 1 1 896.92,569.56A5,5 0 1 1 906.92,569.56Z" style="fill:#0000FF" />
<path d="M1103.5,586.28A5,5 0 1 1 1093.5,586.28A5,5 0 1 1 1103.5,586.28Z" style="fill:#0000FF" />
<path d="M1300.2,621.38A5,5 0 1 1 1290.2,621.38A5,5 0 1 1 1300.2,621.38Z" style="fill:#0000FF" />
<path d="M1496.8,654.59A5,5 0 1 1 1486.8,654.59A5,5 0 1 1 1496.8,654.59Z" style="fill:#0000FF" />
<path d="M1693.4,740.97A5,5 0 1 1 1683.4,740.97A5,5 0 1 1 1693.4,740.97Z" style="fill:#0000FF" />
<path d="M1890,762A5,5 0 1 1 1880,762A5,5 0 1 1 1890,762Z" style="fill:#0000FF" />
<path d="M115.46,368.46L312.08,526.83L508.69,682.65L705.31,747.99L901.92,828.72L1098.5,879.04L1295.2,905.88L1491.8,933.41L1688.4,949.72L1885,997.54" style="fill:none;stroke:#00FF00;stroke-width:4" />
<path d="M120.46,368.46A5,5 0 1 1 110.46,368.46A5,5 0 1 1 120.46,368.46Z" style="fill:#00FF00" />
<path d="M317.08,526.83A5,5 0 1 1 307.08,526.83A5,5 0 1 1 317.08,526.83Z" style="fill:#00FF00" />
<path d="M513.69,682.65A5,5 0 1 1 503.69,682.65A5,5 0 1 1 513.69,682.65Z" style="fill:#00FF00" />
<path d="M710.31,747.99A5,5 0 1 1 700.31,747.99A5,5 0 1 1 710.31,747.99Z" style="fill:#00FF00" />
<path d="M906.92,828.72A5,5 0 1 1 896.92,828.72A5,5 0 1 1 906.92,828.72Z" style="fill:#00FF00" />
<path d="M1103.5,879.04A5,5 0 1 1 1093.5,879.04A5,5 0 1 1 1103.5,879.04Z" style="fill:#00FF00" />
<path d="M1300.2,905.88A5,5 0 1 1 1290.2,905.88A5,5 0 1 1 1300.2,905.88Z" style="fill:#00FF00" />
<path d="M1496.8,933.41A5,5 0 1 1 1486.8,933.41A5,5 0 1 1 1496.8,933.41Z" style="fill:#00FF00" />
<path d="M1693.4,949.72A5,5 0 1 1 1683.4,949.72A5,5 0 1 1 1693.4,949.72Z" style="fill:#00FF00" />
<path d="M1890,997.54A5,5 0 1 1 1880,997.54A5,5 0 1 1 1890,997.54Z" style="fill:#00FF00" />
<path d="M115.46,243.05L312.08,332.38L508.69,448.12L705.31,541.3L901.92,566.37L1098.5,622.33L1295.2,672.32L1491.8,724.76L1688.4,751.86L1885,797.88" style="fill:none;stroke:#FF8000;stroke-width:4" />
<path d="M120.46,243.05A5,5 0 1 1 110.46,243.05A5,5 0 1 1 120.46,243.05Z" style="fill:#FF8000" />
<path d="M317.08,332.38A5,5 0 1 1 307.08,332.38A5,5 0 1 1 317.08,332.38Z" style="fill:#FF8000" />
<path d="M513.69,448.12A5,5 0 1 1 503.69,448.12A5,5 0 1 1 513.69,448.12Z" style="fill:#FF8000" />
<path d="M710.31,541.3A5,5 0 1 1 700.31,541.3A5,5 0 1 1 710.31,541.3Z" style="fill:#FF8000" />
<path d="M906.92,566.37A5,5 0 1 1 896.92,566.37A5,5 0 1 1 906.92,566.37Z" style="fill:#FF8000" />
<path d="M1103.5,622.33A5,5 0 1 1 1093.5,622.33A5,5 0 1 1 1103.5,622.33Z" style="fill:#FF8000" />
<path d="M1300.2,672.32A5,5 0 1 1 1290.2,672.32A5,5 0 1 1 1300.2,672.32Z" style="fill:#FF8000" />
<path d="M1496.8,724.76A5,5 0 1 1 1486.8,724.76A5,5 0 1 1 1496.8,724.76Z" style="fill:#FF8000" />
<path d="M1693.4,751.86A5,5 0 1 1 1683.4,751.86A5,5 0 1 1 1693.4,751.86Z" style="fill:#FF8000" />
<path d="M1890,797.88A5,5 0 1 1 1880,797.88A5,5 0 1 1 1890,797.88Z" style="fill:#FF8000" />
<path d="M1900,146.4L1920,146.4" style="fill:none;stroke:#FF0000;stroke-width:4" />
<path d="M1915,146.4A5,5 0 1 1 1905,146.4A5,5 0 1 1 1915,146.4Z" style="fill:#FF0000" />
<text x="1792.7" y="-141.42" transform="scale(1, -1)"
	style="font-family:Liberation Serif;font-variant:normal;font-weight:normal;font-style:normal;font-size:24px">std::vector</text>
<path d="M1900,126.03L1920,126.03" style="fill:none;stroke:#0000FF;stroke-width:4" />
<path d="M1915,126.03A5,5 0 1 1 1905,126.03A5,5 0 1 1 1915,126.03Z" style="fill:#0000FF" />
<text x="1669.4" y="-121.05" transform="scale(1, -1)"
	style="font-family:Liberation Serif;font-variant:normal;font-weight:normal;font-style:normal;font-size:24px">preallocated std::vector</text>
<path d="M1900,105.66L1920,105.66" style="fill:none;stroke:#00FF00;stroke-width:4" />
<path d="M1915,105.66A5,5 0 1 1 1905,105.66A5,5 0 1 1 1915,105.66Z" style="fill:#00FF00" />
<text x="1823.3" y="-100.69" transform="scale(1, -1)"
	style="font-family:Liberation Serif;font-variant:normal;font-weight:normal;font-style:normal;font-size:24px">std::list</text>
<path d="M1900,85.294L1920,85.294" style="fill:none;stroke:#FF8000;stroke-width:4" />
<path d="M1915,85.294A5,5 0 1 1 1905,85.294A5,5 0 1 1 1915,85.294Z" style="fill:#FF8000" />
<text x="1795.4" y="-80.319" transform="scale(1, -1)"
	style="font-family:Liberation Serif;font-variant:normal;font-weight:normal;font-style:normal;font-size:24px">std::deque</text>
</g>
</svg>
