<?xml version="1.0"?>
<!-- Generated by SVGo and Plotinum VG -->
<svg width="1920pt" height="1080pt" viewBox="0 0 1920 1080"
	xmlns="http://www.w3.org/2000/svg"
	xmlns:xlink="http://www.w3.org/1999/xlink">
<g transform="scale(1, -1) translate(0, -1080)">
<path d="M0,0L1920,0L1920,1080L0,1080Z" style="fill:#FFFFFF" />
<text x="857.25" y="-1040.9" transform="scale(1, -1)"
	style="font-family:Liberation Serif;font-variant:normal;font-weight:normal;font-style:normal;font-size:50px">push-back</text>
<text x="877.77" y="-9.7559" transform="scale(1, -1)"
	style="font-family:Liberation Serif;font-variant:normal;font-weight:normal;font-style:normal;font-size:30px">Number of elements</text>
<text x="85.462" y="-39.727" transform="scale(1, -1)"
	style="font-family:Liberation Serif;font-variant:normal;font-weight:normal;font-style:normal;font-size:20px">100000</text>
<text x="282.08" y="-39.727" transform="scale(1, -1)"
	style="font-family:Liberation Serif;font-variant:normal;font-weight:normal;font-style:normal;font-size:20px">200000</text>
<text x="478.69" y="-39.727" transform="scale(1, -1)"
	style="font-family:Liberation Serif;font-variant:normal;font-weight:normal;font-style:normal;font-size:20px">300000</text>
<text x="675.31" y="-39.727" transform="scale(1, -1)"
	style="font-family:Liberation Serif;font-variant:normal;font-weight:normal;font-style:normal;font-size:20px">400000</text>
<text x="871.92" y="-39.727" transform="scale(1, -1)"
	style="font-family:Liberation Serif;font-variant:normal;font-weight:normal;font-style:normal;font-size:20px">500000</text>
<text x="1068.5" y="-39.727" transform="scale(1, -1)"
	style="font-family:Liberation Serif;font-variant:normal;font-weight:normal;font-style:normal;font-size:20px">600000</text>
<text x="1265.2" y="-39.727" transform="scale(1, -1)"
	style="font-family:Liberation Serif;font-variant:normal;font-weight:normal;font-style:normal;font-size:20px">700000</text>
<text x="1461.8" y="-39.727" transform="scale(1, -1)"
	style="font-family:Liberation Serif;font-variant:normal;font-weight:normal;font-style:normal;font-size:20px">800000</text>
<text x="1658.4" y="-39.727" transform="scale(1, -1)"
	style="font-family:Liberation Serif;font-variant:normal;font-weight:normal;font-style:normal;font-size:20px">900000</text>
<text x="1850" y="-39.727" transform="scale(1, -1)"
	style="font-family:Liberation Serif;font-variant:normal;font-weight:normal;font-style:normal;font-size:20px">1000000</text>
<path d="M115.46,55.371L115.46,63.371" style="fill:none;stroke:#000000;stroke-width:0.5" />
<path d="M312.08,55.371L312.08,63.371" style="fill:none;stroke:#000000;stroke-width:0.5" />
<path d="M508.69,55.371L508.69,63.371" style="fill:none;stroke:#000000;stroke-width:0.5" />
<path d="M705.31,55.371L705.31,63.371" style="fill:none;stroke:#000000;stroke-width:0.5" />
<path d="M901.92,55.371L901.92,63.371" style="fill:none;stroke:#000000;stroke-width:0.5" />
<path d="M1098.5,55.371L1098.5,63.371" style="fill:none;stroke:#000000;stroke-width:0.5" />
<path d="M1295.2,55.371L1295.2,63.371" style="fill:none;stroke:#000000;stroke-width:0.5" />
<path d="M1491.8,55.371L1491.8,63.371" style="fill:none;stroke:#000000;stroke-width:0.5" />
<path d="M1688.4,55.371L1688.4,63.371" style="fill:none;stroke:#000000;stroke-width:0.5" />
<path d="M1885,55.371L1885,63.371" style="fill:none;stroke:#000000;stroke-width:0.5" />
<path d="M115.46,63.371L1885,63.371" style="fill:none;stroke:#000000;stroke-width:0.5" />
<g transform="rotate(90)">
<text x="538.49" y="23.467" transform="scale(1, -1)"
	style="font-family:Liberation Serif;font-variant:normal;font-weight:normal;font-style:normal;font-size:30px">μs</text>
</g>
<text x="39.712" y="-166.06" transform="scale(1, -1)"
	style="font-family:Liberation Serif;font-variant:normal;font-weight:normal;font-style:normal;font-size:20px">10000</text>
<text x="39.712" y="-543.58" transform="scale(1, -1)"
	style="font-family:Liberation Serif;font-variant:normal;font-weight:normal;font-style:normal;font-size:20px">40000</text>
<text x="39.712" y="-921.1" transform="scale(1, -1)"
	style="font-family:Liberation Serif;font-variant:normal;font-weight:normal;font-style:normal;font-size:20px">70000</text>
<path d="M94.712,170.63L102.71,170.63" style="fill:none;stroke:#000000;stroke-width:0.5" />
<path d="M94.712,548.15L102.71,548.15" style="fill:none;stroke:#000000;stroke-width:0.5" />
<path d="M94.712,925.67L102.71,925.67" style="fill:none;stroke:#000000;stroke-width:0.5" />
<path d="M98.712,296.47L102.71,296.47" style="fill:none;stroke:#000000;stroke-width:0.5" />
<path d="M98.712,422.31L102.71,422.31" style="fill:none;stroke:#000000;stroke-width:0.5" />
<path d="M98.712,673.99L102.71,673.99" style="fill:none;stroke:#000000;stroke-width:0.5" />
<path d="M98.712,799.83L102.71,799.83" style="fill:none;stroke:#000000;stroke-width:0.5" />
<path d="M102.71,80.11L102.71,1024.6" style="fill:none;stroke:#000000;stroke-width:0.5" />
<path d="M115.46,80.11L115.46,1024.6" style="fill:none;stroke:#808080;stroke-width:0.25" />
<path d="M312.08,80.11L312.08,1024.6" style="fill:none;stroke:#808080;stroke-width:0.25" />
<path d="M508.69,80.11L508.69,1024.6" style="fill:none;stroke:#808080;stroke-width:0.25" />
<path d="M705.31,80.11L705.31,1024.6" style="fill:none;stroke:#808080;stroke-width:0.25" />
<path d="M901.92,80.11L901.92,1024.6" style="fill:none;stroke:#808080;stroke-width:0.25" />
<path d="M1098.5,80.11L1098.5,1024.6" style="fill:none;stroke:#808080;stroke-width:0.25" />
<path d="M1295.2,80.11L1295.2,1024.6" style="fill:none;stroke:#808080;stroke-width:0.25" />
<path d="M1491.8,80.11L1491.8,1024.6" style="fill:none;stroke:#808080;stroke-width:0.25" />
<path d="M1688.4,80.11L1688.4,1024.6" style="fill:none;stroke:#808080;stroke-width:0.25" />
<path d="M1885,80.11L1885,1024.6" style="fill:none;stroke:#808080;stroke-width:0.25" />
<path d="M115.46,170.63L1885,170.63" style="fill:none;stroke:#808080;stroke-width:0.25" />
<path d="M115.46,548.15L1885,548.15" style="fill:none;stroke:#808080;stroke-width:0.25" />
<path d="M115.46,925.67L1885,925.67" style="fill:none;stroke:#808080;stroke-width:0.25" />
<path d="M115.46,129.23L312.08,164.76L508.69,258.55L705.31,296.59L901.92,347.45L1098.5,497.9L1295.2,564.47L1491.8,604.46L1688.4,675.83L1885,622.8" style="fill:none;stroke:#FF0000;stroke-width:4" />
<path d="M120.46,129.23A5,5 0 1 1 110.46,129.23A5,5 0 1 1 120.46,129.23Z" style="fill:#FF0000" />
<path d="M317.08,164.76A5,5 0 1 1 307.08,164.76A5,5 0 1 1 317.08,164.76Z" style="fill:#FF0000" />
<path d="M513.69,258.55A5,5 0 1 1 503.69,258.55A5,5 0 1 1 513.69,258.55Z" style="fill:#FF0000" />
<path d="M710.31,296.59A5,5 0 1 1 700.31,296.59A5,5 0 1 1 710.31,296.59Z" style="fill:#FF0000" />
<path d="M906.92,347.45A5,5 0 1 1 896.92,347.45A5,5 0 1 1 906.92,347.45Z" style="fill:#FF0000" />
<path d="M1103.5,497.9A5,5 0 1 1 1093.5,497.9A5,5 0 1 1 1103.5,497.9Z" style="fill:#FF0000" />
<path d="M1300.2,564.47A5,5 0 1 1 1290.2,564.47A5,5 0 1 1 1300.2,564.47Z" style="fill:#FF0000" />
<path d="M1496.8,604.46A5,5 0 1 1 1486.8,604.46A5,5 0 1 1 1496.8,604.46Z" style="fill:#FF0000" />
<path d="M1693.4,675.83A5,5 0 1 1 1683.4,675.83A5,5 0 1 1 1693.4,675.83Z" style="fill:#FF0000" />
<path d="M1890,622.8A5,5 0 1 1 1880,622.8A5,5 0 1 1 1890,622.8Z" style="fill:#FF0000" />
<path d="M115.46,80.11L312.08,120.64L508.69,146.96L705.31,173.56L901.92,242.45L1098.5,254.43L1295.2,281.97L1491.8,311.37L1688.4,406.03L1885,433.76" style="fill:none;stroke:#0000FF;stroke-width:4" />
<path d="M120.46,80.11A5,5 0 1 1 110.46,80.11A5,5 0 1 1 120.46,80.11Z" style="fill:#0000FF" />
<path d="M317.08,120.64A5,5 0 1 1 307.08,120.64A5,5 0 1 1 317.08,120.64Z" style="fill:#0000FF" />
<path d="M513.69,146.96A5,5 0 1 1 503.69,146.96A5,5 0 1 1 513.69,146.96Z" style="fill:#0000FF" />
<path d="M710.31,173.56A5,5 0 1 1 700.31,173.56A5,5 0 1 1 710.31,173.56Z" style="fill:#0000FF" />
<path d="M906.92,242.45A5,5 0 1 1 896.92,242.45A5,5 0 1 1 906.92,242.45Z" style="fill:#0000FF" />
<path d="M1103.5,254.43A5,5 0 1 1 1093.5,254.43A5,5 0 1 1 1103.5,254.43Z" style="fill:#0000FF" />
<path d="M1300.2,281.97A5,5 0 1 1 1290.2,281.97A5,5 0 1 1 1300.2,281.97Z" style="fill:#0000FF" />
<path d="M1496.8,311.37A5,5 0 1 1 1486.8,311.37A5,5 0 1 1 1496.8,311.37Z" style="fill:#0000FF" />
<path d="M1693.4,406.03A5,5 0 1 1 1683.4,406.03A5,5 0 1 1 1693.4,406.03Z" style="fill:#0000FF" />
<path d="M1890,433.76A5,5 0 1 1 1880,433.76A5,5 0 1 1 1890,433.76Z" style="fill:#0000FF" />
<path d="M115.46,142.21L312.08,214.86L508.69,339.03L705.31,415.06L901.92,536.66L1098.5,631.91L1295.2,690.05L1491.8,755.66L1688.4,797.63L1885,935.55" style="fill:none;stroke:#00FF00;stroke-width:4" />
<path d="M120.46,142.21A5,5 0 1 1 110.46,142.21A5,5 0 1 1 120.46,142.21Z" style="fill:#00FF00" />
<path d="M317.08,214.86A5,5 0 1 1 307.08,214.86A5,5 0 1 1 317.08,214.86Z" style="fill:#00FF00" />
<path d="M513.69,339.03A5,5 0 1 1 503.69,339.03A5,5 0 1 1 513.69,339.03Z" style="fill:#00FF00" />
<path d="M710.31,415.06A5,5 0 1 1 700.31,415.06A5,5 0 1 1 710.31,415.06Z" style="fill:#00FF00" />
<path d="M906.92,536.66A5,5 0 1 1 896.92,536.66A5,5 0 1 1 906.92,536.66Z" style="fill:#00FF00" />
<path d="M1103.5,631.91A5,5 0 1 1 1093.5,631.91A5,5 0 1 1 1103.5,631.91Z" style="fill:#00FF00" />
<path d="M1300.2,690.05A5,5 0 1 1 1290.2,690.05A5,5 0 1 1 1300.2,690.05Z" style="fill:#00FF00" />
<path d="M1496.8,755.66A5,5 0 1 1 1486.8,755.66A5,5 0 1 1 1496.8,755.66Z" style="fill:#00FF00" />
<path d="M1693.4,797.63A5,5 0 1 1 1683.4,797.63A5,5 0 1 1 1693.4,797.63Z" style="fill:#00FF00" />
<path d="M1890,935.55A5,5 0 1 1 1880,935.55A5,5 0 1 1 1890,935.55Z" style="fill:#00FF00" />
<path d="M115.46,107.46L312.08,130.6L508.69,173.72L705.31,223.75L901.92,240.24L1098.5,282.76L1295.2,328.52L1491.8,386L1688.4,420.13L1885,486.09" style="fill:none;stroke:#FF8000;stroke-width:4" />
<path d="M120.46,107.46A5,5 0 1 1 110.46,107.46A5,5 0 1 1 120.46,107.46Z" style="fill:#FF8000" />
<path d="M317.08,130.6A5,5 0 1 1 307.08,130.6A5,5 0 1 1 317.08,130.6Z" style="fill:#FF8000" />
<path d="M513.69,173.72A5,5 0 1 1 503.69,173.72A5,5 0 1 1 513.69,173.72Z" style="fill:#FF8000" />
<path d="M710.31,223.75A5,5 0 1 1 700.31,223.75A5,5 0 1 1 710.31,223.75Z" style="fill:#FF8000" />
<path d="M906.92,240.24A5,5 0 1 1 896.92,240.24A5,5 0 1 1 906.92,240.24Z" style="fill:#FF8000" />
<path d="M1103.5,282.76A5,5 0 1 1 1093.5,282.76A5,5 0 1 1 1103.5,282.76Z" style="fill:#FF8000" />
<path d="M1300.2,328.52A5,5 0 1 1 1290.2,328.52A5,5 0 1 1 1300.2,328.52Z" style="fill:#FF8000" />
<path d="M1496.8,386A5,5 0 1 1 1486.8,386A5,5 0 1 1 1496.8,386Z" style="fill:#FF8000" />
<path d="M1693.4,420.13A5,5 0 1 1 1683.4,420.13A5,5 0 1 1 1693.4,420.13Z" style="fill:#FF8000" />
<path d="M1890,486.09A5,5 0 1 1 1880,486.09A5,5 0 1 1 1890,486.09Z" style="fill:#FF8000" />
<path d="M1900,146.4L1920,146.4" style="fill:none;stroke:#FF0000;stroke-width:4" />
<path d="M1915,146.4A5,5 0 1 1 1905,146.4A5,5 0 1 1 1915,146.4Z" style="fill:#FF0000" />
<text x="1792.7" y="-141.42" transform="scale(1, -1)"
	style="font-family:Liberation Serif;font-variant:normal;font-weight:normal;font-style:normal;font-size:24px">std::vector</text>
<path d="M1900,126.03L1920,126.03" style="fill:none;stroke:#0000FF;stroke-width:4" />
<path d="M1915,126.03A5,5 0 1 1 1905,126.03A5,5 0 1 1 1915,126.03Z" style="fill:#0000FF" />
<text x="1669.4" y="-121.05" transform="scale(1, -1)"
	style="font-family:Liberation Serif;font-variant:normal;font-weight:normal;font-style:normal;font-size:24px">preallocated std::vector</text>
<path d="M1900,105.66L1920,105.66" style="fill:none;stroke:#00FF00;stroke-width:4" />
<path d="M1915,105.66A5,5 0 1 1 1905,105.66A5,5 0 1 1 1915,105.66Z" style="fill:#00FF00" />
<text x="1823.3" y="-100.69" transform="scale(1, -1)"
	style="font-family:Liberation Serif;font-variant:normal;font-weight:normal;font-style:normal;font-size:24px">std::list</text>
<path d="M1900,85.294L1920,85.294" style="fill:none;stroke:#FF8000;stroke-width:4" />
<path d="M1915,85.294A5,5 0 1 1 1905,85.294A5,5 0 1 1 1915,85.294Z" style="fill:#FF8000" />
<text x="1795.4" y="-80.319" transform="scale(1, -1)"
	style="font-family:Liberation Serif;font-variant:normal;font-weight:normal;font-style:normal;font-size:24px">std::deque</text>
</g>
</svg>
