<?xml version="1.0"?>
<!-- Generated by SVGo and Plotinum VG -->
<svg width="1920pt" height="1080pt" viewBox="0 0 1920 1080"
	xmlns="http://www.w3.org/2000/svg"
	xmlns:xlink="http://www.w3.org/1999/xlink">
<g transform="scale(1, -1) translate(0, -1080)">
<path d="M0,0L1920,0L1920,1080L0,1080Z" style="fill:#FFFFFF" />
<text x="857.25" y="-1040.9" transform="scale(1, -1)"
	style="font-family:Liberation Serif;font-variant:normal;font-weight:normal;font-style:normal;font-size:50px">push-back</text>
<text x="882.77" y="-9.7559" transform="scale(1, -1)"
	style="font-family:Liberation Serif;font-variant:normal;font-weight:normal;font-style:normal;font-size:30px">Number of elements</text>
<text x="95.462" y="-39.727" transform="scale(1, -1)"
	style="font-family:Liberation Serif;font-variant:normal;font-weight:normal;font-style:normal;font-size:20px">100000</text>
<text x="290.97" y="-39.727" transform="scale(1, -1)"
	style="font-family:Liberation Serif;font-variant:normal;font-weight:normal;font-style:normal;font-size:20px">200000</text>
<text x="486.47" y="-39.727" transform="scale(1, -1)"
	style="font-family:Liberation Serif;font-variant:normal;font-weight:normal;font-style:normal;font-size:20px">300000</text>
<text x="681.97" y="-39.727" transform="scale(1, -1)"
	style="font-family:Liberation Serif;font-variant:normal;font-weight:normal;font-style:normal;font-size:20px">400000</text>
<text x="877.48" y="-39.727" transform="scale(1, -1)"
	style="font-family:Liberation Serif;font-variant:normal;font-weight:normal;font-style:normal;font-size:20px">500000</text>
<text x="1073" y="-39.727" transform="scale(1, -1)"
	style="font-family:Liberation Serif;font-variant:normal;font-weight:normal;font-style:normal;font-size:20px">600000</text>
<text x="1268.5" y="-39.727" transform="scale(1, -1)"
	style="font-family:Liberation Serif;font-variant:normal;font-weight:normal;font-style:normal;font-size:20px">700000</text>
<text x="1464" y="-39.727" transform="scale(1, -1)"
	style="font-family:Liberation Serif;font-variant:normal;font-weight:normal;font-style:normal;font-size:20px">800000</text>
<text x="1659.5" y="-39.727" transform="scale(1, -1)"
	style="font-family:Liberation Serif;font-variant:normal;font-weight:normal;font-style:normal;font-size:20px">900000</text>
<text x="1850" y="-39.727" transform="scale(1, -1)"
	style="font-family:Liberation Serif;font-variant:normal;font-weight:normal;font-style:normal;font-size:20px">1000000</text>
<path d="M125.46,55.371L125.46,63.371" style="fill:none;stroke:#000000;stroke-width:0.5" />
<path d="M320.97,55.371L320.97,63.371" style="fill:none;stroke:#000000;stroke-width:0.5" />
<path d="M516.47,55.371L516.47,63.371" style="fill:none;stroke:#000000;stroke-width:0.5" />
<path d="M711.97,55.371L711.97,63.371" style="fill:none;stroke:#000000;stroke-width:0.5" />
<path d="M907.48,55.371L907.48,63.371" style="fill:none;stroke:#000000;stroke-width:0.5" />
<path d="M1103,55.371L1103,63.371" style="fill:none;stroke:#000000;stroke-width:0.5" />
<path d="M1298.5,55.371L1298.5,63.371" style="fill:none;stroke:#000000;stroke-width:0.5" />
<path d="M1494,55.371L1494,63.371" style="fill:none;stroke:#000000;stroke-width:0.5" />
<path d="M1689.5,55.371L1689.5,63.371" style="fill:none;stroke:#000000;stroke-width:0.5" />
<path d="M1885,55.371L1885,63.371" style="fill:none;stroke:#000000;stroke-width:0.5" />
<path d="M125.46,63.371L1885,63.371" style="fill:none;stroke:#000000;stroke-width:0.5" />
<g transform="rotate(90)">
<text x="538.49" y="23.467" transform="scale(1, -1)"
	style="font-family:Liberation Serif;font-variant:normal;font-weight:normal;font-style:normal;font-size:30px">μs</text>
</g>
<text x="39.712" y="-244.37" transform="scale(1, -1)"
	style="font-family:Liberation Serif;font-variant:normal;font-weight:normal;font-style:normal;font-size:20px">100000</text>
<text x="39.712" y="-471.12" transform="scale(1, -1)"
	style="font-family:Liberation Serif;font-variant:normal;font-weight:normal;font-style:normal;font-size:20px">200000</text>
<text x="39.712" y="-697.88" transform="scale(1, -1)"
	style="font-family:Liberation Serif;font-variant:normal;font-weight:normal;font-style:normal;font-size:20px">300000</text>
<text x="39.712" y="-924.63" transform="scale(1, -1)"
	style="font-family:Liberation Serif;font-variant:normal;font-weight:normal;font-style:normal;font-size:20px">400000</text>
<path d="M104.71,248.94L112.71,248.94" style="fill:none;stroke:#000000;stroke-width:0.5" />
<path d="M104.71,475.69L112.71,475.69" style="fill:none;stroke:#000000;stroke-width:0.5" />
<path d="M104.71,702.45L112.71,702.45" style="fill:none;stroke:#000000;stroke-width:0.5" />
<path d="M104.71,929.2L112.71,929.2" style="fill:none;stroke:#000000;stroke-width:0.5" />
<path d="M108.71,112.89L112.71,112.89" style="fill:none;stroke:#000000;stroke-width:0.5" />
<path d="M108.71,158.24L112.71,158.24" style="fill:none;stroke:#000000;stroke-width:0.5" />
<path d="M108.71,203.59L112.71,203.59" style="fill:none;stroke:#000000;stroke-width:0.5" />
<path d="M108.71,294.29L112.71,294.29" style="fill:none;stroke:#000000;stroke-width:0.5" />
<path d="M108.71,339.64L112.71,339.64" style="fill:none;stroke:#000000;stroke-width:0.5" />
<path d="M108.71,384.99L112.71,384.99" style="fill:none;stroke:#000000;stroke-width:0.5" />
<path d="M108.71,430.34L112.71,430.34" style="fill:none;stroke:#000000;stroke-width:0.5" />
<path d="M108.71,521.04L112.71,521.04" style="fill:none;stroke:#000000;stroke-width:0.5" />
<path d="M108.71,566.4L112.71,566.4" style="fill:none;stroke:#000000;stroke-width:0.5" />
<path d="M108.71,611.75L112.71,611.75" style="fill:none;stroke:#000000;stroke-width:0.5" />
<path d="M108.71,657.1L112.71,657.1" style="fill:none;stroke:#000000;stroke-width:0.5" />
<path d="M108.71,747.8L112.71,747.8" style="fill:none;stroke:#000000;stroke-width:0.5" />
<path d="M108.71,793.15L112.71,793.15" style="fill:none;stroke:#000000;stroke-width:0.5" />
<path d="M108.71,838.5L112.71,838.5" style="fill:none;stroke:#000000;stroke-width:0.5" />
<path d="M108.71,883.85L112.71,883.85" style="fill:none;stroke:#000000;stroke-width:0.5" />
<path d="M108.71,974.55L112.71,974.55" style="fill:none;stroke:#000000;stroke-width:0.5" />
<path d="M108.71,1019.9L112.71,1019.9" style="fill:none;stroke:#000000;stroke-width:0.5" />
<path d="M112.71,80.11L112.71,1024.6" style="fill:none;stroke:#000000;stroke-width:0.5" />
<path d="M125.46,80.11L125.46,1024.6" style="fill:none;stroke:#808080;stroke-width:0.25" />
<path d="M320.97,80.11L320.97,1024.6" style="fill:none;stroke:#808080;stroke-width:0.25" />
<path d="M516.47,80.11L516.47,1024.6" style="fill:none;stroke:#808080;stroke-width:0.25" />
<path d="M711.97,80.11L711.97,1024.6" style="fill:none;stroke:#808080;stroke-width:0.25" />
<path d="M907.48,80.11L907.48,1024.6" style="fill:none;stroke:#808080;stroke-width:0.25" />
<path d="M1103,80.11L1103,1024.6" style="fill:none;stroke:#808080;stroke-width:0.25" />
<path d="M1298.5,80.11L1298.5,1024.6" style="fill:none;stroke:#808080;stroke-width:0.25" />
<path d="M1494,80.11L1494,1024.6" style="fill:none;stroke:#808080;stroke-width:0.25" />
<path d="M1689.5,80.11L1689.5,1024.6" style="fill:none;stroke:#808080;stroke-width:0.25" />
<path d="M1885,80.11L1885,1024.6" style="fill:none;stroke:#808080;stroke-width:0.25" />
<path d="M125.46,248.94L1885,248.94" style="fill:none;stroke:#808080;stroke-width:0.25" />
<path d="M125.46,475.69L1885,475.69" style="fill:none;stroke:#808080;stroke-width:0.25" />
<path d="M125.46,702.45L1885,702.45" style="fill:none;stroke:#808080;stroke-width:0.25" />
<path d="M125.46,929.2L1885,929.2" style="fill:none;stroke:#808080;stroke-width:0.25" />
<path d="M125.46,80.11L320.97,122.62L516.47,168.19L711.97,235.29L907.48,262.07L1103,321.28L1298.5,412.48L1494,444.05L1689.5,476.27L1885,555.36" style="fill:none;stroke:#FF0000;stroke-width:4" />
<path d="M130.46,80.11A5,5 0 1 1 120.46,80.11A5,5 0 1 1 130.46,80.11Z" style="fill:#FF0000" />
<path d="M325.97,122.62A5,5 0 1 1 315.97,122.62A5,5 0 1 1 325.97,122.62Z" style="fill:#FF0000" />
<path d="M521.47,168.19A5,5 0 1 1 511.47,168.19A5,5 0 1 1 521.47,168.19Z" style="fill:#FF0000" />
<path d="M716.97,235.29A5,5 0 1 1 706.97,235.29A5,5 0 1 1 716.97,235.29Z" style="fill:#FF0000" />
<path d="M912.48,262.07A5,5 0 1 1 902.48,262.07A5,5 0 1 1 912.48,262.07Z" style="fill:#FF0000" />
<path d="M1108,321.28A5,5 0 1 1 1098,321.28A5,5 0 1 1 1108,321.28Z" style="fill:#FF0000" />
<path d="M1303.5,412.48A5,5 0 1 1 1293.5,412.48A5,5 0 1 1 1303.5,412.48Z" style="fill:#FF0000" />
<path d="M1499,444.05A5,5 0 1 1 1489,444.05A5,5 0 1 1 1499,444.05Z" style="fill:#FF0000" />
<path d="M1694.5,476.27A5,5 0 1 1 1684.5,476.27A5,5 0 1 1 1694.5,476.27Z" style="fill:#FF0000" />
<path d="M1890,555.36A5,5 0 1 1 1880,555.36A5,5 0 1 1 1890,555.36Z" style="fill:#FF0000" />
<path d="M125.46,96.686L320.97,198L516.47,268.65L711.97,326.75L907.48,403.03L1103,423.4L1298.5,481.7L1494,521.28L1689.5,623.43L1885,635.11" style="fill:none;stroke:#0000FF;stroke-width:4" />
<path d="M130.46,96.686A5,5 0 1 1 120.46,96.686A5,5 0 1 1 130.46,96.686Z" style="fill:#0000FF" />
<path d="M325.97,198A5,5 0 1 1 315.97,198A5,5 0 1 1 325.97,198Z" style="fill:#0000FF" />
<path d="M521.47,268.65A5,5 0 1 1 511.47,268.65A5,5 0 1 1 521.47,268.65Z" style="fill:#0000FF" />
<path d="M716.97,326.75A5,5 0 1 1 706.97,326.75A5,5 0 1 1 716.97,326.75Z" style="fill:#0000FF" />
<path d="M912.48,403.03A5,5 0 1 1 902.48,403.03A5,5 0 1 1 912.48,403.03Z" style="fill:#0000FF" />
<path d="M1108,423.4A5,5 0 1 1 1098,423.4A5,5 0 1 1 1108,423.4Z" style="fill:#0000FF" />
<path d="M1303.5,481.7A5,5 0 1 1 1293.5,481.7A5,5 0 1 1 1303.5,481.7Z" style="fill:#0000FF" />
<path d="M1499,521.28A5,5 0 1 1 1489,521.28A5,5 0 1 1 1499,521.28Z" style="fill:#0000FF" />
<path d="M1694.5,623.43A5,5 0 1 1 1684.5,623.43A5,5 0 1 1 1694.5,623.43Z" style="fill:#0000FF" />
<path d="M1890,635.11A5,5 0 1 1 1880,635.11A5,5 0 1 1 1890,635.11Z" style="fill:#0000FF" />
<path d="M125.46,103.63L320.97,129.79L516.47,172.91L711.97,239.97L907.48,274.53L1103,326.25L1298.5,400.27L1494,426.14L1689.5,470.5L1885,550.94" style="fill:none;stroke:#00FF00;stroke-width:4" />
<path d="M130.46,103.63A5,5 0 1 1 120.46,103.63A5,5 0 1 1 130.46,103.63Z" style="fill:#00FF00" />
<path d="M325.97,129.79A5,5 0 1 1 315.97,129.79A5,5 0 1 1 325.97,129.79Z" style="fill:#00FF00" />
<path d="M521.47,172.91A5,5 0 1 1 511.47,172.91A5,5 0 1 1 521.47,172.91Z" style="fill:#00FF00" />
<path d="M716.97,239.97A5,5 0 1 1 706.97,239.97A5,5 0 1 1 716.97,239.97Z" style="fill:#00FF00" />
<path d="M912.48,274.53A5,5 0 1 1 902.48,274.53A5,5 0 1 1 912.48,274.53Z" style="fill:#00FF00" />
<path d="M1108,326.25A5,5 0 1 1 1098,326.25A5,5 0 1 1 1108,326.25Z" style="fill:#00FF00" />
<path d="M1303.5,400.27A5,5 0 1 1 1293.5,400.27A5,5 0 1 1 1303.5,400.27Z" style="fill:#00FF00" />
<path d="M1499,426.14A5,5 0 1 1 1489,426.14A5,5 0 1 1 1499,426.14Z" style="fill:#00FF00" />
<path d="M1694.5,470.5A5,5 0 1 1 1684.5,470.5A5,5 0 1 1 1694.5,470.5Z" style="fill:#00FF00" />
<path d="M1890,550.94A5,5 0 1 1 1880,550.94A5,5 0 1 1 1890,550.94Z" style="fill:#00FF00" />
<path d="M125.46,116.81L320.97,197.18L516.47,350.19L711.97,387.7L907.48,464.19L1103,652.68L1298.5,730.64L1494,766.15L1689.5,841.89L1885,933.5" style="fill:none;stroke:#FF8000;stroke-width:4" />
<path d="M130.46,116.81A5,5 0 1 1 120.46,116.81A5,5 0 1 1 130.46,116.81Z" style="fill:#FF8000" />
<path d="M325.97,197.18A5,5 0 1 1 315.97,197.18A5,5 0 1 1 325.97,197.18Z" style="fill:#FF8000" />
<path d="M521.47,350.19A5,5 0 1 1 511.47,350.19A5,5 0 1 1 521.47,350.19Z" style="fill:#FF8000" />
<path d="M716.97,387.7A5,5 0 1 1 706.97,387.7A5,5 0 1 1 716.97,387.7Z" style="fill:#FF8000" />
<path d="M912.48,464.19A5,5 0 1 1 902.48,464.19A5,5 0 1 1 912.48,464.19Z" style="fill:#FF8000" />
<path d="M1108,652.68A5,5 0 1 1 1098,652.68A5,5 0 1 1 1108,652.68Z" style="fill:#FF8000" />
<path d="M1303.5,730.64A5,5 0 1 1 1293.5,730.64A5,5 0 1 1 1303.5,730.64Z" style="fill:#FF8000" />
<path d="M1499,766.15A5,5 0 1 1 1489,766.15A5,5 0 1 1 1499,766.15Z" style="fill:#FF8000" />
<path d="M1694.5,841.89A5,5 0 1 1 1684.5,841.89A5,5 0 1 1 1694.5,841.89Z" style="fill:#FF8000" />
<path d="M1890,933.5A5,5 0 1 1 1880,933.5A5,5 0 1 1 1890,933.5Z" style="fill:#FF8000" />
<path d="M1900,146.4L1920,146.4" style="fill:none;stroke:#FF0000;stroke-width:4" />
<path d="M1915,146.4A5,5 0 1 1 1905,146.4A5,5 0 1 1 1915,146.4Z" style="fill:#FF0000" />
<text x="1669.4" y="-141.42" transform="scale(1, -1)"
	style="font-family:Liberation Serif;font-variant:normal;font-weight:normal;font-style:normal;font-size:24px">preallocated std::vector</text>
<path d="M1900,126.03L1920,126.03" style="fill:none;stroke:#0000FF;stroke-width:4" />
<path d="M1915,126.03A5,5 0 1 1 1905,126.03A5,5 0 1 1 1915,126.03Z" style="fill:#0000FF" />
<text x="1823.3" y="-121.05" transform="scale(1, -1)"
	style="font-family:Liberation Serif;font-variant:normal;font-weight:normal;font-style:normal;font-size:24px">std::list</text>
<path d="M1900,105.66L1920,105.66" style="fill:none;stroke:#00FF00;stroke-width:4" />
<path d="M1915,105.66A5,5 0 1 1 1905,105.66A5,5 0 1 1 1915,105.66Z" style="fill:#00FF00" />
<text x="1795.4" y="-100.69" transform="scale(1, -1)"
	style="font-family:Liberation Serif;font-variant:normal;font-weight:normal;font-style:normal;font-size:24px">std::deque</text>
<path d="M1900,85.294L1920,85.294" style="fill:none;stroke:#FF8000;stroke-width:4" />
<path d="M1915,85.294A5,5 0 1 1 1905,85.294A5,5 0 1 1 1915,85.294Z" style="fill:#FF8000" />
<text x="1792.7" y="-80.319" transform="scale(1, -1)"
	style="font-family:Liberation Serif;font-variant:normal;font-weight:normal;font-style:normal;font-size:24px">std::vector</text>
</g>
</svg>
