<?xml version="1.0"?>
<!-- Generated by SVGo and Plotinum VG -->
<svg width="1920pt" height="1080pt" viewBox="0 0 1920 1080"
	xmlns="http://www.w3.org/2000/svg"
	xmlns:xlink="http://www.w3.org/1999/xlink">
<g transform="scale(1, -1) translate(0, -1080)">
<path d="M0,0L1920,0L1920,1080L0,1080Z" style="fill:#FFFFFF" />
<text x="735.77" y="-1040.9" transform="scale(1, -1)"
	style="font-family:Liberation Serif;font-variant:normal;font-weight:normal;font-style:normal;font-size:50px">push-back - Log Scale</text>
<text x="877.77" y="-9.7559" transform="scale(1, -1)"
	style="font-family:Liberation Serif;font-variant:normal;font-weight:normal;font-style:normal;font-size:30px">Number of elements</text>
<text x="85.462" y="-39.727" transform="scale(1, -1)"
	style="font-family:Liberation Serif;font-variant:normal;font-weight:normal;font-style:normal;font-size:20px">100000</text>
<text x="282.08" y="-39.727" transform="scale(1, -1)"
	style="font-family:Liberation Serif;font-variant:normal;font-weight:normal;font-style:normal;font-size:20px">200000</text>
<text x="478.69" y="-39.727" transform="scale(1, -1)"
	style="font-family:Liberation Serif;font-variant:normal;font-weight:normal;font-style:normal;font-size:20px">300000</text>
<text x="675.31" y="-39.727" transform="scale(1, -1)"
	style="font-family:Liberation Serif;font-variant:normal;font-weight:normal;font-style:normal;font-size:20px">400000</text>
<text x="871.92" y="-39.727" transform="scale(1, -1)"
	style="font-family:Liberation Serif;font-variant:normal;font-weight:normal;font-style:normal;font-size:20px">500000</text>
<text x="1068.5" y="-39.727" transform="scale(1, -1)"
	style="font-family:Liberation Serif;font-variant:normal;font-weight:normal;font-style:normal;font-size:20px">600000</text>
<text x="1265.2" y="-39.727" transform="scale(1, -1)"
	style="font-family:Liberation Serif;font-variant:normal;font-weight:normal;font-style:normal;font-size:20px">700000</text>
<text x="1461.8" y="-39.727" transform="scale(1, -1)"
	style="font-family:Liberation Serif;font-variant:normal;font-weight:normal;font-style:normal;font-size:20px">800000</text>
<text x="1658.4" y="-39.727" transform="scale(1, -1)"
	style="font-family:Liberation Serif;font-variant:normal;font-weight:normal;font-style:normal;font-size:20px">900000</text>
<text x="1850" y="-39.727" transform="scale(1, -1)"
	style="font-family:Liberation Serif;font-variant:normal;font-weight:normal;font-style:normal;font-size:20px">1000000</text>
<path d="M115.46,55.371L115.46,63.371" style="fill:none;stroke:#000000;stroke-width:0.5" />
<path d="M312.08,55.371L312.08,63.371" style="fill:none;stroke:#000000;stroke-width:0.5" />
<path d="M508.69,55.371L508.69,63.371" style="fill:none;stroke:#000000;stroke-width:0.5" />
<path d="M705.31,55.371L705.31,63.371" style="fill:none;stroke:#000000;stroke-width:0.5" />
<path d="M901.92,55.371L901.92,63.371" style="fill:none;stroke:#000000;stroke-width:0.5" />
<path d="M1098.5,55.371L1098.5,63.371" style="fill:none;stroke:#000000;stroke-width:0.5" />
<path d="M1295.2,55.371L1295.2,63.371" style="fill:none;stroke:#000000;stroke-width:0.5" />
<path d="M1491.8,55.371L1491.8,63.371" style="fill:none;stroke:#000000;stroke-width:0.5" />
<path d="M1688.4,55.371L1688.4,63.371" style="fill:none;stroke:#000000;stroke-width:0.5" />
<path d="M1885,55.371L1885,63.371" style="fill:none;stroke:#000000;stroke-width:0.5" />
<path d="M115.46,63.371L1885,63.371" style="fill:none;stroke:#000000;stroke-width:0.5" />
<g transform="rotate(90)">
<text x="504.05" y="23.467" transform="scale(1, -1)"
	style="font-family:Liberation Serif;font-variant:normal;font-weight:normal;font-style:normal;font-size:30px">log(μs)</text>
</g>
<text x="49.712" y="-262.78" transform="scale(1, -1)"
	style="font-family:Liberation Serif;font-variant:normal;font-weight:normal;font-style:normal;font-size:20px">5000</text>
<text x="39.712" y="-731" transform="scale(1, -1)"
	style="font-family:Liberation Serif;font-variant:normal;font-weight:normal;font-style:normal;font-size:20px">25000</text>
<text x="39.712" y="-902" transform="scale(1, -1)"
	style="font-family:Liberation Serif;font-variant:normal;font-weight:normal;font-style:normal;font-size:20px">45000</text>
<text x="39.712" y="-1009" transform="scale(1, -1)"
	style="font-family:Liberation Serif;font-variant:normal;font-weight:normal;font-style:normal;font-size:20px">65000</text>
<path d="M94.712,267.35L102.71,267.35" style="fill:none;stroke:#000000;stroke-width:0.5" />
<path d="M94.712,735.57L102.71,735.57" style="fill:none;stroke:#000000;stroke-width:0.5" />
<path d="M94.712,906.57L102.71,906.57" style="fill:none;stroke:#000000;stroke-width:0.5" />
<path d="M94.712,1013.6L102.71,1013.6" style="fill:none;stroke:#000000;stroke-width:0.5" />
<path d="M98.712,586.96L102.71,586.96" style="fill:none;stroke:#000000;stroke-width:0.5" />
<path d="M98.712,833.46L102.71,833.46" style="fill:none;stroke:#000000;stroke-width:0.5" />
<path d="M98.712,964.95L102.71,964.95" style="fill:none;stroke:#000000;stroke-width:0.5" />
<path d="M102.71,80.11L102.71,1014.1" style="fill:none;stroke:#000000;stroke-width:0.5" />
<path d="M115.46,80.11L115.46,1014.1" style="fill:none;stroke:#808080;stroke-width:0.25" />
<path d="M312.08,80.11L312.08,1014.1" style="fill:none;stroke:#808080;stroke-width:0.25" />
<path d="M508.69,80.11L508.69,1014.1" style="fill:none;stroke:#808080;stroke-width:0.25" />
<path d="M705.31,80.11L705.31,1014.1" style="fill:none;stroke:#808080;stroke-width:0.25" />
<path d="M901.92,80.11L901.92,1014.1" style="fill:none;stroke:#808080;stroke-width:0.25" />
<path d="M1098.5,80.11L1098.5,1014.1" style="fill:none;stroke:#808080;stroke-width:0.25" />
<path d="M1295.2,80.11L1295.2,1014.1" style="fill:none;stroke:#808080;stroke-width:0.25" />
<path d="M1491.8,80.11L1491.8,1014.1" style="fill:none;stroke:#808080;stroke-width:0.25" />
<path d="M1688.4,80.11L1688.4,1014.1" style="fill:none;stroke:#808080;stroke-width:0.25" />
<path d="M1885,80.11L1885,1014.1" style="fill:none;stroke:#808080;stroke-width:0.25" />
<path d="M115.46,267.35L1885,267.35" style="fill:none;stroke:#808080;stroke-width:0.25" />
<path d="M115.46,735.57L1885,735.57" style="fill:none;stroke:#808080;stroke-width:0.25" />
<path d="M115.46,906.57L1885,906.57" style="fill:none;stroke:#808080;stroke-width:0.25" />
<path d="M115.46,1013.6L1885,1013.6" style="fill:none;stroke:#808080;stroke-width:0.25" />
<path d="M115.46,331.24L312.08,481.19L508.69,609.28L705.31,674.21L901.92,743.09L1098.5,789.37L1295.2,890.92L1491.8,892.88L1688.4,926.95L1885,986.34" style="fill:none;stroke:#FF0000;stroke-width:4" />
<path d="M120.46,331.24A5,5 0 1 1 110.46,331.24A5,5 0 1 1 120.46,331.24Z" style="fill:#FF0000" />
<path d="M317.08,481.19A5,5 0 1 1 307.08,481.19A5,5 0 1 1 317.08,481.19Z" style="fill:#FF0000" />
<path d="M513.69,609.28A5,5 0 1 1 503.69,609.28A5,5 0 1 1 513.69,609.28Z" style="fill:#FF0000" />
<path d="M710.31,674.21A5,5 0 1 1 700.31,674.21A5,5 0 1 1 710.31,674.21Z" style="fill:#FF0000" />
<path d="M906.92,743.09A5,5 0 1 1 896.92,743.09A5,5 0 1 1 906.92,743.09Z" style="fill:#FF0000" />
<path d="M1103.5,789.37A5,5 0 1 1 1093.5,789.37A5,5 0 1 1 1103.5,789.37Z" style="fill:#FF0000" />
<path d="M1300.2,890.92A5,5 0 1 1 1290.2,890.92A5,5 0 1 1 1300.2,890.92Z" style="fill:#FF0000" />
<path d="M1496.8,892.88A5,5 0 1 1 1486.8,892.88A5,5 0 1 1 1496.8,892.88Z" style="fill:#FF0000" />
<path d="M1693.4,926.95A5,5 0 1 1 1683.4,926.95A5,5 0 1 1 1693.4,926.95Z" style="fill:#FF0000" />
<path d="M1890,986.34A5,5 0 1 1 1880,986.34A5,5 0 1 1 1890,986.34Z" style="fill:#FF0000" />
<path d="M115.46,199.14L312.08,256.5L508.69,338.53L705.31,411.76L901.92,476.95L1098.5,549.24L1295.2,578.08L1491.8,616.38L1688.4,663.48L1885,684.56" style="fill:none;stroke:#0000FF;stroke-width:4" />
<path d="M120.46,199.14A5,5 0 1 1 110.46,199.14A5,5 0 1 1 120.46,199.14Z" style="fill:#0000FF" />
<path d="M317.08,256.5A5,5 0 1 1 307.08,256.5A5,5 0 1 1 317.08,256.5Z" style="fill:#0000FF" />
<path d="M513.69,338.53A5,5 0 1 1 503.69,338.53A5,5 0 1 1 513.69,338.53Z" style="fill:#0000FF" />
<path d="M710.31,411.76A5,5 0 1 1 700.31,411.76A5,5 0 1 1 710.31,411.76Z" style="fill:#0000FF" />
<path d="M906.92,476.95A5,5 0 1 1 896.92,476.95A5,5 0 1 1 906.92,476.95Z" style="fill:#0000FF" />
<path d="M1103.5,549.24A5,5 0 1 1 1093.5,549.24A5,5 0 1 1 1103.5,549.24Z" style="fill:#0000FF" />
<path d="M1300.2,578.08A5,5 0 1 1 1290.2,578.08A5,5 0 1 1 1300.2,578.08Z" style="fill:#0000FF" />
<path d="M1496.8,616.38A5,5 0 1 1 1486.8,616.38A5,5 0 1 1 1496.8,616.38Z" style="fill:#0000FF" />
<path d="M1693.4,663.48A5,5 0 1 1 1683.4,663.48A5,5 0 1 1 1693.4,663.48Z" style="fill:#0000FF" />
<path d="M1890,684.56A5,5 0 1 1 1880,684.56A5,5 0 1 1 1890,684.56Z" style="fill:#0000FF" />
<path d="M115.46,80.11L312.08,236.89L508.69,343.72L705.31,459.78L901.92,572.43L1098.5,671.48L1295.2,611.78L1491.8,623.75L1688.4,640.81L1885,675.13" style="fill:none;stroke:#00FF00;stroke-width:4" />
<path d="M120.46,80.11A5,5 0 1 1 110.46,80.11A5,5 0 1 1 120.46,80.11Z" style="fill:#00FF00" />
<path d="M317.08,236.89A5,5 0 1 1 307.08,236.89A5,5 0 1 1 317.08,236.89Z" style="fill:#00FF00" />
<path d="M513.69,343.72A5,5 0 1 1 503.69,343.72A5,5 0 1 1 513.69,343.72Z" style="fill:#00FF00" />
<path d="M710.31,459.78A5,5 0 1 1 700.31,459.78A5,5 0 1 1 710.31,459.78Z" style="fill:#00FF00" />
<path d="M906.92,572.43A5,5 0 1 1 896.92,572.43A5,5 0 1 1 906.92,572.43Z" style="fill:#00FF00" />
<path d="M1103.5,671.48A5,5 0 1 1 1093.5,671.48A5,5 0 1 1 1103.5,671.48Z" style="fill:#00FF00" />
<path d="M1300.2,611.78A5,5 0 1 1 1290.2,611.78A5,5 0 1 1 1300.2,611.78Z" style="fill:#00FF00" />
<path d="M1496.8,623.75A5,5 0 1 1 1486.8,623.75A5,5 0 1 1 1496.8,623.75Z" style="fill:#00FF00" />
<path d="M1693.4,640.81A5,5 0 1 1 1683.4,640.81A5,5 0 1 1 1693.4,640.81Z" style="fill:#00FF00" />
<path d="M1890,675.13A5,5 0 1 1 1880,675.13A5,5 0 1 1 1890,675.13Z" style="fill:#00FF00" />
<path d="M115.46,96.788L312.08,235.92L508.69,398.5L705.31,457.58L901.92,537.02L1098.5,569.06L1295.2,632.07L1491.8,679.38L1688.4,688.78L1885,737.83" style="fill:none;stroke:#FF8000;stroke-width:4" />
<path d="M120.46,96.788A5,5 0 1 1 110.46,96.788A5,5 0 1 1 120.46,96.788Z" style="fill:#FF8000" />
<path d="M317.08,235.92A5,5 0 1 1 307.08,235.92A5,5 0 1 1 317.08,235.92Z" style="fill:#FF8000" />
<path d="M513.69,398.5A5,5 0 1 1 503.69,398.5A5,5 0 1 1 513.69,398.5Z" style="fill:#FF8000" />
<path d="M710.31,457.58A5,5 0 1 1 700.31,457.58A5,5 0 1 1 710.31,457.58Z" style="fill:#FF8000" />
<path d="M906.92,537.02A5,5 0 1 1 896.92,537.02A5,5 0 1 1 906.92,537.02Z" style="fill:#FF8000" />
<path d="M1103.5,569.06A5,5 0 1 1 1093.5,569.06A5,5 0 1 1 1103.5,569.06Z" style="fill:#FF8000" />
<path d="M1300.2,632.07A5,5 0 1 1 1290.2,632.07A5,5 0 1 1 1300.2,632.07Z" style="fill:#FF8000" />
<path d="M1496.8,679.38A5,5 0 1 1 1486.8,679.38A5,5 0 1 1 1496.8,679.38Z" style="fill:#FF8000" />
<path d="M1693.4,688.78A5,5 0 1 1 1683.4,688.78A5,5 0 1 1 1693.4,688.78Z" style="fill:#FF8000" />
<path d="M1890,737.83A5,5 0 1 1 1880,737.83A5,5 0 1 1 1890,737.83Z" style="fill:#FF8000" />
<path d="M1900,146.4L1920,146.4" style="fill:none;stroke:#FF0000;stroke-width:4" />
<path d="M1915,146.4A5,5 0 1 1 1905,146.4A5,5 0 1 1 1915,146.4Z" style="fill:#FF0000" />
<text x="1823.3" y="-141.42" transform="scale(1, -1)"
	style="font-family:Liberation Serif;font-variant:normal;font-weight:normal;font-style:normal;font-size:24px">std::list</text>
<path d="M1900,126.03L1920,126.03" style="fill:none;stroke:#0000FF;stroke-width:4" />
<path d="M1915,126.03A5,5 0 1 1 1905,126.03A5,5 0 1 1 1915,126.03Z" style="fill:#0000FF" />
<text x="1795.4" y="-121.05" transform="scale(1, -1)"
	style="font-family:Liberation Serif;font-variant:normal;font-weight:normal;font-style:normal;font-size:24px">std::deque</text>
<path d="M1900,105.66L1920,105.66" style="fill:none;stroke:#00FF00;stroke-width:4" />
<path d="M1915,105.66A5,5 0 1 1 1905,105.66A5,5 0 1 1 1915,105.66Z" style="fill:#00FF00" />
<text x="1792.7" y="-100.69" transform="scale(1, -1)"
	style="font-family:Liberation Serif;font-variant:normal;font-weight:normal;font-style:normal;font-size:24px">std::vector</text>
<path d="M1900,85.294L1920,85.294" style="fill:none;stroke:#FF8000;stroke-width:4" />
<path d="M1915,85.294A5,5 0 1 1 1905,85.294A5,5 0 1 1 1915,85.294Z" style="fill:#FF8000" />
<text x="1669.4" y="-80.319" transform="scale(1, -1)"
	style="font-family:Liberation Serif;font-variant:normal;font-weight:normal;font-style:normal;font-size:24px">preallocated std::vector</text>
</g>
</svg>
