<?xml version="1.0"?>
<!-- Generated by SVGo and Plotinum VG -->
<svg width="1920pt" height="1080pt" viewBox="0 0 1920 1080"
	xmlns="http://www.w3.org/2000/svg"
	xmlns:xlink="http://www.w3.org/1999/xlink">
<g transform="scale(1, -1) translate(0, -1080)">
<path d="M0,0L1920,0L1920,1080L0,1080Z" style="fill:#FFFFFF" />
<text x="735.77" y="-1040.9" transform="scale(1, -1)"
	style="font-family:Liberation Serif;font-variant:normal;font-weight:normal;font-style:normal;font-size:50px">push-back - Log Scale</text>
<text x="877.77" y="-9.7559" transform="scale(1, -1)"
	style="font-family:Liberation Serif;font-variant:normal;font-weight:normal;font-style:normal;font-size:30px">Number of elements</text>
<text x="85.462" y="-39.727" transform="scale(1, -1)"
	style="font-family:Liberation Serif;font-variant:normal;font-weight:normal;font-style:normal;font-size:20px">100000</text>
<text x="282.08" y="-39.727" transform="scale(1, -1)"
	style="font-family:Liberation Serif;font-variant:normal;font-weight:normal;font-style:normal;font-size:20px">200000</text>
<text x="478.69" y="-39.727" transform="scale(1, -1)"
	style="font-family:Liberation Serif;font-variant:normal;font-weight:normal;font-style:normal;font-size:20px">300000</text>
<text x="675.31" y="-39.727" transform="scale(1, -1)"
	style="font-family:Liberation Serif;font-variant:normal;font-weight:normal;font-style:normal;font-size:20px">400000</text>
<text x="871.92" y="-39.727" transform="scale(1, -1)"
	style="font-family:Liberation Serif;font-variant:normal;font-weight:normal;font-style:normal;font-size:20px">500000</text>
<text x="1068.5" y="-39.727" transform="scale(1, -1)"
	style="font-family:Liberation Serif;font-variant:normal;font-weight:normal;font-style:normal;font-size:20px">600000</text>
<text x="1265.2" y="-39.727" transform="scale(1, -1)"
	style="font-family:Liberation Serif;font-variant:normal;font-weight:normal;font-style:normal;font-size:20px">700000</text>
<text x="1461.8" y="-39.727" transform="scale(1, -1)"
	style="font-family:Liberation Serif;font-variant:normal;font-weight:normal;font-style:normal;font-size:20px">800000</text>
<text x="1658.4" y="-39.727" transform="scale(1, -1)"
	style="font-family:Liberation Serif;font-variant:normal;font-weight:normal;font-style:normal;font-size:20px">900000</text>
<text x="1850" y="-39.727" transform="scale(1, -1)"
	style="font-family:Liberation Serif;font-variant:normal;font-weight:normal;font-style:normal;font-size:20px">1000000</text>
<path d="M115.46,55.371L115.46,63.371" style="fill:none;stroke:#000000;stroke-width:0.5" />
<path d="M312.08,55.371L312.08,63.371" style="fill:none;stroke:#000000;stroke-width:0.5" />
<path d="M508.69,55.371L508.69,63.371" style="fill:none;stroke:#000000;stroke-width:0.5" />
<path d="M705.31,55.371L705.31,63.371" style="fill:none;stroke:#000000;stroke-width:0.5" />
<path d="M901.92,55.371L901.92,63.371" style="fill:none;stroke:#000000;stroke-width:0.5" />
<path d="M1098.5,55.371L1098.5,63.371" style="fill:none;stroke:#000000;stroke-width:0.5" />
<path d="M1295.2,55.371L1295.2,63.371" style="fill:none;stroke:#000000;stroke-width:0.5" />
<path d="M1491.8,55.371L1491.8,63.371" style="fill:none;stroke:#000000;stroke-width:0.5" />
<path d="M1688.4,55.371L1688.4,63.371" style="fill:none;stroke:#000000;stroke-width:0.5" />
<path d="M1885,55.371L1885,63.371" style="fill:none;stroke:#000000;stroke-width:0.5" />
<path d="M115.46,63.371L1885,63.371" style="fill:none;stroke:#000000;stroke-width:0.5" />
<g transform="rotate(90)">
<text x="504.23" y="23.467" transform="scale(1, -1)"
	style="font-family:Liberation Serif;font-variant:normal;font-weight:normal;font-style:normal;font-size:30px">log(μs)</text>
</g>
<text x="39.712" y="-359.04" transform="scale(1, -1)"
	style="font-family:Liberation Serif;font-variant:normal;font-weight:normal;font-style:normal;font-size:20px">10000</text>
<text x="39.712" y="-835.12" transform="scale(1, -1)"
	style="font-family:Liberation Serif;font-variant:normal;font-weight:normal;font-style:normal;font-size:20px">50000</text>
<text x="39.712" y="-1009" transform="scale(1, -1)"
	style="font-family:Liberation Serif;font-variant:normal;font-weight:normal;font-style:normal;font-size:20px">90000</text>
<path d="M94.712,363.61L102.71,363.61" style="fill:none;stroke:#000000;stroke-width:0.5" />
<path d="M94.712,839.69L102.71,839.69" style="fill:none;stroke:#000000;stroke-width:0.5" />
<path d="M94.712,1013.6L102.71,1013.6" style="fill:none;stroke:#000000;stroke-width:0.5" />
<path d="M98.712,568.65L102.71,568.65" style="fill:none;stroke:#000000;stroke-width:0.5" />
<path d="M98.712,688.58L102.71,688.58" style="fill:none;stroke:#000000;stroke-width:0.5" />
<path d="M98.712,773.68L102.71,773.68" style="fill:none;stroke:#000000;stroke-width:0.5" />
<path d="M98.712,893.62L102.71,893.62" style="fill:none;stroke:#000000;stroke-width:0.5" />
<path d="M98.712,939.22L102.71,939.22" style="fill:none;stroke:#000000;stroke-width:0.5" />
<path d="M98.712,978.71L102.71,978.71" style="fill:none;stroke:#000000;stroke-width:0.5" />
<path d="M102.71,80.11L102.71,1014.4" style="fill:none;stroke:#000000;stroke-width:0.5" />
<path d="M115.46,80.11L115.46,1014.4" style="fill:none;stroke:#808080;stroke-width:0.25" />
<path d="M312.08,80.11L312.08,1014.4" style="fill:none;stroke:#808080;stroke-width:0.25" />
<path d="M508.69,80.11L508.69,1014.4" style="fill:none;stroke:#808080;stroke-width:0.25" />
<path d="M705.31,80.11L705.31,1014.4" style="fill:none;stroke:#808080;stroke-width:0.25" />
<path d="M901.92,80.11L901.92,1014.4" style="fill:none;stroke:#808080;stroke-width:0.25" />
<path d="M1098.5,80.11L1098.5,1014.4" style="fill:none;stroke:#808080;stroke-width:0.25" />
<path d="M1295.2,80.11L1295.2,1014.4" style="fill:none;stroke:#808080;stroke-width:0.25" />
<path d="M1491.8,80.11L1491.8,1014.4" style="fill:none;stroke:#808080;stroke-width:0.25" />
<path d="M1688.4,80.11L1688.4,1014.4" style="fill:none;stroke:#808080;stroke-width:0.25" />
<path d="M1885,80.11L1885,1014.4" style="fill:none;stroke:#808080;stroke-width:0.25" />
<path d="M115.46,363.61L1885,363.61" style="fill:none;stroke:#808080;stroke-width:0.25" />
<path d="M115.46,839.69L1885,839.69" style="fill:none;stroke:#808080;stroke-width:0.25" />
<path d="M115.46,1013.6L1885,1013.6" style="fill:none;stroke:#808080;stroke-width:0.25" />
<path d="M115.46,80.11L312.08,242.93L508.69,407.44L705.31,448.9L901.92,503.89L1098.5,663.73L1295.2,723.75L1491.8,809.3L1688.4,986.23L1885,833.65" style="fill:none;stroke:#FF0000;stroke-width:4" />
<path d="M120.46,80.11A5,5 0 1 1 110.46,80.11A5,5 0 1 1 120.46,80.11Z" style="fill:#FF0000" />
<path d="M317.08,242.93A5,5 0 1 1 307.08,242.93A5,5 0 1 1 317.08,242.93Z" style="fill:#FF0000" />
<path d="M513.69,407.44A5,5 0 1 1 503.69,407.44A5,5 0 1 1 513.69,407.44Z" style="fill:#FF0000" />
<path d="M710.31,448.9A5,5 0 1 1 700.31,448.9A5,5 0 1 1 710.31,448.9Z" style="fill:#FF0000" />
<path d="M906.92,503.89A5,5 0 1 1 896.92,503.89A5,5 0 1 1 906.92,503.89Z" style="fill:#FF0000" />
<path d="M1103.5,663.73A5,5 0 1 1 1093.5,663.73A5,5 0 1 1 1103.5,663.73Z" style="fill:#FF0000" />
<path d="M1300.2,723.75A5,5 0 1 1 1290.2,723.75A5,5 0 1 1 1300.2,723.75Z" style="fill:#FF0000" />
<path d="M1496.8,809.3A5,5 0 1 1 1486.8,809.3A5,5 0 1 1 1496.8,809.3Z" style="fill:#FF0000" />
<path d="M1693.4,986.23A5,5 0 1 1 1683.4,986.23A5,5 0 1 1 1693.4,986.23Z" style="fill:#FF0000" />
<path d="M1890,833.65A5,5 0 1 1 1880,833.65A5,5 0 1 1 1890,833.65Z" style="fill:#FF0000" />
<path d="M115.46,128.59L312.08,280.95L508.69,366.99L705.31,444.82L901.92,536.74L1098.5,634.02L1295.2,601.36L1491.8,635.97L1688.4,705.17L1885,778.32" style="fill:none;stroke:#0000FF;stroke-width:4" />
<path d="M120.46,128.59A5,5 0 1 1 110.46,128.59A5,5 0 1 1 120.46,128.59Z" style="fill:#0000FF" />
<path d="M317.08,280.95A5,5 0 1 1 307.08,280.95A5,5 0 1 1 317.08,280.95Z" style="fill:#0000FF" />
<path d="M513.69,366.99A5,5 0 1 1 503.69,366.99A5,5 0 1 1 513.69,366.99Z" style="fill:#0000FF" />
<path d="M710.31,444.82A5,5 0 1 1 700.31,444.82A5,5 0 1 1 710.31,444.82Z" style="fill:#0000FF" />
<path d="M906.92,536.74A5,5 0 1 1 896.92,536.74A5,5 0 1 1 906.92,536.74Z" style="fill:#0000FF" />
<path d="M1103.5,634.02A5,5 0 1 1 1093.5,634.02A5,5 0 1 1 1103.5,634.02Z" style="fill:#0000FF" />
<path d="M1300.2,601.36A5,5 0 1 1 1290.2,601.36A5,5 0 1 1 1300.2,601.36Z" style="fill:#0000FF" />
<path d="M1496.8,635.97A5,5 0 1 1 1486.8,635.97A5,5 0 1 1 1496.8,635.97Z" style="fill:#0000FF" />
<path d="M1693.4,705.17A5,5 0 1 1 1683.4,705.17A5,5 0 1 1 1693.4,705.17Z" style="fill:#0000FF" />
<path d="M1890,778.32A5,5 0 1 1 1880,778.32A5,5 0 1 1 1890,778.32Z" style="fill:#0000FF" />
<path d="M115.46,241.6L312.08,425.86L508.69,595.23L705.31,678.06L901.92,734L1098.5,771.84L1295.2,795.49L1491.8,834.72L1688.4,857.91L1885,897.44" style="fill:none;stroke:#00FF00;stroke-width:4" />
<path d="M120.46,241.6A5,5 0 1 1 110.46,241.6A5,5 0 1 1 120.46,241.6Z" style="fill:#00FF00" />
<path d="M317.08,425.86A5,5 0 1 1 307.08,425.86A5,5 0 1 1 317.08,425.86Z" style="fill:#00FF00" />
<path d="M513.69,595.23A5,5 0 1 1 503.69,595.23A5,5 0 1 1 513.69,595.23Z" style="fill:#00FF00" />
<path d="M710.31,678.06A5,5 0 1 1 700.31,678.06A5,5 0 1 1 710.31,678.06Z" style="fill:#00FF00" />
<path d="M906.92,734A5,5 0 1 1 896.92,734A5,5 0 1 1 906.92,734Z" style="fill:#00FF00" />
<path d="M1103.5,771.84A5,5 0 1 1 1093.5,771.84A5,5 0 1 1 1103.5,771.84Z" style="fill:#00FF00" />
<path d="M1300.2,795.49A5,5 0 1 1 1290.2,795.49A5,5 0 1 1 1300.2,795.49Z" style="fill:#00FF00" />
<path d="M1496.8,834.72A5,5 0 1 1 1486.8,834.72A5,5 0 1 1 1496.8,834.72Z" style="fill:#00FF00" />
<path d="M1693.4,857.91A5,5 0 1 1 1683.4,857.91A5,5 0 1 1 1693.4,857.91Z" style="fill:#00FF00" />
<path d="M1890,897.44A5,5 0 1 1 1880,897.44A5,5 0 1 1 1890,897.44Z" style="fill:#00FF00" />
<path d="M115.46,236.91L312.08,285.45L508.69,430.11L705.31,501.25L901.92,581.16L1098.5,657.65L1295.2,713.14L1491.8,764.53L1688.4,769.8L1885,807.26" style="fill:none;stroke:#FF8000;stroke-width:4" />
<path d="M120.46,236.91A5,5 0 1 1 110.46,236.91A5,5 0 1 1 120.46,236.91Z" style="fill:#FF8000" />
<path d="M317.08,285.45A5,5 0 1 1 307.08,285.45A5,5 0 1 1 317.08,285.45Z" style="fill:#FF8000" />
<path d="M513.69,430.11A5,5 0 1 1 503.69,430.11A5,5 0 1 1 513.69,430.11Z" style="fill:#FF8000" />
<path d="M710.31,501.25A5,5 0 1 1 700.31,501.25A5,5 0 1 1 710.31,501.25Z" style="fill:#FF8000" />
<path d="M906.92,581.16A5,5 0 1 1 896.92,581.16A5,5 0 1 1 906.92,581.16Z" style="fill:#FF8000" />
<path d="M1103.5,657.65A5,5 0 1 1 1093.5,657.65A5,5 0 1 1 1103.5,657.65Z" style="fill:#FF8000" />
<path d="M1300.2,713.14A5,5 0 1 1 1290.2,713.14A5,5 0 1 1 1300.2,713.14Z" style="fill:#FF8000" />
<path d="M1496.8,764.53A5,5 0 1 1 1486.8,764.53A5,5 0 1 1 1496.8,764.53Z" style="fill:#FF8000" />
<path d="M1693.4,769.8A5,5 0 1 1 1683.4,769.8A5,5 0 1 1 1693.4,769.8Z" style="fill:#FF8000" />
<path d="M1890,807.26A5,5 0 1 1 1880,807.26A5,5 0 1 1 1890,807.26Z" style="fill:#FF8000" />
<path d="M1900,146.4L1920,146.4" style="fill:none;stroke:#FF0000;stroke-width:4" />
<path d="M1915,146.4A5,5 0 1 1 1905,146.4A5,5 0 1 1 1915,146.4Z" style="fill:#FF0000" />
<text x="1792.7" y="-141.42" transform="scale(1, -1)"
	style="font-family:Liberation Serif;font-variant:normal;font-weight:normal;font-style:normal;font-size:24px">std::vector</text>
<path d="M1900,126.03L1920,126.03" style="fill:none;stroke:#0000FF;stroke-width:4" />
<path d="M1915,126.03A5,5 0 1 1 1905,126.03A5,5 0 1 1 1915,126.03Z" style="fill:#0000FF" />
<text x="1669.4" y="-121.05" transform="scale(1, -1)"
	style="font-family:Liberation Serif;font-variant:normal;font-weight:normal;font-style:normal;font-size:24px">preallocated std::vector</text>
<path d="M1900,105.66L1920,105.66" style="fill:none;stroke:#00FF00;stroke-width:4" />
<path d="M1915,105.66A5,5 0 1 1 1905,105.66A5,5 0 1 1 1915,105.66Z" style="fill:#00FF00" />
<text x="1823.3" y="-100.69" transform="scale(1, -1)"
	style="font-family:Liberation Serif;font-variant:normal;font-weight:normal;font-style:normal;font-size:24px">std::list</text>
<path d="M1900,85.294L1920,85.294" style="fill:none;stroke:#FF8000;stroke-width:4" />
<path d="M1915,85.294A5,5 0 1 1 1905,85.294A5,5 0 1 1 1915,85.294Z" style="fill:#FF8000" />
<text x="1795.4" y="-80.319" transform="scale(1, -1)"
	style="font-family:Liberation Serif;font-variant:normal;font-weight:normal;font-style:normal;font-size:24px">std::deque</text>
</g>
</svg>
