<?xml version="1.0"?>
<!-- Generated by SVGo and Plotinum VG -->
<svg width="1920pt" height="1080pt" viewBox="0 0 1920 1080"
	xmlns="http://www.w3.org/2000/svg"
	xmlns:xlink="http://www.w3.org/1999/xlink">
<g transform="scale(1, -1) translate(0, -1080)">
<path d="M0,0L1920,0L1920,1080L0,1080Z" style="fill:#FFFFFF" />
<text x="735.77" y="-1040.9" transform="scale(1, -1)"
	style="font-family:Liberation Serif;font-variant:normal;font-weight:normal;font-style:normal;font-size:50px">push-back - Log Scale</text>
<text x="887.77" y="-9.7559" transform="scale(1, -1)"
	style="font-family:Liberation Serif;font-variant:normal;font-weight:normal;font-style:normal;font-size:30px">Number of elements</text>
<text x="105.46" y="-39.727" transform="scale(1, -1)"
	style="font-family:Liberation Serif;font-variant:normal;font-weight:normal;font-style:normal;font-size:20px">100000</text>
<text x="299.86" y="-39.727" transform="scale(1, -1)"
	style="font-family:Liberation Serif;font-variant:normal;font-weight:normal;font-style:normal;font-size:20px">200000</text>
<text x="494.25" y="-39.727" transform="scale(1, -1)"
	style="font-family:Liberation Serif;font-variant:normal;font-weight:normal;font-style:normal;font-size:20px">300000</text>
<text x="688.64" y="-39.727" transform="scale(1, -1)"
	style="font-family:Liberation Serif;font-variant:normal;font-weight:normal;font-style:normal;font-size:20px">400000</text>
<text x="883.03" y="-39.727" transform="scale(1, -1)"
	style="font-family:Liberation Serif;font-variant:normal;font-weight:normal;font-style:normal;font-size:20px">500000</text>
<text x="1077.4" y="-39.727" transform="scale(1, -1)"
	style="font-family:Liberation Serif;font-variant:normal;font-weight:normal;font-style:normal;font-size:20px">600000</text>
<text x="1271.8" y="-39.727" transform="scale(1, -1)"
	style="font-family:Liberation Serif;font-variant:normal;font-weight:normal;font-style:normal;font-size:20px">700000</text>
<text x="1466.2" y="-39.727" transform="scale(1, -1)"
	style="font-family:Liberation Serif;font-variant:normal;font-weight:normal;font-style:normal;font-size:20px">800000</text>
<text x="1660.6" y="-39.727" transform="scale(1, -1)"
	style="font-family:Liberation Serif;font-variant:normal;font-weight:normal;font-style:normal;font-size:20px">900000</text>
<text x="1850" y="-39.727" transform="scale(1, -1)"
	style="font-family:Liberation Serif;font-variant:normal;font-weight:normal;font-style:normal;font-size:20px">1000000</text>
<path d="M135.46,55.371L135.46,63.371" style="fill:none;stroke:#000000;stroke-width:0.5" />
<path d="M329.86,55.371L329.86,63.371" style="fill:none;stroke:#000000;stroke-width:0.5" />
<path d="M524.25,55.371L524.25,63.371" style="fill:none;stroke:#000000;stroke-width:0.5" />
<path d="M718.64,55.371L718.64,63.371" style="fill:none;stroke:#000000;stroke-width:0.5" />
<path d="M913.03,55.371L913.03,63.371" style="fill:none;stroke:#000000;stroke-width:0.5" />
<path d="M1107.4,55.371L1107.4,63.371" style="fill:none;stroke:#000000;stroke-width:0.5" />
<path d="M1301.8,55.371L1301.8,63.371" style="fill:none;stroke:#000000;stroke-width:0.5" />
<path d="M1496.2,55.371L1496.2,63.371" style="fill:none;stroke:#000000;stroke-width:0.5" />
<path d="M1690.6,55.371L1690.6,63.371" style="fill:none;stroke:#000000;stroke-width:0.5" />
<path d="M1885,55.371L1885,63.371" style="fill:none;stroke:#000000;stroke-width:0.5" />
<path d="M135.46,63.371L1885,63.371" style="fill:none;stroke:#000000;stroke-width:0.5" />
<g transform="rotate(90)">
<text x="509.33" y="23.467" transform="scale(1, -1)"
	style="font-family:Liberation Serif;font-variant:normal;font-weight:normal;font-style:normal;font-size:30px">log(μs)</text>
</g>
<text x="49.712" y="-538.33" transform="scale(1, -1)"
	style="font-family:Liberation Serif;font-variant:normal;font-weight:normal;font-style:normal;font-size:20px">300000</text>
<text x="49.712" y="-843.12" transform="scale(1, -1)"
	style="font-family:Liberation Serif;font-variant:normal;font-weight:normal;font-style:normal;font-size:20px">900000</text>
<text x="39.712" y="-984.84" transform="scale(1, -1)"
	style="font-family:Liberation Serif;font-variant:normal;font-weight:normal;font-style:normal;font-size:20px">1500000</text>
<path d="M114.71,542.9L122.71,542.9" style="fill:none;stroke:#000000;stroke-width:0.5" />
<path d="M114.71,847.69L122.71,847.69" style="fill:none;stroke:#000000;stroke-width:0.5" />
<path d="M114.71,989.41L122.71,989.41" style="fill:none;stroke:#000000;stroke-width:0.5" />
<path d="M118.71,735.2L122.71,735.2" style="fill:none;stroke:#000000;stroke-width:0.5" />
<path d="M118.71,927.5L122.71,927.5" style="fill:none;stroke:#000000;stroke-width:0.5" />
<path d="M122.71,80.11L122.71,1024.6" style="fill:none;stroke:#000000;stroke-width:0.5" />
<path d="M135.46,80.11L135.46,1024.6" style="fill:none;stroke:#808080;stroke-width:0.25" />
<path d="M329.86,80.11L329.86,1024.6" style="fill:none;stroke:#808080;stroke-width:0.25" />
<path d="M524.25,80.11L524.25,1024.6" style="fill:none;stroke:#808080;stroke-width:0.25" />
<path d="M718.64,80.11L718.64,1024.6" style="fill:none;stroke:#808080;stroke-width:0.25" />
<path d="M913.03,80.11L913.03,1024.6" style="fill:none;stroke:#808080;stroke-width:0.25" />
<path d="M1107.4,80.11L1107.4,1024.6" style="fill:none;stroke:#808080;stroke-width:0.25" />
<path d="M1301.8,80.11L1301.8,1024.6" style="fill:none;stroke:#808080;stroke-width:0.25" />
<path d="M1496.2,80.11L1496.2,1024.6" style="fill:none;stroke:#808080;stroke-width:0.25" />
<path d="M1690.6,80.11L1690.6,1024.6" style="fill:none;stroke:#808080;stroke-width:0.25" />
<path d="M1885,80.11L1885,1024.6" style="fill:none;stroke:#808080;stroke-width:0.25" />
<path d="M135.46,542.9L1885,542.9" style="fill:none;stroke:#808080;stroke-width:0.25" />
<path d="M135.46,847.69L1885,847.69" style="fill:none;stroke:#808080;stroke-width:0.25" />
<path d="M135.46,989.41L1885,989.41" style="fill:none;stroke:#808080;stroke-width:0.25" />
<path d="M135.46,358.97L329.86,525.66L524.25,659.32L718.64,670.89L913.03,722.73L1107.4,956.07L1301.8,945.63L1496.2,891L1690.6,981.83L1885,989.18" style="fill:none;stroke:#FF0000;stroke-width:4" />
<path d="M140.46,358.97A5,5 0 1 1 130.46,358.97A5,5 0 1 1 140.46,358.97Z" style="fill:#FF0000" />
<path d="M334.86,525.66A5,5 0 1 1 324.86,525.66A5,5 0 1 1 334.86,525.66Z" style="fill:#FF0000" />
<path d="M529.25,659.32A5,5 0 1 1 519.25,659.32A5,5 0 1 1 529.25,659.32Z" style="fill:#FF0000" />
<path d="M723.64,670.89A5,5 0 1 1 713.64,670.89A5,5 0 1 1 723.64,670.89Z" style="fill:#FF0000" />
<path d="M918.03,722.73A5,5 0 1 1 908.03,722.73A5,5 0 1 1 918.03,722.73Z" style="fill:#FF0000" />
<path d="M1112.4,956.07A5,5 0 1 1 1102.4,956.07A5,5 0 1 1 1112.4,956.07Z" style="fill:#FF0000" />
<path d="M1306.8,945.63A5,5 0 1 1 1296.8,945.63A5,5 0 1 1 1306.8,945.63Z" style="fill:#FF0000" />
<path d="M1501.2,891A5,5 0 1 1 1491.2,891A5,5 0 1 1 1501.2,891Z" style="fill:#FF0000" />
<path d="M1695.6,981.83A5,5 0 1 1 1685.6,981.83A5,5 0 1 1 1695.6,981.83Z" style="fill:#FF0000" />
<path d="M1890,989.18A5,5 0 1 1 1880,989.18A5,5 0 1 1 1890,989.18Z" style="fill:#FF0000" />
<path d="M135.46,80.11L329.86,207.92L524.25,345.59L718.64,380.94L913.03,540.9L1107.4,571.95L1301.8,569.91L1496.2,662.64L1690.6,637.03L1885,726.56" style="fill:none;stroke:#0000FF;stroke-width:4" />
<path d="M140.46,80.11A5,5 0 1 1 130.46,80.11A5,5 0 1 1 140.46,80.11Z" style="fill:#0000FF" />
<path d="M334.86,207.92A5,5 0 1 1 324.86,207.92A5,5 0 1 1 334.86,207.92Z" style="fill:#0000FF" />
<path d="M529.25,345.59A5,5 0 1 1 519.25,345.59A5,5 0 1 1 529.25,345.59Z" style="fill:#0000FF" />
<path d="M723.64,380.94A5,5 0 1 1 713.64,380.94A5,5 0 1 1 723.64,380.94Z" style="fill:#0000FF" />
<path d="M918.03,540.9A5,5 0 1 1 908.03,540.9A5,5 0 1 1 918.03,540.9Z" style="fill:#0000FF" />
<path d="M1112.4,571.95A5,5 0 1 1 1102.4,571.95A5,5 0 1 1 1112.4,571.95Z" style="fill:#0000FF" />
<path d="M1306.8,569.91A5,5 0 1 1 1296.8,569.91A5,5 0 1 1 1306.8,569.91Z" style="fill:#0000FF" />
<path d="M1501.2,662.64A5,5 0 1 1 1491.2,662.64A5,5 0 1 1 1501.2,662.64Z" style="fill:#0000FF" />
<path d="M1695.6,637.03A5,5 0 1 1 1685.6,637.03A5,5 0 1 1 1695.6,637.03Z" style="fill:#0000FF" />
<path d="M1890,726.56A5,5 0 1 1 1880,726.56A5,5 0 1 1 1890,726.56Z" style="fill:#0000FF" />
<path d="M135.46,248.86L329.86,439.87L524.25,567.2L718.64,664.48L913.03,723.18L1107.4,788.78L1301.8,903.13L1496.2,866.24L1690.6,993.34L1885,998.19" style="fill:none;stroke:#00FF00;stroke-width:4" />
<path d="M140.46,248.86A5,5 0 1 1 130.46,248.86A5,5 0 1 1 140.46,248.86Z" style="fill:#00FF00" />
<path d="M334.86,439.87A5,5 0 1 1 324.86,439.87A5,5 0 1 1 334.86,439.87Z" style="fill:#00FF00" />
<path d="M529.25,567.2A5,5 0 1 1 519.25,567.2A5,5 0 1 1 529.25,567.2Z" style="fill:#00FF00" />
<path d="M723.64,664.48A5,5 0 1 1 713.64,664.48A5,5 0 1 1 723.64,664.48Z" style="fill:#00FF00" />
<path d="M918.03,723.18A5,5 0 1 1 908.03,723.18A5,5 0 1 1 918.03,723.18Z" style="fill:#00FF00" />
<path d="M1112.4,788.78A5,5 0 1 1 1102.4,788.78A5,5 0 1 1 1112.4,788.78Z" style="fill:#00FF00" />
<path d="M1306.8,903.13A5,5 0 1 1 1296.8,903.13A5,5 0 1 1 1306.8,903.13Z" style="fill:#00FF00" />
<path d="M1501.2,866.24A5,5 0 1 1 1491.2,866.24A5,5 0 1 1 1501.2,866.24Z" style="fill:#00FF00" />
<path d="M1695.6,993.34A5,5 0 1 1 1685.6,993.34A5,5 0 1 1 1695.6,993.34Z" style="fill:#00FF00" />
<path d="M1890,998.19A5,5 0 1 1 1880,998.19A5,5 0 1 1 1890,998.19Z" style="fill:#00FF00" />
<path d="M135.46,286.05L329.86,491.11L524.25,635.45L718.64,729.33L913.03,810.61L1107.4,823.18L1301.8,925.38L1496.2,865.1L1690.6,944.8L1885,973.67" style="fill:none;stroke:#FF8000;stroke-width:4" />
<path d="M140.46,286.05A5,5 0 1 1 130.46,286.05A5,5 0 1 1 140.46,286.05Z" style="fill:#FF8000" />
<path d="M334.86,491.11A5,5 0 1 1 324.86,491.11A5,5 0 1 1 334.86,491.11Z" style="fill:#FF8000" />
<path d="M529.25,635.45A5,5 0 1 1 519.25,635.45A5,5 0 1 1 529.25,635.45Z" style="fill:#FF8000" />
<path d="M723.64,729.33A5,5 0 1 1 713.64,729.33A5,5 0 1 1 723.64,729.33Z" style="fill:#FF8000" />
<path d="M918.03,810.61A5,5 0 1 1 908.03,810.61A5,5 0 1 1 918.03,810.61Z" style="fill:#FF8000" />
<path d="M1112.4,823.18A5,5 0 1 1 1102.4,823.18A5,5 0 1 1 1112.4,823.18Z" style="fill:#FF8000" />
<path d="M1306.8,925.38A5,5 0 1 1 1296.8,925.38A5,5 0 1 1 1306.8,925.38Z" style="fill:#FF8000" />
<path d="M1501.2,865.1A5,5 0 1 1 1491.2,865.1A5,5 0 1 1 1501.2,865.1Z" style="fill:#FF8000" />
<path d="M1695.6,944.8A5,5 0 1 1 1685.6,944.8A5,5 0 1 1 1695.6,944.8Z" style="fill:#FF8000" />
<path d="M1890,973.67A5,5 0 1 1 1880,973.67A5,5 0 1 1 1890,973.67Z" style="fill:#FF8000" />
<path d="M1900,146.4L1920,146.4" style="fill:none;stroke:#FF0000;stroke-width:4" />
<path d="M1915,146.4A5,5 0 1 1 1905,146.4A5,5 0 1 1 1915,146.4Z" style="fill:#FF0000" />
<text x="1792.7" y="-141.42" transform="scale(1, -1)"
	style="font-family:Liberation Serif;font-variant:normal;font-weight:normal;font-style:normal;font-size:24px">std::vector</text>
<path d="M1900,126.03L1920,126.03" style="fill:none;stroke:#0000FF;stroke-width:4" />
<path d="M1915,126.03A5,5 0 1 1 1905,126.03A5,5 0 1 1 1915,126.03Z" style="fill:#0000FF" />
<text x="1669.4" y="-121.05" transform="scale(1, -1)"
	style="font-family:Liberation Serif;font-variant:normal;font-weight:normal;font-style:normal;font-size:24px">preallocated std::vector</text>
<path d="M1900,105.66L1920,105.66" style="fill:none;stroke:#00FF00;stroke-width:4" />
<path d="M1915,105.66A5,5 0 1 1 1905,105.66A5,5 0 1 1 1915,105.66Z" style="fill:#00FF00" />
<text x="1823.3" y="-100.69" transform="scale(1, -1)"
	style="font-family:Liberation Serif;font-variant:normal;font-weight:normal;font-style:normal;font-size:24px">std::list</text>
<path d="M1900,85.294L1920,85.294" style="fill:none;stroke:#FF8000;stroke-width:4" />
<path d="M1915,85.294A5,5 0 1 1 1905,85.294A5,5 0 1 1 1915,85.294Z" style="fill:#FF8000" />
<text x="1795.4" y="-80.319" transform="scale(1, -1)"
	style="font-family:Liberation Serif;font-variant:normal;font-weight:normal;font-style:normal;font-size:24px">std::deque</text>
</g>
</svg>
