<?xml version="1.0"?>
<!-- Generated by SVGo and Plotinum VG -->
<svg width="1920pt" height="1080pt" viewBox="0 0 1920 1080"
	xmlns="http://www.w3.org/2000/svg"
	xmlns:xlink="http://www.w3.org/1999/xlink">
<g transform="scale(1, -1) translate(0, -1080)">
<path d="M0,0L1920,0L1920,1080L0,1080Z" style="fill:#FFFFFF" />
<text x="735.77" y="-1040.9" transform="scale(1, -1)"
	style="font-family:Liberation Serif;font-variant:normal;font-weight:normal;font-style:normal;font-size:50px">push-back - Log Scale</text>
<text x="877.77" y="-9.7559" transform="scale(1, -1)"
	style="font-family:Liberation Serif;font-variant:normal;font-weight:normal;font-style:normal;font-size:30px">Number of elements</text>
<text x="85.462" y="-39.727" transform="scale(1, -1)"
	style="font-family:Liberation Serif;font-variant:normal;font-weight:normal;font-style:normal;font-size:20px">100000</text>
<text x="282.08" y="-39.727" transform="scale(1, -1)"
	style="font-family:Liberation Serif;font-variant:normal;font-weight:normal;font-style:normal;font-size:20px">200000</text>
<text x="478.69" y="-39.727" transform="scale(1, -1)"
	style="font-family:Liberation Serif;font-variant:normal;font-weight:normal;font-style:normal;font-size:20px">300000</text>
<text x="675.31" y="-39.727" transform="scale(1, -1)"
	style="font-family:Liberation Serif;font-variant:normal;font-weight:normal;font-style:normal;font-size:20px">400000</text>
<text x="871.92" y="-39.727" transform="scale(1, -1)"
	style="font-family:Liberation Serif;font-variant:normal;font-weight:normal;font-style:normal;font-size:20px">500000</text>
<text x="1068.5" y="-39.727" transform="scale(1, -1)"
	style="font-family:Liberation Serif;font-variant:normal;font-weight:normal;font-style:normal;font-size:20px">600000</text>
<text x="1265.2" y="-39.727" transform="scale(1, -1)"
	style="font-family:Liberation Serif;font-variant:normal;font-weight:normal;font-style:normal;font-size:20px">700000</text>
<text x="1461.8" y="-39.727" transform="scale(1, -1)"
	style="font-family:Liberation Serif;font-variant:normal;font-weight:normal;font-style:normal;font-size:20px">800000</text>
<text x="1658.4" y="-39.727" transform="scale(1, -1)"
	style="font-family:Liberation Serif;font-variant:normal;font-weight:normal;font-style:normal;font-size:20px">900000</text>
<text x="1850" y="-39.727" transform="scale(1, -1)"
	style="font-family:Liberation Serif;font-variant:normal;font-weight:normal;font-style:normal;font-size:20px">1000000</text>
<path d="M115.46,55.371L115.46,63.371" style="fill:none;stroke:#000000;stroke-width:0.5" />
<path d="M312.08,55.371L312.08,63.371" style="fill:none;stroke:#000000;stroke-width:0.5" />
<path d="M508.69,55.371L508.69,63.371" style="fill:none;stroke:#000000;stroke-width:0.5" />
<path d="M705.31,55.371L705.31,63.371" style="fill:none;stroke:#000000;stroke-width:0.5" />
<path d="M901.92,55.371L901.92,63.371" style="fill:none;stroke:#000000;stroke-width:0.5" />
<path d="M1098.5,55.371L1098.5,63.371" style="fill:none;stroke:#000000;stroke-width:0.5" />
<path d="M1295.2,55.371L1295.2,63.371" style="fill:none;stroke:#000000;stroke-width:0.5" />
<path d="M1491.8,55.371L1491.8,63.371" style="fill:none;stroke:#000000;stroke-width:0.5" />
<path d="M1688.4,55.371L1688.4,63.371" style="fill:none;stroke:#000000;stroke-width:0.5" />
<path d="M1885,55.371L1885,63.371" style="fill:none;stroke:#000000;stroke-width:0.5" />
<path d="M115.46,63.371L1885,63.371" style="fill:none;stroke:#000000;stroke-width:0.5" />
<g transform="rotate(90)">
<text x="509.33" y="23.467" transform="scale(1, -1)"
	style="font-family:Liberation Serif;font-variant:normal;font-weight:normal;font-style:normal;font-size:30px">log(μs)</text>
</g>
<text x="39.712" y="-674.66" transform="scale(1, -1)"
	style="font-family:Liberation Serif;font-variant:normal;font-weight:normal;font-style:normal;font-size:20px">20000</text>
<text x="39.712" y="-879.7" transform="scale(1, -1)"
	style="font-family:Liberation Serif;font-variant:normal;font-weight:normal;font-style:normal;font-size:20px">40000</text>
<text x="39.712" y="-999.65" transform="scale(1, -1)"
	style="font-family:Liberation Serif;font-variant:normal;font-weight:normal;font-style:normal;font-size:20px">60000</text>
<path d="M94.712,679.23L102.71,679.23" style="fill:none;stroke:#000000;stroke-width:0.5" />
<path d="M94.712,884.28L102.71,884.28" style="fill:none;stroke:#000000;stroke-width:0.5" />
<path d="M94.712,1004.2L102.71,1004.2" style="fill:none;stroke:#000000;stroke-width:0.5" />
<path d="M98.712,474.19L102.71,474.19" style="fill:none;stroke:#000000;stroke-width:0.5" />
<path d="M98.712,799.17L102.71,799.17" style="fill:none;stroke:#000000;stroke-width:0.5" />
<path d="M98.712,950.28L102.71,950.28" style="fill:none;stroke:#000000;stroke-width:0.5" />
<path d="M102.71,80.11L102.71,1024.6" style="fill:none;stroke:#000000;stroke-width:0.5" />
<path d="M115.46,80.11L115.46,1024.6" style="fill:none;stroke:#808080;stroke-width:0.25" />
<path d="M312.08,80.11L312.08,1024.6" style="fill:none;stroke:#808080;stroke-width:0.25" />
<path d="M508.69,80.11L508.69,1024.6" style="fill:none;stroke:#808080;stroke-width:0.25" />
<path d="M705.31,80.11L705.31,1024.6" style="fill:none;stroke:#808080;stroke-width:0.25" />
<path d="M901.92,80.11L901.92,1024.6" style="fill:none;stroke:#808080;stroke-width:0.25" />
<path d="M1098.5,80.11L1098.5,1024.6" style="fill:none;stroke:#808080;stroke-width:0.25" />
<path d="M1295.2,80.11L1295.2,1024.6" style="fill:none;stroke:#808080;stroke-width:0.25" />
<path d="M1491.8,80.11L1491.8,1024.6" style="fill:none;stroke:#808080;stroke-width:0.25" />
<path d="M1688.4,80.11L1688.4,1024.6" style="fill:none;stroke:#808080;stroke-width:0.25" />
<path d="M1885,80.11L1885,1024.6" style="fill:none;stroke:#808080;stroke-width:0.25" />
<path d="M115.46,679.23L1885,679.23" style="fill:none;stroke:#808080;stroke-width:0.25" />
<path d="M115.46,884.28L1885,884.28" style="fill:none;stroke:#808080;stroke-width:0.25" />
<path d="M115.46,1004.2L1885,1004.2" style="fill:none;stroke:#808080;stroke-width:0.25" />
<path d="M115.46,381.17L312.08,534.75L508.69,621.84L705.31,712.45L901.92,777.56L1098.5,891.2L1295.2,931.69L1491.8,941.93L1688.4,952.25L1885,996.43" style="fill:none;stroke:#FF0000;stroke-width:4" />
<path d="M120.46,381.17A5,5 0 1 1 110.46,381.17A5,5 0 1 1 120.46,381.17Z" style="fill:#FF0000" />
<path d="M317.08,534.75A5,5 0 1 1 307.08,534.75A5,5 0 1 1 317.08,534.75Z" style="fill:#FF0000" />
<path d="M513.69,621.84A5,5 0 1 1 503.69,621.84A5,5 0 1 1 513.69,621.84Z" style="fill:#FF0000" />
<path d="M710.31,712.45A5,5 0 1 1 700.31,712.45A5,5 0 1 1 710.31,712.45Z" style="fill:#FF0000" />
<path d="M906.92,777.56A5,5 0 1 1 896.92,777.56A5,5 0 1 1 906.92,777.56Z" style="fill:#FF0000" />
<path d="M1103.5,891.2A5,5 0 1 1 1093.5,891.2A5,5 0 1 1 1103.5,891.2Z" style="fill:#FF0000" />
<path d="M1300.2,931.69A5,5 0 1 1 1290.2,931.69A5,5 0 1 1 1300.2,931.69Z" style="fill:#FF0000" />
<path d="M1496.8,941.93A5,5 0 1 1 1486.8,941.93A5,5 0 1 1 1496.8,941.93Z" style="fill:#FF0000" />
<path d="M1693.4,952.25A5,5 0 1 1 1683.4,952.25A5,5 0 1 1 1693.4,952.25Z" style="fill:#FF0000" />
<path d="M1890,996.43A5,5 0 1 1 1880,996.43A5,5 0 1 1 1890,996.43Z" style="fill:#FF0000" />
<path d="M115.46,184.52L312.08,262.75L508.69,365.79L705.31,458.11L901.92,528.2L1098.5,553.34L1295.2,594.29L1491.8,663.67L1688.4,676.12L1885,728.34" style="fill:none;stroke:#0000FF;stroke-width:4" />
<path d="M120.46,184.52A5,5 0 1 1 110.46,184.52A5,5 0 1 1 120.46,184.52Z" style="fill:#0000FF" />
<path d="M317.08,262.75A5,5 0 1 1 307.08,262.75A5,5 0 1 1 317.08,262.75Z" style="fill:#0000FF" />
<path d="M513.69,365.79A5,5 0 1 1 503.69,365.79A5,5 0 1 1 513.69,365.79Z" style="fill:#0000FF" />
<path d="M710.31,458.11A5,5 0 1 1 700.31,458.11A5,5 0 1 1 710.31,458.11Z" style="fill:#0000FF" />
<path d="M906.92,528.2A5,5 0 1 1 896.92,528.2A5,5 0 1 1 906.92,528.2Z" style="fill:#0000FF" />
<path d="M1103.5,553.34A5,5 0 1 1 1093.5,553.34A5,5 0 1 1 1103.5,553.34Z" style="fill:#0000FF" />
<path d="M1300.2,594.29A5,5 0 1 1 1290.2,594.29A5,5 0 1 1 1300.2,594.29Z" style="fill:#0000FF" />
<path d="M1496.8,663.67A5,5 0 1 1 1486.8,663.67A5,5 0 1 1 1496.8,663.67Z" style="fill:#0000FF" />
<path d="M1693.4,676.12A5,5 0 1 1 1683.4,676.12A5,5 0 1 1 1693.4,676.12Z" style="fill:#0000FF" />
<path d="M1890,728.34A5,5 0 1 1 1880,728.34A5,5 0 1 1 1890,728.34Z" style="fill:#0000FF" />
<path d="M115.46,80.11L312.08,259.34L508.69,354.88L705.31,423.74L901.92,506.28L1098.5,574.88L1295.2,656.62L1491.8,714.77L1688.4,721.78L1885,757.17" style="fill:none;stroke:#00FF00;stroke-width:4" />
<path d="M120.46,80.11A5,5 0 1 1 110.46,80.11A5,5 0 1 1 120.46,80.11Z" style="fill:#00FF00" />
<path d="M317.08,259.34A5,5 0 1 1 307.08,259.34A5,5 0 1 1 317.08,259.34Z" style="fill:#00FF00" />
<path d="M513.69,354.88A5,5 0 1 1 503.69,354.88A5,5 0 1 1 513.69,354.88Z" style="fill:#00FF00" />
<path d="M710.31,423.74A5,5 0 1 1 700.31,423.74A5,5 0 1 1 710.31,423.74Z" style="fill:#00FF00" />
<path d="M906.92,506.28A5,5 0 1 1 896.92,506.28A5,5 0 1 1 906.92,506.28Z" style="fill:#00FF00" />
<path d="M1103.5,574.88A5,5 0 1 1 1093.5,574.88A5,5 0 1 1 1103.5,574.88Z" style="fill:#00FF00" />
<path d="M1300.2,656.62A5,5 0 1 1 1290.2,656.62A5,5 0 1 1 1300.2,656.62Z" style="fill:#00FF00" />
<path d="M1496.8,714.77A5,5 0 1 1 1486.8,714.77A5,5 0 1 1 1496.8,714.77Z" style="fill:#00FF00" />
<path d="M1693.4,721.78A5,5 0 1 1 1683.4,721.78A5,5 0 1 1 1693.4,721.78Z" style="fill:#00FF00" />
<path d="M1890,757.17A5,5 0 1 1 1880,757.17A5,5 0 1 1 1890,757.17Z" style="fill:#00FF00" />
<path d="M115.46,120.69L312.08,308.63L508.69,348.62L705.31,413.75L901.92,468.94L1098.5,525.8L1295.2,576.9L1491.8,628.36L1688.4,656.23L1885,692.51" style="fill:none;stroke:#FF8000;stroke-width:4" />
<path d="M120.46,120.69A5,5 0 1 1 110.46,120.69A5,5 0 1 1 120.46,120.69Z" style="fill:#FF8000" />
<path d="M317.08,308.63A5,5 0 1 1 307.08,308.63A5,5 0 1 1 317.08,308.63Z" style="fill:#FF8000" />
<path d="M513.69,348.62A5,5 0 1 1 503.69,348.62A5,5 0 1 1 513.69,348.62Z" style="fill:#FF8000" />
<path d="M710.31,413.75A5,5 0 1 1 700.31,413.75A5,5 0 1 1 710.31,413.75Z" style="fill:#FF8000" />
<path d="M906.92,468.94A5,5 0 1 1 896.92,468.94A5,5 0 1 1 906.92,468.94Z" style="fill:#FF8000" />
<path d="M1103.5,525.8A5,5 0 1 1 1093.5,525.8A5,5 0 1 1 1103.5,525.8Z" style="fill:#FF8000" />
<path d="M1300.2,576.9A5,5 0 1 1 1290.2,576.9A5,5 0 1 1 1300.2,576.9Z" style="fill:#FF8000" />
<path d="M1496.8,628.36A5,5 0 1 1 1486.8,628.36A5,5 0 1 1 1496.8,628.36Z" style="fill:#FF8000" />
<path d="M1693.4,656.23A5,5 0 1 1 1683.4,656.23A5,5 0 1 1 1693.4,656.23Z" style="fill:#FF8000" />
<path d="M1890,692.51A5,5 0 1 1 1880,692.51A5,5 0 1 1 1890,692.51Z" style="fill:#FF8000" />
<path d="M1900,146.4L1920,146.4" style="fill:none;stroke:#FF0000;stroke-width:4" />
<path d="M1915,146.4A5,5 0 1 1 1905,146.4A5,5 0 1 1 1915,146.4Z" style="fill:#FF0000" />
<text x="1823.3" y="-141.42" transform="scale(1, -1)"
	style="font-family:Liberation Serif;font-variant:normal;font-weight:normal;font-style:normal;font-size:24px">std::list</text>
<path d="M1900,126.03L1920,126.03" style="fill:none;stroke:#0000FF;stroke-width:4" />
<path d="M1915,126.03A5,5 0 1 1 1905,126.03A5,5 0 1 1 1915,126.03Z" style="fill:#0000FF" />
<text x="1795.4" y="-121.05" transform="scale(1, -1)"
	style="font-family:Liberation Serif;font-variant:normal;font-weight:normal;font-style:normal;font-size:24px">std::deque</text>
<path d="M1900,105.66L1920,105.66" style="fill:none;stroke:#00FF00;stroke-width:4" />
<path d="M1915,105.66A5,5 0 1 1 1905,105.66A5,5 0 1 1 1915,105.66Z" style="fill:#00FF00" />
<text x="1792.7" y="-100.69" transform="scale(1, -1)"
	style="font-family:Liberation Serif;font-variant:normal;font-weight:normal;font-style:normal;font-size:24px">std::vector</text>
<path d="M1900,85.294L1920,85.294" style="fill:none;stroke:#FF8000;stroke-width:4" />
<path d="M1915,85.294A5,5 0 1 1 1905,85.294A5,5 0 1 1 1915,85.294Z" style="fill:#FF8000" />
<text x="1669.4" y="-80.319" transform="scale(1, -1)"
	style="font-family:Liberation Serif;font-variant:normal;font-weight:normal;font-style:normal;font-size:24px">preallocated std::vector</text>
</g>
</svg>
