<?xml version="1.0"?>
<!-- Generated by SVGo and Plotinum VG -->
<svg width="1920pt" height="1080pt" viewBox="0 0 1920 1080"
	xmlns="http://www.w3.org/2000/svg"
	xmlns:xlink="http://www.w3.org/1999/xlink">
<g transform="scale(1, -1) translate(0, -1080)">
<path d="M0,0L1920,0L1920,1080L0,1080Z" style="fill:#FFFFFF" />
<text x="735.77" y="-1040.9" transform="scale(1, -1)"
	style="font-family:Liberation Serif;font-variant:normal;font-weight:normal;font-style:normal;font-size:50px">push-back - Log Scale</text>
<text x="882.77" y="-9.7559" transform="scale(1, -1)"
	style="font-family:Liberation Serif;font-variant:normal;font-weight:normal;font-style:normal;font-size:30px">Number of elements</text>
<text x="95.462" y="-39.727" transform="scale(1, -1)"
	style="font-family:Liberation Serif;font-variant:normal;font-weight:normal;font-style:normal;font-size:20px">100000</text>
<text x="290.97" y="-39.727" transform="scale(1, -1)"
	style="font-family:Liberation Serif;font-variant:normal;font-weight:normal;font-style:normal;font-size:20px">200000</text>
<text x="486.47" y="-39.727" transform="scale(1, -1)"
	style="font-family:Liberation Serif;font-variant:normal;font-weight:normal;font-style:normal;font-size:20px">300000</text>
<text x="681.97" y="-39.727" transform="scale(1, -1)"
	style="font-family:Liberation Serif;font-variant:normal;font-weight:normal;font-style:normal;font-size:20px">400000</text>
<text x="877.48" y="-39.727" transform="scale(1, -1)"
	style="font-family:Liberation Serif;font-variant:normal;font-weight:normal;font-style:normal;font-size:20px">500000</text>
<text x="1073" y="-39.727" transform="scale(1, -1)"
	style="font-family:Liberation Serif;font-variant:normal;font-weight:normal;font-style:normal;font-size:20px">600000</text>
<text x="1268.5" y="-39.727" transform="scale(1, -1)"
	style="font-family:Liberation Serif;font-variant:normal;font-weight:normal;font-style:normal;font-size:20px">700000</text>
<text x="1464" y="-39.727" transform="scale(1, -1)"
	style="font-family:Liberation Serif;font-variant:normal;font-weight:normal;font-style:normal;font-size:20px">800000</text>
<text x="1659.5" y="-39.727" transform="scale(1, -1)"
	style="font-family:Liberation Serif;font-variant:normal;font-weight:normal;font-style:normal;font-size:20px">900000</text>
<text x="1850" y="-39.727" transform="scale(1, -1)"
	style="font-family:Liberation Serif;font-variant:normal;font-weight:normal;font-style:normal;font-size:20px">1000000</text>
<path d="M125.46,55.371L125.46,63.371" style="fill:none;stroke:#000000;stroke-width:0.5" />
<path d="M320.97,55.371L320.97,63.371" style="fill:none;stroke:#000000;stroke-width:0.5" />
<path d="M516.47,55.371L516.47,63.371" style="fill:none;stroke:#000000;stroke-width:0.5" />
<path d="M711.97,55.371L711.97,63.371" style="fill:none;stroke:#000000;stroke-width:0.5" />
<path d="M907.48,55.371L907.48,63.371" style="fill:none;stroke:#000000;stroke-width:0.5" />
<path d="M1103,55.371L1103,63.371" style="fill:none;stroke:#000000;stroke-width:0.5" />
<path d="M1298.5,55.371L1298.5,63.371" style="fill:none;stroke:#000000;stroke-width:0.5" />
<path d="M1494,55.371L1494,63.371" style="fill:none;stroke:#000000;stroke-width:0.5" />
<path d="M1689.5,55.371L1689.5,63.371" style="fill:none;stroke:#000000;stroke-width:0.5" />
<path d="M1885,55.371L1885,63.371" style="fill:none;stroke:#000000;stroke-width:0.5" />
<path d="M125.46,63.371L1885,63.371" style="fill:none;stroke:#000000;stroke-width:0.5" />
<g transform="rotate(90)">
<text x="485.38" y="23.467" transform="scale(1, -1)"
	style="font-family:Liberation Serif;font-variant:normal;font-weight:normal;font-style:normal;font-size:30px">log(μs + 1)</text>
</g>
<text x="39.712" y="-600.76" transform="scale(1, -1)"
	style="font-family:Liberation Serif;font-variant:normal;font-weight:normal;font-style:normal;font-size:20px">100000</text>
<text x="39.712" y="-804.87" transform="scale(1, -1)"
	style="font-family:Liberation Serif;font-variant:normal;font-weight:normal;font-style:normal;font-size:20px">200000</text>
<text x="39.712" y="-924.27" transform="scale(1, -1)"
	style="font-family:Liberation Serif;font-variant:normal;font-weight:normal;font-style:normal;font-size:20px">300000</text>
<text x="39.712" y="-1009" transform="scale(1, -1)"
	style="font-family:Liberation Serif;font-variant:normal;font-weight:normal;font-style:normal;font-size:20px">400000</text>
<path d="M104.71,605.33L112.71,605.33" style="fill:none;stroke:#000000;stroke-width:0.5" />
<path d="M104.71,809.44L112.71,809.44" style="fill:none;stroke:#000000;stroke-width:0.5" />
<path d="M104.71,928.84L112.71,928.84" style="fill:none;stroke:#000000;stroke-width:0.5" />
<path d="M104.71,1013.6L112.71,1013.6" style="fill:none;stroke:#000000;stroke-width:0.5" />
<path d="M108.71,131.4L112.71,131.4" style="fill:none;stroke:#000000;stroke-width:0.5" />
<path d="M108.71,335.51L112.71,335.51" style="fill:none;stroke:#000000;stroke-width:0.5" />
<path d="M108.71,454.91L112.71,454.91" style="fill:none;stroke:#000000;stroke-width:0.5" />
<path d="M108.71,539.62L112.71,539.62" style="fill:none;stroke:#000000;stroke-width:0.5" />
<path d="M108.71,659.02L112.71,659.02" style="fill:none;stroke:#000000;stroke-width:0.5" />
<path d="M108.71,704.41L112.71,704.41" style="fill:none;stroke:#000000;stroke-width:0.5" />
<path d="M108.71,743.73L112.71,743.73" style="fill:none;stroke:#000000;stroke-width:0.5" />
<path d="M108.71,778.42L112.71,778.42" style="fill:none;stroke:#000000;stroke-width:0.5" />
<path d="M108.71,837.51L112.71,837.51" style="fill:none;stroke:#000000;stroke-width:0.5" />
<path d="M108.71,863.13L112.71,863.13" style="fill:none;stroke:#000000;stroke-width:0.5" />
<path d="M108.71,886.7L112.71,886.7" style="fill:none;stroke:#000000;stroke-width:0.5" />
<path d="M108.71,908.52L112.71,908.52" style="fill:none;stroke:#000000;stroke-width:0.5" />
<path d="M108.71,947.85L112.71,947.85" style="fill:none;stroke:#000000;stroke-width:0.5" />
<path d="M108.71,965.7L112.71,965.7" style="fill:none;stroke:#000000;stroke-width:0.5" />
<path d="M108.71,982.53L112.71,982.53" style="fill:none;stroke:#000000;stroke-width:0.5" />
<path d="M108.71,998.45L112.71,998.45" style="fill:none;stroke:#000000;stroke-width:0.5" />
<path d="M112.71,80.11L112.71,1023.6" style="fill:none;stroke:#000000;stroke-width:0.5" />
<path d="M125.46,80.11L125.46,1023.6" style="fill:none;stroke:#808080;stroke-width:0.25" />
<path d="M320.97,80.11L320.97,1023.6" style="fill:none;stroke:#808080;stroke-width:0.25" />
<path d="M516.47,80.11L516.47,1023.6" style="fill:none;stroke:#808080;stroke-width:0.25" />
<path d="M711.97,80.11L711.97,1023.6" style="fill:none;stroke:#808080;stroke-width:0.25" />
<path d="M907.48,80.11L907.48,1023.6" style="fill:none;stroke:#808080;stroke-width:0.25" />
<path d="M1103,80.11L1103,1023.6" style="fill:none;stroke:#808080;stroke-width:0.25" />
<path d="M1298.5,80.11L1298.5,1023.6" style="fill:none;stroke:#808080;stroke-width:0.25" />
<path d="M1494,80.11L1494,1023.6" style="fill:none;stroke:#808080;stroke-width:0.25" />
<path d="M1689.5,80.11L1689.5,1023.6" style="fill:none;stroke:#808080;stroke-width:0.25" />
<path d="M1885,80.11L1885,1023.6" style="fill:none;stroke:#808080;stroke-width:0.25" />
<path d="M125.46,605.33L1885,605.33" style="fill:none;stroke:#808080;stroke-width:0.25" />
<path d="M125.46,809.44L1885,809.44" style="fill:none;stroke:#808080;stroke-width:0.25" />
<path d="M125.46,928.84L1885,928.84" style="fill:none;stroke:#808080;stroke-width:0.25" />
<path d="M125.46,1013.6L1885,1013.6" style="fill:none;stroke:#808080;stroke-width:0.25" />
<path d="M125.46,293.09L320.97,483.65L516.47,738.21L711.97,704.35L907.48,754.15L1103,890.42L1298.5,897.65L1494,902.54L1689.5,929.83L1885,995.58" style="fill:none;stroke:#FF0000;stroke-width:4" />
<path d="M130.46,293.09A5,5 0 1 1 120.46,293.09A5,5 0 1 1 130.46,293.09Z" style="fill:#FF0000" />
<path d="M325.97,483.65A5,5 0 1 1 315.97,483.65A5,5 0 1 1 325.97,483.65Z" style="fill:#FF0000" />
<path d="M521.47,738.21A5,5 0 1 1 511.47,738.21A5,5 0 1 1 521.47,738.21Z" style="fill:#FF0000" />
<path d="M716.97,704.35A5,5 0 1 1 706.97,704.35A5,5 0 1 1 716.97,704.35Z" style="fill:#FF0000" />
<path d="M912.48,754.15A5,5 0 1 1 902.48,754.15A5,5 0 1 1 912.48,754.15Z" style="fill:#FF0000" />
<path d="M1108,890.42A5,5 0 1 1 1098,890.42A5,5 0 1 1 1108,890.42Z" style="fill:#FF0000" />
<path d="M1303.5,897.65A5,5 0 1 1 1293.5,897.65A5,5 0 1 1 1303.5,897.65Z" style="fill:#FF0000" />
<path d="M1499,902.54A5,5 0 1 1 1489,902.54A5,5 0 1 1 1499,902.54Z" style="fill:#FF0000" />
<path d="M1694.5,929.83A5,5 0 1 1 1684.5,929.83A5,5 0 1 1 1694.5,929.83Z" style="fill:#FF0000" />
<path d="M1890,995.58A5,5 0 1 1 1880,995.58A5,5 0 1 1 1890,995.58Z" style="fill:#FF0000" />
<path d="M125.46,80.11L320.97,359.67L516.47,413.61L711.97,482.38L907.48,625.54L1103,611.39L1298.5,699.04L1494,685.71L1689.5,719.79L1885,778.78" style="fill:none;stroke:#0000FF;stroke-width:4" />
<path d="M130.46,80.11A5,5 0 1 1 120.46,80.11A5,5 0 1 1 130.46,80.11Z" style="fill:#0000FF" />
<path d="M325.97,359.67A5,5 0 1 1 315.97,359.67A5,5 0 1 1 325.97,359.67Z" style="fill:#0000FF" />
<path d="M521.47,413.61A5,5 0 1 1 511.47,413.61A5,5 0 1 1 521.47,413.61Z" style="fill:#0000FF" />
<path d="M716.97,482.38A5,5 0 1 1 706.97,482.38A5,5 0 1 1 716.97,482.38Z" style="fill:#0000FF" />
<path d="M912.48,625.54A5,5 0 1 1 902.48,625.54A5,5 0 1 1 912.48,625.54Z" style="fill:#0000FF" />
<path d="M1108,611.39A5,5 0 1 1 1098,611.39A5,5 0 1 1 1108,611.39Z" style="fill:#0000FF" />
<path d="M1303.5,699.04A5,5 0 1 1 1293.5,699.04A5,5 0 1 1 1303.5,699.04Z" style="fill:#0000FF" />
<path d="M1499,685.71A5,5 0 1 1 1489,685.71A5,5 0 1 1 1499,685.71Z" style="fill:#0000FF" />
<path d="M1694.5,719.79A5,5 0 1 1 1684.5,719.79A5,5 0 1 1 1694.5,719.79Z" style="fill:#0000FF" />
<path d="M1890,778.78A5,5 0 1 1 1880,778.78A5,5 0 1 1 1890,778.78Z" style="fill:#0000FF" />
<path d="M125.46,302.52L320.97,477.55L516.47,613.23L711.97,684.74L907.48,745.16L1103,828.15L1298.5,860.78L1494,899.86L1689.5,939.89L1885,976.34" style="fill:none;stroke:#00FF00;stroke-width:4" />
<path d="M130.46,302.52A5,5 0 1 1 120.46,302.52A5,5 0 1 1 130.46,302.52Z" style="fill:#00FF00" />
<path d="M325.97,477.55A5,5 0 1 1 315.97,477.55A5,5 0 1 1 325.97,477.55Z" style="fill:#00FF00" />
<path d="M521.47,613.23A5,5 0 1 1 511.47,613.23A5,5 0 1 1 521.47,613.23Z" style="fill:#00FF00" />
<path d="M716.97,684.74A5,5 0 1 1 706.97,684.74A5,5 0 1 1 716.97,684.74Z" style="fill:#00FF00" />
<path d="M912.48,745.16A5,5 0 1 1 902.48,745.16A5,5 0 1 1 912.48,745.16Z" style="fill:#00FF00" />
<path d="M1108,828.15A5,5 0 1 1 1098,828.15A5,5 0 1 1 1108,828.15Z" style="fill:#00FF00" />
<path d="M1303.5,860.78A5,5 0 1 1 1293.5,860.78A5,5 0 1 1 1303.5,860.78Z" style="fill:#00FF00" />
<path d="M1499,899.86A5,5 0 1 1 1489,899.86A5,5 0 1 1 1499,899.86Z" style="fill:#00FF00" />
<path d="M1694.5,939.89A5,5 0 1 1 1684.5,939.89A5,5 0 1 1 1694.5,939.89Z" style="fill:#00FF00" />
<path d="M1890,976.34A5,5 0 1 1 1880,976.34A5,5 0 1 1 1890,976.34Z" style="fill:#00FF00" />
<path d="M125.46,337.04L320.97,507.55L516.47,650L711.97,711.3L907.48,799.05L1103,841.43L1298.5,894L1494,934.75L1689.5,964.98L1885,989.04" style="fill:none;stroke:#FF8000;stroke-width:4" />
<path d="M130.46,337.04A5,5 0 1 1 120.46,337.04A5,5 0 1 1 130.46,337.04Z" style="fill:#FF8000" />
<path d="M325.97,507.55A5,5 0 1 1 315.97,507.55A5,5 0 1 1 325.97,507.55Z" style="fill:#FF8000" />
<path d="M521.47,650A5,5 0 1 1 511.47,650A5,5 0 1 1 521.47,650Z" style="fill:#FF8000" />
<path d="M716.97,711.3A5,5 0 1 1 706.97,711.3A5,5 0 1 1 716.97,711.3Z" style="fill:#FF8000" />
<path d="M912.48,799.05A5,5 0 1 1 902.48,799.05A5,5 0 1 1 912.48,799.05Z" style="fill:#FF8000" />
<path d="M1108,841.43A5,5 0 1 1 1098,841.43A5,5 0 1 1 1108,841.43Z" style="fill:#FF8000" />
<path d="M1303.5,894A5,5 0 1 1 1293.5,894A5,5 0 1 1 1303.5,894Z" style="fill:#FF8000" />
<path d="M1499,934.75A5,5 0 1 1 1489,934.75A5,5 0 1 1 1499,934.75Z" style="fill:#FF8000" />
<path d="M1694.5,964.98A5,5 0 1 1 1684.5,964.98A5,5 0 1 1 1694.5,964.98Z" style="fill:#FF8000" />
<path d="M1890,989.04A5,5 0 1 1 1880,989.04A5,5 0 1 1 1890,989.04Z" style="fill:#FF8000" />
<path d="M1900,146.4L1920,146.4" style="fill:none;stroke:#FF0000;stroke-width:4" />
<path d="M1915,146.4A5,5 0 1 1 1905,146.4A5,5 0 1 1 1915,146.4Z" style="fill:#FF0000" />
<text x="1792.7" y="-141.42" transform="scale(1, -1)"
	style="font-family:Liberation Serif;font-variant:normal;font-weight:normal;font-style:normal;font-size:24px">std::vector</text>
<path d="M1900,126.03L1920,126.03" style="fill:none;stroke:#0000FF;stroke-width:4" />
<path d="M1915,126.03A5,5 0 1 1 1905,126.03A5,5 0 1 1 1915,126.03Z" style="fill:#0000FF" />
<text x="1669.4" y="-121.05" transform="scale(1, -1)"
	style="font-family:Liberation Serif;font-variant:normal;font-weight:normal;font-style:normal;font-size:24px">preallocated std::vector</text>
<path d="M1900,105.66L1920,105.66" style="fill:none;stroke:#00FF00;stroke-width:4" />
<path d="M1915,105.66A5,5 0 1 1 1905,105.66A5,5 0 1 1 1915,105.66Z" style="fill:#00FF00" />
<text x="1823.3" y="-100.69" transform="scale(1, -1)"
	style="font-family:Liberation Serif;font-variant:normal;font-weight:normal;font-style:normal;font-size:24px">std::list</text>
<path d="M1900,85.294L1920,85.294" style="fill:none;stroke:#FF8000;stroke-width:4" />
<path d="M1915,85.294A5,5 0 1 1 1905,85.294A5,5 0 1 1 1915,85.294Z" style="fill:#FF8000" />
<text x="1795.4" y="-80.319" transform="scale(1, -1)"
	style="font-family:Liberation Serif;font-variant:normal;font-weight:normal;font-style:normal;font-size:24px">std::deque</text>
</g>
</svg>
