<?xml version="1.0"?>
<!-- Generated by SVGo and Plotinum VG -->
<svg width="1920pt" height="1080pt" viewBox="0 0 1920 1080"
	xmlns="http://www.w3.org/2000/svg"
	xmlns:xlink="http://www.w3.org/1999/xlink">
<g transform="scale(1, -1) translate(0, -1080)">
<path d="M0,0L1920,0L1920,1080L0,1080Z" style="fill:#FFFFFF" />
<text x="857.25" y="-1040.9" transform="scale(1, -1)"
	style="font-family:Liberation Serif;font-variant:normal;font-weight:normal;font-style:normal;font-size:50px">push-back</text>
<text x="877.77" y="-9.7559" transform="scale(1, -1)"
	style="font-family:Liberation Serif;font-variant:normal;font-weight:normal;font-style:normal;font-size:30px">Number of elements</text>
<text x="85.462" y="-39.727" transform="scale(1, -1)"
	style="font-family:Liberation Serif;font-variant:normal;font-weight:normal;font-style:normal;font-size:20px">100000</text>
<text x="282.08" y="-39.727" transform="scale(1, -1)"
	style="font-family:Liberation Serif;font-variant:normal;font-weight:normal;font-style:normal;font-size:20px">200000</text>
<text x="478.69" y="-39.727" transform="scale(1, -1)"
	style="font-family:Liberation Serif;font-variant:normal;font-weight:normal;font-style:normal;font-size:20px">300000</text>
<text x="675.31" y="-39.727" transform="scale(1, -1)"
	style="font-family:Liberation Serif;font-variant:normal;font-weight:normal;font-style:normal;font-size:20px">400000</text>
<text x="871.92" y="-39.727" transform="scale(1, -1)"
	style="font-family:Liberation Serif;font-variant:normal;font-weight:normal;font-style:normal;font-size:20px">500000</text>
<text x="1068.5" y="-39.727" transform="scale(1, -1)"
	style="font-family:Liberation Serif;font-variant:normal;font-weight:normal;font-style:normal;font-size:20px">600000</text>
<text x="1265.2" y="-39.727" transform="scale(1, -1)"
	style="font-family:Liberation Serif;font-variant:normal;font-weight:normal;font-style:normal;font-size:20px">700000</text>
<text x="1461.8" y="-39.727" transform="scale(1, -1)"
	style="font-family:Liberation Serif;font-variant:normal;font-weight:normal;font-style:normal;font-size:20px">800000</text>
<text x="1658.4" y="-39.727" transform="scale(1, -1)"
	style="font-family:Liberation Serif;font-variant:normal;font-weight:normal;font-style:normal;font-size:20px">900000</text>
<text x="1850" y="-39.727" transform="scale(1, -1)"
	style="font-family:Liberation Serif;font-variant:normal;font-weight:normal;font-style:normal;font-size:20px">1000000</text>
<path d="M115.46,55.371L115.46,63.371" style="fill:none;stroke:#000000;stroke-width:0.5" />
<path d="M312.08,55.371L312.08,63.371" style="fill:none;stroke:#000000;stroke-width:0.5" />
<path d="M508.69,55.371L508.69,63.371" style="fill:none;stroke:#000000;stroke-width:0.5" />
<path d="M705.31,55.371L705.31,63.371" style="fill:none;stroke:#000000;stroke-width:0.5" />
<path d="M901.92,55.371L901.92,63.371" style="fill:none;stroke:#000000;stroke-width:0.5" />
<path d="M1098.5,55.371L1098.5,63.371" style="fill:none;stroke:#000000;stroke-width:0.5" />
<path d="M1295.2,55.371L1295.2,63.371" style="fill:none;stroke:#000000;stroke-width:0.5" />
<path d="M1491.8,55.371L1491.8,63.371" style="fill:none;stroke:#000000;stroke-width:0.5" />
<path d="M1688.4,55.371L1688.4,63.371" style="fill:none;stroke:#000000;stroke-width:0.5" />
<path d="M1885,55.371L1885,63.371" style="fill:none;stroke:#000000;stroke-width:0.5" />
<path d="M115.46,63.371L1885,63.371" style="fill:none;stroke:#000000;stroke-width:0.5" />
<g transform="rotate(90)">
<text x="538.49" y="23.467" transform="scale(1, -1)"
	style="font-family:Liberation Serif;font-variant:normal;font-weight:normal;font-style:normal;font-size:30px">μs</text>
</g>
<text x="39.712" y="-167.1" transform="scale(1, -1)"
	style="font-family:Liberation Serif;font-variant:normal;font-weight:normal;font-style:normal;font-size:20px">10000</text>
<text x="39.712" y="-550.48" transform="scale(1, -1)"
	style="font-family:Liberation Serif;font-variant:normal;font-weight:normal;font-style:normal;font-size:20px">40000</text>
<text x="39.712" y="-933.85" transform="scale(1, -1)"
	style="font-family:Liberation Serif;font-variant:normal;font-weight:normal;font-style:normal;font-size:20px">70000</text>
<path d="M94.712,171.67L102.71,171.67" style="fill:none;stroke:#000000;stroke-width:0.5" />
<path d="M94.712,555.05L102.71,555.05" style="fill:none;stroke:#000000;stroke-width:0.5" />
<path d="M94.712,938.42L102.71,938.42" style="fill:none;stroke:#000000;stroke-width:0.5" />
<path d="M98.712,299.46L102.71,299.46" style="fill:none;stroke:#000000;stroke-width:0.5" />
<path d="M98.712,427.26L102.71,427.26" style="fill:none;stroke:#000000;stroke-width:0.5" />
<path d="M98.712,682.84L102.71,682.84" style="fill:none;stroke:#000000;stroke-width:0.5" />
<path d="M98.712,810.63L102.71,810.63" style="fill:none;stroke:#000000;stroke-width:0.5" />
<path d="M102.71,80.11L102.71,1024.6" style="fill:none;stroke:#000000;stroke-width:0.5" />
<path d="M115.46,80.11L115.46,1024.6" style="fill:none;stroke:#808080;stroke-width:0.25" />
<path d="M312.08,80.11L312.08,1024.6" style="fill:none;stroke:#808080;stroke-width:0.25" />
<path d="M508.69,80.11L508.69,1024.6" style="fill:none;stroke:#808080;stroke-width:0.25" />
<path d="M705.31,80.11L705.31,1024.6" style="fill:none;stroke:#808080;stroke-width:0.25" />
<path d="M901.92,80.11L901.92,1024.6" style="fill:none;stroke:#808080;stroke-width:0.25" />
<path d="M1098.5,80.11L1098.5,1024.6" style="fill:none;stroke:#808080;stroke-width:0.25" />
<path d="M1295.2,80.11L1295.2,1024.6" style="fill:none;stroke:#808080;stroke-width:0.25" />
<path d="M1491.8,80.11L1491.8,1024.6" style="fill:none;stroke:#808080;stroke-width:0.25" />
<path d="M1688.4,80.11L1688.4,1024.6" style="fill:none;stroke:#808080;stroke-width:0.25" />
<path d="M1885,80.11L1885,1024.6" style="fill:none;stroke:#808080;stroke-width:0.25" />
<path d="M115.46,171.67L1885,171.67" style="fill:none;stroke:#808080;stroke-width:0.25" />
<path d="M115.46,555.05L1885,555.05" style="fill:none;stroke:#808080;stroke-width:0.25" />
<path d="M115.46,938.42L1885,938.42" style="fill:none;stroke:#808080;stroke-width:0.25" />
<path d="M115.46,130.54L312.08,194.22L508.69,291.82L705.31,376.62L901.92,506.35L1098.5,591.72L1295.2,610.83L1491.8,676L1688.4,776.84L1885,935.47" style="fill:none;stroke:#FF0000;stroke-width:4" />
<path d="M120.46,130.54A5,5 0 1 1 110.46,130.54A5,5 0 1 1 120.46,130.54Z" style="fill:#FF0000" />
<path d="M317.08,194.22A5,5 0 1 1 307.08,194.22A5,5 0 1 1 317.08,194.22Z" style="fill:#FF0000" />
<path d="M513.69,291.82A5,5 0 1 1 503.69,291.82A5,5 0 1 1 513.69,291.82Z" style="fill:#FF0000" />
<path d="M710.31,376.62A5,5 0 1 1 700.31,376.62A5,5 0 1 1 710.31,376.62Z" style="fill:#FF0000" />
<path d="M906.92,506.35A5,5 0 1 1 896.92,506.35A5,5 0 1 1 906.92,506.35Z" style="fill:#FF0000" />
<path d="M1103.5,591.72A5,5 0 1 1 1093.5,591.72A5,5 0 1 1 1103.5,591.72Z" style="fill:#FF0000" />
<path d="M1300.2,610.83A5,5 0 1 1 1290.2,610.83A5,5 0 1 1 1300.2,610.83Z" style="fill:#FF0000" />
<path d="M1496.8,676A5,5 0 1 1 1486.8,676A5,5 0 1 1 1496.8,676Z" style="fill:#FF0000" />
<path d="M1693.4,776.84A5,5 0 1 1 1683.4,776.84A5,5 0 1 1 1693.4,776.84Z" style="fill:#FF0000" />
<path d="M1890,935.47A5,5 0 1 1 1880,935.47A5,5 0 1 1 1890,935.47Z" style="fill:#FF0000" />
<path d="M115.46,126L312.08,135.69L508.69,183.84L705.31,218.55L901.92,286.42L1098.5,333.89L1295.2,409.49L1491.8,474.87L1688.4,555.06L1885,633.81" style="fill:none;stroke:#0000FF;stroke-width:4" />
<path d="M120.46,126A5,5 0 1 1 110.46,126A5,5 0 1 1 120.46,126Z" style="fill:#0000FF" />
<path d="M317.08,135.69A5,5 0 1 1 307.08,135.69A5,5 0 1 1 317.08,135.69Z" style="fill:#0000FF" />
<path d="M513.69,183.84A5,5 0 1 1 503.69,183.84A5,5 0 1 1 513.69,183.84Z" style="fill:#0000FF" />
<path d="M710.31,218.55A5,5 0 1 1 700.31,218.55A5,5 0 1 1 710.31,218.55Z" style="fill:#0000FF" />
<path d="M906.92,286.42A5,5 0 1 1 896.92,286.42A5,5 0 1 1 906.92,286.42Z" style="fill:#0000FF" />
<path d="M1103.5,333.89A5,5 0 1 1 1093.5,333.89A5,5 0 1 1 1103.5,333.89Z" style="fill:#0000FF" />
<path d="M1300.2,409.49A5,5 0 1 1 1290.2,409.49A5,5 0 1 1 1300.2,409.49Z" style="fill:#0000FF" />
<path d="M1496.8,474.87A5,5 0 1 1 1486.8,474.87A5,5 0 1 1 1496.8,474.87Z" style="fill:#0000FF" />
<path d="M1693.4,555.06A5,5 0 1 1 1683.4,555.06A5,5 0 1 1 1693.4,555.06Z" style="fill:#0000FF" />
<path d="M1890,633.81A5,5 0 1 1 1880,633.81A5,5 0 1 1 1890,633.81Z" style="fill:#0000FF" />
<path d="M115.46,86.462L312.08,130.18L508.69,205.36L705.31,257.93L901.92,306.62L1098.5,412.76L1295.2,420.99L1491.8,431.31L1688.4,460.67L1885,509.4" style="fill:none;stroke:#00FF00;stroke-width:4" />
<path d="M120.46,86.462A5,5 0 1 1 110.46,86.462A5,5 0 1 1 120.46,86.462Z" style="fill:#00FF00" />
<path d="M317.08,130.18A5,5 0 1 1 307.08,130.18A5,5 0 1 1 317.08,130.18Z" style="fill:#00FF00" />
<path d="M513.69,205.36A5,5 0 1 1 503.69,205.36A5,5 0 1 1 513.69,205.36Z" style="fill:#00FF00" />
<path d="M710.31,257.93A5,5 0 1 1 700.31,257.93A5,5 0 1 1 710.31,257.93Z" style="fill:#00FF00" />
<path d="M906.92,306.62A5,5 0 1 1 896.92,306.62A5,5 0 1 1 906.92,306.62Z" style="fill:#00FF00" />
<path d="M1103.5,412.76A5,5 0 1 1 1093.5,412.76A5,5 0 1 1 1103.5,412.76Z" style="fill:#00FF00" />
<path d="M1300.2,420.99A5,5 0 1 1 1290.2,420.99A5,5 0 1 1 1300.2,420.99Z" style="fill:#00FF00" />
<path d="M1496.8,431.31A5,5 0 1 1 1486.8,431.31A5,5 0 1 1 1496.8,431.31Z" style="fill:#00FF00" />
<path d="M1693.4,460.67A5,5 0 1 1 1683.4,460.67A5,5 0 1 1 1693.4,460.67Z" style="fill:#00FF00" />
<path d="M1890,509.4A5,5 0 1 1 1880,509.4A5,5 0 1 1 1890,509.4Z" style="fill:#00FF00" />
<path d="M115.46,80.11L312.08,118.42L508.69,148.04L705.31,174.52L901.92,235.22L1098.5,316.4L1295.2,328.26L1491.8,337.88L1688.4,365.58L1885,417.06" style="fill:none;stroke:#FF8000;stroke-width:4" />
<path d="M120.46,80.11A5,5 0 1 1 110.46,80.11A5,5 0 1 1 120.46,80.11Z" style="fill:#FF8000" />
<path d="M317.08,118.42A5,5 0 1 1 307.08,118.42A5,5 0 1 1 317.08,118.42Z" style="fill:#FF8000" />
<path d="M513.69,148.04A5,5 0 1 1 503.69,148.04A5,5 0 1 1 513.69,148.04Z" style="fill:#FF8000" />
<path d="M710.31,174.52A5,5 0 1 1 700.31,174.52A5,5 0 1 1 710.31,174.52Z" style="fill:#FF8000" />
<path d="M906.92,235.22A5,5 0 1 1 896.92,235.22A5,5 0 1 1 906.92,235.22Z" style="fill:#FF8000" />
<path d="M1103.5,316.4A5,5 0 1 1 1093.5,316.4A5,5 0 1 1 1103.5,316.4Z" style="fill:#FF8000" />
<path d="M1300.2,328.26A5,5 0 1 1 1290.2,328.26A5,5 0 1 1 1300.2,328.26Z" style="fill:#FF8000" />
<path d="M1496.8,337.88A5,5 0 1 1 1486.8,337.88A5,5 0 1 1 1496.8,337.88Z" style="fill:#FF8000" />
<path d="M1693.4,365.58A5,5 0 1 1 1683.4,365.58A5,5 0 1 1 1693.4,365.58Z" style="fill:#FF8000" />
<path d="M1890,417.06A5,5 0 1 1 1880,417.06A5,5 0 1 1 1890,417.06Z" style="fill:#FF8000" />
<path d="M1900,146.4L1920,146.4" style="fill:none;stroke:#FF0000;stroke-width:4" />
<path d="M1915,146.4A5,5 0 1 1 1905,146.4A5,5 0 1 1 1915,146.4Z" style="fill:#FF0000" />
<text x="1823.3" y="-141.42" transform="scale(1, -1)"
	style="font-family:Liberation Serif;font-variant:normal;font-weight:normal;font-style:normal;font-size:24px">std::list</text>
<path d="M1900,126.03L1920,126.03" style="fill:none;stroke:#0000FF;stroke-width:4" />
<path d="M1915,126.03A5,5 0 1 1 1905,126.03A5,5 0 1 1 1915,126.03Z" style="fill:#0000FF" />
<text x="1795.4" y="-121.05" transform="scale(1, -1)"
	style="font-family:Liberation Serif;font-variant:normal;font-weight:normal;font-style:normal;font-size:24px">std::deque</text>
<path d="M1900,105.66L1920,105.66" style="fill:none;stroke:#00FF00;stroke-width:4" />
<path d="M1915,105.66A5,5 0 1 1 1905,105.66A5,5 0 1 1 1915,105.66Z" style="fill:#00FF00" />
<text x="1792.7" y="-100.69" transform="scale(1, -1)"
	style="font-family:Liberation Serif;font-variant:normal;font-weight:normal;font-style:normal;font-size:24px">std::vector</text>
<path d="M1900,85.294L1920,85.294" style="fill:none;stroke:#FF8000;stroke-width:4" />
<path d="M1915,85.294A5,5 0 1 1 1905,85.294A5,5 0 1 1 1915,85.294Z" style="fill:#FF8000" />
<text x="1669.4" y="-80.319" transform="scale(1, -1)"
	style="font-family:Liberation Serif;font-variant:normal;font-weight:normal;font-style:normal;font-size:24px">preallocated std::vector</text>
</g>
</svg>
