<?xml version="1.0"?>
<!-- Generated by SVGo and Plotinum VG -->
<svg width="1920pt" height="1080pt" viewBox="0 0 1920 1080"
	xmlns="http://www.w3.org/2000/svg"
	xmlns:xlink="http://www.w3.org/1999/xlink">
<g transform="scale(1, -1) translate(0, -1080)">
<path d="M0,0L1920,0L1920,1080L0,1080Z" style="fill:#FFFFFF" />
<text x="735.77" y="-1040.9" transform="scale(1, -1)"
	style="font-family:Liberation Serif;font-variant:normal;font-weight:normal;font-style:normal;font-size:50px">push-back - Log Scale</text>
<text x="877.77" y="-9.7559" transform="scale(1, -1)"
	style="font-family:Liberation Serif;font-variant:normal;font-weight:normal;font-style:normal;font-size:30px">Number of elements</text>
<text x="85.462" y="-39.727" transform="scale(1, -1)"
	style="font-family:Liberation Serif;font-variant:normal;font-weight:normal;font-style:normal;font-size:20px">100000</text>
<text x="282.08" y="-39.727" transform="scale(1, -1)"
	style="font-family:Liberation Serif;font-variant:normal;font-weight:normal;font-style:normal;font-size:20px">200000</text>
<text x="478.69" y="-39.727" transform="scale(1, -1)"
	style="font-family:Liberation Serif;font-variant:normal;font-weight:normal;font-style:normal;font-size:20px">300000</text>
<text x="675.31" y="-39.727" transform="scale(1, -1)"
	style="font-family:Liberation Serif;font-variant:normal;font-weight:normal;font-style:normal;font-size:20px">400000</text>
<text x="871.92" y="-39.727" transform="scale(1, -1)"
	style="font-family:Liberation Serif;font-variant:normal;font-weight:normal;font-style:normal;font-size:20px">500000</text>
<text x="1068.5" y="-39.727" transform="scale(1, -1)"
	style="font-family:Liberation Serif;font-variant:normal;font-weight:normal;font-style:normal;font-size:20px">600000</text>
<text x="1265.2" y="-39.727" transform="scale(1, -1)"
	style="font-family:Liberation Serif;font-variant:normal;font-weight:normal;font-style:normal;font-size:20px">700000</text>
<text x="1461.8" y="-39.727" transform="scale(1, -1)"
	style="font-family:Liberation Serif;font-variant:normal;font-weight:normal;font-style:normal;font-size:20px">800000</text>
<text x="1658.4" y="-39.727" transform="scale(1, -1)"
	style="font-family:Liberation Serif;font-variant:normal;font-weight:normal;font-style:normal;font-size:20px">900000</text>
<text x="1850" y="-39.727" transform="scale(1, -1)"
	style="font-family:Liberation Serif;font-variant:normal;font-weight:normal;font-style:normal;font-size:20px">1000000</text>
<path d="M115.46,55.371L115.46,63.371" style="fill:none;stroke:#000000;stroke-width:0.5" />
<path d="M312.08,55.371L312.08,63.371" style="fill:none;stroke:#000000;stroke-width:0.5" />
<path d="M508.69,55.371L508.69,63.371" style="fill:none;stroke:#000000;stroke-width:0.5" />
<path d="M705.31,55.371L705.31,63.371" style="fill:none;stroke:#000000;stroke-width:0.5" />
<path d="M901.92,55.371L901.92,63.371" style="fill:none;stroke:#000000;stroke-width:0.5" />
<path d="M1098.5,55.371L1098.5,63.371" style="fill:none;stroke:#000000;stroke-width:0.5" />
<path d="M1295.2,55.371L1295.2,63.371" style="fill:none;stroke:#000000;stroke-width:0.5" />
<path d="M1491.8,55.371L1491.8,63.371" style="fill:none;stroke:#000000;stroke-width:0.5" />
<path d="M1688.4,55.371L1688.4,63.371" style="fill:none;stroke:#000000;stroke-width:0.5" />
<path d="M1885,55.371L1885,63.371" style="fill:none;stroke:#000000;stroke-width:0.5" />
<path d="M115.46,63.371L1885,63.371" style="fill:none;stroke:#000000;stroke-width:0.5" />
<g transform="rotate(90)">
<text x="504.95" y="23.467" transform="scale(1, -1)"
	style="font-family:Liberation Serif;font-variant:normal;font-weight:normal;font-style:normal;font-size:30px">log(μs)</text>
</g>
<text x="39.712" y="-414.75" transform="scale(1, -1)"
	style="font-family:Liberation Serif;font-variant:normal;font-weight:normal;font-style:normal;font-size:20px">10000</text>
<text x="39.712" y="-838.09" transform="scale(1, -1)"
	style="font-family:Liberation Serif;font-variant:normal;font-weight:normal;font-style:normal;font-size:20px">40000</text>
<text x="39.712" y="-1009" transform="scale(1, -1)"
	style="font-family:Liberation Serif;font-variant:normal;font-weight:normal;font-style:normal;font-size:20px">70000</text>
<path d="M94.712,419.32L102.71,419.32" style="fill:none;stroke:#000000;stroke-width:0.5" />
<path d="M94.712,842.66L102.71,842.66" style="fill:none;stroke:#000000;stroke-width:0.5" />
<path d="M94.712,1013.6L102.71,1013.6" style="fill:none;stroke:#000000;stroke-width:0.5" />
<path d="M98.712,630.99L102.71,630.99" style="fill:none;stroke:#000000;stroke-width:0.5" />
<path d="M98.712,754.81L102.71,754.81" style="fill:none;stroke:#000000;stroke-width:0.5" />
<path d="M98.712,910.8L102.71,910.8" style="fill:none;stroke:#000000;stroke-width:0.5" />
<path d="M98.712,966.48L102.71,966.48" style="fill:none;stroke:#000000;stroke-width:0.5" />
<path d="M102.71,80.11L102.71,1015.9" style="fill:none;stroke:#000000;stroke-width:0.5" />
<path d="M115.46,80.11L115.46,1015.9" style="fill:none;stroke:#808080;stroke-width:0.25" />
<path d="M312.08,80.11L312.08,1015.9" style="fill:none;stroke:#808080;stroke-width:0.25" />
<path d="M508.69,80.11L508.69,1015.9" style="fill:none;stroke:#808080;stroke-width:0.25" />
<path d="M705.31,80.11L705.31,1015.9" style="fill:none;stroke:#808080;stroke-width:0.25" />
<path d="M901.92,80.11L901.92,1015.9" style="fill:none;stroke:#808080;stroke-width:0.25" />
<path d="M1098.5,80.11L1098.5,1015.9" style="fill:none;stroke:#808080;stroke-width:0.25" />
<path d="M1295.2,80.11L1295.2,1015.9" style="fill:none;stroke:#808080;stroke-width:0.25" />
<path d="M1491.8,80.11L1491.8,1015.9" style="fill:none;stroke:#808080;stroke-width:0.25" />
<path d="M1688.4,80.11L1688.4,1015.9" style="fill:none;stroke:#808080;stroke-width:0.25" />
<path d="M1885,80.11L1885,1015.9" style="fill:none;stroke:#808080;stroke-width:0.25" />
<path d="M115.46,419.32L1885,419.32" style="fill:none;stroke:#808080;stroke-width:0.25" />
<path d="M115.46,842.66L1885,842.66" style="fill:none;stroke:#808080;stroke-width:0.25" />
<path d="M115.46,1013.6L1885,1013.6" style="fill:none;stroke:#808080;stroke-width:0.25" />
<path d="M115.46,80.11L312.08,237.7L508.69,337.79L705.31,430.3L901.92,482.24L1098.5,579.5L1295.2,651.07L1491.8,653.83L1688.4,719.74L1885,797.78" style="fill:none;stroke:#FF0000;stroke-width:4" />
<path d="M120.46,80.11A5,5 0 1 1 110.46,80.11A5,5 0 1 1 120.46,80.11Z" style="fill:#FF0000" />
<path d="M317.08,237.7A5,5 0 1 1 307.08,237.7A5,5 0 1 1 317.08,237.7Z" style="fill:#FF0000" />
<path d="M513.69,337.79A5,5 0 1 1 503.69,337.79A5,5 0 1 1 513.69,337.79Z" style="fill:#FF0000" />
<path d="M710.31,430.3A5,5 0 1 1 700.31,430.3A5,5 0 1 1 710.31,430.3Z" style="fill:#FF0000" />
<path d="M906.92,482.24A5,5 0 1 1 896.92,482.24A5,5 0 1 1 906.92,482.24Z" style="fill:#FF0000" />
<path d="M1103.5,579.5A5,5 0 1 1 1093.5,579.5A5,5 0 1 1 1103.5,579.5Z" style="fill:#FF0000" />
<path d="M1300.2,651.07A5,5 0 1 1 1290.2,651.07A5,5 0 1 1 1300.2,651.07Z" style="fill:#FF0000" />
<path d="M1496.8,653.83A5,5 0 1 1 1486.8,653.83A5,5 0 1 1 1496.8,653.83Z" style="fill:#FF0000" />
<path d="M1693.4,719.74A5,5 0 1 1 1683.4,719.74A5,5 0 1 1 1693.4,719.74Z" style="fill:#FF0000" />
<path d="M1890,797.78A5,5 0 1 1 1880,797.78A5,5 0 1 1 1890,797.78Z" style="fill:#FF0000" />
<path d="M115.46,325.17L312.08,564.96L508.69,668.18L705.31,751.47L901.92,807.85L1098.5,900.79L1295.2,918.84L1491.8,907.17L1688.4,928.13L1885,986.77" style="fill:none;stroke:#0000FF;stroke-width:4" />
<path d="M120.46,325.17A5,5 0 1 1 110.46,325.17A5,5 0 1 1 120.46,325.17Z" style="fill:#0000FF" />
<path d="M317.08,564.96A5,5 0 1 1 307.08,564.96A5,5 0 1 1 317.08,564.96Z" style="fill:#0000FF" />
<path d="M513.69,668.18A5,5 0 1 1 503.69,668.18A5,5 0 1 1 513.69,668.18Z" style="fill:#0000FF" />
<path d="M710.31,751.47A5,5 0 1 1 700.31,751.47A5,5 0 1 1 710.31,751.47Z" style="fill:#0000FF" />
<path d="M906.92,807.85A5,5 0 1 1 896.92,807.85A5,5 0 1 1 906.92,807.85Z" style="fill:#0000FF" />
<path d="M1103.5,900.79A5,5 0 1 1 1093.5,900.79A5,5 0 1 1 1103.5,900.79Z" style="fill:#0000FF" />
<path d="M1300.2,918.84A5,5 0 1 1 1290.2,918.84A5,5 0 1 1 1300.2,918.84Z" style="fill:#0000FF" />
<path d="M1496.8,907.17A5,5 0 1 1 1486.8,907.17A5,5 0 1 1 1496.8,907.17Z" style="fill:#0000FF" />
<path d="M1693.4,928.13A5,5 0 1 1 1683.4,928.13A5,5 0 1 1 1693.4,928.13Z" style="fill:#0000FF" />
<path d="M1890,986.77A5,5 0 1 1 1880,986.77A5,5 0 1 1 1890,986.77Z" style="fill:#0000FF" />
<path d="M115.46,273.58L312.08,303.07L508.69,436.16L705.31,508.35L901.92,588.01L1098.5,712.6L1295.2,750.72L1491.8,830.02L1688.4,893.07L1885,863.17" style="fill:none;stroke:#00FF00;stroke-width:4" />
<path d="M120.46,273.58A5,5 0 1 1 110.46,273.58A5,5 0 1 1 120.46,273.58Z" style="fill:#00FF00" />
<path d="M317.08,303.07A5,5 0 1 1 307.08,303.07A5,5 0 1 1 317.08,303.07Z" style="fill:#00FF00" />
<path d="M513.69,436.16A5,5 0 1 1 503.69,436.16A5,5 0 1 1 513.69,436.16Z" style="fill:#00FF00" />
<path d="M710.31,508.35A5,5 0 1 1 700.31,508.35A5,5 0 1 1 710.31,508.35Z" style="fill:#00FF00" />
<path d="M906.92,588.01A5,5 0 1 1 896.92,588.01A5,5 0 1 1 906.92,588.01Z" style="fill:#00FF00" />
<path d="M1103.5,712.6A5,5 0 1 1 1093.5,712.6A5,5 0 1 1 1103.5,712.6Z" style="fill:#00FF00" />
<path d="M1300.2,750.72A5,5 0 1 1 1290.2,750.72A5,5 0 1 1 1300.2,750.72Z" style="fill:#00FF00" />
<path d="M1496.8,830.02A5,5 0 1 1 1486.8,830.02A5,5 0 1 1 1496.8,830.02Z" style="fill:#00FF00" />
<path d="M1693.4,893.07A5,5 0 1 1 1683.4,893.07A5,5 0 1 1 1693.4,893.07Z" style="fill:#00FF00" />
<path d="M1890,863.17A5,5 0 1 1 1880,863.17A5,5 0 1 1 1890,863.17Z" style="fill:#00FF00" />
<path d="M115.46,123.36L312.08,299.52L508.69,471.82L705.31,524.22L901.92,622.38L1098.5,756.89L1295.2,737.8L1491.8,806.95L1688.4,830.2L1885,817.35" style="fill:none;stroke:#FF8000;stroke-width:4" />
<path d="M120.46,123.36A5,5 0 1 1 110.46,123.36A5,5 0 1 1 120.46,123.36Z" style="fill:#FF8000" />
<path d="M317.08,299.52A5,5 0 1 1 307.08,299.52A5,5 0 1 1 317.08,299.52Z" style="fill:#FF8000" />
<path d="M513.69,471.82A5,5 0 1 1 503.69,471.82A5,5 0 1 1 513.69,471.82Z" style="fill:#FF8000" />
<path d="M710.31,524.22A5,5 0 1 1 700.31,524.22A5,5 0 1 1 710.31,524.22Z" style="fill:#FF8000" />
<path d="M906.92,622.38A5,5 0 1 1 896.92,622.38A5,5 0 1 1 906.92,622.38Z" style="fill:#FF8000" />
<path d="M1103.5,756.89A5,5 0 1 1 1093.5,756.89A5,5 0 1 1 1103.5,756.89Z" style="fill:#FF8000" />
<path d="M1300.2,737.8A5,5 0 1 1 1290.2,737.8A5,5 0 1 1 1300.2,737.8Z" style="fill:#FF8000" />
<path d="M1496.8,806.95A5,5 0 1 1 1486.8,806.95A5,5 0 1 1 1496.8,806.95Z" style="fill:#FF8000" />
<path d="M1693.4,830.2A5,5 0 1 1 1683.4,830.2A5,5 0 1 1 1693.4,830.2Z" style="fill:#FF8000" />
<path d="M1890,817.35A5,5 0 1 1 1880,817.35A5,5 0 1 1 1890,817.35Z" style="fill:#FF8000" />
<path d="M1900,146.4L1920,146.4" style="fill:none;stroke:#FF0000;stroke-width:4" />
<path d="M1915,146.4A5,5 0 1 1 1905,146.4A5,5 0 1 1 1915,146.4Z" style="fill:#FF0000" />
<text x="1669.4" y="-141.42" transform="scale(1, -1)"
	style="font-family:Liberation Serif;font-variant:normal;font-weight:normal;font-style:normal;font-size:24px">preallocated std::vector</text>
<path d="M1900,126.03L1920,126.03" style="fill:none;stroke:#0000FF;stroke-width:4" />
<path d="M1915,126.03A5,5 0 1 1 1905,126.03A5,5 0 1 1 1915,126.03Z" style="fill:#0000FF" />
<text x="1823.3" y="-121.05" transform="scale(1, -1)"
	style="font-family:Liberation Serif;font-variant:normal;font-weight:normal;font-style:normal;font-size:24px">std::list</text>
<path d="M1900,105.66L1920,105.66" style="fill:none;stroke:#00FF00;stroke-width:4" />
<path d="M1915,105.66A5,5 0 1 1 1905,105.66A5,5 0 1 1 1915,105.66Z" style="fill:#00FF00" />
<text x="1795.4" y="-100.69" transform="scale(1, -1)"
	style="font-family:Liberation Serif;font-variant:normal;font-weight:normal;font-style:normal;font-size:24px">std::deque</text>
<path d="M1900,85.294L1920,85.294" style="fill:none;stroke:#FF8000;stroke-width:4" />
<path d="M1915,85.294A5,5 0 1 1 1905,85.294A5,5 0 1 1 1915,85.294Z" style="fill:#FF8000" />
<text x="1792.7" y="-80.319" transform="scale(1, -1)"
	style="font-family:Liberation Serif;font-variant:normal;font-weight:normal;font-style:normal;font-size:24px">std::vector</text>
</g>
</svg>
