<?xml version="1.0"?>
<!-- Generated by SVGo and Plotinum VG -->
<svg width="1920pt" height="1080pt" viewBox="0 0 1920 1080"
	xmlns="http://www.w3.org/2000/svg"
	xmlns:xlink="http://www.w3.org/1999/xlink">
<g transform="scale(1, -1) translate(0, -1080)">
<path d="M0,0L1920,0L1920,1080L0,1080Z" style="fill:#FFFFFF" />
<text x="857.25" y="-1040.9" transform="scale(1, -1)"
	style="font-family:Liberation Serif;font-variant:normal;font-weight:normal;font-style:normal;font-size:50px">push-back</text>
<text x="877.77" y="-9.7559" transform="scale(1, -1)"
	style="font-family:Liberation Serif;font-variant:normal;font-weight:normal;font-style:normal;font-size:30px">Number of elements</text>
<text x="85.462" y="-39.727" transform="scale(1, -1)"
	style="font-family:Liberation Serif;font-variant:normal;font-weight:normal;font-style:normal;font-size:20px">100000</text>
<text x="282.08" y="-39.727" transform="scale(1, -1)"
	style="font-family:Liberation Serif;font-variant:normal;font-weight:normal;font-style:normal;font-size:20px">200000</text>
<text x="478.69" y="-39.727" transform="scale(1, -1)"
	style="font-family:Liberation Serif;font-variant:normal;font-weight:normal;font-style:normal;font-size:20px">300000</text>
<text x="675.31" y="-39.727" transform="scale(1, -1)"
	style="font-family:Liberation Serif;font-variant:normal;font-weight:normal;font-style:normal;font-size:20px">400000</text>
<text x="871.92" y="-39.727" transform="scale(1, -1)"
	style="font-family:Liberation Serif;font-variant:normal;font-weight:normal;font-style:normal;font-size:20px">500000</text>
<text x="1068.5" y="-39.727" transform="scale(1, -1)"
	style="font-family:Liberation Serif;font-variant:normal;font-weight:normal;font-style:normal;font-size:20px">600000</text>
<text x="1265.2" y="-39.727" transform="scale(1, -1)"
	style="font-family:Liberation Serif;font-variant:normal;font-weight:normal;font-style:normal;font-size:20px">700000</text>
<text x="1461.8" y="-39.727" transform="scale(1, -1)"
	style="font-family:Liberation Serif;font-variant:normal;font-weight:normal;font-style:normal;font-size:20px">800000</text>
<text x="1658.4" y="-39.727" transform="scale(1, -1)"
	style="font-family:Liberation Serif;font-variant:normal;font-weight:normal;font-style:normal;font-size:20px">900000</text>
<text x="1850" y="-39.727" transform="scale(1, -1)"
	style="font-family:Liberation Serif;font-variant:normal;font-weight:normal;font-style:normal;font-size:20px">1000000</text>
<path d="M115.46,55.371L115.46,63.371" style="fill:none;stroke:#000000;stroke-width:0.5" />
<path d="M312.08,55.371L312.08,63.371" style="fill:none;stroke:#000000;stroke-width:0.5" />
<path d="M508.69,55.371L508.69,63.371" style="fill:none;stroke:#000000;stroke-width:0.5" />
<path d="M705.31,55.371L705.31,63.371" style="fill:none;stroke:#000000;stroke-width:0.5" />
<path d="M901.92,55.371L901.92,63.371" style="fill:none;stroke:#000000;stroke-width:0.5" />
<path d="M1098.5,55.371L1098.5,63.371" style="fill:none;stroke:#000000;stroke-width:0.5" />
<path d="M1295.2,55.371L1295.2,63.371" style="fill:none;stroke:#000000;stroke-width:0.5" />
<path d="M1491.8,55.371L1491.8,63.371" style="fill:none;stroke:#000000;stroke-width:0.5" />
<path d="M1688.4,55.371L1688.4,63.371" style="fill:none;stroke:#000000;stroke-width:0.5" />
<path d="M1885,55.371L1885,63.371" style="fill:none;stroke:#000000;stroke-width:0.5" />
<path d="M115.46,63.371L1885,63.371" style="fill:none;stroke:#000000;stroke-width:0.5" />
<g transform="rotate(90)">
<text x="533.81" y="23.467" transform="scale(1, -1)"
	style="font-family:Liberation Serif;font-variant:normal;font-weight:normal;font-style:normal;font-size:30px">μs</text>
</g>
<text x="49.712" y="-111.05" transform="scale(1, -1)"
	style="font-family:Liberation Serif;font-variant:normal;font-weight:normal;font-style:normal;font-size:20px">5000</text>
<text x="39.712" y="-410.36" transform="scale(1, -1)"
	style="font-family:Liberation Serif;font-variant:normal;font-weight:normal;font-style:normal;font-size:20px">25000</text>
<text x="39.712" y="-709.67" transform="scale(1, -1)"
	style="font-family:Liberation Serif;font-variant:normal;font-weight:normal;font-style:normal;font-size:20px">45000</text>
<text x="39.712" y="-1009" transform="scale(1, -1)"
	style="font-family:Liberation Serif;font-variant:normal;font-weight:normal;font-style:normal;font-size:20px">65000</text>
<path d="M94.712,115.62L102.71,115.62" style="fill:none;stroke:#000000;stroke-width:0.5" />
<path d="M94.712,414.93L102.71,414.93" style="fill:none;stroke:#000000;stroke-width:0.5" />
<path d="M94.712,714.24L102.71,714.24" style="fill:none;stroke:#000000;stroke-width:0.5" />
<path d="M94.712,1013.6L102.71,1013.6" style="fill:none;stroke:#000000;stroke-width:0.5" />
<path d="M98.712,265.28L102.71,265.28" style="fill:none;stroke:#000000;stroke-width:0.5" />
<path d="M98.712,564.59L102.71,564.59" style="fill:none;stroke:#000000;stroke-width:0.5" />
<path d="M98.712,863.9L102.71,863.9" style="fill:none;stroke:#000000;stroke-width:0.5" />
<path d="M102.71,80.11L102.71,1015.3" style="fill:none;stroke:#000000;stroke-width:0.5" />
<path d="M115.46,80.11L115.46,1015.3" style="fill:none;stroke:#808080;stroke-width:0.25" />
<path d="M312.08,80.11L312.08,1015.3" style="fill:none;stroke:#808080;stroke-width:0.25" />
<path d="M508.69,80.11L508.69,1015.3" style="fill:none;stroke:#808080;stroke-width:0.25" />
<path d="M705.31,80.11L705.31,1015.3" style="fill:none;stroke:#808080;stroke-width:0.25" />
<path d="M901.92,80.11L901.92,1015.3" style="fill:none;stroke:#808080;stroke-width:0.25" />
<path d="M1098.5,80.11L1098.5,1015.3" style="fill:none;stroke:#808080;stroke-width:0.25" />
<path d="M1295.2,80.11L1295.2,1015.3" style="fill:none;stroke:#808080;stroke-width:0.25" />
<path d="M1491.8,80.11L1491.8,1015.3" style="fill:none;stroke:#808080;stroke-width:0.25" />
<path d="M1688.4,80.11L1688.4,1015.3" style="fill:none;stroke:#808080;stroke-width:0.25" />
<path d="M1885,80.11L1885,1015.3" style="fill:none;stroke:#808080;stroke-width:0.25" />
<path d="M115.46,115.62L1885,115.62" style="fill:none;stroke:#808080;stroke-width:0.25" />
<path d="M115.46,414.93L1885,414.93" style="fill:none;stroke:#808080;stroke-width:0.25" />
<path d="M115.46,714.24L1885,714.24" style="fill:none;stroke:#808080;stroke-width:0.25" />
<path d="M115.46,1013.6L1885,1013.6" style="fill:none;stroke:#808080;stroke-width:0.25" />
<path d="M115.46,134L312.08,196.86L508.69,283.18L705.31,343.79L901.92,424.72L1098.5,490.93L1295.2,678.97L1491.8,683.28L1688.4,763.11L1885,926.68" style="fill:none;stroke:#FF0000;stroke-width:4" />
<path d="M120.46,134A5,5 0 1 1 110.46,134A5,5 0 1 1 120.46,134Z" style="fill:#FF0000" />
<path d="M317.08,196.86A5,5 0 1 1 307.08,196.86A5,5 0 1 1 317.08,196.86Z" style="fill:#FF0000" />
<path d="M513.69,283.18A5,5 0 1 1 503.69,283.18A5,5 0 1 1 513.69,283.18Z" style="fill:#FF0000" />
<path d="M710.31,343.79A5,5 0 1 1 700.31,343.79A5,5 0 1 1 710.31,343.79Z" style="fill:#FF0000" />
<path d="M906.92,424.72A5,5 0 1 1 896.92,424.72A5,5 0 1 1 906.92,424.72Z" style="fill:#FF0000" />
<path d="M1103.5,490.93A5,5 0 1 1 1093.5,490.93A5,5 0 1 1 1103.5,490.93Z" style="fill:#FF0000" />
<path d="M1300.2,678.97A5,5 0 1 1 1290.2,678.97A5,5 0 1 1 1300.2,678.97Z" style="fill:#FF0000" />
<path d="M1496.8,683.28A5,5 0 1 1 1486.8,683.28A5,5 0 1 1 1496.8,683.28Z" style="fill:#FF0000" />
<path d="M1693.4,763.11A5,5 0 1 1 1683.4,763.11A5,5 0 1 1 1693.4,763.11Z" style="fill:#FF0000" />
<path d="M1890,926.68A5,5 0 1 1 1880,926.68A5,5 0 1 1 1890,926.68Z" style="fill:#FF0000" />
<path d="M115.46,99.985L312.08,112.88L508.69,136.37L705.31,163.72L901.92,194.6L1098.5,237.98L1295.2,258.53L1491.8,289.16L1688.4,332.82L1885,354.76" style="fill:none;stroke:#0000FF;stroke-width:4" />
<path d="M120.46,99.985A5,5 0 1 1 110.46,99.985A5,5 0 1 1 120.46,99.985Z" style="fill:#0000FF" />
<path d="M317.08,112.88A5,5 0 1 1 307.08,112.88A5,5 0 1 1 317.08,112.88Z" style="fill:#0000FF" />
<path d="M513.69,136.37A5,5 0 1 1 503.69,136.37A5,5 0 1 1 513.69,136.37Z" style="fill:#0000FF" />
<path d="M710.31,163.72A5,5 0 1 1 700.31,163.72A5,5 0 1 1 710.31,163.72Z" style="fill:#0000FF" />
<path d="M906.92,194.6A5,5 0 1 1 896.92,194.6A5,5 0 1 1 906.92,194.6Z" style="fill:#0000FF" />
<path d="M1103.5,237.98A5,5 0 1 1 1093.5,237.98A5,5 0 1 1 1103.5,237.98Z" style="fill:#0000FF" />
<path d="M1300.2,258.53A5,5 0 1 1 1290.2,258.53A5,5 0 1 1 1300.2,258.53Z" style="fill:#0000FF" />
<path d="M1496.8,289.16A5,5 0 1 1 1486.8,289.16A5,5 0 1 1 1496.8,289.16Z" style="fill:#0000FF" />
<path d="M1693.4,332.82A5,5 0 1 1 1683.4,332.82A5,5 0 1 1 1693.4,332.82Z" style="fill:#0000FF" />
<path d="M1890,354.76A5,5 0 1 1 1880,354.76A5,5 0 1 1 1890,354.76Z" style="fill:#0000FF" />
<path d="M115.46,80.11L312.08,108.19L508.69,138.09L705.31,185.78L901.92,254.34L1098.5,340.96L1295.2,285.27L1491.8,295.54L1688.4,310.92L1885,344.75" style="fill:none;stroke:#00FF00;stroke-width:4" />
<path d="M120.46,80.11A5,5 0 1 1 110.46,80.11A5,5 0 1 1 120.46,80.11Z" style="fill:#00FF00" />
<path d="M317.08,108.19A5,5 0 1 1 307.08,108.19A5,5 0 1 1 317.08,108.19Z" style="fill:#00FF00" />
<path d="M513.69,138.09A5,5 0 1 1 503.69,138.09A5,5 0 1 1 513.69,138.09Z" style="fill:#00FF00" />
<path d="M710.31,185.78A5,5 0 1 1 700.31,185.78A5,5 0 1 1 710.31,185.78Z" style="fill:#00FF00" />
<path d="M906.92,254.34A5,5 0 1 1 896.92,254.34A5,5 0 1 1 906.92,254.34Z" style="fill:#00FF00" />
<path d="M1103.5,340.96A5,5 0 1 1 1093.5,340.96A5,5 0 1 1 1103.5,340.96Z" style="fill:#00FF00" />
<path d="M1300.2,285.27A5,5 0 1 1 1290.2,285.27A5,5 0 1 1 1300.2,285.27Z" style="fill:#00FF00" />
<path d="M1496.8,295.54A5,5 0 1 1 1486.8,295.54A5,5 0 1 1 1496.8,295.54Z" style="fill:#00FF00" />
<path d="M1693.4,310.92A5,5 0 1 1 1683.4,310.92A5,5 0 1 1 1693.4,310.92Z" style="fill:#00FF00" />
<path d="M1890,344.75A5,5 0 1 1 1880,344.75A5,5 0 1 1 1890,344.75Z" style="fill:#00FF00" />
<path d="M115.46,82.43L312.08,107.96L508.69,158.25L705.31,184.69L901.92,229.87L1098.5,251.88L1295.2,302.93L1491.8,349.22L1688.4,359.35L1885,417.85" style="fill:none;stroke:#FF8000;stroke-width:4" />
<path d="M120.46,82.43A5,5 0 1 1 110.46,82.43A5,5 0 1 1 120.46,82.43Z" style="fill:#FF8000" />
<path d="M317.08,107.96A5,5 0 1 1 307.08,107.96A5,5 0 1 1 317.08,107.96Z" style="fill:#FF8000" />
<path d="M513.69,158.25A5,5 0 1 1 503.69,158.25A5,5 0 1 1 513.69,158.25Z" style="fill:#FF8000" />
<path d="M710.31,184.69A5,5 0 1 1 700.31,184.69A5,5 0 1 1 710.31,184.69Z" style="fill:#FF8000" />
<path d="M906.92,229.87A5,5 0 1 1 896.92,229.87A5,5 0 1 1 906.92,229.87Z" style="fill:#FF8000" />
<path d="M1103.5,251.88A5,5 0 1 1 1093.5,251.88A5,5 0 1 1 1103.5,251.88Z" style="fill:#FF8000" />
<path d="M1300.2,302.93A5,5 0 1 1 1290.2,302.93A5,5 0 1 1 1300.2,302.93Z" style="fill:#FF8000" />
<path d="M1496.8,349.22A5,5 0 1 1 1486.8,349.22A5,5 0 1 1 1496.8,349.22Z" style="fill:#FF8000" />
<path d="M1693.4,359.35A5,5 0 1 1 1683.4,359.35A5,5 0 1 1 1693.4,359.35Z" style="fill:#FF8000" />
<path d="M1890,417.85A5,5 0 1 1 1880,417.85A5,5 0 1 1 1890,417.85Z" style="fill:#FF8000" />
<path d="M1900,146.4L1920,146.4" style="fill:none;stroke:#FF0000;stroke-width:4" />
<path d="M1915,146.4A5,5 0 1 1 1905,146.4A5,5 0 1 1 1915,146.4Z" style="fill:#FF0000" />
<text x="1823.3" y="-141.42" transform="scale(1, -1)"
	style="font-family:Liberation Serif;font-variant:normal;font-weight:normal;font-style:normal;font-size:24px">std::list</text>
<path d="M1900,126.03L1920,126.03" style="fill:none;stroke:#0000FF;stroke-width:4" />
<path d="M1915,126.03A5,5 0 1 1 1905,126.03A5,5 0 1 1 1915,126.03Z" style="fill:#0000FF" />
<text x="1795.4" y="-121.05" transform="scale(1, -1)"
	style="font-family:Liberation Serif;font-variant:normal;font-weight:normal;font-style:normal;font-size:24px">std::deque</text>
<path d="M1900,105.66L1920,105.66" style="fill:none;stroke:#00FF00;stroke-width:4" />
<path d="M1915,105.66A5,5 0 1 1 1905,105.66A5,5 0 1 1 1915,105.66Z" style="fill:#00FF00" />
<text x="1792.7" y="-100.69" transform="scale(1, -1)"
	style="font-family:Liberation Serif;font-variant:normal;font-weight:normal;font-style:normal;font-size:24px">std::vector</text>
<path d="M1900,85.294L1920,85.294" style="fill:none;stroke:#FF8000;stroke-width:4" />
<path d="M1915,85.294A5,5 0 1 1 1905,85.294A5,5 0 1 1 1915,85.294Z" style="fill:#FF8000" />
<text x="1669.4" y="-80.319" transform="scale(1, -1)"
	style="font-family:Liberation Serif;font-variant:normal;font-weight:normal;font-style:normal;font-size:24px">preallocated std::vector</text>
</g>
</svg>
