<?xml version="1.0"?>
<!-- Generated by SVGo and Plotinum VG -->
<svg width="1920pt" height="1080pt" viewBox="0 0 1920 1080"
	xmlns="http://www.w3.org/2000/svg"
	xmlns:xlink="http://www.w3.org/1999/xlink">
<g transform="scale(1, -1) translate(0, -1080)">
<path d="M0,0L1920,0L1920,1080L0,1080Z" style="fill:#FFFFFF" />
<text x="857.25" y="-1040.9" transform="scale(1, -1)"
	style="font-family:Liberation Serif;font-variant:normal;font-weight:normal;font-style:normal;font-size:50px">push-back</text>
<text x="882.77" y="-9.7559" transform="scale(1, -1)"
	style="font-family:Liberation Serif;font-variant:normal;font-weight:normal;font-style:normal;font-size:30px">Number of elements</text>
<text x="95.462" y="-39.727" transform="scale(1, -1)"
	style="font-family:Liberation Serif;font-variant:normal;font-weight:normal;font-style:normal;font-size:20px">100000</text>
<text x="290.97" y="-39.727" transform="scale(1, -1)"
	style="font-family:Liberation Serif;font-variant:normal;font-weight:normal;font-style:normal;font-size:20px">200000</text>
<text x="486.47" y="-39.727" transform="scale(1, -1)"
	style="font-family:Liberation Serif;font-variant:normal;font-weight:normal;font-style:normal;font-size:20px">300000</text>
<text x="681.97" y="-39.727" transform="scale(1, -1)"
	style="font-family:Liberation Serif;font-variant:normal;font-weight:normal;font-style:normal;font-size:20px">400000</text>
<text x="877.48" y="-39.727" transform="scale(1, -1)"
	style="font-family:Liberation Serif;font-variant:normal;font-weight:normal;font-style:normal;font-size:20px">500000</text>
<text x="1073" y="-39.727" transform="scale(1, -1)"
	style="font-family:Liberation Serif;font-variant:normal;font-weight:normal;font-style:normal;font-size:20px">600000</text>
<text x="1268.5" y="-39.727" transform="scale(1, -1)"
	style="font-family:Liberation Serif;font-variant:normal;font-weight:normal;font-style:normal;font-size:20px">700000</text>
<text x="1464" y="-39.727" transform="scale(1, -1)"
	style="font-family:Liberation Serif;font-variant:normal;font-weight:normal;font-style:normal;font-size:20px">800000</text>
<text x="1659.5" y="-39.727" transform="scale(1, -1)"
	style="font-family:Liberation Serif;font-variant:normal;font-weight:normal;font-style:normal;font-size:20px">900000</text>
<text x="1850" y="-39.727" transform="scale(1, -1)"
	style="font-family:Liberation Serif;font-variant:normal;font-weight:normal;font-style:normal;font-size:20px">1000000</text>
<path d="M125.46,55.371L125.46,63.371" style="fill:none;stroke:#000000;stroke-width:0.5" />
<path d="M320.97,55.371L320.97,63.371" style="fill:none;stroke:#000000;stroke-width:0.5" />
<path d="M516.47,55.371L516.47,63.371" style="fill:none;stroke:#000000;stroke-width:0.5" />
<path d="M711.97,55.371L711.97,63.371" style="fill:none;stroke:#000000;stroke-width:0.5" />
<path d="M907.48,55.371L907.48,63.371" style="fill:none;stroke:#000000;stroke-width:0.5" />
<path d="M1103,55.371L1103,63.371" style="fill:none;stroke:#000000;stroke-width:0.5" />
<path d="M1298.5,55.371L1298.5,63.371" style="fill:none;stroke:#000000;stroke-width:0.5" />
<path d="M1494,55.371L1494,63.371" style="fill:none;stroke:#000000;stroke-width:0.5" />
<path d="M1689.5,55.371L1689.5,63.371" style="fill:none;stroke:#000000;stroke-width:0.5" />
<path d="M1885,55.371L1885,63.371" style="fill:none;stroke:#000000;stroke-width:0.5" />
<path d="M125.46,63.371L1885,63.371" style="fill:none;stroke:#000000;stroke-width:0.5" />
<g transform="rotate(90)">
<text x="538.49" y="23.467" transform="scale(1, -1)"
	style="font-family:Liberation Serif;font-variant:normal;font-weight:normal;font-style:normal;font-size:30px">μs</text>
</g>
<text x="39.712" y="-220.85" transform="scale(1, -1)"
	style="font-family:Liberation Serif;font-variant:normal;font-weight:normal;font-style:normal;font-size:20px">100000</text>
<text x="39.712" y="-573.5" transform="scale(1, -1)"
	style="font-family:Liberation Serif;font-variant:normal;font-weight:normal;font-style:normal;font-size:20px">300000</text>
<text x="39.712" y="-926.16" transform="scale(1, -1)"
	style="font-family:Liberation Serif;font-variant:normal;font-weight:normal;font-style:normal;font-size:20px">500000</text>
<path d="M104.71,225.42L112.71,225.42" style="fill:none;stroke:#000000;stroke-width:0.5" />
<path d="M104.71,578.07L112.71,578.07" style="fill:none;stroke:#000000;stroke-width:0.5" />
<path d="M104.71,930.73L112.71,930.73" style="fill:none;stroke:#000000;stroke-width:0.5" />
<path d="M108.71,401.75L112.71,401.75" style="fill:none;stroke:#000000;stroke-width:0.5" />
<path d="M108.71,754.4L112.71,754.4" style="fill:none;stroke:#000000;stroke-width:0.5" />
<path d="M112.71,80.11L112.71,1024.6" style="fill:none;stroke:#000000;stroke-width:0.5" />
<path d="M125.46,80.11L125.46,1024.6" style="fill:none;stroke:#808080;stroke-width:0.25" />
<path d="M320.97,80.11L320.97,1024.6" style="fill:none;stroke:#808080;stroke-width:0.25" />
<path d="M516.47,80.11L516.47,1024.6" style="fill:none;stroke:#808080;stroke-width:0.25" />
<path d="M711.97,80.11L711.97,1024.6" style="fill:none;stroke:#808080;stroke-width:0.25" />
<path d="M907.48,80.11L907.48,1024.6" style="fill:none;stroke:#808080;stroke-width:0.25" />
<path d="M1103,80.11L1103,1024.6" style="fill:none;stroke:#808080;stroke-width:0.25" />
<path d="M1298.5,80.11L1298.5,1024.6" style="fill:none;stroke:#808080;stroke-width:0.25" />
<path d="M1494,80.11L1494,1024.6" style="fill:none;stroke:#808080;stroke-width:0.25" />
<path d="M1689.5,80.11L1689.5,1024.6" style="fill:none;stroke:#808080;stroke-width:0.25" />
<path d="M1885,80.11L1885,1024.6" style="fill:none;stroke:#808080;stroke-width:0.25" />
<path d="M125.46,225.42L1885,225.42" style="fill:none;stroke:#808080;stroke-width:0.25" />
<path d="M125.46,578.07L1885,578.07" style="fill:none;stroke:#808080;stroke-width:0.25" />
<path d="M125.46,930.73L1885,930.73" style="fill:none;stroke:#808080;stroke-width:0.25" />
<path d="M125.46,112.18L320.97,196.06L516.47,240.72L711.97,287.53L907.48,366.88L1103,463.52L1298.5,489.35L1494,587.12L1689.5,621.18L1885,753.68" style="fill:none;stroke:#FF0000;stroke-width:4" />
<path d="M130.46,112.18A5,5 0 1 1 120.46,112.18A5,5 0 1 1 130.46,112.18Z" style="fill:#FF0000" />
<path d="M325.97,196.06A5,5 0 1 1 315.97,196.06A5,5 0 1 1 325.97,196.06Z" style="fill:#FF0000" />
<path d="M521.47,240.72A5,5 0 1 1 511.47,240.72A5,5 0 1 1 521.47,240.72Z" style="fill:#FF0000" />
<path d="M716.97,287.53A5,5 0 1 1 706.97,287.53A5,5 0 1 1 716.97,287.53Z" style="fill:#FF0000" />
<path d="M912.48,366.88A5,5 0 1 1 902.48,366.88A5,5 0 1 1 912.48,366.88Z" style="fill:#FF0000" />
<path d="M1108,463.52A5,5 0 1 1 1098,463.52A5,5 0 1 1 1108,463.52Z" style="fill:#FF0000" />
<path d="M1303.5,489.35A5,5 0 1 1 1293.5,489.35A5,5 0 1 1 1303.5,489.35Z" style="fill:#FF0000" />
<path d="M1499,587.12A5,5 0 1 1 1489,587.12A5,5 0 1 1 1499,587.12Z" style="fill:#FF0000" />
<path d="M1694.5,621.18A5,5 0 1 1 1684.5,621.18A5,5 0 1 1 1694.5,621.18Z" style="fill:#FF0000" />
<path d="M1890,753.68A5,5 0 1 1 1880,753.68A5,5 0 1 1 1890,753.68Z" style="fill:#FF0000" />
<path d="M125.46,112.64L320.97,193.69L516.47,253.76L711.97,357.83L907.48,417.35L1103,509.9L1298.5,603.61L1494,667.57L1689.5,791.49L1885,935.94" style="fill:none;stroke:#0000FF;stroke-width:4" />
<path d="M130.46,112.64A5,5 0 1 1 120.46,112.64A5,5 0 1 1 130.46,112.64Z" style="fill:#0000FF" />
<path d="M325.97,193.69A5,5 0 1 1 315.97,193.69A5,5 0 1 1 325.97,193.69Z" style="fill:#0000FF" />
<path d="M521.47,253.76A5,5 0 1 1 511.47,253.76A5,5 0 1 1 521.47,253.76Z" style="fill:#0000FF" />
<path d="M716.97,357.83A5,5 0 1 1 706.97,357.83A5,5 0 1 1 716.97,357.83Z" style="fill:#0000FF" />
<path d="M912.48,417.35A5,5 0 1 1 902.48,417.35A5,5 0 1 1 912.48,417.35Z" style="fill:#0000FF" />
<path d="M1108,509.9A5,5 0 1 1 1098,509.9A5,5 0 1 1 1108,509.9Z" style="fill:#0000FF" />
<path d="M1303.5,603.61A5,5 0 1 1 1293.5,603.61A5,5 0 1 1 1303.5,603.61Z" style="fill:#0000FF" />
<path d="M1499,667.57A5,5 0 1 1 1489,667.57A5,5 0 1 1 1499,667.57Z" style="fill:#0000FF" />
<path d="M1694.5,791.49A5,5 0 1 1 1684.5,791.49A5,5 0 1 1 1694.5,791.49Z" style="fill:#0000FF" />
<path d="M1890,935.94A5,5 0 1 1 1880,935.94A5,5 0 1 1 1890,935.94Z" style="fill:#0000FF" />
<path d="M125.46,131.78L320.97,211.27L516.47,363.54L711.97,311.61L907.48,367L1103,552.63L1298.5,577.22L1494,594.24L1689.5,678.1L1885,648.64" style="fill:none;stroke:#00FF00;stroke-width:4" />
<path d="M130.46,131.78A5,5 0 1 1 120.46,131.78A5,5 0 1 1 130.46,131.78Z" style="fill:#00FF00" />
<path d="M325.97,211.27A5,5 0 1 1 315.97,211.27A5,5 0 1 1 325.97,211.27Z" style="fill:#00FF00" />
<path d="M521.47,363.54A5,5 0 1 1 511.47,363.54A5,5 0 1 1 521.47,363.54Z" style="fill:#00FF00" />
<path d="M716.97,311.61A5,5 0 1 1 706.97,311.61A5,5 0 1 1 716.97,311.61Z" style="fill:#00FF00" />
<path d="M912.48,367A5,5 0 1 1 902.48,367A5,5 0 1 1 912.48,367Z" style="fill:#00FF00" />
<path d="M1108,552.63A5,5 0 1 1 1098,552.63A5,5 0 1 1 1108,552.63Z" style="fill:#00FF00" />
<path d="M1303.5,577.22A5,5 0 1 1 1293.5,577.22A5,5 0 1 1 1303.5,577.22Z" style="fill:#00FF00" />
<path d="M1499,594.24A5,5 0 1 1 1489,594.24A5,5 0 1 1 1499,594.24Z" style="fill:#00FF00" />
<path d="M1694.5,678.1A5,5 0 1 1 1684.5,678.1A5,5 0 1 1 1694.5,678.1Z" style="fill:#00FF00" />
<path d="M1890,648.64A5,5 0 1 1 1880,648.64A5,5 0 1 1 1890,648.64Z" style="fill:#00FF00" />
<path d="M125.46,80.11L320.97,107.57L516.47,137.26L711.97,193.43L907.48,199.13L1103,239.25L1298.5,263.21L1494,288.04L1689.5,341.84L1885,367.24" style="fill:none;stroke:#FF8000;stroke-width:4" />
<path d="M130.46,80.11A5,5 0 1 1 120.46,80.11A5,5 0 1 1 130.46,80.11Z" style="fill:#FF8000" />
<path d="M325.97,107.57A5,5 0 1 1 315.97,107.57A5,5 0 1 1 325.97,107.57Z" style="fill:#FF8000" />
<path d="M521.47,137.26A5,5 0 1 1 511.47,137.26A5,5 0 1 1 521.47,137.26Z" style="fill:#FF8000" />
<path d="M716.97,193.43A5,5 0 1 1 706.97,193.43A5,5 0 1 1 716.97,193.43Z" style="fill:#FF8000" />
<path d="M912.48,199.13A5,5 0 1 1 902.48,199.13A5,5 0 1 1 912.48,199.13Z" style="fill:#FF8000" />
<path d="M1108,239.25A5,5 0 1 1 1098,239.25A5,5 0 1 1 1108,239.25Z" style="fill:#FF8000" />
<path d="M1303.5,263.21A5,5 0 1 1 1293.5,263.21A5,5 0 1 1 1303.5,263.21Z" style="fill:#FF8000" />
<path d="M1499,288.04A5,5 0 1 1 1489,288.04A5,5 0 1 1 1499,288.04Z" style="fill:#FF8000" />
<path d="M1694.5,341.84A5,5 0 1 1 1684.5,341.84A5,5 0 1 1 1694.5,341.84Z" style="fill:#FF8000" />
<path d="M1890,367.24A5,5 0 1 1 1880,367.24A5,5 0 1 1 1890,367.24Z" style="fill:#FF8000" />
<path d="M1900,146.4L1920,146.4" style="fill:none;stroke:#FF0000;stroke-width:4" />
<path d="M1915,146.4A5,5 0 1 1 1905,146.4A5,5 0 1 1 1915,146.4Z" style="fill:#FF0000" />
<text x="1823.3" y="-141.42" transform="scale(1, -1)"
	style="font-family:Liberation Serif;font-variant:normal;font-weight:normal;font-style:normal;font-size:24px">std::list</text>
<path d="M1900,126.03L1920,126.03" style="fill:none;stroke:#0000FF;stroke-width:4" />
<path d="M1915,126.03A5,5 0 1 1 1905,126.03A5,5 0 1 1 1915,126.03Z" style="fill:#0000FF" />
<text x="1795.4" y="-121.05" transform="scale(1, -1)"
	style="font-family:Liberation Serif;font-variant:normal;font-weight:normal;font-style:normal;font-size:24px">std::deque</text>
<path d="M1900,105.66L1920,105.66" style="fill:none;stroke:#00FF00;stroke-width:4" />
<path d="M1915,105.66A5,5 0 1 1 1905,105.66A5,5 0 1 1 1915,105.66Z" style="fill:#00FF00" />
<text x="1792.7" y="-100.69" transform="scale(1, -1)"
	style="font-family:Liberation Serif;font-variant:normal;font-weight:normal;font-style:normal;font-size:24px">std::vector</text>
<path d="M1900,85.294L1920,85.294" style="fill:none;stroke:#FF8000;stroke-width:4" />
<path d="M1915,85.294A5,5 0 1 1 1905,85.294A5,5 0 1 1 1915,85.294Z" style="fill:#FF8000" />
<text x="1669.4" y="-80.319" transform="scale(1, -1)"
	style="font-family:Liberation Serif;font-variant:normal;font-weight:normal;font-style:normal;font-size:24px">preallocated std::vector</text>
</g>
</svg>
