<?xml version="1.0"?>
<!-- Generated by SVGo and Plotinum VG -->
<svg width="1920pt" height="1080pt" viewBox="0 0 1920 1080"
	xmlns="http://www.w3.org/2000/svg"
	xmlns:xlink="http://www.w3.org/1999/xlink">
<g transform="scale(1, -1) translate(0, -1080)">
<path d="M0,0L1920,0L1920,1080L0,1080Z" style="fill:#FFFFFF" />
<text x="735.77" y="-1040.9" transform="scale(1, -1)"
	style="font-family:Liberation Serif;font-variant:normal;font-weight:normal;font-style:normal;font-size:50px">push-back - Log Scale</text>
<text x="877.77" y="-9.7559" transform="scale(1, -1)"
	style="font-family:Liberation Serif;font-variant:normal;font-weight:normal;font-style:normal;font-size:30px">Number of elements</text>
<text x="85.462" y="-39.727" transform="scale(1, -1)"
	style="font-family:Liberation Serif;font-variant:normal;font-weight:normal;font-style:normal;font-size:20px">100000</text>
<text x="282.08" y="-39.727" transform="scale(1, -1)"
	style="font-family:Liberation Serif;font-variant:normal;font-weight:normal;font-style:normal;font-size:20px">200000</text>
<text x="478.69" y="-39.727" transform="scale(1, -1)"
	style="font-family:Liberation Serif;font-variant:normal;font-weight:normal;font-style:normal;font-size:20px">300000</text>
<text x="675.31" y="-39.727" transform="scale(1, -1)"
	style="font-family:Liberation Serif;font-variant:normal;font-weight:normal;font-style:normal;font-size:20px">400000</text>
<text x="871.92" y="-39.727" transform="scale(1, -1)"
	style="font-family:Liberation Serif;font-variant:normal;font-weight:normal;font-style:normal;font-size:20px">500000</text>
<text x="1068.5" y="-39.727" transform="scale(1, -1)"
	style="font-family:Liberation Serif;font-variant:normal;font-weight:normal;font-style:normal;font-size:20px">600000</text>
<text x="1265.2" y="-39.727" transform="scale(1, -1)"
	style="font-family:Liberation Serif;font-variant:normal;font-weight:normal;font-style:normal;font-size:20px">700000</text>
<text x="1461.8" y="-39.727" transform="scale(1, -1)"
	style="font-family:Liberation Serif;font-variant:normal;font-weight:normal;font-style:normal;font-size:20px">800000</text>
<text x="1658.4" y="-39.727" transform="scale(1, -1)"
	style="font-family:Liberation Serif;font-variant:normal;font-weight:normal;font-style:normal;font-size:20px">900000</text>
<text x="1850" y="-39.727" transform="scale(1, -1)"
	style="font-family:Liberation Serif;font-variant:normal;font-weight:normal;font-style:normal;font-size:20px">1000000</text>
<path d="M115.46,55.371L115.46,63.371" style="fill:none;stroke:#000000;stroke-width:0.5" />
<path d="M312.08,55.371L312.08,63.371" style="fill:none;stroke:#000000;stroke-width:0.5" />
<path d="M508.69,55.371L508.69,63.371" style="fill:none;stroke:#000000;stroke-width:0.5" />
<path d="M705.31,55.371L705.31,63.371" style="fill:none;stroke:#000000;stroke-width:0.5" />
<path d="M901.92,55.371L901.92,63.371" style="fill:none;stroke:#000000;stroke-width:0.5" />
<path d="M1098.5,55.371L1098.5,63.371" style="fill:none;stroke:#000000;stroke-width:0.5" />
<path d="M1295.2,55.371L1295.2,63.371" style="fill:none;stroke:#000000;stroke-width:0.5" />
<path d="M1491.8,55.371L1491.8,63.371" style="fill:none;stroke:#000000;stroke-width:0.5" />
<path d="M1688.4,55.371L1688.4,63.371" style="fill:none;stroke:#000000;stroke-width:0.5" />
<path d="M1885,55.371L1885,63.371" style="fill:none;stroke:#000000;stroke-width:0.5" />
<path d="M115.46,63.371L1885,63.371" style="fill:none;stroke:#000000;stroke-width:0.5" />
<g transform="rotate(90)">
<text x="483.92" y="23.467" transform="scale(1, -1)"
	style="font-family:Liberation Serif;font-variant:normal;font-weight:normal;font-style:normal;font-size:30px">log(μs + 1)</text>
</g>
<text x="49.712" y="-239.48" transform="scale(1, -1)"
	style="font-family:Liberation Serif;font-variant:normal;font-weight:normal;font-style:normal;font-size:20px">5000</text>
<text x="39.712" y="-722.32" transform="scale(1, -1)"
	style="font-family:Liberation Serif;font-variant:normal;font-weight:normal;font-style:normal;font-size:20px">25000</text>
<text x="39.712" y="-898.66" transform="scale(1, -1)"
	style="font-family:Liberation Serif;font-variant:normal;font-weight:normal;font-style:normal;font-size:20px">45000</text>
<text x="39.712" y="-1009" transform="scale(1, -1)"
	style="font-family:Liberation Serif;font-variant:normal;font-weight:normal;font-style:normal;font-size:20px">65000</text>
<path d="M94.712,244.05L102.71,244.05" style="fill:none;stroke:#000000;stroke-width:0.5" />
<path d="M94.712,726.89L102.71,726.89" style="fill:none;stroke:#000000;stroke-width:0.5" />
<path d="M94.712,903.23L102.71,903.23" style="fill:none;stroke:#000000;stroke-width:0.5" />
<path d="M94.712,1013.6L102.71,1013.6" style="fill:none;stroke:#000000;stroke-width:0.5" />
<path d="M98.712,573.64L102.71,573.64" style="fill:none;stroke:#000000;stroke-width:0.5" />
<path d="M98.712,827.84L102.71,827.84" style="fill:none;stroke:#000000;stroke-width:0.5" />
<path d="M98.712,963.44L102.71,963.44" style="fill:none;stroke:#000000;stroke-width:0.5" />
<path d="M102.71,80.11L102.71,1020.7" style="fill:none;stroke:#000000;stroke-width:0.5" />
<path d="M115.46,80.11L115.46,1020.7" style="fill:none;stroke:#808080;stroke-width:0.25" />
<path d="M312.08,80.11L312.08,1020.7" style="fill:none;stroke:#808080;stroke-width:0.25" />
<path d="M508.69,80.11L508.69,1020.7" style="fill:none;stroke:#808080;stroke-width:0.25" />
<path d="M705.31,80.11L705.31,1020.7" style="fill:none;stroke:#808080;stroke-width:0.25" />
<path d="M901.92,80.11L901.92,1020.7" style="fill:none;stroke:#808080;stroke-width:0.25" />
<path d="M1098.5,80.11L1098.5,1020.7" style="fill:none;stroke:#808080;stroke-width:0.25" />
<path d="M1295.2,80.11L1295.2,1020.7" style="fill:none;stroke:#808080;stroke-width:0.25" />
<path d="M1491.8,80.11L1491.8,1020.7" style="fill:none;stroke:#808080;stroke-width:0.25" />
<path d="M1688.4,80.11L1688.4,1020.7" style="fill:none;stroke:#808080;stroke-width:0.25" />
<path d="M1885,80.11L1885,1020.7" style="fill:none;stroke:#808080;stroke-width:0.25" />
<path d="M115.46,244.05L1885,244.05" style="fill:none;stroke:#808080;stroke-width:0.25" />
<path d="M115.46,726.89L1885,726.89" style="fill:none;stroke:#808080;stroke-width:0.25" />
<path d="M115.46,903.23L1885,903.23" style="fill:none;stroke:#808080;stroke-width:0.25" />
<path d="M115.46,1013.6L1885,1013.6" style="fill:none;stroke:#808080;stroke-width:0.25" />
<path d="M115.46,317.41L312.08,525.61L508.69,644.81L705.31,710.92L901.92,834.79L1098.5,842.38L1295.2,904.33L1491.8,929.03L1688.4,969.17L1885,992.14" style="fill:none;stroke:#FF0000;stroke-width:4" />
<path d="M120.46,317.41A5,5 0 1 1 110.46,317.41A5,5 0 1 1 120.46,317.41Z" style="fill:#FF0000" />
<path d="M317.08,525.61A5,5 0 1 1 307.08,525.61A5,5 0 1 1 317.08,525.61Z" style="fill:#FF0000" />
<path d="M513.69,644.81A5,5 0 1 1 503.69,644.81A5,5 0 1 1 513.69,644.81Z" style="fill:#FF0000" />
<path d="M710.31,710.92A5,5 0 1 1 700.31,710.92A5,5 0 1 1 710.31,710.92Z" style="fill:#FF0000" />
<path d="M906.92,834.79A5,5 0 1 1 896.92,834.79A5,5 0 1 1 906.92,834.79Z" style="fill:#FF0000" />
<path d="M1103.5,842.38A5,5 0 1 1 1093.5,842.38A5,5 0 1 1 1103.5,842.38Z" style="fill:#FF0000" />
<path d="M1300.2,904.33A5,5 0 1 1 1290.2,904.33A5,5 0 1 1 1300.2,904.33Z" style="fill:#FF0000" />
<path d="M1496.8,929.03A5,5 0 1 1 1486.8,929.03A5,5 0 1 1 1496.8,929.03Z" style="fill:#FF0000" />
<path d="M1693.4,969.17A5,5 0 1 1 1683.4,969.17A5,5 0 1 1 1693.4,969.17Z" style="fill:#FF0000" />
<path d="M1890,992.14A5,5 0 1 1 1880,992.14A5,5 0 1 1 1890,992.14Z" style="fill:#FF0000" />
<path d="M115.46,293.81L312.08,343.06L508.69,439.06L705.31,571.41L901.92,616.58L1098.5,719.57L1295.2,833.43L1491.8,859.22L1688.4,874.9L1885,912.75" style="fill:none;stroke:#0000FF;stroke-width:4" />
<path d="M120.46,293.81A5,5 0 1 1 110.46,293.81A5,5 0 1 1 120.46,293.81Z" style="fill:#0000FF" />
<path d="M317.08,343.06A5,5 0 1 1 307.08,343.06A5,5 0 1 1 317.08,343.06Z" style="fill:#0000FF" />
<path d="M513.69,439.06A5,5 0 1 1 503.69,439.06A5,5 0 1 1 513.69,439.06Z" style="fill:#0000FF" />
<path d="M710.31,571.41A5,5 0 1 1 700.31,571.41A5,5 0 1 1 710.31,571.41Z" style="fill:#0000FF" />
<path d="M906.92,616.58A5,5 0 1 1 896.92,616.58A5,5 0 1 1 906.92,616.58Z" style="fill:#0000FF" />
<path d="M1103.5,719.57A5,5 0 1 1 1093.5,719.57A5,5 0 1 1 1103.5,719.57Z" style="fill:#0000FF" />
<path d="M1300.2,833.43A5,5 0 1 1 1290.2,833.43A5,5 0 1 1 1300.2,833.43Z" style="fill:#0000FF" />
<path d="M1496.8,859.22A5,5 0 1 1 1486.8,859.22A5,5 0 1 1 1496.8,859.22Z" style="fill:#0000FF" />
<path d="M1693.4,874.9A5,5 0 1 1 1683.4,874.9A5,5 0 1 1 1693.4,874.9Z" style="fill:#0000FF" />
<path d="M1890,912.75A5,5 0 1 1 1880,912.75A5,5 0 1 1 1890,912.75Z" style="fill:#0000FF" />
<path d="M115.46,115.18L312.08,324.01L508.69,515.32L705.31,573.58L901.92,684.6L1098.5,790.01L1295.2,773.8L1491.8,778.69L1688.4,800.03L1885,857.56" style="fill:none;stroke:#00FF00;stroke-width:4" />
<path d="M120.46,115.18A5,5 0 1 1 110.46,115.18A5,5 0 1 1 120.46,115.18Z" style="fill:#00FF00" />
<path d="M317.08,324.01A5,5 0 1 1 307.08,324.01A5,5 0 1 1 317.08,324.01Z" style="fill:#00FF00" />
<path d="M513.69,515.32A5,5 0 1 1 503.69,515.32A5,5 0 1 1 513.69,515.32Z" style="fill:#00FF00" />
<path d="M710.31,573.58A5,5 0 1 1 700.31,573.58A5,5 0 1 1 710.31,573.58Z" style="fill:#00FF00" />
<path d="M906.92,684.6A5,5 0 1 1 896.92,684.6A5,5 0 1 1 906.92,684.6Z" style="fill:#00FF00" />
<path d="M1103.5,790.01A5,5 0 1 1 1093.5,790.01A5,5 0 1 1 1103.5,790.01Z" style="fill:#00FF00" />
<path d="M1300.2,773.8A5,5 0 1 1 1290.2,773.8A5,5 0 1 1 1300.2,773.8Z" style="fill:#00FF00" />
<path d="M1496.8,778.69A5,5 0 1 1 1486.8,778.69A5,5 0 1 1 1496.8,778.69Z" style="fill:#00FF00" />
<path d="M1693.4,800.03A5,5 0 1 1 1683.4,800.03A5,5 0 1 1 1693.4,800.03Z" style="fill:#00FF00" />
<path d="M1890,857.56A5,5 0 1 1 1880,857.56A5,5 0 1 1 1890,857.56Z" style="fill:#00FF00" />
<path d="M115.46,80.11L312.08,239.09L508.69,375.96L705.31,449.86L901.92,510.47L1098.5,663.29L1295.2,664.09L1491.8,691.61L1688.4,740.67L1885,762.33" style="fill:none;stroke:#FF8000;stroke-width:4" />
<path d="M120.46,80.11A5,5 0 1 1 110.46,80.11A5,5 0 1 1 120.46,80.11Z" style="fill:#FF8000" />
<path d="M317.08,239.09A5,5 0 1 1 307.08,239.09A5,5 0 1 1 317.08,239.09Z" style="fill:#FF8000" />
<path d="M513.69,375.96A5,5 0 1 1 503.69,375.96A5,5 0 1 1 513.69,375.96Z" style="fill:#FF8000" />
<path d="M710.31,449.86A5,5 0 1 1 700.31,449.86A5,5 0 1 1 710.31,449.86Z" style="fill:#FF8000" />
<path d="M906.92,510.47A5,5 0 1 1 896.92,510.47A5,5 0 1 1 906.92,510.47Z" style="fill:#FF8000" />
<path d="M1103.5,663.29A5,5 0 1 1 1093.5,663.29A5,5 0 1 1 1103.5,663.29Z" style="fill:#FF8000" />
<path d="M1300.2,664.09A5,5 0 1 1 1290.2,664.09A5,5 0 1 1 1300.2,664.09Z" style="fill:#FF8000" />
<path d="M1496.8,691.61A5,5 0 1 1 1486.8,691.61A5,5 0 1 1 1496.8,691.61Z" style="fill:#FF8000" />
<path d="M1693.4,740.67A5,5 0 1 1 1683.4,740.67A5,5 0 1 1 1693.4,740.67Z" style="fill:#FF8000" />
<path d="M1890,762.33A5,5 0 1 1 1880,762.33A5,5 0 1 1 1890,762.33Z" style="fill:#FF8000" />
<path d="M1900,146.4L1920,146.4" style="fill:none;stroke:#FF0000;stroke-width:4" />
<path d="M1915,146.4A5,5 0 1 1 1905,146.4A5,5 0 1 1 1915,146.4Z" style="fill:#FF0000" />
<text x="1823.3" y="-141.42" transform="scale(1, -1)"
	style="font-family:Liberation Serif;font-variant:normal;font-weight:normal;font-style:normal;font-size:24px">std::list</text>
<path d="M1900,126.03L1920,126.03" style="fill:none;stroke:#0000FF;stroke-width:4" />
<path d="M1915,126.03A5,5 0 1 1 1905,126.03A5,5 0 1 1 1915,126.03Z" style="fill:#0000FF" />
<text x="1795.4" y="-121.05" transform="scale(1, -1)"
	style="font-family:Liberation Serif;font-variant:normal;font-weight:normal;font-style:normal;font-size:24px">std::deque</text>
<path d="M1900,105.66L1920,105.66" style="fill:none;stroke:#00FF00;stroke-width:4" />
<path d="M1915,105.66A5,5 0 1 1 1905,105.66A5,5 0 1 1 1915,105.66Z" style="fill:#00FF00" />
<text x="1792.7" y="-100.69" transform="scale(1, -1)"
	style="font-family:Liberation Serif;font-variant:normal;font-weight:normal;font-style:normal;font-size:24px">std::vector</text>
<path d="M1900,85.294L1920,85.294" style="fill:none;stroke:#FF8000;stroke-width:4" />
<path d="M1915,85.294A5,5 0 1 1 1905,85.294A5,5 0 1 1 1915,85.294Z" style="fill:#FF8000" />
<text x="1669.4" y="-80.319" transform="scale(1, -1)"
	style="font-family:Liberation Serif;font-variant:normal;font-weight:normal;font-style:normal;font-size:24px">preallocated std::vector</text>
</g>
</svg>
