<?xml version="1.0"?>
<!-- Generated by SVGo and Plotinum VG -->
<svg width="1920pt" height="1080pt" viewBox="0 0 1920 1080"
	xmlns="http://www.w3.org/2000/svg"
	xmlns:xlink="http://www.w3.org/1999/xlink">
<g transform="scale(1, -1) translate(0, -1080)">
<path d="M0,0L1920,0L1920,1080L0,1080Z" style="fill:#FFFFFF" />
<text x="857.25" y="-1040.9" transform="scale(1, -1)"
	style="font-family:Liberation Serif;font-variant:normal;font-weight:normal;font-style:normal;font-size:50px">push-back</text>
<text x="882.77" y="-9.7559" transform="scale(1, -1)"
	style="font-family:Liberation Serif;font-variant:normal;font-weight:normal;font-style:normal;font-size:30px">Number of elements</text>
<text x="95.462" y="-39.727" transform="scale(1, -1)"
	style="font-family:Liberation Serif;font-variant:normal;font-weight:normal;font-style:normal;font-size:20px">100000</text>
<text x="290.97" y="-39.727" transform="scale(1, -1)"
	style="font-family:Liberation Serif;font-variant:normal;font-weight:normal;font-style:normal;font-size:20px">200000</text>
<text x="486.47" y="-39.727" transform="scale(1, -1)"
	style="font-family:Liberation Serif;font-variant:normal;font-weight:normal;font-style:normal;font-size:20px">300000</text>
<text x="681.97" y="-39.727" transform="scale(1, -1)"
	style="font-family:Liberation Serif;font-variant:normal;font-weight:normal;font-style:normal;font-size:20px">400000</text>
<text x="877.48" y="-39.727" transform="scale(1, -1)"
	style="font-family:Liberation Serif;font-variant:normal;font-weight:normal;font-style:normal;font-size:20px">500000</text>
<text x="1073" y="-39.727" transform="scale(1, -1)"
	style="font-family:Liberation Serif;font-variant:normal;font-weight:normal;font-style:normal;font-size:20px">600000</text>
<text x="1268.5" y="-39.727" transform="scale(1, -1)"
	style="font-family:Liberation Serif;font-variant:normal;font-weight:normal;font-style:normal;font-size:20px">700000</text>
<text x="1464" y="-39.727" transform="scale(1, -1)"
	style="font-family:Liberation Serif;font-variant:normal;font-weight:normal;font-style:normal;font-size:20px">800000</text>
<text x="1659.5" y="-39.727" transform="scale(1, -1)"
	style="font-family:Liberation Serif;font-variant:normal;font-weight:normal;font-style:normal;font-size:20px">900000</text>
<text x="1850" y="-39.727" transform="scale(1, -1)"
	style="font-family:Liberation Serif;font-variant:normal;font-weight:normal;font-style:normal;font-size:20px">1000000</text>
<path d="M125.46,55.371L125.46,63.371" style="fill:none;stroke:#000000;stroke-width:0.5" />
<path d="M320.97,55.371L320.97,63.371" style="fill:none;stroke:#000000;stroke-width:0.5" />
<path d="M516.47,55.371L516.47,63.371" style="fill:none;stroke:#000000;stroke-width:0.5" />
<path d="M711.97,55.371L711.97,63.371" style="fill:none;stroke:#000000;stroke-width:0.5" />
<path d="M907.48,55.371L907.48,63.371" style="fill:none;stroke:#000000;stroke-width:0.5" />
<path d="M1103,55.371L1103,63.371" style="fill:none;stroke:#000000;stroke-width:0.5" />
<path d="M1298.5,55.371L1298.5,63.371" style="fill:none;stroke:#000000;stroke-width:0.5" />
<path d="M1494,55.371L1494,63.371" style="fill:none;stroke:#000000;stroke-width:0.5" />
<path d="M1689.5,55.371L1689.5,63.371" style="fill:none;stroke:#000000;stroke-width:0.5" />
<path d="M1885,55.371L1885,63.371" style="fill:none;stroke:#000000;stroke-width:0.5" />
<path d="M125.46,63.371L1885,63.371" style="fill:none;stroke:#000000;stroke-width:0.5" />
<g transform="rotate(90)">
<text x="538.49" y="23.467" transform="scale(1, -1)"
	style="font-family:Liberation Serif;font-variant:normal;font-weight:normal;font-style:normal;font-size:30px">μs</text>
</g>
<text x="39.712" y="-272.53" transform="scale(1, -1)"
	style="font-family:Liberation Serif;font-variant:normal;font-weight:normal;font-style:normal;font-size:20px">100000</text>
<text x="39.712" y="-508.58" transform="scale(1, -1)"
	style="font-family:Liberation Serif;font-variant:normal;font-weight:normal;font-style:normal;font-size:20px">200000</text>
<text x="39.712" y="-744.63" transform="scale(1, -1)"
	style="font-family:Liberation Serif;font-variant:normal;font-weight:normal;font-style:normal;font-size:20px">300000</text>
<text x="39.712" y="-980.68" transform="scale(1, -1)"
	style="font-family:Liberation Serif;font-variant:normal;font-weight:normal;font-style:normal;font-size:20px">400000</text>
<path d="M104.71,277.1L112.71,277.1" style="fill:none;stroke:#000000;stroke-width:0.5" />
<path d="M104.71,513.15L112.71,513.15" style="fill:none;stroke:#000000;stroke-width:0.5" />
<path d="M104.71,749.2L112.71,749.2" style="fill:none;stroke:#000000;stroke-width:0.5" />
<path d="M104.71,985.25L112.71,985.25" style="fill:none;stroke:#000000;stroke-width:0.5" />
<path d="M108.71,88.256L112.71,88.256" style="fill:none;stroke:#000000;stroke-width:0.5" />
<path d="M108.71,135.47L112.71,135.47" style="fill:none;stroke:#000000;stroke-width:0.5" />
<path d="M108.71,182.68L112.71,182.68" style="fill:none;stroke:#000000;stroke-width:0.5" />
<path d="M108.71,229.89L112.71,229.89" style="fill:none;stroke:#000000;stroke-width:0.5" />
<path d="M108.71,324.31L112.71,324.31" style="fill:none;stroke:#000000;stroke-width:0.5" />
<path d="M108.71,371.52L112.71,371.52" style="fill:none;stroke:#000000;stroke-width:0.5" />
<path d="M108.71,418.73L112.71,418.73" style="fill:none;stroke:#000000;stroke-width:0.5" />
<path d="M108.71,465.94L112.71,465.94" style="fill:none;stroke:#000000;stroke-width:0.5" />
<path d="M108.71,560.36L112.71,560.36" style="fill:none;stroke:#000000;stroke-width:0.5" />
<path d="M108.71,607.57L112.71,607.57" style="fill:none;stroke:#000000;stroke-width:0.5" />
<path d="M108.71,654.78L112.71,654.78" style="fill:none;stroke:#000000;stroke-width:0.5" />
<path d="M108.71,701.99L112.71,701.99" style="fill:none;stroke:#000000;stroke-width:0.5" />
<path d="M108.71,796.41L112.71,796.41" style="fill:none;stroke:#000000;stroke-width:0.5" />
<path d="M108.71,843.62L112.71,843.62" style="fill:none;stroke:#000000;stroke-width:0.5" />
<path d="M108.71,890.83L112.71,890.83" style="fill:none;stroke:#000000;stroke-width:0.5" />
<path d="M108.71,938.04L112.71,938.04" style="fill:none;stroke:#000000;stroke-width:0.5" />
<path d="M112.71,80.11L112.71,1024.6" style="fill:none;stroke:#000000;stroke-width:0.5" />
<path d="M125.46,80.11L125.46,1024.6" style="fill:none;stroke:#808080;stroke-width:0.25" />
<path d="M320.97,80.11L320.97,1024.6" style="fill:none;stroke:#808080;stroke-width:0.25" />
<path d="M516.47,80.11L516.47,1024.6" style="fill:none;stroke:#808080;stroke-width:0.25" />
<path d="M711.97,80.11L711.97,1024.6" style="fill:none;stroke:#808080;stroke-width:0.25" />
<path d="M907.48,80.11L907.48,1024.6" style="fill:none;stroke:#808080;stroke-width:0.25" />
<path d="M1103,80.11L1103,1024.6" style="fill:none;stroke:#808080;stroke-width:0.25" />
<path d="M1298.5,80.11L1298.5,1024.6" style="fill:none;stroke:#808080;stroke-width:0.25" />
<path d="M1494,80.11L1494,1024.6" style="fill:none;stroke:#808080;stroke-width:0.25" />
<path d="M1689.5,80.11L1689.5,1024.6" style="fill:none;stroke:#808080;stroke-width:0.25" />
<path d="M1885,80.11L1885,1024.6" style="fill:none;stroke:#808080;stroke-width:0.25" />
<path d="M125.46,277.1L1885,277.1" style="fill:none;stroke:#808080;stroke-width:0.25" />
<path d="M125.46,513.15L1885,513.15" style="fill:none;stroke:#808080;stroke-width:0.25" />
<path d="M125.46,749.2L1885,749.2" style="fill:none;stroke:#808080;stroke-width:0.25" />
<path d="M125.46,985.25L1885,985.25" style="fill:none;stroke:#808080;stroke-width:0.25" />
<path d="M125.46,160.04L320.97,252.46L516.47,340.51L711.97,477.94L907.48,615.98L1103,674.19L1298.5,730.15L1494,834.38L1689.5,767.82L1885,852.08" style="fill:none;stroke:#FF0000;stroke-width:4" />
<path d="M130.46,160.04A5,5 0 1 1 120.46,160.04A5,5 0 1 1 130.46,160.04Z" style="fill:#FF0000" />
<path d="M325.97,252.46A5,5 0 1 1 315.97,252.46A5,5 0 1 1 325.97,252.46Z" style="fill:#FF0000" />
<path d="M521.47,340.51A5,5 0 1 1 511.47,340.51A5,5 0 1 1 521.47,340.51Z" style="fill:#FF0000" />
<path d="M716.97,477.94A5,5 0 1 1 706.97,477.94A5,5 0 1 1 716.97,477.94Z" style="fill:#FF0000" />
<path d="M912.48,615.98A5,5 0 1 1 902.48,615.98A5,5 0 1 1 912.48,615.98Z" style="fill:#FF0000" />
<path d="M1108,674.19A5,5 0 1 1 1098,674.19A5,5 0 1 1 1108,674.19Z" style="fill:#FF0000" />
<path d="M1303.5,730.15A5,5 0 1 1 1293.5,730.15A5,5 0 1 1 1303.5,730.15Z" style="fill:#FF0000" />
<path d="M1499,834.38A5,5 0 1 1 1489,834.38A5,5 0 1 1 1499,834.38Z" style="fill:#FF0000" />
<path d="M1694.5,767.82A5,5 0 1 1 1684.5,767.82A5,5 0 1 1 1694.5,767.82Z" style="fill:#FF0000" />
<path d="M1890,852.08A5,5 0 1 1 1880,852.08A5,5 0 1 1 1890,852.08Z" style="fill:#FF0000" />
<path d="M125.46,116.98L320.97,220.79L516.47,346.27L711.97,555.42L907.48,773.32L1103,874.27L1298.5,665.59L1494,766.85L1689.5,833.87L1885,935.21" style="fill:none;stroke:#0000FF;stroke-width:4" />
<path d="M130.46,116.98A5,5 0 1 1 120.46,116.98A5,5 0 1 1 130.46,116.98Z" style="fill:#0000FF" />
<path d="M325.97,220.79A5,5 0 1 1 315.97,220.79A5,5 0 1 1 325.97,220.79Z" style="fill:#0000FF" />
<path d="M521.47,346.27A5,5 0 1 1 511.47,346.27A5,5 0 1 1 521.47,346.27Z" style="fill:#0000FF" />
<path d="M716.97,555.42A5,5 0 1 1 706.97,555.42A5,5 0 1 1 716.97,555.42Z" style="fill:#0000FF" />
<path d="M912.48,773.32A5,5 0 1 1 902.48,773.32A5,5 0 1 1 912.48,773.32Z" style="fill:#0000FF" />
<path d="M1108,874.27A5,5 0 1 1 1098,874.27A5,5 0 1 1 1108,874.27Z" style="fill:#0000FF" />
<path d="M1303.5,665.59A5,5 0 1 1 1293.5,665.59A5,5 0 1 1 1303.5,665.59Z" style="fill:#0000FF" />
<path d="M1499,766.85A5,5 0 1 1 1489,766.85A5,5 0 1 1 1499,766.85Z" style="fill:#0000FF" />
<path d="M1694.5,833.87A5,5 0 1 1 1684.5,833.87A5,5 0 1 1 1694.5,833.87Z" style="fill:#0000FF" />
<path d="M1890,935.21A5,5 0 1 1 1880,935.21A5,5 0 1 1 1890,935.21Z" style="fill:#0000FF" />
<path d="M125.46,125.06L320.97,208.13L516.47,348.87L711.97,375.6L907.48,421.94L1103,760.16L1298.5,764L1494,800.53L1689.5,775.02L1885,809.75" style="fill:none;stroke:#00FF00;stroke-width:4" />
<path d="M130.46,125.06A5,5 0 1 1 120.46,125.06A5,5 0 1 1 130.46,125.06Z" style="fill:#00FF00" />
<path d="M325.97,208.13A5,5 0 1 1 315.97,208.13A5,5 0 1 1 325.97,208.13Z" style="fill:#00FF00" />
<path d="M521.47,348.87A5,5 0 1 1 511.47,348.87A5,5 0 1 1 521.47,348.87Z" style="fill:#00FF00" />
<path d="M716.97,375.6A5,5 0 1 1 706.97,375.6A5,5 0 1 1 716.97,375.6Z" style="fill:#00FF00" />
<path d="M912.48,421.94A5,5 0 1 1 902.48,421.94A5,5 0 1 1 912.48,421.94Z" style="fill:#00FF00" />
<path d="M1108,760.16A5,5 0 1 1 1098,760.16A5,5 0 1 1 1108,760.16Z" style="fill:#00FF00" />
<path d="M1303.5,764A5,5 0 1 1 1293.5,764A5,5 0 1 1 1303.5,764Z" style="fill:#00FF00" />
<path d="M1499,800.53A5,5 0 1 1 1489,800.53A5,5 0 1 1 1499,800.53Z" style="fill:#00FF00" />
<path d="M1694.5,775.02A5,5 0 1 1 1684.5,775.02A5,5 0 1 1 1694.5,775.02Z" style="fill:#00FF00" />
<path d="M1890,809.75A5,5 0 1 1 1880,809.75A5,5 0 1 1 1890,809.75Z" style="fill:#00FF00" />
<path d="M125.46,80.11L320.97,118.4L516.47,152.59L711.97,191.02L907.48,232.4L1103,297.44L1298.5,319.73L1494,408.34L1689.5,387.16L1885,424.76" style="fill:none;stroke:#FF8000;stroke-width:4" />
<path d="M130.46,80.11A5,5 0 1 1 120.46,80.11A5,5 0 1 1 130.46,80.11Z" style="fill:#FF8000" />
<path d="M325.97,118.4A5,5 0 1 1 315.97,118.4A5,5 0 1 1 325.97,118.4Z" style="fill:#FF8000" />
<path d="M521.47,152.59A5,5 0 1 1 511.47,152.59A5,5 0 1 1 521.47,152.59Z" style="fill:#FF8000" />
<path d="M716.97,191.02A5,5 0 1 1 706.97,191.02A5,5 0 1 1 716.97,191.02Z" style="fill:#FF8000" />
<path d="M912.48,232.4A5,5 0 1 1 902.48,232.4A5,5 0 1 1 912.48,232.4Z" style="fill:#FF8000" />
<path d="M1108,297.44A5,5 0 1 1 1098,297.44A5,5 0 1 1 1108,297.44Z" style="fill:#FF8000" />
<path d="M1303.5,319.73A5,5 0 1 1 1293.5,319.73A5,5 0 1 1 1303.5,319.73Z" style="fill:#FF8000" />
<path d="M1499,408.34A5,5 0 1 1 1489,408.34A5,5 0 1 1 1499,408.34Z" style="fill:#FF8000" />
<path d="M1694.5,387.16A5,5 0 1 1 1684.5,387.16A5,5 0 1 1 1694.5,387.16Z" style="fill:#FF8000" />
<path d="M1890,424.76A5,5 0 1 1 1880,424.76A5,5 0 1 1 1890,424.76Z" style="fill:#FF8000" />
<path d="M1900,146.4L1920,146.4" style="fill:none;stroke:#FF0000;stroke-width:4" />
<path d="M1915,146.4A5,5 0 1 1 1905,146.4A5,5 0 1 1 1915,146.4Z" style="fill:#FF0000" />
<text x="1823.3" y="-141.42" transform="scale(1, -1)"
	style="font-family:Liberation Serif;font-variant:normal;font-weight:normal;font-style:normal;font-size:24px">std::list</text>
<path d="M1900,126.03L1920,126.03" style="fill:none;stroke:#0000FF;stroke-width:4" />
<path d="M1915,126.03A5,5 0 1 1 1905,126.03A5,5 0 1 1 1915,126.03Z" style="fill:#0000FF" />
<text x="1795.4" y="-121.05" transform="scale(1, -1)"
	style="font-family:Liberation Serif;font-variant:normal;font-weight:normal;font-style:normal;font-size:24px">std::deque</text>
<path d="M1900,105.66L1920,105.66" style="fill:none;stroke:#00FF00;stroke-width:4" />
<path d="M1915,105.66A5,5 0 1 1 1905,105.66A5,5 0 1 1 1915,105.66Z" style="fill:#00FF00" />
<text x="1792.7" y="-100.69" transform="scale(1, -1)"
	style="font-family:Liberation Serif;font-variant:normal;font-weight:normal;font-style:normal;font-size:24px">std::vector</text>
<path d="M1900,85.294L1920,85.294" style="fill:none;stroke:#FF8000;stroke-width:4" />
<path d="M1915,85.294A5,5 0 1 1 1905,85.294A5,5 0 1 1 1915,85.294Z" style="fill:#FF8000" />
<text x="1669.4" y="-80.319" transform="scale(1, -1)"
	style="font-family:Liberation Serif;font-variant:normal;font-weight:normal;font-style:normal;font-size:24px">preallocated std::vector</text>
</g>
</svg>
