<?xml version="1.0"?>
<!-- Generated by SVGo and Plotinum VG -->
<svg width="1920pt" height="1080pt" viewBox="0 0 1920 1080"
	xmlns="http://www.w3.org/2000/svg"
	xmlns:xlink="http://www.w3.org/1999/xlink">
<g transform="scale(1, -1) translate(0, -1080)">
<path d="M0,0L1920,0L1920,1080L0,1080Z" style="fill:#FFFFFF" />
<text x="735.77" y="-1040.9" transform="scale(1, -1)"
	style="font-family:Liberation Serif;font-variant:normal;font-weight:normal;font-style:normal;font-size:50px">push-back - Log Scale</text>
<text x="882.77" y="-9.7559" transform="scale(1, -1)"
	style="font-family:Liberation Serif;font-variant:normal;font-weight:normal;font-style:normal;font-size:30px">Number of elements</text>
<text x="95.462" y="-39.727" transform="scale(1, -1)"
	style="font-family:Liberation Serif;font-variant:normal;font-weight:normal;font-style:normal;font-size:20px">100000</text>
<text x="290.97" y="-39.727" transform="scale(1, -1)"
	style="font-family:Liberation Serif;font-variant:normal;font-weight:normal;font-style:normal;font-size:20px">200000</text>
<text x="486.47" y="-39.727" transform="scale(1, -1)"
	style="font-family:Liberation Serif;font-variant:normal;font-weight:normal;font-style:normal;font-size:20px">300000</text>
<text x="681.97" y="-39.727" transform="scale(1, -1)"
	style="font-family:Liberation Serif;font-variant:normal;font-weight:normal;font-style:normal;font-size:20px">400000</text>
<text x="877.48" y="-39.727" transform="scale(1, -1)"
	style="font-family:Liberation Serif;font-variant:normal;font-weight:normal;font-style:normal;font-size:20px">500000</text>
<text x="1073" y="-39.727" transform="scale(1, -1)"
	style="font-family:Liberation Serif;font-variant:normal;font-weight:normal;font-style:normal;font-size:20px">600000</text>
<text x="1268.5" y="-39.727" transform="scale(1, -1)"
	style="font-family:Liberation Serif;font-variant:normal;font-weight:normal;font-style:normal;font-size:20px">700000</text>
<text x="1464" y="-39.727" transform="scale(1, -1)"
	style="font-family:Liberation Serif;font-variant:normal;font-weight:normal;font-style:normal;font-size:20px">800000</text>
<text x="1659.5" y="-39.727" transform="scale(1, -1)"
	style="font-family:Liberation Serif;font-variant:normal;font-weight:normal;font-style:normal;font-size:20px">900000</text>
<text x="1850" y="-39.727" transform="scale(1, -1)"
	style="font-family:Liberation Serif;font-variant:normal;font-weight:normal;font-style:normal;font-size:20px">1000000</text>
<path d="M125.46,55.371L125.46,63.371" style="fill:none;stroke:#000000;stroke-width:0.5" />
<path d="M320.97,55.371L320.97,63.371" style="fill:none;stroke:#000000;stroke-width:0.5" />
<path d="M516.47,55.371L516.47,63.371" style="fill:none;stroke:#000000;stroke-width:0.5" />
<path d="M711.97,55.371L711.97,63.371" style="fill:none;stroke:#000000;stroke-width:0.5" />
<path d="M907.48,55.371L907.48,63.371" style="fill:none;stroke:#000000;stroke-width:0.5" />
<path d="M1103,55.371L1103,63.371" style="fill:none;stroke:#000000;stroke-width:0.5" />
<path d="M1298.5,55.371L1298.5,63.371" style="fill:none;stroke:#000000;stroke-width:0.5" />
<path d="M1494,55.371L1494,63.371" style="fill:none;stroke:#000000;stroke-width:0.5" />
<path d="M1689.5,55.371L1689.5,63.371" style="fill:none;stroke:#000000;stroke-width:0.5" />
<path d="M1885,55.371L1885,63.371" style="fill:none;stroke:#000000;stroke-width:0.5" />
<path d="M125.46,63.371L1885,63.371" style="fill:none;stroke:#000000;stroke-width:0.5" />
<g transform="rotate(90)">
<text x="485.87" y="23.467" transform="scale(1, -1)"
	style="font-family:Liberation Serif;font-variant:normal;font-weight:normal;font-style:normal;font-size:30px">log(μs + 1)</text>
</g>
<text x="49.712" y="-495.25" transform="scale(1, -1)"
	style="font-family:Liberation Serif;font-variant:normal;font-weight:normal;font-style:normal;font-size:20px">20000</text>
<text x="49.712" y="-830.8" transform="scale(1, -1)"
	style="font-family:Liberation Serif;font-variant:normal;font-weight:normal;font-style:normal;font-size:20px">60000</text>
<text x="39.712" y="-986.82" transform="scale(1, -1)"
	style="font-family:Liberation Serif;font-variant:normal;font-weight:normal;font-style:normal;font-size:20px">100000</text>
<path d="M104.71,499.82L112.71,499.82" style="fill:none;stroke:#000000;stroke-width:0.5" />
<path d="M104.71,835.37L112.71,835.37" style="fill:none;stroke:#000000;stroke-width:0.5" />
<path d="M104.71,991.39L112.71,991.39" style="fill:none;stroke:#000000;stroke-width:0.5" />
<path d="M108.71,288.11L112.71,288.11" style="fill:none;stroke:#000000;stroke-width:0.5" />
<path d="M108.71,623.66L112.71,623.66" style="fill:none;stroke:#000000;stroke-width:0.5" />
<path d="M108.71,711.53L112.71,711.53" style="fill:none;stroke:#000000;stroke-width:0.5" />
<path d="M108.71,779.68L112.71,779.68" style="fill:none;stroke:#000000;stroke-width:0.5" />
<path d="M108.71,882.45L112.71,882.45" style="fill:none;stroke:#000000;stroke-width:0.5" />
<path d="M108.71,923.24L112.71,923.24" style="fill:none;stroke:#000000;stroke-width:0.5" />
<path d="M108.71,959.21L112.71,959.21" style="fill:none;stroke:#000000;stroke-width:0.5" />
<path d="M108.71,1020.5L112.71,1020.5" style="fill:none;stroke:#000000;stroke-width:0.5" />
<path d="M112.71,80.11L112.71,1024.6" style="fill:none;stroke:#000000;stroke-width:0.5" />
<path d="M125.46,80.11L125.46,1024.6" style="fill:none;stroke:#808080;stroke-width:0.25" />
<path d="M320.97,80.11L320.97,1024.6" style="fill:none;stroke:#808080;stroke-width:0.25" />
<path d="M516.47,80.11L516.47,1024.6" style="fill:none;stroke:#808080;stroke-width:0.25" />
<path d="M711.97,80.11L711.97,1024.6" style="fill:none;stroke:#808080;stroke-width:0.25" />
<path d="M907.48,80.11L907.48,1024.6" style="fill:none;stroke:#808080;stroke-width:0.25" />
<path d="M1103,80.11L1103,1024.6" style="fill:none;stroke:#808080;stroke-width:0.25" />
<path d="M1298.5,80.11L1298.5,1024.6" style="fill:none;stroke:#808080;stroke-width:0.25" />
<path d="M1494,80.11L1494,1024.6" style="fill:none;stroke:#808080;stroke-width:0.25" />
<path d="M1689.5,80.11L1689.5,1024.6" style="fill:none;stroke:#808080;stroke-width:0.25" />
<path d="M1885,80.11L1885,1024.6" style="fill:none;stroke:#808080;stroke-width:0.25" />
<path d="M125.46,499.82L1885,499.82" style="fill:none;stroke:#808080;stroke-width:0.25" />
<path d="M125.46,835.37L1885,835.37" style="fill:none;stroke:#808080;stroke-width:0.25" />
<path d="M125.46,991.39L1885,991.39" style="fill:none;stroke:#808080;stroke-width:0.25" />
<path d="M125.46,80.11L320.97,242.83L516.47,419.87L711.97,492.76L907.48,509.19L1103,576.97L1298.5,607.12L1494,648.72L1689.5,692.77L1885,755.94" style="fill:none;stroke:#FF0000;stroke-width:4" />
<path d="M130.46,80.11A5,5 0 1 1 120.46,80.11A5,5 0 1 1 130.46,80.11Z" style="fill:#FF0000" />
<path d="M325.97,242.83A5,5 0 1 1 315.97,242.83A5,5 0 1 1 325.97,242.83Z" style="fill:#FF0000" />
<path d="M521.47,419.87A5,5 0 1 1 511.47,419.87A5,5 0 1 1 521.47,419.87Z" style="fill:#FF0000" />
<path d="M716.97,492.76A5,5 0 1 1 706.97,492.76A5,5 0 1 1 716.97,492.76Z" style="fill:#FF0000" />
<path d="M912.48,509.19A5,5 0 1 1 902.48,509.19A5,5 0 1 1 912.48,509.19Z" style="fill:#FF0000" />
<path d="M1108,576.97A5,5 0 1 1 1098,576.97A5,5 0 1 1 1108,576.97Z" style="fill:#FF0000" />
<path d="M1303.5,607.12A5,5 0 1 1 1293.5,607.12A5,5 0 1 1 1303.5,607.12Z" style="fill:#FF0000" />
<path d="M1499,648.72A5,5 0 1 1 1489,648.72A5,5 0 1 1 1499,648.72Z" style="fill:#FF0000" />
<path d="M1694.5,692.77A5,5 0 1 1 1684.5,692.77A5,5 0 1 1 1694.5,692.77Z" style="fill:#FF0000" />
<path d="M1890,755.94A5,5 0 1 1 1880,755.94A5,5 0 1 1 1890,755.94Z" style="fill:#FF0000" />
<path d="M125.46,214.22L320.97,398.28L516.47,517.99L711.97,605.34L907.48,708.35L1103,836.1L1298.5,869.08L1494,931.52L1689.5,960.13L1885,995.52" style="fill:none;stroke:#0000FF;stroke-width:4" />
<path d="M130.46,214.22A5,5 0 1 1 120.46,214.22A5,5 0 1 1 130.46,214.22Z" style="fill:#0000FF" />
<path d="M325.97,398.28A5,5 0 1 1 315.97,398.28A5,5 0 1 1 325.97,398.28Z" style="fill:#0000FF" />
<path d="M521.47,517.99A5,5 0 1 1 511.47,517.99A5,5 0 1 1 521.47,517.99Z" style="fill:#0000FF" />
<path d="M716.97,605.34A5,5 0 1 1 706.97,605.34A5,5 0 1 1 716.97,605.34Z" style="fill:#0000FF" />
<path d="M912.48,708.35A5,5 0 1 1 902.48,708.35A5,5 0 1 1 912.48,708.35Z" style="fill:#0000FF" />
<path d="M1108,836.1A5,5 0 1 1 1098,836.1A5,5 0 1 1 1108,836.1Z" style="fill:#0000FF" />
<path d="M1303.5,869.08A5,5 0 1 1 1293.5,869.08A5,5 0 1 1 1303.5,869.08Z" style="fill:#0000FF" />
<path d="M1499,931.52A5,5 0 1 1 1489,931.52A5,5 0 1 1 1499,931.52Z" style="fill:#0000FF" />
<path d="M1694.5,960.13A5,5 0 1 1 1684.5,960.13A5,5 0 1 1 1694.5,960.13Z" style="fill:#0000FF" />
<path d="M1890,995.52A5,5 0 1 1 1880,995.52A5,5 0 1 1 1890,995.52Z" style="fill:#0000FF" />
<path d="M125.46,135.74L320.97,299.45L516.47,434.18L711.97,544.3L907.48,655.28L1103,692.69L1298.5,736.04L1494,830.41L1689.5,897.81L1885,909.65" style="fill:none;stroke:#00FF00;stroke-width:4" />
<path d="M130.46,135.74A5,5 0 1 1 120.46,135.74A5,5 0 1 1 130.46,135.74Z" style="fill:#00FF00" />
<path d="M325.97,299.45A5,5 0 1 1 315.97,299.45A5,5 0 1 1 325.97,299.45Z" style="fill:#00FF00" />
<path d="M521.47,434.18A5,5 0 1 1 511.47,434.18A5,5 0 1 1 521.47,434.18Z" style="fill:#00FF00" />
<path d="M716.97,544.3A5,5 0 1 1 706.97,544.3A5,5 0 1 1 716.97,544.3Z" style="fill:#00FF00" />
<path d="M912.48,655.28A5,5 0 1 1 902.48,655.28A5,5 0 1 1 912.48,655.28Z" style="fill:#00FF00" />
<path d="M1108,692.69A5,5 0 1 1 1098,692.69A5,5 0 1 1 1108,692.69Z" style="fill:#00FF00" />
<path d="M1303.5,736.04A5,5 0 1 1 1293.5,736.04A5,5 0 1 1 1303.5,736.04Z" style="fill:#00FF00" />
<path d="M1499,830.41A5,5 0 1 1 1489,830.41A5,5 0 1 1 1499,830.41Z" style="fill:#00FF00" />
<path d="M1694.5,897.81A5,5 0 1 1 1684.5,897.81A5,5 0 1 1 1694.5,897.81Z" style="fill:#00FF00" />
<path d="M1890,909.65A5,5 0 1 1 1880,909.65A5,5 0 1 1 1890,909.65Z" style="fill:#00FF00" />
<path d="M125.46,133.36L320.97,332.81L516.47,505.57L711.97,542.62L907.48,617.11L1103,725.93L1298.5,740.93L1494,782.04L1689.5,794.21L1885,843.4" style="fill:none;stroke:#FF8000;stroke-width:4" />
<path d="M130.46,133.36A5,5 0 1 1 120.46,133.36A5,5 0 1 1 130.46,133.36Z" style="fill:#FF8000" />
<path d="M325.97,332.81A5,5 0 1 1 315.97,332.81A5,5 0 1 1 325.97,332.81Z" style="fill:#FF8000" />
<path d="M521.47,505.57A5,5 0 1 1 511.47,505.57A5,5 0 1 1 521.47,505.57Z" style="fill:#FF8000" />
<path d="M716.97,542.62A5,5 0 1 1 706.97,542.62A5,5 0 1 1 716.97,542.62Z" style="fill:#FF8000" />
<path d="M912.48,617.11A5,5 0 1 1 902.48,617.11A5,5 0 1 1 912.48,617.11Z" style="fill:#FF8000" />
<path d="M1108,725.93A5,5 0 1 1 1098,725.93A5,5 0 1 1 1108,725.93Z" style="fill:#FF8000" />
<path d="M1303.5,740.93A5,5 0 1 1 1293.5,740.93A5,5 0 1 1 1303.5,740.93Z" style="fill:#FF8000" />
<path d="M1499,782.04A5,5 0 1 1 1489,782.04A5,5 0 1 1 1499,782.04Z" style="fill:#FF8000" />
<path d="M1694.5,794.21A5,5 0 1 1 1684.5,794.21A5,5 0 1 1 1694.5,794.21Z" style="fill:#FF8000" />
<path d="M1890,843.4A5,5 0 1 1 1880,843.4A5,5 0 1 1 1890,843.4Z" style="fill:#FF8000" />
<path d="M1900,146.4L1920,146.4" style="fill:none;stroke:#FF0000;stroke-width:4" />
<path d="M1915,146.4A5,5 0 1 1 1905,146.4A5,5 0 1 1 1915,146.4Z" style="fill:#FF0000" />
<text x="1669.4" y="-141.42" transform="scale(1, -1)"
	style="font-family:Liberation Serif;font-variant:normal;font-weight:normal;font-style:normal;font-size:24px">preallocated std::vector</text>
<path d="M1900,126.03L1920,126.03" style="fill:none;stroke:#0000FF;stroke-width:4" />
<path d="M1915,126.03A5,5 0 1 1 1905,126.03A5,5 0 1 1 1915,126.03Z" style="fill:#0000FF" />
<text x="1823.3" y="-121.05" transform="scale(1, -1)"
	style="font-family:Liberation Serif;font-variant:normal;font-weight:normal;font-style:normal;font-size:24px">std::list</text>
<path d="M1900,105.66L1920,105.66" style="fill:none;stroke:#00FF00;stroke-width:4" />
<path d="M1915,105.66A5,5 0 1 1 1905,105.66A5,5 0 1 1 1915,105.66Z" style="fill:#00FF00" />
<text x="1795.4" y="-100.69" transform="scale(1, -1)"
	style="font-family:Liberation Serif;font-variant:normal;font-weight:normal;font-style:normal;font-size:24px">std::deque</text>
<path d="M1900,85.294L1920,85.294" style="fill:none;stroke:#FF8000;stroke-width:4" />
<path d="M1915,85.294A5,5 0 1 1 1905,85.294A5,5 0 1 1 1915,85.294Z" style="fill:#FF8000" />
<text x="1792.7" y="-80.319" transform="scale(1, -1)"
	style="font-family:Liberation Serif;font-variant:normal;font-weight:normal;font-style:normal;font-size:24px">std::vector</text>
</g>
</svg>
