<?xml version="1.0"?>
<!-- Generated by SVGo and Plotinum VG -->
<svg width="1920pt" height="1080pt" viewBox="0 0 1920 1080"
	xmlns="http://www.w3.org/2000/svg"
	xmlns:xlink="http://www.w3.org/1999/xlink">
<g transform="scale(1, -1) translate(0, -1080)">
<path d="M0,0L1920,0L1920,1080L0,1080Z" style="fill:#FFFFFF" />
<text x="857.25" y="-1040.9" transform="scale(1, -1)"
	style="font-family:Liberation Serif;font-variant:normal;font-weight:normal;font-style:normal;font-size:50px">push-back</text>
<text x="882.77" y="-9.7559" transform="scale(1, -1)"
	style="font-family:Liberation Serif;font-variant:normal;font-weight:normal;font-style:normal;font-size:30px">Number of elements</text>
<text x="95.462" y="-39.727" transform="scale(1, -1)"
	style="font-family:Liberation Serif;font-variant:normal;font-weight:normal;font-style:normal;font-size:20px">100000</text>
<text x="290.97" y="-39.727" transform="scale(1, -1)"
	style="font-family:Liberation Serif;font-variant:normal;font-weight:normal;font-style:normal;font-size:20px">200000</text>
<text x="486.47" y="-39.727" transform="scale(1, -1)"
	style="font-family:Liberation Serif;font-variant:normal;font-weight:normal;font-style:normal;font-size:20px">300000</text>
<text x="681.97" y="-39.727" transform="scale(1, -1)"
	style="font-family:Liberation Serif;font-variant:normal;font-weight:normal;font-style:normal;font-size:20px">400000</text>
<text x="877.48" y="-39.727" transform="scale(1, -1)"
	style="font-family:Liberation Serif;font-variant:normal;font-weight:normal;font-style:normal;font-size:20px">500000</text>
<text x="1073" y="-39.727" transform="scale(1, -1)"
	style="font-family:Liberation Serif;font-variant:normal;font-weight:normal;font-style:normal;font-size:20px">600000</text>
<text x="1268.5" y="-39.727" transform="scale(1, -1)"
	style="font-family:Liberation Serif;font-variant:normal;font-weight:normal;font-style:normal;font-size:20px">700000</text>
<text x="1464" y="-39.727" transform="scale(1, -1)"
	style="font-family:Liberation Serif;font-variant:normal;font-weight:normal;font-style:normal;font-size:20px">800000</text>
<text x="1659.5" y="-39.727" transform="scale(1, -1)"
	style="font-family:Liberation Serif;font-variant:normal;font-weight:normal;font-style:normal;font-size:20px">900000</text>
<text x="1850" y="-39.727" transform="scale(1, -1)"
	style="font-family:Liberation Serif;font-variant:normal;font-weight:normal;font-style:normal;font-size:20px">1000000</text>
<path d="M125.46,55.371L125.46,63.371" style="fill:none;stroke:#000000;stroke-width:0.5" />
<path d="M320.97,55.371L320.97,63.371" style="fill:none;stroke:#000000;stroke-width:0.5" />
<path d="M516.47,55.371L516.47,63.371" style="fill:none;stroke:#000000;stroke-width:0.5" />
<path d="M711.97,55.371L711.97,63.371" style="fill:none;stroke:#000000;stroke-width:0.5" />
<path d="M907.48,55.371L907.48,63.371" style="fill:none;stroke:#000000;stroke-width:0.5" />
<path d="M1103,55.371L1103,63.371" style="fill:none;stroke:#000000;stroke-width:0.5" />
<path d="M1298.5,55.371L1298.5,63.371" style="fill:none;stroke:#000000;stroke-width:0.5" />
<path d="M1494,55.371L1494,63.371" style="fill:none;stroke:#000000;stroke-width:0.5" />
<path d="M1689.5,55.371L1689.5,63.371" style="fill:none;stroke:#000000;stroke-width:0.5" />
<path d="M1885,55.371L1885,63.371" style="fill:none;stroke:#000000;stroke-width:0.5" />
<path d="M125.46,63.371L1885,63.371" style="fill:none;stroke:#000000;stroke-width:0.5" />
<g transform="rotate(90)">
<text x="538.49" y="23.467" transform="scale(1, -1)"
	style="font-family:Liberation Serif;font-variant:normal;font-weight:normal;font-style:normal;font-size:30px">μs</text>
</g>
<text x="39.712" y="-270.23" transform="scale(1, -1)"
	style="font-family:Liberation Serif;font-variant:normal;font-weight:normal;font-style:normal;font-size:20px">100000</text>
<text x="39.712" y="-507.27" transform="scale(1, -1)"
	style="font-family:Liberation Serif;font-variant:normal;font-weight:normal;font-style:normal;font-size:20px">200000</text>
<text x="39.712" y="-744.31" transform="scale(1, -1)"
	style="font-family:Liberation Serif;font-variant:normal;font-weight:normal;font-style:normal;font-size:20px">300000</text>
<text x="39.712" y="-981.35" transform="scale(1, -1)"
	style="font-family:Liberation Serif;font-variant:normal;font-weight:normal;font-style:normal;font-size:20px">400000</text>
<path d="M104.71,274.8L112.71,274.8" style="fill:none;stroke:#000000;stroke-width:0.5" />
<path d="M104.71,511.84L112.71,511.84" style="fill:none;stroke:#000000;stroke-width:0.5" />
<path d="M104.71,748.88L112.71,748.88" style="fill:none;stroke:#000000;stroke-width:0.5" />
<path d="M104.71,985.92L112.71,985.92" style="fill:none;stroke:#000000;stroke-width:0.5" />
<path d="M108.71,85.169L112.71,85.169" style="fill:none;stroke:#000000;stroke-width:0.5" />
<path d="M108.71,132.58L112.71,132.58" style="fill:none;stroke:#000000;stroke-width:0.5" />
<path d="M108.71,179.98L112.71,179.98" style="fill:none;stroke:#000000;stroke-width:0.5" />
<path d="M108.71,227.39L112.71,227.39" style="fill:none;stroke:#000000;stroke-width:0.5" />
<path d="M108.71,322.21L112.71,322.21" style="fill:none;stroke:#000000;stroke-width:0.5" />
<path d="M108.71,369.62L112.71,369.62" style="fill:none;stroke:#000000;stroke-width:0.5" />
<path d="M108.71,417.03L112.71,417.03" style="fill:none;stroke:#000000;stroke-width:0.5" />
<path d="M108.71,464.43L112.71,464.43" style="fill:none;stroke:#000000;stroke-width:0.5" />
<path d="M108.71,559.25L112.71,559.25" style="fill:none;stroke:#000000;stroke-width:0.5" />
<path d="M108.71,606.66L112.71,606.66" style="fill:none;stroke:#000000;stroke-width:0.5" />
<path d="M108.71,654.07L112.71,654.07" style="fill:none;stroke:#000000;stroke-width:0.5" />
<path d="M108.71,701.47L112.71,701.47" style="fill:none;stroke:#000000;stroke-width:0.5" />
<path d="M108.71,796.29L112.71,796.29" style="fill:none;stroke:#000000;stroke-width:0.5" />
<path d="M108.71,843.7L112.71,843.7" style="fill:none;stroke:#000000;stroke-width:0.5" />
<path d="M108.71,891.11L112.71,891.11" style="fill:none;stroke:#000000;stroke-width:0.5" />
<path d="M108.71,938.51L112.71,938.51" style="fill:none;stroke:#000000;stroke-width:0.5" />
<path d="M112.71,80.11L112.71,1024.6" style="fill:none;stroke:#000000;stroke-width:0.5" />
<path d="M125.46,80.11L125.46,1024.6" style="fill:none;stroke:#808080;stroke-width:0.25" />
<path d="M320.97,80.11L320.97,1024.6" style="fill:none;stroke:#808080;stroke-width:0.25" />
<path d="M516.47,80.11L516.47,1024.6" style="fill:none;stroke:#808080;stroke-width:0.25" />
<path d="M711.97,80.11L711.97,1024.6" style="fill:none;stroke:#808080;stroke-width:0.25" />
<path d="M907.48,80.11L907.48,1024.6" style="fill:none;stroke:#808080;stroke-width:0.25" />
<path d="M1103,80.11L1103,1024.6" style="fill:none;stroke:#808080;stroke-width:0.25" />
<path d="M1298.5,80.11L1298.5,1024.6" style="fill:none;stroke:#808080;stroke-width:0.25" />
<path d="M1494,80.11L1494,1024.6" style="fill:none;stroke:#808080;stroke-width:0.25" />
<path d="M1689.5,80.11L1689.5,1024.6" style="fill:none;stroke:#808080;stroke-width:0.25" />
<path d="M1885,80.11L1885,1024.6" style="fill:none;stroke:#808080;stroke-width:0.25" />
<path d="M125.46,274.8L1885,274.8" style="fill:none;stroke:#808080;stroke-width:0.25" />
<path d="M125.46,511.84L1885,511.84" style="fill:none;stroke:#808080;stroke-width:0.25" />
<path d="M125.46,748.88L1885,748.88" style="fill:none;stroke:#808080;stroke-width:0.25" />
<path d="M125.46,985.92L1885,985.92" style="fill:none;stroke:#808080;stroke-width:0.25" />
<path d="M125.46,109.18L320.97,192.04L516.47,260.71L711.97,343.86L907.48,468.76L1103,530.48L1298.5,672.57L1494,688.14L1689.5,777.42L1885,884.24" style="fill:none;stroke:#FF0000;stroke-width:4" />
<path d="M130.46,109.18A5,5 0 1 1 120.46,109.18A5,5 0 1 1 130.46,109.18Z" style="fill:#FF0000" />
<path d="M325.97,192.04A5,5 0 1 1 315.97,192.04A5,5 0 1 1 325.97,192.04Z" style="fill:#FF0000" />
<path d="M521.47,260.71A5,5 0 1 1 511.47,260.71A5,5 0 1 1 521.47,260.71Z" style="fill:#FF0000" />
<path d="M716.97,343.86A5,5 0 1 1 706.97,343.86A5,5 0 1 1 716.97,343.86Z" style="fill:#FF0000" />
<path d="M912.48,468.76A5,5 0 1 1 902.48,468.76A5,5 0 1 1 912.48,468.76Z" style="fill:#FF0000" />
<path d="M1108,530.48A5,5 0 1 1 1098,530.48A5,5 0 1 1 1108,530.48Z" style="fill:#FF0000" />
<path d="M1303.5,672.57A5,5 0 1 1 1293.5,672.57A5,5 0 1 1 1303.5,672.57Z" style="fill:#FF0000" />
<path d="M1499,688.14A5,5 0 1 1 1489,688.14A5,5 0 1 1 1499,688.14Z" style="fill:#FF0000" />
<path d="M1694.5,777.42A5,5 0 1 1 1684.5,777.42A5,5 0 1 1 1694.5,777.42Z" style="fill:#FF0000" />
<path d="M1890,884.24A5,5 0 1 1 1880,884.24A5,5 0 1 1 1890,884.24Z" style="fill:#FF0000" />
<path d="M125.46,119.16L320.97,205.67L516.47,310.97L711.97,401.32L907.48,472.47L1103,558.61L1298.5,681.43L1494,722.49L1689.5,846.4L1885,934.91" style="fill:none;stroke:#0000FF;stroke-width:4" />
<path d="M130.46,119.16A5,5 0 1 1 120.46,119.16A5,5 0 1 1 130.46,119.16Z" style="fill:#0000FF" />
<path d="M325.97,205.67A5,5 0 1 1 315.97,205.67A5,5 0 1 1 325.97,205.67Z" style="fill:#0000FF" />
<path d="M521.47,310.97A5,5 0 1 1 511.47,310.97A5,5 0 1 1 521.47,310.97Z" style="fill:#0000FF" />
<path d="M716.97,401.32A5,5 0 1 1 706.97,401.32A5,5 0 1 1 716.97,401.32Z" style="fill:#0000FF" />
<path d="M912.48,472.47A5,5 0 1 1 902.48,472.47A5,5 0 1 1 912.48,472.47Z" style="fill:#0000FF" />
<path d="M1108,558.61A5,5 0 1 1 1098,558.61A5,5 0 1 1 1108,558.61Z" style="fill:#0000FF" />
<path d="M1303.5,681.43A5,5 0 1 1 1293.5,681.43A5,5 0 1 1 1303.5,681.43Z" style="fill:#0000FF" />
<path d="M1499,722.49A5,5 0 1 1 1489,722.49A5,5 0 1 1 1499,722.49Z" style="fill:#0000FF" />
<path d="M1694.5,846.4A5,5 0 1 1 1684.5,846.4A5,5 0 1 1 1694.5,846.4Z" style="fill:#0000FF" />
<path d="M1890,934.91A5,5 0 1 1 1880,934.91A5,5 0 1 1 1890,934.91Z" style="fill:#0000FF" />
<path d="M125.46,121.79L320.97,203.44L516.47,340.84L711.97,356.7L907.48,391.74L1103,685.96L1298.5,684.57L1494,718L1689.5,775.85L1885,778.96" style="fill:none;stroke:#00FF00;stroke-width:4" />
<path d="M130.46,121.79A5,5 0 1 1 120.46,121.79A5,5 0 1 1 130.46,121.79Z" style="fill:#00FF00" />
<path d="M325.97,203.44A5,5 0 1 1 315.97,203.44A5,5 0 1 1 325.97,203.44Z" style="fill:#00FF00" />
<path d="M521.47,340.84A5,5 0 1 1 511.47,340.84A5,5 0 1 1 521.47,340.84Z" style="fill:#00FF00" />
<path d="M716.97,356.7A5,5 0 1 1 706.97,356.7A5,5 0 1 1 716.97,356.7Z" style="fill:#00FF00" />
<path d="M912.48,391.74A5,5 0 1 1 902.48,391.74A5,5 0 1 1 912.48,391.74Z" style="fill:#00FF00" />
<path d="M1108,685.96A5,5 0 1 1 1098,685.96A5,5 0 1 1 1108,685.96Z" style="fill:#00FF00" />
<path d="M1303.5,684.57A5,5 0 1 1 1293.5,684.57A5,5 0 1 1 1303.5,684.57Z" style="fill:#00FF00" />
<path d="M1499,718A5,5 0 1 1 1489,718A5,5 0 1 1 1499,718Z" style="fill:#00FF00" />
<path d="M1694.5,775.85A5,5 0 1 1 1684.5,775.85A5,5 0 1 1 1694.5,775.85Z" style="fill:#00FF00" />
<path d="M1890,778.96A5,5 0 1 1 1880,778.96A5,5 0 1 1 1890,778.96Z" style="fill:#00FF00" />
<path d="M125.46,80.11L320.97,121.57L516.47,207.15L711.97,198.05L907.48,241.17L1103,264.45L1298.5,311.04L1494,351.69L1689.5,417.09L1885,434.4" style="fill:none;stroke:#FF8000;stroke-width:4" />
<path d="M130.46,80.11A5,5 0 1 1 120.46,80.11A5,5 0 1 1 130.46,80.11Z" style="fill:#FF8000" />
<path d="M325.97,121.57A5,5 0 1 1 315.97,121.57A5,5 0 1 1 325.97,121.57Z" style="fill:#FF8000" />
<path d="M521.47,207.15A5,5 0 1 1 511.47,207.15A5,5 0 1 1 521.47,207.15Z" style="fill:#FF8000" />
<path d="M716.97,198.05A5,5 0 1 1 706.97,198.05A5,5 0 1 1 716.97,198.05Z" style="fill:#FF8000" />
<path d="M912.48,241.17A5,5 0 1 1 902.48,241.17A5,5 0 1 1 912.48,241.17Z" style="fill:#FF8000" />
<path d="M1108,264.45A5,5 0 1 1 1098,264.45A5,5 0 1 1 1108,264.45Z" style="fill:#FF8000" />
<path d="M1303.5,311.04A5,5 0 1 1 1293.5,311.04A5,5 0 1 1 1303.5,311.04Z" style="fill:#FF8000" />
<path d="M1499,351.69A5,5 0 1 1 1489,351.69A5,5 0 1 1 1499,351.69Z" style="fill:#FF8000" />
<path d="M1694.5,417.09A5,5 0 1 1 1684.5,417.09A5,5 0 1 1 1694.5,417.09Z" style="fill:#FF8000" />
<path d="M1890,434.4A5,5 0 1 1 1880,434.4A5,5 0 1 1 1890,434.4Z" style="fill:#FF8000" />
<path d="M1900,146.4L1920,146.4" style="fill:none;stroke:#FF0000;stroke-width:4" />
<path d="M1915,146.4A5,5 0 1 1 1905,146.4A5,5 0 1 1 1915,146.4Z" style="fill:#FF0000" />
<text x="1823.3" y="-141.42" transform="scale(1, -1)"
	style="font-family:Liberation Serif;font-variant:normal;font-weight:normal;font-style:normal;font-size:24px">std::list</text>
<path d="M1900,126.03L1920,126.03" style="fill:none;stroke:#0000FF;stroke-width:4" />
<path d="M1915,126.03A5,5 0 1 1 1905,126.03A5,5 0 1 1 1915,126.03Z" style="fill:#0000FF" />
<text x="1795.4" y="-121.05" transform="scale(1, -1)"
	style="font-family:Liberation Serif;font-variant:normal;font-weight:normal;font-style:normal;font-size:24px">std::deque</text>
<path d="M1900,105.66L1920,105.66" style="fill:none;stroke:#00FF00;stroke-width:4" />
<path d="M1915,105.66A5,5 0 1 1 1905,105.66A5,5 0 1 1 1915,105.66Z" style="fill:#00FF00" />
<text x="1792.7" y="-100.69" transform="scale(1, -1)"
	style="font-family:Liberation Serif;font-variant:normal;font-weight:normal;font-style:normal;font-size:24px">std::vector</text>
<path d="M1900,85.294L1920,85.294" style="fill:none;stroke:#FF8000;stroke-width:4" />
<path d="M1915,85.294A5,5 0 1 1 1905,85.294A5,5 0 1 1 1915,85.294Z" style="fill:#FF8000" />
<text x="1669.4" y="-80.319" transform="scale(1, -1)"
	style="font-family:Liberation Serif;font-variant:normal;font-weight:normal;font-style:normal;font-size:24px">preallocated std::vector</text>
</g>
</svg>
