<?xml version="1.0"?>
<!-- Generated by SVGo and Plotinum VG -->
<svg width="1920pt" height="1080pt" viewBox="0 0 1920 1080"
	xmlns="http://www.w3.org/2000/svg"
	xmlns:xlink="http://www.w3.org/1999/xlink">
<g transform="scale(1, -1) translate(0, -1080)">
<path d="M0,0L1920,0L1920,1080L0,1080Z" style="fill:#FFFFFF" />
<text x="857.25" y="-1040.9" transform="scale(1, -1)"
	style="font-family:Liberation Serif;font-variant:normal;font-weight:normal;font-style:normal;font-size:50px">push-back</text>
<text x="882.77" y="-9.7559" transform="scale(1, -1)"
	style="font-family:Liberation Serif;font-variant:normal;font-weight:normal;font-style:normal;font-size:30px">Number of elements</text>
<text x="95.462" y="-39.727" transform="scale(1, -1)"
	style="font-family:Liberation Serif;font-variant:normal;font-weight:normal;font-style:normal;font-size:20px">100000</text>
<text x="290.97" y="-39.727" transform="scale(1, -1)"
	style="font-family:Liberation Serif;font-variant:normal;font-weight:normal;font-style:normal;font-size:20px">200000</text>
<text x="486.47" y="-39.727" transform="scale(1, -1)"
	style="font-family:Liberation Serif;font-variant:normal;font-weight:normal;font-style:normal;font-size:20px">300000</text>
<text x="681.97" y="-39.727" transform="scale(1, -1)"
	style="font-family:Liberation Serif;font-variant:normal;font-weight:normal;font-style:normal;font-size:20px">400000</text>
<text x="877.48" y="-39.727" transform="scale(1, -1)"
	style="font-family:Liberation Serif;font-variant:normal;font-weight:normal;font-style:normal;font-size:20px">500000</text>
<text x="1073" y="-39.727" transform="scale(1, -1)"
	style="font-family:Liberation Serif;font-variant:normal;font-weight:normal;font-style:normal;font-size:20px">600000</text>
<text x="1268.5" y="-39.727" transform="scale(1, -1)"
	style="font-family:Liberation Serif;font-variant:normal;font-weight:normal;font-style:normal;font-size:20px">700000</text>
<text x="1464" y="-39.727" transform="scale(1, -1)"
	style="font-family:Liberation Serif;font-variant:normal;font-weight:normal;font-style:normal;font-size:20px">800000</text>
<text x="1659.5" y="-39.727" transform="scale(1, -1)"
	style="font-family:Liberation Serif;font-variant:normal;font-weight:normal;font-style:normal;font-size:20px">900000</text>
<text x="1850" y="-39.727" transform="scale(1, -1)"
	style="font-family:Liberation Serif;font-variant:normal;font-weight:normal;font-style:normal;font-size:20px">1000000</text>
<path d="M125.46,55.371L125.46,63.371" style="fill:none;stroke:#000000;stroke-width:0.5" />
<path d="M320.97,55.371L320.97,63.371" style="fill:none;stroke:#000000;stroke-width:0.5" />
<path d="M516.47,55.371L516.47,63.371" style="fill:none;stroke:#000000;stroke-width:0.5" />
<path d="M711.97,55.371L711.97,63.371" style="fill:none;stroke:#000000;stroke-width:0.5" />
<path d="M907.48,55.371L907.48,63.371" style="fill:none;stroke:#000000;stroke-width:0.5" />
<path d="M1103,55.371L1103,63.371" style="fill:none;stroke:#000000;stroke-width:0.5" />
<path d="M1298.5,55.371L1298.5,63.371" style="fill:none;stroke:#000000;stroke-width:0.5" />
<path d="M1494,55.371L1494,63.371" style="fill:none;stroke:#000000;stroke-width:0.5" />
<path d="M1689.5,55.371L1689.5,63.371" style="fill:none;stroke:#000000;stroke-width:0.5" />
<path d="M1885,55.371L1885,63.371" style="fill:none;stroke:#000000;stroke-width:0.5" />
<path d="M125.46,63.371L1885,63.371" style="fill:none;stroke:#000000;stroke-width:0.5" />
<g transform="rotate(90)">
<text x="538.49" y="23.467" transform="scale(1, -1)"
	style="font-family:Liberation Serif;font-variant:normal;font-weight:normal;font-style:normal;font-size:30px">μs</text>
</g>
<text x="39.712" y="-273.41" transform="scale(1, -1)"
	style="font-family:Liberation Serif;font-variant:normal;font-weight:normal;font-style:normal;font-size:20px">100000</text>
<text x="39.712" y="-511.24" transform="scale(1, -1)"
	style="font-family:Liberation Serif;font-variant:normal;font-weight:normal;font-style:normal;font-size:20px">200000</text>
<text x="39.712" y="-749.07" transform="scale(1, -1)"
	style="font-family:Liberation Serif;font-variant:normal;font-weight:normal;font-style:normal;font-size:20px">300000</text>
<text x="39.712" y="-986.9" transform="scale(1, -1)"
	style="font-family:Liberation Serif;font-variant:normal;font-weight:normal;font-style:normal;font-size:20px">400000</text>
<path d="M104.71,277.98L112.71,277.98" style="fill:none;stroke:#000000;stroke-width:0.5" />
<path d="M104.71,515.81L112.71,515.81" style="fill:none;stroke:#000000;stroke-width:0.5" />
<path d="M104.71,753.64L112.71,753.64" style="fill:none;stroke:#000000;stroke-width:0.5" />
<path d="M104.71,991.47L112.71,991.47" style="fill:none;stroke:#000000;stroke-width:0.5" />
<path d="M108.71,87.716L112.71,87.716" style="fill:none;stroke:#000000;stroke-width:0.5" />
<path d="M108.71,135.28L112.71,135.28" style="fill:none;stroke:#000000;stroke-width:0.5" />
<path d="M108.71,182.85L112.71,182.85" style="fill:none;stroke:#000000;stroke-width:0.5" />
<path d="M108.71,230.41L112.71,230.41" style="fill:none;stroke:#000000;stroke-width:0.5" />
<path d="M108.71,325.54L112.71,325.54" style="fill:none;stroke:#000000;stroke-width:0.5" />
<path d="M108.71,373.11L112.71,373.11" style="fill:none;stroke:#000000;stroke-width:0.5" />
<path d="M108.71,420.68L112.71,420.68" style="fill:none;stroke:#000000;stroke-width:0.5" />
<path d="M108.71,468.24L112.71,468.24" style="fill:none;stroke:#000000;stroke-width:0.5" />
<path d="M108.71,563.37L112.71,563.37" style="fill:none;stroke:#000000;stroke-width:0.5" />
<path d="M108.71,610.94L112.71,610.94" style="fill:none;stroke:#000000;stroke-width:0.5" />
<path d="M108.71,658.51L112.71,658.51" style="fill:none;stroke:#000000;stroke-width:0.5" />
<path d="M108.71,706.07L112.71,706.07" style="fill:none;stroke:#000000;stroke-width:0.5" />
<path d="M108.71,801.2L112.71,801.2" style="fill:none;stroke:#000000;stroke-width:0.5" />
<path d="M108.71,848.77L112.71,848.77" style="fill:none;stroke:#000000;stroke-width:0.5" />
<path d="M108.71,896.33L112.71,896.33" style="fill:none;stroke:#000000;stroke-width:0.5" />
<path d="M108.71,943.9L112.71,943.9" style="fill:none;stroke:#000000;stroke-width:0.5" />
<path d="M112.71,80.11L112.71,1024.6" style="fill:none;stroke:#000000;stroke-width:0.5" />
<path d="M125.46,80.11L125.46,1024.6" style="fill:none;stroke:#808080;stroke-width:0.25" />
<path d="M320.97,80.11L320.97,1024.6" style="fill:none;stroke:#808080;stroke-width:0.25" />
<path d="M516.47,80.11L516.47,1024.6" style="fill:none;stroke:#808080;stroke-width:0.25" />
<path d="M711.97,80.11L711.97,1024.6" style="fill:none;stroke:#808080;stroke-width:0.25" />
<path d="M907.48,80.11L907.48,1024.6" style="fill:none;stroke:#808080;stroke-width:0.25" />
<path d="M1103,80.11L1103,1024.6" style="fill:none;stroke:#808080;stroke-width:0.25" />
<path d="M1298.5,80.11L1298.5,1024.6" style="fill:none;stroke:#808080;stroke-width:0.25" />
<path d="M1494,80.11L1494,1024.6" style="fill:none;stroke:#808080;stroke-width:0.25" />
<path d="M1689.5,80.11L1689.5,1024.6" style="fill:none;stroke:#808080;stroke-width:0.25" />
<path d="M1885,80.11L1885,1024.6" style="fill:none;stroke:#808080;stroke-width:0.25" />
<path d="M125.46,277.98L1885,277.98" style="fill:none;stroke:#808080;stroke-width:0.25" />
<path d="M125.46,515.81L1885,515.81" style="fill:none;stroke:#808080;stroke-width:0.25" />
<path d="M125.46,753.64L1885,753.64" style="fill:none;stroke:#808080;stroke-width:0.25" />
<path d="M125.46,991.47L1885,991.47" style="fill:none;stroke:#808080;stroke-width:0.25" />
<path d="M125.46,122.52L320.97,197.48L516.47,413.6L711.97,373.04L907.48,434.37L1103,666.35L1298.5,681.93L1494,692.68L1689.5,756.02L1885,935.13" style="fill:none;stroke:#FF0000;stroke-width:4" />
<path d="M130.46,122.52A5,5 0 1 1 120.46,122.52A5,5 0 1 1 130.46,122.52Z" style="fill:#FF0000" />
<path d="M325.97,197.48A5,5 0 1 1 315.97,197.48A5,5 0 1 1 325.97,197.48Z" style="fill:#FF0000" />
<path d="M521.47,413.6A5,5 0 1 1 511.47,413.6A5,5 0 1 1 521.47,413.6Z" style="fill:#FF0000" />
<path d="M716.97,373.04A5,5 0 1 1 706.97,373.04A5,5 0 1 1 716.97,373.04Z" style="fill:#FF0000" />
<path d="M912.48,434.37A5,5 0 1 1 902.48,434.37A5,5 0 1 1 912.48,434.37Z" style="fill:#FF0000" />
<path d="M1108,666.35A5,5 0 1 1 1098,666.35A5,5 0 1 1 1108,666.35Z" style="fill:#FF0000" />
<path d="M1303.5,681.93A5,5 0 1 1 1293.5,681.93A5,5 0 1 1 1303.5,681.93Z" style="fill:#FF0000" />
<path d="M1499,692.68A5,5 0 1 1 1489,692.68A5,5 0 1 1 1499,692.68Z" style="fill:#FF0000" />
<path d="M1694.5,756.02A5,5 0 1 1 1684.5,756.02A5,5 0 1 1 1694.5,756.02Z" style="fill:#FF0000" />
<path d="M1890,935.13A5,5 0 1 1 1880,935.13A5,5 0 1 1 1890,935.13Z" style="fill:#FF0000" />
<path d="M125.46,80.11L320.97,143.41L516.47,164.17L711.97,196.8L907.48,294.87L1103,282.92L1298.5,367.09L1494,352.62L1689.5,390.96L1885,468.77" style="fill:none;stroke:#0000FF;stroke-width:4" />
<path d="M130.46,80.11A5,5 0 1 1 120.46,80.11A5,5 0 1 1 130.46,80.11Z" style="fill:#0000FF" />
<path d="M325.97,143.41A5,5 0 1 1 315.97,143.41A5,5 0 1 1 325.97,143.41Z" style="fill:#0000FF" />
<path d="M521.47,164.17A5,5 0 1 1 511.47,164.17A5,5 0 1 1 521.47,164.17Z" style="fill:#0000FF" />
<path d="M716.97,196.8A5,5 0 1 1 706.97,196.8A5,5 0 1 1 716.97,196.8Z" style="fill:#0000FF" />
<path d="M912.48,294.87A5,5 0 1 1 902.48,294.87A5,5 0 1 1 912.48,294.87Z" style="fill:#0000FF" />
<path d="M1108,282.92A5,5 0 1 1 1098,282.92A5,5 0 1 1 1108,282.92Z" style="fill:#0000FF" />
<path d="M1303.5,367.09A5,5 0 1 1 1293.5,367.09A5,5 0 1 1 1303.5,367.09Z" style="fill:#0000FF" />
<path d="M1499,352.62A5,5 0 1 1 1489,352.62A5,5 0 1 1 1499,352.62Z" style="fill:#0000FF" />
<path d="M1694.5,390.96A5,5 0 1 1 1684.5,390.96A5,5 0 1 1 1694.5,390.96Z" style="fill:#0000FF" />
<path d="M1890,468.77A5,5 0 1 1 1880,468.77A5,5 0 1 1 1890,468.77Z" style="fill:#0000FF" />
<path d="M125.46,125.2L320.97,194.25L516.47,284.44L711.97,351.59L907.48,422.52L1103,547L1298.5,606.4L1494,686.76L1689.5,780.91L1885,878.54" style="fill:none;stroke:#00FF00;stroke-width:4" />
<path d="M130.46,125.2A5,5 0 1 1 120.46,125.2A5,5 0 1 1 130.46,125.2Z" style="fill:#00FF00" />
<path d="M325.97,194.25A5,5 0 1 1 315.97,194.25A5,5 0 1 1 325.97,194.25Z" style="fill:#00FF00" />
<path d="M521.47,284.44A5,5 0 1 1 511.47,284.44A5,5 0 1 1 521.47,284.44Z" style="fill:#00FF00" />
<path d="M716.97,351.59A5,5 0 1 1 706.97,351.59A5,5 0 1 1 716.97,351.59Z" style="fill:#00FF00" />
<path d="M912.48,422.52A5,5 0 1 1 902.48,422.52A5,5 0 1 1 912.48,422.52Z" style="fill:#00FF00" />
<path d="M1108,547A5,5 0 1 1 1098,547A5,5 0 1 1 1108,547Z" style="fill:#00FF00" />
<path d="M1303.5,606.4A5,5 0 1 1 1293.5,606.4A5,5 0 1 1 1303.5,606.4Z" style="fill:#00FF00" />
<path d="M1499,686.76A5,5 0 1 1 1489,686.76A5,5 0 1 1 1499,686.76Z" style="fill:#00FF00" />
<path d="M1694.5,780.91A5,5 0 1 1 1684.5,780.91A5,5 0 1 1 1694.5,780.91Z" style="fill:#00FF00" />
<path d="M1890,878.54A5,5 0 1 1 1880,878.54A5,5 0 1 1 1890,878.54Z" style="fill:#00FF00" />
<path d="M125.46,135.77L320.97,210.78L516.47,316.93L711.97,380.99L907.48,499.32L1103,570.38L1298.5,674.02L1494,768.1L1689.5,846.8L1885,915.46" style="fill:none;stroke:#FF8000;stroke-width:4" />
<path d="M130.46,135.77A5,5 0 1 1 120.46,135.77A5,5 0 1 1 130.46,135.77Z" style="fill:#FF8000" />
<path d="M325.97,210.78A5,5 0 1 1 315.97,210.78A5,5 0 1 1 325.97,210.78Z" style="fill:#FF8000" />
<path d="M521.47,316.93A5,5 0 1 1 511.47,316.93A5,5 0 1 1 521.47,316.93Z" style="fill:#FF8000" />
<path d="M716.97,380.99A5,5 0 1 1 706.97,380.99A5,5 0 1 1 716.97,380.99Z" style="fill:#FF8000" />
<path d="M912.48,499.32A5,5 0 1 1 902.48,499.32A5,5 0 1 1 912.48,499.32Z" style="fill:#FF8000" />
<path d="M1108,570.38A5,5 0 1 1 1098,570.38A5,5 0 1 1 1108,570.38Z" style="fill:#FF8000" />
<path d="M1303.5,674.02A5,5 0 1 1 1293.5,674.02A5,5 0 1 1 1303.5,674.02Z" style="fill:#FF8000" />
<path d="M1499,768.1A5,5 0 1 1 1489,768.1A5,5 0 1 1 1499,768.1Z" style="fill:#FF8000" />
<path d="M1694.5,846.8A5,5 0 1 1 1684.5,846.8A5,5 0 1 1 1694.5,846.8Z" style="fill:#FF8000" />
<path d="M1890,915.46A5,5 0 1 1 1880,915.46A5,5 0 1 1 1890,915.46Z" style="fill:#FF8000" />
<path d="M1900,146.4L1920,146.4" style="fill:none;stroke:#FF0000;stroke-width:4" />
<path d="M1915,146.4A5,5 0 1 1 1905,146.4A5,5 0 1 1 1915,146.4Z" style="fill:#FF0000" />
<text x="1792.7" y="-141.42" transform="scale(1, -1)"
	style="font-family:Liberation Serif;font-variant:normal;font-weight:normal;font-style:normal;font-size:24px">std::vector</text>
<path d="M1900,126.03L1920,126.03" style="fill:none;stroke:#0000FF;stroke-width:4" />
<path d="M1915,126.03A5,5 0 1 1 1905,126.03A5,5 0 1 1 1915,126.03Z" style="fill:#0000FF" />
<text x="1669.4" y="-121.05" transform="scale(1, -1)"
	style="font-family:Liberation Serif;font-variant:normal;font-weight:normal;font-style:normal;font-size:24px">preallocated std::vector</text>
<path d="M1900,105.66L1920,105.66" style="fill:none;stroke:#00FF00;stroke-width:4" />
<path d="M1915,105.66A5,5 0 1 1 1905,105.66A5,5 0 1 1 1915,105.66Z" style="fill:#00FF00" />
<text x="1823.3" y="-100.69" transform="scale(1, -1)"
	style="font-family:Liberation Serif;font-variant:normal;font-weight:normal;font-style:normal;font-size:24px">std::list</text>
<path d="M1900,85.294L1920,85.294" style="fill:none;stroke:#FF8000;stroke-width:4" />
<path d="M1915,85.294A5,5 0 1 1 1905,85.294A5,5 0 1 1 1915,85.294Z" style="fill:#FF8000" />
<text x="1795.4" y="-80.319" transform="scale(1, -1)"
	style="font-family:Liberation Serif;font-variant:normal;font-weight:normal;font-style:normal;font-size:24px">std::deque</text>
</g>
</svg>
