<?xml version="1.0"?>
<!-- Generated by SVGo and Plotinum VG -->
<svg width="1920pt" height="1080pt" viewBox="0 0 1920 1080"
	xmlns="http://www.w3.org/2000/svg"
	xmlns:xlink="http://www.w3.org/1999/xlink">
<g transform="scale(1, -1) translate(0, -1080)">
<path d="M0,0L1920,0L1920,1080L0,1080Z" style="fill:#FFFFFF" />
<text x="857.25" y="-1040.9" transform="scale(1, -1)"
	style="font-family:Liberation Serif;font-variant:normal;font-weight:normal;font-style:normal;font-size:50px">push-back</text>
<text x="877.77" y="-9.7559" transform="scale(1, -1)"
	style="font-family:Liberation Serif;font-variant:normal;font-weight:normal;font-style:normal;font-size:30px">Number of elements</text>
<text x="85.462" y="-39.727" transform="scale(1, -1)"
	style="font-family:Liberation Serif;font-variant:normal;font-weight:normal;font-style:normal;font-size:20px">100000</text>
<text x="282.08" y="-39.727" transform="scale(1, -1)"
	style="font-family:Liberation Serif;font-variant:normal;font-weight:normal;font-style:normal;font-size:20px">200000</text>
<text x="478.69" y="-39.727" transform="scale(1, -1)"
	style="font-family:Liberation Serif;font-variant:normal;font-weight:normal;font-style:normal;font-size:20px">300000</text>
<text x="675.31" y="-39.727" transform="scale(1, -1)"
	style="font-family:Liberation Serif;font-variant:normal;font-weight:normal;font-style:normal;font-size:20px">400000</text>
<text x="871.92" y="-39.727" transform="scale(1, -1)"
	style="font-family:Liberation Serif;font-variant:normal;font-weight:normal;font-style:normal;font-size:20px">500000</text>
<text x="1068.5" y="-39.727" transform="scale(1, -1)"
	style="font-family:Liberation Serif;font-variant:normal;font-weight:normal;font-style:normal;font-size:20px">600000</text>
<text x="1265.2" y="-39.727" transform="scale(1, -1)"
	style="font-family:Liberation Serif;font-variant:normal;font-weight:normal;font-style:normal;font-size:20px">700000</text>
<text x="1461.8" y="-39.727" transform="scale(1, -1)"
	style="font-family:Liberation Serif;font-variant:normal;font-weight:normal;font-style:normal;font-size:20px">800000</text>
<text x="1658.4" y="-39.727" transform="scale(1, -1)"
	style="font-family:Liberation Serif;font-variant:normal;font-weight:normal;font-style:normal;font-size:20px">900000</text>
<text x="1850" y="-39.727" transform="scale(1, -1)"
	style="font-family:Liberation Serif;font-variant:normal;font-weight:normal;font-style:normal;font-size:20px">1000000</text>
<path d="M115.46,55.371L115.46,63.371" style="fill:none;stroke:#000000;stroke-width:0.5" />
<path d="M312.08,55.371L312.08,63.371" style="fill:none;stroke:#000000;stroke-width:0.5" />
<path d="M508.69,55.371L508.69,63.371" style="fill:none;stroke:#000000;stroke-width:0.5" />
<path d="M705.31,55.371L705.31,63.371" style="fill:none;stroke:#000000;stroke-width:0.5" />
<path d="M901.92,55.371L901.92,63.371" style="fill:none;stroke:#000000;stroke-width:0.5" />
<path d="M1098.5,55.371L1098.5,63.371" style="fill:none;stroke:#000000;stroke-width:0.5" />
<path d="M1295.2,55.371L1295.2,63.371" style="fill:none;stroke:#000000;stroke-width:0.5" />
<path d="M1491.8,55.371L1491.8,63.371" style="fill:none;stroke:#000000;stroke-width:0.5" />
<path d="M1688.4,55.371L1688.4,63.371" style="fill:none;stroke:#000000;stroke-width:0.5" />
<path d="M1885,55.371L1885,63.371" style="fill:none;stroke:#000000;stroke-width:0.5" />
<path d="M115.46,63.371L1885,63.371" style="fill:none;stroke:#000000;stroke-width:0.5" />
<g transform="rotate(90)">
<text x="534.39" y="23.467" transform="scale(1, -1)"
	style="font-family:Liberation Serif;font-variant:normal;font-weight:normal;font-style:normal;font-size:30px">μs</text>
</g>
<text x="39.712" y="-142.33" transform="scale(1, -1)"
	style="font-family:Liberation Serif;font-variant:normal;font-weight:normal;font-style:normal;font-size:20px">10000</text>
<text x="39.712" y="-575.66" transform="scale(1, -1)"
	style="font-family:Liberation Serif;font-variant:normal;font-weight:normal;font-style:normal;font-size:20px">50000</text>
<text x="39.712" y="-1009" transform="scale(1, -1)"
	style="font-family:Liberation Serif;font-variant:normal;font-weight:normal;font-style:normal;font-size:20px">90000</text>
<path d="M94.712,146.9L102.71,146.9" style="fill:none;stroke:#000000;stroke-width:0.5" />
<path d="M94.712,580.23L102.71,580.23" style="fill:none;stroke:#000000;stroke-width:0.5" />
<path d="M94.712,1013.6L102.71,1013.6" style="fill:none;stroke:#000000;stroke-width:0.5" />
<path d="M98.712,255.23L102.71,255.23" style="fill:none;stroke:#000000;stroke-width:0.5" />
<path d="M98.712,363.56L102.71,363.56" style="fill:none;stroke:#000000;stroke-width:0.5" />
<path d="M98.712,471.89L102.71,471.89" style="fill:none;stroke:#000000;stroke-width:0.5" />
<path d="M98.712,688.56L102.71,688.56" style="fill:none;stroke:#000000;stroke-width:0.5" />
<path d="M98.712,796.89L102.71,796.89" style="fill:none;stroke:#000000;stroke-width:0.5" />
<path d="M98.712,905.22L102.71,905.22" style="fill:none;stroke:#000000;stroke-width:0.5" />
<path d="M102.71,80.11L102.71,1016.4" style="fill:none;stroke:#000000;stroke-width:0.5" />
<path d="M115.46,80.11L115.46,1016.4" style="fill:none;stroke:#808080;stroke-width:0.25" />
<path d="M312.08,80.11L312.08,1016.4" style="fill:none;stroke:#808080;stroke-width:0.25" />
<path d="M508.69,80.11L508.69,1016.4" style="fill:none;stroke:#808080;stroke-width:0.25" />
<path d="M705.31,80.11L705.31,1016.4" style="fill:none;stroke:#808080;stroke-width:0.25" />
<path d="M901.92,80.11L901.92,1016.4" style="fill:none;stroke:#808080;stroke-width:0.25" />
<path d="M1098.5,80.11L1098.5,1016.4" style="fill:none;stroke:#808080;stroke-width:0.25" />
<path d="M1295.2,80.11L1295.2,1016.4" style="fill:none;stroke:#808080;stroke-width:0.25" />
<path d="M1491.8,80.11L1491.8,1016.4" style="fill:none;stroke:#808080;stroke-width:0.25" />
<path d="M1688.4,80.11L1688.4,1016.4" style="fill:none;stroke:#808080;stroke-width:0.25" />
<path d="M1885,80.11L1885,1016.4" style="fill:none;stroke:#808080;stroke-width:0.25" />
<path d="M115.46,146.9L1885,146.9" style="fill:none;stroke:#808080;stroke-width:0.25" />
<path d="M115.46,580.23L1885,580.23" style="fill:none;stroke:#808080;stroke-width:0.25" />
<path d="M115.46,1013.6L1885,1013.6" style="fill:none;stroke:#808080;stroke-width:0.25" />
<path d="M115.46,80.11L312.08,110.61L508.69,164.2L705.31,183.1L901.92,212.63L1098.5,337.37L1295.2,404.59L1491.8,527.35L1688.4,927.53L1885,569.28" style="fill:none;stroke:#FF0000;stroke-width:4" />
<path d="M120.46,80.11A5,5 0 1 1 110.46,80.11A5,5 0 1 1 120.46,80.11Z" style="fill:#FF0000" />
<path d="M317.08,110.61A5,5 0 1 1 307.08,110.61A5,5 0 1 1 317.08,110.61Z" style="fill:#FF0000" />
<path d="M513.69,164.2A5,5 0 1 1 503.69,164.2A5,5 0 1 1 513.69,164.2Z" style="fill:#FF0000" />
<path d="M710.31,183.1A5,5 0 1 1 700.31,183.1A5,5 0 1 1 710.31,183.1Z" style="fill:#FF0000" />
<path d="M906.92,212.63A5,5 0 1 1 896.92,212.63A5,5 0 1 1 906.92,212.63Z" style="fill:#FF0000" />
<path d="M1103.5,337.37A5,5 0 1 1 1093.5,337.37A5,5 0 1 1 1103.5,337.37Z" style="fill:#FF0000" />
<path d="M1300.2,404.59A5,5 0 1 1 1290.2,404.59A5,5 0 1 1 1300.2,404.59Z" style="fill:#FF0000" />
<path d="M1496.8,527.35A5,5 0 1 1 1486.8,527.35A5,5 0 1 1 1496.8,527.35Z" style="fill:#FF0000" />
<path d="M1693.4,927.53A5,5 0 1 1 1683.4,927.53A5,5 0 1 1 1693.4,927.53Z" style="fill:#FF0000" />
<path d="M1890,569.28A5,5 0 1 1 1880,569.28A5,5 0 1 1 1890,569.28Z" style="fill:#FF0000" />
<path d="M115.46,87.509L312.08,120.49L508.69,148.14L705.31,181.12L901.92,233.08L1098.5,308.82L1295.2,280.57L1491.8,310.61L1688.4,382.3L1885,478.74" style="fill:none;stroke:#0000FF;stroke-width:4" />
<path d="M120.46,87.509A5,5 0 1 1 110.46,87.509A5,5 0 1 1 120.46,87.509Z" style="fill:#0000FF" />
<path d="M317.08,120.49A5,5 0 1 1 307.08,120.49A5,5 0 1 1 317.08,120.49Z" style="fill:#0000FF" />
<path d="M513.69,148.14A5,5 0 1 1 503.69,148.14A5,5 0 1 1 513.69,148.14Z" style="fill:#0000FF" />
<path d="M710.31,181.12A5,5 0 1 1 700.31,181.12A5,5 0 1 1 710.31,181.12Z" style="fill:#0000FF" />
<path d="M906.92,233.08A5,5 0 1 1 896.92,233.08A5,5 0 1 1 906.92,233.08Z" style="fill:#0000FF" />
<path d="M1103.5,308.82A5,5 0 1 1 1093.5,308.82A5,5 0 1 1 1103.5,308.82Z" style="fill:#0000FF" />
<path d="M1300.2,280.57A5,5 0 1 1 1290.2,280.57A5,5 0 1 1 1300.2,280.57Z" style="fill:#0000FF" />
<path d="M1496.8,310.61A5,5 0 1 1 1486.8,310.61A5,5 0 1 1 1496.8,310.61Z" style="fill:#0000FF" />
<path d="M1693.4,382.3A5,5 0 1 1 1683.4,382.3A5,5 0 1 1 1693.4,382.3Z" style="fill:#0000FF" />
<path d="M1890,478.74A5,5 0 1 1 1880,478.74A5,5 0 1 1 1890,478.74Z" style="fill:#0000FF" />
<path d="M115.46,110.28L312.08,172.27L508.69,275.61L705.31,352.21L901.92,417.49L1098.5,469.21L1295.2,505.04L1491.8,571.21L1688.4,614.64L1885,697.01" style="fill:none;stroke:#00FF00;stroke-width:4" />
<path d="M120.46,110.28A5,5 0 1 1 110.46,110.28A5,5 0 1 1 120.46,110.28Z" style="fill:#00FF00" />
<path d="M317.08,172.27A5,5 0 1 1 307.08,172.27A5,5 0 1 1 317.08,172.27Z" style="fill:#00FF00" />
<path d="M513.69,275.61A5,5 0 1 1 503.69,275.61A5,5 0 1 1 513.69,275.61Z" style="fill:#00FF00" />
<path d="M710.31,352.21A5,5 0 1 1 700.31,352.21A5,5 0 1 1 710.31,352.21Z" style="fill:#00FF00" />
<path d="M906.92,417.49A5,5 0 1 1 896.92,417.49A5,5 0 1 1 906.92,417.49Z" style="fill:#00FF00" />
<path d="M1103.5,469.21A5,5 0 1 1 1093.5,469.21A5,5 0 1 1 1103.5,469.21Z" style="fill:#00FF00" />
<path d="M1300.2,505.04A5,5 0 1 1 1290.2,505.04A5,5 0 1 1 1300.2,505.04Z" style="fill:#00FF00" />
<path d="M1496.8,571.21A5,5 0 1 1 1486.8,571.21A5,5 0 1 1 1496.8,571.21Z" style="fill:#00FF00" />
<path d="M1693.4,614.64A5,5 0 1 1 1683.4,614.64A5,5 0 1 1 1693.4,614.64Z" style="fill:#00FF00" />
<path d="M1890,697.01A5,5 0 1 1 1880,697.01A5,5 0 1 1 1890,697.01Z" style="fill:#00FF00" />
<path d="M115.46,109.15L312.08,121.74L508.69,174.21L705.31,211.08L901.92,264.59L1098.5,331.29L1295.2,391.7L1491.8,458.69L1688.4,466.25L1885,523.98" style="fill:none;stroke:#FF8000;stroke-width:4" />
<path d="M120.46,109.15A5,5 0 1 1 110.46,109.15A5,5 0 1 1 120.46,109.15Z" style="fill:#FF8000" />
<path d="M317.08,121.74A5,5 0 1 1 307.08,121.74A5,5 0 1 1 317.08,121.74Z" style="fill:#FF8000" />
<path d="M513.69,174.21A5,5 0 1 1 503.69,174.21A5,5 0 1 1 513.69,174.21Z" style="fill:#FF8000" />
<path d="M710.31,211.08A5,5 0 1 1 700.31,211.08A5,5 0 1 1 710.31,211.08Z" style="fill:#FF8000" />
<path d="M906.92,264.59A5,5 0 1 1 896.92,264.59A5,5 0 1 1 906.92,264.59Z" style="fill:#FF8000" />
<path d="M1103.5,331.29A5,5 0 1 1 1093.5,331.29A5,5 0 1 1 1103.5,331.29Z" style="fill:#FF8000" />
<path d="M1300.2,391.7A5,5 0 1 1 1290.2,391.7A5,5 0 1 1 1300.2,391.7Z" style="fill:#FF8000" />
<path d="M1496.8,458.69A5,5 0 1 1 1486.8,458.69A5,5 0 1 1 1496.8,458.69Z" style="fill:#FF8000" />
<path d="M1693.4,466.25A5,5 0 1 1 1683.4,466.25A5,5 0 1 1 1693.4,466.25Z" style="fill:#FF8000" />
<path d="M1890,523.98A5,5 0 1 1 1880,523.98A5,5 0 1 1 1890,523.98Z" style="fill:#FF8000" />
<path d="M1900,146.4L1920,146.4" style="fill:none;stroke:#FF0000;stroke-width:4" />
<path d="M1915,146.4A5,5 0 1 1 1905,146.4A5,5 0 1 1 1915,146.4Z" style="fill:#FF0000" />
<text x="1792.7" y="-141.42" transform="scale(1, -1)"
	style="font-family:Liberation Serif;font-variant:normal;font-weight:normal;font-style:normal;font-size:24px">std::vector</text>
<path d="M1900,126.03L1920,126.03" style="fill:none;stroke:#0000FF;stroke-width:4" />
<path d="M1915,126.03A5,5 0 1 1 1905,126.03A5,5 0 1 1 1915,126.03Z" style="fill:#0000FF" />
<text x="1669.4" y="-121.05" transform="scale(1, -1)"
	style="font-family:Liberation Serif;font-variant:normal;font-weight:normal;font-style:normal;font-size:24px">preallocated std::vector</text>
<path d="M1900,105.66L1920,105.66" style="fill:none;stroke:#00FF00;stroke-width:4" />
<path d="M1915,105.66A5,5 0 1 1 1905,105.66A5,5 0 1 1 1915,105.66Z" style="fill:#00FF00" />
<text x="1823.3" y="-100.69" transform="scale(1, -1)"
	style="font-family:Liberation Serif;font-variant:normal;font-weight:normal;font-style:normal;font-size:24px">std::list</text>
<path d="M1900,85.294L1920,85.294" style="fill:none;stroke:#FF8000;stroke-width:4" />
<path d="M1915,85.294A5,5 0 1 1 1905,85.294A5,5 0 1 1 1915,85.294Z" style="fill:#FF8000" />
<text x="1795.4" y="-80.319" transform="scale(1, -1)"
	style="font-family:Liberation Serif;font-variant:normal;font-weight:normal;font-style:normal;font-size:24px">std::deque</text>
</g>
</svg>
