<?xml version="1.0"?>
<!-- Generated by SVGo and Plotinum VG -->
<svg width="1920pt" height="1080pt" viewBox="0 0 1920 1080"
	xmlns="http://www.w3.org/2000/svg"
	xmlns:xlink="http://www.w3.org/1999/xlink">
<g transform="scale(1, -1) translate(0, -1080)">
<path d="M0,0L1920,0L1920,1080L0,1080Z" style="fill:#FFFFFF" />
<text x="735.77" y="-1040.9" transform="scale(1, -1)"
	style="font-family:Liberation Serif;font-variant:normal;font-weight:normal;font-style:normal;font-size:50px">push-back - Log Scale</text>
<text x="895.27" y="-9.7559" transform="scale(1, -1)"
	style="font-family:Liberation Serif;font-variant:normal;font-weight:normal;font-style:normal;font-size:30px">Number of elements</text>
<text x="120.46" y="-39.727" transform="scale(1, -1)"
	style="font-family:Liberation Serif;font-variant:normal;font-weight:normal;font-style:normal;font-size:20px">100000</text>
<text x="313.19" y="-39.727" transform="scale(1, -1)"
	style="font-family:Liberation Serif;font-variant:normal;font-weight:normal;font-style:normal;font-size:20px">200000</text>
<text x="505.91" y="-39.727" transform="scale(1, -1)"
	style="font-family:Liberation Serif;font-variant:normal;font-weight:normal;font-style:normal;font-size:20px">300000</text>
<text x="698.64" y="-39.727" transform="scale(1, -1)"
	style="font-family:Liberation Serif;font-variant:normal;font-weight:normal;font-style:normal;font-size:20px">400000</text>
<text x="891.37" y="-39.727" transform="scale(1, -1)"
	style="font-family:Liberation Serif;font-variant:normal;font-weight:normal;font-style:normal;font-size:20px">500000</text>
<text x="1084.1" y="-39.727" transform="scale(1, -1)"
	style="font-family:Liberation Serif;font-variant:normal;font-weight:normal;font-style:normal;font-size:20px">600000</text>
<text x="1276.8" y="-39.727" transform="scale(1, -1)"
	style="font-family:Liberation Serif;font-variant:normal;font-weight:normal;font-style:normal;font-size:20px">700000</text>
<text x="1469.5" y="-39.727" transform="scale(1, -1)"
	style="font-family:Liberation Serif;font-variant:normal;font-weight:normal;font-style:normal;font-size:20px">800000</text>
<text x="1662.3" y="-39.727" transform="scale(1, -1)"
	style="font-family:Liberation Serif;font-variant:normal;font-weight:normal;font-style:normal;font-size:20px">900000</text>
<text x="1850" y="-39.727" transform="scale(1, -1)"
	style="font-family:Liberation Serif;font-variant:normal;font-weight:normal;font-style:normal;font-size:20px">1000000</text>
<path d="M150.46,55.371L150.46,63.371" style="fill:none;stroke:#000000;stroke-width:0.5" />
<path d="M343.19,55.371L343.19,63.371" style="fill:none;stroke:#000000;stroke-width:0.5" />
<path d="M535.91,55.371L535.91,63.371" style="fill:none;stroke:#000000;stroke-width:0.5" />
<path d="M728.64,55.371L728.64,63.371" style="fill:none;stroke:#000000;stroke-width:0.5" />
<path d="M921.37,55.371L921.37,63.371" style="fill:none;stroke:#000000;stroke-width:0.5" />
<path d="M1114.1,55.371L1114.1,63.371" style="fill:none;stroke:#000000;stroke-width:0.5" />
<path d="M1306.8,55.371L1306.8,63.371" style="fill:none;stroke:#000000;stroke-width:0.5" />
<path d="M1499.5,55.371L1499.5,63.371" style="fill:none;stroke:#000000;stroke-width:0.5" />
<path d="M1692.3,55.371L1692.3,63.371" style="fill:none;stroke:#000000;stroke-width:0.5" />
<path d="M1885,55.371L1885,63.371" style="fill:none;stroke:#000000;stroke-width:0.5" />
<path d="M150.46,63.371L1885,63.371" style="fill:none;stroke:#000000;stroke-width:0.5" />
<g transform="rotate(90)">
<text x="508.37" y="23.467" transform="scale(1, -1)"
	style="font-family:Liberation Serif;font-variant:normal;font-weight:normal;font-style:normal;font-size:30px">log(μs)</text>
</g>
<text x="49.712" y="-493.39" transform="scale(1, -1)"
	style="font-family:Liberation Serif;font-variant:normal;font-weight:normal;font-style:normal;font-size:20px">25000.00</text>
<text x="49.712" y="-845.34" transform="scale(1, -1)"
	style="font-family:Liberation Serif;font-variant:normal;font-weight:normal;font-style:normal;font-size:20px">75000.00</text>
<text x="39.712" y="-1009" transform="scale(1, -1)"
	style="font-family:Liberation Serif;font-variant:normal;font-weight:normal;font-style:normal;font-size:20px">125000.00</text>
<path d="M129.71,497.96L137.71,497.96" style="fill:none;stroke:#000000;stroke-width:0.5" />
<path d="M129.71,849.91L137.71,849.91" style="fill:none;stroke:#000000;stroke-width:0.5" />
<path d="M129.71,1013.6L137.71,1013.6" style="fill:none;stroke:#000000;stroke-width:0.5" />
<path d="M133.71,334.31L137.71,334.31" style="fill:none;stroke:#000000;stroke-width:0.5" />
<path d="M133.71,605.75L137.71,605.75" style="fill:none;stroke:#000000;stroke-width:0.5" />
<path d="M133.71,686.26L137.71,686.26" style="fill:none;stroke:#000000;stroke-width:0.5" />
<path d="M133.71,750.55L137.71,750.55" style="fill:none;stroke:#000000;stroke-width:0.5" />
<path d="M133.71,804.06L137.71,804.06" style="fill:none;stroke:#000000;stroke-width:0.5" />
<path d="M133.71,890L137.71,890" style="fill:none;stroke:#000000;stroke-width:0.5" />
<path d="M133.71,925.64L137.71,925.64" style="fill:none;stroke:#000000;stroke-width:0.5" />
<path d="M133.71,957.7L137.71,957.7" style="fill:none;stroke:#000000;stroke-width:0.5" />
<path d="M133.71,986.84L137.71,986.84" style="fill:none;stroke:#000000;stroke-width:0.5" />
<path d="M137.71,80.11L137.71,1022.7" style="fill:none;stroke:#000000;stroke-width:0.5" />
<path d="M150.46,80.11L150.46,1022.7" style="fill:none;stroke:#808080;stroke-width:0.25" />
<path d="M343.19,80.11L343.19,1022.7" style="fill:none;stroke:#808080;stroke-width:0.25" />
<path d="M535.91,80.11L535.91,1022.7" style="fill:none;stroke:#808080;stroke-width:0.25" />
<path d="M728.64,80.11L728.64,1022.7" style="fill:none;stroke:#808080;stroke-width:0.25" />
<path d="M921.37,80.11L921.37,1022.7" style="fill:none;stroke:#808080;stroke-width:0.25" />
<path d="M1114.1,80.11L1114.1,1022.7" style="fill:none;stroke:#808080;stroke-width:0.25" />
<path d="M1306.8,80.11L1306.8,1022.7" style="fill:none;stroke:#808080;stroke-width:0.25" />
<path d="M1499.5,80.11L1499.5,1022.7" style="fill:none;stroke:#808080;stroke-width:0.25" />
<path d="M1692.3,80.11L1692.3,1022.7" style="fill:none;stroke:#808080;stroke-width:0.25" />
<path d="M1885,80.11L1885,1022.7" style="fill:none;stroke:#808080;stroke-width:0.25" />
<path d="M150.46,497.96L1885,497.96" style="fill:none;stroke:#808080;stroke-width:0.25" />
<path d="M150.46,849.91L1885,849.91" style="fill:none;stroke:#808080;stroke-width:0.25" />
<path d="M150.46,1013.6L1885,1013.6" style="fill:none;stroke:#808080;stroke-width:0.25" />
<path d="M150.46,143.72L343.19,318.62L535.91,492.62L728.64,611.19L921.37,613.13L1114.1,747.44L1306.8,748.57L1499.5,860.56L1692.3,915.64L1885,855.14" style="fill:none;stroke:#FF0000;stroke-width:4" />
<path d="M155.46,143.72A5,5 0 1 1 145.46,143.72A5,5 0 1 1 155.46,143.72Z" style="fill:#FF0000" />
<path d="M348.19,318.62A5,5 0 1 1 338.19,318.62A5,5 0 1 1 348.19,318.62Z" style="fill:#FF0000" />
<path d="M540.91,492.62A5,5 0 1 1 530.91,492.62A5,5 0 1 1 540.91,492.62Z" style="fill:#FF0000" />
<path d="M733.64,611.19A5,5 0 1 1 723.64,611.19A5,5 0 1 1 733.64,611.19Z" style="fill:#FF0000" />
<path d="M926.37,613.13A5,5 0 1 1 916.37,613.13A5,5 0 1 1 926.37,613.13Z" style="fill:#FF0000" />
<path d="M1119.1,747.44A5,5 0 1 1 1109.1,747.44A5,5 0 1 1 1119.1,747.44Z" style="fill:#FF0000" />
<path d="M1311.8,748.57A5,5 0 1 1 1301.8,748.57A5,5 0 1 1 1311.8,748.57Z" style="fill:#FF0000" />
<path d="M1504.5,860.56A5,5 0 1 1 1494.5,860.56A5,5 0 1 1 1504.5,860.56Z" style="fill:#FF0000" />
<path d="M1697.3,915.64A5,5 0 1 1 1687.3,915.64A5,5 0 1 1 1697.3,915.64Z" style="fill:#FF0000" />
<path d="M1890,855.14A5,5 0 1 1 1880,855.14A5,5 0 1 1 1890,855.14Z" style="fill:#FF0000" />
<path d="M150.46,80.11L343.19,375.65L535.91,370.83L728.64,507.43L921.37,582.2L1114.1,668.63L1306.8,629.2L1499.5,706.05L1692.3,743.28L1885,888.61" style="fill:none;stroke:#0000FF;stroke-width:4" />
<path d="M155.46,80.11A5,5 0 1 1 145.46,80.11A5,5 0 1 1 155.46,80.11Z" style="fill:#0000FF" />
<path d="M348.19,375.65A5,5 0 1 1 338.19,375.65A5,5 0 1 1 348.19,375.65Z" style="fill:#0000FF" />
<path d="M540.91,370.83A5,5 0 1 1 530.91,370.83A5,5 0 1 1 540.91,370.83Z" style="fill:#0000FF" />
<path d="M733.64,507.43A5,5 0 1 1 723.64,507.43A5,5 0 1 1 733.64,507.43Z" style="fill:#0000FF" />
<path d="M926.37,582.2A5,5 0 1 1 916.37,582.2A5,5 0 1 1 926.37,582.2Z" style="fill:#0000FF" />
<path d="M1119.1,668.63A5,5 0 1 1 1109.1,668.63A5,5 0 1 1 1119.1,668.63Z" style="fill:#0000FF" />
<path d="M1311.8,629.2A5,5 0 1 1 1301.8,629.2A5,5 0 1 1 1311.8,629.2Z" style="fill:#0000FF" />
<path d="M1504.5,706.05A5,5 0 1 1 1494.5,706.05A5,5 0 1 1 1504.5,706.05Z" style="fill:#0000FF" />
<path d="M1697.3,743.28A5,5 0 1 1 1687.3,743.28A5,5 0 1 1 1697.3,743.28Z" style="fill:#0000FF" />
<path d="M1890,888.61A5,5 0 1 1 1880,888.61A5,5 0 1 1 1890,888.61Z" style="fill:#0000FF" />
<path d="M150.46,242.92L343.19,419.2L535.91,535.63L728.64,672.58L921.37,781.2L1114.1,877.16L1306.8,884.08L1499.5,914.43L1692.3,958.37L1885,992.18" style="fill:none;stroke:#00FF00;stroke-width:4" />
<path d="M155.46,242.92A5,5 0 1 1 145.46,242.92A5,5 0 1 1 155.46,242.92Z" style="fill:#00FF00" />
<path d="M348.19,419.2A5,5 0 1 1 338.19,419.2A5,5 0 1 1 348.19,419.2Z" style="fill:#00FF00" />
<path d="M540.91,535.63A5,5 0 1 1 530.91,535.63A5,5 0 1 1 540.91,535.63Z" style="fill:#00FF00" />
<path d="M733.64,672.58A5,5 0 1 1 723.64,672.58A5,5 0 1 1 733.64,672.58Z" style="fill:#00FF00" />
<path d="M926.37,781.2A5,5 0 1 1 916.37,781.2A5,5 0 1 1 926.37,781.2Z" style="fill:#00FF00" />
<path d="M1119.1,877.16A5,5 0 1 1 1109.1,877.16A5,5 0 1 1 1119.1,877.16Z" style="fill:#00FF00" />
<path d="M1311.8,884.08A5,5 0 1 1 1301.8,884.08A5,5 0 1 1 1311.8,884.08Z" style="fill:#00FF00" />
<path d="M1504.5,914.43A5,5 0 1 1 1494.5,914.43A5,5 0 1 1 1504.5,914.43Z" style="fill:#00FF00" />
<path d="M1697.3,958.37A5,5 0 1 1 1687.3,958.37A5,5 0 1 1 1697.3,958.37Z" style="fill:#00FF00" />
<path d="M1890,992.18A5,5 0 1 1 1880,992.18A5,5 0 1 1 1890,992.18Z" style="fill:#00FF00" />
<path d="M150.46,103.51L343.19,282.32L535.91,486.04L728.64,591.08L921.37,653.93L1114.1,705.97L1306.8,751.06L1499.5,866.95L1692.3,924.15L1885,964.46" style="fill:none;stroke:#FF8000;stroke-width:4" />
<path d="M155.46,103.51A5,5 0 1 1 145.46,103.51A5,5 0 1 1 155.46,103.51Z" style="fill:#FF8000" />
<path d="M348.19,282.32A5,5 0 1 1 338.19,282.32A5,5 0 1 1 348.19,282.32Z" style="fill:#FF8000" />
<path d="M540.91,486.04A5,5 0 1 1 530.91,486.04A5,5 0 1 1 540.91,486.04Z" style="fill:#FF8000" />
<path d="M733.64,591.08A5,5 0 1 1 723.64,591.08A5,5 0 1 1 733.64,591.08Z" style="fill:#FF8000" />
<path d="M926.37,653.93A5,5 0 1 1 916.37,653.93A5,5 0 1 1 926.37,653.93Z" style="fill:#FF8000" />
<path d="M1119.1,705.97A5,5 0 1 1 1109.1,705.97A5,5 0 1 1 1119.1,705.97Z" style="fill:#FF8000" />
<path d="M1311.8,751.06A5,5 0 1 1 1301.8,751.06A5,5 0 1 1 1311.8,751.06Z" style="fill:#FF8000" />
<path d="M1504.5,866.95A5,5 0 1 1 1494.5,866.95A5,5 0 1 1 1504.5,866.95Z" style="fill:#FF8000" />
<path d="M1697.3,924.15A5,5 0 1 1 1687.3,924.15A5,5 0 1 1 1697.3,924.15Z" style="fill:#FF8000" />
<path d="M1890,964.46A5,5 0 1 1 1880,964.46A5,5 0 1 1 1890,964.46Z" style="fill:#FF8000" />
<path d="M1900,146.4L1920,146.4" style="fill:none;stroke:#FF0000;stroke-width:4" />
<path d="M1915,146.4A5,5 0 1 1 1905,146.4A5,5 0 1 1 1915,146.4Z" style="fill:#FF0000" />
<text x="1792.7" y="-141.42" transform="scale(1, -1)"
	style="font-family:Liberation Serif;font-variant:normal;font-weight:normal;font-style:normal;font-size:24px">std::vector</text>
<path d="M1900,126.03L1920,126.03" style="fill:none;stroke:#0000FF;stroke-width:4" />
<path d="M1915,126.03A5,5 0 1 1 1905,126.03A5,5 0 1 1 1915,126.03Z" style="fill:#0000FF" />
<text x="1669.4" y="-121.05" transform="scale(1, -1)"
	style="font-family:Liberation Serif;font-variant:normal;font-weight:normal;font-style:normal;font-size:24px">preallocated std::vector</text>
<path d="M1900,105.66L1920,105.66" style="fill:none;stroke:#00FF00;stroke-width:4" />
<path d="M1915,105.66A5,5 0 1 1 1905,105.66A5,5 0 1 1 1915,105.66Z" style="fill:#00FF00" />
<text x="1823.3" y="-100.69" transform="scale(1, -1)"
	style="font-family:Liberation Serif;font-variant:normal;font-weight:normal;font-style:normal;font-size:24px">std::list</text>
<path d="M1900,85.294L1920,85.294" style="fill:none;stroke:#FF8000;stroke-width:4" />
<path d="M1915,85.294A5,5 0 1 1 1905,85.294A5,5 0 1 1 1915,85.294Z" style="fill:#FF8000" />
<text x="1795.4" y="-80.319" transform="scale(1, -1)"
	style="font-family:Liberation Serif;font-variant:normal;font-weight:normal;font-style:normal;font-size:24px">std::deque</text>
</g>
</svg>
