<?xml version="1.0"?>
<!-- Generated by SVGo and Plotinum VG -->
<svg width="1920pt" height="1080pt" viewBox="0 0 1920 1080"
	xmlns="http://www.w3.org/2000/svg"
	xmlns:xlink="http://www.w3.org/1999/xlink">
<g transform="scale(1, -1) translate(0, -1080)">
<path d="M0,0L1920,0L1920,1080L0,1080Z" style="fill:#FFFFFF" />
<text x="735.77" y="-1040.9" transform="scale(1, -1)"
	style="font-family:Liberation Serif;font-variant:normal;font-weight:normal;font-style:normal;font-size:50px">push-back - Log Scale</text>
<text x="877.77" y="-9.7559" transform="scale(1, -1)"
	style="font-family:Liberation Serif;font-variant:normal;font-weight:normal;font-style:normal;font-size:30px">Number of elements</text>
<text x="85.462" y="-39.727" transform="scale(1, -1)"
	style="font-family:Liberation Serif;font-variant:normal;font-weight:normal;font-style:normal;font-size:20px">100000</text>
<text x="282.08" y="-39.727" transform="scale(1, -1)"
	style="font-family:Liberation Serif;font-variant:normal;font-weight:normal;font-style:normal;font-size:20px">200000</text>
<text x="478.69" y="-39.727" transform="scale(1, -1)"
	style="font-family:Liberation Serif;font-variant:normal;font-weight:normal;font-style:normal;font-size:20px">300000</text>
<text x="675.31" y="-39.727" transform="scale(1, -1)"
	style="font-family:Liberation Serif;font-variant:normal;font-weight:normal;font-style:normal;font-size:20px">400000</text>
<text x="871.92" y="-39.727" transform="scale(1, -1)"
	style="font-family:Liberation Serif;font-variant:normal;font-weight:normal;font-style:normal;font-size:20px">500000</text>
<text x="1068.5" y="-39.727" transform="scale(1, -1)"
	style="font-family:Liberation Serif;font-variant:normal;font-weight:normal;font-style:normal;font-size:20px">600000</text>
<text x="1265.2" y="-39.727" transform="scale(1, -1)"
	style="font-family:Liberation Serif;font-variant:normal;font-weight:normal;font-style:normal;font-size:20px">700000</text>
<text x="1461.8" y="-39.727" transform="scale(1, -1)"
	style="font-family:Liberation Serif;font-variant:normal;font-weight:normal;font-style:normal;font-size:20px">800000</text>
<text x="1658.4" y="-39.727" transform="scale(1, -1)"
	style="font-family:Liberation Serif;font-variant:normal;font-weight:normal;font-style:normal;font-size:20px">900000</text>
<text x="1850" y="-39.727" transform="scale(1, -1)"
	style="font-family:Liberation Serif;font-variant:normal;font-weight:normal;font-style:normal;font-size:20px">1000000</text>
<path d="M115.46,55.371L115.46,63.371" style="fill:none;stroke:#000000;stroke-width:0.5" />
<path d="M312.08,55.371L312.08,63.371" style="fill:none;stroke:#000000;stroke-width:0.5" />
<path d="M508.69,55.371L508.69,63.371" style="fill:none;stroke:#000000;stroke-width:0.5" />
<path d="M705.31,55.371L705.31,63.371" style="fill:none;stroke:#000000;stroke-width:0.5" />
<path d="M901.92,55.371L901.92,63.371" style="fill:none;stroke:#000000;stroke-width:0.5" />
<path d="M1098.5,55.371L1098.5,63.371" style="fill:none;stroke:#000000;stroke-width:0.5" />
<path d="M1295.2,55.371L1295.2,63.371" style="fill:none;stroke:#000000;stroke-width:0.5" />
<path d="M1491.8,55.371L1491.8,63.371" style="fill:none;stroke:#000000;stroke-width:0.5" />
<path d="M1688.4,55.371L1688.4,63.371" style="fill:none;stroke:#000000;stroke-width:0.5" />
<path d="M1885,55.371L1885,63.371" style="fill:none;stroke:#000000;stroke-width:0.5" />
<path d="M115.46,63.371L1885,63.371" style="fill:none;stroke:#000000;stroke-width:0.5" />
<g transform="rotate(90)">
<text x="485.87" y="23.467" transform="scale(1, -1)"
	style="font-family:Liberation Serif;font-variant:normal;font-weight:normal;font-style:normal;font-size:30px">log(μs + 1)</text>
</g>
<text x="39.712" y="-465.71" transform="scale(1, -1)"
	style="font-family:Liberation Serif;font-variant:normal;font-weight:normal;font-style:normal;font-size:20px">10000</text>
<text x="39.712" y="-817.13" transform="scale(1, -1)"
	style="font-family:Liberation Serif;font-variant:normal;font-weight:normal;font-style:normal;font-size:20px">30000</text>
<text x="39.712" y="-980.53" transform="scale(1, -1)"
	style="font-family:Liberation Serif;font-variant:normal;font-weight:normal;font-style:normal;font-size:20px">50000</text>
<path d="M94.712,470.28L102.71,470.28" style="fill:none;stroke:#000000;stroke-width:0.5" />
<path d="M94.712,821.7L102.71,821.7" style="fill:none;stroke:#000000;stroke-width:0.5" />
<path d="M94.712,985.1L102.71,985.1" style="fill:none;stroke:#000000;stroke-width:0.5" />
<path d="M98.712,692L102.71,692" style="fill:none;stroke:#000000;stroke-width:0.5" />
<path d="M98.712,913.72L102.71,913.72" style="fill:none;stroke:#000000;stroke-width:0.5" />
<path d="M102.71,80.11L102.71,1024.6" style="fill:none;stroke:#000000;stroke-width:0.5" />
<path d="M115.46,80.11L115.46,1024.6" style="fill:none;stroke:#808080;stroke-width:0.25" />
<path d="M312.08,80.11L312.08,1024.6" style="fill:none;stroke:#808080;stroke-width:0.25" />
<path d="M508.69,80.11L508.69,1024.6" style="fill:none;stroke:#808080;stroke-width:0.25" />
<path d="M705.31,80.11L705.31,1024.6" style="fill:none;stroke:#808080;stroke-width:0.25" />
<path d="M901.92,80.11L901.92,1024.6" style="fill:none;stroke:#808080;stroke-width:0.25" />
<path d="M1098.5,80.11L1098.5,1024.6" style="fill:none;stroke:#808080;stroke-width:0.25" />
<path d="M1295.2,80.11L1295.2,1024.6" style="fill:none;stroke:#808080;stroke-width:0.25" />
<path d="M1491.8,80.11L1491.8,1024.6" style="fill:none;stroke:#808080;stroke-width:0.25" />
<path d="M1688.4,80.11L1688.4,1024.6" style="fill:none;stroke:#808080;stroke-width:0.25" />
<path d="M1885,80.11L1885,1024.6" style="fill:none;stroke:#808080;stroke-width:0.25" />
<path d="M115.46,470.28L1885,470.28" style="fill:none;stroke:#808080;stroke-width:0.25" />
<path d="M115.46,821.7L1885,821.7" style="fill:none;stroke:#808080;stroke-width:0.25" />
<path d="M115.46,985.1L1885,985.1" style="fill:none;stroke:#808080;stroke-width:0.25" />
<path d="M115.46,386.88L312.08,569.62L508.69,695.26L705.31,742.99L901.92,769.95L1098.5,845.35L1295.2,903.82L1491.8,935.95L1688.4,969.32L1885,994.15" style="fill:none;stroke:#FF0000;stroke-width:4" />
<path d="M120.46,386.88A5,5 0 1 1 110.46,386.88A5,5 0 1 1 120.46,386.88Z" style="fill:#FF0000" />
<path d="M317.08,569.62A5,5 0 1 1 307.08,569.62A5,5 0 1 1 317.08,569.62Z" style="fill:#FF0000" />
<path d="M513.69,695.26A5,5 0 1 1 503.69,695.26A5,5 0 1 1 513.69,695.26Z" style="fill:#FF0000" />
<path d="M710.31,742.99A5,5 0 1 1 700.31,742.99A5,5 0 1 1 710.31,742.99Z" style="fill:#FF0000" />
<path d="M906.92,769.95A5,5 0 1 1 896.92,769.95A5,5 0 1 1 906.92,769.95Z" style="fill:#FF0000" />
<path d="M1103.5,845.35A5,5 0 1 1 1093.5,845.35A5,5 0 1 1 1103.5,845.35Z" style="fill:#FF0000" />
<path d="M1300.2,903.82A5,5 0 1 1 1290.2,903.82A5,5 0 1 1 1300.2,903.82Z" style="fill:#FF0000" />
<path d="M1496.8,935.95A5,5 0 1 1 1486.8,935.95A5,5 0 1 1 1496.8,935.95Z" style="fill:#FF0000" />
<path d="M1693.4,969.32A5,5 0 1 1 1683.4,969.32A5,5 0 1 1 1693.4,969.32Z" style="fill:#FF0000" />
<path d="M1890,994.15A5,5 0 1 1 1880,994.15A5,5 0 1 1 1890,994.15Z" style="fill:#FF0000" />
<path d="M115.46,167.6L312.08,269.42L508.69,426.8L705.31,440.82L901.92,508.52L1098.5,563.47L1295.2,607.11L1491.8,637.54L1688.4,675.91L1885,714.91" style="fill:none;stroke:#0000FF;stroke-width:4" />
<path d="M120.46,167.6A5,5 0 1 1 110.46,167.6A5,5 0 1 1 120.46,167.6Z" style="fill:#0000FF" />
<path d="M317.08,269.42A5,5 0 1 1 307.08,269.42A5,5 0 1 1 317.08,269.42Z" style="fill:#0000FF" />
<path d="M513.69,426.8A5,5 0 1 1 503.69,426.8A5,5 0 1 1 513.69,426.8Z" style="fill:#0000FF" />
<path d="M710.31,440.82A5,5 0 1 1 700.31,440.82A5,5 0 1 1 710.31,440.82Z" style="fill:#0000FF" />
<path d="M906.92,508.52A5,5 0 1 1 896.92,508.52A5,5 0 1 1 906.92,508.52Z" style="fill:#0000FF" />
<path d="M1103.5,563.47A5,5 0 1 1 1093.5,563.47A5,5 0 1 1 1103.5,563.47Z" style="fill:#0000FF" />
<path d="M1300.2,607.11A5,5 0 1 1 1290.2,607.11A5,5 0 1 1 1300.2,607.11Z" style="fill:#0000FF" />
<path d="M1496.8,637.54A5,5 0 1 1 1486.8,637.54A5,5 0 1 1 1496.8,637.54Z" style="fill:#0000FF" />
<path d="M1693.4,675.91A5,5 0 1 1 1683.4,675.91A5,5 0 1 1 1693.4,675.91Z" style="fill:#0000FF" />
<path d="M1890,714.91A5,5 0 1 1 1880,714.91A5,5 0 1 1 1890,714.91Z" style="fill:#0000FF" />
<path d="M115.46,80.11L312.08,228.02L508.69,344.51L705.31,445.83L901.92,552.55L1098.5,567.29L1295.2,672.17L1491.8,637.75L1688.4,667.17L1885,742.22" style="fill:none;stroke:#00FF00;stroke-width:4" />
<path d="M120.46,80.11A5,5 0 1 1 110.46,80.11A5,5 0 1 1 120.46,80.11Z" style="fill:#00FF00" />
<path d="M317.08,228.02A5,5 0 1 1 307.08,228.02A5,5 0 1 1 317.08,228.02Z" style="fill:#00FF00" />
<path d="M513.69,344.51A5,5 0 1 1 503.69,344.51A5,5 0 1 1 513.69,344.51Z" style="fill:#00FF00" />
<path d="M710.31,445.83A5,5 0 1 1 700.31,445.83A5,5 0 1 1 710.31,445.83Z" style="fill:#00FF00" />
<path d="M906.92,552.55A5,5 0 1 1 896.92,552.55A5,5 0 1 1 906.92,552.55Z" style="fill:#00FF00" />
<path d="M1103.5,567.29A5,5 0 1 1 1093.5,567.29A5,5 0 1 1 1103.5,567.29Z" style="fill:#00FF00" />
<path d="M1300.2,672.17A5,5 0 1 1 1290.2,672.17A5,5 0 1 1 1300.2,672.17Z" style="fill:#00FF00" />
<path d="M1496.8,637.75A5,5 0 1 1 1486.8,637.75A5,5 0 1 1 1496.8,637.75Z" style="fill:#00FF00" />
<path d="M1693.4,667.17A5,5 0 1 1 1683.4,667.17A5,5 0 1 1 1693.4,667.17Z" style="fill:#00FF00" />
<path d="M1890,742.22A5,5 0 1 1 1880,742.22A5,5 0 1 1 1890,742.22Z" style="fill:#00FF00" />
<path d="M115.46,86.969L312.08,248.75L508.69,387.01L705.31,466.32L901.92,562.8L1098.5,602.25L1295.2,644.94L1491.8,671.95L1688.4,662.18L1885,695.59" style="fill:none;stroke:#FF8000;stroke-width:4" />
<path d="M120.46,86.969A5,5 0 1 1 110.46,86.969A5,5 0 1 1 120.46,86.969Z" style="fill:#FF8000" />
<path d="M317.08,248.75A5,5 0 1 1 307.08,248.75A5,5 0 1 1 317.08,248.75Z" style="fill:#FF8000" />
<path d="M513.69,387.01A5,5 0 1 1 503.69,387.01A5,5 0 1 1 513.69,387.01Z" style="fill:#FF8000" />
<path d="M710.31,466.32A5,5 0 1 1 700.31,466.32A5,5 0 1 1 710.31,466.32Z" style="fill:#FF8000" />
<path d="M906.92,562.8A5,5 0 1 1 896.92,562.8A5,5 0 1 1 906.92,562.8Z" style="fill:#FF8000" />
<path d="M1103.5,602.25A5,5 0 1 1 1093.5,602.25A5,5 0 1 1 1103.5,602.25Z" style="fill:#FF8000" />
<path d="M1300.2,644.94A5,5 0 1 1 1290.2,644.94A5,5 0 1 1 1300.2,644.94Z" style="fill:#FF8000" />
<path d="M1496.8,671.95A5,5 0 1 1 1486.8,671.95A5,5 0 1 1 1496.8,671.95Z" style="fill:#FF8000" />
<path d="M1693.4,662.18A5,5 0 1 1 1683.4,662.18A5,5 0 1 1 1693.4,662.18Z" style="fill:#FF8000" />
<path d="M1890,695.59A5,5 0 1 1 1880,695.59A5,5 0 1 1 1890,695.59Z" style="fill:#FF8000" />
<path d="M1900,146.4L1920,146.4" style="fill:none;stroke:#FF0000;stroke-width:4" />
<path d="M1915,146.4A5,5 0 1 1 1905,146.4A5,5 0 1 1 1915,146.4Z" style="fill:#FF0000" />
<text x="1823.3" y="-141.42" transform="scale(1, -1)"
	style="font-family:Liberation Serif;font-variant:normal;font-weight:normal;font-style:normal;font-size:24px">std::list</text>
<path d="M1900,126.03L1920,126.03" style="fill:none;stroke:#0000FF;stroke-width:4" />
<path d="M1915,126.03A5,5 0 1 1 1905,126.03A5,5 0 1 1 1915,126.03Z" style="fill:#0000FF" />
<text x="1795.4" y="-121.05" transform="scale(1, -1)"
	style="font-family:Liberation Serif;font-variant:normal;font-weight:normal;font-style:normal;font-size:24px">std::deque</text>
<path d="M1900,105.66L1920,105.66" style="fill:none;stroke:#00FF00;stroke-width:4" />
<path d="M1915,105.66A5,5 0 1 1 1905,105.66A5,5 0 1 1 1915,105.66Z" style="fill:#00FF00" />
<text x="1792.7" y="-100.69" transform="scale(1, -1)"
	style="font-family:Liberation Serif;font-variant:normal;font-weight:normal;font-style:normal;font-size:24px">std::vector</text>
<path d="M1900,85.294L1920,85.294" style="fill:none;stroke:#FF8000;stroke-width:4" />
<path d="M1915,85.294A5,5 0 1 1 1905,85.294A5,5 0 1 1 1915,85.294Z" style="fill:#FF8000" />
<text x="1669.4" y="-80.319" transform="scale(1, -1)"
	style="font-family:Liberation Serif;font-variant:normal;font-weight:normal;font-style:normal;font-size:24px">preallocated std::vector</text>
</g>
</svg>
