<?xml version="1.0"?>
<!-- Generated by SVGo and Plotinum VG -->
<svg width="1920pt" height="1080pt" viewBox="0 0 1920 1080"
	xmlns="http://www.w3.org/2000/svg"
	xmlns:xlink="http://www.w3.org/1999/xlink">
<g transform="scale(1, -1) translate(0, -1080)">
<path d="M0,0L1920,0L1920,1080L0,1080Z" style="fill:#FFFFFF" />
<text x="735.77" y="-1040.9" transform="scale(1, -1)"
	style="font-family:Liberation Serif;font-variant:normal;font-weight:normal;font-style:normal;font-size:50px">push-back - Log Scale</text>
<text x="887.77" y="-9.7559" transform="scale(1, -1)"
	style="font-family:Liberation Serif;font-variant:normal;font-weight:normal;font-style:normal;font-size:30px">Number of elements</text>
<text x="105.46" y="-39.727" transform="scale(1, -1)"
	style="font-family:Liberation Serif;font-variant:normal;font-weight:normal;font-style:normal;font-size:20px">100000</text>
<text x="299.86" y="-39.727" transform="scale(1, -1)"
	style="font-family:Liberation Serif;font-variant:normal;font-weight:normal;font-style:normal;font-size:20px">200000</text>
<text x="494.25" y="-39.727" transform="scale(1, -1)"
	style="font-family:Liberation Serif;font-variant:normal;font-weight:normal;font-style:normal;font-size:20px">300000</text>
<text x="688.64" y="-39.727" transform="scale(1, -1)"
	style="font-family:Liberation Serif;font-variant:normal;font-weight:normal;font-style:normal;font-size:20px">400000</text>
<text x="883.03" y="-39.727" transform="scale(1, -1)"
	style="font-family:Liberation Serif;font-variant:normal;font-weight:normal;font-style:normal;font-size:20px">500000</text>
<text x="1077.4" y="-39.727" transform="scale(1, -1)"
	style="font-family:Liberation Serif;font-variant:normal;font-weight:normal;font-style:normal;font-size:20px">600000</text>
<text x="1271.8" y="-39.727" transform="scale(1, -1)"
	style="font-family:Liberation Serif;font-variant:normal;font-weight:normal;font-style:normal;font-size:20px">700000</text>
<text x="1466.2" y="-39.727" transform="scale(1, -1)"
	style="font-family:Liberation Serif;font-variant:normal;font-weight:normal;font-style:normal;font-size:20px">800000</text>
<text x="1660.6" y="-39.727" transform="scale(1, -1)"
	style="font-family:Liberation Serif;font-variant:normal;font-weight:normal;font-style:normal;font-size:20px">900000</text>
<text x="1850" y="-39.727" transform="scale(1, -1)"
	style="font-family:Liberation Serif;font-variant:normal;font-weight:normal;font-style:normal;font-size:20px">1000000</text>
<path d="M135.46,55.371L135.46,63.371" style="fill:none;stroke:#000000;stroke-width:0.5" />
<path d="M329.86,55.371L329.86,63.371" style="fill:none;stroke:#000000;stroke-width:0.5" />
<path d="M524.25,55.371L524.25,63.371" style="fill:none;stroke:#000000;stroke-width:0.5" />
<path d="M718.64,55.371L718.64,63.371" style="fill:none;stroke:#000000;stroke-width:0.5" />
<path d="M913.03,55.371L913.03,63.371" style="fill:none;stroke:#000000;stroke-width:0.5" />
<path d="M1107.4,55.371L1107.4,63.371" style="fill:none;stroke:#000000;stroke-width:0.5" />
<path d="M1301.8,55.371L1301.8,63.371" style="fill:none;stroke:#000000;stroke-width:0.5" />
<path d="M1496.2,55.371L1496.2,63.371" style="fill:none;stroke:#000000;stroke-width:0.5" />
<path d="M1690.6,55.371L1690.6,63.371" style="fill:none;stroke:#000000;stroke-width:0.5" />
<path d="M1885,55.371L1885,63.371" style="fill:none;stroke:#000000;stroke-width:0.5" />
<path d="M135.46,63.371L1885,63.371" style="fill:none;stroke:#000000;stroke-width:0.5" />
<g transform="rotate(90)">
<text x="484.67" y="23.467" transform="scale(1, -1)"
	style="font-family:Liberation Serif;font-variant:normal;font-weight:normal;font-style:normal;font-size:30px">log(μs + 1)</text>
</g>
<text x="49.712" y="-484.23" transform="scale(1, -1)"
	style="font-family:Liberation Serif;font-variant:normal;font-weight:normal;font-style:normal;font-size:20px">200000</text>
<text x="49.712" y="-858.07" transform="scale(1, -1)"
	style="font-family:Liberation Serif;font-variant:normal;font-weight:normal;font-style:normal;font-size:20px">800000</text>
<text x="39.712" y="-1009" transform="scale(1, -1)"
	style="font-family:Liberation Serif;font-variant:normal;font-weight:normal;font-style:normal;font-size:20px">1400000</text>
<path d="M114.71,488.8L122.71,488.8" style="fill:none;stroke:#000000;stroke-width:0.5" />
<path d="M114.71,862.64L122.71,862.64" style="fill:none;stroke:#000000;stroke-width:0.5" />
<path d="M114.71,1013.6L122.71,1013.6" style="fill:none;stroke:#000000;stroke-width:0.5" />
<path d="M118.71,735.9L122.71,735.9" style="fill:none;stroke:#000000;stroke-width:0.5" />
<path d="M118.71,948.52L122.71,948.52" style="fill:none;stroke:#000000;stroke-width:0.5" />
<path d="M122.71,80.11L122.71,1022.2" style="fill:none;stroke:#000000;stroke-width:0.5" />
<path d="M135.46,80.11L135.46,1022.2" style="fill:none;stroke:#808080;stroke-width:0.25" />
<path d="M329.86,80.11L329.86,1022.2" style="fill:none;stroke:#808080;stroke-width:0.25" />
<path d="M524.25,80.11L524.25,1022.2" style="fill:none;stroke:#808080;stroke-width:0.25" />
<path d="M718.64,80.11L718.64,1022.2" style="fill:none;stroke:#808080;stroke-width:0.25" />
<path d="M913.03,80.11L913.03,1022.2" style="fill:none;stroke:#808080;stroke-width:0.25" />
<path d="M1107.4,80.11L1107.4,1022.2" style="fill:none;stroke:#808080;stroke-width:0.25" />
<path d="M1301.8,80.11L1301.8,1022.2" style="fill:none;stroke:#808080;stroke-width:0.25" />
<path d="M1496.2,80.11L1496.2,1022.2" style="fill:none;stroke:#808080;stroke-width:0.25" />
<path d="M1690.6,80.11L1690.6,1022.2" style="fill:none;stroke:#808080;stroke-width:0.25" />
<path d="M1885,80.11L1885,1022.2" style="fill:none;stroke:#808080;stroke-width:0.25" />
<path d="M135.46,488.8L1885,488.8" style="fill:none;stroke:#808080;stroke-width:0.25" />
<path d="M135.46,862.64L1885,862.64" style="fill:none;stroke:#808080;stroke-width:0.25" />
<path d="M135.46,1013.6L1885,1013.6" style="fill:none;stroke:#808080;stroke-width:0.25" />
<path d="M135.46,318.14L329.86,543.45L524.25,654.41L718.64,715.66L913.03,814.57L1107.4,834.79L1301.8,881.49L1496.2,918.38L1690.6,954.15L1885,975.2" style="fill:none;stroke:#FF0000;stroke-width:4" />
<path d="M140.46,318.14A5,5 0 1 1 130.46,318.14A5,5 0 1 1 140.46,318.14Z" style="fill:#FF0000" />
<path d="M334.86,543.45A5,5 0 1 1 324.86,543.45A5,5 0 1 1 334.86,543.45Z" style="fill:#FF0000" />
<path d="M529.25,654.41A5,5 0 1 1 519.25,654.41A5,5 0 1 1 529.25,654.41Z" style="fill:#FF0000" />
<path d="M723.64,715.66A5,5 0 1 1 713.64,715.66A5,5 0 1 1 723.64,715.66Z" style="fill:#FF0000" />
<path d="M918.03,814.57A5,5 0 1 1 908.03,814.57A5,5 0 1 1 918.03,814.57Z" style="fill:#FF0000" />
<path d="M1112.4,834.79A5,5 0 1 1 1102.4,834.79A5,5 0 1 1 1112.4,834.79Z" style="fill:#FF0000" />
<path d="M1306.8,881.49A5,5 0 1 1 1296.8,881.49A5,5 0 1 1 1306.8,881.49Z" style="fill:#FF0000" />
<path d="M1501.2,918.38A5,5 0 1 1 1491.2,918.38A5,5 0 1 1 1501.2,918.38Z" style="fill:#FF0000" />
<path d="M1695.6,954.15A5,5 0 1 1 1685.6,954.15A5,5 0 1 1 1695.6,954.15Z" style="fill:#FF0000" />
<path d="M1890,975.2A5,5 0 1 1 1880,975.2A5,5 0 1 1 1890,975.2Z" style="fill:#FF0000" />
<path d="M135.46,367.17L329.86,544.97L524.25,719.82L718.64,716.13L913.03,793.42L1107.4,982.99L1301.8,946.06L1496.2,958.61L1690.6,966.45L1885,963.61" style="fill:none;stroke:#0000FF;stroke-width:4" />
<path d="M140.46,367.17A5,5 0 1 1 130.46,367.17A5,5 0 1 1 140.46,367.17Z" style="fill:#0000FF" />
<path d="M334.86,544.97A5,5 0 1 1 324.86,544.97A5,5 0 1 1 334.86,544.97Z" style="fill:#0000FF" />
<path d="M529.25,719.82A5,5 0 1 1 519.25,719.82A5,5 0 1 1 529.25,719.82Z" style="fill:#0000FF" />
<path d="M723.64,716.13A5,5 0 1 1 713.64,716.13A5,5 0 1 1 723.64,716.13Z" style="fill:#0000FF" />
<path d="M918.03,793.42A5,5 0 1 1 908.03,793.42A5,5 0 1 1 918.03,793.42Z" style="fill:#0000FF" />
<path d="M1112.4,982.99A5,5 0 1 1 1102.4,982.99A5,5 0 1 1 1112.4,982.99Z" style="fill:#0000FF" />
<path d="M1306.8,946.06A5,5 0 1 1 1296.8,946.06A5,5 0 1 1 1306.8,946.06Z" style="fill:#0000FF" />
<path d="M1501.2,958.61A5,5 0 1 1 1491.2,958.61A5,5 0 1 1 1501.2,958.61Z" style="fill:#0000FF" />
<path d="M1695.6,966.45A5,5 0 1 1 1685.6,966.45A5,5 0 1 1 1695.6,966.45Z" style="fill:#0000FF" />
<path d="M1890,963.61A5,5 0 1 1 1880,963.61A5,5 0 1 1 1890,963.61Z" style="fill:#0000FF" />
<path d="M135.46,80.11L329.86,254.26L524.25,367.18L718.64,445.88L913.03,513.51L1107.4,553.2L1301.8,649.15L1496.2,634.69L1690.6,673.91L1885,715.48" style="fill:none;stroke:#00FF00;stroke-width:4" />
<path d="M140.46,80.11A5,5 0 1 1 130.46,80.11A5,5 0 1 1 140.46,80.11Z" style="fill:#00FF00" />
<path d="M334.86,254.26A5,5 0 1 1 324.86,254.26A5,5 0 1 1 334.86,254.26Z" style="fill:#00FF00" />
<path d="M529.25,367.18A5,5 0 1 1 519.25,367.18A5,5 0 1 1 529.25,367.18Z" style="fill:#00FF00" />
<path d="M723.64,445.88A5,5 0 1 1 713.64,445.88A5,5 0 1 1 723.64,445.88Z" style="fill:#00FF00" />
<path d="M918.03,513.51A5,5 0 1 1 908.03,513.51A5,5 0 1 1 918.03,513.51Z" style="fill:#00FF00" />
<path d="M1112.4,553.2A5,5 0 1 1 1102.4,553.2A5,5 0 1 1 1112.4,553.2Z" style="fill:#00FF00" />
<path d="M1306.8,649.15A5,5 0 1 1 1296.8,649.15A5,5 0 1 1 1306.8,649.15Z" style="fill:#00FF00" />
<path d="M1501.2,634.69A5,5 0 1 1 1491.2,634.69A5,5 0 1 1 1501.2,634.69Z" style="fill:#00FF00" />
<path d="M1695.6,673.91A5,5 0 1 1 1685.6,673.91A5,5 0 1 1 1695.6,673.91Z" style="fill:#00FF00" />
<path d="M1890,715.48A5,5 0 1 1 1880,715.48A5,5 0 1 1 1890,715.48Z" style="fill:#00FF00" />
<path d="M135.46,339.32L329.86,518.03L524.25,636.1L718.64,710.6L913.03,772.57L1107.4,933.49L1301.8,916.66L1496.2,996.52L1690.6,931.11L1885,988.73" style="fill:none;stroke:#FF8000;stroke-width:4" />
<path d="M140.46,339.32A5,5 0 1 1 130.46,339.32A5,5 0 1 1 140.46,339.32Z" style="fill:#FF8000" />
<path d="M334.86,518.03A5,5 0 1 1 324.86,518.03A5,5 0 1 1 334.86,518.03Z" style="fill:#FF8000" />
<path d="M529.25,636.1A5,5 0 1 1 519.25,636.1A5,5 0 1 1 529.25,636.1Z" style="fill:#FF8000" />
<path d="M723.64,710.6A5,5 0 1 1 713.64,710.6A5,5 0 1 1 723.64,710.6Z" style="fill:#FF8000" />
<path d="M918.03,772.57A5,5 0 1 1 908.03,772.57A5,5 0 1 1 918.03,772.57Z" style="fill:#FF8000" />
<path d="M1112.4,933.49A5,5 0 1 1 1102.4,933.49A5,5 0 1 1 1112.4,933.49Z" style="fill:#FF8000" />
<path d="M1306.8,916.66A5,5 0 1 1 1296.8,916.66A5,5 0 1 1 1306.8,916.66Z" style="fill:#FF8000" />
<path d="M1501.2,996.52A5,5 0 1 1 1491.2,996.52A5,5 0 1 1 1501.2,996.52Z" style="fill:#FF8000" />
<path d="M1695.6,931.11A5,5 0 1 1 1685.6,931.11A5,5 0 1 1 1695.6,931.11Z" style="fill:#FF8000" />
<path d="M1890,988.73A5,5 0 1 1 1880,988.73A5,5 0 1 1 1890,988.73Z" style="fill:#FF8000" />
<path d="M1900,146.4L1920,146.4" style="fill:none;stroke:#FF0000;stroke-width:4" />
<path d="M1915,146.4A5,5 0 1 1 1905,146.4A5,5 0 1 1 1915,146.4Z" style="fill:#FF0000" />
<text x="1795.4" y="-141.42" transform="scale(1, -1)"
	style="font-family:Liberation Serif;font-variant:normal;font-weight:normal;font-style:normal;font-size:24px">std::deque</text>
<path d="M1900,126.03L1920,126.03" style="fill:none;stroke:#0000FF;stroke-width:4" />
<path d="M1915,126.03A5,5 0 1 1 1905,126.03A5,5 0 1 1 1915,126.03Z" style="fill:#0000FF" />
<text x="1792.7" y="-121.05" transform="scale(1, -1)"
	style="font-family:Liberation Serif;font-variant:normal;font-weight:normal;font-style:normal;font-size:24px">std::vector</text>
<path d="M1900,105.66L1920,105.66" style="fill:none;stroke:#00FF00;stroke-width:4" />
<path d="M1915,105.66A5,5 0 1 1 1905,105.66A5,5 0 1 1 1915,105.66Z" style="fill:#00FF00" />
<text x="1669.4" y="-100.69" transform="scale(1, -1)"
	style="font-family:Liberation Serif;font-variant:normal;font-weight:normal;font-style:normal;font-size:24px">preallocated std::vector</text>
<path d="M1900,85.294L1920,85.294" style="fill:none;stroke:#FF8000;stroke-width:4" />
<path d="M1915,85.294A5,5 0 1 1 1905,85.294A5,5 0 1 1 1915,85.294Z" style="fill:#FF8000" />
<text x="1823.3" y="-80.319" transform="scale(1, -1)"
	style="font-family:Liberation Serif;font-variant:normal;font-weight:normal;font-style:normal;font-size:24px">std::list</text>
</g>
</svg>
