<?xml version="1.0"?>
<!-- Generated by SVGo and Plotinum VG -->
<svg width="1920pt" height="1080pt" viewBox="0 0 1920 1080"
	xmlns="http://www.w3.org/2000/svg"
	xmlns:xlink="http://www.w3.org/1999/xlink">
<g transform="scale(1, -1) translate(0, -1080)">
<path d="M0,0L1920,0L1920,1080L0,1080Z" style="fill:#FFFFFF" />
<text x="857.25" y="-1040.9" transform="scale(1, -1)"
	style="font-family:Liberation Serif;font-variant:normal;font-weight:normal;font-style:normal;font-size:50px">push-back</text>
<text x="887.77" y="-9.7559" transform="scale(1, -1)"
	style="font-family:Liberation Serif;font-variant:normal;font-weight:normal;font-style:normal;font-size:30px">Number of elements</text>
<text x="105.46" y="-39.727" transform="scale(1, -1)"
	style="font-family:Liberation Serif;font-variant:normal;font-weight:normal;font-style:normal;font-size:20px">100000</text>
<text x="299.86" y="-39.727" transform="scale(1, -1)"
	style="font-family:Liberation Serif;font-variant:normal;font-weight:normal;font-style:normal;font-size:20px">200000</text>
<text x="494.25" y="-39.727" transform="scale(1, -1)"
	style="font-family:Liberation Serif;font-variant:normal;font-weight:normal;font-style:normal;font-size:20px">300000</text>
<text x="688.64" y="-39.727" transform="scale(1, -1)"
	style="font-family:Liberation Serif;font-variant:normal;font-weight:normal;font-style:normal;font-size:20px">400000</text>
<text x="883.03" y="-39.727" transform="scale(1, -1)"
	style="font-family:Liberation Serif;font-variant:normal;font-weight:normal;font-style:normal;font-size:20px">500000</text>
<text x="1077.4" y="-39.727" transform="scale(1, -1)"
	style="font-family:Liberation Serif;font-variant:normal;font-weight:normal;font-style:normal;font-size:20px">600000</text>
<text x="1271.8" y="-39.727" transform="scale(1, -1)"
	style="font-family:Liberation Serif;font-variant:normal;font-weight:normal;font-style:normal;font-size:20px">700000</text>
<text x="1466.2" y="-39.727" transform="scale(1, -1)"
	style="font-family:Liberation Serif;font-variant:normal;font-weight:normal;font-style:normal;font-size:20px">800000</text>
<text x="1660.6" y="-39.727" transform="scale(1, -1)"
	style="font-family:Liberation Serif;font-variant:normal;font-weight:normal;font-style:normal;font-size:20px">900000</text>
<text x="1850" y="-39.727" transform="scale(1, -1)"
	style="font-family:Liberation Serif;font-variant:normal;font-weight:normal;font-style:normal;font-size:20px">1000000</text>
<path d="M135.46,55.371L135.46,63.371" style="fill:none;stroke:#000000;stroke-width:0.5" />
<path d="M329.86,55.371L329.86,63.371" style="fill:none;stroke:#000000;stroke-width:0.5" />
<path d="M524.25,55.371L524.25,63.371" style="fill:none;stroke:#000000;stroke-width:0.5" />
<path d="M718.64,55.371L718.64,63.371" style="fill:none;stroke:#000000;stroke-width:0.5" />
<path d="M913.03,55.371L913.03,63.371" style="fill:none;stroke:#000000;stroke-width:0.5" />
<path d="M1107.4,55.371L1107.4,63.371" style="fill:none;stroke:#000000;stroke-width:0.5" />
<path d="M1301.8,55.371L1301.8,63.371" style="fill:none;stroke:#000000;stroke-width:0.5" />
<path d="M1496.2,55.371L1496.2,63.371" style="fill:none;stroke:#000000;stroke-width:0.5" />
<path d="M1690.6,55.371L1690.6,63.371" style="fill:none;stroke:#000000;stroke-width:0.5" />
<path d="M1885,55.371L1885,63.371" style="fill:none;stroke:#000000;stroke-width:0.5" />
<path d="M135.46,63.371L1885,63.371" style="fill:none;stroke:#000000;stroke-width:0.5" />
<g transform="rotate(90)">
<text x="538.49" y="23.467" transform="scale(1, -1)"
	style="font-family:Liberation Serif;font-variant:normal;font-weight:normal;font-style:normal;font-size:30px">μs</text>
</g>
<text x="49.712" y="-180.7" transform="scale(1, -1)"
	style="font-family:Liberation Serif;font-variant:normal;font-weight:normal;font-style:normal;font-size:20px">200000</text>
<text x="49.712" y="-584.97" transform="scale(1, -1)"
	style="font-family:Liberation Serif;font-variant:normal;font-weight:normal;font-style:normal;font-size:20px">800000</text>
<text x="39.712" y="-989.25" transform="scale(1, -1)"
	style="font-family:Liberation Serif;font-variant:normal;font-weight:normal;font-style:normal;font-size:20px">1400000</text>
<path d="M114.71,185.27L122.71,185.27" style="fill:none;stroke:#000000;stroke-width:0.5" />
<path d="M114.71,589.54L122.71,589.54" style="fill:none;stroke:#000000;stroke-width:0.5" />
<path d="M114.71,993.82L122.71,993.82" style="fill:none;stroke:#000000;stroke-width:0.5" />
<path d="M118.71,387.4L122.71,387.4" style="fill:none;stroke:#000000;stroke-width:0.5" />
<path d="M118.71,791.68L122.71,791.68" style="fill:none;stroke:#000000;stroke-width:0.5" />
<path d="M122.71,80.11L122.71,1024.6" style="fill:none;stroke:#000000;stroke-width:0.5" />
<path d="M135.46,80.11L135.46,1024.6" style="fill:none;stroke:#808080;stroke-width:0.25" />
<path d="M329.86,80.11L329.86,1024.6" style="fill:none;stroke:#808080;stroke-width:0.25" />
<path d="M524.25,80.11L524.25,1024.6" style="fill:none;stroke:#808080;stroke-width:0.25" />
<path d="M718.64,80.11L718.64,1024.6" style="fill:none;stroke:#808080;stroke-width:0.25" />
<path d="M913.03,80.11L913.03,1024.6" style="fill:none;stroke:#808080;stroke-width:0.25" />
<path d="M1107.4,80.11L1107.4,1024.6" style="fill:none;stroke:#808080;stroke-width:0.25" />
<path d="M1301.8,80.11L1301.8,1024.6" style="fill:none;stroke:#808080;stroke-width:0.25" />
<path d="M1496.2,80.11L1496.2,1024.6" style="fill:none;stroke:#808080;stroke-width:0.25" />
<path d="M1690.6,80.11L1690.6,1024.6" style="fill:none;stroke:#808080;stroke-width:0.25" />
<path d="M1885,80.11L1885,1024.6" style="fill:none;stroke:#808080;stroke-width:0.25" />
<path d="M135.46,185.27L1885,185.27" style="fill:none;stroke:#808080;stroke-width:0.25" />
<path d="M135.46,589.54L1885,589.54" style="fill:none;stroke:#808080;stroke-width:0.25" />
<path d="M135.46,993.82L1885,993.82" style="fill:none;stroke:#808080;stroke-width:0.25" />
<path d="M135.46,136.34L329.86,216.47L524.25,367.9L718.64,363.59L913.03,467.5L1107.4,892.75L1301.8,784.95L1496.2,819.94L1690.6,842.62L1885,834.34" style="fill:none;stroke:#FF0000;stroke-width:4" />
<path d="M140.46,136.34A5,5 0 1 1 130.46,136.34A5,5 0 1 1 140.46,136.34Z" style="fill:#FF0000" />
<path d="M334.86,216.47A5,5 0 1 1 324.86,216.47A5,5 0 1 1 334.86,216.47Z" style="fill:#FF0000" />
<path d="M529.25,367.9A5,5 0 1 1 519.25,367.9A5,5 0 1 1 529.25,367.9Z" style="fill:#FF0000" />
<path d="M723.64,363.59A5,5 0 1 1 713.64,363.59A5,5 0 1 1 723.64,363.59Z" style="fill:#FF0000" />
<path d="M918.03,467.5A5,5 0 1 1 908.03,467.5A5,5 0 1 1 918.03,467.5Z" style="fill:#FF0000" />
<path d="M1112.4,892.75A5,5 0 1 1 1102.4,892.75A5,5 0 1 1 1112.4,892.75Z" style="fill:#FF0000" />
<path d="M1306.8,784.95A5,5 0 1 1 1296.8,784.95A5,5 0 1 1 1306.8,784.95Z" style="fill:#FF0000" />
<path d="M1501.2,819.94A5,5 0 1 1 1491.2,819.94A5,5 0 1 1 1501.2,819.94Z" style="fill:#FF0000" />
<path d="M1695.6,842.62A5,5 0 1 1 1685.6,842.62A5,5 0 1 1 1695.6,842.62Z" style="fill:#FF0000" />
<path d="M1890,834.34A5,5 0 1 1 1880,834.34A5,5 0 1 1 1890,834.34Z" style="fill:#FF0000" />
<path d="M135.46,80.11L329.86,106.98L524.25,136.34L718.64,165.43L913.03,198.19L1107.4,221.61L1301.8,294.73L1496.2,281.98L1690.6,318.21L1885,362.84" style="fill:none;stroke:#0000FF;stroke-width:4" />
<path d="M140.46,80.11A5,5 0 1 1 130.46,80.11A5,5 0 1 1 140.46,80.11Z" style="fill:#0000FF" />
<path d="M334.86,106.98A5,5 0 1 1 324.86,106.98A5,5 0 1 1 334.86,106.98Z" style="fill:#0000FF" />
<path d="M529.25,136.34A5,5 0 1 1 519.25,136.34A5,5 0 1 1 529.25,136.34Z" style="fill:#0000FF" />
<path d="M723.64,165.43A5,5 0 1 1 713.64,165.43A5,5 0 1 1 723.64,165.43Z" style="fill:#0000FF" />
<path d="M918.03,198.19A5,5 0 1 1 908.03,198.19A5,5 0 1 1 918.03,198.19Z" style="fill:#0000FF" />
<path d="M1112.4,221.61A5,5 0 1 1 1102.4,221.61A5,5 0 1 1 1112.4,221.61Z" style="fill:#0000FF" />
<path d="M1306.8,294.73A5,5 0 1 1 1296.8,294.73A5,5 0 1 1 1306.8,294.73Z" style="fill:#0000FF" />
<path d="M1501.2,281.98A5,5 0 1 1 1491.2,281.98A5,5 0 1 1 1501.2,281.98Z" style="fill:#0000FF" />
<path d="M1695.6,318.21A5,5 0 1 1 1685.6,318.21A5,5 0 1 1 1695.6,318.21Z" style="fill:#0000FF" />
<path d="M1890,362.84A5,5 0 1 1 1880,362.84A5,5 0 1 1 1890,362.84Z" style="fill:#0000FF" />
<path d="M135.46,127.92L329.86,200.69L524.25,283.19L718.64,357.23L913.03,436.47L1107.4,751.51L1301.8,709.09L1496.2,936.07L1690.6,745.35L1885,910.87" style="fill:none;stroke:#00FF00;stroke-width:4" />
<path d="M140.46,127.92A5,5 0 1 1 130.46,127.92A5,5 0 1 1 140.46,127.92Z" style="fill:#00FF00" />
<path d="M334.86,200.69A5,5 0 1 1 324.86,200.69A5,5 0 1 1 334.86,200.69Z" style="fill:#00FF00" />
<path d="M529.25,283.19A5,5 0 1 1 519.25,283.19A5,5 0 1 1 529.25,283.19Z" style="fill:#00FF00" />
<path d="M723.64,357.23A5,5 0 1 1 713.64,357.23A5,5 0 1 1 723.64,357.23Z" style="fill:#00FF00" />
<path d="M918.03,436.47A5,5 0 1 1 908.03,436.47A5,5 0 1 1 918.03,436.47Z" style="fill:#00FF00" />
<path d="M1112.4,751.51A5,5 0 1 1 1102.4,751.51A5,5 0 1 1 1112.4,751.51Z" style="fill:#00FF00" />
<path d="M1306.8,709.09A5,5 0 1 1 1296.8,709.09A5,5 0 1 1 1306.8,709.09Z" style="fill:#00FF00" />
<path d="M1501.2,936.07A5,5 0 1 1 1491.2,936.07A5,5 0 1 1 1501.2,936.07Z" style="fill:#00FF00" />
<path d="M1695.6,745.35A5,5 0 1 1 1685.6,745.35A5,5 0 1 1 1695.6,745.35Z" style="fill:#00FF00" />
<path d="M1890,910.87A5,5 0 1 1 1880,910.87A5,5 0 1 1 1890,910.87Z" style="fill:#00FF00" />
<path d="M135.46,122.07L329.86,215.54L524.25,299.54L718.64,363.05L913.03,501.52L1107.4,536.65L1301.8,628.56L1496.2,713.31L1690.6,807.32L1885,868.77" style="fill:none;stroke:#FF8000;stroke-width:4" />
<path d="M140.46,122.07A5,5 0 1 1 130.46,122.07A5,5 0 1 1 140.46,122.07Z" style="fill:#FF8000" />
<path d="M334.86,215.54A5,5 0 1 1 324.86,215.54A5,5 0 1 1 334.86,215.54Z" style="fill:#FF8000" />
<path d="M529.25,299.54A5,5 0 1 1 519.25,299.54A5,5 0 1 1 529.25,299.54Z" style="fill:#FF8000" />
<path d="M723.64,363.05A5,5 0 1 1 713.64,363.05A5,5 0 1 1 723.64,363.05Z" style="fill:#FF8000" />
<path d="M918.03,501.52A5,5 0 1 1 908.03,501.52A5,5 0 1 1 918.03,501.52Z" style="fill:#FF8000" />
<path d="M1112.4,536.65A5,5 0 1 1 1102.4,536.65A5,5 0 1 1 1112.4,536.65Z" style="fill:#FF8000" />
<path d="M1306.8,628.56A5,5 0 1 1 1296.8,628.56A5,5 0 1 1 1306.8,628.56Z" style="fill:#FF8000" />
<path d="M1501.2,713.31A5,5 0 1 1 1491.2,713.31A5,5 0 1 1 1501.2,713.31Z" style="fill:#FF8000" />
<path d="M1695.6,807.32A5,5 0 1 1 1685.6,807.32A5,5 0 1 1 1695.6,807.32Z" style="fill:#FF8000" />
<path d="M1890,868.77A5,5 0 1 1 1880,868.77A5,5 0 1 1 1890,868.77Z" style="fill:#FF8000" />
<path d="M1900,146.4L1920,146.4" style="fill:none;stroke:#FF0000;stroke-width:4" />
<path d="M1915,146.4A5,5 0 1 1 1905,146.4A5,5 0 1 1 1915,146.4Z" style="fill:#FF0000" />
<text x="1792.7" y="-141.42" transform="scale(1, -1)"
	style="font-family:Liberation Serif;font-variant:normal;font-weight:normal;font-style:normal;font-size:24px">std::vector</text>
<path d="M1900,126.03L1920,126.03" style="fill:none;stroke:#0000FF;stroke-width:4" />
<path d="M1915,126.03A5,5 0 1 1 1905,126.03A5,5 0 1 1 1915,126.03Z" style="fill:#0000FF" />
<text x="1669.4" y="-121.05" transform="scale(1, -1)"
	style="font-family:Liberation Serif;font-variant:normal;font-weight:normal;font-style:normal;font-size:24px">preallocated std::vector</text>
<path d="M1900,105.66L1920,105.66" style="fill:none;stroke:#00FF00;stroke-width:4" />
<path d="M1915,105.66A5,5 0 1 1 1905,105.66A5,5 0 1 1 1915,105.66Z" style="fill:#00FF00" />
<text x="1823.3" y="-100.69" transform="scale(1, -1)"
	style="font-family:Liberation Serif;font-variant:normal;font-weight:normal;font-style:normal;font-size:24px">std::list</text>
<path d="M1900,85.294L1920,85.294" style="fill:none;stroke:#FF8000;stroke-width:4" />
<path d="M1915,85.294A5,5 0 1 1 1905,85.294A5,5 0 1 1 1915,85.294Z" style="fill:#FF8000" />
<text x="1795.4" y="-80.319" transform="scale(1, -1)"
	style="font-family:Liberation Serif;font-variant:normal;font-weight:normal;font-style:normal;font-size:24px">std::deque</text>
</g>
</svg>
