<?xml version="1.0"?>
<!-- Generated by SVGo and Plotinum VG -->
<svg width="1920pt" height="1080pt" viewBox="0 0 1920 1080"
	xmlns="http://www.w3.org/2000/svg"
	xmlns:xlink="http://www.w3.org/1999/xlink">
<g transform="scale(1, -1) translate(0, -1080)">
<path d="M0,0L1920,0L1920,1080L0,1080Z" style="fill:#FFFFFF" />
<text x="857.25" y="-1040.9" transform="scale(1, -1)"
	style="font-family:Liberation Serif;font-variant:normal;font-weight:normal;font-style:normal;font-size:50px">push-back</text>
<text x="877.77" y="-9.7559" transform="scale(1, -1)"
	style="font-family:Liberation Serif;font-variant:normal;font-weight:normal;font-style:normal;font-size:30px">Number of elements</text>
<text x="85.462" y="-39.727" transform="scale(1, -1)"
	style="font-family:Liberation Serif;font-variant:normal;font-weight:normal;font-style:normal;font-size:20px">100000</text>
<text x="282.08" y="-39.727" transform="scale(1, -1)"
	style="font-family:Liberation Serif;font-variant:normal;font-weight:normal;font-style:normal;font-size:20px">200000</text>
<text x="478.69" y="-39.727" transform="scale(1, -1)"
	style="font-family:Liberation Serif;font-variant:normal;font-weight:normal;font-style:normal;font-size:20px">300000</text>
<text x="675.31" y="-39.727" transform="scale(1, -1)"
	style="font-family:Liberation Serif;font-variant:normal;font-weight:normal;font-style:normal;font-size:20px">400000</text>
<text x="871.92" y="-39.727" transform="scale(1, -1)"
	style="font-family:Liberation Serif;font-variant:normal;font-weight:normal;font-style:normal;font-size:20px">500000</text>
<text x="1068.5" y="-39.727" transform="scale(1, -1)"
	style="font-family:Liberation Serif;font-variant:normal;font-weight:normal;font-style:normal;font-size:20px">600000</text>
<text x="1265.2" y="-39.727" transform="scale(1, -1)"
	style="font-family:Liberation Serif;font-variant:normal;font-weight:normal;font-style:normal;font-size:20px">700000</text>
<text x="1461.8" y="-39.727" transform="scale(1, -1)"
	style="font-family:Liberation Serif;font-variant:normal;font-weight:normal;font-style:normal;font-size:20px">800000</text>
<text x="1658.4" y="-39.727" transform="scale(1, -1)"
	style="font-family:Liberation Serif;font-variant:normal;font-weight:normal;font-style:normal;font-size:20px">900000</text>
<text x="1850" y="-39.727" transform="scale(1, -1)"
	style="font-family:Liberation Serif;font-variant:normal;font-weight:normal;font-style:normal;font-size:20px">1000000</text>
<path d="M115.46,55.371L115.46,63.371" style="fill:none;stroke:#000000;stroke-width:0.5" />
<path d="M312.08,55.371L312.08,63.371" style="fill:none;stroke:#000000;stroke-width:0.5" />
<path d="M508.69,55.371L508.69,63.371" style="fill:none;stroke:#000000;stroke-width:0.5" />
<path d="M705.31,55.371L705.31,63.371" style="fill:none;stroke:#000000;stroke-width:0.5" />
<path d="M901.92,55.371L901.92,63.371" style="fill:none;stroke:#000000;stroke-width:0.5" />
<path d="M1098.5,55.371L1098.5,63.371" style="fill:none;stroke:#000000;stroke-width:0.5" />
<path d="M1295.2,55.371L1295.2,63.371" style="fill:none;stroke:#000000;stroke-width:0.5" />
<path d="M1491.8,55.371L1491.8,63.371" style="fill:none;stroke:#000000;stroke-width:0.5" />
<path d="M1688.4,55.371L1688.4,63.371" style="fill:none;stroke:#000000;stroke-width:0.5" />
<path d="M1885,55.371L1885,63.371" style="fill:none;stroke:#000000;stroke-width:0.5" />
<path d="M115.46,63.371L1885,63.371" style="fill:none;stroke:#000000;stroke-width:0.5" />
<g transform="rotate(90)">
<text x="538.49" y="23.467" transform="scale(1, -1)"
	style="font-family:Liberation Serif;font-variant:normal;font-weight:normal;font-style:normal;font-size:30px">μs</text>
</g>
<text x="49.712" y="-106.78" transform="scale(1, -1)"
	style="font-family:Liberation Serif;font-variant:normal;font-weight:normal;font-style:normal;font-size:20px">5000</text>
<text x="39.712" y="-403.43" transform="scale(1, -1)"
	style="font-family:Liberation Serif;font-variant:normal;font-weight:normal;font-style:normal;font-size:20px">25000</text>
<text x="39.712" y="-700.09" transform="scale(1, -1)"
	style="font-family:Liberation Serif;font-variant:normal;font-weight:normal;font-style:normal;font-size:20px">45000</text>
<text x="39.712" y="-996.74" transform="scale(1, -1)"
	style="font-family:Liberation Serif;font-variant:normal;font-weight:normal;font-style:normal;font-size:20px">65000</text>
<path d="M94.712,111.35L102.71,111.35" style="fill:none;stroke:#000000;stroke-width:0.5" />
<path d="M94.712,408L102.71,408" style="fill:none;stroke:#000000;stroke-width:0.5" />
<path d="M94.712,704.66L102.71,704.66" style="fill:none;stroke:#000000;stroke-width:0.5" />
<path d="M94.712,1001.3L102.71,1001.3" style="fill:none;stroke:#000000;stroke-width:0.5" />
<path d="M98.712,259.68L102.71,259.68" style="fill:none;stroke:#000000;stroke-width:0.5" />
<path d="M98.712,556.33L102.71,556.33" style="fill:none;stroke:#000000;stroke-width:0.5" />
<path d="M98.712,852.98L102.71,852.98" style="fill:none;stroke:#000000;stroke-width:0.5" />
<path d="M102.71,80.11L102.71,1024.6" style="fill:none;stroke:#000000;stroke-width:0.5" />
<path d="M115.46,80.11L115.46,1024.6" style="fill:none;stroke:#808080;stroke-width:0.25" />
<path d="M312.08,80.11L312.08,1024.6" style="fill:none;stroke:#808080;stroke-width:0.25" />
<path d="M508.69,80.11L508.69,1024.6" style="fill:none;stroke:#808080;stroke-width:0.25" />
<path d="M705.31,80.11L705.31,1024.6" style="fill:none;stroke:#808080;stroke-width:0.25" />
<path d="M901.92,80.11L901.92,1024.6" style="fill:none;stroke:#808080;stroke-width:0.25" />
<path d="M1098.5,80.11L1098.5,1024.6" style="fill:none;stroke:#808080;stroke-width:0.25" />
<path d="M1295.2,80.11L1295.2,1024.6" style="fill:none;stroke:#808080;stroke-width:0.25" />
<path d="M1491.8,80.11L1491.8,1024.6" style="fill:none;stroke:#808080;stroke-width:0.25" />
<path d="M1688.4,80.11L1688.4,1024.6" style="fill:none;stroke:#808080;stroke-width:0.25" />
<path d="M1885,80.11L1885,1024.6" style="fill:none;stroke:#808080;stroke-width:0.25" />
<path d="M115.46,111.35L1885,111.35" style="fill:none;stroke:#808080;stroke-width:0.25" />
<path d="M115.46,408L1885,408" style="fill:none;stroke:#808080;stroke-width:0.25" />
<path d="M115.46,704.66L1885,704.66" style="fill:none;stroke:#808080;stroke-width:0.25" />
<path d="M115.46,1001.3L1885,1001.3" style="fill:none;stroke:#808080;stroke-width:0.25" />
<path d="M115.46,131.88L312.08,226.75L508.69,319.23L705.31,388.76L901.92,568.49L1098.5,582.09L1295.2,707.07L1491.8,764.58L1688.4,868.71L1885,934.86" style="fill:none;stroke:#FF0000;stroke-width:4" />
<path d="M120.46,131.88A5,5 0 1 1 110.46,131.88A5,5 0 1 1 120.46,131.88Z" style="fill:#FF0000" />
<path d="M317.08,226.75A5,5 0 1 1 307.08,226.75A5,5 0 1 1 317.08,226.75Z" style="fill:#FF0000" />
<path d="M513.69,319.23A5,5 0 1 1 503.69,319.23A5,5 0 1 1 513.69,319.23Z" style="fill:#FF0000" />
<path d="M710.31,388.76A5,5 0 1 1 700.31,388.76A5,5 0 1 1 710.31,388.76Z" style="fill:#FF0000" />
<path d="M906.92,568.49A5,5 0 1 1 896.92,568.49A5,5 0 1 1 906.92,568.49Z" style="fill:#FF0000" />
<path d="M1103.5,582.09A5,5 0 1 1 1093.5,582.09A5,5 0 1 1 1103.5,582.09Z" style="fill:#FF0000" />
<path d="M1300.2,707.07A5,5 0 1 1 1290.2,707.07A5,5 0 1 1 1300.2,707.07Z" style="fill:#FF0000" />
<path d="M1496.8,764.58A5,5 0 1 1 1486.8,764.58A5,5 0 1 1 1496.8,764.58Z" style="fill:#FF0000" />
<path d="M1693.4,868.71A5,5 0 1 1 1683.4,868.71A5,5 0 1 1 1693.4,868.71Z" style="fill:#FF0000" />
<path d="M1890,934.86A5,5 0 1 1 1880,934.86A5,5 0 1 1 1890,934.86Z" style="fill:#FF0000" />
<path d="M115.46,124.71L312.08,140.33L508.69,179.24L705.31,258.01L901.92,293.89L1098.5,399.04L1295.2,566.08L1491.8,613.55L1688.4,644.5L1885,726.15" style="fill:none;stroke:#0000FF;stroke-width:4" />
<path d="M120.46,124.71A5,5 0 1 1 110.46,124.71A5,5 0 1 1 120.46,124.71Z" style="fill:#0000FF" />
<path d="M317.08,140.33A5,5 0 1 1 307.08,140.33A5,5 0 1 1 317.08,140.33Z" style="fill:#0000FF" />
<path d="M513.69,179.24A5,5 0 1 1 503.69,179.24A5,5 0 1 1 513.69,179.24Z" style="fill:#0000FF" />
<path d="M710.31,258.01A5,5 0 1 1 700.31,258.01A5,5 0 1 1 710.31,258.01Z" style="fill:#0000FF" />
<path d="M906.92,293.89A5,5 0 1 1 896.92,293.89A5,5 0 1 1 906.92,293.89Z" style="fill:#0000FF" />
<path d="M1103.5,399.04A5,5 0 1 1 1093.5,399.04A5,5 0 1 1 1103.5,399.04Z" style="fill:#0000FF" />
<path d="M1300.2,566.08A5,5 0 1 1 1290.2,566.08A5,5 0 1 1 1300.2,566.08Z" style="fill:#0000FF" />
<path d="M1496.8,613.55A5,5 0 1 1 1486.8,613.55A5,5 0 1 1 1496.8,613.55Z" style="fill:#0000FF" />
<path d="M1693.4,644.5A5,5 0 1 1 1683.4,644.5A5,5 0 1 1 1693.4,644.5Z" style="fill:#0000FF" />
<path d="M1890,726.15A5,5 0 1 1 1880,726.15A5,5 0 1 1 1890,726.15Z" style="fill:#0000FF" />
<path d="M115.46,85.435L312.08,133.98L508.69,220.35L705.31,259.62L901.92,359.23L1098.5,494.82L1295.2,470.75L1491.8,477.86L1688.4,510.36L1885,610.38" style="fill:none;stroke:#00FF00;stroke-width:4" />
<path d="M120.46,85.435A5,5 0 1 1 110.46,85.435A5,5 0 1 1 120.46,85.435Z" style="fill:#00FF00" />
<path d="M317.08,133.98A5,5 0 1 1 307.08,133.98A5,5 0 1 1 317.08,133.98Z" style="fill:#00FF00" />
<path d="M513.69,220.35A5,5 0 1 1 503.69,220.35A5,5 0 1 1 513.69,220.35Z" style="fill:#00FF00" />
<path d="M710.31,259.62A5,5 0 1 1 700.31,259.62A5,5 0 1 1 710.31,259.62Z" style="fill:#00FF00" />
<path d="M906.92,359.23A5,5 0 1 1 896.92,359.23A5,5 0 1 1 906.92,359.23Z" style="fill:#00FF00" />
<path d="M1103.5,494.82A5,5 0 1 1 1093.5,494.82A5,5 0 1 1 1103.5,494.82Z" style="fill:#00FF00" />
<path d="M1300.2,470.75A5,5 0 1 1 1290.2,470.75A5,5 0 1 1 1300.2,470.75Z" style="fill:#00FF00" />
<path d="M1496.8,477.86A5,5 0 1 1 1486.8,477.86A5,5 0 1 1 1496.8,477.86Z" style="fill:#00FF00" />
<path d="M1693.4,510.36A5,5 0 1 1 1683.4,510.36A5,5 0 1 1 1693.4,510.36Z" style="fill:#00FF00" />
<path d="M1890,610.38A5,5 0 1 1 1880,610.38A5,5 0 1 1 1890,610.38Z" style="fill:#00FF00" />
<path d="M115.46,80.11L312.08,110.12L508.69,152.29L705.31,184.44L901.92,217.42L1098.5,337.15L1295.2,337.95L1491.8,366.84L1688.4,425.42L1885,454.47" style="fill:none;stroke:#FF8000;stroke-width:4" />
<path d="M120.46,80.11A5,5 0 1 1 110.46,80.11A5,5 0 1 1 120.46,80.11Z" style="fill:#FF8000" />
<path d="M317.08,110.12A5,5 0 1 1 307.08,110.12A5,5 0 1 1 317.08,110.12Z" style="fill:#FF8000" />
<path d="M513.69,152.29A5,5 0 1 1 503.69,152.29A5,5 0 1 1 513.69,152.29Z" style="fill:#FF8000" />
<path d="M710.31,184.44A5,5 0 1 1 700.31,184.44A5,5 0 1 1 710.31,184.44Z" style="fill:#FF8000" />
<path d="M906.92,217.42A5,5 0 1 1 896.92,217.42A5,5 0 1 1 906.92,217.42Z" style="fill:#FF8000" />
<path d="M1103.5,337.15A5,5 0 1 1 1093.5,337.15A5,5 0 1 1 1103.5,337.15Z" style="fill:#FF8000" />
<path d="M1300.2,337.95A5,5 0 1 1 1290.2,337.95A5,5 0 1 1 1300.2,337.95Z" style="fill:#FF8000" />
<path d="M1496.8,366.84A5,5 0 1 1 1486.8,366.84A5,5 0 1 1 1496.8,366.84Z" style="fill:#FF8000" />
<path d="M1693.4,425.42A5,5 0 1 1 1683.4,425.42A5,5 0 1 1 1693.4,425.42Z" style="fill:#FF8000" />
<path d="M1890,454.47A5,5 0 1 1 1880,454.47A5,5 0 1 1 1890,454.47Z" style="fill:#FF8000" />
<path d="M1900,146.4L1920,146.4" style="fill:none;stroke:#FF0000;stroke-width:4" />
<path d="M1915,146.4A5,5 0 1 1 1905,146.4A5,5 0 1 1 1915,146.4Z" style="fill:#FF0000" />
<text x="1823.3" y="-141.42" transform="scale(1, -1)"
	style="font-family:Liberation Serif;font-variant:normal;font-weight:normal;font-style:normal;font-size:24px">std::list</text>
<path d="M1900,126.03L1920,126.03" style="fill:none;stroke:#0000FF;stroke-width:4" />
<path d="M1915,126.03A5,5 0 1 1 1905,126.03A5,5 0 1 1 1915,126.03Z" style="fill:#0000FF" />
<text x="1795.4" y="-121.05" transform="scale(1, -1)"
	style="font-family:Liberation Serif;font-variant:normal;font-weight:normal;font-style:normal;font-size:24px">std::deque</text>
<path d="M1900,105.66L1920,105.66" style="fill:none;stroke:#00FF00;stroke-width:4" />
<path d="M1915,105.66A5,5 0 1 1 1905,105.66A5,5 0 1 1 1915,105.66Z" style="fill:#00FF00" />
<text x="1792.7" y="-100.69" transform="scale(1, -1)"
	style="font-family:Liberation Serif;font-variant:normal;font-weight:normal;font-style:normal;font-size:24px">std::vector</text>
<path d="M1900,85.294L1920,85.294" style="fill:none;stroke:#FF8000;stroke-width:4" />
<path d="M1915,85.294A5,5 0 1 1 1905,85.294A5,5 0 1 1 1915,85.294Z" style="fill:#FF8000" />
<text x="1669.4" y="-80.319" transform="scale(1, -1)"
	style="font-family:Liberation Serif;font-variant:normal;font-weight:normal;font-style:normal;font-size:24px">preallocated std::vector</text>
</g>
</svg>
