<?xml version="1.0"?>
<!-- Generated by SVGo and Plotinum VG -->
<svg width="1920pt" height="1080pt" viewBox="0 0 1920 1080"
	xmlns="http://www.w3.org/2000/svg"
	xmlns:xlink="http://www.w3.org/1999/xlink">
<g transform="scale(1, -1) translate(0, -1080)">
<path d="M0,0L1920,0L1920,1080L0,1080Z" style="fill:#FFFFFF" />
<text x="857.25" y="-1040.9" transform="scale(1, -1)"
	style="font-family:Liberation Serif;font-variant:normal;font-weight:normal;font-style:normal;font-size:50px">push-back</text>
<text x="882.77" y="-9.7559" transform="scale(1, -1)"
	style="font-family:Liberation Serif;font-variant:normal;font-weight:normal;font-style:normal;font-size:30px">Number of elements</text>
<text x="95.462" y="-39.727" transform="scale(1, -1)"
	style="font-family:Liberation Serif;font-variant:normal;font-weight:normal;font-style:normal;font-size:20px">100000</text>
<text x="290.97" y="-39.727" transform="scale(1, -1)"
	style="font-family:Liberation Serif;font-variant:normal;font-weight:normal;font-style:normal;font-size:20px">200000</text>
<text x="486.47" y="-39.727" transform="scale(1, -1)"
	style="font-family:Liberation Serif;font-variant:normal;font-weight:normal;font-style:normal;font-size:20px">300000</text>
<text x="681.97" y="-39.727" transform="scale(1, -1)"
	style="font-family:Liberation Serif;font-variant:normal;font-weight:normal;font-style:normal;font-size:20px">400000</text>
<text x="877.48" y="-39.727" transform="scale(1, -1)"
	style="font-family:Liberation Serif;font-variant:normal;font-weight:normal;font-style:normal;font-size:20px">500000</text>
<text x="1073" y="-39.727" transform="scale(1, -1)"
	style="font-family:Liberation Serif;font-variant:normal;font-weight:normal;font-style:normal;font-size:20px">600000</text>
<text x="1268.5" y="-39.727" transform="scale(1, -1)"
	style="font-family:Liberation Serif;font-variant:normal;font-weight:normal;font-style:normal;font-size:20px">700000</text>
<text x="1464" y="-39.727" transform="scale(1, -1)"
	style="font-family:Liberation Serif;font-variant:normal;font-weight:normal;font-style:normal;font-size:20px">800000</text>
<text x="1659.5" y="-39.727" transform="scale(1, -1)"
	style="font-family:Liberation Serif;font-variant:normal;font-weight:normal;font-style:normal;font-size:20px">900000</text>
<text x="1850" y="-39.727" transform="scale(1, -1)"
	style="font-family:Liberation Serif;font-variant:normal;font-weight:normal;font-style:normal;font-size:20px">1000000</text>
<path d="M125.46,55.371L125.46,63.371" style="fill:none;stroke:#000000;stroke-width:0.5" />
<path d="M320.97,55.371L320.97,63.371" style="fill:none;stroke:#000000;stroke-width:0.5" />
<path d="M516.47,55.371L516.47,63.371" style="fill:none;stroke:#000000;stroke-width:0.5" />
<path d="M711.97,55.371L711.97,63.371" style="fill:none;stroke:#000000;stroke-width:0.5" />
<path d="M907.48,55.371L907.48,63.371" style="fill:none;stroke:#000000;stroke-width:0.5" />
<path d="M1103,55.371L1103,63.371" style="fill:none;stroke:#000000;stroke-width:0.5" />
<path d="M1298.5,55.371L1298.5,63.371" style="fill:none;stroke:#000000;stroke-width:0.5" />
<path d="M1494,55.371L1494,63.371" style="fill:none;stroke:#000000;stroke-width:0.5" />
<path d="M1689.5,55.371L1689.5,63.371" style="fill:none;stroke:#000000;stroke-width:0.5" />
<path d="M1885,55.371L1885,63.371" style="fill:none;stroke:#000000;stroke-width:0.5" />
<path d="M125.46,63.371L1885,63.371" style="fill:none;stroke:#000000;stroke-width:0.5" />
<g transform="rotate(90)">
<text x="538.49" y="23.467" transform="scale(1, -1)"
	style="font-family:Liberation Serif;font-variant:normal;font-weight:normal;font-style:normal;font-size:30px">μs</text>
</g>
<text x="49.712" y="-208.12" transform="scale(1, -1)"
	style="font-family:Liberation Serif;font-variant:normal;font-weight:normal;font-style:normal;font-size:20px">20000</text>
<text x="49.712" y="-563.08" transform="scale(1, -1)"
	style="font-family:Liberation Serif;font-variant:normal;font-weight:normal;font-style:normal;font-size:20px">60000</text>
<text x="39.712" y="-918.04" transform="scale(1, -1)"
	style="font-family:Liberation Serif;font-variant:normal;font-weight:normal;font-style:normal;font-size:20px">100000</text>
<path d="M104.71,212.69L112.71,212.69" style="fill:none;stroke:#000000;stroke-width:0.5" />
<path d="M104.71,567.65L112.71,567.65" style="fill:none;stroke:#000000;stroke-width:0.5" />
<path d="M104.71,922.61L112.71,922.61" style="fill:none;stroke:#000000;stroke-width:0.5" />
<path d="M108.71,123.95L112.71,123.95" style="fill:none;stroke:#000000;stroke-width:0.5" />
<path d="M108.71,301.43L112.71,301.43" style="fill:none;stroke:#000000;stroke-width:0.5" />
<path d="M108.71,390.17L112.71,390.17" style="fill:none;stroke:#000000;stroke-width:0.5" />
<path d="M108.71,478.91L112.71,478.91" style="fill:none;stroke:#000000;stroke-width:0.5" />
<path d="M108.71,656.39L112.71,656.39" style="fill:none;stroke:#000000;stroke-width:0.5" />
<path d="M108.71,745.13L112.71,745.13" style="fill:none;stroke:#000000;stroke-width:0.5" />
<path d="M108.71,833.87L112.71,833.87" style="fill:none;stroke:#000000;stroke-width:0.5" />
<path d="M108.71,1011.4L112.71,1011.4" style="fill:none;stroke:#000000;stroke-width:0.5" />
<path d="M112.71,80.11L112.71,1024.6" style="fill:none;stroke:#000000;stroke-width:0.5" />
<path d="M125.46,80.11L125.46,1024.6" style="fill:none;stroke:#808080;stroke-width:0.25" />
<path d="M320.97,80.11L320.97,1024.6" style="fill:none;stroke:#808080;stroke-width:0.25" />
<path d="M516.47,80.11L516.47,1024.6" style="fill:none;stroke:#808080;stroke-width:0.25" />
<path d="M711.97,80.11L711.97,1024.6" style="fill:none;stroke:#808080;stroke-width:0.25" />
<path d="M907.48,80.11L907.48,1024.6" style="fill:none;stroke:#808080;stroke-width:0.25" />
<path d="M1103,80.11L1103,1024.6" style="fill:none;stroke:#808080;stroke-width:0.25" />
<path d="M1298.5,80.11L1298.5,1024.6" style="fill:none;stroke:#808080;stroke-width:0.25" />
<path d="M1494,80.11L1494,1024.6" style="fill:none;stroke:#808080;stroke-width:0.25" />
<path d="M1689.5,80.11L1689.5,1024.6" style="fill:none;stroke:#808080;stroke-width:0.25" />
<path d="M1885,80.11L1885,1024.6" style="fill:none;stroke:#808080;stroke-width:0.25" />
<path d="M125.46,212.69L1885,212.69" style="fill:none;stroke:#808080;stroke-width:0.25" />
<path d="M125.46,567.65L1885,567.65" style="fill:none;stroke:#808080;stroke-width:0.25" />
<path d="M125.46,922.61L1885,922.61" style="fill:none;stroke:#808080;stroke-width:0.25" />
<path d="M125.46,80.11L320.97,111.71L516.47,171.81L711.97,208.62L907.48,218.21L1103,263.68L1298.5,287.38L1494,324.18L1689.5,369.01L1885,445.71" style="fill:none;stroke:#FF0000;stroke-width:4" />
<path d="M130.46,80.11A5,5 0 1 1 120.46,80.11A5,5 0 1 1 130.46,80.11Z" style="fill:#FF0000" />
<path d="M325.97,111.71A5,5 0 1 1 315.97,111.71A5,5 0 1 1 325.97,111.71Z" style="fill:#FF0000" />
<path d="M521.47,171.81A5,5 0 1 1 511.47,171.81A5,5 0 1 1 521.47,171.81Z" style="fill:#FF0000" />
<path d="M716.97,208.62A5,5 0 1 1 706.97,208.62A5,5 0 1 1 716.97,208.62Z" style="fill:#FF0000" />
<path d="M912.48,218.21A5,5 0 1 1 902.48,218.21A5,5 0 1 1 912.48,218.21Z" style="fill:#FF0000" />
<path d="M1108,263.68A5,5 0 1 1 1098,263.68A5,5 0 1 1 1108,263.68Z" style="fill:#FF0000" />
<path d="M1303.5,287.38A5,5 0 1 1 1293.5,287.38A5,5 0 1 1 1303.5,287.38Z" style="fill:#FF0000" />
<path d="M1499,324.18A5,5 0 1 1 1489,324.18A5,5 0 1 1 1499,324.18Z" style="fill:#FF0000" />
<path d="M1694.5,369.01A5,5 0 1 1 1684.5,369.01A5,5 0 1 1 1694.5,369.01Z" style="fill:#FF0000" />
<path d="M1890,445.71A5,5 0 1 1 1880,445.71A5,5 0 1 1 1890,445.71Z" style="fill:#FF0000" />
<path d="M125.46,104.87L320.97,162.48L516.47,223.56L711.97,285.92L907.48,386.49L1103,568.91L1298.5,629.77L1494,764.65L1689.5,836.26L1885,934.68" style="fill:none;stroke:#0000FF;stroke-width:4" />
<path d="M130.46,104.87A5,5 0 1 1 120.46,104.87A5,5 0 1 1 130.46,104.87Z" style="fill:#0000FF" />
<path d="M325.97,162.48A5,5 0 1 1 315.97,162.48A5,5 0 1 1 325.97,162.48Z" style="fill:#0000FF" />
<path d="M521.47,223.56A5,5 0 1 1 511.47,223.56A5,5 0 1 1 521.47,223.56Z" style="fill:#0000FF" />
<path d="M716.97,285.92A5,5 0 1 1 706.97,285.92A5,5 0 1 1 716.97,285.92Z" style="fill:#0000FF" />
<path d="M912.48,386.49A5,5 0 1 1 902.48,386.49A5,5 0 1 1 912.48,386.49Z" style="fill:#0000FF" />
<path d="M1108,568.91A5,5 0 1 1 1098,568.91A5,5 0 1 1 1108,568.91Z" style="fill:#0000FF" />
<path d="M1303.5,629.77A5,5 0 1 1 1293.5,629.77A5,5 0 1 1 1303.5,629.77Z" style="fill:#0000FF" />
<path d="M1499,764.65A5,5 0 1 1 1489,764.65A5,5 0 1 1 1499,764.65Z" style="fill:#0000FF" />
<path d="M1694.5,836.26A5,5 0 1 1 1684.5,836.26A5,5 0 1 1 1694.5,836.26Z" style="fill:#0000FF" />
<path d="M1890,934.68A5,5 0 1 1 1880,934.68A5,5 0 1 1 1890,934.68Z" style="fill:#0000FF" />
<path d="M125.46,89.082L320.97,127.29L516.47,178.35L711.97,240.5L907.48,330.46L1103,368.93L1298.5,419.82L1494,559.07L1689.5,688.42L1885,714.23" style="fill:none;stroke:#00FF00;stroke-width:4" />
<path d="M130.46,89.082A5,5 0 1 1 120.46,89.082A5,5 0 1 1 130.46,89.082Z" style="fill:#00FF00" />
<path d="M325.97,127.29A5,5 0 1 1 315.97,127.29A5,5 0 1 1 325.97,127.29Z" style="fill:#00FF00" />
<path d="M521.47,178.35A5,5 0 1 1 511.47,178.35A5,5 0 1 1 521.47,178.35Z" style="fill:#00FF00" />
<path d="M716.97,240.5A5,5 0 1 1 706.97,240.5A5,5 0 1 1 716.97,240.5Z" style="fill:#00FF00" />
<path d="M912.48,330.46A5,5 0 1 1 902.48,330.46A5,5 0 1 1 912.48,330.46Z" style="fill:#00FF00" />
<path d="M1108,368.93A5,5 0 1 1 1098,368.93A5,5 0 1 1 1108,368.93Z" style="fill:#00FF00" />
<path d="M1303.5,419.82A5,5 0 1 1 1293.5,419.82A5,5 0 1 1 1303.5,419.82Z" style="fill:#00FF00" />
<path d="M1499,559.07A5,5 0 1 1 1489,559.07A5,5 0 1 1 1499,559.07Z" style="fill:#00FF00" />
<path d="M1694.5,688.42A5,5 0 1 1 1684.5,688.42A5,5 0 1 1 1694.5,688.42Z" style="fill:#00FF00" />
<path d="M1890,714.23A5,5 0 1 1 1880,714.23A5,5 0 1 1 1890,714.23Z" style="fill:#00FF00" />
<path d="M125.46,88.665L320.97,137.92L516.47,216.05L711.97,239.37L907.48,295.77L1103,407.3L1298.5,426.02L1494,482.34L1689.5,500.51L1885,581.83" style="fill:none;stroke:#FF8000;stroke-width:4" />
<path d="M130.46,88.665A5,5 0 1 1 120.46,88.665A5,5 0 1 1 130.46,88.665Z" style="fill:#FF8000" />
<path d="M325.97,137.92A5,5 0 1 1 315.97,137.92A5,5 0 1 1 325.97,137.92Z" style="fill:#FF8000" />
<path d="M521.47,216.05A5,5 0 1 1 511.47,216.05A5,5 0 1 1 521.47,216.05Z" style="fill:#FF8000" />
<path d="M716.97,239.37A5,5 0 1 1 706.97,239.37A5,5 0 1 1 716.97,239.37Z" style="fill:#FF8000" />
<path d="M912.48,295.77A5,5 0 1 1 902.48,295.77A5,5 0 1 1 912.48,295.77Z" style="fill:#FF8000" />
<path d="M1108,407.3A5,5 0 1 1 1098,407.3A5,5 0 1 1 1108,407.3Z" style="fill:#FF8000" />
<path d="M1303.5,426.02A5,5 0 1 1 1293.5,426.02A5,5 0 1 1 1303.5,426.02Z" style="fill:#FF8000" />
<path d="M1499,482.34A5,5 0 1 1 1489,482.34A5,5 0 1 1 1499,482.34Z" style="fill:#FF8000" />
<path d="M1694.5,500.51A5,5 0 1 1 1684.5,500.51A5,5 0 1 1 1694.5,500.51Z" style="fill:#FF8000" />
<path d="M1890,581.83A5,5 0 1 1 1880,581.83A5,5 0 1 1 1890,581.83Z" style="fill:#FF8000" />
<path d="M1900,146.4L1920,146.4" style="fill:none;stroke:#FF0000;stroke-width:4" />
<path d="M1915,146.4A5,5 0 1 1 1905,146.4A5,5 0 1 1 1915,146.4Z" style="fill:#FF0000" />
<text x="1669.4" y="-141.42" transform="scale(1, -1)"
	style="font-family:Liberation Serif;font-variant:normal;font-weight:normal;font-style:normal;font-size:24px">preallocated std::vector</text>
<path d="M1900,126.03L1920,126.03" style="fill:none;stroke:#0000FF;stroke-width:4" />
<path d="M1915,126.03A5,5 0 1 1 1905,126.03A5,5 0 1 1 1915,126.03Z" style="fill:#0000FF" />
<text x="1823.3" y="-121.05" transform="scale(1, -1)"
	style="font-family:Liberation Serif;font-variant:normal;font-weight:normal;font-style:normal;font-size:24px">std::list</text>
<path d="M1900,105.66L1920,105.66" style="fill:none;stroke:#00FF00;stroke-width:4" />
<path d="M1915,105.66A5,5 0 1 1 1905,105.66A5,5 0 1 1 1915,105.66Z" style="fill:#00FF00" />
<text x="1795.4" y="-100.69" transform="scale(1, -1)"
	style="font-family:Liberation Serif;font-variant:normal;font-weight:normal;font-style:normal;font-size:24px">std::deque</text>
<path d="M1900,85.294L1920,85.294" style="fill:none;stroke:#FF8000;stroke-width:4" />
<path d="M1915,85.294A5,5 0 1 1 1905,85.294A5,5 0 1 1 1915,85.294Z" style="fill:#FF8000" />
<text x="1792.7" y="-80.319" transform="scale(1, -1)"
	style="font-family:Liberation Serif;font-variant:normal;font-weight:normal;font-style:normal;font-size:24px">std::vector</text>
</g>
</svg>
