<?xml version="1.0"?>
<!-- Generated by SVGo and Plotinum VG -->
<svg width="1920pt" height="1080pt" viewBox="0 0 1920 1080"
	xmlns="http://www.w3.org/2000/svg"
	xmlns:xlink="http://www.w3.org/1999/xlink">
<g transform="scale(1, -1) translate(0, -1080)">
<path d="M0,0L1920,0L1920,1080L0,1080Z" style="fill:#FFFFFF" />
<text x="857.25" y="-1040.9" transform="scale(1, -1)"
	style="font-family:Liberation Serif;font-variant:normal;font-weight:normal;font-style:normal;font-size:50px">push-back</text>
<text x="887.77" y="-9.7559" transform="scale(1, -1)"
	style="font-family:Liberation Serif;font-variant:normal;font-weight:normal;font-style:normal;font-size:30px">Number of elements</text>
<text x="105.46" y="-39.727" transform="scale(1, -1)"
	style="font-family:Liberation Serif;font-variant:normal;font-weight:normal;font-style:normal;font-size:20px">100000</text>
<text x="299.86" y="-39.727" transform="scale(1, -1)"
	style="font-family:Liberation Serif;font-variant:normal;font-weight:normal;font-style:normal;font-size:20px">200000</text>
<text x="494.25" y="-39.727" transform="scale(1, -1)"
	style="font-family:Liberation Serif;font-variant:normal;font-weight:normal;font-style:normal;font-size:20px">300000</text>
<text x="688.64" y="-39.727" transform="scale(1, -1)"
	style="font-family:Liberation Serif;font-variant:normal;font-weight:normal;font-style:normal;font-size:20px">400000</text>
<text x="883.03" y="-39.727" transform="scale(1, -1)"
	style="font-family:Liberation Serif;font-variant:normal;font-weight:normal;font-style:normal;font-size:20px">500000</text>
<text x="1077.4" y="-39.727" transform="scale(1, -1)"
	style="font-family:Liberation Serif;font-variant:normal;font-weight:normal;font-style:normal;font-size:20px">600000</text>
<text x="1271.8" y="-39.727" transform="scale(1, -1)"
	style="font-family:Liberation Serif;font-variant:normal;font-weight:normal;font-style:normal;font-size:20px">700000</text>
<text x="1466.2" y="-39.727" transform="scale(1, -1)"
	style="font-family:Liberation Serif;font-variant:normal;font-weight:normal;font-style:normal;font-size:20px">800000</text>
<text x="1660.6" y="-39.727" transform="scale(1, -1)"
	style="font-family:Liberation Serif;font-variant:normal;font-weight:normal;font-style:normal;font-size:20px">900000</text>
<text x="1850" y="-39.727" transform="scale(1, -1)"
	style="font-family:Liberation Serif;font-variant:normal;font-weight:normal;font-style:normal;font-size:20px">1000000</text>
<path d="M135.46,55.371L135.46,63.371" style="fill:none;stroke:#000000;stroke-width:0.5" />
<path d="M329.86,55.371L329.86,63.371" style="fill:none;stroke:#000000;stroke-width:0.5" />
<path d="M524.25,55.371L524.25,63.371" style="fill:none;stroke:#000000;stroke-width:0.5" />
<path d="M718.64,55.371L718.64,63.371" style="fill:none;stroke:#000000;stroke-width:0.5" />
<path d="M913.03,55.371L913.03,63.371" style="fill:none;stroke:#000000;stroke-width:0.5" />
<path d="M1107.4,55.371L1107.4,63.371" style="fill:none;stroke:#000000;stroke-width:0.5" />
<path d="M1301.8,55.371L1301.8,63.371" style="fill:none;stroke:#000000;stroke-width:0.5" />
<path d="M1496.2,55.371L1496.2,63.371" style="fill:none;stroke:#000000;stroke-width:0.5" />
<path d="M1690.6,55.371L1690.6,63.371" style="fill:none;stroke:#000000;stroke-width:0.5" />
<path d="M1885,55.371L1885,63.371" style="fill:none;stroke:#000000;stroke-width:0.5" />
<path d="M135.46,63.371L1885,63.371" style="fill:none;stroke:#000000;stroke-width:0.5" />
<g transform="rotate(90)">
<text x="538.49" y="23.467" transform="scale(1, -1)"
	style="font-family:Liberation Serif;font-variant:normal;font-weight:normal;font-style:normal;font-size:30px">μs</text>
</g>
<text x="49.712" y="-215.18" transform="scale(1, -1)"
	style="font-family:Liberation Serif;font-variant:normal;font-weight:normal;font-style:normal;font-size:20px">300000</text>
<text x="49.712" y="-559.38" transform="scale(1, -1)"
	style="font-family:Liberation Serif;font-variant:normal;font-weight:normal;font-style:normal;font-size:20px">900000</text>
<text x="39.712" y="-903.57" transform="scale(1, -1)"
	style="font-family:Liberation Serif;font-variant:normal;font-weight:normal;font-style:normal;font-size:20px">1500000</text>
<path d="M114.71,219.75L122.71,219.75" style="fill:none;stroke:#000000;stroke-width:0.5" />
<path d="M114.71,563.95L122.71,563.95" style="fill:none;stroke:#000000;stroke-width:0.5" />
<path d="M114.71,908.15L122.71,908.15" style="fill:none;stroke:#000000;stroke-width:0.5" />
<path d="M118.71,391.85L122.71,391.85" style="fill:none;stroke:#000000;stroke-width:0.5" />
<path d="M118.71,736.05L122.71,736.05" style="fill:none;stroke:#000000;stroke-width:0.5" />
<path d="M122.71,80.11L122.71,1024.6" style="fill:none;stroke:#000000;stroke-width:0.5" />
<path d="M135.46,80.11L135.46,1024.6" style="fill:none;stroke:#808080;stroke-width:0.25" />
<path d="M329.86,80.11L329.86,1024.6" style="fill:none;stroke:#808080;stroke-width:0.25" />
<path d="M524.25,80.11L524.25,1024.6" style="fill:none;stroke:#808080;stroke-width:0.25" />
<path d="M718.64,80.11L718.64,1024.6" style="fill:none;stroke:#808080;stroke-width:0.25" />
<path d="M913.03,80.11L913.03,1024.6" style="fill:none;stroke:#808080;stroke-width:0.25" />
<path d="M1107.4,80.11L1107.4,1024.6" style="fill:none;stroke:#808080;stroke-width:0.25" />
<path d="M1301.8,80.11L1301.8,1024.6" style="fill:none;stroke:#808080;stroke-width:0.25" />
<path d="M1496.2,80.11L1496.2,1024.6" style="fill:none;stroke:#808080;stroke-width:0.25" />
<path d="M1690.6,80.11L1690.6,1024.6" style="fill:none;stroke:#808080;stroke-width:0.25" />
<path d="M1885,80.11L1885,1024.6" style="fill:none;stroke:#808080;stroke-width:0.25" />
<path d="M135.46,219.75L1885,219.75" style="fill:none;stroke:#808080;stroke-width:0.25" />
<path d="M135.46,563.95L1885,563.95" style="fill:none;stroke:#808080;stroke-width:0.25" />
<path d="M135.46,908.15L1885,908.15" style="fill:none;stroke:#808080;stroke-width:0.25" />
<path d="M135.46,136.34L329.86,209.38L524.25,309.49L718.64,320.63L913.03,376.72L1107.4,810.71L1301.8,782.55L1496.2,651.18L1690.6,884.96L1885,907.44" style="fill:none;stroke:#FF0000;stroke-width:4" />
<path d="M140.46,136.34A5,5 0 1 1 130.46,136.34A5,5 0 1 1 140.46,136.34Z" style="fill:#FF0000" />
<path d="M334.86,209.38A5,5 0 1 1 324.86,209.38A5,5 0 1 1 334.86,209.38Z" style="fill:#FF0000" />
<path d="M529.25,309.49A5,5 0 1 1 519.25,309.49A5,5 0 1 1 529.25,309.49Z" style="fill:#FF0000" />
<path d="M723.64,320.63A5,5 0 1 1 713.64,320.63A5,5 0 1 1 723.64,320.63Z" style="fill:#FF0000" />
<path d="M918.03,376.72A5,5 0 1 1 908.03,376.72A5,5 0 1 1 918.03,376.72Z" style="fill:#FF0000" />
<path d="M1112.4,810.71A5,5 0 1 1 1102.4,810.71A5,5 0 1 1 1112.4,810.71Z" style="fill:#FF0000" />
<path d="M1306.8,782.55A5,5 0 1 1 1296.8,782.55A5,5 0 1 1 1306.8,782.55Z" style="fill:#FF0000" />
<path d="M1501.2,651.18A5,5 0 1 1 1491.2,651.18A5,5 0 1 1 1501.2,651.18Z" style="fill:#FF0000" />
<path d="M1695.6,884.96A5,5 0 1 1 1685.6,884.96A5,5 0 1 1 1695.6,884.96Z" style="fill:#FF0000" />
<path d="M1890,907.44A5,5 0 1 1 1880,907.44A5,5 0 1 1 1890,907.44Z" style="fill:#FF0000" />
<path d="M135.46,80.11L329.86,99.103L524.25,132.16L718.64,143.65L913.03,218.52L1107.4,238.75L1301.8,237.35L1496.2,312.64L1690.6,289.27L1885,381.29" style="fill:none;stroke:#0000FF;stroke-width:4" />
<path d="M140.46,80.11A5,5 0 1 1 130.46,80.11A5,5 0 1 1 140.46,80.11Z" style="fill:#0000FF" />
<path d="M334.86,99.103A5,5 0 1 1 324.86,99.103A5,5 0 1 1 334.86,99.103Z" style="fill:#0000FF" />
<path d="M529.25,132.16A5,5 0 1 1 519.25,132.16A5,5 0 1 1 529.25,132.16Z" style="fill:#0000FF" />
<path d="M723.64,143.65A5,5 0 1 1 713.64,143.65A5,5 0 1 1 723.64,143.65Z" style="fill:#0000FF" />
<path d="M918.03,218.52A5,5 0 1 1 908.03,218.52A5,5 0 1 1 918.03,218.52Z" style="fill:#0000FF" />
<path d="M1112.4,238.75A5,5 0 1 1 1102.4,238.75A5,5 0 1 1 1112.4,238.75Z" style="fill:#0000FF" />
<path d="M1306.8,237.35A5,5 0 1 1 1296.8,237.35A5,5 0 1 1 1306.8,237.35Z" style="fill:#0000FF" />
<path d="M1501.2,312.64A5,5 0 1 1 1491.2,312.64A5,5 0 1 1 1501.2,312.64Z" style="fill:#0000FF" />
<path d="M1695.6,289.27A5,5 0 1 1 1685.6,289.27A5,5 0 1 1 1695.6,289.27Z" style="fill:#0000FF" />
<path d="M1890,381.29A5,5 0 1 1 1880,381.29A5,5 0 1 1 1890,381.29Z" style="fill:#0000FF" />
<path d="M135.46,107.29L329.86,166.36L524.25,235.51L718.64,314.41L913.03,377.25L1107.4,465.18L1301.8,678.16L1496.2,599.66L1690.6,920.43L1885,935.81" style="fill:none;stroke:#00FF00;stroke-width:4" />
<path d="M140.46,107.29A5,5 0 1 1 130.46,107.29A5,5 0 1 1 140.46,107.29Z" style="fill:#00FF00" />
<path d="M334.86,166.36A5,5 0 1 1 324.86,166.36A5,5 0 1 1 334.86,166.36Z" style="fill:#00FF00" />
<path d="M529.25,235.51A5,5 0 1 1 519.25,235.51A5,5 0 1 1 529.25,235.51Z" style="fill:#00FF00" />
<path d="M723.64,314.41A5,5 0 1 1 713.64,314.41A5,5 0 1 1 723.64,314.41Z" style="fill:#00FF00" />
<path d="M918.03,377.25A5,5 0 1 1 908.03,377.25A5,5 0 1 1 918.03,377.25Z" style="fill:#00FF00" />
<path d="M1112.4,465.18A5,5 0 1 1 1102.4,465.18A5,5 0 1 1 1112.4,465.18Z" style="fill:#00FF00" />
<path d="M1306.8,678.16A5,5 0 1 1 1296.8,678.16A5,5 0 1 1 1306.8,678.16Z" style="fill:#00FF00" />
<path d="M1501.2,599.66A5,5 0 1 1 1491.2,599.66A5,5 0 1 1 1501.2,599.66Z" style="fill:#00FF00" />
<path d="M1695.6,920.43A5,5 0 1 1 1685.6,920.43A5,5 0 1 1 1695.6,920.43Z" style="fill:#00FF00" />
<path d="M1890,935.81A5,5 0 1 1 1880,935.81A5,5 0 1 1 1890,935.81Z" style="fill:#00FF00" />
<path d="M135.46,115.84L329.86,190.44L524.25,287.9L718.64,384.65L913.03,499.36L1107.4,520.29L1301.8,730.8L1496.2,597.4L1690.6,780.35L1885,860.69" style="fill:none;stroke:#FF8000;stroke-width:4" />
<path d="M140.46,115.84A5,5 0 1 1 130.46,115.84A5,5 0 1 1 140.46,115.84Z" style="fill:#FF8000" />
<path d="M334.86,190.44A5,5 0 1 1 324.86,190.44A5,5 0 1 1 334.86,190.44Z" style="fill:#FF8000" />
<path d="M529.25,287.9A5,5 0 1 1 519.25,287.9A5,5 0 1 1 529.25,287.9Z" style="fill:#FF8000" />
<path d="M723.64,384.65A5,5 0 1 1 713.64,384.65A5,5 0 1 1 723.64,384.65Z" style="fill:#FF8000" />
<path d="M918.03,499.36A5,5 0 1 1 908.03,499.36A5,5 0 1 1 918.03,499.36Z" style="fill:#FF8000" />
<path d="M1112.4,520.29A5,5 0 1 1 1102.4,520.29A5,5 0 1 1 1112.4,520.29Z" style="fill:#FF8000" />
<path d="M1306.8,730.8A5,5 0 1 1 1296.8,730.8A5,5 0 1 1 1306.8,730.8Z" style="fill:#FF8000" />
<path d="M1501.2,597.4A5,5 0 1 1 1491.2,597.4A5,5 0 1 1 1501.2,597.4Z" style="fill:#FF8000" />
<path d="M1695.6,780.35A5,5 0 1 1 1685.6,780.35A5,5 0 1 1 1695.6,780.35Z" style="fill:#FF8000" />
<path d="M1890,860.69A5,5 0 1 1 1880,860.69A5,5 0 1 1 1890,860.69Z" style="fill:#FF8000" />
<path d="M1900,146.4L1920,146.4" style="fill:none;stroke:#FF0000;stroke-width:4" />
<path d="M1915,146.4A5,5 0 1 1 1905,146.4A5,5 0 1 1 1915,146.4Z" style="fill:#FF0000" />
<text x="1792.7" y="-141.42" transform="scale(1, -1)"
	style="font-family:Liberation Serif;font-variant:normal;font-weight:normal;font-style:normal;font-size:24px">std::vector</text>
<path d="M1900,126.03L1920,126.03" style="fill:none;stroke:#0000FF;stroke-width:4" />
<path d="M1915,126.03A5,5 0 1 1 1905,126.03A5,5 0 1 1 1915,126.03Z" style="fill:#0000FF" />
<text x="1669.4" y="-121.05" transform="scale(1, -1)"
	style="font-family:Liberation Serif;font-variant:normal;font-weight:normal;font-style:normal;font-size:24px">preallocated std::vector</text>
<path d="M1900,105.66L1920,105.66" style="fill:none;stroke:#00FF00;stroke-width:4" />
<path d="M1915,105.66A5,5 0 1 1 1905,105.66A5,5 0 1 1 1915,105.66Z" style="fill:#00FF00" />
<text x="1823.3" y="-100.69" transform="scale(1, -1)"
	style="font-family:Liberation Serif;font-variant:normal;font-weight:normal;font-style:normal;font-size:24px">std::list</text>
<path d="M1900,85.294L1920,85.294" style="fill:none;stroke:#FF8000;stroke-width:4" />
<path d="M1915,85.294A5,5 0 1 1 1905,85.294A5,5 0 1 1 1915,85.294Z" style="fill:#FF8000" />
<text x="1795.4" y="-80.319" transform="scale(1, -1)"
	style="font-family:Liberation Serif;font-variant:normal;font-weight:normal;font-style:normal;font-size:24px">std::deque</text>
</g>
</svg>
