<?xml version="1.0"?>
<!-- Generated by SVGo and Plotinum VG -->
<svg width="1920pt" height="1080pt" viewBox="0 0 1920 1080"
	xmlns="http://www.w3.org/2000/svg"
	xmlns:xlink="http://www.w3.org/1999/xlink">
<g transform="scale(1, -1) translate(0, -1080)">
<path d="M0,0L1920,0L1920,1080L0,1080Z" style="fill:#FFFFFF" />
<text x="857.25" y="-1040.9" transform="scale(1, -1)"
	style="font-family:Liberation Serif;font-variant:normal;font-weight:normal;font-style:normal;font-size:50px">push-back</text>
<text x="882.77" y="-9.7559" transform="scale(1, -1)"
	style="font-family:Liberation Serif;font-variant:normal;font-weight:normal;font-style:normal;font-size:30px">Number of elements</text>
<text x="95.462" y="-39.727" transform="scale(1, -1)"
	style="font-family:Liberation Serif;font-variant:normal;font-weight:normal;font-style:normal;font-size:20px">100000</text>
<text x="290.97" y="-39.727" transform="scale(1, -1)"
	style="font-family:Liberation Serif;font-variant:normal;font-weight:normal;font-style:normal;font-size:20px">200000</text>
<text x="486.47" y="-39.727" transform="scale(1, -1)"
	style="font-family:Liberation Serif;font-variant:normal;font-weight:normal;font-style:normal;font-size:20px">300000</text>
<text x="681.97" y="-39.727" transform="scale(1, -1)"
	style="font-family:Liberation Serif;font-variant:normal;font-weight:normal;font-style:normal;font-size:20px">400000</text>
<text x="877.48" y="-39.727" transform="scale(1, -1)"
	style="font-family:Liberation Serif;font-variant:normal;font-weight:normal;font-style:normal;font-size:20px">500000</text>
<text x="1073" y="-39.727" transform="scale(1, -1)"
	style="font-family:Liberation Serif;font-variant:normal;font-weight:normal;font-style:normal;font-size:20px">600000</text>
<text x="1268.5" y="-39.727" transform="scale(1, -1)"
	style="font-family:Liberation Serif;font-variant:normal;font-weight:normal;font-style:normal;font-size:20px">700000</text>
<text x="1464" y="-39.727" transform="scale(1, -1)"
	style="font-family:Liberation Serif;font-variant:normal;font-weight:normal;font-style:normal;font-size:20px">800000</text>
<text x="1659.5" y="-39.727" transform="scale(1, -1)"
	style="font-family:Liberation Serif;font-variant:normal;font-weight:normal;font-style:normal;font-size:20px">900000</text>
<text x="1850" y="-39.727" transform="scale(1, -1)"
	style="font-family:Liberation Serif;font-variant:normal;font-weight:normal;font-style:normal;font-size:20px">1000000</text>
<path d="M125.46,55.371L125.46,63.371" style="fill:none;stroke:#000000;stroke-width:0.5" />
<path d="M320.97,55.371L320.97,63.371" style="fill:none;stroke:#000000;stroke-width:0.5" />
<path d="M516.47,55.371L516.47,63.371" style="fill:none;stroke:#000000;stroke-width:0.5" />
<path d="M711.97,55.371L711.97,63.371" style="fill:none;stroke:#000000;stroke-width:0.5" />
<path d="M907.48,55.371L907.48,63.371" style="fill:none;stroke:#000000;stroke-width:0.5" />
<path d="M1103,55.371L1103,63.371" style="fill:none;stroke:#000000;stroke-width:0.5" />
<path d="M1298.5,55.371L1298.5,63.371" style="fill:none;stroke:#000000;stroke-width:0.5" />
<path d="M1494,55.371L1494,63.371" style="fill:none;stroke:#000000;stroke-width:0.5" />
<path d="M1689.5,55.371L1689.5,63.371" style="fill:none;stroke:#000000;stroke-width:0.5" />
<path d="M1885,55.371L1885,63.371" style="fill:none;stroke:#000000;stroke-width:0.5" />
<path d="M125.46,63.371L1885,63.371" style="fill:none;stroke:#000000;stroke-width:0.5" />
<g transform="rotate(90)">
<text x="538.49" y="23.467" transform="scale(1, -1)"
	style="font-family:Liberation Serif;font-variant:normal;font-weight:normal;font-style:normal;font-size:30px">μs</text>
</g>
<text x="49.712" y="-212.8" transform="scale(1, -1)"
	style="font-family:Liberation Serif;font-variant:normal;font-weight:normal;font-style:normal;font-size:20px">20000</text>
<text x="49.712" y="-571.91" transform="scale(1, -1)"
	style="font-family:Liberation Serif;font-variant:normal;font-weight:normal;font-style:normal;font-size:20px">60000</text>
<text x="39.712" y="-931.02" transform="scale(1, -1)"
	style="font-family:Liberation Serif;font-variant:normal;font-weight:normal;font-style:normal;font-size:20px">100000</text>
<path d="M104.71,217.37L112.71,217.37" style="fill:none;stroke:#000000;stroke-width:0.5" />
<path d="M104.71,576.48L112.71,576.48" style="fill:none;stroke:#000000;stroke-width:0.5" />
<path d="M104.71,935.59L112.71,935.59" style="fill:none;stroke:#000000;stroke-width:0.5" />
<path d="M108.71,127.59L112.71,127.59" style="fill:none;stroke:#000000;stroke-width:0.5" />
<path d="M108.71,307.15L112.71,307.15" style="fill:none;stroke:#000000;stroke-width:0.5" />
<path d="M108.71,396.93L112.71,396.93" style="fill:none;stroke:#000000;stroke-width:0.5" />
<path d="M108.71,486.7L112.71,486.7" style="fill:none;stroke:#000000;stroke-width:0.5" />
<path d="M108.71,666.26L112.71,666.26" style="fill:none;stroke:#000000;stroke-width:0.5" />
<path d="M108.71,756.04L112.71,756.04" style="fill:none;stroke:#000000;stroke-width:0.5" />
<path d="M108.71,845.81L112.71,845.81" style="fill:none;stroke:#000000;stroke-width:0.5" />
<path d="M112.71,80.11L112.71,1024.6" style="fill:none;stroke:#000000;stroke-width:0.5" />
<path d="M125.46,80.11L125.46,1024.6" style="fill:none;stroke:#808080;stroke-width:0.25" />
<path d="M320.97,80.11L320.97,1024.6" style="fill:none;stroke:#808080;stroke-width:0.25" />
<path d="M516.47,80.11L516.47,1024.6" style="fill:none;stroke:#808080;stroke-width:0.25" />
<path d="M711.97,80.11L711.97,1024.6" style="fill:none;stroke:#808080;stroke-width:0.25" />
<path d="M907.48,80.11L907.48,1024.6" style="fill:none;stroke:#808080;stroke-width:0.25" />
<path d="M1103,80.11L1103,1024.6" style="fill:none;stroke:#808080;stroke-width:0.25" />
<path d="M1298.5,80.11L1298.5,1024.6" style="fill:none;stroke:#808080;stroke-width:0.25" />
<path d="M1494,80.11L1494,1024.6" style="fill:none;stroke:#808080;stroke-width:0.25" />
<path d="M1689.5,80.11L1689.5,1024.6" style="fill:none;stroke:#808080;stroke-width:0.25" />
<path d="M1885,80.11L1885,1024.6" style="fill:none;stroke:#808080;stroke-width:0.25" />
<path d="M125.46,217.37L1885,217.37" style="fill:none;stroke:#808080;stroke-width:0.25" />
<path d="M125.46,576.48L1885,576.48" style="fill:none;stroke:#808080;stroke-width:0.25" />
<path d="M125.46,935.59L1885,935.59" style="fill:none;stroke:#808080;stroke-width:0.25" />
<path d="M125.46,114.32L320.97,170.41L516.47,241.45L711.97,291.64L907.48,389.69L1103,533.95L1298.5,666.62L1494,852.97L1689.5,886.46L1885,934.92" style="fill:none;stroke:#FF0000;stroke-width:4" />
<path d="M130.46,114.32A5,5 0 1 1 120.46,114.32A5,5 0 1 1 130.46,114.32Z" style="fill:#FF0000" />
<path d="M325.97,170.41A5,5 0 1 1 315.97,170.41A5,5 0 1 1 325.97,170.41Z" style="fill:#FF0000" />
<path d="M521.47,241.45A5,5 0 1 1 511.47,241.45A5,5 0 1 1 521.47,241.45Z" style="fill:#FF0000" />
<path d="M716.97,291.64A5,5 0 1 1 706.97,291.64A5,5 0 1 1 716.97,291.64Z" style="fill:#FF0000" />
<path d="M912.48,389.69A5,5 0 1 1 902.48,389.69A5,5 0 1 1 912.48,389.69Z" style="fill:#FF0000" />
<path d="M1108,533.95A5,5 0 1 1 1098,533.95A5,5 0 1 1 1108,533.95Z" style="fill:#FF0000" />
<path d="M1303.5,666.62A5,5 0 1 1 1293.5,666.62A5,5 0 1 1 1303.5,666.62Z" style="fill:#FF0000" />
<path d="M1499,852.97A5,5 0 1 1 1489,852.97A5,5 0 1 1 1499,852.97Z" style="fill:#FF0000" />
<path d="M1694.5,886.46A5,5 0 1 1 1684.5,886.46A5,5 0 1 1 1694.5,886.46Z" style="fill:#FF0000" />
<path d="M1890,934.92A5,5 0 1 1 1880,934.92A5,5 0 1 1 1890,934.92Z" style="fill:#FF0000" />
<path d="M125.46,91.629L320.97,141.58L516.47,185.72L711.97,233.52L907.48,276.45L1103,335.38L1298.5,384.47L1494,591.86L1689.5,731.67L1885,791.62" style="fill:none;stroke:#0000FF;stroke-width:4" />
<path d="M130.46,91.629A5,5 0 1 1 120.46,91.629A5,5 0 1 1 130.46,91.629Z" style="fill:#0000FF" />
<path d="M325.97,141.58A5,5 0 1 1 315.97,141.58A5,5 0 1 1 325.97,141.58Z" style="fill:#0000FF" />
<path d="M521.47,185.72A5,5 0 1 1 511.47,185.72A5,5 0 1 1 521.47,185.72Z" style="fill:#0000FF" />
<path d="M716.97,233.52A5,5 0 1 1 706.97,233.52A5,5 0 1 1 716.97,233.52Z" style="fill:#0000FF" />
<path d="M912.48,276.45A5,5 0 1 1 902.48,276.45A5,5 0 1 1 912.48,276.45Z" style="fill:#0000FF" />
<path d="M1108,335.38A5,5 0 1 1 1098,335.38A5,5 0 1 1 1108,335.38Z" style="fill:#0000FF" />
<path d="M1303.5,384.47A5,5 0 1 1 1293.5,384.47A5,5 0 1 1 1303.5,384.47Z" style="fill:#0000FF" />
<path d="M1499,591.86A5,5 0 1 1 1489,591.86A5,5 0 1 1 1499,591.86Z" style="fill:#0000FF" />
<path d="M1694.5,731.67A5,5 0 1 1 1684.5,731.67A5,5 0 1 1 1694.5,731.67Z" style="fill:#0000FF" />
<path d="M1890,791.62A5,5 0 1 1 1880,791.62A5,5 0 1 1 1890,791.62Z" style="fill:#0000FF" />
<path d="M125.46,86.574L320.97,140.34L516.47,229.71L711.97,264.1L907.48,324.23L1103,404.02L1298.5,434.61L1494,467.1L1689.5,506.66L1885,582.16" style="fill:none;stroke:#00FF00;stroke-width:4" />
<path d="M130.46,86.574A5,5 0 1 1 120.46,86.574A5,5 0 1 1 130.46,86.574Z" style="fill:#00FF00" />
<path d="M325.97,140.34A5,5 0 1 1 315.97,140.34A5,5 0 1 1 325.97,140.34Z" style="fill:#00FF00" />
<path d="M521.47,229.71A5,5 0 1 1 511.47,229.71A5,5 0 1 1 521.47,229.71Z" style="fill:#00FF00" />
<path d="M716.97,264.1A5,5 0 1 1 706.97,264.1A5,5 0 1 1 716.97,264.1Z" style="fill:#00FF00" />
<path d="M912.48,324.23A5,5 0 1 1 902.48,324.23A5,5 0 1 1 912.48,324.23Z" style="fill:#00FF00" />
<path d="M1108,404.02A5,5 0 1 1 1098,404.02A5,5 0 1 1 1108,404.02Z" style="fill:#00FF00" />
<path d="M1303.5,434.61A5,5 0 1 1 1293.5,434.61A5,5 0 1 1 1303.5,434.61Z" style="fill:#00FF00" />
<path d="M1499,467.1A5,5 0 1 1 1489,467.1A5,5 0 1 1 1499,467.1Z" style="fill:#00FF00" />
<path d="M1694.5,506.66A5,5 0 1 1 1684.5,506.66A5,5 0 1 1 1694.5,506.66Z" style="fill:#00FF00" />
<path d="M1890,582.16A5,5 0 1 1 1880,582.16A5,5 0 1 1 1890,582.16Z" style="fill:#00FF00" />
<path d="M125.46,80.11L320.97,101.29L516.47,150.26L711.97,183.6L907.48,226.43L1103,269.9L1298.5,301.49L1494,329.74L1689.5,368.33L1885,451.06" style="fill:none;stroke:#FF8000;stroke-width:4" />
<path d="M130.46,80.11A5,5 0 1 1 120.46,80.11A5,5 0 1 1 130.46,80.11Z" style="fill:#FF8000" />
<path d="M325.97,101.29A5,5 0 1 1 315.97,101.29A5,5 0 1 1 325.97,101.29Z" style="fill:#FF8000" />
<path d="M521.47,150.26A5,5 0 1 1 511.47,150.26A5,5 0 1 1 521.47,150.26Z" style="fill:#FF8000" />
<path d="M716.97,183.6A5,5 0 1 1 706.97,183.6A5,5 0 1 1 716.97,183.6Z" style="fill:#FF8000" />
<path d="M912.48,226.43A5,5 0 1 1 902.48,226.43A5,5 0 1 1 912.48,226.43Z" style="fill:#FF8000" />
<path d="M1108,269.9A5,5 0 1 1 1098,269.9A5,5 0 1 1 1108,269.9Z" style="fill:#FF8000" />
<path d="M1303.5,301.49A5,5 0 1 1 1293.5,301.49A5,5 0 1 1 1303.5,301.49Z" style="fill:#FF8000" />
<path d="M1499,329.74A5,5 0 1 1 1489,329.74A5,5 0 1 1 1499,329.74Z" style="fill:#FF8000" />
<path d="M1694.5,368.33A5,5 0 1 1 1684.5,368.33A5,5 0 1 1 1694.5,368.33Z" style="fill:#FF8000" />
<path d="M1890,451.06A5,5 0 1 1 1880,451.06A5,5 0 1 1 1890,451.06Z" style="fill:#FF8000" />
<path d="M1900,146.4L1920,146.4" style="fill:none;stroke:#FF0000;stroke-width:4" />
<path d="M1915,146.4A5,5 0 1 1 1905,146.4A5,5 0 1 1 1915,146.4Z" style="fill:#FF0000" />
<text x="1823.3" y="-141.42" transform="scale(1, -1)"
	style="font-family:Liberation Serif;font-variant:normal;font-weight:normal;font-style:normal;font-size:24px">std::list</text>
<path d="M1900,126.03L1920,126.03" style="fill:none;stroke:#0000FF;stroke-width:4" />
<path d="M1915,126.03A5,5 0 1 1 1905,126.03A5,5 0 1 1 1915,126.03Z" style="fill:#0000FF" />
<text x="1795.4" y="-121.05" transform="scale(1, -1)"
	style="font-family:Liberation Serif;font-variant:normal;font-weight:normal;font-style:normal;font-size:24px">std::deque</text>
<path d="M1900,105.66L1920,105.66" style="fill:none;stroke:#00FF00;stroke-width:4" />
<path d="M1915,105.66A5,5 0 1 1 1905,105.66A5,5 0 1 1 1915,105.66Z" style="fill:#00FF00" />
<text x="1792.7" y="-100.69" transform="scale(1, -1)"
	style="font-family:Liberation Serif;font-variant:normal;font-weight:normal;font-style:normal;font-size:24px">std::vector</text>
<path d="M1900,85.294L1920,85.294" style="fill:none;stroke:#FF8000;stroke-width:4" />
<path d="M1915,85.294A5,5 0 1 1 1905,85.294A5,5 0 1 1 1915,85.294Z" style="fill:#FF8000" />
<text x="1669.4" y="-80.319" transform="scale(1, -1)"
	style="font-family:Liberation Serif;font-variant:normal;font-weight:normal;font-style:normal;font-size:24px">preallocated std::vector</text>
</g>
</svg>
