<?xml version="1.0"?>
<!-- Generated by SVGo and Plotinum VG -->
<svg width="1920pt" height="1080pt" viewBox="0 0 1920 1080"
	xmlns="http://www.w3.org/2000/svg"
	xmlns:xlink="http://www.w3.org/1999/xlink">
<g transform="scale(1, -1) translate(0, -1080)">
<path d="M0,0L1920,0L1920,1080L0,1080Z" style="fill:#FFFFFF" />
<text x="857.25" y="-1040.9" transform="scale(1, -1)"
	style="font-family:Liberation Serif;font-variant:normal;font-weight:normal;font-style:normal;font-size:50px">push-back</text>
<text x="877.77" y="-9.7559" transform="scale(1, -1)"
	style="font-family:Liberation Serif;font-variant:normal;font-weight:normal;font-style:normal;font-size:30px">Number of elements</text>
<text x="85.462" y="-39.727" transform="scale(1, -1)"
	style="font-family:Liberation Serif;font-variant:normal;font-weight:normal;font-style:normal;font-size:20px">100000</text>
<text x="282.08" y="-39.727" transform="scale(1, -1)"
	style="font-family:Liberation Serif;font-variant:normal;font-weight:normal;font-style:normal;font-size:20px">200000</text>
<text x="478.69" y="-39.727" transform="scale(1, -1)"
	style="font-family:Liberation Serif;font-variant:normal;font-weight:normal;font-style:normal;font-size:20px">300000</text>
<text x="675.31" y="-39.727" transform="scale(1, -1)"
	style="font-family:Liberation Serif;font-variant:normal;font-weight:normal;font-style:normal;font-size:20px">400000</text>
<text x="871.92" y="-39.727" transform="scale(1, -1)"
	style="font-family:Liberation Serif;font-variant:normal;font-weight:normal;font-style:normal;font-size:20px">500000</text>
<text x="1068.5" y="-39.727" transform="scale(1, -1)"
	style="font-family:Liberation Serif;font-variant:normal;font-weight:normal;font-style:normal;font-size:20px">600000</text>
<text x="1265.2" y="-39.727" transform="scale(1, -1)"
	style="font-family:Liberation Serif;font-variant:normal;font-weight:normal;font-style:normal;font-size:20px">700000</text>
<text x="1461.8" y="-39.727" transform="scale(1, -1)"
	style="font-family:Liberation Serif;font-variant:normal;font-weight:normal;font-style:normal;font-size:20px">800000</text>
<text x="1658.4" y="-39.727" transform="scale(1, -1)"
	style="font-family:Liberation Serif;font-variant:normal;font-weight:normal;font-style:normal;font-size:20px">900000</text>
<text x="1850" y="-39.727" transform="scale(1, -1)"
	style="font-family:Liberation Serif;font-variant:normal;font-weight:normal;font-style:normal;font-size:20px">1000000</text>
<path d="M115.46,55.371L115.46,63.371" style="fill:none;stroke:#000000;stroke-width:0.5" />
<path d="M312.08,55.371L312.08,63.371" style="fill:none;stroke:#000000;stroke-width:0.5" />
<path d="M508.69,55.371L508.69,63.371" style="fill:none;stroke:#000000;stroke-width:0.5" />
<path d="M705.31,55.371L705.31,63.371" style="fill:none;stroke:#000000;stroke-width:0.5" />
<path d="M901.92,55.371L901.92,63.371" style="fill:none;stroke:#000000;stroke-width:0.5" />
<path d="M1098.5,55.371L1098.5,63.371" style="fill:none;stroke:#000000;stroke-width:0.5" />
<path d="M1295.2,55.371L1295.2,63.371" style="fill:none;stroke:#000000;stroke-width:0.5" />
<path d="M1491.8,55.371L1491.8,63.371" style="fill:none;stroke:#000000;stroke-width:0.5" />
<path d="M1688.4,55.371L1688.4,63.371" style="fill:none;stroke:#000000;stroke-width:0.5" />
<path d="M1885,55.371L1885,63.371" style="fill:none;stroke:#000000;stroke-width:0.5" />
<path d="M115.46,63.371L1885,63.371" style="fill:none;stroke:#000000;stroke-width:0.5" />
<g transform="rotate(90)">
<text x="536.68" y="23.467" transform="scale(1, -1)"
	style="font-family:Liberation Serif;font-variant:normal;font-weight:normal;font-style:normal;font-size:30px">μs</text>
</g>
<text x="39.712" y="-169.39" transform="scale(1, -1)"
	style="font-family:Liberation Serif;font-variant:normal;font-weight:normal;font-style:normal;font-size:20px">10000</text>
<text x="39.712" y="-589.19" transform="scale(1, -1)"
	style="font-family:Liberation Serif;font-variant:normal;font-weight:normal;font-style:normal;font-size:20px">40000</text>
<text x="39.712" y="-1009" transform="scale(1, -1)"
	style="font-family:Liberation Serif;font-variant:normal;font-weight:normal;font-style:normal;font-size:20px">70000</text>
<path d="M94.712,173.96L102.71,173.96" style="fill:none;stroke:#000000;stroke-width:0.5" />
<path d="M94.712,593.76L102.71,593.76" style="fill:none;stroke:#000000;stroke-width:0.5" />
<path d="M94.712,1013.6L102.71,1013.6" style="fill:none;stroke:#000000;stroke-width:0.5" />
<path d="M98.712,313.89L102.71,313.89" style="fill:none;stroke:#000000;stroke-width:0.5" />
<path d="M98.712,453.83L102.71,453.83" style="fill:none;stroke:#000000;stroke-width:0.5" />
<path d="M98.712,733.69L102.71,733.69" style="fill:none;stroke:#000000;stroke-width:0.5" />
<path d="M98.712,873.62L102.71,873.62" style="fill:none;stroke:#000000;stroke-width:0.5" />
<path d="M102.71,80.11L102.71,1021" style="fill:none;stroke:#000000;stroke-width:0.5" />
<path d="M115.46,80.11L115.46,1021" style="fill:none;stroke:#808080;stroke-width:0.25" />
<path d="M312.08,80.11L312.08,1021" style="fill:none;stroke:#808080;stroke-width:0.25" />
<path d="M508.69,80.11L508.69,1021" style="fill:none;stroke:#808080;stroke-width:0.25" />
<path d="M705.31,80.11L705.31,1021" style="fill:none;stroke:#808080;stroke-width:0.25" />
<path d="M901.92,80.11L901.92,1021" style="fill:none;stroke:#808080;stroke-width:0.25" />
<path d="M1098.5,80.11L1098.5,1021" style="fill:none;stroke:#808080;stroke-width:0.25" />
<path d="M1295.2,80.11L1295.2,1021" style="fill:none;stroke:#808080;stroke-width:0.25" />
<path d="M1491.8,80.11L1491.8,1021" style="fill:none;stroke:#808080;stroke-width:0.25" />
<path d="M1688.4,80.11L1688.4,1021" style="fill:none;stroke:#808080;stroke-width:0.25" />
<path d="M1885,80.11L1885,1021" style="fill:none;stroke:#808080;stroke-width:0.25" />
<path d="M115.46,173.96L1885,173.96" style="fill:none;stroke:#808080;stroke-width:0.25" />
<path d="M115.46,593.76L1885,593.76" style="fill:none;stroke:#808080;stroke-width:0.25" />
<path d="M115.46,1013.6L1885,1013.6" style="fill:none;stroke:#808080;stroke-width:0.25" />
<path d="M115.46,80.11L312.08,111.23L508.69,141.18L705.31,179.08L901.92,205.98L1098.5,270.47L1295.2,332.91L1491.8,335.63L1688.4,408.28L1885,517.26" style="fill:none;stroke:#FF0000;stroke-width:4" />
<path d="M120.46,80.11A5,5 0 1 1 110.46,80.11A5,5 0 1 1 120.46,80.11Z" style="fill:#FF0000" />
<path d="M317.08,111.23A5,5 0 1 1 307.08,111.23A5,5 0 1 1 317.08,111.23Z" style="fill:#FF0000" />
<path d="M513.69,141.18A5,5 0 1 1 503.69,141.18A5,5 0 1 1 513.69,141.18Z" style="fill:#FF0000" />
<path d="M710.31,179.08A5,5 0 1 1 700.31,179.08A5,5 0 1 1 710.31,179.08Z" style="fill:#FF0000" />
<path d="M906.92,205.98A5,5 0 1 1 896.92,205.98A5,5 0 1 1 906.92,205.98Z" style="fill:#FF0000" />
<path d="M1103.5,270.47A5,5 0 1 1 1093.5,270.47A5,5 0 1 1 1103.5,270.47Z" style="fill:#FF0000" />
<path d="M1300.2,332.91A5,5 0 1 1 1290.2,332.91A5,5 0 1 1 1300.2,332.91Z" style="fill:#FF0000" />
<path d="M1496.8,335.63A5,5 0 1 1 1486.8,335.63A5,5 0 1 1 1496.8,335.63Z" style="fill:#FF0000" />
<path d="M1693.4,408.28A5,5 0 1 1 1683.4,408.28A5,5 0 1 1 1693.4,408.28Z" style="fill:#FF0000" />
<path d="M1890,517.26A5,5 0 1 1 1880,517.26A5,5 0 1 1 1890,517.26Z" style="fill:#FF0000" />
<path d="M115.46,136.84L312.08,259.48L508.69,350.14L705.31,449.26L901.92,533.45L1098.5,711.12L1295.2,752.36L1491.8,725.41L1688.4,774.54L1885,931.29" style="fill:none;stroke:#0000FF;stroke-width:4" />
<path d="M120.46,136.84A5,5 0 1 1 110.46,136.84A5,5 0 1 1 120.46,136.84Z" style="fill:#0000FF" />
<path d="M317.08,259.48A5,5 0 1 1 307.08,259.48A5,5 0 1 1 317.08,259.48Z" style="fill:#0000FF" />
<path d="M513.69,350.14A5,5 0 1 1 503.69,350.14A5,5 0 1 1 513.69,350.14Z" style="fill:#0000FF" />
<path d="M710.31,449.26A5,5 0 1 1 700.31,449.26A5,5 0 1 1 710.31,449.26Z" style="fill:#0000FF" />
<path d="M906.92,533.45A5,5 0 1 1 896.92,533.45A5,5 0 1 1 906.92,533.45Z" style="fill:#0000FF" />
<path d="M1103.5,711.12A5,5 0 1 1 1093.5,711.12A5,5 0 1 1 1103.5,711.12Z" style="fill:#0000FF" />
<path d="M1300.2,752.36A5,5 0 1 1 1290.2,752.36A5,5 0 1 1 1300.2,752.36Z" style="fill:#0000FF" />
<path d="M1496.8,725.41A5,5 0 1 1 1486.8,725.41A5,5 0 1 1 1496.8,725.41Z" style="fill:#0000FF" />
<path d="M1693.4,774.54A5,5 0 1 1 1683.4,774.54A5,5 0 1 1 1693.4,774.54Z" style="fill:#0000FF" />
<path d="M1890,931.29A5,5 0 1 1 1880,931.29A5,5 0 1 1 1890,931.29Z" style="fill:#0000FF" />
<path d="M115.46,120.86L312.08,129.66L508.69,181.9L705.31,221.33L901.92,277.15L1098.5,399.63L1295.2,448.24L1491.8,571.06L1688.4,694.22L1885,632.65" style="fill:none;stroke:#00FF00;stroke-width:4" />
<path d="M120.46,120.86A5,5 0 1 1 110.46,120.86A5,5 0 1 1 120.46,120.86Z" style="fill:#00FF00" />
<path d="M317.08,129.66A5,5 0 1 1 307.08,129.66A5,5 0 1 1 317.08,129.66Z" style="fill:#00FF00" />
<path d="M513.69,181.9A5,5 0 1 1 503.69,181.9A5,5 0 1 1 513.69,181.9Z" style="fill:#00FF00" />
<path d="M710.31,221.33A5,5 0 1 1 700.31,221.33A5,5 0 1 1 710.31,221.33Z" style="fill:#00FF00" />
<path d="M906.92,277.15A5,5 0 1 1 896.92,277.15A5,5 0 1 1 906.92,277.15Z" style="fill:#00FF00" />
<path d="M1103.5,399.63A5,5 0 1 1 1093.5,399.63A5,5 0 1 1 1103.5,399.63Z" style="fill:#00FF00" />
<path d="M1300.2,448.24A5,5 0 1 1 1290.2,448.24A5,5 0 1 1 1300.2,448.24Z" style="fill:#00FF00" />
<path d="M1496.8,571.06A5,5 0 1 1 1486.8,571.06A5,5 0 1 1 1496.8,571.06Z" style="fill:#00FF00" />
<path d="M1693.4,694.22A5,5 0 1 1 1683.4,694.22A5,5 0 1 1 1693.4,694.22Z" style="fill:#00FF00" />
<path d="M1890,632.65A5,5 0 1 1 1880,632.65A5,5 0 1 1 1890,632.65Z" style="fill:#00FF00" />
<path d="M115.46,87.121L312.08,128.55L508.69,200.21L705.31,231.32L901.92,306.11L1098.5,456.7L1295.2,431.09L1491.8,531.99L1688.4,571.38L1885,549.23" style="fill:none;stroke:#FF8000;stroke-width:4" />
<path d="M120.46,87.121A5,5 0 1 1 110.46,87.121A5,5 0 1 1 120.46,87.121Z" style="fill:#FF8000" />
<path d="M317.08,128.55A5,5 0 1 1 307.08,128.55A5,5 0 1 1 317.08,128.55Z" style="fill:#FF8000" />
<path d="M513.69,200.21A5,5 0 1 1 503.69,200.21A5,5 0 1 1 513.69,200.21Z" style="fill:#FF8000" />
<path d="M710.31,231.32A5,5 0 1 1 700.31,231.32A5,5 0 1 1 710.31,231.32Z" style="fill:#FF8000" />
<path d="M906.92,306.11A5,5 0 1 1 896.92,306.11A5,5 0 1 1 906.92,306.11Z" style="fill:#FF8000" />
<path d="M1103.5,456.7A5,5 0 1 1 1093.5,456.7A5,5 0 1 1 1103.5,456.7Z" style="fill:#FF8000" />
<path d="M1300.2,431.09A5,5 0 1 1 1290.2,431.09A5,5 0 1 1 1300.2,431.09Z" style="fill:#FF8000" />
<path d="M1496.8,531.99A5,5 0 1 1 1486.8,531.99A5,5 0 1 1 1496.8,531.99Z" style="fill:#FF8000" />
<path d="M1693.4,571.38A5,5 0 1 1 1683.4,571.38A5,5 0 1 1 1693.4,571.38Z" style="fill:#FF8000" />
<path d="M1890,549.23A5,5 0 1 1 1880,549.23A5,5 0 1 1 1890,549.23Z" style="fill:#FF8000" />
<path d="M1900,146.4L1920,146.4" style="fill:none;stroke:#FF0000;stroke-width:4" />
<path d="M1915,146.4A5,5 0 1 1 1905,146.4A5,5 0 1 1 1915,146.4Z" style="fill:#FF0000" />
<text x="1669.4" y="-141.42" transform="scale(1, -1)"
	style="font-family:Liberation Serif;font-variant:normal;font-weight:normal;font-style:normal;font-size:24px">preallocated std::vector</text>
<path d="M1900,126.03L1920,126.03" style="fill:none;stroke:#0000FF;stroke-width:4" />
<path d="M1915,126.03A5,5 0 1 1 1905,126.03A5,5 0 1 1 1915,126.03Z" style="fill:#0000FF" />
<text x="1823.3" y="-121.05" transform="scale(1, -1)"
	style="font-family:Liberation Serif;font-variant:normal;font-weight:normal;font-style:normal;font-size:24px">std::list</text>
<path d="M1900,105.66L1920,105.66" style="fill:none;stroke:#00FF00;stroke-width:4" />
<path d="M1915,105.66A5,5 0 1 1 1905,105.66A5,5 0 1 1 1915,105.66Z" style="fill:#00FF00" />
<text x="1795.4" y="-100.69" transform="scale(1, -1)"
	style="font-family:Liberation Serif;font-variant:normal;font-weight:normal;font-style:normal;font-size:24px">std::deque</text>
<path d="M1900,85.294L1920,85.294" style="fill:none;stroke:#FF8000;stroke-width:4" />
<path d="M1915,85.294A5,5 0 1 1 1905,85.294A5,5 0 1 1 1915,85.294Z" style="fill:#FF8000" />
<text x="1792.7" y="-80.319" transform="scale(1, -1)"
	style="font-family:Liberation Serif;font-variant:normal;font-weight:normal;font-style:normal;font-size:24px">std::vector</text>
</g>
</svg>
