<?xml version="1.0"?>
<!-- Generated by SVGo and Plotinum VG -->
<svg width="1920pt" height="1080pt" viewBox="0 0 1920 1080"
	xmlns="http://www.w3.org/2000/svg"
	xmlns:xlink="http://www.w3.org/1999/xlink">
<g transform="scale(1, -1) translate(0, -1080)">
<path d="M0,0L1920,0L1920,1080L0,1080Z" style="fill:#FFFFFF" />
<text x="735.77" y="-1040.9" transform="scale(1, -1)"
	style="font-family:Liberation Serif;font-variant:normal;font-weight:normal;font-style:normal;font-size:50px">push-back - Log Scale</text>
<text x="882.77" y="-9.7559" transform="scale(1, -1)"
	style="font-family:Liberation Serif;font-variant:normal;font-weight:normal;font-style:normal;font-size:30px">Number of elements</text>
<text x="95.462" y="-39.727" transform="scale(1, -1)"
	style="font-family:Liberation Serif;font-variant:normal;font-weight:normal;font-style:normal;font-size:20px">100000</text>
<text x="290.97" y="-39.727" transform="scale(1, -1)"
	style="font-family:Liberation Serif;font-variant:normal;font-weight:normal;font-style:normal;font-size:20px">200000</text>
<text x="486.47" y="-39.727" transform="scale(1, -1)"
	style="font-family:Liberation Serif;font-variant:normal;font-weight:normal;font-style:normal;font-size:20px">300000</text>
<text x="681.97" y="-39.727" transform="scale(1, -1)"
	style="font-family:Liberation Serif;font-variant:normal;font-weight:normal;font-style:normal;font-size:20px">400000</text>
<text x="877.48" y="-39.727" transform="scale(1, -1)"
	style="font-family:Liberation Serif;font-variant:normal;font-weight:normal;font-style:normal;font-size:20px">500000</text>
<text x="1073" y="-39.727" transform="scale(1, -1)"
	style="font-family:Liberation Serif;font-variant:normal;font-weight:normal;font-style:normal;font-size:20px">600000</text>
<text x="1268.5" y="-39.727" transform="scale(1, -1)"
	style="font-family:Liberation Serif;font-variant:normal;font-weight:normal;font-style:normal;font-size:20px">700000</text>
<text x="1464" y="-39.727" transform="scale(1, -1)"
	style="font-family:Liberation Serif;font-variant:normal;font-weight:normal;font-style:normal;font-size:20px">800000</text>
<text x="1659.5" y="-39.727" transform="scale(1, -1)"
	style="font-family:Liberation Serif;font-variant:normal;font-weight:normal;font-style:normal;font-size:20px">900000</text>
<text x="1850" y="-39.727" transform="scale(1, -1)"
	style="font-family:Liberation Serif;font-variant:normal;font-weight:normal;font-style:normal;font-size:20px">1000000</text>
<path d="M125.46,55.371L125.46,63.371" style="fill:none;stroke:#000000;stroke-width:0.5" />
<path d="M320.97,55.371L320.97,63.371" style="fill:none;stroke:#000000;stroke-width:0.5" />
<path d="M516.47,55.371L516.47,63.371" style="fill:none;stroke:#000000;stroke-width:0.5" />
<path d="M711.97,55.371L711.97,63.371" style="fill:none;stroke:#000000;stroke-width:0.5" />
<path d="M907.48,55.371L907.48,63.371" style="fill:none;stroke:#000000;stroke-width:0.5" />
<path d="M1103,55.371L1103,63.371" style="fill:none;stroke:#000000;stroke-width:0.5" />
<path d="M1298.5,55.371L1298.5,63.371" style="fill:none;stroke:#000000;stroke-width:0.5" />
<path d="M1494,55.371L1494,63.371" style="fill:none;stroke:#000000;stroke-width:0.5" />
<path d="M1689.5,55.371L1689.5,63.371" style="fill:none;stroke:#000000;stroke-width:0.5" />
<path d="M1885,55.371L1885,63.371" style="fill:none;stroke:#000000;stroke-width:0.5" />
<path d="M125.46,63.371L1885,63.371" style="fill:none;stroke:#000000;stroke-width:0.5" />
<g transform="rotate(90)">
<text x="509.33" y="23.467" transform="scale(1, -1)"
	style="font-family:Liberation Serif;font-variant:normal;font-weight:normal;font-style:normal;font-size:30px">log(μs)</text>
</g>
<text x="49.712" y="-524.67" transform="scale(1, -1)"
	style="font-family:Liberation Serif;font-variant:normal;font-weight:normal;font-style:normal;font-size:20px">20000</text>
<text x="49.712" y="-830.16" transform="scale(1, -1)"
	style="font-family:Liberation Serif;font-variant:normal;font-weight:normal;font-style:normal;font-size:20px">60000</text>
<text x="39.712" y="-972.2" transform="scale(1, -1)"
	style="font-family:Liberation Serif;font-variant:normal;font-weight:normal;font-style:normal;font-size:20px">100000</text>
<path d="M104.71,529.24L112.71,529.24" style="fill:none;stroke:#000000;stroke-width:0.5" />
<path d="M104.71,834.73L112.71,834.73" style="fill:none;stroke:#000000;stroke-width:0.5" />
<path d="M104.71,976.77L112.71,976.77" style="fill:none;stroke:#000000;stroke-width:0.5" />
<path d="M108.71,336.5L112.71,336.5" style="fill:none;stroke:#000000;stroke-width:0.5" />
<path d="M108.71,641.99L112.71,641.99" style="fill:none;stroke:#000000;stroke-width:0.5" />
<path d="M108.71,721.98L112.71,721.98" style="fill:none;stroke:#000000;stroke-width:0.5" />
<path d="M108.71,784.03L112.71,784.03" style="fill:none;stroke:#000000;stroke-width:0.5" />
<path d="M108.71,877.59L112.71,877.59" style="fill:none;stroke:#000000;stroke-width:0.5" />
<path d="M108.71,914.72L112.71,914.72" style="fill:none;stroke:#000000;stroke-width:0.5" />
<path d="M108.71,947.47L112.71,947.47" style="fill:none;stroke:#000000;stroke-width:0.5" />
<path d="M108.71,1003.3L112.71,1003.3" style="fill:none;stroke:#000000;stroke-width:0.5" />
<path d="M112.71,80.11L112.71,1024.6" style="fill:none;stroke:#000000;stroke-width:0.5" />
<path d="M125.46,80.11L125.46,1024.6" style="fill:none;stroke:#808080;stroke-width:0.25" />
<path d="M320.97,80.11L320.97,1024.6" style="fill:none;stroke:#808080;stroke-width:0.25" />
<path d="M516.47,80.11L516.47,1024.6" style="fill:none;stroke:#808080;stroke-width:0.25" />
<path d="M711.97,80.11L711.97,1024.6" style="fill:none;stroke:#808080;stroke-width:0.25" />
<path d="M907.48,80.11L907.48,1024.6" style="fill:none;stroke:#808080;stroke-width:0.25" />
<path d="M1103,80.11L1103,1024.6" style="fill:none;stroke:#808080;stroke-width:0.25" />
<path d="M1298.5,80.11L1298.5,1024.6" style="fill:none;stroke:#808080;stroke-width:0.25" />
<path d="M1494,80.11L1494,1024.6" style="fill:none;stroke:#808080;stroke-width:0.25" />
<path d="M1689.5,80.11L1689.5,1024.6" style="fill:none;stroke:#808080;stroke-width:0.25" />
<path d="M1885,80.11L1885,1024.6" style="fill:none;stroke:#808080;stroke-width:0.25" />
<path d="M125.46,529.24L1885,529.24" style="fill:none;stroke:#808080;stroke-width:0.25" />
<path d="M125.46,834.73L1885,834.73" style="fill:none;stroke:#808080;stroke-width:0.25" />
<path d="M125.46,976.77L1885,976.77" style="fill:none;stroke:#808080;stroke-width:0.25" />
<path d="M125.46,277.63L320.97,350.57L516.47,453.77L711.97,531.66L907.48,620.78L1103,667.99L1298.5,705.96L1494,817.86L1689.5,861.88L1885,951.08" style="fill:none;stroke:#FF0000;stroke-width:4" />
<path d="M130.46,277.63A5,5 0 1 1 120.46,277.63A5,5 0 1 1 130.46,277.63Z" style="fill:#FF0000" />
<path d="M325.97,350.57A5,5 0 1 1 315.97,350.57A5,5 0 1 1 325.97,350.57Z" style="fill:#FF0000" />
<path d="M521.47,453.77A5,5 0 1 1 511.47,453.77A5,5 0 1 1 521.47,453.77Z" style="fill:#FF0000" />
<path d="M716.97,531.66A5,5 0 1 1 706.97,531.66A5,5 0 1 1 716.97,531.66Z" style="fill:#FF0000" />
<path d="M912.48,620.78A5,5 0 1 1 902.48,620.78A5,5 0 1 1 912.48,620.78Z" style="fill:#FF0000" />
<path d="M1108,667.99A5,5 0 1 1 1098,667.99A5,5 0 1 1 1108,667.99Z" style="fill:#FF0000" />
<path d="M1303.5,705.96A5,5 0 1 1 1293.5,705.96A5,5 0 1 1 1303.5,705.96Z" style="fill:#FF0000" />
<path d="M1499,817.86A5,5 0 1 1 1489,817.86A5,5 0 1 1 1499,817.86Z" style="fill:#FF0000" />
<path d="M1694.5,861.88A5,5 0 1 1 1684.5,861.88A5,5 0 1 1 1694.5,861.88Z" style="fill:#FF0000" />
<path d="M1890,951.08A5,5 0 1 1 1880,951.08A5,5 0 1 1 1890,951.08Z" style="fill:#FF0000" />
<path d="M125.46,234.37L320.97,409.37L516.47,558.82L711.97,579.18L907.48,614.3L1103,751.1L1298.5,764.87L1494,798.34L1689.5,799.05L1885,813.86" style="fill:none;stroke:#0000FF;stroke-width:4" />
<path d="M130.46,234.37A5,5 0 1 1 120.46,234.37A5,5 0 1 1 130.46,234.37Z" style="fill:#0000FF" />
<path d="M325.97,409.37A5,5 0 1 1 315.97,409.37A5,5 0 1 1 325.97,409.37Z" style="fill:#0000FF" />
<path d="M521.47,558.82A5,5 0 1 1 511.47,558.82A5,5 0 1 1 521.47,558.82Z" style="fill:#0000FF" />
<path d="M716.97,579.18A5,5 0 1 1 706.97,579.18A5,5 0 1 1 716.97,579.18Z" style="fill:#0000FF" />
<path d="M912.48,614.3A5,5 0 1 1 902.48,614.3A5,5 0 1 1 912.48,614.3Z" style="fill:#0000FF" />
<path d="M1108,751.1A5,5 0 1 1 1098,751.1A5,5 0 1 1 1108,751.1Z" style="fill:#0000FF" />
<path d="M1303.5,764.87A5,5 0 1 1 1293.5,764.87A5,5 0 1 1 1303.5,764.87Z" style="fill:#0000FF" />
<path d="M1499,798.34A5,5 0 1 1 1489,798.34A5,5 0 1 1 1499,798.34Z" style="fill:#0000FF" />
<path d="M1694.5,799.05A5,5 0 1 1 1684.5,799.05A5,5 0 1 1 1694.5,799.05Z" style="fill:#0000FF" />
<path d="M1890,813.86A5,5 0 1 1 1880,813.86A5,5 0 1 1 1890,813.86Z" style="fill:#0000FF" />
<path d="M125.46,80.11L320.97,260.88L516.47,412.39L711.97,468.04L907.48,528.63L1103,596.53L1298.5,622.91L1494,675.4L1689.5,701.97L1885,724.2" style="fill:none;stroke:#00FF00;stroke-width:4" />
<path d="M130.46,80.11A5,5 0 1 1 120.46,80.11A5,5 0 1 1 130.46,80.11Z" style="fill:#00FF00" />
<path d="M325.97,260.88A5,5 0 1 1 315.97,260.88A5,5 0 1 1 325.97,260.88Z" style="fill:#00FF00" />
<path d="M521.47,412.39A5,5 0 1 1 511.47,412.39A5,5 0 1 1 521.47,412.39Z" style="fill:#00FF00" />
<path d="M716.97,468.04A5,5 0 1 1 706.97,468.04A5,5 0 1 1 716.97,468.04Z" style="fill:#00FF00" />
<path d="M912.48,528.63A5,5 0 1 1 902.48,528.63A5,5 0 1 1 912.48,528.63Z" style="fill:#00FF00" />
<path d="M1108,596.53A5,5 0 1 1 1098,596.53A5,5 0 1 1 1108,596.53Z" style="fill:#00FF00" />
<path d="M1303.5,622.91A5,5 0 1 1 1293.5,622.91A5,5 0 1 1 1303.5,622.91Z" style="fill:#00FF00" />
<path d="M1499,675.4A5,5 0 1 1 1489,675.4A5,5 0 1 1 1499,675.4Z" style="fill:#00FF00" />
<path d="M1694.5,701.97A5,5 0 1 1 1684.5,701.97A5,5 0 1 1 1694.5,701.97Z" style="fill:#00FF00" />
<path d="M1890,724.2A5,5 0 1 1 1880,724.2A5,5 0 1 1 1890,724.2Z" style="fill:#00FF00" />
<path d="M125.46,290.43L320.97,442.3L516.47,554.11L711.97,628.28L907.48,700.65L1103,812.53L1298.5,870.29L1494,946.36L1689.5,979.33L1885,998.13" style="fill:none;stroke:#FF8000;stroke-width:4" />
<path d="M130.46,290.43A5,5 0 1 1 120.46,290.43A5,5 0 1 1 130.46,290.43Z" style="fill:#FF8000" />
<path d="M325.97,442.3A5,5 0 1 1 315.97,442.3A5,5 0 1 1 325.97,442.3Z" style="fill:#FF8000" />
<path d="M521.47,554.11A5,5 0 1 1 511.47,554.11A5,5 0 1 1 521.47,554.11Z" style="fill:#FF8000" />
<path d="M716.97,628.28A5,5 0 1 1 706.97,628.28A5,5 0 1 1 716.97,628.28Z" style="fill:#FF8000" />
<path d="M912.48,700.65A5,5 0 1 1 902.48,700.65A5,5 0 1 1 912.48,700.65Z" style="fill:#FF8000" />
<path d="M1108,812.53A5,5 0 1 1 1098,812.53A5,5 0 1 1 1108,812.53Z" style="fill:#FF8000" />
<path d="M1303.5,870.29A5,5 0 1 1 1293.5,870.29A5,5 0 1 1 1303.5,870.29Z" style="fill:#FF8000" />
<path d="M1499,946.36A5,5 0 1 1 1489,946.36A5,5 0 1 1 1499,946.36Z" style="fill:#FF8000" />
<path d="M1694.5,979.33A5,5 0 1 1 1684.5,979.33A5,5 0 1 1 1694.5,979.33Z" style="fill:#FF8000" />
<path d="M1890,998.13A5,5 0 1 1 1880,998.13A5,5 0 1 1 1890,998.13Z" style="fill:#FF8000" />
<path d="M1900,146.4L1920,146.4" style="fill:none;stroke:#FF0000;stroke-width:4" />
<path d="M1915,146.4A5,5 0 1 1 1905,146.4A5,5 0 1 1 1915,146.4Z" style="fill:#FF0000" />
<text x="1795.4" y="-141.42" transform="scale(1, -1)"
	style="font-family:Liberation Serif;font-variant:normal;font-weight:normal;font-style:normal;font-size:24px">std::deque</text>
<path d="M1900,126.03L1920,126.03" style="fill:none;stroke:#0000FF;stroke-width:4" />
<path d="M1915,126.03A5,5 0 1 1 1905,126.03A5,5 0 1 1 1915,126.03Z" style="fill:#0000FF" />
<text x="1792.7" y="-121.05" transform="scale(1, -1)"
	style="font-family:Liberation Serif;font-variant:normal;font-weight:normal;font-style:normal;font-size:24px">std::vector</text>
<path d="M1900,105.66L1920,105.66" style="fill:none;stroke:#00FF00;stroke-width:4" />
<path d="M1915,105.66A5,5 0 1 1 1905,105.66A5,5 0 1 1 1915,105.66Z" style="fill:#00FF00" />
<text x="1669.4" y="-100.69" transform="scale(1, -1)"
	style="font-family:Liberation Serif;font-variant:normal;font-weight:normal;font-style:normal;font-size:24px">preallocated std::vector</text>
<path d="M1900,85.294L1920,85.294" style="fill:none;stroke:#FF8000;stroke-width:4" />
<path d="M1915,85.294A5,5 0 1 1 1905,85.294A5,5 0 1 1 1915,85.294Z" style="fill:#FF8000" />
<text x="1823.3" y="-80.319" transform="scale(1, -1)"
	style="font-family:Liberation Serif;font-variant:normal;font-weight:normal;font-style:normal;font-size:24px">std::list</text>
</g>
</svg>
