<?xml version="1.0"?>
<!-- Generated by SVGo and Plotinum VG -->
<svg width="1920pt" height="1080pt" viewBox="0 0 1920 1080"
	xmlns="http://www.w3.org/2000/svg"
	xmlns:xlink="http://www.w3.org/1999/xlink">
<g transform="scale(1, -1) translate(0, -1080)">
<path d="M0,0L1920,0L1920,1080L0,1080Z" style="fill:#FFFFFF" />
<text x="735.77" y="-1040.9" transform="scale(1, -1)"
	style="font-family:Liberation Serif;font-variant:normal;font-weight:normal;font-style:normal;font-size:50px">push-back - Log Scale</text>
<text x="877.77" y="-9.7559" transform="scale(1, -1)"
	style="font-family:Liberation Serif;font-variant:normal;font-weight:normal;font-style:normal;font-size:30px">Number of elements</text>
<text x="85.462" y="-39.727" transform="scale(1, -1)"
	style="font-family:Liberation Serif;font-variant:normal;font-weight:normal;font-style:normal;font-size:20px">100000</text>
<text x="282.08" y="-39.727" transform="scale(1, -1)"
	style="font-family:Liberation Serif;font-variant:normal;font-weight:normal;font-style:normal;font-size:20px">200000</text>
<text x="478.69" y="-39.727" transform="scale(1, -1)"
	style="font-family:Liberation Serif;font-variant:normal;font-weight:normal;font-style:normal;font-size:20px">300000</text>
<text x="675.31" y="-39.727" transform="scale(1, -1)"
	style="font-family:Liberation Serif;font-variant:normal;font-weight:normal;font-style:normal;font-size:20px">400000</text>
<text x="871.92" y="-39.727" transform="scale(1, -1)"
	style="font-family:Liberation Serif;font-variant:normal;font-weight:normal;font-style:normal;font-size:20px">500000</text>
<text x="1068.5" y="-39.727" transform="scale(1, -1)"
	style="font-family:Liberation Serif;font-variant:normal;font-weight:normal;font-style:normal;font-size:20px">600000</text>
<text x="1265.2" y="-39.727" transform="scale(1, -1)"
	style="font-family:Liberation Serif;font-variant:normal;font-weight:normal;font-style:normal;font-size:20px">700000</text>
<text x="1461.8" y="-39.727" transform="scale(1, -1)"
	style="font-family:Liberation Serif;font-variant:normal;font-weight:normal;font-style:normal;font-size:20px">800000</text>
<text x="1658.4" y="-39.727" transform="scale(1, -1)"
	style="font-family:Liberation Serif;font-variant:normal;font-weight:normal;font-style:normal;font-size:20px">900000</text>
<text x="1850" y="-39.727" transform="scale(1, -1)"
	style="font-family:Liberation Serif;font-variant:normal;font-weight:normal;font-style:normal;font-size:20px">1000000</text>
<path d="M115.46,55.371L115.46,63.371" style="fill:none;stroke:#000000;stroke-width:0.5" />
<path d="M312.08,55.371L312.08,63.371" style="fill:none;stroke:#000000;stroke-width:0.5" />
<path d="M508.69,55.371L508.69,63.371" style="fill:none;stroke:#000000;stroke-width:0.5" />
<path d="M705.31,55.371L705.31,63.371" style="fill:none;stroke:#000000;stroke-width:0.5" />
<path d="M901.92,55.371L901.92,63.371" style="fill:none;stroke:#000000;stroke-width:0.5" />
<path d="M1098.5,55.371L1098.5,63.371" style="fill:none;stroke:#000000;stroke-width:0.5" />
<path d="M1295.2,55.371L1295.2,63.371" style="fill:none;stroke:#000000;stroke-width:0.5" />
<path d="M1491.8,55.371L1491.8,63.371" style="fill:none;stroke:#000000;stroke-width:0.5" />
<path d="M1688.4,55.371L1688.4,63.371" style="fill:none;stroke:#000000;stroke-width:0.5" />
<path d="M1885,55.371L1885,63.371" style="fill:none;stroke:#000000;stroke-width:0.5" />
<path d="M115.46,63.371L1885,63.371" style="fill:none;stroke:#000000;stroke-width:0.5" />
<g transform="rotate(90)">
<text x="485.87" y="23.467" transform="scale(1, -1)"
	style="font-family:Liberation Serif;font-variant:normal;font-weight:normal;font-style:normal;font-size:30px">log(μs + 1)</text>
</g>
<text x="39.712" y="-436.44" transform="scale(1, -1)"
	style="font-family:Liberation Serif;font-variant:normal;font-weight:normal;font-style:normal;font-size:20px">10000</text>
<text x="39.712" y="-833.45" transform="scale(1, -1)"
	style="font-family:Liberation Serif;font-variant:normal;font-weight:normal;font-style:normal;font-size:20px">40000</text>
<text x="39.712" y="-993.71" transform="scale(1, -1)"
	style="font-family:Liberation Serif;font-variant:normal;font-weight:normal;font-style:normal;font-size:20px">70000</text>
<path d="M94.712,441.01L102.71,441.01" style="fill:none;stroke:#000000;stroke-width:0.5" />
<path d="M94.712,838.02L102.71,838.02" style="fill:none;stroke:#000000;stroke-width:0.5" />
<path d="M94.712,998.28L102.71,998.28" style="fill:none;stroke:#000000;stroke-width:0.5" />
<path d="M98.712,639.51L102.71,639.51" style="fill:none;stroke:#000000;stroke-width:0.5" />
<path d="M98.712,755.63L102.71,755.63" style="fill:none;stroke:#000000;stroke-width:0.5" />
<path d="M98.712,901.92L102.71,901.92" style="fill:none;stroke:#000000;stroke-width:0.5" />
<path d="M98.712,954.13L102.71,954.13" style="fill:none;stroke:#000000;stroke-width:0.5" />
<path d="M102.71,80.11L102.71,1024.6" style="fill:none;stroke:#000000;stroke-width:0.5" />
<path d="M115.46,80.11L115.46,1024.6" style="fill:none;stroke:#808080;stroke-width:0.25" />
<path d="M312.08,80.11L312.08,1024.6" style="fill:none;stroke:#808080;stroke-width:0.25" />
<path d="M508.69,80.11L508.69,1024.6" style="fill:none;stroke:#808080;stroke-width:0.25" />
<path d="M705.31,80.11L705.31,1024.6" style="fill:none;stroke:#808080;stroke-width:0.25" />
<path d="M901.92,80.11L901.92,1024.6" style="fill:none;stroke:#808080;stroke-width:0.25" />
<path d="M1098.5,80.11L1098.5,1024.6" style="fill:none;stroke:#808080;stroke-width:0.25" />
<path d="M1295.2,80.11L1295.2,1024.6" style="fill:none;stroke:#808080;stroke-width:0.25" />
<path d="M1491.8,80.11L1491.8,1024.6" style="fill:none;stroke:#808080;stroke-width:0.25" />
<path d="M1688.4,80.11L1688.4,1024.6" style="fill:none;stroke:#808080;stroke-width:0.25" />
<path d="M1885,80.11L1885,1024.6" style="fill:none;stroke:#808080;stroke-width:0.25" />
<path d="M115.46,441.01L1885,441.01" style="fill:none;stroke:#808080;stroke-width:0.25" />
<path d="M115.46,838.02L1885,838.02" style="fill:none;stroke:#808080;stroke-width:0.25" />
<path d="M115.46,998.28L1885,998.28" style="fill:none;stroke:#808080;stroke-width:0.25" />
<path d="M115.46,329.8L312.08,487.56L508.69,630.83L705.31,715.08L901.92,809.35L1098.5,857.87L1295.2,867.68L1491.8,898.85L1688.4,941.23L1885,997.34" style="fill:none;stroke:#FF0000;stroke-width:4" />
<path d="M120.46,329.8A5,5 0 1 1 110.46,329.8A5,5 0 1 1 120.46,329.8Z" style="fill:#FF0000" />
<path d="M317.08,487.56A5,5 0 1 1 307.08,487.56A5,5 0 1 1 317.08,487.56Z" style="fill:#FF0000" />
<path d="M513.69,630.83A5,5 0 1 1 503.69,630.83A5,5 0 1 1 513.69,630.83Z" style="fill:#FF0000" />
<path d="M710.31,715.08A5,5 0 1 1 700.31,715.08A5,5 0 1 1 710.31,715.08Z" style="fill:#FF0000" />
<path d="M906.92,809.35A5,5 0 1 1 896.92,809.35A5,5 0 1 1 906.92,809.35Z" style="fill:#FF0000" />
<path d="M1103.5,857.87A5,5 0 1 1 1093.5,857.87A5,5 0 1 1 1103.5,857.87Z" style="fill:#FF0000" />
<path d="M1300.2,867.68A5,5 0 1 1 1290.2,867.68A5,5 0 1 1 1300.2,867.68Z" style="fill:#FF0000" />
<path d="M1496.8,898.85A5,5 0 1 1 1486.8,898.85A5,5 0 1 1 1496.8,898.85Z" style="fill:#FF0000" />
<path d="M1693.4,941.23A5,5 0 1 1 1683.4,941.23A5,5 0 1 1 1693.4,941.23Z" style="fill:#FF0000" />
<path d="M1890,997.34A5,5 0 1 1 1880,997.34A5,5 0 1 1 1890,997.34Z" style="fill:#FF0000" />
<path d="M115.46,314.4L312.08,346.33L508.69,467.08L705.31,530.51L901.92,624.52L1098.5,675.71L1295.2,742.05L1491.8,789.17L1688.4,838.03L1885,879.06" style="fill:none;stroke:#0000FF;stroke-width:4" />
<path d="M120.46,314.4A5,5 0 1 1 110.46,314.4A5,5 0 1 1 120.46,314.4Z" style="fill:#0000FF" />
<path d="M317.08,346.33A5,5 0 1 1 307.08,346.33A5,5 0 1 1 317.08,346.33Z" style="fill:#0000FF" />
<path d="M513.69,467.08A5,5 0 1 1 503.69,467.08A5,5 0 1 1 513.69,467.08Z" style="fill:#0000FF" />
<path d="M710.31,530.51A5,5 0 1 1 700.31,530.51A5,5 0 1 1 710.31,530.51Z" style="fill:#0000FF" />
<path d="M906.92,624.52A5,5 0 1 1 896.92,624.52A5,5 0 1 1 906.92,624.52Z" style="fill:#0000FF" />
<path d="M1103.5,675.71A5,5 0 1 1 1093.5,675.71A5,5 0 1 1 1103.5,675.71Z" style="fill:#0000FF" />
<path d="M1300.2,742.05A5,5 0 1 1 1290.2,742.05A5,5 0 1 1 1300.2,742.05Z" style="fill:#0000FF" />
<path d="M1496.8,789.17A5,5 0 1 1 1486.8,789.17A5,5 0 1 1 1496.8,789.17Z" style="fill:#0000FF" />
<path d="M1693.4,838.03A5,5 0 1 1 1683.4,838.03A5,5 0 1 1 1693.4,838.03Z" style="fill:#0000FF" />
<path d="M1890,879.06A5,5 0 1 1 1880,879.06A5,5 0 1 1 1890,879.06Z" style="fill:#0000FF" />
<path d="M115.46,126.35L312.08,328.62L508.69,508.03L705.31,588.74L901.92,647.43L1098.5,744.6L1295.2,750.92L1491.8,758.65L1688.4,779.57L1885,811.24" style="fill:none;stroke:#00FF00;stroke-width:4" />
<path d="M120.46,126.35A5,5 0 1 1 110.46,126.35A5,5 0 1 1 120.46,126.35Z" style="fill:#00FF00" />
<path d="M317.08,328.62A5,5 0 1 1 307.08,328.62A5,5 0 1 1 317.08,328.62Z" style="fill:#00FF00" />
<path d="M513.69,508.03A5,5 0 1 1 503.69,508.03A5,5 0 1 1 513.69,508.03Z" style="fill:#00FF00" />
<path d="M710.31,588.74A5,5 0 1 1 700.31,588.74A5,5 0 1 1 710.31,588.74Z" style="fill:#00FF00" />
<path d="M906.92,647.43A5,5 0 1 1 896.92,647.43A5,5 0 1 1 906.92,647.43Z" style="fill:#00FF00" />
<path d="M1103.5,744.6A5,5 0 1 1 1093.5,744.6A5,5 0 1 1 1103.5,744.6Z" style="fill:#00FF00" />
<path d="M1300.2,750.92A5,5 0 1 1 1290.2,750.92A5,5 0 1 1 1300.2,750.92Z" style="fill:#00FF00" />
<path d="M1496.8,758.65A5,5 0 1 1 1486.8,758.65A5,5 0 1 1 1496.8,758.65Z" style="fill:#00FF00" />
<path d="M1693.4,779.57A5,5 0 1 1 1683.4,779.57A5,5 0 1 1 1693.4,779.57Z" style="fill:#00FF00" />
<path d="M1890,811.24A5,5 0 1 1 1880,811.24A5,5 0 1 1 1890,811.24Z" style="fill:#00FF00" />
<path d="M115.46,80.11L312.08,286.68L508.69,382.49L705.31,447.35L901.92,556.63L1098.5,657.9L1295.2,670.09L1491.8,679.62L1688.4,705.41L1885,747.92" style="fill:none;stroke:#FF8000;stroke-width:4" />
<path d="M120.46,80.11A5,5 0 1 1 110.46,80.11A5,5 0 1 1 120.46,80.11Z" style="fill:#FF8000" />
<path d="M317.08,286.68A5,5 0 1 1 307.08,286.68A5,5 0 1 1 317.08,286.68Z" style="fill:#FF8000" />
<path d="M513.69,382.49A5,5 0 1 1 503.69,382.49A5,5 0 1 1 513.69,382.49Z" style="fill:#FF8000" />
<path d="M710.31,447.35A5,5 0 1 1 700.31,447.35A5,5 0 1 1 710.31,447.35Z" style="fill:#FF8000" />
<path d="M906.92,556.63A5,5 0 1 1 896.92,556.63A5,5 0 1 1 906.92,556.63Z" style="fill:#FF8000" />
<path d="M1103.5,657.9A5,5 0 1 1 1093.5,657.9A5,5 0 1 1 1103.5,657.9Z" style="fill:#FF8000" />
<path d="M1300.2,670.09A5,5 0 1 1 1290.2,670.09A5,5 0 1 1 1300.2,670.09Z" style="fill:#FF8000" />
<path d="M1496.8,679.62A5,5 0 1 1 1486.8,679.62A5,5 0 1 1 1496.8,679.62Z" style="fill:#FF8000" />
<path d="M1693.4,705.41A5,5 0 1 1 1683.4,705.41A5,5 0 1 1 1693.4,705.41Z" style="fill:#FF8000" />
<path d="M1890,747.92A5,5 0 1 1 1880,747.92A5,5 0 1 1 1890,747.92Z" style="fill:#FF8000" />
<path d="M1900,146.4L1920,146.4" style="fill:none;stroke:#FF0000;stroke-width:4" />
<path d="M1915,146.4A5,5 0 1 1 1905,146.4A5,5 0 1 1 1915,146.4Z" style="fill:#FF0000" />
<text x="1823.3" y="-141.42" transform="scale(1, -1)"
	style="font-family:Liberation Serif;font-variant:normal;font-weight:normal;font-style:normal;font-size:24px">std::list</text>
<path d="M1900,126.03L1920,126.03" style="fill:none;stroke:#0000FF;stroke-width:4" />
<path d="M1915,126.03A5,5 0 1 1 1905,126.03A5,5 0 1 1 1915,126.03Z" style="fill:#0000FF" />
<text x="1795.4" y="-121.05" transform="scale(1, -1)"
	style="font-family:Liberation Serif;font-variant:normal;font-weight:normal;font-style:normal;font-size:24px">std::deque</text>
<path d="M1900,105.66L1920,105.66" style="fill:none;stroke:#00FF00;stroke-width:4" />
<path d="M1915,105.66A5,5 0 1 1 1905,105.66A5,5 0 1 1 1915,105.66Z" style="fill:#00FF00" />
<text x="1792.7" y="-100.69" transform="scale(1, -1)"
	style="font-family:Liberation Serif;font-variant:normal;font-weight:normal;font-style:normal;font-size:24px">std::vector</text>
<path d="M1900,85.294L1920,85.294" style="fill:none;stroke:#FF8000;stroke-width:4" />
<path d="M1915,85.294A5,5 0 1 1 1905,85.294A5,5 0 1 1 1915,85.294Z" style="fill:#FF8000" />
<text x="1669.4" y="-80.319" transform="scale(1, -1)"
	style="font-family:Liberation Serif;font-variant:normal;font-weight:normal;font-style:normal;font-size:24px">preallocated std::vector</text>
</g>
</svg>
