<?xml version="1.0"?>
<!-- Generated by SVGo and Plotinum VG -->
<svg width="1920pt" height="1080pt" viewBox="0 0 1920 1080"
	xmlns="http://www.w3.org/2000/svg"
	xmlns:xlink="http://www.w3.org/1999/xlink">
<g transform="scale(1, -1) translate(0, -1080)">
<path d="M0,0L1920,0L1920,1080L0,1080Z" style="fill:#FFFFFF" />
<text x="857.25" y="-1040.9" transform="scale(1, -1)"
	style="font-family:Liberation Serif;font-variant:normal;font-weight:normal;font-style:normal;font-size:50px">push-back</text>
<text x="877.77" y="-9.7559" transform="scale(1, -1)"
	style="font-family:Liberation Serif;font-variant:normal;font-weight:normal;font-style:normal;font-size:30px">Number of elements</text>
<text x="85.462" y="-39.727" transform="scale(1, -1)"
	style="font-family:Liberation Serif;font-variant:normal;font-weight:normal;font-style:normal;font-size:20px">100000</text>
<text x="282.08" y="-39.727" transform="scale(1, -1)"
	style="font-family:Liberation Serif;font-variant:normal;font-weight:normal;font-style:normal;font-size:20px">200000</text>
<text x="478.69" y="-39.727" transform="scale(1, -1)"
	style="font-family:Liberation Serif;font-variant:normal;font-weight:normal;font-style:normal;font-size:20px">300000</text>
<text x="675.31" y="-39.727" transform="scale(1, -1)"
	style="font-family:Liberation Serif;font-variant:normal;font-weight:normal;font-style:normal;font-size:20px">400000</text>
<text x="871.92" y="-39.727" transform="scale(1, -1)"
	style="font-family:Liberation Serif;font-variant:normal;font-weight:normal;font-style:normal;font-size:20px">500000</text>
<text x="1068.5" y="-39.727" transform="scale(1, -1)"
	style="font-family:Liberation Serif;font-variant:normal;font-weight:normal;font-style:normal;font-size:20px">600000</text>
<text x="1265.2" y="-39.727" transform="scale(1, -1)"
	style="font-family:Liberation Serif;font-variant:normal;font-weight:normal;font-style:normal;font-size:20px">700000</text>
<text x="1461.8" y="-39.727" transform="scale(1, -1)"
	style="font-family:Liberation Serif;font-variant:normal;font-weight:normal;font-style:normal;font-size:20px">800000</text>
<text x="1658.4" y="-39.727" transform="scale(1, -1)"
	style="font-family:Liberation Serif;font-variant:normal;font-weight:normal;font-style:normal;font-size:20px">900000</text>
<text x="1850" y="-39.727" transform="scale(1, -1)"
	style="font-family:Liberation Serif;font-variant:normal;font-weight:normal;font-style:normal;font-size:20px">1000000</text>
<path d="M115.46,55.371L115.46,63.371" style="fill:none;stroke:#000000;stroke-width:0.5" />
<path d="M312.08,55.371L312.08,63.371" style="fill:none;stroke:#000000;stroke-width:0.5" />
<path d="M508.69,55.371L508.69,63.371" style="fill:none;stroke:#000000;stroke-width:0.5" />
<path d="M705.31,55.371L705.31,63.371" style="fill:none;stroke:#000000;stroke-width:0.5" />
<path d="M901.92,55.371L901.92,63.371" style="fill:none;stroke:#000000;stroke-width:0.5" />
<path d="M1098.5,55.371L1098.5,63.371" style="fill:none;stroke:#000000;stroke-width:0.5" />
<path d="M1295.2,55.371L1295.2,63.371" style="fill:none;stroke:#000000;stroke-width:0.5" />
<path d="M1491.8,55.371L1491.8,63.371" style="fill:none;stroke:#000000;stroke-width:0.5" />
<path d="M1688.4,55.371L1688.4,63.371" style="fill:none;stroke:#000000;stroke-width:0.5" />
<path d="M1885,55.371L1885,63.371" style="fill:none;stroke:#000000;stroke-width:0.5" />
<path d="M115.46,63.371L1885,63.371" style="fill:none;stroke:#000000;stroke-width:0.5" />
<g transform="rotate(90)">
<text x="538.49" y="23.467" transform="scale(1, -1)"
	style="font-family:Liberation Serif;font-variant:normal;font-weight:normal;font-style:normal;font-size:30px">μs</text>
</g>
<text x="39.712" y="-199.68" transform="scale(1, -1)"
	style="font-family:Liberation Serif;font-variant:normal;font-weight:normal;font-style:normal;font-size:20px">10000</text>
<text x="39.712" y="-551.94" transform="scale(1, -1)"
	style="font-family:Liberation Serif;font-variant:normal;font-weight:normal;font-style:normal;font-size:20px">30000</text>
<text x="39.712" y="-904.21" transform="scale(1, -1)"
	style="font-family:Liberation Serif;font-variant:normal;font-weight:normal;font-style:normal;font-size:20px">50000</text>
<path d="M94.712,204.25L102.71,204.25" style="fill:none;stroke:#000000;stroke-width:0.5" />
<path d="M94.712,556.51L102.71,556.51" style="fill:none;stroke:#000000;stroke-width:0.5" />
<path d="M94.712,908.78L102.71,908.78" style="fill:none;stroke:#000000;stroke-width:0.5" />
<path d="M98.712,380.38L102.71,380.38" style="fill:none;stroke:#000000;stroke-width:0.5" />
<path d="M98.712,732.65L102.71,732.65" style="fill:none;stroke:#000000;stroke-width:0.5" />
<path d="M102.71,80.11L102.71,1024.6" style="fill:none;stroke:#000000;stroke-width:0.5" />
<path d="M115.46,80.11L115.46,1024.6" style="fill:none;stroke:#808080;stroke-width:0.25" />
<path d="M312.08,80.11L312.08,1024.6" style="fill:none;stroke:#808080;stroke-width:0.25" />
<path d="M508.69,80.11L508.69,1024.6" style="fill:none;stroke:#808080;stroke-width:0.25" />
<path d="M705.31,80.11L705.31,1024.6" style="fill:none;stroke:#808080;stroke-width:0.25" />
<path d="M901.92,80.11L901.92,1024.6" style="fill:none;stroke:#808080;stroke-width:0.25" />
<path d="M1098.5,80.11L1098.5,1024.6" style="fill:none;stroke:#808080;stroke-width:0.25" />
<path d="M1295.2,80.11L1295.2,1024.6" style="fill:none;stroke:#808080;stroke-width:0.25" />
<path d="M1491.8,80.11L1491.8,1024.6" style="fill:none;stroke:#808080;stroke-width:0.25" />
<path d="M1688.4,80.11L1688.4,1024.6" style="fill:none;stroke:#808080;stroke-width:0.25" />
<path d="M1885,80.11L1885,1024.6" style="fill:none;stroke:#808080;stroke-width:0.25" />
<path d="M115.46,204.25L1885,204.25" style="fill:none;stroke:#808080;stroke-width:0.25" />
<path d="M115.46,556.51L1885,556.51" style="fill:none;stroke:#808080;stroke-width:0.25" />
<path d="M115.46,908.78L1885,908.78" style="fill:none;stroke:#808080;stroke-width:0.25" />
<path d="M115.46,163.81L312.08,268.38L508.69,383.97L705.31,441.24L901.92,477.57L1098.5,597.04L1295.2,711.16L1491.8,783.34L1688.4,866.37L1885,934.04" style="fill:none;stroke:#FF0000;stroke-width:4" />
<path d="M120.46,163.81A5,5 0 1 1 110.46,163.81A5,5 0 1 1 120.46,163.81Z" style="fill:#FF0000" />
<path d="M317.08,268.38A5,5 0 1 1 307.08,268.38A5,5 0 1 1 317.08,268.38Z" style="fill:#FF0000" />
<path d="M513.69,383.97A5,5 0 1 1 503.69,383.97A5,5 0 1 1 513.69,383.97Z" style="fill:#FF0000" />
<path d="M710.31,441.24A5,5 0 1 1 700.31,441.24A5,5 0 1 1 710.31,441.24Z" style="fill:#FF0000" />
<path d="M906.92,477.57A5,5 0 1 1 896.92,477.57A5,5 0 1 1 906.92,477.57Z" style="fill:#FF0000" />
<path d="M1103.5,597.04A5,5 0 1 1 1093.5,597.04A5,5 0 1 1 1103.5,597.04Z" style="fill:#FF0000" />
<path d="M1300.2,711.16A5,5 0 1 1 1290.2,711.16A5,5 0 1 1 1300.2,711.16Z" style="fill:#FF0000" />
<path d="M1496.8,783.34A5,5 0 1 1 1486.8,783.34A5,5 0 1 1 1496.8,783.34Z" style="fill:#FF0000" />
<path d="M1693.4,866.37A5,5 0 1 1 1683.4,866.37A5,5 0 1 1 1693.4,866.37Z" style="fill:#FF0000" />
<path d="M1890,934.04A5,5 0 1 1 1880,934.04A5,5 0 1 1 1890,934.04Z" style="fill:#FF0000" />
<path d="M115.46,96.473L312.08,122.1L508.69,181.84L705.31,188.73L901.92,226.6L1098.5,263.8L1295.2,298.25L1491.8,325.22L1688.4,363.09L1885,406.52" style="fill:none;stroke:#0000FF;stroke-width:4" />
<path d="M120.46,96.473A5,5 0 1 1 110.46,96.473A5,5 0 1 1 120.46,96.473Z" style="fill:#0000FF" />
<path d="M317.08,122.1A5,5 0 1 1 307.08,122.1A5,5 0 1 1 317.08,122.1Z" style="fill:#0000FF" />
<path d="M513.69,181.84A5,5 0 1 1 503.69,181.84A5,5 0 1 1 513.69,181.84Z" style="fill:#0000FF" />
<path d="M710.31,188.73A5,5 0 1 1 700.31,188.73A5,5 0 1 1 710.31,188.73Z" style="fill:#0000FF" />
<path d="M906.92,226.6A5,5 0 1 1 896.92,226.6A5,5 0 1 1 906.92,226.6Z" style="fill:#0000FF" />
<path d="M1103.5,263.8A5,5 0 1 1 1093.5,263.8A5,5 0 1 1 1103.5,263.8Z" style="fill:#0000FF" />
<path d="M1300.2,298.25A5,5 0 1 1 1290.2,298.25A5,5 0 1 1 1300.2,298.25Z" style="fill:#0000FF" />
<path d="M1496.8,325.22A5,5 0 1 1 1486.8,325.22A5,5 0 1 1 1496.8,325.22Z" style="fill:#0000FF" />
<path d="M1693.4,363.09A5,5 0 1 1 1683.4,363.09A5,5 0 1 1 1693.4,363.09Z" style="fill:#0000FF" />
<path d="M1890,406.52A5,5 0 1 1 1880,406.52A5,5 0 1 1 1890,406.52Z" style="fill:#0000FF" />
<path d="M115.46,80.11L312.08,110.69L508.69,146.97L705.31,191.27L901.92,255.89L1098.5,266.63L1295.2,359.19L1491.8,325.41L1688.4,354.05L1885,440.25" style="fill:none;stroke:#00FF00;stroke-width:4" />
<path d="M120.46,80.11A5,5 0 1 1 110.46,80.11A5,5 0 1 1 120.46,80.11Z" style="fill:#00FF00" />
<path d="M317.08,110.69A5,5 0 1 1 307.08,110.69A5,5 0 1 1 317.08,110.69Z" style="fill:#00FF00" />
<path d="M513.69,146.97A5,5 0 1 1 503.69,146.97A5,5 0 1 1 513.69,146.97Z" style="fill:#00FF00" />
<path d="M710.31,191.27A5,5 0 1 1 700.31,191.27A5,5 0 1 1 710.31,191.27Z" style="fill:#00FF00" />
<path d="M906.92,255.89A5,5 0 1 1 896.92,255.89A5,5 0 1 1 906.92,255.89Z" style="fill:#00FF00" />
<path d="M1103.5,266.63A5,5 0 1 1 1093.5,266.63A5,5 0 1 1 1103.5,266.63Z" style="fill:#00FF00" />
<path d="M1300.2,359.19A5,5 0 1 1 1290.2,359.19A5,5 0 1 1 1300.2,359.19Z" style="fill:#00FF00" />
<path d="M1496.8,325.41A5,5 0 1 1 1486.8,325.41A5,5 0 1 1 1496.8,325.41Z" style="fill:#00FF00" />
<path d="M1693.4,354.05A5,5 0 1 1 1683.4,354.05A5,5 0 1 1 1693.4,354.05Z" style="fill:#00FF00" />
<path d="M1890,440.25A5,5 0 1 1 1880,440.25A5,5 0 1 1 1890,440.25Z" style="fill:#00FF00" />
<path d="M115.46,81.238L312.08,116.22L508.69,163.86L705.31,202.06L901.92,263.31L1098.5,294.18L1295.2,332.17L1491.8,358.96L1688.4,349.01L1885,384.34" style="fill:none;stroke:#FF8000;stroke-width:4" />
<path d="M120.46,81.238A5,5 0 1 1 110.46,81.238A5,5 0 1 1 120.46,81.238Z" style="fill:#FF8000" />
<path d="M317.08,116.22A5,5 0 1 1 307.08,116.22A5,5 0 1 1 317.08,116.22Z" style="fill:#FF8000" />
<path d="M513.69,163.86A5,5 0 1 1 503.69,163.86A5,5 0 1 1 513.69,163.86Z" style="fill:#FF8000" />
<path d="M710.31,202.06A5,5 0 1 1 700.31,202.06A5,5 0 1 1 710.31,202.06Z" style="fill:#FF8000" />
<path d="M906.92,263.31A5,5 0 1 1 896.92,263.31A5,5 0 1 1 906.92,263.31Z" style="fill:#FF8000" />
<path d="M1103.5,294.18A5,5 0 1 1 1093.5,294.18A5,5 0 1 1 1103.5,294.18Z" style="fill:#FF8000" />
<path d="M1300.2,332.17A5,5 0 1 1 1290.2,332.17A5,5 0 1 1 1300.2,332.17Z" style="fill:#FF8000" />
<path d="M1496.8,358.96A5,5 0 1 1 1486.8,358.96A5,5 0 1 1 1496.8,358.96Z" style="fill:#FF8000" />
<path d="M1693.4,349.01A5,5 0 1 1 1683.4,349.01A5,5 0 1 1 1693.4,349.01Z" style="fill:#FF8000" />
<path d="M1890,384.34A5,5 0 1 1 1880,384.34A5,5 0 1 1 1890,384.34Z" style="fill:#FF8000" />
<path d="M1900,146.4L1920,146.4" style="fill:none;stroke:#FF0000;stroke-width:4" />
<path d="M1915,146.4A5,5 0 1 1 1905,146.4A5,5 0 1 1 1915,146.4Z" style="fill:#FF0000" />
<text x="1823.3" y="-141.42" transform="scale(1, -1)"
	style="font-family:Liberation Serif;font-variant:normal;font-weight:normal;font-style:normal;font-size:24px">std::list</text>
<path d="M1900,126.03L1920,126.03" style="fill:none;stroke:#0000FF;stroke-width:4" />
<path d="M1915,126.03A5,5 0 1 1 1905,126.03A5,5 0 1 1 1915,126.03Z" style="fill:#0000FF" />
<text x="1795.4" y="-121.05" transform="scale(1, -1)"
	style="font-family:Liberation Serif;font-variant:normal;font-weight:normal;font-style:normal;font-size:24px">std::deque</text>
<path d="M1900,105.66L1920,105.66" style="fill:none;stroke:#00FF00;stroke-width:4" />
<path d="M1915,105.66A5,5 0 1 1 1905,105.66A5,5 0 1 1 1915,105.66Z" style="fill:#00FF00" />
<text x="1792.7" y="-100.69" transform="scale(1, -1)"
	style="font-family:Liberation Serif;font-variant:normal;font-weight:normal;font-style:normal;font-size:24px">std::vector</text>
<path d="M1900,85.294L1920,85.294" style="fill:none;stroke:#FF8000;stroke-width:4" />
<path d="M1915,85.294A5,5 0 1 1 1905,85.294A5,5 0 1 1 1915,85.294Z" style="fill:#FF8000" />
<text x="1669.4" y="-80.319" transform="scale(1, -1)"
	style="font-family:Liberation Serif;font-variant:normal;font-weight:normal;font-style:normal;font-size:24px">preallocated std::vector</text>
</g>
</svg>
