<?xml version="1.0"?>
<!-- Generated by SVGo and Plotinum VG -->
<svg width="1920pt" height="1080pt" viewBox="0 0 1920 1080"
	xmlns="http://www.w3.org/2000/svg"
	xmlns:xlink="http://www.w3.org/1999/xlink">
<g transform="scale(1, -1) translate(0, -1080)">
<path d="M0,0L1920,0L1920,1080L0,1080Z" style="fill:#FFFFFF" />
<text x="735.77" y="-1040.9" transform="scale(1, -1)"
	style="font-family:Liberation Serif;font-variant:normal;font-weight:normal;font-style:normal;font-size:50px">push-back - Log Scale</text>
<text x="877.77" y="-9.7559" transform="scale(1, -1)"
	style="font-family:Liberation Serif;font-variant:normal;font-weight:normal;font-style:normal;font-size:30px">Number of elements</text>
<text x="85.462" y="-39.727" transform="scale(1, -1)"
	style="font-family:Liberation Serif;font-variant:normal;font-weight:normal;font-style:normal;font-size:20px">100000</text>
<text x="282.08" y="-39.727" transform="scale(1, -1)"
	style="font-family:Liberation Serif;font-variant:normal;font-weight:normal;font-style:normal;font-size:20px">200000</text>
<text x="478.69" y="-39.727" transform="scale(1, -1)"
	style="font-family:Liberation Serif;font-variant:normal;font-weight:normal;font-style:normal;font-size:20px">300000</text>
<text x="675.31" y="-39.727" transform="scale(1, -1)"
	style="font-family:Liberation Serif;font-variant:normal;font-weight:normal;font-style:normal;font-size:20px">400000</text>
<text x="871.92" y="-39.727" transform="scale(1, -1)"
	style="font-family:Liberation Serif;font-variant:normal;font-weight:normal;font-style:normal;font-size:20px">500000</text>
<text x="1068.5" y="-39.727" transform="scale(1, -1)"
	style="font-family:Liberation Serif;font-variant:normal;font-weight:normal;font-style:normal;font-size:20px">600000</text>
<text x="1265.2" y="-39.727" transform="scale(1, -1)"
	style="font-family:Liberation Serif;font-variant:normal;font-weight:normal;font-style:normal;font-size:20px">700000</text>
<text x="1461.8" y="-39.727" transform="scale(1, -1)"
	style="font-family:Liberation Serif;font-variant:normal;font-weight:normal;font-style:normal;font-size:20px">800000</text>
<text x="1658.4" y="-39.727" transform="scale(1, -1)"
	style="font-family:Liberation Serif;font-variant:normal;font-weight:normal;font-style:normal;font-size:20px">900000</text>
<text x="1850" y="-39.727" transform="scale(1, -1)"
	style="font-family:Liberation Serif;font-variant:normal;font-weight:normal;font-style:normal;font-size:20px">1000000</text>
<path d="M115.46,55.371L115.46,63.371" style="fill:none;stroke:#000000;stroke-width:0.5" />
<path d="M312.08,55.371L312.08,63.371" style="fill:none;stroke:#000000;stroke-width:0.5" />
<path d="M508.69,55.371L508.69,63.371" style="fill:none;stroke:#000000;stroke-width:0.5" />
<path d="M705.31,55.371L705.31,63.371" style="fill:none;stroke:#000000;stroke-width:0.5" />
<path d="M901.92,55.371L901.92,63.371" style="fill:none;stroke:#000000;stroke-width:0.5" />
<path d="M1098.5,55.371L1098.5,63.371" style="fill:none;stroke:#000000;stroke-width:0.5" />
<path d="M1295.2,55.371L1295.2,63.371" style="fill:none;stroke:#000000;stroke-width:0.5" />
<path d="M1491.8,55.371L1491.8,63.371" style="fill:none;stroke:#000000;stroke-width:0.5" />
<path d="M1688.4,55.371L1688.4,63.371" style="fill:none;stroke:#000000;stroke-width:0.5" />
<path d="M1885,55.371L1885,63.371" style="fill:none;stroke:#000000;stroke-width:0.5" />
<path d="M115.46,63.371L1885,63.371" style="fill:none;stroke:#000000;stroke-width:0.5" />
<g transform="rotate(90)">
<text x="507.38" y="23.467" transform="scale(1, -1)"
	style="font-family:Liberation Serif;font-variant:normal;font-weight:normal;font-style:normal;font-size:30px">log(μs)</text>
</g>
<text x="49.712" y="-239.57" transform="scale(1, -1)"
	style="font-family:Liberation Serif;font-variant:normal;font-weight:normal;font-style:normal;font-size:20px">5000</text>
<text x="39.712" y="-722.36" transform="scale(1, -1)"
	style="font-family:Liberation Serif;font-variant:normal;font-weight:normal;font-style:normal;font-size:20px">25000</text>
<text x="39.712" y="-898.68" transform="scale(1, -1)"
	style="font-family:Liberation Serif;font-variant:normal;font-weight:normal;font-style:normal;font-size:20px">45000</text>
<text x="39.712" y="-1009" transform="scale(1, -1)"
	style="font-family:Liberation Serif;font-variant:normal;font-weight:normal;font-style:normal;font-size:20px">65000</text>
<path d="M94.712,244.14L102.71,244.14" style="fill:none;stroke:#000000;stroke-width:0.5" />
<path d="M94.712,726.93L102.71,726.93" style="fill:none;stroke:#000000;stroke-width:0.5" />
<path d="M94.712,903.25L102.71,903.25" style="fill:none;stroke:#000000;stroke-width:0.5" />
<path d="M94.712,1013.6L102.71,1013.6" style="fill:none;stroke:#000000;stroke-width:0.5" />
<path d="M98.712,573.69L102.71,573.69" style="fill:none;stroke:#000000;stroke-width:0.5" />
<path d="M98.712,827.86L102.71,827.86" style="fill:none;stroke:#000000;stroke-width:0.5" />
<path d="M98.712,963.44L102.71,963.44" style="fill:none;stroke:#000000;stroke-width:0.5" />
<path d="M102.71,80.11L102.71,1020.7" style="fill:none;stroke:#000000;stroke-width:0.5" />
<path d="M115.46,80.11L115.46,1020.7" style="fill:none;stroke:#808080;stroke-width:0.25" />
<path d="M312.08,80.11L312.08,1020.7" style="fill:none;stroke:#808080;stroke-width:0.25" />
<path d="M508.69,80.11L508.69,1020.7" style="fill:none;stroke:#808080;stroke-width:0.25" />
<path d="M705.31,80.11L705.31,1020.7" style="fill:none;stroke:#808080;stroke-width:0.25" />
<path d="M901.92,80.11L901.92,1020.7" style="fill:none;stroke:#808080;stroke-width:0.25" />
<path d="M1098.5,80.11L1098.5,1020.7" style="fill:none;stroke:#808080;stroke-width:0.25" />
<path d="M1295.2,80.11L1295.2,1020.7" style="fill:none;stroke:#808080;stroke-width:0.25" />
<path d="M1491.8,80.11L1491.8,1020.7" style="fill:none;stroke:#808080;stroke-width:0.25" />
<path d="M1688.4,80.11L1688.4,1020.7" style="fill:none;stroke:#808080;stroke-width:0.25" />
<path d="M1885,80.11L1885,1020.7" style="fill:none;stroke:#808080;stroke-width:0.25" />
<path d="M115.46,244.14L1885,244.14" style="fill:none;stroke:#808080;stroke-width:0.25" />
<path d="M115.46,726.93L1885,726.93" style="fill:none;stroke:#808080;stroke-width:0.25" />
<path d="M115.46,903.25L1885,903.25" style="fill:none;stroke:#808080;stroke-width:0.25" />
<path d="M115.46,1013.6L1885,1013.6" style="fill:none;stroke:#808080;stroke-width:0.25" />
<path d="M115.46,317.44L312.08,525.64L508.69,644.84L705.31,710.94L901.92,834.81L1098.5,842.39L1295.2,904.33L1491.8,929.04L1688.4,969.17L1885,992.13" style="fill:none;stroke:#FF0000;stroke-width:4" />
<path d="M120.46,317.44A5,5 0 1 1 110.46,317.44A5,5 0 1 1 120.46,317.44Z" style="fill:#FF0000" />
<path d="M317.08,525.64A5,5 0 1 1 307.08,525.64A5,5 0 1 1 317.08,525.64Z" style="fill:#FF0000" />
<path d="M513.69,644.84A5,5 0 1 1 503.69,644.84A5,5 0 1 1 513.69,644.84Z" style="fill:#FF0000" />
<path d="M710.31,710.94A5,5 0 1 1 700.31,710.94A5,5 0 1 1 710.31,710.94Z" style="fill:#FF0000" />
<path d="M906.92,834.81A5,5 0 1 1 896.92,834.81A5,5 0 1 1 906.92,834.81Z" style="fill:#FF0000" />
<path d="M1103.5,842.39A5,5 0 1 1 1093.5,842.39A5,5 0 1 1 1103.5,842.39Z" style="fill:#FF0000" />
<path d="M1300.2,904.33A5,5 0 1 1 1290.2,904.33A5,5 0 1 1 1300.2,904.33Z" style="fill:#FF0000" />
<path d="M1496.8,929.04A5,5 0 1 1 1486.8,929.04A5,5 0 1 1 1496.8,929.04Z" style="fill:#FF0000" />
<path d="M1693.4,969.17A5,5 0 1 1 1683.4,969.17A5,5 0 1 1 1693.4,969.17Z" style="fill:#FF0000" />
<path d="M1890,992.13A5,5 0 1 1 1880,992.13A5,5 0 1 1 1890,992.13Z" style="fill:#FF0000" />
<path d="M115.46,293.84L312.08,343.09L508.69,439.1L705.31,571.44L901.92,616.61L1098.5,719.59L1295.2,833.44L1491.8,859.23L1688.4,874.91L1885,912.75" style="fill:none;stroke:#0000FF;stroke-width:4" />
<path d="M120.46,293.84A5,5 0 1 1 110.46,293.84A5,5 0 1 1 120.46,293.84Z" style="fill:#0000FF" />
<path d="M317.08,343.09A5,5 0 1 1 307.08,343.09A5,5 0 1 1 317.08,343.09Z" style="fill:#0000FF" />
<path d="M513.69,439.1A5,5 0 1 1 503.69,439.1A5,5 0 1 1 513.69,439.1Z" style="fill:#0000FF" />
<path d="M710.31,571.44A5,5 0 1 1 700.31,571.44A5,5 0 1 1 710.31,571.44Z" style="fill:#0000FF" />
<path d="M906.92,616.61A5,5 0 1 1 896.92,616.61A5,5 0 1 1 906.92,616.61Z" style="fill:#0000FF" />
<path d="M1103.5,719.59A5,5 0 1 1 1093.5,719.59A5,5 0 1 1 1103.5,719.59Z" style="fill:#0000FF" />
<path d="M1300.2,833.44A5,5 0 1 1 1290.2,833.44A5,5 0 1 1 1300.2,833.44Z" style="fill:#0000FF" />
<path d="M1496.8,859.23A5,5 0 1 1 1486.8,859.23A5,5 0 1 1 1496.8,859.23Z" style="fill:#0000FF" />
<path d="M1693.4,874.91A5,5 0 1 1 1683.4,874.91A5,5 0 1 1 1693.4,874.91Z" style="fill:#0000FF" />
<path d="M1890,912.75A5,5 0 1 1 1880,912.75A5,5 0 1 1 1890,912.75Z" style="fill:#0000FF" />
<path d="M115.46,115.19L312.08,324.04L508.69,515.35L705.31,573.61L901.92,684.63L1098.5,790.03L1295.2,773.82L1491.8,778.7L1688.4,800.05L1885,857.57" style="fill:none;stroke:#00FF00;stroke-width:4" />
<path d="M120.46,115.19A5,5 0 1 1 110.46,115.19A5,5 0 1 1 120.46,115.19Z" style="fill:#00FF00" />
<path d="M317.08,324.04A5,5 0 1 1 307.08,324.04A5,5 0 1 1 317.08,324.04Z" style="fill:#00FF00" />
<path d="M513.69,515.35A5,5 0 1 1 503.69,515.35A5,5 0 1 1 513.69,515.35Z" style="fill:#00FF00" />
<path d="M710.31,573.61A5,5 0 1 1 700.31,573.61A5,5 0 1 1 710.31,573.61Z" style="fill:#00FF00" />
<path d="M906.92,684.63A5,5 0 1 1 896.92,684.63A5,5 0 1 1 906.92,684.63Z" style="fill:#00FF00" />
<path d="M1103.5,790.03A5,5 0 1 1 1093.5,790.03A5,5 0 1 1 1103.5,790.03Z" style="fill:#00FF00" />
<path d="M1300.2,773.82A5,5 0 1 1 1290.2,773.82A5,5 0 1 1 1300.2,773.82Z" style="fill:#00FF00" />
<path d="M1496.8,778.7A5,5 0 1 1 1486.8,778.7A5,5 0 1 1 1496.8,778.7Z" style="fill:#00FF00" />
<path d="M1693.4,800.05A5,5 0 1 1 1683.4,800.05A5,5 0 1 1 1693.4,800.05Z" style="fill:#00FF00" />
<path d="M1890,857.57A5,5 0 1 1 1880,857.57A5,5 0 1 1 1890,857.57Z" style="fill:#00FF00" />
<path d="M115.46,80.11L312.08,239.11L508.69,375.99L705.31,449.89L901.92,510.51L1098.5,663.31L1295.2,664.11L1491.8,691.63L1688.4,740.69L1885,762.34" style="fill:none;stroke:#FF8000;stroke-width:4" />
<path d="M120.46,80.11A5,5 0 1 1 110.46,80.11A5,5 0 1 1 120.46,80.11Z" style="fill:#FF8000" />
<path d="M317.08,239.11A5,5 0 1 1 307.08,239.11A5,5 0 1 1 317.08,239.11Z" style="fill:#FF8000" />
<path d="M513.69,375.99A5,5 0 1 1 503.69,375.99A5,5 0 1 1 513.69,375.99Z" style="fill:#FF8000" />
<path d="M710.31,449.89A5,5 0 1 1 700.31,449.89A5,5 0 1 1 710.31,449.89Z" style="fill:#FF8000" />
<path d="M906.92,510.51A5,5 0 1 1 896.92,510.51A5,5 0 1 1 906.92,510.51Z" style="fill:#FF8000" />
<path d="M1103.5,663.31A5,5 0 1 1 1093.5,663.31A5,5 0 1 1 1103.5,663.31Z" style="fill:#FF8000" />
<path d="M1300.2,664.11A5,5 0 1 1 1290.2,664.11A5,5 0 1 1 1300.2,664.11Z" style="fill:#FF8000" />
<path d="M1496.8,691.63A5,5 0 1 1 1486.8,691.63A5,5 0 1 1 1496.8,691.63Z" style="fill:#FF8000" />
<path d="M1693.4,740.69A5,5 0 1 1 1683.4,740.69A5,5 0 1 1 1693.4,740.69Z" style="fill:#FF8000" />
<path d="M1890,762.34A5,5 0 1 1 1880,762.34A5,5 0 1 1 1890,762.34Z" style="fill:#FF8000" />
<path d="M1900,146.4L1920,146.4" style="fill:none;stroke:#FF0000;stroke-width:4" />
<path d="M1915,146.4A5,5 0 1 1 1905,146.4A5,5 0 1 1 1915,146.4Z" style="fill:#FF0000" />
<text x="1823.3" y="-141.42" transform="scale(1, -1)"
	style="font-family:Liberation Serif;font-variant:normal;font-weight:normal;font-style:normal;font-size:24px">std::list</text>
<path d="M1900,126.03L1920,126.03" style="fill:none;stroke:#0000FF;stroke-width:4" />
<path d="M1915,126.03A5,5 0 1 1 1905,126.03A5,5 0 1 1 1915,126.03Z" style="fill:#0000FF" />
<text x="1795.4" y="-121.05" transform="scale(1, -1)"
	style="font-family:Liberation Serif;font-variant:normal;font-weight:normal;font-style:normal;font-size:24px">std::deque</text>
<path d="M1900,105.66L1920,105.66" style="fill:none;stroke:#00FF00;stroke-width:4" />
<path d="M1915,105.66A5,5 0 1 1 1905,105.66A5,5 0 1 1 1915,105.66Z" style="fill:#00FF00" />
<text x="1792.7" y="-100.69" transform="scale(1, -1)"
	style="font-family:Liberation Serif;font-variant:normal;font-weight:normal;font-style:normal;font-size:24px">std::vector</text>
<path d="M1900,85.294L1920,85.294" style="fill:none;stroke:#FF8000;stroke-width:4" />
<path d="M1915,85.294A5,5 0 1 1 1905,85.294A5,5 0 1 1 1915,85.294Z" style="fill:#FF8000" />
<text x="1669.4" y="-80.319" transform="scale(1, -1)"
	style="font-family:Liberation Serif;font-variant:normal;font-weight:normal;font-style:normal;font-size:24px">preallocated std::vector</text>
</g>
</svg>
