<?xml version="1.0"?>
<!-- Generated by SVGo and Plotinum VG -->
<svg width="1920pt" height="1080pt" viewBox="0 0 1920 1080"
	xmlns="http://www.w3.org/2000/svg"
	xmlns:xlink="http://www.w3.org/1999/xlink">
<g transform="scale(1, -1) translate(0, -1080)">
<path d="M0,0L1920,0L1920,1080L0,1080Z" style="fill:#FFFFFF" />
<text x="857.25" y="-1040.9" transform="scale(1, -1)"
	style="font-family:Liberation Serif;font-variant:normal;font-weight:normal;font-style:normal;font-size:50px">push-back</text>
<text x="882.77" y="-9.7559" transform="scale(1, -1)"
	style="font-family:Liberation Serif;font-variant:normal;font-weight:normal;font-style:normal;font-size:30px">Number of elements</text>
<text x="95.462" y="-39.727" transform="scale(1, -1)"
	style="font-family:Liberation Serif;font-variant:normal;font-weight:normal;font-style:normal;font-size:20px">100000</text>
<text x="290.97" y="-39.727" transform="scale(1, -1)"
	style="font-family:Liberation Serif;font-variant:normal;font-weight:normal;font-style:normal;font-size:20px">200000</text>
<text x="486.47" y="-39.727" transform="scale(1, -1)"
	style="font-family:Liberation Serif;font-variant:normal;font-weight:normal;font-style:normal;font-size:20px">300000</text>
<text x="681.97" y="-39.727" transform="scale(1, -1)"
	style="font-family:Liberation Serif;font-variant:normal;font-weight:normal;font-style:normal;font-size:20px">400000</text>
<text x="877.48" y="-39.727" transform="scale(1, -1)"
	style="font-family:Liberation Serif;font-variant:normal;font-weight:normal;font-style:normal;font-size:20px">500000</text>
<text x="1073" y="-39.727" transform="scale(1, -1)"
	style="font-family:Liberation Serif;font-variant:normal;font-weight:normal;font-style:normal;font-size:20px">600000</text>
<text x="1268.5" y="-39.727" transform="scale(1, -1)"
	style="font-family:Liberation Serif;font-variant:normal;font-weight:normal;font-style:normal;font-size:20px">700000</text>
<text x="1464" y="-39.727" transform="scale(1, -1)"
	style="font-family:Liberation Serif;font-variant:normal;font-weight:normal;font-style:normal;font-size:20px">800000</text>
<text x="1659.5" y="-39.727" transform="scale(1, -1)"
	style="font-family:Liberation Serif;font-variant:normal;font-weight:normal;font-style:normal;font-size:20px">900000</text>
<text x="1850" y="-39.727" transform="scale(1, -1)"
	style="font-family:Liberation Serif;font-variant:normal;font-weight:normal;font-style:normal;font-size:20px">1000000</text>
<path d="M125.46,55.371L125.46,63.371" style="fill:none;stroke:#000000;stroke-width:0.5" />
<path d="M320.97,55.371L320.97,63.371" style="fill:none;stroke:#000000;stroke-width:0.5" />
<path d="M516.47,55.371L516.47,63.371" style="fill:none;stroke:#000000;stroke-width:0.5" />
<path d="M711.97,55.371L711.97,63.371" style="fill:none;stroke:#000000;stroke-width:0.5" />
<path d="M907.48,55.371L907.48,63.371" style="fill:none;stroke:#000000;stroke-width:0.5" />
<path d="M1103,55.371L1103,63.371" style="fill:none;stroke:#000000;stroke-width:0.5" />
<path d="M1298.5,55.371L1298.5,63.371" style="fill:none;stroke:#000000;stroke-width:0.5" />
<path d="M1494,55.371L1494,63.371" style="fill:none;stroke:#000000;stroke-width:0.5" />
<path d="M1689.5,55.371L1689.5,63.371" style="fill:none;stroke:#000000;stroke-width:0.5" />
<path d="M1885,55.371L1885,63.371" style="fill:none;stroke:#000000;stroke-width:0.5" />
<path d="M125.46,63.371L1885,63.371" style="fill:none;stroke:#000000;stroke-width:0.5" />
<g transform="rotate(90)">
<text x="538.49" y="23.467" transform="scale(1, -1)"
	style="font-family:Liberation Serif;font-variant:normal;font-weight:normal;font-style:normal;font-size:30px">μs</text>
</g>
<text x="49.712" y="-207.36" transform="scale(1, -1)"
	style="font-family:Liberation Serif;font-variant:normal;font-weight:normal;font-style:normal;font-size:20px">20000</text>
<text x="49.712" y="-536.45" transform="scale(1, -1)"
	style="font-family:Liberation Serif;font-variant:normal;font-weight:normal;font-style:normal;font-size:20px">60000</text>
<text x="39.712" y="-865.53" transform="scale(1, -1)"
	style="font-family:Liberation Serif;font-variant:normal;font-weight:normal;font-style:normal;font-size:20px">100000</text>
<path d="M104.71,211.93L112.71,211.93" style="fill:none;stroke:#000000;stroke-width:0.5" />
<path d="M104.71,541.02L112.71,541.02" style="fill:none;stroke:#000000;stroke-width:0.5" />
<path d="M104.71,870.1L112.71,870.1" style="fill:none;stroke:#000000;stroke-width:0.5" />
<path d="M108.71,129.66L112.71,129.66" style="fill:none;stroke:#000000;stroke-width:0.5" />
<path d="M108.71,294.2L112.71,294.2" style="fill:none;stroke:#000000;stroke-width:0.5" />
<path d="M108.71,376.48L112.71,376.48" style="fill:none;stroke:#000000;stroke-width:0.5" />
<path d="M108.71,458.75L112.71,458.75" style="fill:none;stroke:#000000;stroke-width:0.5" />
<path d="M108.71,623.29L112.71,623.29" style="fill:none;stroke:#000000;stroke-width:0.5" />
<path d="M108.71,705.56L112.71,705.56" style="fill:none;stroke:#000000;stroke-width:0.5" />
<path d="M108.71,787.83L112.71,787.83" style="fill:none;stroke:#000000;stroke-width:0.5" />
<path d="M108.71,952.37L112.71,952.37" style="fill:none;stroke:#000000;stroke-width:0.5" />
<path d="M112.71,80.11L112.71,1024.6" style="fill:none;stroke:#000000;stroke-width:0.5" />
<path d="M125.46,80.11L125.46,1024.6" style="fill:none;stroke:#808080;stroke-width:0.25" />
<path d="M320.97,80.11L320.97,1024.6" style="fill:none;stroke:#808080;stroke-width:0.25" />
<path d="M516.47,80.11L516.47,1024.6" style="fill:none;stroke:#808080;stroke-width:0.25" />
<path d="M711.97,80.11L711.97,1024.6" style="fill:none;stroke:#808080;stroke-width:0.25" />
<path d="M907.48,80.11L907.48,1024.6" style="fill:none;stroke:#808080;stroke-width:0.25" />
<path d="M1103,80.11L1103,1024.6" style="fill:none;stroke:#808080;stroke-width:0.25" />
<path d="M1298.5,80.11L1298.5,1024.6" style="fill:none;stroke:#808080;stroke-width:0.25" />
<path d="M1494,80.11L1494,1024.6" style="fill:none;stroke:#808080;stroke-width:0.25" />
<path d="M1689.5,80.11L1689.5,1024.6" style="fill:none;stroke:#808080;stroke-width:0.25" />
<path d="M1885,80.11L1885,1024.6" style="fill:none;stroke:#808080;stroke-width:0.25" />
<path d="M125.46,211.93L1885,211.93" style="fill:none;stroke:#808080;stroke-width:0.25" />
<path d="M125.46,541.02L1885,541.02" style="fill:none;stroke:#808080;stroke-width:0.25" />
<path d="M125.46,870.1L1885,870.1" style="fill:none;stroke:#808080;stroke-width:0.25" />
<path d="M125.46,113.96L320.97,133.93L516.47,172.82L711.97,213.37L907.48,276.08L1103,318.4L1298.5,358.06L1494,511.98L1689.5,591.66L1885,797.52" style="fill:none;stroke:#FF0000;stroke-width:4" />
<path d="M130.46,113.96A5,5 0 1 1 120.46,113.96A5,5 0 1 1 130.46,113.96Z" style="fill:#FF0000" />
<path d="M325.97,133.93A5,5 0 1 1 315.97,133.93A5,5 0 1 1 325.97,133.93Z" style="fill:#FF0000" />
<path d="M521.47,172.82A5,5 0 1 1 511.47,172.82A5,5 0 1 1 521.47,172.82Z" style="fill:#FF0000" />
<path d="M716.97,213.37A5,5 0 1 1 706.97,213.37A5,5 0 1 1 716.97,213.37Z" style="fill:#FF0000" />
<path d="M912.48,276.08A5,5 0 1 1 902.48,276.08A5,5 0 1 1 912.48,276.08Z" style="fill:#FF0000" />
<path d="M1108,318.4A5,5 0 1 1 1098,318.4A5,5 0 1 1 1108,318.4Z" style="fill:#FF0000" />
<path d="M1303.5,358.06A5,5 0 1 1 1293.5,358.06A5,5 0 1 1 1303.5,358.06Z" style="fill:#FF0000" />
<path d="M1499,511.98A5,5 0 1 1 1489,511.98A5,5 0 1 1 1499,511.98Z" style="fill:#FF0000" />
<path d="M1694.5,591.66A5,5 0 1 1 1684.5,591.66A5,5 0 1 1 1694.5,591.66Z" style="fill:#FF0000" />
<path d="M1890,797.52A5,5 0 1 1 1880,797.52A5,5 0 1 1 1890,797.52Z" style="fill:#FF0000" />
<path d="M125.46,104.37L320.97,154.31L516.47,230.4L711.97,244.31L907.48,270.82L1103,412.81L1298.5,431.36L1494,480.48L1689.5,481.58L1885,505.34" style="fill:none;stroke:#0000FF;stroke-width:4" />
<path d="M130.46,104.37A5,5 0 1 1 120.46,104.37A5,5 0 1 1 130.46,104.37Z" style="fill:#0000FF" />
<path d="M325.97,154.31A5,5 0 1 1 315.97,154.31A5,5 0 1 1 325.97,154.31Z" style="fill:#0000FF" />
<path d="M521.47,230.4A5,5 0 1 1 511.47,230.4A5,5 0 1 1 521.47,230.4Z" style="fill:#0000FF" />
<path d="M716.97,244.31A5,5 0 1 1 706.97,244.31A5,5 0 1 1 716.97,244.31Z" style="fill:#0000FF" />
<path d="M912.48,270.82A5,5 0 1 1 902.48,270.82A5,5 0 1 1 912.48,270.82Z" style="fill:#0000FF" />
<path d="M1108,412.81A5,5 0 1 1 1098,412.81A5,5 0 1 1 1108,412.81Z" style="fill:#0000FF" />
<path d="M1303.5,431.36A5,5 0 1 1 1293.5,431.36A5,5 0 1 1 1303.5,431.36Z" style="fill:#0000FF" />
<path d="M1499,480.48A5,5 0 1 1 1489,480.48A5,5 0 1 1 1499,480.48Z" style="fill:#0000FF" />
<path d="M1694.5,481.58A5,5 0 1 1 1684.5,481.58A5,5 0 1 1 1694.5,481.58Z" style="fill:#0000FF" />
<path d="M1890,505.34A5,5 0 1 1 1880,505.34A5,5 0 1 1 1890,505.34Z" style="fill:#0000FF" />
<path d="M125.46,80.11L320.97,110.07L516.47,155.48L711.97,179.43L907.48,211.57L1103,256.99L1298.5,277.84L1494,325.72L1689.5,353.63L1885,379.11" style="fill:none;stroke:#00FF00;stroke-width:4" />
<path d="M130.46,80.11A5,5 0 1 1 120.46,80.11A5,5 0 1 1 130.46,80.11Z" style="fill:#00FF00" />
<path d="M325.97,110.07A5,5 0 1 1 315.97,110.07A5,5 0 1 1 325.97,110.07Z" style="fill:#00FF00" />
<path d="M521.47,155.48A5,5 0 1 1 511.47,155.48A5,5 0 1 1 521.47,155.48Z" style="fill:#00FF00" />
<path d="M716.97,179.43A5,5 0 1 1 706.97,179.43A5,5 0 1 1 716.97,179.43Z" style="fill:#00FF00" />
<path d="M912.48,211.57A5,5 0 1 1 902.48,211.57A5,5 0 1 1 912.48,211.57Z" style="fill:#00FF00" />
<path d="M1108,256.99A5,5 0 1 1 1098,256.99A5,5 0 1 1 1108,256.99Z" style="fill:#00FF00" />
<path d="M1303.5,277.84A5,5 0 1 1 1293.5,277.84A5,5 0 1 1 1303.5,277.84Z" style="fill:#00FF00" />
<path d="M1499,325.72A5,5 0 1 1 1489,325.72A5,5 0 1 1 1499,325.72Z" style="fill:#00FF00" />
<path d="M1694.5,353.63A5,5 0 1 1 1684.5,353.63A5,5 0 1 1 1694.5,353.63Z" style="fill:#00FF00" />
<path d="M1890,379.11A5,5 0 1 1 1880,379.11A5,5 0 1 1 1890,379.11Z" style="fill:#00FF00" />
<path d="M125.46,117.1L320.97,167.75L516.47,227.33L711.97,282.33L907.48,352.17L1103,503.14L1298.5,608.37L1494,784.88L1689.5,877.71L1885,935.79" style="fill:none;stroke:#FF8000;stroke-width:4" />
<path d="M130.46,117.1A5,5 0 1 1 120.46,117.1A5,5 0 1 1 130.46,117.1Z" style="fill:#FF8000" />
<path d="M325.97,167.75A5,5 0 1 1 315.97,167.75A5,5 0 1 1 325.97,167.75Z" style="fill:#FF8000" />
<path d="M521.47,227.33A5,5 0 1 1 511.47,227.33A5,5 0 1 1 521.47,227.33Z" style="fill:#FF8000" />
<path d="M716.97,282.33A5,5 0 1 1 706.97,282.33A5,5 0 1 1 716.97,282.33Z" style="fill:#FF8000" />
<path d="M912.48,352.17A5,5 0 1 1 902.48,352.17A5,5 0 1 1 912.48,352.17Z" style="fill:#FF8000" />
<path d="M1108,503.14A5,5 0 1 1 1098,503.14A5,5 0 1 1 1108,503.14Z" style="fill:#FF8000" />
<path d="M1303.5,608.37A5,5 0 1 1 1293.5,608.37A5,5 0 1 1 1303.5,608.37Z" style="fill:#FF8000" />
<path d="M1499,784.88A5,5 0 1 1 1489,784.88A5,5 0 1 1 1499,784.88Z" style="fill:#FF8000" />
<path d="M1694.5,877.71A5,5 0 1 1 1684.5,877.71A5,5 0 1 1 1694.5,877.71Z" style="fill:#FF8000" />
<path d="M1890,935.79A5,5 0 1 1 1880,935.79A5,5 0 1 1 1890,935.79Z" style="fill:#FF8000" />
<path d="M1900,146.4L1920,146.4" style="fill:none;stroke:#FF0000;stroke-width:4" />
<path d="M1915,146.4A5,5 0 1 1 1905,146.4A5,5 0 1 1 1915,146.4Z" style="fill:#FF0000" />
<text x="1795.4" y="-141.42" transform="scale(1, -1)"
	style="font-family:Liberation Serif;font-variant:normal;font-weight:normal;font-style:normal;font-size:24px">std::deque</text>
<path d="M1900,126.03L1920,126.03" style="fill:none;stroke:#0000FF;stroke-width:4" />
<path d="M1915,126.03A5,5 0 1 1 1905,126.03A5,5 0 1 1 1915,126.03Z" style="fill:#0000FF" />
<text x="1792.7" y="-121.05" transform="scale(1, -1)"
	style="font-family:Liberation Serif;font-variant:normal;font-weight:normal;font-style:normal;font-size:24px">std::vector</text>
<path d="M1900,105.66L1920,105.66" style="fill:none;stroke:#00FF00;stroke-width:4" />
<path d="M1915,105.66A5,5 0 1 1 1905,105.66A5,5 0 1 1 1915,105.66Z" style="fill:#00FF00" />
<text x="1669.4" y="-100.69" transform="scale(1, -1)"
	style="font-family:Liberation Serif;font-variant:normal;font-weight:normal;font-style:normal;font-size:24px">preallocated std::vector</text>
<path d="M1900,85.294L1920,85.294" style="fill:none;stroke:#FF8000;stroke-width:4" />
<path d="M1915,85.294A5,5 0 1 1 1905,85.294A5,5 0 1 1 1915,85.294Z" style="fill:#FF8000" />
<text x="1823.3" y="-80.319" transform="scale(1, -1)"
	style="font-family:Liberation Serif;font-variant:normal;font-weight:normal;font-style:normal;font-size:24px">std::list</text>
</g>
</svg>
