<?xml version="1.0"?>
<!-- Generated by SVGo and Plotinum VG -->
<svg width="1920pt" height="1080pt" viewBox="0 0 1920 1080"
	xmlns="http://www.w3.org/2000/svg"
	xmlns:xlink="http://www.w3.org/1999/xlink">
<g transform="scale(1, -1) translate(0, -1080)">
<path d="M0,0L1920,0L1920,1080L0,1080Z" style="fill:#FFFFFF" />
<text x="857.25" y="-1040.9" transform="scale(1, -1)"
	style="font-family:Liberation Serif;font-variant:normal;font-weight:normal;font-style:normal;font-size:50px">push-back</text>
<text x="877.77" y="-9.7559" transform="scale(1, -1)"
	style="font-family:Liberation Serif;font-variant:normal;font-weight:normal;font-style:normal;font-size:30px">Number of elements</text>
<text x="85.462" y="-39.727" transform="scale(1, -1)"
	style="font-family:Liberation Serif;font-variant:normal;font-weight:normal;font-style:normal;font-size:20px">100000</text>
<text x="282.08" y="-39.727" transform="scale(1, -1)"
	style="font-family:Liberation Serif;font-variant:normal;font-weight:normal;font-style:normal;font-size:20px">200000</text>
<text x="478.69" y="-39.727" transform="scale(1, -1)"
	style="font-family:Liberation Serif;font-variant:normal;font-weight:normal;font-style:normal;font-size:20px">300000</text>
<text x="675.31" y="-39.727" transform="scale(1, -1)"
	style="font-family:Liberation Serif;font-variant:normal;font-weight:normal;font-style:normal;font-size:20px">400000</text>
<text x="871.92" y="-39.727" transform="scale(1, -1)"
	style="font-family:Liberation Serif;font-variant:normal;font-weight:normal;font-style:normal;font-size:20px">500000</text>
<text x="1068.5" y="-39.727" transform="scale(1, -1)"
	style="font-family:Liberation Serif;font-variant:normal;font-weight:normal;font-style:normal;font-size:20px">600000</text>
<text x="1265.2" y="-39.727" transform="scale(1, -1)"
	style="font-family:Liberation Serif;font-variant:normal;font-weight:normal;font-style:normal;font-size:20px">700000</text>
<text x="1461.8" y="-39.727" transform="scale(1, -1)"
	style="font-family:Liberation Serif;font-variant:normal;font-weight:normal;font-style:normal;font-size:20px">800000</text>
<text x="1658.4" y="-39.727" transform="scale(1, -1)"
	style="font-family:Liberation Serif;font-variant:normal;font-weight:normal;font-style:normal;font-size:20px">900000</text>
<text x="1850" y="-39.727" transform="scale(1, -1)"
	style="font-family:Liberation Serif;font-variant:normal;font-weight:normal;font-style:normal;font-size:20px">1000000</text>
<path d="M115.46,55.371L115.46,63.371" style="fill:none;stroke:#000000;stroke-width:0.5" />
<path d="M312.08,55.371L312.08,63.371" style="fill:none;stroke:#000000;stroke-width:0.5" />
<path d="M508.69,55.371L508.69,63.371" style="fill:none;stroke:#000000;stroke-width:0.5" />
<path d="M705.31,55.371L705.31,63.371" style="fill:none;stroke:#000000;stroke-width:0.5" />
<path d="M901.92,55.371L901.92,63.371" style="fill:none;stroke:#000000;stroke-width:0.5" />
<path d="M1098.5,55.371L1098.5,63.371" style="fill:none;stroke:#000000;stroke-width:0.5" />
<path d="M1295.2,55.371L1295.2,63.371" style="fill:none;stroke:#000000;stroke-width:0.5" />
<path d="M1491.8,55.371L1491.8,63.371" style="fill:none;stroke:#000000;stroke-width:0.5" />
<path d="M1688.4,55.371L1688.4,63.371" style="fill:none;stroke:#000000;stroke-width:0.5" />
<path d="M1885,55.371L1885,63.371" style="fill:none;stroke:#000000;stroke-width:0.5" />
<path d="M115.46,63.371L1885,63.371" style="fill:none;stroke:#000000;stroke-width:0.5" />
<g transform="rotate(90)">
<text x="538.49" y="23.467" transform="scale(1, -1)"
	style="font-family:Liberation Serif;font-variant:normal;font-weight:normal;font-style:normal;font-size:30px">μs</text>
</g>
<text x="39.712" y="-341.53" transform="scale(1, -1)"
	style="font-family:Liberation Serif;font-variant:normal;font-weight:normal;font-style:normal;font-size:20px">20000</text>
<text x="39.712" y="-647.96" transform="scale(1, -1)"
	style="font-family:Liberation Serif;font-variant:normal;font-weight:normal;font-style:normal;font-size:20px">40000</text>
<text x="39.712" y="-954.39" transform="scale(1, -1)"
	style="font-family:Liberation Serif;font-variant:normal;font-weight:normal;font-style:normal;font-size:20px">60000</text>
<path d="M94.712,346.1L102.71,346.1" style="fill:none;stroke:#000000;stroke-width:0.5" />
<path d="M94.712,652.53L102.71,652.53" style="fill:none;stroke:#000000;stroke-width:0.5" />
<path d="M94.712,958.96L102.71,958.96" style="fill:none;stroke:#000000;stroke-width:0.5" />
<path d="M98.712,192.89L102.71,192.89" style="fill:none;stroke:#000000;stroke-width:0.5" />
<path d="M98.712,499.32L102.71,499.32" style="fill:none;stroke:#000000;stroke-width:0.5" />
<path d="M98.712,805.74L102.71,805.74" style="fill:none;stroke:#000000;stroke-width:0.5" />
<path d="M102.71,80.11L102.71,1024.6" style="fill:none;stroke:#000000;stroke-width:0.5" />
<path d="M115.46,80.11L115.46,1024.6" style="fill:none;stroke:#808080;stroke-width:0.25" />
<path d="M312.08,80.11L312.08,1024.6" style="fill:none;stroke:#808080;stroke-width:0.25" />
<path d="M508.69,80.11L508.69,1024.6" style="fill:none;stroke:#808080;stroke-width:0.25" />
<path d="M705.31,80.11L705.31,1024.6" style="fill:none;stroke:#808080;stroke-width:0.25" />
<path d="M901.92,80.11L901.92,1024.6" style="fill:none;stroke:#808080;stroke-width:0.25" />
<path d="M1098.5,80.11L1098.5,1024.6" style="fill:none;stroke:#808080;stroke-width:0.25" />
<path d="M1295.2,80.11L1295.2,1024.6" style="fill:none;stroke:#808080;stroke-width:0.25" />
<path d="M1491.8,80.11L1491.8,1024.6" style="fill:none;stroke:#808080;stroke-width:0.25" />
<path d="M1688.4,80.11L1688.4,1024.6" style="fill:none;stroke:#808080;stroke-width:0.25" />
<path d="M1885,80.11L1885,1024.6" style="fill:none;stroke:#808080;stroke-width:0.25" />
<path d="M115.46,346.1L1885,346.1" style="fill:none;stroke:#808080;stroke-width:0.25" />
<path d="M115.46,652.53L1885,652.53" style="fill:none;stroke:#808080;stroke-width:0.25" />
<path d="M115.46,958.96L1885,958.96" style="fill:none;stroke:#808080;stroke-width:0.25" />
<path d="M115.46,151.55L312.08,227.7L508.69,292.07L705.31,382.52L901.92,466.93L1098.5,667.06L1295.2,759.08L1491.8,784.42L1688.4,810.86L1885,935.09" style="fill:none;stroke:#FF0000;stroke-width:4" />
<path d="M120.46,151.55A5,5 0 1 1 110.46,151.55A5,5 0 1 1 120.46,151.55Z" style="fill:#FF0000" />
<path d="M317.08,227.7A5,5 0 1 1 307.08,227.7A5,5 0 1 1 317.08,227.7Z" style="fill:#FF0000" />
<path d="M513.69,292.07A5,5 0 1 1 503.69,292.07A5,5 0 1 1 513.69,292.07Z" style="fill:#FF0000" />
<path d="M710.31,382.52A5,5 0 1 1 700.31,382.52A5,5 0 1 1 710.31,382.52Z" style="fill:#FF0000" />
<path d="M906.92,466.93A5,5 0 1 1 896.92,466.93A5,5 0 1 1 906.92,466.93Z" style="fill:#FF0000" />
<path d="M1103.5,667.06A5,5 0 1 1 1093.5,667.06A5,5 0 1 1 1103.5,667.06Z" style="fill:#FF0000" />
<path d="M1300.2,759.08A5,5 0 1 1 1290.2,759.08A5,5 0 1 1 1300.2,759.08Z" style="fill:#FF0000" />
<path d="M1496.8,784.42A5,5 0 1 1 1486.8,784.42A5,5 0 1 1 1496.8,784.42Z" style="fill:#FF0000" />
<path d="M1693.4,810.86A5,5 0 1 1 1683.4,810.86A5,5 0 1 1 1693.4,810.86Z" style="fill:#FF0000" />
<path d="M1890,935.09A5,5 0 1 1 1880,935.09A5,5 0 1 1 1890,935.09Z" style="fill:#FF0000" />
<path d="M115.46,97.224L312.08,114.64L508.69,145.88L705.31,184.79L901.92,223.58L1098.5,239.9L1295.2,269.62L1491.8,330.4L1688.4,342.9L1885,401.45" style="fill:none;stroke:#0000FF;stroke-width:4" />
<path d="M120.46,97.224A5,5 0 1 1 110.46,97.224A5,5 0 1 1 120.46,97.224Z" style="fill:#0000FF" />
<path d="M317.08,114.64A5,5 0 1 1 307.08,114.64A5,5 0 1 1 317.08,114.64Z" style="fill:#0000FF" />
<path d="M513.69,145.88A5,5 0 1 1 503.69,145.88A5,5 0 1 1 513.69,145.88Z" style="fill:#0000FF" />
<path d="M710.31,184.79A5,5 0 1 1 700.31,184.79A5,5 0 1 1 710.31,184.79Z" style="fill:#0000FF" />
<path d="M906.92,223.58A5,5 0 1 1 896.92,223.58A5,5 0 1 1 906.92,223.58Z" style="fill:#0000FF" />
<path d="M1103.5,239.9A5,5 0 1 1 1093.5,239.9A5,5 0 1 1 1103.5,239.9Z" style="fill:#0000FF" />
<path d="M1300.2,269.62A5,5 0 1 1 1290.2,269.62A5,5 0 1 1 1300.2,269.62Z" style="fill:#0000FF" />
<path d="M1496.8,330.4A5,5 0 1 1 1486.8,330.4A5,5 0 1 1 1496.8,330.4Z" style="fill:#0000FF" />
<path d="M1693.4,342.9A5,5 0 1 1 1683.4,342.9A5,5 0 1 1 1693.4,342.9Z" style="fill:#0000FF" />
<path d="M1890,401.45A5,5 0 1 1 1880,401.45A5,5 0 1 1 1890,401.45Z" style="fill:#0000FF" />
<path d="M115.46,80.11L312.08,113.79L508.69,142.04L705.31,168.87L901.92,210.45L1098.5,255.02L1295.2,323.55L1491.8,385.22L1688.4,393.51L1885,438.48" style="fill:none;stroke:#00FF00;stroke-width:4" />
<path d="M120.46,80.11A5,5 0 1 1 110.46,80.11A5,5 0 1 1 120.46,80.11Z" style="fill:#00FF00" />
<path d="M317.08,113.79A5,5 0 1 1 307.08,113.79A5,5 0 1 1 317.08,113.79Z" style="fill:#00FF00" />
<path d="M513.69,142.04A5,5 0 1 1 503.69,142.04A5,5 0 1 1 513.69,142.04Z" style="fill:#00FF00" />
<path d="M710.31,168.87A5,5 0 1 1 700.31,168.87A5,5 0 1 1 710.31,168.87Z" style="fill:#00FF00" />
<path d="M906.92,210.45A5,5 0 1 1 896.92,210.45A5,5 0 1 1 906.92,210.45Z" style="fill:#00FF00" />
<path d="M1103.5,255.02A5,5 0 1 1 1093.5,255.02A5,5 0 1 1 1103.5,255.02Z" style="fill:#00FF00" />
<path d="M1300.2,323.55A5,5 0 1 1 1290.2,323.55A5,5 0 1 1 1300.2,323.55Z" style="fill:#00FF00" />
<path d="M1496.8,385.22A5,5 0 1 1 1486.8,385.22A5,5 0 1 1 1496.8,385.22Z" style="fill:#00FF00" />
<path d="M1693.4,393.51A5,5 0 1 1 1683.4,393.51A5,5 0 1 1 1693.4,393.51Z" style="fill:#00FF00" />
<path d="M1890,438.48A5,5 0 1 1 1880,438.48A5,5 0 1 1 1890,438.48Z" style="fill:#00FF00" />
<path d="M115.46,86.055L312.08,127.22L508.69,139.89L705.31,164.58L901.92,190.19L1098.5,222.09L1295.2,256.49L1491.8,297.69L1688.4,323.18L1885,360.17" style="fill:none;stroke:#FF8000;stroke-width:4" />
<path d="M120.46,86.055A5,5 0 1 1 110.46,86.055A5,5 0 1 1 120.46,86.055Z" style="fill:#FF8000" />
<path d="M317.08,127.22A5,5 0 1 1 307.08,127.22A5,5 0 1 1 317.08,127.22Z" style="fill:#FF8000" />
<path d="M513.69,139.89A5,5 0 1 1 503.69,139.89A5,5 0 1 1 513.69,139.89Z" style="fill:#FF8000" />
<path d="M710.31,164.58A5,5 0 1 1 700.31,164.58A5,5 0 1 1 710.31,164.58Z" style="fill:#FF8000" />
<path d="M906.92,190.19A5,5 0 1 1 896.92,190.19A5,5 0 1 1 906.92,190.19Z" style="fill:#FF8000" />
<path d="M1103.5,222.09A5,5 0 1 1 1093.5,222.09A5,5 0 1 1 1103.5,222.09Z" style="fill:#FF8000" />
<path d="M1300.2,256.49A5,5 0 1 1 1290.2,256.49A5,5 0 1 1 1300.2,256.49Z" style="fill:#FF8000" />
<path d="M1496.8,297.69A5,5 0 1 1 1486.8,297.69A5,5 0 1 1 1496.8,297.69Z" style="fill:#FF8000" />
<path d="M1693.4,323.18A5,5 0 1 1 1683.4,323.18A5,5 0 1 1 1693.4,323.18Z" style="fill:#FF8000" />
<path d="M1890,360.17A5,5 0 1 1 1880,360.17A5,5 0 1 1 1890,360.17Z" style="fill:#FF8000" />
<path d="M1900,146.4L1920,146.4" style="fill:none;stroke:#FF0000;stroke-width:4" />
<path d="M1915,146.4A5,5 0 1 1 1905,146.4A5,5 0 1 1 1915,146.4Z" style="fill:#FF0000" />
<text x="1823.3" y="-141.42" transform="scale(1, -1)"
	style="font-family:Liberation Serif;font-variant:normal;font-weight:normal;font-style:normal;font-size:24px">std::list</text>
<path d="M1900,126.03L1920,126.03" style="fill:none;stroke:#0000FF;stroke-width:4" />
<path d="M1915,126.03A5,5 0 1 1 1905,126.03A5,5 0 1 1 1915,126.03Z" style="fill:#0000FF" />
<text x="1795.4" y="-121.05" transform="scale(1, -1)"
	style="font-family:Liberation Serif;font-variant:normal;font-weight:normal;font-style:normal;font-size:24px">std::deque</text>
<path d="M1900,105.66L1920,105.66" style="fill:none;stroke:#00FF00;stroke-width:4" />
<path d="M1915,105.66A5,5 0 1 1 1905,105.66A5,5 0 1 1 1915,105.66Z" style="fill:#00FF00" />
<text x="1792.7" y="-100.69" transform="scale(1, -1)"
	style="font-family:Liberation Serif;font-variant:normal;font-weight:normal;font-style:normal;font-size:24px">std::vector</text>
<path d="M1900,85.294L1920,85.294" style="fill:none;stroke:#FF8000;stroke-width:4" />
<path d="M1915,85.294A5,5 0 1 1 1905,85.294A5,5 0 1 1 1915,85.294Z" style="fill:#FF8000" />
<text x="1669.4" y="-80.319" transform="scale(1, -1)"
	style="font-family:Liberation Serif;font-variant:normal;font-weight:normal;font-style:normal;font-size:24px">preallocated std::vector</text>
</g>
</svg>
