<?xml version="1.0"?>
<!-- Generated by SVGo and Plotinum VG -->
<svg width="1920pt" height="1080pt" viewBox="0 0 1920 1080"
	xmlns="http://www.w3.org/2000/svg"
	xmlns:xlink="http://www.w3.org/1999/xlink">
<g transform="scale(1, -1) translate(0, -1080)">
<path d="M0,0L1920,0L1920,1080L0,1080Z" style="fill:#FFFFFF" />
<text x="735.77" y="-1040.9" transform="scale(1, -1)"
	style="font-family:Liberation Serif;font-variant:normal;font-weight:normal;font-style:normal;font-size:50px">push-back - Log Scale</text>
<text x="882.77" y="-9.7559" transform="scale(1, -1)"
	style="font-family:Liberation Serif;font-variant:normal;font-weight:normal;font-style:normal;font-size:30px">Number of elements</text>
<text x="95.462" y="-39.727" transform="scale(1, -1)"
	style="font-family:Liberation Serif;font-variant:normal;font-weight:normal;font-style:normal;font-size:20px">100000</text>
<text x="290.97" y="-39.727" transform="scale(1, -1)"
	style="font-family:Liberation Serif;font-variant:normal;font-weight:normal;font-style:normal;font-size:20px">200000</text>
<text x="486.47" y="-39.727" transform="scale(1, -1)"
	style="font-family:Liberation Serif;font-variant:normal;font-weight:normal;font-style:normal;font-size:20px">300000</text>
<text x="681.97" y="-39.727" transform="scale(1, -1)"
	style="font-family:Liberation Serif;font-variant:normal;font-weight:normal;font-style:normal;font-size:20px">400000</text>
<text x="877.48" y="-39.727" transform="scale(1, -1)"
	style="font-family:Liberation Serif;font-variant:normal;font-weight:normal;font-style:normal;font-size:20px">500000</text>
<text x="1073" y="-39.727" transform="scale(1, -1)"
	style="font-family:Liberation Serif;font-variant:normal;font-weight:normal;font-style:normal;font-size:20px">600000</text>
<text x="1268.5" y="-39.727" transform="scale(1, -1)"
	style="font-family:Liberation Serif;font-variant:normal;font-weight:normal;font-style:normal;font-size:20px">700000</text>
<text x="1464" y="-39.727" transform="scale(1, -1)"
	style="font-family:Liberation Serif;font-variant:normal;font-weight:normal;font-style:normal;font-size:20px">800000</text>
<text x="1659.5" y="-39.727" transform="scale(1, -1)"
	style="font-family:Liberation Serif;font-variant:normal;font-weight:normal;font-style:normal;font-size:20px">900000</text>
<text x="1850" y="-39.727" transform="scale(1, -1)"
	style="font-family:Liberation Serif;font-variant:normal;font-weight:normal;font-style:normal;font-size:20px">1000000</text>
<path d="M125.46,55.371L125.46,63.371" style="fill:none;stroke:#000000;stroke-width:0.5" />
<path d="M320.97,55.371L320.97,63.371" style="fill:none;stroke:#000000;stroke-width:0.5" />
<path d="M516.47,55.371L516.47,63.371" style="fill:none;stroke:#000000;stroke-width:0.5" />
<path d="M711.97,55.371L711.97,63.371" style="fill:none;stroke:#000000;stroke-width:0.5" />
<path d="M907.48,55.371L907.48,63.371" style="fill:none;stroke:#000000;stroke-width:0.5" />
<path d="M1103,55.371L1103,63.371" style="fill:none;stroke:#000000;stroke-width:0.5" />
<path d="M1298.5,55.371L1298.5,63.371" style="fill:none;stroke:#000000;stroke-width:0.5" />
<path d="M1494,55.371L1494,63.371" style="fill:none;stroke:#000000;stroke-width:0.5" />
<path d="M1689.5,55.371L1689.5,63.371" style="fill:none;stroke:#000000;stroke-width:0.5" />
<path d="M1885,55.371L1885,63.371" style="fill:none;stroke:#000000;stroke-width:0.5" />
<path d="M125.46,63.371L1885,63.371" style="fill:none;stroke:#000000;stroke-width:0.5" />
<g transform="rotate(90)">
<text x="485.87" y="23.467" transform="scale(1, -1)"
	style="font-family:Liberation Serif;font-variant:normal;font-weight:normal;font-style:normal;font-size:30px">log(μs + 1)</text>
</g>
<text x="49.712" y="-509.06" transform="scale(1, -1)"
	style="font-family:Liberation Serif;font-variant:normal;font-weight:normal;font-style:normal;font-size:20px">20000</text>
<text x="49.712" y="-838.51" transform="scale(1, -1)"
	style="font-family:Liberation Serif;font-variant:normal;font-weight:normal;font-style:normal;font-size:20px">60000</text>
<text x="39.712" y="-991.7" transform="scale(1, -1)"
	style="font-family:Liberation Serif;font-variant:normal;font-weight:normal;font-style:normal;font-size:20px">100000</text>
<path d="M104.71,513.63L112.71,513.63" style="fill:none;stroke:#000000;stroke-width:0.5" />
<path d="M104.71,843.08L112.71,843.08" style="fill:none;stroke:#000000;stroke-width:0.5" />
<path d="M104.71,996.27L112.71,996.27" style="fill:none;stroke:#000000;stroke-width:0.5" />
<path d="M108.71,305.76L112.71,305.76" style="fill:none;stroke:#000000;stroke-width:0.5" />
<path d="M108.71,635.22L112.71,635.22" style="fill:none;stroke:#000000;stroke-width:0.5" />
<path d="M108.71,721.49L112.71,721.49" style="fill:none;stroke:#000000;stroke-width:0.5" />
<path d="M108.71,788.41L112.71,788.41" style="fill:none;stroke:#000000;stroke-width:0.5" />
<path d="M108.71,889.31L112.71,889.31" style="fill:none;stroke:#000000;stroke-width:0.5" />
<path d="M108.71,929.35L112.71,929.35" style="fill:none;stroke:#000000;stroke-width:0.5" />
<path d="M108.71,964.68L112.71,964.68" style="fill:none;stroke:#000000;stroke-width:0.5" />
<path d="M112.71,80.11L112.71,1024.6" style="fill:none;stroke:#000000;stroke-width:0.5" />
<path d="M125.46,80.11L125.46,1024.6" style="fill:none;stroke:#808080;stroke-width:0.25" />
<path d="M320.97,80.11L320.97,1024.6" style="fill:none;stroke:#808080;stroke-width:0.25" />
<path d="M516.47,80.11L516.47,1024.6" style="fill:none;stroke:#808080;stroke-width:0.25" />
<path d="M711.97,80.11L711.97,1024.6" style="fill:none;stroke:#808080;stroke-width:0.25" />
<path d="M907.48,80.11L907.48,1024.6" style="fill:none;stroke:#808080;stroke-width:0.25" />
<path d="M1103,80.11L1103,1024.6" style="fill:none;stroke:#808080;stroke-width:0.25" />
<path d="M1298.5,80.11L1298.5,1024.6" style="fill:none;stroke:#808080;stroke-width:0.25" />
<path d="M1494,80.11L1494,1024.6" style="fill:none;stroke:#808080;stroke-width:0.25" />
<path d="M1689.5,80.11L1689.5,1024.6" style="fill:none;stroke:#808080;stroke-width:0.25" />
<path d="M1885,80.11L1885,1024.6" style="fill:none;stroke:#808080;stroke-width:0.25" />
<path d="M125.46,513.63L1885,513.63" style="fill:none;stroke:#808080;stroke-width:0.25" />
<path d="M125.46,843.08L1885,843.08" style="fill:none;stroke:#808080;stroke-width:0.25" />
<path d="M125.46,996.27L1885,996.27" style="fill:none;stroke:#808080;stroke-width:0.25" />
<path d="M125.46,152.33L320.97,349.21L516.47,455.5L711.97,539.47L907.48,598.95L1103,665.13L1298.5,710.92L1494,851.53L1689.5,919.01L1885,943.86" style="fill:none;stroke:#FF0000;stroke-width:4" />
<path d="M130.46,152.33A5,5 0 1 1 120.46,152.33A5,5 0 1 1 130.46,152.33Z" style="fill:#FF0000" />
<path d="M325.97,349.21A5,5 0 1 1 315.97,349.21A5,5 0 1 1 325.97,349.21Z" style="fill:#FF0000" />
<path d="M521.47,455.5A5,5 0 1 1 511.47,455.5A5,5 0 1 1 521.47,455.5Z" style="fill:#FF0000" />
<path d="M716.97,539.47A5,5 0 1 1 706.97,539.47A5,5 0 1 1 716.97,539.47Z" style="fill:#FF0000" />
<path d="M912.48,598.95A5,5 0 1 1 902.48,598.95A5,5 0 1 1 912.48,598.95Z" style="fill:#FF0000" />
<path d="M1108,665.13A5,5 0 1 1 1098,665.13A5,5 0 1 1 1108,665.13Z" style="fill:#FF0000" />
<path d="M1303.5,710.92A5,5 0 1 1 1293.5,710.92A5,5 0 1 1 1303.5,710.92Z" style="fill:#FF0000" />
<path d="M1499,851.53A5,5 0 1 1 1489,851.53A5,5 0 1 1 1499,851.53Z" style="fill:#FF0000" />
<path d="M1694.5,919.01A5,5 0 1 1 1684.5,919.01A5,5 0 1 1 1694.5,919.01Z" style="fill:#FF0000" />
<path d="M1890,943.86A5,5 0 1 1 1880,943.86A5,5 0 1 1 1890,943.86Z" style="fill:#FF0000" />
<path d="M125.46,122.75L320.97,345.61L516.47,533.57L711.97,583.01L907.48,653.67L1103,727.36L1298.5,751.42L1494,775.02L1689.5,801.46L1885,846.24" style="fill:none;stroke:#0000FF;stroke-width:4" />
<path d="M130.46,122.75A5,5 0 1 1 120.46,122.75A5,5 0 1 1 130.46,122.75Z" style="fill:#0000FF" />
<path d="M325.97,345.61A5,5 0 1 1 315.97,345.61A5,5 0 1 1 325.97,345.61Z" style="fill:#0000FF" />
<path d="M521.47,533.57A5,5 0 1 1 511.47,533.57A5,5 0 1 1 521.47,533.57Z" style="fill:#0000FF" />
<path d="M716.97,583.01A5,5 0 1 1 706.97,583.01A5,5 0 1 1 716.97,583.01Z" style="fill:#0000FF" />
<path d="M912.48,653.67A5,5 0 1 1 902.48,653.67A5,5 0 1 1 912.48,653.67Z" style="fill:#0000FF" />
<path d="M1108,727.36A5,5 0 1 1 1098,727.36A5,5 0 1 1 1108,727.36Z" style="fill:#0000FF" />
<path d="M1303.5,751.42A5,5 0 1 1 1293.5,751.42A5,5 0 1 1 1303.5,751.42Z" style="fill:#0000FF" />
<path d="M1499,775.02A5,5 0 1 1 1489,775.02A5,5 0 1 1 1499,775.02Z" style="fill:#0000FF" />
<path d="M1694.5,801.46A5,5 0 1 1 1684.5,801.46A5,5 0 1 1 1694.5,801.46Z" style="fill:#0000FF" />
<path d="M1890,846.24A5,5 0 1 1 1880,846.24A5,5 0 1 1 1890,846.24Z" style="fill:#0000FF" />
<path d="M125.46,80.11L320.97,201.83L516.47,373.3L711.97,451.16L907.48,528.4L1103,590.59L1298.5,628.87L1494,659.38L1689.5,696.62L1885,763.61" style="fill:none;stroke:#00FF00;stroke-width:4" />
<path d="M130.46,80.11A5,5 0 1 1 120.46,80.11A5,5 0 1 1 130.46,80.11Z" style="fill:#00FF00" />
<path d="M325.97,201.83A5,5 0 1 1 315.97,201.83A5,5 0 1 1 325.97,201.83Z" style="fill:#00FF00" />
<path d="M521.47,373.3A5,5 0 1 1 511.47,373.3A5,5 0 1 1 521.47,373.3Z" style="fill:#00FF00" />
<path d="M716.97,451.16A5,5 0 1 1 706.97,451.16A5,5 0 1 1 716.97,451.16Z" style="fill:#00FF00" />
<path d="M912.48,528.4A5,5 0 1 1 902.48,528.4A5,5 0 1 1 912.48,528.4Z" style="fill:#00FF00" />
<path d="M1108,590.59A5,5 0 1 1 1098,590.59A5,5 0 1 1 1108,590.59Z" style="fill:#00FF00" />
<path d="M1303.5,628.87A5,5 0 1 1 1293.5,628.87A5,5 0 1 1 1303.5,628.87Z" style="fill:#00FF00" />
<path d="M1499,659.38A5,5 0 1 1 1489,659.38A5,5 0 1 1 1499,659.38Z" style="fill:#00FF00" />
<path d="M1694.5,696.62A5,5 0 1 1 1684.5,696.62A5,5 0 1 1 1694.5,696.62Z" style="fill:#00FF00" />
<path d="M1890,763.61A5,5 0 1 1 1880,763.61A5,5 0 1 1 1890,763.61Z" style="fill:#00FF00" />
<path d="M125.46,257.84L320.97,422.72L516.47,551.38L711.97,617.44L907.48,715.39L1103,818.42L1298.5,889.49L1494,967.32L1689.5,979.4L1885,996.05" style="fill:none;stroke:#FF8000;stroke-width:4" />
<path d="M130.46,257.84A5,5 0 1 1 120.46,257.84A5,5 0 1 1 130.46,257.84Z" style="fill:#FF8000" />
<path d="M325.97,422.72A5,5 0 1 1 315.97,422.72A5,5 0 1 1 325.97,422.72Z" style="fill:#FF8000" />
<path d="M521.47,551.38A5,5 0 1 1 511.47,551.38A5,5 0 1 1 521.47,551.38Z" style="fill:#FF8000" />
<path d="M716.97,617.44A5,5 0 1 1 706.97,617.44A5,5 0 1 1 716.97,617.44Z" style="fill:#FF8000" />
<path d="M912.48,715.39A5,5 0 1 1 902.48,715.39A5,5 0 1 1 912.48,715.39Z" style="fill:#FF8000" />
<path d="M1108,818.42A5,5 0 1 1 1098,818.42A5,5 0 1 1 1108,818.42Z" style="fill:#FF8000" />
<path d="M1303.5,889.49A5,5 0 1 1 1293.5,889.49A5,5 0 1 1 1303.5,889.49Z" style="fill:#FF8000" />
<path d="M1499,967.32A5,5 0 1 1 1489,967.32A5,5 0 1 1 1499,967.32Z" style="fill:#FF8000" />
<path d="M1694.5,979.4A5,5 0 1 1 1684.5,979.4A5,5 0 1 1 1694.5,979.4Z" style="fill:#FF8000" />
<path d="M1890,996.05A5,5 0 1 1 1880,996.05A5,5 0 1 1 1890,996.05Z" style="fill:#FF8000" />
<path d="M1900,146.4L1920,146.4" style="fill:none;stroke:#FF0000;stroke-width:4" />
<path d="M1915,146.4A5,5 0 1 1 1905,146.4A5,5 0 1 1 1915,146.4Z" style="fill:#FF0000" />
<text x="1795.4" y="-141.42" transform="scale(1, -1)"
	style="font-family:Liberation Serif;font-variant:normal;font-weight:normal;font-style:normal;font-size:24px">std::deque</text>
<path d="M1900,126.03L1920,126.03" style="fill:none;stroke:#0000FF;stroke-width:4" />
<path d="M1915,126.03A5,5 0 1 1 1905,126.03A5,5 0 1 1 1915,126.03Z" style="fill:#0000FF" />
<text x="1792.7" y="-121.05" transform="scale(1, -1)"
	style="font-family:Liberation Serif;font-variant:normal;font-weight:normal;font-style:normal;font-size:24px">std::vector</text>
<path d="M1900,105.66L1920,105.66" style="fill:none;stroke:#00FF00;stroke-width:4" />
<path d="M1915,105.66A5,5 0 1 1 1905,105.66A5,5 0 1 1 1915,105.66Z" style="fill:#00FF00" />
<text x="1669.4" y="-100.69" transform="scale(1, -1)"
	style="font-family:Liberation Serif;font-variant:normal;font-weight:normal;font-style:normal;font-size:24px">preallocated std::vector</text>
<path d="M1900,85.294L1920,85.294" style="fill:none;stroke:#FF8000;stroke-width:4" />
<path d="M1915,85.294A5,5 0 1 1 1905,85.294A5,5 0 1 1 1915,85.294Z" style="fill:#FF8000" />
<text x="1823.3" y="-80.319" transform="scale(1, -1)"
	style="font-family:Liberation Serif;font-variant:normal;font-weight:normal;font-style:normal;font-size:24px">std::list</text>
</g>
</svg>
