<?xml version="1.0"?>
<!-- Generated by SVGo and Plotinum VG -->
<svg width="1920pt" height="1080pt" viewBox="0 0 1920 1080"
	xmlns="http://www.w3.org/2000/svg"
	xmlns:xlink="http://www.w3.org/1999/xlink">
<g transform="scale(1, -1) translate(0, -1080)">
<path d="M0,0L1920,0L1920,1080L0,1080Z" style="fill:#FFFFFF" />
<text x="702.48" y="-1040.9" transform="scale(1, -1)"
	style="font-family:Liberation Serif;font-variant:normal;font-weight:normal;font-style:normal;font-size:50px">random-erase - Log Scale</text>
<text x="890.27" y="-9.7559" transform="scale(1, -1)"
	style="font-family:Liberation Serif;font-variant:normal;font-weight:normal;font-style:normal;font-size:30px">Number of elements</text>
<text x="110.46" y="-39.727" transform="scale(1, -1)"
	style="font-family:Liberation Serif;font-variant:normal;font-weight:normal;font-style:normal;font-size:20px">10000</text>
<text x="305.41" y="-39.727" transform="scale(1, -1)"
	style="font-family:Liberation Serif;font-variant:normal;font-weight:normal;font-style:normal;font-size:20px">20000</text>
<text x="500.36" y="-39.727" transform="scale(1, -1)"
	style="font-family:Liberation Serif;font-variant:normal;font-weight:normal;font-style:normal;font-size:20px">30000</text>
<text x="695.31" y="-39.727" transform="scale(1, -1)"
	style="font-family:Liberation Serif;font-variant:normal;font-weight:normal;font-style:normal;font-size:20px">40000</text>
<text x="890.26" y="-39.727" transform="scale(1, -1)"
	style="font-family:Liberation Serif;font-variant:normal;font-weight:normal;font-style:normal;font-size:20px">50000</text>
<text x="1085.2" y="-39.727" transform="scale(1, -1)"
	style="font-family:Liberation Serif;font-variant:normal;font-weight:normal;font-style:normal;font-size:20px">60000</text>
<text x="1280.2" y="-39.727" transform="scale(1, -1)"
	style="font-family:Liberation Serif;font-variant:normal;font-weight:normal;font-style:normal;font-size:20px">70000</text>
<text x="1475.1" y="-39.727" transform="scale(1, -1)"
	style="font-family:Liberation Serif;font-variant:normal;font-weight:normal;font-style:normal;font-size:20px">80000</text>
<text x="1670.1" y="-39.727" transform="scale(1, -1)"
	style="font-family:Liberation Serif;font-variant:normal;font-weight:normal;font-style:normal;font-size:20px">90000</text>
<text x="1860" y="-39.727" transform="scale(1, -1)"
	style="font-family:Liberation Serif;font-variant:normal;font-weight:normal;font-style:normal;font-size:20px">100000</text>
<path d="M135.46,55.371L135.46,63.371" style="fill:none;stroke:#000000;stroke-width:0.5" />
<path d="M330.41,55.371L330.41,63.371" style="fill:none;stroke:#000000;stroke-width:0.5" />
<path d="M525.36,55.371L525.36,63.371" style="fill:none;stroke:#000000;stroke-width:0.5" />
<path d="M720.31,55.371L720.31,63.371" style="fill:none;stroke:#000000;stroke-width:0.5" />
<path d="M915.26,55.371L915.26,63.371" style="fill:none;stroke:#000000;stroke-width:0.5" />
<path d="M1110.2,55.371L1110.2,63.371" style="fill:none;stroke:#000000;stroke-width:0.5" />
<path d="M1305.2,55.371L1305.2,63.371" style="fill:none;stroke:#000000;stroke-width:0.5" />
<path d="M1500.1,55.371L1500.1,63.371" style="fill:none;stroke:#000000;stroke-width:0.5" />
<path d="M1695.1,55.371L1695.1,63.371" style="fill:none;stroke:#000000;stroke-width:0.5" />
<path d="M1890,55.371L1890,63.371" style="fill:none;stroke:#000000;stroke-width:0.5" />
<path d="M135.46,63.371L1890,63.371" style="fill:none;stroke:#000000;stroke-width:0.5" />
<g transform="rotate(90)">
<text x="485.87" y="23.467" transform="scale(1, -1)"
	style="font-family:Liberation Serif;font-variant:normal;font-weight:normal;font-style:normal;font-size:30px">log(μs + 1)</text>
</g>
<text x="49.712" y="-330.57" transform="scale(1, -1)"
	style="font-family:Liberation Serif;font-variant:normal;font-weight:normal;font-style:normal;font-size:20px">200000</text>
<text x="49.712" y="-813.88" transform="scale(1, -1)"
	style="font-family:Liberation Serif;font-variant:normal;font-weight:normal;font-style:normal;font-size:20px">800000</text>
<text x="39.712" y="-1009" transform="scale(1, -1)"
	style="font-family:Liberation Serif;font-variant:normal;font-weight:normal;font-style:normal;font-size:20px">1400000</text>
<path d="M114.71,335.14L122.71,335.14" style="fill:none;stroke:#000000;stroke-width:0.5" />
<path d="M114.71,818.45L122.71,818.45" style="fill:none;stroke:#000000;stroke-width:0.5" />
<path d="M114.71,1013.6L122.71,1013.6" style="fill:none;stroke:#000000;stroke-width:0.5" />
<path d="M118.71,654.59L122.71,654.59" style="fill:none;stroke:#000000;stroke-width:0.5" />
<path d="M118.71,929.47L122.71,929.47" style="fill:none;stroke:#000000;stroke-width:0.5" />
<path d="M122.71,80.11L122.71,1024.6" style="fill:none;stroke:#000000;stroke-width:0.5" />
<path d="M135.46,80.11L135.46,1024.6" style="fill:none;stroke:#808080;stroke-width:0.25" />
<path d="M330.41,80.11L330.41,1024.6" style="fill:none;stroke:#808080;stroke-width:0.25" />
<path d="M525.36,80.11L525.36,1024.6" style="fill:none;stroke:#808080;stroke-width:0.25" />
<path d="M720.31,80.11L720.31,1024.6" style="fill:none;stroke:#808080;stroke-width:0.25" />
<path d="M915.26,80.11L915.26,1024.6" style="fill:none;stroke:#808080;stroke-width:0.25" />
<path d="M1110.2,80.11L1110.2,1024.6" style="fill:none;stroke:#808080;stroke-width:0.25" />
<path d="M1305.2,80.11L1305.2,1024.6" style="fill:none;stroke:#808080;stroke-width:0.25" />
<path d="M1500.1,80.11L1500.1,1024.6" style="fill:none;stroke:#808080;stroke-width:0.25" />
<path d="M1695.1,80.11L1695.1,1024.6" style="fill:none;stroke:#808080;stroke-width:0.25" />
<path d="M1890,80.11L1890,1024.6" style="fill:none;stroke:#808080;stroke-width:0.25" />
<path d="M135.46,335.14L1890,335.14" style="fill:none;stroke:#808080;stroke-width:0.25" />
<path d="M135.46,818.45L1890,818.45" style="fill:none;stroke:#808080;stroke-width:0.25" />
<path d="M135.46,1013.6L1890,1013.6" style="fill:none;stroke:#808080;stroke-width:0.25" />
<path d="M135.46,296.99L330.41,495.59L525.36,619.05L720.31,687.2L915.26,778.66L1110.2,816.22L1305.2,861.99L1500.1,935.68L1695.1,959.08L1890,991.4" style="fill:none;stroke:#FF0000;stroke-width:4" />
<path d="M140.46,296.99A5,5 0 1 1 130.46,296.99A5,5 0 1 1 140.46,296.99Z" style="fill:#FF0000" />
<path d="M335.41,495.59A5,5 0 1 1 325.41,495.59A5,5 0 1 1 335.41,495.59Z" style="fill:#FF0000" />
<path d="M530.36,619.05A5,5 0 1 1 520.36,619.05A5,5 0 1 1 530.36,619.05Z" style="fill:#FF0000" />
<path d="M725.31,687.2A5,5 0 1 1 715.31,687.2A5,5 0 1 1 725.31,687.2Z" style="fill:#FF0000" />
<path d="M920.26,778.66A5,5 0 1 1 910.26,778.66A5,5 0 1 1 920.26,778.66Z" style="fill:#FF0000" />
<path d="M1115.2,816.22A5,5 0 1 1 1105.2,816.22A5,5 0 1 1 1115.2,816.22Z" style="fill:#FF0000" />
<path d="M1310.2,861.99A5,5 0 1 1 1300.2,861.99A5,5 0 1 1 1310.2,861.99Z" style="fill:#FF0000" />
<path d="M1505.1,935.68A5,5 0 1 1 1495.1,935.68A5,5 0 1 1 1505.1,935.68Z" style="fill:#FF0000" />
<path d="M1700.1,959.08A5,5 0 1 1 1690.1,959.08A5,5 0 1 1 1700.1,959.08Z" style="fill:#FF0000" />
<path d="M1895,991.4A5,5 0 1 1 1885,991.4A5,5 0 1 1 1895,991.4Z" style="fill:#FF0000" />
<path d="M135.46,114.7L330.41,385.45L525.36,508.14L720.31,670.28L915.26,747.03L1110.2,774.66L1305.2,835.32L1500.1,909.27L1695.1,959.66L1890,965.1" style="fill:none;stroke:#0000FF;stroke-width:4" />
<path d="M140.46,114.7A5,5 0 1 1 130.46,114.7A5,5 0 1 1 140.46,114.7Z" style="fill:#0000FF" />
<path d="M335.41,385.45A5,5 0 1 1 325.41,385.45A5,5 0 1 1 335.41,385.45Z" style="fill:#0000FF" />
<path d="M530.36,508.14A5,5 0 1 1 520.36,508.14A5,5 0 1 1 530.36,508.14Z" style="fill:#0000FF" />
<path d="M725.31,670.28A5,5 0 1 1 715.31,670.28A5,5 0 1 1 725.31,670.28Z" style="fill:#0000FF" />
<path d="M920.26,747.03A5,5 0 1 1 910.26,747.03A5,5 0 1 1 920.26,747.03Z" style="fill:#0000FF" />
<path d="M1115.2,774.66A5,5 0 1 1 1105.2,774.66A5,5 0 1 1 1115.2,774.66Z" style="fill:#0000FF" />
<path d="M1310.2,835.32A5,5 0 1 1 1300.2,835.32A5,5 0 1 1 1310.2,835.32Z" style="fill:#0000FF" />
<path d="M1505.1,909.27A5,5 0 1 1 1495.1,909.27A5,5 0 1 1 1505.1,909.27Z" style="fill:#0000FF" />
<path d="M1700.1,959.66A5,5 0 1 1 1690.1,959.66A5,5 0 1 1 1700.1,959.66Z" style="fill:#0000FF" />
<path d="M1895,965.1A5,5 0 1 1 1885,965.1A5,5 0 1 1 1895,965.1Z" style="fill:#0000FF" />
<path d="M135.46,80.11L330.41,344.48L525.36,510.62L720.31,590.66L915.26,683.14L1110.2,746.96L1305.2,800.12L1500.1,847.68L1695.1,892.9L1890,923.91" style="fill:none;stroke:#00FF00;stroke-width:4" />
<path d="M140.46,80.11A5,5 0 1 1 130.46,80.11A5,5 0 1 1 140.46,80.11Z" style="fill:#00FF00" />
<path d="M335.41,344.48A5,5 0 1 1 325.41,344.48A5,5 0 1 1 335.41,344.48Z" style="fill:#00FF00" />
<path d="M530.36,510.62A5,5 0 1 1 520.36,510.62A5,5 0 1 1 530.36,510.62Z" style="fill:#00FF00" />
<path d="M725.31,590.66A5,5 0 1 1 715.31,590.66A5,5 0 1 1 725.31,590.66Z" style="fill:#00FF00" />
<path d="M920.26,683.14A5,5 0 1 1 910.26,683.14A5,5 0 1 1 920.26,683.14Z" style="fill:#00FF00" />
<path d="M1115.2,746.96A5,5 0 1 1 1105.2,746.96A5,5 0 1 1 1115.2,746.96Z" style="fill:#00FF00" />
<path d="M1310.2,800.12A5,5 0 1 1 1300.2,800.12A5,5 0 1 1 1310.2,800.12Z" style="fill:#00FF00" />
<path d="M1505.1,847.68A5,5 0 1 1 1495.1,847.68A5,5 0 1 1 1505.1,847.68Z" style="fill:#00FF00" />
<path d="M1700.1,892.9A5,5 0 1 1 1690.1,892.9A5,5 0 1 1 1700.1,892.9Z" style="fill:#00FF00" />
<path d="M1895,923.91A5,5 0 1 1 1885,923.91A5,5 0 1 1 1895,923.91Z" style="fill:#00FF00" />
<path d="M1900,126.03L1920,126.03" style="fill:none;stroke:#FF0000;stroke-width:4" />
<path d="M1915,126.03A5,5 0 1 1 1905,126.03A5,5 0 1 1 1915,126.03Z" style="fill:#FF0000" />
<text x="1823.3" y="-121.05" transform="scale(1, -1)"
	style="font-family:Liberation Serif;font-variant:normal;font-weight:normal;font-style:normal;font-size:24px">std::list</text>
<path d="M1900,105.66L1920,105.66" style="fill:none;stroke:#0000FF;stroke-width:4" />
<path d="M1915,105.66A5,5 0 1 1 1905,105.66A5,5 0 1 1 1915,105.66Z" style="fill:#0000FF" />
<text x="1795.4" y="-100.69" transform="scale(1, -1)"
	style="font-family:Liberation Serif;font-variant:normal;font-weight:normal;font-style:normal;font-size:24px">std::deque</text>
<path d="M1900,85.294L1920,85.294" style="fill:none;stroke:#00FF00;stroke-width:4" />
<path d="M1915,85.294A5,5 0 1 1 1905,85.294A5,5 0 1 1 1915,85.294Z" style="fill:#00FF00" />
<text x="1792.7" y="-80.319" transform="scale(1, -1)"
	style="font-family:Liberation Serif;font-variant:normal;font-weight:normal;font-style:normal;font-size:24px">std::vector</text>
</g>
</svg>
