<?xml version="1.0"?>
<!-- Generated by SVGo and Plotinum VG -->
<svg width="1920pt" height="1080pt" viewBox="0 0 1920 1080"
	xmlns="http://www.w3.org/2000/svg"
	xmlns:xlink="http://www.w3.org/1999/xlink">
<g transform="scale(1, -1) translate(0, -1080)">
<path d="M0,0L1920,0L1920,1080L0,1080Z" style="fill:#FFFFFF" />
<text x="823.96" y="-1040.9" transform="scale(1, -1)"
	style="font-family:Liberation Serif;font-variant:normal;font-weight:normal;font-style:normal;font-size:50px">random-erase</text>
<text x="890.27" y="-9.7559" transform="scale(1, -1)"
	style="font-family:Liberation Serif;font-variant:normal;font-weight:normal;font-style:normal;font-size:30px">Number of elements</text>
<text x="110.46" y="-39.727" transform="scale(1, -1)"
	style="font-family:Liberation Serif;font-variant:normal;font-weight:normal;font-style:normal;font-size:20px">10000</text>
<text x="305.41" y="-39.727" transform="scale(1, -1)"
	style="font-family:Liberation Serif;font-variant:normal;font-weight:normal;font-style:normal;font-size:20px">20000</text>
<text x="500.36" y="-39.727" transform="scale(1, -1)"
	style="font-family:Liberation Serif;font-variant:normal;font-weight:normal;font-style:normal;font-size:20px">30000</text>
<text x="695.31" y="-39.727" transform="scale(1, -1)"
	style="font-family:Liberation Serif;font-variant:normal;font-weight:normal;font-style:normal;font-size:20px">40000</text>
<text x="890.26" y="-39.727" transform="scale(1, -1)"
	style="font-family:Liberation Serif;font-variant:normal;font-weight:normal;font-style:normal;font-size:20px">50000</text>
<text x="1085.2" y="-39.727" transform="scale(1, -1)"
	style="font-family:Liberation Serif;font-variant:normal;font-weight:normal;font-style:normal;font-size:20px">60000</text>
<text x="1280.2" y="-39.727" transform="scale(1, -1)"
	style="font-family:Liberation Serif;font-variant:normal;font-weight:normal;font-style:normal;font-size:20px">70000</text>
<text x="1475.1" y="-39.727" transform="scale(1, -1)"
	style="font-family:Liberation Serif;font-variant:normal;font-weight:normal;font-style:normal;font-size:20px">80000</text>
<text x="1670.1" y="-39.727" transform="scale(1, -1)"
	style="font-family:Liberation Serif;font-variant:normal;font-weight:normal;font-style:normal;font-size:20px">90000</text>
<text x="1860" y="-39.727" transform="scale(1, -1)"
	style="font-family:Liberation Serif;font-variant:normal;font-weight:normal;font-style:normal;font-size:20px">100000</text>
<path d="M135.46,55.371L135.46,63.371" style="fill:none;stroke:#000000;stroke-width:0.5" />
<path d="M330.41,55.371L330.41,63.371" style="fill:none;stroke:#000000;stroke-width:0.5" />
<path d="M525.36,55.371L525.36,63.371" style="fill:none;stroke:#000000;stroke-width:0.5" />
<path d="M720.31,55.371L720.31,63.371" style="fill:none;stroke:#000000;stroke-width:0.5" />
<path d="M915.26,55.371L915.26,63.371" style="fill:none;stroke:#000000;stroke-width:0.5" />
<path d="M1110.2,55.371L1110.2,63.371" style="fill:none;stroke:#000000;stroke-width:0.5" />
<path d="M1305.2,55.371L1305.2,63.371" style="fill:none;stroke:#000000;stroke-width:0.5" />
<path d="M1500.1,55.371L1500.1,63.371" style="fill:none;stroke:#000000;stroke-width:0.5" />
<path d="M1695.1,55.371L1695.1,63.371" style="fill:none;stroke:#000000;stroke-width:0.5" />
<path d="M1890,55.371L1890,63.371" style="fill:none;stroke:#000000;stroke-width:0.5" />
<path d="M135.46,63.371L1890,63.371" style="fill:none;stroke:#000000;stroke-width:0.5" />
<g transform="rotate(90)">
<text x="538.49" y="23.467" transform="scale(1, -1)"
	style="font-family:Liberation Serif;font-variant:normal;font-weight:normal;font-style:normal;font-size:30px">μs</text>
</g>
<text x="39.712" y="-109.01" transform="scale(1, -1)"
	style="font-family:Liberation Serif;font-variant:normal;font-weight:normal;font-style:normal;font-size:20px">1000000</text>
<text x="39.712" y="-518.7" transform="scale(1, -1)"
	style="font-family:Liberation Serif;font-variant:normal;font-weight:normal;font-style:normal;font-size:20px">5000000</text>
<text x="39.712" y="-928.4" transform="scale(1, -1)"
	style="font-family:Liberation Serif;font-variant:normal;font-weight:normal;font-style:normal;font-size:20px">9000000</text>
<path d="M114.71,113.58L122.71,113.58" style="fill:none;stroke:#000000;stroke-width:0.5" />
<path d="M114.71,523.27L122.71,523.27" style="fill:none;stroke:#000000;stroke-width:0.5" />
<path d="M114.71,932.97L122.71,932.97" style="fill:none;stroke:#000000;stroke-width:0.5" />
<path d="M118.71,216L122.71,216" style="fill:none;stroke:#000000;stroke-width:0.5" />
<path d="M118.71,318.43L122.71,318.43" style="fill:none;stroke:#000000;stroke-width:0.5" />
<path d="M118.71,420.85L122.71,420.85" style="fill:none;stroke:#000000;stroke-width:0.5" />
<path d="M118.71,625.7L122.71,625.7" style="fill:none;stroke:#000000;stroke-width:0.5" />
<path d="M118.71,728.12L122.71,728.12" style="fill:none;stroke:#000000;stroke-width:0.5" />
<path d="M118.71,830.54L122.71,830.54" style="fill:none;stroke:#000000;stroke-width:0.5" />
<path d="M122.71,80.11L122.71,1024.6" style="fill:none;stroke:#000000;stroke-width:0.5" />
<path d="M135.46,80.11L135.46,1024.6" style="fill:none;stroke:#808080;stroke-width:0.25" />
<path d="M330.41,80.11L330.41,1024.6" style="fill:none;stroke:#808080;stroke-width:0.25" />
<path d="M525.36,80.11L525.36,1024.6" style="fill:none;stroke:#808080;stroke-width:0.25" />
<path d="M720.31,80.11L720.31,1024.6" style="fill:none;stroke:#808080;stroke-width:0.25" />
<path d="M915.26,80.11L915.26,1024.6" style="fill:none;stroke:#808080;stroke-width:0.25" />
<path d="M1110.2,80.11L1110.2,1024.6" style="fill:none;stroke:#808080;stroke-width:0.25" />
<path d="M1305.2,80.11L1305.2,1024.6" style="fill:none;stroke:#808080;stroke-width:0.25" />
<path d="M1500.1,80.11L1500.1,1024.6" style="fill:none;stroke:#808080;stroke-width:0.25" />
<path d="M1695.1,80.11L1695.1,1024.6" style="fill:none;stroke:#808080;stroke-width:0.25" />
<path d="M1890,80.11L1890,1024.6" style="fill:none;stroke:#808080;stroke-width:0.25" />
<path d="M135.46,113.58L1890,113.58" style="fill:none;stroke:#808080;stroke-width:0.25" />
<path d="M135.46,523.27L1890,523.27" style="fill:none;stroke:#808080;stroke-width:0.25" />
<path d="M135.46,932.97L1890,932.97" style="fill:none;stroke:#808080;stroke-width:0.25" />
<path d="M135.46,80.11L330.41,140.33L525.36,207.37L720.31,284.71L915.26,371.72L1110.2,464.18L1305.2,547.71L1500.1,621.28L1695.1,640.39L1890,753.19" style="fill:none;stroke:#FF0000;stroke-width:4" />
<path d="M140.46,80.11A5,5 0 1 1 130.46,80.11A5,5 0 1 1 140.46,80.11Z" style="fill:#FF0000" />
<path d="M335.41,140.33A5,5 0 1 1 325.41,140.33A5,5 0 1 1 335.41,140.33Z" style="fill:#FF0000" />
<path d="M530.36,207.37A5,5 0 1 1 520.36,207.37A5,5 0 1 1 530.36,207.37Z" style="fill:#FF0000" />
<path d="M725.31,284.71A5,5 0 1 1 715.31,284.71A5,5 0 1 1 725.31,284.71Z" style="fill:#FF0000" />
<path d="M920.26,371.72A5,5 0 1 1 910.26,371.72A5,5 0 1 1 920.26,371.72Z" style="fill:#FF0000" />
<path d="M1115.2,464.18A5,5 0 1 1 1105.2,464.18A5,5 0 1 1 1115.2,464.18Z" style="fill:#FF0000" />
<path d="M1310.2,547.71A5,5 0 1 1 1300.2,547.71A5,5 0 1 1 1310.2,547.71Z" style="fill:#FF0000" />
<path d="M1505.1,621.28A5,5 0 1 1 1495.1,621.28A5,5 0 1 1 1505.1,621.28Z" style="fill:#FF0000" />
<path d="M1700.1,640.39A5,5 0 1 1 1690.1,640.39A5,5 0 1 1 1700.1,640.39Z" style="fill:#FF0000" />
<path d="M1895,753.19A5,5 0 1 1 1885,753.19A5,5 0 1 1 1895,753.19Z" style="fill:#FF0000" />
<path d="M135.46,88.551L330.41,200.68L525.36,261.74L720.31,323.89L915.26,408.08L1110.2,493.44L1305.2,576.17L1500.1,657.86L1695.1,753.63L1890,859.8" style="fill:none;stroke:#0000FF;stroke-width:4" />
<path d="M140.46,88.551A5,5 0 1 1 130.46,88.551A5,5 0 1 1 140.46,88.551Z" style="fill:#0000FF" />
<path d="M335.41,200.68A5,5 0 1 1 325.41,200.68A5,5 0 1 1 335.41,200.68Z" style="fill:#0000FF" />
<path d="M530.36,261.74A5,5 0 1 1 520.36,261.74A5,5 0 1 1 530.36,261.74Z" style="fill:#0000FF" />
<path d="M725.31,323.89A5,5 0 1 1 715.31,323.89A5,5 0 1 1 725.31,323.89Z" style="fill:#0000FF" />
<path d="M920.26,408.08A5,5 0 1 1 910.26,408.08A5,5 0 1 1 920.26,408.08Z" style="fill:#0000FF" />
<path d="M1115.2,493.44A5,5 0 1 1 1105.2,493.44A5,5 0 1 1 1115.2,493.44Z" style="fill:#0000FF" />
<path d="M1310.2,576.17A5,5 0 1 1 1300.2,576.17A5,5 0 1 1 1310.2,576.17Z" style="fill:#0000FF" />
<path d="M1505.1,657.86A5,5 0 1 1 1495.1,657.86A5,5 0 1 1 1505.1,657.86Z" style="fill:#0000FF" />
<path d="M1700.1,753.63A5,5 0 1 1 1690.1,753.63A5,5 0 1 1 1700.1,753.63Z" style="fill:#0000FF" />
<path d="M1895,859.8A5,5 0 1 1 1885,859.8A5,5 0 1 1 1895,859.8Z" style="fill:#0000FF" />
<path d="M135.46,96.353L330.41,183.44L525.36,275.31L720.31,366.05L915.26,463.7L1110.2,561.05L1305.2,649.43L1500.1,749.85L1695.1,833.89L1890,932.5" style="fill:none;stroke:#00FF00;stroke-width:4" />
<path d="M140.46,96.353A5,5 0 1 1 130.46,96.353A5,5 0 1 1 140.46,96.353Z" style="fill:#00FF00" />
<path d="M335.41,183.44A5,5 0 1 1 325.41,183.44A5,5 0 1 1 335.41,183.44Z" style="fill:#00FF00" />
<path d="M530.36,275.31A5,5 0 1 1 520.36,275.31A5,5 0 1 1 530.36,275.31Z" style="fill:#00FF00" />
<path d="M725.31,366.05A5,5 0 1 1 715.31,366.05A5,5 0 1 1 725.31,366.05Z" style="fill:#00FF00" />
<path d="M920.26,463.7A5,5 0 1 1 910.26,463.7A5,5 0 1 1 920.26,463.7Z" style="fill:#00FF00" />
<path d="M1115.2,561.05A5,5 0 1 1 1105.2,561.05A5,5 0 1 1 1115.2,561.05Z" style="fill:#00FF00" />
<path d="M1310.2,649.43A5,5 0 1 1 1300.2,649.43A5,5 0 1 1 1310.2,649.43Z" style="fill:#00FF00" />
<path d="M1505.1,749.85A5,5 0 1 1 1495.1,749.85A5,5 0 1 1 1505.1,749.85Z" style="fill:#00FF00" />
<path d="M1700.1,833.89A5,5 0 1 1 1690.1,833.89A5,5 0 1 1 1700.1,833.89Z" style="fill:#00FF00" />
<path d="M1895,932.5A5,5 0 1 1 1885,932.5A5,5 0 1 1 1895,932.5Z" style="fill:#00FF00" />
<path d="M1900,126.03L1920,126.03" style="fill:none;stroke:#FF0000;stroke-width:4" />
<path d="M1915,126.03A5,5 0 1 1 1905,126.03A5,5 0 1 1 1915,126.03Z" style="fill:#FF0000" />
<text x="1823.3" y="-121.05" transform="scale(1, -1)"
	style="font-family:Liberation Serif;font-variant:normal;font-weight:normal;font-style:normal;font-size:24px">std::list</text>
<path d="M1900,105.66L1920,105.66" style="fill:none;stroke:#0000FF;stroke-width:4" />
<path d="M1915,105.66A5,5 0 1 1 1905,105.66A5,5 0 1 1 1915,105.66Z" style="fill:#0000FF" />
<text x="1795.4" y="-100.69" transform="scale(1, -1)"
	style="font-family:Liberation Serif;font-variant:normal;font-weight:normal;font-style:normal;font-size:24px">std::deque</text>
<path d="M1900,85.294L1920,85.294" style="fill:none;stroke:#00FF00;stroke-width:4" />
<path d="M1915,85.294A5,5 0 1 1 1905,85.294A5,5 0 1 1 1915,85.294Z" style="fill:#00FF00" />
<text x="1792.7" y="-80.319" transform="scale(1, -1)"
	style="font-family:Liberation Serif;font-variant:normal;font-weight:normal;font-style:normal;font-size:24px">std::vector</text>
</g>
</svg>
