<?xml version="1.0"?>
<!-- Generated by SVGo and Plotinum VG -->
<svg width="1920pt" height="1080pt" viewBox="0 0 1920 1080"
	xmlns="http://www.w3.org/2000/svg"
	xmlns:xlink="http://www.w3.org/1999/xlink">
<g transform="scale(1, -1) translate(0, -1080)">
<path d="M0,0L1920,0L1920,1080L0,1080Z" style="fill:#FFFFFF" />
<text x="702.48" y="-1040.9" transform="scale(1, -1)"
	style="font-family:Liberation Serif;font-variant:normal;font-weight:normal;font-style:normal;font-size:50px">random-erase - Log Scale</text>
<text x="890.27" y="-9.7559" transform="scale(1, -1)"
	style="font-family:Liberation Serif;font-variant:normal;font-weight:normal;font-style:normal;font-size:30px">Number of elements</text>
<text x="110.46" y="-39.727" transform="scale(1, -1)"
	style="font-family:Liberation Serif;font-variant:normal;font-weight:normal;font-style:normal;font-size:20px">10000</text>
<text x="305.41" y="-39.727" transform="scale(1, -1)"
	style="font-family:Liberation Serif;font-variant:normal;font-weight:normal;font-style:normal;font-size:20px">20000</text>
<text x="500.36" y="-39.727" transform="scale(1, -1)"
	style="font-family:Liberation Serif;font-variant:normal;font-weight:normal;font-style:normal;font-size:20px">30000</text>
<text x="695.31" y="-39.727" transform="scale(1, -1)"
	style="font-family:Liberation Serif;font-variant:normal;font-weight:normal;font-style:normal;font-size:20px">40000</text>
<text x="890.26" y="-39.727" transform="scale(1, -1)"
	style="font-family:Liberation Serif;font-variant:normal;font-weight:normal;font-style:normal;font-size:20px">50000</text>
<text x="1085.2" y="-39.727" transform="scale(1, -1)"
	style="font-family:Liberation Serif;font-variant:normal;font-weight:normal;font-style:normal;font-size:20px">60000</text>
<text x="1280.2" y="-39.727" transform="scale(1, -1)"
	style="font-family:Liberation Serif;font-variant:normal;font-weight:normal;font-style:normal;font-size:20px">70000</text>
<text x="1475.1" y="-39.727" transform="scale(1, -1)"
	style="font-family:Liberation Serif;font-variant:normal;font-weight:normal;font-style:normal;font-size:20px">80000</text>
<text x="1670.1" y="-39.727" transform="scale(1, -1)"
	style="font-family:Liberation Serif;font-variant:normal;font-weight:normal;font-style:normal;font-size:20px">90000</text>
<text x="1860" y="-39.727" transform="scale(1, -1)"
	style="font-family:Liberation Serif;font-variant:normal;font-weight:normal;font-style:normal;font-size:20px">100000</text>
<path d="M135.46,55.371L135.46,63.371" style="fill:none;stroke:#000000;stroke-width:0.5" />
<path d="M330.41,55.371L330.41,63.371" style="fill:none;stroke:#000000;stroke-width:0.5" />
<path d="M525.36,55.371L525.36,63.371" style="fill:none;stroke:#000000;stroke-width:0.5" />
<path d="M720.31,55.371L720.31,63.371" style="fill:none;stroke:#000000;stroke-width:0.5" />
<path d="M915.26,55.371L915.26,63.371" style="fill:none;stroke:#000000;stroke-width:0.5" />
<path d="M1110.2,55.371L1110.2,63.371" style="fill:none;stroke:#000000;stroke-width:0.5" />
<path d="M1305.2,55.371L1305.2,63.371" style="fill:none;stroke:#000000;stroke-width:0.5" />
<path d="M1500.1,55.371L1500.1,63.371" style="fill:none;stroke:#000000;stroke-width:0.5" />
<path d="M1695.1,55.371L1695.1,63.371" style="fill:none;stroke:#000000;stroke-width:0.5" />
<path d="M1890,55.371L1890,63.371" style="fill:none;stroke:#000000;stroke-width:0.5" />
<path d="M135.46,63.371L1890,63.371" style="fill:none;stroke:#000000;stroke-width:0.5" />
<g transform="rotate(90)">
<text x="485.87" y="23.467" transform="scale(1, -1)"
	style="font-family:Liberation Serif;font-variant:normal;font-weight:normal;font-style:normal;font-size:30px">log(μs + 1)</text>
</g>
<text x="39.712" y="-174.2" transform="scale(1, -1)"
	style="font-family:Liberation Serif;font-variant:normal;font-weight:normal;font-style:normal;font-size:20px">1000000</text>
<text x="39.712" y="-776.02" transform="scale(1, -1)"
	style="font-family:Liberation Serif;font-variant:normal;font-weight:normal;font-style:normal;font-size:20px">5000000</text>
<text x="39.712" y="-995.82" transform="scale(1, -1)"
	style="font-family:Liberation Serif;font-variant:normal;font-weight:normal;font-style:normal;font-size:20px">9000000</text>
<path d="M114.71,178.77L122.71,178.77" style="fill:none;stroke:#000000;stroke-width:0.5" />
<path d="M114.71,780.59L122.71,780.59" style="fill:none;stroke:#000000;stroke-width:0.5" />
<path d="M114.71,1000.4L122.71,1000.4" style="fill:none;stroke:#000000;stroke-width:0.5" />
<path d="M118.71,437.96L122.71,437.96" style="fill:none;stroke:#000000;stroke-width:0.5" />
<path d="M118.71,589.58L122.71,589.58" style="fill:none;stroke:#000000;stroke-width:0.5" />
<path d="M118.71,697.15L122.71,697.15" style="fill:none;stroke:#000000;stroke-width:0.5" />
<path d="M118.71,848.77L122.71,848.77" style="fill:none;stroke:#000000;stroke-width:0.5" />
<path d="M118.71,906.41L122.71,906.41" style="fill:none;stroke:#000000;stroke-width:0.5" />
<path d="M118.71,956.34L122.71,956.34" style="fill:none;stroke:#000000;stroke-width:0.5" />
<path d="M122.71,80.11L122.71,1024.6" style="fill:none;stroke:#000000;stroke-width:0.5" />
<path d="M135.46,80.11L135.46,1024.6" style="fill:none;stroke:#808080;stroke-width:0.25" />
<path d="M330.41,80.11L330.41,1024.6" style="fill:none;stroke:#808080;stroke-width:0.25" />
<path d="M525.36,80.11L525.36,1024.6" style="fill:none;stroke:#808080;stroke-width:0.25" />
<path d="M720.31,80.11L720.31,1024.6" style="fill:none;stroke:#808080;stroke-width:0.25" />
<path d="M915.26,80.11L915.26,1024.6" style="fill:none;stroke:#808080;stroke-width:0.25" />
<path d="M1110.2,80.11L1110.2,1024.6" style="fill:none;stroke:#808080;stroke-width:0.25" />
<path d="M1305.2,80.11L1305.2,1024.6" style="fill:none;stroke:#808080;stroke-width:0.25" />
<path d="M1500.1,80.11L1500.1,1024.6" style="fill:none;stroke:#808080;stroke-width:0.25" />
<path d="M1695.1,80.11L1695.1,1024.6" style="fill:none;stroke:#808080;stroke-width:0.25" />
<path d="M1890,80.11L1890,1024.6" style="fill:none;stroke:#808080;stroke-width:0.25" />
<path d="M135.46,178.77L1890,178.77" style="fill:none;stroke:#808080;stroke-width:0.25" />
<path d="M135.46,780.59L1890,780.59" style="fill:none;stroke:#808080;stroke-width:0.25" />
<path d="M135.46,1000.4L1890,1000.4" style="fill:none;stroke:#808080;stroke-width:0.25" />
<path d="M135.46,80.922L330.41,347.37L525.36,524.66L720.31,619.1L915.26,717.29L1110.2,812.97L1305.2,853.65L1500.1,917.81L1695.1,973.16L1890,988.99" style="fill:none;stroke:#FF0000;stroke-width:4" />
<path d="M140.46,80.922A5,5 0 1 1 130.46,80.922A5,5 0 1 1 140.46,80.922Z" style="fill:#FF0000" />
<path d="M335.41,347.37A5,5 0 1 1 325.41,347.37A5,5 0 1 1 335.41,347.37Z" style="fill:#FF0000" />
<path d="M530.36,524.66A5,5 0 1 1 520.36,524.66A5,5 0 1 1 530.36,524.66Z" style="fill:#FF0000" />
<path d="M725.31,619.1A5,5 0 1 1 715.31,619.1A5,5 0 1 1 725.31,619.1Z" style="fill:#FF0000" />
<path d="M920.26,717.29A5,5 0 1 1 910.26,717.29A5,5 0 1 1 920.26,717.29Z" style="fill:#FF0000" />
<path d="M1115.2,812.97A5,5 0 1 1 1105.2,812.97A5,5 0 1 1 1115.2,812.97Z" style="fill:#FF0000" />
<path d="M1310.2,853.65A5,5 0 1 1 1300.2,853.65A5,5 0 1 1 1310.2,853.65Z" style="fill:#FF0000" />
<path d="M1505.1,917.81A5,5 0 1 1 1495.1,917.81A5,5 0 1 1 1505.1,917.81Z" style="fill:#FF0000" />
<path d="M1700.1,973.16A5,5 0 1 1 1690.1,973.16A5,5 0 1 1 1700.1,973.16Z" style="fill:#FF0000" />
<path d="M1895,988.99A5,5 0 1 1 1885,988.99A5,5 0 1 1 1895,988.99Z" style="fill:#FF0000" />
<path d="M135.46,98.172L330.41,346.98L525.36,454.79L720.31,582.35L915.26,660.95L1110.2,742.69L1305.2,806.11L1500.1,848.95L1695.1,875.82L1890,918.83" style="fill:none;stroke:#0000FF;stroke-width:4" />
<path d="M140.46,98.172A5,5 0 1 1 130.46,98.172A5,5 0 1 1 140.46,98.172Z" style="fill:#0000FF" />
<path d="M335.41,346.98A5,5 0 1 1 325.41,346.98A5,5 0 1 1 335.41,346.98Z" style="fill:#0000FF" />
<path d="M530.36,454.79A5,5 0 1 1 520.36,454.79A5,5 0 1 1 530.36,454.79Z" style="fill:#0000FF" />
<path d="M725.31,582.35A5,5 0 1 1 715.31,582.35A5,5 0 1 1 725.31,582.35Z" style="fill:#0000FF" />
<path d="M920.26,660.95A5,5 0 1 1 910.26,660.95A5,5 0 1 1 920.26,660.95Z" style="fill:#0000FF" />
<path d="M1115.2,742.69A5,5 0 1 1 1105.2,742.69A5,5 0 1 1 1115.2,742.69Z" style="fill:#0000FF" />
<path d="M1310.2,806.11A5,5 0 1 1 1300.2,806.11A5,5 0 1 1 1310.2,806.11Z" style="fill:#0000FF" />
<path d="M1505.1,848.95A5,5 0 1 1 1495.1,848.95A5,5 0 1 1 1505.1,848.95Z" style="fill:#0000FF" />
<path d="M1700.1,875.82A5,5 0 1 1 1690.1,875.82A5,5 0 1 1 1700.1,875.82Z" style="fill:#0000FF" />
<path d="M1895,918.83A5,5 0 1 1 1885,918.83A5,5 0 1 1 1895,918.83Z" style="fill:#0000FF" />
<path d="M135.46,80.11L330.41,344.96L525.36,538.71L720.31,625.69L915.26,717.68L1110.2,773.01L1305.2,854.26L1500.1,897.5L1695.1,942.26L1890,970.17" style="fill:none;stroke:#00FF00;stroke-width:4" />
<path d="M140.46,80.11A5,5 0 1 1 130.46,80.11A5,5 0 1 1 140.46,80.11Z" style="fill:#00FF00" />
<path d="M335.41,344.96A5,5 0 1 1 325.41,344.96A5,5 0 1 1 335.41,344.96Z" style="fill:#00FF00" />
<path d="M530.36,538.71A5,5 0 1 1 520.36,538.71A5,5 0 1 1 530.36,538.71Z" style="fill:#00FF00" />
<path d="M725.31,625.69A5,5 0 1 1 715.31,625.69A5,5 0 1 1 725.31,625.69Z" style="fill:#00FF00" />
<path d="M920.26,717.68A5,5 0 1 1 910.26,717.68A5,5 0 1 1 920.26,717.68Z" style="fill:#00FF00" />
<path d="M1115.2,773.01A5,5 0 1 1 1105.2,773.01A5,5 0 1 1 1115.2,773.01Z" style="fill:#00FF00" />
<path d="M1310.2,854.26A5,5 0 1 1 1300.2,854.26A5,5 0 1 1 1310.2,854.26Z" style="fill:#00FF00" />
<path d="M1505.1,897.5A5,5 0 1 1 1495.1,897.5A5,5 0 1 1 1505.1,897.5Z" style="fill:#00FF00" />
<path d="M1700.1,942.26A5,5 0 1 1 1690.1,942.26A5,5 0 1 1 1700.1,942.26Z" style="fill:#00FF00" />
<path d="M1895,970.17A5,5 0 1 1 1885,970.17A5,5 0 1 1 1895,970.17Z" style="fill:#00FF00" />
<path d="M1900,126.03L1920,126.03" style="fill:none;stroke:#FF0000;stroke-width:4" />
<path d="M1915,126.03A5,5 0 1 1 1905,126.03A5,5 0 1 1 1915,126.03Z" style="fill:#FF0000" />
<text x="1792.7" y="-121.05" transform="scale(1, -1)"
	style="font-family:Liberation Serif;font-variant:normal;font-weight:normal;font-style:normal;font-size:24px">std::vector</text>
<path d="M1900,105.66L1920,105.66" style="fill:none;stroke:#0000FF;stroke-width:4" />
<path d="M1915,105.66A5,5 0 1 1 1905,105.66A5,5 0 1 1 1915,105.66Z" style="fill:#0000FF" />
<text x="1823.3" y="-100.69" transform="scale(1, -1)"
	style="font-family:Liberation Serif;font-variant:normal;font-weight:normal;font-style:normal;font-size:24px">std::list</text>
<path d="M1900,85.294L1920,85.294" style="fill:none;stroke:#00FF00;stroke-width:4" />
<path d="M1915,85.294A5,5 0 1 1 1905,85.294A5,5 0 1 1 1915,85.294Z" style="fill:#00FF00" />
<text x="1795.4" y="-80.319" transform="scale(1, -1)"
	style="font-family:Liberation Serif;font-variant:normal;font-weight:normal;font-style:normal;font-size:24px">std::deque</text>
</g>
</svg>
