<?xml version="1.0"?>
<!-- Generated by SVGo and Plotinum VG -->
<svg width="1920pt" height="1080pt" viewBox="0 0 1920 1080"
	xmlns="http://www.w3.org/2000/svg"
	xmlns:xlink="http://www.w3.org/1999/xlink">
<g transform="scale(1, -1) translate(0, -1080)">
<path d="M0,0L1920,0L1920,1080L0,1080Z" style="fill:#FFFFFF" />
<text x="823.96" y="-1040.9" transform="scale(1, -1)"
	style="font-family:Liberation Serif;font-variant:normal;font-weight:normal;font-style:normal;font-size:50px">random-erase</text>
<text x="890.27" y="-9.7559" transform="scale(1, -1)"
	style="font-family:Liberation Serif;font-variant:normal;font-weight:normal;font-style:normal;font-size:30px">Number of elements</text>
<text x="110.46" y="-39.727" transform="scale(1, -1)"
	style="font-family:Liberation Serif;font-variant:normal;font-weight:normal;font-style:normal;font-size:20px">10000</text>
<text x="305.41" y="-39.727" transform="scale(1, -1)"
	style="font-family:Liberation Serif;font-variant:normal;font-weight:normal;font-style:normal;font-size:20px">20000</text>
<text x="500.36" y="-39.727" transform="scale(1, -1)"
	style="font-family:Liberation Serif;font-variant:normal;font-weight:normal;font-style:normal;font-size:20px">30000</text>
<text x="695.31" y="-39.727" transform="scale(1, -1)"
	style="font-family:Liberation Serif;font-variant:normal;font-weight:normal;font-style:normal;font-size:20px">40000</text>
<text x="890.26" y="-39.727" transform="scale(1, -1)"
	style="font-family:Liberation Serif;font-variant:normal;font-weight:normal;font-style:normal;font-size:20px">50000</text>
<text x="1085.2" y="-39.727" transform="scale(1, -1)"
	style="font-family:Liberation Serif;font-variant:normal;font-weight:normal;font-style:normal;font-size:20px">60000</text>
<text x="1280.2" y="-39.727" transform="scale(1, -1)"
	style="font-family:Liberation Serif;font-variant:normal;font-weight:normal;font-style:normal;font-size:20px">70000</text>
<text x="1475.1" y="-39.727" transform="scale(1, -1)"
	style="font-family:Liberation Serif;font-variant:normal;font-weight:normal;font-style:normal;font-size:20px">80000</text>
<text x="1670.1" y="-39.727" transform="scale(1, -1)"
	style="font-family:Liberation Serif;font-variant:normal;font-weight:normal;font-style:normal;font-size:20px">90000</text>
<text x="1860" y="-39.727" transform="scale(1, -1)"
	style="font-family:Liberation Serif;font-variant:normal;font-weight:normal;font-style:normal;font-size:20px">100000</text>
<path d="M135.46,55.371L135.46,63.371" style="fill:none;stroke:#000000;stroke-width:0.5" />
<path d="M330.41,55.371L330.41,63.371" style="fill:none;stroke:#000000;stroke-width:0.5" />
<path d="M525.36,55.371L525.36,63.371" style="fill:none;stroke:#000000;stroke-width:0.5" />
<path d="M720.31,55.371L720.31,63.371" style="fill:none;stroke:#000000;stroke-width:0.5" />
<path d="M915.26,55.371L915.26,63.371" style="fill:none;stroke:#000000;stroke-width:0.5" />
<path d="M1110.2,55.371L1110.2,63.371" style="fill:none;stroke:#000000;stroke-width:0.5" />
<path d="M1305.2,55.371L1305.2,63.371" style="fill:none;stroke:#000000;stroke-width:0.5" />
<path d="M1500.1,55.371L1500.1,63.371" style="fill:none;stroke:#000000;stroke-width:0.5" />
<path d="M1695.1,55.371L1695.1,63.371" style="fill:none;stroke:#000000;stroke-width:0.5" />
<path d="M1890,55.371L1890,63.371" style="fill:none;stroke:#000000;stroke-width:0.5" />
<path d="M135.46,63.371L1890,63.371" style="fill:none;stroke:#000000;stroke-width:0.5" />
<g transform="rotate(90)">
<text x="538.49" y="23.467" transform="scale(1, -1)"
	style="font-family:Liberation Serif;font-variant:normal;font-weight:normal;font-style:normal;font-size:30px">μs</text>
</g>
<text x="49.712" y="-148.19" transform="scale(1, -1)"
	style="font-family:Liberation Serif;font-variant:normal;font-weight:normal;font-style:normal;font-size:20px">200000</text>
<text x="49.712" y="-568.3" transform="scale(1, -1)"
	style="font-family:Liberation Serif;font-variant:normal;font-weight:normal;font-style:normal;font-size:20px">800000</text>
<text x="39.712" y="-988.42" transform="scale(1, -1)"
	style="font-family:Liberation Serif;font-variant:normal;font-weight:normal;font-style:normal;font-size:20px">1400000</text>
<path d="M114.71,152.76L122.71,152.76" style="fill:none;stroke:#000000;stroke-width:0.5" />
<path d="M114.71,572.88L122.71,572.88" style="fill:none;stroke:#000000;stroke-width:0.5" />
<path d="M114.71,992.99L122.71,992.99" style="fill:none;stroke:#000000;stroke-width:0.5" />
<path d="M118.71,362.82L122.71,362.82" style="fill:none;stroke:#000000;stroke-width:0.5" />
<path d="M118.71,782.93L122.71,782.93" style="fill:none;stroke:#000000;stroke-width:0.5" />
<path d="M122.71,80.11L122.71,1024.6" style="fill:none;stroke:#000000;stroke-width:0.5" />
<path d="M135.46,80.11L135.46,1024.6" style="fill:none;stroke:#808080;stroke-width:0.25" />
<path d="M330.41,80.11L330.41,1024.6" style="fill:none;stroke:#808080;stroke-width:0.25" />
<path d="M525.36,80.11L525.36,1024.6" style="fill:none;stroke:#808080;stroke-width:0.25" />
<path d="M720.31,80.11L720.31,1024.6" style="fill:none;stroke:#808080;stroke-width:0.25" />
<path d="M915.26,80.11L915.26,1024.6" style="fill:none;stroke:#808080;stroke-width:0.25" />
<path d="M1110.2,80.11L1110.2,1024.6" style="fill:none;stroke:#808080;stroke-width:0.25" />
<path d="M1305.2,80.11L1305.2,1024.6" style="fill:none;stroke:#808080;stroke-width:0.25" />
<path d="M1500.1,80.11L1500.1,1024.6" style="fill:none;stroke:#808080;stroke-width:0.25" />
<path d="M1695.1,80.11L1695.1,1024.6" style="fill:none;stroke:#808080;stroke-width:0.25" />
<path d="M1890,80.11L1890,1024.6" style="fill:none;stroke:#808080;stroke-width:0.25" />
<path d="M135.46,152.76L1890,152.76" style="fill:none;stroke:#808080;stroke-width:0.25" />
<path d="M135.46,572.88L1890,572.88" style="fill:none;stroke:#808080;stroke-width:0.25" />
<path d="M135.46,992.99L1890,992.99" style="fill:none;stroke:#808080;stroke-width:0.25" />
<path d="M135.46,138.25L330.41,234.61L525.36,328.89L720.31,397.15L915.26,512.46L1110.2,569.3L1305.2,647.39L1500.1,796.76L1695.1,851.19L1890,932.64" style="fill:none;stroke:#FF0000;stroke-width:4" />
<path d="M140.46,138.25A5,5 0 1 1 130.46,138.25A5,5 0 1 1 140.46,138.25Z" style="fill:#FF0000" />
<path d="M335.41,234.61A5,5 0 1 1 325.41,234.61A5,5 0 1 1 335.41,234.61Z" style="fill:#FF0000" />
<path d="M530.36,328.89A5,5 0 1 1 520.36,328.89A5,5 0 1 1 530.36,328.89Z" style="fill:#FF0000" />
<path d="M725.31,397.15A5,5 0 1 1 715.31,397.15A5,5 0 1 1 725.31,397.15Z" style="fill:#FF0000" />
<path d="M920.26,512.46A5,5 0 1 1 910.26,512.46A5,5 0 1 1 920.26,512.46Z" style="fill:#FF0000" />
<path d="M1115.2,569.3A5,5 0 1 1 1105.2,569.3A5,5 0 1 1 1115.2,569.3Z" style="fill:#FF0000" />
<path d="M1310.2,647.39A5,5 0 1 1 1300.2,647.39A5,5 0 1 1 1310.2,647.39Z" style="fill:#FF0000" />
<path d="M1505.1,796.76A5,5 0 1 1 1495.1,796.76A5,5 0 1 1 1505.1,796.76Z" style="fill:#FF0000" />
<path d="M1700.1,851.19A5,5 0 1 1 1690.1,851.19A5,5 0 1 1 1700.1,851.19Z" style="fill:#FF0000" />
<path d="M1895,932.64A5,5 0 1 1 1885,932.64A5,5 0 1 1 1895,932.64Z" style="fill:#FF0000" />
<path d="M135.46,87.138L330.41,174.5L525.36,242.74L720.31,378.94L915.26,469.11L1110.2,506.76L1305.2,600.65L1500.1,739.55L1695.1,852.58L1890,865.78" style="fill:none;stroke:#0000FF;stroke-width:4" />
<path d="M140.46,87.138A5,5 0 1 1 130.46,87.138A5,5 0 1 1 140.46,87.138Z" style="fill:#0000FF" />
<path d="M335.41,174.5A5,5 0 1 1 325.41,174.5A5,5 0 1 1 335.41,174.5Z" style="fill:#0000FF" />
<path d="M530.36,242.74A5,5 0 1 1 520.36,242.74A5,5 0 1 1 530.36,242.74Z" style="fill:#0000FF" />
<path d="M725.31,378.94A5,5 0 1 1 715.31,378.94A5,5 0 1 1 725.31,378.94Z" style="fill:#0000FF" />
<path d="M920.26,469.11A5,5 0 1 1 910.26,469.11A5,5 0 1 1 920.26,469.11Z" style="fill:#0000FF" />
<path d="M1115.2,506.76A5,5 0 1 1 1105.2,506.76A5,5 0 1 1 1115.2,506.76Z" style="fill:#0000FF" />
<path d="M1310.2,600.65A5,5 0 1 1 1300.2,600.65A5,5 0 1 1 1310.2,600.65Z" style="fill:#0000FF" />
<path d="M1505.1,739.55A5,5 0 1 1 1495.1,739.55A5,5 0 1 1 1505.1,739.55Z" style="fill:#0000FF" />
<path d="M1700.1,852.58A5,5 0 1 1 1690.1,852.58A5,5 0 1 1 1700.1,852.58Z" style="fill:#0000FF" />
<path d="M1895,865.78A5,5 0 1 1 1885,865.78A5,5 0 1 1 1895,865.78Z" style="fill:#0000FF" />
<path d="M135.46,80.11L330.41,156.57L525.36,244.38L720.31,304.17L915.26,392.69L1110.2,469.02L1305.2,544.19L1500.1,621.86L1695.1,706.22L1890,770.73" style="fill:none;stroke:#00FF00;stroke-width:4" />
<path d="M140.46,80.11A5,5 0 1 1 130.46,80.11A5,5 0 1 1 140.46,80.11Z" style="fill:#00FF00" />
<path d="M335.41,156.57A5,5 0 1 1 325.41,156.57A5,5 0 1 1 335.41,156.57Z" style="fill:#00FF00" />
<path d="M530.36,244.38A5,5 0 1 1 520.36,244.38A5,5 0 1 1 530.36,244.38Z" style="fill:#00FF00" />
<path d="M725.31,304.17A5,5 0 1 1 715.31,304.17A5,5 0 1 1 725.31,304.17Z" style="fill:#00FF00" />
<path d="M920.26,392.69A5,5 0 1 1 910.26,392.69A5,5 0 1 1 920.26,392.69Z" style="fill:#00FF00" />
<path d="M1115.2,469.02A5,5 0 1 1 1105.2,469.02A5,5 0 1 1 1115.2,469.02Z" style="fill:#00FF00" />
<path d="M1310.2,544.19A5,5 0 1 1 1300.2,544.19A5,5 0 1 1 1310.2,544.19Z" style="fill:#00FF00" />
<path d="M1505.1,621.86A5,5 0 1 1 1495.1,621.86A5,5 0 1 1 1505.1,621.86Z" style="fill:#00FF00" />
<path d="M1700.1,706.22A5,5 0 1 1 1690.1,706.22A5,5 0 1 1 1700.1,706.22Z" style="fill:#00FF00" />
<path d="M1895,770.73A5,5 0 1 1 1885,770.73A5,5 0 1 1 1895,770.73Z" style="fill:#00FF00" />
<path d="M1900,126.03L1920,126.03" style="fill:none;stroke:#FF0000;stroke-width:4" />
<path d="M1915,126.03A5,5 0 1 1 1905,126.03A5,5 0 1 1 1915,126.03Z" style="fill:#FF0000" />
<text x="1823.3" y="-121.05" transform="scale(1, -1)"
	style="font-family:Liberation Serif;font-variant:normal;font-weight:normal;font-style:normal;font-size:24px">std::list</text>
<path d="M1900,105.66L1920,105.66" style="fill:none;stroke:#0000FF;stroke-width:4" />
<path d="M1915,105.66A5,5 0 1 1 1905,105.66A5,5 0 1 1 1915,105.66Z" style="fill:#0000FF" />
<text x="1795.4" y="-100.69" transform="scale(1, -1)"
	style="font-family:Liberation Serif;font-variant:normal;font-weight:normal;font-style:normal;font-size:24px">std::deque</text>
<path d="M1900,85.294L1920,85.294" style="fill:none;stroke:#00FF00;stroke-width:4" />
<path d="M1915,85.294A5,5 0 1 1 1905,85.294A5,5 0 1 1 1915,85.294Z" style="fill:#00FF00" />
<text x="1792.7" y="-80.319" transform="scale(1, -1)"
	style="font-family:Liberation Serif;font-variant:normal;font-weight:normal;font-style:normal;font-size:24px">std::vector</text>
</g>
</svg>
