<?xml version="1.0"?>
<!-- Generated by SVGo and Plotinum VG -->
<svg width="1920pt" height="1080pt" viewBox="0 0 1920 1080"
	xmlns="http://www.w3.org/2000/svg"
	xmlns:xlink="http://www.w3.org/1999/xlink">
<g transform="scale(1, -1) translate(0, -1080)">
<path d="M0,0L1920,0L1920,1080L0,1080Z" style="fill:#FFFFFF" />
<text x="702.48" y="-1040.9" transform="scale(1, -1)"
	style="font-family:Liberation Serif;font-variant:normal;font-weight:normal;font-style:normal;font-size:50px">random-erase - Log Scale</text>
<text x="890.27" y="-9.7559" transform="scale(1, -1)"
	style="font-family:Liberation Serif;font-variant:normal;font-weight:normal;font-style:normal;font-size:30px">Number of elements</text>
<text x="110.46" y="-39.727" transform="scale(1, -1)"
	style="font-family:Liberation Serif;font-variant:normal;font-weight:normal;font-style:normal;font-size:20px">10000</text>
<text x="305.41" y="-39.727" transform="scale(1, -1)"
	style="font-family:Liberation Serif;font-variant:normal;font-weight:normal;font-style:normal;font-size:20px">20000</text>
<text x="500.36" y="-39.727" transform="scale(1, -1)"
	style="font-family:Liberation Serif;font-variant:normal;font-weight:normal;font-style:normal;font-size:20px">30000</text>
<text x="695.31" y="-39.727" transform="scale(1, -1)"
	style="font-family:Liberation Serif;font-variant:normal;font-weight:normal;font-style:normal;font-size:20px">40000</text>
<text x="890.26" y="-39.727" transform="scale(1, -1)"
	style="font-family:Liberation Serif;font-variant:normal;font-weight:normal;font-style:normal;font-size:20px">50000</text>
<text x="1085.2" y="-39.727" transform="scale(1, -1)"
	style="font-family:Liberation Serif;font-variant:normal;font-weight:normal;font-style:normal;font-size:20px">60000</text>
<text x="1280.2" y="-39.727" transform="scale(1, -1)"
	style="font-family:Liberation Serif;font-variant:normal;font-weight:normal;font-style:normal;font-size:20px">70000</text>
<text x="1475.1" y="-39.727" transform="scale(1, -1)"
	style="font-family:Liberation Serif;font-variant:normal;font-weight:normal;font-style:normal;font-size:20px">80000</text>
<text x="1670.1" y="-39.727" transform="scale(1, -1)"
	style="font-family:Liberation Serif;font-variant:normal;font-weight:normal;font-style:normal;font-size:20px">90000</text>
<text x="1860" y="-39.727" transform="scale(1, -1)"
	style="font-family:Liberation Serif;font-variant:normal;font-weight:normal;font-style:normal;font-size:20px">100000</text>
<path d="M135.46,55.371L135.46,63.371" style="fill:none;stroke:#000000;stroke-width:0.5" />
<path d="M330.41,55.371L330.41,63.371" style="fill:none;stroke:#000000;stroke-width:0.5" />
<path d="M525.36,55.371L525.36,63.371" style="fill:none;stroke:#000000;stroke-width:0.5" />
<path d="M720.31,55.371L720.31,63.371" style="fill:none;stroke:#000000;stroke-width:0.5" />
<path d="M915.26,55.371L915.26,63.371" style="fill:none;stroke:#000000;stroke-width:0.5" />
<path d="M1110.2,55.371L1110.2,63.371" style="fill:none;stroke:#000000;stroke-width:0.5" />
<path d="M1305.2,55.371L1305.2,63.371" style="fill:none;stroke:#000000;stroke-width:0.5" />
<path d="M1500.1,55.371L1500.1,63.371" style="fill:none;stroke:#000000;stroke-width:0.5" />
<path d="M1695.1,55.371L1695.1,63.371" style="fill:none;stroke:#000000;stroke-width:0.5" />
<path d="M1890,55.371L1890,63.371" style="fill:none;stroke:#000000;stroke-width:0.5" />
<path d="M135.46,63.371L1890,63.371" style="fill:none;stroke:#000000;stroke-width:0.5" />
<g transform="rotate(90)">
<text x="485.87" y="23.467" transform="scale(1, -1)"
	style="font-family:Liberation Serif;font-variant:normal;font-weight:normal;font-style:normal;font-size:30px">log(μs + 1)</text>
</g>
<text x="39.712" y="-214.6" transform="scale(1, -1)"
	style="font-family:Liberation Serif;font-variant:normal;font-weight:normal;font-style:normal;font-size:20px">1000000</text>
<text x="39.712" y="-780.19" transform="scale(1, -1)"
	style="font-family:Liberation Serif;font-variant:normal;font-weight:normal;font-style:normal;font-size:20px">5000000</text>
<text x="39.712" y="-986.74" transform="scale(1, -1)"
	style="font-family:Liberation Serif;font-variant:normal;font-weight:normal;font-style:normal;font-size:20px">9000000</text>
<path d="M114.71,219.17L122.71,219.17" style="fill:none;stroke:#000000;stroke-width:0.5" />
<path d="M114.71,784.76L122.71,784.76" style="fill:none;stroke:#000000;stroke-width:0.5" />
<path d="M114.71,991.31L122.71,991.31" style="fill:none;stroke:#000000;stroke-width:0.5" />
<path d="M118.71,462.75L122.71,462.75" style="fill:none;stroke:#000000;stroke-width:0.5" />
<path d="M118.71,605.24L122.71,605.24" style="fill:none;stroke:#000000;stroke-width:0.5" />
<path d="M118.71,706.34L122.71,706.34" style="fill:none;stroke:#000000;stroke-width:0.5" />
<path d="M118.71,848.83L122.71,848.83" style="fill:none;stroke:#000000;stroke-width:0.5" />
<path d="M118.71,903L122.71,903" style="fill:none;stroke:#000000;stroke-width:0.5" />
<path d="M118.71,949.92L122.71,949.92" style="fill:none;stroke:#000000;stroke-width:0.5" />
<path d="M122.71,80.11L122.71,1024.6" style="fill:none;stroke:#000000;stroke-width:0.5" />
<path d="M135.46,80.11L135.46,1024.6" style="fill:none;stroke:#808080;stroke-width:0.25" />
<path d="M330.41,80.11L330.41,1024.6" style="fill:none;stroke:#808080;stroke-width:0.25" />
<path d="M525.36,80.11L525.36,1024.6" style="fill:none;stroke:#808080;stroke-width:0.25" />
<path d="M720.31,80.11L720.31,1024.6" style="fill:none;stroke:#808080;stroke-width:0.25" />
<path d="M915.26,80.11L915.26,1024.6" style="fill:none;stroke:#808080;stroke-width:0.25" />
<path d="M1110.2,80.11L1110.2,1024.6" style="fill:none;stroke:#808080;stroke-width:0.25" />
<path d="M1305.2,80.11L1305.2,1024.6" style="fill:none;stroke:#808080;stroke-width:0.25" />
<path d="M1500.1,80.11L1500.1,1024.6" style="fill:none;stroke:#808080;stroke-width:0.25" />
<path d="M1695.1,80.11L1695.1,1024.6" style="fill:none;stroke:#808080;stroke-width:0.25" />
<path d="M1890,80.11L1890,1024.6" style="fill:none;stroke:#808080;stroke-width:0.25" />
<path d="M135.46,219.17L1890,219.17" style="fill:none;stroke:#808080;stroke-width:0.25" />
<path d="M135.46,784.76L1890,784.76" style="fill:none;stroke:#808080;stroke-width:0.25" />
<path d="M135.46,991.31L1890,991.31" style="fill:none;stroke:#808080;stroke-width:0.25" />
<path d="M135.46,80.11L330.41,300.71L525.36,447.63L720.31,564.4L915.26,661.45L1110.2,741.67L1305.2,801.14L1500.1,846.29L1695.1,857.13L1890,915.08" style="fill:none;stroke:#FF0000;stroke-width:4" />
<path d="M140.46,80.11A5,5 0 1 1 130.46,80.11A5,5 0 1 1 140.46,80.11Z" style="fill:#FF0000" />
<path d="M335.41,300.71A5,5 0 1 1 325.41,300.71A5,5 0 1 1 335.41,300.71Z" style="fill:#FF0000" />
<path d="M530.36,447.63A5,5 0 1 1 520.36,447.63A5,5 0 1 1 530.36,447.63Z" style="fill:#FF0000" />
<path d="M725.31,564.4A5,5 0 1 1 715.31,564.4A5,5 0 1 1 725.31,564.4Z" style="fill:#FF0000" />
<path d="M920.26,661.45A5,5 0 1 1 910.26,661.45A5,5 0 1 1 920.26,661.45Z" style="fill:#FF0000" />
<path d="M1115.2,741.67A5,5 0 1 1 1105.2,741.67A5,5 0 1 1 1115.2,741.67Z" style="fill:#FF0000" />
<path d="M1310.2,801.14A5,5 0 1 1 1300.2,801.14A5,5 0 1 1 1310.2,801.14Z" style="fill:#FF0000" />
<path d="M1505.1,846.29A5,5 0 1 1 1495.1,846.29A5,5 0 1 1 1505.1,846.29Z" style="fill:#FF0000" />
<path d="M1700.1,857.13A5,5 0 1 1 1690.1,857.13A5,5 0 1 1 1700.1,857.13Z" style="fill:#FF0000" />
<path d="M1895,915.08A5,5 0 1 1 1885,915.08A5,5 0 1 1 1895,915.08Z" style="fill:#FF0000" />
<path d="M135.46,120.69L330.41,435.42L525.36,533.57L720.31,611.44L915.26,695.21L1110.2,763.66L1305.2,819.3L1500.1,866.75L1695.1,915.29L1890,962.25" style="fill:none;stroke:#0000FF;stroke-width:4" />
<path d="M140.46,120.69A5,5 0 1 1 130.46,120.69A5,5 0 1 1 140.46,120.69Z" style="fill:#0000FF" />
<path d="M335.41,435.42A5,5 0 1 1 325.41,435.42A5,5 0 1 1 335.41,435.42Z" style="fill:#0000FF" />
<path d="M530.36,533.57A5,5 0 1 1 520.36,533.57A5,5 0 1 1 530.36,533.57Z" style="fill:#0000FF" />
<path d="M725.31,611.44A5,5 0 1 1 715.31,611.44A5,5 0 1 1 725.31,611.44Z" style="fill:#0000FF" />
<path d="M920.26,695.21A5,5 0 1 1 910.26,695.21A5,5 0 1 1 920.26,695.21Z" style="fill:#0000FF" />
<path d="M1115.2,763.66A5,5 0 1 1 1105.2,763.66A5,5 0 1 1 1115.2,763.66Z" style="fill:#0000FF" />
<path d="M1310.2,819.3A5,5 0 1 1 1300.2,819.3A5,5 0 1 1 1310.2,819.3Z" style="fill:#0000FF" />
<path d="M1505.1,866.75A5,5 0 1 1 1495.1,866.75A5,5 0 1 1 1505.1,866.75Z" style="fill:#0000FF" />
<path d="M1700.1,915.29A5,5 0 1 1 1690.1,915.29A5,5 0 1 1 1700.1,915.29Z" style="fill:#0000FF" />
<path d="M1895,962.25A5,5 0 1 1 1885,962.25A5,5 0 1 1 1895,962.25Z" style="fill:#0000FF" />
<path d="M135.46,154.45L330.41,401.92L525.36,552.1L720.31,655.88L915.26,741.3L1110.2,809.76L1305.2,862.15L1500.1,913.49L1695.1,951.36L1890,991.14" style="fill:none;stroke:#00FF00;stroke-width:4" />
<path d="M140.46,154.45A5,5 0 1 1 130.46,154.45A5,5 0 1 1 140.46,154.45Z" style="fill:#00FF00" />
<path d="M335.41,401.92A5,5 0 1 1 325.41,401.92A5,5 0 1 1 335.41,401.92Z" style="fill:#00FF00" />
<path d="M530.36,552.1A5,5 0 1 1 520.36,552.1A5,5 0 1 1 530.36,552.1Z" style="fill:#00FF00" />
<path d="M725.31,655.88A5,5 0 1 1 715.31,655.88A5,5 0 1 1 725.31,655.88Z" style="fill:#00FF00" />
<path d="M920.26,741.3A5,5 0 1 1 910.26,741.3A5,5 0 1 1 920.26,741.3Z" style="fill:#00FF00" />
<path d="M1115.2,809.76A5,5 0 1 1 1105.2,809.76A5,5 0 1 1 1115.2,809.76Z" style="fill:#00FF00" />
<path d="M1310.2,862.15A5,5 0 1 1 1300.2,862.15A5,5 0 1 1 1310.2,862.15Z" style="fill:#00FF00" />
<path d="M1505.1,913.49A5,5 0 1 1 1495.1,913.49A5,5 0 1 1 1505.1,913.49Z" style="fill:#00FF00" />
<path d="M1700.1,951.36A5,5 0 1 1 1690.1,951.36A5,5 0 1 1 1700.1,951.36Z" style="fill:#00FF00" />
<path d="M1895,991.14A5,5 0 1 1 1885,991.14A5,5 0 1 1 1895,991.14Z" style="fill:#00FF00" />
<path d="M1900,126.03L1920,126.03" style="fill:none;stroke:#FF0000;stroke-width:4" />
<path d="M1915,126.03A5,5 0 1 1 1905,126.03A5,5 0 1 1 1915,126.03Z" style="fill:#FF0000" />
<text x="1823.3" y="-121.05" transform="scale(1, -1)"
	style="font-family:Liberation Serif;font-variant:normal;font-weight:normal;font-style:normal;font-size:24px">std::list</text>
<path d="M1900,105.66L1920,105.66" style="fill:none;stroke:#0000FF;stroke-width:4" />
<path d="M1915,105.66A5,5 0 1 1 1905,105.66A5,5 0 1 1 1915,105.66Z" style="fill:#0000FF" />
<text x="1795.4" y="-100.69" transform="scale(1, -1)"
	style="font-family:Liberation Serif;font-variant:normal;font-weight:normal;font-style:normal;font-size:24px">std::deque</text>
<path d="M1900,85.294L1920,85.294" style="fill:none;stroke:#00FF00;stroke-width:4" />
<path d="M1915,85.294A5,5 0 1 1 1905,85.294A5,5 0 1 1 1915,85.294Z" style="fill:#00FF00" />
<text x="1792.7" y="-80.319" transform="scale(1, -1)"
	style="font-family:Liberation Serif;font-variant:normal;font-weight:normal;font-style:normal;font-size:24px">std::vector</text>
</g>
</svg>
