<?xml version="1.0"?>
<!-- Generated by SVGo and Plotinum VG -->
<svg width="1920pt" height="1080pt" viewBox="0 0 1920 1080"
	xmlns="http://www.w3.org/2000/svg"
	xmlns:xlink="http://www.w3.org/1999/xlink">
<g transform="scale(1, -1) translate(0, -1080)">
<path d="M0,0L1920,0L1920,1080L0,1080Z" style="fill:#FFFFFF" />
<text x="823.96" y="-1040.9" transform="scale(1, -1)"
	style="font-family:Liberation Serif;font-variant:normal;font-weight:normal;font-style:normal;font-size:50px">random-erase</text>
<text x="890.27" y="-9.7559" transform="scale(1, -1)"
	style="font-family:Liberation Serif;font-variant:normal;font-weight:normal;font-style:normal;font-size:30px">Number of elements</text>
<text x="110.46" y="-39.727" transform="scale(1, -1)"
	style="font-family:Liberation Serif;font-variant:normal;font-weight:normal;font-style:normal;font-size:20px">10000</text>
<text x="305.41" y="-39.727" transform="scale(1, -1)"
	style="font-family:Liberation Serif;font-variant:normal;font-weight:normal;font-style:normal;font-size:20px">20000</text>
<text x="500.36" y="-39.727" transform="scale(1, -1)"
	style="font-family:Liberation Serif;font-variant:normal;font-weight:normal;font-style:normal;font-size:20px">30000</text>
<text x="695.31" y="-39.727" transform="scale(1, -1)"
	style="font-family:Liberation Serif;font-variant:normal;font-weight:normal;font-style:normal;font-size:20px">40000</text>
<text x="890.26" y="-39.727" transform="scale(1, -1)"
	style="font-family:Liberation Serif;font-variant:normal;font-weight:normal;font-style:normal;font-size:20px">50000</text>
<text x="1085.2" y="-39.727" transform="scale(1, -1)"
	style="font-family:Liberation Serif;font-variant:normal;font-weight:normal;font-style:normal;font-size:20px">60000</text>
<text x="1280.2" y="-39.727" transform="scale(1, -1)"
	style="font-family:Liberation Serif;font-variant:normal;font-weight:normal;font-style:normal;font-size:20px">70000</text>
<text x="1475.1" y="-39.727" transform="scale(1, -1)"
	style="font-family:Liberation Serif;font-variant:normal;font-weight:normal;font-style:normal;font-size:20px">80000</text>
<text x="1670.1" y="-39.727" transform="scale(1, -1)"
	style="font-family:Liberation Serif;font-variant:normal;font-weight:normal;font-style:normal;font-size:20px">90000</text>
<text x="1860" y="-39.727" transform="scale(1, -1)"
	style="font-family:Liberation Serif;font-variant:normal;font-weight:normal;font-style:normal;font-size:20px">100000</text>
<path d="M135.46,55.371L135.46,63.371" style="fill:none;stroke:#000000;stroke-width:0.5" />
<path d="M330.41,55.371L330.41,63.371" style="fill:none;stroke:#000000;stroke-width:0.5" />
<path d="M525.36,55.371L525.36,63.371" style="fill:none;stroke:#000000;stroke-width:0.5" />
<path d="M720.31,55.371L720.31,63.371" style="fill:none;stroke:#000000;stroke-width:0.5" />
<path d="M915.26,55.371L915.26,63.371" style="fill:none;stroke:#000000;stroke-width:0.5" />
<path d="M1110.2,55.371L1110.2,63.371" style="fill:none;stroke:#000000;stroke-width:0.5" />
<path d="M1305.2,55.371L1305.2,63.371" style="fill:none;stroke:#000000;stroke-width:0.5" />
<path d="M1500.1,55.371L1500.1,63.371" style="fill:none;stroke:#000000;stroke-width:0.5" />
<path d="M1695.1,55.371L1695.1,63.371" style="fill:none;stroke:#000000;stroke-width:0.5" />
<path d="M1890,55.371L1890,63.371" style="fill:none;stroke:#000000;stroke-width:0.5" />
<path d="M135.46,63.371L1890,63.371" style="fill:none;stroke:#000000;stroke-width:0.5" />
<g transform="rotate(90)">
<text x="538.49" y="23.467" transform="scale(1, -1)"
	style="font-family:Liberation Serif;font-variant:normal;font-weight:normal;font-style:normal;font-size:30px">μs</text>
</g>
<text x="39.712" y="-100.33" transform="scale(1, -1)"
	style="font-family:Liberation Serif;font-variant:normal;font-weight:normal;font-style:normal;font-size:20px">1000000</text>
<text x="39.712" y="-527.97" transform="scale(1, -1)"
	style="font-family:Liberation Serif;font-variant:normal;font-weight:normal;font-style:normal;font-size:20px">5000000</text>
<text x="39.712" y="-955.61" transform="scale(1, -1)"
	style="font-family:Liberation Serif;font-variant:normal;font-weight:normal;font-style:normal;font-size:20px">9000000</text>
<path d="M114.71,104.9L122.71,104.9" style="fill:none;stroke:#000000;stroke-width:0.5" />
<path d="M114.71,532.54L122.71,532.54" style="fill:none;stroke:#000000;stroke-width:0.5" />
<path d="M114.71,960.18L122.71,960.18" style="fill:none;stroke:#000000;stroke-width:0.5" />
<path d="M118.71,211.81L122.71,211.81" style="fill:none;stroke:#000000;stroke-width:0.5" />
<path d="M118.71,318.72L122.71,318.72" style="fill:none;stroke:#000000;stroke-width:0.5" />
<path d="M118.71,425.63L122.71,425.63" style="fill:none;stroke:#000000;stroke-width:0.5" />
<path d="M118.71,639.45L122.71,639.45" style="fill:none;stroke:#000000;stroke-width:0.5" />
<path d="M118.71,746.36L122.71,746.36" style="fill:none;stroke:#000000;stroke-width:0.5" />
<path d="M118.71,853.27L122.71,853.27" style="fill:none;stroke:#000000;stroke-width:0.5" />
<path d="M122.71,80.11L122.71,1024.6" style="fill:none;stroke:#000000;stroke-width:0.5" />
<path d="M135.46,80.11L135.46,1024.6" style="fill:none;stroke:#808080;stroke-width:0.25" />
<path d="M330.41,80.11L330.41,1024.6" style="fill:none;stroke:#808080;stroke-width:0.25" />
<path d="M525.36,80.11L525.36,1024.6" style="fill:none;stroke:#808080;stroke-width:0.25" />
<path d="M720.31,80.11L720.31,1024.6" style="fill:none;stroke:#808080;stroke-width:0.25" />
<path d="M915.26,80.11L915.26,1024.6" style="fill:none;stroke:#808080;stroke-width:0.25" />
<path d="M1110.2,80.11L1110.2,1024.6" style="fill:none;stroke:#808080;stroke-width:0.25" />
<path d="M1305.2,80.11L1305.2,1024.6" style="fill:none;stroke:#808080;stroke-width:0.25" />
<path d="M1500.1,80.11L1500.1,1024.6" style="fill:none;stroke:#808080;stroke-width:0.25" />
<path d="M1695.1,80.11L1695.1,1024.6" style="fill:none;stroke:#808080;stroke-width:0.25" />
<path d="M1890,80.11L1890,1024.6" style="fill:none;stroke:#808080;stroke-width:0.25" />
<path d="M135.46,104.9L1890,104.9" style="fill:none;stroke:#808080;stroke-width:0.25" />
<path d="M135.46,532.54L1890,532.54" style="fill:none;stroke:#808080;stroke-width:0.25" />
<path d="M135.46,960.18L1890,960.18" style="fill:none;stroke:#808080;stroke-width:0.25" />
<path d="M135.46,80.289L330.41,165.81L525.36,267.6L720.31,345.07L915.26,449.29L1110.2,580.9L1305.2,647.89L1500.1,769.52L1695.1,892.6L1890,931.3" style="fill:none;stroke:#FF0000;stroke-width:4" />
<path d="M140.46,80.289A5,5 0 1 1 130.46,80.289A5,5 0 1 1 140.46,80.289Z" style="fill:#FF0000" />
<path d="M335.41,165.81A5,5 0 1 1 325.41,165.81A5,5 0 1 1 335.41,165.81Z" style="fill:#FF0000" />
<path d="M530.36,267.6A5,5 0 1 1 520.36,267.6A5,5 0 1 1 530.36,267.6Z" style="fill:#FF0000" />
<path d="M725.31,345.07A5,5 0 1 1 715.31,345.07A5,5 0 1 1 725.31,345.07Z" style="fill:#FF0000" />
<path d="M920.26,449.29A5,5 0 1 1 910.26,449.29A5,5 0 1 1 920.26,449.29Z" style="fill:#FF0000" />
<path d="M1115.2,580.9A5,5 0 1 1 1105.2,580.9A5,5 0 1 1 1115.2,580.9Z" style="fill:#FF0000" />
<path d="M1310.2,647.89A5,5 0 1 1 1300.2,647.89A5,5 0 1 1 1310.2,647.89Z" style="fill:#FF0000" />
<path d="M1505.1,769.52A5,5 0 1 1 1495.1,769.52A5,5 0 1 1 1505.1,769.52Z" style="fill:#FF0000" />
<path d="M1700.1,892.6A5,5 0 1 1 1690.1,892.6A5,5 0 1 1 1700.1,892.6Z" style="fill:#FF0000" />
<path d="M1895,931.3A5,5 0 1 1 1885,931.3A5,5 0 1 1 1895,931.3Z" style="fill:#FF0000" />
<path d="M135.46,84.174L330.41,165.63L525.36,221.66L720.31,312.58L915.26,386.18L1110.2,481.01L1305.2,570.29L1500.1,639.77L1695.1,687.58L1890,771.63" style="fill:none;stroke:#0000FF;stroke-width:4" />
<path d="M140.46,84.174A5,5 0 1 1 130.46,84.174A5,5 0 1 1 140.46,84.174Z" style="fill:#0000FF" />
<path d="M335.41,165.63A5,5 0 1 1 325.41,165.63A5,5 0 1 1 335.41,165.63Z" style="fill:#0000FF" />
<path d="M530.36,221.66A5,5 0 1 1 520.36,221.66A5,5 0 1 1 530.36,221.66Z" style="fill:#0000FF" />
<path d="M725.31,312.58A5,5 0 1 1 715.31,312.58A5,5 0 1 1 725.31,312.58Z" style="fill:#0000FF" />
<path d="M920.26,386.18A5,5 0 1 1 910.26,386.18A5,5 0 1 1 920.26,386.18Z" style="fill:#0000FF" />
<path d="M1115.2,481.01A5,5 0 1 1 1105.2,481.01A5,5 0 1 1 1115.2,481.01Z" style="fill:#0000FF" />
<path d="M1310.2,570.29A5,5 0 1 1 1300.2,570.29A5,5 0 1 1 1310.2,570.29Z" style="fill:#0000FF" />
<path d="M1505.1,639.77A5,5 0 1 1 1495.1,639.77A5,5 0 1 1 1505.1,639.77Z" style="fill:#0000FF" />
<path d="M1700.1,687.58A5,5 0 1 1 1690.1,687.58A5,5 0 1 1 1700.1,687.58Z" style="fill:#0000FF" />
<path d="M1895,771.63A5,5 0 1 1 1885,771.63A5,5 0 1 1 1895,771.63Z" style="fill:#0000FF" />
<path d="M135.46,80.11L330.41,164.73L525.36,277.93L720.31,351.25L915.26,449.77L1110.2,521.81L1305.2,648.95L1500.1,728.75L1695.1,821.66L1890,885.49" style="fill:none;stroke:#00FF00;stroke-width:4" />
<path d="M140.46,80.11A5,5 0 1 1 130.46,80.11A5,5 0 1 1 140.46,80.11Z" style="fill:#00FF00" />
<path d="M335.41,164.73A5,5 0 1 1 325.41,164.73A5,5 0 1 1 335.41,164.73Z" style="fill:#00FF00" />
<path d="M530.36,277.93A5,5 0 1 1 520.36,277.93A5,5 0 1 1 530.36,277.93Z" style="fill:#00FF00" />
<path d="M725.31,351.25A5,5 0 1 1 715.31,351.25A5,5 0 1 1 725.31,351.25Z" style="fill:#00FF00" />
<path d="M920.26,449.77A5,5 0 1 1 910.26,449.77A5,5 0 1 1 920.26,449.77Z" style="fill:#00FF00" />
<path d="M1115.2,521.81A5,5 0 1 1 1105.2,521.81A5,5 0 1 1 1115.2,521.81Z" style="fill:#00FF00" />
<path d="M1310.2,648.95A5,5 0 1 1 1300.2,648.95A5,5 0 1 1 1310.2,648.95Z" style="fill:#00FF00" />
<path d="M1505.1,728.75A5,5 0 1 1 1495.1,728.75A5,5 0 1 1 1505.1,728.75Z" style="fill:#00FF00" />
<path d="M1700.1,821.66A5,5 0 1 1 1690.1,821.66A5,5 0 1 1 1700.1,821.66Z" style="fill:#00FF00" />
<path d="M1895,885.49A5,5 0 1 1 1885,885.49A5,5 0 1 1 1895,885.49Z" style="fill:#00FF00" />
<path d="M1900,126.03L1920,126.03" style="fill:none;stroke:#FF0000;stroke-width:4" />
<path d="M1915,126.03A5,5 0 1 1 1905,126.03A5,5 0 1 1 1915,126.03Z" style="fill:#FF0000" />
<text x="1792.7" y="-121.05" transform="scale(1, -1)"
	style="font-family:Liberation Serif;font-variant:normal;font-weight:normal;font-style:normal;font-size:24px">std::vector</text>
<path d="M1900,105.66L1920,105.66" style="fill:none;stroke:#0000FF;stroke-width:4" />
<path d="M1915,105.66A5,5 0 1 1 1905,105.66A5,5 0 1 1 1915,105.66Z" style="fill:#0000FF" />
<text x="1823.3" y="-100.69" transform="scale(1, -1)"
	style="font-family:Liberation Serif;font-variant:normal;font-weight:normal;font-style:normal;font-size:24px">std::list</text>
<path d="M1900,85.294L1920,85.294" style="fill:none;stroke:#00FF00;stroke-width:4" />
<path d="M1915,85.294A5,5 0 1 1 1905,85.294A5,5 0 1 1 1915,85.294Z" style="fill:#00FF00" />
<text x="1795.4" y="-80.319" transform="scale(1, -1)"
	style="font-family:Liberation Serif;font-variant:normal;font-weight:normal;font-style:normal;font-size:24px">std::deque</text>
</g>
</svg>
