<?xml version="1.0"?>
<!-- Generated by SVGo and Plotinum VG -->
<svg width="1920pt" height="1080pt" viewBox="0 0 1920 1080"
	xmlns="http://www.w3.org/2000/svg"
	xmlns:xlink="http://www.w3.org/1999/xlink">
<g transform="scale(1, -1) translate(0, -1080)">
<path d="M0,0L1920,0L1920,1080L0,1080Z" style="fill:#FFFFFF" />
<text x="823.96" y="-1040.9" transform="scale(1, -1)"
	style="font-family:Liberation Serif;font-variant:normal;font-weight:normal;font-style:normal;font-size:50px">random-erase</text>
<text x="895.27" y="-9.7559" transform="scale(1, -1)"
	style="font-family:Liberation Serif;font-variant:normal;font-weight:normal;font-style:normal;font-size:30px">Number of elements</text>
<text x="120.46" y="-39.727" transform="scale(1, -1)"
	style="font-family:Liberation Serif;font-variant:normal;font-weight:normal;font-style:normal;font-size:20px">10000</text>
<text x="314.3" y="-39.727" transform="scale(1, -1)"
	style="font-family:Liberation Serif;font-variant:normal;font-weight:normal;font-style:normal;font-size:20px">20000</text>
<text x="508.14" y="-39.727" transform="scale(1, -1)"
	style="font-family:Liberation Serif;font-variant:normal;font-weight:normal;font-style:normal;font-size:20px">30000</text>
<text x="701.97" y="-39.727" transform="scale(1, -1)"
	style="font-family:Liberation Serif;font-variant:normal;font-weight:normal;font-style:normal;font-size:20px">40000</text>
<text x="895.81" y="-39.727" transform="scale(1, -1)"
	style="font-family:Liberation Serif;font-variant:normal;font-weight:normal;font-style:normal;font-size:20px">50000</text>
<text x="1089.6" y="-39.727" transform="scale(1, -1)"
	style="font-family:Liberation Serif;font-variant:normal;font-weight:normal;font-style:normal;font-size:20px">60000</text>
<text x="1283.5" y="-39.727" transform="scale(1, -1)"
	style="font-family:Liberation Serif;font-variant:normal;font-weight:normal;font-style:normal;font-size:20px">70000</text>
<text x="1477.3" y="-39.727" transform="scale(1, -1)"
	style="font-family:Liberation Serif;font-variant:normal;font-weight:normal;font-style:normal;font-size:20px">80000</text>
<text x="1671.2" y="-39.727" transform="scale(1, -1)"
	style="font-family:Liberation Serif;font-variant:normal;font-weight:normal;font-style:normal;font-size:20px">90000</text>
<text x="1860" y="-39.727" transform="scale(1, -1)"
	style="font-family:Liberation Serif;font-variant:normal;font-weight:normal;font-style:normal;font-size:20px">100000</text>
<path d="M145.46,55.371L145.46,63.371" style="fill:none;stroke:#000000;stroke-width:0.5" />
<path d="M339.3,55.371L339.3,63.371" style="fill:none;stroke:#000000;stroke-width:0.5" />
<path d="M533.14,55.371L533.14,63.371" style="fill:none;stroke:#000000;stroke-width:0.5" />
<path d="M726.97,55.371L726.97,63.371" style="fill:none;stroke:#000000;stroke-width:0.5" />
<path d="M920.81,55.371L920.81,63.371" style="fill:none;stroke:#000000;stroke-width:0.5" />
<path d="M1114.6,55.371L1114.6,63.371" style="fill:none;stroke:#000000;stroke-width:0.5" />
<path d="M1308.5,55.371L1308.5,63.371" style="fill:none;stroke:#000000;stroke-width:0.5" />
<path d="M1502.3,55.371L1502.3,63.371" style="fill:none;stroke:#000000;stroke-width:0.5" />
<path d="M1696.2,55.371L1696.2,63.371" style="fill:none;stroke:#000000;stroke-width:0.5" />
<path d="M1890,55.371L1890,63.371" style="fill:none;stroke:#000000;stroke-width:0.5" />
<path d="M145.46,63.371L1890,63.371" style="fill:none;stroke:#000000;stroke-width:0.5" />
<g transform="rotate(90)">
<text x="538.49" y="23.467" transform="scale(1, -1)"
	style="font-family:Liberation Serif;font-variant:normal;font-weight:normal;font-style:normal;font-size:30px">μs</text>
</g>
<text x="49.712" y="-163.56" transform="scale(1, -1)"
	style="font-family:Liberation Serif;font-variant:normal;font-weight:normal;font-style:normal;font-size:20px">4000000</text>
<text x="39.712" y="-530.26" transform="scale(1, -1)"
	style="font-family:Liberation Serif;font-variant:normal;font-weight:normal;font-style:normal;font-size:20px">16000000</text>
<text x="39.712" y="-896.97" transform="scale(1, -1)"
	style="font-family:Liberation Serif;font-variant:normal;font-weight:normal;font-style:normal;font-size:20px">28000000</text>
<path d="M124.71,168.13L132.71,168.13" style="fill:none;stroke:#000000;stroke-width:0.5" />
<path d="M124.71,534.83L132.71,534.83" style="fill:none;stroke:#000000;stroke-width:0.5" />
<path d="M124.71,901.54L132.71,901.54" style="fill:none;stroke:#000000;stroke-width:0.5" />
<path d="M128.71,351.48L132.71,351.48" style="fill:none;stroke:#000000;stroke-width:0.5" />
<path d="M128.71,718.19L132.71,718.19" style="fill:none;stroke:#000000;stroke-width:0.5" />
<path d="M132.71,80.11L132.71,1024.6" style="fill:none;stroke:#000000;stroke-width:0.5" />
<path d="M145.46,80.11L145.46,1024.6" style="fill:none;stroke:#808080;stroke-width:0.25" />
<path d="M339.3,80.11L339.3,1024.6" style="fill:none;stroke:#808080;stroke-width:0.25" />
<path d="M533.14,80.11L533.14,1024.6" style="fill:none;stroke:#808080;stroke-width:0.25" />
<path d="M726.97,80.11L726.97,1024.6" style="fill:none;stroke:#808080;stroke-width:0.25" />
<path d="M920.81,80.11L920.81,1024.6" style="fill:none;stroke:#808080;stroke-width:0.25" />
<path d="M1114.6,80.11L1114.6,1024.6" style="fill:none;stroke:#808080;stroke-width:0.25" />
<path d="M1308.5,80.11L1308.5,1024.6" style="fill:none;stroke:#808080;stroke-width:0.25" />
<path d="M1502.3,80.11L1502.3,1024.6" style="fill:none;stroke:#808080;stroke-width:0.25" />
<path d="M1696.2,80.11L1696.2,1024.6" style="fill:none;stroke:#808080;stroke-width:0.25" />
<path d="M1890,80.11L1890,1024.6" style="fill:none;stroke:#808080;stroke-width:0.25" />
<path d="M145.46,168.13L1890,168.13" style="fill:none;stroke:#808080;stroke-width:0.25" />
<path d="M145.46,534.83L1890,534.83" style="fill:none;stroke:#808080;stroke-width:0.25" />
<path d="M145.46,901.54L1890,901.54" style="fill:none;stroke:#808080;stroke-width:0.25" />
<path d="M145.46,80.11L339.3,122.76L533.14,165.8L726.97,215.21L920.81,274.22L1114.6,317.79L1308.5,370.9L1502.3,424.77L1696.2,476.92L1890,520.6" style="fill:none;stroke:#FF0000;stroke-width:4" />
<path d="M150.46,80.11A5,5 0 1 1 140.46,80.11A5,5 0 1 1 150.46,80.11Z" style="fill:#FF0000" />
<path d="M344.3,122.76A5,5 0 1 1 334.3,122.76A5,5 0 1 1 344.3,122.76Z" style="fill:#FF0000" />
<path d="M538.14,165.8A5,5 0 1 1 528.14,165.8A5,5 0 1 1 538.14,165.8Z" style="fill:#FF0000" />
<path d="M731.97,215.21A5,5 0 1 1 721.97,215.21A5,5 0 1 1 731.97,215.21Z" style="fill:#FF0000" />
<path d="M925.81,274.22A5,5 0 1 1 915.81,274.22A5,5 0 1 1 925.81,274.22Z" style="fill:#FF0000" />
<path d="M1119.6,317.79A5,5 0 1 1 1109.6,317.79A5,5 0 1 1 1119.6,317.79Z" style="fill:#FF0000" />
<path d="M1313.5,370.9A5,5 0 1 1 1303.5,370.9A5,5 0 1 1 1313.5,370.9Z" style="fill:#FF0000" />
<path d="M1507.3,424.77A5,5 0 1 1 1497.3,424.77A5,5 0 1 1 1507.3,424.77Z" style="fill:#FF0000" />
<path d="M1701.2,476.92A5,5 0 1 1 1691.2,476.92A5,5 0 1 1 1701.2,476.92Z" style="fill:#FF0000" />
<path d="M1895,520.6A5,5 0 1 1 1885,520.6A5,5 0 1 1 1895,520.6Z" style="fill:#FF0000" />
<path d="M145.46,98.088L339.3,167.13L533.14,240.04L726.97,325.7L920.81,406.13L1114.6,489.19L1308.5,574.37L1502.3,658.24L1696.2,755.77L1890,801.83" style="fill:none;stroke:#0000FF;stroke-width:4" />
<path d="M150.46,98.088A5,5 0 1 1 140.46,98.088A5,5 0 1 1 150.46,98.088Z" style="fill:#0000FF" />
<path d="M344.3,167.13A5,5 0 1 1 334.3,167.13A5,5 0 1 1 344.3,167.13Z" style="fill:#0000FF" />
<path d="M538.14,240.04A5,5 0 1 1 528.14,240.04A5,5 0 1 1 538.14,240.04Z" style="fill:#0000FF" />
<path d="M731.97,325.7A5,5 0 1 1 721.97,325.7A5,5 0 1 1 731.97,325.7Z" style="fill:#0000FF" />
<path d="M925.81,406.13A5,5 0 1 1 915.81,406.13A5,5 0 1 1 925.81,406.13Z" style="fill:#0000FF" />
<path d="M1119.6,489.19A5,5 0 1 1 1109.6,489.19A5,5 0 1 1 1119.6,489.19Z" style="fill:#0000FF" />
<path d="M1313.5,574.37A5,5 0 1 1 1303.5,574.37A5,5 0 1 1 1313.5,574.37Z" style="fill:#0000FF" />
<path d="M1507.3,658.24A5,5 0 1 1 1497.3,658.24A5,5 0 1 1 1507.3,658.24Z" style="fill:#0000FF" />
<path d="M1701.2,755.77A5,5 0 1 1 1691.2,755.77A5,5 0 1 1 1701.2,755.77Z" style="fill:#0000FF" />
<path d="M1895,801.83A5,5 0 1 1 1885,801.83A5,5 0 1 1 1895,801.83Z" style="fill:#0000FF" />
<path d="M145.46,123.18L339.3,217.79L533.14,302.75L726.97,393.85L920.81,484.06L1114.6,572.58L1308.5,667.24L1502.3,766.66L1696.2,843.01L1890,935.65" style="fill:none;stroke:#00FF00;stroke-width:4" />
<path d="M150.46,123.18A5,5 0 1 1 140.46,123.18A5,5 0 1 1 150.46,123.18Z" style="fill:#00FF00" />
<path d="M344.3,217.79A5,5 0 1 1 334.3,217.79A5,5 0 1 1 344.3,217.79Z" style="fill:#00FF00" />
<path d="M538.14,302.75A5,5 0 1 1 528.14,302.75A5,5 0 1 1 538.14,302.75Z" style="fill:#00FF00" />
<path d="M731.97,393.85A5,5 0 1 1 721.97,393.85A5,5 0 1 1 731.97,393.85Z" style="fill:#00FF00" />
<path d="M925.81,484.06A5,5 0 1 1 915.81,484.06A5,5 0 1 1 925.81,484.06Z" style="fill:#00FF00" />
<path d="M1119.6,572.58A5,5 0 1 1 1109.6,572.58A5,5 0 1 1 1119.6,572.58Z" style="fill:#00FF00" />
<path d="M1313.5,667.24A5,5 0 1 1 1303.5,667.24A5,5 0 1 1 1313.5,667.24Z" style="fill:#00FF00" />
<path d="M1507.3,766.66A5,5 0 1 1 1497.3,766.66A5,5 0 1 1 1507.3,766.66Z" style="fill:#00FF00" />
<path d="M1701.2,843.01A5,5 0 1 1 1691.2,843.01A5,5 0 1 1 1701.2,843.01Z" style="fill:#00FF00" />
<path d="M1895,935.65A5,5 0 1 1 1885,935.65A5,5 0 1 1 1895,935.65Z" style="fill:#00FF00" />
<path d="M1900,126.03L1920,126.03" style="fill:none;stroke:#FF0000;stroke-width:4" />
<path d="M1915,126.03A5,5 0 1 1 1905,126.03A5,5 0 1 1 1915,126.03Z" style="fill:#FF0000" />
<text x="1823.3" y="-121.05" transform="scale(1, -1)"
	style="font-family:Liberation Serif;font-variant:normal;font-weight:normal;font-style:normal;font-size:24px">std::list</text>
<path d="M1900,105.66L1920,105.66" style="fill:none;stroke:#0000FF;stroke-width:4" />
<path d="M1915,105.66A5,5 0 1 1 1905,105.66A5,5 0 1 1 1915,105.66Z" style="fill:#0000FF" />
<text x="1795.4" y="-100.69" transform="scale(1, -1)"
	style="font-family:Liberation Serif;font-variant:normal;font-weight:normal;font-style:normal;font-size:24px">std::deque</text>
<path d="M1900,85.294L1920,85.294" style="fill:none;stroke:#00FF00;stroke-width:4" />
<path d="M1915,85.294A5,5 0 1 1 1905,85.294A5,5 0 1 1 1915,85.294Z" style="fill:#00FF00" />
<text x="1792.7" y="-80.319" transform="scale(1, -1)"
	style="font-family:Liberation Serif;font-variant:normal;font-weight:normal;font-style:normal;font-size:24px">std::vector</text>
</g>
</svg>
