<?xml version="1.0"?>
<!-- Generated by SVGo and Plotinum VG -->
<svg width="1920pt" height="1080pt" viewBox="0 0 1920 1080"
	xmlns="http://www.w3.org/2000/svg"
	xmlns:xlink="http://www.w3.org/1999/xlink">
<g transform="scale(1, -1) translate(0, -1080)">
<path d="M0,0L1920,0L1920,1080L0,1080Z" style="fill:#FFFFFF" />
<text x="702.48" y="-1040.9" transform="scale(1, -1)"
	style="font-family:Liberation Serif;font-variant:normal;font-weight:normal;font-style:normal;font-size:50px">random-erase - Log Scale</text>
<text x="895.27" y="-9.7559" transform="scale(1, -1)"
	style="font-family:Liberation Serif;font-variant:normal;font-weight:normal;font-style:normal;font-size:30px">Number of elements</text>
<text x="120.46" y="-39.727" transform="scale(1, -1)"
	style="font-family:Liberation Serif;font-variant:normal;font-weight:normal;font-style:normal;font-size:20px">10000</text>
<text x="314.3" y="-39.727" transform="scale(1, -1)"
	style="font-family:Liberation Serif;font-variant:normal;font-weight:normal;font-style:normal;font-size:20px">20000</text>
<text x="508.14" y="-39.727" transform="scale(1, -1)"
	style="font-family:Liberation Serif;font-variant:normal;font-weight:normal;font-style:normal;font-size:20px">30000</text>
<text x="701.97" y="-39.727" transform="scale(1, -1)"
	style="font-family:Liberation Serif;font-variant:normal;font-weight:normal;font-style:normal;font-size:20px">40000</text>
<text x="895.81" y="-39.727" transform="scale(1, -1)"
	style="font-family:Liberation Serif;font-variant:normal;font-weight:normal;font-style:normal;font-size:20px">50000</text>
<text x="1089.6" y="-39.727" transform="scale(1, -1)"
	style="font-family:Liberation Serif;font-variant:normal;font-weight:normal;font-style:normal;font-size:20px">60000</text>
<text x="1283.5" y="-39.727" transform="scale(1, -1)"
	style="font-family:Liberation Serif;font-variant:normal;font-weight:normal;font-style:normal;font-size:20px">70000</text>
<text x="1477.3" y="-39.727" transform="scale(1, -1)"
	style="font-family:Liberation Serif;font-variant:normal;font-weight:normal;font-style:normal;font-size:20px">80000</text>
<text x="1671.2" y="-39.727" transform="scale(1, -1)"
	style="font-family:Liberation Serif;font-variant:normal;font-weight:normal;font-style:normal;font-size:20px">90000</text>
<text x="1860" y="-39.727" transform="scale(1, -1)"
	style="font-family:Liberation Serif;font-variant:normal;font-weight:normal;font-style:normal;font-size:20px">100000</text>
<path d="M145.46,55.371L145.46,63.371" style="fill:none;stroke:#000000;stroke-width:0.5" />
<path d="M339.3,55.371L339.3,63.371" style="fill:none;stroke:#000000;stroke-width:0.5" />
<path d="M533.14,55.371L533.14,63.371" style="fill:none;stroke:#000000;stroke-width:0.5" />
<path d="M726.97,55.371L726.97,63.371" style="fill:none;stroke:#000000;stroke-width:0.5" />
<path d="M920.81,55.371L920.81,63.371" style="fill:none;stroke:#000000;stroke-width:0.5" />
<path d="M1114.6,55.371L1114.6,63.371" style="fill:none;stroke:#000000;stroke-width:0.5" />
<path d="M1308.5,55.371L1308.5,63.371" style="fill:none;stroke:#000000;stroke-width:0.5" />
<path d="M1502.3,55.371L1502.3,63.371" style="fill:none;stroke:#000000;stroke-width:0.5" />
<path d="M1696.2,55.371L1696.2,63.371" style="fill:none;stroke:#000000;stroke-width:0.5" />
<path d="M1890,55.371L1890,63.371" style="fill:none;stroke:#000000;stroke-width:0.5" />
<path d="M145.46,63.371L1890,63.371" style="fill:none;stroke:#000000;stroke-width:0.5" />
<g transform="rotate(90)">
<text x="509.33" y="23.467" transform="scale(1, -1)"
	style="font-family:Liberation Serif;font-variant:normal;font-weight:normal;font-style:normal;font-size:30px">log(μs)</text>
</g>
<text x="49.712" y="-430.31" transform="scale(1, -1)"
	style="font-family:Liberation Serif;font-variant:normal;font-weight:normal;font-style:normal;font-size:20px">5000000</text>
<text x="39.712" y="-822.72" transform="scale(1, -1)"
	style="font-family:Liberation Serif;font-variant:normal;font-weight:normal;font-style:normal;font-size:20px">20000000</text>
<text x="39.712" y="-981.12" transform="scale(1, -1)"
	style="font-family:Liberation Serif;font-variant:normal;font-weight:normal;font-style:normal;font-size:20px">35000000</text>
<path d="M124.71,434.89L132.71,434.89" style="fill:none;stroke:#000000;stroke-width:0.5" />
<path d="M124.71,827.29L132.71,827.29" style="fill:none;stroke:#000000;stroke-width:0.5" />
<path d="M124.71,985.69L132.71,985.69" style="fill:none;stroke:#000000;stroke-width:0.5" />
<path d="M128.71,694.25L132.71,694.25" style="fill:none;stroke:#000000;stroke-width:0.5" />
<path d="M128.71,917.43L132.71,917.43" style="fill:none;stroke:#000000;stroke-width:0.5" />
<path d="M132.71,80.11L132.71,1024.6" style="fill:none;stroke:#000000;stroke-width:0.5" />
<path d="M145.46,80.11L145.46,1024.6" style="fill:none;stroke:#808080;stroke-width:0.25" />
<path d="M339.3,80.11L339.3,1024.6" style="fill:none;stroke:#808080;stroke-width:0.25" />
<path d="M533.14,80.11L533.14,1024.6" style="fill:none;stroke:#808080;stroke-width:0.25" />
<path d="M726.97,80.11L726.97,1024.6" style="fill:none;stroke:#808080;stroke-width:0.25" />
<path d="M920.81,80.11L920.81,1024.6" style="fill:none;stroke:#808080;stroke-width:0.25" />
<path d="M1114.6,80.11L1114.6,1024.6" style="fill:none;stroke:#808080;stroke-width:0.25" />
<path d="M1308.5,80.11L1308.5,1024.6" style="fill:none;stroke:#808080;stroke-width:0.25" />
<path d="M1502.3,80.11L1502.3,1024.6" style="fill:none;stroke:#808080;stroke-width:0.25" />
<path d="M1696.2,80.11L1696.2,1024.6" style="fill:none;stroke:#808080;stroke-width:0.25" />
<path d="M1890,80.11L1890,1024.6" style="fill:none;stroke:#808080;stroke-width:0.25" />
<path d="M145.46,434.89L1890,434.89" style="fill:none;stroke:#808080;stroke-width:0.25" />
<path d="M145.46,827.29L1890,827.29" style="fill:none;stroke:#808080;stroke-width:0.25" />
<path d="M145.46,985.69L1890,985.69" style="fill:none;stroke:#808080;stroke-width:0.25" />
<path d="M145.46,80.11L339.3,305.05L533.14,412.84L726.97,518.14L920.81,594.76L1114.6,638.4L1308.5,688.32L1502.3,718.07L1696.2,753L1890,790.77" style="fill:none;stroke:#FF0000;stroke-width:4" />
<path d="M150.46,80.11A5,5 0 1 1 140.46,80.11A5,5 0 1 1 150.46,80.11Z" style="fill:#FF0000" />
<path d="M344.3,305.05A5,5 0 1 1 334.3,305.05A5,5 0 1 1 344.3,305.05Z" style="fill:#FF0000" />
<path d="M538.14,412.84A5,5 0 1 1 528.14,412.84A5,5 0 1 1 538.14,412.84Z" style="fill:#FF0000" />
<path d="M731.97,518.14A5,5 0 1 1 721.97,518.14A5,5 0 1 1 731.97,518.14Z" style="fill:#FF0000" />
<path d="M925.81,594.76A5,5 0 1 1 915.81,594.76A5,5 0 1 1 925.81,594.76Z" style="fill:#FF0000" />
<path d="M1119.6,638.4A5,5 0 1 1 1109.6,638.4A5,5 0 1 1 1119.6,638.4Z" style="fill:#FF0000" />
<path d="M1313.5,688.32A5,5 0 1 1 1303.5,688.32A5,5 0 1 1 1313.5,688.32Z" style="fill:#FF0000" />
<path d="M1507.3,718.07A5,5 0 1 1 1497.3,718.07A5,5 0 1 1 1507.3,718.07Z" style="fill:#FF0000" />
<path d="M1701.2,753A5,5 0 1 1 1691.2,753A5,5 0 1 1 1701.2,753Z" style="fill:#FF0000" />
<path d="M1895,790.77A5,5 0 1 1 1885,790.77A5,5 0 1 1 1895,790.77Z" style="fill:#FF0000" />
<path d="M145.46,215.33L339.3,447.59L533.14,569.68L726.97,654.92L920.81,728.94L1114.6,782.79L1308.5,824.22L1502.3,868.31L1696.2,888.05L1890,907.28" style="fill:none;stroke:#0000FF;stroke-width:4" />
<path d="M150.46,215.33A5,5 0 1 1 140.46,215.33A5,5 0 1 1 150.46,215.33Z" style="fill:#0000FF" />
<path d="M344.3,447.59A5,5 0 1 1 334.3,447.59A5,5 0 1 1 344.3,447.59Z" style="fill:#0000FF" />
<path d="M538.14,569.68A5,5 0 1 1 528.14,569.68A5,5 0 1 1 538.14,569.68Z" style="fill:#0000FF" />
<path d="M731.97,654.92A5,5 0 1 1 721.97,654.92A5,5 0 1 1 731.97,654.92Z" style="fill:#0000FF" />
<path d="M925.81,728.94A5,5 0 1 1 915.81,728.94A5,5 0 1 1 925.81,728.94Z" style="fill:#0000FF" />
<path d="M1119.6,782.79A5,5 0 1 1 1109.6,782.79A5,5 0 1 1 1119.6,782.79Z" style="fill:#0000FF" />
<path d="M1313.5,824.22A5,5 0 1 1 1303.5,824.22A5,5 0 1 1 1313.5,824.22Z" style="fill:#0000FF" />
<path d="M1507.3,868.31A5,5 0 1 1 1497.3,868.31A5,5 0 1 1 1507.3,868.31Z" style="fill:#0000FF" />
<path d="M1701.2,888.05A5,5 0 1 1 1691.2,888.05A5,5 0 1 1 1701.2,888.05Z" style="fill:#0000FF" />
<path d="M1895,907.28A5,5 0 1 1 1885,907.28A5,5 0 1 1 1895,907.28Z" style="fill:#0000FF" />
<path d="M145.46,348.59L339.3,554.07L533.14,664.62L726.97,732.03L920.81,796.75L1114.6,849.68L1308.5,893.78L1502.3,930.41L1696.2,966.41L1890,997.65" style="fill:none;stroke:#00FF00;stroke-width:4" />
<path d="M150.46,348.59A5,5 0 1 1 140.46,348.59A5,5 0 1 1 150.46,348.59Z" style="fill:#00FF00" />
<path d="M344.3,554.07A5,5 0 1 1 334.3,554.07A5,5 0 1 1 344.3,554.07Z" style="fill:#00FF00" />
<path d="M538.14,664.62A5,5 0 1 1 528.14,664.62A5,5 0 1 1 538.14,664.62Z" style="fill:#00FF00" />
<path d="M731.97,732.03A5,5 0 1 1 721.97,732.03A5,5 0 1 1 731.97,732.03Z" style="fill:#00FF00" />
<path d="M925.81,796.75A5,5 0 1 1 915.81,796.75A5,5 0 1 1 925.81,796.75Z" style="fill:#00FF00" />
<path d="M1119.6,849.68A5,5 0 1 1 1109.6,849.68A5,5 0 1 1 1119.6,849.68Z" style="fill:#00FF00" />
<path d="M1313.5,893.78A5,5 0 1 1 1303.5,893.78A5,5 0 1 1 1313.5,893.78Z" style="fill:#00FF00" />
<path d="M1507.3,930.41A5,5 0 1 1 1497.3,930.41A5,5 0 1 1 1507.3,930.41Z" style="fill:#00FF00" />
<path d="M1701.2,966.41A5,5 0 1 1 1691.2,966.41A5,5 0 1 1 1701.2,966.41Z" style="fill:#00FF00" />
<path d="M1895,997.65A5,5 0 1 1 1885,997.65A5,5 0 1 1 1895,997.65Z" style="fill:#00FF00" />
<path d="M1900,126.03L1920,126.03" style="fill:none;stroke:#FF0000;stroke-width:4" />
<path d="M1915,126.03A5,5 0 1 1 1905,126.03A5,5 0 1 1 1915,126.03Z" style="fill:#FF0000" />
<text x="1823.3" y="-121.05" transform="scale(1, -1)"
	style="font-family:Liberation Serif;font-variant:normal;font-weight:normal;font-style:normal;font-size:24px">std::list</text>
<path d="M1900,105.66L1920,105.66" style="fill:none;stroke:#0000FF;stroke-width:4" />
<path d="M1915,105.66A5,5 0 1 1 1905,105.66A5,5 0 1 1 1915,105.66Z" style="fill:#0000FF" />
<text x="1795.4" y="-100.69" transform="scale(1, -1)"
	style="font-family:Liberation Serif;font-variant:normal;font-weight:normal;font-style:normal;font-size:24px">std::deque</text>
<path d="M1900,85.294L1920,85.294" style="fill:none;stroke:#00FF00;stroke-width:4" />
<path d="M1915,85.294A5,5 0 1 1 1905,85.294A5,5 0 1 1 1915,85.294Z" style="fill:#00FF00" />
<text x="1792.7" y="-80.319" transform="scale(1, -1)"
	style="font-family:Liberation Serif;font-variant:normal;font-weight:normal;font-style:normal;font-size:24px">std::vector</text>
</g>
</svg>
