<?xml version="1.0"?>
<!-- Generated by SVGo and Plotinum VG -->
<svg width="1920pt" height="1080pt" viewBox="0 0 1920 1080"
	xmlns="http://www.w3.org/2000/svg"
	xmlns:xlink="http://www.w3.org/1999/xlink">
<g transform="scale(1, -1) translate(0, -1080)">
<path d="M0,0L1920,0L1920,1080L0,1080Z" style="fill:#FFFFFF" />
<text x="823.96" y="-1040.9" transform="scale(1, -1)"
	style="font-family:Liberation Serif;font-variant:normal;font-weight:normal;font-style:normal;font-size:50px">random-erase</text>
<text x="895.27" y="-9.7559" transform="scale(1, -1)"
	style="font-family:Liberation Serif;font-variant:normal;font-weight:normal;font-style:normal;font-size:30px">Number of elements</text>
<text x="120.46" y="-39.727" transform="scale(1, -1)"
	style="font-family:Liberation Serif;font-variant:normal;font-weight:normal;font-style:normal;font-size:20px">10000</text>
<text x="314.3" y="-39.727" transform="scale(1, -1)"
	style="font-family:Liberation Serif;font-variant:normal;font-weight:normal;font-style:normal;font-size:20px">20000</text>
<text x="508.14" y="-39.727" transform="scale(1, -1)"
	style="font-family:Liberation Serif;font-variant:normal;font-weight:normal;font-style:normal;font-size:20px">30000</text>
<text x="701.97" y="-39.727" transform="scale(1, -1)"
	style="font-family:Liberation Serif;font-variant:normal;font-weight:normal;font-style:normal;font-size:20px">40000</text>
<text x="895.81" y="-39.727" transform="scale(1, -1)"
	style="font-family:Liberation Serif;font-variant:normal;font-weight:normal;font-style:normal;font-size:20px">50000</text>
<text x="1089.6" y="-39.727" transform="scale(1, -1)"
	style="font-family:Liberation Serif;font-variant:normal;font-weight:normal;font-style:normal;font-size:20px">60000</text>
<text x="1283.5" y="-39.727" transform="scale(1, -1)"
	style="font-family:Liberation Serif;font-variant:normal;font-weight:normal;font-style:normal;font-size:20px">70000</text>
<text x="1477.3" y="-39.727" transform="scale(1, -1)"
	style="font-family:Liberation Serif;font-variant:normal;font-weight:normal;font-style:normal;font-size:20px">80000</text>
<text x="1671.2" y="-39.727" transform="scale(1, -1)"
	style="font-family:Liberation Serif;font-variant:normal;font-weight:normal;font-style:normal;font-size:20px">90000</text>
<text x="1860" y="-39.727" transform="scale(1, -1)"
	style="font-family:Liberation Serif;font-variant:normal;font-weight:normal;font-style:normal;font-size:20px">100000</text>
<path d="M145.46,55.371L145.46,63.371" style="fill:none;stroke:#000000;stroke-width:0.5" />
<path d="M339.3,55.371L339.3,63.371" style="fill:none;stroke:#000000;stroke-width:0.5" />
<path d="M533.14,55.371L533.14,63.371" style="fill:none;stroke:#000000;stroke-width:0.5" />
<path d="M726.97,55.371L726.97,63.371" style="fill:none;stroke:#000000;stroke-width:0.5" />
<path d="M920.81,55.371L920.81,63.371" style="fill:none;stroke:#000000;stroke-width:0.5" />
<path d="M1114.6,55.371L1114.6,63.371" style="fill:none;stroke:#000000;stroke-width:0.5" />
<path d="M1308.5,55.371L1308.5,63.371" style="fill:none;stroke:#000000;stroke-width:0.5" />
<path d="M1502.3,55.371L1502.3,63.371" style="fill:none;stroke:#000000;stroke-width:0.5" />
<path d="M1696.2,55.371L1696.2,63.371" style="fill:none;stroke:#000000;stroke-width:0.5" />
<path d="M1890,55.371L1890,63.371" style="fill:none;stroke:#000000;stroke-width:0.5" />
<path d="M145.46,63.371L1890,63.371" style="fill:none;stroke:#000000;stroke-width:0.5" />
<g transform="rotate(90)">
<text x="538.49" y="23.467" transform="scale(1, -1)"
	style="font-family:Liberation Serif;font-variant:normal;font-weight:normal;font-style:normal;font-size:30px">μs</text>
</g>
<text x="49.712" y="-162.65" transform="scale(1, -1)"
	style="font-family:Liberation Serif;font-variant:normal;font-weight:normal;font-style:normal;font-size:20px">5000000</text>
<text x="39.712" y="-528.42" transform="scale(1, -1)"
	style="font-family:Liberation Serif;font-variant:normal;font-weight:normal;font-style:normal;font-size:20px">20000000</text>
<text x="39.712" y="-894.19" transform="scale(1, -1)"
	style="font-family:Liberation Serif;font-variant:normal;font-weight:normal;font-style:normal;font-size:20px">35000000</text>
<path d="M124.71,167.22L132.71,167.22" style="fill:none;stroke:#000000;stroke-width:0.5" />
<path d="M124.71,532.99L132.71,532.99" style="fill:none;stroke:#000000;stroke-width:0.5" />
<path d="M124.71,898.76L132.71,898.76" style="fill:none;stroke:#000000;stroke-width:0.5" />
<path d="M128.71,350.11L132.71,350.11" style="fill:none;stroke:#000000;stroke-width:0.5" />
<path d="M128.71,715.88L132.71,715.88" style="fill:none;stroke:#000000;stroke-width:0.5" />
<path d="M132.71,80.11L132.71,1024.6" style="fill:none;stroke:#000000;stroke-width:0.5" />
<path d="M145.46,80.11L145.46,1024.6" style="fill:none;stroke:#808080;stroke-width:0.25" />
<path d="M339.3,80.11L339.3,1024.6" style="fill:none;stroke:#808080;stroke-width:0.25" />
<path d="M533.14,80.11L533.14,1024.6" style="fill:none;stroke:#808080;stroke-width:0.25" />
<path d="M726.97,80.11L726.97,1024.6" style="fill:none;stroke:#808080;stroke-width:0.25" />
<path d="M920.81,80.11L920.81,1024.6" style="fill:none;stroke:#808080;stroke-width:0.25" />
<path d="M1114.6,80.11L1114.6,1024.6" style="fill:none;stroke:#808080;stroke-width:0.25" />
<path d="M1308.5,80.11L1308.5,1024.6" style="fill:none;stroke:#808080;stroke-width:0.25" />
<path d="M1502.3,80.11L1502.3,1024.6" style="fill:none;stroke:#808080;stroke-width:0.25" />
<path d="M1696.2,80.11L1696.2,1024.6" style="fill:none;stroke:#808080;stroke-width:0.25" />
<path d="M1890,80.11L1890,1024.6" style="fill:none;stroke:#808080;stroke-width:0.25" />
<path d="M145.46,167.22L1890,167.22" style="fill:none;stroke:#808080;stroke-width:0.25" />
<path d="M145.46,532.99L1890,532.99" style="fill:none;stroke:#808080;stroke-width:0.25" />
<path d="M145.46,898.76L1890,898.76" style="fill:none;stroke:#808080;stroke-width:0.25" />
<path d="M145.46,80.11L339.3,122.36L533.14,158.09L726.97,208.91L920.81,259.77L1114.6,295.53L1308.5,343.79L1502.3,376.87L1696.2,420.42L1890,473.96" style="fill:none;stroke:#FF0000;stroke-width:4" />
<path d="M150.46,80.11A5,5 0 1 1 140.46,80.11A5,5 0 1 1 150.46,80.11Z" style="fill:#FF0000" />
<path d="M344.3,122.36A5,5 0 1 1 334.3,122.36A5,5 0 1 1 344.3,122.36Z" style="fill:#FF0000" />
<path d="M538.14,158.09A5,5 0 1 1 528.14,158.09A5,5 0 1 1 538.14,158.09Z" style="fill:#FF0000" />
<path d="M731.97,208.91A5,5 0 1 1 721.97,208.91A5,5 0 1 1 731.97,208.91Z" style="fill:#FF0000" />
<path d="M925.81,259.77A5,5 0 1 1 915.81,259.77A5,5 0 1 1 925.81,259.77Z" style="fill:#FF0000" />
<path d="M1119.6,295.53A5,5 0 1 1 1109.6,295.53A5,5 0 1 1 1119.6,295.53Z" style="fill:#FF0000" />
<path d="M1313.5,343.79A5,5 0 1 1 1303.5,343.79A5,5 0 1 1 1313.5,343.79Z" style="fill:#FF0000" />
<path d="M1507.3,376.87A5,5 0 1 1 1497.3,376.87A5,5 0 1 1 1507.3,376.87Z" style="fill:#FF0000" />
<path d="M1701.2,420.42A5,5 0 1 1 1691.2,420.42A5,5 0 1 1 1701.2,420.42Z" style="fill:#FF0000" />
<path d="M1895,473.96A5,5 0 1 1 1885,473.96A5,5 0 1 1 1895,473.96Z" style="fill:#FF0000" />
<path d="M145.46,101.43L339.3,172.82L533.14,241.59L726.97,310.57L920.81,389.85L1114.6,462.05L1308.5,527.74L1502.3,609.06L1696.2,649.77L1890,692.26" style="fill:none;stroke:#0000FF;stroke-width:4" />
<path d="M150.46,101.43A5,5 0 1 1 140.46,101.43A5,5 0 1 1 150.46,101.43Z" style="fill:#0000FF" />
<path d="M344.3,172.82A5,5 0 1 1 334.3,172.82A5,5 0 1 1 344.3,172.82Z" style="fill:#0000FF" />
<path d="M538.14,241.59A5,5 0 1 1 528.14,241.59A5,5 0 1 1 538.14,241.59Z" style="fill:#0000FF" />
<path d="M731.97,310.57A5,5 0 1 1 721.97,310.57A5,5 0 1 1 731.97,310.57Z" style="fill:#0000FF" />
<path d="M925.81,389.85A5,5 0 1 1 915.81,389.85A5,5 0 1 1 925.81,389.85Z" style="fill:#0000FF" />
<path d="M1119.6,462.05A5,5 0 1 1 1109.6,462.05A5,5 0 1 1 1119.6,462.05Z" style="fill:#0000FF" />
<path d="M1313.5,527.74A5,5 0 1 1 1303.5,527.74A5,5 0 1 1 1313.5,527.74Z" style="fill:#0000FF" />
<path d="M1507.3,609.06A5,5 0 1 1 1497.3,609.06A5,5 0 1 1 1507.3,609.06Z" style="fill:#0000FF" />
<path d="M1701.2,649.77A5,5 0 1 1 1691.2,649.77A5,5 0 1 1 1701.2,649.77Z" style="fill:#0000FF" />
<path d="M1895,692.26A5,5 0 1 1 1885,692.26A5,5 0 1 1 1895,692.26Z" style="fill:#0000FF" />
<path d="M145.46,135.18L339.3,231.05L533.14,319.81L726.97,393.63L920.81,483.12L1114.6,573.14L1308.5,662.14L1502.3,747.34L1696.2,842.56L1890,935.6" style="fill:none;stroke:#00FF00;stroke-width:4" />
<path d="M150.46,135.18A5,5 0 1 1 140.46,135.18A5,5 0 1 1 150.46,135.18Z" style="fill:#00FF00" />
<path d="M344.3,231.05A5,5 0 1 1 334.3,231.05A5,5 0 1 1 344.3,231.05Z" style="fill:#00FF00" />
<path d="M538.14,319.81A5,5 0 1 1 528.14,319.81A5,5 0 1 1 538.14,319.81Z" style="fill:#00FF00" />
<path d="M731.97,393.63A5,5 0 1 1 721.97,393.63A5,5 0 1 1 731.97,393.63Z" style="fill:#00FF00" />
<path d="M925.81,483.12A5,5 0 1 1 915.81,483.12A5,5 0 1 1 925.81,483.12Z" style="fill:#00FF00" />
<path d="M1119.6,573.14A5,5 0 1 1 1109.6,573.14A5,5 0 1 1 1119.6,573.14Z" style="fill:#00FF00" />
<path d="M1313.5,662.14A5,5 0 1 1 1303.5,662.14A5,5 0 1 1 1313.5,662.14Z" style="fill:#00FF00" />
<path d="M1507.3,747.34A5,5 0 1 1 1497.3,747.34A5,5 0 1 1 1507.3,747.34Z" style="fill:#00FF00" />
<path d="M1701.2,842.56A5,5 0 1 1 1691.2,842.56A5,5 0 1 1 1701.2,842.56Z" style="fill:#00FF00" />
<path d="M1895,935.6A5,5 0 1 1 1885,935.6A5,5 0 1 1 1895,935.6Z" style="fill:#00FF00" />
<path d="M1900,126.03L1920,126.03" style="fill:none;stroke:#FF0000;stroke-width:4" />
<path d="M1915,126.03A5,5 0 1 1 1905,126.03A5,5 0 1 1 1915,126.03Z" style="fill:#FF0000" />
<text x="1823.3" y="-121.05" transform="scale(1, -1)"
	style="font-family:Liberation Serif;font-variant:normal;font-weight:normal;font-style:normal;font-size:24px">std::list</text>
<path d="M1900,105.66L1920,105.66" style="fill:none;stroke:#0000FF;stroke-width:4" />
<path d="M1915,105.66A5,5 0 1 1 1905,105.66A5,5 0 1 1 1915,105.66Z" style="fill:#0000FF" />
<text x="1795.4" y="-100.69" transform="scale(1, -1)"
	style="font-family:Liberation Serif;font-variant:normal;font-weight:normal;font-style:normal;font-size:24px">std::deque</text>
<path d="M1900,85.294L1920,85.294" style="fill:none;stroke:#00FF00;stroke-width:4" />
<path d="M1915,85.294A5,5 0 1 1 1905,85.294A5,5 0 1 1 1915,85.294Z" style="fill:#00FF00" />
<text x="1792.7" y="-80.319" transform="scale(1, -1)"
	style="font-family:Liberation Serif;font-variant:normal;font-weight:normal;font-style:normal;font-size:24px">std::vector</text>
</g>
</svg>
