<?xml version="1.0"?>
<!-- Generated by SVGo and Plotinum VG -->
<svg width="1920pt" height="1080pt" viewBox="0 0 1920 1080"
	xmlns="http://www.w3.org/2000/svg"
	xmlns:xlink="http://www.w3.org/1999/xlink">
<g transform="scale(1, -1) translate(0, -1080)">
<path d="M0,0L1920,0L1920,1080L0,1080Z" style="fill:#FFFFFF" />
<text x="702.48" y="-1040.9" transform="scale(1, -1)"
	style="font-family:Liberation Serif;font-variant:normal;font-weight:normal;font-style:normal;font-size:50px">random-erase - Log Scale</text>
<text x="890.27" y="-9.7559" transform="scale(1, -1)"
	style="font-family:Liberation Serif;font-variant:normal;font-weight:normal;font-style:normal;font-size:30px">Number of elements</text>
<text x="110.46" y="-39.727" transform="scale(1, -1)"
	style="font-family:Liberation Serif;font-variant:normal;font-weight:normal;font-style:normal;font-size:20px">10000</text>
<text x="305.41" y="-39.727" transform="scale(1, -1)"
	style="font-family:Liberation Serif;font-variant:normal;font-weight:normal;font-style:normal;font-size:20px">20000</text>
<text x="500.36" y="-39.727" transform="scale(1, -1)"
	style="font-family:Liberation Serif;font-variant:normal;font-weight:normal;font-style:normal;font-size:20px">30000</text>
<text x="695.31" y="-39.727" transform="scale(1, -1)"
	style="font-family:Liberation Serif;font-variant:normal;font-weight:normal;font-style:normal;font-size:20px">40000</text>
<text x="890.26" y="-39.727" transform="scale(1, -1)"
	style="font-family:Liberation Serif;font-variant:normal;font-weight:normal;font-style:normal;font-size:20px">50000</text>
<text x="1085.2" y="-39.727" transform="scale(1, -1)"
	style="font-family:Liberation Serif;font-variant:normal;font-weight:normal;font-style:normal;font-size:20px">60000</text>
<text x="1280.2" y="-39.727" transform="scale(1, -1)"
	style="font-family:Liberation Serif;font-variant:normal;font-weight:normal;font-style:normal;font-size:20px">70000</text>
<text x="1475.1" y="-39.727" transform="scale(1, -1)"
	style="font-family:Liberation Serif;font-variant:normal;font-weight:normal;font-style:normal;font-size:20px">80000</text>
<text x="1670.1" y="-39.727" transform="scale(1, -1)"
	style="font-family:Liberation Serif;font-variant:normal;font-weight:normal;font-style:normal;font-size:20px">90000</text>
<text x="1860" y="-39.727" transform="scale(1, -1)"
	style="font-family:Liberation Serif;font-variant:normal;font-weight:normal;font-style:normal;font-size:20px">100000</text>
<path d="M135.46,55.371L135.46,63.371" style="fill:none;stroke:#000000;stroke-width:0.5" />
<path d="M330.41,55.371L330.41,63.371" style="fill:none;stroke:#000000;stroke-width:0.5" />
<path d="M525.36,55.371L525.36,63.371" style="fill:none;stroke:#000000;stroke-width:0.5" />
<path d="M720.31,55.371L720.31,63.371" style="fill:none;stroke:#000000;stroke-width:0.5" />
<path d="M915.26,55.371L915.26,63.371" style="fill:none;stroke:#000000;stroke-width:0.5" />
<path d="M1110.2,55.371L1110.2,63.371" style="fill:none;stroke:#000000;stroke-width:0.5" />
<path d="M1305.2,55.371L1305.2,63.371" style="fill:none;stroke:#000000;stroke-width:0.5" />
<path d="M1500.1,55.371L1500.1,63.371" style="fill:none;stroke:#000000;stroke-width:0.5" />
<path d="M1695.1,55.371L1695.1,63.371" style="fill:none;stroke:#000000;stroke-width:0.5" />
<path d="M1890,55.371L1890,63.371" style="fill:none;stroke:#000000;stroke-width:0.5" />
<path d="M135.46,63.371L1890,63.371" style="fill:none;stroke:#000000;stroke-width:0.5" />
<g transform="rotate(90)">
<text x="485.87" y="23.467" transform="scale(1, -1)"
	style="font-family:Liberation Serif;font-variant:normal;font-weight:normal;font-style:normal;font-size:30px">log(μs + 1)</text>
</g>
<text x="39.712" y="-403.58" transform="scale(1, -1)"
	style="font-family:Liberation Serif;font-variant:normal;font-weight:normal;font-style:normal;font-size:20px">1000000</text>
<text x="39.712" y="-842.05" transform="scale(1, -1)"
	style="font-family:Liberation Serif;font-variant:normal;font-weight:normal;font-style:normal;font-size:20px">5000000</text>
<text x="39.712" y="-1002.2" transform="scale(1, -1)"
	style="font-family:Liberation Serif;font-variant:normal;font-weight:normal;font-style:normal;font-size:20px">9000000</text>
<path d="M114.71,408.15L122.71,408.15" style="fill:none;stroke:#000000;stroke-width:0.5" />
<path d="M114.71,846.62L122.71,846.62" style="fill:none;stroke:#000000;stroke-width:0.5" />
<path d="M114.71,1006.8L122.71,1006.8" style="fill:none;stroke:#000000;stroke-width:0.5" />
<path d="M118.71,596.99L122.71,596.99" style="fill:none;stroke:#000000;stroke-width:0.5" />
<path d="M118.71,707.45L122.71,707.45" style="fill:none;stroke:#000000;stroke-width:0.5" />
<path d="M118.71,785.83L122.71,785.83" style="fill:none;stroke:#000000;stroke-width:0.5" />
<path d="M118.71,896.3L122.71,896.3" style="fill:none;stroke:#000000;stroke-width:0.5" />
<path d="M118.71,938.29L122.71,938.29" style="fill:none;stroke:#000000;stroke-width:0.5" />
<path d="M118.71,974.67L122.71,974.67" style="fill:none;stroke:#000000;stroke-width:0.5" />
<path d="M122.71,80.11L122.71,1024.6" style="fill:none;stroke:#000000;stroke-width:0.5" />
<path d="M135.46,80.11L135.46,1024.6" style="fill:none;stroke:#808080;stroke-width:0.25" />
<path d="M330.41,80.11L330.41,1024.6" style="fill:none;stroke:#808080;stroke-width:0.25" />
<path d="M525.36,80.11L525.36,1024.6" style="fill:none;stroke:#808080;stroke-width:0.25" />
<path d="M720.31,80.11L720.31,1024.6" style="fill:none;stroke:#808080;stroke-width:0.25" />
<path d="M915.26,80.11L915.26,1024.6" style="fill:none;stroke:#808080;stroke-width:0.25" />
<path d="M1110.2,80.11L1110.2,1024.6" style="fill:none;stroke:#808080;stroke-width:0.25" />
<path d="M1305.2,80.11L1305.2,1024.6" style="fill:none;stroke:#808080;stroke-width:0.25" />
<path d="M1500.1,80.11L1500.1,1024.6" style="fill:none;stroke:#808080;stroke-width:0.25" />
<path d="M1695.1,80.11L1695.1,1024.6" style="fill:none;stroke:#808080;stroke-width:0.25" />
<path d="M1890,80.11L1890,1024.6" style="fill:none;stroke:#808080;stroke-width:0.25" />
<path d="M135.46,408.15L1890,408.15" style="fill:none;stroke:#808080;stroke-width:0.25" />
<path d="M135.46,846.62L1890,846.62" style="fill:none;stroke:#808080;stroke-width:0.25" />
<path d="M135.46,1006.8L1890,1006.8" style="fill:none;stroke:#808080;stroke-width:0.25" />
<path d="M135.46,149.47L330.41,474.55L525.36,644.45L720.31,726.44L915.26,788.89L1110.2,870.83L1305.2,915.77L1500.1,939.83L1695.1,979.62L1890,998.66" style="fill:none;stroke:#FF0000;stroke-width:4" />
<path d="M140.46,149.47A5,5 0 1 1 130.46,149.47A5,5 0 1 1 140.46,149.47Z" style="fill:#FF0000" />
<path d="M335.41,474.55A5,5 0 1 1 325.41,474.55A5,5 0 1 1 335.41,474.55Z" style="fill:#FF0000" />
<path d="M530.36,644.45A5,5 0 1 1 520.36,644.45A5,5 0 1 1 530.36,644.45Z" style="fill:#FF0000" />
<path d="M725.31,726.44A5,5 0 1 1 715.31,726.44A5,5 0 1 1 725.31,726.44Z" style="fill:#FF0000" />
<path d="M920.26,788.89A5,5 0 1 1 910.26,788.89A5,5 0 1 1 920.26,788.89Z" style="fill:#FF0000" />
<path d="M1115.2,870.83A5,5 0 1 1 1105.2,870.83A5,5 0 1 1 1115.2,870.83Z" style="fill:#FF0000" />
<path d="M1310.2,915.77A5,5 0 1 1 1300.2,915.77A5,5 0 1 1 1310.2,915.77Z" style="fill:#FF0000" />
<path d="M1505.1,939.83A5,5 0 1 1 1495.1,939.83A5,5 0 1 1 1505.1,939.83Z" style="fill:#FF0000" />
<path d="M1700.1,979.62A5,5 0 1 1 1690.1,979.62A5,5 0 1 1 1700.1,979.62Z" style="fill:#FF0000" />
<path d="M1895,998.66A5,5 0 1 1 1885,998.66A5,5 0 1 1 1895,998.66Z" style="fill:#FF0000" />
<path d="M135.46,80.11L330.41,336.4L525.36,498.9L720.31,589.11L915.26,655.18L1110.2,718.23L1305.2,758.3L1500.1,800.12L1695.1,838.21L1890,849.73" style="fill:none;stroke:#0000FF;stroke-width:4" />
<path d="M140.46,80.11A5,5 0 1 1 130.46,80.11A5,5 0 1 1 140.46,80.11Z" style="fill:#0000FF" />
<path d="M335.41,336.4A5,5 0 1 1 325.41,336.4A5,5 0 1 1 335.41,336.4Z" style="fill:#0000FF" />
<path d="M530.36,498.9A5,5 0 1 1 520.36,498.9A5,5 0 1 1 530.36,498.9Z" style="fill:#0000FF" />
<path d="M725.31,589.11A5,5 0 1 1 715.31,589.11A5,5 0 1 1 725.31,589.11Z" style="fill:#0000FF" />
<path d="M920.26,655.18A5,5 0 1 1 910.26,655.18A5,5 0 1 1 920.26,655.18Z" style="fill:#0000FF" />
<path d="M1115.2,718.23A5,5 0 1 1 1105.2,718.23A5,5 0 1 1 1115.2,718.23Z" style="fill:#0000FF" />
<path d="M1310.2,758.3A5,5 0 1 1 1300.2,758.3A5,5 0 1 1 1310.2,758.3Z" style="fill:#0000FF" />
<path d="M1505.1,800.12A5,5 0 1 1 1495.1,800.12A5,5 0 1 1 1505.1,800.12Z" style="fill:#0000FF" />
<path d="M1700.1,838.21A5,5 0 1 1 1690.1,838.21A5,5 0 1 1 1700.1,838.21Z" style="fill:#0000FF" />
<path d="M1895,849.73A5,5 0 1 1 1885,849.73A5,5 0 1 1 1895,849.73Z" style="fill:#0000FF" />
<path d="M135.46,178.88L330.41,469.36L525.36,622.96L720.31,718.56L915.26,780.96L1110.2,848.45L1305.2,883.89L1500.1,926.07L1695.1,957.17L1890,988.18" style="fill:none;stroke:#00FF00;stroke-width:4" />
<path d="M140.46,178.88A5,5 0 1 1 130.46,178.88A5,5 0 1 1 140.46,178.88Z" style="fill:#00FF00" />
<path d="M335.41,469.36A5,5 0 1 1 325.41,469.36A5,5 0 1 1 335.41,469.36Z" style="fill:#00FF00" />
<path d="M530.36,622.96A5,5 0 1 1 520.36,622.96A5,5 0 1 1 530.36,622.96Z" style="fill:#00FF00" />
<path d="M725.31,718.56A5,5 0 1 1 715.31,718.56A5,5 0 1 1 725.31,718.56Z" style="fill:#00FF00" />
<path d="M920.26,780.96A5,5 0 1 1 910.26,780.96A5,5 0 1 1 920.26,780.96Z" style="fill:#00FF00" />
<path d="M1115.2,848.45A5,5 0 1 1 1105.2,848.45A5,5 0 1 1 1115.2,848.45Z" style="fill:#00FF00" />
<path d="M1310.2,883.89A5,5 0 1 1 1300.2,883.89A5,5 0 1 1 1310.2,883.89Z" style="fill:#00FF00" />
<path d="M1505.1,926.07A5,5 0 1 1 1495.1,926.07A5,5 0 1 1 1505.1,926.07Z" style="fill:#00FF00" />
<path d="M1700.1,957.17A5,5 0 1 1 1690.1,957.17A5,5 0 1 1 1700.1,957.17Z" style="fill:#00FF00" />
<path d="M1895,988.18A5,5 0 1 1 1885,988.18A5,5 0 1 1 1895,988.18Z" style="fill:#00FF00" />
<path d="M1900,126.03L1920,126.03" style="fill:none;stroke:#FF0000;stroke-width:4" />
<path d="M1915,126.03A5,5 0 1 1 1905,126.03A5,5 0 1 1 1915,126.03Z" style="fill:#FF0000" />
<text x="1792.7" y="-121.05" transform="scale(1, -1)"
	style="font-family:Liberation Serif;font-variant:normal;font-weight:normal;font-style:normal;font-size:24px">std::vector</text>
<path d="M1900,105.66L1920,105.66" style="fill:none;stroke:#0000FF;stroke-width:4" />
<path d="M1915,105.66A5,5 0 1 1 1905,105.66A5,5 0 1 1 1915,105.66Z" style="fill:#0000FF" />
<text x="1823.3" y="-100.69" transform="scale(1, -1)"
	style="font-family:Liberation Serif;font-variant:normal;font-weight:normal;font-style:normal;font-size:24px">std::list</text>
<path d="M1900,85.294L1920,85.294" style="fill:none;stroke:#00FF00;stroke-width:4" />
<path d="M1915,85.294A5,5 0 1 1 1905,85.294A5,5 0 1 1 1915,85.294Z" style="fill:#00FF00" />
<text x="1795.4" y="-80.319" transform="scale(1, -1)"
	style="font-family:Liberation Serif;font-variant:normal;font-weight:normal;font-style:normal;font-size:24px">std::deque</text>
</g>
</svg>
