<?xml version="1.0"?>
<!-- Generated by SVGo and Plotinum VG -->
<svg width="1920pt" height="1080pt" viewBox="0 0 1920 1080"
	xmlns="http://www.w3.org/2000/svg"
	xmlns:xlink="http://www.w3.org/1999/xlink">
<g transform="scale(1, -1) translate(0, -1080)">
<path d="M0,0L1920,0L1920,1080L0,1080Z" style="fill:#FFFFFF" />
<text x="702.48" y="-1040.9" transform="scale(1, -1)"
	style="font-family:Liberation Serif;font-variant:normal;font-weight:normal;font-style:normal;font-size:50px">random-erase - Log Scale</text>
<text x="890.27" y="-9.7559" transform="scale(1, -1)"
	style="font-family:Liberation Serif;font-variant:normal;font-weight:normal;font-style:normal;font-size:30px">Number of elements</text>
<text x="110.46" y="-39.727" transform="scale(1, -1)"
	style="font-family:Liberation Serif;font-variant:normal;font-weight:normal;font-style:normal;font-size:20px">10000</text>
<text x="305.41" y="-39.727" transform="scale(1, -1)"
	style="font-family:Liberation Serif;font-variant:normal;font-weight:normal;font-style:normal;font-size:20px">20000</text>
<text x="500.36" y="-39.727" transform="scale(1, -1)"
	style="font-family:Liberation Serif;font-variant:normal;font-weight:normal;font-style:normal;font-size:20px">30000</text>
<text x="695.31" y="-39.727" transform="scale(1, -1)"
	style="font-family:Liberation Serif;font-variant:normal;font-weight:normal;font-style:normal;font-size:20px">40000</text>
<text x="890.26" y="-39.727" transform="scale(1, -1)"
	style="font-family:Liberation Serif;font-variant:normal;font-weight:normal;font-style:normal;font-size:20px">50000</text>
<text x="1085.2" y="-39.727" transform="scale(1, -1)"
	style="font-family:Liberation Serif;font-variant:normal;font-weight:normal;font-style:normal;font-size:20px">60000</text>
<text x="1280.2" y="-39.727" transform="scale(1, -1)"
	style="font-family:Liberation Serif;font-variant:normal;font-weight:normal;font-style:normal;font-size:20px">70000</text>
<text x="1475.1" y="-39.727" transform="scale(1, -1)"
	style="font-family:Liberation Serif;font-variant:normal;font-weight:normal;font-style:normal;font-size:20px">80000</text>
<text x="1670.1" y="-39.727" transform="scale(1, -1)"
	style="font-family:Liberation Serif;font-variant:normal;font-weight:normal;font-style:normal;font-size:20px">90000</text>
<text x="1860" y="-39.727" transform="scale(1, -1)"
	style="font-family:Liberation Serif;font-variant:normal;font-weight:normal;font-style:normal;font-size:20px">100000</text>
<path d="M135.46,55.371L135.46,63.371" style="fill:none;stroke:#000000;stroke-width:0.5" />
<path d="M330.41,55.371L330.41,63.371" style="fill:none;stroke:#000000;stroke-width:0.5" />
<path d="M525.36,55.371L525.36,63.371" style="fill:none;stroke:#000000;stroke-width:0.5" />
<path d="M720.31,55.371L720.31,63.371" style="fill:none;stroke:#000000;stroke-width:0.5" />
<path d="M915.26,55.371L915.26,63.371" style="fill:none;stroke:#000000;stroke-width:0.5" />
<path d="M1110.2,55.371L1110.2,63.371" style="fill:none;stroke:#000000;stroke-width:0.5" />
<path d="M1305.2,55.371L1305.2,63.371" style="fill:none;stroke:#000000;stroke-width:0.5" />
<path d="M1500.1,55.371L1500.1,63.371" style="fill:none;stroke:#000000;stroke-width:0.5" />
<path d="M1695.1,55.371L1695.1,63.371" style="fill:none;stroke:#000000;stroke-width:0.5" />
<path d="M1890,55.371L1890,63.371" style="fill:none;stroke:#000000;stroke-width:0.5" />
<path d="M135.46,63.371L1890,63.371" style="fill:none;stroke:#000000;stroke-width:0.5" />
<g transform="rotate(90)">
<text x="509.33" y="23.467" transform="scale(1, -1)"
	style="font-family:Liberation Serif;font-variant:normal;font-weight:normal;font-style:normal;font-size:30px">log(μs)</text>
</g>
<text x="49.712" y="-452.97" transform="scale(1, -1)"
	style="font-family:Liberation Serif;font-variant:normal;font-weight:normal;font-style:normal;font-size:20px">400000</text>
<text x="39.712" y="-819.56" transform="scale(1, -1)"
	style="font-family:Liberation Serif;font-variant:normal;font-weight:normal;font-style:normal;font-size:20px">1200000</text>
<text x="39.712" y="-990.01" transform="scale(1, -1)"
	style="font-family:Liberation Serif;font-variant:normal;font-weight:normal;font-style:normal;font-size:20px">2000000</text>
<path d="M114.71,457.54L122.71,457.54" style="fill:none;stroke:#000000;stroke-width:0.5" />
<path d="M114.71,824.13L122.71,824.13" style="fill:none;stroke:#000000;stroke-width:0.5" />
<path d="M114.71,994.58L122.71,994.58" style="fill:none;stroke:#000000;stroke-width:0.5" />
<path d="M118.71,688.83L122.71,688.83" style="fill:none;stroke:#000000;stroke-width:0.5" />
<path d="M118.71,920.12L122.71,920.12" style="fill:none;stroke:#000000;stroke-width:0.5" />
<path d="M122.71,80.11L122.71,1024.6" style="fill:none;stroke:#000000;stroke-width:0.5" />
<path d="M135.46,80.11L135.46,1024.6" style="fill:none;stroke:#808080;stroke-width:0.25" />
<path d="M330.41,80.11L330.41,1024.6" style="fill:none;stroke:#808080;stroke-width:0.25" />
<path d="M525.36,80.11L525.36,1024.6" style="fill:none;stroke:#808080;stroke-width:0.25" />
<path d="M720.31,80.11L720.31,1024.6" style="fill:none;stroke:#808080;stroke-width:0.25" />
<path d="M915.26,80.11L915.26,1024.6" style="fill:none;stroke:#808080;stroke-width:0.25" />
<path d="M1110.2,80.11L1110.2,1024.6" style="fill:none;stroke:#808080;stroke-width:0.25" />
<path d="M1305.2,80.11L1305.2,1024.6" style="fill:none;stroke:#808080;stroke-width:0.25" />
<path d="M1500.1,80.11L1500.1,1024.6" style="fill:none;stroke:#808080;stroke-width:0.25" />
<path d="M1695.1,80.11L1695.1,1024.6" style="fill:none;stroke:#808080;stroke-width:0.25" />
<path d="M1890,80.11L1890,1024.6" style="fill:none;stroke:#808080;stroke-width:0.25" />
<path d="M135.46,457.54L1890,457.54" style="fill:none;stroke:#808080;stroke-width:0.25" />
<path d="M135.46,824.13L1890,824.13" style="fill:none;stroke:#808080;stroke-width:0.25" />
<path d="M135.46,994.58L1890,994.58" style="fill:none;stroke:#808080;stroke-width:0.25" />
<path d="M135.46,161.37L330.41,376.29L525.36,504.35L720.31,631.89L915.26,746.62L1110.2,788.35L1305.2,797.63L1500.1,852.24L1695.1,907.56L1890,953.63" style="fill:none;stroke:#FF0000;stroke-width:4" />
<path d="M140.46,161.37A5,5 0 1 1 130.46,161.37A5,5 0 1 1 140.46,161.37Z" style="fill:#FF0000" />
<path d="M335.41,376.29A5,5 0 1 1 325.41,376.29A5,5 0 1 1 335.41,376.29Z" style="fill:#FF0000" />
<path d="M530.36,504.35A5,5 0 1 1 520.36,504.35A5,5 0 1 1 530.36,504.35Z" style="fill:#FF0000" />
<path d="M725.31,631.89A5,5 0 1 1 715.31,631.89A5,5 0 1 1 725.31,631.89Z" style="fill:#FF0000" />
<path d="M920.26,746.62A5,5 0 1 1 910.26,746.62A5,5 0 1 1 920.26,746.62Z" style="fill:#FF0000" />
<path d="M1115.2,788.35A5,5 0 1 1 1105.2,788.35A5,5 0 1 1 1115.2,788.35Z" style="fill:#FF0000" />
<path d="M1310.2,797.63A5,5 0 1 1 1300.2,797.63A5,5 0 1 1 1310.2,797.63Z" style="fill:#FF0000" />
<path d="M1505.1,852.24A5,5 0 1 1 1495.1,852.24A5,5 0 1 1 1505.1,852.24Z" style="fill:#FF0000" />
<path d="M1700.1,907.56A5,5 0 1 1 1690.1,907.56A5,5 0 1 1 1700.1,907.56Z" style="fill:#FF0000" />
<path d="M1895,953.63A5,5 0 1 1 1885,953.63A5,5 0 1 1 1895,953.63Z" style="fill:#FF0000" />
<path d="M135.46,180.34L330.41,461.5L525.36,567.49L720.31,668.07L915.26,744.45L1110.2,824.9L1305.2,862.96L1500.1,941.37L1695.1,960.81L1890,992.83" style="fill:none;stroke:#0000FF;stroke-width:4" />
<path d="M140.46,180.34A5,5 0 1 1 130.46,180.34A5,5 0 1 1 140.46,180.34Z" style="fill:#0000FF" />
<path d="M335.41,461.5A5,5 0 1 1 325.41,461.5A5,5 0 1 1 335.41,461.5Z" style="fill:#0000FF" />
<path d="M530.36,567.49A5,5 0 1 1 520.36,567.49A5,5 0 1 1 530.36,567.49Z" style="fill:#0000FF" />
<path d="M725.31,668.07A5,5 0 1 1 715.31,668.07A5,5 0 1 1 725.31,668.07Z" style="fill:#0000FF" />
<path d="M920.26,744.45A5,5 0 1 1 910.26,744.45A5,5 0 1 1 920.26,744.45Z" style="fill:#0000FF" />
<path d="M1115.2,824.9A5,5 0 1 1 1105.2,824.9A5,5 0 1 1 1115.2,824.9Z" style="fill:#0000FF" />
<path d="M1310.2,862.96A5,5 0 1 1 1300.2,862.96A5,5 0 1 1 1310.2,862.96Z" style="fill:#0000FF" />
<path d="M1505.1,941.37A5,5 0 1 1 1495.1,941.37A5,5 0 1 1 1505.1,941.37Z" style="fill:#0000FF" />
<path d="M1700.1,960.81A5,5 0 1 1 1690.1,960.81A5,5 0 1 1 1700.1,960.81Z" style="fill:#0000FF" />
<path d="M1895,992.83A5,5 0 1 1 1885,992.83A5,5 0 1 1 1895,992.83Z" style="fill:#0000FF" />
<path d="M135.46,80.11L330.41,342.03L525.36,529.33L720.31,570.73L915.26,709.14L1110.2,742.29L1305.2,822.58L1500.1,888.63L1695.1,903.1L1890,939.72" style="fill:none;stroke:#00FF00;stroke-width:4" />
<path d="M140.46,80.11A5,5 0 1 1 130.46,80.11A5,5 0 1 1 140.46,80.11Z" style="fill:#00FF00" />
<path d="M335.41,342.03A5,5 0 1 1 325.41,342.03A5,5 0 1 1 335.41,342.03Z" style="fill:#00FF00" />
<path d="M530.36,529.33A5,5 0 1 1 520.36,529.33A5,5 0 1 1 530.36,529.33Z" style="fill:#00FF00" />
<path d="M725.31,570.73A5,5 0 1 1 715.31,570.73A5,5 0 1 1 725.31,570.73Z" style="fill:#00FF00" />
<path d="M920.26,709.14A5,5 0 1 1 910.26,709.14A5,5 0 1 1 920.26,709.14Z" style="fill:#00FF00" />
<path d="M1115.2,742.29A5,5 0 1 1 1105.2,742.29A5,5 0 1 1 1115.2,742.29Z" style="fill:#00FF00" />
<path d="M1310.2,822.58A5,5 0 1 1 1300.2,822.58A5,5 0 1 1 1310.2,822.58Z" style="fill:#00FF00" />
<path d="M1505.1,888.63A5,5 0 1 1 1495.1,888.63A5,5 0 1 1 1505.1,888.63Z" style="fill:#00FF00" />
<path d="M1700.1,903.1A5,5 0 1 1 1690.1,903.1A5,5 0 1 1 1700.1,903.1Z" style="fill:#00FF00" />
<path d="M1895,939.72A5,5 0 1 1 1885,939.72A5,5 0 1 1 1895,939.72Z" style="fill:#00FF00" />
<path d="M1900,126.03L1920,126.03" style="fill:none;stroke:#FF0000;stroke-width:4" />
<path d="M1915,126.03A5,5 0 1 1 1905,126.03A5,5 0 1 1 1915,126.03Z" style="fill:#FF0000" />
<text x="1823.3" y="-121.05" transform="scale(1, -1)"
	style="font-family:Liberation Serif;font-variant:normal;font-weight:normal;font-style:normal;font-size:24px">std::list</text>
<path d="M1900,105.66L1920,105.66" style="fill:none;stroke:#0000FF;stroke-width:4" />
<path d="M1915,105.66A5,5 0 1 1 1905,105.66A5,5 0 1 1 1915,105.66Z" style="fill:#0000FF" />
<text x="1795.4" y="-100.69" transform="scale(1, -1)"
	style="font-family:Liberation Serif;font-variant:normal;font-weight:normal;font-style:normal;font-size:24px">std::deque</text>
<path d="M1900,85.294L1920,85.294" style="fill:none;stroke:#00FF00;stroke-width:4" />
<path d="M1915,85.294A5,5 0 1 1 1905,85.294A5,5 0 1 1 1915,85.294Z" style="fill:#00FF00" />
<text x="1792.7" y="-80.319" transform="scale(1, -1)"
	style="font-family:Liberation Serif;font-variant:normal;font-weight:normal;font-style:normal;font-size:24px">std::vector</text>
</g>
</svg>
