<?xml version="1.0"?>
<!-- Generated by SVGo and Plotinum VG -->
<svg width="1920pt" height="1080pt" viewBox="0 0 1920 1080"
	xmlns="http://www.w3.org/2000/svg"
	xmlns:xlink="http://www.w3.org/1999/xlink">
<g transform="scale(1, -1) translate(0, -1080)">
<path d="M0,0L1920,0L1920,1080L0,1080Z" style="fill:#FFFFFF" />
<text x="702.48" y="-1040.9" transform="scale(1, -1)"
	style="font-family:Liberation Serif;font-variant:normal;font-weight:normal;font-style:normal;font-size:50px">random-erase - Log Scale</text>
<text x="890.27" y="-9.7559" transform="scale(1, -1)"
	style="font-family:Liberation Serif;font-variant:normal;font-weight:normal;font-style:normal;font-size:30px">Number of elements</text>
<text x="110.46" y="-39.727" transform="scale(1, -1)"
	style="font-family:Liberation Serif;font-variant:normal;font-weight:normal;font-style:normal;font-size:20px">10000</text>
<text x="305.41" y="-39.727" transform="scale(1, -1)"
	style="font-family:Liberation Serif;font-variant:normal;font-weight:normal;font-style:normal;font-size:20px">20000</text>
<text x="500.36" y="-39.727" transform="scale(1, -1)"
	style="font-family:Liberation Serif;font-variant:normal;font-weight:normal;font-style:normal;font-size:20px">30000</text>
<text x="695.31" y="-39.727" transform="scale(1, -1)"
	style="font-family:Liberation Serif;font-variant:normal;font-weight:normal;font-style:normal;font-size:20px">40000</text>
<text x="890.26" y="-39.727" transform="scale(1, -1)"
	style="font-family:Liberation Serif;font-variant:normal;font-weight:normal;font-style:normal;font-size:20px">50000</text>
<text x="1085.2" y="-39.727" transform="scale(1, -1)"
	style="font-family:Liberation Serif;font-variant:normal;font-weight:normal;font-style:normal;font-size:20px">60000</text>
<text x="1280.2" y="-39.727" transform="scale(1, -1)"
	style="font-family:Liberation Serif;font-variant:normal;font-weight:normal;font-style:normal;font-size:20px">70000</text>
<text x="1475.1" y="-39.727" transform="scale(1, -1)"
	style="font-family:Liberation Serif;font-variant:normal;font-weight:normal;font-style:normal;font-size:20px">80000</text>
<text x="1670.1" y="-39.727" transform="scale(1, -1)"
	style="font-family:Liberation Serif;font-variant:normal;font-weight:normal;font-style:normal;font-size:20px">90000</text>
<text x="1860" y="-39.727" transform="scale(1, -1)"
	style="font-family:Liberation Serif;font-variant:normal;font-weight:normal;font-style:normal;font-size:20px">100000</text>
<path d="M135.46,55.371L135.46,63.371" style="fill:none;stroke:#000000;stroke-width:0.5" />
<path d="M330.41,55.371L330.41,63.371" style="fill:none;stroke:#000000;stroke-width:0.5" />
<path d="M525.36,55.371L525.36,63.371" style="fill:none;stroke:#000000;stroke-width:0.5" />
<path d="M720.31,55.371L720.31,63.371" style="fill:none;stroke:#000000;stroke-width:0.5" />
<path d="M915.26,55.371L915.26,63.371" style="fill:none;stroke:#000000;stroke-width:0.5" />
<path d="M1110.2,55.371L1110.2,63.371" style="fill:none;stroke:#000000;stroke-width:0.5" />
<path d="M1305.2,55.371L1305.2,63.371" style="fill:none;stroke:#000000;stroke-width:0.5" />
<path d="M1500.1,55.371L1500.1,63.371" style="fill:none;stroke:#000000;stroke-width:0.5" />
<path d="M1695.1,55.371L1695.1,63.371" style="fill:none;stroke:#000000;stroke-width:0.5" />
<path d="M1890,55.371L1890,63.371" style="fill:none;stroke:#000000;stroke-width:0.5" />
<path d="M135.46,63.371L1890,63.371" style="fill:none;stroke:#000000;stroke-width:0.5" />
<g transform="rotate(90)">
<text x="482.32" y="23.467" transform="scale(1, -1)"
	style="font-family:Liberation Serif;font-variant:normal;font-weight:normal;font-style:normal;font-size:30px">log(μs + 1)</text>
</g>
<text x="49.712" y="-428.26" transform="scale(1, -1)"
	style="font-family:Liberation Serif;font-variant:normal;font-weight:normal;font-style:normal;font-size:20px">300000</text>
<text x="49.712" y="-824.67" transform="scale(1, -1)"
	style="font-family:Liberation Serif;font-variant:normal;font-weight:normal;font-style:normal;font-size:20px">900000</text>
<text x="39.712" y="-1009" transform="scale(1, -1)"
	style="font-family:Liberation Serif;font-variant:normal;font-weight:normal;font-style:normal;font-size:20px">1500000</text>
<path d="M114.71,432.83L122.71,432.83" style="fill:none;stroke:#000000;stroke-width:0.5" />
<path d="M114.71,829.24L122.71,829.24" style="fill:none;stroke:#000000;stroke-width:0.5" />
<path d="M114.71,1013.6L122.71,1013.6" style="fill:none;stroke:#000000;stroke-width:0.5" />
<path d="M118.71,682.93L122.71,682.93" style="fill:none;stroke:#000000;stroke-width:0.5" />
<path d="M118.71,933.04L122.71,933.04" style="fill:none;stroke:#000000;stroke-width:0.5" />
<path d="M122.71,80.11L122.71,1017.5" style="fill:none;stroke:#000000;stroke-width:0.5" />
<path d="M135.46,80.11L135.46,1017.5" style="fill:none;stroke:#808080;stroke-width:0.25" />
<path d="M330.41,80.11L330.41,1017.5" style="fill:none;stroke:#808080;stroke-width:0.25" />
<path d="M525.36,80.11L525.36,1017.5" style="fill:none;stroke:#808080;stroke-width:0.25" />
<path d="M720.31,80.11L720.31,1017.5" style="fill:none;stroke:#808080;stroke-width:0.25" />
<path d="M915.26,80.11L915.26,1017.5" style="fill:none;stroke:#808080;stroke-width:0.25" />
<path d="M1110.2,80.11L1110.2,1017.5" style="fill:none;stroke:#808080;stroke-width:0.25" />
<path d="M1305.2,80.11L1305.2,1017.5" style="fill:none;stroke:#808080;stroke-width:0.25" />
<path d="M1500.1,80.11L1500.1,1017.5" style="fill:none;stroke:#808080;stroke-width:0.25" />
<path d="M1695.1,80.11L1695.1,1017.5" style="fill:none;stroke:#808080;stroke-width:0.25" />
<path d="M1890,80.11L1890,1017.5" style="fill:none;stroke:#808080;stroke-width:0.25" />
<path d="M135.46,432.83L1890,432.83" style="fill:none;stroke:#808080;stroke-width:0.25" />
<path d="M135.46,829.24L1890,829.24" style="fill:none;stroke:#808080;stroke-width:0.25" />
<path d="M135.46,1013.6L1890,1013.6" style="fill:none;stroke:#808080;stroke-width:0.25" />
<path d="M135.46,145.31L330.41,375.76L525.36,518.14L720.31,654.98L915.26,739.09L1110.2,787.3L1305.2,847.41L1500.1,936.39L1695.1,922.7L1890,983.13" style="fill:none;stroke:#FF0000;stroke-width:4" />
<path d="M140.46,145.31A5,5 0 1 1 130.46,145.31A5,5 0 1 1 140.46,145.31Z" style="fill:#FF0000" />
<path d="M335.41,375.76A5,5 0 1 1 325.41,375.76A5,5 0 1 1 335.41,375.76Z" style="fill:#FF0000" />
<path d="M530.36,518.14A5,5 0 1 1 520.36,518.14A5,5 0 1 1 530.36,518.14Z" style="fill:#FF0000" />
<path d="M725.31,654.98A5,5 0 1 1 715.31,654.98A5,5 0 1 1 725.31,654.98Z" style="fill:#FF0000" />
<path d="M920.26,739.09A5,5 0 1 1 910.26,739.09A5,5 0 1 1 920.26,739.09Z" style="fill:#FF0000" />
<path d="M1115.2,787.3A5,5 0 1 1 1105.2,787.3A5,5 0 1 1 1115.2,787.3Z" style="fill:#FF0000" />
<path d="M1310.2,847.41A5,5 0 1 1 1300.2,847.41A5,5 0 1 1 1310.2,847.41Z" style="fill:#FF0000" />
<path d="M1505.1,936.39A5,5 0 1 1 1495.1,936.39A5,5 0 1 1 1505.1,936.39Z" style="fill:#FF0000" />
<path d="M1700.1,922.7A5,5 0 1 1 1690.1,922.7A5,5 0 1 1 1700.1,922.7Z" style="fill:#FF0000" />
<path d="M1895,983.13A5,5 0 1 1 1885,983.13A5,5 0 1 1 1895,983.13Z" style="fill:#FF0000" />
<path d="M135.46,95.867L330.41,273.03L525.36,469.84L720.31,568.9L915.26,654.53L1110.2,697.44L1305.2,795.76L1500.1,849.23L1695.1,881.15L1890,914.07" style="fill:none;stroke:#0000FF;stroke-width:4" />
<path d="M140.46,95.867A5,5 0 1 1 130.46,95.867A5,5 0 1 1 140.46,95.867Z" style="fill:#0000FF" />
<path d="M335.41,273.03A5,5 0 1 1 325.41,273.03A5,5 0 1 1 335.41,273.03Z" style="fill:#0000FF" />
<path d="M530.36,469.84A5,5 0 1 1 520.36,469.84A5,5 0 1 1 530.36,469.84Z" style="fill:#0000FF" />
<path d="M725.31,568.9A5,5 0 1 1 715.31,568.9A5,5 0 1 1 725.31,568.9Z" style="fill:#0000FF" />
<path d="M920.26,654.53A5,5 0 1 1 910.26,654.53A5,5 0 1 1 920.26,654.53Z" style="fill:#0000FF" />
<path d="M1115.2,697.44A5,5 0 1 1 1105.2,697.44A5,5 0 1 1 1115.2,697.44Z" style="fill:#0000FF" />
<path d="M1310.2,795.76A5,5 0 1 1 1300.2,795.76A5,5 0 1 1 1310.2,795.76Z" style="fill:#0000FF" />
<path d="M1505.1,849.23A5,5 0 1 1 1495.1,849.23A5,5 0 1 1 1505.1,849.23Z" style="fill:#0000FF" />
<path d="M1700.1,881.15A5,5 0 1 1 1690.1,881.15A5,5 0 1 1 1700.1,881.15Z" style="fill:#0000FF" />
<path d="M1895,914.07A5,5 0 1 1 1885,914.07A5,5 0 1 1 1895,914.07Z" style="fill:#0000FF" />
<path d="M135.46,80.11L330.41,317.77L525.36,498.26L720.31,577.46L915.26,662.05L1110.2,722.98L1305.2,789.91L1500.1,813.59L1695.1,875.67L1890,913.39" style="fill:none;stroke:#00FF00;stroke-width:4" />
<path d="M140.46,80.11A5,5 0 1 1 130.46,80.11A5,5 0 1 1 140.46,80.11Z" style="fill:#00FF00" />
<path d="M335.41,317.77A5,5 0 1 1 325.41,317.77A5,5 0 1 1 335.41,317.77Z" style="fill:#00FF00" />
<path d="M530.36,498.26A5,5 0 1 1 520.36,498.26A5,5 0 1 1 530.36,498.26Z" style="fill:#00FF00" />
<path d="M725.31,577.46A5,5 0 1 1 715.31,577.46A5,5 0 1 1 725.31,577.46Z" style="fill:#00FF00" />
<path d="M920.26,662.05A5,5 0 1 1 910.26,662.05A5,5 0 1 1 920.26,662.05Z" style="fill:#00FF00" />
<path d="M1115.2,722.98A5,5 0 1 1 1105.2,722.98A5,5 0 1 1 1115.2,722.98Z" style="fill:#00FF00" />
<path d="M1310.2,789.91A5,5 0 1 1 1300.2,789.91A5,5 0 1 1 1310.2,789.91Z" style="fill:#00FF00" />
<path d="M1505.1,813.59A5,5 0 1 1 1495.1,813.59A5,5 0 1 1 1505.1,813.59Z" style="fill:#00FF00" />
<path d="M1700.1,875.67A5,5 0 1 1 1690.1,875.67A5,5 0 1 1 1700.1,875.67Z" style="fill:#00FF00" />
<path d="M1895,913.39A5,5 0 1 1 1885,913.39A5,5 0 1 1 1895,913.39Z" style="fill:#00FF00" />
<path d="M1900,126.03L1920,126.03" style="fill:none;stroke:#FF0000;stroke-width:4" />
<path d="M1915,126.03A5,5 0 1 1 1905,126.03A5,5 0 1 1 1915,126.03Z" style="fill:#FF0000" />
<text x="1823.3" y="-121.05" transform="scale(1, -1)"
	style="font-family:Liberation Serif;font-variant:normal;font-weight:normal;font-style:normal;font-size:24px">std::list</text>
<path d="M1900,105.66L1920,105.66" style="fill:none;stroke:#0000FF;stroke-width:4" />
<path d="M1915,105.66A5,5 0 1 1 1905,105.66A5,5 0 1 1 1915,105.66Z" style="fill:#0000FF" />
<text x="1795.4" y="-100.69" transform="scale(1, -1)"
	style="font-family:Liberation Serif;font-variant:normal;font-weight:normal;font-style:normal;font-size:24px">std::deque</text>
<path d="M1900,85.294L1920,85.294" style="fill:none;stroke:#00FF00;stroke-width:4" />
<path d="M1915,85.294A5,5 0 1 1 1905,85.294A5,5 0 1 1 1915,85.294Z" style="fill:#00FF00" />
<text x="1792.7" y="-80.319" transform="scale(1, -1)"
	style="font-family:Liberation Serif;font-variant:normal;font-weight:normal;font-style:normal;font-size:24px">std::vector</text>
</g>
</svg>
