<?xml version="1.0"?>
<!-- Generated by SVGo and Plotinum VG -->
<svg width="1920pt" height="1080pt" viewBox="0 0 1920 1080"
	xmlns="http://www.w3.org/2000/svg"
	xmlns:xlink="http://www.w3.org/1999/xlink">
<g transform="scale(1, -1) translate(0, -1080)">
<path d="M0,0L1920,0L1920,1080L0,1080Z" style="fill:#FFFFFF" />
<text x="823.96" y="-1040.9" transform="scale(1, -1)"
	style="font-family:Liberation Serif;font-variant:normal;font-weight:normal;font-style:normal;font-size:50px">random-erase</text>
<text x="890.27" y="-9.7559" transform="scale(1, -1)"
	style="font-family:Liberation Serif;font-variant:normal;font-weight:normal;font-style:normal;font-size:30px">Number of elements</text>
<text x="110.46" y="-39.727" transform="scale(1, -1)"
	style="font-family:Liberation Serif;font-variant:normal;font-weight:normal;font-style:normal;font-size:20px">10000</text>
<text x="305.41" y="-39.727" transform="scale(1, -1)"
	style="font-family:Liberation Serif;font-variant:normal;font-weight:normal;font-style:normal;font-size:20px">20000</text>
<text x="500.36" y="-39.727" transform="scale(1, -1)"
	style="font-family:Liberation Serif;font-variant:normal;font-weight:normal;font-style:normal;font-size:20px">30000</text>
<text x="695.31" y="-39.727" transform="scale(1, -1)"
	style="font-family:Liberation Serif;font-variant:normal;font-weight:normal;font-style:normal;font-size:20px">40000</text>
<text x="890.26" y="-39.727" transform="scale(1, -1)"
	style="font-family:Liberation Serif;font-variant:normal;font-weight:normal;font-style:normal;font-size:20px">50000</text>
<text x="1085.2" y="-39.727" transform="scale(1, -1)"
	style="font-family:Liberation Serif;font-variant:normal;font-weight:normal;font-style:normal;font-size:20px">60000</text>
<text x="1280.2" y="-39.727" transform="scale(1, -1)"
	style="font-family:Liberation Serif;font-variant:normal;font-weight:normal;font-style:normal;font-size:20px">70000</text>
<text x="1475.1" y="-39.727" transform="scale(1, -1)"
	style="font-family:Liberation Serif;font-variant:normal;font-weight:normal;font-style:normal;font-size:20px">80000</text>
<text x="1670.1" y="-39.727" transform="scale(1, -1)"
	style="font-family:Liberation Serif;font-variant:normal;font-weight:normal;font-style:normal;font-size:20px">90000</text>
<text x="1860" y="-39.727" transform="scale(1, -1)"
	style="font-family:Liberation Serif;font-variant:normal;font-weight:normal;font-style:normal;font-size:20px">100000</text>
<path d="M135.46,55.371L135.46,63.371" style="fill:none;stroke:#000000;stroke-width:0.5" />
<path d="M330.41,55.371L330.41,63.371" style="fill:none;stroke:#000000;stroke-width:0.5" />
<path d="M525.36,55.371L525.36,63.371" style="fill:none;stroke:#000000;stroke-width:0.5" />
<path d="M720.31,55.371L720.31,63.371" style="fill:none;stroke:#000000;stroke-width:0.5" />
<path d="M915.26,55.371L915.26,63.371" style="fill:none;stroke:#000000;stroke-width:0.5" />
<path d="M1110.2,55.371L1110.2,63.371" style="fill:none;stroke:#000000;stroke-width:0.5" />
<path d="M1305.2,55.371L1305.2,63.371" style="fill:none;stroke:#000000;stroke-width:0.5" />
<path d="M1500.1,55.371L1500.1,63.371" style="fill:none;stroke:#000000;stroke-width:0.5" />
<path d="M1695.1,55.371L1695.1,63.371" style="fill:none;stroke:#000000;stroke-width:0.5" />
<path d="M1890,55.371L1890,63.371" style="fill:none;stroke:#000000;stroke-width:0.5" />
<path d="M135.46,63.371L1890,63.371" style="fill:none;stroke:#000000;stroke-width:0.5" />
<g transform="rotate(90)">
<text x="538.49" y="23.467" transform="scale(1, -1)"
	style="font-family:Liberation Serif;font-variant:normal;font-weight:normal;font-style:normal;font-size:30px">μs</text>
</g>
<text x="49.712" y="-199.8" transform="scale(1, -1)"
	style="font-family:Liberation Serif;font-variant:normal;font-weight:normal;font-style:normal;font-size:20px">400000</text>
<text x="39.712" y="-566.71" transform="scale(1, -1)"
	style="font-family:Liberation Serif;font-variant:normal;font-weight:normal;font-style:normal;font-size:20px">1200000</text>
<text x="39.712" y="-933.61" transform="scale(1, -1)"
	style="font-family:Liberation Serif;font-variant:normal;font-weight:normal;font-style:normal;font-size:20px">2000000</text>
<path d="M114.71,204.37L122.71,204.37" style="fill:none;stroke:#000000;stroke-width:0.5" />
<path d="M114.71,571.28L122.71,571.28" style="fill:none;stroke:#000000;stroke-width:0.5" />
<path d="M114.71,938.18L122.71,938.18" style="fill:none;stroke:#000000;stroke-width:0.5" />
<path d="M118.71,387.82L122.71,387.82" style="fill:none;stroke:#000000;stroke-width:0.5" />
<path d="M118.71,754.73L122.71,754.73" style="fill:none;stroke:#000000;stroke-width:0.5" />
<path d="M122.71,80.11L122.71,1024.6" style="fill:none;stroke:#000000;stroke-width:0.5" />
<path d="M135.46,80.11L135.46,1024.6" style="fill:none;stroke:#808080;stroke-width:0.25" />
<path d="M330.41,80.11L330.41,1024.6" style="fill:none;stroke:#808080;stroke-width:0.25" />
<path d="M525.36,80.11L525.36,1024.6" style="fill:none;stroke:#808080;stroke-width:0.25" />
<path d="M720.31,80.11L720.31,1024.6" style="fill:none;stroke:#808080;stroke-width:0.25" />
<path d="M915.26,80.11L915.26,1024.6" style="fill:none;stroke:#808080;stroke-width:0.25" />
<path d="M1110.2,80.11L1110.2,1024.6" style="fill:none;stroke:#808080;stroke-width:0.25" />
<path d="M1305.2,80.11L1305.2,1024.6" style="fill:none;stroke:#808080;stroke-width:0.25" />
<path d="M1500.1,80.11L1500.1,1024.6" style="fill:none;stroke:#808080;stroke-width:0.25" />
<path d="M1695.1,80.11L1695.1,1024.6" style="fill:none;stroke:#808080;stroke-width:0.25" />
<path d="M1890,80.11L1890,1024.6" style="fill:none;stroke:#808080;stroke-width:0.25" />
<path d="M135.46,204.37L1890,204.37" style="fill:none;stroke:#808080;stroke-width:0.25" />
<path d="M135.46,571.28L1890,571.28" style="fill:none;stroke:#808080;stroke-width:0.25" />
<path d="M135.46,938.18L1890,938.18" style="fill:none;stroke:#808080;stroke-width:0.25" />
<path d="M135.46,96.434L330.41,164.72L525.36,232L720.31,330.26L915.26,457.21L1110.2,515.33L1305.2,529.26L1500.1,619.66L1695.1,727.62L1890,832.26" style="fill:none;stroke:#FF0000;stroke-width:4" />
<path d="M140.46,96.434A5,5 0 1 1 130.46,96.434A5,5 0 1 1 140.46,96.434Z" style="fill:#FF0000" />
<path d="M335.41,164.72A5,5 0 1 1 325.41,164.72A5,5 0 1 1 335.41,164.72Z" style="fill:#FF0000" />
<path d="M530.36,232A5,5 0 1 1 520.36,232A5,5 0 1 1 530.36,232Z" style="fill:#FF0000" />
<path d="M725.31,330.26A5,5 0 1 1 715.31,330.26A5,5 0 1 1 725.31,330.26Z" style="fill:#FF0000" />
<path d="M920.26,457.21A5,5 0 1 1 910.26,457.21A5,5 0 1 1 920.26,457.21Z" style="fill:#FF0000" />
<path d="M1115.2,515.33A5,5 0 1 1 1105.2,515.33A5,5 0 1 1 1115.2,515.33Z" style="fill:#FF0000" />
<path d="M1310.2,529.26A5,5 0 1 1 1300.2,529.26A5,5 0 1 1 1310.2,529.26Z" style="fill:#FF0000" />
<path d="M1505.1,619.66A5,5 0 1 1 1495.1,619.66A5,5 0 1 1 1505.1,619.66Z" style="fill:#FF0000" />
<path d="M1700.1,727.62A5,5 0 1 1 1690.1,727.62A5,5 0 1 1 1700.1,727.62Z" style="fill:#FF0000" />
<path d="M1895,832.26A5,5 0 1 1 1885,832.26A5,5 0 1 1 1895,832.26Z" style="fill:#FF0000" />
<path d="M135.46,100.85L330.41,206.56L525.36,275.97L720.31,365.69L915.26,454.38L1110.2,572.55L1305.2,639.21L1500.1,802.97L1695.1,849.91L1890,933.38" style="fill:none;stroke:#0000FF;stroke-width:4" />
<path d="M140.46,100.85A5,5 0 1 1 130.46,100.85A5,5 0 1 1 140.46,100.85Z" style="fill:#0000FF" />
<path d="M335.41,206.56A5,5 0 1 1 325.41,206.56A5,5 0 1 1 335.41,206.56Z" style="fill:#0000FF" />
<path d="M530.36,275.97A5,5 0 1 1 520.36,275.97A5,5 0 1 1 530.36,275.97Z" style="fill:#0000FF" />
<path d="M725.31,365.69A5,5 0 1 1 715.31,365.69A5,5 0 1 1 725.31,365.69Z" style="fill:#0000FF" />
<path d="M920.26,454.38A5,5 0 1 1 910.26,454.38A5,5 0 1 1 920.26,454.38Z" style="fill:#0000FF" />
<path d="M1115.2,572.55A5,5 0 1 1 1105.2,572.55A5,5 0 1 1 1115.2,572.55Z" style="fill:#0000FF" />
<path d="M1310.2,639.21A5,5 0 1 1 1300.2,639.21A5,5 0 1 1 1310.2,639.21Z" style="fill:#0000FF" />
<path d="M1505.1,802.97A5,5 0 1 1 1495.1,802.97A5,5 0 1 1 1505.1,802.97Z" style="fill:#0000FF" />
<path d="M1700.1,849.91A5,5 0 1 1 1690.1,849.91A5,5 0 1 1 1700.1,849.91Z" style="fill:#0000FF" />
<path d="M1895,933.38A5,5 0 1 1 1885,933.38A5,5 0 1 1 1895,933.38Z" style="fill:#0000FF" />
<path d="M135.46,80.11L330.41,150.69L525.36,248.41L720.31,278.45L915.26,410.84L1110.2,451.57L1305.2,568.73L1500.1,688.64L1695.1,718.24L1890,799.12" style="fill:none;stroke:#00FF00;stroke-width:4" />
<path d="M140.46,80.11A5,5 0 1 1 130.46,80.11A5,5 0 1 1 140.46,80.11Z" style="fill:#00FF00" />
<path d="M335.41,150.69A5,5 0 1 1 325.41,150.69A5,5 0 1 1 335.41,150.69Z" style="fill:#00FF00" />
<path d="M530.36,248.41A5,5 0 1 1 520.36,248.41A5,5 0 1 1 530.36,248.41Z" style="fill:#00FF00" />
<path d="M725.31,278.45A5,5 0 1 1 715.31,278.45A5,5 0 1 1 725.31,278.45Z" style="fill:#00FF00" />
<path d="M920.26,410.84A5,5 0 1 1 910.26,410.84A5,5 0 1 1 920.26,410.84Z" style="fill:#00FF00" />
<path d="M1115.2,451.57A5,5 0 1 1 1105.2,451.57A5,5 0 1 1 1115.2,451.57Z" style="fill:#00FF00" />
<path d="M1310.2,568.73A5,5 0 1 1 1300.2,568.73A5,5 0 1 1 1310.2,568.73Z" style="fill:#00FF00" />
<path d="M1505.1,688.64A5,5 0 1 1 1495.1,688.64A5,5 0 1 1 1505.1,688.64Z" style="fill:#00FF00" />
<path d="M1700.1,718.24A5,5 0 1 1 1690.1,718.24A5,5 0 1 1 1700.1,718.24Z" style="fill:#00FF00" />
<path d="M1895,799.12A5,5 0 1 1 1885,799.12A5,5 0 1 1 1895,799.12Z" style="fill:#00FF00" />
<path d="M1900,126.03L1920,126.03" style="fill:none;stroke:#FF0000;stroke-width:4" />
<path d="M1915,126.03A5,5 0 1 1 1905,126.03A5,5 0 1 1 1915,126.03Z" style="fill:#FF0000" />
<text x="1823.3" y="-121.05" transform="scale(1, -1)"
	style="font-family:Liberation Serif;font-variant:normal;font-weight:normal;font-style:normal;font-size:24px">std::list</text>
<path d="M1900,105.66L1920,105.66" style="fill:none;stroke:#0000FF;stroke-width:4" />
<path d="M1915,105.66A5,5 0 1 1 1905,105.66A5,5 0 1 1 1915,105.66Z" style="fill:#0000FF" />
<text x="1795.4" y="-100.69" transform="scale(1, -1)"
	style="font-family:Liberation Serif;font-variant:normal;font-weight:normal;font-style:normal;font-size:24px">std::deque</text>
<path d="M1900,85.294L1920,85.294" style="fill:none;stroke:#00FF00;stroke-width:4" />
<path d="M1915,85.294A5,5 0 1 1 1905,85.294A5,5 0 1 1 1915,85.294Z" style="fill:#00FF00" />
<text x="1792.7" y="-80.319" transform="scale(1, -1)"
	style="font-family:Liberation Serif;font-variant:normal;font-weight:normal;font-style:normal;font-size:24px">std::vector</text>
</g>
</svg>
