<?xml version="1.0"?>
<!-- Generated by SVGo and Plotinum VG -->
<svg width="1920pt" height="1080pt" viewBox="0 0 1920 1080"
	xmlns="http://www.w3.org/2000/svg"
	xmlns:xlink="http://www.w3.org/1999/xlink">
<g transform="scale(1, -1) translate(0, -1080)">
<path d="M0,0L1920,0L1920,1080L0,1080Z" style="fill:#FFFFFF" />
<text x="823.96" y="-1040.9" transform="scale(1, -1)"
	style="font-family:Liberation Serif;font-variant:normal;font-weight:normal;font-style:normal;font-size:50px">random-erase</text>
<text x="890.27" y="-9.7559" transform="scale(1, -1)"
	style="font-family:Liberation Serif;font-variant:normal;font-weight:normal;font-style:normal;font-size:30px">Number of elements</text>
<text x="110.46" y="-39.727" transform="scale(1, -1)"
	style="font-family:Liberation Serif;font-variant:normal;font-weight:normal;font-style:normal;font-size:20px">10000</text>
<text x="305.41" y="-39.727" transform="scale(1, -1)"
	style="font-family:Liberation Serif;font-variant:normal;font-weight:normal;font-style:normal;font-size:20px">20000</text>
<text x="500.36" y="-39.727" transform="scale(1, -1)"
	style="font-family:Liberation Serif;font-variant:normal;font-weight:normal;font-style:normal;font-size:20px">30000</text>
<text x="695.31" y="-39.727" transform="scale(1, -1)"
	style="font-family:Liberation Serif;font-variant:normal;font-weight:normal;font-style:normal;font-size:20px">40000</text>
<text x="890.26" y="-39.727" transform="scale(1, -1)"
	style="font-family:Liberation Serif;font-variant:normal;font-weight:normal;font-style:normal;font-size:20px">50000</text>
<text x="1085.2" y="-39.727" transform="scale(1, -1)"
	style="font-family:Liberation Serif;font-variant:normal;font-weight:normal;font-style:normal;font-size:20px">60000</text>
<text x="1280.2" y="-39.727" transform="scale(1, -1)"
	style="font-family:Liberation Serif;font-variant:normal;font-weight:normal;font-style:normal;font-size:20px">70000</text>
<text x="1475.1" y="-39.727" transform="scale(1, -1)"
	style="font-family:Liberation Serif;font-variant:normal;font-weight:normal;font-style:normal;font-size:20px">80000</text>
<text x="1670.1" y="-39.727" transform="scale(1, -1)"
	style="font-family:Liberation Serif;font-variant:normal;font-weight:normal;font-style:normal;font-size:20px">90000</text>
<text x="1860" y="-39.727" transform="scale(1, -1)"
	style="font-family:Liberation Serif;font-variant:normal;font-weight:normal;font-style:normal;font-size:20px">100000</text>
<path d="M135.46,55.371L135.46,63.371" style="fill:none;stroke:#000000;stroke-width:0.5" />
<path d="M330.41,55.371L330.41,63.371" style="fill:none;stroke:#000000;stroke-width:0.5" />
<path d="M525.36,55.371L525.36,63.371" style="fill:none;stroke:#000000;stroke-width:0.5" />
<path d="M720.31,55.371L720.31,63.371" style="fill:none;stroke:#000000;stroke-width:0.5" />
<path d="M915.26,55.371L915.26,63.371" style="fill:none;stroke:#000000;stroke-width:0.5" />
<path d="M1110.2,55.371L1110.2,63.371" style="fill:none;stroke:#000000;stroke-width:0.5" />
<path d="M1305.2,55.371L1305.2,63.371" style="fill:none;stroke:#000000;stroke-width:0.5" />
<path d="M1500.1,55.371L1500.1,63.371" style="fill:none;stroke:#000000;stroke-width:0.5" />
<path d="M1695.1,55.371L1695.1,63.371" style="fill:none;stroke:#000000;stroke-width:0.5" />
<path d="M1890,55.371L1890,63.371" style="fill:none;stroke:#000000;stroke-width:0.5" />
<path d="M135.46,63.371L1890,63.371" style="fill:none;stroke:#000000;stroke-width:0.5" />
<g transform="rotate(90)">
<text x="538.49" y="23.467" transform="scale(1, -1)"
	style="font-family:Liberation Serif;font-variant:normal;font-weight:normal;font-style:normal;font-size:30px">μs</text>
</g>
<text x="49.712" y="-199.75" transform="scale(1, -1)"
	style="font-family:Liberation Serif;font-variant:normal;font-weight:normal;font-style:normal;font-size:20px">300000</text>
<text x="49.712" y="-573.25" transform="scale(1, -1)"
	style="font-family:Liberation Serif;font-variant:normal;font-weight:normal;font-style:normal;font-size:20px">900000</text>
<text x="39.712" y="-946.76" transform="scale(1, -1)"
	style="font-family:Liberation Serif;font-variant:normal;font-weight:normal;font-style:normal;font-size:20px">1500000</text>
<path d="M114.71,204.32L122.71,204.32" style="fill:none;stroke:#000000;stroke-width:0.5" />
<path d="M114.71,577.82L122.71,577.82" style="fill:none;stroke:#000000;stroke-width:0.5" />
<path d="M114.71,951.33L122.71,951.33" style="fill:none;stroke:#000000;stroke-width:0.5" />
<path d="M118.71,391.07L122.71,391.07" style="fill:none;stroke:#000000;stroke-width:0.5" />
<path d="M118.71,764.58L122.71,764.58" style="fill:none;stroke:#000000;stroke-width:0.5" />
<path d="M122.71,80.11L122.71,1024.6" style="fill:none;stroke:#000000;stroke-width:0.5" />
<path d="M135.46,80.11L135.46,1024.6" style="fill:none;stroke:#808080;stroke-width:0.25" />
<path d="M330.41,80.11L330.41,1024.6" style="fill:none;stroke:#808080;stroke-width:0.25" />
<path d="M525.36,80.11L525.36,1024.6" style="fill:none;stroke:#808080;stroke-width:0.25" />
<path d="M720.31,80.11L720.31,1024.6" style="fill:none;stroke:#808080;stroke-width:0.25" />
<path d="M915.26,80.11L915.26,1024.6" style="fill:none;stroke:#808080;stroke-width:0.25" />
<path d="M1110.2,80.11L1110.2,1024.6" style="fill:none;stroke:#808080;stroke-width:0.25" />
<path d="M1305.2,80.11L1305.2,1024.6" style="fill:none;stroke:#808080;stroke-width:0.25" />
<path d="M1500.1,80.11L1500.1,1024.6" style="fill:none;stroke:#808080;stroke-width:0.25" />
<path d="M1695.1,80.11L1695.1,1024.6" style="fill:none;stroke:#808080;stroke-width:0.25" />
<path d="M1890,80.11L1890,1024.6" style="fill:none;stroke:#808080;stroke-width:0.25" />
<path d="M135.46,204.32L1890,204.32" style="fill:none;stroke:#808080;stroke-width:0.25" />
<path d="M135.46,577.82L1890,577.82" style="fill:none;stroke:#808080;stroke-width:0.25" />
<path d="M135.46,951.33L1890,951.33" style="fill:none;stroke:#808080;stroke-width:0.25" />
<path d="M135.46,93.908L330.41,176.87L525.36,255.2L720.31,341.19L915.26,418.34L1110.2,509.77L1305.2,582.21L1500.1,676.65L1695.1,760.34L1890,861.26" style="fill:none;stroke:#FF0000;stroke-width:4" />
<path d="M140.46,93.908A5,5 0 1 1 130.46,93.908A5,5 0 1 1 140.46,93.908Z" style="fill:#FF0000" />
<path d="M335.41,176.87A5,5 0 1 1 325.41,176.87A5,5 0 1 1 335.41,176.87Z" style="fill:#FF0000" />
<path d="M530.36,255.2A5,5 0 1 1 520.36,255.2A5,5 0 1 1 530.36,255.2Z" style="fill:#FF0000" />
<path d="M725.31,341.19A5,5 0 1 1 715.31,341.19A5,5 0 1 1 725.31,341.19Z" style="fill:#FF0000" />
<path d="M920.26,418.34A5,5 0 1 1 910.26,418.34A5,5 0 1 1 920.26,418.34Z" style="fill:#FF0000" />
<path d="M1115.2,509.77A5,5 0 1 1 1105.2,509.77A5,5 0 1 1 1115.2,509.77Z" style="fill:#FF0000" />
<path d="M1310.2,582.21A5,5 0 1 1 1300.2,582.21A5,5 0 1 1 1310.2,582.21Z" style="fill:#FF0000" />
<path d="M1505.1,676.65A5,5 0 1 1 1495.1,676.65A5,5 0 1 1 1505.1,676.65Z" style="fill:#FF0000" />
<path d="M1700.1,760.34A5,5 0 1 1 1690.1,760.34A5,5 0 1 1 1700.1,760.34Z" style="fill:#FF0000" />
<path d="M1895,861.26A5,5 0 1 1 1885,861.26A5,5 0 1 1 1895,861.26Z" style="fill:#FF0000" />
<path d="M135.46,80.11L330.41,155.14L525.36,222.52L720.31,306.01L915.26,378.5L1110.2,436.27L1305.2,527.61L1500.1,582.36L1695.1,671.37L1890,740.57" style="fill:none;stroke:#0000FF;stroke-width:4" />
<path d="M140.46,80.11A5,5 0 1 1 130.46,80.11A5,5 0 1 1 140.46,80.11Z" style="fill:#0000FF" />
<path d="M335.41,155.14A5,5 0 1 1 325.41,155.14A5,5 0 1 1 335.41,155.14Z" style="fill:#0000FF" />
<path d="M530.36,222.52A5,5 0 1 1 520.36,222.52A5,5 0 1 1 530.36,222.52Z" style="fill:#0000FF" />
<path d="M725.31,306.01A5,5 0 1 1 715.31,306.01A5,5 0 1 1 725.31,306.01Z" style="fill:#0000FF" />
<path d="M920.26,378.5A5,5 0 1 1 910.26,378.5A5,5 0 1 1 920.26,378.5Z" style="fill:#0000FF" />
<path d="M1115.2,436.27A5,5 0 1 1 1105.2,436.27A5,5 0 1 1 1115.2,436.27Z" style="fill:#0000FF" />
<path d="M1310.2,527.61A5,5 0 1 1 1300.2,527.61A5,5 0 1 1 1310.2,527.61Z" style="fill:#0000FF" />
<path d="M1505.1,582.36A5,5 0 1 1 1495.1,582.36A5,5 0 1 1 1505.1,582.36Z" style="fill:#0000FF" />
<path d="M1700.1,671.37A5,5 0 1 1 1690.1,671.37A5,5 0 1 1 1700.1,671.37Z" style="fill:#0000FF" />
<path d="M1895,740.57A5,5 0 1 1 1885,740.57A5,5 0 1 1 1895,740.57Z" style="fill:#0000FF" />
<path d="M135.46,90.288L330.41,177.07L525.36,254.83L720.31,345.41L915.26,431.73L1110.2,517.6L1305.2,607.59L1500.1,712.76L1695.1,821.62L1890,933.08" style="fill:none;stroke:#00FF00;stroke-width:4" />
<path d="M140.46,90.288A5,5 0 1 1 130.46,90.288A5,5 0 1 1 140.46,90.288Z" style="fill:#00FF00" />
<path d="M335.41,177.07A5,5 0 1 1 325.41,177.07A5,5 0 1 1 335.41,177.07Z" style="fill:#00FF00" />
<path d="M530.36,254.83A5,5 0 1 1 520.36,254.83A5,5 0 1 1 530.36,254.83Z" style="fill:#00FF00" />
<path d="M725.31,345.41A5,5 0 1 1 715.31,345.41A5,5 0 1 1 725.31,345.41Z" style="fill:#00FF00" />
<path d="M920.26,431.73A5,5 0 1 1 910.26,431.73A5,5 0 1 1 920.26,431.73Z" style="fill:#00FF00" />
<path d="M1115.2,517.6A5,5 0 1 1 1105.2,517.6A5,5 0 1 1 1115.2,517.6Z" style="fill:#00FF00" />
<path d="M1310.2,607.59A5,5 0 1 1 1300.2,607.59A5,5 0 1 1 1310.2,607.59Z" style="fill:#00FF00" />
<path d="M1505.1,712.76A5,5 0 1 1 1495.1,712.76A5,5 0 1 1 1505.1,712.76Z" style="fill:#00FF00" />
<path d="M1700.1,821.62A5,5 0 1 1 1690.1,821.62A5,5 0 1 1 1700.1,821.62Z" style="fill:#00FF00" />
<path d="M1895,933.08A5,5 0 1 1 1885,933.08A5,5 0 1 1 1895,933.08Z" style="fill:#00FF00" />
<path d="M1900,126.03L1920,126.03" style="fill:none;stroke:#FF0000;stroke-width:4" />
<path d="M1915,126.03A5,5 0 1 1 1905,126.03A5,5 0 1 1 1915,126.03Z" style="fill:#FF0000" />
<text x="1795.4" y="-121.05" transform="scale(1, -1)"
	style="font-family:Liberation Serif;font-variant:normal;font-weight:normal;font-style:normal;font-size:24px">std::deque</text>
<path d="M1900,105.66L1920,105.66" style="fill:none;stroke:#0000FF;stroke-width:4" />
<path d="M1915,105.66A5,5 0 1 1 1905,105.66A5,5 0 1 1 1915,105.66Z" style="fill:#0000FF" />
<text x="1792.7" y="-100.69" transform="scale(1, -1)"
	style="font-family:Liberation Serif;font-variant:normal;font-weight:normal;font-style:normal;font-size:24px">std::vector</text>
<path d="M1900,85.294L1920,85.294" style="fill:none;stroke:#00FF00;stroke-width:4" />
<path d="M1915,85.294A5,5 0 1 1 1905,85.294A5,5 0 1 1 1915,85.294Z" style="fill:#00FF00" />
<text x="1823.3" y="-80.319" transform="scale(1, -1)"
	style="font-family:Liberation Serif;font-variant:normal;font-weight:normal;font-style:normal;font-size:24px">std::list</text>
</g>
</svg>
