<?xml version="1.0"?>
<!-- Generated by SVGo and Plotinum VG -->
<svg width="1920pt" height="1080pt" viewBox="0 0 1920 1080"
	xmlns="http://www.w3.org/2000/svg"
	xmlns:xlink="http://www.w3.org/1999/xlink">
<g transform="scale(1, -1) translate(0, -1080)">
<path d="M0,0L1920,0L1920,1080L0,1080Z" style="fill:#FFFFFF" />
<text x="823.96" y="-1040.9" transform="scale(1, -1)"
	style="font-family:Liberation Serif;font-variant:normal;font-weight:normal;font-style:normal;font-size:50px">random-erase</text>
<text x="880.35" y="-9.7559" transform="scale(1, -1)"
	style="font-family:Liberation Serif;font-variant:normal;font-weight:normal;font-style:normal;font-size:30px">Number of elements</text>
<text x="90.618" y="-39.727" transform="scale(1, -1)"
	style="font-family:Liberation Serif;font-variant:normal;font-weight:normal;font-style:normal;font-size:20px">10000</text>
<text x="287.77" y="-39.727" transform="scale(1, -1)"
	style="font-family:Liberation Serif;font-variant:normal;font-weight:normal;font-style:normal;font-size:20px">20000</text>
<text x="484.93" y="-39.727" transform="scale(1, -1)"
	style="font-family:Liberation Serif;font-variant:normal;font-weight:normal;font-style:normal;font-size:20px">30000</text>
<text x="682.08" y="-39.727" transform="scale(1, -1)"
	style="font-family:Liberation Serif;font-variant:normal;font-weight:normal;font-style:normal;font-size:20px">40000</text>
<text x="879.23" y="-39.727" transform="scale(1, -1)"
	style="font-family:Liberation Serif;font-variant:normal;font-weight:normal;font-style:normal;font-size:20px">50000</text>
<text x="1076.4" y="-39.727" transform="scale(1, -1)"
	style="font-family:Liberation Serif;font-variant:normal;font-weight:normal;font-style:normal;font-size:20px">60000</text>
<text x="1273.5" y="-39.727" transform="scale(1, -1)"
	style="font-family:Liberation Serif;font-variant:normal;font-weight:normal;font-style:normal;font-size:20px">70000</text>
<text x="1470.7" y="-39.727" transform="scale(1, -1)"
	style="font-family:Liberation Serif;font-variant:normal;font-weight:normal;font-style:normal;font-size:20px">80000</text>
<text x="1667.8" y="-39.727" transform="scale(1, -1)"
	style="font-family:Liberation Serif;font-variant:normal;font-weight:normal;font-style:normal;font-size:20px">90000</text>
<text x="1860" y="-39.727" transform="scale(1, -1)"
	style="font-family:Liberation Serif;font-variant:normal;font-weight:normal;font-style:normal;font-size:20px">100000</text>
<path d="M115.62,55.371L115.62,63.371" style="fill:none;stroke:#000000;stroke-width:0.5" />
<path d="M312.77,55.371L312.77,63.371" style="fill:none;stroke:#000000;stroke-width:0.5" />
<path d="M509.93,55.371L509.93,63.371" style="fill:none;stroke:#000000;stroke-width:0.5" />
<path d="M707.08,55.371L707.08,63.371" style="fill:none;stroke:#000000;stroke-width:0.5" />
<path d="M904.23,55.371L904.23,63.371" style="fill:none;stroke:#000000;stroke-width:0.5" />
<path d="M1101.4,55.371L1101.4,63.371" style="fill:none;stroke:#000000;stroke-width:0.5" />
<path d="M1298.5,55.371L1298.5,63.371" style="fill:none;stroke:#000000;stroke-width:0.5" />
<path d="M1495.7,55.371L1495.7,63.371" style="fill:none;stroke:#000000;stroke-width:0.5" />
<path d="M1692.8,55.371L1692.8,63.371" style="fill:none;stroke:#000000;stroke-width:0.5" />
<path d="M1890,55.371L1890,63.371" style="fill:none;stroke:#000000;stroke-width:0.5" />
<path d="M115.62,63.371L1890,63.371" style="fill:none;stroke:#000000;stroke-width:0.5" />
<g transform="rotate(90)">
<text x="538.49" y="23.467" transform="scale(1, -1)"
	style="font-family:Liberation Serif;font-variant:normal;font-weight:normal;font-style:normal;font-size:30px">μs</text>
</g>
<text x="39.712" y="-332.52" transform="scale(1, -1)"
	style="font-family:Liberation Serif;font-variant:normal;font-weight:normal;font-style:normal;font-size:20px">1e+07</text>
<text x="39.712" y="-624.15" transform="scale(1, -1)"
	style="font-family:Liberation Serif;font-variant:normal;font-weight:normal;font-style:normal;font-size:20px">2e+07</text>
<text x="39.712" y="-915.78" transform="scale(1, -1)"
	style="font-family:Liberation Serif;font-variant:normal;font-weight:normal;font-style:normal;font-size:20px">3e+07</text>
<path d="M94.868,337.09L102.87,337.09" style="fill:none;stroke:#000000;stroke-width:0.5" />
<path d="M94.868,628.72L102.87,628.72" style="fill:none;stroke:#000000;stroke-width:0.5" />
<path d="M94.868,920.35L102.87,920.35" style="fill:none;stroke:#000000;stroke-width:0.5" />
<path d="M98.868,103.78L102.87,103.78" style="fill:none;stroke:#000000;stroke-width:0.5" />
<path d="M98.868,162.11L102.87,162.11" style="fill:none;stroke:#000000;stroke-width:0.5" />
<path d="M98.868,220.43L102.87,220.43" style="fill:none;stroke:#000000;stroke-width:0.5" />
<path d="M98.868,278.76L102.87,278.76" style="fill:none;stroke:#000000;stroke-width:0.5" />
<path d="M98.868,395.41L102.87,395.41" style="fill:none;stroke:#000000;stroke-width:0.5" />
<path d="M98.868,453.74L102.87,453.74" style="fill:none;stroke:#000000;stroke-width:0.5" />
<path d="M98.868,512.07L102.87,512.07" style="fill:none;stroke:#000000;stroke-width:0.5" />
<path d="M98.868,570.39L102.87,570.39" style="fill:none;stroke:#000000;stroke-width:0.5" />
<path d="M98.868,687.05L102.87,687.05" style="fill:none;stroke:#000000;stroke-width:0.5" />
<path d="M98.868,745.37L102.87,745.37" style="fill:none;stroke:#000000;stroke-width:0.5" />
<path d="M98.868,803.7L102.87,803.7" style="fill:none;stroke:#000000;stroke-width:0.5" />
<path d="M98.868,862.03L102.87,862.03" style="fill:none;stroke:#000000;stroke-width:0.5" />
<path d="M98.868,978.68L102.87,978.68" style="fill:none;stroke:#000000;stroke-width:0.5" />
<path d="M102.87,80.11L102.87,1024.6" style="fill:none;stroke:#000000;stroke-width:0.5" />
<path d="M115.62,80.11L115.62,1024.6" style="fill:none;stroke:#808080;stroke-width:0.25" />
<path d="M312.77,80.11L312.77,1024.6" style="fill:none;stroke:#808080;stroke-width:0.25" />
<path d="M509.93,80.11L509.93,1024.6" style="fill:none;stroke:#808080;stroke-width:0.25" />
<path d="M707.08,80.11L707.08,1024.6" style="fill:none;stroke:#808080;stroke-width:0.25" />
<path d="M904.23,80.11L904.23,1024.6" style="fill:none;stroke:#808080;stroke-width:0.25" />
<path d="M1101.4,80.11L1101.4,1024.6" style="fill:none;stroke:#808080;stroke-width:0.25" />
<path d="M1298.5,80.11L1298.5,1024.6" style="fill:none;stroke:#808080;stroke-width:0.25" />
<path d="M1495.7,80.11L1495.7,1024.6" style="fill:none;stroke:#808080;stroke-width:0.25" />
<path d="M1692.8,80.11L1692.8,1024.6" style="fill:none;stroke:#808080;stroke-width:0.25" />
<path d="M1890,80.11L1890,1024.6" style="fill:none;stroke:#808080;stroke-width:0.25" />
<path d="M115.62,337.09L1890,337.09" style="fill:none;stroke:#808080;stroke-width:0.25" />
<path d="M115.62,628.72L1890,628.72" style="fill:none;stroke:#808080;stroke-width:0.25" />
<path d="M115.62,920.35L1890,920.35" style="fill:none;stroke:#808080;stroke-width:0.25" />
<path d="M115.62,104.04L312.77,170.58L509.93,243.58L707.08,330.18L904.23,386.75L1101.4,482.92L1298.5,570.54L1495.7,647.51L1692.8,719.35L1890,791.97" style="fill:none;stroke:#FF0000;stroke-width:4" />
<path d="M120.62,104.04A5,5 0 1 1 110.62,104.04A5,5 0 1 1 120.62,104.04Z" style="fill:#FF0000" />
<path d="M317.77,170.58A5,5 0 1 1 307.77,170.58A5,5 0 1 1 317.77,170.58Z" style="fill:#FF0000" />
<path d="M514.93,243.58A5,5 0 1 1 504.93,243.58A5,5 0 1 1 514.93,243.58Z" style="fill:#FF0000" />
<path d="M712.08,330.18A5,5 0 1 1 702.08,330.18A5,5 0 1 1 712.08,330.18Z" style="fill:#FF0000" />
<path d="M909.23,386.75A5,5 0 1 1 899.23,386.75A5,5 0 1 1 909.23,386.75Z" style="fill:#FF0000" />
<path d="M1106.4,482.92A5,5 0 1 1 1096.4,482.92A5,5 0 1 1 1106.4,482.92Z" style="fill:#FF0000" />
<path d="M1303.5,570.54A5,5 0 1 1 1293.5,570.54A5,5 0 1 1 1303.5,570.54Z" style="fill:#FF0000" />
<path d="M1500.7,647.51A5,5 0 1 1 1490.7,647.51A5,5 0 1 1 1500.7,647.51Z" style="fill:#FF0000" />
<path d="M1697.8,719.35A5,5 0 1 1 1687.8,719.35A5,5 0 1 1 1697.8,719.35Z" style="fill:#FF0000" />
<path d="M1895,791.97A5,5 0 1 1 1885,791.97A5,5 0 1 1 1895,791.97Z" style="fill:#FF0000" />
<path d="M115.62,117.06L312.77,218.5L509.93,300.84L707.08,402.52L904.23,494.74L1101.4,584.83L1298.5,692.92L1495.7,784.05L1692.8,812.83L1890,935.61" style="fill:none;stroke:#0000FF;stroke-width:4" />
<path d="M120.62,117.06A5,5 0 1 1 110.62,117.06A5,5 0 1 1 120.62,117.06Z" style="fill:#0000FF" />
<path d="M317.77,218.5A5,5 0 1 1 307.77,218.5A5,5 0 1 1 317.77,218.5Z" style="fill:#0000FF" />
<path d="M514.93,300.84A5,5 0 1 1 504.93,300.84A5,5 0 1 1 514.93,300.84Z" style="fill:#0000FF" />
<path d="M712.08,402.52A5,5 0 1 1 702.08,402.52A5,5 0 1 1 712.08,402.52Z" style="fill:#0000FF" />
<path d="M909.23,494.74A5,5 0 1 1 899.23,494.74A5,5 0 1 1 909.23,494.74Z" style="fill:#0000FF" />
<path d="M1106.4,584.83A5,5 0 1 1 1096.4,584.83A5,5 0 1 1 1106.4,584.83Z" style="fill:#0000FF" />
<path d="M1303.5,692.92A5,5 0 1 1 1293.5,692.92A5,5 0 1 1 1303.5,692.92Z" style="fill:#0000FF" />
<path d="M1500.7,784.05A5,5 0 1 1 1490.7,784.05A5,5 0 1 1 1500.7,784.05Z" style="fill:#0000FF" />
<path d="M1697.8,812.83A5,5 0 1 1 1687.8,812.83A5,5 0 1 1 1697.8,812.83Z" style="fill:#0000FF" />
<path d="M1895,935.61A5,5 0 1 1 1885,935.61A5,5 0 1 1 1895,935.61Z" style="fill:#0000FF" />
<path d="M115.62,80.11L312.77,123.2L509.93,166.04L707.08,214.33L904.23,255.4L1101.4,297.17L1298.5,353.77L1495.7,400.77L1692.8,444.83L1890,498.88" style="fill:none;stroke:#00FF00;stroke-width:4" />
<path d="M120.62,80.11A5,5 0 1 1 110.62,80.11A5,5 0 1 1 120.62,80.11Z" style="fill:#00FF00" />
<path d="M317.77,123.2A5,5 0 1 1 307.77,123.2A5,5 0 1 1 317.77,123.2Z" style="fill:#00FF00" />
<path d="M514.93,166.04A5,5 0 1 1 504.93,166.04A5,5 0 1 1 514.93,166.04Z" style="fill:#00FF00" />
<path d="M712.08,214.33A5,5 0 1 1 702.08,214.33A5,5 0 1 1 712.08,214.33Z" style="fill:#00FF00" />
<path d="M909.23,255.4A5,5 0 1 1 899.23,255.4A5,5 0 1 1 909.23,255.4Z" style="fill:#00FF00" />
<path d="M1106.4,297.17A5,5 0 1 1 1096.4,297.17A5,5 0 1 1 1106.4,297.17Z" style="fill:#00FF00" />
<path d="M1303.5,353.77A5,5 0 1 1 1293.5,353.77A5,5 0 1 1 1303.5,353.77Z" style="fill:#00FF00" />
<path d="M1500.7,400.77A5,5 0 1 1 1490.7,400.77A5,5 0 1 1 1500.7,400.77Z" style="fill:#00FF00" />
<path d="M1697.8,444.83A5,5 0 1 1 1687.8,444.83A5,5 0 1 1 1697.8,444.83Z" style="fill:#00FF00" />
<path d="M1895,498.88A5,5 0 1 1 1885,498.88A5,5 0 1 1 1895,498.88Z" style="fill:#00FF00" />
<path d="M1900,126.03L1920,126.03" style="fill:none;stroke:#FF0000;stroke-width:4" />
<path d="M1915,126.03A5,5 0 1 1 1905,126.03A5,5 0 1 1 1915,126.03Z" style="fill:#FF0000" />
<text x="1795.4" y="-121.05" transform="scale(1, -1)"
	style="font-family:Liberation Serif;font-variant:normal;font-weight:normal;font-style:normal;font-size:24px">std::deque</text>
<path d="M1900,105.66L1920,105.66" style="fill:none;stroke:#0000FF;stroke-width:4" />
<path d="M1915,105.66A5,5 0 1 1 1905,105.66A5,5 0 1 1 1915,105.66Z" style="fill:#0000FF" />
<text x="1792.7" y="-100.69" transform="scale(1, -1)"
	style="font-family:Liberation Serif;font-variant:normal;font-weight:normal;font-style:normal;font-size:24px">std::vector</text>
<path d="M1900,85.294L1920,85.294" style="fill:none;stroke:#00FF00;stroke-width:4" />
<path d="M1915,85.294A5,5 0 1 1 1905,85.294A5,5 0 1 1 1915,85.294Z" style="fill:#00FF00" />
<text x="1823.3" y="-80.319" transform="scale(1, -1)"
	style="font-family:Liberation Serif;font-variant:normal;font-weight:normal;font-style:normal;font-size:24px">std::list</text>
</g>
</svg>
