<?xml version="1.0"?>
<!-- Generated by SVGo and Plotinum VG -->
<svg width="1920pt" height="1080pt" viewBox="0 0 1920 1080"
	xmlns="http://www.w3.org/2000/svg"
	xmlns:xlink="http://www.w3.org/1999/xlink">
<g transform="scale(1, -1) translate(0, -1080)">
<path d="M0,0L1920,0L1920,1080L0,1080Z" style="fill:#FFFFFF" />
<text x="823.96" y="-1040.9" transform="scale(1, -1)"
	style="font-family:Liberation Serif;font-variant:normal;font-weight:normal;font-style:normal;font-size:50px">random-erase</text>
<text x="895.27" y="-9.7559" transform="scale(1, -1)"
	style="font-family:Liberation Serif;font-variant:normal;font-weight:normal;font-style:normal;font-size:30px">Number of elements</text>
<text x="120.46" y="-39.727" transform="scale(1, -1)"
	style="font-family:Liberation Serif;font-variant:normal;font-weight:normal;font-style:normal;font-size:20px">10000</text>
<text x="314.3" y="-39.727" transform="scale(1, -1)"
	style="font-family:Liberation Serif;font-variant:normal;font-weight:normal;font-style:normal;font-size:20px">20000</text>
<text x="508.14" y="-39.727" transform="scale(1, -1)"
	style="font-family:Liberation Serif;font-variant:normal;font-weight:normal;font-style:normal;font-size:20px">30000</text>
<text x="701.97" y="-39.727" transform="scale(1, -1)"
	style="font-family:Liberation Serif;font-variant:normal;font-weight:normal;font-style:normal;font-size:20px">40000</text>
<text x="895.81" y="-39.727" transform="scale(1, -1)"
	style="font-family:Liberation Serif;font-variant:normal;font-weight:normal;font-style:normal;font-size:20px">50000</text>
<text x="1089.6" y="-39.727" transform="scale(1, -1)"
	style="font-family:Liberation Serif;font-variant:normal;font-weight:normal;font-style:normal;font-size:20px">60000</text>
<text x="1283.5" y="-39.727" transform="scale(1, -1)"
	style="font-family:Liberation Serif;font-variant:normal;font-weight:normal;font-style:normal;font-size:20px">70000</text>
<text x="1477.3" y="-39.727" transform="scale(1, -1)"
	style="font-family:Liberation Serif;font-variant:normal;font-weight:normal;font-style:normal;font-size:20px">80000</text>
<text x="1671.2" y="-39.727" transform="scale(1, -1)"
	style="font-family:Liberation Serif;font-variant:normal;font-weight:normal;font-style:normal;font-size:20px">90000</text>
<text x="1860" y="-39.727" transform="scale(1, -1)"
	style="font-family:Liberation Serif;font-variant:normal;font-weight:normal;font-style:normal;font-size:20px">100000</text>
<path d="M145.46,55.371L145.46,63.371" style="fill:none;stroke:#000000;stroke-width:0.5" />
<path d="M339.3,55.371L339.3,63.371" style="fill:none;stroke:#000000;stroke-width:0.5" />
<path d="M533.14,55.371L533.14,63.371" style="fill:none;stroke:#000000;stroke-width:0.5" />
<path d="M726.97,55.371L726.97,63.371" style="fill:none;stroke:#000000;stroke-width:0.5" />
<path d="M920.81,55.371L920.81,63.371" style="fill:none;stroke:#000000;stroke-width:0.5" />
<path d="M1114.6,55.371L1114.6,63.371" style="fill:none;stroke:#000000;stroke-width:0.5" />
<path d="M1308.5,55.371L1308.5,63.371" style="fill:none;stroke:#000000;stroke-width:0.5" />
<path d="M1502.3,55.371L1502.3,63.371" style="fill:none;stroke:#000000;stroke-width:0.5" />
<path d="M1696.2,55.371L1696.2,63.371" style="fill:none;stroke:#000000;stroke-width:0.5" />
<path d="M1890,55.371L1890,63.371" style="fill:none;stroke:#000000;stroke-width:0.5" />
<path d="M145.46,63.371L1890,63.371" style="fill:none;stroke:#000000;stroke-width:0.5" />
<g transform="rotate(90)">
<text x="538.49" y="23.467" transform="scale(1, -1)"
	style="font-family:Liberation Serif;font-variant:normal;font-weight:normal;font-style:normal;font-size:30px">μs</text>
</g>
<text x="49.712" y="-212.74" transform="scale(1, -1)"
	style="font-family:Liberation Serif;font-variant:normal;font-weight:normal;font-style:normal;font-size:20px">2000000</text>
<text x="49.712" y="-545.45" transform="scale(1, -1)"
	style="font-family:Liberation Serif;font-variant:normal;font-weight:normal;font-style:normal;font-size:20px">6000000</text>
<text x="39.712" y="-878.16" transform="scale(1, -1)"
	style="font-family:Liberation Serif;font-variant:normal;font-weight:normal;font-style:normal;font-size:20px">10000000</text>
<path d="M124.71,217.31L132.71,217.31" style="fill:none;stroke:#000000;stroke-width:0.5" />
<path d="M124.71,550.02L132.71,550.02" style="fill:none;stroke:#000000;stroke-width:0.5" />
<path d="M124.71,882.73L132.71,882.73" style="fill:none;stroke:#000000;stroke-width:0.5" />
<path d="M128.71,134.13L132.71,134.13" style="fill:none;stroke:#000000;stroke-width:0.5" />
<path d="M128.71,300.48L132.71,300.48" style="fill:none;stroke:#000000;stroke-width:0.5" />
<path d="M128.71,383.66L132.71,383.66" style="fill:none;stroke:#000000;stroke-width:0.5" />
<path d="M128.71,466.84L132.71,466.84" style="fill:none;stroke:#000000;stroke-width:0.5" />
<path d="M128.71,633.2L132.71,633.2" style="fill:none;stroke:#000000;stroke-width:0.5" />
<path d="M128.71,716.37L132.71,716.37" style="fill:none;stroke:#000000;stroke-width:0.5" />
<path d="M128.71,799.55L132.71,799.55" style="fill:none;stroke:#000000;stroke-width:0.5" />
<path d="M128.71,965.91L132.71,965.91" style="fill:none;stroke:#000000;stroke-width:0.5" />
<path d="M132.71,80.11L132.71,1024.6" style="fill:none;stroke:#000000;stroke-width:0.5" />
<path d="M145.46,80.11L145.46,1024.6" style="fill:none;stroke:#808080;stroke-width:0.25" />
<path d="M339.3,80.11L339.3,1024.6" style="fill:none;stroke:#808080;stroke-width:0.25" />
<path d="M533.14,80.11L533.14,1024.6" style="fill:none;stroke:#808080;stroke-width:0.25" />
<path d="M726.97,80.11L726.97,1024.6" style="fill:none;stroke:#808080;stroke-width:0.25" />
<path d="M920.81,80.11L920.81,1024.6" style="fill:none;stroke:#808080;stroke-width:0.25" />
<path d="M1114.6,80.11L1114.6,1024.6" style="fill:none;stroke:#808080;stroke-width:0.25" />
<path d="M1308.5,80.11L1308.5,1024.6" style="fill:none;stroke:#808080;stroke-width:0.25" />
<path d="M1502.3,80.11L1502.3,1024.6" style="fill:none;stroke:#808080;stroke-width:0.25" />
<path d="M1696.2,80.11L1696.2,1024.6" style="fill:none;stroke:#808080;stroke-width:0.25" />
<path d="M1890,80.11L1890,1024.6" style="fill:none;stroke:#808080;stroke-width:0.25" />
<path d="M145.46,217.31L1890,217.31" style="fill:none;stroke:#808080;stroke-width:0.25" />
<path d="M145.46,550.02L1890,550.02" style="fill:none;stroke:#808080;stroke-width:0.25" />
<path d="M145.46,882.73L1890,882.73" style="fill:none;stroke:#808080;stroke-width:0.25" />
<path d="M145.46,80.11L339.3,132.95L533.14,195.33L726.97,254.63L920.81,321.04L1114.6,365.77L1308.5,434.56L1502.3,489.07L1696.2,540.74L1890,598.75" style="fill:none;stroke:#FF0000;stroke-width:4" />
<path d="M150.46,80.11A5,5 0 1 1 140.46,80.11A5,5 0 1 1 150.46,80.11Z" style="fill:#FF0000" />
<path d="M344.3,132.95A5,5 0 1 1 334.3,132.95A5,5 0 1 1 344.3,132.95Z" style="fill:#FF0000" />
<path d="M538.14,195.33A5,5 0 1 1 528.14,195.33A5,5 0 1 1 538.14,195.33Z" style="fill:#FF0000" />
<path d="M731.97,254.63A5,5 0 1 1 721.97,254.63A5,5 0 1 1 731.97,254.63Z" style="fill:#FF0000" />
<path d="M925.81,321.04A5,5 0 1 1 915.81,321.04A5,5 0 1 1 925.81,321.04Z" style="fill:#FF0000" />
<path d="M1119.6,365.77A5,5 0 1 1 1109.6,365.77A5,5 0 1 1 1119.6,365.77Z" style="fill:#FF0000" />
<path d="M1313.5,434.56A5,5 0 1 1 1303.5,434.56A5,5 0 1 1 1313.5,434.56Z" style="fill:#FF0000" />
<path d="M1507.3,489.07A5,5 0 1 1 1497.3,489.07A5,5 0 1 1 1507.3,489.07Z" style="fill:#FF0000" />
<path d="M1701.2,540.74A5,5 0 1 1 1691.2,540.74A5,5 0 1 1 1701.2,540.74Z" style="fill:#FF0000" />
<path d="M1895,598.75A5,5 0 1 1 1885,598.75A5,5 0 1 1 1895,598.75Z" style="fill:#FF0000" />
<path d="M145.46,90.85L339.3,168.15L533.14,263.15L726.97,341.55L920.81,414.08L1114.6,504.27L1308.5,587.06L1502.3,648.96L1696.2,762.66L1890,907.87" style="fill:none;stroke:#0000FF;stroke-width:4" />
<path d="M150.46,90.85A5,5 0 1 1 140.46,90.85A5,5 0 1 1 150.46,90.85Z" style="fill:#0000FF" />
<path d="M344.3,168.15A5,5 0 1 1 334.3,168.15A5,5 0 1 1 344.3,168.15Z" style="fill:#0000FF" />
<path d="M538.14,263.15A5,5 0 1 1 528.14,263.15A5,5 0 1 1 538.14,263.15Z" style="fill:#0000FF" />
<path d="M731.97,341.55A5,5 0 1 1 721.97,341.55A5,5 0 1 1 731.97,341.55Z" style="fill:#0000FF" />
<path d="M925.81,414.08A5,5 0 1 1 915.81,414.08A5,5 0 1 1 925.81,414.08Z" style="fill:#0000FF" />
<path d="M1119.6,504.27A5,5 0 1 1 1109.6,504.27A5,5 0 1 1 1119.6,504.27Z" style="fill:#0000FF" />
<path d="M1313.5,587.06A5,5 0 1 1 1303.5,587.06A5,5 0 1 1 1313.5,587.06Z" style="fill:#0000FF" />
<path d="M1507.3,648.96A5,5 0 1 1 1497.3,648.96A5,5 0 1 1 1507.3,648.96Z" style="fill:#0000FF" />
<path d="M1701.2,762.66A5,5 0 1 1 1691.2,762.66A5,5 0 1 1 1701.2,762.66Z" style="fill:#0000FF" />
<path d="M1895,907.87A5,5 0 1 1 1885,907.87A5,5 0 1 1 1895,907.87Z" style="fill:#0000FF" />
<path d="M145.46,98.951L339.3,209.28L533.14,316.46L726.97,383.73L920.81,444.88L1114.6,562.82L1308.5,637.41L1502.3,745.12L1696.2,841.79L1890,936.11" style="fill:none;stroke:#00FF00;stroke-width:4" />
<path d="M150.46,98.951A5,5 0 1 1 140.46,98.951A5,5 0 1 1 150.46,98.951Z" style="fill:#00FF00" />
<path d="M344.3,209.28A5,5 0 1 1 334.3,209.28A5,5 0 1 1 344.3,209.28Z" style="fill:#00FF00" />
<path d="M538.14,316.46A5,5 0 1 1 528.14,316.46A5,5 0 1 1 538.14,316.46Z" style="fill:#00FF00" />
<path d="M731.97,383.73A5,5 0 1 1 721.97,383.73A5,5 0 1 1 731.97,383.73Z" style="fill:#00FF00" />
<path d="M925.81,444.88A5,5 0 1 1 915.81,444.88A5,5 0 1 1 925.81,444.88Z" style="fill:#00FF00" />
<path d="M1119.6,562.82A5,5 0 1 1 1109.6,562.82A5,5 0 1 1 1119.6,562.82Z" style="fill:#00FF00" />
<path d="M1313.5,637.41A5,5 0 1 1 1303.5,637.41A5,5 0 1 1 1313.5,637.41Z" style="fill:#00FF00" />
<path d="M1507.3,745.12A5,5 0 1 1 1497.3,745.12A5,5 0 1 1 1507.3,745.12Z" style="fill:#00FF00" />
<path d="M1701.2,841.79A5,5 0 1 1 1691.2,841.79A5,5 0 1 1 1701.2,841.79Z" style="fill:#00FF00" />
<path d="M1895,936.11A5,5 0 1 1 1885,936.11A5,5 0 1 1 1895,936.11Z" style="fill:#00FF00" />
<path d="M1900,126.03L1920,126.03" style="fill:none;stroke:#FF0000;stroke-width:4" />
<path d="M1915,126.03A5,5 0 1 1 1905,126.03A5,5 0 1 1 1915,126.03Z" style="fill:#FF0000" />
<text x="1823.3" y="-121.05" transform="scale(1, -1)"
	style="font-family:Liberation Serif;font-variant:normal;font-weight:normal;font-style:normal;font-size:24px">std::list</text>
<path d="M1900,105.66L1920,105.66" style="fill:none;stroke:#0000FF;stroke-width:4" />
<path d="M1915,105.66A5,5 0 1 1 1905,105.66A5,5 0 1 1 1915,105.66Z" style="fill:#0000FF" />
<text x="1795.4" y="-100.69" transform="scale(1, -1)"
	style="font-family:Liberation Serif;font-variant:normal;font-weight:normal;font-style:normal;font-size:24px">std::deque</text>
<path d="M1900,85.294L1920,85.294" style="fill:none;stroke:#00FF00;stroke-width:4" />
<path d="M1915,85.294A5,5 0 1 1 1905,85.294A5,5 0 1 1 1915,85.294Z" style="fill:#00FF00" />
<text x="1792.7" y="-80.319" transform="scale(1, -1)"
	style="font-family:Liberation Serif;font-variant:normal;font-weight:normal;font-style:normal;font-size:24px">std::vector</text>
</g>
</svg>
