<?xml version="1.0"?>
<!-- Generated by SVGo and Plotinum VG -->
<svg width="1920pt" height="1080pt" viewBox="0 0 1920 1080"
	xmlns="http://www.w3.org/2000/svg"
	xmlns:xlink="http://www.w3.org/1999/xlink">
<g transform="scale(1, -1) translate(0, -1080)">
<path d="M0,0L1920,0L1920,1080L0,1080Z" style="fill:#FFFFFF" />
<text x="702.48" y="-1040.9" transform="scale(1, -1)"
	style="font-family:Liberation Serif;font-variant:normal;font-weight:normal;font-style:normal;font-size:50px">random-erase - Log Scale</text>
<text x="890.27" y="-9.7559" transform="scale(1, -1)"
	style="font-family:Liberation Serif;font-variant:normal;font-weight:normal;font-style:normal;font-size:30px">Number of elements</text>
<text x="110.46" y="-39.727" transform="scale(1, -1)"
	style="font-family:Liberation Serif;font-variant:normal;font-weight:normal;font-style:normal;font-size:20px">10000</text>
<text x="305.41" y="-39.727" transform="scale(1, -1)"
	style="font-family:Liberation Serif;font-variant:normal;font-weight:normal;font-style:normal;font-size:20px">20000</text>
<text x="500.36" y="-39.727" transform="scale(1, -1)"
	style="font-family:Liberation Serif;font-variant:normal;font-weight:normal;font-style:normal;font-size:20px">30000</text>
<text x="695.31" y="-39.727" transform="scale(1, -1)"
	style="font-family:Liberation Serif;font-variant:normal;font-weight:normal;font-style:normal;font-size:20px">40000</text>
<text x="890.26" y="-39.727" transform="scale(1, -1)"
	style="font-family:Liberation Serif;font-variant:normal;font-weight:normal;font-style:normal;font-size:20px">50000</text>
<text x="1085.2" y="-39.727" transform="scale(1, -1)"
	style="font-family:Liberation Serif;font-variant:normal;font-weight:normal;font-style:normal;font-size:20px">60000</text>
<text x="1280.2" y="-39.727" transform="scale(1, -1)"
	style="font-family:Liberation Serif;font-variant:normal;font-weight:normal;font-style:normal;font-size:20px">70000</text>
<text x="1475.1" y="-39.727" transform="scale(1, -1)"
	style="font-family:Liberation Serif;font-variant:normal;font-weight:normal;font-style:normal;font-size:20px">80000</text>
<text x="1670.1" y="-39.727" transform="scale(1, -1)"
	style="font-family:Liberation Serif;font-variant:normal;font-weight:normal;font-style:normal;font-size:20px">90000</text>
<text x="1860" y="-39.727" transform="scale(1, -1)"
	style="font-family:Liberation Serif;font-variant:normal;font-weight:normal;font-style:normal;font-size:20px">100000</text>
<path d="M135.46,55.371L135.46,63.371" style="fill:none;stroke:#000000;stroke-width:0.5" />
<path d="M330.41,55.371L330.41,63.371" style="fill:none;stroke:#000000;stroke-width:0.5" />
<path d="M525.36,55.371L525.36,63.371" style="fill:none;stroke:#000000;stroke-width:0.5" />
<path d="M720.31,55.371L720.31,63.371" style="fill:none;stroke:#000000;stroke-width:0.5" />
<path d="M915.26,55.371L915.26,63.371" style="fill:none;stroke:#000000;stroke-width:0.5" />
<path d="M1110.2,55.371L1110.2,63.371" style="fill:none;stroke:#000000;stroke-width:0.5" />
<path d="M1305.2,55.371L1305.2,63.371" style="fill:none;stroke:#000000;stroke-width:0.5" />
<path d="M1500.1,55.371L1500.1,63.371" style="fill:none;stroke:#000000;stroke-width:0.5" />
<path d="M1695.1,55.371L1695.1,63.371" style="fill:none;stroke:#000000;stroke-width:0.5" />
<path d="M1890,55.371L1890,63.371" style="fill:none;stroke:#000000;stroke-width:0.5" />
<path d="M135.46,63.371L1890,63.371" style="fill:none;stroke:#000000;stroke-width:0.5" />
<g transform="rotate(90)">
<text x="485.23" y="23.467" transform="scale(1, -1)"
	style="font-family:Liberation Serif;font-variant:normal;font-weight:normal;font-style:normal;font-size:30px">log(μs + 1)</text>
</g>
<text x="49.712" y="-458.42" transform="scale(1, -1)"
	style="font-family:Liberation Serif;font-variant:normal;font-weight:normal;font-style:normal;font-size:20px">400000</text>
<text x="39.712" y="-834.24" transform="scale(1, -1)"
	style="font-family:Liberation Serif;font-variant:normal;font-weight:normal;font-style:normal;font-size:20px">1200000</text>
<text x="39.712" y="-1009" transform="scale(1, -1)"
	style="font-family:Liberation Serif;font-variant:normal;font-weight:normal;font-style:normal;font-size:20px">2000000</text>
<path d="M114.71,462.99L122.71,462.99" style="fill:none;stroke:#000000;stroke-width:0.5" />
<path d="M114.71,838.81L122.71,838.81" style="fill:none;stroke:#000000;stroke-width:0.5" />
<path d="M114.71,1013.6L122.71,1013.6" style="fill:none;stroke:#000000;stroke-width:0.5" />
<path d="M118.71,700.11L122.71,700.11" style="fill:none;stroke:#000000;stroke-width:0.5" />
<path d="M118.71,937.22L122.71,937.22" style="fill:none;stroke:#000000;stroke-width:0.5" />
<path d="M122.71,80.11L122.71,1023.3" style="fill:none;stroke:#000000;stroke-width:0.5" />
<path d="M135.46,80.11L135.46,1023.3" style="fill:none;stroke:#808080;stroke-width:0.25" />
<path d="M330.41,80.11L330.41,1023.3" style="fill:none;stroke:#808080;stroke-width:0.25" />
<path d="M525.36,80.11L525.36,1023.3" style="fill:none;stroke:#808080;stroke-width:0.25" />
<path d="M720.31,80.11L720.31,1023.3" style="fill:none;stroke:#808080;stroke-width:0.25" />
<path d="M915.26,80.11L915.26,1023.3" style="fill:none;stroke:#808080;stroke-width:0.25" />
<path d="M1110.2,80.11L1110.2,1023.3" style="fill:none;stroke:#808080;stroke-width:0.25" />
<path d="M1305.2,80.11L1305.2,1023.3" style="fill:none;stroke:#808080;stroke-width:0.25" />
<path d="M1500.1,80.11L1500.1,1023.3" style="fill:none;stroke:#808080;stroke-width:0.25" />
<path d="M1695.1,80.11L1695.1,1023.3" style="fill:none;stroke:#808080;stroke-width:0.25" />
<path d="M1890,80.11L1890,1023.3" style="fill:none;stroke:#808080;stroke-width:0.25" />
<path d="M135.46,462.99L1890,462.99" style="fill:none;stroke:#808080;stroke-width:0.25" />
<path d="M135.46,838.81L1890,838.81" style="fill:none;stroke:#808080;stroke-width:0.25" />
<path d="M135.46,1013.6L1890,1013.6" style="fill:none;stroke:#808080;stroke-width:0.25" />
<path d="M135.46,192.97L330.41,382.11L525.36,540.91L720.31,644.39L915.26,720.65L1110.2,738.63L1305.2,842.74L1500.1,873.21L1695.1,914.26L1890,946.84" style="fill:none;stroke:#FF0000;stroke-width:4" />
<path d="M140.46,192.97A5,5 0 1 1 130.46,192.97A5,5 0 1 1 140.46,192.97Z" style="fill:#FF0000" />
<path d="M335.41,382.11A5,5 0 1 1 325.41,382.11A5,5 0 1 1 335.41,382.11Z" style="fill:#FF0000" />
<path d="M530.36,540.91A5,5 0 1 1 520.36,540.91A5,5 0 1 1 530.36,540.91Z" style="fill:#FF0000" />
<path d="M725.31,644.39A5,5 0 1 1 715.31,644.39A5,5 0 1 1 725.31,644.39Z" style="fill:#FF0000" />
<path d="M920.26,720.65A5,5 0 1 1 910.26,720.65A5,5 0 1 1 920.26,720.65Z" style="fill:#FF0000" />
<path d="M1115.2,738.63A5,5 0 1 1 1105.2,738.63A5,5 0 1 1 1115.2,738.63Z" style="fill:#FF0000" />
<path d="M1310.2,842.74A5,5 0 1 1 1300.2,842.74A5,5 0 1 1 1310.2,842.74Z" style="fill:#FF0000" />
<path d="M1505.1,873.21A5,5 0 1 1 1495.1,873.21A5,5 0 1 1 1505.1,873.21Z" style="fill:#FF0000" />
<path d="M1700.1,914.26A5,5 0 1 1 1690.1,914.26A5,5 0 1 1 1700.1,914.26Z" style="fill:#FF0000" />
<path d="M1895,946.84A5,5 0 1 1 1885,946.84A5,5 0 1 1 1895,946.84Z" style="fill:#FF0000" />
<path d="M135.46,153.29L330.41,392.67L525.36,547.43L720.31,745.13L915.26,759.53L1110.2,839L1305.2,877.42L1500.1,949.24L1695.1,990.74L1890,977.06" style="fill:none;stroke:#0000FF;stroke-width:4" />
<path d="M140.46,153.29A5,5 0 1 1 130.46,153.29A5,5 0 1 1 140.46,153.29Z" style="fill:#0000FF" />
<path d="M335.41,392.67A5,5 0 1 1 325.41,392.67A5,5 0 1 1 335.41,392.67Z" style="fill:#0000FF" />
<path d="M530.36,547.43A5,5 0 1 1 520.36,547.43A5,5 0 1 1 530.36,547.43Z" style="fill:#0000FF" />
<path d="M725.31,745.13A5,5 0 1 1 715.31,745.13A5,5 0 1 1 725.31,745.13Z" style="fill:#0000FF" />
<path d="M920.26,759.53A5,5 0 1 1 910.26,759.53A5,5 0 1 1 920.26,759.53Z" style="fill:#0000FF" />
<path d="M1115.2,839A5,5 0 1 1 1105.2,839A5,5 0 1 1 1115.2,839Z" style="fill:#0000FF" />
<path d="M1310.2,877.42A5,5 0 1 1 1300.2,877.42A5,5 0 1 1 1310.2,877.42Z" style="fill:#0000FF" />
<path d="M1505.1,949.24A5,5 0 1 1 1495.1,949.24A5,5 0 1 1 1505.1,949.24Z" style="fill:#0000FF" />
<path d="M1700.1,990.74A5,5 0 1 1 1690.1,990.74A5,5 0 1 1 1700.1,990.74Z" style="fill:#0000FF" />
<path d="M1895,977.06A5,5 0 1 1 1885,977.06A5,5 0 1 1 1895,977.06Z" style="fill:#0000FF" />
<path d="M135.46,80.11L330.41,312.54L525.36,458.63L720.31,555.82L915.26,640.81L1110.2,706.14L1305.2,782.9L1500.1,827.59L1695.1,915.73L1890,929.37" style="fill:none;stroke:#00FF00;stroke-width:4" />
<path d="M140.46,80.11A5,5 0 1 1 130.46,80.11A5,5 0 1 1 140.46,80.11Z" style="fill:#00FF00" />
<path d="M335.41,312.54A5,5 0 1 1 325.41,312.54A5,5 0 1 1 335.41,312.54Z" style="fill:#00FF00" />
<path d="M530.36,458.63A5,5 0 1 1 520.36,458.63A5,5 0 1 1 530.36,458.63Z" style="fill:#00FF00" />
<path d="M725.31,555.82A5,5 0 1 1 715.31,555.82A5,5 0 1 1 725.31,555.82Z" style="fill:#00FF00" />
<path d="M920.26,640.81A5,5 0 1 1 910.26,640.81A5,5 0 1 1 920.26,640.81Z" style="fill:#00FF00" />
<path d="M1115.2,706.14A5,5 0 1 1 1105.2,706.14A5,5 0 1 1 1115.2,706.14Z" style="fill:#00FF00" />
<path d="M1310.2,782.9A5,5 0 1 1 1300.2,782.9A5,5 0 1 1 1310.2,782.9Z" style="fill:#00FF00" />
<path d="M1505.1,827.59A5,5 0 1 1 1495.1,827.59A5,5 0 1 1 1505.1,827.59Z" style="fill:#00FF00" />
<path d="M1700.1,915.73A5,5 0 1 1 1690.1,915.73A5,5 0 1 1 1700.1,915.73Z" style="fill:#00FF00" />
<path d="M1895,929.37A5,5 0 1 1 1885,929.37A5,5 0 1 1 1895,929.37Z" style="fill:#00FF00" />
<path d="M1900,126.03L1920,126.03" style="fill:none;stroke:#FF0000;stroke-width:4" />
<path d="M1915,126.03A5,5 0 1 1 1905,126.03A5,5 0 1 1 1915,126.03Z" style="fill:#FF0000" />
<text x="1823.3" y="-121.05" transform="scale(1, -1)"
	style="font-family:Liberation Serif;font-variant:normal;font-weight:normal;font-style:normal;font-size:24px">std::list</text>
<path d="M1900,105.66L1920,105.66" style="fill:none;stroke:#0000FF;stroke-width:4" />
<path d="M1915,105.66A5,5 0 1 1 1905,105.66A5,5 0 1 1 1915,105.66Z" style="fill:#0000FF" />
<text x="1795.4" y="-100.69" transform="scale(1, -1)"
	style="font-family:Liberation Serif;font-variant:normal;font-weight:normal;font-style:normal;font-size:24px">std::deque</text>
<path d="M1900,85.294L1920,85.294" style="fill:none;stroke:#00FF00;stroke-width:4" />
<path d="M1915,85.294A5,5 0 1 1 1905,85.294A5,5 0 1 1 1915,85.294Z" style="fill:#00FF00" />
<text x="1792.7" y="-80.319" transform="scale(1, -1)"
	style="font-family:Liberation Serif;font-variant:normal;font-weight:normal;font-style:normal;font-size:24px">std::vector</text>
</g>
</svg>
