<?xml version="1.0"?>
<!-- Generated by SVGo and Plotinum VG -->
<svg width="1920pt" height="1080pt" viewBox="0 0 1920 1080"
	xmlns="http://www.w3.org/2000/svg"
	xmlns:xlink="http://www.w3.org/1999/xlink">
<g transform="scale(1, -1) translate(0, -1080)">
<path d="M0,0L1920,0L1920,1080L0,1080Z" style="fill:#FFFFFF" />
<text x="823.96" y="-1040.9" transform="scale(1, -1)"
	style="font-family:Liberation Serif;font-variant:normal;font-weight:normal;font-style:normal;font-size:50px">random-erase</text>
<text x="890.27" y="-9.7559" transform="scale(1, -1)"
	style="font-family:Liberation Serif;font-variant:normal;font-weight:normal;font-style:normal;font-size:30px">Number of elements</text>
<text x="110.46" y="-39.727" transform="scale(1, -1)"
	style="font-family:Liberation Serif;font-variant:normal;font-weight:normal;font-style:normal;font-size:20px">10000</text>
<text x="305.41" y="-39.727" transform="scale(1, -1)"
	style="font-family:Liberation Serif;font-variant:normal;font-weight:normal;font-style:normal;font-size:20px">20000</text>
<text x="500.36" y="-39.727" transform="scale(1, -1)"
	style="font-family:Liberation Serif;font-variant:normal;font-weight:normal;font-style:normal;font-size:20px">30000</text>
<text x="695.31" y="-39.727" transform="scale(1, -1)"
	style="font-family:Liberation Serif;font-variant:normal;font-weight:normal;font-style:normal;font-size:20px">40000</text>
<text x="890.26" y="-39.727" transform="scale(1, -1)"
	style="font-family:Liberation Serif;font-variant:normal;font-weight:normal;font-style:normal;font-size:20px">50000</text>
<text x="1085.2" y="-39.727" transform="scale(1, -1)"
	style="font-family:Liberation Serif;font-variant:normal;font-weight:normal;font-style:normal;font-size:20px">60000</text>
<text x="1280.2" y="-39.727" transform="scale(1, -1)"
	style="font-family:Liberation Serif;font-variant:normal;font-weight:normal;font-style:normal;font-size:20px">70000</text>
<text x="1475.1" y="-39.727" transform="scale(1, -1)"
	style="font-family:Liberation Serif;font-variant:normal;font-weight:normal;font-style:normal;font-size:20px">80000</text>
<text x="1670.1" y="-39.727" transform="scale(1, -1)"
	style="font-family:Liberation Serif;font-variant:normal;font-weight:normal;font-style:normal;font-size:20px">90000</text>
<text x="1860" y="-39.727" transform="scale(1, -1)"
	style="font-family:Liberation Serif;font-variant:normal;font-weight:normal;font-style:normal;font-size:20px">100000</text>
<path d="M135.46,55.371L135.46,63.371" style="fill:none;stroke:#000000;stroke-width:0.5" />
<path d="M330.41,55.371L330.41,63.371" style="fill:none;stroke:#000000;stroke-width:0.5" />
<path d="M525.36,55.371L525.36,63.371" style="fill:none;stroke:#000000;stroke-width:0.5" />
<path d="M720.31,55.371L720.31,63.371" style="fill:none;stroke:#000000;stroke-width:0.5" />
<path d="M915.26,55.371L915.26,63.371" style="fill:none;stroke:#000000;stroke-width:0.5" />
<path d="M1110.2,55.371L1110.2,63.371" style="fill:none;stroke:#000000;stroke-width:0.5" />
<path d="M1305.2,55.371L1305.2,63.371" style="fill:none;stroke:#000000;stroke-width:0.5" />
<path d="M1500.1,55.371L1500.1,63.371" style="fill:none;stroke:#000000;stroke-width:0.5" />
<path d="M1695.1,55.371L1695.1,63.371" style="fill:none;stroke:#000000;stroke-width:0.5" />
<path d="M1890,55.371L1890,63.371" style="fill:none;stroke:#000000;stroke-width:0.5" />
<path d="M135.46,63.371L1890,63.371" style="fill:none;stroke:#000000;stroke-width:0.5" />
<g transform="rotate(90)">
<text x="538.49" y="23.467" transform="scale(1, -1)"
	style="font-family:Liberation Serif;font-variant:normal;font-weight:normal;font-style:normal;font-size:30px">μs</text>
</g>
<text x="49.712" y="-166.8" transform="scale(1, -1)"
	style="font-family:Liberation Serif;font-variant:normal;font-weight:normal;font-style:normal;font-size:20px">500000</text>
<text x="39.712" y="-537.46" transform="scale(1, -1)"
	style="font-family:Liberation Serif;font-variant:normal;font-weight:normal;font-style:normal;font-size:20px">2000000</text>
<text x="39.712" y="-908.12" transform="scale(1, -1)"
	style="font-family:Liberation Serif;font-variant:normal;font-weight:normal;font-style:normal;font-size:20px">3500000</text>
<path d="M114.71,171.37L122.71,171.37" style="fill:none;stroke:#000000;stroke-width:0.5" />
<path d="M114.71,542.03L122.71,542.03" style="fill:none;stroke:#000000;stroke-width:0.5" />
<path d="M114.71,912.69L122.71,912.69" style="fill:none;stroke:#000000;stroke-width:0.5" />
<path d="M118.71,356.7L122.71,356.7" style="fill:none;stroke:#000000;stroke-width:0.5" />
<path d="M118.71,727.36L122.71,727.36" style="fill:none;stroke:#000000;stroke-width:0.5" />
<path d="M122.71,80.11L122.71,1024.6" style="fill:none;stroke:#000000;stroke-width:0.5" />
<path d="M135.46,80.11L135.46,1024.6" style="fill:none;stroke:#808080;stroke-width:0.25" />
<path d="M330.41,80.11L330.41,1024.6" style="fill:none;stroke:#808080;stroke-width:0.25" />
<path d="M525.36,80.11L525.36,1024.6" style="fill:none;stroke:#808080;stroke-width:0.25" />
<path d="M720.31,80.11L720.31,1024.6" style="fill:none;stroke:#808080;stroke-width:0.25" />
<path d="M915.26,80.11L915.26,1024.6" style="fill:none;stroke:#808080;stroke-width:0.25" />
<path d="M1110.2,80.11L1110.2,1024.6" style="fill:none;stroke:#808080;stroke-width:0.25" />
<path d="M1305.2,80.11L1305.2,1024.6" style="fill:none;stroke:#808080;stroke-width:0.25" />
<path d="M1500.1,80.11L1500.1,1024.6" style="fill:none;stroke:#808080;stroke-width:0.25" />
<path d="M1695.1,80.11L1695.1,1024.6" style="fill:none;stroke:#808080;stroke-width:0.25" />
<path d="M1890,80.11L1890,1024.6" style="fill:none;stroke:#808080;stroke-width:0.25" />
<path d="M135.46,171.37L1890,171.37" style="fill:none;stroke:#808080;stroke-width:0.25" />
<path d="M135.46,542.03L1890,542.03" style="fill:none;stroke:#808080;stroke-width:0.25" />
<path d="M135.46,912.69L1890,912.69" style="fill:none;stroke:#808080;stroke-width:0.25" />
<path d="M135.46,92.962L330.41,139.77L525.36,211.82L720.31,261.7L915.26,327.93L1110.2,404.79L1305.2,507.54L1500.1,629.81L1695.1,756.16L1890,935.83" style="fill:none;stroke:#FF0000;stroke-width:4" />
<path d="M140.46,92.962A5,5 0 1 1 130.46,92.962A5,5 0 1 1 140.46,92.962Z" style="fill:#FF0000" />
<path d="M335.41,139.77A5,5 0 1 1 325.41,139.77A5,5 0 1 1 335.41,139.77Z" style="fill:#FF0000" />
<path d="M530.36,211.82A5,5 0 1 1 520.36,211.82A5,5 0 1 1 530.36,211.82Z" style="fill:#FF0000" />
<path d="M725.31,261.7A5,5 0 1 1 715.31,261.7A5,5 0 1 1 725.31,261.7Z" style="fill:#FF0000" />
<path d="M920.26,327.93A5,5 0 1 1 910.26,327.93A5,5 0 1 1 920.26,327.93Z" style="fill:#FF0000" />
<path d="M1115.2,404.79A5,5 0 1 1 1105.2,404.79A5,5 0 1 1 1115.2,404.79Z" style="fill:#FF0000" />
<path d="M1310.2,507.54A5,5 0 1 1 1300.2,507.54A5,5 0 1 1 1310.2,507.54Z" style="fill:#FF0000" />
<path d="M1505.1,629.81A5,5 0 1 1 1495.1,629.81A5,5 0 1 1 1505.1,629.81Z" style="fill:#FF0000" />
<path d="M1700.1,756.16A5,5 0 1 1 1690.1,756.16A5,5 0 1 1 1700.1,756.16Z" style="fill:#FF0000" />
<path d="M1895,935.83A5,5 0 1 1 1885,935.83A5,5 0 1 1 1895,935.83Z" style="fill:#FF0000" />
<path d="M135.46,89.249L330.41,134.07L525.36,184.14L720.31,230.57L915.26,276.46L1110.2,332.52L1305.2,373.66L1500.1,424.97L1695.1,483.1L1890,513.93" style="fill:none;stroke:#0000FF;stroke-width:4" />
<path d="M140.46,89.249A5,5 0 1 1 130.46,89.249A5,5 0 1 1 140.46,89.249Z" style="fill:#0000FF" />
<path d="M335.41,134.07A5,5 0 1 1 325.41,134.07A5,5 0 1 1 335.41,134.07Z" style="fill:#0000FF" />
<path d="M530.36,184.14A5,5 0 1 1 520.36,184.14A5,5 0 1 1 530.36,184.14Z" style="fill:#0000FF" />
<path d="M725.31,230.57A5,5 0 1 1 715.31,230.57A5,5 0 1 1 725.31,230.57Z" style="fill:#0000FF" />
<path d="M920.26,276.46A5,5 0 1 1 910.26,276.46A5,5 0 1 1 920.26,276.46Z" style="fill:#0000FF" />
<path d="M1115.2,332.52A5,5 0 1 1 1105.2,332.52A5,5 0 1 1 1115.2,332.52Z" style="fill:#0000FF" />
<path d="M1310.2,373.66A5,5 0 1 1 1300.2,373.66A5,5 0 1 1 1310.2,373.66Z" style="fill:#0000FF" />
<path d="M1505.1,424.97A5,5 0 1 1 1495.1,424.97A5,5 0 1 1 1505.1,424.97Z" style="fill:#0000FF" />
<path d="M1700.1,483.1A5,5 0 1 1 1690.1,483.1A5,5 0 1 1 1700.1,483.1Z" style="fill:#0000FF" />
<path d="M1895,513.93A5,5 0 1 1 1885,513.93A5,5 0 1 1 1895,513.93Z" style="fill:#0000FF" />
<path d="M135.46,80.11L330.41,107.97L525.36,138.21L720.31,179.51L915.26,212.33L1110.2,251.17L1305.2,271.5L1500.1,285.37L1695.1,342.41L1890,374.23" style="fill:none;stroke:#00FF00;stroke-width:4" />
<path d="M140.46,80.11A5,5 0 1 1 130.46,80.11A5,5 0 1 1 140.46,80.11Z" style="fill:#00FF00" />
<path d="M335.41,107.97A5,5 0 1 1 325.41,107.97A5,5 0 1 1 335.41,107.97Z" style="fill:#00FF00" />
<path d="M530.36,138.21A5,5 0 1 1 520.36,138.21A5,5 0 1 1 530.36,138.21Z" style="fill:#00FF00" />
<path d="M725.31,179.51A5,5 0 1 1 715.31,179.51A5,5 0 1 1 725.31,179.51Z" style="fill:#00FF00" />
<path d="M920.26,212.33A5,5 0 1 1 910.26,212.33A5,5 0 1 1 920.26,212.33Z" style="fill:#00FF00" />
<path d="M1115.2,251.17A5,5 0 1 1 1105.2,251.17A5,5 0 1 1 1115.2,251.17Z" style="fill:#00FF00" />
<path d="M1310.2,271.5A5,5 0 1 1 1300.2,271.5A5,5 0 1 1 1310.2,271.5Z" style="fill:#00FF00" />
<path d="M1505.1,285.37A5,5 0 1 1 1495.1,285.37A5,5 0 1 1 1505.1,285.37Z" style="fill:#00FF00" />
<path d="M1700.1,342.41A5,5 0 1 1 1690.1,342.41A5,5 0 1 1 1700.1,342.41Z" style="fill:#00FF00" />
<path d="M1895,374.23A5,5 0 1 1 1885,374.23A5,5 0 1 1 1895,374.23Z" style="fill:#00FF00" />
<path d="M1900,126.03L1920,126.03" style="fill:none;stroke:#FF0000;stroke-width:4" />
<path d="M1915,126.03A5,5 0 1 1 1905,126.03A5,5 0 1 1 1915,126.03Z" style="fill:#FF0000" />
<text x="1823.3" y="-121.05" transform="scale(1, -1)"
	style="font-family:Liberation Serif;font-variant:normal;font-weight:normal;font-style:normal;font-size:24px">std::list</text>
<path d="M1900,105.66L1920,105.66" style="fill:none;stroke:#0000FF;stroke-width:4" />
<path d="M1915,105.66A5,5 0 1 1 1905,105.66A5,5 0 1 1 1915,105.66Z" style="fill:#0000FF" />
<text x="1795.4" y="-100.69" transform="scale(1, -1)"
	style="font-family:Liberation Serif;font-variant:normal;font-weight:normal;font-style:normal;font-size:24px">std::deque</text>
<path d="M1900,85.294L1920,85.294" style="fill:none;stroke:#00FF00;stroke-width:4" />
<path d="M1915,85.294A5,5 0 1 1 1905,85.294A5,5 0 1 1 1915,85.294Z" style="fill:#00FF00" />
<text x="1792.7" y="-80.319" transform="scale(1, -1)"
	style="font-family:Liberation Serif;font-variant:normal;font-weight:normal;font-style:normal;font-size:24px">std::vector</text>
</g>
</svg>
