<?xml version="1.0"?>
<!-- Generated by SVGo and Plotinum VG -->
<svg width="1920pt" height="1080pt" viewBox="0 0 1920 1080"
	xmlns="http://www.w3.org/2000/svg"
	xmlns:xlink="http://www.w3.org/1999/xlink">
<g transform="scale(1, -1) translate(0, -1080)">
<path d="M0,0L1920,0L1920,1080L0,1080Z" style="fill:#FFFFFF" />
<text x="823.96" y="-1040.9" transform="scale(1, -1)"
	style="font-family:Liberation Serif;font-variant:normal;font-weight:normal;font-style:normal;font-size:50px">random-erase</text>
<text x="890.27" y="-9.7559" transform="scale(1, -1)"
	style="font-family:Liberation Serif;font-variant:normal;font-weight:normal;font-style:normal;font-size:30px">Number of elements</text>
<text x="110.46" y="-39.727" transform="scale(1, -1)"
	style="font-family:Liberation Serif;font-variant:normal;font-weight:normal;font-style:normal;font-size:20px">10000</text>
<text x="305.41" y="-39.727" transform="scale(1, -1)"
	style="font-family:Liberation Serif;font-variant:normal;font-weight:normal;font-style:normal;font-size:20px">20000</text>
<text x="500.36" y="-39.727" transform="scale(1, -1)"
	style="font-family:Liberation Serif;font-variant:normal;font-weight:normal;font-style:normal;font-size:20px">30000</text>
<text x="695.31" y="-39.727" transform="scale(1, -1)"
	style="font-family:Liberation Serif;font-variant:normal;font-weight:normal;font-style:normal;font-size:20px">40000</text>
<text x="890.26" y="-39.727" transform="scale(1, -1)"
	style="font-family:Liberation Serif;font-variant:normal;font-weight:normal;font-style:normal;font-size:20px">50000</text>
<text x="1085.2" y="-39.727" transform="scale(1, -1)"
	style="font-family:Liberation Serif;font-variant:normal;font-weight:normal;font-style:normal;font-size:20px">60000</text>
<text x="1280.2" y="-39.727" transform="scale(1, -1)"
	style="font-family:Liberation Serif;font-variant:normal;font-weight:normal;font-style:normal;font-size:20px">70000</text>
<text x="1475.1" y="-39.727" transform="scale(1, -1)"
	style="font-family:Liberation Serif;font-variant:normal;font-weight:normal;font-style:normal;font-size:20px">80000</text>
<text x="1670.1" y="-39.727" transform="scale(1, -1)"
	style="font-family:Liberation Serif;font-variant:normal;font-weight:normal;font-style:normal;font-size:20px">90000</text>
<text x="1860" y="-39.727" transform="scale(1, -1)"
	style="font-family:Liberation Serif;font-variant:normal;font-weight:normal;font-style:normal;font-size:20px">100000</text>
<path d="M135.46,55.371L135.46,63.371" style="fill:none;stroke:#000000;stroke-width:0.5" />
<path d="M330.41,55.371L330.41,63.371" style="fill:none;stroke:#000000;stroke-width:0.5" />
<path d="M525.36,55.371L525.36,63.371" style="fill:none;stroke:#000000;stroke-width:0.5" />
<path d="M720.31,55.371L720.31,63.371" style="fill:none;stroke:#000000;stroke-width:0.5" />
<path d="M915.26,55.371L915.26,63.371" style="fill:none;stroke:#000000;stroke-width:0.5" />
<path d="M1110.2,55.371L1110.2,63.371" style="fill:none;stroke:#000000;stroke-width:0.5" />
<path d="M1305.2,55.371L1305.2,63.371" style="fill:none;stroke:#000000;stroke-width:0.5" />
<path d="M1500.1,55.371L1500.1,63.371" style="fill:none;stroke:#000000;stroke-width:0.5" />
<path d="M1695.1,55.371L1695.1,63.371" style="fill:none;stroke:#000000;stroke-width:0.5" />
<path d="M1890,55.371L1890,63.371" style="fill:none;stroke:#000000;stroke-width:0.5" />
<path d="M135.46,63.371L1890,63.371" style="fill:none;stroke:#000000;stroke-width:0.5" />
<g transform="rotate(90)">
<text x="538.49" y="23.467" transform="scale(1, -1)"
	style="font-family:Liberation Serif;font-variant:normal;font-weight:normal;font-style:normal;font-size:30px">μs</text>
</g>
<text x="49.712" y="-216.07" transform="scale(1, -1)"
	style="font-family:Liberation Serif;font-variant:normal;font-weight:normal;font-style:normal;font-size:20px">400000</text>
<text x="39.712" y="-606.13" transform="scale(1, -1)"
	style="font-family:Liberation Serif;font-variant:normal;font-weight:normal;font-style:normal;font-size:20px">1200000</text>
<text x="39.712" y="-996.2" transform="scale(1, -1)"
	style="font-family:Liberation Serif;font-variant:normal;font-weight:normal;font-style:normal;font-size:20px">2000000</text>
<path d="M114.71,220.64L122.71,220.64" style="fill:none;stroke:#000000;stroke-width:0.5" />
<path d="M114.71,610.7L122.71,610.7" style="fill:none;stroke:#000000;stroke-width:0.5" />
<path d="M114.71,1000.8L122.71,1000.8" style="fill:none;stroke:#000000;stroke-width:0.5" />
<path d="M118.71,415.67L122.71,415.67" style="fill:none;stroke:#000000;stroke-width:0.5" />
<path d="M118.71,805.74L122.71,805.74" style="fill:none;stroke:#000000;stroke-width:0.5" />
<path d="M122.71,80.11L122.71,1024.6" style="fill:none;stroke:#000000;stroke-width:0.5" />
<path d="M135.46,80.11L135.46,1024.6" style="fill:none;stroke:#808080;stroke-width:0.25" />
<path d="M330.41,80.11L330.41,1024.6" style="fill:none;stroke:#808080;stroke-width:0.25" />
<path d="M525.36,80.11L525.36,1024.6" style="fill:none;stroke:#808080;stroke-width:0.25" />
<path d="M720.31,80.11L720.31,1024.6" style="fill:none;stroke:#808080;stroke-width:0.25" />
<path d="M915.26,80.11L915.26,1024.6" style="fill:none;stroke:#808080;stroke-width:0.25" />
<path d="M1110.2,80.11L1110.2,1024.6" style="fill:none;stroke:#808080;stroke-width:0.25" />
<path d="M1305.2,80.11L1305.2,1024.6" style="fill:none;stroke:#808080;stroke-width:0.25" />
<path d="M1500.1,80.11L1500.1,1024.6" style="fill:none;stroke:#808080;stroke-width:0.25" />
<path d="M1695.1,80.11L1695.1,1024.6" style="fill:none;stroke:#808080;stroke-width:0.25" />
<path d="M1890,80.11L1890,1024.6" style="fill:none;stroke:#808080;stroke-width:0.25" />
<path d="M135.46,220.64L1890,220.64" style="fill:none;stroke:#808080;stroke-width:0.25" />
<path d="M135.46,610.7L1890,610.7" style="fill:none;stroke:#808080;stroke-width:0.25" />
<path d="M135.46,1000.8L1890,1000.8" style="fill:none;stroke:#808080;stroke-width:0.25" />
<path d="M135.46,99.095L330.41,171.3L525.36,237.41L720.31,325.86L915.26,418.67L1110.2,563.39L1305.2,633.94L1500.1,698.7L1695.1,798.52L1890,933.81" style="fill:none;stroke:#FF0000;stroke-width:4" />
<path d="M140.46,99.095A5,5 0 1 1 130.46,99.095A5,5 0 1 1 140.46,99.095Z" style="fill:#FF0000" />
<path d="M335.41,171.3A5,5 0 1 1 325.41,171.3A5,5 0 1 1 335.41,171.3Z" style="fill:#FF0000" />
<path d="M530.36,237.41A5,5 0 1 1 520.36,237.41A5,5 0 1 1 530.36,237.41Z" style="fill:#FF0000" />
<path d="M725.31,325.86A5,5 0 1 1 715.31,325.86A5,5 0 1 1 725.31,325.86Z" style="fill:#FF0000" />
<path d="M920.26,418.67A5,5 0 1 1 910.26,418.67A5,5 0 1 1 920.26,418.67Z" style="fill:#FF0000" />
<path d="M1115.2,563.39A5,5 0 1 1 1105.2,563.39A5,5 0 1 1 1115.2,563.39Z" style="fill:#FF0000" />
<path d="M1310.2,633.94A5,5 0 1 1 1300.2,633.94A5,5 0 1 1 1310.2,633.94Z" style="fill:#FF0000" />
<path d="M1505.1,698.7A5,5 0 1 1 1495.1,698.7A5,5 0 1 1 1505.1,698.7Z" style="fill:#FF0000" />
<path d="M1700.1,798.52A5,5 0 1 1 1690.1,798.52A5,5 0 1 1 1700.1,798.52Z" style="fill:#FF0000" />
<path d="M1895,933.81A5,5 0 1 1 1885,933.81A5,5 0 1 1 1895,933.81Z" style="fill:#FF0000" />
<path d="M135.46,90.833L330.41,155L525.36,244.11L720.31,324.05L915.26,415.62L1110.2,500.74L1305.2,558.58L1500.1,652.55L1695.1,730.69L1890,807.53" style="fill:none;stroke:#0000FF;stroke-width:4" />
<path d="M140.46,90.833A5,5 0 1 1 130.46,90.833A5,5 0 1 1 140.46,90.833Z" style="fill:#0000FF" />
<path d="M335.41,155A5,5 0 1 1 325.41,155A5,5 0 1 1 335.41,155Z" style="fill:#0000FF" />
<path d="M530.36,244.11A5,5 0 1 1 520.36,244.11A5,5 0 1 1 530.36,244.11Z" style="fill:#0000FF" />
<path d="M725.31,324.05A5,5 0 1 1 715.31,324.05A5,5 0 1 1 725.31,324.05Z" style="fill:#0000FF" />
<path d="M920.26,415.62A5,5 0 1 1 910.26,415.62A5,5 0 1 1 920.26,415.62Z" style="fill:#0000FF" />
<path d="M1115.2,500.74A5,5 0 1 1 1105.2,500.74A5,5 0 1 1 1115.2,500.74Z" style="fill:#0000FF" />
<path d="M1310.2,558.58A5,5 0 1 1 1300.2,558.58A5,5 0 1 1 1310.2,558.58Z" style="fill:#0000FF" />
<path d="M1505.1,652.55A5,5 0 1 1 1495.1,652.55A5,5 0 1 1 1505.1,652.55Z" style="fill:#0000FF" />
<path d="M1700.1,730.69A5,5 0 1 1 1690.1,730.69A5,5 0 1 1 1700.1,730.69Z" style="fill:#0000FF" />
<path d="M1895,807.53A5,5 0 1 1 1885,807.53A5,5 0 1 1 1895,807.53Z" style="fill:#0000FF" />
<path d="M135.46,80.11L330.41,135.67L525.36,218.28L720.31,291.53L915.26,360.56L1110.2,441.79L1305.2,497.82L1500.1,540.85L1695.1,563.29L1890,705.86" style="fill:none;stroke:#00FF00;stroke-width:4" />
<path d="M140.46,80.11A5,5 0 1 1 130.46,80.11A5,5 0 1 1 140.46,80.11Z" style="fill:#00FF00" />
<path d="M335.41,135.67A5,5 0 1 1 325.41,135.67A5,5 0 1 1 335.41,135.67Z" style="fill:#00FF00" />
<path d="M530.36,218.28A5,5 0 1 1 520.36,218.28A5,5 0 1 1 530.36,218.28Z" style="fill:#00FF00" />
<path d="M725.31,291.53A5,5 0 1 1 715.31,291.53A5,5 0 1 1 725.31,291.53Z" style="fill:#00FF00" />
<path d="M920.26,360.56A5,5 0 1 1 910.26,360.56A5,5 0 1 1 920.26,360.56Z" style="fill:#00FF00" />
<path d="M1115.2,441.79A5,5 0 1 1 1105.2,441.79A5,5 0 1 1 1115.2,441.79Z" style="fill:#00FF00" />
<path d="M1310.2,497.82A5,5 0 1 1 1300.2,497.82A5,5 0 1 1 1310.2,497.82Z" style="fill:#00FF00" />
<path d="M1505.1,540.85A5,5 0 1 1 1495.1,540.85A5,5 0 1 1 1505.1,540.85Z" style="fill:#00FF00" />
<path d="M1700.1,563.29A5,5 0 1 1 1690.1,563.29A5,5 0 1 1 1700.1,563.29Z" style="fill:#00FF00" />
<path d="M1895,705.86A5,5 0 1 1 1885,705.86A5,5 0 1 1 1895,705.86Z" style="fill:#00FF00" />
<path d="M1900,126.03L1920,126.03" style="fill:none;stroke:#FF0000;stroke-width:4" />
<path d="M1915,126.03A5,5 0 1 1 1905,126.03A5,5 0 1 1 1915,126.03Z" style="fill:#FF0000" />
<text x="1823.3" y="-121.05" transform="scale(1, -1)"
	style="font-family:Liberation Serif;font-variant:normal;font-weight:normal;font-style:normal;font-size:24px">std::list</text>
<path d="M1900,105.66L1920,105.66" style="fill:none;stroke:#0000FF;stroke-width:4" />
<path d="M1915,105.66A5,5 0 1 1 1905,105.66A5,5 0 1 1 1915,105.66Z" style="fill:#0000FF" />
<text x="1795.4" y="-100.69" transform="scale(1, -1)"
	style="font-family:Liberation Serif;font-variant:normal;font-weight:normal;font-style:normal;font-size:24px">std::deque</text>
<path d="M1900,85.294L1920,85.294" style="fill:none;stroke:#00FF00;stroke-width:4" />
<path d="M1915,85.294A5,5 0 1 1 1905,85.294A5,5 0 1 1 1915,85.294Z" style="fill:#00FF00" />
<text x="1792.7" y="-80.319" transform="scale(1, -1)"
	style="font-family:Liberation Serif;font-variant:normal;font-weight:normal;font-style:normal;font-size:24px">std::vector</text>
</g>
</svg>
