<?xml version="1.0"?>
<!-- Generated by SVGo and Plotinum VG -->
<svg width="1920pt" height="1080pt" viewBox="0 0 1920 1080"
	xmlns="http://www.w3.org/2000/svg"
	xmlns:xlink="http://www.w3.org/1999/xlink">
<g transform="scale(1, -1) translate(0, -1080)">
<path d="M0,0L1920,0L1920,1080L0,1080Z" style="fill:#FFFFFF" />
<text x="702.48" y="-1040.9" transform="scale(1, -1)"
	style="font-family:Liberation Serif;font-variant:normal;font-weight:normal;font-style:normal;font-size:50px">random-erase - Log Scale</text>
<text x="880.35" y="-9.7559" transform="scale(1, -1)"
	style="font-family:Liberation Serif;font-variant:normal;font-weight:normal;font-style:normal;font-size:30px">Number of elements</text>
<text x="90.618" y="-39.727" transform="scale(1, -1)"
	style="font-family:Liberation Serif;font-variant:normal;font-weight:normal;font-style:normal;font-size:20px">10000</text>
<text x="287.77" y="-39.727" transform="scale(1, -1)"
	style="font-family:Liberation Serif;font-variant:normal;font-weight:normal;font-style:normal;font-size:20px">20000</text>
<text x="484.93" y="-39.727" transform="scale(1, -1)"
	style="font-family:Liberation Serif;font-variant:normal;font-weight:normal;font-style:normal;font-size:20px">30000</text>
<text x="682.08" y="-39.727" transform="scale(1, -1)"
	style="font-family:Liberation Serif;font-variant:normal;font-weight:normal;font-style:normal;font-size:20px">40000</text>
<text x="879.23" y="-39.727" transform="scale(1, -1)"
	style="font-family:Liberation Serif;font-variant:normal;font-weight:normal;font-style:normal;font-size:20px">50000</text>
<text x="1076.4" y="-39.727" transform="scale(1, -1)"
	style="font-family:Liberation Serif;font-variant:normal;font-weight:normal;font-style:normal;font-size:20px">60000</text>
<text x="1273.5" y="-39.727" transform="scale(1, -1)"
	style="font-family:Liberation Serif;font-variant:normal;font-weight:normal;font-style:normal;font-size:20px">70000</text>
<text x="1470.7" y="-39.727" transform="scale(1, -1)"
	style="font-family:Liberation Serif;font-variant:normal;font-weight:normal;font-style:normal;font-size:20px">80000</text>
<text x="1667.8" y="-39.727" transform="scale(1, -1)"
	style="font-family:Liberation Serif;font-variant:normal;font-weight:normal;font-style:normal;font-size:20px">90000</text>
<text x="1860" y="-39.727" transform="scale(1, -1)"
	style="font-family:Liberation Serif;font-variant:normal;font-weight:normal;font-style:normal;font-size:20px">100000</text>
<path d="M115.62,55.371L115.62,63.371" style="fill:none;stroke:#000000;stroke-width:0.5" />
<path d="M312.77,55.371L312.77,63.371" style="fill:none;stroke:#000000;stroke-width:0.5" />
<path d="M509.93,55.371L509.93,63.371" style="fill:none;stroke:#000000;stroke-width:0.5" />
<path d="M707.08,55.371L707.08,63.371" style="fill:none;stroke:#000000;stroke-width:0.5" />
<path d="M904.23,55.371L904.23,63.371" style="fill:none;stroke:#000000;stroke-width:0.5" />
<path d="M1101.4,55.371L1101.4,63.371" style="fill:none;stroke:#000000;stroke-width:0.5" />
<path d="M1298.5,55.371L1298.5,63.371" style="fill:none;stroke:#000000;stroke-width:0.5" />
<path d="M1495.7,55.371L1495.7,63.371" style="fill:none;stroke:#000000;stroke-width:0.5" />
<path d="M1692.8,55.371L1692.8,63.371" style="fill:none;stroke:#000000;stroke-width:0.5" />
<path d="M1890,55.371L1890,63.371" style="fill:none;stroke:#000000;stroke-width:0.5" />
<path d="M115.62,63.371L1890,63.371" style="fill:none;stroke:#000000;stroke-width:0.5" />
<g transform="rotate(90)">
<text x="485.87" y="23.467" transform="scale(1, -1)"
	style="font-family:Liberation Serif;font-variant:normal;font-weight:normal;font-style:normal;font-size:30px">log(μs + 1)</text>
</g>
<text x="39.712" y="-677.67" transform="scale(1, -1)"
	style="font-family:Liberation Serif;font-variant:normal;font-weight:normal;font-style:normal;font-size:20px">1e+07</text>
<text x="39.712" y="-873.61" transform="scale(1, -1)"
	style="font-family:Liberation Serif;font-variant:normal;font-weight:normal;font-style:normal;font-size:20px">2e+07</text>
<text x="39.712" y="-988.23" transform="scale(1, -1)"
	style="font-family:Liberation Serif;font-variant:normal;font-weight:normal;font-style:normal;font-size:20px">3e+07</text>
<path d="M94.868,682.24L102.87,682.24" style="fill:none;stroke:#000000;stroke-width:0.5" />
<path d="M94.868,878.18L102.87,878.18" style="fill:none;stroke:#000000;stroke-width:0.5" />
<path d="M94.868,992.8L102.87,992.8" style="fill:none;stroke:#000000;stroke-width:0.5" />
<path d="M98.868,227.27L102.87,227.27" style="fill:none;stroke:#000000;stroke-width:0.5" />
<path d="M98.868,423.21L102.87,423.21" style="fill:none;stroke:#000000;stroke-width:0.5" />
<path d="M98.868,537.83L102.87,537.83" style="fill:none;stroke:#000000;stroke-width:0.5" />
<path d="M98.868,619.16L102.87,619.16" style="fill:none;stroke:#000000;stroke-width:0.5" />
<path d="M98.868,733.78L102.87,733.78" style="fill:none;stroke:#000000;stroke-width:0.5" />
<path d="M98.868,777.35L102.87,777.35" style="fill:none;stroke:#000000;stroke-width:0.5" />
<path d="M98.868,815.1L102.87,815.1" style="fill:none;stroke:#000000;stroke-width:0.5" />
<path d="M98.868,848.4L102.87,848.4" style="fill:none;stroke:#000000;stroke-width:0.5" />
<path d="M98.868,905.12L102.87,905.12" style="fill:none;stroke:#000000;stroke-width:0.5" />
<path d="M98.868,929.72L102.87,929.72" style="fill:none;stroke:#000000;stroke-width:0.5" />
<path d="M98.868,952.35L102.87,952.35" style="fill:none;stroke:#000000;stroke-width:0.5" />
<path d="M98.868,973.3L102.87,973.3" style="fill:none;stroke:#000000;stroke-width:0.5" />
<path d="M98.868,1011L102.87,1011" style="fill:none;stroke:#000000;stroke-width:0.5" />
<path d="M102.87,80.11L102.87,1024.6" style="fill:none;stroke:#000000;stroke-width:0.5" />
<path d="M115.62,80.11L115.62,1024.6" style="fill:none;stroke:#808080;stroke-width:0.25" />
<path d="M312.77,80.11L312.77,1024.6" style="fill:none;stroke:#808080;stroke-width:0.25" />
<path d="M509.93,80.11L509.93,1024.6" style="fill:none;stroke:#808080;stroke-width:0.25" />
<path d="M707.08,80.11L707.08,1024.6" style="fill:none;stroke:#808080;stroke-width:0.25" />
<path d="M904.23,80.11L904.23,1024.6" style="fill:none;stroke:#808080;stroke-width:0.25" />
<path d="M1101.4,80.11L1101.4,1024.6" style="fill:none;stroke:#808080;stroke-width:0.25" />
<path d="M1298.5,80.11L1298.5,1024.6" style="fill:none;stroke:#808080;stroke-width:0.25" />
<path d="M1495.7,80.11L1495.7,1024.6" style="fill:none;stroke:#808080;stroke-width:0.25" />
<path d="M1692.8,80.11L1692.8,1024.6" style="fill:none;stroke:#808080;stroke-width:0.25" />
<path d="M1890,80.11L1890,1024.6" style="fill:none;stroke:#808080;stroke-width:0.25" />
<path d="M115.62,682.24L1890,682.24" style="fill:none;stroke:#808080;stroke-width:0.25" />
<path d="M115.62,878.18L1890,878.18" style="fill:none;stroke:#808080;stroke-width:0.25" />
<path d="M115.62,992.8L1890,992.8" style="fill:none;stroke:#808080;stroke-width:0.25" />
<path d="M115.62,228.54L312.77,443.03L509.93,572.96L707.08,675.46L904.23,726.69L1101.4,796.87L1298.5,848.47L1495.7,887.14L1692.8,919.01L1890,947.94" style="fill:none;stroke:#FF0000;stroke-width:4" />
<path d="M120.62,228.54A5,5 0 1 1 110.62,228.54A5,5 0 1 1 120.62,228.54Z" style="fill:#FF0000" />
<path d="M317.77,443.03A5,5 0 1 1 307.77,443.03A5,5 0 1 1 317.77,443.03Z" style="fill:#FF0000" />
<path d="M514.93,572.96A5,5 0 1 1 504.93,572.96A5,5 0 1 1 514.93,572.96Z" style="fill:#FF0000" />
<path d="M712.08,675.46A5,5 0 1 1 702.08,675.46A5,5 0 1 1 712.08,675.46Z" style="fill:#FF0000" />
<path d="M909.23,726.69A5,5 0 1 1 899.23,726.69A5,5 0 1 1 909.23,726.69Z" style="fill:#FF0000" />
<path d="M1106.4,796.87A5,5 0 1 1 1096.4,796.87A5,5 0 1 1 1106.4,796.87Z" style="fill:#FF0000" />
<path d="M1303.5,848.47A5,5 0 1 1 1293.5,848.47A5,5 0 1 1 1303.5,848.47Z" style="fill:#FF0000" />
<path d="M1500.7,887.14A5,5 0 1 1 1490.7,887.14A5,5 0 1 1 1500.7,887.14Z" style="fill:#FF0000" />
<path d="M1697.8,919.01A5,5 0 1 1 1687.8,919.01A5,5 0 1 1 1697.8,919.01Z" style="fill:#FF0000" />
<path d="M1895,947.94A5,5 0 1 1 1885,947.94A5,5 0 1 1 1895,947.94Z" style="fill:#FF0000" />
<path d="M115.62,285.24L312.77,534.69L509.93,644.72L707.08,739.45L904.23,804.4L1101.4,856.06L1298.5,907.7L1495.7,944.92L1692.8,955.73L1890,997.69" style="fill:none;stroke:#0000FF;stroke-width:4" />
<path d="M120.62,285.24A5,5 0 1 1 110.62,285.24A5,5 0 1 1 120.62,285.24Z" style="fill:#0000FF" />
<path d="M317.77,534.69A5,5 0 1 1 307.77,534.69A5,5 0 1 1 317.77,534.69Z" style="fill:#0000FF" />
<path d="M514.93,644.72A5,5 0 1 1 504.93,644.72A5,5 0 1 1 514.93,644.72Z" style="fill:#0000FF" />
<path d="M712.08,739.45A5,5 0 1 1 702.08,739.45A5,5 0 1 1 712.08,739.45Z" style="fill:#0000FF" />
<path d="M909.23,804.4A5,5 0 1 1 899.23,804.4A5,5 0 1 1 909.23,804.4Z" style="fill:#0000FF" />
<path d="M1106.4,856.06A5,5 0 1 1 1096.4,856.06A5,5 0 1 1 1106.4,856.06Z" style="fill:#0000FF" />
<path d="M1303.5,907.7A5,5 0 1 1 1293.5,907.7A5,5 0 1 1 1303.5,907.7Z" style="fill:#0000FF" />
<path d="M1500.7,944.92A5,5 0 1 1 1490.7,944.92A5,5 0 1 1 1500.7,944.92Z" style="fill:#0000FF" />
<path d="M1697.8,955.73A5,5 0 1 1 1687.8,955.73A5,5 0 1 1 1697.8,955.73Z" style="fill:#0000FF" />
<path d="M1895,997.69A5,5 0 1 1 1885,997.69A5,5 0 1 1 1895,997.69Z" style="fill:#0000FF" />
<path d="M115.62,80.11L312.77,308.51L509.93,432.58L707.08,527.8L904.23,589.33L1101.4,640.62L1298.5,697.97L1495.7,738.07L1692.8,771.12L1890,807" style="fill:none;stroke:#00FF00;stroke-width:4" />
<path d="M120.62,80.11A5,5 0 1 1 110.62,80.11A5,5 0 1 1 120.62,80.11Z" style="fill:#00FF00" />
<path d="M317.77,308.51A5,5 0 1 1 307.77,308.51A5,5 0 1 1 317.77,308.51Z" style="fill:#00FF00" />
<path d="M514.93,432.58A5,5 0 1 1 504.93,432.58A5,5 0 1 1 514.93,432.58Z" style="fill:#00FF00" />
<path d="M712.08,527.8A5,5 0 1 1 702.08,527.8A5,5 0 1 1 712.08,527.8Z" style="fill:#00FF00" />
<path d="M909.23,589.33A5,5 0 1 1 899.23,589.33A5,5 0 1 1 909.23,589.33Z" style="fill:#00FF00" />
<path d="M1106.4,640.62A5,5 0 1 1 1096.4,640.62A5,5 0 1 1 1106.4,640.62Z" style="fill:#00FF00" />
<path d="M1303.5,697.97A5,5 0 1 1 1293.5,697.97A5,5 0 1 1 1303.5,697.97Z" style="fill:#00FF00" />
<path d="M1500.7,738.07A5,5 0 1 1 1490.7,738.07A5,5 0 1 1 1500.7,738.07Z" style="fill:#00FF00" />
<path d="M1697.8,771.12A5,5 0 1 1 1687.8,771.12A5,5 0 1 1 1697.8,771.12Z" style="fill:#00FF00" />
<path d="M1895,807A5,5 0 1 1 1885,807A5,5 0 1 1 1895,807Z" style="fill:#00FF00" />
<path d="M1900,126.03L1920,126.03" style="fill:none;stroke:#FF0000;stroke-width:4" />
<path d="M1915,126.03A5,5 0 1 1 1905,126.03A5,5 0 1 1 1915,126.03Z" style="fill:#FF0000" />
<text x="1795.4" y="-121.05" transform="scale(1, -1)"
	style="font-family:Liberation Serif;font-variant:normal;font-weight:normal;font-style:normal;font-size:24px">std::deque</text>
<path d="M1900,105.66L1920,105.66" style="fill:none;stroke:#0000FF;stroke-width:4" />
<path d="M1915,105.66A5,5 0 1 1 1905,105.66A5,5 0 1 1 1915,105.66Z" style="fill:#0000FF" />
<text x="1792.7" y="-100.69" transform="scale(1, -1)"
	style="font-family:Liberation Serif;font-variant:normal;font-weight:normal;font-style:normal;font-size:24px">std::vector</text>
<path d="M1900,85.294L1920,85.294" style="fill:none;stroke:#00FF00;stroke-width:4" />
<path d="M1915,85.294A5,5 0 1 1 1905,85.294A5,5 0 1 1 1915,85.294Z" style="fill:#00FF00" />
<text x="1823.3" y="-80.319" transform="scale(1, -1)"
	style="font-family:Liberation Serif;font-variant:normal;font-weight:normal;font-style:normal;font-size:24px">std::list</text>
</g>
</svg>
