<?xml version="1.0"?>
<!-- Generated by SVGo and Plotinum VG -->
<svg width="1920pt" height="1080pt" viewBox="0 0 1920 1080"
	xmlns="http://www.w3.org/2000/svg"
	xmlns:xlink="http://www.w3.org/1999/xlink">
<g transform="scale(1, -1) translate(0, -1080)">
<path d="M0,0L1920,0L1920,1080L0,1080Z" style="fill:#FFFFFF" />
<text x="823.96" y="-1040.9" transform="scale(1, -1)"
	style="font-family:Liberation Serif;font-variant:normal;font-weight:normal;font-style:normal;font-size:50px">random-erase</text>
<text x="902.77" y="-9.7559" transform="scale(1, -1)"
	style="font-family:Liberation Serif;font-variant:normal;font-weight:normal;font-style:normal;font-size:30px">Number of elements</text>
<text x="135.46" y="-39.727" transform="scale(1, -1)"
	style="font-family:Liberation Serif;font-variant:normal;font-weight:normal;font-style:normal;font-size:20px">10000</text>
<text x="327.63" y="-39.727" transform="scale(1, -1)"
	style="font-family:Liberation Serif;font-variant:normal;font-weight:normal;font-style:normal;font-size:20px">20000</text>
<text x="519.8" y="-39.727" transform="scale(1, -1)"
	style="font-family:Liberation Serif;font-variant:normal;font-weight:normal;font-style:normal;font-size:20px">30000</text>
<text x="711.97" y="-39.727" transform="scale(1, -1)"
	style="font-family:Liberation Serif;font-variant:normal;font-weight:normal;font-style:normal;font-size:20px">40000</text>
<text x="904.15" y="-39.727" transform="scale(1, -1)"
	style="font-family:Liberation Serif;font-variant:normal;font-weight:normal;font-style:normal;font-size:20px">50000</text>
<text x="1096.3" y="-39.727" transform="scale(1, -1)"
	style="font-family:Liberation Serif;font-variant:normal;font-weight:normal;font-style:normal;font-size:20px">60000</text>
<text x="1288.5" y="-39.727" transform="scale(1, -1)"
	style="font-family:Liberation Serif;font-variant:normal;font-weight:normal;font-style:normal;font-size:20px">70000</text>
<text x="1480.7" y="-39.727" transform="scale(1, -1)"
	style="font-family:Liberation Serif;font-variant:normal;font-weight:normal;font-style:normal;font-size:20px">80000</text>
<text x="1672.8" y="-39.727" transform="scale(1, -1)"
	style="font-family:Liberation Serif;font-variant:normal;font-weight:normal;font-style:normal;font-size:20px">90000</text>
<text x="1860" y="-39.727" transform="scale(1, -1)"
	style="font-family:Liberation Serif;font-variant:normal;font-weight:normal;font-style:normal;font-size:20px">100000</text>
<path d="M160.46,55.371L160.46,63.371" style="fill:none;stroke:#000000;stroke-width:0.5" />
<path d="M352.63,55.371L352.63,63.371" style="fill:none;stroke:#000000;stroke-width:0.5" />
<path d="M544.8,55.371L544.8,63.371" style="fill:none;stroke:#000000;stroke-width:0.5" />
<path d="M736.97,55.371L736.97,63.371" style="fill:none;stroke:#000000;stroke-width:0.5" />
<path d="M929.15,55.371L929.15,63.371" style="fill:none;stroke:#000000;stroke-width:0.5" />
<path d="M1121.3,55.371L1121.3,63.371" style="fill:none;stroke:#000000;stroke-width:0.5" />
<path d="M1313.5,55.371L1313.5,63.371" style="fill:none;stroke:#000000;stroke-width:0.5" />
<path d="M1505.7,55.371L1505.7,63.371" style="fill:none;stroke:#000000;stroke-width:0.5" />
<path d="M1697.8,55.371L1697.8,63.371" style="fill:none;stroke:#000000;stroke-width:0.5" />
<path d="M1890,55.371L1890,63.371" style="fill:none;stroke:#000000;stroke-width:0.5" />
<path d="M160.46,63.371L1890,63.371" style="fill:none;stroke:#000000;stroke-width:0.5" />
<g transform="rotate(90)">
<text x="538.49" y="23.467" transform="scale(1, -1)"
	style="font-family:Liberation Serif;font-variant:normal;font-weight:normal;font-style:normal;font-size:30px">μs</text>
</g>
<text x="49.712" y="-151.34" transform="scale(1, -1)"
	style="font-family:Liberation Serif;font-variant:normal;font-weight:normal;font-style:normal;font-size:20px">250000.00</text>
<text x="39.712" y="-550.25" transform="scale(1, -1)"
	style="font-family:Liberation Serif;font-variant:normal;font-weight:normal;font-style:normal;font-size:20px">1000000.00</text>
<text x="39.712" y="-949.15" transform="scale(1, -1)"
	style="font-family:Liberation Serif;font-variant:normal;font-weight:normal;font-style:normal;font-size:20px">1750000.00</text>
<path d="M139.71,155.92L147.71,155.92" style="fill:none;stroke:#000000;stroke-width:0.5" />
<path d="M139.71,554.82L147.71,554.82" style="fill:none;stroke:#000000;stroke-width:0.5" />
<path d="M139.71,953.72L147.71,953.72" style="fill:none;stroke:#000000;stroke-width:0.5" />
<path d="M143.71,355.37L147.71,355.37" style="fill:none;stroke:#000000;stroke-width:0.5" />
<path d="M143.71,754.27L147.71,754.27" style="fill:none;stroke:#000000;stroke-width:0.5" />
<path d="M147.71,80.11L147.71,1024.6" style="fill:none;stroke:#000000;stroke-width:0.5" />
<path d="M160.46,80.11L160.46,1024.6" style="fill:none;stroke:#808080;stroke-width:0.25" />
<path d="M352.63,80.11L352.63,1024.6" style="fill:none;stroke:#808080;stroke-width:0.25" />
<path d="M544.8,80.11L544.8,1024.6" style="fill:none;stroke:#808080;stroke-width:0.25" />
<path d="M736.97,80.11L736.97,1024.6" style="fill:none;stroke:#808080;stroke-width:0.25" />
<path d="M929.15,80.11L929.15,1024.6" style="fill:none;stroke:#808080;stroke-width:0.25" />
<path d="M1121.3,80.11L1121.3,1024.6" style="fill:none;stroke:#808080;stroke-width:0.25" />
<path d="M1313.5,80.11L1313.5,1024.6" style="fill:none;stroke:#808080;stroke-width:0.25" />
<path d="M1505.7,80.11L1505.7,1024.6" style="fill:none;stroke:#808080;stroke-width:0.25" />
<path d="M1697.8,80.11L1697.8,1024.6" style="fill:none;stroke:#808080;stroke-width:0.25" />
<path d="M1890,80.11L1890,1024.6" style="fill:none;stroke:#808080;stroke-width:0.25" />
<path d="M160.46,155.92L1890,155.92" style="fill:none;stroke:#808080;stroke-width:0.25" />
<path d="M160.46,554.82L1890,554.82" style="fill:none;stroke:#808080;stroke-width:0.25" />
<path d="M160.46,953.72L1890,953.72" style="fill:none;stroke:#808080;stroke-width:0.25" />
<path d="M160.46,89.133L352.63,172.95L544.8,233.17L736.97,307.34L929.15,386.05L1121.3,458.07L1313.5,538.25L1505.7,624.35L1697.8,682.53L1890,776.3" style="fill:none;stroke:#FF0000;stroke-width:4" />
<path d="M165.46,89.133A5,5 0 1 1 155.46,89.133A5,5 0 1 1 165.46,89.133Z" style="fill:#FF0000" />
<path d="M357.63,172.95A5,5 0 1 1 347.63,172.95A5,5 0 1 1 357.63,172.95Z" style="fill:#FF0000" />
<path d="M549.8,233.17A5,5 0 1 1 539.8,233.17A5,5 0 1 1 549.8,233.17Z" style="fill:#FF0000" />
<path d="M741.97,307.34A5,5 0 1 1 731.97,307.34A5,5 0 1 1 741.97,307.34Z" style="fill:#FF0000" />
<path d="M934.15,386.05A5,5 0 1 1 924.15,386.05A5,5 0 1 1 934.15,386.05Z" style="fill:#FF0000" />
<path d="M1126.3,458.07A5,5 0 1 1 1116.3,458.07A5,5 0 1 1 1126.3,458.07Z" style="fill:#FF0000" />
<path d="M1318.5,538.25A5,5 0 1 1 1308.5,538.25A5,5 0 1 1 1318.5,538.25Z" style="fill:#FF0000" />
<path d="M1510.7,624.35A5,5 0 1 1 1500.7,624.35A5,5 0 1 1 1510.7,624.35Z" style="fill:#FF0000" />
<path d="M1702.8,682.53A5,5 0 1 1 1692.8,682.53A5,5 0 1 1 1702.8,682.53Z" style="fill:#FF0000" />
<path d="M1895,776.3A5,5 0 1 1 1885,776.3A5,5 0 1 1 1895,776.3Z" style="fill:#FF0000" />
<path d="M160.46,96.717L352.63,175.42L544.8,255.8L736.97,343.04L929.15,434.74L1121.3,514.72L1313.5,609.54L1505.7,691.68L1697.8,806.79L1890,933.57" style="fill:none;stroke:#0000FF;stroke-width:4" />
<path d="M165.46,96.717A5,5 0 1 1 155.46,96.717A5,5 0 1 1 165.46,96.717Z" style="fill:#0000FF" />
<path d="M357.63,175.42A5,5 0 1 1 347.63,175.42A5,5 0 1 1 357.63,175.42Z" style="fill:#0000FF" />
<path d="M549.8,255.8A5,5 0 1 1 539.8,255.8A5,5 0 1 1 549.8,255.8Z" style="fill:#0000FF" />
<path d="M741.97,343.04A5,5 0 1 1 731.97,343.04A5,5 0 1 1 741.97,343.04Z" style="fill:#0000FF" />
<path d="M934.15,434.74A5,5 0 1 1 924.15,434.74A5,5 0 1 1 934.15,434.74Z" style="fill:#0000FF" />
<path d="M1126.3,514.72A5,5 0 1 1 1116.3,514.72A5,5 0 1 1 1126.3,514.72Z" style="fill:#0000FF" />
<path d="M1318.5,609.54A5,5 0 1 1 1308.5,609.54A5,5 0 1 1 1318.5,609.54Z" style="fill:#0000FF" />
<path d="M1510.7,691.68A5,5 0 1 1 1500.7,691.68A5,5 0 1 1 1510.7,691.68Z" style="fill:#0000FF" />
<path d="M1702.8,806.79A5,5 0 1 1 1692.8,806.79A5,5 0 1 1 1702.8,806.79Z" style="fill:#0000FF" />
<path d="M1895,933.57A5,5 0 1 1 1885,933.57A5,5 0 1 1 1895,933.57Z" style="fill:#0000FF" />
<path d="M160.46,80.11L352.63,162.05L544.8,224.56L736.97,303.2L929.15,366.98L1121.3,433.6L1313.5,509.67L1505.7,606.92L1697.8,688.24L1890,777.65" style="fill:none;stroke:#00FF00;stroke-width:4" />
<path d="M165.46,80.11A5,5 0 1 1 155.46,80.11A5,5 0 1 1 165.46,80.11Z" style="fill:#00FF00" />
<path d="M357.63,162.05A5,5 0 1 1 347.63,162.05A5,5 0 1 1 357.63,162.05Z" style="fill:#00FF00" />
<path d="M549.8,224.56A5,5 0 1 1 539.8,224.56A5,5 0 1 1 549.8,224.56Z" style="fill:#00FF00" />
<path d="M741.97,303.2A5,5 0 1 1 731.97,303.2A5,5 0 1 1 741.97,303.2Z" style="fill:#00FF00" />
<path d="M934.15,366.98A5,5 0 1 1 924.15,366.98A5,5 0 1 1 934.15,366.98Z" style="fill:#00FF00" />
<path d="M1126.3,433.6A5,5 0 1 1 1116.3,433.6A5,5 0 1 1 1126.3,433.6Z" style="fill:#00FF00" />
<path d="M1318.5,509.67A5,5 0 1 1 1308.5,509.67A5,5 0 1 1 1318.5,509.67Z" style="fill:#00FF00" />
<path d="M1510.7,606.92A5,5 0 1 1 1500.7,606.92A5,5 0 1 1 1510.7,606.92Z" style="fill:#00FF00" />
<path d="M1702.8,688.24A5,5 0 1 1 1692.8,688.24A5,5 0 1 1 1702.8,688.24Z" style="fill:#00FF00" />
<path d="M1895,777.65A5,5 0 1 1 1885,777.65A5,5 0 1 1 1895,777.65Z" style="fill:#00FF00" />
<path d="M1900,126.03L1920,126.03" style="fill:none;stroke:#FF0000;stroke-width:4" />
<path d="M1915,126.03A5,5 0 1 1 1905,126.03A5,5 0 1 1 1915,126.03Z" style="fill:#FF0000" />
<text x="1823.3" y="-121.05" transform="scale(1, -1)"
	style="font-family:Liberation Serif;font-variant:normal;font-weight:normal;font-style:normal;font-size:24px">std::list</text>
<path d="M1900,105.66L1920,105.66" style="fill:none;stroke:#0000FF;stroke-width:4" />
<path d="M1915,105.66A5,5 0 1 1 1905,105.66A5,5 0 1 1 1915,105.66Z" style="fill:#0000FF" />
<text x="1795.4" y="-100.69" transform="scale(1, -1)"
	style="font-family:Liberation Serif;font-variant:normal;font-weight:normal;font-style:normal;font-size:24px">std::deque</text>
<path d="M1900,85.294L1920,85.294" style="fill:none;stroke:#00FF00;stroke-width:4" />
<path d="M1915,85.294A5,5 0 1 1 1905,85.294A5,5 0 1 1 1915,85.294Z" style="fill:#00FF00" />
<text x="1792.7" y="-80.319" transform="scale(1, -1)"
	style="font-family:Liberation Serif;font-variant:normal;font-weight:normal;font-style:normal;font-size:24px">std::vector</text>
</g>
</svg>
