<?xml version="1.0"?>
<!-- Generated by SVGo and Plotinum VG -->
<svg width="1920pt" height="1080pt" viewBox="0 0 1920 1080"
	xmlns="http://www.w3.org/2000/svg"
	xmlns:xlink="http://www.w3.org/1999/xlink">
<g transform="scale(1, -1) translate(0, -1080)">
<path d="M0,0L1920,0L1920,1080L0,1080Z" style="fill:#FFFFFF" />
<text x="702.48" y="-1040.9" transform="scale(1, -1)"
	style="font-family:Liberation Serif;font-variant:normal;font-weight:normal;font-style:normal;font-size:50px">random-erase - Log Scale</text>
<text x="890.27" y="-9.7559" transform="scale(1, -1)"
	style="font-family:Liberation Serif;font-variant:normal;font-weight:normal;font-style:normal;font-size:30px">Number of elements</text>
<text x="110.46" y="-39.727" transform="scale(1, -1)"
	style="font-family:Liberation Serif;font-variant:normal;font-weight:normal;font-style:normal;font-size:20px">10000</text>
<text x="305.41" y="-39.727" transform="scale(1, -1)"
	style="font-family:Liberation Serif;font-variant:normal;font-weight:normal;font-style:normal;font-size:20px">20000</text>
<text x="500.36" y="-39.727" transform="scale(1, -1)"
	style="font-family:Liberation Serif;font-variant:normal;font-weight:normal;font-style:normal;font-size:20px">30000</text>
<text x="695.31" y="-39.727" transform="scale(1, -1)"
	style="font-family:Liberation Serif;font-variant:normal;font-weight:normal;font-style:normal;font-size:20px">40000</text>
<text x="890.26" y="-39.727" transform="scale(1, -1)"
	style="font-family:Liberation Serif;font-variant:normal;font-weight:normal;font-style:normal;font-size:20px">50000</text>
<text x="1085.2" y="-39.727" transform="scale(1, -1)"
	style="font-family:Liberation Serif;font-variant:normal;font-weight:normal;font-style:normal;font-size:20px">60000</text>
<text x="1280.2" y="-39.727" transform="scale(1, -1)"
	style="font-family:Liberation Serif;font-variant:normal;font-weight:normal;font-style:normal;font-size:20px">70000</text>
<text x="1475.1" y="-39.727" transform="scale(1, -1)"
	style="font-family:Liberation Serif;font-variant:normal;font-weight:normal;font-style:normal;font-size:20px">80000</text>
<text x="1670.1" y="-39.727" transform="scale(1, -1)"
	style="font-family:Liberation Serif;font-variant:normal;font-weight:normal;font-style:normal;font-size:20px">90000</text>
<text x="1860" y="-39.727" transform="scale(1, -1)"
	style="font-family:Liberation Serif;font-variant:normal;font-weight:normal;font-style:normal;font-size:20px">100000</text>
<path d="M135.46,55.371L135.46,63.371" style="fill:none;stroke:#000000;stroke-width:0.5" />
<path d="M330.41,55.371L330.41,63.371" style="fill:none;stroke:#000000;stroke-width:0.5" />
<path d="M525.36,55.371L525.36,63.371" style="fill:none;stroke:#000000;stroke-width:0.5" />
<path d="M720.31,55.371L720.31,63.371" style="fill:none;stroke:#000000;stroke-width:0.5" />
<path d="M915.26,55.371L915.26,63.371" style="fill:none;stroke:#000000;stroke-width:0.5" />
<path d="M1110.2,55.371L1110.2,63.371" style="fill:none;stroke:#000000;stroke-width:0.5" />
<path d="M1305.2,55.371L1305.2,63.371" style="fill:none;stroke:#000000;stroke-width:0.5" />
<path d="M1500.1,55.371L1500.1,63.371" style="fill:none;stroke:#000000;stroke-width:0.5" />
<path d="M1695.1,55.371L1695.1,63.371" style="fill:none;stroke:#000000;stroke-width:0.5" />
<path d="M1890,55.371L1890,63.371" style="fill:none;stroke:#000000;stroke-width:0.5" />
<path d="M135.46,63.371L1890,63.371" style="fill:none;stroke:#000000;stroke-width:0.5" />
<g transform="rotate(90)">
<text x="509.33" y="23.467" transform="scale(1, -1)"
	style="font-family:Liberation Serif;font-variant:normal;font-weight:normal;font-style:normal;font-size:30px">log(μs)</text>
</g>
<text x="49.712" y="-447.71" transform="scale(1, -1)"
	style="font-family:Liberation Serif;font-variant:normal;font-weight:normal;font-style:normal;font-size:20px">400000</text>
<text x="39.712" y="-828.04" transform="scale(1, -1)"
	style="font-family:Liberation Serif;font-variant:normal;font-weight:normal;font-style:normal;font-size:20px">1200000</text>
<text x="39.712" y="-1004.9" transform="scale(1, -1)"
	style="font-family:Liberation Serif;font-variant:normal;font-weight:normal;font-style:normal;font-size:20px">2000000</text>
<path d="M114.71,452.28L122.71,452.28" style="fill:none;stroke:#000000;stroke-width:0.5" />
<path d="M114.71,832.61L122.71,832.61" style="fill:none;stroke:#000000;stroke-width:0.5" />
<path d="M114.71,1009.5L122.71,1009.5" style="fill:none;stroke:#000000;stroke-width:0.5" />
<path d="M118.71,692.24L122.71,692.24" style="fill:none;stroke:#000000;stroke-width:0.5" />
<path d="M118.71,932.21L122.71,932.21" style="fill:none;stroke:#000000;stroke-width:0.5" />
<path d="M122.71,80.11L122.71,1024.6" style="fill:none;stroke:#000000;stroke-width:0.5" />
<path d="M135.46,80.11L135.46,1024.6" style="fill:none;stroke:#808080;stroke-width:0.25" />
<path d="M330.41,80.11L330.41,1024.6" style="fill:none;stroke:#808080;stroke-width:0.25" />
<path d="M525.36,80.11L525.36,1024.6" style="fill:none;stroke:#808080;stroke-width:0.25" />
<path d="M720.31,80.11L720.31,1024.6" style="fill:none;stroke:#808080;stroke-width:0.25" />
<path d="M915.26,80.11L915.26,1024.6" style="fill:none;stroke:#808080;stroke-width:0.25" />
<path d="M1110.2,80.11L1110.2,1024.6" style="fill:none;stroke:#808080;stroke-width:0.25" />
<path d="M1305.2,80.11L1305.2,1024.6" style="fill:none;stroke:#808080;stroke-width:0.25" />
<path d="M1500.1,80.11L1500.1,1024.6" style="fill:none;stroke:#808080;stroke-width:0.25" />
<path d="M1695.1,80.11L1695.1,1024.6" style="fill:none;stroke:#808080;stroke-width:0.25" />
<path d="M1890,80.11L1890,1024.6" style="fill:none;stroke:#808080;stroke-width:0.25" />
<path d="M135.46,452.28L1890,452.28" style="fill:none;stroke:#808080;stroke-width:0.25" />
<path d="M135.46,832.61L1890,832.61" style="fill:none;stroke:#808080;stroke-width:0.25" />
<path d="M135.46,1009.5L1890,1009.5" style="fill:none;stroke:#808080;stroke-width:0.25" />
<path d="M135.46,124.02L330.41,358.52L525.36,528.69L720.31,618.58L915.26,722.81L1110.2,778.42L1305.2,843.12L1500.1,919.49L1695.1,945.71L1890,991.63" style="fill:none;stroke:#FF0000;stroke-width:4" />
<path d="M140.46,124.02A5,5 0 1 1 130.46,124.02A5,5 0 1 1 140.46,124.02Z" style="fill:#FF0000" />
<path d="M335.41,358.52A5,5 0 1 1 325.41,358.52A5,5 0 1 1 335.41,358.52Z" style="fill:#FF0000" />
<path d="M530.36,528.69A5,5 0 1 1 520.36,528.69A5,5 0 1 1 530.36,528.69Z" style="fill:#FF0000" />
<path d="M725.31,618.58A5,5 0 1 1 715.31,618.58A5,5 0 1 1 725.31,618.58Z" style="fill:#FF0000" />
<path d="M920.26,722.81A5,5 0 1 1 910.26,722.81A5,5 0 1 1 920.26,722.81Z" style="fill:#FF0000" />
<path d="M1115.2,778.42A5,5 0 1 1 1105.2,778.42A5,5 0 1 1 1115.2,778.42Z" style="fill:#FF0000" />
<path d="M1310.2,843.12A5,5 0 1 1 1300.2,843.12A5,5 0 1 1 1310.2,843.12Z" style="fill:#FF0000" />
<path d="M1505.1,919.49A5,5 0 1 1 1495.1,919.49A5,5 0 1 1 1505.1,919.49Z" style="fill:#FF0000" />
<path d="M1700.1,945.71A5,5 0 1 1 1690.1,945.71A5,5 0 1 1 1700.1,945.71Z" style="fill:#FF0000" />
<path d="M1895,991.63A5,5 0 1 1 1885,991.63A5,5 0 1 1 1895,991.63Z" style="fill:#FF0000" />
<path d="M135.46,87.191L330.41,351.15L525.36,492.18L720.31,582.8L915.26,649.66L1110.2,720.75L1305.2,777.58L1500.1,818.45L1695.1,856.65L1890,886.59" style="fill:none;stroke:#0000FF;stroke-width:4" />
<path d="M140.46,87.191A5,5 0 1 1 130.46,87.191A5,5 0 1 1 140.46,87.191Z" style="fill:#0000FF" />
<path d="M335.41,351.15A5,5 0 1 1 325.41,351.15A5,5 0 1 1 335.41,351.15Z" style="fill:#0000FF" />
<path d="M530.36,492.18A5,5 0 1 1 520.36,492.18A5,5 0 1 1 530.36,492.18Z" style="fill:#0000FF" />
<path d="M725.31,582.8A5,5 0 1 1 715.31,582.8A5,5 0 1 1 725.31,582.8Z" style="fill:#0000FF" />
<path d="M920.26,649.66A5,5 0 1 1 910.26,649.66A5,5 0 1 1 920.26,649.66Z" style="fill:#0000FF" />
<path d="M1115.2,720.75A5,5 0 1 1 1105.2,720.75A5,5 0 1 1 1115.2,720.75Z" style="fill:#0000FF" />
<path d="M1310.2,777.58A5,5 0 1 1 1300.2,777.58A5,5 0 1 1 1310.2,777.58Z" style="fill:#0000FF" />
<path d="M1505.1,818.45A5,5 0 1 1 1495.1,818.45A5,5 0 1 1 1505.1,818.45Z" style="fill:#0000FF" />
<path d="M1700.1,856.65A5,5 0 1 1 1690.1,856.65A5,5 0 1 1 1700.1,856.65Z" style="fill:#0000FF" />
<path d="M1895,886.59A5,5 0 1 1 1885,886.59A5,5 0 1 1 1895,886.59Z" style="fill:#0000FF" />
<path d="M135.46,80.11L330.41,310.77L525.36,451.63L720.31,544.14L915.26,646.54L1110.2,715.52L1305.2,767.45L1500.1,814.68L1695.1,844.83L1890,898.35" style="fill:none;stroke:#00FF00;stroke-width:4" />
<path d="M140.46,80.11A5,5 0 1 1 130.46,80.11A5,5 0 1 1 140.46,80.11Z" style="fill:#00FF00" />
<path d="M335.41,310.77A5,5 0 1 1 325.41,310.77A5,5 0 1 1 335.41,310.77Z" style="fill:#00FF00" />
<path d="M530.36,451.63A5,5 0 1 1 520.36,451.63A5,5 0 1 1 530.36,451.63Z" style="fill:#00FF00" />
<path d="M725.31,544.14A5,5 0 1 1 715.31,544.14A5,5 0 1 1 725.31,544.14Z" style="fill:#00FF00" />
<path d="M920.26,646.54A5,5 0 1 1 910.26,646.54A5,5 0 1 1 920.26,646.54Z" style="fill:#00FF00" />
<path d="M1115.2,715.52A5,5 0 1 1 1105.2,715.52A5,5 0 1 1 1115.2,715.52Z" style="fill:#00FF00" />
<path d="M1310.2,767.45A5,5 0 1 1 1300.2,767.45A5,5 0 1 1 1310.2,767.45Z" style="fill:#00FF00" />
<path d="M1505.1,814.68A5,5 0 1 1 1495.1,814.68A5,5 0 1 1 1505.1,814.68Z" style="fill:#00FF00" />
<path d="M1700.1,844.83A5,5 0 1 1 1690.1,844.83A5,5 0 1 1 1700.1,844.83Z" style="fill:#00FF00" />
<path d="M1895,898.35A5,5 0 1 1 1885,898.35A5,5 0 1 1 1895,898.35Z" style="fill:#00FF00" />
<path d="M1900,126.03L1920,126.03" style="fill:none;stroke:#FF0000;stroke-width:4" />
<path d="M1915,126.03A5,5 0 1 1 1905,126.03A5,5 0 1 1 1915,126.03Z" style="fill:#FF0000" />
<text x="1823.3" y="-121.05" transform="scale(1, -1)"
	style="font-family:Liberation Serif;font-variant:normal;font-weight:normal;font-style:normal;font-size:24px">std::list</text>
<path d="M1900,105.66L1920,105.66" style="fill:none;stroke:#0000FF;stroke-width:4" />
<path d="M1915,105.66A5,5 0 1 1 1905,105.66A5,5 0 1 1 1915,105.66Z" style="fill:#0000FF" />
<text x="1795.4" y="-100.69" transform="scale(1, -1)"
	style="font-family:Liberation Serif;font-variant:normal;font-weight:normal;font-style:normal;font-size:24px">std::deque</text>
<path d="M1900,85.294L1920,85.294" style="fill:none;stroke:#00FF00;stroke-width:4" />
<path d="M1915,85.294A5,5 0 1 1 1905,85.294A5,5 0 1 1 1915,85.294Z" style="fill:#00FF00" />
<text x="1792.7" y="-80.319" transform="scale(1, -1)"
	style="font-family:Liberation Serif;font-variant:normal;font-weight:normal;font-style:normal;font-size:24px">std::vector</text>
</g>
</svg>
