<?xml version="1.0"?>
<!-- Generated by SVGo and Plotinum VG -->
<svg width="1920pt" height="1080pt" viewBox="0 0 1920 1080"
	xmlns="http://www.w3.org/2000/svg"
	xmlns:xlink="http://www.w3.org/1999/xlink">
<g transform="scale(1, -1) translate(0, -1080)">
<path d="M0,0L1920,0L1920,1080L0,1080Z" style="fill:#FFFFFF" />
<text x="702.48" y="-1040.9" transform="scale(1, -1)"
	style="font-family:Liberation Serif;font-variant:normal;font-weight:normal;font-style:normal;font-size:50px">random-erase - Log Scale</text>
<text x="895.27" y="-9.7559" transform="scale(1, -1)"
	style="font-family:Liberation Serif;font-variant:normal;font-weight:normal;font-style:normal;font-size:30px">Number of elements</text>
<text x="120.46" y="-39.727" transform="scale(1, -1)"
	style="font-family:Liberation Serif;font-variant:normal;font-weight:normal;font-style:normal;font-size:20px">10000</text>
<text x="314.3" y="-39.727" transform="scale(1, -1)"
	style="font-family:Liberation Serif;font-variant:normal;font-weight:normal;font-style:normal;font-size:20px">20000</text>
<text x="508.14" y="-39.727" transform="scale(1, -1)"
	style="font-family:Liberation Serif;font-variant:normal;font-weight:normal;font-style:normal;font-size:20px">30000</text>
<text x="701.97" y="-39.727" transform="scale(1, -1)"
	style="font-family:Liberation Serif;font-variant:normal;font-weight:normal;font-style:normal;font-size:20px">40000</text>
<text x="895.81" y="-39.727" transform="scale(1, -1)"
	style="font-family:Liberation Serif;font-variant:normal;font-weight:normal;font-style:normal;font-size:20px">50000</text>
<text x="1089.6" y="-39.727" transform="scale(1, -1)"
	style="font-family:Liberation Serif;font-variant:normal;font-weight:normal;font-style:normal;font-size:20px">60000</text>
<text x="1283.5" y="-39.727" transform="scale(1, -1)"
	style="font-family:Liberation Serif;font-variant:normal;font-weight:normal;font-style:normal;font-size:20px">70000</text>
<text x="1477.3" y="-39.727" transform="scale(1, -1)"
	style="font-family:Liberation Serif;font-variant:normal;font-weight:normal;font-style:normal;font-size:20px">80000</text>
<text x="1671.2" y="-39.727" transform="scale(1, -1)"
	style="font-family:Liberation Serif;font-variant:normal;font-weight:normal;font-style:normal;font-size:20px">90000</text>
<text x="1860" y="-39.727" transform="scale(1, -1)"
	style="font-family:Liberation Serif;font-variant:normal;font-weight:normal;font-style:normal;font-size:20px">100000</text>
<path d="M145.46,55.371L145.46,63.371" style="fill:none;stroke:#000000;stroke-width:0.5" />
<path d="M339.3,55.371L339.3,63.371" style="fill:none;stroke:#000000;stroke-width:0.5" />
<path d="M533.14,55.371L533.14,63.371" style="fill:none;stroke:#000000;stroke-width:0.5" />
<path d="M726.97,55.371L726.97,63.371" style="fill:none;stroke:#000000;stroke-width:0.5" />
<path d="M920.81,55.371L920.81,63.371" style="fill:none;stroke:#000000;stroke-width:0.5" />
<path d="M1114.6,55.371L1114.6,63.371" style="fill:none;stroke:#000000;stroke-width:0.5" />
<path d="M1308.5,55.371L1308.5,63.371" style="fill:none;stroke:#000000;stroke-width:0.5" />
<path d="M1502.3,55.371L1502.3,63.371" style="fill:none;stroke:#000000;stroke-width:0.5" />
<path d="M1696.2,55.371L1696.2,63.371" style="fill:none;stroke:#000000;stroke-width:0.5" />
<path d="M1890,55.371L1890,63.371" style="fill:none;stroke:#000000;stroke-width:0.5" />
<path d="M145.46,63.371L1890,63.371" style="fill:none;stroke:#000000;stroke-width:0.5" />
<g transform="rotate(90)">
<text x="509.33" y="23.467" transform="scale(1, -1)"
	style="font-family:Liberation Serif;font-variant:normal;font-weight:normal;font-style:normal;font-size:30px">log(μs)</text>
</g>
<text x="49.712" y="-434.13" transform="scale(1, -1)"
	style="font-family:Liberation Serif;font-variant:normal;font-weight:normal;font-style:normal;font-size:20px">4000000</text>
<text x="39.712" y="-824.59" transform="scale(1, -1)"
	style="font-family:Liberation Serif;font-variant:normal;font-weight:normal;font-style:normal;font-size:20px">16000000</text>
<text x="39.712" y="-982.2" transform="scale(1, -1)"
	style="font-family:Liberation Serif;font-variant:normal;font-weight:normal;font-style:normal;font-size:20px">28000000</text>
<path d="M124.71,438.7L132.71,438.7" style="fill:none;stroke:#000000;stroke-width:0.5" />
<path d="M124.71,829.16L132.71,829.16" style="fill:none;stroke:#000000;stroke-width:0.5" />
<path d="M124.71,986.77L132.71,986.77" style="fill:none;stroke:#000000;stroke-width:0.5" />
<path d="M128.71,696.78L132.71,696.78" style="fill:none;stroke:#000000;stroke-width:0.5" />
<path d="M128.71,918.85L132.71,918.85" style="fill:none;stroke:#000000;stroke-width:0.5" />
<path d="M132.71,80.11L132.71,1024.6" style="fill:none;stroke:#000000;stroke-width:0.5" />
<path d="M145.46,80.11L145.46,1024.6" style="fill:none;stroke:#808080;stroke-width:0.25" />
<path d="M339.3,80.11L339.3,1024.6" style="fill:none;stroke:#808080;stroke-width:0.25" />
<path d="M533.14,80.11L533.14,1024.6" style="fill:none;stroke:#808080;stroke-width:0.25" />
<path d="M726.97,80.11L726.97,1024.6" style="fill:none;stroke:#808080;stroke-width:0.25" />
<path d="M920.81,80.11L920.81,1024.6" style="fill:none;stroke:#808080;stroke-width:0.25" />
<path d="M1114.6,80.11L1114.6,1024.6" style="fill:none;stroke:#808080;stroke-width:0.25" />
<path d="M1308.5,80.11L1308.5,1024.6" style="fill:none;stroke:#808080;stroke-width:0.25" />
<path d="M1502.3,80.11L1502.3,1024.6" style="fill:none;stroke:#808080;stroke-width:0.25" />
<path d="M1696.2,80.11L1696.2,1024.6" style="fill:none;stroke:#808080;stroke-width:0.25" />
<path d="M1890,80.11L1890,1024.6" style="fill:none;stroke:#808080;stroke-width:0.25" />
<path d="M145.46,438.7L1890,438.7" style="fill:none;stroke:#808080;stroke-width:0.25" />
<path d="M145.46,829.16L1890,829.16" style="fill:none;stroke:#808080;stroke-width:0.25" />
<path d="M145.46,986.77L1890,986.77" style="fill:none;stroke:#808080;stroke-width:0.25" />
<path d="M145.46,80.11L339.3,308.07L533.14,433.3L726.97,530.48L920.81,614.69L1114.6,663.87L1308.5,714.13L1502.3,757.33L1696.2,793.65L1890,820.83" style="fill:none;stroke:#FF0000;stroke-width:4" />
<path d="M150.46,80.11A5,5 0 1 1 140.46,80.11A5,5 0 1 1 150.46,80.11Z" style="fill:#FF0000" />
<path d="M344.3,308.07A5,5 0 1 1 334.3,308.07A5,5 0 1 1 344.3,308.07Z" style="fill:#FF0000" />
<path d="M538.14,433.3A5,5 0 1 1 528.14,433.3A5,5 0 1 1 538.14,433.3Z" style="fill:#FF0000" />
<path d="M731.97,530.48A5,5 0 1 1 721.97,530.48A5,5 0 1 1 731.97,530.48Z" style="fill:#FF0000" />
<path d="M925.81,614.69A5,5 0 1 1 915.81,614.69A5,5 0 1 1 925.81,614.69Z" style="fill:#FF0000" />
<path d="M1119.6,663.87A5,5 0 1 1 1109.6,663.87A5,5 0 1 1 1119.6,663.87Z" style="fill:#FF0000" />
<path d="M1313.5,714.13A5,5 0 1 1 1303.5,714.13A5,5 0 1 1 1313.5,714.13Z" style="fill:#FF0000" />
<path d="M1507.3,757.33A5,5 0 1 1 1497.3,757.33A5,5 0 1 1 1507.3,757.33Z" style="fill:#FF0000" />
<path d="M1701.2,793.65A5,5 0 1 1 1691.2,793.65A5,5 0 1 1 1701.2,793.65Z" style="fill:#FF0000" />
<path d="M1895,820.83A5,5 0 1 1 1885,820.83A5,5 0 1 1 1895,820.83Z" style="fill:#FF0000" />
<path d="M145.46,199.03L339.3,436.41L533.14,569.02L726.97,671.96L920.81,743.12L1114.6,801.56L1308.5,851.06L1502.3,892.54L1696.2,934.17L1890,951.88" style="fill:none;stroke:#0000FF;stroke-width:4" />
<path d="M150.46,199.03A5,5 0 1 1 140.46,199.03A5,5 0 1 1 150.46,199.03Z" style="fill:#0000FF" />
<path d="M344.3,436.41A5,5 0 1 1 334.3,436.41A5,5 0 1 1 344.3,436.41Z" style="fill:#0000FF" />
<path d="M538.14,569.02A5,5 0 1 1 528.14,569.02A5,5 0 1 1 538.14,569.02Z" style="fill:#0000FF" />
<path d="M731.97,671.96A5,5 0 1 1 721.97,671.96A5,5 0 1 1 731.97,671.96Z" style="fill:#0000FF" />
<path d="M925.81,743.12A5,5 0 1 1 915.81,743.12A5,5 0 1 1 925.81,743.12Z" style="fill:#0000FF" />
<path d="M1119.6,801.56A5,5 0 1 1 1109.6,801.56A5,5 0 1 1 1119.6,801.56Z" style="fill:#0000FF" />
<path d="M1313.5,851.06A5,5 0 1 1 1303.5,851.06A5,5 0 1 1 1313.5,851.06Z" style="fill:#0000FF" />
<path d="M1507.3,892.54A5,5 0 1 1 1497.3,892.54A5,5 0 1 1 1507.3,892.54Z" style="fill:#0000FF" />
<path d="M1701.2,934.17A5,5 0 1 1 1691.2,934.17A5,5 0 1 1 1701.2,934.17Z" style="fill:#0000FF" />
<path d="M1895,951.88A5,5 0 1 1 1885,951.88A5,5 0 1 1 1895,951.88Z" style="fill:#0000FF" />
<path d="M145.46,309.58L339.3,534.73L533.14,647.86L726.97,733.35L920.81,798.27L1114.6,850.1L1308.5,896.65L1502.3,938.46L1696.2,966.82L1890,997.78" style="fill:none;stroke:#00FF00;stroke-width:4" />
<path d="M150.46,309.58A5,5 0 1 1 140.46,309.58A5,5 0 1 1 150.46,309.58Z" style="fill:#00FF00" />
<path d="M344.3,534.73A5,5 0 1 1 334.3,534.73A5,5 0 1 1 344.3,534.73Z" style="fill:#00FF00" />
<path d="M538.14,647.86A5,5 0 1 1 528.14,647.86A5,5 0 1 1 538.14,647.86Z" style="fill:#00FF00" />
<path d="M731.97,733.35A5,5 0 1 1 721.97,733.35A5,5 0 1 1 731.97,733.35Z" style="fill:#00FF00" />
<path d="M925.81,798.27A5,5 0 1 1 915.81,798.27A5,5 0 1 1 925.81,798.27Z" style="fill:#00FF00" />
<path d="M1119.6,850.1A5,5 0 1 1 1109.6,850.1A5,5 0 1 1 1119.6,850.1Z" style="fill:#00FF00" />
<path d="M1313.5,896.65A5,5 0 1 1 1303.5,896.65A5,5 0 1 1 1313.5,896.65Z" style="fill:#00FF00" />
<path d="M1507.3,938.46A5,5 0 1 1 1497.3,938.46A5,5 0 1 1 1507.3,938.46Z" style="fill:#00FF00" />
<path d="M1701.2,966.82A5,5 0 1 1 1691.2,966.82A5,5 0 1 1 1701.2,966.82Z" style="fill:#00FF00" />
<path d="M1895,997.78A5,5 0 1 1 1885,997.78A5,5 0 1 1 1895,997.78Z" style="fill:#00FF00" />
<path d="M1900,126.03L1920,126.03" style="fill:none;stroke:#FF0000;stroke-width:4" />
<path d="M1915,126.03A5,5 0 1 1 1905,126.03A5,5 0 1 1 1915,126.03Z" style="fill:#FF0000" />
<text x="1823.3" y="-121.05" transform="scale(1, -1)"
	style="font-family:Liberation Serif;font-variant:normal;font-weight:normal;font-style:normal;font-size:24px">std::list</text>
<path d="M1900,105.66L1920,105.66" style="fill:none;stroke:#0000FF;stroke-width:4" />
<path d="M1915,105.66A5,5 0 1 1 1905,105.66A5,5 0 1 1 1915,105.66Z" style="fill:#0000FF" />
<text x="1795.4" y="-100.69" transform="scale(1, -1)"
	style="font-family:Liberation Serif;font-variant:normal;font-weight:normal;font-style:normal;font-size:24px">std::deque</text>
<path d="M1900,85.294L1920,85.294" style="fill:none;stroke:#00FF00;stroke-width:4" />
<path d="M1915,85.294A5,5 0 1 1 1905,85.294A5,5 0 1 1 1915,85.294Z" style="fill:#00FF00" />
<text x="1792.7" y="-80.319" transform="scale(1, -1)"
	style="font-family:Liberation Serif;font-variant:normal;font-weight:normal;font-style:normal;font-size:24px">std::vector</text>
</g>
</svg>
