<?xml version="1.0"?>
<!-- Generated by SVGo and Plotinum VG -->
<svg width="1920pt" height="1080pt" viewBox="0 0 1920 1080"
	xmlns="http://www.w3.org/2000/svg"
	xmlns:xlink="http://www.w3.org/1999/xlink">
<g transform="scale(1, -1) translate(0, -1080)">
<path d="M0,0L1920,0L1920,1080L0,1080Z" style="fill:#FFFFFF" />
<text x="702.48" y="-1040.9" transform="scale(1, -1)"
	style="font-family:Liberation Serif;font-variant:normal;font-weight:normal;font-style:normal;font-size:50px">random-erase - Log Scale</text>
<text x="890.27" y="-9.7559" transform="scale(1, -1)"
	style="font-family:Liberation Serif;font-variant:normal;font-weight:normal;font-style:normal;font-size:30px">Number of elements</text>
<text x="110.46" y="-39.727" transform="scale(1, -1)"
	style="font-family:Liberation Serif;font-variant:normal;font-weight:normal;font-style:normal;font-size:20px">10000</text>
<text x="305.41" y="-39.727" transform="scale(1, -1)"
	style="font-family:Liberation Serif;font-variant:normal;font-weight:normal;font-style:normal;font-size:20px">20000</text>
<text x="500.36" y="-39.727" transform="scale(1, -1)"
	style="font-family:Liberation Serif;font-variant:normal;font-weight:normal;font-style:normal;font-size:20px">30000</text>
<text x="695.31" y="-39.727" transform="scale(1, -1)"
	style="font-family:Liberation Serif;font-variant:normal;font-weight:normal;font-style:normal;font-size:20px">40000</text>
<text x="890.26" y="-39.727" transform="scale(1, -1)"
	style="font-family:Liberation Serif;font-variant:normal;font-weight:normal;font-style:normal;font-size:20px">50000</text>
<text x="1085.2" y="-39.727" transform="scale(1, -1)"
	style="font-family:Liberation Serif;font-variant:normal;font-weight:normal;font-style:normal;font-size:20px">60000</text>
<text x="1280.2" y="-39.727" transform="scale(1, -1)"
	style="font-family:Liberation Serif;font-variant:normal;font-weight:normal;font-style:normal;font-size:20px">70000</text>
<text x="1475.1" y="-39.727" transform="scale(1, -1)"
	style="font-family:Liberation Serif;font-variant:normal;font-weight:normal;font-style:normal;font-size:20px">80000</text>
<text x="1670.1" y="-39.727" transform="scale(1, -1)"
	style="font-family:Liberation Serif;font-variant:normal;font-weight:normal;font-style:normal;font-size:20px">90000</text>
<text x="1860" y="-39.727" transform="scale(1, -1)"
	style="font-family:Liberation Serif;font-variant:normal;font-weight:normal;font-style:normal;font-size:20px">100000</text>
<path d="M135.46,55.371L135.46,63.371" style="fill:none;stroke:#000000;stroke-width:0.5" />
<path d="M330.41,55.371L330.41,63.371" style="fill:none;stroke:#000000;stroke-width:0.5" />
<path d="M525.36,55.371L525.36,63.371" style="fill:none;stroke:#000000;stroke-width:0.5" />
<path d="M720.31,55.371L720.31,63.371" style="fill:none;stroke:#000000;stroke-width:0.5" />
<path d="M915.26,55.371L915.26,63.371" style="fill:none;stroke:#000000;stroke-width:0.5" />
<path d="M1110.2,55.371L1110.2,63.371" style="fill:none;stroke:#000000;stroke-width:0.5" />
<path d="M1305.2,55.371L1305.2,63.371" style="fill:none;stroke:#000000;stroke-width:0.5" />
<path d="M1500.1,55.371L1500.1,63.371" style="fill:none;stroke:#000000;stroke-width:0.5" />
<path d="M1695.1,55.371L1695.1,63.371" style="fill:none;stroke:#000000;stroke-width:0.5" />
<path d="M1890,55.371L1890,63.371" style="fill:none;stroke:#000000;stroke-width:0.5" />
<path d="M135.46,63.371L1890,63.371" style="fill:none;stroke:#000000;stroke-width:0.5" />
<g transform="rotate(90)">
<text x="509.33" y="23.467" transform="scale(1, -1)"
	style="font-family:Liberation Serif;font-variant:normal;font-weight:normal;font-style:normal;font-size:30px">log(μs)</text>
</g>
<text x="49.712" y="-447.24" transform="scale(1, -1)"
	style="font-family:Liberation Serif;font-variant:normal;font-weight:normal;font-style:normal;font-size:20px">500000</text>
<text x="39.712" y="-831.3" transform="scale(1, -1)"
	style="font-family:Liberation Serif;font-variant:normal;font-weight:normal;font-style:normal;font-size:20px">2000000</text>
<text x="39.712" y="-986.34" transform="scale(1, -1)"
	style="font-family:Liberation Serif;font-variant:normal;font-weight:normal;font-style:normal;font-size:20px">3500000</text>
<path d="M114.71,451.81L122.71,451.81" style="fill:none;stroke:#000000;stroke-width:0.5" />
<path d="M114.71,835.87L122.71,835.87" style="fill:none;stroke:#000000;stroke-width:0.5" />
<path d="M114.71,990.91L122.71,990.91" style="fill:none;stroke:#000000;stroke-width:0.5" />
<path d="M118.71,705.66L122.71,705.66" style="fill:none;stroke:#000000;stroke-width:0.5" />
<path d="M118.71,924.1L122.71,924.1" style="fill:none;stroke:#000000;stroke-width:0.5" />
<path d="M122.71,80.11L122.71,1024.6" style="fill:none;stroke:#000000;stroke-width:0.5" />
<path d="M135.46,80.11L135.46,1024.6" style="fill:none;stroke:#808080;stroke-width:0.25" />
<path d="M330.41,80.11L330.41,1024.6" style="fill:none;stroke:#808080;stroke-width:0.25" />
<path d="M525.36,80.11L525.36,1024.6" style="fill:none;stroke:#808080;stroke-width:0.25" />
<path d="M720.31,80.11L720.31,1024.6" style="fill:none;stroke:#808080;stroke-width:0.25" />
<path d="M915.26,80.11L915.26,1024.6" style="fill:none;stroke:#808080;stroke-width:0.25" />
<path d="M1110.2,80.11L1110.2,1024.6" style="fill:none;stroke:#808080;stroke-width:0.25" />
<path d="M1305.2,80.11L1305.2,1024.6" style="fill:none;stroke:#808080;stroke-width:0.25" />
<path d="M1500.1,80.11L1500.1,1024.6" style="fill:none;stroke:#808080;stroke-width:0.25" />
<path d="M1695.1,80.11L1695.1,1024.6" style="fill:none;stroke:#808080;stroke-width:0.25" />
<path d="M1890,80.11L1890,1024.6" style="fill:none;stroke:#808080;stroke-width:0.25" />
<path d="M135.46,451.81L1890,451.81" style="fill:none;stroke:#808080;stroke-width:0.25" />
<path d="M135.46,835.87L1890,835.87" style="fill:none;stroke:#808080;stroke-width:0.25" />
<path d="M135.46,990.91L1890,990.91" style="fill:none;stroke:#808080;stroke-width:0.25" />
<path d="M135.46,172.92L330.41,369.99L525.36,530.28L720.31,603.85L915.26,678.57L1110.2,745.75L1305.2,815.83L1500.1,881.17L1695.1,935.6L1890,998.22" style="fill:none;stroke:#FF0000;stroke-width:4" />
<path d="M140.46,172.92A5,5 0 1 1 130.46,172.92A5,5 0 1 1 140.46,172.92Z" style="fill:#FF0000" />
<path d="M335.41,369.99A5,5 0 1 1 325.41,369.99A5,5 0 1 1 335.41,369.99Z" style="fill:#FF0000" />
<path d="M530.36,530.28A5,5 0 1 1 520.36,530.28A5,5 0 1 1 530.36,530.28Z" style="fill:#FF0000" />
<path d="M725.31,603.85A5,5 0 1 1 715.31,603.85A5,5 0 1 1 725.31,603.85Z" style="fill:#FF0000" />
<path d="M920.26,678.57A5,5 0 1 1 910.26,678.57A5,5 0 1 1 920.26,678.57Z" style="fill:#FF0000" />
<path d="M1115.2,745.75A5,5 0 1 1 1105.2,745.75A5,5 0 1 1 1115.2,745.75Z" style="fill:#FF0000" />
<path d="M1310.2,815.83A5,5 0 1 1 1300.2,815.83A5,5 0 1 1 1310.2,815.83Z" style="fill:#FF0000" />
<path d="M1505.1,881.17A5,5 0 1 1 1495.1,881.17A5,5 0 1 1 1505.1,881.17Z" style="fill:#FF0000" />
<path d="M1700.1,935.6A5,5 0 1 1 1690.1,935.6A5,5 0 1 1 1700.1,935.6Z" style="fill:#FF0000" />
<path d="M1895,998.22A5,5 0 1 1 1885,998.22A5,5 0 1 1 1895,998.22Z" style="fill:#FF0000" />
<path d="M135.46,149.14L330.41,352.27L525.36,479.06L720.31,560.27L915.26,622.33L1110.2,683.08L1305.2,720.47L1500.1,760.99L1695.1,800.7L1890,819.66" style="fill:none;stroke:#0000FF;stroke-width:4" />
<path d="M140.46,149.14A5,5 0 1 1 130.46,149.14A5,5 0 1 1 140.46,149.14Z" style="fill:#0000FF" />
<path d="M335.41,352.27A5,5 0 1 1 325.41,352.27A5,5 0 1 1 335.41,352.27Z" style="fill:#0000FF" />
<path d="M530.36,479.06A5,5 0 1 1 520.36,479.06A5,5 0 1 1 530.36,479.06Z" style="fill:#0000FF" />
<path d="M725.31,560.27A5,5 0 1 1 715.31,560.27A5,5 0 1 1 725.31,560.27Z" style="fill:#0000FF" />
<path d="M920.26,622.33A5,5 0 1 1 910.26,622.33A5,5 0 1 1 920.26,622.33Z" style="fill:#0000FF" />
<path d="M1115.2,683.08A5,5 0 1 1 1105.2,683.08A5,5 0 1 1 1115.2,683.08Z" style="fill:#0000FF" />
<path d="M1310.2,720.47A5,5 0 1 1 1300.2,720.47A5,5 0 1 1 1310.2,720.47Z" style="fill:#0000FF" />
<path d="M1505.1,760.99A5,5 0 1 1 1495.1,760.99A5,5 0 1 1 1505.1,760.99Z" style="fill:#0000FF" />
<path d="M1700.1,800.7A5,5 0 1 1 1690.1,800.7A5,5 0 1 1 1700.1,800.7Z" style="fill:#0000FF" />
<path d="M1895,819.66A5,5 0 1 1 1885,819.66A5,5 0 1 1 1895,819.66Z" style="fill:#0000FF" />
<path d="M135.46,80.11L330.41,252.43L525.36,365.24L720.31,469.5L915.26,531.14L1110.2,589.85L1305.2,616.26L1500.1,632.93L1695.1,692.55L1890,720.95" style="fill:none;stroke:#00FF00;stroke-width:4" />
<path d="M140.46,80.11A5,5 0 1 1 130.46,80.11A5,5 0 1 1 140.46,80.11Z" style="fill:#00FF00" />
<path d="M335.41,252.43A5,5 0 1 1 325.41,252.43A5,5 0 1 1 335.41,252.43Z" style="fill:#00FF00" />
<path d="M530.36,365.24A5,5 0 1 1 520.36,365.24A5,5 0 1 1 530.36,365.24Z" style="fill:#00FF00" />
<path d="M725.31,469.5A5,5 0 1 1 715.31,469.5A5,5 0 1 1 725.31,469.5Z" style="fill:#00FF00" />
<path d="M920.26,531.14A5,5 0 1 1 910.26,531.14A5,5 0 1 1 920.26,531.14Z" style="fill:#00FF00" />
<path d="M1115.2,589.85A5,5 0 1 1 1105.2,589.85A5,5 0 1 1 1115.2,589.85Z" style="fill:#00FF00" />
<path d="M1310.2,616.26A5,5 0 1 1 1300.2,616.26A5,5 0 1 1 1310.2,616.26Z" style="fill:#00FF00" />
<path d="M1505.1,632.93A5,5 0 1 1 1495.1,632.93A5,5 0 1 1 1505.1,632.93Z" style="fill:#00FF00" />
<path d="M1700.1,692.55A5,5 0 1 1 1690.1,692.55A5,5 0 1 1 1700.1,692.55Z" style="fill:#00FF00" />
<path d="M1895,720.95A5,5 0 1 1 1885,720.95A5,5 0 1 1 1895,720.95Z" style="fill:#00FF00" />
<path d="M1900,126.03L1920,126.03" style="fill:none;stroke:#FF0000;stroke-width:4" />
<path d="M1915,126.03A5,5 0 1 1 1905,126.03A5,5 0 1 1 1915,126.03Z" style="fill:#FF0000" />
<text x="1823.3" y="-121.05" transform="scale(1, -1)"
	style="font-family:Liberation Serif;font-variant:normal;font-weight:normal;font-style:normal;font-size:24px">std::list</text>
<path d="M1900,105.66L1920,105.66" style="fill:none;stroke:#0000FF;stroke-width:4" />
<path d="M1915,105.66A5,5 0 1 1 1905,105.66A5,5 0 1 1 1915,105.66Z" style="fill:#0000FF" />
<text x="1795.4" y="-100.69" transform="scale(1, -1)"
	style="font-family:Liberation Serif;font-variant:normal;font-weight:normal;font-style:normal;font-size:24px">std::deque</text>
<path d="M1900,85.294L1920,85.294" style="fill:none;stroke:#00FF00;stroke-width:4" />
<path d="M1915,85.294A5,5 0 1 1 1905,85.294A5,5 0 1 1 1915,85.294Z" style="fill:#00FF00" />
<text x="1792.7" y="-80.319" transform="scale(1, -1)"
	style="font-family:Liberation Serif;font-variant:normal;font-weight:normal;font-style:normal;font-size:24px">std::vector</text>
</g>
</svg>
