<?xml version="1.0"?>
<!-- Generated by SVGo and Plotinum VG -->
<svg width="1920pt" height="1080pt" viewBox="0 0 1920 1080"
	xmlns="http://www.w3.org/2000/svg"
	xmlns:xlink="http://www.w3.org/1999/xlink">
<g transform="scale(1, -1) translate(0, -1080)">
<path d="M0,0L1920,0L1920,1080L0,1080Z" style="fill:#FFFFFF" />
<text x="702.48" y="-1040.9" transform="scale(1, -1)"
	style="font-family:Liberation Serif;font-variant:normal;font-weight:normal;font-style:normal;font-size:50px">random-erase - Log Scale</text>
<text x="890.27" y="-9.7559" transform="scale(1, -1)"
	style="font-family:Liberation Serif;font-variant:normal;font-weight:normal;font-style:normal;font-size:30px">Number of elements</text>
<text x="110.46" y="-39.727" transform="scale(1, -1)"
	style="font-family:Liberation Serif;font-variant:normal;font-weight:normal;font-style:normal;font-size:20px">10000</text>
<text x="305.41" y="-39.727" transform="scale(1, -1)"
	style="font-family:Liberation Serif;font-variant:normal;font-weight:normal;font-style:normal;font-size:20px">20000</text>
<text x="500.36" y="-39.727" transform="scale(1, -1)"
	style="font-family:Liberation Serif;font-variant:normal;font-weight:normal;font-style:normal;font-size:20px">30000</text>
<text x="695.31" y="-39.727" transform="scale(1, -1)"
	style="font-family:Liberation Serif;font-variant:normal;font-weight:normal;font-style:normal;font-size:20px">40000</text>
<text x="890.26" y="-39.727" transform="scale(1, -1)"
	style="font-family:Liberation Serif;font-variant:normal;font-weight:normal;font-style:normal;font-size:20px">50000</text>
<text x="1085.2" y="-39.727" transform="scale(1, -1)"
	style="font-family:Liberation Serif;font-variant:normal;font-weight:normal;font-style:normal;font-size:20px">60000</text>
<text x="1280.2" y="-39.727" transform="scale(1, -1)"
	style="font-family:Liberation Serif;font-variant:normal;font-weight:normal;font-style:normal;font-size:20px">70000</text>
<text x="1475.1" y="-39.727" transform="scale(1, -1)"
	style="font-family:Liberation Serif;font-variant:normal;font-weight:normal;font-style:normal;font-size:20px">80000</text>
<text x="1670.1" y="-39.727" transform="scale(1, -1)"
	style="font-family:Liberation Serif;font-variant:normal;font-weight:normal;font-style:normal;font-size:20px">90000</text>
<text x="1860" y="-39.727" transform="scale(1, -1)"
	style="font-family:Liberation Serif;font-variant:normal;font-weight:normal;font-style:normal;font-size:20px">100000</text>
<path d="M135.46,55.371L135.46,63.371" style="fill:none;stroke:#000000;stroke-width:0.5" />
<path d="M330.41,55.371L330.41,63.371" style="fill:none;stroke:#000000;stroke-width:0.5" />
<path d="M525.36,55.371L525.36,63.371" style="fill:none;stroke:#000000;stroke-width:0.5" />
<path d="M720.31,55.371L720.31,63.371" style="fill:none;stroke:#000000;stroke-width:0.5" />
<path d="M915.26,55.371L915.26,63.371" style="fill:none;stroke:#000000;stroke-width:0.5" />
<path d="M1110.2,55.371L1110.2,63.371" style="fill:none;stroke:#000000;stroke-width:0.5" />
<path d="M1305.2,55.371L1305.2,63.371" style="fill:none;stroke:#000000;stroke-width:0.5" />
<path d="M1500.1,55.371L1500.1,63.371" style="fill:none;stroke:#000000;stroke-width:0.5" />
<path d="M1695.1,55.371L1695.1,63.371" style="fill:none;stroke:#000000;stroke-width:0.5" />
<path d="M1890,55.371L1890,63.371" style="fill:none;stroke:#000000;stroke-width:0.5" />
<path d="M135.46,63.371L1890,63.371" style="fill:none;stroke:#000000;stroke-width:0.5" />
<g transform="rotate(90)">
<text x="509.33" y="23.467" transform="scale(1, -1)"
	style="font-family:Liberation Serif;font-variant:normal;font-weight:normal;font-style:normal;font-size:30px">log(μs)</text>
</g>
<text x="49.712" y="-447.35" transform="scale(1, -1)"
	style="font-family:Liberation Serif;font-variant:normal;font-weight:normal;font-style:normal;font-size:20px">300000</text>
<text x="49.712" y="-820.75" transform="scale(1, -1)"
	style="font-family:Liberation Serif;font-variant:normal;font-weight:normal;font-style:normal;font-size:20px">900000</text>
<text x="39.712" y="-994.37" transform="scale(1, -1)"
	style="font-family:Liberation Serif;font-variant:normal;font-weight:normal;font-style:normal;font-size:20px">1500000</text>
<path d="M114.71,451.92L122.71,451.92" style="fill:none;stroke:#000000;stroke-width:0.5" />
<path d="M114.71,825.32L122.71,825.32" style="fill:none;stroke:#000000;stroke-width:0.5" />
<path d="M114.71,998.94L122.71,998.94" style="fill:none;stroke:#000000;stroke-width:0.5" />
<path d="M118.71,687.51L122.71,687.51" style="fill:none;stroke:#000000;stroke-width:0.5" />
<path d="M118.71,923.1L122.71,923.1" style="fill:none;stroke:#000000;stroke-width:0.5" />
<path d="M122.71,80.11L122.71,1024.6" style="fill:none;stroke:#000000;stroke-width:0.5" />
<path d="M135.46,80.11L135.46,1024.6" style="fill:none;stroke:#808080;stroke-width:0.25" />
<path d="M330.41,80.11L330.41,1024.6" style="fill:none;stroke:#808080;stroke-width:0.25" />
<path d="M525.36,80.11L525.36,1024.6" style="fill:none;stroke:#808080;stroke-width:0.25" />
<path d="M720.31,80.11L720.31,1024.6" style="fill:none;stroke:#808080;stroke-width:0.25" />
<path d="M915.26,80.11L915.26,1024.6" style="fill:none;stroke:#808080;stroke-width:0.25" />
<path d="M1110.2,80.11L1110.2,1024.6" style="fill:none;stroke:#808080;stroke-width:0.25" />
<path d="M1305.2,80.11L1305.2,1024.6" style="fill:none;stroke:#808080;stroke-width:0.25" />
<path d="M1500.1,80.11L1500.1,1024.6" style="fill:none;stroke:#808080;stroke-width:0.25" />
<path d="M1695.1,80.11L1695.1,1024.6" style="fill:none;stroke:#808080;stroke-width:0.25" />
<path d="M1890,80.11L1890,1024.6" style="fill:none;stroke:#808080;stroke-width:0.25" />
<path d="M135.46,451.92L1890,451.92" style="fill:none;stroke:#808080;stroke-width:0.25" />
<path d="M135.46,825.32L1890,825.32" style="fill:none;stroke:#808080;stroke-width:0.25" />
<path d="M135.46,998.94L1890,998.94" style="fill:none;stroke:#808080;stroke-width:0.25" />
<path d="M135.46,147.87L330.41,397.87L525.36,533.8L720.31,638.78L915.26,711.46L1110.2,781.3L1305.2,827.97L1500.1,880.54L1695.1,921.17L1890,964.47" style="fill:none;stroke:#FF0000;stroke-width:4" />
<path d="M140.46,147.87A5,5 0 1 1 130.46,147.87A5,5 0 1 1 140.46,147.87Z" style="fill:#FF0000" />
<path d="M335.41,397.87A5,5 0 1 1 325.41,397.87A5,5 0 1 1 335.41,397.87Z" style="fill:#FF0000" />
<path d="M530.36,533.8A5,5 0 1 1 520.36,533.8A5,5 0 1 1 530.36,533.8Z" style="fill:#FF0000" />
<path d="M725.31,638.78A5,5 0 1 1 715.31,638.78A5,5 0 1 1 725.31,638.78Z" style="fill:#FF0000" />
<path d="M920.26,711.46A5,5 0 1 1 910.26,711.46A5,5 0 1 1 920.26,711.46Z" style="fill:#FF0000" />
<path d="M1115.2,781.3A5,5 0 1 1 1105.2,781.3A5,5 0 1 1 1115.2,781.3Z" style="fill:#FF0000" />
<path d="M1310.2,827.97A5,5 0 1 1 1300.2,827.97A5,5 0 1 1 1310.2,827.97Z" style="fill:#FF0000" />
<path d="M1505.1,880.54A5,5 0 1 1 1495.1,880.54A5,5 0 1 1 1505.1,880.54Z" style="fill:#FF0000" />
<path d="M1700.1,921.17A5,5 0 1 1 1690.1,921.17A5,5 0 1 1 1700.1,921.17Z" style="fill:#FF0000" />
<path d="M1895,964.47A5,5 0 1 1 1885,964.47A5,5 0 1 1 1895,964.47Z" style="fill:#FF0000" />
<path d="M135.46,80.11L330.41,348.04L525.36,483.53L720.31,599.67L915.26,675.88L1110.2,726.33L1305.2,793.4L1500.1,828.06L1695.1,877.81L1890,912" style="fill:none;stroke:#0000FF;stroke-width:4" />
<path d="M140.46,80.11A5,5 0 1 1 130.46,80.11A5,5 0 1 1 140.46,80.11Z" style="fill:#0000FF" />
<path d="M335.41,348.04A5,5 0 1 1 325.41,348.04A5,5 0 1 1 335.41,348.04Z" style="fill:#0000FF" />
<path d="M530.36,483.53A5,5 0 1 1 520.36,483.53A5,5 0 1 1 530.36,483.53Z" style="fill:#0000FF" />
<path d="M725.31,599.67A5,5 0 1 1 715.31,599.67A5,5 0 1 1 725.31,599.67Z" style="fill:#0000FF" />
<path d="M920.26,675.88A5,5 0 1 1 910.26,675.88A5,5 0 1 1 920.26,675.88Z" style="fill:#0000FF" />
<path d="M1115.2,726.33A5,5 0 1 1 1105.2,726.33A5,5 0 1 1 1115.2,726.33Z" style="fill:#0000FF" />
<path d="M1310.2,793.4A5,5 0 1 1 1300.2,793.4A5,5 0 1 1 1310.2,793.4Z" style="fill:#0000FF" />
<path d="M1505.1,828.06A5,5 0 1 1 1495.1,828.06A5,5 0 1 1 1505.1,828.06Z" style="fill:#0000FF" />
<path d="M1700.1,877.81A5,5 0 1 1 1690.1,877.81A5,5 0 1 1 1700.1,877.81Z" style="fill:#0000FF" />
<path d="M1895,912A5,5 0 1 1 1885,912A5,5 0 1 1 1895,912Z" style="fill:#0000FF" />
<path d="M135.46,131.36L330.41,398.31L525.36,533.28L720.31,643.19L915.26,722.63L1110.2,786.67L1305.2,842.91L1500.1,898.67L1695.1,948.11L1890,992.23" style="fill:none;stroke:#00FF00;stroke-width:4" />
<path d="M140.46,131.36A5,5 0 1 1 130.46,131.36A5,5 0 1 1 140.46,131.36Z" style="fill:#00FF00" />
<path d="M335.41,398.31A5,5 0 1 1 325.41,398.31A5,5 0 1 1 335.41,398.31Z" style="fill:#00FF00" />
<path d="M530.36,533.28A5,5 0 1 1 520.36,533.28A5,5 0 1 1 530.36,533.28Z" style="fill:#00FF00" />
<path d="M725.31,643.19A5,5 0 1 1 715.31,643.19A5,5 0 1 1 725.31,643.19Z" style="fill:#00FF00" />
<path d="M920.26,722.63A5,5 0 1 1 910.26,722.63A5,5 0 1 1 920.26,722.63Z" style="fill:#00FF00" />
<path d="M1115.2,786.67A5,5 0 1 1 1105.2,786.67A5,5 0 1 1 1115.2,786.67Z" style="fill:#00FF00" />
<path d="M1310.2,842.91A5,5 0 1 1 1300.2,842.91A5,5 0 1 1 1310.2,842.91Z" style="fill:#00FF00" />
<path d="M1505.1,898.67A5,5 0 1 1 1495.1,898.67A5,5 0 1 1 1505.1,898.67Z" style="fill:#00FF00" />
<path d="M1700.1,948.11A5,5 0 1 1 1690.1,948.11A5,5 0 1 1 1700.1,948.11Z" style="fill:#00FF00" />
<path d="M1895,992.23A5,5 0 1 1 1885,992.23A5,5 0 1 1 1895,992.23Z" style="fill:#00FF00" />
<path d="M1900,126.03L1920,126.03" style="fill:none;stroke:#FF0000;stroke-width:4" />
<path d="M1915,126.03A5,5 0 1 1 1905,126.03A5,5 0 1 1 1915,126.03Z" style="fill:#FF0000" />
<text x="1795.4" y="-121.05" transform="scale(1, -1)"
	style="font-family:Liberation Serif;font-variant:normal;font-weight:normal;font-style:normal;font-size:24px">std::deque</text>
<path d="M1900,105.66L1920,105.66" style="fill:none;stroke:#0000FF;stroke-width:4" />
<path d="M1915,105.66A5,5 0 1 1 1905,105.66A5,5 0 1 1 1915,105.66Z" style="fill:#0000FF" />
<text x="1792.7" y="-100.69" transform="scale(1, -1)"
	style="font-family:Liberation Serif;font-variant:normal;font-weight:normal;font-style:normal;font-size:24px">std::vector</text>
<path d="M1900,85.294L1920,85.294" style="fill:none;stroke:#00FF00;stroke-width:4" />
<path d="M1915,85.294A5,5 0 1 1 1905,85.294A5,5 0 1 1 1915,85.294Z" style="fill:#00FF00" />
<text x="1823.3" y="-80.319" transform="scale(1, -1)"
	style="font-family:Liberation Serif;font-variant:normal;font-weight:normal;font-style:normal;font-size:24px">std::list</text>
</g>
</svg>
