<?xml version="1.0"?>
<!-- Generated by SVGo and Plotinum VG -->
<svg width="1920pt" height="1080pt" viewBox="0 0 1920 1080"
	xmlns="http://www.w3.org/2000/svg"
	xmlns:xlink="http://www.w3.org/1999/xlink">
<g transform="scale(1, -1) translate(0, -1080)">
<path d="M0,0L1920,0L1920,1080L0,1080Z" style="fill:#FFFFFF" />
<text x="823.96" y="-1040.9" transform="scale(1, -1)"
	style="font-family:Liberation Serif;font-variant:normal;font-weight:normal;font-style:normal;font-size:50px">random-erase</text>
<text x="902.77" y="-9.7559" transform="scale(1, -1)"
	style="font-family:Liberation Serif;font-variant:normal;font-weight:normal;font-style:normal;font-size:30px">Number of elements</text>
<text x="135.46" y="-39.727" transform="scale(1, -1)"
	style="font-family:Liberation Serif;font-variant:normal;font-weight:normal;font-style:normal;font-size:20px">10000</text>
<text x="327.63" y="-39.727" transform="scale(1, -1)"
	style="font-family:Liberation Serif;font-variant:normal;font-weight:normal;font-style:normal;font-size:20px">20000</text>
<text x="519.8" y="-39.727" transform="scale(1, -1)"
	style="font-family:Liberation Serif;font-variant:normal;font-weight:normal;font-style:normal;font-size:20px">30000</text>
<text x="711.97" y="-39.727" transform="scale(1, -1)"
	style="font-family:Liberation Serif;font-variant:normal;font-weight:normal;font-style:normal;font-size:20px">40000</text>
<text x="904.15" y="-39.727" transform="scale(1, -1)"
	style="font-family:Liberation Serif;font-variant:normal;font-weight:normal;font-style:normal;font-size:20px">50000</text>
<text x="1096.3" y="-39.727" transform="scale(1, -1)"
	style="font-family:Liberation Serif;font-variant:normal;font-weight:normal;font-style:normal;font-size:20px">60000</text>
<text x="1288.5" y="-39.727" transform="scale(1, -1)"
	style="font-family:Liberation Serif;font-variant:normal;font-weight:normal;font-style:normal;font-size:20px">70000</text>
<text x="1480.7" y="-39.727" transform="scale(1, -1)"
	style="font-family:Liberation Serif;font-variant:normal;font-weight:normal;font-style:normal;font-size:20px">80000</text>
<text x="1672.8" y="-39.727" transform="scale(1, -1)"
	style="font-family:Liberation Serif;font-variant:normal;font-weight:normal;font-style:normal;font-size:20px">90000</text>
<text x="1860" y="-39.727" transform="scale(1, -1)"
	style="font-family:Liberation Serif;font-variant:normal;font-weight:normal;font-style:normal;font-size:20px">100000</text>
<path d="M160.46,55.371L160.46,63.371" style="fill:none;stroke:#000000;stroke-width:0.5" />
<path d="M352.63,55.371L352.63,63.371" style="fill:none;stroke:#000000;stroke-width:0.5" />
<path d="M544.8,55.371L544.8,63.371" style="fill:none;stroke:#000000;stroke-width:0.5" />
<path d="M736.97,55.371L736.97,63.371" style="fill:none;stroke:#000000;stroke-width:0.5" />
<path d="M929.15,55.371L929.15,63.371" style="fill:none;stroke:#000000;stroke-width:0.5" />
<path d="M1121.3,55.371L1121.3,63.371" style="fill:none;stroke:#000000;stroke-width:0.5" />
<path d="M1313.5,55.371L1313.5,63.371" style="fill:none;stroke:#000000;stroke-width:0.5" />
<path d="M1505.7,55.371L1505.7,63.371" style="fill:none;stroke:#000000;stroke-width:0.5" />
<path d="M1697.8,55.371L1697.8,63.371" style="fill:none;stroke:#000000;stroke-width:0.5" />
<path d="M1890,55.371L1890,63.371" style="fill:none;stroke:#000000;stroke-width:0.5" />
<path d="M160.46,63.371L1890,63.371" style="fill:none;stroke:#000000;stroke-width:0.5" />
<g transform="rotate(90)">
<text x="538.49" y="23.467" transform="scale(1, -1)"
	style="font-family:Liberation Serif;font-variant:normal;font-weight:normal;font-style:normal;font-size:30px">μs</text>
</g>
<text x="49.712" y="-196.64" transform="scale(1, -1)"
	style="font-family:Liberation Serif;font-variant:normal;font-weight:normal;font-style:normal;font-size:20px">250000.00</text>
<text x="49.712" y="-573.47" transform="scale(1, -1)"
	style="font-family:Liberation Serif;font-variant:normal;font-weight:normal;font-style:normal;font-size:20px">750000.00</text>
<text x="39.712" y="-950.31" transform="scale(1, -1)"
	style="font-family:Liberation Serif;font-variant:normal;font-weight:normal;font-style:normal;font-size:20px">1250000.00</text>
<path d="M139.71,201.21L147.71,201.21" style="fill:none;stroke:#000000;stroke-width:0.5" />
<path d="M139.71,578.04L147.71,578.04" style="fill:none;stroke:#000000;stroke-width:0.5" />
<path d="M139.71,954.88L147.71,954.88" style="fill:none;stroke:#000000;stroke-width:0.5" />
<path d="M143.71,125.84L147.71,125.84" style="fill:none;stroke:#000000;stroke-width:0.5" />
<path d="M143.71,276.58L147.71,276.58" style="fill:none;stroke:#000000;stroke-width:0.5" />
<path d="M143.71,351.94L147.71,351.94" style="fill:none;stroke:#000000;stroke-width:0.5" />
<path d="M143.71,427.31L147.71,427.31" style="fill:none;stroke:#000000;stroke-width:0.5" />
<path d="M143.71,502.68L147.71,502.68" style="fill:none;stroke:#000000;stroke-width:0.5" />
<path d="M143.71,653.41L147.71,653.41" style="fill:none;stroke:#000000;stroke-width:0.5" />
<path d="M143.71,728.78L147.71,728.78" style="fill:none;stroke:#000000;stroke-width:0.5" />
<path d="M143.71,804.14L147.71,804.14" style="fill:none;stroke:#000000;stroke-width:0.5" />
<path d="M143.71,879.51L147.71,879.51" style="fill:none;stroke:#000000;stroke-width:0.5" />
<path d="M147.71,80.11L147.71,1024.6" style="fill:none;stroke:#000000;stroke-width:0.5" />
<path d="M160.46,80.11L160.46,1024.6" style="fill:none;stroke:#808080;stroke-width:0.25" />
<path d="M352.63,80.11L352.63,1024.6" style="fill:none;stroke:#808080;stroke-width:0.25" />
<path d="M544.8,80.11L544.8,1024.6" style="fill:none;stroke:#808080;stroke-width:0.25" />
<path d="M736.97,80.11L736.97,1024.6" style="fill:none;stroke:#808080;stroke-width:0.25" />
<path d="M929.15,80.11L929.15,1024.6" style="fill:none;stroke:#808080;stroke-width:0.25" />
<path d="M1121.3,80.11L1121.3,1024.6" style="fill:none;stroke:#808080;stroke-width:0.25" />
<path d="M1313.5,80.11L1313.5,1024.6" style="fill:none;stroke:#808080;stroke-width:0.25" />
<path d="M1505.7,80.11L1505.7,1024.6" style="fill:none;stroke:#808080;stroke-width:0.25" />
<path d="M1697.8,80.11L1697.8,1024.6" style="fill:none;stroke:#808080;stroke-width:0.25" />
<path d="M1890,80.11L1890,1024.6" style="fill:none;stroke:#808080;stroke-width:0.25" />
<path d="M160.46,201.21L1890,201.21" style="fill:none;stroke:#808080;stroke-width:0.25" />
<path d="M160.46,578.04L1890,578.04" style="fill:none;stroke:#808080;stroke-width:0.25" />
<path d="M160.46,954.88L1890,954.88" style="fill:none;stroke:#808080;stroke-width:0.25" />
<path d="M160.46,95.022L352.63,194.58L544.8,279.25L736.97,360.77L929.15,462.52L1121.3,555.16L1313.5,649.19L1505.7,752.09L1697.8,823.14L1890,932.64" style="fill:none;stroke:#FF0000;stroke-width:4" />
<path d="M165.46,95.022A5,5 0 1 1 155.46,95.022A5,5 0 1 1 165.46,95.022Z" style="fill:#FF0000" />
<path d="M357.63,194.58A5,5 0 1 1 347.63,194.58A5,5 0 1 1 357.63,194.58Z" style="fill:#FF0000" />
<path d="M549.8,279.25A5,5 0 1 1 539.8,279.25A5,5 0 1 1 549.8,279.25Z" style="fill:#FF0000" />
<path d="M741.97,360.77A5,5 0 1 1 731.97,360.77A5,5 0 1 1 741.97,360.77Z" style="fill:#FF0000" />
<path d="M934.15,462.52A5,5 0 1 1 924.15,462.52A5,5 0 1 1 934.15,462.52Z" style="fill:#FF0000" />
<path d="M1126.3,555.16A5,5 0 1 1 1116.3,555.16A5,5 0 1 1 1126.3,555.16Z" style="fill:#FF0000" />
<path d="M1318.5,649.19A5,5 0 1 1 1308.5,649.19A5,5 0 1 1 1318.5,649.19Z" style="fill:#FF0000" />
<path d="M1510.7,752.09A5,5 0 1 1 1500.7,752.09A5,5 0 1 1 1510.7,752.09Z" style="fill:#FF0000" />
<path d="M1702.8,823.14A5,5 0 1 1 1692.8,823.14A5,5 0 1 1 1702.8,823.14Z" style="fill:#FF0000" />
<path d="M1895,932.64A5,5 0 1 1 1885,932.64A5,5 0 1 1 1895,932.64Z" style="fill:#FF0000" />
<path d="M160.46,80.11L352.63,151.79L544.8,230.8L736.97,302.78L929.15,388.48L1121.3,449.96L1313.5,524.72L1505.7,614.44L1697.8,678.52L1890,768.06" style="fill:none;stroke:#0000FF;stroke-width:4" />
<path d="M165.46,80.11A5,5 0 1 1 155.46,80.11A5,5 0 1 1 165.46,80.11Z" style="fill:#0000FF" />
<path d="M357.63,151.79A5,5 0 1 1 347.63,151.79A5,5 0 1 1 357.63,151.79Z" style="fill:#0000FF" />
<path d="M549.8,230.8A5,5 0 1 1 539.8,230.8A5,5 0 1 1 549.8,230.8Z" style="fill:#0000FF" />
<path d="M741.97,302.78A5,5 0 1 1 731.97,302.78A5,5 0 1 1 741.97,302.78Z" style="fill:#0000FF" />
<path d="M934.15,388.48A5,5 0 1 1 924.15,388.48A5,5 0 1 1 934.15,388.48Z" style="fill:#0000FF" />
<path d="M1126.3,449.96A5,5 0 1 1 1116.3,449.96A5,5 0 1 1 1126.3,449.96Z" style="fill:#0000FF" />
<path d="M1318.5,524.72A5,5 0 1 1 1308.5,524.72A5,5 0 1 1 1318.5,524.72Z" style="fill:#0000FF" />
<path d="M1510.7,614.44A5,5 0 1 1 1500.7,614.44A5,5 0 1 1 1510.7,614.44Z" style="fill:#0000FF" />
<path d="M1702.8,678.52A5,5 0 1 1 1692.8,678.52A5,5 0 1 1 1702.8,678.52Z" style="fill:#0000FF" />
<path d="M1895,768.06A5,5 0 1 1 1885,768.06A5,5 0 1 1 1895,768.06Z" style="fill:#0000FF" />
<path d="M160.46,82.337L352.63,161.34L544.8,226.04L736.97,316.62L929.15,384.66L1121.3,455.68L1313.5,535.51L1505.7,615.48L1697.8,692.64L1890,755.36" style="fill:none;stroke:#00FF00;stroke-width:4" />
<path d="M165.46,82.337A5,5 0 1 1 155.46,82.337A5,5 0 1 1 165.46,82.337Z" style="fill:#00FF00" />
<path d="M357.63,161.34A5,5 0 1 1 347.63,161.34A5,5 0 1 1 357.63,161.34Z" style="fill:#00FF00" />
<path d="M549.8,226.04A5,5 0 1 1 539.8,226.04A5,5 0 1 1 549.8,226.04Z" style="fill:#00FF00" />
<path d="M741.97,316.62A5,5 0 1 1 731.97,316.62A5,5 0 1 1 741.97,316.62Z" style="fill:#00FF00" />
<path d="M934.15,384.66A5,5 0 1 1 924.15,384.66A5,5 0 1 1 934.15,384.66Z" style="fill:#00FF00" />
<path d="M1126.3,455.68A5,5 0 1 1 1116.3,455.68A5,5 0 1 1 1126.3,455.68Z" style="fill:#00FF00" />
<path d="M1318.5,535.51A5,5 0 1 1 1308.5,535.51A5,5 0 1 1 1318.5,535.51Z" style="fill:#00FF00" />
<path d="M1510.7,615.48A5,5 0 1 1 1500.7,615.48A5,5 0 1 1 1510.7,615.48Z" style="fill:#00FF00" />
<path d="M1702.8,692.64A5,5 0 1 1 1692.8,692.64A5,5 0 1 1 1702.8,692.64Z" style="fill:#00FF00" />
<path d="M1895,755.36A5,5 0 1 1 1885,755.36A5,5 0 1 1 1895,755.36Z" style="fill:#00FF00" />
<path d="M1900,126.03L1920,126.03" style="fill:none;stroke:#FF0000;stroke-width:4" />
<path d="M1915,126.03A5,5 0 1 1 1905,126.03A5,5 0 1 1 1915,126.03Z" style="fill:#FF0000" />
<text x="1823.3" y="-121.05" transform="scale(1, -1)"
	style="font-family:Liberation Serif;font-variant:normal;font-weight:normal;font-style:normal;font-size:24px">std::list</text>
<path d="M1900,105.66L1920,105.66" style="fill:none;stroke:#0000FF;stroke-width:4" />
<path d="M1915,105.66A5,5 0 1 1 1905,105.66A5,5 0 1 1 1915,105.66Z" style="fill:#0000FF" />
<text x="1795.4" y="-100.69" transform="scale(1, -1)"
	style="font-family:Liberation Serif;font-variant:normal;font-weight:normal;font-style:normal;font-size:24px">std::deque</text>
<path d="M1900,85.294L1920,85.294" style="fill:none;stroke:#00FF00;stroke-width:4" />
<path d="M1915,85.294A5,5 0 1 1 1905,85.294A5,5 0 1 1 1915,85.294Z" style="fill:#00FF00" />
<text x="1792.7" y="-80.319" transform="scale(1, -1)"
	style="font-family:Liberation Serif;font-variant:normal;font-weight:normal;font-style:normal;font-size:24px">std::vector</text>
</g>
</svg>
