<?xml version="1.0"?>
<!-- Generated by SVGo and Plotinum VG -->
<svg width="1920pt" height="1080pt" viewBox="0 0 1920 1080"
	xmlns="http://www.w3.org/2000/svg"
	xmlns:xlink="http://www.w3.org/1999/xlink">
<g transform="scale(1, -1) translate(0, -1080)">
<path d="M0,0L1920,0L1920,1080L0,1080Z" style="fill:#FFFFFF" />
<text x="702.48" y="-1040.9" transform="scale(1, -1)"
	style="font-family:Liberation Serif;font-variant:normal;font-weight:normal;font-style:normal;font-size:50px">random-erase - Log Scale</text>
<text x="890.27" y="-9.7559" transform="scale(1, -1)"
	style="font-family:Liberation Serif;font-variant:normal;font-weight:normal;font-style:normal;font-size:30px">Number of elements</text>
<text x="110.46" y="-39.727" transform="scale(1, -1)"
	style="font-family:Liberation Serif;font-variant:normal;font-weight:normal;font-style:normal;font-size:20px">10000</text>
<text x="305.41" y="-39.727" transform="scale(1, -1)"
	style="font-family:Liberation Serif;font-variant:normal;font-weight:normal;font-style:normal;font-size:20px">20000</text>
<text x="500.36" y="-39.727" transform="scale(1, -1)"
	style="font-family:Liberation Serif;font-variant:normal;font-weight:normal;font-style:normal;font-size:20px">30000</text>
<text x="695.31" y="-39.727" transform="scale(1, -1)"
	style="font-family:Liberation Serif;font-variant:normal;font-weight:normal;font-style:normal;font-size:20px">40000</text>
<text x="890.26" y="-39.727" transform="scale(1, -1)"
	style="font-family:Liberation Serif;font-variant:normal;font-weight:normal;font-style:normal;font-size:20px">50000</text>
<text x="1085.2" y="-39.727" transform="scale(1, -1)"
	style="font-family:Liberation Serif;font-variant:normal;font-weight:normal;font-style:normal;font-size:20px">60000</text>
<text x="1280.2" y="-39.727" transform="scale(1, -1)"
	style="font-family:Liberation Serif;font-variant:normal;font-weight:normal;font-style:normal;font-size:20px">70000</text>
<text x="1475.1" y="-39.727" transform="scale(1, -1)"
	style="font-family:Liberation Serif;font-variant:normal;font-weight:normal;font-style:normal;font-size:20px">80000</text>
<text x="1670.1" y="-39.727" transform="scale(1, -1)"
	style="font-family:Liberation Serif;font-variant:normal;font-weight:normal;font-style:normal;font-size:20px">90000</text>
<text x="1860" y="-39.727" transform="scale(1, -1)"
	style="font-family:Liberation Serif;font-variant:normal;font-weight:normal;font-style:normal;font-size:20px">100000</text>
<path d="M135.46,55.371L135.46,63.371" style="fill:none;stroke:#000000;stroke-width:0.5" />
<path d="M330.41,55.371L330.41,63.371" style="fill:none;stroke:#000000;stroke-width:0.5" />
<path d="M525.36,55.371L525.36,63.371" style="fill:none;stroke:#000000;stroke-width:0.5" />
<path d="M720.31,55.371L720.31,63.371" style="fill:none;stroke:#000000;stroke-width:0.5" />
<path d="M915.26,55.371L915.26,63.371" style="fill:none;stroke:#000000;stroke-width:0.5" />
<path d="M1110.2,55.371L1110.2,63.371" style="fill:none;stroke:#000000;stroke-width:0.5" />
<path d="M1305.2,55.371L1305.2,63.371" style="fill:none;stroke:#000000;stroke-width:0.5" />
<path d="M1500.1,55.371L1500.1,63.371" style="fill:none;stroke:#000000;stroke-width:0.5" />
<path d="M1695.1,55.371L1695.1,63.371" style="fill:none;stroke:#000000;stroke-width:0.5" />
<path d="M1890,55.371L1890,63.371" style="fill:none;stroke:#000000;stroke-width:0.5" />
<path d="M135.46,63.371L1890,63.371" style="fill:none;stroke:#000000;stroke-width:0.5" />
<g transform="rotate(90)">
<text x="484.25" y="23.467" transform="scale(1, -1)"
	style="font-family:Liberation Serif;font-variant:normal;font-weight:normal;font-style:normal;font-size:30px">log(μs + 1)</text>
</g>
<text x="49.712" y="-488.13" transform="scale(1, -1)"
	style="font-family:Liberation Serif;font-variant:normal;font-weight:normal;font-style:normal;font-size:20px">400000</text>
<text x="39.712" y="-843.67" transform="scale(1, -1)"
	style="font-family:Liberation Serif;font-variant:normal;font-weight:normal;font-style:normal;font-size:20px">1200000</text>
<text x="39.712" y="-1009" transform="scale(1, -1)"
	style="font-family:Liberation Serif;font-variant:normal;font-weight:normal;font-style:normal;font-size:20px">2000000</text>
<path d="M114.71,492.7L122.71,492.7" style="fill:none;stroke:#000000;stroke-width:0.5" />
<path d="M114.71,848.24L122.71,848.24" style="fill:none;stroke:#000000;stroke-width:0.5" />
<path d="M114.71,1013.6L122.71,1013.6" style="fill:none;stroke:#000000;stroke-width:0.5" />
<path d="M118.71,717.02L122.71,717.02" style="fill:none;stroke:#000000;stroke-width:0.5" />
<path d="M118.71,941.34L122.71,941.34" style="fill:none;stroke:#000000;stroke-width:0.5" />
<path d="M122.71,80.11L122.71,1021.4" style="fill:none;stroke:#000000;stroke-width:0.5" />
<path d="M135.46,80.11L135.46,1021.4" style="fill:none;stroke:#808080;stroke-width:0.25" />
<path d="M330.41,80.11L330.41,1021.4" style="fill:none;stroke:#808080;stroke-width:0.25" />
<path d="M525.36,80.11L525.36,1021.4" style="fill:none;stroke:#808080;stroke-width:0.25" />
<path d="M720.31,80.11L720.31,1021.4" style="fill:none;stroke:#808080;stroke-width:0.25" />
<path d="M915.26,80.11L915.26,1021.4" style="fill:none;stroke:#808080;stroke-width:0.25" />
<path d="M1110.2,80.11L1110.2,1021.4" style="fill:none;stroke:#808080;stroke-width:0.25" />
<path d="M1305.2,80.11L1305.2,1021.4" style="fill:none;stroke:#808080;stroke-width:0.25" />
<path d="M1500.1,80.11L1500.1,1021.4" style="fill:none;stroke:#808080;stroke-width:0.25" />
<path d="M1695.1,80.11L1695.1,1021.4" style="fill:none;stroke:#808080;stroke-width:0.25" />
<path d="M1890,80.11L1890,1021.4" style="fill:none;stroke:#808080;stroke-width:0.25" />
<path d="M135.46,492.7L1890,492.7" style="fill:none;stroke:#808080;stroke-width:0.25" />
<path d="M135.46,848.24L1890,848.24" style="fill:none;stroke:#808080;stroke-width:0.25" />
<path d="M135.46,1013.6L1890,1013.6" style="fill:none;stroke:#808080;stroke-width:0.25" />
<path d="M135.46,176.83L330.41,398.31L525.36,519.4L720.31,632.33L915.26,719.5L1110.2,820.95L1305.2,860.84L1500.1,893.58L1695.1,938.33L1890,990.53" style="fill:none;stroke:#FF0000;stroke-width:4" />
<path d="M140.46,176.83A5,5 0 1 1 130.46,176.83A5,5 0 1 1 140.46,176.83Z" style="fill:#FF0000" />
<path d="M335.41,398.31A5,5 0 1 1 325.41,398.31A5,5 0 1 1 335.41,398.31Z" style="fill:#FF0000" />
<path d="M530.36,519.4A5,5 0 1 1 520.36,519.4A5,5 0 1 1 530.36,519.4Z" style="fill:#FF0000" />
<path d="M725.31,632.33A5,5 0 1 1 715.31,632.33A5,5 0 1 1 725.31,632.33Z" style="fill:#FF0000" />
<path d="M920.26,719.5A5,5 0 1 1 910.26,719.5A5,5 0 1 1 920.26,719.5Z" style="fill:#FF0000" />
<path d="M1115.2,820.95A5,5 0 1 1 1105.2,820.95A5,5 0 1 1 1115.2,820.95Z" style="fill:#FF0000" />
<path d="M1310.2,860.84A5,5 0 1 1 1300.2,860.84A5,5 0 1 1 1310.2,860.84Z" style="fill:#FF0000" />
<path d="M1505.1,893.58A5,5 0 1 1 1495.1,893.58A5,5 0 1 1 1505.1,893.58Z" style="fill:#FF0000" />
<path d="M1700.1,938.33A5,5 0 1 1 1690.1,938.33A5,5 0 1 1 1700.1,938.33Z" style="fill:#FF0000" />
<path d="M1895,990.53A5,5 0 1 1 1885,990.53A5,5 0 1 1 1895,990.53Z" style="fill:#FF0000" />
<path d="M135.46,138.23L330.41,359.92L525.36,529.48L720.31,630.38L915.26,716.98L1110.2,780.87L1305.2,818.04L1500.1,870.6L1695.1,908.61L1890,942.08" style="fill:none;stroke:#0000FF;stroke-width:4" />
<path d="M140.46,138.23A5,5 0 1 1 130.46,138.23A5,5 0 1 1 140.46,138.23Z" style="fill:#0000FF" />
<path d="M335.41,359.92A5,5 0 1 1 325.41,359.92A5,5 0 1 1 335.41,359.92Z" style="fill:#0000FF" />
<path d="M530.36,529.48A5,5 0 1 1 520.36,529.48A5,5 0 1 1 530.36,529.48Z" style="fill:#0000FF" />
<path d="M725.31,630.38A5,5 0 1 1 715.31,630.38A5,5 0 1 1 725.31,630.38Z" style="fill:#0000FF" />
<path d="M920.26,716.98A5,5 0 1 1 910.26,716.98A5,5 0 1 1 920.26,716.98Z" style="fill:#0000FF" />
<path d="M1115.2,780.87A5,5 0 1 1 1105.2,780.87A5,5 0 1 1 1115.2,780.87Z" style="fill:#0000FF" />
<path d="M1310.2,818.04A5,5 0 1 1 1300.2,818.04A5,5 0 1 1 1310.2,818.04Z" style="fill:#0000FF" />
<path d="M1505.1,870.6A5,5 0 1 1 1495.1,870.6A5,5 0 1 1 1505.1,870.6Z" style="fill:#0000FF" />
<path d="M1700.1,908.61A5,5 0 1 1 1690.1,908.61A5,5 0 1 1 1700.1,908.61Z" style="fill:#0000FF" />
<path d="M1895,942.08A5,5 0 1 1 1885,942.08A5,5 0 1 1 1895,942.08Z" style="fill:#0000FF" />
<path d="M135.46,80.11L330.41,307.56L525.36,488.76L720.31,593.04L915.26,667.72L1110.2,738L1305.2,778.87L1500.1,807.09L1695.1,820.89L1890,897" style="fill:none;stroke:#00FF00;stroke-width:4" />
<path d="M140.46,80.11A5,5 0 1 1 130.46,80.11A5,5 0 1 1 140.46,80.11Z" style="fill:#00FF00" />
<path d="M335.41,307.56A5,5 0 1 1 325.41,307.56A5,5 0 1 1 335.41,307.56Z" style="fill:#00FF00" />
<path d="M530.36,488.76A5,5 0 1 1 520.36,488.76A5,5 0 1 1 530.36,488.76Z" style="fill:#00FF00" />
<path d="M725.31,593.04A5,5 0 1 1 715.31,593.04A5,5 0 1 1 725.31,593.04Z" style="fill:#00FF00" />
<path d="M920.26,667.72A5,5 0 1 1 910.26,667.72A5,5 0 1 1 920.26,667.72Z" style="fill:#00FF00" />
<path d="M1115.2,738A5,5 0 1 1 1105.2,738A5,5 0 1 1 1115.2,738Z" style="fill:#00FF00" />
<path d="M1310.2,778.87A5,5 0 1 1 1300.2,778.87A5,5 0 1 1 1310.2,778.87Z" style="fill:#00FF00" />
<path d="M1505.1,807.09A5,5 0 1 1 1495.1,807.09A5,5 0 1 1 1505.1,807.09Z" style="fill:#00FF00" />
<path d="M1700.1,820.89A5,5 0 1 1 1690.1,820.89A5,5 0 1 1 1700.1,820.89Z" style="fill:#00FF00" />
<path d="M1895,897A5,5 0 1 1 1885,897A5,5 0 1 1 1895,897Z" style="fill:#00FF00" />
<path d="M1900,126.03L1920,126.03" style="fill:none;stroke:#FF0000;stroke-width:4" />
<path d="M1915,126.03A5,5 0 1 1 1905,126.03A5,5 0 1 1 1915,126.03Z" style="fill:#FF0000" />
<text x="1823.3" y="-121.05" transform="scale(1, -1)"
	style="font-family:Liberation Serif;font-variant:normal;font-weight:normal;font-style:normal;font-size:24px">std::list</text>
<path d="M1900,105.66L1920,105.66" style="fill:none;stroke:#0000FF;stroke-width:4" />
<path d="M1915,105.66A5,5 0 1 1 1905,105.66A5,5 0 1 1 1915,105.66Z" style="fill:#0000FF" />
<text x="1795.4" y="-100.69" transform="scale(1, -1)"
	style="font-family:Liberation Serif;font-variant:normal;font-weight:normal;font-style:normal;font-size:24px">std::deque</text>
<path d="M1900,85.294L1920,85.294" style="fill:none;stroke:#00FF00;stroke-width:4" />
<path d="M1915,85.294A5,5 0 1 1 1905,85.294A5,5 0 1 1 1915,85.294Z" style="fill:#00FF00" />
<text x="1792.7" y="-80.319" transform="scale(1, -1)"
	style="font-family:Liberation Serif;font-variant:normal;font-weight:normal;font-style:normal;font-size:24px">std::vector</text>
</g>
</svg>
