<?xml version="1.0"?>
<!-- Generated by SVGo and Plotinum VG -->
<svg width="1920pt" height="1080pt" viewBox="0 0 1920 1080"
	xmlns="http://www.w3.org/2000/svg"
	xmlns:xlink="http://www.w3.org/1999/xlink">
<g transform="scale(1, -1) translate(0, -1080)">
<path d="M0,0L1920,0L1920,1080L0,1080Z" style="fill:#FFFFFF" />
<text x="823.96" y="-1040.9" transform="scale(1, -1)"
	style="font-family:Liberation Serif;font-variant:normal;font-weight:normal;font-style:normal;font-size:50px">random-erase</text>
<text x="890.27" y="-9.7559" transform="scale(1, -1)"
	style="font-family:Liberation Serif;font-variant:normal;font-weight:normal;font-style:normal;font-size:30px">Number of elements</text>
<text x="110.46" y="-39.727" transform="scale(1, -1)"
	style="font-family:Liberation Serif;font-variant:normal;font-weight:normal;font-style:normal;font-size:20px">10000</text>
<text x="305.41" y="-39.727" transform="scale(1, -1)"
	style="font-family:Liberation Serif;font-variant:normal;font-weight:normal;font-style:normal;font-size:20px">20000</text>
<text x="500.36" y="-39.727" transform="scale(1, -1)"
	style="font-family:Liberation Serif;font-variant:normal;font-weight:normal;font-style:normal;font-size:20px">30000</text>
<text x="695.31" y="-39.727" transform="scale(1, -1)"
	style="font-family:Liberation Serif;font-variant:normal;font-weight:normal;font-style:normal;font-size:20px">40000</text>
<text x="890.26" y="-39.727" transform="scale(1, -1)"
	style="font-family:Liberation Serif;font-variant:normal;font-weight:normal;font-style:normal;font-size:20px">50000</text>
<text x="1085.2" y="-39.727" transform="scale(1, -1)"
	style="font-family:Liberation Serif;font-variant:normal;font-weight:normal;font-style:normal;font-size:20px">60000</text>
<text x="1280.2" y="-39.727" transform="scale(1, -1)"
	style="font-family:Liberation Serif;font-variant:normal;font-weight:normal;font-style:normal;font-size:20px">70000</text>
<text x="1475.1" y="-39.727" transform="scale(1, -1)"
	style="font-family:Liberation Serif;font-variant:normal;font-weight:normal;font-style:normal;font-size:20px">80000</text>
<text x="1670.1" y="-39.727" transform="scale(1, -1)"
	style="font-family:Liberation Serif;font-variant:normal;font-weight:normal;font-style:normal;font-size:20px">90000</text>
<text x="1860" y="-39.727" transform="scale(1, -1)"
	style="font-family:Liberation Serif;font-variant:normal;font-weight:normal;font-style:normal;font-size:20px">100000</text>
<path d="M135.46,55.371L135.46,63.371" style="fill:none;stroke:#000000;stroke-width:0.5" />
<path d="M330.41,55.371L330.41,63.371" style="fill:none;stroke:#000000;stroke-width:0.5" />
<path d="M525.36,55.371L525.36,63.371" style="fill:none;stroke:#000000;stroke-width:0.5" />
<path d="M720.31,55.371L720.31,63.371" style="fill:none;stroke:#000000;stroke-width:0.5" />
<path d="M915.26,55.371L915.26,63.371" style="fill:none;stroke:#000000;stroke-width:0.5" />
<path d="M1110.2,55.371L1110.2,63.371" style="fill:none;stroke:#000000;stroke-width:0.5" />
<path d="M1305.2,55.371L1305.2,63.371" style="fill:none;stroke:#000000;stroke-width:0.5" />
<path d="M1500.1,55.371L1500.1,63.371" style="fill:none;stroke:#000000;stroke-width:0.5" />
<path d="M1695.1,55.371L1695.1,63.371" style="fill:none;stroke:#000000;stroke-width:0.5" />
<path d="M1890,55.371L1890,63.371" style="fill:none;stroke:#000000;stroke-width:0.5" />
<path d="M135.46,63.371L1890,63.371" style="fill:none;stroke:#000000;stroke-width:0.5" />
<g transform="rotate(90)">
<text x="538.49" y="23.467" transform="scale(1, -1)"
	style="font-family:Liberation Serif;font-variant:normal;font-weight:normal;font-style:normal;font-size:30px">μs</text>
</g>
<text x="39.712" y="-146.56" transform="scale(1, -1)"
	style="font-family:Liberation Serif;font-variant:normal;font-weight:normal;font-style:normal;font-size:20px">1000000</text>
<text x="39.712" y="-552.36" transform="scale(1, -1)"
	style="font-family:Liberation Serif;font-variant:normal;font-weight:normal;font-style:normal;font-size:20px">5000000</text>
<text x="39.712" y="-958.17" transform="scale(1, -1)"
	style="font-family:Liberation Serif;font-variant:normal;font-weight:normal;font-style:normal;font-size:20px">9000000</text>
<path d="M114.71,151.13L122.71,151.13" style="fill:none;stroke:#000000;stroke-width:0.5" />
<path d="M114.71,556.93L122.71,556.93" style="fill:none;stroke:#000000;stroke-width:0.5" />
<path d="M114.71,962.74L122.71,962.74" style="fill:none;stroke:#000000;stroke-width:0.5" />
<path d="M118.71,252.58L122.71,252.58" style="fill:none;stroke:#000000;stroke-width:0.5" />
<path d="M118.71,354.03L122.71,354.03" style="fill:none;stroke:#000000;stroke-width:0.5" />
<path d="M118.71,455.48L122.71,455.48" style="fill:none;stroke:#000000;stroke-width:0.5" />
<path d="M118.71,658.39L122.71,658.39" style="fill:none;stroke:#000000;stroke-width:0.5" />
<path d="M118.71,759.84L122.71,759.84" style="fill:none;stroke:#000000;stroke-width:0.5" />
<path d="M118.71,861.29L122.71,861.29" style="fill:none;stroke:#000000;stroke-width:0.5" />
<path d="M122.71,80.11L122.71,1024.6" style="fill:none;stroke:#000000;stroke-width:0.5" />
<path d="M135.46,80.11L135.46,1024.6" style="fill:none;stroke:#808080;stroke-width:0.25" />
<path d="M330.41,80.11L330.41,1024.6" style="fill:none;stroke:#808080;stroke-width:0.25" />
<path d="M525.36,80.11L525.36,1024.6" style="fill:none;stroke:#808080;stroke-width:0.25" />
<path d="M720.31,80.11L720.31,1024.6" style="fill:none;stroke:#808080;stroke-width:0.25" />
<path d="M915.26,80.11L915.26,1024.6" style="fill:none;stroke:#808080;stroke-width:0.25" />
<path d="M1110.2,80.11L1110.2,1024.6" style="fill:none;stroke:#808080;stroke-width:0.25" />
<path d="M1305.2,80.11L1305.2,1024.6" style="fill:none;stroke:#808080;stroke-width:0.25" />
<path d="M1500.1,80.11L1500.1,1024.6" style="fill:none;stroke:#808080;stroke-width:0.25" />
<path d="M1695.1,80.11L1695.1,1024.6" style="fill:none;stroke:#808080;stroke-width:0.25" />
<path d="M1890,80.11L1890,1024.6" style="fill:none;stroke:#808080;stroke-width:0.25" />
<path d="M135.46,151.13L1890,151.13" style="fill:none;stroke:#808080;stroke-width:0.25" />
<path d="M135.46,556.93L1890,556.93" style="fill:none;stroke:#808080;stroke-width:0.25" />
<path d="M135.46,962.74L1890,962.74" style="fill:none;stroke:#808080;stroke-width:0.25" />
<path d="M135.46,80.11L330.41,127.64L525.36,191.23L720.31,246.8L915.26,300.89L1110.2,366.32L1305.2,416.48L1500.1,477.34L1695.1,541.5L1890,562.74" style="fill:none;stroke:#FF0000;stroke-width:4" />
<path d="M140.46,80.11A5,5 0 1 1 130.46,80.11A5,5 0 1 1 140.46,80.11Z" style="fill:#FF0000" />
<path d="M335.41,127.64A5,5 0 1 1 325.41,127.64A5,5 0 1 1 335.41,127.64Z" style="fill:#FF0000" />
<path d="M530.36,191.23A5,5 0 1 1 520.36,191.23A5,5 0 1 1 530.36,191.23Z" style="fill:#FF0000" />
<path d="M725.31,246.8A5,5 0 1 1 715.31,246.8A5,5 0 1 1 725.31,246.8Z" style="fill:#FF0000" />
<path d="M920.26,300.89A5,5 0 1 1 910.26,300.89A5,5 0 1 1 920.26,300.89Z" style="fill:#FF0000" />
<path d="M1115.2,366.32A5,5 0 1 1 1105.2,366.32A5,5 0 1 1 1115.2,366.32Z" style="fill:#FF0000" />
<path d="M1310.2,416.48A5,5 0 1 1 1300.2,416.48A5,5 0 1 1 1310.2,416.48Z" style="fill:#FF0000" />
<path d="M1505.1,477.34A5,5 0 1 1 1495.1,477.34A5,5 0 1 1 1505.1,477.34Z" style="fill:#FF0000" />
<path d="M1700.1,541.5A5,5 0 1 1 1690.1,541.5A5,5 0 1 1 1700.1,541.5Z" style="fill:#FF0000" />
<path d="M1895,562.74A5,5 0 1 1 1885,562.74A5,5 0 1 1 1895,562.74Z" style="fill:#FF0000" />
<path d="M135.46,93.408L330.41,176.69L525.36,272.87L720.31,366.7L915.26,448.29L1110.2,560.35L1305.2,631.29L1500.1,728.67L1695.1,810.8L1890,902.54" style="fill:none;stroke:#0000FF;stroke-width:4" />
<path d="M140.46,93.408A5,5 0 1 1 130.46,93.408A5,5 0 1 1 140.46,93.408Z" style="fill:#0000FF" />
<path d="M335.41,176.69A5,5 0 1 1 325.41,176.69A5,5 0 1 1 335.41,176.69Z" style="fill:#0000FF" />
<path d="M530.36,272.87A5,5 0 1 1 520.36,272.87A5,5 0 1 1 530.36,272.87Z" style="fill:#0000FF" />
<path d="M725.31,366.7A5,5 0 1 1 715.31,366.7A5,5 0 1 1 725.31,366.7Z" style="fill:#0000FF" />
<path d="M920.26,448.29A5,5 0 1 1 910.26,448.29A5,5 0 1 1 920.26,448.29Z" style="fill:#0000FF" />
<path d="M1115.2,560.35A5,5 0 1 1 1105.2,560.35A5,5 0 1 1 1115.2,560.35Z" style="fill:#0000FF" />
<path d="M1310.2,631.29A5,5 0 1 1 1300.2,631.29A5,5 0 1 1 1310.2,631.29Z" style="fill:#0000FF" />
<path d="M1505.1,728.67A5,5 0 1 1 1495.1,728.67A5,5 0 1 1 1505.1,728.67Z" style="fill:#0000FF" />
<path d="M1700.1,810.8A5,5 0 1 1 1690.1,810.8A5,5 0 1 1 1700.1,810.8Z" style="fill:#0000FF" />
<path d="M1895,902.54A5,5 0 1 1 1885,902.54A5,5 0 1 1 1895,902.54Z" style="fill:#0000FF" />
<path d="M135.46,88.934L330.41,179.13L525.36,291.2L720.31,375.99L915.26,460.06L1110.2,604.06L1305.2,703.48L1500.1,763.85L1695.1,876.15L1890,936" style="fill:none;stroke:#00FF00;stroke-width:4" />
<path d="M140.46,88.934A5,5 0 1 1 130.46,88.934A5,5 0 1 1 140.46,88.934Z" style="fill:#00FF00" />
<path d="M335.41,179.13A5,5 0 1 1 325.41,179.13A5,5 0 1 1 335.41,179.13Z" style="fill:#00FF00" />
<path d="M530.36,291.2A5,5 0 1 1 520.36,291.2A5,5 0 1 1 530.36,291.2Z" style="fill:#00FF00" />
<path d="M725.31,375.99A5,5 0 1 1 715.31,375.99A5,5 0 1 1 725.31,375.99Z" style="fill:#00FF00" />
<path d="M920.26,460.06A5,5 0 1 1 910.26,460.06A5,5 0 1 1 920.26,460.06Z" style="fill:#00FF00" />
<path d="M1115.2,604.06A5,5 0 1 1 1105.2,604.06A5,5 0 1 1 1115.2,604.06Z" style="fill:#00FF00" />
<path d="M1310.2,703.48A5,5 0 1 1 1300.2,703.48A5,5 0 1 1 1310.2,703.48Z" style="fill:#00FF00" />
<path d="M1505.1,763.85A5,5 0 1 1 1495.1,763.85A5,5 0 1 1 1505.1,763.85Z" style="fill:#00FF00" />
<path d="M1700.1,876.15A5,5 0 1 1 1690.1,876.15A5,5 0 1 1 1700.1,876.15Z" style="fill:#00FF00" />
<path d="M1895,936A5,5 0 1 1 1885,936A5,5 0 1 1 1895,936Z" style="fill:#00FF00" />
<path d="M1900,126.03L1920,126.03" style="fill:none;stroke:#FF0000;stroke-width:4" />
<path d="M1915,126.03A5,5 0 1 1 1905,126.03A5,5 0 1 1 1915,126.03Z" style="fill:#FF0000" />
<text x="1823.3" y="-121.05" transform="scale(1, -1)"
	style="font-family:Liberation Serif;font-variant:normal;font-weight:normal;font-style:normal;font-size:24px">std::list</text>
<path d="M1900,105.66L1920,105.66" style="fill:none;stroke:#0000FF;stroke-width:4" />
<path d="M1915,105.66A5,5 0 1 1 1905,105.66A5,5 0 1 1 1915,105.66Z" style="fill:#0000FF" />
<text x="1795.4" y="-100.69" transform="scale(1, -1)"
	style="font-family:Liberation Serif;font-variant:normal;font-weight:normal;font-style:normal;font-size:24px">std::deque</text>
<path d="M1900,85.294L1920,85.294" style="fill:none;stroke:#00FF00;stroke-width:4" />
<path d="M1915,85.294A5,5 0 1 1 1905,85.294A5,5 0 1 1 1915,85.294Z" style="fill:#00FF00" />
<text x="1792.7" y="-80.319" transform="scale(1, -1)"
	style="font-family:Liberation Serif;font-variant:normal;font-weight:normal;font-style:normal;font-size:24px">std::vector</text>
</g>
</svg>
