<?xml version="1.0"?>
<!-- Generated by SVGo and Plotinum VG -->
<svg width="1920pt" height="1080pt" viewBox="0 0 1920 1080"
	xmlns="http://www.w3.org/2000/svg"
	xmlns:xlink="http://www.w3.org/1999/xlink">
<g transform="scale(1, -1) translate(0, -1080)">
<path d="M0,0L1920,0L1920,1080L0,1080Z" style="fill:#FFFFFF" />
<text x="831.42" y="-1040.9" transform="scale(1, -1)"
	style="font-family:Liberation Serif;font-variant:normal;font-weight:normal;font-style:normal;font-size:50px">linear-search</text>
<text x="892.77" y="-9.7559" transform="scale(1, -1)"
	style="font-family:Liberation Serif;font-variant:normal;font-weight:normal;font-style:normal;font-size:30px">Number of elements</text>
<text x="115.46" y="-39.727" transform="scale(1, -1)"
	style="font-family:Liberation Serif;font-variant:normal;font-weight:normal;font-style:normal;font-size:20px">1000</text>
<text x="310.97" y="-39.727" transform="scale(1, -1)"
	style="font-family:Liberation Serif;font-variant:normal;font-weight:normal;font-style:normal;font-size:20px">2000</text>
<text x="506.47" y="-39.727" transform="scale(1, -1)"
	style="font-family:Liberation Serif;font-variant:normal;font-weight:normal;font-style:normal;font-size:20px">3000</text>
<text x="701.97" y="-39.727" transform="scale(1, -1)"
	style="font-family:Liberation Serif;font-variant:normal;font-weight:normal;font-style:normal;font-size:20px">4000</text>
<text x="897.48" y="-39.727" transform="scale(1, -1)"
	style="font-family:Liberation Serif;font-variant:normal;font-weight:normal;font-style:normal;font-size:20px">5000</text>
<text x="1093" y="-39.727" transform="scale(1, -1)"
	style="font-family:Liberation Serif;font-variant:normal;font-weight:normal;font-style:normal;font-size:20px">6000</text>
<text x="1288.5" y="-39.727" transform="scale(1, -1)"
	style="font-family:Liberation Serif;font-variant:normal;font-weight:normal;font-style:normal;font-size:20px">7000</text>
<text x="1484" y="-39.727" transform="scale(1, -1)"
	style="font-family:Liberation Serif;font-variant:normal;font-weight:normal;font-style:normal;font-size:20px">8000</text>
<text x="1679.5" y="-39.727" transform="scale(1, -1)"
	style="font-family:Liberation Serif;font-variant:normal;font-weight:normal;font-style:normal;font-size:20px">9000</text>
<text x="1870" y="-39.727" transform="scale(1, -1)"
	style="font-family:Liberation Serif;font-variant:normal;font-weight:normal;font-style:normal;font-size:20px">10000</text>
<path d="M135.46,55.371L135.46,63.371" style="fill:none;stroke:#000000;stroke-width:0.5" />
<path d="M330.97,55.371L330.97,63.371" style="fill:none;stroke:#000000;stroke-width:0.5" />
<path d="M526.47,55.371L526.47,63.371" style="fill:none;stroke:#000000;stroke-width:0.5" />
<path d="M721.97,55.371L721.97,63.371" style="fill:none;stroke:#000000;stroke-width:0.5" />
<path d="M917.48,55.371L917.48,63.371" style="fill:none;stroke:#000000;stroke-width:0.5" />
<path d="M1113,55.371L1113,63.371" style="fill:none;stroke:#000000;stroke-width:0.5" />
<path d="M1308.5,55.371L1308.5,63.371" style="fill:none;stroke:#000000;stroke-width:0.5" />
<path d="M1504,55.371L1504,63.371" style="fill:none;stroke:#000000;stroke-width:0.5" />
<path d="M1699.5,55.371L1699.5,63.371" style="fill:none;stroke:#000000;stroke-width:0.5" />
<path d="M1895,55.371L1895,63.371" style="fill:none;stroke:#000000;stroke-width:0.5" />
<path d="M135.46,63.371L1895,63.371" style="fill:none;stroke:#000000;stroke-width:0.5" />
<g transform="rotate(90)">
<text x="538.49" y="23.467" transform="scale(1, -1)"
	style="font-family:Liberation Serif;font-variant:normal;font-weight:normal;font-style:normal;font-size:30px">μs</text>
</g>
<text x="39.712" y="-181.66" transform="scale(1, -1)"
	style="font-family:Liberation Serif;font-variant:normal;font-weight:normal;font-style:normal;font-size:20px">1000000</text>
<text x="39.712" y="-522.94" transform="scale(1, -1)"
	style="font-family:Liberation Serif;font-variant:normal;font-weight:normal;font-style:normal;font-size:20px">4000000</text>
<text x="39.712" y="-864.21" transform="scale(1, -1)"
	style="font-family:Liberation Serif;font-variant:normal;font-weight:normal;font-style:normal;font-size:20px">7000000</text>
<path d="M114.71,186.23L122.71,186.23" style="fill:none;stroke:#000000;stroke-width:0.5" />
<path d="M114.71,527.51L122.71,527.51" style="fill:none;stroke:#000000;stroke-width:0.5" />
<path d="M114.71,868.78L122.71,868.78" style="fill:none;stroke:#000000;stroke-width:0.5" />
<path d="M118.71,299.99L122.71,299.99" style="fill:none;stroke:#000000;stroke-width:0.5" />
<path d="M118.71,413.75L122.71,413.75" style="fill:none;stroke:#000000;stroke-width:0.5" />
<path d="M118.71,641.27L122.71,641.27" style="fill:none;stroke:#000000;stroke-width:0.5" />
<path d="M118.71,755.03L122.71,755.03" style="fill:none;stroke:#000000;stroke-width:0.5" />
<path d="M118.71,982.54L122.71,982.54" style="fill:none;stroke:#000000;stroke-width:0.5" />
<path d="M122.71,80.11L122.71,1024.6" style="fill:none;stroke:#000000;stroke-width:0.5" />
<path d="M135.46,80.11L135.46,1024.6" style="fill:none;stroke:#808080;stroke-width:0.25" />
<path d="M330.97,80.11L330.97,1024.6" style="fill:none;stroke:#808080;stroke-width:0.25" />
<path d="M526.47,80.11L526.47,1024.6" style="fill:none;stroke:#808080;stroke-width:0.25" />
<path d="M721.97,80.11L721.97,1024.6" style="fill:none;stroke:#808080;stroke-width:0.25" />
<path d="M917.48,80.11L917.48,1024.6" style="fill:none;stroke:#808080;stroke-width:0.25" />
<path d="M1113,80.11L1113,1024.6" style="fill:none;stroke:#808080;stroke-width:0.25" />
<path d="M1308.5,80.11L1308.5,1024.6" style="fill:none;stroke:#808080;stroke-width:0.25" />
<path d="M1504,80.11L1504,1024.6" style="fill:none;stroke:#808080;stroke-width:0.25" />
<path d="M1699.5,80.11L1699.5,1024.6" style="fill:none;stroke:#808080;stroke-width:0.25" />
<path d="M1895,80.11L1895,1024.6" style="fill:none;stroke:#808080;stroke-width:0.25" />
<path d="M135.46,186.23L1895,186.23" style="fill:none;stroke:#808080;stroke-width:0.25" />
<path d="M135.46,527.51L1895,527.51" style="fill:none;stroke:#808080;stroke-width:0.25" />
<path d="M135.46,868.78L1895,868.78" style="fill:none;stroke:#808080;stroke-width:0.25" />
<path d="M135.46,80.11L330.97,102.69L526.47,138.58L721.97,193.7L917.48,256.69L1113,338.53L1308.5,452.64L1504,558.39L1699.5,744.8L1895,938.07" style="fill:none;stroke:#FF0000;stroke-width:4" />
<path d="M140.46,80.11A5,5 0 1 1 130.46,80.11A5,5 0 1 1 140.46,80.11Z" style="fill:#FF0000" />
<path d="M335.97,102.69A5,5 0 1 1 325.97,102.69A5,5 0 1 1 335.97,102.69Z" style="fill:#FF0000" />
<path d="M531.47,138.58A5,5 0 1 1 521.47,138.58A5,5 0 1 1 531.47,138.58Z" style="fill:#FF0000" />
<path d="M726.97,193.7A5,5 0 1 1 716.97,193.7A5,5 0 1 1 726.97,193.7Z" style="fill:#FF0000" />
<path d="M922.48,256.69A5,5 0 1 1 912.48,256.69A5,5 0 1 1 922.48,256.69Z" style="fill:#FF0000" />
<path d="M1118,338.53A5,5 0 1 1 1108,338.53A5,5 0 1 1 1118,338.53Z" style="fill:#FF0000" />
<path d="M1313.5,452.64A5,5 0 1 1 1303.5,452.64A5,5 0 1 1 1313.5,452.64Z" style="fill:#FF0000" />
<path d="M1509,558.39A5,5 0 1 1 1499,558.39A5,5 0 1 1 1509,558.39Z" style="fill:#FF0000" />
<path d="M1704.5,744.8A5,5 0 1 1 1694.5,744.8A5,5 0 1 1 1704.5,744.8Z" style="fill:#FF0000" />
<path d="M1900,938.07A5,5 0 1 1 1890,938.07A5,5 0 1 1 1900,938.07Z" style="fill:#FF0000" />
<path d="M135.46,81.74L330.97,103.48L526.47,147.9L721.97,213.48L917.48,287.37L1113,375.03L1308.5,466.26L1504,574.6L1699.5,725.33L1895,894.51" style="fill:none;stroke:#0000FF;stroke-width:4" />
<path d="M140.46,81.74A5,5 0 1 1 130.46,81.74A5,5 0 1 1 140.46,81.74Z" style="fill:#0000FF" />
<path d="M335.97,103.48A5,5 0 1 1 325.97,103.48A5,5 0 1 1 335.97,103.48Z" style="fill:#0000FF" />
<path d="M531.47,147.9A5,5 0 1 1 521.47,147.9A5,5 0 1 1 531.47,147.9Z" style="fill:#0000FF" />
<path d="M726.97,213.48A5,5 0 1 1 716.97,213.48A5,5 0 1 1 726.97,213.48Z" style="fill:#0000FF" />
<path d="M922.48,287.37A5,5 0 1 1 912.48,287.37A5,5 0 1 1 922.48,287.37Z" style="fill:#0000FF" />
<path d="M1118,375.03A5,5 0 1 1 1108,375.03A5,5 0 1 1 1118,375.03Z" style="fill:#0000FF" />
<path d="M1313.5,466.26A5,5 0 1 1 1303.5,466.26A5,5 0 1 1 1313.5,466.26Z" style="fill:#0000FF" />
<path d="M1509,574.6A5,5 0 1 1 1499,574.6A5,5 0 1 1 1509,574.6Z" style="fill:#0000FF" />
<path d="M1704.5,725.33A5,5 0 1 1 1694.5,725.33A5,5 0 1 1 1704.5,725.33Z" style="fill:#0000FF" />
<path d="M1900,894.51A5,5 0 1 1 1890,894.51A5,5 0 1 1 1900,894.51Z" style="fill:#0000FF" />
<path d="M135.46,82.438L330.97,109.01L526.47,145.25L721.97,191.6L917.48,263.11L1113,370.59L1308.5,469.65L1504,585.59L1699.5,692.77L1895,847.84" style="fill:none;stroke:#00FF00;stroke-width:4" />
<path d="M140.46,82.438A5,5 0 1 1 130.46,82.438A5,5 0 1 1 140.46,82.438Z" style="fill:#00FF00" />
<path d="M335.97,109.01A5,5 0 1 1 325.97,109.01A5,5 0 1 1 335.97,109.01Z" style="fill:#00FF00" />
<path d="M531.47,145.25A5,5 0 1 1 521.47,145.25A5,5 0 1 1 531.47,145.25Z" style="fill:#00FF00" />
<path d="M726.97,191.6A5,5 0 1 1 716.97,191.6A5,5 0 1 1 726.97,191.6Z" style="fill:#00FF00" />
<path d="M922.48,263.11A5,5 0 1 1 912.48,263.11A5,5 0 1 1 922.48,263.11Z" style="fill:#00FF00" />
<path d="M1118,370.59A5,5 0 1 1 1108,370.59A5,5 0 1 1 1118,370.59Z" style="fill:#00FF00" />
<path d="M1313.5,469.65A5,5 0 1 1 1303.5,469.65A5,5 0 1 1 1313.5,469.65Z" style="fill:#00FF00" />
<path d="M1509,585.59A5,5 0 1 1 1499,585.59A5,5 0 1 1 1509,585.59Z" style="fill:#00FF00" />
<path d="M1704.5,692.77A5,5 0 1 1 1694.5,692.77A5,5 0 1 1 1704.5,692.77Z" style="fill:#00FF00" />
<path d="M1900,847.84A5,5 0 1 1 1890,847.84A5,5 0 1 1 1900,847.84Z" style="fill:#00FF00" />
<path d="M1900,126.03L1920,126.03" style="fill:none;stroke:#FF0000;stroke-width:4" />
<path d="M1915,126.03A5,5 0 1 1 1905,126.03A5,5 0 1 1 1915,126.03Z" style="fill:#FF0000" />
<text x="1795.4" y="-121.05" transform="scale(1, -1)"
	style="font-family:Liberation Serif;font-variant:normal;font-weight:normal;font-style:normal;font-size:24px">std::deque</text>
<path d="M1900,105.66L1920,105.66" style="fill:none;stroke:#0000FF;stroke-width:4" />
<path d="M1915,105.66A5,5 0 1 1 1905,105.66A5,5 0 1 1 1915,105.66Z" style="fill:#0000FF" />
<text x="1792.7" y="-100.69" transform="scale(1, -1)"
	style="font-family:Liberation Serif;font-variant:normal;font-weight:normal;font-style:normal;font-size:24px">std::vector</text>
<path d="M1900,85.294L1920,85.294" style="fill:none;stroke:#00FF00;stroke-width:4" />
<path d="M1915,85.294A5,5 0 1 1 1905,85.294A5,5 0 1 1 1915,85.294Z" style="fill:#00FF00" />
<text x="1823.3" y="-80.319" transform="scale(1, -1)"
	style="font-family:Liberation Serif;font-variant:normal;font-weight:normal;font-style:normal;font-size:24px">std::list</text>
</g>
</svg>
