<?xml version="1.0"?>
<!-- Generated by SVGo and Plotinum VG -->
<svg width="1920pt" height="1080pt" viewBox="0 0 1920 1080"
	xmlns="http://www.w3.org/2000/svg"
	xmlns:xlink="http://www.w3.org/1999/xlink">
<g transform="scale(1, -1) translate(0, -1080)">
<path d="M0,0L1920,0L1920,1080L0,1080Z" style="fill:#FFFFFF" />
<text x="831.42" y="-1040.9" transform="scale(1, -1)"
	style="font-family:Liberation Serif;font-variant:normal;font-weight:normal;font-style:normal;font-size:50px">linear-search</text>
<text x="892.77" y="-9.7559" transform="scale(1, -1)"
	style="font-family:Liberation Serif;font-variant:normal;font-weight:normal;font-style:normal;font-size:30px">Number of elements</text>
<text x="115.46" y="-39.727" transform="scale(1, -1)"
	style="font-family:Liberation Serif;font-variant:normal;font-weight:normal;font-style:normal;font-size:20px">1000</text>
<text x="310.97" y="-39.727" transform="scale(1, -1)"
	style="font-family:Liberation Serif;font-variant:normal;font-weight:normal;font-style:normal;font-size:20px">2000</text>
<text x="506.47" y="-39.727" transform="scale(1, -1)"
	style="font-family:Liberation Serif;font-variant:normal;font-weight:normal;font-style:normal;font-size:20px">3000</text>
<text x="701.97" y="-39.727" transform="scale(1, -1)"
	style="font-family:Liberation Serif;font-variant:normal;font-weight:normal;font-style:normal;font-size:20px">4000</text>
<text x="897.48" y="-39.727" transform="scale(1, -1)"
	style="font-family:Liberation Serif;font-variant:normal;font-weight:normal;font-style:normal;font-size:20px">5000</text>
<text x="1093" y="-39.727" transform="scale(1, -1)"
	style="font-family:Liberation Serif;font-variant:normal;font-weight:normal;font-style:normal;font-size:20px">6000</text>
<text x="1288.5" y="-39.727" transform="scale(1, -1)"
	style="font-family:Liberation Serif;font-variant:normal;font-weight:normal;font-style:normal;font-size:20px">7000</text>
<text x="1484" y="-39.727" transform="scale(1, -1)"
	style="font-family:Liberation Serif;font-variant:normal;font-weight:normal;font-style:normal;font-size:20px">8000</text>
<text x="1679.5" y="-39.727" transform="scale(1, -1)"
	style="font-family:Liberation Serif;font-variant:normal;font-weight:normal;font-style:normal;font-size:20px">9000</text>
<text x="1870" y="-39.727" transform="scale(1, -1)"
	style="font-family:Liberation Serif;font-variant:normal;font-weight:normal;font-style:normal;font-size:20px">10000</text>
<path d="M135.46,55.371L135.46,63.371" style="fill:none;stroke:#000000;stroke-width:0.5" />
<path d="M330.97,55.371L330.97,63.371" style="fill:none;stroke:#000000;stroke-width:0.5" />
<path d="M526.47,55.371L526.47,63.371" style="fill:none;stroke:#000000;stroke-width:0.5" />
<path d="M721.97,55.371L721.97,63.371" style="fill:none;stroke:#000000;stroke-width:0.5" />
<path d="M917.48,55.371L917.48,63.371" style="fill:none;stroke:#000000;stroke-width:0.5" />
<path d="M1113,55.371L1113,63.371" style="fill:none;stroke:#000000;stroke-width:0.5" />
<path d="M1308.5,55.371L1308.5,63.371" style="fill:none;stroke:#000000;stroke-width:0.5" />
<path d="M1504,55.371L1504,63.371" style="fill:none;stroke:#000000;stroke-width:0.5" />
<path d="M1699.5,55.371L1699.5,63.371" style="fill:none;stroke:#000000;stroke-width:0.5" />
<path d="M1895,55.371L1895,63.371" style="fill:none;stroke:#000000;stroke-width:0.5" />
<path d="M135.46,63.371L1895,63.371" style="fill:none;stroke:#000000;stroke-width:0.5" />
<g transform="rotate(90)">
<text x="538.49" y="23.467" transform="scale(1, -1)"
	style="font-family:Liberation Serif;font-variant:normal;font-weight:normal;font-style:normal;font-size:30px">μs</text>
</g>
<text x="39.712" y="-191.21" transform="scale(1, -1)"
	style="font-family:Liberation Serif;font-variant:normal;font-weight:normal;font-style:normal;font-size:20px">1000000</text>
<text x="39.712" y="-561.79" transform="scale(1, -1)"
	style="font-family:Liberation Serif;font-variant:normal;font-weight:normal;font-style:normal;font-size:20px">4000000</text>
<text x="39.712" y="-932.36" transform="scale(1, -1)"
	style="font-family:Liberation Serif;font-variant:normal;font-weight:normal;font-style:normal;font-size:20px">7000000</text>
<path d="M114.71,195.78L122.71,195.78" style="fill:none;stroke:#000000;stroke-width:0.5" />
<path d="M114.71,566.36L122.71,566.36" style="fill:none;stroke:#000000;stroke-width:0.5" />
<path d="M114.71,936.93L122.71,936.93" style="fill:none;stroke:#000000;stroke-width:0.5" />
<path d="M118.71,319.31L122.71,319.31" style="fill:none;stroke:#000000;stroke-width:0.5" />
<path d="M118.71,442.83L122.71,442.83" style="fill:none;stroke:#000000;stroke-width:0.5" />
<path d="M118.71,689.88L122.71,689.88" style="fill:none;stroke:#000000;stroke-width:0.5" />
<path d="M118.71,813.4L122.71,813.4" style="fill:none;stroke:#000000;stroke-width:0.5" />
<path d="M122.71,80.11L122.71,1024.6" style="fill:none;stroke:#000000;stroke-width:0.5" />
<path d="M135.46,80.11L135.46,1024.6" style="fill:none;stroke:#808080;stroke-width:0.25" />
<path d="M330.97,80.11L330.97,1024.6" style="fill:none;stroke:#808080;stroke-width:0.25" />
<path d="M526.47,80.11L526.47,1024.6" style="fill:none;stroke:#808080;stroke-width:0.25" />
<path d="M721.97,80.11L721.97,1024.6" style="fill:none;stroke:#808080;stroke-width:0.25" />
<path d="M917.48,80.11L917.48,1024.6" style="fill:none;stroke:#808080;stroke-width:0.25" />
<path d="M1113,80.11L1113,1024.6" style="fill:none;stroke:#808080;stroke-width:0.25" />
<path d="M1308.5,80.11L1308.5,1024.6" style="fill:none;stroke:#808080;stroke-width:0.25" />
<path d="M1504,80.11L1504,1024.6" style="fill:none;stroke:#808080;stroke-width:0.25" />
<path d="M1699.5,80.11L1699.5,1024.6" style="fill:none;stroke:#808080;stroke-width:0.25" />
<path d="M1895,80.11L1895,1024.6" style="fill:none;stroke:#808080;stroke-width:0.25" />
<path d="M135.46,195.78L1895,195.78" style="fill:none;stroke:#808080;stroke-width:0.25" />
<path d="M135.46,566.36L1895,566.36" style="fill:none;stroke:#808080;stroke-width:0.25" />
<path d="M135.46,936.93L1895,936.93" style="fill:none;stroke:#808080;stroke-width:0.25" />
<path d="M135.46,80.11L330.97,102.16L526.47,143.39L721.97,194.42L917.48,265.1L1113,353.02L1308.5,482.69L1504,615.85L1699.5,756.17L1895,904.67" style="fill:none;stroke:#FF0000;stroke-width:4" />
<path d="M140.46,80.11A5,5 0 1 1 130.46,80.11A5,5 0 1 1 140.46,80.11Z" style="fill:#FF0000" />
<path d="M335.97,102.16A5,5 0 1 1 325.97,102.16A5,5 0 1 1 335.97,102.16Z" style="fill:#FF0000" />
<path d="M531.47,143.39A5,5 0 1 1 521.47,143.39A5,5 0 1 1 531.47,143.39Z" style="fill:#FF0000" />
<path d="M726.97,194.42A5,5 0 1 1 716.97,194.42A5,5 0 1 1 726.97,194.42Z" style="fill:#FF0000" />
<path d="M922.48,265.1A5,5 0 1 1 912.48,265.1A5,5 0 1 1 922.48,265.1Z" style="fill:#FF0000" />
<path d="M1118,353.02A5,5 0 1 1 1108,353.02A5,5 0 1 1 1118,353.02Z" style="fill:#FF0000" />
<path d="M1313.5,482.69A5,5 0 1 1 1303.5,482.69A5,5 0 1 1 1313.5,482.69Z" style="fill:#FF0000" />
<path d="M1509,615.85A5,5 0 1 1 1499,615.85A5,5 0 1 1 1509,615.85Z" style="fill:#FF0000" />
<path d="M1704.5,756.17A5,5 0 1 1 1694.5,756.17A5,5 0 1 1 1704.5,756.17Z" style="fill:#FF0000" />
<path d="M1900,904.67A5,5 0 1 1 1890,904.67A5,5 0 1 1 1900,904.67Z" style="fill:#FF0000" />
<path d="M135.46,82.787L330.97,105.93L526.47,145.56L721.97,197.71L917.48,271.94L1113,356.99L1308.5,515.02L1504,618.37L1699.5,755.16L1895,938.05" style="fill:none;stroke:#0000FF;stroke-width:4" />
<path d="M140.46,82.787A5,5 0 1 1 130.46,82.787A5,5 0 1 1 140.46,82.787Z" style="fill:#0000FF" />
<path d="M335.97,105.93A5,5 0 1 1 325.97,105.93A5,5 0 1 1 335.97,105.93Z" style="fill:#0000FF" />
<path d="M531.47,145.56A5,5 0 1 1 521.47,145.56A5,5 0 1 1 531.47,145.56Z" style="fill:#0000FF" />
<path d="M726.97,197.71A5,5 0 1 1 716.97,197.71A5,5 0 1 1 726.97,197.71Z" style="fill:#0000FF" />
<path d="M922.48,271.94A5,5 0 1 1 912.48,271.94A5,5 0 1 1 922.48,271.94Z" style="fill:#0000FF" />
<path d="M1118,356.99A5,5 0 1 1 1108,356.99A5,5 0 1 1 1118,356.99Z" style="fill:#0000FF" />
<path d="M1313.5,515.02A5,5 0 1 1 1303.5,515.02A5,5 0 1 1 1313.5,515.02Z" style="fill:#0000FF" />
<path d="M1509,618.37A5,5 0 1 1 1499,618.37A5,5 0 1 1 1509,618.37Z" style="fill:#0000FF" />
<path d="M1704.5,755.16A5,5 0 1 1 1694.5,755.16A5,5 0 1 1 1704.5,755.16Z" style="fill:#0000FF" />
<path d="M1900,938.05A5,5 0 1 1 1890,938.05A5,5 0 1 1 1900,938.05Z" style="fill:#0000FF" />
<path d="M135.46,80.254L330.97,103.83L526.47,150.16L721.97,196.21L917.48,273.89L1113,370.86L1308.5,477.91L1504,601.68L1699.5,734.9L1895,876.07" style="fill:none;stroke:#00FF00;stroke-width:4" />
<path d="M140.46,80.254A5,5 0 1 1 130.46,80.254A5,5 0 1 1 140.46,80.254Z" style="fill:#00FF00" />
<path d="M335.97,103.83A5,5 0 1 1 325.97,103.83A5,5 0 1 1 335.97,103.83Z" style="fill:#00FF00" />
<path d="M531.47,150.16A5,5 0 1 1 521.47,150.16A5,5 0 1 1 531.47,150.16Z" style="fill:#00FF00" />
<path d="M726.97,196.21A5,5 0 1 1 716.97,196.21A5,5 0 1 1 726.97,196.21Z" style="fill:#00FF00" />
<path d="M922.48,273.89A5,5 0 1 1 912.48,273.89A5,5 0 1 1 922.48,273.89Z" style="fill:#00FF00" />
<path d="M1118,370.86A5,5 0 1 1 1108,370.86A5,5 0 1 1 1118,370.86Z" style="fill:#00FF00" />
<path d="M1313.5,477.91A5,5 0 1 1 1303.5,477.91A5,5 0 1 1 1313.5,477.91Z" style="fill:#00FF00" />
<path d="M1509,601.68A5,5 0 1 1 1499,601.68A5,5 0 1 1 1509,601.68Z" style="fill:#00FF00" />
<path d="M1704.5,734.9A5,5 0 1 1 1694.5,734.9A5,5 0 1 1 1704.5,734.9Z" style="fill:#00FF00" />
<path d="M1900,876.07A5,5 0 1 1 1890,876.07A5,5 0 1 1 1900,876.07Z" style="fill:#00FF00" />
<path d="M1900,126.03L1920,126.03" style="fill:none;stroke:#FF0000;stroke-width:4" />
<path d="M1915,126.03A5,5 0 1 1 1905,126.03A5,5 0 1 1 1915,126.03Z" style="fill:#FF0000" />
<text x="1792.7" y="-121.05" transform="scale(1, -1)"
	style="font-family:Liberation Serif;font-variant:normal;font-weight:normal;font-style:normal;font-size:24px">std::vector</text>
<path d="M1900,105.66L1920,105.66" style="fill:none;stroke:#0000FF;stroke-width:4" />
<path d="M1915,105.66A5,5 0 1 1 1905,105.66A5,5 0 1 1 1915,105.66Z" style="fill:#0000FF" />
<text x="1823.3" y="-100.69" transform="scale(1, -1)"
	style="font-family:Liberation Serif;font-variant:normal;font-weight:normal;font-style:normal;font-size:24px">std::list</text>
<path d="M1900,85.294L1920,85.294" style="fill:none;stroke:#00FF00;stroke-width:4" />
<path d="M1915,85.294A5,5 0 1 1 1905,85.294A5,5 0 1 1 1915,85.294Z" style="fill:#00FF00" />
<text x="1795.4" y="-80.319" transform="scale(1, -1)"
	style="font-family:Liberation Serif;font-variant:normal;font-weight:normal;font-style:normal;font-size:24px">std::deque</text>
</g>
</svg>
