<?xml version="1.0"?>
<!-- Generated by SVGo and Plotinum VG -->
<svg width="1920pt" height="1080pt" viewBox="0 0 1920 1080"
	xmlns="http://www.w3.org/2000/svg"
	xmlns:xlink="http://www.w3.org/1999/xlink">
<g transform="scale(1, -1) translate(0, -1080)">
<path d="M0,0L1920,0L1920,1080L0,1080Z" style="fill:#FFFFFF" />
<text x="709.94" y="-1040.9" transform="scale(1, -1)"
	style="font-family:Liberation Serif;font-variant:normal;font-weight:normal;font-style:normal;font-size:50px">linear-search - Log Scale</text>
<text x="892.77" y="-9.7559" transform="scale(1, -1)"
	style="font-family:Liberation Serif;font-variant:normal;font-weight:normal;font-style:normal;font-size:30px">Number of elements</text>
<text x="115.46" y="-39.727" transform="scale(1, -1)"
	style="font-family:Liberation Serif;font-variant:normal;font-weight:normal;font-style:normal;font-size:20px">1000</text>
<text x="310.97" y="-39.727" transform="scale(1, -1)"
	style="font-family:Liberation Serif;font-variant:normal;font-weight:normal;font-style:normal;font-size:20px">2000</text>
<text x="506.47" y="-39.727" transform="scale(1, -1)"
	style="font-family:Liberation Serif;font-variant:normal;font-weight:normal;font-style:normal;font-size:20px">3000</text>
<text x="701.97" y="-39.727" transform="scale(1, -1)"
	style="font-family:Liberation Serif;font-variant:normal;font-weight:normal;font-style:normal;font-size:20px">4000</text>
<text x="897.48" y="-39.727" transform="scale(1, -1)"
	style="font-family:Liberation Serif;font-variant:normal;font-weight:normal;font-style:normal;font-size:20px">5000</text>
<text x="1093" y="-39.727" transform="scale(1, -1)"
	style="font-family:Liberation Serif;font-variant:normal;font-weight:normal;font-style:normal;font-size:20px">6000</text>
<text x="1288.5" y="-39.727" transform="scale(1, -1)"
	style="font-family:Liberation Serif;font-variant:normal;font-weight:normal;font-style:normal;font-size:20px">7000</text>
<text x="1484" y="-39.727" transform="scale(1, -1)"
	style="font-family:Liberation Serif;font-variant:normal;font-weight:normal;font-style:normal;font-size:20px">8000</text>
<text x="1679.5" y="-39.727" transform="scale(1, -1)"
	style="font-family:Liberation Serif;font-variant:normal;font-weight:normal;font-style:normal;font-size:20px">9000</text>
<text x="1870" y="-39.727" transform="scale(1, -1)"
	style="font-family:Liberation Serif;font-variant:normal;font-weight:normal;font-style:normal;font-size:20px">10000</text>
<path d="M135.46,55.371L135.46,63.371" style="fill:none;stroke:#000000;stroke-width:0.5" />
<path d="M330.97,55.371L330.97,63.371" style="fill:none;stroke:#000000;stroke-width:0.5" />
<path d="M526.47,55.371L526.47,63.371" style="fill:none;stroke:#000000;stroke-width:0.5" />
<path d="M721.97,55.371L721.97,63.371" style="fill:none;stroke:#000000;stroke-width:0.5" />
<path d="M917.48,55.371L917.48,63.371" style="fill:none;stroke:#000000;stroke-width:0.5" />
<path d="M1113,55.371L1113,63.371" style="fill:none;stroke:#000000;stroke-width:0.5" />
<path d="M1308.5,55.371L1308.5,63.371" style="fill:none;stroke:#000000;stroke-width:0.5" />
<path d="M1504,55.371L1504,63.371" style="fill:none;stroke:#000000;stroke-width:0.5" />
<path d="M1699.5,55.371L1699.5,63.371" style="fill:none;stroke:#000000;stroke-width:0.5" />
<path d="M1895,55.371L1895,63.371" style="fill:none;stroke:#000000;stroke-width:0.5" />
<path d="M135.46,63.371L1895,63.371" style="fill:none;stroke:#000000;stroke-width:0.5" />
<g transform="rotate(90)">
<text x="485.87" y="23.467" transform="scale(1, -1)"
	style="font-family:Liberation Serif;font-variant:normal;font-weight:normal;font-style:normal;font-size:30px">log(μs + 1)</text>
</g>
<text x="39.712" y="-618" transform="scale(1, -1)"
	style="font-family:Liberation Serif;font-variant:normal;font-weight:normal;font-style:normal;font-size:20px">1000000</text>
<text x="39.712" y="-890.89" transform="scale(1, -1)"
	style="font-family:Liberation Serif;font-variant:normal;font-weight:normal;font-style:normal;font-size:20px">4000000</text>
<text x="39.712" y="-1001" transform="scale(1, -1)"
	style="font-family:Liberation Serif;font-variant:normal;font-weight:normal;font-style:normal;font-size:20px">7000000</text>
<path d="M114.71,622.57L122.71,622.57" style="fill:none;stroke:#000000;stroke-width:0.5" />
<path d="M114.71,895.46L122.71,895.46" style="fill:none;stroke:#000000;stroke-width:0.5" />
<path d="M114.71,1005.6L122.71,1005.6" style="fill:none;stroke:#000000;stroke-width:0.5" />
<path d="M118.71,759.01L122.71,759.01" style="fill:none;stroke:#000000;stroke-width:0.5" />
<path d="M118.71,838.83L122.71,838.83" style="fill:none;stroke:#000000;stroke-width:0.5" />
<path d="M118.71,939.38L122.71,939.38" style="fill:none;stroke:#000000;stroke-width:0.5" />
<path d="M118.71,975.27L122.71,975.27" style="fill:none;stroke:#000000;stroke-width:0.5" />
<path d="M122.71,80.11L122.71,1024.6" style="fill:none;stroke:#000000;stroke-width:0.5" />
<path d="M135.46,80.11L135.46,1024.6" style="fill:none;stroke:#808080;stroke-width:0.25" />
<path d="M330.97,80.11L330.97,1024.6" style="fill:none;stroke:#808080;stroke-width:0.25" />
<path d="M526.47,80.11L526.47,1024.6" style="fill:none;stroke:#808080;stroke-width:0.25" />
<path d="M721.97,80.11L721.97,1024.6" style="fill:none;stroke:#808080;stroke-width:0.25" />
<path d="M917.48,80.11L917.48,1024.6" style="fill:none;stroke:#808080;stroke-width:0.25" />
<path d="M1113,80.11L1113,1024.6" style="fill:none;stroke:#808080;stroke-width:0.25" />
<path d="M1308.5,80.11L1308.5,1024.6" style="fill:none;stroke:#808080;stroke-width:0.25" />
<path d="M1504,80.11L1504,1024.6" style="fill:none;stroke:#808080;stroke-width:0.25" />
<path d="M1699.5,80.11L1699.5,1024.6" style="fill:none;stroke:#808080;stroke-width:0.25" />
<path d="M1895,80.11L1895,1024.6" style="fill:none;stroke:#808080;stroke-width:0.25" />
<path d="M135.46,622.57L1895,622.57" style="fill:none;stroke:#808080;stroke-width:0.25" />
<path d="M135.46,895.46L1895,895.46" style="fill:none;stroke:#808080;stroke-width:0.25" />
<path d="M135.46,1005.6L1895,1005.6" style="fill:none;stroke:#808080;stroke-width:0.25" />
<path d="M135.46,137.85L330.97,366.7L526.47,519.85L721.97,625.61L917.48,717.12L1113,786.96L1308.5,873.86L1504,915.16L1699.5,959.16L1895,1005.9" style="fill:none;stroke:#FF0000;stroke-width:4" />
<path d="M140.46,137.85A5,5 0 1 1 130.46,137.85A5,5 0 1 1 140.46,137.85Z" style="fill:#FF0000" />
<path d="M335.97,366.7A5,5 0 1 1 325.97,366.7A5,5 0 1 1 335.97,366.7Z" style="fill:#FF0000" />
<path d="M531.47,519.85A5,5 0 1 1 521.47,519.85A5,5 0 1 1 531.47,519.85Z" style="fill:#FF0000" />
<path d="M726.97,625.61A5,5 0 1 1 716.97,625.61A5,5 0 1 1 726.97,625.61Z" style="fill:#FF0000" />
<path d="M922.48,717.12A5,5 0 1 1 912.48,717.12A5,5 0 1 1 922.48,717.12Z" style="fill:#FF0000" />
<path d="M1118,786.96A5,5 0 1 1 1108,786.96A5,5 0 1 1 1118,786.96Z" style="fill:#FF0000" />
<path d="M1313.5,873.86A5,5 0 1 1 1303.5,873.86A5,5 0 1 1 1313.5,873.86Z" style="fill:#FF0000" />
<path d="M1509,915.16A5,5 0 1 1 1499,915.16A5,5 0 1 1 1509,915.16Z" style="fill:#FF0000" />
<path d="M1704.5,959.16A5,5 0 1 1 1694.5,959.16A5,5 0 1 1 1704.5,959.16Z" style="fill:#FF0000" />
<path d="M1900,1005.9A5,5 0 1 1 1890,1005.9A5,5 0 1 1 1900,1005.9Z" style="fill:#FF0000" />
<path d="M135.46,83.674L330.97,354.02L526.47,531.83L721.97,623.25L917.48,719.02L1113,796.32L1308.5,856.63L1504,909.05L1699.5,953.23L1895,991.25" style="fill:none;stroke:#0000FF;stroke-width:4" />
<path d="M140.46,83.674A5,5 0 1 1 130.46,83.674A5,5 0 1 1 140.46,83.674Z" style="fill:#0000FF" />
<path d="M335.97,354.02A5,5 0 1 1 325.97,354.02A5,5 0 1 1 335.97,354.02Z" style="fill:#0000FF" />
<path d="M531.47,531.83A5,5 0 1 1 521.47,531.83A5,5 0 1 1 531.47,531.83Z" style="fill:#0000FF" />
<path d="M726.97,623.25A5,5 0 1 1 716.97,623.25A5,5 0 1 1 726.97,623.25Z" style="fill:#0000FF" />
<path d="M922.48,719.02A5,5 0 1 1 912.48,719.02A5,5 0 1 1 922.48,719.02Z" style="fill:#0000FF" />
<path d="M1118,796.32A5,5 0 1 1 1108,796.32A5,5 0 1 1 1118,796.32Z" style="fill:#0000FF" />
<path d="M1313.5,856.63A5,5 0 1 1 1303.5,856.63A5,5 0 1 1 1313.5,856.63Z" style="fill:#0000FF" />
<path d="M1509,909.05A5,5 0 1 1 1499,909.05A5,5 0 1 1 1509,909.05Z" style="fill:#0000FF" />
<path d="M1704.5,953.23A5,5 0 1 1 1694.5,953.23A5,5 0 1 1 1704.5,953.23Z" style="fill:#0000FF" />
<path d="M1900,991.25A5,5 0 1 1 1890,991.25A5,5 0 1 1 1900,991.25Z" style="fill:#0000FF" />
<path d="M135.46,80.11L330.97,343.36L526.47,513.93L721.97,620.39L917.48,710.25L1113,784.19L1308.5,858.94L1504,914.25L1699.5,959.45L1895,998.13" style="fill:none;stroke:#00FF00;stroke-width:4" />
<path d="M140.46,80.11A5,5 0 1 1 130.46,80.11A5,5 0 1 1 140.46,80.11Z" style="fill:#00FF00" />
<path d="M335.97,343.36A5,5 0 1 1 325.97,343.36A5,5 0 1 1 335.97,343.36Z" style="fill:#00FF00" />
<path d="M531.47,513.93A5,5 0 1 1 521.47,513.93A5,5 0 1 1 531.47,513.93Z" style="fill:#00FF00" />
<path d="M726.97,620.39A5,5 0 1 1 716.97,620.39A5,5 0 1 1 726.97,620.39Z" style="fill:#00FF00" />
<path d="M922.48,710.25A5,5 0 1 1 912.48,710.25A5,5 0 1 1 922.48,710.25Z" style="fill:#00FF00" />
<path d="M1118,784.19A5,5 0 1 1 1108,784.19A5,5 0 1 1 1118,784.19Z" style="fill:#00FF00" />
<path d="M1313.5,858.94A5,5 0 1 1 1303.5,858.94A5,5 0 1 1 1313.5,858.94Z" style="fill:#00FF00" />
<path d="M1509,914.25A5,5 0 1 1 1499,914.25A5,5 0 1 1 1509,914.25Z" style="fill:#00FF00" />
<path d="M1704.5,959.45A5,5 0 1 1 1694.5,959.45A5,5 0 1 1 1704.5,959.45Z" style="fill:#00FF00" />
<path d="M1900,998.13A5,5 0 1 1 1890,998.13A5,5 0 1 1 1900,998.13Z" style="fill:#00FF00" />
<path d="M1900,126.03L1920,126.03" style="fill:none;stroke:#FF0000;stroke-width:4" />
<path d="M1915,126.03A5,5 0 1 1 1905,126.03A5,5 0 1 1 1915,126.03Z" style="fill:#FF0000" />
<text x="1823.3" y="-121.05" transform="scale(1, -1)"
	style="font-family:Liberation Serif;font-variant:normal;font-weight:normal;font-style:normal;font-size:24px">std::list</text>
<path d="M1900,105.66L1920,105.66" style="fill:none;stroke:#0000FF;stroke-width:4" />
<path d="M1915,105.66A5,5 0 1 1 1905,105.66A5,5 0 1 1 1915,105.66Z" style="fill:#0000FF" />
<text x="1795.4" y="-100.69" transform="scale(1, -1)"
	style="font-family:Liberation Serif;font-variant:normal;font-weight:normal;font-style:normal;font-size:24px">std::deque</text>
<path d="M1900,85.294L1920,85.294" style="fill:none;stroke:#00FF00;stroke-width:4" />
<path d="M1915,85.294A5,5 0 1 1 1905,85.294A5,5 0 1 1 1915,85.294Z" style="fill:#00FF00" />
<text x="1792.7" y="-80.319" transform="scale(1, -1)"
	style="font-family:Liberation Serif;font-variant:normal;font-weight:normal;font-style:normal;font-size:24px">std::vector</text>
</g>
</svg>
