<?xml version="1.0"?>
<!-- Generated by SVGo and Plotinum VG -->
<svg width="1920pt" height="1080pt" viewBox="0 0 1920 1080"
	xmlns="http://www.w3.org/2000/svg"
	xmlns:xlink="http://www.w3.org/1999/xlink">
<g transform="scale(1, -1) translate(0, -1080)">
<path d="M0,0L1920,0L1920,1080L0,1080Z" style="fill:#FFFFFF" />
<text x="831.42" y="-1040.9" transform="scale(1, -1)"
	style="font-family:Liberation Serif;font-variant:normal;font-weight:normal;font-style:normal;font-size:50px">linear-search</text>
<text x="892.77" y="-9.7559" transform="scale(1, -1)"
	style="font-family:Liberation Serif;font-variant:normal;font-weight:normal;font-style:normal;font-size:30px">Number of elements</text>
<text x="115.46" y="-39.727" transform="scale(1, -1)"
	style="font-family:Liberation Serif;font-variant:normal;font-weight:normal;font-style:normal;font-size:20px">1000</text>
<text x="310.97" y="-39.727" transform="scale(1, -1)"
	style="font-family:Liberation Serif;font-variant:normal;font-weight:normal;font-style:normal;font-size:20px">2000</text>
<text x="506.47" y="-39.727" transform="scale(1, -1)"
	style="font-family:Liberation Serif;font-variant:normal;font-weight:normal;font-style:normal;font-size:20px">3000</text>
<text x="701.97" y="-39.727" transform="scale(1, -1)"
	style="font-family:Liberation Serif;font-variant:normal;font-weight:normal;font-style:normal;font-size:20px">4000</text>
<text x="897.48" y="-39.727" transform="scale(1, -1)"
	style="font-family:Liberation Serif;font-variant:normal;font-weight:normal;font-style:normal;font-size:20px">5000</text>
<text x="1093" y="-39.727" transform="scale(1, -1)"
	style="font-family:Liberation Serif;font-variant:normal;font-weight:normal;font-style:normal;font-size:20px">6000</text>
<text x="1288.5" y="-39.727" transform="scale(1, -1)"
	style="font-family:Liberation Serif;font-variant:normal;font-weight:normal;font-style:normal;font-size:20px">7000</text>
<text x="1484" y="-39.727" transform="scale(1, -1)"
	style="font-family:Liberation Serif;font-variant:normal;font-weight:normal;font-style:normal;font-size:20px">8000</text>
<text x="1679.5" y="-39.727" transform="scale(1, -1)"
	style="font-family:Liberation Serif;font-variant:normal;font-weight:normal;font-style:normal;font-size:20px">9000</text>
<text x="1870" y="-39.727" transform="scale(1, -1)"
	style="font-family:Liberation Serif;font-variant:normal;font-weight:normal;font-style:normal;font-size:20px">10000</text>
<path d="M135.46,55.371L135.46,63.371" style="fill:none;stroke:#000000;stroke-width:0.5" />
<path d="M330.97,55.371L330.97,63.371" style="fill:none;stroke:#000000;stroke-width:0.5" />
<path d="M526.47,55.371L526.47,63.371" style="fill:none;stroke:#000000;stroke-width:0.5" />
<path d="M721.97,55.371L721.97,63.371" style="fill:none;stroke:#000000;stroke-width:0.5" />
<path d="M917.48,55.371L917.48,63.371" style="fill:none;stroke:#000000;stroke-width:0.5" />
<path d="M1113,55.371L1113,63.371" style="fill:none;stroke:#000000;stroke-width:0.5" />
<path d="M1308.5,55.371L1308.5,63.371" style="fill:none;stroke:#000000;stroke-width:0.5" />
<path d="M1504,55.371L1504,63.371" style="fill:none;stroke:#000000;stroke-width:0.5" />
<path d="M1699.5,55.371L1699.5,63.371" style="fill:none;stroke:#000000;stroke-width:0.5" />
<path d="M1895,55.371L1895,63.371" style="fill:none;stroke:#000000;stroke-width:0.5" />
<path d="M135.46,63.371L1895,63.371" style="fill:none;stroke:#000000;stroke-width:0.5" />
<g transform="rotate(90)">
<text x="538.49" y="23.467" transform="scale(1, -1)"
	style="font-family:Liberation Serif;font-variant:normal;font-weight:normal;font-style:normal;font-size:30px">μs</text>
</g>
<text x="49.712" y="-249.47" transform="scale(1, -1)"
	style="font-family:Liberation Serif;font-variant:normal;font-weight:normal;font-style:normal;font-size:20px">300000</text>
<text x="49.712" y="-609.51" transform="scale(1, -1)"
	style="font-family:Liberation Serif;font-variant:normal;font-weight:normal;font-style:normal;font-size:20px">900000</text>
<text x="39.712" y="-969.54" transform="scale(1, -1)"
	style="font-family:Liberation Serif;font-variant:normal;font-weight:normal;font-style:normal;font-size:20px">1500000</text>
<path d="M114.71,254.04L122.71,254.04" style="fill:none;stroke:#000000;stroke-width:0.5" />
<path d="M114.71,614.08L122.71,614.08" style="fill:none;stroke:#000000;stroke-width:0.5" />
<path d="M114.71,974.11L122.71,974.11" style="fill:none;stroke:#000000;stroke-width:0.5" />
<path d="M118.71,434.06L122.71,434.06" style="fill:none;stroke:#000000;stroke-width:0.5" />
<path d="M118.71,794.09L122.71,794.09" style="fill:none;stroke:#000000;stroke-width:0.5" />
<path d="M122.71,80.11L122.71,1024.6" style="fill:none;stroke:#000000;stroke-width:0.5" />
<path d="M135.46,80.11L135.46,1024.6" style="fill:none;stroke:#808080;stroke-width:0.25" />
<path d="M330.97,80.11L330.97,1024.6" style="fill:none;stroke:#808080;stroke-width:0.25" />
<path d="M526.47,80.11L526.47,1024.6" style="fill:none;stroke:#808080;stroke-width:0.25" />
<path d="M721.97,80.11L721.97,1024.6" style="fill:none;stroke:#808080;stroke-width:0.25" />
<path d="M917.48,80.11L917.48,1024.6" style="fill:none;stroke:#808080;stroke-width:0.25" />
<path d="M1113,80.11L1113,1024.6" style="fill:none;stroke:#808080;stroke-width:0.25" />
<path d="M1308.5,80.11L1308.5,1024.6" style="fill:none;stroke:#808080;stroke-width:0.25" />
<path d="M1504,80.11L1504,1024.6" style="fill:none;stroke:#808080;stroke-width:0.25" />
<path d="M1699.5,80.11L1699.5,1024.6" style="fill:none;stroke:#808080;stroke-width:0.25" />
<path d="M1895,80.11L1895,1024.6" style="fill:none;stroke:#808080;stroke-width:0.25" />
<path d="M135.46,254.04L1895,254.04" style="fill:none;stroke:#808080;stroke-width:0.25" />
<path d="M135.46,614.08L1895,614.08" style="fill:none;stroke:#808080;stroke-width:0.25" />
<path d="M135.46,974.11L1895,974.11" style="fill:none;stroke:#808080;stroke-width:0.25" />
<path d="M135.46,80.11L330.97,101.01L526.47,128.19L721.97,168.16L917.48,242.78L1113,303.35L1308.5,398.78L1504,481.82L1699.5,565.89L1895,733.49" style="fill:none;stroke:#FF0000;stroke-width:4" />
<path d="M140.46,80.11A5,5 0 1 1 130.46,80.11A5,5 0 1 1 140.46,80.11Z" style="fill:#FF0000" />
<path d="M335.97,101.01A5,5 0 1 1 325.97,101.01A5,5 0 1 1 335.97,101.01Z" style="fill:#FF0000" />
<path d="M531.47,128.19A5,5 0 1 1 521.47,128.19A5,5 0 1 1 531.47,128.19Z" style="fill:#FF0000" />
<path d="M726.97,168.16A5,5 0 1 1 716.97,168.16A5,5 0 1 1 726.97,168.16Z" style="fill:#FF0000" />
<path d="M922.48,242.78A5,5 0 1 1 912.48,242.78A5,5 0 1 1 922.48,242.78Z" style="fill:#FF0000" />
<path d="M1118,303.35A5,5 0 1 1 1108,303.35A5,5 0 1 1 1118,303.35Z" style="fill:#FF0000" />
<path d="M1313.5,398.78A5,5 0 1 1 1303.5,398.78A5,5 0 1 1 1313.5,398.78Z" style="fill:#FF0000" />
<path d="M1509,481.82A5,5 0 1 1 1499,481.82A5,5 0 1 1 1509,481.82Z" style="fill:#FF0000" />
<path d="M1704.5,565.89A5,5 0 1 1 1694.5,565.89A5,5 0 1 1 1704.5,565.89Z" style="fill:#FF0000" />
<path d="M1900,733.49A5,5 0 1 1 1890,733.49A5,5 0 1 1 1900,733.49Z" style="fill:#FF0000" />
<path d="M135.46,84.592L330.97,117.16L526.47,153.09L721.97,213.15L917.48,293.74L1113,393.09L1308.5,501.03L1504,606.31L1699.5,741.06L1895,938.21" style="fill:none;stroke:#0000FF;stroke-width:4" />
<path d="M140.46,84.592A5,5 0 1 1 130.46,84.592A5,5 0 1 1 140.46,84.592Z" style="fill:#0000FF" />
<path d="M335.97,117.16A5,5 0 1 1 325.97,117.16A5,5 0 1 1 335.97,117.16Z" style="fill:#0000FF" />
<path d="M531.47,153.09A5,5 0 1 1 521.47,153.09A5,5 0 1 1 531.47,153.09Z" style="fill:#0000FF" />
<path d="M726.97,213.15A5,5 0 1 1 716.97,213.15A5,5 0 1 1 726.97,213.15Z" style="fill:#0000FF" />
<path d="M922.48,293.74A5,5 0 1 1 912.48,293.74A5,5 0 1 1 922.48,293.74Z" style="fill:#0000FF" />
<path d="M1118,393.09A5,5 0 1 1 1108,393.09A5,5 0 1 1 1118,393.09Z" style="fill:#0000FF" />
<path d="M1313.5,501.03A5,5 0 1 1 1303.5,501.03A5,5 0 1 1 1313.5,501.03Z" style="fill:#0000FF" />
<path d="M1509,606.31A5,5 0 1 1 1499,606.31A5,5 0 1 1 1509,606.31Z" style="fill:#0000FF" />
<path d="M1704.5,741.06A5,5 0 1 1 1694.5,741.06A5,5 0 1 1 1704.5,741.06Z" style="fill:#0000FF" />
<path d="M1900,938.21A5,5 0 1 1 1890,938.21A5,5 0 1 1 1900,938.21Z" style="fill:#0000FF" />
<path d="M135.46,81.534L330.97,101.73L526.47,133.98L721.97,194.85L917.48,248.84L1113,340.12L1308.5,416.06L1504,567L1699.5,641.61L1895,786.9" style="fill:none;stroke:#00FF00;stroke-width:4" />
<path d="M140.46,81.534A5,5 0 1 1 130.46,81.534A5,5 0 1 1 140.46,81.534Z" style="fill:#00FF00" />
<path d="M335.97,101.73A5,5 0 1 1 325.97,101.73A5,5 0 1 1 335.97,101.73Z" style="fill:#00FF00" />
<path d="M531.47,133.98A5,5 0 1 1 521.47,133.98A5,5 0 1 1 531.47,133.98Z" style="fill:#00FF00" />
<path d="M726.97,194.85A5,5 0 1 1 716.97,194.85A5,5 0 1 1 726.97,194.85Z" style="fill:#00FF00" />
<path d="M922.48,248.84A5,5 0 1 1 912.48,248.84A5,5 0 1 1 922.48,248.84Z" style="fill:#00FF00" />
<path d="M1118,340.12A5,5 0 1 1 1108,340.12A5,5 0 1 1 1118,340.12Z" style="fill:#00FF00" />
<path d="M1313.5,416.06A5,5 0 1 1 1303.5,416.06A5,5 0 1 1 1313.5,416.06Z" style="fill:#00FF00" />
<path d="M1509,567A5,5 0 1 1 1499,567A5,5 0 1 1 1509,567Z" style="fill:#00FF00" />
<path d="M1704.5,641.61A5,5 0 1 1 1694.5,641.61A5,5 0 1 1 1704.5,641.61Z" style="fill:#00FF00" />
<path d="M1900,786.9A5,5 0 1 1 1890,786.9A5,5 0 1 1 1900,786.9Z" style="fill:#00FF00" />
<path d="M1900,126.03L1920,126.03" style="fill:none;stroke:#FF0000;stroke-width:4" />
<path d="M1915,126.03A5,5 0 1 1 1905,126.03A5,5 0 1 1 1915,126.03Z" style="fill:#FF0000" />
<text x="1792.7" y="-121.05" transform="scale(1, -1)"
	style="font-family:Liberation Serif;font-variant:normal;font-weight:normal;font-style:normal;font-size:24px">std::vector</text>
<path d="M1900,105.66L1920,105.66" style="fill:none;stroke:#0000FF;stroke-width:4" />
<path d="M1915,105.66A5,5 0 1 1 1905,105.66A5,5 0 1 1 1915,105.66Z" style="fill:#0000FF" />
<text x="1823.3" y="-100.69" transform="scale(1, -1)"
	style="font-family:Liberation Serif;font-variant:normal;font-weight:normal;font-style:normal;font-size:24px">std::list</text>
<path d="M1900,85.294L1920,85.294" style="fill:none;stroke:#00FF00;stroke-width:4" />
<path d="M1915,85.294A5,5 0 1 1 1905,85.294A5,5 0 1 1 1915,85.294Z" style="fill:#00FF00" />
<text x="1795.4" y="-80.319" transform="scale(1, -1)"
	style="font-family:Liberation Serif;font-variant:normal;font-weight:normal;font-style:normal;font-size:24px">std::deque</text>
</g>
</svg>
