<?xml version="1.0"?>
<!-- Generated by SVGo and Plotinum VG -->
<svg width="1920pt" height="1080pt" viewBox="0 0 1920 1080"
	xmlns="http://www.w3.org/2000/svg"
	xmlns:xlink="http://www.w3.org/1999/xlink">
<g transform="scale(1, -1) translate(0, -1080)">
<path d="M0,0L1920,0L1920,1080L0,1080Z" style="fill:#FFFFFF" />
<text x="709.94" y="-1040.9" transform="scale(1, -1)"
	style="font-family:Liberation Serif;font-variant:normal;font-weight:normal;font-style:normal;font-size:50px">linear-search - Log Scale</text>
<text x="892.77" y="-9.7559" transform="scale(1, -1)"
	style="font-family:Liberation Serif;font-variant:normal;font-weight:normal;font-style:normal;font-size:30px">Number of elements</text>
<text x="115.46" y="-39.727" transform="scale(1, -1)"
	style="font-family:Liberation Serif;font-variant:normal;font-weight:normal;font-style:normal;font-size:20px">1000</text>
<text x="310.97" y="-39.727" transform="scale(1, -1)"
	style="font-family:Liberation Serif;font-variant:normal;font-weight:normal;font-style:normal;font-size:20px">2000</text>
<text x="506.47" y="-39.727" transform="scale(1, -1)"
	style="font-family:Liberation Serif;font-variant:normal;font-weight:normal;font-style:normal;font-size:20px">3000</text>
<text x="701.97" y="-39.727" transform="scale(1, -1)"
	style="font-family:Liberation Serif;font-variant:normal;font-weight:normal;font-style:normal;font-size:20px">4000</text>
<text x="897.48" y="-39.727" transform="scale(1, -1)"
	style="font-family:Liberation Serif;font-variant:normal;font-weight:normal;font-style:normal;font-size:20px">5000</text>
<text x="1093" y="-39.727" transform="scale(1, -1)"
	style="font-family:Liberation Serif;font-variant:normal;font-weight:normal;font-style:normal;font-size:20px">6000</text>
<text x="1288.5" y="-39.727" transform="scale(1, -1)"
	style="font-family:Liberation Serif;font-variant:normal;font-weight:normal;font-style:normal;font-size:20px">7000</text>
<text x="1484" y="-39.727" transform="scale(1, -1)"
	style="font-family:Liberation Serif;font-variant:normal;font-weight:normal;font-style:normal;font-size:20px">8000</text>
<text x="1679.5" y="-39.727" transform="scale(1, -1)"
	style="font-family:Liberation Serif;font-variant:normal;font-weight:normal;font-style:normal;font-size:20px">9000</text>
<text x="1870" y="-39.727" transform="scale(1, -1)"
	style="font-family:Liberation Serif;font-variant:normal;font-weight:normal;font-style:normal;font-size:20px">10000</text>
<path d="M135.46,55.371L135.46,63.371" style="fill:none;stroke:#000000;stroke-width:0.5" />
<path d="M330.97,55.371L330.97,63.371" style="fill:none;stroke:#000000;stroke-width:0.5" />
<path d="M526.47,55.371L526.47,63.371" style="fill:none;stroke:#000000;stroke-width:0.5" />
<path d="M721.97,55.371L721.97,63.371" style="fill:none;stroke:#000000;stroke-width:0.5" />
<path d="M917.48,55.371L917.48,63.371" style="fill:none;stroke:#000000;stroke-width:0.5" />
<path d="M1113,55.371L1113,63.371" style="fill:none;stroke:#000000;stroke-width:0.5" />
<path d="M1308.5,55.371L1308.5,63.371" style="fill:none;stroke:#000000;stroke-width:0.5" />
<path d="M1504,55.371L1504,63.371" style="fill:none;stroke:#000000;stroke-width:0.5" />
<path d="M1699.5,55.371L1699.5,63.371" style="fill:none;stroke:#000000;stroke-width:0.5" />
<path d="M1895,55.371L1895,63.371" style="fill:none;stroke:#000000;stroke-width:0.5" />
<path d="M135.46,63.371L1895,63.371" style="fill:none;stroke:#000000;stroke-width:0.5" />
<g transform="rotate(90)">
<text x="485.44" y="23.467" transform="scale(1, -1)"
	style="font-family:Liberation Serif;font-variant:normal;font-weight:normal;font-style:normal;font-size:30px">log(μs + 1)</text>
</g>
<text x="49.712" y="-708.32" transform="scale(1, -1)"
	style="font-family:Liberation Serif;font-variant:normal;font-weight:normal;font-style:normal;font-size:20px">300000</text>
<text x="49.712" y="-913.55" transform="scale(1, -1)"
	style="font-family:Liberation Serif;font-variant:normal;font-weight:normal;font-style:normal;font-size:20px">900000</text>
<text x="39.712" y="-1009" transform="scale(1, -1)"
	style="font-family:Liberation Serif;font-variant:normal;font-weight:normal;font-style:normal;font-size:20px">1500000</text>
<path d="M114.71,712.89L122.71,712.89" style="fill:none;stroke:#000000;stroke-width:0.5" />
<path d="M114.71,918.12L122.71,918.12" style="fill:none;stroke:#000000;stroke-width:0.5" />
<path d="M114.71,1013.6L122.71,1013.6" style="fill:none;stroke:#000000;stroke-width:0.5" />
<path d="M118.71,842.38L122.71,842.38" style="fill:none;stroke:#000000;stroke-width:0.5" />
<path d="M118.71,971.87L122.71,971.87" style="fill:none;stroke:#000000;stroke-width:0.5" />
<path d="M122.71,80.11L122.71,1023.8" style="fill:none;stroke:#000000;stroke-width:0.5" />
<path d="M135.46,80.11L135.46,1023.8" style="fill:none;stroke:#808080;stroke-width:0.25" />
<path d="M330.97,80.11L330.97,1023.8" style="fill:none;stroke:#808080;stroke-width:0.25" />
<path d="M526.47,80.11L526.47,1023.8" style="fill:none;stroke:#808080;stroke-width:0.25" />
<path d="M721.97,80.11L721.97,1023.8" style="fill:none;stroke:#808080;stroke-width:0.25" />
<path d="M917.48,80.11L917.48,1023.8" style="fill:none;stroke:#808080;stroke-width:0.25" />
<path d="M1113,80.11L1113,1023.8" style="fill:none;stroke:#808080;stroke-width:0.25" />
<path d="M1308.5,80.11L1308.5,1023.8" style="fill:none;stroke:#808080;stroke-width:0.25" />
<path d="M1504,80.11L1504,1023.8" style="fill:none;stroke:#808080;stroke-width:0.25" />
<path d="M1699.5,80.11L1699.5,1023.8" style="fill:none;stroke:#808080;stroke-width:0.25" />
<path d="M1895,80.11L1895,1023.8" style="fill:none;stroke:#808080;stroke-width:0.25" />
<path d="M135.46,712.89L1895,712.89" style="fill:none;stroke:#808080;stroke-width:0.25" />
<path d="M135.46,918.12L1895,918.12" style="fill:none;stroke:#808080;stroke-width:0.25" />
<path d="M135.46,1013.6L1895,1013.6" style="fill:none;stroke:#808080;stroke-width:0.25" />
<path d="M135.46,80.11L330.97,358.34L526.47,488.51L721.97,591.78L917.48,700.82L1113,758.11L1308.5,823.11L1504,865.65L1699.5,900.66L1895,955.44" style="fill:none;stroke:#FF0000;stroke-width:4" />
<path d="M140.46,80.11A5,5 0 1 1 130.46,80.11A5,5 0 1 1 140.46,80.11Z" style="fill:#FF0000" />
<path d="M335.97,358.34A5,5 0 1 1 325.97,358.34A5,5 0 1 1 335.97,358.34Z" style="fill:#FF0000" />
<path d="M531.47,488.51A5,5 0 1 1 521.47,488.51A5,5 0 1 1 531.47,488.51Z" style="fill:#FF0000" />
<path d="M726.97,591.78A5,5 0 1 1 716.97,591.78A5,5 0 1 1 726.97,591.78Z" style="fill:#FF0000" />
<path d="M922.48,700.82A5,5 0 1 1 912.48,700.82A5,5 0 1 1 922.48,700.82Z" style="fill:#FF0000" />
<path d="M1118,758.11A5,5 0 1 1 1108,758.11A5,5 0 1 1 1118,758.11Z" style="fill:#FF0000" />
<path d="M1313.5,823.11A5,5 0 1 1 1303.5,823.11A5,5 0 1 1 1313.5,823.11Z" style="fill:#FF0000" />
<path d="M1509,865.65A5,5 0 1 1 1499,865.65A5,5 0 1 1 1509,865.65Z" style="fill:#FF0000" />
<path d="M1704.5,900.66A5,5 0 1 1 1694.5,900.66A5,5 0 1 1 1704.5,900.66Z" style="fill:#FF0000" />
<path d="M1900,955.44A5,5 0 1 1 1890,955.44A5,5 0 1 1 1900,955.44Z" style="fill:#FF0000" />
<path d="M135.46,183.2L330.97,446L526.47,559.18L721.97,664.74L917.48,750.12L1113,819.81L1308.5,874.25L1504,915.42L1699.5,957.57L1895,1006" style="fill:none;stroke:#0000FF;stroke-width:4" />
<path d="M140.46,183.2A5,5 0 1 1 130.46,183.2A5,5 0 1 1 140.46,183.2Z" style="fill:#0000FF" />
<path d="M335.97,446A5,5 0 1 1 325.97,446A5,5 0 1 1 335.97,446Z" style="fill:#0000FF" />
<path d="M531.47,559.18A5,5 0 1 1 521.47,559.18A5,5 0 1 1 531.47,559.18Z" style="fill:#0000FF" />
<path d="M726.97,664.74A5,5 0 1 1 716.97,664.74A5,5 0 1 1 726.97,664.74Z" style="fill:#0000FF" />
<path d="M922.48,750.12A5,5 0 1 1 912.48,750.12A5,5 0 1 1 922.48,750.12Z" style="fill:#0000FF" />
<path d="M1118,819.81A5,5 0 1 1 1108,819.81A5,5 0 1 1 1118,819.81Z" style="fill:#0000FF" />
<path d="M1313.5,874.25A5,5 0 1 1 1303.5,874.25A5,5 0 1 1 1313.5,874.25Z" style="fill:#0000FF" />
<path d="M1509,915.42A5,5 0 1 1 1499,915.42A5,5 0 1 1 1509,915.42Z" style="fill:#0000FF" />
<path d="M1704.5,957.57A5,5 0 1 1 1694.5,957.57A5,5 0 1 1 1704.5,957.57Z" style="fill:#0000FF" />
<path d="M1900,1006A5,5 0 1 1 1890,1006A5,5 0 1 1 1900,1006Z" style="fill:#0000FF" />
<path d="M135.46,119.39L330.97,363.3L526.47,507.49L721.97,638.41L917.48,707.41L1113,785.89L1308.5,832.8L1504,901.09L1699.5,927.42L1895,969.99" style="fill:none;stroke:#00FF00;stroke-width:4" />
<path d="M140.46,119.39A5,5 0 1 1 130.46,119.39A5,5 0 1 1 140.46,119.39Z" style="fill:#00FF00" />
<path d="M335.97,363.3A5,5 0 1 1 325.97,363.3A5,5 0 1 1 335.97,363.3Z" style="fill:#00FF00" />
<path d="M531.47,507.49A5,5 0 1 1 521.47,507.49A5,5 0 1 1 531.47,507.49Z" style="fill:#00FF00" />
<path d="M726.97,638.41A5,5 0 1 1 716.97,638.41A5,5 0 1 1 726.97,638.41Z" style="fill:#00FF00" />
<path d="M922.48,707.41A5,5 0 1 1 912.48,707.41A5,5 0 1 1 922.48,707.41Z" style="fill:#00FF00" />
<path d="M1118,785.89A5,5 0 1 1 1108,785.89A5,5 0 1 1 1118,785.89Z" style="fill:#00FF00" />
<path d="M1313.5,832.8A5,5 0 1 1 1303.5,832.8A5,5 0 1 1 1313.5,832.8Z" style="fill:#00FF00" />
<path d="M1509,901.09A5,5 0 1 1 1499,901.09A5,5 0 1 1 1509,901.09Z" style="fill:#00FF00" />
<path d="M1704.5,927.42A5,5 0 1 1 1694.5,927.42A5,5 0 1 1 1704.5,927.42Z" style="fill:#00FF00" />
<path d="M1900,969.99A5,5 0 1 1 1890,969.99A5,5 0 1 1 1900,969.99Z" style="fill:#00FF00" />
<path d="M1900,126.03L1920,126.03" style="fill:none;stroke:#FF0000;stroke-width:4" />
<path d="M1915,126.03A5,5 0 1 1 1905,126.03A5,5 0 1 1 1915,126.03Z" style="fill:#FF0000" />
<text x="1792.7" y="-121.05" transform="scale(1, -1)"
	style="font-family:Liberation Serif;font-variant:normal;font-weight:normal;font-style:normal;font-size:24px">std::vector</text>
<path d="M1900,105.66L1920,105.66" style="fill:none;stroke:#0000FF;stroke-width:4" />
<path d="M1915,105.66A5,5 0 1 1 1905,105.66A5,5 0 1 1 1915,105.66Z" style="fill:#0000FF" />
<text x="1823.3" y="-100.69" transform="scale(1, -1)"
	style="font-family:Liberation Serif;font-variant:normal;font-weight:normal;font-style:normal;font-size:24px">std::list</text>
<path d="M1900,85.294L1920,85.294" style="fill:none;stroke:#00FF00;stroke-width:4" />
<path d="M1915,85.294A5,5 0 1 1 1905,85.294A5,5 0 1 1 1915,85.294Z" style="fill:#00FF00" />
<text x="1795.4" y="-80.319" transform="scale(1, -1)"
	style="font-family:Liberation Serif;font-variant:normal;font-weight:normal;font-style:normal;font-size:24px">std::deque</text>
</g>
</svg>
