<?xml version="1.0"?>
<!-- Generated by SVGo and Plotinum VG -->
<svg width="1920pt" height="1080pt" viewBox="0 0 1920 1080"
	xmlns="http://www.w3.org/2000/svg"
	xmlns:xlink="http://www.w3.org/1999/xlink">
<g transform="scale(1, -1) translate(0, -1080)">
<path d="M0,0L1920,0L1920,1080L0,1080Z" style="fill:#FFFFFF" />
<text x="709.94" y="-1040.9" transform="scale(1, -1)"
	style="font-family:Liberation Serif;font-variant:normal;font-weight:normal;font-style:normal;font-size:50px">linear-search - Log Scale</text>
<text x="892.77" y="-9.7559" transform="scale(1, -1)"
	style="font-family:Liberation Serif;font-variant:normal;font-weight:normal;font-style:normal;font-size:30px">Number of elements</text>
<text x="115.46" y="-39.727" transform="scale(1, -1)"
	style="font-family:Liberation Serif;font-variant:normal;font-weight:normal;font-style:normal;font-size:20px">1000</text>
<text x="310.97" y="-39.727" transform="scale(1, -1)"
	style="font-family:Liberation Serif;font-variant:normal;font-weight:normal;font-style:normal;font-size:20px">2000</text>
<text x="506.47" y="-39.727" transform="scale(1, -1)"
	style="font-family:Liberation Serif;font-variant:normal;font-weight:normal;font-style:normal;font-size:20px">3000</text>
<text x="701.97" y="-39.727" transform="scale(1, -1)"
	style="font-family:Liberation Serif;font-variant:normal;font-weight:normal;font-style:normal;font-size:20px">4000</text>
<text x="897.48" y="-39.727" transform="scale(1, -1)"
	style="font-family:Liberation Serif;font-variant:normal;font-weight:normal;font-style:normal;font-size:20px">5000</text>
<text x="1093" y="-39.727" transform="scale(1, -1)"
	style="font-family:Liberation Serif;font-variant:normal;font-weight:normal;font-style:normal;font-size:20px">6000</text>
<text x="1288.5" y="-39.727" transform="scale(1, -1)"
	style="font-family:Liberation Serif;font-variant:normal;font-weight:normal;font-style:normal;font-size:20px">7000</text>
<text x="1484" y="-39.727" transform="scale(1, -1)"
	style="font-family:Liberation Serif;font-variant:normal;font-weight:normal;font-style:normal;font-size:20px">8000</text>
<text x="1679.5" y="-39.727" transform="scale(1, -1)"
	style="font-family:Liberation Serif;font-variant:normal;font-weight:normal;font-style:normal;font-size:20px">9000</text>
<text x="1870" y="-39.727" transform="scale(1, -1)"
	style="font-family:Liberation Serif;font-variant:normal;font-weight:normal;font-style:normal;font-size:20px">10000</text>
<path d="M135.46,55.371L135.46,63.371" style="fill:none;stroke:#000000;stroke-width:0.5" />
<path d="M330.97,55.371L330.97,63.371" style="fill:none;stroke:#000000;stroke-width:0.5" />
<path d="M526.47,55.371L526.47,63.371" style="fill:none;stroke:#000000;stroke-width:0.5" />
<path d="M721.97,55.371L721.97,63.371" style="fill:none;stroke:#000000;stroke-width:0.5" />
<path d="M917.48,55.371L917.48,63.371" style="fill:none;stroke:#000000;stroke-width:0.5" />
<path d="M1113,55.371L1113,63.371" style="fill:none;stroke:#000000;stroke-width:0.5" />
<path d="M1308.5,55.371L1308.5,63.371" style="fill:none;stroke:#000000;stroke-width:0.5" />
<path d="M1504,55.371L1504,63.371" style="fill:none;stroke:#000000;stroke-width:0.5" />
<path d="M1699.5,55.371L1699.5,63.371" style="fill:none;stroke:#000000;stroke-width:0.5" />
<path d="M1895,55.371L1895,63.371" style="fill:none;stroke:#000000;stroke-width:0.5" />
<path d="M135.46,63.371L1895,63.371" style="fill:none;stroke:#000000;stroke-width:0.5" />
<g transform="rotate(90)">
<text x="485.87" y="23.467" transform="scale(1, -1)"
	style="font-family:Liberation Serif;font-variant:normal;font-weight:normal;font-style:normal;font-size:30px">log(μs + 1)</text>
</g>
<text x="39.712" y="-604.23" transform="scale(1, -1)"
	style="font-family:Liberation Serif;font-variant:normal;font-weight:normal;font-style:normal;font-size:20px">1000000</text>
<text x="39.712" y="-875.55" transform="scale(1, -1)"
	style="font-family:Liberation Serif;font-variant:normal;font-weight:normal;font-style:normal;font-size:20px">4000000</text>
<text x="39.712" y="-985.08" transform="scale(1, -1)"
	style="font-family:Liberation Serif;font-variant:normal;font-weight:normal;font-style:normal;font-size:20px">7000000</text>
<path d="M114.71,608.8L122.71,608.8" style="fill:none;stroke:#000000;stroke-width:0.5" />
<path d="M114.71,880.12L122.71,880.12" style="fill:none;stroke:#000000;stroke-width:0.5" />
<path d="M114.71,989.65L122.71,989.65" style="fill:none;stroke:#000000;stroke-width:0.5" />
<path d="M118.71,744.46L122.71,744.46" style="fill:none;stroke:#000000;stroke-width:0.5" />
<path d="M118.71,823.82L122.71,823.82" style="fill:none;stroke:#000000;stroke-width:0.5" />
<path d="M118.71,923.79L122.71,923.79" style="fill:none;stroke:#000000;stroke-width:0.5" />
<path d="M118.71,959.48L122.71,959.48" style="fill:none;stroke:#000000;stroke-width:0.5" />
<path d="M118.71,1015.8L122.71,1015.8" style="fill:none;stroke:#000000;stroke-width:0.5" />
<path d="M122.71,80.11L122.71,1024.6" style="fill:none;stroke:#000000;stroke-width:0.5" />
<path d="M135.46,80.11L135.46,1024.6" style="fill:none;stroke:#808080;stroke-width:0.25" />
<path d="M330.97,80.11L330.97,1024.6" style="fill:none;stroke:#808080;stroke-width:0.25" />
<path d="M526.47,80.11L526.47,1024.6" style="fill:none;stroke:#808080;stroke-width:0.25" />
<path d="M721.97,80.11L721.97,1024.6" style="fill:none;stroke:#808080;stroke-width:0.25" />
<path d="M917.48,80.11L917.48,1024.6" style="fill:none;stroke:#808080;stroke-width:0.25" />
<path d="M1113,80.11L1113,1024.6" style="fill:none;stroke:#808080;stroke-width:0.25" />
<path d="M1308.5,80.11L1308.5,1024.6" style="fill:none;stroke:#808080;stroke-width:0.25" />
<path d="M1504,80.11L1504,1024.6" style="fill:none;stroke:#808080;stroke-width:0.25" />
<path d="M1699.5,80.11L1699.5,1024.6" style="fill:none;stroke:#808080;stroke-width:0.25" />
<path d="M1895,80.11L1895,1024.6" style="fill:none;stroke:#808080;stroke-width:0.25" />
<path d="M135.46,608.8L1895,608.8" style="fill:none;stroke:#808080;stroke-width:0.25" />
<path d="M135.46,880.12L1895,880.12" style="fill:none;stroke:#808080;stroke-width:0.25" />
<path d="M135.46,989.65L1895,989.65" style="fill:none;stroke:#808080;stroke-width:0.25" />
<path d="M135.46,80.11L330.97,349.34L526.47,502.56L721.97,621.24L917.48,703.13L1113,775.08L1308.5,844.94L1504,892.97L1699.5,956.52L1895,1006" style="fill:none;stroke:#FF0000;stroke-width:4" />
<path d="M140.46,80.11A5,5 0 1 1 130.46,80.11A5,5 0 1 1 140.46,80.11Z" style="fill:#FF0000" />
<path d="M335.97,349.34A5,5 0 1 1 325.97,349.34A5,5 0 1 1 335.97,349.34Z" style="fill:#FF0000" />
<path d="M531.47,502.56A5,5 0 1 1 521.47,502.56A5,5 0 1 1 531.47,502.56Z" style="fill:#FF0000" />
<path d="M726.97,621.24A5,5 0 1 1 716.97,621.24A5,5 0 1 1 726.97,621.24Z" style="fill:#FF0000" />
<path d="M922.48,703.13A5,5 0 1 1 912.48,703.13A5,5 0 1 1 922.48,703.13Z" style="fill:#FF0000" />
<path d="M1118,775.08A5,5 0 1 1 1108,775.08A5,5 0 1 1 1118,775.08Z" style="fill:#FF0000" />
<path d="M1313.5,844.94A5,5 0 1 1 1303.5,844.94A5,5 0 1 1 1313.5,844.94Z" style="fill:#FF0000" />
<path d="M1509,892.97A5,5 0 1 1 1499,892.97A5,5 0 1 1 1509,892.97Z" style="fill:#FF0000" />
<path d="M1704.5,956.52A5,5 0 1 1 1694.5,956.52A5,5 0 1 1 1704.5,956.52Z" style="fill:#FF0000" />
<path d="M1900,1006A5,5 0 1 1 1890,1006A5,5 0 1 1 1900,1006Z" style="fill:#FF0000" />
<path d="M135.46,117.97L330.97,354.41L526.47,528.38L721.97,650.83L917.48,733.29L1113,800.25L1308.5,851.83L1504,899.39L1699.5,950.77L1895,995.87" style="fill:none;stroke:#0000FF;stroke-width:4" />
<path d="M140.46,117.97A5,5 0 1 1 130.46,117.97A5,5 0 1 1 140.46,117.97Z" style="fill:#0000FF" />
<path d="M335.97,354.41A5,5 0 1 1 325.97,354.41A5,5 0 1 1 335.97,354.41Z" style="fill:#0000FF" />
<path d="M531.47,528.38A5,5 0 1 1 521.47,528.38A5,5 0 1 1 531.47,528.38Z" style="fill:#0000FF" />
<path d="M726.97,650.83A5,5 0 1 1 716.97,650.83A5,5 0 1 1 726.97,650.83Z" style="fill:#0000FF" />
<path d="M922.48,733.29A5,5 0 1 1 912.48,733.29A5,5 0 1 1 922.48,733.29Z" style="fill:#0000FF" />
<path d="M1118,800.25A5,5 0 1 1 1108,800.25A5,5 0 1 1 1118,800.25Z" style="fill:#0000FF" />
<path d="M1313.5,851.83A5,5 0 1 1 1303.5,851.83A5,5 0 1 1 1313.5,851.83Z" style="fill:#0000FF" />
<path d="M1509,899.39A5,5 0 1 1 1499,899.39A5,5 0 1 1 1509,899.39Z" style="fill:#0000FF" />
<path d="M1704.5,950.77A5,5 0 1 1 1694.5,950.77A5,5 0 1 1 1704.5,950.77Z" style="fill:#0000FF" />
<path d="M1900,995.87A5,5 0 1 1 1890,995.87A5,5 0 1 1 1900,995.87Z" style="fill:#0000FF" />
<path d="M135.46,132.19L330.97,386.51L526.47,521.37L721.97,617.82L917.48,709.84L1113,797.35L1308.5,853.51L1504,903.63L1699.5,940.76L1895,984.43" style="fill:none;stroke:#00FF00;stroke-width:4" />
<path d="M140.46,132.19A5,5 0 1 1 130.46,132.19A5,5 0 1 1 140.46,132.19Z" style="fill:#00FF00" />
<path d="M335.97,386.51A5,5 0 1 1 325.97,386.51A5,5 0 1 1 335.97,386.51Z" style="fill:#00FF00" />
<path d="M531.47,521.37A5,5 0 1 1 521.47,521.37A5,5 0 1 1 531.47,521.37Z" style="fill:#00FF00" />
<path d="M726.97,617.82A5,5 0 1 1 716.97,617.82A5,5 0 1 1 726.97,617.82Z" style="fill:#00FF00" />
<path d="M922.48,709.84A5,5 0 1 1 912.48,709.84A5,5 0 1 1 922.48,709.84Z" style="fill:#00FF00" />
<path d="M1118,797.35A5,5 0 1 1 1108,797.35A5,5 0 1 1 1118,797.35Z" style="fill:#00FF00" />
<path d="M1313.5,853.51A5,5 0 1 1 1303.5,853.51A5,5 0 1 1 1313.5,853.51Z" style="fill:#00FF00" />
<path d="M1509,903.63A5,5 0 1 1 1499,903.63A5,5 0 1 1 1509,903.63Z" style="fill:#00FF00" />
<path d="M1704.5,940.76A5,5 0 1 1 1694.5,940.76A5,5 0 1 1 1704.5,940.76Z" style="fill:#00FF00" />
<path d="M1900,984.43A5,5 0 1 1 1890,984.43A5,5 0 1 1 1900,984.43Z" style="fill:#00FF00" />
<path d="M1900,126.03L1920,126.03" style="fill:none;stroke:#FF0000;stroke-width:4" />
<path d="M1915,126.03A5,5 0 1 1 1905,126.03A5,5 0 1 1 1915,126.03Z" style="fill:#FF0000" />
<text x="1795.4" y="-121.05" transform="scale(1, -1)"
	style="font-family:Liberation Serif;font-variant:normal;font-weight:normal;font-style:normal;font-size:24px">std::deque</text>
<path d="M1900,105.66L1920,105.66" style="fill:none;stroke:#0000FF;stroke-width:4" />
<path d="M1915,105.66A5,5 0 1 1 1905,105.66A5,5 0 1 1 1915,105.66Z" style="fill:#0000FF" />
<text x="1792.7" y="-100.69" transform="scale(1, -1)"
	style="font-family:Liberation Serif;font-variant:normal;font-weight:normal;font-style:normal;font-size:24px">std::vector</text>
<path d="M1900,85.294L1920,85.294" style="fill:none;stroke:#00FF00;stroke-width:4" />
<path d="M1915,85.294A5,5 0 1 1 1905,85.294A5,5 0 1 1 1915,85.294Z" style="fill:#00FF00" />
<text x="1823.3" y="-80.319" transform="scale(1, -1)"
	style="font-family:Liberation Serif;font-variant:normal;font-weight:normal;font-style:normal;font-size:24px">std::list</text>
</g>
</svg>
