<?xml version="1.0"?>
<!-- Generated by SVGo and Plotinum VG -->
<svg width="1920pt" height="1080pt" viewBox="0 0 1920 1080"
	xmlns="http://www.w3.org/2000/svg"
	xmlns:xlink="http://www.w3.org/1999/xlink">
<g transform="scale(1, -1) translate(0, -1080)">
<path d="M0,0L1920,0L1920,1080L0,1080Z" style="fill:#FFFFFF" />
<text x="831.42" y="-1040.9" transform="scale(1, -1)"
	style="font-family:Liberation Serif;font-variant:normal;font-weight:normal;font-style:normal;font-size:50px">linear-search</text>
<text x="892.77" y="-9.7559" transform="scale(1, -1)"
	style="font-family:Liberation Serif;font-variant:normal;font-weight:normal;font-style:normal;font-size:30px">Number of elements</text>
<text x="115.46" y="-39.727" transform="scale(1, -1)"
	style="font-family:Liberation Serif;font-variant:normal;font-weight:normal;font-style:normal;font-size:20px">1000</text>
<text x="310.97" y="-39.727" transform="scale(1, -1)"
	style="font-family:Liberation Serif;font-variant:normal;font-weight:normal;font-style:normal;font-size:20px">2000</text>
<text x="506.47" y="-39.727" transform="scale(1, -1)"
	style="font-family:Liberation Serif;font-variant:normal;font-weight:normal;font-style:normal;font-size:20px">3000</text>
<text x="701.97" y="-39.727" transform="scale(1, -1)"
	style="font-family:Liberation Serif;font-variant:normal;font-weight:normal;font-style:normal;font-size:20px">4000</text>
<text x="897.48" y="-39.727" transform="scale(1, -1)"
	style="font-family:Liberation Serif;font-variant:normal;font-weight:normal;font-style:normal;font-size:20px">5000</text>
<text x="1093" y="-39.727" transform="scale(1, -1)"
	style="font-family:Liberation Serif;font-variant:normal;font-weight:normal;font-style:normal;font-size:20px">6000</text>
<text x="1288.5" y="-39.727" transform="scale(1, -1)"
	style="font-family:Liberation Serif;font-variant:normal;font-weight:normal;font-style:normal;font-size:20px">7000</text>
<text x="1484" y="-39.727" transform="scale(1, -1)"
	style="font-family:Liberation Serif;font-variant:normal;font-weight:normal;font-style:normal;font-size:20px">8000</text>
<text x="1679.5" y="-39.727" transform="scale(1, -1)"
	style="font-family:Liberation Serif;font-variant:normal;font-weight:normal;font-style:normal;font-size:20px">9000</text>
<text x="1870" y="-39.727" transform="scale(1, -1)"
	style="font-family:Liberation Serif;font-variant:normal;font-weight:normal;font-style:normal;font-size:20px">10000</text>
<path d="M135.46,55.371L135.46,63.371" style="fill:none;stroke:#000000;stroke-width:0.5" />
<path d="M330.97,55.371L330.97,63.371" style="fill:none;stroke:#000000;stroke-width:0.5" />
<path d="M526.47,55.371L526.47,63.371" style="fill:none;stroke:#000000;stroke-width:0.5" />
<path d="M721.97,55.371L721.97,63.371" style="fill:none;stroke:#000000;stroke-width:0.5" />
<path d="M917.48,55.371L917.48,63.371" style="fill:none;stroke:#000000;stroke-width:0.5" />
<path d="M1113,55.371L1113,63.371" style="fill:none;stroke:#000000;stroke-width:0.5" />
<path d="M1308.5,55.371L1308.5,63.371" style="fill:none;stroke:#000000;stroke-width:0.5" />
<path d="M1504,55.371L1504,63.371" style="fill:none;stroke:#000000;stroke-width:0.5" />
<path d="M1699.5,55.371L1699.5,63.371" style="fill:none;stroke:#000000;stroke-width:0.5" />
<path d="M1895,55.371L1895,63.371" style="fill:none;stroke:#000000;stroke-width:0.5" />
<path d="M135.46,63.371L1895,63.371" style="fill:none;stroke:#000000;stroke-width:0.5" />
<g transform="rotate(90)">
<text x="538.49" y="23.467" transform="scale(1, -1)"
	style="font-family:Liberation Serif;font-variant:normal;font-weight:normal;font-style:normal;font-size:30px">μs</text>
</g>
<text x="49.712" y="-191.64" transform="scale(1, -1)"
	style="font-family:Liberation Serif;font-variant:normal;font-weight:normal;font-style:normal;font-size:20px">200000</text>
<text x="49.712" y="-561.21" transform="scale(1, -1)"
	style="font-family:Liberation Serif;font-variant:normal;font-weight:normal;font-style:normal;font-size:20px">800000</text>
<text x="39.712" y="-930.79" transform="scale(1, -1)"
	style="font-family:Liberation Serif;font-variant:normal;font-weight:normal;font-style:normal;font-size:20px">1400000</text>
<path d="M114.71,196.21L122.71,196.21" style="fill:none;stroke:#000000;stroke-width:0.5" />
<path d="M114.71,565.79L122.71,565.79" style="fill:none;stroke:#000000;stroke-width:0.5" />
<path d="M114.71,935.36L122.71,935.36" style="fill:none;stroke:#000000;stroke-width:0.5" />
<path d="M118.71,381L122.71,381" style="fill:none;stroke:#000000;stroke-width:0.5" />
<path d="M118.71,750.57L122.71,750.57" style="fill:none;stroke:#000000;stroke-width:0.5" />
<path d="M122.71,80.11L122.71,1024.6" style="fill:none;stroke:#000000;stroke-width:0.5" />
<path d="M135.46,80.11L135.46,1024.6" style="fill:none;stroke:#808080;stroke-width:0.25" />
<path d="M330.97,80.11L330.97,1024.6" style="fill:none;stroke:#808080;stroke-width:0.25" />
<path d="M526.47,80.11L526.47,1024.6" style="fill:none;stroke:#808080;stroke-width:0.25" />
<path d="M721.97,80.11L721.97,1024.6" style="fill:none;stroke:#808080;stroke-width:0.25" />
<path d="M917.48,80.11L917.48,1024.6" style="fill:none;stroke:#808080;stroke-width:0.25" />
<path d="M1113,80.11L1113,1024.6" style="fill:none;stroke:#808080;stroke-width:0.25" />
<path d="M1308.5,80.11L1308.5,1024.6" style="fill:none;stroke:#808080;stroke-width:0.25" />
<path d="M1504,80.11L1504,1024.6" style="fill:none;stroke:#808080;stroke-width:0.25" />
<path d="M1699.5,80.11L1699.5,1024.6" style="fill:none;stroke:#808080;stroke-width:0.25" />
<path d="M1895,80.11L1895,1024.6" style="fill:none;stroke:#808080;stroke-width:0.25" />
<path d="M135.46,196.21L1895,196.21" style="fill:none;stroke:#808080;stroke-width:0.25" />
<path d="M135.46,565.79L1895,565.79" style="fill:none;stroke:#808080;stroke-width:0.25" />
<path d="M135.46,935.36L1895,935.36" style="fill:none;stroke:#808080;stroke-width:0.25" />
<path d="M135.46,81.848L330.97,112.42L526.47,151.39L721.97,207.67L917.48,284.27L1113,381.59L1308.5,493.22L1504,645.86L1699.5,808.07L1895,938.12" style="fill:none;stroke:#FF0000;stroke-width:4" />
<path d="M140.46,81.848A5,5 0 1 1 130.46,81.848A5,5 0 1 1 140.46,81.848Z" style="fill:#FF0000" />
<path d="M335.97,112.42A5,5 0 1 1 325.97,112.42A5,5 0 1 1 335.97,112.42Z" style="fill:#FF0000" />
<path d="M531.47,151.39A5,5 0 1 1 521.47,151.39A5,5 0 1 1 531.47,151.39Z" style="fill:#FF0000" />
<path d="M726.97,207.67A5,5 0 1 1 716.97,207.67A5,5 0 1 1 726.97,207.67Z" style="fill:#FF0000" />
<path d="M922.48,284.27A5,5 0 1 1 912.48,284.27A5,5 0 1 1 922.48,284.27Z" style="fill:#FF0000" />
<path d="M1118,381.59A5,5 0 1 1 1108,381.59A5,5 0 1 1 1118,381.59Z" style="fill:#FF0000" />
<path d="M1313.5,493.22A5,5 0 1 1 1303.5,493.22A5,5 0 1 1 1313.5,493.22Z" style="fill:#FF0000" />
<path d="M1509,645.86A5,5 0 1 1 1499,645.86A5,5 0 1 1 1509,645.86Z" style="fill:#FF0000" />
<path d="M1704.5,808.07A5,5 0 1 1 1694.5,808.07A5,5 0 1 1 1704.5,808.07Z" style="fill:#FF0000" />
<path d="M1900,938.12A5,5 0 1 1 1890,938.12A5,5 0 1 1 1900,938.12Z" style="fill:#FF0000" />
<path d="M135.46,80.96L330.97,102.23L526.47,148.4L721.97,219.38L917.48,281.81L1113,372.86L1308.5,483.12L1504,605.45L1699.5,744.82L1895,899.15" style="fill:none;stroke:#0000FF;stroke-width:4" />
<path d="M140.46,80.96A5,5 0 1 1 130.46,80.96A5,5 0 1 1 140.46,80.96Z" style="fill:#0000FF" />
<path d="M335.97,102.23A5,5 0 1 1 325.97,102.23A5,5 0 1 1 335.97,102.23Z" style="fill:#0000FF" />
<path d="M531.47,148.4A5,5 0 1 1 521.47,148.4A5,5 0 1 1 531.47,148.4Z" style="fill:#0000FF" />
<path d="M726.97,219.38A5,5 0 1 1 716.97,219.38A5,5 0 1 1 726.97,219.38Z" style="fill:#0000FF" />
<path d="M922.48,281.81A5,5 0 1 1 912.48,281.81A5,5 0 1 1 922.48,281.81Z" style="fill:#0000FF" />
<path d="M1118,372.86A5,5 0 1 1 1108,372.86A5,5 0 1 1 1118,372.86Z" style="fill:#0000FF" />
<path d="M1313.5,483.12A5,5 0 1 1 1303.5,483.12A5,5 0 1 1 1313.5,483.12Z" style="fill:#0000FF" />
<path d="M1509,605.45A5,5 0 1 1 1499,605.45A5,5 0 1 1 1509,605.45Z" style="fill:#0000FF" />
<path d="M1704.5,744.82A5,5 0 1 1 1694.5,744.82A5,5 0 1 1 1704.5,744.82Z" style="fill:#0000FF" />
<path d="M1900,899.15A5,5 0 1 1 1890,899.15A5,5 0 1 1 1900,899.15Z" style="fill:#0000FF" />
<path d="M135.46,80.11L330.97,96.857L526.47,128.61L721.97,173.24L917.48,231.45L1113,301.39L1308.5,431.2L1504,551.37L1699.5,724.76L1895,782.21" style="fill:none;stroke:#00FF00;stroke-width:4" />
<path d="M140.46,80.11A5,5 0 1 1 130.46,80.11A5,5 0 1 1 140.46,80.11Z" style="fill:#00FF00" />
<path d="M335.97,96.857A5,5 0 1 1 325.97,96.857A5,5 0 1 1 335.97,96.857Z" style="fill:#00FF00" />
<path d="M531.47,128.61A5,5 0 1 1 521.47,128.61A5,5 0 1 1 531.47,128.61Z" style="fill:#00FF00" />
<path d="M726.97,173.24A5,5 0 1 1 716.97,173.24A5,5 0 1 1 726.97,173.24Z" style="fill:#00FF00" />
<path d="M922.48,231.45A5,5 0 1 1 912.48,231.45A5,5 0 1 1 922.48,231.45Z" style="fill:#00FF00" />
<path d="M1118,301.39A5,5 0 1 1 1108,301.39A5,5 0 1 1 1118,301.39Z" style="fill:#00FF00" />
<path d="M1313.5,431.2A5,5 0 1 1 1303.5,431.2A5,5 0 1 1 1313.5,431.2Z" style="fill:#00FF00" />
<path d="M1509,551.37A5,5 0 1 1 1499,551.37A5,5 0 1 1 1509,551.37Z" style="fill:#00FF00" />
<path d="M1704.5,724.76A5,5 0 1 1 1694.5,724.76A5,5 0 1 1 1704.5,724.76Z" style="fill:#00FF00" />
<path d="M1900,782.21A5,5 0 1 1 1890,782.21A5,5 0 1 1 1900,782.21Z" style="fill:#00FF00" />
<path d="M1900,126.03L1920,126.03" style="fill:none;stroke:#FF0000;stroke-width:4" />
<path d="M1915,126.03A5,5 0 1 1 1905,126.03A5,5 0 1 1 1915,126.03Z" style="fill:#FF0000" />
<text x="1823.3" y="-121.05" transform="scale(1, -1)"
	style="font-family:Liberation Serif;font-variant:normal;font-weight:normal;font-style:normal;font-size:24px">std::list</text>
<path d="M1900,105.66L1920,105.66" style="fill:none;stroke:#0000FF;stroke-width:4" />
<path d="M1915,105.66A5,5 0 1 1 1905,105.66A5,5 0 1 1 1915,105.66Z" style="fill:#0000FF" />
<text x="1795.4" y="-100.69" transform="scale(1, -1)"
	style="font-family:Liberation Serif;font-variant:normal;font-weight:normal;font-style:normal;font-size:24px">std::deque</text>
<path d="M1900,85.294L1920,85.294" style="fill:none;stroke:#00FF00;stroke-width:4" />
<path d="M1915,85.294A5,5 0 1 1 1905,85.294A5,5 0 1 1 1915,85.294Z" style="fill:#00FF00" />
<text x="1792.7" y="-80.319" transform="scale(1, -1)"
	style="font-family:Liberation Serif;font-variant:normal;font-weight:normal;font-style:normal;font-size:24px">std::vector</text>
</g>
</svg>
