<?xml version="1.0"?>
<!-- Generated by SVGo and Plotinum VG -->
<svg width="1920pt" height="1080pt" viewBox="0 0 1920 1080"
	xmlns="http://www.w3.org/2000/svg"
	xmlns:xlink="http://www.w3.org/1999/xlink">
<g transform="scale(1, -1) translate(0, -1080)">
<path d="M0,0L1920,0L1920,1080L0,1080Z" style="fill:#FFFFFF" />
<text x="709.94" y="-1040.9" transform="scale(1, -1)"
	style="font-family:Liberation Serif;font-variant:normal;font-weight:normal;font-style:normal;font-size:50px">linear-search - Log Scale</text>
<text x="892.77" y="-9.7559" transform="scale(1, -1)"
	style="font-family:Liberation Serif;font-variant:normal;font-weight:normal;font-style:normal;font-size:30px">Number of elements</text>
<text x="115.46" y="-39.727" transform="scale(1, -1)"
	style="font-family:Liberation Serif;font-variant:normal;font-weight:normal;font-style:normal;font-size:20px">1000</text>
<text x="310.97" y="-39.727" transform="scale(1, -1)"
	style="font-family:Liberation Serif;font-variant:normal;font-weight:normal;font-style:normal;font-size:20px">2000</text>
<text x="506.47" y="-39.727" transform="scale(1, -1)"
	style="font-family:Liberation Serif;font-variant:normal;font-weight:normal;font-style:normal;font-size:20px">3000</text>
<text x="701.97" y="-39.727" transform="scale(1, -1)"
	style="font-family:Liberation Serif;font-variant:normal;font-weight:normal;font-style:normal;font-size:20px">4000</text>
<text x="897.48" y="-39.727" transform="scale(1, -1)"
	style="font-family:Liberation Serif;font-variant:normal;font-weight:normal;font-style:normal;font-size:20px">5000</text>
<text x="1093" y="-39.727" transform="scale(1, -1)"
	style="font-family:Liberation Serif;font-variant:normal;font-weight:normal;font-style:normal;font-size:20px">6000</text>
<text x="1288.5" y="-39.727" transform="scale(1, -1)"
	style="font-family:Liberation Serif;font-variant:normal;font-weight:normal;font-style:normal;font-size:20px">7000</text>
<text x="1484" y="-39.727" transform="scale(1, -1)"
	style="font-family:Liberation Serif;font-variant:normal;font-weight:normal;font-style:normal;font-size:20px">8000</text>
<text x="1679.5" y="-39.727" transform="scale(1, -1)"
	style="font-family:Liberation Serif;font-variant:normal;font-weight:normal;font-style:normal;font-size:20px">9000</text>
<text x="1870" y="-39.727" transform="scale(1, -1)"
	style="font-family:Liberation Serif;font-variant:normal;font-weight:normal;font-style:normal;font-size:20px">10000</text>
<path d="M135.46,55.371L135.46,63.371" style="fill:none;stroke:#000000;stroke-width:0.5" />
<path d="M330.97,55.371L330.97,63.371" style="fill:none;stroke:#000000;stroke-width:0.5" />
<path d="M526.47,55.371L526.47,63.371" style="fill:none;stroke:#000000;stroke-width:0.5" />
<path d="M721.97,55.371L721.97,63.371" style="fill:none;stroke:#000000;stroke-width:0.5" />
<path d="M917.48,55.371L917.48,63.371" style="fill:none;stroke:#000000;stroke-width:0.5" />
<path d="M1113,55.371L1113,63.371" style="fill:none;stroke:#000000;stroke-width:0.5" />
<path d="M1308.5,55.371L1308.5,63.371" style="fill:none;stroke:#000000;stroke-width:0.5" />
<path d="M1504,55.371L1504,63.371" style="fill:none;stroke:#000000;stroke-width:0.5" />
<path d="M1699.5,55.371L1699.5,63.371" style="fill:none;stroke:#000000;stroke-width:0.5" />
<path d="M1895,55.371L1895,63.371" style="fill:none;stroke:#000000;stroke-width:0.5" />
<path d="M135.46,63.371L1895,63.371" style="fill:none;stroke:#000000;stroke-width:0.5" />
<g transform="rotate(90)">
<text x="485.87" y="23.467" transform="scale(1, -1)"
	style="font-family:Liberation Serif;font-variant:normal;font-weight:normal;font-style:normal;font-size:30px">log(μs + 1)</text>
</g>
<text x="49.712" y="-688.76" transform="scale(1, -1)"
	style="font-family:Liberation Serif;font-variant:normal;font-weight:normal;font-style:normal;font-size:20px">500000</text>
<text x="39.712" y="-903.57" transform="scale(1, -1)"
	style="font-family:Liberation Serif;font-variant:normal;font-weight:normal;font-style:normal;font-size:20px">1500000</text>
<text x="39.712" y="-1003.5" transform="scale(1, -1)"
	style="font-family:Liberation Serif;font-variant:normal;font-weight:normal;font-style:normal;font-size:20px">2500000</text>
<path d="M114.71,693.33L122.71,693.33" style="fill:none;stroke:#000000;stroke-width:0.5" />
<path d="M114.71,908.14L122.71,908.14" style="fill:none;stroke:#000000;stroke-width:0.5" />
<path d="M114.71,1008L122.71,1008" style="fill:none;stroke:#000000;stroke-width:0.5" />
<path d="M118.71,828.86L122.71,828.86" style="fill:none;stroke:#000000;stroke-width:0.5" />
<path d="M118.71,964.39L122.71,964.39" style="fill:none;stroke:#000000;stroke-width:0.5" />
<path d="M122.71,80.11L122.71,1024.6" style="fill:none;stroke:#000000;stroke-width:0.5" />
<path d="M135.46,80.11L135.46,1024.6" style="fill:none;stroke:#808080;stroke-width:0.25" />
<path d="M330.97,80.11L330.97,1024.6" style="fill:none;stroke:#808080;stroke-width:0.25" />
<path d="M526.47,80.11L526.47,1024.6" style="fill:none;stroke:#808080;stroke-width:0.25" />
<path d="M721.97,80.11L721.97,1024.6" style="fill:none;stroke:#808080;stroke-width:0.25" />
<path d="M917.48,80.11L917.48,1024.6" style="fill:none;stroke:#808080;stroke-width:0.25" />
<path d="M1113,80.11L1113,1024.6" style="fill:none;stroke:#808080;stroke-width:0.25" />
<path d="M1308.5,80.11L1308.5,1024.6" style="fill:none;stroke:#808080;stroke-width:0.25" />
<path d="M1504,80.11L1504,1024.6" style="fill:none;stroke:#808080;stroke-width:0.25" />
<path d="M1699.5,80.11L1699.5,1024.6" style="fill:none;stroke:#808080;stroke-width:0.25" />
<path d="M1895,80.11L1895,1024.6" style="fill:none;stroke:#808080;stroke-width:0.25" />
<path d="M135.46,693.33L1895,693.33" style="fill:none;stroke:#808080;stroke-width:0.25" />
<path d="M135.46,908.14L1895,908.14" style="fill:none;stroke:#808080;stroke-width:0.25" />
<path d="M135.46,1008L1895,1008" style="fill:none;stroke:#808080;stroke-width:0.25" />
<path d="M135.46,87.155L330.97,365.7L526.47,511.47L721.97,634.7L917.48,718.5L1113,793.05L1308.5,850.97L1504,905.79L1699.5,956.8L1895,998.9" style="fill:none;stroke:#FF0000;stroke-width:4" />
<path d="M140.46,87.155A5,5 0 1 1 130.46,87.155A5,5 0 1 1 140.46,87.155Z" style="fill:#FF0000" />
<path d="M335.97,365.7A5,5 0 1 1 325.97,365.7A5,5 0 1 1 335.97,365.7Z" style="fill:#FF0000" />
<path d="M531.47,511.47A5,5 0 1 1 521.47,511.47A5,5 0 1 1 531.47,511.47Z" style="fill:#FF0000" />
<path d="M726.97,634.7A5,5 0 1 1 716.97,634.7A5,5 0 1 1 726.97,634.7Z" style="fill:#FF0000" />
<path d="M922.48,718.5A5,5 0 1 1 912.48,718.5A5,5 0 1 1 922.48,718.5Z" style="fill:#FF0000" />
<path d="M1118,793.05A5,5 0 1 1 1108,793.05A5,5 0 1 1 1118,793.05Z" style="fill:#FF0000" />
<path d="M1313.5,850.97A5,5 0 1 1 1303.5,850.97A5,5 0 1 1 1313.5,850.97Z" style="fill:#FF0000" />
<path d="M1509,905.79A5,5 0 1 1 1499,905.79A5,5 0 1 1 1509,905.79Z" style="fill:#FF0000" />
<path d="M1704.5,956.8A5,5 0 1 1 1694.5,956.8A5,5 0 1 1 1704.5,956.8Z" style="fill:#FF0000" />
<path d="M1900,998.9A5,5 0 1 1 1890,998.9A5,5 0 1 1 1900,998.9Z" style="fill:#FF0000" />
<path d="M135.46,80.11L330.97,372.39L526.47,526.77L721.97,628.91L917.48,725.34L1113,795.95L1308.5,861.7L1504,914.51L1699.5,962.97L1895,1006" style="fill:none;stroke:#0000FF;stroke-width:4" />
<path d="M140.46,80.11A5,5 0 1 1 130.46,80.11A5,5 0 1 1 140.46,80.11Z" style="fill:#0000FF" />
<path d="M335.97,372.39A5,5 0 1 1 325.97,372.39A5,5 0 1 1 335.97,372.39Z" style="fill:#0000FF" />
<path d="M531.47,526.77A5,5 0 1 1 521.47,526.77A5,5 0 1 1 531.47,526.77Z" style="fill:#0000FF" />
<path d="M726.97,628.91A5,5 0 1 1 716.97,628.91A5,5 0 1 1 726.97,628.91Z" style="fill:#0000FF" />
<path d="M922.48,725.34A5,5 0 1 1 912.48,725.34A5,5 0 1 1 922.48,725.34Z" style="fill:#0000FF" />
<path d="M1118,795.95A5,5 0 1 1 1108,795.95A5,5 0 1 1 1118,795.95Z" style="fill:#0000FF" />
<path d="M1313.5,861.7A5,5 0 1 1 1303.5,861.7A5,5 0 1 1 1313.5,861.7Z" style="fill:#0000FF" />
<path d="M1509,914.51A5,5 0 1 1 1499,914.51A5,5 0 1 1 1509,914.51Z" style="fill:#0000FF" />
<path d="M1704.5,962.97A5,5 0 1 1 1694.5,962.97A5,5 0 1 1 1704.5,962.97Z" style="fill:#0000FF" />
<path d="M1900,1006A5,5 0 1 1 1890,1006A5,5 0 1 1 1900,1006Z" style="fill:#0000FF" />
<path d="M135.46,89.965L330.97,344.48L526.47,504.2L721.97,606.57L917.48,723.16L1113,781.31L1308.5,847.11L1504,900.4L1699.5,949.61L1895,995.16" style="fill:none;stroke:#00FF00;stroke-width:4" />
<path d="M140.46,89.965A5,5 0 1 1 130.46,89.965A5,5 0 1 1 140.46,89.965Z" style="fill:#00FF00" />
<path d="M335.97,344.48A5,5 0 1 1 325.97,344.48A5,5 0 1 1 335.97,344.48Z" style="fill:#00FF00" />
<path d="M531.47,504.2A5,5 0 1 1 521.47,504.2A5,5 0 1 1 531.47,504.2Z" style="fill:#00FF00" />
<path d="M726.97,606.57A5,5 0 1 1 716.97,606.57A5,5 0 1 1 726.97,606.57Z" style="fill:#00FF00" />
<path d="M922.48,723.16A5,5 0 1 1 912.48,723.16A5,5 0 1 1 922.48,723.16Z" style="fill:#00FF00" />
<path d="M1118,781.31A5,5 0 1 1 1108,781.31A5,5 0 1 1 1118,781.31Z" style="fill:#00FF00" />
<path d="M1313.5,847.11A5,5 0 1 1 1303.5,847.11A5,5 0 1 1 1313.5,847.11Z" style="fill:#00FF00" />
<path d="M1509,900.4A5,5 0 1 1 1499,900.4A5,5 0 1 1 1509,900.4Z" style="fill:#00FF00" />
<path d="M1704.5,949.61A5,5 0 1 1 1694.5,949.61A5,5 0 1 1 1704.5,949.61Z" style="fill:#00FF00" />
<path d="M1900,995.16A5,5 0 1 1 1890,995.16A5,5 0 1 1 1900,995.16Z" style="fill:#00FF00" />
<path d="M1900,126.03L1920,126.03" style="fill:none;stroke:#FF0000;stroke-width:4" />
<path d="M1915,126.03A5,5 0 1 1 1905,126.03A5,5 0 1 1 1915,126.03Z" style="fill:#FF0000" />
<text x="1823.3" y="-121.05" transform="scale(1, -1)"
	style="font-family:Liberation Serif;font-variant:normal;font-weight:normal;font-style:normal;font-size:24px">std::list</text>
<path d="M1900,105.66L1920,105.66" style="fill:none;stroke:#0000FF;stroke-width:4" />
<path d="M1915,105.66A5,5 0 1 1 1905,105.66A5,5 0 1 1 1915,105.66Z" style="fill:#0000FF" />
<text x="1795.4" y="-100.69" transform="scale(1, -1)"
	style="font-family:Liberation Serif;font-variant:normal;font-weight:normal;font-style:normal;font-size:24px">std::deque</text>
<path d="M1900,85.294L1920,85.294" style="fill:none;stroke:#00FF00;stroke-width:4" />
<path d="M1915,85.294A5,5 0 1 1 1905,85.294A5,5 0 1 1 1915,85.294Z" style="fill:#00FF00" />
<text x="1792.7" y="-80.319" transform="scale(1, -1)"
	style="font-family:Liberation Serif;font-variant:normal;font-weight:normal;font-style:normal;font-size:24px">std::vector</text>
</g>
</svg>
