<?xml version="1.0"?>
<!-- Generated by SVGo and Plotinum VG -->
<svg width="1920pt" height="1080pt" viewBox="0 0 1920 1080"
	xmlns="http://www.w3.org/2000/svg"
	xmlns:xlink="http://www.w3.org/1999/xlink">
<g transform="scale(1, -1) translate(0, -1080)">
<path d="M0,0L1920,0L1920,1080L0,1080Z" style="fill:#FFFFFF" />
<text x="831.42" y="-1040.9" transform="scale(1, -1)"
	style="font-family:Liberation Serif;font-variant:normal;font-weight:normal;font-style:normal;font-size:50px">linear-search</text>
<text x="892.77" y="-9.7559" transform="scale(1, -1)"
	style="font-family:Liberation Serif;font-variant:normal;font-weight:normal;font-style:normal;font-size:30px">Number of elements</text>
<text x="115.46" y="-39.727" transform="scale(1, -1)"
	style="font-family:Liberation Serif;font-variant:normal;font-weight:normal;font-style:normal;font-size:20px">1000</text>
<text x="310.97" y="-39.727" transform="scale(1, -1)"
	style="font-family:Liberation Serif;font-variant:normal;font-weight:normal;font-style:normal;font-size:20px">2000</text>
<text x="506.47" y="-39.727" transform="scale(1, -1)"
	style="font-family:Liberation Serif;font-variant:normal;font-weight:normal;font-style:normal;font-size:20px">3000</text>
<text x="701.97" y="-39.727" transform="scale(1, -1)"
	style="font-family:Liberation Serif;font-variant:normal;font-weight:normal;font-style:normal;font-size:20px">4000</text>
<text x="897.48" y="-39.727" transform="scale(1, -1)"
	style="font-family:Liberation Serif;font-variant:normal;font-weight:normal;font-style:normal;font-size:20px">5000</text>
<text x="1093" y="-39.727" transform="scale(1, -1)"
	style="font-family:Liberation Serif;font-variant:normal;font-weight:normal;font-style:normal;font-size:20px">6000</text>
<text x="1288.5" y="-39.727" transform="scale(1, -1)"
	style="font-family:Liberation Serif;font-variant:normal;font-weight:normal;font-style:normal;font-size:20px">7000</text>
<text x="1484" y="-39.727" transform="scale(1, -1)"
	style="font-family:Liberation Serif;font-variant:normal;font-weight:normal;font-style:normal;font-size:20px">8000</text>
<text x="1679.5" y="-39.727" transform="scale(1, -1)"
	style="font-family:Liberation Serif;font-variant:normal;font-weight:normal;font-style:normal;font-size:20px">9000</text>
<text x="1870" y="-39.727" transform="scale(1, -1)"
	style="font-family:Liberation Serif;font-variant:normal;font-weight:normal;font-style:normal;font-size:20px">10000</text>
<path d="M135.46,55.371L135.46,63.371" style="fill:none;stroke:#000000;stroke-width:0.5" />
<path d="M330.97,55.371L330.97,63.371" style="fill:none;stroke:#000000;stroke-width:0.5" />
<path d="M526.47,55.371L526.47,63.371" style="fill:none;stroke:#000000;stroke-width:0.5" />
<path d="M721.97,55.371L721.97,63.371" style="fill:none;stroke:#000000;stroke-width:0.5" />
<path d="M917.48,55.371L917.48,63.371" style="fill:none;stroke:#000000;stroke-width:0.5" />
<path d="M1113,55.371L1113,63.371" style="fill:none;stroke:#000000;stroke-width:0.5" />
<path d="M1308.5,55.371L1308.5,63.371" style="fill:none;stroke:#000000;stroke-width:0.5" />
<path d="M1504,55.371L1504,63.371" style="fill:none;stroke:#000000;stroke-width:0.5" />
<path d="M1699.5,55.371L1699.5,63.371" style="fill:none;stroke:#000000;stroke-width:0.5" />
<path d="M1895,55.371L1895,63.371" style="fill:none;stroke:#000000;stroke-width:0.5" />
<path d="M135.46,63.371L1895,63.371" style="fill:none;stroke:#000000;stroke-width:0.5" />
<g transform="rotate(90)">
<text x="538.49" y="23.467" transform="scale(1, -1)"
	style="font-family:Liberation Serif;font-variant:normal;font-weight:normal;font-style:normal;font-size:30px">μs</text>
</g>
<text x="49.712" y="-194.88" transform="scale(1, -1)"
	style="font-family:Liberation Serif;font-variant:normal;font-weight:normal;font-style:normal;font-size:20px">200000</text>
<text x="49.712" y="-577.99" transform="scale(1, -1)"
	style="font-family:Liberation Serif;font-variant:normal;font-weight:normal;font-style:normal;font-size:20px">800000</text>
<text x="39.712" y="-961.1" transform="scale(1, -1)"
	style="font-family:Liberation Serif;font-variant:normal;font-weight:normal;font-style:normal;font-size:20px">1400000</text>
<path d="M114.71,199.45L122.71,199.45" style="fill:none;stroke:#000000;stroke-width:0.5" />
<path d="M114.71,582.56L122.71,582.56" style="fill:none;stroke:#000000;stroke-width:0.5" />
<path d="M114.71,965.67L122.71,965.67" style="fill:none;stroke:#000000;stroke-width:0.5" />
<path d="M118.71,391L122.71,391" style="fill:none;stroke:#000000;stroke-width:0.5" />
<path d="M118.71,774.11L122.71,774.11" style="fill:none;stroke:#000000;stroke-width:0.5" />
<path d="M122.71,80.11L122.71,1024.6" style="fill:none;stroke:#000000;stroke-width:0.5" />
<path d="M135.46,80.11L135.46,1024.6" style="fill:none;stroke:#808080;stroke-width:0.25" />
<path d="M330.97,80.11L330.97,1024.6" style="fill:none;stroke:#808080;stroke-width:0.25" />
<path d="M526.47,80.11L526.47,1024.6" style="fill:none;stroke:#808080;stroke-width:0.25" />
<path d="M721.97,80.11L721.97,1024.6" style="fill:none;stroke:#808080;stroke-width:0.25" />
<path d="M917.48,80.11L917.48,1024.6" style="fill:none;stroke:#808080;stroke-width:0.25" />
<path d="M1113,80.11L1113,1024.6" style="fill:none;stroke:#808080;stroke-width:0.25" />
<path d="M1308.5,80.11L1308.5,1024.6" style="fill:none;stroke:#808080;stroke-width:0.25" />
<path d="M1504,80.11L1504,1024.6" style="fill:none;stroke:#808080;stroke-width:0.25" />
<path d="M1699.5,80.11L1699.5,1024.6" style="fill:none;stroke:#808080;stroke-width:0.25" />
<path d="M1895,80.11L1895,1024.6" style="fill:none;stroke:#808080;stroke-width:0.25" />
<path d="M135.46,199.45L1895,199.45" style="fill:none;stroke:#808080;stroke-width:0.25" />
<path d="M135.46,582.56L1895,582.56" style="fill:none;stroke:#808080;stroke-width:0.25" />
<path d="M135.46,965.67L1895,965.67" style="fill:none;stroke:#808080;stroke-width:0.25" />
<path d="M135.46,83.289L330.97,111.05L526.47,148.42L721.97,209.79L917.48,296.83L1113,403.53L1308.5,518.24L1504,639.25L1699.5,783.14L1895,938" style="fill:none;stroke:#FF0000;stroke-width:4" />
<path d="M140.46,83.289A5,5 0 1 1 130.46,83.289A5,5 0 1 1 140.46,83.289Z" style="fill:#FF0000" />
<path d="M335.97,111.05A5,5 0 1 1 325.97,111.05A5,5 0 1 1 335.97,111.05Z" style="fill:#FF0000" />
<path d="M531.47,148.42A5,5 0 1 1 521.47,148.42A5,5 0 1 1 531.47,148.42Z" style="fill:#FF0000" />
<path d="M726.97,209.79A5,5 0 1 1 716.97,209.79A5,5 0 1 1 726.97,209.79Z" style="fill:#FF0000" />
<path d="M922.48,296.83A5,5 0 1 1 912.48,296.83A5,5 0 1 1 922.48,296.83Z" style="fill:#FF0000" />
<path d="M1118,403.53A5,5 0 1 1 1108,403.53A5,5 0 1 1 1118,403.53Z" style="fill:#FF0000" />
<path d="M1313.5,518.24A5,5 0 1 1 1303.5,518.24A5,5 0 1 1 1313.5,518.24Z" style="fill:#FF0000" />
<path d="M1509,639.25A5,5 0 1 1 1499,639.25A5,5 0 1 1 1509,639.25Z" style="fill:#FF0000" />
<path d="M1704.5,783.14A5,5 0 1 1 1694.5,783.14A5,5 0 1 1 1704.5,783.14Z" style="fill:#FF0000" />
<path d="M1900,938A5,5 0 1 1 1890,938A5,5 0 1 1 1900,938Z" style="fill:#FF0000" />
<path d="M135.46,80.386L330.97,101.48L526.47,141.11L721.97,191.14L917.48,243.95L1113,322L1308.5,401.84L1504,528.76L1699.5,659.03L1895,850.3" style="fill:none;stroke:#0000FF;stroke-width:4" />
<path d="M140.46,80.386A5,5 0 1 1 130.46,80.386A5,5 0 1 1 140.46,80.386Z" style="fill:#0000FF" />
<path d="M335.97,101.48A5,5 0 1 1 325.97,101.48A5,5 0 1 1 335.97,101.48Z" style="fill:#0000FF" />
<path d="M531.47,141.11A5,5 0 1 1 521.47,141.11A5,5 0 1 1 531.47,141.11Z" style="fill:#0000FF" />
<path d="M726.97,191.14A5,5 0 1 1 716.97,191.14A5,5 0 1 1 726.97,191.14Z" style="fill:#0000FF" />
<path d="M922.48,243.95A5,5 0 1 1 912.48,243.95A5,5 0 1 1 922.48,243.95Z" style="fill:#0000FF" />
<path d="M1118,322A5,5 0 1 1 1108,322A5,5 0 1 1 1118,322Z" style="fill:#0000FF" />
<path d="M1313.5,401.84A5,5 0 1 1 1303.5,401.84A5,5 0 1 1 1313.5,401.84Z" style="fill:#0000FF" />
<path d="M1509,528.76A5,5 0 1 1 1499,528.76A5,5 0 1 1 1509,528.76Z" style="fill:#0000FF" />
<path d="M1704.5,659.03A5,5 0 1 1 1694.5,659.03A5,5 0 1 1 1704.5,659.03Z" style="fill:#0000FF" />
<path d="M1900,850.3A5,5 0 1 1 1890,850.3A5,5 0 1 1 1900,850.3Z" style="fill:#0000FF" />
<path d="M135.46,80.11L330.97,105.34L526.47,135.87L721.97,198.65L917.48,250.18L1113,326.28L1308.5,429.23L1504,536.72L1699.5,628.8L1895,752.99" style="fill:none;stroke:#00FF00;stroke-width:4" />
<path d="M140.46,80.11A5,5 0 1 1 130.46,80.11A5,5 0 1 1 140.46,80.11Z" style="fill:#00FF00" />
<path d="M335.97,105.34A5,5 0 1 1 325.97,105.34A5,5 0 1 1 335.97,105.34Z" style="fill:#00FF00" />
<path d="M531.47,135.87A5,5 0 1 1 521.47,135.87A5,5 0 1 1 531.47,135.87Z" style="fill:#00FF00" />
<path d="M726.97,198.65A5,5 0 1 1 716.97,198.65A5,5 0 1 1 726.97,198.65Z" style="fill:#00FF00" />
<path d="M922.48,250.18A5,5 0 1 1 912.48,250.18A5,5 0 1 1 922.48,250.18Z" style="fill:#00FF00" />
<path d="M1118,326.28A5,5 0 1 1 1108,326.28A5,5 0 1 1 1118,326.28Z" style="fill:#00FF00" />
<path d="M1313.5,429.23A5,5 0 1 1 1303.5,429.23A5,5 0 1 1 1313.5,429.23Z" style="fill:#00FF00" />
<path d="M1509,536.72A5,5 0 1 1 1499,536.72A5,5 0 1 1 1509,536.72Z" style="fill:#00FF00" />
<path d="M1704.5,628.8A5,5 0 1 1 1694.5,628.8A5,5 0 1 1 1704.5,628.8Z" style="fill:#00FF00" />
<path d="M1900,752.99A5,5 0 1 1 1890,752.99A5,5 0 1 1 1900,752.99Z" style="fill:#00FF00" />
<path d="M1900,126.03L1920,126.03" style="fill:none;stroke:#FF0000;stroke-width:4" />
<path d="M1915,126.03A5,5 0 1 1 1905,126.03A5,5 0 1 1 1915,126.03Z" style="fill:#FF0000" />
<text x="1823.3" y="-121.05" transform="scale(1, -1)"
	style="font-family:Liberation Serif;font-variant:normal;font-weight:normal;font-style:normal;font-size:24px">std::list</text>
<path d="M1900,105.66L1920,105.66" style="fill:none;stroke:#0000FF;stroke-width:4" />
<path d="M1915,105.66A5,5 0 1 1 1905,105.66A5,5 0 1 1 1915,105.66Z" style="fill:#0000FF" />
<text x="1795.4" y="-100.69" transform="scale(1, -1)"
	style="font-family:Liberation Serif;font-variant:normal;font-weight:normal;font-style:normal;font-size:24px">std::deque</text>
<path d="M1900,85.294L1920,85.294" style="fill:none;stroke:#00FF00;stroke-width:4" />
<path d="M1915,85.294A5,5 0 1 1 1905,85.294A5,5 0 1 1 1915,85.294Z" style="fill:#00FF00" />
<text x="1792.7" y="-80.319" transform="scale(1, -1)"
	style="font-family:Liberation Serif;font-variant:normal;font-weight:normal;font-style:normal;font-size:24px">std::vector</text>
</g>
</svg>
