<?xml version="1.0"?>
<!-- Generated by SVGo and Plotinum VG -->
<svg width="1920pt" height="1080pt" viewBox="0 0 1920 1080"
	xmlns="http://www.w3.org/2000/svg"
	xmlns:xlink="http://www.w3.org/1999/xlink">
<g transform="scale(1, -1) translate(0, -1080)">
<path d="M0,0L1920,0L1920,1080L0,1080Z" style="fill:#FFFFFF" />
<text x="831.42" y="-1040.9" transform="scale(1, -1)"
	style="font-family:Liberation Serif;font-variant:normal;font-weight:normal;font-style:normal;font-size:50px">linear-search</text>
<text x="892.77" y="-9.7559" transform="scale(1, -1)"
	style="font-family:Liberation Serif;font-variant:normal;font-weight:normal;font-style:normal;font-size:30px">Number of elements</text>
<text x="115.46" y="-39.727" transform="scale(1, -1)"
	style="font-family:Liberation Serif;font-variant:normal;font-weight:normal;font-style:normal;font-size:20px">1000</text>
<text x="310.97" y="-39.727" transform="scale(1, -1)"
	style="font-family:Liberation Serif;font-variant:normal;font-weight:normal;font-style:normal;font-size:20px">2000</text>
<text x="506.47" y="-39.727" transform="scale(1, -1)"
	style="font-family:Liberation Serif;font-variant:normal;font-weight:normal;font-style:normal;font-size:20px">3000</text>
<text x="701.97" y="-39.727" transform="scale(1, -1)"
	style="font-family:Liberation Serif;font-variant:normal;font-weight:normal;font-style:normal;font-size:20px">4000</text>
<text x="897.48" y="-39.727" transform="scale(1, -1)"
	style="font-family:Liberation Serif;font-variant:normal;font-weight:normal;font-style:normal;font-size:20px">5000</text>
<text x="1093" y="-39.727" transform="scale(1, -1)"
	style="font-family:Liberation Serif;font-variant:normal;font-weight:normal;font-style:normal;font-size:20px">6000</text>
<text x="1288.5" y="-39.727" transform="scale(1, -1)"
	style="font-family:Liberation Serif;font-variant:normal;font-weight:normal;font-style:normal;font-size:20px">7000</text>
<text x="1484" y="-39.727" transform="scale(1, -1)"
	style="font-family:Liberation Serif;font-variant:normal;font-weight:normal;font-style:normal;font-size:20px">8000</text>
<text x="1679.5" y="-39.727" transform="scale(1, -1)"
	style="font-family:Liberation Serif;font-variant:normal;font-weight:normal;font-style:normal;font-size:20px">9000</text>
<text x="1870" y="-39.727" transform="scale(1, -1)"
	style="font-family:Liberation Serif;font-variant:normal;font-weight:normal;font-style:normal;font-size:20px">10000</text>
<path d="M135.46,55.371L135.46,63.371" style="fill:none;stroke:#000000;stroke-width:0.5" />
<path d="M330.97,55.371L330.97,63.371" style="fill:none;stroke:#000000;stroke-width:0.5" />
<path d="M526.47,55.371L526.47,63.371" style="fill:none;stroke:#000000;stroke-width:0.5" />
<path d="M721.97,55.371L721.97,63.371" style="fill:none;stroke:#000000;stroke-width:0.5" />
<path d="M917.48,55.371L917.48,63.371" style="fill:none;stroke:#000000;stroke-width:0.5" />
<path d="M1113,55.371L1113,63.371" style="fill:none;stroke:#000000;stroke-width:0.5" />
<path d="M1308.5,55.371L1308.5,63.371" style="fill:none;stroke:#000000;stroke-width:0.5" />
<path d="M1504,55.371L1504,63.371" style="fill:none;stroke:#000000;stroke-width:0.5" />
<path d="M1699.5,55.371L1699.5,63.371" style="fill:none;stroke:#000000;stroke-width:0.5" />
<path d="M1895,55.371L1895,63.371" style="fill:none;stroke:#000000;stroke-width:0.5" />
<path d="M135.46,63.371L1895,63.371" style="fill:none;stroke:#000000;stroke-width:0.5" />
<g transform="rotate(90)">
<text x="538.49" y="23.467" transform="scale(1, -1)"
	style="font-family:Liberation Serif;font-variant:normal;font-weight:normal;font-style:normal;font-size:30px">μs</text>
</g>
<text x="49.712" y="-242.86" transform="scale(1, -1)"
	style="font-family:Liberation Serif;font-variant:normal;font-weight:normal;font-style:normal;font-size:20px">500000</text>
<text x="39.712" y="-592.7" transform="scale(1, -1)"
	style="font-family:Liberation Serif;font-variant:normal;font-weight:normal;font-style:normal;font-size:20px">1500000</text>
<text x="39.712" y="-942.54" transform="scale(1, -1)"
	style="font-family:Liberation Serif;font-variant:normal;font-weight:normal;font-style:normal;font-size:20px">2500000</text>
<path d="M114.71,247.43L122.71,247.43" style="fill:none;stroke:#000000;stroke-width:0.5" />
<path d="M114.71,597.27L122.71,597.27" style="fill:none;stroke:#000000;stroke-width:0.5" />
<path d="M114.71,947.11L122.71,947.11" style="fill:none;stroke:#000000;stroke-width:0.5" />
<path d="M118.71,422.35L122.71,422.35" style="fill:none;stroke:#000000;stroke-width:0.5" />
<path d="M118.71,772.19L122.71,772.19" style="fill:none;stroke:#000000;stroke-width:0.5" />
<path d="M122.71,80.11L122.71,1024.6" style="fill:none;stroke:#000000;stroke-width:0.5" />
<path d="M135.46,80.11L135.46,1024.6" style="fill:none;stroke:#808080;stroke-width:0.25" />
<path d="M330.97,80.11L330.97,1024.6" style="fill:none;stroke:#808080;stroke-width:0.25" />
<path d="M526.47,80.11L526.47,1024.6" style="fill:none;stroke:#808080;stroke-width:0.25" />
<path d="M721.97,80.11L721.97,1024.6" style="fill:none;stroke:#808080;stroke-width:0.25" />
<path d="M917.48,80.11L917.48,1024.6" style="fill:none;stroke:#808080;stroke-width:0.25" />
<path d="M1113,80.11L1113,1024.6" style="fill:none;stroke:#808080;stroke-width:0.25" />
<path d="M1308.5,80.11L1308.5,1024.6" style="fill:none;stroke:#808080;stroke-width:0.25" />
<path d="M1504,80.11L1504,1024.6" style="fill:none;stroke:#808080;stroke-width:0.25" />
<path d="M1699.5,80.11L1699.5,1024.6" style="fill:none;stroke:#808080;stroke-width:0.25" />
<path d="M1895,80.11L1895,1024.6" style="fill:none;stroke:#808080;stroke-width:0.25" />
<path d="M135.46,247.43L1895,247.43" style="fill:none;stroke:#808080;stroke-width:0.25" />
<path d="M135.46,597.27L1895,597.27" style="fill:none;stroke:#808080;stroke-width:0.25" />
<path d="M135.46,947.11L1895,947.11" style="fill:none;stroke:#808080;stroke-width:0.25" />
<path d="M135.46,80.389L330.97,105.25L526.47,141.52L721.97,202.12L917.48,271.46L1113,363.81L1308.5,464.23L1504,591L1699.5,745.56L1895,907.22" style="fill:none;stroke:#FF0000;stroke-width:4" />
<path d="M140.46,80.389A5,5 0 1 1 130.46,80.389A5,5 0 1 1 140.46,80.389Z" style="fill:#FF0000" />
<path d="M335.97,105.25A5,5 0 1 1 325.97,105.25A5,5 0 1 1 335.97,105.25Z" style="fill:#FF0000" />
<path d="M531.47,141.52A5,5 0 1 1 521.47,141.52A5,5 0 1 1 531.47,141.52Z" style="fill:#FF0000" />
<path d="M726.97,202.12A5,5 0 1 1 716.97,202.12A5,5 0 1 1 726.97,202.12Z" style="fill:#FF0000" />
<path d="M922.48,271.46A5,5 0 1 1 912.48,271.46A5,5 0 1 1 922.48,271.46Z" style="fill:#FF0000" />
<path d="M1118,363.81A5,5 0 1 1 1108,363.81A5,5 0 1 1 1118,363.81Z" style="fill:#FF0000" />
<path d="M1313.5,464.23A5,5 0 1 1 1303.5,464.23A5,5 0 1 1 1313.5,464.23Z" style="fill:#FF0000" />
<path d="M1509,591A5,5 0 1 1 1499,591A5,5 0 1 1 1509,591Z" style="fill:#FF0000" />
<path d="M1704.5,745.56A5,5 0 1 1 1694.5,745.56A5,5 0 1 1 1704.5,745.56Z" style="fill:#FF0000" />
<path d="M1900,907.22A5,5 0 1 1 1890,907.22A5,5 0 1 1 1900,907.22Z" style="fill:#FF0000" />
<path d="M135.46,80.11L330.97,106.4L526.47,147.14L721.97,198.33L917.48,278.55L1113,368.15L1308.5,486.33L1504,614.64L1699.5,767.11L1895,938.07" style="fill:none;stroke:#0000FF;stroke-width:4" />
<path d="M140.46,80.11A5,5 0 1 1 130.46,80.11A5,5 0 1 1 140.46,80.11Z" style="fill:#0000FF" />
<path d="M335.97,106.4A5,5 0 1 1 325.97,106.4A5,5 0 1 1 335.97,106.4Z" style="fill:#0000FF" />
<path d="M531.47,147.14A5,5 0 1 1 521.47,147.14A5,5 0 1 1 531.47,147.14Z" style="fill:#0000FF" />
<path d="M726.97,198.33A5,5 0 1 1 716.97,198.33A5,5 0 1 1 726.97,198.33Z" style="fill:#0000FF" />
<path d="M922.48,278.55A5,5 0 1 1 912.48,278.55A5,5 0 1 1 922.48,278.55Z" style="fill:#0000FF" />
<path d="M1118,368.15A5,5 0 1 1 1108,368.15A5,5 0 1 1 1118,368.15Z" style="fill:#0000FF" />
<path d="M1313.5,486.33A5,5 0 1 1 1303.5,486.33A5,5 0 1 1 1313.5,486.33Z" style="fill:#0000FF" />
<path d="M1509,614.64A5,5 0 1 1 1499,614.64A5,5 0 1 1 1509,614.64Z" style="fill:#0000FF" />
<path d="M1704.5,767.11A5,5 0 1 1 1694.5,767.11A5,5 0 1 1 1704.5,767.11Z" style="fill:#0000FF" />
<path d="M1900,938.07A5,5 0 1 1 1890,938.07A5,5 0 1 1 1900,938.07Z" style="fill:#0000FF" />
<path d="M135.46,80.503L330.97,101.89L526.47,139L721.97,184.75L917.48,276.27L1113,346.84L1308.5,456.58L1504,576.91L1699.5,721.25L1895,891.41" style="fill:none;stroke:#00FF00;stroke-width:4" />
<path d="M140.46,80.503A5,5 0 1 1 130.46,80.503A5,5 0 1 1 140.46,80.503Z" style="fill:#00FF00" />
<path d="M335.97,101.89A5,5 0 1 1 325.97,101.89A5,5 0 1 1 335.97,101.89Z" style="fill:#00FF00" />
<path d="M531.47,139A5,5 0 1 1 521.47,139A5,5 0 1 1 531.47,139Z" style="fill:#00FF00" />
<path d="M726.97,184.75A5,5 0 1 1 716.97,184.75A5,5 0 1 1 726.97,184.75Z" style="fill:#00FF00" />
<path d="M922.48,276.27A5,5 0 1 1 912.48,276.27A5,5 0 1 1 922.48,276.27Z" style="fill:#00FF00" />
<path d="M1118,346.84A5,5 0 1 1 1108,346.84A5,5 0 1 1 1118,346.84Z" style="fill:#00FF00" />
<path d="M1313.5,456.58A5,5 0 1 1 1303.5,456.58A5,5 0 1 1 1313.5,456.58Z" style="fill:#00FF00" />
<path d="M1509,576.91A5,5 0 1 1 1499,576.91A5,5 0 1 1 1509,576.91Z" style="fill:#00FF00" />
<path d="M1704.5,721.25A5,5 0 1 1 1694.5,721.25A5,5 0 1 1 1704.5,721.25Z" style="fill:#00FF00" />
<path d="M1900,891.41A5,5 0 1 1 1890,891.41A5,5 0 1 1 1900,891.41Z" style="fill:#00FF00" />
<path d="M1900,126.03L1920,126.03" style="fill:none;stroke:#FF0000;stroke-width:4" />
<path d="M1915,126.03A5,5 0 1 1 1905,126.03A5,5 0 1 1 1915,126.03Z" style="fill:#FF0000" />
<text x="1823.3" y="-121.05" transform="scale(1, -1)"
	style="font-family:Liberation Serif;font-variant:normal;font-weight:normal;font-style:normal;font-size:24px">std::list</text>
<path d="M1900,105.66L1920,105.66" style="fill:none;stroke:#0000FF;stroke-width:4" />
<path d="M1915,105.66A5,5 0 1 1 1905,105.66A5,5 0 1 1 1915,105.66Z" style="fill:#0000FF" />
<text x="1795.4" y="-100.69" transform="scale(1, -1)"
	style="font-family:Liberation Serif;font-variant:normal;font-weight:normal;font-style:normal;font-size:24px">std::deque</text>
<path d="M1900,85.294L1920,85.294" style="fill:none;stroke:#00FF00;stroke-width:4" />
<path d="M1915,85.294A5,5 0 1 1 1905,85.294A5,5 0 1 1 1915,85.294Z" style="fill:#00FF00" />
<text x="1792.7" y="-80.319" transform="scale(1, -1)"
	style="font-family:Liberation Serif;font-variant:normal;font-weight:normal;font-style:normal;font-size:24px">std::vector</text>
</g>
</svg>
