<?xml version="1.0"?>
<!-- Generated by SVGo and Plotinum VG -->
<svg width="1920pt" height="1080pt" viewBox="0 0 1920 1080"
	xmlns="http://www.w3.org/2000/svg"
	xmlns:xlink="http://www.w3.org/1999/xlink">
<g transform="scale(1, -1) translate(0, -1080)">
<path d="M0,0L1920,0L1920,1080L0,1080Z" style="fill:#FFFFFF" />
<text x="831.42" y="-1040.9" transform="scale(1, -1)"
	style="font-family:Liberation Serif;font-variant:normal;font-weight:normal;font-style:normal;font-size:50px">linear-search</text>
<text x="892.77" y="-9.7559" transform="scale(1, -1)"
	style="font-family:Liberation Serif;font-variant:normal;font-weight:normal;font-style:normal;font-size:30px">Number of elements</text>
<text x="115.46" y="-39.727" transform="scale(1, -1)"
	style="font-family:Liberation Serif;font-variant:normal;font-weight:normal;font-style:normal;font-size:20px">1000</text>
<text x="310.97" y="-39.727" transform="scale(1, -1)"
	style="font-family:Liberation Serif;font-variant:normal;font-weight:normal;font-style:normal;font-size:20px">2000</text>
<text x="506.47" y="-39.727" transform="scale(1, -1)"
	style="font-family:Liberation Serif;font-variant:normal;font-weight:normal;font-style:normal;font-size:20px">3000</text>
<text x="701.97" y="-39.727" transform="scale(1, -1)"
	style="font-family:Liberation Serif;font-variant:normal;font-weight:normal;font-style:normal;font-size:20px">4000</text>
<text x="897.48" y="-39.727" transform="scale(1, -1)"
	style="font-family:Liberation Serif;font-variant:normal;font-weight:normal;font-style:normal;font-size:20px">5000</text>
<text x="1093" y="-39.727" transform="scale(1, -1)"
	style="font-family:Liberation Serif;font-variant:normal;font-weight:normal;font-style:normal;font-size:20px">6000</text>
<text x="1288.5" y="-39.727" transform="scale(1, -1)"
	style="font-family:Liberation Serif;font-variant:normal;font-weight:normal;font-style:normal;font-size:20px">7000</text>
<text x="1484" y="-39.727" transform="scale(1, -1)"
	style="font-family:Liberation Serif;font-variant:normal;font-weight:normal;font-style:normal;font-size:20px">8000</text>
<text x="1679.5" y="-39.727" transform="scale(1, -1)"
	style="font-family:Liberation Serif;font-variant:normal;font-weight:normal;font-style:normal;font-size:20px">9000</text>
<text x="1870" y="-39.727" transform="scale(1, -1)"
	style="font-family:Liberation Serif;font-variant:normal;font-weight:normal;font-style:normal;font-size:20px">10000</text>
<path d="M135.46,55.371L135.46,63.371" style="fill:none;stroke:#000000;stroke-width:0.5" />
<path d="M330.97,55.371L330.97,63.371" style="fill:none;stroke:#000000;stroke-width:0.5" />
<path d="M526.47,55.371L526.47,63.371" style="fill:none;stroke:#000000;stroke-width:0.5" />
<path d="M721.97,55.371L721.97,63.371" style="fill:none;stroke:#000000;stroke-width:0.5" />
<path d="M917.48,55.371L917.48,63.371" style="fill:none;stroke:#000000;stroke-width:0.5" />
<path d="M1113,55.371L1113,63.371" style="fill:none;stroke:#000000;stroke-width:0.5" />
<path d="M1308.5,55.371L1308.5,63.371" style="fill:none;stroke:#000000;stroke-width:0.5" />
<path d="M1504,55.371L1504,63.371" style="fill:none;stroke:#000000;stroke-width:0.5" />
<path d="M1699.5,55.371L1699.5,63.371" style="fill:none;stroke:#000000;stroke-width:0.5" />
<path d="M1895,55.371L1895,63.371" style="fill:none;stroke:#000000;stroke-width:0.5" />
<path d="M135.46,63.371L1895,63.371" style="fill:none;stroke:#000000;stroke-width:0.5" />
<g transform="rotate(90)">
<text x="538.49" y="23.467" transform="scale(1, -1)"
	style="font-family:Liberation Serif;font-variant:normal;font-weight:normal;font-style:normal;font-size:30px">μs</text>
</g>
<text x="49.712" y="-252.14" transform="scale(1, -1)"
	style="font-family:Liberation Serif;font-variant:normal;font-weight:normal;font-style:normal;font-size:20px">500000</text>
<text x="39.712" y="-619.6" transform="scale(1, -1)"
	style="font-family:Liberation Serif;font-variant:normal;font-weight:normal;font-style:normal;font-size:20px">1500000</text>
<text x="39.712" y="-987.05" transform="scale(1, -1)"
	style="font-family:Liberation Serif;font-variant:normal;font-weight:normal;font-style:normal;font-size:20px">2500000</text>
<path d="M114.71,256.71L122.71,256.71" style="fill:none;stroke:#000000;stroke-width:0.5" />
<path d="M114.71,624.17L122.71,624.17" style="fill:none;stroke:#000000;stroke-width:0.5" />
<path d="M114.71,991.62L122.71,991.62" style="fill:none;stroke:#000000;stroke-width:0.5" />
<path d="M118.71,440.44L122.71,440.44" style="fill:none;stroke:#000000;stroke-width:0.5" />
<path d="M118.71,807.9L122.71,807.9" style="fill:none;stroke:#000000;stroke-width:0.5" />
<path d="M122.71,80.11L122.71,1024.6" style="fill:none;stroke:#000000;stroke-width:0.5" />
<path d="M135.46,80.11L135.46,1024.6" style="fill:none;stroke:#808080;stroke-width:0.25" />
<path d="M330.97,80.11L330.97,1024.6" style="fill:none;stroke:#808080;stroke-width:0.25" />
<path d="M526.47,80.11L526.47,1024.6" style="fill:none;stroke:#808080;stroke-width:0.25" />
<path d="M721.97,80.11L721.97,1024.6" style="fill:none;stroke:#808080;stroke-width:0.25" />
<path d="M917.48,80.11L917.48,1024.6" style="fill:none;stroke:#808080;stroke-width:0.25" />
<path d="M1113,80.11L1113,1024.6" style="fill:none;stroke:#808080;stroke-width:0.25" />
<path d="M1308.5,80.11L1308.5,1024.6" style="fill:none;stroke:#808080;stroke-width:0.25" />
<path d="M1504,80.11L1504,1024.6" style="fill:none;stroke:#808080;stroke-width:0.25" />
<path d="M1699.5,80.11L1699.5,1024.6" style="fill:none;stroke:#808080;stroke-width:0.25" />
<path d="M1895,80.11L1895,1024.6" style="fill:none;stroke:#808080;stroke-width:0.25" />
<path d="M135.46,256.71L1895,256.71" style="fill:none;stroke:#808080;stroke-width:0.25" />
<path d="M135.46,624.17L1895,624.17" style="fill:none;stroke:#808080;stroke-width:0.25" />
<path d="M135.46,991.62L1895,991.62" style="fill:none;stroke:#808080;stroke-width:0.25" />
<path d="M135.46,81.402L330.97,103.43L526.47,147.57L721.97,202.99L917.48,276.92L1113,367.6L1308.5,489.16L1504,614.93L1699.5,758.14L1895,938.12" style="fill:none;stroke:#FF0000;stroke-width:4" />
<path d="M140.46,81.402A5,5 0 1 1 130.46,81.402A5,5 0 1 1 140.46,81.402Z" style="fill:#FF0000" />
<path d="M335.97,103.43A5,5 0 1 1 325.97,103.43A5,5 0 1 1 335.97,103.43Z" style="fill:#FF0000" />
<path d="M531.47,147.57A5,5 0 1 1 521.47,147.57A5,5 0 1 1 531.47,147.57Z" style="fill:#FF0000" />
<path d="M726.97,202.99A5,5 0 1 1 716.97,202.99A5,5 0 1 1 726.97,202.99Z" style="fill:#FF0000" />
<path d="M922.48,276.92A5,5 0 1 1 912.48,276.92A5,5 0 1 1 922.48,276.92Z" style="fill:#FF0000" />
<path d="M1118,367.6A5,5 0 1 1 1108,367.6A5,5 0 1 1 1118,367.6Z" style="fill:#FF0000" />
<path d="M1313.5,489.16A5,5 0 1 1 1303.5,489.16A5,5 0 1 1 1313.5,489.16Z" style="fill:#FF0000" />
<path d="M1509,614.93A5,5 0 1 1 1499,614.93A5,5 0 1 1 1509,614.93Z" style="fill:#FF0000" />
<path d="M1704.5,758.14A5,5 0 1 1 1694.5,758.14A5,5 0 1 1 1704.5,758.14Z" style="fill:#FF0000" />
<path d="M1900,938.12A5,5 0 1 1 1890,938.12A5,5 0 1 1 1900,938.12Z" style="fill:#FF0000" />
<path d="M135.46,80.11L330.97,101.28L526.47,141.36L721.97,198.92L917.48,265.68L1113,349.59L1308.5,452.82L1504,572.81L1699.5,699.39L1895,866.79" style="fill:none;stroke:#0000FF;stroke-width:4" />
<path d="M140.46,80.11A5,5 0 1 1 130.46,80.11A5,5 0 1 1 140.46,80.11Z" style="fill:#0000FF" />
<path d="M335.97,101.28A5,5 0 1 1 325.97,101.28A5,5 0 1 1 335.97,101.28Z" style="fill:#0000FF" />
<path d="M531.47,141.36A5,5 0 1 1 521.47,141.36A5,5 0 1 1 531.47,141.36Z" style="fill:#0000FF" />
<path d="M726.97,198.92A5,5 0 1 1 716.97,198.92A5,5 0 1 1 726.97,198.92Z" style="fill:#0000FF" />
<path d="M922.48,265.68A5,5 0 1 1 912.48,265.68A5,5 0 1 1 922.48,265.68Z" style="fill:#0000FF" />
<path d="M1118,349.59A5,5 0 1 1 1108,349.59A5,5 0 1 1 1118,349.59Z" style="fill:#0000FF" />
<path d="M1313.5,452.82A5,5 0 1 1 1303.5,452.82A5,5 0 1 1 1313.5,452.82Z" style="fill:#0000FF" />
<path d="M1509,572.81A5,5 0 1 1 1499,572.81A5,5 0 1 1 1509,572.81Z" style="fill:#0000FF" />
<path d="M1704.5,699.39A5,5 0 1 1 1694.5,699.39A5,5 0 1 1 1704.5,699.39Z" style="fill:#0000FF" />
<path d="M1900,866.79A5,5 0 1 1 1890,866.79A5,5 0 1 1 1900,866.79Z" style="fill:#0000FF" />
<path d="M135.46,80.709L330.97,102.86L526.47,147.34L721.97,199.92L917.48,267.32L1113,357.64L1308.5,463.75L1504,583.15L1699.5,724.55L1895,905.07" style="fill:none;stroke:#00FF00;stroke-width:4" />
<path d="M140.46,80.709A5,5 0 1 1 130.46,80.709A5,5 0 1 1 140.46,80.709Z" style="fill:#00FF00" />
<path d="M335.97,102.86A5,5 0 1 1 325.97,102.86A5,5 0 1 1 335.97,102.86Z" style="fill:#00FF00" />
<path d="M531.47,147.34A5,5 0 1 1 521.47,147.34A5,5 0 1 1 531.47,147.34Z" style="fill:#00FF00" />
<path d="M726.97,199.92A5,5 0 1 1 716.97,199.92A5,5 0 1 1 726.97,199.92Z" style="fill:#00FF00" />
<path d="M922.48,267.32A5,5 0 1 1 912.48,267.32A5,5 0 1 1 922.48,267.32Z" style="fill:#00FF00" />
<path d="M1118,357.64A5,5 0 1 1 1108,357.64A5,5 0 1 1 1118,357.64Z" style="fill:#00FF00" />
<path d="M1313.5,463.75A5,5 0 1 1 1303.5,463.75A5,5 0 1 1 1313.5,463.75Z" style="fill:#00FF00" />
<path d="M1509,583.15A5,5 0 1 1 1499,583.15A5,5 0 1 1 1509,583.15Z" style="fill:#00FF00" />
<path d="M1704.5,724.55A5,5 0 1 1 1694.5,724.55A5,5 0 1 1 1704.5,724.55Z" style="fill:#00FF00" />
<path d="M1900,905.07A5,5 0 1 1 1890,905.07A5,5 0 1 1 1900,905.07Z" style="fill:#00FF00" />
<path d="M1900,126.03L1920,126.03" style="fill:none;stroke:#FF0000;stroke-width:4" />
<path d="M1915,126.03A5,5 0 1 1 1905,126.03A5,5 0 1 1 1915,126.03Z" style="fill:#FF0000" />
<text x="1795.4" y="-121.05" transform="scale(1, -1)"
	style="font-family:Liberation Serif;font-variant:normal;font-weight:normal;font-style:normal;font-size:24px">std::deque</text>
<path d="M1900,105.66L1920,105.66" style="fill:none;stroke:#0000FF;stroke-width:4" />
<path d="M1915,105.66A5,5 0 1 1 1905,105.66A5,5 0 1 1 1915,105.66Z" style="fill:#0000FF" />
<text x="1792.7" y="-100.69" transform="scale(1, -1)"
	style="font-family:Liberation Serif;font-variant:normal;font-weight:normal;font-style:normal;font-size:24px">std::vector</text>
<path d="M1900,85.294L1920,85.294" style="fill:none;stroke:#00FF00;stroke-width:4" />
<path d="M1915,85.294A5,5 0 1 1 1905,85.294A5,5 0 1 1 1915,85.294Z" style="fill:#00FF00" />
<text x="1823.3" y="-80.319" transform="scale(1, -1)"
	style="font-family:Liberation Serif;font-variant:normal;font-weight:normal;font-style:normal;font-size:24px">std::list</text>
</g>
</svg>
