<?xml version="1.0"?>
<!-- Generated by SVGo and Plotinum VG -->
<svg width="1920pt" height="1080pt" viewBox="0 0 1920 1080"
	xmlns="http://www.w3.org/2000/svg"
	xmlns:xlink="http://www.w3.org/1999/xlink">
<g transform="scale(1, -1) translate(0, -1080)">
<path d="M0,0L1920,0L1920,1080L0,1080Z" style="fill:#FFFFFF" />
<text x="831.42" y="-1040.9" transform="scale(1, -1)"
	style="font-family:Liberation Serif;font-variant:normal;font-weight:normal;font-style:normal;font-size:50px">linear-search</text>
<text x="892.77" y="-9.7559" transform="scale(1, -1)"
	style="font-family:Liberation Serif;font-variant:normal;font-weight:normal;font-style:normal;font-size:30px">Number of elements</text>
<text x="115.46" y="-39.727" transform="scale(1, -1)"
	style="font-family:Liberation Serif;font-variant:normal;font-weight:normal;font-style:normal;font-size:20px">1000</text>
<text x="310.97" y="-39.727" transform="scale(1, -1)"
	style="font-family:Liberation Serif;font-variant:normal;font-weight:normal;font-style:normal;font-size:20px">2000</text>
<text x="506.47" y="-39.727" transform="scale(1, -1)"
	style="font-family:Liberation Serif;font-variant:normal;font-weight:normal;font-style:normal;font-size:20px">3000</text>
<text x="701.97" y="-39.727" transform="scale(1, -1)"
	style="font-family:Liberation Serif;font-variant:normal;font-weight:normal;font-style:normal;font-size:20px">4000</text>
<text x="897.48" y="-39.727" transform="scale(1, -1)"
	style="font-family:Liberation Serif;font-variant:normal;font-weight:normal;font-style:normal;font-size:20px">5000</text>
<text x="1093" y="-39.727" transform="scale(1, -1)"
	style="font-family:Liberation Serif;font-variant:normal;font-weight:normal;font-style:normal;font-size:20px">6000</text>
<text x="1288.5" y="-39.727" transform="scale(1, -1)"
	style="font-family:Liberation Serif;font-variant:normal;font-weight:normal;font-style:normal;font-size:20px">7000</text>
<text x="1484" y="-39.727" transform="scale(1, -1)"
	style="font-family:Liberation Serif;font-variant:normal;font-weight:normal;font-style:normal;font-size:20px">8000</text>
<text x="1679.5" y="-39.727" transform="scale(1, -1)"
	style="font-family:Liberation Serif;font-variant:normal;font-weight:normal;font-style:normal;font-size:20px">9000</text>
<text x="1870" y="-39.727" transform="scale(1, -1)"
	style="font-family:Liberation Serif;font-variant:normal;font-weight:normal;font-style:normal;font-size:20px">10000</text>
<path d="M135.46,55.371L135.46,63.371" style="fill:none;stroke:#000000;stroke-width:0.5" />
<path d="M330.97,55.371L330.97,63.371" style="fill:none;stroke:#000000;stroke-width:0.5" />
<path d="M526.47,55.371L526.47,63.371" style="fill:none;stroke:#000000;stroke-width:0.5" />
<path d="M721.97,55.371L721.97,63.371" style="fill:none;stroke:#000000;stroke-width:0.5" />
<path d="M917.48,55.371L917.48,63.371" style="fill:none;stroke:#000000;stroke-width:0.5" />
<path d="M1113,55.371L1113,63.371" style="fill:none;stroke:#000000;stroke-width:0.5" />
<path d="M1308.5,55.371L1308.5,63.371" style="fill:none;stroke:#000000;stroke-width:0.5" />
<path d="M1504,55.371L1504,63.371" style="fill:none;stroke:#000000;stroke-width:0.5" />
<path d="M1699.5,55.371L1699.5,63.371" style="fill:none;stroke:#000000;stroke-width:0.5" />
<path d="M1895,55.371L1895,63.371" style="fill:none;stroke:#000000;stroke-width:0.5" />
<path d="M135.46,63.371L1895,63.371" style="fill:none;stroke:#000000;stroke-width:0.5" />
<g transform="rotate(90)">
<text x="538.49" y="23.467" transform="scale(1, -1)"
	style="font-family:Liberation Serif;font-variant:normal;font-weight:normal;font-style:normal;font-size:30px">μs</text>
</g>
<text x="49.712" y="-246.85" transform="scale(1, -1)"
	style="font-family:Liberation Serif;font-variant:normal;font-weight:normal;font-style:normal;font-size:20px">300000</text>
<text x="49.712" y="-603.15" transform="scale(1, -1)"
	style="font-family:Liberation Serif;font-variant:normal;font-weight:normal;font-style:normal;font-size:20px">900000</text>
<text x="39.712" y="-959.45" transform="scale(1, -1)"
	style="font-family:Liberation Serif;font-variant:normal;font-weight:normal;font-style:normal;font-size:20px">1500000</text>
<path d="M114.71,251.42L122.71,251.42" style="fill:none;stroke:#000000;stroke-width:0.5" />
<path d="M114.71,607.72L122.71,607.72" style="fill:none;stroke:#000000;stroke-width:0.5" />
<path d="M114.71,964.02L122.71,964.02" style="fill:none;stroke:#000000;stroke-width:0.5" />
<path d="M118.71,429.57L122.71,429.57" style="fill:none;stroke:#000000;stroke-width:0.5" />
<path d="M118.71,785.87L122.71,785.87" style="fill:none;stroke:#000000;stroke-width:0.5" />
<path d="M122.71,80.11L122.71,1024.6" style="fill:none;stroke:#000000;stroke-width:0.5" />
<path d="M135.46,80.11L135.46,1024.6" style="fill:none;stroke:#808080;stroke-width:0.25" />
<path d="M330.97,80.11L330.97,1024.6" style="fill:none;stroke:#808080;stroke-width:0.25" />
<path d="M526.47,80.11L526.47,1024.6" style="fill:none;stroke:#808080;stroke-width:0.25" />
<path d="M721.97,80.11L721.97,1024.6" style="fill:none;stroke:#808080;stroke-width:0.25" />
<path d="M917.48,80.11L917.48,1024.6" style="fill:none;stroke:#808080;stroke-width:0.25" />
<path d="M1113,80.11L1113,1024.6" style="fill:none;stroke:#808080;stroke-width:0.25" />
<path d="M1308.5,80.11L1308.5,1024.6" style="fill:none;stroke:#808080;stroke-width:0.25" />
<path d="M1504,80.11L1504,1024.6" style="fill:none;stroke:#808080;stroke-width:0.25" />
<path d="M1699.5,80.11L1699.5,1024.6" style="fill:none;stroke:#808080;stroke-width:0.25" />
<path d="M1895,80.11L1895,1024.6" style="fill:none;stroke:#808080;stroke-width:0.25" />
<path d="M135.46,251.42L1895,251.42" style="fill:none;stroke:#808080;stroke-width:0.25" />
<path d="M135.46,607.72L1895,607.72" style="fill:none;stroke:#808080;stroke-width:0.25" />
<path d="M135.46,964.02L1895,964.02" style="fill:none;stroke:#808080;stroke-width:0.25" />
<path d="M135.46,80.35L330.97,100.11L526.47,137.03L721.97,195.17L917.48,282.54L1113,391.64L1308.5,475.68L1504,520.71L1699.5,706.39L1895,887.31" style="fill:none;stroke:#FF0000;stroke-width:4" />
<path d="M140.46,80.35A5,5 0 1 1 130.46,80.35A5,5 0 1 1 140.46,80.35Z" style="fill:#FF0000" />
<path d="M335.97,100.11A5,5 0 1 1 325.97,100.11A5,5 0 1 1 335.97,100.11Z" style="fill:#FF0000" />
<path d="M531.47,137.03A5,5 0 1 1 521.47,137.03A5,5 0 1 1 531.47,137.03Z" style="fill:#FF0000" />
<path d="M726.97,195.17A5,5 0 1 1 716.97,195.17A5,5 0 1 1 726.97,195.17Z" style="fill:#FF0000" />
<path d="M922.48,282.54A5,5 0 1 1 912.48,282.54A5,5 0 1 1 922.48,282.54Z" style="fill:#FF0000" />
<path d="M1118,391.64A5,5 0 1 1 1108,391.64A5,5 0 1 1 1118,391.64Z" style="fill:#FF0000" />
<path d="M1313.5,475.68A5,5 0 1 1 1303.5,475.68A5,5 0 1 1 1313.5,475.68Z" style="fill:#FF0000" />
<path d="M1509,520.71A5,5 0 1 1 1499,520.71A5,5 0 1 1 1509,520.71Z" style="fill:#FF0000" />
<path d="M1704.5,706.39A5,5 0 1 1 1694.5,706.39A5,5 0 1 1 1704.5,706.39Z" style="fill:#FF0000" />
<path d="M1900,887.31A5,5 0 1 1 1890,887.31A5,5 0 1 1 1900,887.31Z" style="fill:#FF0000" />
<path d="M135.46,80.11L330.97,96.255L526.47,126.87L721.97,169.9L917.48,226.01L1113,293.44L1308.5,418.58L1504,534.44L1699.5,701.6L1895,756.99" style="fill:none;stroke:#0000FF;stroke-width:4" />
<path d="M140.46,80.11A5,5 0 1 1 130.46,80.11A5,5 0 1 1 140.46,80.11Z" style="fill:#0000FF" />
<path d="M335.97,96.255A5,5 0 1 1 325.97,96.255A5,5 0 1 1 335.97,96.255Z" style="fill:#0000FF" />
<path d="M531.47,126.87A5,5 0 1 1 521.47,126.87A5,5 0 1 1 531.47,126.87Z" style="fill:#0000FF" />
<path d="M726.97,169.9A5,5 0 1 1 716.97,169.9A5,5 0 1 1 726.97,169.9Z" style="fill:#0000FF" />
<path d="M922.48,226.01A5,5 0 1 1 912.48,226.01A5,5 0 1 1 922.48,226.01Z" style="fill:#0000FF" />
<path d="M1118,293.44A5,5 0 1 1 1108,293.44A5,5 0 1 1 1118,293.44Z" style="fill:#0000FF" />
<path d="M1313.5,418.58A5,5 0 1 1 1303.5,418.58A5,5 0 1 1 1313.5,418.58Z" style="fill:#0000FF" />
<path d="M1509,534.44A5,5 0 1 1 1499,534.44A5,5 0 1 1 1509,534.44Z" style="fill:#0000FF" />
<path d="M1704.5,701.6A5,5 0 1 1 1694.5,701.6A5,5 0 1 1 1704.5,701.6Z" style="fill:#0000FF" />
<path d="M1900,756.99A5,5 0 1 1 1890,756.99A5,5 0 1 1 1900,756.99Z" style="fill:#0000FF" />
<path d="M135.46,82.41L330.97,101.62L526.47,142.5L721.97,196.28L917.48,276.59L1113,345.84L1308.5,513.8L1504,637.81L1699.5,805.87L1895,938.14" style="fill:none;stroke:#00FF00;stroke-width:4" />
<path d="M140.46,82.41A5,5 0 1 1 130.46,82.41A5,5 0 1 1 140.46,82.41Z" style="fill:#00FF00" />
<path d="M335.97,101.62A5,5 0 1 1 325.97,101.62A5,5 0 1 1 335.97,101.62Z" style="fill:#00FF00" />
<path d="M531.47,142.5A5,5 0 1 1 521.47,142.5A5,5 0 1 1 531.47,142.5Z" style="fill:#00FF00" />
<path d="M726.97,196.28A5,5 0 1 1 716.97,196.28A5,5 0 1 1 726.97,196.28Z" style="fill:#00FF00" />
<path d="M922.48,276.59A5,5 0 1 1 912.48,276.59A5,5 0 1 1 922.48,276.59Z" style="fill:#00FF00" />
<path d="M1118,345.84A5,5 0 1 1 1108,345.84A5,5 0 1 1 1118,345.84Z" style="fill:#00FF00" />
<path d="M1313.5,513.8A5,5 0 1 1 1303.5,513.8A5,5 0 1 1 1313.5,513.8Z" style="fill:#00FF00" />
<path d="M1509,637.81A5,5 0 1 1 1499,637.81A5,5 0 1 1 1509,637.81Z" style="fill:#00FF00" />
<path d="M1704.5,805.87A5,5 0 1 1 1694.5,805.87A5,5 0 1 1 1704.5,805.87Z" style="fill:#00FF00" />
<path d="M1900,938.14A5,5 0 1 1 1890,938.14A5,5 0 1 1 1900,938.14Z" style="fill:#00FF00" />
<path d="M1900,126.03L1920,126.03" style="fill:none;stroke:#FF0000;stroke-width:4" />
<path d="M1915,126.03A5,5 0 1 1 1905,126.03A5,5 0 1 1 1915,126.03Z" style="fill:#FF0000" />
<text x="1795.4" y="-121.05" transform="scale(1, -1)"
	style="font-family:Liberation Serif;font-variant:normal;font-weight:normal;font-style:normal;font-size:24px">std::deque</text>
<path d="M1900,105.66L1920,105.66" style="fill:none;stroke:#0000FF;stroke-width:4" />
<path d="M1915,105.66A5,5 0 1 1 1905,105.66A5,5 0 1 1 1915,105.66Z" style="fill:#0000FF" />
<text x="1792.7" y="-100.69" transform="scale(1, -1)"
	style="font-family:Liberation Serif;font-variant:normal;font-weight:normal;font-style:normal;font-size:24px">std::vector</text>
<path d="M1900,85.294L1920,85.294" style="fill:none;stroke:#00FF00;stroke-width:4" />
<path d="M1915,85.294A5,5 0 1 1 1905,85.294A5,5 0 1 1 1915,85.294Z" style="fill:#00FF00" />
<text x="1823.3" y="-80.319" transform="scale(1, -1)"
	style="font-family:Liberation Serif;font-variant:normal;font-weight:normal;font-style:normal;font-size:24px">std::list</text>
</g>
</svg>
