<?xml version="1.0"?>
<!-- Generated by SVGo and Plotinum VG -->
<svg width="1920pt" height="1080pt" viewBox="0 0 1920 1080"
	xmlns="http://www.w3.org/2000/svg"
	xmlns:xlink="http://www.w3.org/1999/xlink">
<g transform="scale(1, -1) translate(0, -1080)">
<path d="M0,0L1920,0L1920,1080L0,1080Z" style="fill:#FFFFFF" />
<text x="831.42" y="-1040.9" transform="scale(1, -1)"
	style="font-family:Liberation Serif;font-variant:normal;font-weight:normal;font-style:normal;font-size:50px">linear-search</text>
<text x="892.77" y="-9.7559" transform="scale(1, -1)"
	style="font-family:Liberation Serif;font-variant:normal;font-weight:normal;font-style:normal;font-size:30px">Number of elements</text>
<text x="115.46" y="-39.727" transform="scale(1, -1)"
	style="font-family:Liberation Serif;font-variant:normal;font-weight:normal;font-style:normal;font-size:20px">1000</text>
<text x="310.97" y="-39.727" transform="scale(1, -1)"
	style="font-family:Liberation Serif;font-variant:normal;font-weight:normal;font-style:normal;font-size:20px">2000</text>
<text x="506.47" y="-39.727" transform="scale(1, -1)"
	style="font-family:Liberation Serif;font-variant:normal;font-weight:normal;font-style:normal;font-size:20px">3000</text>
<text x="701.97" y="-39.727" transform="scale(1, -1)"
	style="font-family:Liberation Serif;font-variant:normal;font-weight:normal;font-style:normal;font-size:20px">4000</text>
<text x="897.48" y="-39.727" transform="scale(1, -1)"
	style="font-family:Liberation Serif;font-variant:normal;font-weight:normal;font-style:normal;font-size:20px">5000</text>
<text x="1093" y="-39.727" transform="scale(1, -1)"
	style="font-family:Liberation Serif;font-variant:normal;font-weight:normal;font-style:normal;font-size:20px">6000</text>
<text x="1288.5" y="-39.727" transform="scale(1, -1)"
	style="font-family:Liberation Serif;font-variant:normal;font-weight:normal;font-style:normal;font-size:20px">7000</text>
<text x="1484" y="-39.727" transform="scale(1, -1)"
	style="font-family:Liberation Serif;font-variant:normal;font-weight:normal;font-style:normal;font-size:20px">8000</text>
<text x="1679.5" y="-39.727" transform="scale(1, -1)"
	style="font-family:Liberation Serif;font-variant:normal;font-weight:normal;font-style:normal;font-size:20px">9000</text>
<text x="1870" y="-39.727" transform="scale(1, -1)"
	style="font-family:Liberation Serif;font-variant:normal;font-weight:normal;font-style:normal;font-size:20px">10000</text>
<path d="M135.46,55.371L135.46,63.371" style="fill:none;stroke:#000000;stroke-width:0.5" />
<path d="M330.97,55.371L330.97,63.371" style="fill:none;stroke:#000000;stroke-width:0.5" />
<path d="M526.47,55.371L526.47,63.371" style="fill:none;stroke:#000000;stroke-width:0.5" />
<path d="M721.97,55.371L721.97,63.371" style="fill:none;stroke:#000000;stroke-width:0.5" />
<path d="M917.48,55.371L917.48,63.371" style="fill:none;stroke:#000000;stroke-width:0.5" />
<path d="M1113,55.371L1113,63.371" style="fill:none;stroke:#000000;stroke-width:0.5" />
<path d="M1308.5,55.371L1308.5,63.371" style="fill:none;stroke:#000000;stroke-width:0.5" />
<path d="M1504,55.371L1504,63.371" style="fill:none;stroke:#000000;stroke-width:0.5" />
<path d="M1699.5,55.371L1699.5,63.371" style="fill:none;stroke:#000000;stroke-width:0.5" />
<path d="M1895,55.371L1895,63.371" style="fill:none;stroke:#000000;stroke-width:0.5" />
<path d="M135.46,63.371L1895,63.371" style="fill:none;stroke:#000000;stroke-width:0.5" />
<g transform="rotate(90)">
<text x="538.49" y="23.467" transform="scale(1, -1)"
	style="font-family:Liberation Serif;font-variant:normal;font-weight:normal;font-style:normal;font-size:30px">μs</text>
</g>
<text x="49.712" y="-186.82" transform="scale(1, -1)"
	style="font-family:Liberation Serif;font-variant:normal;font-weight:normal;font-style:normal;font-size:20px">500000</text>
<text x="39.712" y="-538.08" transform="scale(1, -1)"
	style="font-family:Liberation Serif;font-variant:normal;font-weight:normal;font-style:normal;font-size:20px">2000000</text>
<text x="39.712" y="-889.34" transform="scale(1, -1)"
	style="font-family:Liberation Serif;font-variant:normal;font-weight:normal;font-style:normal;font-size:20px">3500000</text>
<path d="M114.71,191.39L122.71,191.39" style="fill:none;stroke:#000000;stroke-width:0.5" />
<path d="M114.71,542.65L122.71,542.65" style="fill:none;stroke:#000000;stroke-width:0.5" />
<path d="M114.71,893.91L122.71,893.91" style="fill:none;stroke:#000000;stroke-width:0.5" />
<path d="M118.71,367.02L122.71,367.02" style="fill:none;stroke:#000000;stroke-width:0.5" />
<path d="M118.71,718.28L122.71,718.28" style="fill:none;stroke:#000000;stroke-width:0.5" />
<path d="M122.71,80.11L122.71,1024.6" style="fill:none;stroke:#000000;stroke-width:0.5" />
<path d="M135.46,80.11L135.46,1024.6" style="fill:none;stroke:#808080;stroke-width:0.25" />
<path d="M330.97,80.11L330.97,1024.6" style="fill:none;stroke:#808080;stroke-width:0.25" />
<path d="M526.47,80.11L526.47,1024.6" style="fill:none;stroke:#808080;stroke-width:0.25" />
<path d="M721.97,80.11L721.97,1024.6" style="fill:none;stroke:#808080;stroke-width:0.25" />
<path d="M917.48,80.11L917.48,1024.6" style="fill:none;stroke:#808080;stroke-width:0.25" />
<path d="M1113,80.11L1113,1024.6" style="fill:none;stroke:#808080;stroke-width:0.25" />
<path d="M1308.5,80.11L1308.5,1024.6" style="fill:none;stroke:#808080;stroke-width:0.25" />
<path d="M1504,80.11L1504,1024.6" style="fill:none;stroke:#808080;stroke-width:0.25" />
<path d="M1699.5,80.11L1699.5,1024.6" style="fill:none;stroke:#808080;stroke-width:0.25" />
<path d="M1895,80.11L1895,1024.6" style="fill:none;stroke:#808080;stroke-width:0.25" />
<path d="M135.46,191.39L1895,191.39" style="fill:none;stroke:#808080;stroke-width:0.25" />
<path d="M135.46,542.65L1895,542.65" style="fill:none;stroke:#808080;stroke-width:0.25" />
<path d="M135.46,893.91L1895,893.91" style="fill:none;stroke:#808080;stroke-width:0.25" />
<path d="M135.46,80.11L330.97,97.326L526.47,135.52L721.97,175.24L917.48,243.44L1113,325.66L1308.5,406.88L1504,528.84L1699.5,663.03L1895,779.36" style="fill:none;stroke:#FF0000;stroke-width:4" />
<path d="M140.46,80.11A5,5 0 1 1 130.46,80.11A5,5 0 1 1 140.46,80.11Z" style="fill:#FF0000" />
<path d="M335.97,97.326A5,5 0 1 1 325.97,97.326A5,5 0 1 1 335.97,97.326Z" style="fill:#FF0000" />
<path d="M531.47,135.52A5,5 0 1 1 521.47,135.52A5,5 0 1 1 531.47,135.52Z" style="fill:#FF0000" />
<path d="M726.97,175.24A5,5 0 1 1 716.97,175.24A5,5 0 1 1 726.97,175.24Z" style="fill:#FF0000" />
<path d="M922.48,243.44A5,5 0 1 1 912.48,243.44A5,5 0 1 1 922.48,243.44Z" style="fill:#FF0000" />
<path d="M1118,325.66A5,5 0 1 1 1108,325.66A5,5 0 1 1 1118,325.66Z" style="fill:#FF0000" />
<path d="M1313.5,406.88A5,5 0 1 1 1303.5,406.88A5,5 0 1 1 1313.5,406.88Z" style="fill:#FF0000" />
<path d="M1509,528.84A5,5 0 1 1 1499,528.84A5,5 0 1 1 1509,528.84Z" style="fill:#FF0000" />
<path d="M1704.5,663.03A5,5 0 1 1 1694.5,663.03A5,5 0 1 1 1704.5,663.03Z" style="fill:#FF0000" />
<path d="M1900,779.36A5,5 0 1 1 1890,779.36A5,5 0 1 1 1900,779.36Z" style="fill:#FF0000" />
<path d="M135.46,80.2L330.97,100.56L526.47,130.98L721.97,176.04L917.48,232.45L1113,313.89L1308.5,436.96L1504,581.91L1699.5,760.2L1895,938.24" style="fill:none;stroke:#0000FF;stroke-width:4" />
<path d="M140.46,80.2A5,5 0 1 1 130.46,80.2A5,5 0 1 1 140.46,80.2Z" style="fill:#0000FF" />
<path d="M335.97,100.56A5,5 0 1 1 325.97,100.56A5,5 0 1 1 335.97,100.56Z" style="fill:#0000FF" />
<path d="M531.47,130.98A5,5 0 1 1 521.47,130.98A5,5 0 1 1 531.47,130.98Z" style="fill:#0000FF" />
<path d="M726.97,176.04A5,5 0 1 1 716.97,176.04A5,5 0 1 1 726.97,176.04Z" style="fill:#0000FF" />
<path d="M922.48,232.45A5,5 0 1 1 912.48,232.45A5,5 0 1 1 922.48,232.45Z" style="fill:#0000FF" />
<path d="M1118,313.89A5,5 0 1 1 1108,313.89A5,5 0 1 1 1118,313.89Z" style="fill:#0000FF" />
<path d="M1313.5,436.96A5,5 0 1 1 1303.5,436.96A5,5 0 1 1 1313.5,436.96Z" style="fill:#0000FF" />
<path d="M1509,581.91A5,5 0 1 1 1499,581.91A5,5 0 1 1 1509,581.91Z" style="fill:#0000FF" />
<path d="M1704.5,760.2A5,5 0 1 1 1694.5,760.2A5,5 0 1 1 1704.5,760.2Z" style="fill:#0000FF" />
<path d="M1900,938.24A5,5 0 1 1 1890,938.24A5,5 0 1 1 1900,938.24Z" style="fill:#0000FF" />
<path d="M135.46,81.785L330.97,104.52L526.47,137.27L721.97,200.59L917.48,239.13L1113,319.2L1308.5,397.04L1504,540.79L1699.5,593.78L1895,792.56" style="fill:none;stroke:#00FF00;stroke-width:4" />
<path d="M140.46,81.785A5,5 0 1 1 130.46,81.785A5,5 0 1 1 140.46,81.785Z" style="fill:#00FF00" />
<path d="M335.97,104.52A5,5 0 1 1 325.97,104.52A5,5 0 1 1 335.97,104.52Z" style="fill:#00FF00" />
<path d="M531.47,137.27A5,5 0 1 1 521.47,137.27A5,5 0 1 1 531.47,137.27Z" style="fill:#00FF00" />
<path d="M726.97,200.59A5,5 0 1 1 716.97,200.59A5,5 0 1 1 726.97,200.59Z" style="fill:#00FF00" />
<path d="M922.48,239.13A5,5 0 1 1 912.48,239.13A5,5 0 1 1 922.48,239.13Z" style="fill:#00FF00" />
<path d="M1118,319.2A5,5 0 1 1 1108,319.2A5,5 0 1 1 1118,319.2Z" style="fill:#00FF00" />
<path d="M1313.5,397.04A5,5 0 1 1 1303.5,397.04A5,5 0 1 1 1313.5,397.04Z" style="fill:#00FF00" />
<path d="M1509,540.79A5,5 0 1 1 1499,540.79A5,5 0 1 1 1509,540.79Z" style="fill:#00FF00" />
<path d="M1704.5,593.78A5,5 0 1 1 1694.5,593.78A5,5 0 1 1 1704.5,593.78Z" style="fill:#00FF00" />
<path d="M1900,792.56A5,5 0 1 1 1890,792.56A5,5 0 1 1 1900,792.56Z" style="fill:#00FF00" />
<path d="M1900,126.03L1920,126.03" style="fill:none;stroke:#FF0000;stroke-width:4" />
<path d="M1915,126.03A5,5 0 1 1 1905,126.03A5,5 0 1 1 1915,126.03Z" style="fill:#FF0000" />
<text x="1823.3" y="-121.05" transform="scale(1, -1)"
	style="font-family:Liberation Serif;font-variant:normal;font-weight:normal;font-style:normal;font-size:24px">std::list</text>
<path d="M1900,105.66L1920,105.66" style="fill:none;stroke:#0000FF;stroke-width:4" />
<path d="M1915,105.66A5,5 0 1 1 1905,105.66A5,5 0 1 1 1915,105.66Z" style="fill:#0000FF" />
<text x="1795.4" y="-100.69" transform="scale(1, -1)"
	style="font-family:Liberation Serif;font-variant:normal;font-weight:normal;font-style:normal;font-size:24px">std::deque</text>
<path d="M1900,85.294L1920,85.294" style="fill:none;stroke:#00FF00;stroke-width:4" />
<path d="M1915,85.294A5,5 0 1 1 1905,85.294A5,5 0 1 1 1915,85.294Z" style="fill:#00FF00" />
<text x="1792.7" y="-80.319" transform="scale(1, -1)"
	style="font-family:Liberation Serif;font-variant:normal;font-weight:normal;font-style:normal;font-size:24px">std::vector</text>
</g>
</svg>
