<?xml version="1.0"?>
<!-- Generated by SVGo and Plotinum VG -->
<svg width="1920pt" height="1080pt" viewBox="0 0 1920 1080"
	xmlns="http://www.w3.org/2000/svg"
	xmlns:xlink="http://www.w3.org/1999/xlink">
<g transform="scale(1, -1) translate(0, -1080)">
<path d="M0,0L1920,0L1920,1080L0,1080Z" style="fill:#FFFFFF" />
<text x="709.94" y="-1040.9" transform="scale(1, -1)"
	style="font-family:Liberation Serif;font-variant:normal;font-weight:normal;font-style:normal;font-size:50px">linear-search - Log Scale</text>
<text x="892.77" y="-9.7559" transform="scale(1, -1)"
	style="font-family:Liberation Serif;font-variant:normal;font-weight:normal;font-style:normal;font-size:30px">Number of elements</text>
<text x="115.46" y="-39.727" transform="scale(1, -1)"
	style="font-family:Liberation Serif;font-variant:normal;font-weight:normal;font-style:normal;font-size:20px">1000</text>
<text x="310.97" y="-39.727" transform="scale(1, -1)"
	style="font-family:Liberation Serif;font-variant:normal;font-weight:normal;font-style:normal;font-size:20px">2000</text>
<text x="506.47" y="-39.727" transform="scale(1, -1)"
	style="font-family:Liberation Serif;font-variant:normal;font-weight:normal;font-style:normal;font-size:20px">3000</text>
<text x="701.97" y="-39.727" transform="scale(1, -1)"
	style="font-family:Liberation Serif;font-variant:normal;font-weight:normal;font-style:normal;font-size:20px">4000</text>
<text x="897.48" y="-39.727" transform="scale(1, -1)"
	style="font-family:Liberation Serif;font-variant:normal;font-weight:normal;font-style:normal;font-size:20px">5000</text>
<text x="1093" y="-39.727" transform="scale(1, -1)"
	style="font-family:Liberation Serif;font-variant:normal;font-weight:normal;font-style:normal;font-size:20px">6000</text>
<text x="1288.5" y="-39.727" transform="scale(1, -1)"
	style="font-family:Liberation Serif;font-variant:normal;font-weight:normal;font-style:normal;font-size:20px">7000</text>
<text x="1484" y="-39.727" transform="scale(1, -1)"
	style="font-family:Liberation Serif;font-variant:normal;font-weight:normal;font-style:normal;font-size:20px">8000</text>
<text x="1679.5" y="-39.727" transform="scale(1, -1)"
	style="font-family:Liberation Serif;font-variant:normal;font-weight:normal;font-style:normal;font-size:20px">9000</text>
<text x="1870" y="-39.727" transform="scale(1, -1)"
	style="font-family:Liberation Serif;font-variant:normal;font-weight:normal;font-style:normal;font-size:20px">10000</text>
<path d="M135.46,55.371L135.46,63.371" style="fill:none;stroke:#000000;stroke-width:0.5" />
<path d="M330.97,55.371L330.97,63.371" style="fill:none;stroke:#000000;stroke-width:0.5" />
<path d="M526.47,55.371L526.47,63.371" style="fill:none;stroke:#000000;stroke-width:0.5" />
<path d="M721.97,55.371L721.97,63.371" style="fill:none;stroke:#000000;stroke-width:0.5" />
<path d="M917.48,55.371L917.48,63.371" style="fill:none;stroke:#000000;stroke-width:0.5" />
<path d="M1113,55.371L1113,63.371" style="fill:none;stroke:#000000;stroke-width:0.5" />
<path d="M1308.5,55.371L1308.5,63.371" style="fill:none;stroke:#000000;stroke-width:0.5" />
<path d="M1504,55.371L1504,63.371" style="fill:none;stroke:#000000;stroke-width:0.5" />
<path d="M1699.5,55.371L1699.5,63.371" style="fill:none;stroke:#000000;stroke-width:0.5" />
<path d="M1895,55.371L1895,63.371" style="fill:none;stroke:#000000;stroke-width:0.5" />
<path d="M135.46,63.371L1895,63.371" style="fill:none;stroke:#000000;stroke-width:0.5" />
<g transform="rotate(90)">
<text x="485.87" y="23.467" transform="scale(1, -1)"
	style="font-family:Liberation Serif;font-variant:normal;font-weight:normal;font-style:normal;font-size:30px">log(μs + 1)</text>
</g>
<text x="49.712" y="-618.21" transform="scale(1, -1)"
	style="font-family:Liberation Serif;font-variant:normal;font-weight:normal;font-style:normal;font-size:20px">200000</text>
<text x="49.712" y="-891.6" transform="scale(1, -1)"
	style="font-family:Liberation Serif;font-variant:normal;font-weight:normal;font-style:normal;font-size:20px">800000</text>
<text x="39.712" y="-1002" transform="scale(1, -1)"
	style="font-family:Liberation Serif;font-variant:normal;font-weight:normal;font-style:normal;font-size:20px">1400000</text>
<path d="M114.71,622.78L122.71,622.78" style="fill:none;stroke:#000000;stroke-width:0.5" />
<path d="M114.71,896.17L122.71,896.17" style="fill:none;stroke:#000000;stroke-width:0.5" />
<path d="M114.71,1006.5L122.71,1006.5" style="fill:none;stroke:#000000;stroke-width:0.5" />
<path d="M118.71,803.48L122.71,803.48" style="fill:none;stroke:#000000;stroke-width:0.5" />
<path d="M118.71,958.98L122.71,958.98" style="fill:none;stroke:#000000;stroke-width:0.5" />
<path d="M122.71,80.11L122.71,1024.6" style="fill:none;stroke:#000000;stroke-width:0.5" />
<path d="M135.46,80.11L135.46,1024.6" style="fill:none;stroke:#808080;stroke-width:0.25" />
<path d="M330.97,80.11L330.97,1024.6" style="fill:none;stroke:#808080;stroke-width:0.25" />
<path d="M526.47,80.11L526.47,1024.6" style="fill:none;stroke:#808080;stroke-width:0.25" />
<path d="M721.97,80.11L721.97,1024.6" style="fill:none;stroke:#808080;stroke-width:0.25" />
<path d="M917.48,80.11L917.48,1024.6" style="fill:none;stroke:#808080;stroke-width:0.25" />
<path d="M1113,80.11L1113,1024.6" style="fill:none;stroke:#808080;stroke-width:0.25" />
<path d="M1308.5,80.11L1308.5,1024.6" style="fill:none;stroke:#808080;stroke-width:0.25" />
<path d="M1504,80.11L1504,1024.6" style="fill:none;stroke:#808080;stroke-width:0.25" />
<path d="M1699.5,80.11L1699.5,1024.6" style="fill:none;stroke:#808080;stroke-width:0.25" />
<path d="M1895,80.11L1895,1024.6" style="fill:none;stroke:#808080;stroke-width:0.25" />
<path d="M135.46,622.78L1895,622.78" style="fill:none;stroke:#808080;stroke-width:0.25" />
<path d="M135.46,896.17L1895,896.17" style="fill:none;stroke:#808080;stroke-width:0.25" />
<path d="M135.46,1006.5L1895,1006.5" style="fill:none;stroke:#808080;stroke-width:0.25" />
<path d="M135.46,117.21L330.97,354.49L526.47,522.47L721.97,643.71L917.48,725.99L1113,804.12L1308.5,860.02L1504,913.09L1699.5,960.83L1895,1005.8" style="fill:none;stroke:#FF0000;stroke-width:4" />
<path d="M140.46,117.21A5,5 0 1 1 130.46,117.21A5,5 0 1 1 140.46,117.21Z" style="fill:#FF0000" />
<path d="M335.97,354.49A5,5 0 1 1 325.97,354.49A5,5 0 1 1 335.97,354.49Z" style="fill:#FF0000" />
<path d="M531.47,522.47A5,5 0 1 1 521.47,522.47A5,5 0 1 1 531.47,522.47Z" style="fill:#FF0000" />
<path d="M726.97,643.71A5,5 0 1 1 716.97,643.71A5,5 0 1 1 726.97,643.71Z" style="fill:#FF0000" />
<path d="M922.48,725.99A5,5 0 1 1 912.48,725.99A5,5 0 1 1 922.48,725.99Z" style="fill:#FF0000" />
<path d="M1118,804.12A5,5 0 1 1 1108,804.12A5,5 0 1 1 1118,804.12Z" style="fill:#FF0000" />
<path d="M1313.5,860.02A5,5 0 1 1 1303.5,860.02A5,5 0 1 1 1313.5,860.02Z" style="fill:#FF0000" />
<path d="M1509,913.09A5,5 0 1 1 1499,913.09A5,5 0 1 1 1509,913.09Z" style="fill:#FF0000" />
<path d="M1704.5,960.83A5,5 0 1 1 1694.5,960.83A5,5 0 1 1 1704.5,960.83Z" style="fill:#FF0000" />
<path d="M1900,1005.8A5,5 0 1 1 1890,1005.8A5,5 0 1 1 1900,1005.8Z" style="fill:#FF0000" />
<path d="M135.46,85.761L330.97,339.45L526.47,515.02L721.97,614.92L917.48,713.45L1113,779.73L1308.5,844.22L1504,894.28L1699.5,943.64L1895,989.43" style="fill:none;stroke:#0000FF;stroke-width:4" />
<path d="M140.46,85.761A5,5 0 1 1 130.46,85.761A5,5 0 1 1 140.46,85.761Z" style="fill:#0000FF" />
<path d="M335.97,339.45A5,5 0 1 1 325.97,339.45A5,5 0 1 1 335.97,339.45Z" style="fill:#0000FF" />
<path d="M531.47,515.02A5,5 0 1 1 521.47,515.02A5,5 0 1 1 531.47,515.02Z" style="fill:#0000FF" />
<path d="M726.97,614.92A5,5 0 1 1 716.97,614.92A5,5 0 1 1 726.97,614.92Z" style="fill:#0000FF" />
<path d="M922.48,713.45A5,5 0 1 1 912.48,713.45A5,5 0 1 1 922.48,713.45Z" style="fill:#0000FF" />
<path d="M1118,779.73A5,5 0 1 1 1108,779.73A5,5 0 1 1 1118,779.73Z" style="fill:#0000FF" />
<path d="M1313.5,844.22A5,5 0 1 1 1303.5,844.22A5,5 0 1 1 1313.5,844.22Z" style="fill:#0000FF" />
<path d="M1509,894.28A5,5 0 1 1 1499,894.28A5,5 0 1 1 1509,894.28Z" style="fill:#0000FF" />
<path d="M1704.5,943.64A5,5 0 1 1 1694.5,943.64A5,5 0 1 1 1704.5,943.64Z" style="fill:#0000FF" />
<path d="M1900,989.43A5,5 0 1 1 1890,989.43A5,5 0 1 1 1900,989.43Z" style="fill:#0000FF" />
<path d="M135.46,80.11L330.97,344.03L526.47,502.11L721.97,608.91L917.48,716.54L1113,784.74L1308.5,824.94L1504,879.53L1699.5,924.34L1895,967.54" style="fill:none;stroke:#00FF00;stroke-width:4" />
<path d="M140.46,80.11A5,5 0 1 1 130.46,80.11A5,5 0 1 1 140.46,80.11Z" style="fill:#00FF00" />
<path d="M335.97,344.03A5,5 0 1 1 325.97,344.03A5,5 0 1 1 335.97,344.03Z" style="fill:#00FF00" />
<path d="M531.47,502.11A5,5 0 1 1 521.47,502.11A5,5 0 1 1 531.47,502.11Z" style="fill:#00FF00" />
<path d="M726.97,608.91A5,5 0 1 1 716.97,608.91A5,5 0 1 1 726.97,608.91Z" style="fill:#00FF00" />
<path d="M922.48,716.54A5,5 0 1 1 912.48,716.54A5,5 0 1 1 922.48,716.54Z" style="fill:#00FF00" />
<path d="M1118,784.74A5,5 0 1 1 1108,784.74A5,5 0 1 1 1118,784.74Z" style="fill:#00FF00" />
<path d="M1313.5,824.94A5,5 0 1 1 1303.5,824.94A5,5 0 1 1 1313.5,824.94Z" style="fill:#00FF00" />
<path d="M1509,879.53A5,5 0 1 1 1499,879.53A5,5 0 1 1 1509,879.53Z" style="fill:#00FF00" />
<path d="M1704.5,924.34A5,5 0 1 1 1694.5,924.34A5,5 0 1 1 1704.5,924.34Z" style="fill:#00FF00" />
<path d="M1900,967.54A5,5 0 1 1 1890,967.54A5,5 0 1 1 1900,967.54Z" style="fill:#00FF00" />
<path d="M1900,126.03L1920,126.03" style="fill:none;stroke:#FF0000;stroke-width:4" />
<path d="M1915,126.03A5,5 0 1 1 1905,126.03A5,5 0 1 1 1915,126.03Z" style="fill:#FF0000" />
<text x="1823.3" y="-121.05" transform="scale(1, -1)"
	style="font-family:Liberation Serif;font-variant:normal;font-weight:normal;font-style:normal;font-size:24px">std::list</text>
<path d="M1900,105.66L1920,105.66" style="fill:none;stroke:#0000FF;stroke-width:4" />
<path d="M1915,105.66A5,5 0 1 1 1905,105.66A5,5 0 1 1 1915,105.66Z" style="fill:#0000FF" />
<text x="1795.4" y="-100.69" transform="scale(1, -1)"
	style="font-family:Liberation Serif;font-variant:normal;font-weight:normal;font-style:normal;font-size:24px">std::deque</text>
<path d="M1900,85.294L1920,85.294" style="fill:none;stroke:#00FF00;stroke-width:4" />
<path d="M1915,85.294A5,5 0 1 1 1905,85.294A5,5 0 1 1 1915,85.294Z" style="fill:#00FF00" />
<text x="1792.7" y="-80.319" transform="scale(1, -1)"
	style="font-family:Liberation Serif;font-variant:normal;font-weight:normal;font-style:normal;font-size:24px">std::vector</text>
</g>
</svg>
