<?xml version="1.0"?>
<!-- Generated by SVGo and Plotinum VG -->
<svg width="1920pt" height="1080pt" viewBox="0 0 1920 1080"
	xmlns="http://www.w3.org/2000/svg"
	xmlns:xlink="http://www.w3.org/1999/xlink">
<g transform="scale(1, -1) translate(0, -1080)">
<path d="M0,0L1920,0L1920,1080L0,1080Z" style="fill:#FFFFFF" />
<text x="709.94" y="-1040.9" transform="scale(1, -1)"
	style="font-family:Liberation Serif;font-variant:normal;font-weight:normal;font-style:normal;font-size:50px">linear-search - Log Scale</text>
<text x="892.77" y="-9.7559" transform="scale(1, -1)"
	style="font-family:Liberation Serif;font-variant:normal;font-weight:normal;font-style:normal;font-size:30px">Number of elements</text>
<text x="115.46" y="-39.727" transform="scale(1, -1)"
	style="font-family:Liberation Serif;font-variant:normal;font-weight:normal;font-style:normal;font-size:20px">1000</text>
<text x="310.97" y="-39.727" transform="scale(1, -1)"
	style="font-family:Liberation Serif;font-variant:normal;font-weight:normal;font-style:normal;font-size:20px">2000</text>
<text x="506.47" y="-39.727" transform="scale(1, -1)"
	style="font-family:Liberation Serif;font-variant:normal;font-weight:normal;font-style:normal;font-size:20px">3000</text>
<text x="701.97" y="-39.727" transform="scale(1, -1)"
	style="font-family:Liberation Serif;font-variant:normal;font-weight:normal;font-style:normal;font-size:20px">4000</text>
<text x="897.48" y="-39.727" transform="scale(1, -1)"
	style="font-family:Liberation Serif;font-variant:normal;font-weight:normal;font-style:normal;font-size:20px">5000</text>
<text x="1093" y="-39.727" transform="scale(1, -1)"
	style="font-family:Liberation Serif;font-variant:normal;font-weight:normal;font-style:normal;font-size:20px">6000</text>
<text x="1288.5" y="-39.727" transform="scale(1, -1)"
	style="font-family:Liberation Serif;font-variant:normal;font-weight:normal;font-style:normal;font-size:20px">7000</text>
<text x="1484" y="-39.727" transform="scale(1, -1)"
	style="font-family:Liberation Serif;font-variant:normal;font-weight:normal;font-style:normal;font-size:20px">8000</text>
<text x="1679.5" y="-39.727" transform="scale(1, -1)"
	style="font-family:Liberation Serif;font-variant:normal;font-weight:normal;font-style:normal;font-size:20px">9000</text>
<text x="1870" y="-39.727" transform="scale(1, -1)"
	style="font-family:Liberation Serif;font-variant:normal;font-weight:normal;font-style:normal;font-size:20px">10000</text>
<path d="M135.46,55.371L135.46,63.371" style="fill:none;stroke:#000000;stroke-width:0.5" />
<path d="M330.97,55.371L330.97,63.371" style="fill:none;stroke:#000000;stroke-width:0.5" />
<path d="M526.47,55.371L526.47,63.371" style="fill:none;stroke:#000000;stroke-width:0.5" />
<path d="M721.97,55.371L721.97,63.371" style="fill:none;stroke:#000000;stroke-width:0.5" />
<path d="M917.48,55.371L917.48,63.371" style="fill:none;stroke:#000000;stroke-width:0.5" />
<path d="M1113,55.371L1113,63.371" style="fill:none;stroke:#000000;stroke-width:0.5" />
<path d="M1308.5,55.371L1308.5,63.371" style="fill:none;stroke:#000000;stroke-width:0.5" />
<path d="M1504,55.371L1504,63.371" style="fill:none;stroke:#000000;stroke-width:0.5" />
<path d="M1699.5,55.371L1699.5,63.371" style="fill:none;stroke:#000000;stroke-width:0.5" />
<path d="M1895,55.371L1895,63.371" style="fill:none;stroke:#000000;stroke-width:0.5" />
<path d="M135.46,63.371L1895,63.371" style="fill:none;stroke:#000000;stroke-width:0.5" />
<g transform="rotate(90)">
<text x="481.96" y="23.467" transform="scale(1, -1)"
	style="font-family:Liberation Serif;font-variant:normal;font-weight:normal;font-style:normal;font-size:30px">log(μs + 1)</text>
</g>
<text x="49.712" y="-622.65" transform="scale(1, -1)"
	style="font-family:Liberation Serif;font-variant:normal;font-weight:normal;font-style:normal;font-size:20px">200000</text>
<text x="49.712" y="-897.88" transform="scale(1, -1)"
	style="font-family:Liberation Serif;font-variant:normal;font-weight:normal;font-style:normal;font-size:20px">800000</text>
<text x="39.712" y="-1009" transform="scale(1, -1)"
	style="font-family:Liberation Serif;font-variant:normal;font-weight:normal;font-style:normal;font-size:20px">1400000</text>
<path d="M114.71,627.22L122.71,627.22" style="fill:none;stroke:#000000;stroke-width:0.5" />
<path d="M114.71,902.45L122.71,902.45" style="fill:none;stroke:#000000;stroke-width:0.5" />
<path d="M114.71,1013.6L122.71,1013.6" style="fill:none;stroke:#000000;stroke-width:0.5" />
<path d="M118.71,809.14L122.71,809.14" style="fill:none;stroke:#000000;stroke-width:0.5" />
<path d="M118.71,965.67L122.71,965.67" style="fill:none;stroke:#000000;stroke-width:0.5" />
<path d="M122.71,80.11L122.71,1016.8" style="fill:none;stroke:#000000;stroke-width:0.5" />
<path d="M135.46,80.11L135.46,1016.8" style="fill:none;stroke:#808080;stroke-width:0.25" />
<path d="M330.97,80.11L330.97,1016.8" style="fill:none;stroke:#808080;stroke-width:0.25" />
<path d="M526.47,80.11L526.47,1016.8" style="fill:none;stroke:#808080;stroke-width:0.25" />
<path d="M721.97,80.11L721.97,1016.8" style="fill:none;stroke:#808080;stroke-width:0.25" />
<path d="M917.48,80.11L917.48,1016.8" style="fill:none;stroke:#808080;stroke-width:0.25" />
<path d="M1113,80.11L1113,1016.8" style="fill:none;stroke:#808080;stroke-width:0.25" />
<path d="M1308.5,80.11L1308.5,1016.8" style="fill:none;stroke:#808080;stroke-width:0.25" />
<path d="M1504,80.11L1504,1016.8" style="fill:none;stroke:#808080;stroke-width:0.25" />
<path d="M1699.5,80.11L1699.5,1016.8" style="fill:none;stroke:#808080;stroke-width:0.25" />
<path d="M1895,80.11L1895,1016.8" style="fill:none;stroke:#808080;stroke-width:0.25" />
<path d="M135.46,627.22L1895,627.22" style="fill:none;stroke:#808080;stroke-width:0.25" />
<path d="M135.46,902.45L1895,902.45" style="fill:none;stroke:#808080;stroke-width:0.25" />
<path d="M135.46,1013.6L1895,1013.6" style="fill:none;stroke:#808080;stroke-width:0.25" />
<path d="M135.46,93.004L330.97,354.25L526.47,517.34L721.97,633.95L917.48,720.03L1113,791.69L1308.5,852.12L1504,908.08L1699.5,957.92L1895,997.88" style="fill:none;stroke:#FF0000;stroke-width:4" />
<path d="M140.46,93.004A5,5 0 1 1 130.46,93.004A5,5 0 1 1 140.46,93.004Z" style="fill:#FF0000" />
<path d="M335.97,354.25A5,5 0 1 1 325.97,354.25A5,5 0 1 1 335.97,354.25Z" style="fill:#FF0000" />
<path d="M531.47,517.34A5,5 0 1 1 521.47,517.34A5,5 0 1 1 531.47,517.34Z" style="fill:#FF0000" />
<path d="M726.97,633.95A5,5 0 1 1 716.97,633.95A5,5 0 1 1 726.97,633.95Z" style="fill:#FF0000" />
<path d="M922.48,720.03A5,5 0 1 1 912.48,720.03A5,5 0 1 1 922.48,720.03Z" style="fill:#FF0000" />
<path d="M1118,791.69A5,5 0 1 1 1108,791.69A5,5 0 1 1 1118,791.69Z" style="fill:#FF0000" />
<path d="M1313.5,852.12A5,5 0 1 1 1303.5,852.12A5,5 0 1 1 1313.5,852.12Z" style="fill:#FF0000" />
<path d="M1509,908.08A5,5 0 1 1 1499,908.08A5,5 0 1 1 1509,908.08Z" style="fill:#FF0000" />
<path d="M1704.5,957.92A5,5 0 1 1 1694.5,957.92A5,5 0 1 1 1704.5,957.92Z" style="fill:#FF0000" />
<path d="M1900,997.88A5,5 0 1 1 1890,997.88A5,5 0 1 1 1900,997.88Z" style="fill:#FF0000" />
<path d="M135.46,81.169L330.97,333.04L526.47,495.53L721.97,611.59L917.48,719.38L1113,774.11L1308.5,839.95L1504,902.23L1699.5,943.05L1895,991.22" style="fill:none;stroke:#0000FF;stroke-width:4" />
<path d="M140.46,81.169A5,5 0 1 1 130.46,81.169A5,5 0 1 1 140.46,81.169Z" style="fill:#0000FF" />
<path d="M335.97,333.04A5,5 0 1 1 325.97,333.04A5,5 0 1 1 335.97,333.04Z" style="fill:#0000FF" />
<path d="M531.47,495.53A5,5 0 1 1 521.47,495.53A5,5 0 1 1 531.47,495.53Z" style="fill:#0000FF" />
<path d="M726.97,611.59A5,5 0 1 1 716.97,611.59A5,5 0 1 1 726.97,611.59Z" style="fill:#0000FF" />
<path d="M922.48,719.38A5,5 0 1 1 912.48,719.38A5,5 0 1 1 922.48,719.38Z" style="fill:#0000FF" />
<path d="M1118,774.11A5,5 0 1 1 1108,774.11A5,5 0 1 1 1118,774.11Z" style="fill:#0000FF" />
<path d="M1313.5,839.95A5,5 0 1 1 1303.5,839.95A5,5 0 1 1 1313.5,839.95Z" style="fill:#0000FF" />
<path d="M1509,902.23A5,5 0 1 1 1499,902.23A5,5 0 1 1 1509,902.23Z" style="fill:#0000FF" />
<path d="M1704.5,943.05A5,5 0 1 1 1694.5,943.05A5,5 0 1 1 1704.5,943.05Z" style="fill:#0000FF" />
<path d="M1900,991.22A5,5 0 1 1 1890,991.22A5,5 0 1 1 1900,991.22Z" style="fill:#0000FF" />
<path d="M135.46,80.11L330.97,323.51L526.47,486.36L721.97,595.95L917.48,675.11L1113,756.89L1308.5,814.98L1504,868.34L1699.5,912.93L1895,954.51" style="fill:none;stroke:#00FF00;stroke-width:4" />
<path d="M140.46,80.11A5,5 0 1 1 130.46,80.11A5,5 0 1 1 140.46,80.11Z" style="fill:#00FF00" />
<path d="M335.97,323.51A5,5 0 1 1 325.97,323.51A5,5 0 1 1 335.97,323.51Z" style="fill:#00FF00" />
<path d="M531.47,486.36A5,5 0 1 1 521.47,486.36A5,5 0 1 1 531.47,486.36Z" style="fill:#00FF00" />
<path d="M726.97,595.95A5,5 0 1 1 716.97,595.95A5,5 0 1 1 726.97,595.95Z" style="fill:#00FF00" />
<path d="M922.48,675.11A5,5 0 1 1 912.48,675.11A5,5 0 1 1 922.48,675.11Z" style="fill:#00FF00" />
<path d="M1118,756.89A5,5 0 1 1 1108,756.89A5,5 0 1 1 1118,756.89Z" style="fill:#00FF00" />
<path d="M1313.5,814.98A5,5 0 1 1 1303.5,814.98A5,5 0 1 1 1313.5,814.98Z" style="fill:#00FF00" />
<path d="M1509,868.34A5,5 0 1 1 1499,868.34A5,5 0 1 1 1509,868.34Z" style="fill:#00FF00" />
<path d="M1704.5,912.93A5,5 0 1 1 1694.5,912.93A5,5 0 1 1 1704.5,912.93Z" style="fill:#00FF00" />
<path d="M1900,954.51A5,5 0 1 1 1890,954.51A5,5 0 1 1 1900,954.51Z" style="fill:#00FF00" />
<path d="M1900,126.03L1920,126.03" style="fill:none;stroke:#FF0000;stroke-width:4" />
<path d="M1915,126.03A5,5 0 1 1 1905,126.03A5,5 0 1 1 1915,126.03Z" style="fill:#FF0000" />
<text x="1823.3" y="-121.05" transform="scale(1, -1)"
	style="font-family:Liberation Serif;font-variant:normal;font-weight:normal;font-style:normal;font-size:24px">std::list</text>
<path d="M1900,105.66L1920,105.66" style="fill:none;stroke:#0000FF;stroke-width:4" />
<path d="M1915,105.66A5,5 0 1 1 1905,105.66A5,5 0 1 1 1915,105.66Z" style="fill:#0000FF" />
<text x="1795.4" y="-100.69" transform="scale(1, -1)"
	style="font-family:Liberation Serif;font-variant:normal;font-weight:normal;font-style:normal;font-size:24px">std::deque</text>
<path d="M1900,85.294L1920,85.294" style="fill:none;stroke:#00FF00;stroke-width:4" />
<path d="M1915,85.294A5,5 0 1 1 1905,85.294A5,5 0 1 1 1915,85.294Z" style="fill:#00FF00" />
<text x="1792.7" y="-80.319" transform="scale(1, -1)"
	style="font-family:Liberation Serif;font-variant:normal;font-weight:normal;font-style:normal;font-size:24px">std::vector</text>
</g>
</svg>
