<?xml version="1.0"?>
<!-- Generated by SVGo and Plotinum VG -->
<svg width="1920pt" height="1080pt" viewBox="0 0 1920 1080"
	xmlns="http://www.w3.org/2000/svg"
	xmlns:xlink="http://www.w3.org/1999/xlink">
<g transform="scale(1, -1) translate(0, -1080)">
<path d="M0,0L1920,0L1920,1080L0,1080Z" style="fill:#FFFFFF" />
<text x="831.42" y="-1040.9" transform="scale(1, -1)"
	style="font-family:Liberation Serif;font-variant:normal;font-weight:normal;font-style:normal;font-size:50px">linear-search</text>
<text x="892.77" y="-9.7559" transform="scale(1, -1)"
	style="font-family:Liberation Serif;font-variant:normal;font-weight:normal;font-style:normal;font-size:30px">Number of elements</text>
<text x="115.46" y="-39.727" transform="scale(1, -1)"
	style="font-family:Liberation Serif;font-variant:normal;font-weight:normal;font-style:normal;font-size:20px">1000</text>
<text x="310.97" y="-39.727" transform="scale(1, -1)"
	style="font-family:Liberation Serif;font-variant:normal;font-weight:normal;font-style:normal;font-size:20px">2000</text>
<text x="506.47" y="-39.727" transform="scale(1, -1)"
	style="font-family:Liberation Serif;font-variant:normal;font-weight:normal;font-style:normal;font-size:20px">3000</text>
<text x="701.97" y="-39.727" transform="scale(1, -1)"
	style="font-family:Liberation Serif;font-variant:normal;font-weight:normal;font-style:normal;font-size:20px">4000</text>
<text x="897.48" y="-39.727" transform="scale(1, -1)"
	style="font-family:Liberation Serif;font-variant:normal;font-weight:normal;font-style:normal;font-size:20px">5000</text>
<text x="1093" y="-39.727" transform="scale(1, -1)"
	style="font-family:Liberation Serif;font-variant:normal;font-weight:normal;font-style:normal;font-size:20px">6000</text>
<text x="1288.5" y="-39.727" transform="scale(1, -1)"
	style="font-family:Liberation Serif;font-variant:normal;font-weight:normal;font-style:normal;font-size:20px">7000</text>
<text x="1484" y="-39.727" transform="scale(1, -1)"
	style="font-family:Liberation Serif;font-variant:normal;font-weight:normal;font-style:normal;font-size:20px">8000</text>
<text x="1679.5" y="-39.727" transform="scale(1, -1)"
	style="font-family:Liberation Serif;font-variant:normal;font-weight:normal;font-style:normal;font-size:20px">9000</text>
<text x="1870" y="-39.727" transform="scale(1, -1)"
	style="font-family:Liberation Serif;font-variant:normal;font-weight:normal;font-style:normal;font-size:20px">10000</text>
<path d="M135.46,55.371L135.46,63.371" style="fill:none;stroke:#000000;stroke-width:0.5" />
<path d="M330.97,55.371L330.97,63.371" style="fill:none;stroke:#000000;stroke-width:0.5" />
<path d="M526.47,55.371L526.47,63.371" style="fill:none;stroke:#000000;stroke-width:0.5" />
<path d="M721.97,55.371L721.97,63.371" style="fill:none;stroke:#000000;stroke-width:0.5" />
<path d="M917.48,55.371L917.48,63.371" style="fill:none;stroke:#000000;stroke-width:0.5" />
<path d="M1113,55.371L1113,63.371" style="fill:none;stroke:#000000;stroke-width:0.5" />
<path d="M1308.5,55.371L1308.5,63.371" style="fill:none;stroke:#000000;stroke-width:0.5" />
<path d="M1504,55.371L1504,63.371" style="fill:none;stroke:#000000;stroke-width:0.5" />
<path d="M1699.5,55.371L1699.5,63.371" style="fill:none;stroke:#000000;stroke-width:0.5" />
<path d="M1895,55.371L1895,63.371" style="fill:none;stroke:#000000;stroke-width:0.5" />
<path d="M135.46,63.371L1895,63.371" style="fill:none;stroke:#000000;stroke-width:0.5" />
<g transform="rotate(90)">
<text x="538.49" y="23.467" transform="scale(1, -1)"
	style="font-family:Liberation Serif;font-variant:normal;font-weight:normal;font-style:normal;font-size:30px">μs</text>
</g>
<text x="49.712" y="-197.12" transform="scale(1, -1)"
	style="font-family:Liberation Serif;font-variant:normal;font-weight:normal;font-style:normal;font-size:20px">200000</text>
<text x="49.712" y="-585.34" transform="scale(1, -1)"
	style="font-family:Liberation Serif;font-variant:normal;font-weight:normal;font-style:normal;font-size:20px">800000</text>
<text x="39.712" y="-973.56" transform="scale(1, -1)"
	style="font-family:Liberation Serif;font-variant:normal;font-weight:normal;font-style:normal;font-size:20px">1400000</text>
<path d="M114.71,201.69L122.71,201.69" style="fill:none;stroke:#000000;stroke-width:0.5" />
<path d="M114.71,589.91L122.71,589.91" style="fill:none;stroke:#000000;stroke-width:0.5" />
<path d="M114.71,978.13L122.71,978.13" style="fill:none;stroke:#000000;stroke-width:0.5" />
<path d="M118.71,395.8L122.71,395.8" style="fill:none;stroke:#000000;stroke-width:0.5" />
<path d="M118.71,784.02L122.71,784.02" style="fill:none;stroke:#000000;stroke-width:0.5" />
<path d="M122.71,80.11L122.71,1024.6" style="fill:none;stroke:#000000;stroke-width:0.5" />
<path d="M135.46,80.11L135.46,1024.6" style="fill:none;stroke:#808080;stroke-width:0.25" />
<path d="M330.97,80.11L330.97,1024.6" style="fill:none;stroke:#808080;stroke-width:0.25" />
<path d="M526.47,80.11L526.47,1024.6" style="fill:none;stroke:#808080;stroke-width:0.25" />
<path d="M721.97,80.11L721.97,1024.6" style="fill:none;stroke:#808080;stroke-width:0.25" />
<path d="M917.48,80.11L917.48,1024.6" style="fill:none;stroke:#808080;stroke-width:0.25" />
<path d="M1113,80.11L1113,1024.6" style="fill:none;stroke:#808080;stroke-width:0.25" />
<path d="M1308.5,80.11L1308.5,1024.6" style="fill:none;stroke:#808080;stroke-width:0.25" />
<path d="M1504,80.11L1504,1024.6" style="fill:none;stroke:#808080;stroke-width:0.25" />
<path d="M1699.5,80.11L1699.5,1024.6" style="fill:none;stroke:#808080;stroke-width:0.25" />
<path d="M1895,80.11L1895,1024.6" style="fill:none;stroke:#808080;stroke-width:0.25" />
<path d="M135.46,201.69L1895,201.69" style="fill:none;stroke:#808080;stroke-width:0.25" />
<path d="M135.46,589.91L1895,589.91" style="fill:none;stroke:#808080;stroke-width:0.25" />
<path d="M135.46,978.13L1895,978.13" style="fill:none;stroke:#808080;stroke-width:0.25" />
<path d="M135.46,80.11L330.97,102L526.47,138.39L721.97,185.33L917.48,254.88L1113,332.42L1308.5,428.91L1504,535.02L1699.5,654.93L1895,788.41" style="fill:none;stroke:#FF0000;stroke-width:4" />
<path d="M140.46,80.11A5,5 0 1 1 130.46,80.11A5,5 0 1 1 140.46,80.11Z" style="fill:#FF0000" />
<path d="M335.97,102A5,5 0 1 1 325.97,102A5,5 0 1 1 335.97,102Z" style="fill:#FF0000" />
<path d="M531.47,138.39A5,5 0 1 1 521.47,138.39A5,5 0 1 1 531.47,138.39Z" style="fill:#FF0000" />
<path d="M726.97,185.33A5,5 0 1 1 716.97,185.33A5,5 0 1 1 726.97,185.33Z" style="fill:#FF0000" />
<path d="M922.48,254.88A5,5 0 1 1 912.48,254.88A5,5 0 1 1 922.48,254.88Z" style="fill:#FF0000" />
<path d="M1118,332.42A5,5 0 1 1 1108,332.42A5,5 0 1 1 1118,332.42Z" style="fill:#FF0000" />
<path d="M1313.5,428.91A5,5 0 1 1 1303.5,428.91A5,5 0 1 1 1313.5,428.91Z" style="fill:#FF0000" />
<path d="M1509,535.02A5,5 0 1 1 1499,535.02A5,5 0 1 1 1509,535.02Z" style="fill:#FF0000" />
<path d="M1704.5,654.93A5,5 0 1 1 1694.5,654.93A5,5 0 1 1 1704.5,654.93Z" style="fill:#FF0000" />
<path d="M1900,788.41A5,5 0 1 1 1890,788.41A5,5 0 1 1 1900,788.41Z" style="fill:#FF0000" />
<path d="M135.46,81.89L330.97,107.15L526.47,154.37L721.97,212.01L917.48,289.45L1113,379.04L1308.5,491.59L1504,617.63L1699.5,769.22L1895,938.05" style="fill:none;stroke:#0000FF;stroke-width:4" />
<path d="M140.46,81.89A5,5 0 1 1 130.46,81.89A5,5 0 1 1 140.46,81.89Z" style="fill:#0000FF" />
<path d="M335.97,107.15A5,5 0 1 1 325.97,107.15A5,5 0 1 1 335.97,107.15Z" style="fill:#0000FF" />
<path d="M531.47,154.37A5,5 0 1 1 521.47,154.37A5,5 0 1 1 531.47,154.37Z" style="fill:#0000FF" />
<path d="M726.97,212.01A5,5 0 1 1 716.97,212.01A5,5 0 1 1 726.97,212.01Z" style="fill:#0000FF" />
<path d="M922.48,289.45A5,5 0 1 1 912.48,289.45A5,5 0 1 1 922.48,289.45Z" style="fill:#0000FF" />
<path d="M1118,379.04A5,5 0 1 1 1108,379.04A5,5 0 1 1 1118,379.04Z" style="fill:#0000FF" />
<path d="M1313.5,491.59A5,5 0 1 1 1303.5,491.59A5,5 0 1 1 1313.5,491.59Z" style="fill:#0000FF" />
<path d="M1509,617.63A5,5 0 1 1 1499,617.63A5,5 0 1 1 1509,617.63Z" style="fill:#0000FF" />
<path d="M1704.5,769.22A5,5 0 1 1 1694.5,769.22A5,5 0 1 1 1704.5,769.22Z" style="fill:#0000FF" />
<path d="M1900,938.05A5,5 0 1 1 1890,938.05A5,5 0 1 1 1900,938.05Z" style="fill:#0000FF" />
<path d="M135.46,80.315L330.97,102.93L526.47,140.26L721.97,204.87L917.48,265.98L1113,355.82L1308.5,453.49L1504,569.09L1699.5,714.21L1895,873.15" style="fill:none;stroke:#00FF00;stroke-width:4" />
<path d="M140.46,80.315A5,5 0 1 1 130.46,80.315A5,5 0 1 1 140.46,80.315Z" style="fill:#00FF00" />
<path d="M335.97,102.93A5,5 0 1 1 325.97,102.93A5,5 0 1 1 335.97,102.93Z" style="fill:#00FF00" />
<path d="M531.47,140.26A5,5 0 1 1 521.47,140.26A5,5 0 1 1 531.47,140.26Z" style="fill:#00FF00" />
<path d="M726.97,204.87A5,5 0 1 1 716.97,204.87A5,5 0 1 1 726.97,204.87Z" style="fill:#00FF00" />
<path d="M922.48,265.98A5,5 0 1 1 912.48,265.98A5,5 0 1 1 922.48,265.98Z" style="fill:#00FF00" />
<path d="M1118,355.82A5,5 0 1 1 1108,355.82A5,5 0 1 1 1118,355.82Z" style="fill:#00FF00" />
<path d="M1313.5,453.49A5,5 0 1 1 1303.5,453.49A5,5 0 1 1 1313.5,453.49Z" style="fill:#00FF00" />
<path d="M1509,569.09A5,5 0 1 1 1499,569.09A5,5 0 1 1 1509,569.09Z" style="fill:#00FF00" />
<path d="M1704.5,714.21A5,5 0 1 1 1694.5,714.21A5,5 0 1 1 1704.5,714.21Z" style="fill:#00FF00" />
<path d="M1900,873.15A5,5 0 1 1 1890,873.15A5,5 0 1 1 1900,873.15Z" style="fill:#00FF00" />
<path d="M1900,126.03L1920,126.03" style="fill:none;stroke:#FF0000;stroke-width:4" />
<path d="M1915,126.03A5,5 0 1 1 1905,126.03A5,5 0 1 1 1915,126.03Z" style="fill:#FF0000" />
<text x="1792.7" y="-121.05" transform="scale(1, -1)"
	style="font-family:Liberation Serif;font-variant:normal;font-weight:normal;font-style:normal;font-size:24px">std::vector</text>
<path d="M1900,105.66L1920,105.66" style="fill:none;stroke:#0000FF;stroke-width:4" />
<path d="M1915,105.66A5,5 0 1 1 1905,105.66A5,5 0 1 1 1915,105.66Z" style="fill:#0000FF" />
<text x="1823.3" y="-100.69" transform="scale(1, -1)"
	style="font-family:Liberation Serif;font-variant:normal;font-weight:normal;font-style:normal;font-size:24px">std::list</text>
<path d="M1900,85.294L1920,85.294" style="fill:none;stroke:#00FF00;stroke-width:4" />
<path d="M1915,85.294A5,5 0 1 1 1905,85.294A5,5 0 1 1 1915,85.294Z" style="fill:#00FF00" />
<text x="1795.4" y="-80.319" transform="scale(1, -1)"
	style="font-family:Liberation Serif;font-variant:normal;font-weight:normal;font-style:normal;font-size:24px">std::deque</text>
</g>
</svg>
