<?xml version="1.0"?>
<!-- Generated by SVGo and Plotinum VG -->
<svg width="1920pt" height="1080pt" viewBox="0 0 1920 1080"
	xmlns="http://www.w3.org/2000/svg"
	xmlns:xlink="http://www.w3.org/1999/xlink">
<g transform="scale(1, -1) translate(0, -1080)">
<path d="M0,0L1920,0L1920,1080L0,1080Z" style="fill:#FFFFFF" />
<text x="831.42" y="-1040.9" transform="scale(1, -1)"
	style="font-family:Liberation Serif;font-variant:normal;font-weight:normal;font-style:normal;font-size:50px">linear-search</text>
<text x="897.77" y="-9.7559" transform="scale(1, -1)"
	style="font-family:Liberation Serif;font-variant:normal;font-weight:normal;font-style:normal;font-size:30px">Number of elements</text>
<text x="125.46" y="-39.727" transform="scale(1, -1)"
	style="font-family:Liberation Serif;font-variant:normal;font-weight:normal;font-style:normal;font-size:20px">1000</text>
<text x="319.86" y="-39.727" transform="scale(1, -1)"
	style="font-family:Liberation Serif;font-variant:normal;font-weight:normal;font-style:normal;font-size:20px">2000</text>
<text x="514.25" y="-39.727" transform="scale(1, -1)"
	style="font-family:Liberation Serif;font-variant:normal;font-weight:normal;font-style:normal;font-size:20px">3000</text>
<text x="708.64" y="-39.727" transform="scale(1, -1)"
	style="font-family:Liberation Serif;font-variant:normal;font-weight:normal;font-style:normal;font-size:20px">4000</text>
<text x="903.03" y="-39.727" transform="scale(1, -1)"
	style="font-family:Liberation Serif;font-variant:normal;font-weight:normal;font-style:normal;font-size:20px">5000</text>
<text x="1097.4" y="-39.727" transform="scale(1, -1)"
	style="font-family:Liberation Serif;font-variant:normal;font-weight:normal;font-style:normal;font-size:20px">6000</text>
<text x="1291.8" y="-39.727" transform="scale(1, -1)"
	style="font-family:Liberation Serif;font-variant:normal;font-weight:normal;font-style:normal;font-size:20px">7000</text>
<text x="1486.2" y="-39.727" transform="scale(1, -1)"
	style="font-family:Liberation Serif;font-variant:normal;font-weight:normal;font-style:normal;font-size:20px">8000</text>
<text x="1680.6" y="-39.727" transform="scale(1, -1)"
	style="font-family:Liberation Serif;font-variant:normal;font-weight:normal;font-style:normal;font-size:20px">9000</text>
<text x="1870" y="-39.727" transform="scale(1, -1)"
	style="font-family:Liberation Serif;font-variant:normal;font-weight:normal;font-style:normal;font-size:20px">10000</text>
<path d="M145.46,55.371L145.46,63.371" style="fill:none;stroke:#000000;stroke-width:0.5" />
<path d="M339.86,55.371L339.86,63.371" style="fill:none;stroke:#000000;stroke-width:0.5" />
<path d="M534.25,55.371L534.25,63.371" style="fill:none;stroke:#000000;stroke-width:0.5" />
<path d="M728.64,55.371L728.64,63.371" style="fill:none;stroke:#000000;stroke-width:0.5" />
<path d="M923.03,55.371L923.03,63.371" style="fill:none;stroke:#000000;stroke-width:0.5" />
<path d="M1117.4,55.371L1117.4,63.371" style="fill:none;stroke:#000000;stroke-width:0.5" />
<path d="M1311.8,55.371L1311.8,63.371" style="fill:none;stroke:#000000;stroke-width:0.5" />
<path d="M1506.2,55.371L1506.2,63.371" style="fill:none;stroke:#000000;stroke-width:0.5" />
<path d="M1700.6,55.371L1700.6,63.371" style="fill:none;stroke:#000000;stroke-width:0.5" />
<path d="M1895,55.371L1895,63.371" style="fill:none;stroke:#000000;stroke-width:0.5" />
<path d="M145.46,63.371L1895,63.371" style="fill:none;stroke:#000000;stroke-width:0.5" />
<g transform="rotate(90)">
<text x="538.49" y="23.467" transform="scale(1, -1)"
	style="font-family:Liberation Serif;font-variant:normal;font-weight:normal;font-style:normal;font-size:30px">μs</text>
</g>
<text x="49.712" y="-194.12" transform="scale(1, -1)"
	style="font-family:Liberation Serif;font-variant:normal;font-weight:normal;font-style:normal;font-size:20px">2000000</text>
<text x="49.712" y="-559.8" transform="scale(1, -1)"
	style="font-family:Liberation Serif;font-variant:normal;font-weight:normal;font-style:normal;font-size:20px">8000000</text>
<text x="39.712" y="-925.47" transform="scale(1, -1)"
	style="font-family:Liberation Serif;font-variant:normal;font-weight:normal;font-style:normal;font-size:20px">14000000</text>
<path d="M124.71,198.69L132.71,198.69" style="fill:none;stroke:#000000;stroke-width:0.5" />
<path d="M124.71,564.37L132.71,564.37" style="fill:none;stroke:#000000;stroke-width:0.5" />
<path d="M124.71,930.04L132.71,930.04" style="fill:none;stroke:#000000;stroke-width:0.5" />
<path d="M128.71,381.53L132.71,381.53" style="fill:none;stroke:#000000;stroke-width:0.5" />
<path d="M128.71,747.2L132.71,747.2" style="fill:none;stroke:#000000;stroke-width:0.5" />
<path d="M132.71,80.11L132.71,1024.6" style="fill:none;stroke:#000000;stroke-width:0.5" />
<path d="M145.46,80.11L145.46,1024.6" style="fill:none;stroke:#808080;stroke-width:0.25" />
<path d="M339.86,80.11L339.86,1024.6" style="fill:none;stroke:#808080;stroke-width:0.25" />
<path d="M534.25,80.11L534.25,1024.6" style="fill:none;stroke:#808080;stroke-width:0.25" />
<path d="M728.64,80.11L728.64,1024.6" style="fill:none;stroke:#808080;stroke-width:0.25" />
<path d="M923.03,80.11L923.03,1024.6" style="fill:none;stroke:#808080;stroke-width:0.25" />
<path d="M1117.4,80.11L1117.4,1024.6" style="fill:none;stroke:#808080;stroke-width:0.25" />
<path d="M1311.8,80.11L1311.8,1024.6" style="fill:none;stroke:#808080;stroke-width:0.25" />
<path d="M1506.2,80.11L1506.2,1024.6" style="fill:none;stroke:#808080;stroke-width:0.25" />
<path d="M1700.6,80.11L1700.6,1024.6" style="fill:none;stroke:#808080;stroke-width:0.25" />
<path d="M1895,80.11L1895,1024.6" style="fill:none;stroke:#808080;stroke-width:0.25" />
<path d="M145.46,198.69L1895,198.69" style="fill:none;stroke:#808080;stroke-width:0.25" />
<path d="M145.46,564.37L1895,564.37" style="fill:none;stroke:#808080;stroke-width:0.25" />
<path d="M145.46,930.04L1895,930.04" style="fill:none;stroke:#808080;stroke-width:0.25" />
<path d="M145.46,81.143L339.86,98.021L534.25,118.18L728.64,173.66L923.03,233.93L1117.4,333.38L1311.8,436.4L1506.2,597.65L1700.6,727.96L1895,938.46" style="fill:none;stroke:#FF0000;stroke-width:4" />
<path d="M150.46,81.143A5,5 0 1 1 140.46,81.143A5,5 0 1 1 150.46,81.143Z" style="fill:#FF0000" />
<path d="M344.86,98.021A5,5 0 1 1 334.86,98.021A5,5 0 1 1 344.86,98.021Z" style="fill:#FF0000" />
<path d="M539.25,118.18A5,5 0 1 1 529.25,118.18A5,5 0 1 1 539.25,118.18Z" style="fill:#FF0000" />
<path d="M733.64,173.66A5,5 0 1 1 723.64,173.66A5,5 0 1 1 733.64,173.66Z" style="fill:#FF0000" />
<path d="M928.03,233.93A5,5 0 1 1 918.03,233.93A5,5 0 1 1 928.03,233.93Z" style="fill:#FF0000" />
<path d="M1122.4,333.38A5,5 0 1 1 1112.4,333.38A5,5 0 1 1 1122.4,333.38Z" style="fill:#FF0000" />
<path d="M1316.8,436.4A5,5 0 1 1 1306.8,436.4A5,5 0 1 1 1316.8,436.4Z" style="fill:#FF0000" />
<path d="M1511.2,597.65A5,5 0 1 1 1501.2,597.65A5,5 0 1 1 1511.2,597.65Z" style="fill:#FF0000" />
<path d="M1705.6,727.96A5,5 0 1 1 1695.6,727.96A5,5 0 1 1 1705.6,727.96Z" style="fill:#FF0000" />
<path d="M1900,938.46A5,5 0 1 1 1890,938.46A5,5 0 1 1 1900,938.46Z" style="fill:#FF0000" />
<path d="M145.46,80.908L339.86,93.428L534.25,115.07L728.64,153.74L923.03,223.13L1117.4,312.17L1311.8,414.12L1506.2,565.8L1700.6,784.26L1895,936.76" style="fill:none;stroke:#0000FF;stroke-width:4" />
<path d="M150.46,80.908A5,5 0 1 1 140.46,80.908A5,5 0 1 1 150.46,80.908Z" style="fill:#0000FF" />
<path d="M344.86,93.428A5,5 0 1 1 334.86,93.428A5,5 0 1 1 344.86,93.428Z" style="fill:#0000FF" />
<path d="M539.25,115.07A5,5 0 1 1 529.25,115.07A5,5 0 1 1 539.25,115.07Z" style="fill:#0000FF" />
<path d="M733.64,153.74A5,5 0 1 1 723.64,153.74A5,5 0 1 1 733.64,153.74Z" style="fill:#0000FF" />
<path d="M928.03,223.13A5,5 0 1 1 918.03,223.13A5,5 0 1 1 928.03,223.13Z" style="fill:#0000FF" />
<path d="M1122.4,312.17A5,5 0 1 1 1112.4,312.17A5,5 0 1 1 1122.4,312.17Z" style="fill:#0000FF" />
<path d="M1316.8,414.12A5,5 0 1 1 1306.8,414.12A5,5 0 1 1 1316.8,414.12Z" style="fill:#0000FF" />
<path d="M1511.2,565.8A5,5 0 1 1 1501.2,565.8A5,5 0 1 1 1511.2,565.8Z" style="fill:#0000FF" />
<path d="M1705.6,784.26A5,5 0 1 1 1695.6,784.26A5,5 0 1 1 1705.6,784.26Z" style="fill:#0000FF" />
<path d="M1900,936.76A5,5 0 1 1 1890,936.76A5,5 0 1 1 1900,936.76Z" style="fill:#0000FF" />
<path d="M145.46,80.11L339.86,92.621L534.25,123.3L728.64,166.39L923.03,234.09L1117.4,260.78L1311.8,373.3L1506.2,498.89L1700.6,667.79L1895,839.88" style="fill:none;stroke:#00FF00;stroke-width:4" />
<path d="M150.46,80.11A5,5 0 1 1 140.46,80.11A5,5 0 1 1 150.46,80.11Z" style="fill:#00FF00" />
<path d="M344.86,92.621A5,5 0 1 1 334.86,92.621A5,5 0 1 1 344.86,92.621Z" style="fill:#00FF00" />
<path d="M539.25,123.3A5,5 0 1 1 529.25,123.3A5,5 0 1 1 539.25,123.3Z" style="fill:#00FF00" />
<path d="M733.64,166.39A5,5 0 1 1 723.64,166.39A5,5 0 1 1 733.64,166.39Z" style="fill:#00FF00" />
<path d="M928.03,234.09A5,5 0 1 1 918.03,234.09A5,5 0 1 1 928.03,234.09Z" style="fill:#00FF00" />
<path d="M1122.4,260.78A5,5 0 1 1 1112.4,260.78A5,5 0 1 1 1122.4,260.78Z" style="fill:#00FF00" />
<path d="M1316.8,373.3A5,5 0 1 1 1306.8,373.3A5,5 0 1 1 1316.8,373.3Z" style="fill:#00FF00" />
<path d="M1511.2,498.89A5,5 0 1 1 1501.2,498.89A5,5 0 1 1 1511.2,498.89Z" style="fill:#00FF00" />
<path d="M1705.6,667.79A5,5 0 1 1 1695.6,667.79A5,5 0 1 1 1705.6,667.79Z" style="fill:#00FF00" />
<path d="M1900,839.88A5,5 0 1 1 1890,839.88A5,5 0 1 1 1900,839.88Z" style="fill:#00FF00" />
<path d="M1900,126.03L1920,126.03" style="fill:none;stroke:#FF0000;stroke-width:4" />
<path d="M1915,126.03A5,5 0 1 1 1905,126.03A5,5 0 1 1 1915,126.03Z" style="fill:#FF0000" />
<text x="1823.3" y="-121.05" transform="scale(1, -1)"
	style="font-family:Liberation Serif;font-variant:normal;font-weight:normal;font-style:normal;font-size:24px">std::list</text>
<path d="M1900,105.66L1920,105.66" style="fill:none;stroke:#0000FF;stroke-width:4" />
<path d="M1915,105.66A5,5 0 1 1 1905,105.66A5,5 0 1 1 1915,105.66Z" style="fill:#0000FF" />
<text x="1795.4" y="-100.69" transform="scale(1, -1)"
	style="font-family:Liberation Serif;font-variant:normal;font-weight:normal;font-style:normal;font-size:24px">std::deque</text>
<path d="M1900,85.294L1920,85.294" style="fill:none;stroke:#00FF00;stroke-width:4" />
<path d="M1915,85.294A5,5 0 1 1 1905,85.294A5,5 0 1 1 1915,85.294Z" style="fill:#00FF00" />
<text x="1792.7" y="-80.319" transform="scale(1, -1)"
	style="font-family:Liberation Serif;font-variant:normal;font-weight:normal;font-style:normal;font-size:24px">std::vector</text>
</g>
</svg>
