<?xml version="1.0"?>
<!-- Generated by SVGo and Plotinum VG -->
<svg width="1920pt" height="1080pt" viewBox="0 0 1920 1080"
	xmlns="http://www.w3.org/2000/svg"
	xmlns:xlink="http://www.w3.org/1999/xlink">
<g transform="scale(1, -1) translate(0, -1080)">
<path d="M0,0L1920,0L1920,1080L0,1080Z" style="fill:#FFFFFF" />
<text x="831.42" y="-1040.9" transform="scale(1, -1)"
	style="font-family:Liberation Serif;font-variant:normal;font-weight:normal;font-style:normal;font-size:50px">linear-search</text>
<text x="892.77" y="-9.7559" transform="scale(1, -1)"
	style="font-family:Liberation Serif;font-variant:normal;font-weight:normal;font-style:normal;font-size:30px">Number of elements</text>
<text x="115.46" y="-39.727" transform="scale(1, -1)"
	style="font-family:Liberation Serif;font-variant:normal;font-weight:normal;font-style:normal;font-size:20px">1000</text>
<text x="310.97" y="-39.727" transform="scale(1, -1)"
	style="font-family:Liberation Serif;font-variant:normal;font-weight:normal;font-style:normal;font-size:20px">2000</text>
<text x="506.47" y="-39.727" transform="scale(1, -1)"
	style="font-family:Liberation Serif;font-variant:normal;font-weight:normal;font-style:normal;font-size:20px">3000</text>
<text x="701.97" y="-39.727" transform="scale(1, -1)"
	style="font-family:Liberation Serif;font-variant:normal;font-weight:normal;font-style:normal;font-size:20px">4000</text>
<text x="897.48" y="-39.727" transform="scale(1, -1)"
	style="font-family:Liberation Serif;font-variant:normal;font-weight:normal;font-style:normal;font-size:20px">5000</text>
<text x="1093" y="-39.727" transform="scale(1, -1)"
	style="font-family:Liberation Serif;font-variant:normal;font-weight:normal;font-style:normal;font-size:20px">6000</text>
<text x="1288.5" y="-39.727" transform="scale(1, -1)"
	style="font-family:Liberation Serif;font-variant:normal;font-weight:normal;font-style:normal;font-size:20px">7000</text>
<text x="1484" y="-39.727" transform="scale(1, -1)"
	style="font-family:Liberation Serif;font-variant:normal;font-weight:normal;font-style:normal;font-size:20px">8000</text>
<text x="1679.5" y="-39.727" transform="scale(1, -1)"
	style="font-family:Liberation Serif;font-variant:normal;font-weight:normal;font-style:normal;font-size:20px">9000</text>
<text x="1870" y="-39.727" transform="scale(1, -1)"
	style="font-family:Liberation Serif;font-variant:normal;font-weight:normal;font-style:normal;font-size:20px">10000</text>
<path d="M135.46,55.371L135.46,63.371" style="fill:none;stroke:#000000;stroke-width:0.5" />
<path d="M330.97,55.371L330.97,63.371" style="fill:none;stroke:#000000;stroke-width:0.5" />
<path d="M526.47,55.371L526.47,63.371" style="fill:none;stroke:#000000;stroke-width:0.5" />
<path d="M721.97,55.371L721.97,63.371" style="fill:none;stroke:#000000;stroke-width:0.5" />
<path d="M917.48,55.371L917.48,63.371" style="fill:none;stroke:#000000;stroke-width:0.5" />
<path d="M1113,55.371L1113,63.371" style="fill:none;stroke:#000000;stroke-width:0.5" />
<path d="M1308.5,55.371L1308.5,63.371" style="fill:none;stroke:#000000;stroke-width:0.5" />
<path d="M1504,55.371L1504,63.371" style="fill:none;stroke:#000000;stroke-width:0.5" />
<path d="M1699.5,55.371L1699.5,63.371" style="fill:none;stroke:#000000;stroke-width:0.5" />
<path d="M1895,55.371L1895,63.371" style="fill:none;stroke:#000000;stroke-width:0.5" />
<path d="M135.46,63.371L1895,63.371" style="fill:none;stroke:#000000;stroke-width:0.5" />
<g transform="rotate(90)">
<text x="538.49" y="23.467" transform="scale(1, -1)"
	style="font-family:Liberation Serif;font-variant:normal;font-weight:normal;font-style:normal;font-size:30px">μs</text>
</g>
<text x="49.712" y="-195.86" transform="scale(1, -1)"
	style="font-family:Liberation Serif;font-variant:normal;font-weight:normal;font-style:normal;font-size:20px">200000</text>
<text x="49.712" y="-579.19" transform="scale(1, -1)"
	style="font-family:Liberation Serif;font-variant:normal;font-weight:normal;font-style:normal;font-size:20px">800000</text>
<text x="39.712" y="-962.52" transform="scale(1, -1)"
	style="font-family:Liberation Serif;font-variant:normal;font-weight:normal;font-style:normal;font-size:20px">1400000</text>
<path d="M114.71,200.43L122.71,200.43" style="fill:none;stroke:#000000;stroke-width:0.5" />
<path d="M114.71,583.76L122.71,583.76" style="fill:none;stroke:#000000;stroke-width:0.5" />
<path d="M114.71,967.09L122.71,967.09" style="fill:none;stroke:#000000;stroke-width:0.5" />
<path d="M118.71,392.09L122.71,392.09" style="fill:none;stroke:#000000;stroke-width:0.5" />
<path d="M118.71,775.43L122.71,775.43" style="fill:none;stroke:#000000;stroke-width:0.5" />
<path d="M122.71,80.11L122.71,1024.6" style="fill:none;stroke:#000000;stroke-width:0.5" />
<path d="M135.46,80.11L135.46,1024.6" style="fill:none;stroke:#808080;stroke-width:0.25" />
<path d="M330.97,80.11L330.97,1024.6" style="fill:none;stroke:#808080;stroke-width:0.25" />
<path d="M526.47,80.11L526.47,1024.6" style="fill:none;stroke:#808080;stroke-width:0.25" />
<path d="M721.97,80.11L721.97,1024.6" style="fill:none;stroke:#808080;stroke-width:0.25" />
<path d="M917.48,80.11L917.48,1024.6" style="fill:none;stroke:#808080;stroke-width:0.25" />
<path d="M1113,80.11L1113,1024.6" style="fill:none;stroke:#808080;stroke-width:0.25" />
<path d="M1308.5,80.11L1308.5,1024.6" style="fill:none;stroke:#808080;stroke-width:0.25" />
<path d="M1504,80.11L1504,1024.6" style="fill:none;stroke:#808080;stroke-width:0.25" />
<path d="M1699.5,80.11L1699.5,1024.6" style="fill:none;stroke:#808080;stroke-width:0.25" />
<path d="M1895,80.11L1895,1024.6" style="fill:none;stroke:#808080;stroke-width:0.25" />
<path d="M135.46,200.43L1895,200.43" style="fill:none;stroke:#808080;stroke-width:0.25" />
<path d="M135.46,583.76L1895,583.76" style="fill:none;stroke:#808080;stroke-width:0.25" />
<path d="M135.46,967.09L1895,967.09" style="fill:none;stroke:#808080;stroke-width:0.25" />
<path d="M135.46,80.11L330.97,100.95L526.47,144.1L721.97,188.6L917.48,239.96L1113,351.49L1308.5,513.03L1504,522.01L1699.5,656.68L1895,765.93" style="fill:none;stroke:#FF0000;stroke-width:4" />
<path d="M140.46,80.11A5,5 0 1 1 130.46,80.11A5,5 0 1 1 140.46,80.11Z" style="fill:#FF0000" />
<path d="M335.97,100.95A5,5 0 1 1 325.97,100.95A5,5 0 1 1 335.97,100.95Z" style="fill:#FF0000" />
<path d="M531.47,144.1A5,5 0 1 1 521.47,144.1A5,5 0 1 1 531.47,144.1Z" style="fill:#FF0000" />
<path d="M726.97,188.6A5,5 0 1 1 716.97,188.6A5,5 0 1 1 726.97,188.6Z" style="fill:#FF0000" />
<path d="M922.48,239.96A5,5 0 1 1 912.48,239.96A5,5 0 1 1 922.48,239.96Z" style="fill:#FF0000" />
<path d="M1118,351.49A5,5 0 1 1 1108,351.49A5,5 0 1 1 1118,351.49Z" style="fill:#FF0000" />
<path d="M1313.5,513.03A5,5 0 1 1 1303.5,513.03A5,5 0 1 1 1313.5,513.03Z" style="fill:#FF0000" />
<path d="M1509,522.01A5,5 0 1 1 1499,522.01A5,5 0 1 1 1509,522.01Z" style="fill:#FF0000" />
<path d="M1704.5,656.68A5,5 0 1 1 1694.5,656.68A5,5 0 1 1 1704.5,656.68Z" style="fill:#FF0000" />
<path d="M1900,765.93A5,5 0 1 1 1890,765.93A5,5 0 1 1 1900,765.93Z" style="fill:#FF0000" />
<path d="M135.46,82.368L330.97,111.48L526.47,156.05L721.97,214.78L917.48,289.11L1113,445.81L1308.5,512.1L1504,653.85L1699.5,808.64L1895,938.09" style="fill:none;stroke:#0000FF;stroke-width:4" />
<path d="M140.46,82.368A5,5 0 1 1 130.46,82.368A5,5 0 1 1 140.46,82.368Z" style="fill:#0000FF" />
<path d="M335.97,111.48A5,5 0 1 1 325.97,111.48A5,5 0 1 1 335.97,111.48Z" style="fill:#0000FF" />
<path d="M531.47,156.05A5,5 0 1 1 521.47,156.05A5,5 0 1 1 531.47,156.05Z" style="fill:#0000FF" />
<path d="M726.97,214.78A5,5 0 1 1 716.97,214.78A5,5 0 1 1 726.97,214.78Z" style="fill:#0000FF" />
<path d="M922.48,289.11A5,5 0 1 1 912.48,289.11A5,5 0 1 1 922.48,289.11Z" style="fill:#0000FF" />
<path d="M1118,445.81A5,5 0 1 1 1108,445.81A5,5 0 1 1 1118,445.81Z" style="fill:#0000FF" />
<path d="M1313.5,512.1A5,5 0 1 1 1303.5,512.1A5,5 0 1 1 1313.5,512.1Z" style="fill:#0000FF" />
<path d="M1509,653.85A5,5 0 1 1 1499,653.85A5,5 0 1 1 1509,653.85Z" style="fill:#0000FF" />
<path d="M1704.5,808.64A5,5 0 1 1 1694.5,808.64A5,5 0 1 1 1704.5,808.64Z" style="fill:#0000FF" />
<path d="M1900,938.09A5,5 0 1 1 1890,938.09A5,5 0 1 1 1900,938.09Z" style="fill:#0000FF" />
<path d="M135.46,80.146L330.97,102.02L526.47,134.9L721.97,182.4L917.48,251.44L1113,338.89L1308.5,429.17L1504,547.27L1699.5,715.22L1895,809.75" style="fill:none;stroke:#00FF00;stroke-width:4" />
<path d="M140.46,80.146A5,5 0 1 1 130.46,80.146A5,5 0 1 1 140.46,80.146Z" style="fill:#00FF00" />
<path d="M335.97,102.02A5,5 0 1 1 325.97,102.02A5,5 0 1 1 335.97,102.02Z" style="fill:#00FF00" />
<path d="M531.47,134.9A5,5 0 1 1 521.47,134.9A5,5 0 1 1 531.47,134.9Z" style="fill:#00FF00" />
<path d="M726.97,182.4A5,5 0 1 1 716.97,182.4A5,5 0 1 1 726.97,182.4Z" style="fill:#00FF00" />
<path d="M922.48,251.44A5,5 0 1 1 912.48,251.44A5,5 0 1 1 922.48,251.44Z" style="fill:#00FF00" />
<path d="M1118,338.89A5,5 0 1 1 1108,338.89A5,5 0 1 1 1118,338.89Z" style="fill:#00FF00" />
<path d="M1313.5,429.17A5,5 0 1 1 1303.5,429.17A5,5 0 1 1 1313.5,429.17Z" style="fill:#00FF00" />
<path d="M1509,547.27A5,5 0 1 1 1499,547.27A5,5 0 1 1 1509,547.27Z" style="fill:#00FF00" />
<path d="M1704.5,715.22A5,5 0 1 1 1694.5,715.22A5,5 0 1 1 1704.5,715.22Z" style="fill:#00FF00" />
<path d="M1900,809.75A5,5 0 1 1 1890,809.75A5,5 0 1 1 1900,809.75Z" style="fill:#00FF00" />
<path d="M1900,126.03L1920,126.03" style="fill:none;stroke:#FF0000;stroke-width:4" />
<path d="M1915,126.03A5,5 0 1 1 1905,126.03A5,5 0 1 1 1915,126.03Z" style="fill:#FF0000" />
<text x="1792.7" y="-121.05" transform="scale(1, -1)"
	style="font-family:Liberation Serif;font-variant:normal;font-weight:normal;font-style:normal;font-size:24px">std::vector</text>
<path d="M1900,105.66L1920,105.66" style="fill:none;stroke:#0000FF;stroke-width:4" />
<path d="M1915,105.66A5,5 0 1 1 1905,105.66A5,5 0 1 1 1915,105.66Z" style="fill:#0000FF" />
<text x="1823.3" y="-100.69" transform="scale(1, -1)"
	style="font-family:Liberation Serif;font-variant:normal;font-weight:normal;font-style:normal;font-size:24px">std::list</text>
<path d="M1900,85.294L1920,85.294" style="fill:none;stroke:#00FF00;stroke-width:4" />
<path d="M1915,85.294A5,5 0 1 1 1905,85.294A5,5 0 1 1 1915,85.294Z" style="fill:#00FF00" />
<text x="1795.4" y="-80.319" transform="scale(1, -1)"
	style="font-family:Liberation Serif;font-variant:normal;font-weight:normal;font-style:normal;font-size:24px">std::deque</text>
</g>
</svg>
