<?xml version="1.0"?>
<!-- Generated by SVGo and Plotinum VG -->
<svg width="1920pt" height="1080pt" viewBox="0 0 1920 1080"
	xmlns="http://www.w3.org/2000/svg"
	xmlns:xlink="http://www.w3.org/1999/xlink">
<g transform="scale(1, -1) translate(0, -1080)">
<path d="M0,0L1920,0L1920,1080L0,1080Z" style="fill:#FFFFFF" />
<text x="831.42" y="-1040.9" transform="scale(1, -1)"
	style="font-family:Liberation Serif;font-variant:normal;font-weight:normal;font-style:normal;font-size:50px">linear-search</text>
<text x="892.77" y="-9.7559" transform="scale(1, -1)"
	style="font-family:Liberation Serif;font-variant:normal;font-weight:normal;font-style:normal;font-size:30px">Number of elements</text>
<text x="115.46" y="-39.727" transform="scale(1, -1)"
	style="font-family:Liberation Serif;font-variant:normal;font-weight:normal;font-style:normal;font-size:20px">1000</text>
<text x="310.97" y="-39.727" transform="scale(1, -1)"
	style="font-family:Liberation Serif;font-variant:normal;font-weight:normal;font-style:normal;font-size:20px">2000</text>
<text x="506.47" y="-39.727" transform="scale(1, -1)"
	style="font-family:Liberation Serif;font-variant:normal;font-weight:normal;font-style:normal;font-size:20px">3000</text>
<text x="701.97" y="-39.727" transform="scale(1, -1)"
	style="font-family:Liberation Serif;font-variant:normal;font-weight:normal;font-style:normal;font-size:20px">4000</text>
<text x="897.48" y="-39.727" transform="scale(1, -1)"
	style="font-family:Liberation Serif;font-variant:normal;font-weight:normal;font-style:normal;font-size:20px">5000</text>
<text x="1093" y="-39.727" transform="scale(1, -1)"
	style="font-family:Liberation Serif;font-variant:normal;font-weight:normal;font-style:normal;font-size:20px">6000</text>
<text x="1288.5" y="-39.727" transform="scale(1, -1)"
	style="font-family:Liberation Serif;font-variant:normal;font-weight:normal;font-style:normal;font-size:20px">7000</text>
<text x="1484" y="-39.727" transform="scale(1, -1)"
	style="font-family:Liberation Serif;font-variant:normal;font-weight:normal;font-style:normal;font-size:20px">8000</text>
<text x="1679.5" y="-39.727" transform="scale(1, -1)"
	style="font-family:Liberation Serif;font-variant:normal;font-weight:normal;font-style:normal;font-size:20px">9000</text>
<text x="1870" y="-39.727" transform="scale(1, -1)"
	style="font-family:Liberation Serif;font-variant:normal;font-weight:normal;font-style:normal;font-size:20px">10000</text>
<path d="M135.46,55.371L135.46,63.371" style="fill:none;stroke:#000000;stroke-width:0.5" />
<path d="M330.97,55.371L330.97,63.371" style="fill:none;stroke:#000000;stroke-width:0.5" />
<path d="M526.47,55.371L526.47,63.371" style="fill:none;stroke:#000000;stroke-width:0.5" />
<path d="M721.97,55.371L721.97,63.371" style="fill:none;stroke:#000000;stroke-width:0.5" />
<path d="M917.48,55.371L917.48,63.371" style="fill:none;stroke:#000000;stroke-width:0.5" />
<path d="M1113,55.371L1113,63.371" style="fill:none;stroke:#000000;stroke-width:0.5" />
<path d="M1308.5,55.371L1308.5,63.371" style="fill:none;stroke:#000000;stroke-width:0.5" />
<path d="M1504,55.371L1504,63.371" style="fill:none;stroke:#000000;stroke-width:0.5" />
<path d="M1699.5,55.371L1699.5,63.371" style="fill:none;stroke:#000000;stroke-width:0.5" />
<path d="M1895,55.371L1895,63.371" style="fill:none;stroke:#000000;stroke-width:0.5" />
<path d="M135.46,63.371L1895,63.371" style="fill:none;stroke:#000000;stroke-width:0.5" />
<g transform="rotate(90)">
<text x="538.49" y="23.467" transform="scale(1, -1)"
	style="font-family:Liberation Serif;font-variant:normal;font-weight:normal;font-style:normal;font-size:30px">μs</text>
</g>
<text x="49.712" y="-200.29" transform="scale(1, -1)"
	style="font-family:Liberation Serif;font-variant:normal;font-weight:normal;font-style:normal;font-size:20px">200000</text>
<text x="49.712" y="-597.45" transform="scale(1, -1)"
	style="font-family:Liberation Serif;font-variant:normal;font-weight:normal;font-style:normal;font-size:20px">800000</text>
<text x="39.712" y="-994.61" transform="scale(1, -1)"
	style="font-family:Liberation Serif;font-variant:normal;font-weight:normal;font-style:normal;font-size:20px">1400000</text>
<path d="M114.71,204.86L122.71,204.86" style="fill:none;stroke:#000000;stroke-width:0.5" />
<path d="M114.71,602.02L122.71,602.02" style="fill:none;stroke:#000000;stroke-width:0.5" />
<path d="M114.71,999.18L122.71,999.18" style="fill:none;stroke:#000000;stroke-width:0.5" />
<path d="M118.71,403.44L122.71,403.44" style="fill:none;stroke:#000000;stroke-width:0.5" />
<path d="M118.71,800.6L122.71,800.6" style="fill:none;stroke:#000000;stroke-width:0.5" />
<path d="M122.71,80.11L122.71,1024.6" style="fill:none;stroke:#000000;stroke-width:0.5" />
<path d="M135.46,80.11L135.46,1024.6" style="fill:none;stroke:#808080;stroke-width:0.25" />
<path d="M330.97,80.11L330.97,1024.6" style="fill:none;stroke:#808080;stroke-width:0.25" />
<path d="M526.47,80.11L526.47,1024.6" style="fill:none;stroke:#808080;stroke-width:0.25" />
<path d="M721.97,80.11L721.97,1024.6" style="fill:none;stroke:#808080;stroke-width:0.25" />
<path d="M917.48,80.11L917.48,1024.6" style="fill:none;stroke:#808080;stroke-width:0.25" />
<path d="M1113,80.11L1113,1024.6" style="fill:none;stroke:#808080;stroke-width:0.25" />
<path d="M1308.5,80.11L1308.5,1024.6" style="fill:none;stroke:#808080;stroke-width:0.25" />
<path d="M1504,80.11L1504,1024.6" style="fill:none;stroke:#808080;stroke-width:0.25" />
<path d="M1699.5,80.11L1699.5,1024.6" style="fill:none;stroke:#808080;stroke-width:0.25" />
<path d="M1895,80.11L1895,1024.6" style="fill:none;stroke:#808080;stroke-width:0.25" />
<path d="M135.46,204.86L1895,204.86" style="fill:none;stroke:#808080;stroke-width:0.25" />
<path d="M135.46,602.02L1895,602.02" style="fill:none;stroke:#808080;stroke-width:0.25" />
<path d="M135.46,999.18L1895,999.18" style="fill:none;stroke:#808080;stroke-width:0.25" />
<path d="M135.46,82.583L330.97,113.79L526.47,158.23L721.97,234.8L917.48,326.51L1113,443.81L1308.5,545.62L1504,688.19L1699.5,831.49L1895,933.26" style="fill:none;stroke:#FF0000;stroke-width:4" />
<path d="M140.46,82.583A5,5 0 1 1 130.46,82.583A5,5 0 1 1 140.46,82.583Z" style="fill:#FF0000" />
<path d="M335.97,113.79A5,5 0 1 1 325.97,113.79A5,5 0 1 1 335.97,113.79Z" style="fill:#FF0000" />
<path d="M531.47,158.23A5,5 0 1 1 521.47,158.23A5,5 0 1 1 531.47,158.23Z" style="fill:#FF0000" />
<path d="M726.97,234.8A5,5 0 1 1 716.97,234.8A5,5 0 1 1 726.97,234.8Z" style="fill:#FF0000" />
<path d="M922.48,326.51A5,5 0 1 1 912.48,326.51A5,5 0 1 1 922.48,326.51Z" style="fill:#FF0000" />
<path d="M1118,443.81A5,5 0 1 1 1108,443.81A5,5 0 1 1 1118,443.81Z" style="fill:#FF0000" />
<path d="M1313.5,545.62A5,5 0 1 1 1303.5,545.62A5,5 0 1 1 1313.5,545.62Z" style="fill:#FF0000" />
<path d="M1509,688.19A5,5 0 1 1 1499,688.19A5,5 0 1 1 1509,688.19Z" style="fill:#FF0000" />
<path d="M1704.5,831.49A5,5 0 1 1 1694.5,831.49A5,5 0 1 1 1704.5,831.49Z" style="fill:#FF0000" />
<path d="M1900,933.26A5,5 0 1 1 1890,933.26A5,5 0 1 1 1900,933.26Z" style="fill:#FF0000" />
<path d="M135.46,81.25L330.97,105.3L526.47,148.9L721.97,201.87L917.48,304.57L1113,390.22L1308.5,478.7L1504,616.67L1699.5,808.42L1895,938.07" style="fill:none;stroke:#0000FF;stroke-width:4" />
<path d="M140.46,81.25A5,5 0 1 1 130.46,81.25A5,5 0 1 1 140.46,81.25Z" style="fill:#0000FF" />
<path d="M335.97,105.3A5,5 0 1 1 325.97,105.3A5,5 0 1 1 335.97,105.3Z" style="fill:#0000FF" />
<path d="M531.47,148.9A5,5 0 1 1 521.47,148.9A5,5 0 1 1 531.47,148.9Z" style="fill:#0000FF" />
<path d="M726.97,201.87A5,5 0 1 1 716.97,201.87A5,5 0 1 1 726.97,201.87Z" style="fill:#0000FF" />
<path d="M922.48,304.57A5,5 0 1 1 912.48,304.57A5,5 0 1 1 922.48,304.57Z" style="fill:#0000FF" />
<path d="M1118,390.22A5,5 0 1 1 1108,390.22A5,5 0 1 1 1118,390.22Z" style="fill:#0000FF" />
<path d="M1313.5,478.7A5,5 0 1 1 1303.5,478.7A5,5 0 1 1 1313.5,478.7Z" style="fill:#0000FF" />
<path d="M1509,616.67A5,5 0 1 1 1499,616.67A5,5 0 1 1 1509,616.67Z" style="fill:#0000FF" />
<path d="M1704.5,808.42A5,5 0 1 1 1694.5,808.42A5,5 0 1 1 1704.5,808.42Z" style="fill:#0000FF" />
<path d="M1900,938.07A5,5 0 1 1 1890,938.07A5,5 0 1 1 1900,938.07Z" style="fill:#0000FF" />
<path d="M135.46,80.11L330.97,102.55L526.47,141.51L721.97,211.52L917.48,274.94L1113,345.42L1308.5,440.86L1504,581.65L1699.5,683.35L1895,851.95" style="fill:none;stroke:#00FF00;stroke-width:4" />
<path d="M140.46,80.11A5,5 0 1 1 130.46,80.11A5,5 0 1 1 140.46,80.11Z" style="fill:#00FF00" />
<path d="M335.97,102.55A5,5 0 1 1 325.97,102.55A5,5 0 1 1 335.97,102.55Z" style="fill:#00FF00" />
<path d="M531.47,141.51A5,5 0 1 1 521.47,141.51A5,5 0 1 1 531.47,141.51Z" style="fill:#00FF00" />
<path d="M726.97,211.52A5,5 0 1 1 716.97,211.52A5,5 0 1 1 726.97,211.52Z" style="fill:#00FF00" />
<path d="M922.48,274.94A5,5 0 1 1 912.48,274.94A5,5 0 1 1 922.48,274.94Z" style="fill:#00FF00" />
<path d="M1118,345.42A5,5 0 1 1 1108,345.42A5,5 0 1 1 1118,345.42Z" style="fill:#00FF00" />
<path d="M1313.5,440.86A5,5 0 1 1 1303.5,440.86A5,5 0 1 1 1313.5,440.86Z" style="fill:#00FF00" />
<path d="M1509,581.65A5,5 0 1 1 1499,581.65A5,5 0 1 1 1509,581.65Z" style="fill:#00FF00" />
<path d="M1704.5,683.35A5,5 0 1 1 1694.5,683.35A5,5 0 1 1 1704.5,683.35Z" style="fill:#00FF00" />
<path d="M1900,851.95A5,5 0 1 1 1890,851.95A5,5 0 1 1 1900,851.95Z" style="fill:#00FF00" />
<path d="M1900,126.03L1920,126.03" style="fill:none;stroke:#FF0000;stroke-width:4" />
<path d="M1915,126.03A5,5 0 1 1 1905,126.03A5,5 0 1 1 1915,126.03Z" style="fill:#FF0000" />
<text x="1823.3" y="-121.05" transform="scale(1, -1)"
	style="font-family:Liberation Serif;font-variant:normal;font-weight:normal;font-style:normal;font-size:24px">std::list</text>
<path d="M1900,105.66L1920,105.66" style="fill:none;stroke:#0000FF;stroke-width:4" />
<path d="M1915,105.66A5,5 0 1 1 1905,105.66A5,5 0 1 1 1915,105.66Z" style="fill:#0000FF" />
<text x="1795.4" y="-100.69" transform="scale(1, -1)"
	style="font-family:Liberation Serif;font-variant:normal;font-weight:normal;font-style:normal;font-size:24px">std::deque</text>
<path d="M1900,85.294L1920,85.294" style="fill:none;stroke:#00FF00;stroke-width:4" />
<path d="M1915,85.294A5,5 0 1 1 1905,85.294A5,5 0 1 1 1915,85.294Z" style="fill:#00FF00" />
<text x="1792.7" y="-80.319" transform="scale(1, -1)"
	style="font-family:Liberation Serif;font-variant:normal;font-weight:normal;font-style:normal;font-size:24px">std::vector</text>
</g>
</svg>
