<?xml version="1.0"?>
<!-- Generated by SVGo and Plotinum VG -->
<svg width="1920pt" height="1080pt" viewBox="0 0 1920 1080"
	xmlns="http://www.w3.org/2000/svg"
	xmlns:xlink="http://www.w3.org/1999/xlink">
<g transform="scale(1, -1) translate(0, -1080)">
<path d="M0,0L1920,0L1920,1080L0,1080Z" style="fill:#FFFFFF" />
<text x="831.42" y="-1040.9" transform="scale(1, -1)"
	style="font-family:Liberation Serif;font-variant:normal;font-weight:normal;font-style:normal;font-size:50px">linear-search</text>
<text x="892.77" y="-9.7559" transform="scale(1, -1)"
	style="font-family:Liberation Serif;font-variant:normal;font-weight:normal;font-style:normal;font-size:30px">Number of elements</text>
<text x="115.46" y="-39.727" transform="scale(1, -1)"
	style="font-family:Liberation Serif;font-variant:normal;font-weight:normal;font-style:normal;font-size:20px">1000</text>
<text x="310.97" y="-39.727" transform="scale(1, -1)"
	style="font-family:Liberation Serif;font-variant:normal;font-weight:normal;font-style:normal;font-size:20px">2000</text>
<text x="506.47" y="-39.727" transform="scale(1, -1)"
	style="font-family:Liberation Serif;font-variant:normal;font-weight:normal;font-style:normal;font-size:20px">3000</text>
<text x="701.97" y="-39.727" transform="scale(1, -1)"
	style="font-family:Liberation Serif;font-variant:normal;font-weight:normal;font-style:normal;font-size:20px">4000</text>
<text x="897.48" y="-39.727" transform="scale(1, -1)"
	style="font-family:Liberation Serif;font-variant:normal;font-weight:normal;font-style:normal;font-size:20px">5000</text>
<text x="1093" y="-39.727" transform="scale(1, -1)"
	style="font-family:Liberation Serif;font-variant:normal;font-weight:normal;font-style:normal;font-size:20px">6000</text>
<text x="1288.5" y="-39.727" transform="scale(1, -1)"
	style="font-family:Liberation Serif;font-variant:normal;font-weight:normal;font-style:normal;font-size:20px">7000</text>
<text x="1484" y="-39.727" transform="scale(1, -1)"
	style="font-family:Liberation Serif;font-variant:normal;font-weight:normal;font-style:normal;font-size:20px">8000</text>
<text x="1679.5" y="-39.727" transform="scale(1, -1)"
	style="font-family:Liberation Serif;font-variant:normal;font-weight:normal;font-style:normal;font-size:20px">9000</text>
<text x="1870" y="-39.727" transform="scale(1, -1)"
	style="font-family:Liberation Serif;font-variant:normal;font-weight:normal;font-style:normal;font-size:20px">10000</text>
<path d="M135.46,55.371L135.46,63.371" style="fill:none;stroke:#000000;stroke-width:0.5" />
<path d="M330.97,55.371L330.97,63.371" style="fill:none;stroke:#000000;stroke-width:0.5" />
<path d="M526.47,55.371L526.47,63.371" style="fill:none;stroke:#000000;stroke-width:0.5" />
<path d="M721.97,55.371L721.97,63.371" style="fill:none;stroke:#000000;stroke-width:0.5" />
<path d="M917.48,55.371L917.48,63.371" style="fill:none;stroke:#000000;stroke-width:0.5" />
<path d="M1113,55.371L1113,63.371" style="fill:none;stroke:#000000;stroke-width:0.5" />
<path d="M1308.5,55.371L1308.5,63.371" style="fill:none;stroke:#000000;stroke-width:0.5" />
<path d="M1504,55.371L1504,63.371" style="fill:none;stroke:#000000;stroke-width:0.5" />
<path d="M1699.5,55.371L1699.5,63.371" style="fill:none;stroke:#000000;stroke-width:0.5" />
<path d="M1895,55.371L1895,63.371" style="fill:none;stroke:#000000;stroke-width:0.5" />
<path d="M135.46,63.371L1895,63.371" style="fill:none;stroke:#000000;stroke-width:0.5" />
<g transform="rotate(90)">
<text x="538.49" y="23.467" transform="scale(1, -1)"
	style="font-family:Liberation Serif;font-variant:normal;font-weight:normal;font-style:normal;font-size:30px">μs</text>
</g>
<text x="49.712" y="-191.75" transform="scale(1, -1)"
	style="font-family:Liberation Serif;font-variant:normal;font-weight:normal;font-style:normal;font-size:20px">200000</text>
<text x="49.712" y="-564.16" transform="scale(1, -1)"
	style="font-family:Liberation Serif;font-variant:normal;font-weight:normal;font-style:normal;font-size:20px">800000</text>
<text x="39.712" y="-936.56" transform="scale(1, -1)"
	style="font-family:Liberation Serif;font-variant:normal;font-weight:normal;font-style:normal;font-size:20px">1400000</text>
<path d="M114.71,196.32L122.71,196.32" style="fill:none;stroke:#000000;stroke-width:0.5" />
<path d="M114.71,568.73L122.71,568.73" style="fill:none;stroke:#000000;stroke-width:0.5" />
<path d="M114.71,941.13L122.71,941.13" style="fill:none;stroke:#000000;stroke-width:0.5" />
<path d="M118.71,382.53L122.71,382.53" style="fill:none;stroke:#000000;stroke-width:0.5" />
<path d="M118.71,754.93L122.71,754.93" style="fill:none;stroke:#000000;stroke-width:0.5" />
<path d="M122.71,80.11L122.71,1024.6" style="fill:none;stroke:#000000;stroke-width:0.5" />
<path d="M135.46,80.11L135.46,1024.6" style="fill:none;stroke:#808080;stroke-width:0.25" />
<path d="M330.97,80.11L330.97,1024.6" style="fill:none;stroke:#808080;stroke-width:0.25" />
<path d="M526.47,80.11L526.47,1024.6" style="fill:none;stroke:#808080;stroke-width:0.25" />
<path d="M721.97,80.11L721.97,1024.6" style="fill:none;stroke:#808080;stroke-width:0.25" />
<path d="M917.48,80.11L917.48,1024.6" style="fill:none;stroke:#808080;stroke-width:0.25" />
<path d="M1113,80.11L1113,1024.6" style="fill:none;stroke:#808080;stroke-width:0.25" />
<path d="M1308.5,80.11L1308.5,1024.6" style="fill:none;stroke:#808080;stroke-width:0.25" />
<path d="M1504,80.11L1504,1024.6" style="fill:none;stroke:#808080;stroke-width:0.25" />
<path d="M1699.5,80.11L1699.5,1024.6" style="fill:none;stroke:#808080;stroke-width:0.25" />
<path d="M1895,80.11L1895,1024.6" style="fill:none;stroke:#808080;stroke-width:0.25" />
<path d="M135.46,196.32L1895,196.32" style="fill:none;stroke:#808080;stroke-width:0.25" />
<path d="M135.46,568.73L1895,568.73" style="fill:none;stroke:#808080;stroke-width:0.25" />
<path d="M135.46,941.13L1895,941.13" style="fill:none;stroke:#808080;stroke-width:0.25" />
<path d="M135.46,81.75L330.97,104.04L526.47,146.83L721.97,210.22L917.48,281.69L1113,383.53L1308.5,485.55L1504,613.22L1699.5,761.37L1895,938.04" style="fill:none;stroke:#FF0000;stroke-width:4" />
<path d="M140.46,81.75A5,5 0 1 1 130.46,81.75A5,5 0 1 1 140.46,81.75Z" style="fill:#FF0000" />
<path d="M335.97,104.04A5,5 0 1 1 325.97,104.04A5,5 0 1 1 335.97,104.04Z" style="fill:#FF0000" />
<path d="M531.47,146.83A5,5 0 1 1 521.47,146.83A5,5 0 1 1 531.47,146.83Z" style="fill:#FF0000" />
<path d="M726.97,210.22A5,5 0 1 1 716.97,210.22A5,5 0 1 1 726.97,210.22Z" style="fill:#FF0000" />
<path d="M922.48,281.69A5,5 0 1 1 912.48,281.69A5,5 0 1 1 922.48,281.69Z" style="fill:#FF0000" />
<path d="M1118,383.53A5,5 0 1 1 1108,383.53A5,5 0 1 1 1118,383.53Z" style="fill:#FF0000" />
<path d="M1313.5,485.55A5,5 0 1 1 1303.5,485.55A5,5 0 1 1 1313.5,485.55Z" style="fill:#FF0000" />
<path d="M1509,613.22A5,5 0 1 1 1499,613.22A5,5 0 1 1 1509,613.22Z" style="fill:#FF0000" />
<path d="M1704.5,761.37A5,5 0 1 1 1694.5,761.37A5,5 0 1 1 1704.5,761.37Z" style="fill:#FF0000" />
<path d="M1900,938.04A5,5 0 1 1 1890,938.04A5,5 0 1 1 1900,938.04Z" style="fill:#FF0000" />
<path d="M135.46,80.341L330.97,101.7L526.47,144.07L721.97,191.48L917.48,268.78L1113,347.31L1308.5,453.74L1504,563.98L1699.5,703.84L1895,868.94" style="fill:none;stroke:#0000FF;stroke-width:4" />
<path d="M140.46,80.341A5,5 0 1 1 130.46,80.341A5,5 0 1 1 140.46,80.341Z" style="fill:#0000FF" />
<path d="M335.97,101.7A5,5 0 1 1 325.97,101.7A5,5 0 1 1 335.97,101.7Z" style="fill:#0000FF" />
<path d="M531.47,144.07A5,5 0 1 1 521.47,144.07A5,5 0 1 1 531.47,144.07Z" style="fill:#0000FF" />
<path d="M726.97,191.48A5,5 0 1 1 716.97,191.48A5,5 0 1 1 726.97,191.48Z" style="fill:#0000FF" />
<path d="M922.48,268.78A5,5 0 1 1 912.48,268.78A5,5 0 1 1 922.48,268.78Z" style="fill:#0000FF" />
<path d="M1118,347.31A5,5 0 1 1 1108,347.31A5,5 0 1 1 1118,347.31Z" style="fill:#0000FF" />
<path d="M1313.5,453.74A5,5 0 1 1 1303.5,453.74A5,5 0 1 1 1313.5,453.74Z" style="fill:#0000FF" />
<path d="M1509,563.98A5,5 0 1 1 1499,563.98A5,5 0 1 1 1509,563.98Z" style="fill:#0000FF" />
<path d="M1704.5,703.84A5,5 0 1 1 1694.5,703.84A5,5 0 1 1 1704.5,703.84Z" style="fill:#0000FF" />
<path d="M1900,868.94A5,5 0 1 1 1890,868.94A5,5 0 1 1 1900,868.94Z" style="fill:#0000FF" />
<path d="M135.46,80.11L330.97,102.39L526.47,139.51L721.97,187.89L917.48,271.88L1113,354.39L1308.5,418.2L1504,528.56L1699.5,644.95L1895,785.25" style="fill:none;stroke:#00FF00;stroke-width:4" />
<path d="M140.46,80.11A5,5 0 1 1 130.46,80.11A5,5 0 1 1 140.46,80.11Z" style="fill:#00FF00" />
<path d="M335.97,102.39A5,5 0 1 1 325.97,102.39A5,5 0 1 1 335.97,102.39Z" style="fill:#00FF00" />
<path d="M531.47,139.51A5,5 0 1 1 521.47,139.51A5,5 0 1 1 531.47,139.51Z" style="fill:#00FF00" />
<path d="M726.97,187.89A5,5 0 1 1 716.97,187.89A5,5 0 1 1 726.97,187.89Z" style="fill:#00FF00" />
<path d="M922.48,271.88A5,5 0 1 1 912.48,271.88A5,5 0 1 1 922.48,271.88Z" style="fill:#00FF00" />
<path d="M1118,354.39A5,5 0 1 1 1108,354.39A5,5 0 1 1 1118,354.39Z" style="fill:#00FF00" />
<path d="M1313.5,418.2A5,5 0 1 1 1303.5,418.2A5,5 0 1 1 1313.5,418.2Z" style="fill:#00FF00" />
<path d="M1509,528.56A5,5 0 1 1 1499,528.56A5,5 0 1 1 1509,528.56Z" style="fill:#00FF00" />
<path d="M1704.5,644.95A5,5 0 1 1 1694.5,644.95A5,5 0 1 1 1704.5,644.95Z" style="fill:#00FF00" />
<path d="M1900,785.25A5,5 0 1 1 1890,785.25A5,5 0 1 1 1900,785.25Z" style="fill:#00FF00" />
<path d="M1900,126.03L1920,126.03" style="fill:none;stroke:#FF0000;stroke-width:4" />
<path d="M1915,126.03A5,5 0 1 1 1905,126.03A5,5 0 1 1 1915,126.03Z" style="fill:#FF0000" />
<text x="1823.3" y="-121.05" transform="scale(1, -1)"
	style="font-family:Liberation Serif;font-variant:normal;font-weight:normal;font-style:normal;font-size:24px">std::list</text>
<path d="M1900,105.66L1920,105.66" style="fill:none;stroke:#0000FF;stroke-width:4" />
<path d="M1915,105.66A5,5 0 1 1 1905,105.66A5,5 0 1 1 1915,105.66Z" style="fill:#0000FF" />
<text x="1795.4" y="-100.69" transform="scale(1, -1)"
	style="font-family:Liberation Serif;font-variant:normal;font-weight:normal;font-style:normal;font-size:24px">std::deque</text>
<path d="M1900,85.294L1920,85.294" style="fill:none;stroke:#00FF00;stroke-width:4" />
<path d="M1915,85.294A5,5 0 1 1 1905,85.294A5,5 0 1 1 1915,85.294Z" style="fill:#00FF00" />
<text x="1792.7" y="-80.319" transform="scale(1, -1)"
	style="font-family:Liberation Serif;font-variant:normal;font-weight:normal;font-style:normal;font-size:24px">std::vector</text>
</g>
</svg>
