<?xml version="1.0"?>
<!-- Generated by SVGo and Plotinum VG -->
<svg width="1920pt" height="1080pt" viewBox="0 0 1920 1080"
	xmlns="http://www.w3.org/2000/svg"
	xmlns:xlink="http://www.w3.org/1999/xlink">
<g transform="scale(1, -1) translate(0, -1080)">
<path d="M0,0L1920,0L1920,1080L0,1080Z" style="fill:#FFFFFF" />
<text x="709.94" y="-1040.9" transform="scale(1, -1)"
	style="font-family:Liberation Serif;font-variant:normal;font-weight:normal;font-style:normal;font-size:50px">linear-search - Log Scale</text>
<text x="892.77" y="-9.7559" transform="scale(1, -1)"
	style="font-family:Liberation Serif;font-variant:normal;font-weight:normal;font-style:normal;font-size:30px">Number of elements</text>
<text x="115.46" y="-39.727" transform="scale(1, -1)"
	style="font-family:Liberation Serif;font-variant:normal;font-weight:normal;font-style:normal;font-size:20px">1000</text>
<text x="310.97" y="-39.727" transform="scale(1, -1)"
	style="font-family:Liberation Serif;font-variant:normal;font-weight:normal;font-style:normal;font-size:20px">2000</text>
<text x="506.47" y="-39.727" transform="scale(1, -1)"
	style="font-family:Liberation Serif;font-variant:normal;font-weight:normal;font-style:normal;font-size:20px">3000</text>
<text x="701.97" y="-39.727" transform="scale(1, -1)"
	style="font-family:Liberation Serif;font-variant:normal;font-weight:normal;font-style:normal;font-size:20px">4000</text>
<text x="897.48" y="-39.727" transform="scale(1, -1)"
	style="font-family:Liberation Serif;font-variant:normal;font-weight:normal;font-style:normal;font-size:20px">5000</text>
<text x="1093" y="-39.727" transform="scale(1, -1)"
	style="font-family:Liberation Serif;font-variant:normal;font-weight:normal;font-style:normal;font-size:20px">6000</text>
<text x="1288.5" y="-39.727" transform="scale(1, -1)"
	style="font-family:Liberation Serif;font-variant:normal;font-weight:normal;font-style:normal;font-size:20px">7000</text>
<text x="1484" y="-39.727" transform="scale(1, -1)"
	style="font-family:Liberation Serif;font-variant:normal;font-weight:normal;font-style:normal;font-size:20px">8000</text>
<text x="1679.5" y="-39.727" transform="scale(1, -1)"
	style="font-family:Liberation Serif;font-variant:normal;font-weight:normal;font-style:normal;font-size:20px">9000</text>
<text x="1870" y="-39.727" transform="scale(1, -1)"
	style="font-family:Liberation Serif;font-variant:normal;font-weight:normal;font-style:normal;font-size:20px">10000</text>
<path d="M135.46,55.371L135.46,63.371" style="fill:none;stroke:#000000;stroke-width:0.5" />
<path d="M330.97,55.371L330.97,63.371" style="fill:none;stroke:#000000;stroke-width:0.5" />
<path d="M526.47,55.371L526.47,63.371" style="fill:none;stroke:#000000;stroke-width:0.5" />
<path d="M721.97,55.371L721.97,63.371" style="fill:none;stroke:#000000;stroke-width:0.5" />
<path d="M917.48,55.371L917.48,63.371" style="fill:none;stroke:#000000;stroke-width:0.5" />
<path d="M1113,55.371L1113,63.371" style="fill:none;stroke:#000000;stroke-width:0.5" />
<path d="M1308.5,55.371L1308.5,63.371" style="fill:none;stroke:#000000;stroke-width:0.5" />
<path d="M1504,55.371L1504,63.371" style="fill:none;stroke:#000000;stroke-width:0.5" />
<path d="M1699.5,55.371L1699.5,63.371" style="fill:none;stroke:#000000;stroke-width:0.5" />
<path d="M1895,55.371L1895,63.371" style="fill:none;stroke:#000000;stroke-width:0.5" />
<path d="M135.46,63.371L1895,63.371" style="fill:none;stroke:#000000;stroke-width:0.5" />
<g transform="rotate(90)">
<text x="485.87" y="23.467" transform="scale(1, -1)"
	style="font-family:Liberation Serif;font-variant:normal;font-weight:normal;font-style:normal;font-size:30px">log(μs + 1)</text>
</g>
<text x="49.712" y="-619.15" transform="scale(1, -1)"
	style="font-family:Liberation Serif;font-variant:normal;font-weight:normal;font-style:normal;font-size:20px">200000</text>
<text x="49.712" y="-895.69" transform="scale(1, -1)"
	style="font-family:Liberation Serif;font-variant:normal;font-weight:normal;font-style:normal;font-size:20px">800000</text>
<text x="39.712" y="-1007.3" transform="scale(1, -1)"
	style="font-family:Liberation Serif;font-variant:normal;font-weight:normal;font-style:normal;font-size:20px">1400000</text>
<path d="M114.71,623.72L122.71,623.72" style="fill:none;stroke:#000000;stroke-width:0.5" />
<path d="M114.71,900.26L122.71,900.26" style="fill:none;stroke:#000000;stroke-width:0.5" />
<path d="M114.71,1011.9L122.71,1011.9" style="fill:none;stroke:#000000;stroke-width:0.5" />
<path d="M118.71,806.5L122.71,806.5" style="fill:none;stroke:#000000;stroke-width:0.5" />
<path d="M118.71,963.78L122.71,963.78" style="fill:none;stroke:#000000;stroke-width:0.5" />
<path d="M122.71,80.11L122.71,1024.6" style="fill:none;stroke:#000000;stroke-width:0.5" />
<path d="M135.46,80.11L135.46,1024.6" style="fill:none;stroke:#808080;stroke-width:0.25" />
<path d="M330.97,80.11L330.97,1024.6" style="fill:none;stroke:#808080;stroke-width:0.25" />
<path d="M526.47,80.11L526.47,1024.6" style="fill:none;stroke:#808080;stroke-width:0.25" />
<path d="M721.97,80.11L721.97,1024.6" style="fill:none;stroke:#808080;stroke-width:0.25" />
<path d="M917.48,80.11L917.48,1024.6" style="fill:none;stroke:#808080;stroke-width:0.25" />
<path d="M1113,80.11L1113,1024.6" style="fill:none;stroke:#808080;stroke-width:0.25" />
<path d="M1308.5,80.11L1308.5,1024.6" style="fill:none;stroke:#808080;stroke-width:0.25" />
<path d="M1504,80.11L1504,1024.6" style="fill:none;stroke:#808080;stroke-width:0.25" />
<path d="M1699.5,80.11L1699.5,1024.6" style="fill:none;stroke:#808080;stroke-width:0.25" />
<path d="M1895,80.11L1895,1024.6" style="fill:none;stroke:#808080;stroke-width:0.25" />
<path d="M135.46,623.72L1895,623.72" style="fill:none;stroke:#808080;stroke-width:0.25" />
<path d="M135.46,900.26L1895,900.26" style="fill:none;stroke:#808080;stroke-width:0.25" />
<path d="M135.46,1011.9L1895,1011.9" style="fill:none;stroke:#808080;stroke-width:0.25" />
<path d="M135.46,144.33L330.97,388.67L526.47,521.97L721.97,639.26L917.48,736.78L1113,814.18L1308.5,873.41L1504,921.25L1699.5,966.33L1895,1005.6" style="fill:none;stroke:#FF0000;stroke-width:4" />
<path d="M140.46,144.33A5,5 0 1 1 130.46,144.33A5,5 0 1 1 140.46,144.33Z" style="fill:#FF0000" />
<path d="M335.97,388.67A5,5 0 1 1 325.97,388.67A5,5 0 1 1 335.97,388.67Z" style="fill:#FF0000" />
<path d="M531.47,521.97A5,5 0 1 1 521.47,521.97A5,5 0 1 1 531.47,521.97Z" style="fill:#FF0000" />
<path d="M726.97,639.26A5,5 0 1 1 716.97,639.26A5,5 0 1 1 726.97,639.26Z" style="fill:#FF0000" />
<path d="M922.48,736.78A5,5 0 1 1 912.48,736.78A5,5 0 1 1 922.48,736.78Z" style="fill:#FF0000" />
<path d="M1118,814.18A5,5 0 1 1 1108,814.18A5,5 0 1 1 1118,814.18Z" style="fill:#FF0000" />
<path d="M1313.5,873.41A5,5 0 1 1 1303.5,873.41A5,5 0 1 1 1313.5,873.41Z" style="fill:#FF0000" />
<path d="M1509,921.25A5,5 0 1 1 1499,921.25A5,5 0 1 1 1509,921.25Z" style="fill:#FF0000" />
<path d="M1704.5,966.33A5,5 0 1 1 1694.5,966.33A5,5 0 1 1 1704.5,966.33Z" style="fill:#FF0000" />
<path d="M1900,1005.6A5,5 0 1 1 1890,1005.6A5,5 0 1 1 1900,1005.6Z" style="fill:#FF0000" />
<path d="M135.46,86.564L330.97,333.01L526.47,501.97L721.97,610.31L917.48,683.36L1113,757.93L1308.5,813.16L1504,878.06L1699.5,928.09L1895,984.32" style="fill:none;stroke:#0000FF;stroke-width:4" />
<path d="M140.46,86.564A5,5 0 1 1 130.46,86.564A5,5 0 1 1 140.46,86.564Z" style="fill:#0000FF" />
<path d="M335.97,333.01A5,5 0 1 1 325.97,333.01A5,5 0 1 1 335.97,333.01Z" style="fill:#0000FF" />
<path d="M531.47,501.97A5,5 0 1 1 521.47,501.97A5,5 0 1 1 531.47,501.97Z" style="fill:#0000FF" />
<path d="M726.97,610.31A5,5 0 1 1 716.97,610.31A5,5 0 1 1 726.97,610.31Z" style="fill:#0000FF" />
<path d="M922.48,683.36A5,5 0 1 1 912.48,683.36A5,5 0 1 1 922.48,683.36Z" style="fill:#0000FF" />
<path d="M1118,757.93A5,5 0 1 1 1108,757.93A5,5 0 1 1 1118,757.93Z" style="fill:#0000FF" />
<path d="M1313.5,813.16A5,5 0 1 1 1303.5,813.16A5,5 0 1 1 1313.5,813.16Z" style="fill:#0000FF" />
<path d="M1509,878.06A5,5 0 1 1 1499,878.06A5,5 0 1 1 1509,878.06Z" style="fill:#0000FF" />
<path d="M1704.5,928.09A5,5 0 1 1 1694.5,928.09A5,5 0 1 1 1704.5,928.09Z" style="fill:#0000FF" />
<path d="M1900,984.32A5,5 0 1 1 1890,984.32A5,5 0 1 1 1900,984.32Z" style="fill:#0000FF" />
<path d="M135.46,80.11L330.97,357.36L526.47,486.3L721.97,622.48L917.48,690.45L1113,761.31L1308.5,829.06L1504,881.5L1699.5,917.54L1895,957.69" style="fill:none;stroke:#00FF00;stroke-width:4" />
<path d="M140.46,80.11A5,5 0 1 1 130.46,80.11A5,5 0 1 1 140.46,80.11Z" style="fill:#00FF00" />
<path d="M335.97,357.36A5,5 0 1 1 325.97,357.36A5,5 0 1 1 335.97,357.36Z" style="fill:#00FF00" />
<path d="M531.47,486.3A5,5 0 1 1 521.47,486.3A5,5 0 1 1 531.47,486.3Z" style="fill:#00FF00" />
<path d="M726.97,622.48A5,5 0 1 1 716.97,622.48A5,5 0 1 1 726.97,622.48Z" style="fill:#00FF00" />
<path d="M922.48,690.45A5,5 0 1 1 912.48,690.45A5,5 0 1 1 922.48,690.45Z" style="fill:#00FF00" />
<path d="M1118,761.31A5,5 0 1 1 1108,761.31A5,5 0 1 1 1118,761.31Z" style="fill:#00FF00" />
<path d="M1313.5,829.06A5,5 0 1 1 1303.5,829.06A5,5 0 1 1 1313.5,829.06Z" style="fill:#00FF00" />
<path d="M1509,881.5A5,5 0 1 1 1499,881.5A5,5 0 1 1 1509,881.5Z" style="fill:#00FF00" />
<path d="M1704.5,917.54A5,5 0 1 1 1694.5,917.54A5,5 0 1 1 1704.5,917.54Z" style="fill:#00FF00" />
<path d="M1900,957.69A5,5 0 1 1 1890,957.69A5,5 0 1 1 1900,957.69Z" style="fill:#00FF00" />
<path d="M1900,126.03L1920,126.03" style="fill:none;stroke:#FF0000;stroke-width:4" />
<path d="M1915,126.03A5,5 0 1 1 1905,126.03A5,5 0 1 1 1915,126.03Z" style="fill:#FF0000" />
<text x="1823.3" y="-121.05" transform="scale(1, -1)"
	style="font-family:Liberation Serif;font-variant:normal;font-weight:normal;font-style:normal;font-size:24px">std::list</text>
<path d="M1900,105.66L1920,105.66" style="fill:none;stroke:#0000FF;stroke-width:4" />
<path d="M1915,105.66A5,5 0 1 1 1905,105.66A5,5 0 1 1 1915,105.66Z" style="fill:#0000FF" />
<text x="1795.4" y="-100.69" transform="scale(1, -1)"
	style="font-family:Liberation Serif;font-variant:normal;font-weight:normal;font-style:normal;font-size:24px">std::deque</text>
<path d="M1900,85.294L1920,85.294" style="fill:none;stroke:#00FF00;stroke-width:4" />
<path d="M1915,85.294A5,5 0 1 1 1905,85.294A5,5 0 1 1 1915,85.294Z" style="fill:#00FF00" />
<text x="1792.7" y="-80.319" transform="scale(1, -1)"
	style="font-family:Liberation Serif;font-variant:normal;font-weight:normal;font-style:normal;font-size:24px">std::vector</text>
</g>
</svg>
