<?xml version="1.0"?>
<!-- Generated by SVGo and Plotinum VG -->
<svg width="1920pt" height="1080pt" viewBox="0 0 1920 1080"
	xmlns="http://www.w3.org/2000/svg"
	xmlns:xlink="http://www.w3.org/1999/xlink">
<g transform="scale(1, -1) translate(0, -1080)">
<path d="M0,0L1920,0L1920,1080L0,1080Z" style="fill:#FFFFFF" />
<text x="709.94" y="-1040.9" transform="scale(1, -1)"
	style="font-family:Liberation Serif;font-variant:normal;font-weight:normal;font-style:normal;font-size:50px">linear-search - Log Scale</text>
<text x="897.77" y="-9.7559" transform="scale(1, -1)"
	style="font-family:Liberation Serif;font-variant:normal;font-weight:normal;font-style:normal;font-size:30px">Number of elements</text>
<text x="125.46" y="-39.727" transform="scale(1, -1)"
	style="font-family:Liberation Serif;font-variant:normal;font-weight:normal;font-style:normal;font-size:20px">1000</text>
<text x="319.86" y="-39.727" transform="scale(1, -1)"
	style="font-family:Liberation Serif;font-variant:normal;font-weight:normal;font-style:normal;font-size:20px">2000</text>
<text x="514.25" y="-39.727" transform="scale(1, -1)"
	style="font-family:Liberation Serif;font-variant:normal;font-weight:normal;font-style:normal;font-size:20px">3000</text>
<text x="708.64" y="-39.727" transform="scale(1, -1)"
	style="font-family:Liberation Serif;font-variant:normal;font-weight:normal;font-style:normal;font-size:20px">4000</text>
<text x="903.03" y="-39.727" transform="scale(1, -1)"
	style="font-family:Liberation Serif;font-variant:normal;font-weight:normal;font-style:normal;font-size:20px">5000</text>
<text x="1097.4" y="-39.727" transform="scale(1, -1)"
	style="font-family:Liberation Serif;font-variant:normal;font-weight:normal;font-style:normal;font-size:20px">6000</text>
<text x="1291.8" y="-39.727" transform="scale(1, -1)"
	style="font-family:Liberation Serif;font-variant:normal;font-weight:normal;font-style:normal;font-size:20px">7000</text>
<text x="1486.2" y="-39.727" transform="scale(1, -1)"
	style="font-family:Liberation Serif;font-variant:normal;font-weight:normal;font-style:normal;font-size:20px">8000</text>
<text x="1680.6" y="-39.727" transform="scale(1, -1)"
	style="font-family:Liberation Serif;font-variant:normal;font-weight:normal;font-style:normal;font-size:20px">9000</text>
<text x="1870" y="-39.727" transform="scale(1, -1)"
	style="font-family:Liberation Serif;font-variant:normal;font-weight:normal;font-style:normal;font-size:20px">10000</text>
<path d="M145.46,55.371L145.46,63.371" style="fill:none;stroke:#000000;stroke-width:0.5" />
<path d="M339.86,55.371L339.86,63.371" style="fill:none;stroke:#000000;stroke-width:0.5" />
<path d="M534.25,55.371L534.25,63.371" style="fill:none;stroke:#000000;stroke-width:0.5" />
<path d="M728.64,55.371L728.64,63.371" style="fill:none;stroke:#000000;stroke-width:0.5" />
<path d="M923.03,55.371L923.03,63.371" style="fill:none;stroke:#000000;stroke-width:0.5" />
<path d="M1117.4,55.371L1117.4,63.371" style="fill:none;stroke:#000000;stroke-width:0.5" />
<path d="M1311.8,55.371L1311.8,63.371" style="fill:none;stroke:#000000;stroke-width:0.5" />
<path d="M1506.2,55.371L1506.2,63.371" style="fill:none;stroke:#000000;stroke-width:0.5" />
<path d="M1700.6,55.371L1700.6,63.371" style="fill:none;stroke:#000000;stroke-width:0.5" />
<path d="M1895,55.371L1895,63.371" style="fill:none;stroke:#000000;stroke-width:0.5" />
<path d="M145.46,63.371L1895,63.371" style="fill:none;stroke:#000000;stroke-width:0.5" />
<g transform="rotate(90)">
<text x="509.33" y="23.467" transform="scale(1, -1)"
	style="font-family:Liberation Serif;font-variant:normal;font-weight:normal;font-style:normal;font-size:30px">log(μs)</text>
</g>
<text x="49.712" y="-677.65" transform="scale(1, -1)"
	style="font-family:Liberation Serif;font-variant:normal;font-weight:normal;font-style:normal;font-size:20px">2000000</text>
<text x="49.712" y="-909.08" transform="scale(1, -1)"
	style="font-family:Liberation Serif;font-variant:normal;font-weight:normal;font-style:normal;font-size:20px">8000000</text>
<text x="39.712" y="-1002.5" transform="scale(1, -1)"
	style="font-family:Liberation Serif;font-variant:normal;font-weight:normal;font-style:normal;font-size:20px">14000000</text>
<path d="M124.71,682.22L132.71,682.22" style="fill:none;stroke:#000000;stroke-width:0.5" />
<path d="M124.71,913.65L132.71,913.65" style="fill:none;stroke:#000000;stroke-width:0.5" />
<path d="M124.71,1007.1L132.71,1007.1" style="fill:none;stroke:#000000;stroke-width:0.5" />
<path d="M128.71,835.19L132.71,835.19" style="fill:none;stroke:#000000;stroke-width:0.5" />
<path d="M128.71,966.82L132.71,966.82" style="fill:none;stroke:#000000;stroke-width:0.5" />
<path d="M132.71,80.11L132.71,1024.6" style="fill:none;stroke:#000000;stroke-width:0.5" />
<path d="M145.46,80.11L145.46,1024.6" style="fill:none;stroke:#808080;stroke-width:0.25" />
<path d="M339.86,80.11L339.86,1024.6" style="fill:none;stroke:#808080;stroke-width:0.25" />
<path d="M534.25,80.11L534.25,1024.6" style="fill:none;stroke:#808080;stroke-width:0.25" />
<path d="M728.64,80.11L728.64,1024.6" style="fill:none;stroke:#808080;stroke-width:0.25" />
<path d="M923.03,80.11L923.03,1024.6" style="fill:none;stroke:#808080;stroke-width:0.25" />
<path d="M1117.4,80.11L1117.4,1024.6" style="fill:none;stroke:#808080;stroke-width:0.25" />
<path d="M1311.8,80.11L1311.8,1024.6" style="fill:none;stroke:#808080;stroke-width:0.25" />
<path d="M1506.2,80.11L1506.2,1024.6" style="fill:none;stroke:#808080;stroke-width:0.25" />
<path d="M1700.6,80.11L1700.6,1024.6" style="fill:none;stroke:#808080;stroke-width:0.25" />
<path d="M1895,80.11L1895,1024.6" style="fill:none;stroke:#808080;stroke-width:0.25" />
<path d="M145.46,682.22L1895,682.22" style="fill:none;stroke:#808080;stroke-width:0.25" />
<path d="M145.46,913.65L1895,913.65" style="fill:none;stroke:#808080;stroke-width:0.25" />
<path d="M145.46,1007.1L1895,1007.1" style="fill:none;stroke:#808080;stroke-width:0.25" />
<path d="M145.46,116.17L339.86,349.65L534.25,488.82L728.64,605.41L923.03,712.72L1117.4,792.07L1311.8,852.15L1506.2,914.14L1700.6,975.8L1895,1008.4" style="fill:none;stroke:#FF0000;stroke-width:4" />
<path d="M150.46,116.17A5,5 0 1 1 140.46,116.17A5,5 0 1 1 150.46,116.17Z" style="fill:#FF0000" />
<path d="M344.86,349.65A5,5 0 1 1 334.86,349.65A5,5 0 1 1 344.86,349.65Z" style="fill:#FF0000" />
<path d="M539.25,488.82A5,5 0 1 1 529.25,488.82A5,5 0 1 1 539.25,488.82Z" style="fill:#FF0000" />
<path d="M733.64,605.41A5,5 0 1 1 723.64,605.41A5,5 0 1 1 733.64,605.41Z" style="fill:#FF0000" />
<path d="M928.03,712.72A5,5 0 1 1 918.03,712.72A5,5 0 1 1 928.03,712.72Z" style="fill:#FF0000" />
<path d="M1122.4,792.07A5,5 0 1 1 1112.4,792.07A5,5 0 1 1 1122.4,792.07Z" style="fill:#FF0000" />
<path d="M1316.8,852.15A5,5 0 1 1 1306.8,852.15A5,5 0 1 1 1316.8,852.15Z" style="fill:#FF0000" />
<path d="M1511.2,914.14A5,5 0 1 1 1501.2,914.14A5,5 0 1 1 1511.2,914.14Z" style="fill:#FF0000" />
<path d="M1705.6,975.8A5,5 0 1 1 1695.6,975.8A5,5 0 1 1 1705.6,975.8Z" style="fill:#FF0000" />
<path d="M1900,1008.4A5,5 0 1 1 1890,1008.4A5,5 0 1 1 1900,1008.4Z" style="fill:#FF0000" />
<path d="M145.46,80.11L339.86,341.33L534.25,521.33L728.64,630.81L923.03,724.79L1117.4,750.95L1311.8,830.62L1506.2,889.58L1700.6,945.77L1895,988.43" style="fill:none;stroke:#0000FF;stroke-width:4" />
<path d="M150.46,80.11A5,5 0 1 1 140.46,80.11A5,5 0 1 1 150.46,80.11Z" style="fill:#0000FF" />
<path d="M344.86,341.33A5,5 0 1 1 334.86,341.33A5,5 0 1 1 344.86,341.33Z" style="fill:#0000FF" />
<path d="M539.25,521.33A5,5 0 1 1 529.25,521.33A5,5 0 1 1 539.25,521.33Z" style="fill:#0000FF" />
<path d="M733.64,630.81A5,5 0 1 1 723.64,630.81A5,5 0 1 1 733.64,630.81Z" style="fill:#0000FF" />
<path d="M928.03,724.79A5,5 0 1 1 918.03,724.79A5,5 0 1 1 928.03,724.79Z" style="fill:#0000FF" />
<path d="M1122.4,750.95A5,5 0 1 1 1112.4,750.95A5,5 0 1 1 1122.4,750.95Z" style="fill:#0000FF" />
<path d="M1316.8,830.62A5,5 0 1 1 1306.8,830.62A5,5 0 1 1 1316.8,830.62Z" style="fill:#0000FF" />
<path d="M1511.2,889.58A5,5 0 1 1 1501.2,889.58A5,5 0 1 1 1511.2,889.58Z" style="fill:#0000FF" />
<path d="M1705.6,945.77A5,5 0 1 1 1695.6,945.77A5,5 0 1 1 1705.6,945.77Z" style="fill:#0000FF" />
<path d="M1900,988.43A5,5 0 1 1 1890,988.43A5,5 0 1 1 1900,988.43Z" style="fill:#0000FF" />
<path d="M145.46,125.48L339.86,390.37L534.25,501.85L728.64,643.84L923.03,724.61L1117.4,806.48L1311.8,862.83L1506.2,924.68L1700.6,961.96L1895,1008.7" style="fill:none;stroke:#00FF00;stroke-width:4" />
<path d="M150.46,125.48A5,5 0 1 1 140.46,125.48A5,5 0 1 1 150.46,125.48Z" style="fill:#00FF00" />
<path d="M344.86,390.37A5,5 0 1 1 334.86,390.37A5,5 0 1 1 344.86,390.37Z" style="fill:#00FF00" />
<path d="M539.25,501.85A5,5 0 1 1 529.25,501.85A5,5 0 1 1 539.25,501.85Z" style="fill:#00FF00" />
<path d="M733.64,643.84A5,5 0 1 1 723.64,643.84A5,5 0 1 1 733.64,643.84Z" style="fill:#00FF00" />
<path d="M928.03,724.61A5,5 0 1 1 918.03,724.61A5,5 0 1 1 928.03,724.61Z" style="fill:#00FF00" />
<path d="M1122.4,806.48A5,5 0 1 1 1112.4,806.48A5,5 0 1 1 1122.4,806.48Z" style="fill:#00FF00" />
<path d="M1316.8,862.83A5,5 0 1 1 1306.8,862.83A5,5 0 1 1 1316.8,862.83Z" style="fill:#00FF00" />
<path d="M1511.2,924.68A5,5 0 1 1 1501.2,924.68A5,5 0 1 1 1511.2,924.68Z" style="fill:#00FF00" />
<path d="M1705.6,961.96A5,5 0 1 1 1695.6,961.96A5,5 0 1 1 1705.6,961.96Z" style="fill:#00FF00" />
<path d="M1900,1008.7A5,5 0 1 1 1890,1008.7A5,5 0 1 1 1900,1008.7Z" style="fill:#00FF00" />
<path d="M1900,126.03L1920,126.03" style="fill:none;stroke:#FF0000;stroke-width:4" />
<path d="M1915,126.03A5,5 0 1 1 1905,126.03A5,5 0 1 1 1915,126.03Z" style="fill:#FF0000" />
<text x="1795.4" y="-121.05" transform="scale(1, -1)"
	style="font-family:Liberation Serif;font-variant:normal;font-weight:normal;font-style:normal;font-size:24px">std::deque</text>
<path d="M1900,105.66L1920,105.66" style="fill:none;stroke:#0000FF;stroke-width:4" />
<path d="M1915,105.66A5,5 0 1 1 1905,105.66A5,5 0 1 1 1915,105.66Z" style="fill:#0000FF" />
<text x="1792.7" y="-100.69" transform="scale(1, -1)"
	style="font-family:Liberation Serif;font-variant:normal;font-weight:normal;font-style:normal;font-size:24px">std::vector</text>
<path d="M1900,85.294L1920,85.294" style="fill:none;stroke:#00FF00;stroke-width:4" />
<path d="M1915,85.294A5,5 0 1 1 1905,85.294A5,5 0 1 1 1915,85.294Z" style="fill:#00FF00" />
<text x="1823.3" y="-80.319" transform="scale(1, -1)"
	style="font-family:Liberation Serif;font-variant:normal;font-weight:normal;font-style:normal;font-size:24px">std::list</text>
</g>
</svg>
