<?xml version="1.0"?>
<!-- Generated by SVGo and Plotinum VG -->
<svg width="1920pt" height="1080pt" viewBox="0 0 1920 1080"
	xmlns="http://www.w3.org/2000/svg"
	xmlns:xlink="http://www.w3.org/1999/xlink">
<g transform="scale(1, -1) translate(0, -1080)">
<path d="M0,0L1920,0L1920,1080L0,1080Z" style="fill:#FFFFFF" />
<text x="709.94" y="-1040.9" transform="scale(1, -1)"
	style="font-family:Liberation Serif;font-variant:normal;font-weight:normal;font-style:normal;font-size:50px">linear-search - Log Scale</text>
<text x="892.77" y="-9.7559" transform="scale(1, -1)"
	style="font-family:Liberation Serif;font-variant:normal;font-weight:normal;font-style:normal;font-size:30px">Number of elements</text>
<text x="115.46" y="-39.727" transform="scale(1, -1)"
	style="font-family:Liberation Serif;font-variant:normal;font-weight:normal;font-style:normal;font-size:20px">1000</text>
<text x="310.97" y="-39.727" transform="scale(1, -1)"
	style="font-family:Liberation Serif;font-variant:normal;font-weight:normal;font-style:normal;font-size:20px">2000</text>
<text x="506.47" y="-39.727" transform="scale(1, -1)"
	style="font-family:Liberation Serif;font-variant:normal;font-weight:normal;font-style:normal;font-size:20px">3000</text>
<text x="701.97" y="-39.727" transform="scale(1, -1)"
	style="font-family:Liberation Serif;font-variant:normal;font-weight:normal;font-style:normal;font-size:20px">4000</text>
<text x="897.48" y="-39.727" transform="scale(1, -1)"
	style="font-family:Liberation Serif;font-variant:normal;font-weight:normal;font-style:normal;font-size:20px">5000</text>
<text x="1093" y="-39.727" transform="scale(1, -1)"
	style="font-family:Liberation Serif;font-variant:normal;font-weight:normal;font-style:normal;font-size:20px">6000</text>
<text x="1288.5" y="-39.727" transform="scale(1, -1)"
	style="font-family:Liberation Serif;font-variant:normal;font-weight:normal;font-style:normal;font-size:20px">7000</text>
<text x="1484" y="-39.727" transform="scale(1, -1)"
	style="font-family:Liberation Serif;font-variant:normal;font-weight:normal;font-style:normal;font-size:20px">8000</text>
<text x="1679.5" y="-39.727" transform="scale(1, -1)"
	style="font-family:Liberation Serif;font-variant:normal;font-weight:normal;font-style:normal;font-size:20px">9000</text>
<text x="1870" y="-39.727" transform="scale(1, -1)"
	style="font-family:Liberation Serif;font-variant:normal;font-weight:normal;font-style:normal;font-size:20px">10000</text>
<path d="M135.46,55.371L135.46,63.371" style="fill:none;stroke:#000000;stroke-width:0.5" />
<path d="M330.97,55.371L330.97,63.371" style="fill:none;stroke:#000000;stroke-width:0.5" />
<path d="M526.47,55.371L526.47,63.371" style="fill:none;stroke:#000000;stroke-width:0.5" />
<path d="M721.97,55.371L721.97,63.371" style="fill:none;stroke:#000000;stroke-width:0.5" />
<path d="M917.48,55.371L917.48,63.371" style="fill:none;stroke:#000000;stroke-width:0.5" />
<path d="M1113,55.371L1113,63.371" style="fill:none;stroke:#000000;stroke-width:0.5" />
<path d="M1308.5,55.371L1308.5,63.371" style="fill:none;stroke:#000000;stroke-width:0.5" />
<path d="M1504,55.371L1504,63.371" style="fill:none;stroke:#000000;stroke-width:0.5" />
<path d="M1699.5,55.371L1699.5,63.371" style="fill:none;stroke:#000000;stroke-width:0.5" />
<path d="M1895,55.371L1895,63.371" style="fill:none;stroke:#000000;stroke-width:0.5" />
<path d="M135.46,63.371L1895,63.371" style="fill:none;stroke:#000000;stroke-width:0.5" />
<g transform="rotate(90)">
<text x="509.33" y="23.467" transform="scale(1, -1)"
	style="font-family:Liberation Serif;font-variant:normal;font-weight:normal;font-style:normal;font-size:30px">log(μs)</text>
</g>
<text x="49.712" y="-632.14" transform="scale(1, -1)"
	style="font-family:Liberation Serif;font-variant:normal;font-weight:normal;font-style:normal;font-size:20px">500000</text>
<text x="39.712" y="-888.97" transform="scale(1, -1)"
	style="font-family:Liberation Serif;font-variant:normal;font-weight:normal;font-style:normal;font-size:20px">2000000</text>
<text x="39.712" y="-992.64" transform="scale(1, -1)"
	style="font-family:Liberation Serif;font-variant:normal;font-weight:normal;font-style:normal;font-size:20px">3500000</text>
<path d="M114.71,636.71L122.71,636.71" style="fill:none;stroke:#000000;stroke-width:0.5" />
<path d="M114.71,893.54L122.71,893.54" style="fill:none;stroke:#000000;stroke-width:0.5" />
<path d="M114.71,997.21L122.71,997.21" style="fill:none;stroke:#000000;stroke-width:0.5" />
<path d="M118.71,806.46L122.71,806.46" style="fill:none;stroke:#000000;stroke-width:0.5" />
<path d="M118.71,952.54L122.71,952.54" style="fill:none;stroke:#000000;stroke-width:0.5" />
<path d="M122.71,80.11L122.71,1024.6" style="fill:none;stroke:#000000;stroke-width:0.5" />
<path d="M135.46,80.11L135.46,1024.6" style="fill:none;stroke:#808080;stroke-width:0.25" />
<path d="M330.97,80.11L330.97,1024.6" style="fill:none;stroke:#808080;stroke-width:0.25" />
<path d="M526.47,80.11L526.47,1024.6" style="fill:none;stroke:#808080;stroke-width:0.25" />
<path d="M721.97,80.11L721.97,1024.6" style="fill:none;stroke:#808080;stroke-width:0.25" />
<path d="M917.48,80.11L917.48,1024.6" style="fill:none;stroke:#808080;stroke-width:0.25" />
<path d="M1113,80.11L1113,1024.6" style="fill:none;stroke:#808080;stroke-width:0.25" />
<path d="M1308.5,80.11L1308.5,1024.6" style="fill:none;stroke:#808080;stroke-width:0.25" />
<path d="M1504,80.11L1504,1024.6" style="fill:none;stroke:#808080;stroke-width:0.25" />
<path d="M1699.5,80.11L1699.5,1024.6" style="fill:none;stroke:#808080;stroke-width:0.25" />
<path d="M1895,80.11L1895,1024.6" style="fill:none;stroke:#808080;stroke-width:0.25" />
<path d="M135.46,636.71L1895,636.71" style="fill:none;stroke:#808080;stroke-width:0.25" />
<path d="M135.46,893.54L1895,893.54" style="fill:none;stroke:#808080;stroke-width:0.25" />
<path d="M135.46,997.21L1895,997.21" style="fill:none;stroke:#808080;stroke-width:0.25" />
<path d="M135.46,80.11L330.97,335.37L526.47,516.57L721.97,609.21L917.48,704.84L1113,778.24L1308.5,830.12L1504,887.99L1699.5,935.92L1895,969.32" style="fill:none;stroke:#FF0000;stroke-width:4" />
<path d="M140.46,80.11A5,5 0 1 1 130.46,80.11A5,5 0 1 1 140.46,80.11Z" style="fill:#FF0000" />
<path d="M335.97,335.37A5,5 0 1 1 325.97,335.37A5,5 0 1 1 335.97,335.37Z" style="fill:#FF0000" />
<path d="M531.47,516.57A5,5 0 1 1 521.47,516.57A5,5 0 1 1 531.47,516.57Z" style="fill:#FF0000" />
<path d="M726.97,609.21A5,5 0 1 1 716.97,609.21A5,5 0 1 1 726.97,609.21Z" style="fill:#FF0000" />
<path d="M922.48,704.84A5,5 0 1 1 912.48,704.84A5,5 0 1 1 922.48,704.84Z" style="fill:#FF0000" />
<path d="M1118,778.24A5,5 0 1 1 1108,778.24A5,5 0 1 1 1118,778.24Z" style="fill:#FF0000" />
<path d="M1313.5,830.12A5,5 0 1 1 1303.5,830.12A5,5 0 1 1 1313.5,830.12Z" style="fill:#FF0000" />
<path d="M1509,887.99A5,5 0 1 1 1499,887.99A5,5 0 1 1 1509,887.99Z" style="fill:#FF0000" />
<path d="M1704.5,935.92A5,5 0 1 1 1694.5,935.92A5,5 0 1 1 1704.5,935.92Z" style="fill:#FF0000" />
<path d="M1900,969.32A5,5 0 1 1 1890,969.32A5,5 0 1 1 1900,969.32Z" style="fill:#FF0000" />
<path d="M135.46,82.959L330.97,359.76L526.47,502.27L721.97,610.68L917.48,692.4L1113,769.36L1308.5,846.16L1504,908.45L1699.5,964.22L1895,1007" style="fill:none;stroke:#0000FF;stroke-width:4" />
<path d="M140.46,82.959A5,5 0 1 1 130.46,82.959A5,5 0 1 1 140.46,82.959Z" style="fill:#0000FF" />
<path d="M335.97,359.76A5,5 0 1 1 325.97,359.76A5,5 0 1 1 335.97,359.76Z" style="fill:#0000FF" />
<path d="M531.47,502.27A5,5 0 1 1 521.47,502.27A5,5 0 1 1 531.47,502.27Z" style="fill:#0000FF" />
<path d="M726.97,610.68A5,5 0 1 1 716.97,610.68A5,5 0 1 1 726.97,610.68Z" style="fill:#0000FF" />
<path d="M922.48,692.4A5,5 0 1 1 912.48,692.4A5,5 0 1 1 922.48,692.4Z" style="fill:#0000FF" />
<path d="M1118,769.36A5,5 0 1 1 1108,769.36A5,5 0 1 1 1118,769.36Z" style="fill:#0000FF" />
<path d="M1313.5,846.16A5,5 0 1 1 1303.5,846.16A5,5 0 1 1 1313.5,846.16Z" style="fill:#0000FF" />
<path d="M1509,908.45A5,5 0 1 1 1499,908.45A5,5 0 1 1 1509,908.45Z" style="fill:#0000FF" />
<path d="M1704.5,964.22A5,5 0 1 1 1694.5,964.22A5,5 0 1 1 1704.5,964.22Z" style="fill:#0000FF" />
<path d="M1900,1007A5,5 0 1 1 1890,1007A5,5 0 1 1 1900,1007Z" style="fill:#0000FF" />
<path d="M135.46,127.07L330.97,385.73L526.47,521.77L721.97,650.72L917.48,700.06L1113,773.42L1308.5,824.55L1504,892.8L1699.5,912.73L1895,972.76" style="fill:none;stroke:#00FF00;stroke-width:4" />
<path d="M140.46,127.07A5,5 0 1 1 130.46,127.07A5,5 0 1 1 140.46,127.07Z" style="fill:#00FF00" />
<path d="M335.97,385.73A5,5 0 1 1 325.97,385.73A5,5 0 1 1 335.97,385.73Z" style="fill:#00FF00" />
<path d="M531.47,521.77A5,5 0 1 1 521.47,521.77A5,5 0 1 1 531.47,521.77Z" style="fill:#00FF00" />
<path d="M726.97,650.72A5,5 0 1 1 716.97,650.72A5,5 0 1 1 726.97,650.72Z" style="fill:#00FF00" />
<path d="M922.48,700.06A5,5 0 1 1 912.48,700.06A5,5 0 1 1 922.48,700.06Z" style="fill:#00FF00" />
<path d="M1118,773.42A5,5 0 1 1 1108,773.42A5,5 0 1 1 1118,773.42Z" style="fill:#00FF00" />
<path d="M1313.5,824.55A5,5 0 1 1 1303.5,824.55A5,5 0 1 1 1313.5,824.55Z" style="fill:#00FF00" />
<path d="M1509,892.8A5,5 0 1 1 1499,892.8A5,5 0 1 1 1509,892.8Z" style="fill:#00FF00" />
<path d="M1704.5,912.73A5,5 0 1 1 1694.5,912.73A5,5 0 1 1 1704.5,912.73Z" style="fill:#00FF00" />
<path d="M1900,972.76A5,5 0 1 1 1890,972.76A5,5 0 1 1 1900,972.76Z" style="fill:#00FF00" />
<path d="M1900,126.03L1920,126.03" style="fill:none;stroke:#FF0000;stroke-width:4" />
<path d="M1915,126.03A5,5 0 1 1 1905,126.03A5,5 0 1 1 1915,126.03Z" style="fill:#FF0000" />
<text x="1823.3" y="-121.05" transform="scale(1, -1)"
	style="font-family:Liberation Serif;font-variant:normal;font-weight:normal;font-style:normal;font-size:24px">std::list</text>
<path d="M1900,105.66L1920,105.66" style="fill:none;stroke:#0000FF;stroke-width:4" />
<path d="M1915,105.66A5,5 0 1 1 1905,105.66A5,5 0 1 1 1915,105.66Z" style="fill:#0000FF" />
<text x="1795.4" y="-100.69" transform="scale(1, -1)"
	style="font-family:Liberation Serif;font-variant:normal;font-weight:normal;font-style:normal;font-size:24px">std::deque</text>
<path d="M1900,85.294L1920,85.294" style="fill:none;stroke:#00FF00;stroke-width:4" />
<path d="M1915,85.294A5,5 0 1 1 1905,85.294A5,5 0 1 1 1915,85.294Z" style="fill:#00FF00" />
<text x="1792.7" y="-80.319" transform="scale(1, -1)"
	style="font-family:Liberation Serif;font-variant:normal;font-weight:normal;font-style:normal;font-size:24px">std::vector</text>
</g>
</svg>
