<?xml version="1.0"?>
<!-- Generated by SVGo and Plotinum VG -->
<svg width="1920pt" height="1080pt" viewBox="0 0 1920 1080"
	xmlns="http://www.w3.org/2000/svg"
	xmlns:xlink="http://www.w3.org/1999/xlink">
<g transform="scale(1, -1) translate(0, -1080)">
<path d="M0,0L1920,0L1920,1080L0,1080Z" style="fill:#FFFFFF" />
<text x="831.42" y="-1040.9" transform="scale(1, -1)"
	style="font-family:Liberation Serif;font-variant:normal;font-weight:normal;font-style:normal;font-size:50px">linear-search</text>
<text x="892.77" y="-9.7559" transform="scale(1, -1)"
	style="font-family:Liberation Serif;font-variant:normal;font-weight:normal;font-style:normal;font-size:30px">Number of elements</text>
<text x="115.46" y="-39.727" transform="scale(1, -1)"
	style="font-family:Liberation Serif;font-variant:normal;font-weight:normal;font-style:normal;font-size:20px">1000</text>
<text x="310.97" y="-39.727" transform="scale(1, -1)"
	style="font-family:Liberation Serif;font-variant:normal;font-weight:normal;font-style:normal;font-size:20px">2000</text>
<text x="506.47" y="-39.727" transform="scale(1, -1)"
	style="font-family:Liberation Serif;font-variant:normal;font-weight:normal;font-style:normal;font-size:20px">3000</text>
<text x="701.97" y="-39.727" transform="scale(1, -1)"
	style="font-family:Liberation Serif;font-variant:normal;font-weight:normal;font-style:normal;font-size:20px">4000</text>
<text x="897.48" y="-39.727" transform="scale(1, -1)"
	style="font-family:Liberation Serif;font-variant:normal;font-weight:normal;font-style:normal;font-size:20px">5000</text>
<text x="1093" y="-39.727" transform="scale(1, -1)"
	style="font-family:Liberation Serif;font-variant:normal;font-weight:normal;font-style:normal;font-size:20px">6000</text>
<text x="1288.5" y="-39.727" transform="scale(1, -1)"
	style="font-family:Liberation Serif;font-variant:normal;font-weight:normal;font-style:normal;font-size:20px">7000</text>
<text x="1484" y="-39.727" transform="scale(1, -1)"
	style="font-family:Liberation Serif;font-variant:normal;font-weight:normal;font-style:normal;font-size:20px">8000</text>
<text x="1679.5" y="-39.727" transform="scale(1, -1)"
	style="font-family:Liberation Serif;font-variant:normal;font-weight:normal;font-style:normal;font-size:20px">9000</text>
<text x="1870" y="-39.727" transform="scale(1, -1)"
	style="font-family:Liberation Serif;font-variant:normal;font-weight:normal;font-style:normal;font-size:20px">10000</text>
<path d="M135.46,55.371L135.46,63.371" style="fill:none;stroke:#000000;stroke-width:0.5" />
<path d="M330.97,55.371L330.97,63.371" style="fill:none;stroke:#000000;stroke-width:0.5" />
<path d="M526.47,55.371L526.47,63.371" style="fill:none;stroke:#000000;stroke-width:0.5" />
<path d="M721.97,55.371L721.97,63.371" style="fill:none;stroke:#000000;stroke-width:0.5" />
<path d="M917.48,55.371L917.48,63.371" style="fill:none;stroke:#000000;stroke-width:0.5" />
<path d="M1113,55.371L1113,63.371" style="fill:none;stroke:#000000;stroke-width:0.5" />
<path d="M1308.5,55.371L1308.5,63.371" style="fill:none;stroke:#000000;stroke-width:0.5" />
<path d="M1504,55.371L1504,63.371" style="fill:none;stroke:#000000;stroke-width:0.5" />
<path d="M1699.5,55.371L1699.5,63.371" style="fill:none;stroke:#000000;stroke-width:0.5" />
<path d="M1895,55.371L1895,63.371" style="fill:none;stroke:#000000;stroke-width:0.5" />
<path d="M135.46,63.371L1895,63.371" style="fill:none;stroke:#000000;stroke-width:0.5" />
<g transform="rotate(90)">
<text x="535.43" y="23.467" transform="scale(1, -1)"
	style="font-family:Liberation Serif;font-variant:normal;font-weight:normal;font-style:normal;font-size:30px">μs</text>
</g>
<text x="49.712" y="-202.42" transform="scale(1, -1)"
	style="font-family:Liberation Serif;font-variant:normal;font-weight:normal;font-style:normal;font-size:20px">200000</text>
<text x="49.712" y="-605.7" transform="scale(1, -1)"
	style="font-family:Liberation Serif;font-variant:normal;font-weight:normal;font-style:normal;font-size:20px">800000</text>
<text x="39.712" y="-1009" transform="scale(1, -1)"
	style="font-family:Liberation Serif;font-variant:normal;font-weight:normal;font-style:normal;font-size:20px">1400000</text>
<path d="M114.71,206.99L122.71,206.99" style="fill:none;stroke:#000000;stroke-width:0.5" />
<path d="M114.71,610.27L122.71,610.27" style="fill:none;stroke:#000000;stroke-width:0.5" />
<path d="M114.71,1013.6L122.71,1013.6" style="fill:none;stroke:#000000;stroke-width:0.5" />
<path d="M118.71,408.63L122.71,408.63" style="fill:none;stroke:#000000;stroke-width:0.5" />
<path d="M118.71,811.91L122.71,811.91" style="fill:none;stroke:#000000;stroke-width:0.5" />
<path d="M122.71,80.11L122.71,1018.5" style="fill:none;stroke:#000000;stroke-width:0.5" />
<path d="M135.46,80.11L135.46,1018.5" style="fill:none;stroke:#808080;stroke-width:0.25" />
<path d="M330.97,80.11L330.97,1018.5" style="fill:none;stroke:#808080;stroke-width:0.25" />
<path d="M526.47,80.11L526.47,1018.5" style="fill:none;stroke:#808080;stroke-width:0.25" />
<path d="M721.97,80.11L721.97,1018.5" style="fill:none;stroke:#808080;stroke-width:0.25" />
<path d="M917.48,80.11L917.48,1018.5" style="fill:none;stroke:#808080;stroke-width:0.25" />
<path d="M1113,80.11L1113,1018.5" style="fill:none;stroke:#808080;stroke-width:0.25" />
<path d="M1308.5,80.11L1308.5,1018.5" style="fill:none;stroke:#808080;stroke-width:0.25" />
<path d="M1504,80.11L1504,1018.5" style="fill:none;stroke:#808080;stroke-width:0.25" />
<path d="M1699.5,80.11L1699.5,1018.5" style="fill:none;stroke:#808080;stroke-width:0.25" />
<path d="M1895,80.11L1895,1018.5" style="fill:none;stroke:#808080;stroke-width:0.25" />
<path d="M135.46,206.99L1895,206.99" style="fill:none;stroke:#808080;stroke-width:0.25" />
<path d="M135.46,610.27L1895,610.27" style="fill:none;stroke:#808080;stroke-width:0.25" />
<path d="M135.46,1013.6L1895,1013.6" style="fill:none;stroke:#808080;stroke-width:0.25" />
<path d="M135.46,81.576L330.97,103.63L526.47,165.58L721.97,244.25L917.48,348.68L1113,371.79L1308.5,487.86L1504,654.31L1699.5,751.09L1895,932.51" style="fill:none;stroke:#FF0000;stroke-width:4" />
<path d="M140.46,81.576A5,5 0 1 1 130.46,81.576A5,5 0 1 1 140.46,81.576Z" style="fill:#FF0000" />
<path d="M335.97,103.63A5,5 0 1 1 325.97,103.63A5,5 0 1 1 335.97,103.63Z" style="fill:#FF0000" />
<path d="M531.47,165.58A5,5 0 1 1 521.47,165.58A5,5 0 1 1 531.47,165.58Z" style="fill:#FF0000" />
<path d="M726.97,244.25A5,5 0 1 1 716.97,244.25A5,5 0 1 1 726.97,244.25Z" style="fill:#FF0000" />
<path d="M922.48,348.68A5,5 0 1 1 912.48,348.68A5,5 0 1 1 922.48,348.68Z" style="fill:#FF0000" />
<path d="M1118,371.79A5,5 0 1 1 1108,371.79A5,5 0 1 1 1118,371.79Z" style="fill:#FF0000" />
<path d="M1313.5,487.86A5,5 0 1 1 1303.5,487.86A5,5 0 1 1 1313.5,487.86Z" style="fill:#FF0000" />
<path d="M1509,654.31A5,5 0 1 1 1499,654.31A5,5 0 1 1 1509,654.31Z" style="fill:#FF0000" />
<path d="M1704.5,751.09A5,5 0 1 1 1694.5,751.09A5,5 0 1 1 1704.5,751.09Z" style="fill:#FF0000" />
<path d="M1900,932.51A5,5 0 1 1 1890,932.51A5,5 0 1 1 1900,932.51Z" style="fill:#FF0000" />
<path d="M135.46,80.11L330.97,100.72L526.47,130.3L721.97,203.18L917.48,269.55L1113,336.12L1308.5,477.68L1504,541.89L1699.5,679.21L1895,796.86" style="fill:none;stroke:#0000FF;stroke-width:4" />
<path d="M140.46,80.11A5,5 0 1 1 130.46,80.11A5,5 0 1 1 140.46,80.11Z" style="fill:#0000FF" />
<path d="M335.97,100.72A5,5 0 1 1 325.97,100.72A5,5 0 1 1 335.97,100.72Z" style="fill:#0000FF" />
<path d="M531.47,130.3A5,5 0 1 1 521.47,130.3A5,5 0 1 1 531.47,130.3Z" style="fill:#0000FF" />
<path d="M726.97,203.18A5,5 0 1 1 716.97,203.18A5,5 0 1 1 726.97,203.18Z" style="fill:#0000FF" />
<path d="M922.48,269.55A5,5 0 1 1 912.48,269.55A5,5 0 1 1 922.48,269.55Z" style="fill:#0000FF" />
<path d="M1118,336.12A5,5 0 1 1 1108,336.12A5,5 0 1 1 1118,336.12Z" style="fill:#0000FF" />
<path d="M1313.5,477.68A5,5 0 1 1 1303.5,477.68A5,5 0 1 1 1313.5,477.68Z" style="fill:#0000FF" />
<path d="M1509,541.89A5,5 0 1 1 1499,541.89A5,5 0 1 1 1509,541.89Z" style="fill:#0000FF" />
<path d="M1704.5,679.21A5,5 0 1 1 1694.5,679.21A5,5 0 1 1 1704.5,679.21Z" style="fill:#0000FF" />
<path d="M1900,796.86A5,5 0 1 1 1890,796.86A5,5 0 1 1 1900,796.86Z" style="fill:#0000FF" />
<path d="M135.46,81.24L330.97,102.12L526.47,131.41L721.97,174.72L917.48,249.65L1113,336.53L1308.5,419.52L1504,587.47L1699.5,681.83L1895,846.47" style="fill:none;stroke:#00FF00;stroke-width:4" />
<path d="M140.46,81.24A5,5 0 1 1 130.46,81.24A5,5 0 1 1 140.46,81.24Z" style="fill:#00FF00" />
<path d="M335.97,102.12A5,5 0 1 1 325.97,102.12A5,5 0 1 1 335.97,102.12Z" style="fill:#00FF00" />
<path d="M531.47,131.41A5,5 0 1 1 521.47,131.41A5,5 0 1 1 531.47,131.41Z" style="fill:#00FF00" />
<path d="M726.97,174.72A5,5 0 1 1 716.97,174.72A5,5 0 1 1 726.97,174.72Z" style="fill:#00FF00" />
<path d="M922.48,249.65A5,5 0 1 1 912.48,249.65A5,5 0 1 1 922.48,249.65Z" style="fill:#00FF00" />
<path d="M1118,336.53A5,5 0 1 1 1108,336.53A5,5 0 1 1 1118,336.53Z" style="fill:#00FF00" />
<path d="M1313.5,419.52A5,5 0 1 1 1303.5,419.52A5,5 0 1 1 1313.5,419.52Z" style="fill:#00FF00" />
<path d="M1509,587.47A5,5 0 1 1 1499,587.47A5,5 0 1 1 1509,587.47Z" style="fill:#00FF00" />
<path d="M1704.5,681.83A5,5 0 1 1 1694.5,681.83A5,5 0 1 1 1704.5,681.83Z" style="fill:#00FF00" />
<path d="M1900,846.47A5,5 0 1 1 1890,846.47A5,5 0 1 1 1900,846.47Z" style="fill:#00FF00" />
<path d="M1900,126.03L1920,126.03" style="fill:none;stroke:#FF0000;stroke-width:4" />
<path d="M1915,126.03A5,5 0 1 1 1905,126.03A5,5 0 1 1 1915,126.03Z" style="fill:#FF0000" />
<text x="1823.3" y="-121.05" transform="scale(1, -1)"
	style="font-family:Liberation Serif;font-variant:normal;font-weight:normal;font-style:normal;font-size:24px">std::list</text>
<path d="M1900,105.66L1920,105.66" style="fill:none;stroke:#0000FF;stroke-width:4" />
<path d="M1915,105.66A5,5 0 1 1 1905,105.66A5,5 0 1 1 1915,105.66Z" style="fill:#0000FF" />
<text x="1795.4" y="-100.69" transform="scale(1, -1)"
	style="font-family:Liberation Serif;font-variant:normal;font-weight:normal;font-style:normal;font-size:24px">std::deque</text>
<path d="M1900,85.294L1920,85.294" style="fill:none;stroke:#00FF00;stroke-width:4" />
<path d="M1915,85.294A5,5 0 1 1 1905,85.294A5,5 0 1 1 1915,85.294Z" style="fill:#00FF00" />
<text x="1792.7" y="-80.319" transform="scale(1, -1)"
	style="font-family:Liberation Serif;font-variant:normal;font-weight:normal;font-style:normal;font-size:24px">std::vector</text>
</g>
</svg>
