<?xml version="1.0"?>
<!-- Generated by SVGo and Plotinum VG -->
<svg width="1920pt" height="1080pt" viewBox="0 0 1920 1080"
	xmlns="http://www.w3.org/2000/svg"
	xmlns:xlink="http://www.w3.org/1999/xlink">
<g transform="scale(1, -1) translate(0, -1080)">
<path d="M0,0L1920,0L1920,1080L0,1080Z" style="fill:#FFFFFF" />
<text x="831.42" y="-1040.9" transform="scale(1, -1)"
	style="font-family:Liberation Serif;font-variant:normal;font-weight:normal;font-style:normal;font-size:50px">linear-search</text>
<text x="897.77" y="-9.7559" transform="scale(1, -1)"
	style="font-family:Liberation Serif;font-variant:normal;font-weight:normal;font-style:normal;font-size:30px">Number of elements</text>
<text x="125.46" y="-39.727" transform="scale(1, -1)"
	style="font-family:Liberation Serif;font-variant:normal;font-weight:normal;font-style:normal;font-size:20px">1000</text>
<text x="319.86" y="-39.727" transform="scale(1, -1)"
	style="font-family:Liberation Serif;font-variant:normal;font-weight:normal;font-style:normal;font-size:20px">2000</text>
<text x="514.25" y="-39.727" transform="scale(1, -1)"
	style="font-family:Liberation Serif;font-variant:normal;font-weight:normal;font-style:normal;font-size:20px">3000</text>
<text x="708.64" y="-39.727" transform="scale(1, -1)"
	style="font-family:Liberation Serif;font-variant:normal;font-weight:normal;font-style:normal;font-size:20px">4000</text>
<text x="903.03" y="-39.727" transform="scale(1, -1)"
	style="font-family:Liberation Serif;font-variant:normal;font-weight:normal;font-style:normal;font-size:20px">5000</text>
<text x="1097.4" y="-39.727" transform="scale(1, -1)"
	style="font-family:Liberation Serif;font-variant:normal;font-weight:normal;font-style:normal;font-size:20px">6000</text>
<text x="1291.8" y="-39.727" transform="scale(1, -1)"
	style="font-family:Liberation Serif;font-variant:normal;font-weight:normal;font-style:normal;font-size:20px">7000</text>
<text x="1486.2" y="-39.727" transform="scale(1, -1)"
	style="font-family:Liberation Serif;font-variant:normal;font-weight:normal;font-style:normal;font-size:20px">8000</text>
<text x="1680.6" y="-39.727" transform="scale(1, -1)"
	style="font-family:Liberation Serif;font-variant:normal;font-weight:normal;font-style:normal;font-size:20px">9000</text>
<text x="1870" y="-39.727" transform="scale(1, -1)"
	style="font-family:Liberation Serif;font-variant:normal;font-weight:normal;font-style:normal;font-size:20px">10000</text>
<path d="M145.46,55.371L145.46,63.371" style="fill:none;stroke:#000000;stroke-width:0.5" />
<path d="M339.86,55.371L339.86,63.371" style="fill:none;stroke:#000000;stroke-width:0.5" />
<path d="M534.25,55.371L534.25,63.371" style="fill:none;stroke:#000000;stroke-width:0.5" />
<path d="M728.64,55.371L728.64,63.371" style="fill:none;stroke:#000000;stroke-width:0.5" />
<path d="M923.03,55.371L923.03,63.371" style="fill:none;stroke:#000000;stroke-width:0.5" />
<path d="M1117.4,55.371L1117.4,63.371" style="fill:none;stroke:#000000;stroke-width:0.5" />
<path d="M1311.8,55.371L1311.8,63.371" style="fill:none;stroke:#000000;stroke-width:0.5" />
<path d="M1506.2,55.371L1506.2,63.371" style="fill:none;stroke:#000000;stroke-width:0.5" />
<path d="M1700.6,55.371L1700.6,63.371" style="fill:none;stroke:#000000;stroke-width:0.5" />
<path d="M1895,55.371L1895,63.371" style="fill:none;stroke:#000000;stroke-width:0.5" />
<path d="M145.46,63.371L1895,63.371" style="fill:none;stroke:#000000;stroke-width:0.5" />
<g transform="rotate(90)">
<text x="538.49" y="23.467" transform="scale(1, -1)"
	style="font-family:Liberation Serif;font-variant:normal;font-weight:normal;font-style:normal;font-size:30px">μs</text>
</g>
<text x="49.712" y="-233.99" transform="scale(1, -1)"
	style="font-family:Liberation Serif;font-variant:normal;font-weight:normal;font-style:normal;font-size:20px">2000000</text>
<text x="49.712" y="-559.44" transform="scale(1, -1)"
	style="font-family:Liberation Serif;font-variant:normal;font-weight:normal;font-style:normal;font-size:20px">6000000</text>
<text x="39.712" y="-884.88" transform="scale(1, -1)"
	style="font-family:Liberation Serif;font-variant:normal;font-weight:normal;font-style:normal;font-size:20px">10000000</text>
<path d="M124.71,238.56L132.71,238.56" style="fill:none;stroke:#000000;stroke-width:0.5" />
<path d="M124.71,564.01L132.71,564.01" style="fill:none;stroke:#000000;stroke-width:0.5" />
<path d="M124.71,889.45L132.71,889.45" style="fill:none;stroke:#000000;stroke-width:0.5" />
<path d="M128.71,157.2L132.71,157.2" style="fill:none;stroke:#000000;stroke-width:0.5" />
<path d="M128.71,319.92L132.71,319.92" style="fill:none;stroke:#000000;stroke-width:0.5" />
<path d="M128.71,401.28L132.71,401.28" style="fill:none;stroke:#000000;stroke-width:0.5" />
<path d="M128.71,482.65L132.71,482.65" style="fill:none;stroke:#000000;stroke-width:0.5" />
<path d="M128.71,645.37L132.71,645.37" style="fill:none;stroke:#000000;stroke-width:0.5" />
<path d="M128.71,726.73L132.71,726.73" style="fill:none;stroke:#000000;stroke-width:0.5" />
<path d="M128.71,808.09L132.71,808.09" style="fill:none;stroke:#000000;stroke-width:0.5" />
<path d="M128.71,970.81L132.71,970.81" style="fill:none;stroke:#000000;stroke-width:0.5" />
<path d="M132.71,80.11L132.71,1024.6" style="fill:none;stroke:#000000;stroke-width:0.5" />
<path d="M145.46,80.11L145.46,1024.6" style="fill:none;stroke:#808080;stroke-width:0.25" />
<path d="M339.86,80.11L339.86,1024.6" style="fill:none;stroke:#808080;stroke-width:0.25" />
<path d="M534.25,80.11L534.25,1024.6" style="fill:none;stroke:#808080;stroke-width:0.25" />
<path d="M728.64,80.11L728.64,1024.6" style="fill:none;stroke:#808080;stroke-width:0.25" />
<path d="M923.03,80.11L923.03,1024.6" style="fill:none;stroke:#808080;stroke-width:0.25" />
<path d="M1117.4,80.11L1117.4,1024.6" style="fill:none;stroke:#808080;stroke-width:0.25" />
<path d="M1311.8,80.11L1311.8,1024.6" style="fill:none;stroke:#808080;stroke-width:0.25" />
<path d="M1506.2,80.11L1506.2,1024.6" style="fill:none;stroke:#808080;stroke-width:0.25" />
<path d="M1700.6,80.11L1700.6,1024.6" style="fill:none;stroke:#808080;stroke-width:0.25" />
<path d="M1895,80.11L1895,1024.6" style="fill:none;stroke:#808080;stroke-width:0.25" />
<path d="M145.46,238.56L1895,238.56" style="fill:none;stroke:#808080;stroke-width:0.25" />
<path d="M145.46,564.01L1895,564.01" style="fill:none;stroke:#808080;stroke-width:0.25" />
<path d="M145.46,889.45L1895,889.45" style="fill:none;stroke:#808080;stroke-width:0.25" />
<path d="M145.46,80.11L339.86,95.415L534.25,119.03L728.64,156.63L923.03,213.8L1117.4,307.5L1311.8,429.45L1506.2,576.62L1700.6,740.43L1895,923.01" style="fill:none;stroke:#FF0000;stroke-width:4" />
<path d="M150.46,80.11A5,5 0 1 1 140.46,80.11A5,5 0 1 1 150.46,80.11Z" style="fill:#FF0000" />
<path d="M344.86,95.415A5,5 0 1 1 334.86,95.415A5,5 0 1 1 344.86,95.415Z" style="fill:#FF0000" />
<path d="M539.25,119.03A5,5 0 1 1 529.25,119.03A5,5 0 1 1 539.25,119.03Z" style="fill:#FF0000" />
<path d="M733.64,156.63A5,5 0 1 1 723.64,156.63A5,5 0 1 1 733.64,156.63Z" style="fill:#FF0000" />
<path d="M928.03,213.8A5,5 0 1 1 918.03,213.8A5,5 0 1 1 928.03,213.8Z" style="fill:#FF0000" />
<path d="M1122.4,307.5A5,5 0 1 1 1112.4,307.5A5,5 0 1 1 1122.4,307.5Z" style="fill:#FF0000" />
<path d="M1316.8,429.45A5,5 0 1 1 1306.8,429.45A5,5 0 1 1 1316.8,429.45Z" style="fill:#FF0000" />
<path d="M1511.2,576.62A5,5 0 1 1 1501.2,576.62A5,5 0 1 1 1511.2,576.62Z" style="fill:#FF0000" />
<path d="M1705.6,740.43A5,5 0 1 1 1695.6,740.43A5,5 0 1 1 1705.6,740.43Z" style="fill:#FF0000" />
<path d="M1900,923.01A5,5 0 1 1 1890,923.01A5,5 0 1 1 1900,923.01Z" style="fill:#FF0000" />
<path d="M145.46,80.324L339.86,95.412L534.25,120.59L728.64,159.39L923.03,218.46L1117.4,312.42L1311.8,435.39L1506.2,581.6L1700.6,747.9L1895,938.38" style="fill:none;stroke:#0000FF;stroke-width:4" />
<path d="M150.46,80.324A5,5 0 1 1 140.46,80.324A5,5 0 1 1 150.46,80.324Z" style="fill:#0000FF" />
<path d="M344.86,95.412A5,5 0 1 1 334.86,95.412A5,5 0 1 1 344.86,95.412Z" style="fill:#0000FF" />
<path d="M539.25,120.59A5,5 0 1 1 529.25,120.59A5,5 0 1 1 539.25,120.59Z" style="fill:#0000FF" />
<path d="M733.64,159.39A5,5 0 1 1 723.64,159.39A5,5 0 1 1 733.64,159.39Z" style="fill:#0000FF" />
<path d="M928.03,218.46A5,5 0 1 1 918.03,218.46A5,5 0 1 1 928.03,218.46Z" style="fill:#0000FF" />
<path d="M1122.4,312.42A5,5 0 1 1 1112.4,312.42A5,5 0 1 1 1122.4,312.42Z" style="fill:#0000FF" />
<path d="M1316.8,435.39A5,5 0 1 1 1306.8,435.39A5,5 0 1 1 1316.8,435.39Z" style="fill:#0000FF" />
<path d="M1511.2,581.6A5,5 0 1 1 1501.2,581.6A5,5 0 1 1 1511.2,581.6Z" style="fill:#0000FF" />
<path d="M1705.6,747.9A5,5 0 1 1 1695.6,747.9A5,5 0 1 1 1705.6,747.9Z" style="fill:#0000FF" />
<path d="M1900,938.38A5,5 0 1 1 1890,938.38A5,5 0 1 1 1900,938.38Z" style="fill:#0000FF" />
<path d="M145.46,80.355L339.86,95.18L534.25,118.48L728.64,157.49L923.03,216.72L1117.4,301.44L1311.8,421.91L1506.2,567.19L1700.6,721.98L1895,898.15" style="fill:none;stroke:#00FF00;stroke-width:4" />
<path d="M150.46,80.355A5,5 0 1 1 140.46,80.355A5,5 0 1 1 150.46,80.355Z" style="fill:#00FF00" />
<path d="M344.86,95.18A5,5 0 1 1 334.86,95.18A5,5 0 1 1 344.86,95.18Z" style="fill:#00FF00" />
<path d="M539.25,118.48A5,5 0 1 1 529.25,118.48A5,5 0 1 1 539.25,118.48Z" style="fill:#00FF00" />
<path d="M733.64,157.49A5,5 0 1 1 723.64,157.49A5,5 0 1 1 733.64,157.49Z" style="fill:#00FF00" />
<path d="M928.03,216.72A5,5 0 1 1 918.03,216.72A5,5 0 1 1 928.03,216.72Z" style="fill:#00FF00" />
<path d="M1122.4,301.44A5,5 0 1 1 1112.4,301.44A5,5 0 1 1 1122.4,301.44Z" style="fill:#00FF00" />
<path d="M1316.8,421.91A5,5 0 1 1 1306.8,421.91A5,5 0 1 1 1316.8,421.91Z" style="fill:#00FF00" />
<path d="M1511.2,567.19A5,5 0 1 1 1501.2,567.19A5,5 0 1 1 1511.2,567.19Z" style="fill:#00FF00" />
<path d="M1705.6,721.98A5,5 0 1 1 1695.6,721.98A5,5 0 1 1 1705.6,721.98Z" style="fill:#00FF00" />
<path d="M1900,898.15A5,5 0 1 1 1890,898.15A5,5 0 1 1 1900,898.15Z" style="fill:#00FF00" />
<path d="M1900,126.03L1920,126.03" style="fill:none;stroke:#FF0000;stroke-width:4" />
<path d="M1915,126.03A5,5 0 1 1 1905,126.03A5,5 0 1 1 1915,126.03Z" style="fill:#FF0000" />
<text x="1823.3" y="-121.05" transform="scale(1, -1)"
	style="font-family:Liberation Serif;font-variant:normal;font-weight:normal;font-style:normal;font-size:24px">std::list</text>
<path d="M1900,105.66L1920,105.66" style="fill:none;stroke:#0000FF;stroke-width:4" />
<path d="M1915,105.66A5,5 0 1 1 1905,105.66A5,5 0 1 1 1915,105.66Z" style="fill:#0000FF" />
<text x="1795.4" y="-100.69" transform="scale(1, -1)"
	style="font-family:Liberation Serif;font-variant:normal;font-weight:normal;font-style:normal;font-size:24px">std::deque</text>
<path d="M1900,85.294L1920,85.294" style="fill:none;stroke:#00FF00;stroke-width:4" />
<path d="M1915,85.294A5,5 0 1 1 1905,85.294A5,5 0 1 1 1915,85.294Z" style="fill:#00FF00" />
<text x="1792.7" y="-80.319" transform="scale(1, -1)"
	style="font-family:Liberation Serif;font-variant:normal;font-weight:normal;font-style:normal;font-size:24px">std::vector</text>
</g>
</svg>
