<?xml version="1.0"?>
<!-- Generated by SVGo and Plotinum VG -->
<svg width="1920pt" height="1080pt" viewBox="0 0 1920 1080"
	xmlns="http://www.w3.org/2000/svg"
	xmlns:xlink="http://www.w3.org/1999/xlink">
<g transform="scale(1, -1) translate(0, -1080)">
<path d="M0,0L1920,0L1920,1080L0,1080Z" style="fill:#FFFFFF" />
<text x="709.94" y="-1040.9" transform="scale(1, -1)"
	style="font-family:Liberation Serif;font-variant:normal;font-weight:normal;font-style:normal;font-size:50px">linear-search - Log Scale</text>
<text x="892.77" y="-9.7559" transform="scale(1, -1)"
	style="font-family:Liberation Serif;font-variant:normal;font-weight:normal;font-style:normal;font-size:30px">Number of elements</text>
<text x="115.46" y="-39.727" transform="scale(1, -1)"
	style="font-family:Liberation Serif;font-variant:normal;font-weight:normal;font-style:normal;font-size:20px">1000</text>
<text x="310.97" y="-39.727" transform="scale(1, -1)"
	style="font-family:Liberation Serif;font-variant:normal;font-weight:normal;font-style:normal;font-size:20px">2000</text>
<text x="506.47" y="-39.727" transform="scale(1, -1)"
	style="font-family:Liberation Serif;font-variant:normal;font-weight:normal;font-style:normal;font-size:20px">3000</text>
<text x="701.97" y="-39.727" transform="scale(1, -1)"
	style="font-family:Liberation Serif;font-variant:normal;font-weight:normal;font-style:normal;font-size:20px">4000</text>
<text x="897.48" y="-39.727" transform="scale(1, -1)"
	style="font-family:Liberation Serif;font-variant:normal;font-weight:normal;font-style:normal;font-size:20px">5000</text>
<text x="1093" y="-39.727" transform="scale(1, -1)"
	style="font-family:Liberation Serif;font-variant:normal;font-weight:normal;font-style:normal;font-size:20px">6000</text>
<text x="1288.5" y="-39.727" transform="scale(1, -1)"
	style="font-family:Liberation Serif;font-variant:normal;font-weight:normal;font-style:normal;font-size:20px">7000</text>
<text x="1484" y="-39.727" transform="scale(1, -1)"
	style="font-family:Liberation Serif;font-variant:normal;font-weight:normal;font-style:normal;font-size:20px">8000</text>
<text x="1679.5" y="-39.727" transform="scale(1, -1)"
	style="font-family:Liberation Serif;font-variant:normal;font-weight:normal;font-style:normal;font-size:20px">9000</text>
<text x="1870" y="-39.727" transform="scale(1, -1)"
	style="font-family:Liberation Serif;font-variant:normal;font-weight:normal;font-style:normal;font-size:20px">10000</text>
<path d="M135.46,55.371L135.46,63.371" style="fill:none;stroke:#000000;stroke-width:0.5" />
<path d="M330.97,55.371L330.97,63.371" style="fill:none;stroke:#000000;stroke-width:0.5" />
<path d="M526.47,55.371L526.47,63.371" style="fill:none;stroke:#000000;stroke-width:0.5" />
<path d="M721.97,55.371L721.97,63.371" style="fill:none;stroke:#000000;stroke-width:0.5" />
<path d="M917.48,55.371L917.48,63.371" style="fill:none;stroke:#000000;stroke-width:0.5" />
<path d="M1113,55.371L1113,63.371" style="fill:none;stroke:#000000;stroke-width:0.5" />
<path d="M1308.5,55.371L1308.5,63.371" style="fill:none;stroke:#000000;stroke-width:0.5" />
<path d="M1504,55.371L1504,63.371" style="fill:none;stroke:#000000;stroke-width:0.5" />
<path d="M1699.5,55.371L1699.5,63.371" style="fill:none;stroke:#000000;stroke-width:0.5" />
<path d="M1895,55.371L1895,63.371" style="fill:none;stroke:#000000;stroke-width:0.5" />
<path d="M135.46,63.371L1895,63.371" style="fill:none;stroke:#000000;stroke-width:0.5" />
<g transform="rotate(90)">
<text x="509.33" y="23.467" transform="scale(1, -1)"
	style="font-family:Liberation Serif;font-variant:normal;font-weight:normal;font-style:normal;font-size:30px">log(μs)</text>
</g>
<text x="49.712" y="-699.47" transform="scale(1, -1)"
	style="font-family:Liberation Serif;font-variant:normal;font-weight:normal;font-style:normal;font-size:20px">300000</text>
<text x="49.712" y="-909.71" transform="scale(1, -1)"
	style="font-family:Liberation Serif;font-variant:normal;font-weight:normal;font-style:normal;font-size:20px">900000</text>
<text x="39.712" y="-1007.5" transform="scale(1, -1)"
	style="font-family:Liberation Serif;font-variant:normal;font-weight:normal;font-style:normal;font-size:20px">1500000</text>
<path d="M114.71,704.04L122.71,704.04" style="fill:none;stroke:#000000;stroke-width:0.5" />
<path d="M114.71,914.28L122.71,914.28" style="fill:none;stroke:#000000;stroke-width:0.5" />
<path d="M114.71,1012L122.71,1012" style="fill:none;stroke:#000000;stroke-width:0.5" />
<path d="M118.71,836.68L122.71,836.68" style="fill:none;stroke:#000000;stroke-width:0.5" />
<path d="M118.71,969.33L122.71,969.33" style="fill:none;stroke:#000000;stroke-width:0.5" />
<path d="M122.71,80.11L122.71,1024.6" style="fill:none;stroke:#000000;stroke-width:0.5" />
<path d="M135.46,80.11L135.46,1024.6" style="fill:none;stroke:#808080;stroke-width:0.25" />
<path d="M330.97,80.11L330.97,1024.6" style="fill:none;stroke:#808080;stroke-width:0.25" />
<path d="M526.47,80.11L526.47,1024.6" style="fill:none;stroke:#808080;stroke-width:0.25" />
<path d="M721.97,80.11L721.97,1024.6" style="fill:none;stroke:#808080;stroke-width:0.25" />
<path d="M917.48,80.11L917.48,1024.6" style="fill:none;stroke:#808080;stroke-width:0.25" />
<path d="M1113,80.11L1113,1024.6" style="fill:none;stroke:#808080;stroke-width:0.25" />
<path d="M1308.5,80.11L1308.5,1024.6" style="fill:none;stroke:#808080;stroke-width:0.25" />
<path d="M1504,80.11L1504,1024.6" style="fill:none;stroke:#808080;stroke-width:0.25" />
<path d="M1699.5,80.11L1699.5,1024.6" style="fill:none;stroke:#808080;stroke-width:0.25" />
<path d="M1895,80.11L1895,1024.6" style="fill:none;stroke:#808080;stroke-width:0.25" />
<path d="M135.46,704.04L1895,704.04" style="fill:none;stroke:#808080;stroke-width:0.25" />
<path d="M135.46,914.28L1895,914.28" style="fill:none;stroke:#808080;stroke-width:0.25" />
<path d="M135.46,1012L1895,1012" style="fill:none;stroke:#808080;stroke-width:0.25" />
<path d="M135.46,86.695L330.97,341.81L526.47,507.4L721.97,631.42L917.48,734.85L1113,815.14L1308.5,859.97L1504,880.27L1699.5,946.7L1895,994.8" style="fill:none;stroke:#FF0000;stroke-width:4" />
<path d="M140.46,86.695A5,5 0 1 1 130.46,86.695A5,5 0 1 1 140.46,86.695Z" style="fill:#FF0000" />
<path d="M335.97,341.81A5,5 0 1 1 325.97,341.81A5,5 0 1 1 335.97,341.81Z" style="fill:#FF0000" />
<path d="M531.47,507.4A5,5 0 1 1 521.47,507.4A5,5 0 1 1 531.47,507.4Z" style="fill:#FF0000" />
<path d="M726.97,631.42A5,5 0 1 1 716.97,631.42A5,5 0 1 1 726.97,631.42Z" style="fill:#FF0000" />
<path d="M922.48,734.85A5,5 0 1 1 912.48,734.85A5,5 0 1 1 922.48,734.85Z" style="fill:#FF0000" />
<path d="M1118,815.14A5,5 0 1 1 1108,815.14A5,5 0 1 1 1118,815.14Z" style="fill:#FF0000" />
<path d="M1313.5,859.97A5,5 0 1 1 1303.5,859.97A5,5 0 1 1 1313.5,859.97Z" style="fill:#FF0000" />
<path d="M1509,880.27A5,5 0 1 1 1499,880.27A5,5 0 1 1 1509,880.27Z" style="fill:#FF0000" />
<path d="M1704.5,946.7A5,5 0 1 1 1694.5,946.7A5,5 0 1 1 1704.5,946.7Z" style="fill:#FF0000" />
<path d="M1900,994.8A5,5 0 1 1 1890,994.8A5,5 0 1 1 1900,994.8Z" style="fill:#FF0000" />
<path d="M135.46,80.11L330.97,312.13L526.47,474.18L721.97,586.96L917.48,674.59L1113,744.56L1308.5,830.69L1504,886.06L1699.5,945.25L1895,961.41" style="fill:none;stroke:#0000FF;stroke-width:4" />
<path d="M140.46,80.11A5,5 0 1 1 130.46,80.11A5,5 0 1 1 140.46,80.11Z" style="fill:#0000FF" />
<path d="M335.97,312.13A5,5 0 1 1 325.97,312.13A5,5 0 1 1 335.97,312.13Z" style="fill:#0000FF" />
<path d="M531.47,474.18A5,5 0 1 1 521.47,474.18A5,5 0 1 1 531.47,474.18Z" style="fill:#0000FF" />
<path d="M726.97,586.96A5,5 0 1 1 716.97,586.96A5,5 0 1 1 726.97,586.96Z" style="fill:#0000FF" />
<path d="M922.48,674.59A5,5 0 1 1 912.48,674.59A5,5 0 1 1 922.48,674.59Z" style="fill:#0000FF" />
<path d="M1118,744.56A5,5 0 1 1 1108,744.56A5,5 0 1 1 1118,744.56Z" style="fill:#0000FF" />
<path d="M1313.5,830.69A5,5 0 1 1 1303.5,830.69A5,5 0 1 1 1313.5,830.69Z" style="fill:#0000FF" />
<path d="M1509,886.06A5,5 0 1 1 1499,886.06A5,5 0 1 1 1509,886.06Z" style="fill:#0000FF" />
<path d="M1704.5,945.25A5,5 0 1 1 1694.5,945.25A5,5 0 1 1 1704.5,945.25Z" style="fill:#0000FF" />
<path d="M1900,961.41A5,5 0 1 1 1890,961.41A5,5 0 1 1 1900,961.41Z" style="fill:#0000FF" />
<path d="M135.46,135.61L330.97,352.3L526.47,523.16L721.97,633.16L917.48,729.33L1113,785.42L1308.5,877.29L1504,924.76L1699.5,974.63L1895,1006.4" style="fill:none;stroke:#00FF00;stroke-width:4" />
<path d="M140.46,135.61A5,5 0 1 1 130.46,135.61A5,5 0 1 1 140.46,135.61Z" style="fill:#00FF00" />
<path d="M335.97,352.3A5,5 0 1 1 325.97,352.3A5,5 0 1 1 335.97,352.3Z" style="fill:#00FF00" />
<path d="M531.47,523.16A5,5 0 1 1 521.47,523.16A5,5 0 1 1 531.47,523.16Z" style="fill:#00FF00" />
<path d="M726.97,633.16A5,5 0 1 1 716.97,633.16A5,5 0 1 1 726.97,633.16Z" style="fill:#00FF00" />
<path d="M922.48,729.33A5,5 0 1 1 912.48,729.33A5,5 0 1 1 922.48,729.33Z" style="fill:#00FF00" />
<path d="M1118,785.42A5,5 0 1 1 1108,785.42A5,5 0 1 1 1118,785.42Z" style="fill:#00FF00" />
<path d="M1313.5,877.29A5,5 0 1 1 1303.5,877.29A5,5 0 1 1 1313.5,877.29Z" style="fill:#00FF00" />
<path d="M1509,924.76A5,5 0 1 1 1499,924.76A5,5 0 1 1 1509,924.76Z" style="fill:#00FF00" />
<path d="M1704.5,974.63A5,5 0 1 1 1694.5,974.63A5,5 0 1 1 1704.5,974.63Z" style="fill:#00FF00" />
<path d="M1900,1006.4A5,5 0 1 1 1890,1006.4A5,5 0 1 1 1900,1006.4Z" style="fill:#00FF00" />
<path d="M1900,126.03L1920,126.03" style="fill:none;stroke:#FF0000;stroke-width:4" />
<path d="M1915,126.03A5,5 0 1 1 1905,126.03A5,5 0 1 1 1915,126.03Z" style="fill:#FF0000" />
<text x="1795.4" y="-121.05" transform="scale(1, -1)"
	style="font-family:Liberation Serif;font-variant:normal;font-weight:normal;font-style:normal;font-size:24px">std::deque</text>
<path d="M1900,105.66L1920,105.66" style="fill:none;stroke:#0000FF;stroke-width:4" />
<path d="M1915,105.66A5,5 0 1 1 1905,105.66A5,5 0 1 1 1915,105.66Z" style="fill:#0000FF" />
<text x="1792.7" y="-100.69" transform="scale(1, -1)"
	style="font-family:Liberation Serif;font-variant:normal;font-weight:normal;font-style:normal;font-size:24px">std::vector</text>
<path d="M1900,85.294L1920,85.294" style="fill:none;stroke:#00FF00;stroke-width:4" />
<path d="M1915,85.294A5,5 0 1 1 1905,85.294A5,5 0 1 1 1915,85.294Z" style="fill:#00FF00" />
<text x="1823.3" y="-80.319" transform="scale(1, -1)"
	style="font-family:Liberation Serif;font-variant:normal;font-weight:normal;font-style:normal;font-size:24px">std::list</text>
</g>
</svg>
