<?xml version="1.0"?>
<!-- Generated by SVGo and Plotinum VG -->
<svg width="1920pt" height="1080pt" viewBox="0 0 1920 1080"
	xmlns="http://www.w3.org/2000/svg"
	xmlns:xlink="http://www.w3.org/1999/xlink">
<g transform="scale(1, -1) translate(0, -1080)">
<path d="M0,0L1920,0L1920,1080L0,1080Z" style="fill:#FFFFFF" />
<text x="717.76" y="-1040.9" transform="scale(1, -1)"
	style="font-family:Liberation Serif;font-variant:normal;font-weight:normal;font-style:normal;font-size:50px">linearsearch - Log Scale</text>
<text x="904.02" y="-9.7559" transform="scale(1, -1)"
	style="font-family:Liberation Serif;font-variant:normal;font-weight:normal;font-style:normal;font-size:30px">Number of elements</text>
<text x="137.96" y="-39.727" transform="scale(1, -1)"
	style="font-family:Liberation Serif;font-variant:normal;font-weight:normal;font-style:normal;font-size:20px">1000</text>
<text x="330.97" y="-39.727" transform="scale(1, -1)"
	style="font-family:Liberation Serif;font-variant:normal;font-weight:normal;font-style:normal;font-size:20px">2000</text>
<text x="523.97" y="-39.727" transform="scale(1, -1)"
	style="font-family:Liberation Serif;font-variant:normal;font-weight:normal;font-style:normal;font-size:20px">3000</text>
<text x="716.97" y="-39.727" transform="scale(1, -1)"
	style="font-family:Liberation Serif;font-variant:normal;font-weight:normal;font-style:normal;font-size:20px">4000</text>
<text x="909.98" y="-39.727" transform="scale(1, -1)"
	style="font-family:Liberation Serif;font-variant:normal;font-weight:normal;font-style:normal;font-size:20px">5000</text>
<text x="1103" y="-39.727" transform="scale(1, -1)"
	style="font-family:Liberation Serif;font-variant:normal;font-weight:normal;font-style:normal;font-size:20px">6000</text>
<text x="1296" y="-39.727" transform="scale(1, -1)"
	style="font-family:Liberation Serif;font-variant:normal;font-weight:normal;font-style:normal;font-size:20px">7000</text>
<text x="1489" y="-39.727" transform="scale(1, -1)"
	style="font-family:Liberation Serif;font-variant:normal;font-weight:normal;font-style:normal;font-size:20px">8000</text>
<text x="1682" y="-39.727" transform="scale(1, -1)"
	style="font-family:Liberation Serif;font-variant:normal;font-weight:normal;font-style:normal;font-size:20px">9000</text>
<text x="1870" y="-39.727" transform="scale(1, -1)"
	style="font-family:Liberation Serif;font-variant:normal;font-weight:normal;font-style:normal;font-size:20px">10000</text>
<path d="M157.96,55.371L157.96,63.371" style="fill:none;stroke:#000000;stroke-width:0.5" />
<path d="M350.97,55.371L350.97,63.371" style="fill:none;stroke:#000000;stroke-width:0.5" />
<path d="M543.97,55.371L543.97,63.371" style="fill:none;stroke:#000000;stroke-width:0.5" />
<path d="M736.97,55.371L736.97,63.371" style="fill:none;stroke:#000000;stroke-width:0.5" />
<path d="M929.98,55.371L929.98,63.371" style="fill:none;stroke:#000000;stroke-width:0.5" />
<path d="M1123,55.371L1123,63.371" style="fill:none;stroke:#000000;stroke-width:0.5" />
<path d="M1316,55.371L1316,63.371" style="fill:none;stroke:#000000;stroke-width:0.5" />
<path d="M1509,55.371L1509,63.371" style="fill:none;stroke:#000000;stroke-width:0.5" />
<path d="M1702,55.371L1702,63.371" style="fill:none;stroke:#000000;stroke-width:0.5" />
<path d="M1895,55.371L1895,63.371" style="fill:none;stroke:#000000;stroke-width:0.5" />
<path d="M157.96,63.371L1895,63.371" style="fill:none;stroke:#000000;stroke-width:0.5" />
<g transform="rotate(90)">
<text x="508.08" y="23.467" transform="scale(1, -1)"
	style="font-family:Liberation Serif;font-variant:normal;font-weight:normal;font-style:normal;font-size:30px">log(μs)</text>
</g>
<text x="49.712" y="-689.29" transform="scale(1, -1)"
	style="font-family:Liberation Serif;font-variant:normal;font-weight:normal;font-style:normal;font-size:20px">250000.00</text>
<text x="49.712" y="-904.42" transform="scale(1, -1)"
	style="font-family:Liberation Serif;font-variant:normal;font-weight:normal;font-style:normal;font-size:20px">750000.00</text>
<text x="39.712" y="-1004.5" transform="scale(1, -1)"
	style="font-family:Liberation Serif;font-variant:normal;font-weight:normal;font-style:normal;font-size:20px">1250000.00</text>
<path d="M139.71,693.86L147.71,693.86" style="fill:none;stroke:#000000;stroke-width:0.5" />
<path d="M139.71,908.99L147.71,908.99" style="fill:none;stroke:#000000;stroke-width:0.5" />
<path d="M139.71,1009L147.71,1009" style="fill:none;stroke:#000000;stroke-width:0.5" />
<path d="M143.71,378.69L147.71,378.69" style="fill:none;stroke:#000000;stroke-width:0.5" />
<path d="M143.71,593.82L147.71,593.82" style="fill:none;stroke:#000000;stroke-width:0.5" />
<path d="M143.71,759.75L147.71,759.75" style="fill:none;stroke:#000000;stroke-width:0.5" />
<path d="M143.71,808.96L147.71,808.96" style="fill:none;stroke:#000000;stroke-width:0.5" />
<path d="M143.71,848.26L147.71,848.26" style="fill:none;stroke:#000000;stroke-width:0.5" />
<path d="M143.71,880.97L147.71,880.97" style="fill:none;stroke:#000000;stroke-width:0.5" />
<path d="M143.71,933.5L147.71,933.5" style="fill:none;stroke:#000000;stroke-width:0.5" />
<path d="M143.71,955.28L147.71,955.28" style="fill:none;stroke:#000000;stroke-width:0.5" />
<path d="M143.71,974.88L147.71,974.88" style="fill:none;stroke:#000000;stroke-width:0.5" />
<path d="M143.71,992.7L147.71,992.7" style="fill:none;stroke:#000000;stroke-width:0.5" />
<path d="M143.71,1024.1L147.71,1024.1" style="fill:none;stroke:#000000;stroke-width:0.5" />
<path d="M147.71,77.61L147.71,1024.6" style="fill:none;stroke:#000000;stroke-width:0.5" />
<path d="M157.96,77.61L157.96,1024.6" style="fill:none;stroke:#808080;stroke-width:0.25" />
<path d="M350.97,77.61L350.97,1024.6" style="fill:none;stroke:#808080;stroke-width:0.25" />
<path d="M543.97,77.61L543.97,1024.6" style="fill:none;stroke:#808080;stroke-width:0.25" />
<path d="M736.97,77.61L736.97,1024.6" style="fill:none;stroke:#808080;stroke-width:0.25" />
<path d="M929.98,77.61L929.98,1024.6" style="fill:none;stroke:#808080;stroke-width:0.25" />
<path d="M1123,77.61L1123,1024.6" style="fill:none;stroke:#808080;stroke-width:0.25" />
<path d="M1316,77.61L1316,1024.6" style="fill:none;stroke:#808080;stroke-width:0.25" />
<path d="M1509,77.61L1509,1024.6" style="fill:none;stroke:#808080;stroke-width:0.25" />
<path d="M1702,77.61L1702,1024.6" style="fill:none;stroke:#808080;stroke-width:0.25" />
<path d="M1895,77.61L1895,1024.6" style="fill:none;stroke:#808080;stroke-width:0.25" />
<path d="M157.96,693.86L1895,693.86" style="fill:none;stroke:#808080;stroke-width:0.25" />
<path d="M157.96,908.99L1895,908.99" style="fill:none;stroke:#808080;stroke-width:0.25" />
<path d="M157.96,1009L1895,1009" style="fill:none;stroke:#808080;stroke-width:0.25" />
<path d="M157.96,77.61L350.97,320.95L543.97,482.15L736.97,596.76L929.98,696.02L1123,753.98L1316,822.68L1509,871.54L1702,917.39L1895,958.93" style="fill:none;stroke:#FF0000" />
<path d="M160.46,77.61A2.5,2.5 0 1 1 155.46,77.61A2.5,2.5 0 1 1 160.46,77.61Z" style="fill:none;stroke:#FF0000;stroke-width:0.5" />
<path d="M353.47,320.95A2.5,2.5 0 1 1 348.47,320.95A2.5,2.5 0 1 1 353.47,320.95Z" style="fill:none;stroke:#FF0000;stroke-width:0.5" />
<path d="M546.47,482.15A2.5,2.5 0 1 1 541.47,482.15A2.5,2.5 0 1 1 546.47,482.15Z" style="fill:none;stroke:#FF0000;stroke-width:0.5" />
<path d="M739.47,596.76A2.5,2.5 0 1 1 734.47,596.76A2.5,2.5 0 1 1 739.47,596.76Z" style="fill:none;stroke:#FF0000;stroke-width:0.5" />
<path d="M932.48,696.02A2.5,2.5 0 1 1 927.48,696.02A2.5,2.5 0 1 1 932.48,696.02Z" style="fill:none;stroke:#FF0000;stroke-width:0.5" />
<path d="M1125.5,753.98A2.5,2.5 0 1 1 1120.5,753.98A2.5,2.5 0 1 1 1125.5,753.98Z" style="fill:none;stroke:#FF0000;stroke-width:0.5" />
<path d="M1318.5,822.68A2.5,2.5 0 1 1 1313.5,822.68A2.5,2.5 0 1 1 1318.5,822.68Z" style="fill:none;stroke:#FF0000;stroke-width:0.5" />
<path d="M1511.5,871.54A2.5,2.5 0 1 1 1506.5,871.54A2.5,2.5 0 1 1 1511.5,871.54Z" style="fill:none;stroke:#FF0000;stroke-width:0.5" />
<path d="M1704.5,917.39A2.5,2.5 0 1 1 1699.5,917.39A2.5,2.5 0 1 1 1704.5,917.39Z" style="fill:none;stroke:#FF0000;stroke-width:0.5" />
<path d="M1897.5,958.93A2.5,2.5 0 1 1 1892.5,958.93A2.5,2.5 0 1 1 1897.5,958.93Z" style="fill:none;stroke:#FF0000;stroke-width:0.5" />
<path d="M157.96,109.51L350.97,392.81L543.97,535.51L736.97,642.38L929.98,722.42L1123,802.46L1316,860.47L1509,916.82L1702,957.79L1895,1006" style="fill:none;stroke:#0000FF" />
<path d="M160.46,109.51A2.5,2.5 0 1 1 155.46,109.51A2.5,2.5 0 1 1 160.46,109.51Z" style="fill:none;stroke:#0000FF;stroke-width:0.5" />
<path d="M353.47,392.81A2.5,2.5 0 1 1 348.47,392.81A2.5,2.5 0 1 1 353.47,392.81Z" style="fill:none;stroke:#0000FF;stroke-width:0.5" />
<path d="M546.47,535.51A2.5,2.5 0 1 1 541.47,535.51A2.5,2.5 0 1 1 546.47,535.51Z" style="fill:none;stroke:#0000FF;stroke-width:0.5" />
<path d="M739.47,642.38A2.5,2.5 0 1 1 734.47,642.38A2.5,2.5 0 1 1 739.47,642.38Z" style="fill:none;stroke:#0000FF;stroke-width:0.5" />
<path d="M932.48,722.42A2.5,2.5 0 1 1 927.48,722.42A2.5,2.5 0 1 1 932.48,722.42Z" style="fill:none;stroke:#0000FF;stroke-width:0.5" />
<path d="M1125.5,802.46A2.5,2.5 0 1 1 1120.5,802.46A2.5,2.5 0 1 1 1125.5,802.46Z" style="fill:none;stroke:#0000FF;stroke-width:0.5" />
<path d="M1318.5,860.47A2.5,2.5 0 1 1 1313.5,860.47A2.5,2.5 0 1 1 1318.5,860.47Z" style="fill:none;stroke:#0000FF;stroke-width:0.5" />
<path d="M1511.5,916.82A2.5,2.5 0 1 1 1506.5,916.82A2.5,2.5 0 1 1 1511.5,916.82Z" style="fill:none;stroke:#0000FF;stroke-width:0.5" />
<path d="M1704.5,957.79A2.5,2.5 0 1 1 1699.5,957.79A2.5,2.5 0 1 1 1704.5,957.79Z" style="fill:none;stroke:#0000FF;stroke-width:0.5" />
<path d="M1897.5,1006A2.5,2.5 0 1 1 1892.5,1006A2.5,2.5 0 1 1 1897.5,1006Z" style="fill:none;stroke:#0000FF;stroke-width:0.5" />
<path d="M157.96,129.33L350.97,353.79L543.97,527.19L736.97,624.37L929.98,752L1123,791.26L1316,848.99L1509,898.61L1702,941.93L1895,983.51" style="fill:none;stroke:#00FF00" />
<path d="M160.46,129.33A2.5,2.5 0 1 1 155.46,129.33A2.5,2.5 0 1 1 160.46,129.33Z" style="fill:none;stroke:#00FF00;stroke-width:0.5" />
<path d="M353.47,353.79A2.5,2.5 0 1 1 348.47,353.79A2.5,2.5 0 1 1 353.47,353.79Z" style="fill:none;stroke:#00FF00;stroke-width:0.5" />
<path d="M546.47,527.19A2.5,2.5 0 1 1 541.47,527.19A2.5,2.5 0 1 1 546.47,527.19Z" style="fill:none;stroke:#00FF00;stroke-width:0.5" />
<path d="M739.47,624.37A2.5,2.5 0 1 1 734.47,624.37A2.5,2.5 0 1 1 739.47,624.37Z" style="fill:none;stroke:#00FF00;stroke-width:0.5" />
<path d="M932.48,752A2.5,2.5 0 1 1 927.48,752A2.5,2.5 0 1 1 932.48,752Z" style="fill:none;stroke:#00FF00;stroke-width:0.5" />
<path d="M1125.5,791.26A2.5,2.5 0 1 1 1120.5,791.26A2.5,2.5 0 1 1 1125.5,791.26Z" style="fill:none;stroke:#00FF00;stroke-width:0.5" />
<path d="M1318.5,848.99A2.5,2.5 0 1 1 1313.5,848.99A2.5,2.5 0 1 1 1318.5,848.99Z" style="fill:none;stroke:#00FF00;stroke-width:0.5" />
<path d="M1511.5,898.61A2.5,2.5 0 1 1 1506.5,898.61A2.5,2.5 0 1 1 1511.5,898.61Z" style="fill:none;stroke:#00FF00;stroke-width:0.5" />
<path d="M1704.5,941.93A2.5,2.5 0 1 1 1699.5,941.93A2.5,2.5 0 1 1 1704.5,941.93Z" style="fill:none;stroke:#00FF00;stroke-width:0.5" />
<path d="M1897.5,983.51A2.5,2.5 0 1 1 1892.5,983.51A2.5,2.5 0 1 1 1897.5,983.51Z" style="fill:none;stroke:#00FF00;stroke-width:0.5" />
<path d="M1900,126.03L1920,126.03" style="fill:none;stroke:#FF0000" />
<path d="M1912.5,126.03A2.5,2.5 0 1 1 1907.5,126.03A2.5,2.5 0 1 1 1912.5,126.03Z" style="fill:none;stroke:#FF0000;stroke-width:0.5" />
<text x="1792.7" y="-121.05" transform="scale(1, -1)"
	style="font-family:Liberation Serif;font-variant:normal;font-weight:normal;font-style:normal;font-size:24px">std::vector</text>
<path d="M1900,105.66L1920,105.66" style="fill:none;stroke:#0000FF" />
<path d="M1912.5,105.66A2.5,2.5 0 1 1 1907.5,105.66A2.5,2.5 0 1 1 1912.5,105.66Z" style="fill:none;stroke:#0000FF;stroke-width:0.5" />
<text x="1823.3" y="-100.69" transform="scale(1, -1)"
	style="font-family:Liberation Serif;font-variant:normal;font-weight:normal;font-style:normal;font-size:24px">std::list</text>
<path d="M1900,85.294L1920,85.294" style="fill:none;stroke:#00FF00" />
<path d="M1912.5,85.294A2.5,2.5 0 1 1 1907.5,85.294A2.5,2.5 0 1 1 1912.5,85.294Z" style="fill:none;stroke:#00FF00;stroke-width:0.5" />
<text x="1795.4" y="-80.319" transform="scale(1, -1)"
	style="font-family:Liberation Serif;font-variant:normal;font-weight:normal;font-style:normal;font-size:24px">std::deque</text>
</g>
</svg>
