<?xml version="1.0"?>
<!-- Generated by SVGo and Plotinum VG -->
<svg width="1920pt" height="1080pt" viewBox="0 0 1920 1080"
	xmlns="http://www.w3.org/2000/svg"
	xmlns:xlink="http://www.w3.org/1999/xlink">
<g transform="scale(1, -1) translate(0, -1080)">
<path d="M0,0L1920,0L1920,1080L0,1080Z" style="fill:#FFFFFF" />
<text x="839.25" y="-1040.9" transform="scale(1, -1)"
	style="font-family:Liberation Serif;font-variant:normal;font-weight:normal;font-style:normal;font-size:50px">linearsearch</text>
<text x="904.02" y="-9.7559" transform="scale(1, -1)"
	style="font-family:Liberation Serif;font-variant:normal;font-weight:normal;font-style:normal;font-size:30px">Number of elements</text>
<text x="137.96" y="-39.727" transform="scale(1, -1)"
	style="font-family:Liberation Serif;font-variant:normal;font-weight:normal;font-style:normal;font-size:20px">1000</text>
<text x="330.97" y="-39.727" transform="scale(1, -1)"
	style="font-family:Liberation Serif;font-variant:normal;font-weight:normal;font-style:normal;font-size:20px">2000</text>
<text x="523.97" y="-39.727" transform="scale(1, -1)"
	style="font-family:Liberation Serif;font-variant:normal;font-weight:normal;font-style:normal;font-size:20px">3000</text>
<text x="716.97" y="-39.727" transform="scale(1, -1)"
	style="font-family:Liberation Serif;font-variant:normal;font-weight:normal;font-style:normal;font-size:20px">4000</text>
<text x="909.98" y="-39.727" transform="scale(1, -1)"
	style="font-family:Liberation Serif;font-variant:normal;font-weight:normal;font-style:normal;font-size:20px">5000</text>
<text x="1103" y="-39.727" transform="scale(1, -1)"
	style="font-family:Liberation Serif;font-variant:normal;font-weight:normal;font-style:normal;font-size:20px">6000</text>
<text x="1296" y="-39.727" transform="scale(1, -1)"
	style="font-family:Liberation Serif;font-variant:normal;font-weight:normal;font-style:normal;font-size:20px">7000</text>
<text x="1489" y="-39.727" transform="scale(1, -1)"
	style="font-family:Liberation Serif;font-variant:normal;font-weight:normal;font-style:normal;font-size:20px">8000</text>
<text x="1682" y="-39.727" transform="scale(1, -1)"
	style="font-family:Liberation Serif;font-variant:normal;font-weight:normal;font-style:normal;font-size:20px">9000</text>
<text x="1870" y="-39.727" transform="scale(1, -1)"
	style="font-family:Liberation Serif;font-variant:normal;font-weight:normal;font-style:normal;font-size:20px">10000</text>
<path d="M157.96,55.371L157.96,63.371" style="fill:none;stroke:#000000;stroke-width:0.5" />
<path d="M350.97,55.371L350.97,63.371" style="fill:none;stroke:#000000;stroke-width:0.5" />
<path d="M543.97,55.371L543.97,63.371" style="fill:none;stroke:#000000;stroke-width:0.5" />
<path d="M736.97,55.371L736.97,63.371" style="fill:none;stroke:#000000;stroke-width:0.5" />
<path d="M929.98,55.371L929.98,63.371" style="fill:none;stroke:#000000;stroke-width:0.5" />
<path d="M1123,55.371L1123,63.371" style="fill:none;stroke:#000000;stroke-width:0.5" />
<path d="M1316,55.371L1316,63.371" style="fill:none;stroke:#000000;stroke-width:0.5" />
<path d="M1509,55.371L1509,63.371" style="fill:none;stroke:#000000;stroke-width:0.5" />
<path d="M1702,55.371L1702,63.371" style="fill:none;stroke:#000000;stroke-width:0.5" />
<path d="M1895,55.371L1895,63.371" style="fill:none;stroke:#000000;stroke-width:0.5" />
<path d="M157.96,63.371L1895,63.371" style="fill:none;stroke:#000000;stroke-width:0.5" />
<g transform="rotate(90)">
<text x="537.24" y="23.467" transform="scale(1, -1)"
	style="font-family:Liberation Serif;font-variant:normal;font-weight:normal;font-style:normal;font-size:30px">μs</text>
</g>
<text x="49.712" y="-198.7" transform="scale(1, -1)"
	style="font-family:Liberation Serif;font-variant:normal;font-weight:normal;font-style:normal;font-size:20px">250000.00</text>
<text x="39.712" y="-599.69" transform="scale(1, -1)"
	style="font-family:Liberation Serif;font-variant:normal;font-weight:normal;font-style:normal;font-size:20px">1000000.00</text>
<text x="39.712" y="-1000.7" transform="scale(1, -1)"
	style="font-family:Liberation Serif;font-variant:normal;font-weight:normal;font-style:normal;font-size:20px">1750000.00</text>
<path d="M139.71,203.27L147.71,203.27" style="fill:none;stroke:#000000;stroke-width:0.5" />
<path d="M139.71,604.26L147.71,604.26" style="fill:none;stroke:#000000;stroke-width:0.5" />
<path d="M139.71,1005.2L147.71,1005.2" style="fill:none;stroke:#000000;stroke-width:0.5" />
<path d="M143.71,403.76L147.71,403.76" style="fill:none;stroke:#000000;stroke-width:0.5" />
<path d="M143.71,804.75L147.71,804.75" style="fill:none;stroke:#000000;stroke-width:0.5" />
<path d="M147.71,77.61L147.71,1024.6" style="fill:none;stroke:#000000;stroke-width:0.5" />
<path d="M157.96,77.61L157.96,1024.6" style="fill:none;stroke:#808080;stroke-width:0.25" />
<path d="M350.97,77.61L350.97,1024.6" style="fill:none;stroke:#808080;stroke-width:0.25" />
<path d="M543.97,77.61L543.97,1024.6" style="fill:none;stroke:#808080;stroke-width:0.25" />
<path d="M736.97,77.61L736.97,1024.6" style="fill:none;stroke:#808080;stroke-width:0.25" />
<path d="M929.98,77.61L929.98,1024.6" style="fill:none;stroke:#808080;stroke-width:0.25" />
<path d="M1123,77.61L1123,1024.6" style="fill:none;stroke:#808080;stroke-width:0.25" />
<path d="M1316,77.61L1316,1024.6" style="fill:none;stroke:#808080;stroke-width:0.25" />
<path d="M1509,77.61L1509,1024.6" style="fill:none;stroke:#808080;stroke-width:0.25" />
<path d="M1702,77.61L1702,1024.6" style="fill:none;stroke:#808080;stroke-width:0.25" />
<path d="M1895,77.61L1895,1024.6" style="fill:none;stroke:#808080;stroke-width:0.25" />
<path d="M157.96,203.27L1895,203.27" style="fill:none;stroke:#808080;stroke-width:0.25" />
<path d="M157.96,604.26L1895,604.26" style="fill:none;stroke:#808080;stroke-width:0.25" />
<path d="M157.96,1005.2L1895,1005.2" style="fill:none;stroke:#808080;stroke-width:0.25" />
<path d="M157.96,77.61L350.97,101.44L543.97,144.03L736.97,204.21L929.98,273.6L1123,374.56L1316,740.92L1509,626.96L1702,773.1L1895,937.81" style="fill:none;stroke:#FF0000" />
<path d="M160.46,77.61A2.5,2.5 0 1 1 155.46,77.61A2.5,2.5 0 1 1 160.46,77.61Z" style="fill:none;stroke:#FF0000;stroke-width:0.5" />
<path d="M353.47,101.44A2.5,2.5 0 1 1 348.47,101.44A2.5,2.5 0 1 1 353.47,101.44Z" style="fill:none;stroke:#FF0000;stroke-width:0.5" />
<path d="M546.47,144.03A2.5,2.5 0 1 1 541.47,144.03A2.5,2.5 0 1 1 546.47,144.03Z" style="fill:none;stroke:#FF0000;stroke-width:0.5" />
<path d="M739.47,204.21A2.5,2.5 0 1 1 734.47,204.21A2.5,2.5 0 1 1 739.47,204.21Z" style="fill:none;stroke:#FF0000;stroke-width:0.5" />
<path d="M932.48,273.6A2.5,2.5 0 1 1 927.48,273.6A2.5,2.5 0 1 1 932.48,273.6Z" style="fill:none;stroke:#FF0000;stroke-width:0.5" />
<path d="M1125.5,374.56A2.5,2.5 0 1 1 1120.5,374.56A2.5,2.5 0 1 1 1125.5,374.56Z" style="fill:none;stroke:#FF0000;stroke-width:0.5" />
<path d="M1318.5,740.92A2.5,2.5 0 1 1 1313.5,740.92A2.5,2.5 0 1 1 1318.5,740.92Z" style="fill:none;stroke:#FF0000;stroke-width:0.5" />
<path d="M1511.5,626.96A2.5,2.5 0 1 1 1506.5,626.96A2.5,2.5 0 1 1 1511.5,626.96Z" style="fill:none;stroke:#FF0000;stroke-width:0.5" />
<path d="M1704.5,773.1A2.5,2.5 0 1 1 1699.5,773.1A2.5,2.5 0 1 1 1704.5,773.1Z" style="fill:none;stroke:#FF0000;stroke-width:0.5" />
<path d="M1897.5,937.81A2.5,2.5 0 1 1 1892.5,937.81A2.5,2.5 0 1 1 1897.5,937.81Z" style="fill:none;stroke:#FF0000;stroke-width:0.5" />
<path d="M157.96,78.077L350.97,99.897L543.97,152.02L736.97,198.93L929.98,260.84L1123,354.88L1316,460.98L1509,586.17L1702,712.07L1895,888.72" style="fill:none;stroke:#0000FF" />
<path d="M160.46,78.077A2.5,2.5 0 1 1 155.46,78.077A2.5,2.5 0 1 1 160.46,78.077Z" style="fill:none;stroke:#0000FF;stroke-width:0.5" />
<path d="M353.47,99.897A2.5,2.5 0 1 1 348.47,99.897A2.5,2.5 0 1 1 353.47,99.897Z" style="fill:none;stroke:#0000FF;stroke-width:0.5" />
<path d="M546.47,152.02A2.5,2.5 0 1 1 541.47,152.02A2.5,2.5 0 1 1 546.47,152.02Z" style="fill:none;stroke:#0000FF;stroke-width:0.5" />
<path d="M739.47,198.93A2.5,2.5 0 1 1 734.47,198.93A2.5,2.5 0 1 1 739.47,198.93Z" style="fill:none;stroke:#0000FF;stroke-width:0.5" />
<path d="M932.48,260.84A2.5,2.5 0 1 1 927.48,260.84A2.5,2.5 0 1 1 932.48,260.84Z" style="fill:none;stroke:#0000FF;stroke-width:0.5" />
<path d="M1125.5,354.88A2.5,2.5 0 1 1 1120.5,354.88A2.5,2.5 0 1 1 1125.5,354.88Z" style="fill:none;stroke:#0000FF;stroke-width:0.5" />
<path d="M1318.5,460.98A2.5,2.5 0 1 1 1313.5,460.98A2.5,2.5 0 1 1 1318.5,460.98Z" style="fill:none;stroke:#0000FF;stroke-width:0.5" />
<path d="M1511.5,586.17A2.5,2.5 0 1 1 1506.5,586.17A2.5,2.5 0 1 1 1511.5,586.17Z" style="fill:none;stroke:#0000FF;stroke-width:0.5" />
<path d="M1704.5,712.07A2.5,2.5 0 1 1 1699.5,712.07A2.5,2.5 0 1 1 1704.5,712.07Z" style="fill:none;stroke:#0000FF;stroke-width:0.5" />
<path d="M1897.5,888.72A2.5,2.5 0 1 1 1892.5,888.72A2.5,2.5 0 1 1 1897.5,888.72Z" style="fill:none;stroke:#0000FF;stroke-width:0.5" />
<path d="M157.96,78.882L350.97,105.36L543.97,132.34L736.97,187.22L929.98,256.96L1123,347.08L1316,421.58L1509,515.42L1702,649.63L1895,776.6" style="fill:none;stroke:#00FF00" />
<path d="M160.46,78.882A2.5,2.5 0 1 1 155.46,78.882A2.5,2.5 0 1 1 160.46,78.882Z" style="fill:none;stroke:#00FF00;stroke-width:0.5" />
<path d="M353.47,105.36A2.5,2.5 0 1 1 348.47,105.36A2.5,2.5 0 1 1 353.47,105.36Z" style="fill:none;stroke:#00FF00;stroke-width:0.5" />
<path d="M546.47,132.34A2.5,2.5 0 1 1 541.47,132.34A2.5,2.5 0 1 1 546.47,132.34Z" style="fill:none;stroke:#00FF00;stroke-width:0.5" />
<path d="M739.47,187.22A2.5,2.5 0 1 1 734.47,187.22A2.5,2.5 0 1 1 739.47,187.22Z" style="fill:none;stroke:#00FF00;stroke-width:0.5" />
<path d="M932.48,256.96A2.5,2.5 0 1 1 927.48,256.96A2.5,2.5 0 1 1 932.48,256.96Z" style="fill:none;stroke:#00FF00;stroke-width:0.5" />
<path d="M1125.5,347.08A2.5,2.5 0 1 1 1120.5,347.08A2.5,2.5 0 1 1 1125.5,347.08Z" style="fill:none;stroke:#00FF00;stroke-width:0.5" />
<path d="M1318.5,421.58A2.5,2.5 0 1 1 1313.5,421.58A2.5,2.5 0 1 1 1318.5,421.58Z" style="fill:none;stroke:#00FF00;stroke-width:0.5" />
<path d="M1511.5,515.42A2.5,2.5 0 1 1 1506.5,515.42A2.5,2.5 0 1 1 1511.5,515.42Z" style="fill:none;stroke:#00FF00;stroke-width:0.5" />
<path d="M1704.5,649.63A2.5,2.5 0 1 1 1699.5,649.63A2.5,2.5 0 1 1 1704.5,649.63Z" style="fill:none;stroke:#00FF00;stroke-width:0.5" />
<path d="M1897.5,776.6A2.5,2.5 0 1 1 1892.5,776.6A2.5,2.5 0 1 1 1897.5,776.6Z" style="fill:none;stroke:#00FF00;stroke-width:0.5" />
<path d="M1900,126.03L1920,126.03" style="fill:none;stroke:#FF0000" />
<path d="M1912.5,126.03A2.5,2.5 0 1 1 1907.5,126.03A2.5,2.5 0 1 1 1912.5,126.03Z" style="fill:none;stroke:#FF0000;stroke-width:0.5" />
<text x="1823.3" y="-121.05" transform="scale(1, -1)"
	style="font-family:Liberation Serif;font-variant:normal;font-weight:normal;font-style:normal;font-size:24px">std::list</text>
<path d="M1900,105.66L1920,105.66" style="fill:none;stroke:#0000FF" />
<path d="M1912.5,105.66A2.5,2.5 0 1 1 1907.5,105.66A2.5,2.5 0 1 1 1912.5,105.66Z" style="fill:none;stroke:#0000FF;stroke-width:0.5" />
<text x="1795.4" y="-100.69" transform="scale(1, -1)"
	style="font-family:Liberation Serif;font-variant:normal;font-weight:normal;font-style:normal;font-size:24px">std::deque</text>
<path d="M1900,85.294L1920,85.294" style="fill:none;stroke:#00FF00" />
<path d="M1912.5,85.294A2.5,2.5 0 1 1 1907.5,85.294A2.5,2.5 0 1 1 1912.5,85.294Z" style="fill:none;stroke:#00FF00;stroke-width:0.5" />
<text x="1792.7" y="-80.319" transform="scale(1, -1)"
	style="font-family:Liberation Serif;font-variant:normal;font-weight:normal;font-style:normal;font-size:24px">std::vector</text>
</g>
</svg>
