<?xml version="1.0"?>
<!-- Generated by SVGo and Plotinum VG -->
<svg width="1920pt" height="1080pt" viewBox="0 0 1920 1080"
	xmlns="http://www.w3.org/2000/svg"
	xmlns:xlink="http://www.w3.org/1999/xlink">
<g transform="scale(1, -1) translate(0, -1080)">
<path d="M0,0L1920,0L1920,1080L0,1080Z" style="fill:#FFFFFF" />
<text x="839.25" y="-1040.9" transform="scale(1, -1)"
	style="font-family:Liberation Serif;font-variant:normal;font-weight:normal;font-style:normal;font-size:50px">linearsearch</text>
<text x="904.02" y="-9.7559" transform="scale(1, -1)"
	style="font-family:Liberation Serif;font-variant:normal;font-weight:normal;font-style:normal;font-size:30px">Number of elements</text>
<text x="137.96" y="-39.727" transform="scale(1, -1)"
	style="font-family:Liberation Serif;font-variant:normal;font-weight:normal;font-style:normal;font-size:20px">1000</text>
<text x="330.97" y="-39.727" transform="scale(1, -1)"
	style="font-family:Liberation Serif;font-variant:normal;font-weight:normal;font-style:normal;font-size:20px">2000</text>
<text x="523.97" y="-39.727" transform="scale(1, -1)"
	style="font-family:Liberation Serif;font-variant:normal;font-weight:normal;font-style:normal;font-size:20px">3000</text>
<text x="716.97" y="-39.727" transform="scale(1, -1)"
	style="font-family:Liberation Serif;font-variant:normal;font-weight:normal;font-style:normal;font-size:20px">4000</text>
<text x="909.98" y="-39.727" transform="scale(1, -1)"
	style="font-family:Liberation Serif;font-variant:normal;font-weight:normal;font-style:normal;font-size:20px">5000</text>
<text x="1103" y="-39.727" transform="scale(1, -1)"
	style="font-family:Liberation Serif;font-variant:normal;font-weight:normal;font-style:normal;font-size:20px">6000</text>
<text x="1296" y="-39.727" transform="scale(1, -1)"
	style="font-family:Liberation Serif;font-variant:normal;font-weight:normal;font-style:normal;font-size:20px">7000</text>
<text x="1489" y="-39.727" transform="scale(1, -1)"
	style="font-family:Liberation Serif;font-variant:normal;font-weight:normal;font-style:normal;font-size:20px">8000</text>
<text x="1682" y="-39.727" transform="scale(1, -1)"
	style="font-family:Liberation Serif;font-variant:normal;font-weight:normal;font-style:normal;font-size:20px">9000</text>
<text x="1870" y="-39.727" transform="scale(1, -1)"
	style="font-family:Liberation Serif;font-variant:normal;font-weight:normal;font-style:normal;font-size:20px">10000</text>
<path d="M157.96,55.371L157.96,63.371" style="fill:none;stroke:#000000;stroke-width:0.5" />
<path d="M350.97,55.371L350.97,63.371" style="fill:none;stroke:#000000;stroke-width:0.5" />
<path d="M543.97,55.371L543.97,63.371" style="fill:none;stroke:#000000;stroke-width:0.5" />
<path d="M736.97,55.371L736.97,63.371" style="fill:none;stroke:#000000;stroke-width:0.5" />
<path d="M929.98,55.371L929.98,63.371" style="fill:none;stroke:#000000;stroke-width:0.5" />
<path d="M1123,55.371L1123,63.371" style="fill:none;stroke:#000000;stroke-width:0.5" />
<path d="M1316,55.371L1316,63.371" style="fill:none;stroke:#000000;stroke-width:0.5" />
<path d="M1509,55.371L1509,63.371" style="fill:none;stroke:#000000;stroke-width:0.5" />
<path d="M1702,55.371L1702,63.371" style="fill:none;stroke:#000000;stroke-width:0.5" />
<path d="M1895,55.371L1895,63.371" style="fill:none;stroke:#000000;stroke-width:0.5" />
<path d="M157.96,63.371L1895,63.371" style="fill:none;stroke:#000000;stroke-width:0.5" />
<g transform="rotate(90)">
<text x="537.24" y="23.467" transform="scale(1, -1)"
	style="font-family:Liberation Serif;font-variant:normal;font-weight:normal;font-style:normal;font-size:30px">μs</text>
</g>
<text x="49.712" y="-238.89" transform="scale(1, -1)"
	style="font-family:Liberation Serif;font-variant:normal;font-weight:normal;font-style:normal;font-size:20px">250000.00</text>
<text x="49.712" y="-584.29" transform="scale(1, -1)"
	style="font-family:Liberation Serif;font-variant:normal;font-weight:normal;font-style:normal;font-size:20px">750000.00</text>
<text x="39.712" y="-929.7" transform="scale(1, -1)"
	style="font-family:Liberation Serif;font-variant:normal;font-weight:normal;font-style:normal;font-size:20px">1250000.00</text>
<path d="M139.71,243.46L147.71,243.46" style="fill:none;stroke:#000000;stroke-width:0.5" />
<path d="M139.71,588.86L147.71,588.86" style="fill:none;stroke:#000000;stroke-width:0.5" />
<path d="M139.71,934.27L147.71,934.27" style="fill:none;stroke:#000000;stroke-width:0.5" />
<path d="M143.71,105.29L147.71,105.29" style="fill:none;stroke:#000000;stroke-width:0.5" />
<path d="M143.71,174.38L147.71,174.38" style="fill:none;stroke:#000000;stroke-width:0.5" />
<path d="M143.71,312.54L147.71,312.54" style="fill:none;stroke:#000000;stroke-width:0.5" />
<path d="M143.71,381.62L147.71,381.62" style="fill:none;stroke:#000000;stroke-width:0.5" />
<path d="M143.71,450.7L147.71,450.7" style="fill:none;stroke:#000000;stroke-width:0.5" />
<path d="M143.71,519.78L147.71,519.78" style="fill:none;stroke:#000000;stroke-width:0.5" />
<path d="M143.71,657.94L147.71,657.94" style="fill:none;stroke:#000000;stroke-width:0.5" />
<path d="M143.71,727.02L147.71,727.02" style="fill:none;stroke:#000000;stroke-width:0.5" />
<path d="M143.71,796.1L147.71,796.1" style="fill:none;stroke:#000000;stroke-width:0.5" />
<path d="M143.71,865.18L147.71,865.18" style="fill:none;stroke:#000000;stroke-width:0.5" />
<path d="M143.71,1003.3L147.71,1003.3" style="fill:none;stroke:#000000;stroke-width:0.5" />
<path d="M147.71,77.61L147.71,1024.6" style="fill:none;stroke:#000000;stroke-width:0.5" />
<path d="M157.96,77.61L157.96,1024.6" style="fill:none;stroke:#808080;stroke-width:0.25" />
<path d="M350.97,77.61L350.97,1024.6" style="fill:none;stroke:#808080;stroke-width:0.25" />
<path d="M543.97,77.61L543.97,1024.6" style="fill:none;stroke:#808080;stroke-width:0.25" />
<path d="M736.97,77.61L736.97,1024.6" style="fill:none;stroke:#808080;stroke-width:0.25" />
<path d="M929.98,77.61L929.98,1024.6" style="fill:none;stroke:#808080;stroke-width:0.25" />
<path d="M1123,77.61L1123,1024.6" style="fill:none;stroke:#808080;stroke-width:0.25" />
<path d="M1316,77.61L1316,1024.6" style="fill:none;stroke:#808080;stroke-width:0.25" />
<path d="M1509,77.61L1509,1024.6" style="fill:none;stroke:#808080;stroke-width:0.25" />
<path d="M1702,77.61L1702,1024.6" style="fill:none;stroke:#808080;stroke-width:0.25" />
<path d="M1895,77.61L1895,1024.6" style="fill:none;stroke:#808080;stroke-width:0.25" />
<path d="M157.96,243.46L1895,243.46" style="fill:none;stroke:#808080;stroke-width:0.25" />
<path d="M157.96,588.86L1895,588.86" style="fill:none;stroke:#808080;stroke-width:0.25" />
<path d="M157.96,934.27L1895,934.27" style="fill:none;stroke:#808080;stroke-width:0.25" />
<path d="M157.96,79.945L350.97,103.53L543.97,140.66L736.97,199.55L929.98,270.26L1123,363.14L1316,455.51L1509,575.57L1702,706L1895,849.84" style="fill:none;stroke:#FF0000" />
<path d="M160.46,79.945A2.5,2.5 0 1 1 155.46,79.945A2.5,2.5 0 1 1 160.46,79.945Z" style="fill:none;stroke:#FF0000;stroke-width:0.5" />
<path d="M353.47,103.53A2.5,2.5 0 1 1 348.47,103.53A2.5,2.5 0 1 1 353.47,103.53Z" style="fill:none;stroke:#FF0000;stroke-width:0.5" />
<path d="M546.47,140.66A2.5,2.5 0 1 1 541.47,140.66A2.5,2.5 0 1 1 546.47,140.66Z" style="fill:none;stroke:#FF0000;stroke-width:0.5" />
<path d="M739.47,199.55A2.5,2.5 0 1 1 734.47,199.55A2.5,2.5 0 1 1 739.47,199.55Z" style="fill:none;stroke:#FF0000;stroke-width:0.5" />
<path d="M932.48,270.26A2.5,2.5 0 1 1 927.48,270.26A2.5,2.5 0 1 1 932.48,270.26Z" style="fill:none;stroke:#FF0000;stroke-width:0.5" />
<path d="M1125.5,363.14A2.5,2.5 0 1 1 1120.5,363.14A2.5,2.5 0 1 1 1125.5,363.14Z" style="fill:none;stroke:#FF0000;stroke-width:0.5" />
<path d="M1318.5,455.51A2.5,2.5 0 1 1 1313.5,455.51A2.5,2.5 0 1 1 1318.5,455.51Z" style="fill:none;stroke:#FF0000;stroke-width:0.5" />
<path d="M1511.5,575.57A2.5,2.5 0 1 1 1506.5,575.57A2.5,2.5 0 1 1 1511.5,575.57Z" style="fill:none;stroke:#FF0000;stroke-width:0.5" />
<path d="M1704.5,706A2.5,2.5 0 1 1 1699.5,706A2.5,2.5 0 1 1 1704.5,706Z" style="fill:none;stroke:#FF0000;stroke-width:0.5" />
<path d="M1897.5,849.84A2.5,2.5 0 1 1 1892.5,849.84A2.5,2.5 0 1 1 1897.5,849.84Z" style="fill:none;stroke:#FF0000;stroke-width:0.5" />
<path d="M157.96,77.61L350.97,97.842L543.97,133.19L736.97,173.07L929.98,227.03L1123,317.63L1316,382.49L1509,487.11L1702,611.24L1895,937.91" style="fill:none;stroke:#0000FF" />
<path d="M160.46,77.61A2.5,2.5 0 1 1 155.46,77.61A2.5,2.5 0 1 1 160.46,77.61Z" style="fill:none;stroke:#0000FF;stroke-width:0.5" />
<path d="M353.47,97.842A2.5,2.5 0 1 1 348.47,97.842A2.5,2.5 0 1 1 353.47,97.842Z" style="fill:none;stroke:#0000FF;stroke-width:0.5" />
<path d="M546.47,133.19A2.5,2.5 0 1 1 541.47,133.19A2.5,2.5 0 1 1 546.47,133.19Z" style="fill:none;stroke:#0000FF;stroke-width:0.5" />
<path d="M739.47,173.07A2.5,2.5 0 1 1 734.47,173.07A2.5,2.5 0 1 1 739.47,173.07Z" style="fill:none;stroke:#0000FF;stroke-width:0.5" />
<path d="M932.48,227.03A2.5,2.5 0 1 1 927.48,227.03A2.5,2.5 0 1 1 932.48,227.03Z" style="fill:none;stroke:#0000FF;stroke-width:0.5" />
<path d="M1125.5,317.63A2.5,2.5 0 1 1 1120.5,317.63A2.5,2.5 0 1 1 1125.5,317.63Z" style="fill:none;stroke:#0000FF;stroke-width:0.5" />
<path d="M1318.5,382.49A2.5,2.5 0 1 1 1313.5,382.49A2.5,2.5 0 1 1 1318.5,382.49Z" style="fill:none;stroke:#0000FF;stroke-width:0.5" />
<path d="M1511.5,487.11A2.5,2.5 0 1 1 1506.5,487.11A2.5,2.5 0 1 1 1511.5,487.11Z" style="fill:none;stroke:#0000FF;stroke-width:0.5" />
<path d="M1704.5,611.24A2.5,2.5 0 1 1 1699.5,611.24A2.5,2.5 0 1 1 1704.5,611.24Z" style="fill:none;stroke:#0000FF;stroke-width:0.5" />
<path d="M1897.5,937.91A2.5,2.5 0 1 1 1892.5,937.91A2.5,2.5 0 1 1 1897.5,937.91Z" style="fill:none;stroke:#0000FF;stroke-width:0.5" />
<path d="M157.96,80.912L350.97,112.71L543.97,165L736.97,241.72L929.98,314.68L1123,417.23L1316,545.26L1509,654.06L1702,736.75L1895,904.46" style="fill:none;stroke:#00FF00" />
<path d="M160.46,80.912A2.5,2.5 0 1 1 155.46,80.912A2.5,2.5 0 1 1 160.46,80.912Z" style="fill:none;stroke:#00FF00;stroke-width:0.5" />
<path d="M353.47,112.71A2.5,2.5 0 1 1 348.47,112.71A2.5,2.5 0 1 1 353.47,112.71Z" style="fill:none;stroke:#00FF00;stroke-width:0.5" />
<path d="M546.47,165A2.5,2.5 0 1 1 541.47,165A2.5,2.5 0 1 1 546.47,165Z" style="fill:none;stroke:#00FF00;stroke-width:0.5" />
<path d="M739.47,241.72A2.5,2.5 0 1 1 734.47,241.72A2.5,2.5 0 1 1 739.47,241.72Z" style="fill:none;stroke:#00FF00;stroke-width:0.5" />
<path d="M932.48,314.68A2.5,2.5 0 1 1 927.48,314.68A2.5,2.5 0 1 1 932.48,314.68Z" style="fill:none;stroke:#00FF00;stroke-width:0.5" />
<path d="M1125.5,417.23A2.5,2.5 0 1 1 1120.5,417.23A2.5,2.5 0 1 1 1125.5,417.23Z" style="fill:none;stroke:#00FF00;stroke-width:0.5" />
<path d="M1318.5,545.26A2.5,2.5 0 1 1 1313.5,545.26A2.5,2.5 0 1 1 1318.5,545.26Z" style="fill:none;stroke:#00FF00;stroke-width:0.5" />
<path d="M1511.5,654.06A2.5,2.5 0 1 1 1506.5,654.06A2.5,2.5 0 1 1 1511.5,654.06Z" style="fill:none;stroke:#00FF00;stroke-width:0.5" />
<path d="M1704.5,736.75A2.5,2.5 0 1 1 1699.5,736.75A2.5,2.5 0 1 1 1704.5,736.75Z" style="fill:none;stroke:#00FF00;stroke-width:0.5" />
<path d="M1897.5,904.46A2.5,2.5 0 1 1 1892.5,904.46A2.5,2.5 0 1 1 1897.5,904.46Z" style="fill:none;stroke:#00FF00;stroke-width:0.5" />
<path d="M1900,126.03L1920,126.03" style="fill:none;stroke:#FF0000" />
<path d="M1912.5,126.03A2.5,2.5 0 1 1 1907.5,126.03A2.5,2.5 0 1 1 1912.5,126.03Z" style="fill:none;stroke:#FF0000;stroke-width:0.5" />
<text x="1823.3" y="-121.05" transform="scale(1, -1)"
	style="font-family:Liberation Serif;font-variant:normal;font-weight:normal;font-style:normal;font-size:24px">std::list</text>
<path d="M1900,105.66L1920,105.66" style="fill:none;stroke:#0000FF" />
<path d="M1912.5,105.66A2.5,2.5 0 1 1 1907.5,105.66A2.5,2.5 0 1 1 1912.5,105.66Z" style="fill:none;stroke:#0000FF;stroke-width:0.5" />
<text x="1795.4" y="-100.69" transform="scale(1, -1)"
	style="font-family:Liberation Serif;font-variant:normal;font-weight:normal;font-style:normal;font-size:24px">std::deque</text>
<path d="M1900,85.294L1920,85.294" style="fill:none;stroke:#00FF00" />
<path d="M1912.5,85.294A2.5,2.5 0 1 1 1907.5,85.294A2.5,2.5 0 1 1 1912.5,85.294Z" style="fill:none;stroke:#00FF00;stroke-width:0.5" />
<text x="1792.7" y="-80.319" transform="scale(1, -1)"
	style="font-family:Liberation Serif;font-variant:normal;font-weight:normal;font-style:normal;font-size:24px">std::vector</text>
</g>
</svg>
