<?xml version="1.0"?>
<!-- Generated by SVGo and Plotinum VG -->
<svg width="1920pt" height="1080pt" viewBox="0 0 1920 1080"
	xmlns="http://www.w3.org/2000/svg"
	xmlns:xlink="http://www.w3.org/1999/xlink">
<g transform="scale(1, -1) translate(0, -1080)">
<path d="M0,0L1920,0L1920,1080L0,1080Z" style="fill:#FFFFFF" />
<text x="717.76" y="-1040.9" transform="scale(1, -1)"
	style="font-family:Liberation Serif;font-variant:normal;font-weight:normal;font-style:normal;font-size:50px">linearsearch - Log Scale</text>
<text x="881.6" y="-9.7559" transform="scale(1, -1)"
	style="font-family:Liberation Serif;font-variant:normal;font-weight:normal;font-style:normal;font-size:30px">Number of elements</text>
<text x="93.118" y="-39.727" transform="scale(1, -1)"
	style="font-family:Liberation Serif;font-variant:normal;font-weight:normal;font-style:normal;font-size:20px">1000</text>
<text x="291.11" y="-39.727" transform="scale(1, -1)"
	style="font-family:Liberation Serif;font-variant:normal;font-weight:normal;font-style:normal;font-size:20px">2000</text>
<text x="489.09" y="-39.727" transform="scale(1, -1)"
	style="font-family:Liberation Serif;font-variant:normal;font-weight:normal;font-style:normal;font-size:20px">3000</text>
<text x="687.08" y="-39.727" transform="scale(1, -1)"
	style="font-family:Liberation Serif;font-variant:normal;font-weight:normal;font-style:normal;font-size:20px">4000</text>
<text x="885.07" y="-39.727" transform="scale(1, -1)"
	style="font-family:Liberation Serif;font-variant:normal;font-weight:normal;font-style:normal;font-size:20px">5000</text>
<text x="1083.1" y="-39.727" transform="scale(1, -1)"
	style="font-family:Liberation Serif;font-variant:normal;font-weight:normal;font-style:normal;font-size:20px">6000</text>
<text x="1281" y="-39.727" transform="scale(1, -1)"
	style="font-family:Liberation Serif;font-variant:normal;font-weight:normal;font-style:normal;font-size:20px">7000</text>
<text x="1479" y="-39.727" transform="scale(1, -1)"
	style="font-family:Liberation Serif;font-variant:normal;font-weight:normal;font-style:normal;font-size:20px">8000</text>
<text x="1677" y="-39.727" transform="scale(1, -1)"
	style="font-family:Liberation Serif;font-variant:normal;font-weight:normal;font-style:normal;font-size:20px">9000</text>
<text x="1870" y="-39.727" transform="scale(1, -1)"
	style="font-family:Liberation Serif;font-variant:normal;font-weight:normal;font-style:normal;font-size:20px">10000</text>
<path d="M113.12,55.371L113.12,63.371" style="fill:none;stroke:#000000;stroke-width:0.5" />
<path d="M311.11,55.371L311.11,63.371" style="fill:none;stroke:#000000;stroke-width:0.5" />
<path d="M509.09,55.371L509.09,63.371" style="fill:none;stroke:#000000;stroke-width:0.5" />
<path d="M707.08,55.371L707.08,63.371" style="fill:none;stroke:#000000;stroke-width:0.5" />
<path d="M905.07,55.371L905.07,63.371" style="fill:none;stroke:#000000;stroke-width:0.5" />
<path d="M1103.1,55.371L1103.1,63.371" style="fill:none;stroke:#000000;stroke-width:0.5" />
<path d="M1301,55.371L1301,63.371" style="fill:none;stroke:#000000;stroke-width:0.5" />
<path d="M1499,55.371L1499,63.371" style="fill:none;stroke:#000000;stroke-width:0.5" />
<path d="M1697,55.371L1697,63.371" style="fill:none;stroke:#000000;stroke-width:0.5" />
<path d="M1895,55.371L1895,63.371" style="fill:none;stroke:#000000;stroke-width:0.5" />
<path d="M113.12,63.371L1895,63.371" style="fill:none;stroke:#000000;stroke-width:0.5" />
<g transform="rotate(90)">
<text x="505.94" y="23.467" transform="scale(1, -1)"
	style="font-family:Liberation Serif;font-variant:normal;font-weight:normal;font-style:normal;font-size:30px">log(μs)</text>
</g>
<text x="39.712" y="-724.41" transform="scale(1, -1)"
	style="font-family:Liberation Serif;font-variant:normal;font-weight:normal;font-style:normal;font-size:20px">1e+07</text>
<text x="39.712" y="-927.15" transform="scale(1, -1)"
	style="font-family:Liberation Serif;font-variant:normal;font-weight:normal;font-style:normal;font-size:20px">4e+07</text>
<text x="39.712" y="-1009" transform="scale(1, -1)"
	style="font-family:Liberation Serif;font-variant:normal;font-weight:normal;font-style:normal;font-size:20px">7e+07</text>
<path d="M94.868,728.98L102.87,728.98" style="fill:none;stroke:#000000;stroke-width:0.5" />
<path d="M94.868,931.72L102.87,931.72" style="fill:none;stroke:#000000;stroke-width:0.5" />
<path d="M94.868,1013.6L102.87,1013.6" style="fill:none;stroke:#000000;stroke-width:0.5" />
<path d="M98.868,830.35L102.87,830.35" style="fill:none;stroke:#000000;stroke-width:0.5" />
<path d="M98.868,889.64L102.87,889.64" style="fill:none;stroke:#000000;stroke-width:0.5" />
<path d="M98.868,964.35L102.87,964.35" style="fill:none;stroke:#000000;stroke-width:0.5" />
<path d="M98.868,991.01L102.87,991.01" style="fill:none;stroke:#000000;stroke-width:0.5" />
<path d="M102.87,77.61L102.87,1020.3" style="fill:none;stroke:#000000;stroke-width:0.5" />
<path d="M113.12,77.61L113.12,1020.3" style="fill:none;stroke:#808080;stroke-width:0.25" />
<path d="M311.11,77.61L311.11,1020.3" style="fill:none;stroke:#808080;stroke-width:0.25" />
<path d="M509.09,77.61L509.09,1020.3" style="fill:none;stroke:#808080;stroke-width:0.25" />
<path d="M707.08,77.61L707.08,1020.3" style="fill:none;stroke:#808080;stroke-width:0.25" />
<path d="M905.07,77.61L905.07,1020.3" style="fill:none;stroke:#808080;stroke-width:0.25" />
<path d="M1103.1,77.61L1103.1,1020.3" style="fill:none;stroke:#808080;stroke-width:0.25" />
<path d="M1301,77.61L1301,1020.3" style="fill:none;stroke:#808080;stroke-width:0.25" />
<path d="M1499,77.61L1499,1020.3" style="fill:none;stroke:#808080;stroke-width:0.25" />
<path d="M1697,77.61L1697,1020.3" style="fill:none;stroke:#808080;stroke-width:0.25" />
<path d="M1895,77.61L1895,1020.3" style="fill:none;stroke:#808080;stroke-width:0.25" />
<path d="M113.12,728.98L1895,728.98" style="fill:none;stroke:#808080;stroke-width:0.25" />
<path d="M113.12,931.72L1895,931.72" style="fill:none;stroke:#808080;stroke-width:0.25" />
<path d="M113.12,1013.6L1895,1013.6" style="fill:none;stroke:#808080;stroke-width:0.25" />
<path d="M113.12,101.72L311.11,319.22L509.09,455.79L707.08,561.83L905.07,637.02L1103.1,700.47L1301,750.22L1499,766.4L1697,801.92L1895,822.96" style="fill:none;stroke:#FF0000" />
<path d="M115.62,101.72A2.5,2.5 0 1 1 110.62,101.72A2.5,2.5 0 1 1 115.62,101.72Z" style="fill:none;stroke:#FF0000;stroke-width:0.5" />
<path d="M313.61,319.22A2.5,2.5 0 1 1 308.61,319.22A2.5,2.5 0 1 1 313.61,319.22Z" style="fill:none;stroke:#FF0000;stroke-width:0.5" />
<path d="M511.59,455.79A2.5,2.5 0 1 1 506.59,455.79A2.5,2.5 0 1 1 511.59,455.79Z" style="fill:none;stroke:#FF0000;stroke-width:0.5" />
<path d="M709.58,561.83A2.5,2.5 0 1 1 704.58,561.83A2.5,2.5 0 1 1 709.58,561.83Z" style="fill:none;stroke:#FF0000;stroke-width:0.5" />
<path d="M907.57,637.02A2.5,2.5 0 1 1 902.57,637.02A2.5,2.5 0 1 1 907.57,637.02Z" style="fill:none;stroke:#FF0000;stroke-width:0.5" />
<path d="M1105.6,700.47A2.5,2.5 0 1 1 1100.6,700.47A2.5,2.5 0 1 1 1105.6,700.47Z" style="fill:none;stroke:#FF0000;stroke-width:0.5" />
<path d="M1303.5,750.22A2.5,2.5 0 1 1 1298.5,750.22A2.5,2.5 0 1 1 1303.5,750.22Z" style="fill:none;stroke:#FF0000;stroke-width:0.5" />
<path d="M1501.5,766.4A2.5,2.5 0 1 1 1496.5,766.4A2.5,2.5 0 1 1 1501.5,766.4Z" style="fill:none;stroke:#FF0000;stroke-width:0.5" />
<path d="M1699.5,801.92A2.5,2.5 0 1 1 1694.5,801.92A2.5,2.5 0 1 1 1699.5,801.92Z" style="fill:none;stroke:#FF0000;stroke-width:0.5" />
<path d="M1897.5,822.96A2.5,2.5 0 1 1 1892.5,822.96A2.5,2.5 0 1 1 1897.5,822.96Z" style="fill:none;stroke:#FF0000;stroke-width:0.5" />
<path d="M113.12,77.61L311.11,285.44L509.09,421.17L707.08,510.32L905.07,544.37L1103.1,613.39L1301,672.95L1499,717.96L1697,756.52L1895,796.46" style="fill:none;stroke:#0000FF" />
<path d="M115.62,77.61A2.5,2.5 0 1 1 110.62,77.61A2.5,2.5 0 1 1 115.62,77.61Z" style="fill:none;stroke:#0000FF;stroke-width:0.5" />
<path d="M313.61,285.44A2.5,2.5 0 1 1 308.61,285.44A2.5,2.5 0 1 1 313.61,285.44Z" style="fill:none;stroke:#0000FF;stroke-width:0.5" />
<path d="M511.59,421.17A2.5,2.5 0 1 1 506.59,421.17A2.5,2.5 0 1 1 511.59,421.17Z" style="fill:none;stroke:#0000FF;stroke-width:0.5" />
<path d="M709.58,510.32A2.5,2.5 0 1 1 704.58,510.32A2.5,2.5 0 1 1 709.58,510.32Z" style="fill:none;stroke:#0000FF;stroke-width:0.5" />
<path d="M907.57,544.37A2.5,2.5 0 1 1 902.57,544.37A2.5,2.5 0 1 1 907.57,544.37Z" style="fill:none;stroke:#0000FF;stroke-width:0.5" />
<path d="M1105.6,613.39A2.5,2.5 0 1 1 1100.6,613.39A2.5,2.5 0 1 1 1105.6,613.39Z" style="fill:none;stroke:#0000FF;stroke-width:0.5" />
<path d="M1303.5,672.95A2.5,2.5 0 1 1 1298.5,672.95A2.5,2.5 0 1 1 1303.5,672.95Z" style="fill:none;stroke:#0000FF;stroke-width:0.5" />
<path d="M1501.5,717.96A2.5,2.5 0 1 1 1496.5,717.96A2.5,2.5 0 1 1 1501.5,717.96Z" style="fill:none;stroke:#0000FF;stroke-width:0.5" />
<path d="M1699.5,756.52A2.5,2.5 0 1 1 1694.5,756.52A2.5,2.5 0 1 1 1699.5,756.52Z" style="fill:none;stroke:#0000FF;stroke-width:0.5" />
<path d="M1897.5,796.46A2.5,2.5 0 1 1 1892.5,796.46A2.5,2.5 0 1 1 1897.5,796.46Z" style="fill:none;stroke:#0000FF;stroke-width:0.5" />
<path d="M113.12,85.941L311.11,270.78L509.09,400.97L707.08,494.01L905.07,555.43L1103.1,610.28L1301,660.2L1499,718.86L1697,1006.4L1895,797.33" style="fill:none;stroke:#00FF00" />
<path d="M115.62,85.941A2.5,2.5 0 1 1 110.62,85.941A2.5,2.5 0 1 1 115.62,85.941Z" style="fill:none;stroke:#00FF00;stroke-width:0.5" />
<path d="M313.61,270.78A2.5,2.5 0 1 1 308.61,270.78A2.5,2.5 0 1 1 313.61,270.78Z" style="fill:none;stroke:#00FF00;stroke-width:0.5" />
<path d="M511.59,400.97A2.5,2.5 0 1 1 506.59,400.97A2.5,2.5 0 1 1 511.59,400.97Z" style="fill:none;stroke:#00FF00;stroke-width:0.5" />
<path d="M709.58,494.01A2.5,2.5 0 1 1 704.58,494.01A2.5,2.5 0 1 1 709.58,494.01Z" style="fill:none;stroke:#00FF00;stroke-width:0.5" />
<path d="M907.57,555.43A2.5,2.5 0 1 1 902.57,555.43A2.5,2.5 0 1 1 907.57,555.43Z" style="fill:none;stroke:#00FF00;stroke-width:0.5" />
<path d="M1105.6,610.28A2.5,2.5 0 1 1 1100.6,610.28A2.5,2.5 0 1 1 1105.6,610.28Z" style="fill:none;stroke:#00FF00;stroke-width:0.5" />
<path d="M1303.5,660.2A2.5,2.5 0 1 1 1298.5,660.2A2.5,2.5 0 1 1 1303.5,660.2Z" style="fill:none;stroke:#00FF00;stroke-width:0.5" />
<path d="M1501.5,718.86A2.5,2.5 0 1 1 1496.5,718.86A2.5,2.5 0 1 1 1501.5,718.86Z" style="fill:none;stroke:#00FF00;stroke-width:0.5" />
<path d="M1699.5,1006.4A2.5,2.5 0 1 1 1694.5,1006.4A2.5,2.5 0 1 1 1699.5,1006.4Z" style="fill:none;stroke:#00FF00;stroke-width:0.5" />
<path d="M1897.5,797.33A2.5,2.5 0 1 1 1892.5,797.33A2.5,2.5 0 1 1 1897.5,797.33Z" style="fill:none;stroke:#00FF00;stroke-width:0.5" />
<path d="M1900,126.03L1920,126.03" style="fill:none;stroke:#FF0000" />
<path d="M1912.5,126.03A2.5,2.5 0 1 1 1907.5,126.03A2.5,2.5 0 1 1 1912.5,126.03Z" style="fill:none;stroke:#FF0000;stroke-width:0.5" />
<text x="1823.3" y="-121.05" transform="scale(1, -1)"
	style="font-family:Liberation Serif;font-variant:normal;font-weight:normal;font-style:normal;font-size:24px">std::list</text>
<path d="M1900,105.66L1920,105.66" style="fill:none;stroke:#0000FF" />
<path d="M1912.5,105.66A2.5,2.5 0 1 1 1907.5,105.66A2.5,2.5 0 1 1 1912.5,105.66Z" style="fill:none;stroke:#0000FF;stroke-width:0.5" />
<text x="1795.4" y="-100.69" transform="scale(1, -1)"
	style="font-family:Liberation Serif;font-variant:normal;font-weight:normal;font-style:normal;font-size:24px">std::deque</text>
<path d="M1900,85.294L1920,85.294" style="fill:none;stroke:#00FF00" />
<path d="M1912.5,85.294A2.5,2.5 0 1 1 1907.5,85.294A2.5,2.5 0 1 1 1912.5,85.294Z" style="fill:none;stroke:#00FF00;stroke-width:0.5" />
<text x="1792.7" y="-80.319" transform="scale(1, -1)"
	style="font-family:Liberation Serif;font-variant:normal;font-weight:normal;font-style:normal;font-size:24px">std::vector</text>
</g>
</svg>
