<?xml version="1.0"?>
<!-- Generated by SVGo and Plotinum VG -->
<svg width="1920pt" height="1080pt" viewBox="0 0 1920 1080"
	xmlns="http://www.w3.org/2000/svg"
	xmlns:xlink="http://www.w3.org/1999/xlink">
<g transform="scale(1, -1) translate(0, -1080)">
<path d="M0,0L1920,0L1920,1080L0,1080Z" style="fill:#FFFFFF" />
<text x="717.76" y="-1040.9" transform="scale(1, -1)"
	style="font-family:Liberation Serif;font-variant:normal;font-weight:normal;font-style:normal;font-size:50px">linearsearch - Log Scale</text>
<text x="904.02" y="-9.7559" transform="scale(1, -1)"
	style="font-family:Liberation Serif;font-variant:normal;font-weight:normal;font-style:normal;font-size:30px">Number of elements</text>
<text x="137.96" y="-39.727" transform="scale(1, -1)"
	style="font-family:Liberation Serif;font-variant:normal;font-weight:normal;font-style:normal;font-size:20px">1000</text>
<text x="330.97" y="-39.727" transform="scale(1, -1)"
	style="font-family:Liberation Serif;font-variant:normal;font-weight:normal;font-style:normal;font-size:20px">2000</text>
<text x="523.97" y="-39.727" transform="scale(1, -1)"
	style="font-family:Liberation Serif;font-variant:normal;font-weight:normal;font-style:normal;font-size:20px">3000</text>
<text x="716.97" y="-39.727" transform="scale(1, -1)"
	style="font-family:Liberation Serif;font-variant:normal;font-weight:normal;font-style:normal;font-size:20px">4000</text>
<text x="909.98" y="-39.727" transform="scale(1, -1)"
	style="font-family:Liberation Serif;font-variant:normal;font-weight:normal;font-style:normal;font-size:20px">5000</text>
<text x="1103" y="-39.727" transform="scale(1, -1)"
	style="font-family:Liberation Serif;font-variant:normal;font-weight:normal;font-style:normal;font-size:20px">6000</text>
<text x="1296" y="-39.727" transform="scale(1, -1)"
	style="font-family:Liberation Serif;font-variant:normal;font-weight:normal;font-style:normal;font-size:20px">7000</text>
<text x="1489" y="-39.727" transform="scale(1, -1)"
	style="font-family:Liberation Serif;font-variant:normal;font-weight:normal;font-style:normal;font-size:20px">8000</text>
<text x="1682" y="-39.727" transform="scale(1, -1)"
	style="font-family:Liberation Serif;font-variant:normal;font-weight:normal;font-style:normal;font-size:20px">9000</text>
<text x="1870" y="-39.727" transform="scale(1, -1)"
	style="font-family:Liberation Serif;font-variant:normal;font-weight:normal;font-style:normal;font-size:20px">10000</text>
<path d="M157.96,55.371L157.96,63.371" style="fill:none;stroke:#000000;stroke-width:0.5" />
<path d="M350.97,55.371L350.97,63.371" style="fill:none;stroke:#000000;stroke-width:0.5" />
<path d="M543.97,55.371L543.97,63.371" style="fill:none;stroke:#000000;stroke-width:0.5" />
<path d="M736.97,55.371L736.97,63.371" style="fill:none;stroke:#000000;stroke-width:0.5" />
<path d="M929.98,55.371L929.98,63.371" style="fill:none;stroke:#000000;stroke-width:0.5" />
<path d="M1123,55.371L1123,63.371" style="fill:none;stroke:#000000;stroke-width:0.5" />
<path d="M1316,55.371L1316,63.371" style="fill:none;stroke:#000000;stroke-width:0.5" />
<path d="M1509,55.371L1509,63.371" style="fill:none;stroke:#000000;stroke-width:0.5" />
<path d="M1702,55.371L1702,63.371" style="fill:none;stroke:#000000;stroke-width:0.5" />
<path d="M1895,55.371L1895,63.371" style="fill:none;stroke:#000000;stroke-width:0.5" />
<path d="M157.96,63.371L1895,63.371" style="fill:none;stroke:#000000;stroke-width:0.5" />
<g transform="rotate(90)">
<text x="508.08" y="23.467" transform="scale(1, -1)"
	style="font-family:Liberation Serif;font-variant:normal;font-weight:normal;font-style:normal;font-size:30px">log(μs)</text>
</g>
<text x="49.712" y="-677.96" transform="scale(1, -1)"
	style="font-family:Liberation Serif;font-variant:normal;font-weight:normal;font-style:normal;font-size:20px">250000.00</text>
<text x="49.712" y="-896.47" transform="scale(1, -1)"
	style="font-family:Liberation Serif;font-variant:normal;font-weight:normal;font-style:normal;font-size:20px">750000.00</text>
<text x="39.712" y="-998.08" transform="scale(1, -1)"
	style="font-family:Liberation Serif;font-variant:normal;font-weight:normal;font-style:normal;font-size:20px">1250000.00</text>
<path d="M139.71,682.53L147.71,682.53" style="fill:none;stroke:#000000;stroke-width:0.5" />
<path d="M139.71,901.04L147.71,901.04" style="fill:none;stroke:#000000;stroke-width:0.5" />
<path d="M139.71,1002.7L147.71,1002.7" style="fill:none;stroke:#000000;stroke-width:0.5" />
<path d="M143.71,362.4L147.71,362.4" style="fill:none;stroke:#000000;stroke-width:0.5" />
<path d="M143.71,580.92L147.71,580.92" style="fill:none;stroke:#000000;stroke-width:0.5" />
<path d="M143.71,749.45L147.71,749.45" style="fill:none;stroke:#000000;stroke-width:0.5" />
<path d="M143.71,799.44L147.71,799.44" style="fill:none;stroke:#000000;stroke-width:0.5" />
<path d="M143.71,839.35L147.71,839.35" style="fill:none;stroke:#000000;stroke-width:0.5" />
<path d="M143.71,872.58L147.71,872.58" style="fill:none;stroke:#000000;stroke-width:0.5" />
<path d="M143.71,925.94L147.71,925.94" style="fill:none;stroke:#000000;stroke-width:0.5" />
<path d="M143.71,948.06L147.71,948.06" style="fill:none;stroke:#000000;stroke-width:0.5" />
<path d="M143.71,967.97L147.71,967.97" style="fill:none;stroke:#000000;stroke-width:0.5" />
<path d="M143.71,986.07L147.71,986.07" style="fill:none;stroke:#000000;stroke-width:0.5" />
<path d="M143.71,1018L147.71,1018" style="fill:none;stroke:#000000;stroke-width:0.5" />
<path d="M147.71,77.61L147.71,1024.6" style="fill:none;stroke:#000000;stroke-width:0.5" />
<path d="M157.96,77.61L157.96,1024.6" style="fill:none;stroke:#808080;stroke-width:0.25" />
<path d="M350.97,77.61L350.97,1024.6" style="fill:none;stroke:#808080;stroke-width:0.25" />
<path d="M543.97,77.61L543.97,1024.6" style="fill:none;stroke:#808080;stroke-width:0.25" />
<path d="M736.97,77.61L736.97,1024.6" style="fill:none;stroke:#808080;stroke-width:0.25" />
<path d="M929.98,77.61L929.98,1024.6" style="fill:none;stroke:#808080;stroke-width:0.25" />
<path d="M1123,77.61L1123,1024.6" style="fill:none;stroke:#808080;stroke-width:0.25" />
<path d="M1316,77.61L1316,1024.6" style="fill:none;stroke:#808080;stroke-width:0.25" />
<path d="M1509,77.61L1509,1024.6" style="fill:none;stroke:#808080;stroke-width:0.25" />
<path d="M1702,77.61L1702,1024.6" style="fill:none;stroke:#808080;stroke-width:0.25" />
<path d="M1895,77.61L1895,1024.6" style="fill:none;stroke:#808080;stroke-width:0.25" />
<path d="M157.96,682.53L1895,682.53" style="fill:none;stroke:#808080;stroke-width:0.25" />
<path d="M157.96,901.04L1895,901.04" style="fill:none;stroke:#808080;stroke-width:0.25" />
<path d="M157.96,1002.7L1895,1002.7" style="fill:none;stroke:#808080;stroke-width:0.25" />
<path d="M157.96,97.679L350.97,366.47L543.97,540.2L736.97,645.55L929.98,723.36L1123,803.6L1316,861.77L1509,914.21L1702,960.88L1895,1005.7" style="fill:none;stroke:#FF0000" />
<path d="M160.46,97.679A2.5,2.5 0 1 1 155.46,97.679A2.5,2.5 0 1 1 160.46,97.679Z" style="fill:none;stroke:#FF0000;stroke-width:0.5" />
<path d="M353.47,366.47A2.5,2.5 0 1 1 348.47,366.47A2.5,2.5 0 1 1 353.47,366.47Z" style="fill:none;stroke:#FF0000;stroke-width:0.5" />
<path d="M546.47,540.2A2.5,2.5 0 1 1 541.47,540.2A2.5,2.5 0 1 1 546.47,540.2Z" style="fill:none;stroke:#FF0000;stroke-width:0.5" />
<path d="M739.47,645.55A2.5,2.5 0 1 1 734.47,645.55A2.5,2.5 0 1 1 739.47,645.55Z" style="fill:none;stroke:#FF0000;stroke-width:0.5" />
<path d="M932.48,723.36A2.5,2.5 0 1 1 927.48,723.36A2.5,2.5 0 1 1 932.48,723.36Z" style="fill:none;stroke:#FF0000;stroke-width:0.5" />
<path d="M1125.5,803.6A2.5,2.5 0 1 1 1120.5,803.6A2.5,2.5 0 1 1 1125.5,803.6Z" style="fill:none;stroke:#FF0000;stroke-width:0.5" />
<path d="M1318.5,861.77A2.5,2.5 0 1 1 1313.5,861.77A2.5,2.5 0 1 1 1318.5,861.77Z" style="fill:none;stroke:#FF0000;stroke-width:0.5" />
<path d="M1511.5,914.21A2.5,2.5 0 1 1 1506.5,914.21A2.5,2.5 0 1 1 1511.5,914.21Z" style="fill:none;stroke:#FF0000;stroke-width:0.5" />
<path d="M1704.5,960.88A2.5,2.5 0 1 1 1699.5,960.88A2.5,2.5 0 1 1 1704.5,960.88Z" style="fill:none;stroke:#FF0000;stroke-width:0.5" />
<path d="M1897.5,1005.7A2.5,2.5 0 1 1 1892.5,1005.7A2.5,2.5 0 1 1 1897.5,1005.7Z" style="fill:none;stroke:#FF0000;stroke-width:0.5" />
<path d="M157.96,77.61L350.97,338.87L543.97,501.84L736.97,631.49L929.98,708.68L1123,786.69L1316,840.73L1509,897.62L1702,949.14L1895,1002.1" style="fill:none;stroke:#0000FF" />
<path d="M160.46,77.61A2.5,2.5 0 1 1 155.46,77.61A2.5,2.5 0 1 1 160.46,77.61Z" style="fill:none;stroke:#0000FF;stroke-width:0.5" />
<path d="M353.47,338.87A2.5,2.5 0 1 1 348.47,338.87A2.5,2.5 0 1 1 353.47,338.87Z" style="fill:none;stroke:#0000FF;stroke-width:0.5" />
<path d="M546.47,501.84A2.5,2.5 0 1 1 541.47,501.84A2.5,2.5 0 1 1 546.47,501.84Z" style="fill:none;stroke:#0000FF;stroke-width:0.5" />
<path d="M739.47,631.49A2.5,2.5 0 1 1 734.47,631.49A2.5,2.5 0 1 1 739.47,631.49Z" style="fill:none;stroke:#0000FF;stroke-width:0.5" />
<path d="M932.48,708.68A2.5,2.5 0 1 1 927.48,708.68A2.5,2.5 0 1 1 932.48,708.68Z" style="fill:none;stroke:#0000FF;stroke-width:0.5" />
<path d="M1125.5,786.69A2.5,2.5 0 1 1 1120.5,786.69A2.5,2.5 0 1 1 1125.5,786.69Z" style="fill:none;stroke:#0000FF;stroke-width:0.5" />
<path d="M1318.5,840.73A2.5,2.5 0 1 1 1313.5,840.73A2.5,2.5 0 1 1 1318.5,840.73Z" style="fill:none;stroke:#0000FF;stroke-width:0.5" />
<path d="M1511.5,897.62A2.5,2.5 0 1 1 1506.5,897.62A2.5,2.5 0 1 1 1511.5,897.62Z" style="fill:none;stroke:#0000FF;stroke-width:0.5" />
<path d="M1704.5,949.14A2.5,2.5 0 1 1 1699.5,949.14A2.5,2.5 0 1 1 1704.5,949.14Z" style="fill:none;stroke:#0000FF;stroke-width:0.5" />
<path d="M1897.5,1002.1A2.5,2.5 0 1 1 1892.5,1002.1A2.5,2.5 0 1 1 1897.5,1002.1Z" style="fill:none;stroke:#0000FF;stroke-width:0.5" />
<path d="M157.96,85.671L350.97,356.59L543.97,486.35L736.97,604.28L929.98,688.48L1123,772.55L1316,829.05L1509,878.93L1702,928.5L1895,973.64" style="fill:none;stroke:#00FF00" />
<path d="M160.46,85.671A2.5,2.5 0 1 1 155.46,85.671A2.5,2.5 0 1 1 160.46,85.671Z" style="fill:none;stroke:#00FF00;stroke-width:0.5" />
<path d="M353.47,356.59A2.5,2.5 0 1 1 348.47,356.59A2.5,2.5 0 1 1 353.47,356.59Z" style="fill:none;stroke:#00FF00;stroke-width:0.5" />
<path d="M546.47,486.35A2.5,2.5 0 1 1 541.47,486.35A2.5,2.5 0 1 1 546.47,486.35Z" style="fill:none;stroke:#00FF00;stroke-width:0.5" />
<path d="M739.47,604.28A2.5,2.5 0 1 1 734.47,604.28A2.5,2.5 0 1 1 739.47,604.28Z" style="fill:none;stroke:#00FF00;stroke-width:0.5" />
<path d="M932.48,688.48A2.5,2.5 0 1 1 927.48,688.48A2.5,2.5 0 1 1 932.48,688.48Z" style="fill:none;stroke:#00FF00;stroke-width:0.5" />
<path d="M1125.5,772.55A2.5,2.5 0 1 1 1120.5,772.55A2.5,2.5 0 1 1 1125.5,772.55Z" style="fill:none;stroke:#00FF00;stroke-width:0.5" />
<path d="M1318.5,829.05A2.5,2.5 0 1 1 1313.5,829.05A2.5,2.5 0 1 1 1318.5,829.05Z" style="fill:none;stroke:#00FF00;stroke-width:0.5" />
<path d="M1511.5,878.93A2.5,2.5 0 1 1 1506.5,878.93A2.5,2.5 0 1 1 1511.5,878.93Z" style="fill:none;stroke:#00FF00;stroke-width:0.5" />
<path d="M1704.5,928.5A2.5,2.5 0 1 1 1699.5,928.5A2.5,2.5 0 1 1 1704.5,928.5Z" style="fill:none;stroke:#00FF00;stroke-width:0.5" />
<path d="M1897.5,973.64A2.5,2.5 0 1 1 1892.5,973.64A2.5,2.5 0 1 1 1897.5,973.64Z" style="fill:none;stroke:#00FF00;stroke-width:0.5" />
<path d="M1900,126.03L1920,126.03" style="fill:none;stroke:#FF0000" />
<path d="M1912.5,126.03A2.5,2.5 0 1 1 1907.5,126.03A2.5,2.5 0 1 1 1912.5,126.03Z" style="fill:none;stroke:#FF0000;stroke-width:0.5" />
<text x="1823.3" y="-121.05" transform="scale(1, -1)"
	style="font-family:Liberation Serif;font-variant:normal;font-weight:normal;font-style:normal;font-size:24px">std::list</text>
<path d="M1900,105.66L1920,105.66" style="fill:none;stroke:#0000FF" />
<path d="M1912.5,105.66A2.5,2.5 0 1 1 1907.5,105.66A2.5,2.5 0 1 1 1912.5,105.66Z" style="fill:none;stroke:#0000FF;stroke-width:0.5" />
<text x="1795.4" y="-100.69" transform="scale(1, -1)"
	style="font-family:Liberation Serif;font-variant:normal;font-weight:normal;font-style:normal;font-size:24px">std::deque</text>
<path d="M1900,85.294L1920,85.294" style="fill:none;stroke:#00FF00" />
<path d="M1912.5,85.294A2.5,2.5 0 1 1 1907.5,85.294A2.5,2.5 0 1 1 1912.5,85.294Z" style="fill:none;stroke:#00FF00;stroke-width:0.5" />
<text x="1792.7" y="-80.319" transform="scale(1, -1)"
	style="font-family:Liberation Serif;font-variant:normal;font-weight:normal;font-style:normal;font-size:24px">std::vector</text>
</g>
</svg>
