<?xml version="1.0"?>
<!-- Generated by SVGo and Plotinum VG -->
<svg width="1920pt" height="1080pt" viewBox="0 0 1920 1080"
	xmlns="http://www.w3.org/2000/svg"
	xmlns:xlink="http://www.w3.org/1999/xlink">
<g transform="scale(1, -1) translate(0, -1080)">
<path d="M0,0L1920,0L1920,1080L0,1080Z" style="fill:#FFFFFF" />
<text x="839.25" y="-1040.9" transform="scale(1, -1)"
	style="font-family:Liberation Serif;font-variant:normal;font-weight:normal;font-style:normal;font-size:50px">linearsearch</text>
<text x="904.02" y="-9.7559" transform="scale(1, -1)"
	style="font-family:Liberation Serif;font-variant:normal;font-weight:normal;font-style:normal;font-size:30px">Number of elements</text>
<text x="137.96" y="-39.727" transform="scale(1, -1)"
	style="font-family:Liberation Serif;font-variant:normal;font-weight:normal;font-style:normal;font-size:20px">1000</text>
<text x="330.97" y="-39.727" transform="scale(1, -1)"
	style="font-family:Liberation Serif;font-variant:normal;font-weight:normal;font-style:normal;font-size:20px">2000</text>
<text x="523.97" y="-39.727" transform="scale(1, -1)"
	style="font-family:Liberation Serif;font-variant:normal;font-weight:normal;font-style:normal;font-size:20px">3000</text>
<text x="716.97" y="-39.727" transform="scale(1, -1)"
	style="font-family:Liberation Serif;font-variant:normal;font-weight:normal;font-style:normal;font-size:20px">4000</text>
<text x="909.98" y="-39.727" transform="scale(1, -1)"
	style="font-family:Liberation Serif;font-variant:normal;font-weight:normal;font-style:normal;font-size:20px">5000</text>
<text x="1103" y="-39.727" transform="scale(1, -1)"
	style="font-family:Liberation Serif;font-variant:normal;font-weight:normal;font-style:normal;font-size:20px">6000</text>
<text x="1296" y="-39.727" transform="scale(1, -1)"
	style="font-family:Liberation Serif;font-variant:normal;font-weight:normal;font-style:normal;font-size:20px">7000</text>
<text x="1489" y="-39.727" transform="scale(1, -1)"
	style="font-family:Liberation Serif;font-variant:normal;font-weight:normal;font-style:normal;font-size:20px">8000</text>
<text x="1682" y="-39.727" transform="scale(1, -1)"
	style="font-family:Liberation Serif;font-variant:normal;font-weight:normal;font-style:normal;font-size:20px">9000</text>
<text x="1870" y="-39.727" transform="scale(1, -1)"
	style="font-family:Liberation Serif;font-variant:normal;font-weight:normal;font-style:normal;font-size:20px">10000</text>
<path d="M157.96,55.371L157.96,63.371" style="fill:none;stroke:#000000;stroke-width:0.5" />
<path d="M350.97,55.371L350.97,63.371" style="fill:none;stroke:#000000;stroke-width:0.5" />
<path d="M543.97,55.371L543.97,63.371" style="fill:none;stroke:#000000;stroke-width:0.5" />
<path d="M736.97,55.371L736.97,63.371" style="fill:none;stroke:#000000;stroke-width:0.5" />
<path d="M929.98,55.371L929.98,63.371" style="fill:none;stroke:#000000;stroke-width:0.5" />
<path d="M1123,55.371L1123,63.371" style="fill:none;stroke:#000000;stroke-width:0.5" />
<path d="M1316,55.371L1316,63.371" style="fill:none;stroke:#000000;stroke-width:0.5" />
<path d="M1509,55.371L1509,63.371" style="fill:none;stroke:#000000;stroke-width:0.5" />
<path d="M1702,55.371L1702,63.371" style="fill:none;stroke:#000000;stroke-width:0.5" />
<path d="M1895,55.371L1895,63.371" style="fill:none;stroke:#000000;stroke-width:0.5" />
<path d="M157.96,63.371L1895,63.371" style="fill:none;stroke:#000000;stroke-width:0.5" />
<g transform="rotate(90)">
<text x="532.16" y="23.467" transform="scale(1, -1)"
	style="font-family:Liberation Serif;font-variant:normal;font-weight:normal;font-style:normal;font-size:30px">μs</text>
</g>
<text x="49.712" y="-171.43" transform="scale(1, -1)"
	style="font-family:Liberation Serif;font-variant:normal;font-weight:normal;font-style:normal;font-size:20px">250000.00</text>
<text x="39.712" y="-590.21" transform="scale(1, -1)"
	style="font-family:Liberation Serif;font-variant:normal;font-weight:normal;font-style:normal;font-size:20px">1250000.00</text>
<text x="39.712" y="-1009" transform="scale(1, -1)"
	style="font-family:Liberation Serif;font-variant:normal;font-weight:normal;font-style:normal;font-size:20px">2250000.00</text>
<path d="M139.71,176L147.71,176" style="fill:none;stroke:#000000;stroke-width:0.5" />
<path d="M139.71,594.78L147.71,594.78" style="fill:none;stroke:#000000;stroke-width:0.5" />
<path d="M139.71,1013.6L147.71,1013.6" style="fill:none;stroke:#000000;stroke-width:0.5" />
<path d="M143.71,385.39L147.71,385.39" style="fill:none;stroke:#000000;stroke-width:0.5" />
<path d="M143.71,804.17L147.71,804.17" style="fill:none;stroke:#000000;stroke-width:0.5" />
<path d="M147.71,77.61L147.71,1014.5" style="fill:none;stroke:#000000;stroke-width:0.5" />
<path d="M157.96,77.61L157.96,1014.5" style="fill:none;stroke:#808080;stroke-width:0.25" />
<path d="M350.97,77.61L350.97,1014.5" style="fill:none;stroke:#808080;stroke-width:0.25" />
<path d="M543.97,77.61L543.97,1014.5" style="fill:none;stroke:#808080;stroke-width:0.25" />
<path d="M736.97,77.61L736.97,1014.5" style="fill:none;stroke:#808080;stroke-width:0.25" />
<path d="M929.98,77.61L929.98,1014.5" style="fill:none;stroke:#808080;stroke-width:0.25" />
<path d="M1123,77.61L1123,1014.5" style="fill:none;stroke:#808080;stroke-width:0.25" />
<path d="M1316,77.61L1316,1014.5" style="fill:none;stroke:#808080;stroke-width:0.25" />
<path d="M1509,77.61L1509,1014.5" style="fill:none;stroke:#808080;stroke-width:0.25" />
<path d="M1702,77.61L1702,1014.5" style="fill:none;stroke:#808080;stroke-width:0.25" />
<path d="M1895,77.61L1895,1014.5" style="fill:none;stroke:#808080;stroke-width:0.25" />
<path d="M157.96,176L1895,176" style="fill:none;stroke:#808080;stroke-width:0.25" />
<path d="M157.96,594.78L1895,594.78" style="fill:none;stroke:#808080;stroke-width:0.25" />
<path d="M157.96,1013.6L1895,1013.6" style="fill:none;stroke:#808080;stroke-width:0.25" />
<path d="M157.96,79.182L350.97,102.65L543.97,138.19L736.97,181.17L929.98,261.65L1123,336.44L1316,490.78L1509,761.92L1702,928.73L1895,895.75" style="fill:none;stroke:#FF0000" />
<path d="M160.46,79.182A2.5,2.5 0 1 1 155.46,79.182A2.5,2.5 0 1 1 160.46,79.182Z" style="fill:none;stroke:#FF0000;stroke-width:0.5" />
<path d="M353.47,102.65A2.5,2.5 0 1 1 348.47,102.65A2.5,2.5 0 1 1 353.47,102.65Z" style="fill:none;stroke:#FF0000;stroke-width:0.5" />
<path d="M546.47,138.19A2.5,2.5 0 1 1 541.47,138.19A2.5,2.5 0 1 1 546.47,138.19Z" style="fill:none;stroke:#FF0000;stroke-width:0.5" />
<path d="M739.47,181.17A2.5,2.5 0 1 1 734.47,181.17A2.5,2.5 0 1 1 739.47,181.17Z" style="fill:none;stroke:#FF0000;stroke-width:0.5" />
<path d="M932.48,261.65A2.5,2.5 0 1 1 927.48,261.65A2.5,2.5 0 1 1 932.48,261.65Z" style="fill:none;stroke:#FF0000;stroke-width:0.5" />
<path d="M1125.5,336.44A2.5,2.5 0 1 1 1120.5,336.44A2.5,2.5 0 1 1 1125.5,336.44Z" style="fill:none;stroke:#FF0000;stroke-width:0.5" />
<path d="M1318.5,490.78A2.5,2.5 0 1 1 1313.5,490.78A2.5,2.5 0 1 1 1318.5,490.78Z" style="fill:none;stroke:#FF0000;stroke-width:0.5" />
<path d="M1511.5,761.92A2.5,2.5 0 1 1 1506.5,761.92A2.5,2.5 0 1 1 1511.5,761.92Z" style="fill:none;stroke:#FF0000;stroke-width:0.5" />
<path d="M1704.5,928.73A2.5,2.5 0 1 1 1699.5,928.73A2.5,2.5 0 1 1 1704.5,928.73Z" style="fill:none;stroke:#FF0000;stroke-width:0.5" />
<path d="M1897.5,895.75A2.5,2.5 0 1 1 1892.5,895.75A2.5,2.5 0 1 1 1897.5,895.75Z" style="fill:none;stroke:#FF0000;stroke-width:0.5" />
<path d="M157.96,78.138L350.97,99.468L543.97,142.73L736.97,179.18L929.98,247.23L1123,304.38L1316,412.46L1509,510.1L1702,631.28L1895,745.16" style="fill:none;stroke:#0000FF" />
<path d="M160.46,78.138A2.5,2.5 0 1 1 155.46,78.138A2.5,2.5 0 1 1 160.46,78.138Z" style="fill:none;stroke:#0000FF;stroke-width:0.5" />
<path d="M353.47,99.468A2.5,2.5 0 1 1 348.47,99.468A2.5,2.5 0 1 1 353.47,99.468Z" style="fill:none;stroke:#0000FF;stroke-width:0.5" />
<path d="M546.47,142.73A2.5,2.5 0 1 1 541.47,142.73A2.5,2.5 0 1 1 546.47,142.73Z" style="fill:none;stroke:#0000FF;stroke-width:0.5" />
<path d="M739.47,179.18A2.5,2.5 0 1 1 734.47,179.18A2.5,2.5 0 1 1 739.47,179.18Z" style="fill:none;stroke:#0000FF;stroke-width:0.5" />
<path d="M932.48,247.23A2.5,2.5 0 1 1 927.48,247.23A2.5,2.5 0 1 1 932.48,247.23Z" style="fill:none;stroke:#0000FF;stroke-width:0.5" />
<path d="M1125.5,304.38A2.5,2.5 0 1 1 1120.5,304.38A2.5,2.5 0 1 1 1125.5,304.38Z" style="fill:none;stroke:#0000FF;stroke-width:0.5" />
<path d="M1318.5,412.46A2.5,2.5 0 1 1 1313.5,412.46A2.5,2.5 0 1 1 1318.5,412.46Z" style="fill:none;stroke:#0000FF;stroke-width:0.5" />
<path d="M1511.5,510.1A2.5,2.5 0 1 1 1506.5,510.1A2.5,2.5 0 1 1 1511.5,510.1Z" style="fill:none;stroke:#0000FF;stroke-width:0.5" />
<path d="M1704.5,631.28A2.5,2.5 0 1 1 1699.5,631.28A2.5,2.5 0 1 1 1704.5,631.28Z" style="fill:none;stroke:#0000FF;stroke-width:0.5" />
<path d="M1897.5,745.16A2.5,2.5 0 1 1 1892.5,745.16A2.5,2.5 0 1 1 1897.5,745.16Z" style="fill:none;stroke:#0000FF;stroke-width:0.5" />
<path d="M157.96,77.61L350.97,94.611L543.97,123.14L736.97,174.79L929.98,226.15L1123,298.08L1316,374.02L1509,468.99L1702,587.89L1895,834.31" style="fill:none;stroke:#00FF00" />
<path d="M160.46,77.61A2.5,2.5 0 1 1 155.46,77.61A2.5,2.5 0 1 1 160.46,77.61Z" style="fill:none;stroke:#00FF00;stroke-width:0.5" />
<path d="M353.47,94.611A2.5,2.5 0 1 1 348.47,94.611A2.5,2.5 0 1 1 353.47,94.611Z" style="fill:none;stroke:#00FF00;stroke-width:0.5" />
<path d="M546.47,123.14A2.5,2.5 0 1 1 541.47,123.14A2.5,2.5 0 1 1 546.47,123.14Z" style="fill:none;stroke:#00FF00;stroke-width:0.5" />
<path d="M739.47,174.79A2.5,2.5 0 1 1 734.47,174.79A2.5,2.5 0 1 1 739.47,174.79Z" style="fill:none;stroke:#00FF00;stroke-width:0.5" />
<path d="M932.48,226.15A2.5,2.5 0 1 1 927.48,226.15A2.5,2.5 0 1 1 932.48,226.15Z" style="fill:none;stroke:#00FF00;stroke-width:0.5" />
<path d="M1125.5,298.08A2.5,2.5 0 1 1 1120.5,298.08A2.5,2.5 0 1 1 1125.5,298.08Z" style="fill:none;stroke:#00FF00;stroke-width:0.5" />
<path d="M1318.5,374.02A2.5,2.5 0 1 1 1313.5,374.02A2.5,2.5 0 1 1 1318.5,374.02Z" style="fill:none;stroke:#00FF00;stroke-width:0.5" />
<path d="M1511.5,468.99A2.5,2.5 0 1 1 1506.5,468.99A2.5,2.5 0 1 1 1511.5,468.99Z" style="fill:none;stroke:#00FF00;stroke-width:0.5" />
<path d="M1704.5,587.89A2.5,2.5 0 1 1 1699.5,587.89A2.5,2.5 0 1 1 1704.5,587.89Z" style="fill:none;stroke:#00FF00;stroke-width:0.5" />
<path d="M1897.5,834.31A2.5,2.5 0 1 1 1892.5,834.31A2.5,2.5 0 1 1 1897.5,834.31Z" style="fill:none;stroke:#00FF00;stroke-width:0.5" />
<path d="M1900,126.03L1920,126.03" style="fill:none;stroke:#FF0000" />
<path d="M1912.5,126.03A2.5,2.5 0 1 1 1907.5,126.03A2.5,2.5 0 1 1 1912.5,126.03Z" style="fill:none;stroke:#FF0000;stroke-width:0.5" />
<text x="1823.3" y="-121.05" transform="scale(1, -1)"
	style="font-family:Liberation Serif;font-variant:normal;font-weight:normal;font-style:normal;font-size:24px">std::list</text>
<path d="M1900,105.66L1920,105.66" style="fill:none;stroke:#0000FF" />
<path d="M1912.5,105.66A2.5,2.5 0 1 1 1907.5,105.66A2.5,2.5 0 1 1 1912.5,105.66Z" style="fill:none;stroke:#0000FF;stroke-width:0.5" />
<text x="1795.4" y="-100.69" transform="scale(1, -1)"
	style="font-family:Liberation Serif;font-variant:normal;font-weight:normal;font-style:normal;font-size:24px">std::deque</text>
<path d="M1900,85.294L1920,85.294" style="fill:none;stroke:#00FF00" />
<path d="M1912.5,85.294A2.5,2.5 0 1 1 1907.5,85.294A2.5,2.5 0 1 1 1912.5,85.294Z" style="fill:none;stroke:#00FF00;stroke-width:0.5" />
<text x="1792.7" y="-80.319" transform="scale(1, -1)"
	style="font-family:Liberation Serif;font-variant:normal;font-weight:normal;font-style:normal;font-size:24px">std::vector</text>
</g>
</svg>
