<?xml version="1.0"?>
<!-- Generated by SVGo and Plotinum VG -->
<svg width="1920pt" height="1080pt" viewBox="0 0 1920 1080"
	xmlns="http://www.w3.org/2000/svg"
	xmlns:xlink="http://www.w3.org/1999/xlink">
<g transform="scale(1, -1) translate(0, -1080)">
<path d="M0,0L1920,0L1920,1080L0,1080Z" style="fill:#FFFFFF" />
<text x="839.25" y="-1040.9" transform="scale(1, -1)"
	style="font-family:Liberation Serif;font-variant:normal;font-weight:normal;font-style:normal;font-size:50px">linearsearch</text>
<text x="891.52" y="-9.7559" transform="scale(1, -1)"
	style="font-family:Liberation Serif;font-variant:normal;font-weight:normal;font-style:normal;font-size:30px">Number of elements</text>
<text x="112.96" y="-39.727" transform="scale(1, -1)"
	style="font-family:Liberation Serif;font-variant:normal;font-weight:normal;font-style:normal;font-size:20px">1000</text>
<text x="308.74" y="-39.727" transform="scale(1, -1)"
	style="font-family:Liberation Serif;font-variant:normal;font-weight:normal;font-style:normal;font-size:20px">2000</text>
<text x="504.53" y="-39.727" transform="scale(1, -1)"
	style="font-family:Liberation Serif;font-variant:normal;font-weight:normal;font-style:normal;font-size:20px">3000</text>
<text x="700.31" y="-39.727" transform="scale(1, -1)"
	style="font-family:Liberation Serif;font-variant:normal;font-weight:normal;font-style:normal;font-size:20px">4000</text>
<text x="896.09" y="-39.727" transform="scale(1, -1)"
	style="font-family:Liberation Serif;font-variant:normal;font-weight:normal;font-style:normal;font-size:20px">5000</text>
<text x="1091.9" y="-39.727" transform="scale(1, -1)"
	style="font-family:Liberation Serif;font-variant:normal;font-weight:normal;font-style:normal;font-size:20px">6000</text>
<text x="1287.7" y="-39.727" transform="scale(1, -1)"
	style="font-family:Liberation Serif;font-variant:normal;font-weight:normal;font-style:normal;font-size:20px">7000</text>
<text x="1483.4" y="-39.727" transform="scale(1, -1)"
	style="font-family:Liberation Serif;font-variant:normal;font-weight:normal;font-style:normal;font-size:20px">8000</text>
<text x="1679.2" y="-39.727" transform="scale(1, -1)"
	style="font-family:Liberation Serif;font-variant:normal;font-weight:normal;font-style:normal;font-size:20px">9000</text>
<text x="1870" y="-39.727" transform="scale(1, -1)"
	style="font-family:Liberation Serif;font-variant:normal;font-weight:normal;font-style:normal;font-size:20px">10000</text>
<path d="M132.96,55.371L132.96,63.371" style="fill:none;stroke:#000000;stroke-width:0.5" />
<path d="M328.74,55.371L328.74,63.371" style="fill:none;stroke:#000000;stroke-width:0.5" />
<path d="M524.53,55.371L524.53,63.371" style="fill:none;stroke:#000000;stroke-width:0.5" />
<path d="M720.31,55.371L720.31,63.371" style="fill:none;stroke:#000000;stroke-width:0.5" />
<path d="M916.09,55.371L916.09,63.371" style="fill:none;stroke:#000000;stroke-width:0.5" />
<path d="M1111.9,55.371L1111.9,63.371" style="fill:none;stroke:#000000;stroke-width:0.5" />
<path d="M1307.7,55.371L1307.7,63.371" style="fill:none;stroke:#000000;stroke-width:0.5" />
<path d="M1503.4,55.371L1503.4,63.371" style="fill:none;stroke:#000000;stroke-width:0.5" />
<path d="M1699.2,55.371L1699.2,63.371" style="fill:none;stroke:#000000;stroke-width:0.5" />
<path d="M1895,55.371L1895,63.371" style="fill:none;stroke:#000000;stroke-width:0.5" />
<path d="M132.96,63.371L1895,63.371" style="fill:none;stroke:#000000;stroke-width:0.5" />
<g transform="rotate(90)">
<text x="537.24" y="23.467" transform="scale(1, -1)"
	style="font-family:Liberation Serif;font-variant:normal;font-weight:normal;font-style:normal;font-size:30px">μs</text>
</g>
<text x="49.712" y="-194.21" transform="scale(1, -1)"
	style="font-family:Liberation Serif;font-variant:normal;font-weight:normal;font-style:normal;font-size:20px">400000</text>
<text x="39.712" y="-578.72" transform="scale(1, -1)"
	style="font-family:Liberation Serif;font-variant:normal;font-weight:normal;font-style:normal;font-size:20px">1600000</text>
<text x="39.712" y="-963.23" transform="scale(1, -1)"
	style="font-family:Liberation Serif;font-variant:normal;font-weight:normal;font-style:normal;font-size:20px">2800000</text>
<path d="M114.71,198.78L122.71,198.78" style="fill:none;stroke:#000000;stroke-width:0.5" />
<path d="M114.71,583.29L122.71,583.29" style="fill:none;stroke:#000000;stroke-width:0.5" />
<path d="M114.71,967.8L122.71,967.8" style="fill:none;stroke:#000000;stroke-width:0.5" />
<path d="M118.71,391.03L122.71,391.03" style="fill:none;stroke:#000000;stroke-width:0.5" />
<path d="M118.71,775.55L122.71,775.55" style="fill:none;stroke:#000000;stroke-width:0.5" />
<path d="M122.71,77.61L122.71,1024.6" style="fill:none;stroke:#000000;stroke-width:0.5" />
<path d="M132.96,77.61L132.96,1024.6" style="fill:none;stroke:#808080;stroke-width:0.25" />
<path d="M328.74,77.61L328.74,1024.6" style="fill:none;stroke:#808080;stroke-width:0.25" />
<path d="M524.53,77.61L524.53,1024.6" style="fill:none;stroke:#808080;stroke-width:0.25" />
<path d="M720.31,77.61L720.31,1024.6" style="fill:none;stroke:#808080;stroke-width:0.25" />
<path d="M916.09,77.61L916.09,1024.6" style="fill:none;stroke:#808080;stroke-width:0.25" />
<path d="M1111.9,77.61L1111.9,1024.6" style="fill:none;stroke:#808080;stroke-width:0.25" />
<path d="M1307.7,77.61L1307.7,1024.6" style="fill:none;stroke:#808080;stroke-width:0.25" />
<path d="M1503.4,77.61L1503.4,1024.6" style="fill:none;stroke:#808080;stroke-width:0.25" />
<path d="M1699.2,77.61L1699.2,1024.6" style="fill:none;stroke:#808080;stroke-width:0.25" />
<path d="M1895,77.61L1895,1024.6" style="fill:none;stroke:#808080;stroke-width:0.25" />
<path d="M132.96,198.78L1895,198.78" style="fill:none;stroke:#808080;stroke-width:0.25" />
<path d="M132.96,583.29L1895,583.29" style="fill:none;stroke:#808080;stroke-width:0.25" />
<path d="M132.96,967.8L1895,967.8" style="fill:none;stroke:#808080;stroke-width:0.25" />
<path d="M132.96,77.61L328.74,98.828L524.53,135.6L720.31,193.73L916.09,257.54L1111.9,351.54L1307.7,452.79L1503.4,560.16L1699.2,704.06L1895,878.34" style="fill:none;stroke:#FF0000" />
<path d="M135.46,77.61A2.5,2.5 0 1 1 130.46,77.61A2.5,2.5 0 1 1 135.46,77.61Z" style="fill:none;stroke:#FF0000;stroke-width:0.5" />
<path d="M331.24,98.828A2.5,2.5 0 1 1 326.24,98.828A2.5,2.5 0 1 1 331.24,98.828Z" style="fill:none;stroke:#FF0000;stroke-width:0.5" />
<path d="M527.03,135.6A2.5,2.5 0 1 1 522.03,135.6A2.5,2.5 0 1 1 527.03,135.6Z" style="fill:none;stroke:#FF0000;stroke-width:0.5" />
<path d="M722.81,193.73A2.5,2.5 0 1 1 717.81,193.73A2.5,2.5 0 1 1 722.81,193.73Z" style="fill:none;stroke:#FF0000;stroke-width:0.5" />
<path d="M918.59,257.54A2.5,2.5 0 1 1 913.59,257.54A2.5,2.5 0 1 1 918.59,257.54Z" style="fill:none;stroke:#FF0000;stroke-width:0.5" />
<path d="M1114.4,351.54A2.5,2.5 0 1 1 1109.4,351.54A2.5,2.5 0 1 1 1114.4,351.54Z" style="fill:none;stroke:#FF0000;stroke-width:0.5" />
<path d="M1310.2,452.79A2.5,2.5 0 1 1 1305.2,452.79A2.5,2.5 0 1 1 1310.2,452.79Z" style="fill:none;stroke:#FF0000;stroke-width:0.5" />
<path d="M1505.9,560.16A2.5,2.5 0 1 1 1500.9,560.16A2.5,2.5 0 1 1 1505.9,560.16Z" style="fill:none;stroke:#FF0000;stroke-width:0.5" />
<path d="M1701.7,704.06A2.5,2.5 0 1 1 1696.7,704.06A2.5,2.5 0 1 1 1701.7,704.06Z" style="fill:none;stroke:#FF0000;stroke-width:0.5" />
<path d="M1897.5,878.34A2.5,2.5 0 1 1 1892.5,878.34A2.5,2.5 0 1 1 1897.5,878.34Z" style="fill:none;stroke:#FF0000;stroke-width:0.5" />
<path d="M132.96,79.119L328.74,102.28L524.53,144.12L720.31,198.16L916.09,314.06L1111.9,435.85L1307.7,471.54L1503.4,579.52L1699.2,724.34L1895,889.03" style="fill:none;stroke:#0000FF" />
<path d="M135.46,79.119A2.5,2.5 0 1 1 130.46,79.119A2.5,2.5 0 1 1 135.46,79.119Z" style="fill:none;stroke:#0000FF;stroke-width:0.5" />
<path d="M331.24,102.28A2.5,2.5 0 1 1 326.24,102.28A2.5,2.5 0 1 1 331.24,102.28Z" style="fill:none;stroke:#0000FF;stroke-width:0.5" />
<path d="M527.03,144.12A2.5,2.5 0 1 1 522.03,144.12A2.5,2.5 0 1 1 527.03,144.12Z" style="fill:none;stroke:#0000FF;stroke-width:0.5" />
<path d="M722.81,198.16A2.5,2.5 0 1 1 717.81,198.16A2.5,2.5 0 1 1 722.81,198.16Z" style="fill:none;stroke:#0000FF;stroke-width:0.5" />
<path d="M918.59,314.06A2.5,2.5 0 1 1 913.59,314.06A2.5,2.5 0 1 1 918.59,314.06Z" style="fill:none;stroke:#0000FF;stroke-width:0.5" />
<path d="M1114.4,435.85A2.5,2.5 0 1 1 1109.4,435.85A2.5,2.5 0 1 1 1114.4,435.85Z" style="fill:none;stroke:#0000FF;stroke-width:0.5" />
<path d="M1310.2,471.54A2.5,2.5 0 1 1 1305.2,471.54A2.5,2.5 0 1 1 1310.2,471.54Z" style="fill:none;stroke:#0000FF;stroke-width:0.5" />
<path d="M1505.9,579.52A2.5,2.5 0 1 1 1500.9,579.52A2.5,2.5 0 1 1 1505.9,579.52Z" style="fill:none;stroke:#0000FF;stroke-width:0.5" />
<path d="M1701.7,724.34A2.5,2.5 0 1 1 1696.7,724.34A2.5,2.5 0 1 1 1701.7,724.34Z" style="fill:none;stroke:#0000FF;stroke-width:0.5" />
<path d="M1897.5,889.03A2.5,2.5 0 1 1 1892.5,889.03A2.5,2.5 0 1 1 1897.5,889.03Z" style="fill:none;stroke:#0000FF;stroke-width:0.5" />
<path d="M132.96,78.496L328.74,109.29L524.53,145.09L720.31,198.62L916.09,273.83L1111.9,367.3L1307.7,496.6L1503.4,630.04L1699.2,759.79L1895,937.9" style="fill:none;stroke:#00FF00" />
<path d="M135.46,78.496A2.5,2.5 0 1 1 130.46,78.496A2.5,2.5 0 1 1 135.46,78.496Z" style="fill:none;stroke:#00FF00;stroke-width:0.5" />
<path d="M331.24,109.29A2.5,2.5 0 1 1 326.24,109.29A2.5,2.5 0 1 1 331.24,109.29Z" style="fill:none;stroke:#00FF00;stroke-width:0.5" />
<path d="M527.03,145.09A2.5,2.5 0 1 1 522.03,145.09A2.5,2.5 0 1 1 527.03,145.09Z" style="fill:none;stroke:#00FF00;stroke-width:0.5" />
<path d="M722.81,198.62A2.5,2.5 0 1 1 717.81,198.62A2.5,2.5 0 1 1 722.81,198.62Z" style="fill:none;stroke:#00FF00;stroke-width:0.5" />
<path d="M918.59,273.83A2.5,2.5 0 1 1 913.59,273.83A2.5,2.5 0 1 1 918.59,273.83Z" style="fill:none;stroke:#00FF00;stroke-width:0.5" />
<path d="M1114.4,367.3A2.5,2.5 0 1 1 1109.4,367.3A2.5,2.5 0 1 1 1114.4,367.3Z" style="fill:none;stroke:#00FF00;stroke-width:0.5" />
<path d="M1310.2,496.6A2.5,2.5 0 1 1 1305.2,496.6A2.5,2.5 0 1 1 1310.2,496.6Z" style="fill:none;stroke:#00FF00;stroke-width:0.5" />
<path d="M1505.9,630.04A2.5,2.5 0 1 1 1500.9,630.04A2.5,2.5 0 1 1 1505.9,630.04Z" style="fill:none;stroke:#00FF00;stroke-width:0.5" />
<path d="M1701.7,759.79A2.5,2.5 0 1 1 1696.7,759.79A2.5,2.5 0 1 1 1701.7,759.79Z" style="fill:none;stroke:#00FF00;stroke-width:0.5" />
<path d="M1897.5,937.9A2.5,2.5 0 1 1 1892.5,937.9A2.5,2.5 0 1 1 1897.5,937.9Z" style="fill:none;stroke:#00FF00;stroke-width:0.5" />
<path d="M1900,126.03L1920,126.03" style="fill:none;stroke:#FF0000" />
<path d="M1912.5,126.03A2.5,2.5 0 1 1 1907.5,126.03A2.5,2.5 0 1 1 1912.5,126.03Z" style="fill:none;stroke:#FF0000;stroke-width:0.5" />
<text x="1792.7" y="-121.05" transform="scale(1, -1)"
	style="font-family:Liberation Serif;font-variant:normal;font-weight:normal;font-style:normal;font-size:24px">std::vector</text>
<path d="M1900,105.66L1920,105.66" style="fill:none;stroke:#0000FF" />
<path d="M1912.5,105.66A2.5,2.5 0 1 1 1907.5,105.66A2.5,2.5 0 1 1 1912.5,105.66Z" style="fill:none;stroke:#0000FF;stroke-width:0.5" />
<text x="1823.3" y="-100.69" transform="scale(1, -1)"
	style="font-family:Liberation Serif;font-variant:normal;font-weight:normal;font-style:normal;font-size:24px">std::list</text>
<path d="M1900,85.294L1920,85.294" style="fill:none;stroke:#00FF00" />
<path d="M1912.5,85.294A2.5,2.5 0 1 1 1907.5,85.294A2.5,2.5 0 1 1 1912.5,85.294Z" style="fill:none;stroke:#00FF00;stroke-width:0.5" />
<text x="1795.4" y="-80.319" transform="scale(1, -1)"
	style="font-family:Liberation Serif;font-variant:normal;font-weight:normal;font-style:normal;font-size:24px">std::deque</text>
</g>
</svg>
