<?xml version="1.0"?>
<!-- Generated by SVGo and Plotinum VG -->
<svg width="1920pt" height="1080pt" viewBox="0 0 1920 1080"
	xmlns="http://www.w3.org/2000/svg"
	xmlns:xlink="http://www.w3.org/1999/xlink">
<g transform="scale(1, -1) translate(0, -1080)">
<path d="M0,0L1920,0L1920,1080L0,1080Z" style="fill:#FFFFFF" />
<text x="717.76" y="-1040.9" transform="scale(1, -1)"
	style="font-family:Liberation Serif;font-variant:normal;font-weight:normal;font-style:normal;font-size:50px">linearsearch - Log Scale</text>
<text x="904.02" y="-9.7559" transform="scale(1, -1)"
	style="font-family:Liberation Serif;font-variant:normal;font-weight:normal;font-style:normal;font-size:30px">Number of elements</text>
<text x="137.96" y="-39.727" transform="scale(1, -1)"
	style="font-family:Liberation Serif;font-variant:normal;font-weight:normal;font-style:normal;font-size:20px">1000</text>
<text x="330.97" y="-39.727" transform="scale(1, -1)"
	style="font-family:Liberation Serif;font-variant:normal;font-weight:normal;font-style:normal;font-size:20px">2000</text>
<text x="523.97" y="-39.727" transform="scale(1, -1)"
	style="font-family:Liberation Serif;font-variant:normal;font-weight:normal;font-style:normal;font-size:20px">3000</text>
<text x="716.97" y="-39.727" transform="scale(1, -1)"
	style="font-family:Liberation Serif;font-variant:normal;font-weight:normal;font-style:normal;font-size:20px">4000</text>
<text x="909.98" y="-39.727" transform="scale(1, -1)"
	style="font-family:Liberation Serif;font-variant:normal;font-weight:normal;font-style:normal;font-size:20px">5000</text>
<text x="1103" y="-39.727" transform="scale(1, -1)"
	style="font-family:Liberation Serif;font-variant:normal;font-weight:normal;font-style:normal;font-size:20px">6000</text>
<text x="1296" y="-39.727" transform="scale(1, -1)"
	style="font-family:Liberation Serif;font-variant:normal;font-weight:normal;font-style:normal;font-size:20px">7000</text>
<text x="1489" y="-39.727" transform="scale(1, -1)"
	style="font-family:Liberation Serif;font-variant:normal;font-weight:normal;font-style:normal;font-size:20px">8000</text>
<text x="1682" y="-39.727" transform="scale(1, -1)"
	style="font-family:Liberation Serif;font-variant:normal;font-weight:normal;font-style:normal;font-size:20px">9000</text>
<text x="1870" y="-39.727" transform="scale(1, -1)"
	style="font-family:Liberation Serif;font-variant:normal;font-weight:normal;font-style:normal;font-size:20px">10000</text>
<path d="M157.96,55.371L157.96,63.371" style="fill:none;stroke:#000000;stroke-width:0.5" />
<path d="M350.97,55.371L350.97,63.371" style="fill:none;stroke:#000000;stroke-width:0.5" />
<path d="M543.97,55.371L543.97,63.371" style="fill:none;stroke:#000000;stroke-width:0.5" />
<path d="M736.97,55.371L736.97,63.371" style="fill:none;stroke:#000000;stroke-width:0.5" />
<path d="M929.98,55.371L929.98,63.371" style="fill:none;stroke:#000000;stroke-width:0.5" />
<path d="M1123,55.371L1123,63.371" style="fill:none;stroke:#000000;stroke-width:0.5" />
<path d="M1316,55.371L1316,63.371" style="fill:none;stroke:#000000;stroke-width:0.5" />
<path d="M1509,55.371L1509,63.371" style="fill:none;stroke:#000000;stroke-width:0.5" />
<path d="M1702,55.371L1702,63.371" style="fill:none;stroke:#000000;stroke-width:0.5" />
<path d="M1895,55.371L1895,63.371" style="fill:none;stroke:#000000;stroke-width:0.5" />
<path d="M157.96,63.371L1895,63.371" style="fill:none;stroke:#000000;stroke-width:0.5" />
<g transform="rotate(90)">
<text x="502.64" y="23.467" transform="scale(1, -1)"
	style="font-family:Liberation Serif;font-variant:normal;font-weight:normal;font-style:normal;font-size:30px">log(μs)</text>
</g>
<text x="49.712" y="-598.29" transform="scale(1, -1)"
	style="font-family:Liberation Serif;font-variant:normal;font-weight:normal;font-style:normal;font-size:20px">250000.00</text>
<text x="39.712" y="-899.12" transform="scale(1, -1)"
	style="font-family:Liberation Serif;font-variant:normal;font-weight:normal;font-style:normal;font-size:20px">1250000.00</text>
<text x="39.712" y="-1009" transform="scale(1, -1)"
	style="font-family:Liberation Serif;font-variant:normal;font-weight:normal;font-style:normal;font-size:20px">2250000.00</text>
<path d="M139.71,602.86L147.71,602.86" style="fill:none;stroke:#000000;stroke-width:0.5" />
<path d="M139.71,903.69L147.71,903.69" style="fill:none;stroke:#000000;stroke-width:0.5" />
<path d="M139.71,1013.6L147.71,1013.6" style="fill:none;stroke:#000000;stroke-width:0.5" />
<path d="M143.71,808.21L147.71,808.21" style="fill:none;stroke:#000000;stroke-width:0.5" />
<path d="M143.71,966.58L147.71,966.58" style="fill:none;stroke:#000000;stroke-width:0.5" />
<path d="M147.71,77.61L147.71,1013.7" style="fill:none;stroke:#000000;stroke-width:0.5" />
<path d="M157.96,77.61L157.96,1013.7" style="fill:none;stroke:#808080;stroke-width:0.25" />
<path d="M350.97,77.61L350.97,1013.7" style="fill:none;stroke:#808080;stroke-width:0.25" />
<path d="M543.97,77.61L543.97,1013.7" style="fill:none;stroke:#808080;stroke-width:0.25" />
<path d="M736.97,77.61L736.97,1013.7" style="fill:none;stroke:#808080;stroke-width:0.25" />
<path d="M929.98,77.61L929.98,1013.7" style="fill:none;stroke:#808080;stroke-width:0.25" />
<path d="M1123,77.61L1123,1013.7" style="fill:none;stroke:#808080;stroke-width:0.25" />
<path d="M1316,77.61L1316,1013.7" style="fill:none;stroke:#808080;stroke-width:0.25" />
<path d="M1509,77.61L1509,1013.7" style="fill:none;stroke:#808080;stroke-width:0.25" />
<path d="M1702,77.61L1702,1013.7" style="fill:none;stroke:#808080;stroke-width:0.25" />
<path d="M1895,77.61L1895,1013.7" style="fill:none;stroke:#808080;stroke-width:0.25" />
<path d="M157.96,602.86L1895,602.86" style="fill:none;stroke:#808080;stroke-width:0.25" />
<path d="M157.96,903.69L1895,903.69" style="fill:none;stroke:#808080;stroke-width:0.25" />
<path d="M157.96,1013.6L1895,1013.6" style="fill:none;stroke:#808080;stroke-width:0.25" />
<path d="M157.96,119.23L350.97,377.4L543.97,519.12L736.97,611.87L929.98,714.59L1123,776.54L1316,862.29L1509,955.48L1702,995.92L1895,988.59" style="fill:none;stroke:#FF0000" />
<path d="M160.46,119.23A2.5,2.5 0 1 1 155.46,119.23A2.5,2.5 0 1 1 160.46,119.23Z" style="fill:none;stroke:#FF0000;stroke-width:0.5" />
<path d="M353.47,377.4A2.5,2.5 0 1 1 348.47,377.4A2.5,2.5 0 1 1 353.47,377.4Z" style="fill:none;stroke:#FF0000;stroke-width:0.5" />
<path d="M546.47,519.12A2.5,2.5 0 1 1 541.47,519.12A2.5,2.5 0 1 1 546.47,519.12Z" style="fill:none;stroke:#FF0000;stroke-width:0.5" />
<path d="M739.47,611.87A2.5,2.5 0 1 1 734.47,611.87A2.5,2.5 0 1 1 739.47,611.87Z" style="fill:none;stroke:#FF0000;stroke-width:0.5" />
<path d="M932.48,714.59A2.5,2.5 0 1 1 927.48,714.59A2.5,2.5 0 1 1 932.48,714.59Z" style="fill:none;stroke:#FF0000;stroke-width:0.5" />
<path d="M1125.5,776.54A2.5,2.5 0 1 1 1120.5,776.54A2.5,2.5 0 1 1 1125.5,776.54Z" style="fill:none;stroke:#FF0000;stroke-width:0.5" />
<path d="M1318.5,862.29A2.5,2.5 0 1 1 1313.5,862.29A2.5,2.5 0 1 1 1318.5,862.29Z" style="fill:none;stroke:#FF0000;stroke-width:0.5" />
<path d="M1511.5,955.48A2.5,2.5 0 1 1 1506.5,955.48A2.5,2.5 0 1 1 1511.5,955.48Z" style="fill:none;stroke:#FF0000;stroke-width:0.5" />
<path d="M1704.5,995.92A2.5,2.5 0 1 1 1699.5,995.92A2.5,2.5 0 1 1 1704.5,995.92Z" style="fill:none;stroke:#FF0000;stroke-width:0.5" />
<path d="M1897.5,988.59A2.5,2.5 0 1 1 1892.5,988.59A2.5,2.5 0 1 1 1897.5,988.59Z" style="fill:none;stroke:#FF0000;stroke-width:0.5" />
<path d="M157.96,92.651L350.97,357.42L543.97,531.37L736.97,608.46L929.98,699.87L1123,752.45L1316,823.66L1509,870.71L1702,916.29L1895,950.89" style="fill:none;stroke:#0000FF" />
<path d="M160.46,92.651A2.5,2.5 0 1 1 155.46,92.651A2.5,2.5 0 1 1 160.46,92.651Z" style="fill:none;stroke:#0000FF;stroke-width:0.5" />
<path d="M353.47,357.42A2.5,2.5 0 1 1 348.47,357.42A2.5,2.5 0 1 1 353.47,357.42Z" style="fill:none;stroke:#0000FF;stroke-width:0.5" />
<path d="M546.47,531.37A2.5,2.5 0 1 1 541.47,531.37A2.5,2.5 0 1 1 546.47,531.37Z" style="fill:none;stroke:#0000FF;stroke-width:0.5" />
<path d="M739.47,608.46A2.5,2.5 0 1 1 734.47,608.46A2.5,2.5 0 1 1 739.47,608.46Z" style="fill:none;stroke:#0000FF;stroke-width:0.5" />
<path d="M932.48,699.87A2.5,2.5 0 1 1 927.48,699.87A2.5,2.5 0 1 1 932.48,699.87Z" style="fill:none;stroke:#0000FF;stroke-width:0.5" />
<path d="M1125.5,752.45A2.5,2.5 0 1 1 1120.5,752.45A2.5,2.5 0 1 1 1125.5,752.45Z" style="fill:none;stroke:#0000FF;stroke-width:0.5" />
<path d="M1318.5,823.66A2.5,2.5 0 1 1 1313.5,823.66A2.5,2.5 0 1 1 1318.5,823.66Z" style="fill:none;stroke:#0000FF;stroke-width:0.5" />
<path d="M1511.5,870.71A2.5,2.5 0 1 1 1506.5,870.71A2.5,2.5 0 1 1 1511.5,870.71Z" style="fill:none;stroke:#0000FF;stroke-width:0.5" />
<path d="M1704.5,916.29A2.5,2.5 0 1 1 1699.5,916.29A2.5,2.5 0 1 1 1704.5,916.29Z" style="fill:none;stroke:#0000FF;stroke-width:0.5" />
<path d="M1897.5,950.89A2.5,2.5 0 1 1 1892.5,950.89A2.5,2.5 0 1 1 1897.5,950.89Z" style="fill:none;stroke:#0000FF;stroke-width:0.5" />
<path d="M157.96,77.61L350.97,322.04L543.97,471.47L736.97,600.69L929.98,676.02L1123,747.33L1316,801.31L1509,852.32L1702,901.22L1895,974.12" style="fill:none;stroke:#00FF00" />
<path d="M160.46,77.61A2.5,2.5 0 1 1 155.46,77.61A2.5,2.5 0 1 1 160.46,77.61Z" style="fill:none;stroke:#00FF00;stroke-width:0.5" />
<path d="M353.47,322.04A2.5,2.5 0 1 1 348.47,322.04A2.5,2.5 0 1 1 353.47,322.04Z" style="fill:none;stroke:#00FF00;stroke-width:0.5" />
<path d="M546.47,471.47A2.5,2.5 0 1 1 541.47,471.47A2.5,2.5 0 1 1 546.47,471.47Z" style="fill:none;stroke:#00FF00;stroke-width:0.5" />
<path d="M739.47,600.69A2.5,2.5 0 1 1 734.47,600.69A2.5,2.5 0 1 1 739.47,600.69Z" style="fill:none;stroke:#00FF00;stroke-width:0.5" />
<path d="M932.48,676.02A2.5,2.5 0 1 1 927.48,676.02A2.5,2.5 0 1 1 932.48,676.02Z" style="fill:none;stroke:#00FF00;stroke-width:0.5" />
<path d="M1125.5,747.33A2.5,2.5 0 1 1 1120.5,747.33A2.5,2.5 0 1 1 1125.5,747.33Z" style="fill:none;stroke:#00FF00;stroke-width:0.5" />
<path d="M1318.5,801.31A2.5,2.5 0 1 1 1313.5,801.31A2.5,2.5 0 1 1 1318.5,801.31Z" style="fill:none;stroke:#00FF00;stroke-width:0.5" />
<path d="M1511.5,852.32A2.5,2.5 0 1 1 1506.5,852.32A2.5,2.5 0 1 1 1511.5,852.32Z" style="fill:none;stroke:#00FF00;stroke-width:0.5" />
<path d="M1704.5,901.22A2.5,2.5 0 1 1 1699.5,901.22A2.5,2.5 0 1 1 1704.5,901.22Z" style="fill:none;stroke:#00FF00;stroke-width:0.5" />
<path d="M1897.5,974.12A2.5,2.5 0 1 1 1892.5,974.12A2.5,2.5 0 1 1 1897.5,974.12Z" style="fill:none;stroke:#00FF00;stroke-width:0.5" />
<path d="M1900,126.03L1920,126.03" style="fill:none;stroke:#FF0000" />
<path d="M1912.5,126.03A2.5,2.5 0 1 1 1907.5,126.03A2.5,2.5 0 1 1 1912.5,126.03Z" style="fill:none;stroke:#FF0000;stroke-width:0.5" />
<text x="1823.3" y="-121.05" transform="scale(1, -1)"
	style="font-family:Liberation Serif;font-variant:normal;font-weight:normal;font-style:normal;font-size:24px">std::list</text>
<path d="M1900,105.66L1920,105.66" style="fill:none;stroke:#0000FF" />
<path d="M1912.5,105.66A2.5,2.5 0 1 1 1907.5,105.66A2.5,2.5 0 1 1 1912.5,105.66Z" style="fill:none;stroke:#0000FF;stroke-width:0.5" />
<text x="1795.4" y="-100.69" transform="scale(1, -1)"
	style="font-family:Liberation Serif;font-variant:normal;font-weight:normal;font-style:normal;font-size:24px">std::deque</text>
<path d="M1900,85.294L1920,85.294" style="fill:none;stroke:#00FF00" />
<path d="M1912.5,85.294A2.5,2.5 0 1 1 1907.5,85.294A2.5,2.5 0 1 1 1912.5,85.294Z" style="fill:none;stroke:#00FF00;stroke-width:0.5" />
<text x="1792.7" y="-80.319" transform="scale(1, -1)"
	style="font-family:Liberation Serif;font-variant:normal;font-weight:normal;font-style:normal;font-size:24px">std::vector</text>
</g>
</svg>
