<?xml version="1.0"?>
<!-- Generated by SVGo and Plotinum VG -->
<svg width="1920pt" height="1080pt" viewBox="0 0 1920 1080"
	xmlns="http://www.w3.org/2000/svg"
	xmlns:xlink="http://www.w3.org/1999/xlink">
<g transform="scale(1, -1) translate(0, -1080)">
<path d="M0,0L1920,0L1920,1080L0,1080Z" style="fill:#FFFFFF" />
<text x="839.25" y="-1040.9" transform="scale(1, -1)"
	style="font-family:Liberation Serif;font-variant:normal;font-weight:normal;font-style:normal;font-size:50px">linearsearch</text>
<text x="904.02" y="-9.7559" transform="scale(1, -1)"
	style="font-family:Liberation Serif;font-variant:normal;font-weight:normal;font-style:normal;font-size:30px">Number of elements</text>
<text x="137.96" y="-39.727" transform="scale(1, -1)"
	style="font-family:Liberation Serif;font-variant:normal;font-weight:normal;font-style:normal;font-size:20px">1000</text>
<text x="330.97" y="-39.727" transform="scale(1, -1)"
	style="font-family:Liberation Serif;font-variant:normal;font-weight:normal;font-style:normal;font-size:20px">2000</text>
<text x="523.97" y="-39.727" transform="scale(1, -1)"
	style="font-family:Liberation Serif;font-variant:normal;font-weight:normal;font-style:normal;font-size:20px">3000</text>
<text x="716.97" y="-39.727" transform="scale(1, -1)"
	style="font-family:Liberation Serif;font-variant:normal;font-weight:normal;font-style:normal;font-size:20px">4000</text>
<text x="909.98" y="-39.727" transform="scale(1, -1)"
	style="font-family:Liberation Serif;font-variant:normal;font-weight:normal;font-style:normal;font-size:20px">5000</text>
<text x="1103" y="-39.727" transform="scale(1, -1)"
	style="font-family:Liberation Serif;font-variant:normal;font-weight:normal;font-style:normal;font-size:20px">6000</text>
<text x="1296" y="-39.727" transform="scale(1, -1)"
	style="font-family:Liberation Serif;font-variant:normal;font-weight:normal;font-style:normal;font-size:20px">7000</text>
<text x="1489" y="-39.727" transform="scale(1, -1)"
	style="font-family:Liberation Serif;font-variant:normal;font-weight:normal;font-style:normal;font-size:20px">8000</text>
<text x="1682" y="-39.727" transform="scale(1, -1)"
	style="font-family:Liberation Serif;font-variant:normal;font-weight:normal;font-style:normal;font-size:20px">9000</text>
<text x="1870" y="-39.727" transform="scale(1, -1)"
	style="font-family:Liberation Serif;font-variant:normal;font-weight:normal;font-style:normal;font-size:20px">10000</text>
<path d="M157.96,55.371L157.96,63.371" style="fill:none;stroke:#000000;stroke-width:0.5" />
<path d="M350.97,55.371L350.97,63.371" style="fill:none;stroke:#000000;stroke-width:0.5" />
<path d="M543.97,55.371L543.97,63.371" style="fill:none;stroke:#000000;stroke-width:0.5" />
<path d="M736.97,55.371L736.97,63.371" style="fill:none;stroke:#000000;stroke-width:0.5" />
<path d="M929.98,55.371L929.98,63.371" style="fill:none;stroke:#000000;stroke-width:0.5" />
<path d="M1123,55.371L1123,63.371" style="fill:none;stroke:#000000;stroke-width:0.5" />
<path d="M1316,55.371L1316,63.371" style="fill:none;stroke:#000000;stroke-width:0.5" />
<path d="M1509,55.371L1509,63.371" style="fill:none;stroke:#000000;stroke-width:0.5" />
<path d="M1702,55.371L1702,63.371" style="fill:none;stroke:#000000;stroke-width:0.5" />
<path d="M1895,55.371L1895,63.371" style="fill:none;stroke:#000000;stroke-width:0.5" />
<path d="M157.96,63.371L1895,63.371" style="fill:none;stroke:#000000;stroke-width:0.5" />
<g transform="rotate(90)">
<text x="534.89" y="23.467" transform="scale(1, -1)"
	style="font-family:Liberation Serif;font-variant:normal;font-weight:normal;font-style:normal;font-size:30px">μs</text>
</g>
<text x="49.712" y="-254.28" transform="scale(1, -1)"
	style="font-family:Liberation Serif;font-variant:normal;font-weight:normal;font-style:normal;font-size:20px">250000.00</text>
<text x="49.712" y="-631.63" transform="scale(1, -1)"
	style="font-family:Liberation Serif;font-variant:normal;font-weight:normal;font-style:normal;font-size:20px">750000.00</text>
<text x="39.712" y="-1009" transform="scale(1, -1)"
	style="font-family:Liberation Serif;font-variant:normal;font-weight:normal;font-style:normal;font-size:20px">1250000.00</text>
<path d="M139.71,258.85L147.71,258.85" style="fill:none;stroke:#000000;stroke-width:0.5" />
<path d="M139.71,636.2L147.71,636.2" style="fill:none;stroke:#000000;stroke-width:0.5" />
<path d="M139.71,1013.6L147.71,1013.6" style="fill:none;stroke:#000000;stroke-width:0.5" />
<path d="M143.71,107.91L147.71,107.91" style="fill:none;stroke:#000000;stroke-width:0.5" />
<path d="M143.71,183.38L147.71,183.38" style="fill:none;stroke:#000000;stroke-width:0.5" />
<path d="M143.71,334.32L147.71,334.32" style="fill:none;stroke:#000000;stroke-width:0.5" />
<path d="M143.71,409.79L147.71,409.79" style="fill:none;stroke:#000000;stroke-width:0.5" />
<path d="M143.71,485.26L147.71,485.26" style="fill:none;stroke:#000000;stroke-width:0.5" />
<path d="M143.71,560.73L147.71,560.73" style="fill:none;stroke:#000000;stroke-width:0.5" />
<path d="M143.71,711.67L147.71,711.67" style="fill:none;stroke:#000000;stroke-width:0.5" />
<path d="M143.71,787.14L147.71,787.14" style="fill:none;stroke:#000000;stroke-width:0.5" />
<path d="M143.71,862.61L147.71,862.61" style="fill:none;stroke:#000000;stroke-width:0.5" />
<path d="M143.71,938.08L147.71,938.08" style="fill:none;stroke:#000000;stroke-width:0.5" />
<path d="M147.71,77.61L147.71,1019.9" style="fill:none;stroke:#000000;stroke-width:0.5" />
<path d="M157.96,77.61L157.96,1019.9" style="fill:none;stroke:#808080;stroke-width:0.25" />
<path d="M350.97,77.61L350.97,1019.9" style="fill:none;stroke:#808080;stroke-width:0.25" />
<path d="M543.97,77.61L543.97,1019.9" style="fill:none;stroke:#808080;stroke-width:0.25" />
<path d="M736.97,77.61L736.97,1019.9" style="fill:none;stroke:#808080;stroke-width:0.25" />
<path d="M929.98,77.61L929.98,1019.9" style="fill:none;stroke:#808080;stroke-width:0.25" />
<path d="M1123,77.61L1123,1019.9" style="fill:none;stroke:#808080;stroke-width:0.25" />
<path d="M1316,77.61L1316,1019.9" style="fill:none;stroke:#808080;stroke-width:0.25" />
<path d="M1509,77.61L1509,1019.9" style="fill:none;stroke:#808080;stroke-width:0.25" />
<path d="M1702,77.61L1702,1019.9" style="fill:none;stroke:#808080;stroke-width:0.25" />
<path d="M1895,77.61L1895,1019.9" style="fill:none;stroke:#808080;stroke-width:0.25" />
<path d="M157.96,258.85L1895,258.85" style="fill:none;stroke:#808080;stroke-width:0.25" />
<path d="M157.96,636.2L1895,636.2" style="fill:none;stroke:#808080;stroke-width:0.25" />
<path d="M157.96,1013.6L1895,1013.6" style="fill:none;stroke:#808080;stroke-width:0.25" />
<path d="M157.96,79.003L350.97,105.11L543.97,157.04L736.97,230.01L929.98,337.26L1123,486.58L1316,572.54L1509,685.72L1702,889.93L1895,933.58" style="fill:none;stroke:#FF0000" />
<path d="M160.46,79.003A2.5,2.5 0 1 1 155.46,79.003A2.5,2.5 0 1 1 160.46,79.003Z" style="fill:none;stroke:#FF0000;stroke-width:0.5" />
<path d="M353.47,105.11A2.5,2.5 0 1 1 348.47,105.11A2.5,2.5 0 1 1 353.47,105.11Z" style="fill:none;stroke:#FF0000;stroke-width:0.5" />
<path d="M546.47,157.04A2.5,2.5 0 1 1 541.47,157.04A2.5,2.5 0 1 1 546.47,157.04Z" style="fill:none;stroke:#FF0000;stroke-width:0.5" />
<path d="M739.47,230.01A2.5,2.5 0 1 1 734.47,230.01A2.5,2.5 0 1 1 739.47,230.01Z" style="fill:none;stroke:#FF0000;stroke-width:0.5" />
<path d="M932.48,337.26A2.5,2.5 0 1 1 927.48,337.26A2.5,2.5 0 1 1 932.48,337.26Z" style="fill:none;stroke:#FF0000;stroke-width:0.5" />
<path d="M1125.5,486.58A2.5,2.5 0 1 1 1120.5,486.58A2.5,2.5 0 1 1 1125.5,486.58Z" style="fill:none;stroke:#FF0000;stroke-width:0.5" />
<path d="M1318.5,572.54A2.5,2.5 0 1 1 1313.5,572.54A2.5,2.5 0 1 1 1318.5,572.54Z" style="fill:none;stroke:#FF0000;stroke-width:0.5" />
<path d="M1511.5,685.72A2.5,2.5 0 1 1 1506.5,685.72A2.5,2.5 0 1 1 1511.5,685.72Z" style="fill:none;stroke:#FF0000;stroke-width:0.5" />
<path d="M1704.5,889.93A2.5,2.5 0 1 1 1699.5,889.93A2.5,2.5 0 1 1 1704.5,889.93Z" style="fill:none;stroke:#FF0000;stroke-width:0.5" />
<path d="M1897.5,933.58A2.5,2.5 0 1 1 1892.5,933.58A2.5,2.5 0 1 1 1897.5,933.58Z" style="fill:none;stroke:#FF0000;stroke-width:0.5" />
<path d="M157.96,77.719L350.97,99.932L543.97,146.12L736.97,191.72L929.98,252.54L1123,337.15L1316,411.64L1509,522.35L1702,638.41L1895,770.3" style="fill:none;stroke:#0000FF" />
<path d="M160.46,77.719A2.5,2.5 0 1 1 155.46,77.719A2.5,2.5 0 1 1 160.46,77.719Z" style="fill:none;stroke:#0000FF;stroke-width:0.5" />
<path d="M353.47,99.932A2.5,2.5 0 1 1 348.47,99.932A2.5,2.5 0 1 1 353.47,99.932Z" style="fill:none;stroke:#0000FF;stroke-width:0.5" />
<path d="M546.47,146.12A2.5,2.5 0 1 1 541.47,146.12A2.5,2.5 0 1 1 546.47,146.12Z" style="fill:none;stroke:#0000FF;stroke-width:0.5" />
<path d="M739.47,191.72A2.5,2.5 0 1 1 734.47,191.72A2.5,2.5 0 1 1 739.47,191.72Z" style="fill:none;stroke:#0000FF;stroke-width:0.5" />
<path d="M932.48,252.54A2.5,2.5 0 1 1 927.48,252.54A2.5,2.5 0 1 1 932.48,252.54Z" style="fill:none;stroke:#0000FF;stroke-width:0.5" />
<path d="M1125.5,337.15A2.5,2.5 0 1 1 1120.5,337.15A2.5,2.5 0 1 1 1125.5,337.15Z" style="fill:none;stroke:#0000FF;stroke-width:0.5" />
<path d="M1318.5,411.64A2.5,2.5 0 1 1 1313.5,411.64A2.5,2.5 0 1 1 1318.5,411.64Z" style="fill:none;stroke:#0000FF;stroke-width:0.5" />
<path d="M1511.5,522.35A2.5,2.5 0 1 1 1506.5,522.35A2.5,2.5 0 1 1 1511.5,522.35Z" style="fill:none;stroke:#0000FF;stroke-width:0.5" />
<path d="M1704.5,638.41A2.5,2.5 0 1 1 1699.5,638.41A2.5,2.5 0 1 1 1704.5,638.41Z" style="fill:none;stroke:#0000FF;stroke-width:0.5" />
<path d="M1897.5,770.3A2.5,2.5 0 1 1 1892.5,770.3A2.5,2.5 0 1 1 1897.5,770.3Z" style="fill:none;stroke:#0000FF;stroke-width:0.5" />
<path d="M157.96,77.61L350.97,103.22L543.97,133.78L736.97,182.19L929.98,247.4L1123,322.88L1316,412.62L1509,514.93L1702,630.53L1895,759.78" style="fill:none;stroke:#00FF00" />
<path d="M160.46,77.61A2.5,2.5 0 1 1 155.46,77.61A2.5,2.5 0 1 1 160.46,77.61Z" style="fill:none;stroke:#00FF00;stroke-width:0.5" />
<path d="M353.47,103.22A2.5,2.5 0 1 1 348.47,103.22A2.5,2.5 0 1 1 353.47,103.22Z" style="fill:none;stroke:#00FF00;stroke-width:0.5" />
<path d="M546.47,133.78A2.5,2.5 0 1 1 541.47,133.78A2.5,2.5 0 1 1 546.47,133.78Z" style="fill:none;stroke:#00FF00;stroke-width:0.5" />
<path d="M739.47,182.19A2.5,2.5 0 1 1 734.47,182.19A2.5,2.5 0 1 1 739.47,182.19Z" style="fill:none;stroke:#00FF00;stroke-width:0.5" />
<path d="M932.48,247.4A2.5,2.5 0 1 1 927.48,247.4A2.5,2.5 0 1 1 932.48,247.4Z" style="fill:none;stroke:#00FF00;stroke-width:0.5" />
<path d="M1125.5,322.88A2.5,2.5 0 1 1 1120.5,322.88A2.5,2.5 0 1 1 1125.5,322.88Z" style="fill:none;stroke:#00FF00;stroke-width:0.5" />
<path d="M1318.5,412.62A2.5,2.5 0 1 1 1313.5,412.62A2.5,2.5 0 1 1 1318.5,412.62Z" style="fill:none;stroke:#00FF00;stroke-width:0.5" />
<path d="M1511.5,514.93A2.5,2.5 0 1 1 1506.5,514.93A2.5,2.5 0 1 1 1511.5,514.93Z" style="fill:none;stroke:#00FF00;stroke-width:0.5" />
<path d="M1704.5,630.53A2.5,2.5 0 1 1 1699.5,630.53A2.5,2.5 0 1 1 1704.5,630.53Z" style="fill:none;stroke:#00FF00;stroke-width:0.5" />
<path d="M1897.5,759.78A2.5,2.5 0 1 1 1892.5,759.78A2.5,2.5 0 1 1 1897.5,759.78Z" style="fill:none;stroke:#00FF00;stroke-width:0.5" />
<path d="M1900,126.03L1920,126.03" style="fill:none;stroke:#FF0000" />
<path d="M1912.5,126.03A2.5,2.5 0 1 1 1907.5,126.03A2.5,2.5 0 1 1 1912.5,126.03Z" style="fill:none;stroke:#FF0000;stroke-width:0.5" />
<text x="1823.3" y="-121.05" transform="scale(1, -1)"
	style="font-family:Liberation Serif;font-variant:normal;font-weight:normal;font-style:normal;font-size:24px">std::list</text>
<path d="M1900,105.66L1920,105.66" style="fill:none;stroke:#0000FF" />
<path d="M1912.5,105.66A2.5,2.5 0 1 1 1907.5,105.66A2.5,2.5 0 1 1 1912.5,105.66Z" style="fill:none;stroke:#0000FF;stroke-width:0.5" />
<text x="1795.4" y="-100.69" transform="scale(1, -1)"
	style="font-family:Liberation Serif;font-variant:normal;font-weight:normal;font-style:normal;font-size:24px">std::deque</text>
<path d="M1900,85.294L1920,85.294" style="fill:none;stroke:#00FF00" />
<path d="M1912.5,85.294A2.5,2.5 0 1 1 1907.5,85.294A2.5,2.5 0 1 1 1912.5,85.294Z" style="fill:none;stroke:#00FF00;stroke-width:0.5" />
<text x="1792.7" y="-80.319" transform="scale(1, -1)"
	style="font-family:Liberation Serif;font-variant:normal;font-weight:normal;font-style:normal;font-size:24px">std::vector</text>
</g>
</svg>
