<?xml version="1.0"?>
<!-- Generated by SVGo and Plotinum VG -->
<svg width="1920pt" height="1080pt" viewBox="0 0 1920 1080"
	xmlns="http://www.w3.org/2000/svg"
	xmlns:xlink="http://www.w3.org/1999/xlink">
<g transform="scale(1, -1) translate(0, -1080)">
<path d="M0,0L1920,0L1920,1080L0,1080Z" style="fill:#FFFFFF" />
<text x="839.25" y="-1040.9" transform="scale(1, -1)"
	style="font-family:Liberation Serif;font-variant:normal;font-weight:normal;font-style:normal;font-size:50px">linearsearch</text>
<text x="904.02" y="-9.7559" transform="scale(1, -1)"
	style="font-family:Liberation Serif;font-variant:normal;font-weight:normal;font-style:normal;font-size:30px">Number of elements</text>
<text x="137.96" y="-39.727" transform="scale(1, -1)"
	style="font-family:Liberation Serif;font-variant:normal;font-weight:normal;font-style:normal;font-size:20px">1000</text>
<text x="330.97" y="-39.727" transform="scale(1, -1)"
	style="font-family:Liberation Serif;font-variant:normal;font-weight:normal;font-style:normal;font-size:20px">2000</text>
<text x="523.97" y="-39.727" transform="scale(1, -1)"
	style="font-family:Liberation Serif;font-variant:normal;font-weight:normal;font-style:normal;font-size:20px">3000</text>
<text x="716.97" y="-39.727" transform="scale(1, -1)"
	style="font-family:Liberation Serif;font-variant:normal;font-weight:normal;font-style:normal;font-size:20px">4000</text>
<text x="909.98" y="-39.727" transform="scale(1, -1)"
	style="font-family:Liberation Serif;font-variant:normal;font-weight:normal;font-style:normal;font-size:20px">5000</text>
<text x="1103" y="-39.727" transform="scale(1, -1)"
	style="font-family:Liberation Serif;font-variant:normal;font-weight:normal;font-style:normal;font-size:20px">6000</text>
<text x="1296" y="-39.727" transform="scale(1, -1)"
	style="font-family:Liberation Serif;font-variant:normal;font-weight:normal;font-style:normal;font-size:20px">7000</text>
<text x="1489" y="-39.727" transform="scale(1, -1)"
	style="font-family:Liberation Serif;font-variant:normal;font-weight:normal;font-style:normal;font-size:20px">8000</text>
<text x="1682" y="-39.727" transform="scale(1, -1)"
	style="font-family:Liberation Serif;font-variant:normal;font-weight:normal;font-style:normal;font-size:20px">9000</text>
<text x="1870" y="-39.727" transform="scale(1, -1)"
	style="font-family:Liberation Serif;font-variant:normal;font-weight:normal;font-style:normal;font-size:20px">10000</text>
<path d="M157.96,55.371L157.96,63.371" style="fill:none;stroke:#000000;stroke-width:0.5" />
<path d="M350.97,55.371L350.97,63.371" style="fill:none;stroke:#000000;stroke-width:0.5" />
<path d="M543.97,55.371L543.97,63.371" style="fill:none;stroke:#000000;stroke-width:0.5" />
<path d="M736.97,55.371L736.97,63.371" style="fill:none;stroke:#000000;stroke-width:0.5" />
<path d="M929.98,55.371L929.98,63.371" style="fill:none;stroke:#000000;stroke-width:0.5" />
<path d="M1123,55.371L1123,63.371" style="fill:none;stroke:#000000;stroke-width:0.5" />
<path d="M1316,55.371L1316,63.371" style="fill:none;stroke:#000000;stroke-width:0.5" />
<path d="M1509,55.371L1509,63.371" style="fill:none;stroke:#000000;stroke-width:0.5" />
<path d="M1702,55.371L1702,63.371" style="fill:none;stroke:#000000;stroke-width:0.5" />
<path d="M1895,55.371L1895,63.371" style="fill:none;stroke:#000000;stroke-width:0.5" />
<path d="M157.96,63.371L1895,63.371" style="fill:none;stroke:#000000;stroke-width:0.5" />
<g transform="rotate(90)">
<text x="537.24" y="23.467" transform="scale(1, -1)"
	style="font-family:Liberation Serif;font-variant:normal;font-weight:normal;font-style:normal;font-size:30px">μs</text>
</g>
<text x="49.712" y="-241.76" transform="scale(1, -1)"
	style="font-family:Liberation Serif;font-variant:normal;font-weight:normal;font-style:normal;font-size:20px">250000.00</text>
<text x="49.712" y="-594.35" transform="scale(1, -1)"
	style="font-family:Liberation Serif;font-variant:normal;font-weight:normal;font-style:normal;font-size:20px">750000.00</text>
<text x="39.712" y="-946.94" transform="scale(1, -1)"
	style="font-family:Liberation Serif;font-variant:normal;font-weight:normal;font-style:normal;font-size:20px">1250000.00</text>
<path d="M139.71,246.33L147.71,246.33" style="fill:none;stroke:#000000;stroke-width:0.5" />
<path d="M139.71,598.92L147.71,598.92" style="fill:none;stroke:#000000;stroke-width:0.5" />
<path d="M139.71,951.51L147.71,951.51" style="fill:none;stroke:#000000;stroke-width:0.5" />
<path d="M143.71,105.29L147.71,105.29" style="fill:none;stroke:#000000;stroke-width:0.5" />
<path d="M143.71,175.81L147.71,175.81" style="fill:none;stroke:#000000;stroke-width:0.5" />
<path d="M143.71,316.85L147.71,316.85" style="fill:none;stroke:#000000;stroke-width:0.5" />
<path d="M143.71,387.37L147.71,387.37" style="fill:none;stroke:#000000;stroke-width:0.5" />
<path d="M143.71,457.88L147.71,457.88" style="fill:none;stroke:#000000;stroke-width:0.5" />
<path d="M143.71,528.4L147.71,528.4" style="fill:none;stroke:#000000;stroke-width:0.5" />
<path d="M143.71,669.44L147.71,669.44" style="fill:none;stroke:#000000;stroke-width:0.5" />
<path d="M143.71,739.96L147.71,739.96" style="fill:none;stroke:#000000;stroke-width:0.5" />
<path d="M143.71,810.48L147.71,810.48" style="fill:none;stroke:#000000;stroke-width:0.5" />
<path d="M143.71,881L147.71,881" style="fill:none;stroke:#000000;stroke-width:0.5" />
<path d="M143.71,1022L147.71,1022" style="fill:none;stroke:#000000;stroke-width:0.5" />
<path d="M147.71,77.61L147.71,1024.6" style="fill:none;stroke:#000000;stroke-width:0.5" />
<path d="M157.96,77.61L157.96,1024.6" style="fill:none;stroke:#808080;stroke-width:0.25" />
<path d="M350.97,77.61L350.97,1024.6" style="fill:none;stroke:#808080;stroke-width:0.25" />
<path d="M543.97,77.61L543.97,1024.6" style="fill:none;stroke:#808080;stroke-width:0.25" />
<path d="M736.97,77.61L736.97,1024.6" style="fill:none;stroke:#808080;stroke-width:0.25" />
<path d="M929.98,77.61L929.98,1024.6" style="fill:none;stroke:#808080;stroke-width:0.25" />
<path d="M1123,77.61L1123,1024.6" style="fill:none;stroke:#808080;stroke-width:0.25" />
<path d="M1316,77.61L1316,1024.6" style="fill:none;stroke:#808080;stroke-width:0.25" />
<path d="M1509,77.61L1509,1024.6" style="fill:none;stroke:#808080;stroke-width:0.25" />
<path d="M1702,77.61L1702,1024.6" style="fill:none;stroke:#808080;stroke-width:0.25" />
<path d="M1895,77.61L1895,1024.6" style="fill:none;stroke:#808080;stroke-width:0.25" />
<path d="M157.96,246.33L1895,246.33" style="fill:none;stroke:#808080;stroke-width:0.25" />
<path d="M157.96,598.92L1895,598.92" style="fill:none;stroke:#808080;stroke-width:0.25" />
<path d="M157.96,951.51L1895,951.51" style="fill:none;stroke:#808080;stroke-width:0.25" />
<path d="M157.96,77.61L350.97,96.289L543.97,129.83L736.97,177.41L929.98,248.28L1123,309.68L1316,410.39L1509,506.84L1702,622.11L1895,752.56" style="fill:none;stroke:#FF0000" />
<path d="M160.46,77.61A2.5,2.5 0 1 1 155.46,77.61A2.5,2.5 0 1 1 160.46,77.61Z" style="fill:none;stroke:#FF0000;stroke-width:0.5" />
<path d="M353.47,96.289A2.5,2.5 0 1 1 348.47,96.289A2.5,2.5 0 1 1 353.47,96.289Z" style="fill:none;stroke:#FF0000;stroke-width:0.5" />
<path d="M546.47,129.83A2.5,2.5 0 1 1 541.47,129.83A2.5,2.5 0 1 1 546.47,129.83Z" style="fill:none;stroke:#FF0000;stroke-width:0.5" />
<path d="M739.47,177.41A2.5,2.5 0 1 1 734.47,177.41A2.5,2.5 0 1 1 739.47,177.41Z" style="fill:none;stroke:#FF0000;stroke-width:0.5" />
<path d="M932.48,248.28A2.5,2.5 0 1 1 927.48,248.28A2.5,2.5 0 1 1 932.48,248.28Z" style="fill:none;stroke:#FF0000;stroke-width:0.5" />
<path d="M1125.5,309.68A2.5,2.5 0 1 1 1120.5,309.68A2.5,2.5 0 1 1 1125.5,309.68Z" style="fill:none;stroke:#FF0000;stroke-width:0.5" />
<path d="M1318.5,410.39A2.5,2.5 0 1 1 1313.5,410.39A2.5,2.5 0 1 1 1318.5,410.39Z" style="fill:none;stroke:#FF0000;stroke-width:0.5" />
<path d="M1511.5,506.84A2.5,2.5 0 1 1 1506.5,506.84A2.5,2.5 0 1 1 1511.5,506.84Z" style="fill:none;stroke:#FF0000;stroke-width:0.5" />
<path d="M1704.5,622.11A2.5,2.5 0 1 1 1699.5,622.11A2.5,2.5 0 1 1 1704.5,622.11Z" style="fill:none;stroke:#FF0000;stroke-width:0.5" />
<path d="M1897.5,752.56A2.5,2.5 0 1 1 1892.5,752.56A2.5,2.5 0 1 1 1897.5,752.56Z" style="fill:none;stroke:#FF0000;stroke-width:0.5" />
<path d="M157.96,78.951L350.97,107.93L543.97,148.57L736.97,205.58L929.98,274.01L1123,377L1316,482.84L1509,620.49L1702,748.58L1895,937.85" style="fill:none;stroke:#0000FF" />
<path d="M160.46,78.951A2.5,2.5 0 1 1 155.46,78.951A2.5,2.5 0 1 1 160.46,78.951Z" style="fill:none;stroke:#0000FF;stroke-width:0.5" />
<path d="M353.47,107.93A2.5,2.5 0 1 1 348.47,107.93A2.5,2.5 0 1 1 353.47,107.93Z" style="fill:none;stroke:#0000FF;stroke-width:0.5" />
<path d="M546.47,148.57A2.5,2.5 0 1 1 541.47,148.57A2.5,2.5 0 1 1 546.47,148.57Z" style="fill:none;stroke:#0000FF;stroke-width:0.5" />
<path d="M739.47,205.58A2.5,2.5 0 1 1 734.47,205.58A2.5,2.5 0 1 1 739.47,205.58Z" style="fill:none;stroke:#0000FF;stroke-width:0.5" />
<path d="M932.48,274.01A2.5,2.5 0 1 1 927.48,274.01A2.5,2.5 0 1 1 932.48,274.01Z" style="fill:none;stroke:#0000FF;stroke-width:0.5" />
<path d="M1125.5,377A2.5,2.5 0 1 1 1120.5,377A2.5,2.5 0 1 1 1125.5,377Z" style="fill:none;stroke:#0000FF;stroke-width:0.5" />
<path d="M1318.5,482.84A2.5,2.5 0 1 1 1313.5,482.84A2.5,2.5 0 1 1 1318.5,482.84Z" style="fill:none;stroke:#0000FF;stroke-width:0.5" />
<path d="M1511.5,620.49A2.5,2.5 0 1 1 1506.5,620.49A2.5,2.5 0 1 1 1511.5,620.49Z" style="fill:none;stroke:#0000FF;stroke-width:0.5" />
<path d="M1704.5,748.58A2.5,2.5 0 1 1 1699.5,748.58A2.5,2.5 0 1 1 1704.5,748.58Z" style="fill:none;stroke:#0000FF;stroke-width:0.5" />
<path d="M1897.5,937.85A2.5,2.5 0 1 1 1892.5,937.85A2.5,2.5 0 1 1 1897.5,937.85Z" style="fill:none;stroke:#0000FF;stroke-width:0.5" />
<path d="M157.96,79.901L350.97,101.08L543.97,145.3L736.97,193.67L929.98,307.27L1123,359.94L1316,459.34L1509,571.62L1702,695.79L1895,843.85" style="fill:none;stroke:#00FF00" />
<path d="M160.46,79.901A2.5,2.5 0 1 1 155.46,79.901A2.5,2.5 0 1 1 160.46,79.901Z" style="fill:none;stroke:#00FF00;stroke-width:0.5" />
<path d="M353.47,101.08A2.5,2.5 0 1 1 348.47,101.08A2.5,2.5 0 1 1 353.47,101.08Z" style="fill:none;stroke:#00FF00;stroke-width:0.5" />
<path d="M546.47,145.3A2.5,2.5 0 1 1 541.47,145.3A2.5,2.5 0 1 1 546.47,145.3Z" style="fill:none;stroke:#00FF00;stroke-width:0.5" />
<path d="M739.47,193.67A2.5,2.5 0 1 1 734.47,193.67A2.5,2.5 0 1 1 739.47,193.67Z" style="fill:none;stroke:#00FF00;stroke-width:0.5" />
<path d="M932.48,307.27A2.5,2.5 0 1 1 927.48,307.27A2.5,2.5 0 1 1 932.48,307.27Z" style="fill:none;stroke:#00FF00;stroke-width:0.5" />
<path d="M1125.5,359.94A2.5,2.5 0 1 1 1120.5,359.94A2.5,2.5 0 1 1 1125.5,359.94Z" style="fill:none;stroke:#00FF00;stroke-width:0.5" />
<path d="M1318.5,459.34A2.5,2.5 0 1 1 1313.5,459.34A2.5,2.5 0 1 1 1318.5,459.34Z" style="fill:none;stroke:#00FF00;stroke-width:0.5" />
<path d="M1511.5,571.62A2.5,2.5 0 1 1 1506.5,571.62A2.5,2.5 0 1 1 1511.5,571.62Z" style="fill:none;stroke:#00FF00;stroke-width:0.5" />
<path d="M1704.5,695.79A2.5,2.5 0 1 1 1699.5,695.79A2.5,2.5 0 1 1 1704.5,695.79Z" style="fill:none;stroke:#00FF00;stroke-width:0.5" />
<path d="M1897.5,843.85A2.5,2.5 0 1 1 1892.5,843.85A2.5,2.5 0 1 1 1897.5,843.85Z" style="fill:none;stroke:#00FF00;stroke-width:0.5" />
<path d="M1900,126.03L1920,126.03" style="fill:none;stroke:#FF0000" />
<path d="M1912.5,126.03A2.5,2.5 0 1 1 1907.5,126.03A2.5,2.5 0 1 1 1912.5,126.03Z" style="fill:none;stroke:#FF0000;stroke-width:0.5" />
<text x="1792.7" y="-121.05" transform="scale(1, -1)"
	style="font-family:Liberation Serif;font-variant:normal;font-weight:normal;font-style:normal;font-size:24px">std::vector</text>
<path d="M1900,105.66L1920,105.66" style="fill:none;stroke:#0000FF" />
<path d="M1912.5,105.66A2.5,2.5 0 1 1 1907.5,105.66A2.5,2.5 0 1 1 1912.5,105.66Z" style="fill:none;stroke:#0000FF;stroke-width:0.5" />
<text x="1823.3" y="-100.69" transform="scale(1, -1)"
	style="font-family:Liberation Serif;font-variant:normal;font-weight:normal;font-style:normal;font-size:24px">std::list</text>
<path d="M1900,85.294L1920,85.294" style="fill:none;stroke:#00FF00" />
<path d="M1912.5,85.294A2.5,2.5 0 1 1 1907.5,85.294A2.5,2.5 0 1 1 1912.5,85.294Z" style="fill:none;stroke:#00FF00;stroke-width:0.5" />
<text x="1795.4" y="-80.319" transform="scale(1, -1)"
	style="font-family:Liberation Serif;font-variant:normal;font-weight:normal;font-style:normal;font-size:24px">std::deque</text>
</g>
</svg>
