<?xml version="1.0"?>
<!-- Generated by SVGo and Plotinum VG -->
<svg width="1920pt" height="1080pt" viewBox="0 0 1920 1080"
	xmlns="http://www.w3.org/2000/svg"
	xmlns:xlink="http://www.w3.org/1999/xlink">
<g transform="scale(1, -1) translate(0, -1080)">
<path d="M0,0L1920,0L1920,1080L0,1080Z" style="fill:#FFFFFF" />
<text x="717.76" y="-1040.9" transform="scale(1, -1)"
	style="font-family:Liberation Serif;font-variant:normal;font-weight:normal;font-style:normal;font-size:50px">linearsearch - Log Scale</text>
<text x="891.52" y="-9.7559" transform="scale(1, -1)"
	style="font-family:Liberation Serif;font-variant:normal;font-weight:normal;font-style:normal;font-size:30px">Number of elements</text>
<text x="112.96" y="-39.727" transform="scale(1, -1)"
	style="font-family:Liberation Serif;font-variant:normal;font-weight:normal;font-style:normal;font-size:20px">1000</text>
<text x="308.74" y="-39.727" transform="scale(1, -1)"
	style="font-family:Liberation Serif;font-variant:normal;font-weight:normal;font-style:normal;font-size:20px">2000</text>
<text x="504.53" y="-39.727" transform="scale(1, -1)"
	style="font-family:Liberation Serif;font-variant:normal;font-weight:normal;font-style:normal;font-size:20px">3000</text>
<text x="700.31" y="-39.727" transform="scale(1, -1)"
	style="font-family:Liberation Serif;font-variant:normal;font-weight:normal;font-style:normal;font-size:20px">4000</text>
<text x="896.09" y="-39.727" transform="scale(1, -1)"
	style="font-family:Liberation Serif;font-variant:normal;font-weight:normal;font-style:normal;font-size:20px">5000</text>
<text x="1091.9" y="-39.727" transform="scale(1, -1)"
	style="font-family:Liberation Serif;font-variant:normal;font-weight:normal;font-style:normal;font-size:20px">6000</text>
<text x="1287.7" y="-39.727" transform="scale(1, -1)"
	style="font-family:Liberation Serif;font-variant:normal;font-weight:normal;font-style:normal;font-size:20px">7000</text>
<text x="1483.4" y="-39.727" transform="scale(1, -1)"
	style="font-family:Liberation Serif;font-variant:normal;font-weight:normal;font-style:normal;font-size:20px">8000</text>
<text x="1679.2" y="-39.727" transform="scale(1, -1)"
	style="font-family:Liberation Serif;font-variant:normal;font-weight:normal;font-style:normal;font-size:20px">9000</text>
<text x="1870" y="-39.727" transform="scale(1, -1)"
	style="font-family:Liberation Serif;font-variant:normal;font-weight:normal;font-style:normal;font-size:20px">10000</text>
<path d="M132.96,55.371L132.96,63.371" style="fill:none;stroke:#000000;stroke-width:0.5" />
<path d="M328.74,55.371L328.74,63.371" style="fill:none;stroke:#000000;stroke-width:0.5" />
<path d="M524.53,55.371L524.53,63.371" style="fill:none;stroke:#000000;stroke-width:0.5" />
<path d="M720.31,55.371L720.31,63.371" style="fill:none;stroke:#000000;stroke-width:0.5" />
<path d="M916.09,55.371L916.09,63.371" style="fill:none;stroke:#000000;stroke-width:0.5" />
<path d="M1111.9,55.371L1111.9,63.371" style="fill:none;stroke:#000000;stroke-width:0.5" />
<path d="M1307.7,55.371L1307.7,63.371" style="fill:none;stroke:#000000;stroke-width:0.5" />
<path d="M1503.4,55.371L1503.4,63.371" style="fill:none;stroke:#000000;stroke-width:0.5" />
<path d="M1699.2,55.371L1699.2,63.371" style="fill:none;stroke:#000000;stroke-width:0.5" />
<path d="M1895,55.371L1895,63.371" style="fill:none;stroke:#000000;stroke-width:0.5" />
<path d="M132.96,63.371L1895,63.371" style="fill:none;stroke:#000000;stroke-width:0.5" />
<g transform="rotate(90)">
<text x="508.08" y="23.467" transform="scale(1, -1)"
	style="font-family:Liberation Serif;font-variant:normal;font-weight:normal;font-style:normal;font-size:30px">log(μs)</text>
</g>
<text x="39.712" y="-650.09" transform="scale(1, -1)"
	style="font-family:Liberation Serif;font-variant:normal;font-weight:normal;font-style:normal;font-size:20px">1000000</text>
<text x="39.712" y="-903.05" transform="scale(1, -1)"
	style="font-family:Liberation Serif;font-variant:normal;font-weight:normal;font-style:normal;font-size:20px">4000000</text>
<text x="39.712" y="-1005.2" transform="scale(1, -1)"
	style="font-family:Liberation Serif;font-variant:normal;font-weight:normal;font-style:normal;font-size:20px">7000000</text>
<path d="M114.71,654.66L122.71,654.66" style="fill:none;stroke:#000000;stroke-width:0.5" />
<path d="M114.71,907.62L122.71,907.62" style="fill:none;stroke:#000000;stroke-width:0.5" />
<path d="M114.71,1009.7L122.71,1009.7" style="fill:none;stroke:#000000;stroke-width:0.5" />
<path d="M118.71,781.14L122.71,781.14" style="fill:none;stroke:#000000;stroke-width:0.5" />
<path d="M118.71,855.12L122.71,855.12" style="fill:none;stroke:#000000;stroke-width:0.5" />
<path d="M118.71,948.33L122.71,948.33" style="fill:none;stroke:#000000;stroke-width:0.5" />
<path d="M118.71,981.6L122.71,981.6" style="fill:none;stroke:#000000;stroke-width:0.5" />
<path d="M122.71,77.61L122.71,1024.6" style="fill:none;stroke:#000000;stroke-width:0.5" />
<path d="M132.96,77.61L132.96,1024.6" style="fill:none;stroke:#808080;stroke-width:0.25" />
<path d="M328.74,77.61L328.74,1024.6" style="fill:none;stroke:#808080;stroke-width:0.25" />
<path d="M524.53,77.61L524.53,1024.6" style="fill:none;stroke:#808080;stroke-width:0.25" />
<path d="M720.31,77.61L720.31,1024.6" style="fill:none;stroke:#808080;stroke-width:0.25" />
<path d="M916.09,77.61L916.09,1024.6" style="fill:none;stroke:#808080;stroke-width:0.25" />
<path d="M1111.9,77.61L1111.9,1024.6" style="fill:none;stroke:#808080;stroke-width:0.25" />
<path d="M1307.7,77.61L1307.7,1024.6" style="fill:none;stroke:#808080;stroke-width:0.25" />
<path d="M1503.4,77.61L1503.4,1024.6" style="fill:none;stroke:#808080;stroke-width:0.25" />
<path d="M1699.2,77.61L1699.2,1024.6" style="fill:none;stroke:#808080;stroke-width:0.25" />
<path d="M1895,77.61L1895,1024.6" style="fill:none;stroke:#808080;stroke-width:0.25" />
<path d="M132.96,654.66L1895,654.66" style="fill:none;stroke:#808080;stroke-width:0.25" />
<path d="M132.96,907.62L1895,907.62" style="fill:none;stroke:#808080;stroke-width:0.25" />
<path d="M132.96,1009.7L1895,1009.7" style="fill:none;stroke:#808080;stroke-width:0.25" />
<path d="M132.96,107.56L328.74,370.11L524.53,529.76L720.31,638.23L916.09,720.41L1111.9,789.15L1307.7,848.6L1503.4,905.77L1699.2,954.87L1895,999.55" style="fill:none;stroke:#FF0000" />
<path d="M135.46,107.56A2.5,2.5 0 1 1 130.46,107.56A2.5,2.5 0 1 1 135.46,107.56Z" style="fill:none;stroke:#FF0000;stroke-width:0.5" />
<path d="M331.24,370.11A2.5,2.5 0 1 1 326.24,370.11A2.5,2.5 0 1 1 331.24,370.11Z" style="fill:none;stroke:#FF0000;stroke-width:0.5" />
<path d="M527.03,529.76A2.5,2.5 0 1 1 522.03,529.76A2.5,2.5 0 1 1 527.03,529.76Z" style="fill:none;stroke:#FF0000;stroke-width:0.5" />
<path d="M722.81,638.23A2.5,2.5 0 1 1 717.81,638.23A2.5,2.5 0 1 1 722.81,638.23Z" style="fill:none;stroke:#FF0000;stroke-width:0.5" />
<path d="M918.59,720.41A2.5,2.5 0 1 1 913.59,720.41A2.5,2.5 0 1 1 918.59,720.41Z" style="fill:none;stroke:#FF0000;stroke-width:0.5" />
<path d="M1114.4,789.15A2.5,2.5 0 1 1 1109.4,789.15A2.5,2.5 0 1 1 1114.4,789.15Z" style="fill:none;stroke:#FF0000;stroke-width:0.5" />
<path d="M1310.2,848.6A2.5,2.5 0 1 1 1305.2,848.6A2.5,2.5 0 1 1 1310.2,848.6Z" style="fill:none;stroke:#FF0000;stroke-width:0.5" />
<path d="M1505.9,905.77A2.5,2.5 0 1 1 1500.9,905.77A2.5,2.5 0 1 1 1505.9,905.77Z" style="fill:none;stroke:#FF0000;stroke-width:0.5" />
<path d="M1701.7,954.87A2.5,2.5 0 1 1 1696.7,954.87A2.5,2.5 0 1 1 1701.7,954.87Z" style="fill:none;stroke:#FF0000;stroke-width:0.5" />
<path d="M1897.5,999.55A2.5,2.5 0 1 1 1892.5,999.55A2.5,2.5 0 1 1 1897.5,999.55Z" style="fill:none;stroke:#FF0000;stroke-width:0.5" />
<path d="M132.96,104.06L328.74,378.25L524.53,533.03L720.31,643.38L916.09,722.42L1111.9,793.62L1307.7,858.69L1503.4,907.99L1699.2,959.25L1895,1007.2" style="fill:none;stroke:#0000FF" />
<path d="M135.46,104.06A2.5,2.5 0 1 1 130.46,104.06A2.5,2.5 0 1 1 135.46,104.06Z" style="fill:none;stroke:#0000FF;stroke-width:0.5" />
<path d="M331.24,378.25A2.5,2.5 0 1 1 326.24,378.25A2.5,2.5 0 1 1 331.24,378.25Z" style="fill:none;stroke:#0000FF;stroke-width:0.5" />
<path d="M527.03,533.03A2.5,2.5 0 1 1 522.03,533.03A2.5,2.5 0 1 1 527.03,533.03Z" style="fill:none;stroke:#0000FF;stroke-width:0.5" />
<path d="M722.81,643.38A2.5,2.5 0 1 1 717.81,643.38A2.5,2.5 0 1 1 722.81,643.38Z" style="fill:none;stroke:#0000FF;stroke-width:0.5" />
<path d="M918.59,722.42A2.5,2.5 0 1 1 913.59,722.42A2.5,2.5 0 1 1 918.59,722.42Z" style="fill:none;stroke:#0000FF;stroke-width:0.5" />
<path d="M1114.4,793.62A2.5,2.5 0 1 1 1109.4,793.62A2.5,2.5 0 1 1 1114.4,793.62Z" style="fill:none;stroke:#0000FF;stroke-width:0.5" />
<path d="M1310.2,858.69A2.5,2.5 0 1 1 1305.2,858.69A2.5,2.5 0 1 1 1310.2,858.69Z" style="fill:none;stroke:#0000FF;stroke-width:0.5" />
<path d="M1505.9,907.99A2.5,2.5 0 1 1 1500.9,907.99A2.5,2.5 0 1 1 1505.9,907.99Z" style="fill:none;stroke:#0000FF;stroke-width:0.5" />
<path d="M1701.7,959.25A2.5,2.5 0 1 1 1696.7,959.25A2.5,2.5 0 1 1 1701.7,959.25Z" style="fill:none;stroke:#0000FF;stroke-width:0.5" />
<path d="M1897.5,1007.2A2.5,2.5 0 1 1 1892.5,1007.2A2.5,2.5 0 1 1 1897.5,1007.2Z" style="fill:none;stroke:#0000FF;stroke-width:0.5" />
<path d="M132.96,77.61L328.74,353.35L524.53,501.7L720.31,615.52L916.09,692.97L1111.9,763.93L1307.7,822.9L1503.4,875.21L1699.2,928.01L1895,973.08" style="fill:none;stroke:#00FF00" />
<path d="M135.46,77.61A2.5,2.5 0 1 1 130.46,77.61A2.5,2.5 0 1 1 135.46,77.61Z" style="fill:none;stroke:#00FF00;stroke-width:0.5" />
<path d="M331.24,353.35A2.5,2.5 0 1 1 326.24,353.35A2.5,2.5 0 1 1 331.24,353.35Z" style="fill:none;stroke:#00FF00;stroke-width:0.5" />
<path d="M527.03,501.7A2.5,2.5 0 1 1 522.03,501.7A2.5,2.5 0 1 1 527.03,501.7Z" style="fill:none;stroke:#00FF00;stroke-width:0.5" />
<path d="M722.81,615.52A2.5,2.5 0 1 1 717.81,615.52A2.5,2.5 0 1 1 722.81,615.52Z" style="fill:none;stroke:#00FF00;stroke-width:0.5" />
<path d="M918.59,692.97A2.5,2.5 0 1 1 913.59,692.97A2.5,2.5 0 1 1 918.59,692.97Z" style="fill:none;stroke:#00FF00;stroke-width:0.5" />
<path d="M1114.4,763.93A2.5,2.5 0 1 1 1109.4,763.93A2.5,2.5 0 1 1 1114.4,763.93Z" style="fill:none;stroke:#00FF00;stroke-width:0.5" />
<path d="M1310.2,822.9A2.5,2.5 0 1 1 1305.2,822.9A2.5,2.5 0 1 1 1310.2,822.9Z" style="fill:none;stroke:#00FF00;stroke-width:0.5" />
<path d="M1505.9,875.21A2.5,2.5 0 1 1 1500.9,875.21A2.5,2.5 0 1 1 1505.9,875.21Z" style="fill:none;stroke:#00FF00;stroke-width:0.5" />
<path d="M1701.7,928.01A2.5,2.5 0 1 1 1696.7,928.01A2.5,2.5 0 1 1 1701.7,928.01Z" style="fill:none;stroke:#00FF00;stroke-width:0.5" />
<path d="M1897.5,973.08A2.5,2.5 0 1 1 1892.5,973.08A2.5,2.5 0 1 1 1897.5,973.08Z" style="fill:none;stroke:#00FF00;stroke-width:0.5" />
<path d="M1900,126.03L1920,126.03" style="fill:none;stroke:#FF0000" />
<path d="M1912.5,126.03A2.5,2.5 0 1 1 1907.5,126.03A2.5,2.5 0 1 1 1912.5,126.03Z" style="fill:none;stroke:#FF0000;stroke-width:0.5" />
<text x="1823.3" y="-121.05" transform="scale(1, -1)"
	style="font-family:Liberation Serif;font-variant:normal;font-weight:normal;font-style:normal;font-size:24px">std::list</text>
<path d="M1900,105.66L1920,105.66" style="fill:none;stroke:#0000FF" />
<path d="M1912.5,105.66A2.5,2.5 0 1 1 1907.5,105.66A2.5,2.5 0 1 1 1912.5,105.66Z" style="fill:none;stroke:#0000FF;stroke-width:0.5" />
<text x="1795.4" y="-100.69" transform="scale(1, -1)"
	style="font-family:Liberation Serif;font-variant:normal;font-weight:normal;font-style:normal;font-size:24px">std::deque</text>
<path d="M1900,85.294L1920,85.294" style="fill:none;stroke:#00FF00" />
<path d="M1912.5,85.294A2.5,2.5 0 1 1 1907.5,85.294A2.5,2.5 0 1 1 1912.5,85.294Z" style="fill:none;stroke:#00FF00;stroke-width:0.5" />
<text x="1792.7" y="-80.319" transform="scale(1, -1)"
	style="font-family:Liberation Serif;font-variant:normal;font-weight:normal;font-style:normal;font-size:24px">std::vector</text>
</g>
</svg>
