<?xml version="1.0"?>
<!-- Generated by SVGo and Plotinum VG -->
<svg width="1920pt" height="1080pt" viewBox="0 0 1920 1080"
	xmlns="http://www.w3.org/2000/svg"
	xmlns:xlink="http://www.w3.org/1999/xlink">
<g transform="scale(1, -1) translate(0, -1080)">
<path d="M0,0L1920,0L1920,1080L0,1080Z" style="fill:#FFFFFF" />
<text x="717.76" y="-1040.9" transform="scale(1, -1)"
	style="font-family:Liberation Serif;font-variant:normal;font-weight:normal;font-style:normal;font-size:50px">linearsearch - Log Scale</text>
<text x="896.15" y="-9.7559" transform="scale(1, -1)"
	style="font-family:Liberation Serif;font-variant:normal;font-weight:normal;font-style:normal;font-size:30px">Number of elements</text>
<text x="122.22" y="-39.727" transform="scale(1, -1)"
	style="font-family:Liberation Serif;font-variant:normal;font-weight:normal;font-style:normal;font-size:20px">1000</text>
<text x="316.97" y="-39.727" transform="scale(1, -1)"
	style="font-family:Liberation Serif;font-variant:normal;font-weight:normal;font-style:normal;font-size:20px">2000</text>
<text x="511.73" y="-39.727" transform="scale(1, -1)"
	style="font-family:Liberation Serif;font-variant:normal;font-weight:normal;font-style:normal;font-size:20px">3000</text>
<text x="706.48" y="-39.727" transform="scale(1, -1)"
	style="font-family:Liberation Serif;font-variant:normal;font-weight:normal;font-style:normal;font-size:20px">4000</text>
<text x="901.23" y="-39.727" transform="scale(1, -1)"
	style="font-family:Liberation Serif;font-variant:normal;font-weight:normal;font-style:normal;font-size:20px">5000</text>
<text x="1096" y="-39.727" transform="scale(1, -1)"
	style="font-family:Liberation Serif;font-variant:normal;font-weight:normal;font-style:normal;font-size:20px">6000</text>
<text x="1290.7" y="-39.727" transform="scale(1, -1)"
	style="font-family:Liberation Serif;font-variant:normal;font-weight:normal;font-style:normal;font-size:20px">7000</text>
<text x="1485.5" y="-39.727" transform="scale(1, -1)"
	style="font-family:Liberation Serif;font-variant:normal;font-weight:normal;font-style:normal;font-size:20px">8000</text>
<text x="1680.2" y="-39.727" transform="scale(1, -1)"
	style="font-family:Liberation Serif;font-variant:normal;font-weight:normal;font-style:normal;font-size:20px">9000</text>
<text x="1870" y="-39.727" transform="scale(1, -1)"
	style="font-family:Liberation Serif;font-variant:normal;font-weight:normal;font-style:normal;font-size:20px">10000</text>
<path d="M142.22,55.371L142.22,63.371" style="fill:none;stroke:#000000;stroke-width:0.5" />
<path d="M336.97,55.371L336.97,63.371" style="fill:none;stroke:#000000;stroke-width:0.5" />
<path d="M531.73,55.371L531.73,63.371" style="fill:none;stroke:#000000;stroke-width:0.5" />
<path d="M726.48,55.371L726.48,63.371" style="fill:none;stroke:#000000;stroke-width:0.5" />
<path d="M921.23,55.371L921.23,63.371" style="fill:none;stroke:#000000;stroke-width:0.5" />
<path d="M1116,55.371L1116,63.371" style="fill:none;stroke:#000000;stroke-width:0.5" />
<path d="M1310.7,55.371L1310.7,63.371" style="fill:none;stroke:#000000;stroke-width:0.5" />
<path d="M1505.5,55.371L1505.5,63.371" style="fill:none;stroke:#000000;stroke-width:0.5" />
<path d="M1700.2,55.371L1700.2,63.371" style="fill:none;stroke:#000000;stroke-width:0.5" />
<path d="M1895,55.371L1895,63.371" style="fill:none;stroke:#000000;stroke-width:0.5" />
<path d="M142.22,63.371L1895,63.371" style="fill:none;stroke:#000000;stroke-width:0.5" />
<g transform="rotate(90)">
<text x="508.08" y="23.467" transform="scale(1, -1)"
	style="font-family:Liberation Serif;font-variant:normal;font-weight:normal;font-style:normal;font-size:30px">log(μs)</text>
</g>
<text x="48.97" y="-585.29" transform="scale(1, -1)"
	style="font-family:Liberation Serif;font-variant:normal;font-weight:normal;font-style:normal;font-size:20px">1000000</text>
<text x="48.97" y="-896.74" transform="scale(1, -1)"
	style="font-family:Liberation Serif;font-variant:normal;font-weight:normal;font-style:normal;font-size:20px">6000000</text>
<text x="39.712" y="-1002.1" transform="scale(1, -1)"
	style="font-family:Liberation Serif;font-variant:normal;font-weight:normal;font-style:normal;font-size:20px">11000000</text>
<path d="M123.97,589.86L131.97,589.86" style="fill:none;stroke:#000000;stroke-width:0.5" />
<path d="M123.97,901.31L131.97,901.31" style="fill:none;stroke:#000000;stroke-width:0.5" />
<path d="M123.97,1006.7L131.97,1006.7" style="fill:none;stroke:#000000;stroke-width:0.5" />
<path d="M127.97,710.35L131.97,710.35" style="fill:none;stroke:#000000;stroke-width:0.5" />
<path d="M127.97,780.83L131.97,780.83" style="fill:none;stroke:#000000;stroke-width:0.5" />
<path d="M127.97,830.83L131.97,830.83" style="fill:none;stroke:#000000;stroke-width:0.5" />
<path d="M127.97,869.62L131.97,869.62" style="fill:none;stroke:#000000;stroke-width:0.5" />
<path d="M127.97,928.11L131.97,928.11" style="fill:none;stroke:#000000;stroke-width:0.5" />
<path d="M127.97,951.32L131.97,951.32" style="fill:none;stroke:#000000;stroke-width:0.5" />
<path d="M127.97,971.79L131.97,971.79" style="fill:none;stroke:#000000;stroke-width:0.5" />
<path d="M127.97,990.11L131.97,990.11" style="fill:none;stroke:#000000;stroke-width:0.5" />
<path d="M127.97,1021.8L131.97,1021.8" style="fill:none;stroke:#000000;stroke-width:0.5" />
<path d="M131.97,77.61L131.97,1024.6" style="fill:none;stroke:#000000;stroke-width:0.5" />
<path d="M142.22,77.61L142.22,1024.6" style="fill:none;stroke:#808080;stroke-width:0.25" />
<path d="M336.97,77.61L336.97,1024.6" style="fill:none;stroke:#808080;stroke-width:0.25" />
<path d="M531.73,77.61L531.73,1024.6" style="fill:none;stroke:#808080;stroke-width:0.25" />
<path d="M726.48,77.61L726.48,1024.6" style="fill:none;stroke:#808080;stroke-width:0.25" />
<path d="M921.23,77.61L921.23,1024.6" style="fill:none;stroke:#808080;stroke-width:0.25" />
<path d="M1116,77.61L1116,1024.6" style="fill:none;stroke:#808080;stroke-width:0.25" />
<path d="M1310.7,77.61L1310.7,1024.6" style="fill:none;stroke:#808080;stroke-width:0.25" />
<path d="M1505.5,77.61L1505.5,1024.6" style="fill:none;stroke:#808080;stroke-width:0.25" />
<path d="M1700.2,77.61L1700.2,1024.6" style="fill:none;stroke:#808080;stroke-width:0.25" />
<path d="M1895,77.61L1895,1024.6" style="fill:none;stroke:#808080;stroke-width:0.25" />
<path d="M142.22,589.86L1895,589.86" style="fill:none;stroke:#808080;stroke-width:0.25" />
<path d="M142.22,901.31L1895,901.31" style="fill:none;stroke:#808080;stroke-width:0.25" />
<path d="M142.22,1006.7L1895,1006.7" style="fill:none;stroke:#808080;stroke-width:0.25" />
<path d="M142.22,77.61L336.97,330.94L531.73,487.93L726.48,603.42L921.23,699.73L1116,787.21L1310.7,862.07L1505.5,931.99L1700.2,965.94L1895,1008.1" style="fill:none;stroke:#FF0000" />
<path d="M144.72,77.61A2.5,2.5 0 1 1 139.72,77.61A2.5,2.5 0 1 1 144.72,77.61Z" style="fill:none;stroke:#FF0000;stroke-width:0.5" />
<path d="M339.47,330.94A2.5,2.5 0 1 1 334.47,330.94A2.5,2.5 0 1 1 339.47,330.94Z" style="fill:none;stroke:#FF0000;stroke-width:0.5" />
<path d="M534.23,487.93A2.5,2.5 0 1 1 529.23,487.93A2.5,2.5 0 1 1 534.23,487.93Z" style="fill:none;stroke:#FF0000;stroke-width:0.5" />
<path d="M728.98,603.42A2.5,2.5 0 1 1 723.98,603.42A2.5,2.5 0 1 1 728.98,603.42Z" style="fill:none;stroke:#FF0000;stroke-width:0.5" />
<path d="M923.73,699.73A2.5,2.5 0 1 1 918.73,699.73A2.5,2.5 0 1 1 923.73,699.73Z" style="fill:none;stroke:#FF0000;stroke-width:0.5" />
<path d="M1118.5,787.21A2.5,2.5 0 1 1 1113.5,787.21A2.5,2.5 0 1 1 1118.5,787.21Z" style="fill:none;stroke:#FF0000;stroke-width:0.5" />
<path d="M1313.2,862.07A2.5,2.5 0 1 1 1308.2,862.07A2.5,2.5 0 1 1 1313.2,862.07Z" style="fill:none;stroke:#FF0000;stroke-width:0.5" />
<path d="M1508,931.99A2.5,2.5 0 1 1 1503,931.99A2.5,2.5 0 1 1 1508,931.99Z" style="fill:none;stroke:#FF0000;stroke-width:0.5" />
<path d="M1702.7,965.94A2.5,2.5 0 1 1 1697.7,965.94A2.5,2.5 0 1 1 1702.7,965.94Z" style="fill:none;stroke:#FF0000;stroke-width:0.5" />
<path d="M1897.5,1008.1A2.5,2.5 0 1 1 1892.5,1008.1A2.5,2.5 0 1 1 1897.5,1008.1Z" style="fill:none;stroke:#FF0000;stroke-width:0.5" />
<path d="M142.22,86.097L336.97,349.66L531.73,503.72L726.48,631.89L921.23,728.69L1116,780.6L1310.7,865.84L1505.5,906.27L1700.2,953.55L1895,995.13" style="fill:none;stroke:#0000FF" />
<path d="M144.72,86.097A2.5,2.5 0 1 1 139.72,86.097A2.5,2.5 0 1 1 144.72,86.097Z" style="fill:none;stroke:#0000FF;stroke-width:0.5" />
<path d="M339.47,349.66A2.5,2.5 0 1 1 334.47,349.66A2.5,2.5 0 1 1 339.47,349.66Z" style="fill:none;stroke:#0000FF;stroke-width:0.5" />
<path d="M534.23,503.72A2.5,2.5 0 1 1 529.23,503.72A2.5,2.5 0 1 1 534.23,503.72Z" style="fill:none;stroke:#0000FF;stroke-width:0.5" />
<path d="M728.98,631.89A2.5,2.5 0 1 1 723.98,631.89A2.5,2.5 0 1 1 728.98,631.89Z" style="fill:none;stroke:#0000FF;stroke-width:0.5" />
<path d="M923.73,728.69A2.5,2.5 0 1 1 918.73,728.69A2.5,2.5 0 1 1 923.73,728.69Z" style="fill:none;stroke:#0000FF;stroke-width:0.5" />
<path d="M1118.5,780.6A2.5,2.5 0 1 1 1113.5,780.6A2.5,2.5 0 1 1 1118.5,780.6Z" style="fill:none;stroke:#0000FF;stroke-width:0.5" />
<path d="M1313.2,865.84A2.5,2.5 0 1 1 1308.2,865.84A2.5,2.5 0 1 1 1313.2,865.84Z" style="fill:none;stroke:#0000FF;stroke-width:0.5" />
<path d="M1508,906.27A2.5,2.5 0 1 1 1503,906.27A2.5,2.5 0 1 1 1508,906.27Z" style="fill:none;stroke:#0000FF;stroke-width:0.5" />
<path d="M1702.7,953.55A2.5,2.5 0 1 1 1697.7,953.55A2.5,2.5 0 1 1 1702.7,953.55Z" style="fill:none;stroke:#0000FF;stroke-width:0.5" />
<path d="M1897.5,995.13A2.5,2.5 0 1 1 1892.5,995.13A2.5,2.5 0 1 1 1897.5,995.13Z" style="fill:none;stroke:#0000FF;stroke-width:0.5" />
<path d="M142.22,78.331L336.97,341.31L531.73,486.53L726.48,596.66L921.23,692.24L1116,763.94L1310.7,837.27L1505.5,912.21L1700.2,947.93L1895,992.14" style="fill:none;stroke:#00FF00" />
<path d="M144.72,78.331A2.5,2.5 0 1 1 139.72,78.331A2.5,2.5 0 1 1 144.72,78.331Z" style="fill:none;stroke:#00FF00;stroke-width:0.5" />
<path d="M339.47,341.31A2.5,2.5 0 1 1 334.47,341.31A2.5,2.5 0 1 1 339.47,341.31Z" style="fill:none;stroke:#00FF00;stroke-width:0.5" />
<path d="M534.23,486.53A2.5,2.5 0 1 1 529.23,486.53A2.5,2.5 0 1 1 534.23,486.53Z" style="fill:none;stroke:#00FF00;stroke-width:0.5" />
<path d="M728.98,596.66A2.5,2.5 0 1 1 723.98,596.66A2.5,2.5 0 1 1 728.98,596.66Z" style="fill:none;stroke:#00FF00;stroke-width:0.5" />
<path d="M923.73,692.24A2.5,2.5 0 1 1 918.73,692.24A2.5,2.5 0 1 1 923.73,692.24Z" style="fill:none;stroke:#00FF00;stroke-width:0.5" />
<path d="M1118.5,763.94A2.5,2.5 0 1 1 1113.5,763.94A2.5,2.5 0 1 1 1118.5,763.94Z" style="fill:none;stroke:#00FF00;stroke-width:0.5" />
<path d="M1313.2,837.27A2.5,2.5 0 1 1 1308.2,837.27A2.5,2.5 0 1 1 1313.2,837.27Z" style="fill:none;stroke:#00FF00;stroke-width:0.5" />
<path d="M1508,912.21A2.5,2.5 0 1 1 1503,912.21A2.5,2.5 0 1 1 1508,912.21Z" style="fill:none;stroke:#00FF00;stroke-width:0.5" />
<path d="M1702.7,947.93A2.5,2.5 0 1 1 1697.7,947.93A2.5,2.5 0 1 1 1702.7,947.93Z" style="fill:none;stroke:#00FF00;stroke-width:0.5" />
<path d="M1897.5,992.14A2.5,2.5 0 1 1 1892.5,992.14A2.5,2.5 0 1 1 1897.5,992.14Z" style="fill:none;stroke:#00FF00;stroke-width:0.5" />
<path d="M1900,126.03L1920,126.03" style="fill:none;stroke:#FF0000" />
<path d="M1912.5,126.03A2.5,2.5 0 1 1 1907.5,126.03A2.5,2.5 0 1 1 1912.5,126.03Z" style="fill:none;stroke:#FF0000;stroke-width:0.5" />
<text x="1823.3" y="-121.05" transform="scale(1, -1)"
	style="font-family:Liberation Serif;font-variant:normal;font-weight:normal;font-style:normal;font-size:24px">std::list</text>
<path d="M1900,105.66L1920,105.66" style="fill:none;stroke:#0000FF" />
<path d="M1912.5,105.66A2.5,2.5 0 1 1 1907.5,105.66A2.5,2.5 0 1 1 1912.5,105.66Z" style="fill:none;stroke:#0000FF;stroke-width:0.5" />
<text x="1795.4" y="-100.69" transform="scale(1, -1)"
	style="font-family:Liberation Serif;font-variant:normal;font-weight:normal;font-style:normal;font-size:24px">std::deque</text>
<path d="M1900,85.294L1920,85.294" style="fill:none;stroke:#00FF00" />
<path d="M1912.5,85.294A2.5,2.5 0 1 1 1907.5,85.294A2.5,2.5 0 1 1 1912.5,85.294Z" style="fill:none;stroke:#00FF00;stroke-width:0.5" />
<text x="1792.7" y="-80.319" transform="scale(1, -1)"
	style="font-family:Liberation Serif;font-variant:normal;font-weight:normal;font-style:normal;font-size:24px">std::vector</text>
</g>
</svg>
