<?xml version="1.0"?>
<!-- Generated by SVGo and Plotinum VG -->
<svg width="1920pt" height="1080pt" viewBox="0 0 1920 1080"
	xmlns="http://www.w3.org/2000/svg"
	xmlns:xlink="http://www.w3.org/1999/xlink">
<g transform="scale(1, -1) translate(0, -1080)">
<path d="M0,0L1920,0L1920,1080L0,1080Z" style="fill:#FFFFFF" />
<text x="717.76" y="-1040.9" transform="scale(1, -1)"
	style="font-family:Liberation Serif;font-variant:normal;font-weight:normal;font-style:normal;font-size:50px">linearsearch - Log Scale</text>
<text x="891.52" y="-9.7559" transform="scale(1, -1)"
	style="font-family:Liberation Serif;font-variant:normal;font-weight:normal;font-style:normal;font-size:30px">Number of elements</text>
<text x="112.96" y="-39.727" transform="scale(1, -1)"
	style="font-family:Liberation Serif;font-variant:normal;font-weight:normal;font-style:normal;font-size:20px">1000</text>
<text x="308.74" y="-39.727" transform="scale(1, -1)"
	style="font-family:Liberation Serif;font-variant:normal;font-weight:normal;font-style:normal;font-size:20px">2000</text>
<text x="504.53" y="-39.727" transform="scale(1, -1)"
	style="font-family:Liberation Serif;font-variant:normal;font-weight:normal;font-style:normal;font-size:20px">3000</text>
<text x="700.31" y="-39.727" transform="scale(1, -1)"
	style="font-family:Liberation Serif;font-variant:normal;font-weight:normal;font-style:normal;font-size:20px">4000</text>
<text x="896.09" y="-39.727" transform="scale(1, -1)"
	style="font-family:Liberation Serif;font-variant:normal;font-weight:normal;font-style:normal;font-size:20px">5000</text>
<text x="1091.9" y="-39.727" transform="scale(1, -1)"
	style="font-family:Liberation Serif;font-variant:normal;font-weight:normal;font-style:normal;font-size:20px">6000</text>
<text x="1287.7" y="-39.727" transform="scale(1, -1)"
	style="font-family:Liberation Serif;font-variant:normal;font-weight:normal;font-style:normal;font-size:20px">7000</text>
<text x="1483.4" y="-39.727" transform="scale(1, -1)"
	style="font-family:Liberation Serif;font-variant:normal;font-weight:normal;font-style:normal;font-size:20px">8000</text>
<text x="1679.2" y="-39.727" transform="scale(1, -1)"
	style="font-family:Liberation Serif;font-variant:normal;font-weight:normal;font-style:normal;font-size:20px">9000</text>
<text x="1870" y="-39.727" transform="scale(1, -1)"
	style="font-family:Liberation Serif;font-variant:normal;font-weight:normal;font-style:normal;font-size:20px">10000</text>
<path d="M132.96,55.371L132.96,63.371" style="fill:none;stroke:#000000;stroke-width:0.5" />
<path d="M328.74,55.371L328.74,63.371" style="fill:none;stroke:#000000;stroke-width:0.5" />
<path d="M524.53,55.371L524.53,63.371" style="fill:none;stroke:#000000;stroke-width:0.5" />
<path d="M720.31,55.371L720.31,63.371" style="fill:none;stroke:#000000;stroke-width:0.5" />
<path d="M916.09,55.371L916.09,63.371" style="fill:none;stroke:#000000;stroke-width:0.5" />
<path d="M1111.9,55.371L1111.9,63.371" style="fill:none;stroke:#000000;stroke-width:0.5" />
<path d="M1307.7,55.371L1307.7,63.371" style="fill:none;stroke:#000000;stroke-width:0.5" />
<path d="M1503.4,55.371L1503.4,63.371" style="fill:none;stroke:#000000;stroke-width:0.5" />
<path d="M1699.2,55.371L1699.2,63.371" style="fill:none;stroke:#000000;stroke-width:0.5" />
<path d="M1895,55.371L1895,63.371" style="fill:none;stroke:#000000;stroke-width:0.5" />
<path d="M132.96,63.371L1895,63.371" style="fill:none;stroke:#000000;stroke-width:0.5" />
<g transform="rotate(90)">
<text x="508.08" y="23.467" transform="scale(1, -1)"
	style="font-family:Liberation Serif;font-variant:normal;font-weight:normal;font-style:normal;font-size:30px">log(μs)</text>
</g>
<text x="49.712" y="-633.23" transform="scale(1, -1)"
	style="font-family:Liberation Serif;font-variant:normal;font-weight:normal;font-style:normal;font-size:20px">400000</text>
<text x="39.712" y="-900.38" transform="scale(1, -1)"
	style="font-family:Liberation Serif;font-variant:normal;font-weight:normal;font-style:normal;font-size:20px">1600000</text>
<text x="39.712" y="-1008.2" transform="scale(1, -1)"
	style="font-family:Liberation Serif;font-variant:normal;font-weight:normal;font-style:normal;font-size:20px">2800000</text>
<path d="M114.71,637.8L122.71,637.8" style="fill:none;stroke:#000000;stroke-width:0.5" />
<path d="M114.71,904.95L122.71,904.95" style="fill:none;stroke:#000000;stroke-width:0.5" />
<path d="M114.71,1012.8L122.71,1012.8" style="fill:none;stroke:#000000;stroke-width:0.5" />
<path d="M118.71,814.38L122.71,814.38" style="fill:none;stroke:#000000;stroke-width:0.5" />
<path d="M118.71,966.32L122.71,966.32" style="fill:none;stroke:#000000;stroke-width:0.5" />
<path d="M122.71,77.61L122.71,1024.6" style="fill:none;stroke:#000000;stroke-width:0.5" />
<path d="M132.96,77.61L132.96,1024.6" style="fill:none;stroke:#808080;stroke-width:0.25" />
<path d="M328.74,77.61L328.74,1024.6" style="fill:none;stroke:#808080;stroke-width:0.25" />
<path d="M524.53,77.61L524.53,1024.6" style="fill:none;stroke:#808080;stroke-width:0.25" />
<path d="M720.31,77.61L720.31,1024.6" style="fill:none;stroke:#808080;stroke-width:0.25" />
<path d="M916.09,77.61L916.09,1024.6" style="fill:none;stroke:#808080;stroke-width:0.25" />
<path d="M1111.9,77.61L1111.9,1024.6" style="fill:none;stroke:#808080;stroke-width:0.25" />
<path d="M1307.7,77.61L1307.7,1024.6" style="fill:none;stroke:#808080;stroke-width:0.25" />
<path d="M1503.4,77.61L1503.4,1024.6" style="fill:none;stroke:#808080;stroke-width:0.25" />
<path d="M1699.2,77.61L1699.2,1024.6" style="fill:none;stroke:#808080;stroke-width:0.25" />
<path d="M1895,77.61L1895,1024.6" style="fill:none;stroke:#808080;stroke-width:0.25" />
<path d="M132.96,637.8L1895,637.8" style="fill:none;stroke:#808080;stroke-width:0.25" />
<path d="M132.96,904.95L1895,904.95" style="fill:none;stroke:#808080;stroke-width:0.25" />
<path d="M132.96,1012.8L1895,1012.8" style="fill:none;stroke:#808080;stroke-width:0.25" />
<path d="M132.96,77.61L328.74,346.18L524.53,506.95L720.31,630.06L916.09,710.52L1111.9,789.03L1307.7,848.34L1503.4,896.06L1699.2,945.71L1895,992.55" style="fill:none;stroke:#FF0000" />
<path d="M135.46,77.61A2.5,2.5 0 1 1 130.46,77.61A2.5,2.5 0 1 1 135.46,77.61Z" style="fill:none;stroke:#FF0000;stroke-width:0.5" />
<path d="M331.24,346.18A2.5,2.5 0 1 1 326.24,346.18A2.5,2.5 0 1 1 331.24,346.18Z" style="fill:none;stroke:#FF0000;stroke-width:0.5" />
<path d="M527.03,506.95A2.5,2.5 0 1 1 522.03,506.95A2.5,2.5 0 1 1 527.03,506.95Z" style="fill:none;stroke:#FF0000;stroke-width:0.5" />
<path d="M722.81,630.06A2.5,2.5 0 1 1 717.81,630.06A2.5,2.5 0 1 1 722.81,630.06Z" style="fill:none;stroke:#FF0000;stroke-width:0.5" />
<path d="M918.59,710.52A2.5,2.5 0 1 1 913.59,710.52A2.5,2.5 0 1 1 918.59,710.52Z" style="fill:none;stroke:#FF0000;stroke-width:0.5" />
<path d="M1114.4,789.03A2.5,2.5 0 1 1 1109.4,789.03A2.5,2.5 0 1 1 1114.4,789.03Z" style="fill:none;stroke:#FF0000;stroke-width:0.5" />
<path d="M1310.2,848.34A2.5,2.5 0 1 1 1305.2,848.34A2.5,2.5 0 1 1 1310.2,848.34Z" style="fill:none;stroke:#FF0000;stroke-width:0.5" />
<path d="M1505.9,896.06A2.5,2.5 0 1 1 1500.9,896.06A2.5,2.5 0 1 1 1505.9,896.06Z" style="fill:none;stroke:#FF0000;stroke-width:0.5" />
<path d="M1701.7,945.71A2.5,2.5 0 1 1 1696.7,945.71A2.5,2.5 0 1 1 1701.7,945.71Z" style="fill:none;stroke:#FF0000;stroke-width:0.5" />
<path d="M1897.5,992.55A2.5,2.5 0 1 1 1892.5,992.55A2.5,2.5 0 1 1 1897.5,992.55Z" style="fill:none;stroke:#FF0000;stroke-width:0.5" />
<path d="M132.96,115.2L328.74,368.39L524.53,530.68L720.31,636.87L916.09,761.44L1111.9,839.6L1307.7,857.57L1503.4,903.53L1699.2,951.79L1895,995.08" style="fill:none;stroke:#0000FF" />
<path d="M135.46,115.2A2.5,2.5 0 1 1 130.46,115.2A2.5,2.5 0 1 1 135.46,115.2Z" style="fill:none;stroke:#0000FF;stroke-width:0.5" />
<path d="M331.24,368.39A2.5,2.5 0 1 1 326.24,368.39A2.5,2.5 0 1 1 331.24,368.39Z" style="fill:none;stroke:#0000FF;stroke-width:0.5" />
<path d="M527.03,530.68A2.5,2.5 0 1 1 522.03,530.68A2.5,2.5 0 1 1 527.03,530.68Z" style="fill:none;stroke:#0000FF;stroke-width:0.5" />
<path d="M722.81,636.87A2.5,2.5 0 1 1 717.81,636.87A2.5,2.5 0 1 1 722.81,636.87Z" style="fill:none;stroke:#0000FF;stroke-width:0.5" />
<path d="M918.59,761.44A2.5,2.5 0 1 1 913.59,761.44A2.5,2.5 0 1 1 918.59,761.44Z" style="fill:none;stroke:#0000FF;stroke-width:0.5" />
<path d="M1114.4,839.6A2.5,2.5 0 1 1 1109.4,839.6A2.5,2.5 0 1 1 1114.4,839.6Z" style="fill:none;stroke:#0000FF;stroke-width:0.5" />
<path d="M1310.2,857.57A2.5,2.5 0 1 1 1305.2,857.57A2.5,2.5 0 1 1 1310.2,857.57Z" style="fill:none;stroke:#0000FF;stroke-width:0.5" />
<path d="M1505.9,903.53A2.5,2.5 0 1 1 1500.9,903.53A2.5,2.5 0 1 1 1505.9,903.53Z" style="fill:none;stroke:#0000FF;stroke-width:0.5" />
<path d="M1701.7,951.79A2.5,2.5 0 1 1 1696.7,951.79A2.5,2.5 0 1 1 1701.7,951.79Z" style="fill:none;stroke:#0000FF;stroke-width:0.5" />
<path d="M1897.5,995.08A2.5,2.5 0 1 1 1892.5,995.08A2.5,2.5 0 1 1 1897.5,995.08Z" style="fill:none;stroke:#0000FF;stroke-width:0.5" />
<path d="M132.96,100.55L328.74,406.95L524.53,533.21L720.31,637.56L916.09,726.63L1111.9,799.55L1307.7,869.26L1503.4,921.77L1699.2,961.96L1895,1006.3" style="fill:none;stroke:#00FF00" />
<path d="M135.46,100.55A2.5,2.5 0 1 1 130.46,100.55A2.5,2.5 0 1 1 135.46,100.55Z" style="fill:none;stroke:#00FF00;stroke-width:0.5" />
<path d="M331.24,406.95A2.5,2.5 0 1 1 326.24,406.95A2.5,2.5 0 1 1 331.24,406.95Z" style="fill:none;stroke:#00FF00;stroke-width:0.5" />
<path d="M527.03,533.21A2.5,2.5 0 1 1 522.03,533.21A2.5,2.5 0 1 1 527.03,533.21Z" style="fill:none;stroke:#00FF00;stroke-width:0.5" />
<path d="M722.81,637.56A2.5,2.5 0 1 1 717.81,637.56A2.5,2.5 0 1 1 722.81,637.56Z" style="fill:none;stroke:#00FF00;stroke-width:0.5" />
<path d="M918.59,726.63A2.5,2.5 0 1 1 913.59,726.63A2.5,2.5 0 1 1 918.59,726.63Z" style="fill:none;stroke:#00FF00;stroke-width:0.5" />
<path d="M1114.4,799.55A2.5,2.5 0 1 1 1109.4,799.55A2.5,2.5 0 1 1 1114.4,799.55Z" style="fill:none;stroke:#00FF00;stroke-width:0.5" />
<path d="M1310.2,869.26A2.5,2.5 0 1 1 1305.2,869.26A2.5,2.5 0 1 1 1310.2,869.26Z" style="fill:none;stroke:#00FF00;stroke-width:0.5" />
<path d="M1505.9,921.77A2.5,2.5 0 1 1 1500.9,921.77A2.5,2.5 0 1 1 1505.9,921.77Z" style="fill:none;stroke:#00FF00;stroke-width:0.5" />
<path d="M1701.7,961.96A2.5,2.5 0 1 1 1696.7,961.96A2.5,2.5 0 1 1 1701.7,961.96Z" style="fill:none;stroke:#00FF00;stroke-width:0.5" />
<path d="M1897.5,1006.3A2.5,2.5 0 1 1 1892.5,1006.3A2.5,2.5 0 1 1 1897.5,1006.3Z" style="fill:none;stroke:#00FF00;stroke-width:0.5" />
<path d="M1900,126.03L1920,126.03" style="fill:none;stroke:#FF0000" />
<path d="M1912.5,126.03A2.5,2.5 0 1 1 1907.5,126.03A2.5,2.5 0 1 1 1912.5,126.03Z" style="fill:none;stroke:#FF0000;stroke-width:0.5" />
<text x="1792.7" y="-121.05" transform="scale(1, -1)"
	style="font-family:Liberation Serif;font-variant:normal;font-weight:normal;font-style:normal;font-size:24px">std::vector</text>
<path d="M1900,105.66L1920,105.66" style="fill:none;stroke:#0000FF" />
<path d="M1912.5,105.66A2.5,2.5 0 1 1 1907.5,105.66A2.5,2.5 0 1 1 1912.5,105.66Z" style="fill:none;stroke:#0000FF;stroke-width:0.5" />
<text x="1823.3" y="-100.69" transform="scale(1, -1)"
	style="font-family:Liberation Serif;font-variant:normal;font-weight:normal;font-style:normal;font-size:24px">std::list</text>
<path d="M1900,85.294L1920,85.294" style="fill:none;stroke:#00FF00" />
<path d="M1912.5,85.294A2.5,2.5 0 1 1 1907.5,85.294A2.5,2.5 0 1 1 1912.5,85.294Z" style="fill:none;stroke:#00FF00;stroke-width:0.5" />
<text x="1795.4" y="-80.319" transform="scale(1, -1)"
	style="font-family:Liberation Serif;font-variant:normal;font-weight:normal;font-style:normal;font-size:24px">std::deque</text>
</g>
</svg>
