<?xml version="1.0"?>
<!-- Generated by SVGo and Plotinum VG -->
<svg width="1920pt" height="1080pt" viewBox="0 0 1920 1080"
	xmlns="http://www.w3.org/2000/svg"
	xmlns:xlink="http://www.w3.org/1999/xlink">
<g transform="scale(1, -1) translate(0, -1080)">
<path d="M0,0L1920,0L1920,1080L0,1080Z" style="fill:#FFFFFF" />
<text x="839.25" y="-1040.9" transform="scale(1, -1)"
	style="font-family:Liberation Serif;font-variant:normal;font-weight:normal;font-style:normal;font-size:50px">linearsearch</text>
<text x="904.02" y="-9.7559" transform="scale(1, -1)"
	style="font-family:Liberation Serif;font-variant:normal;font-weight:normal;font-style:normal;font-size:30px">Number of elements</text>
<text x="137.96" y="-39.727" transform="scale(1, -1)"
	style="font-family:Liberation Serif;font-variant:normal;font-weight:normal;font-style:normal;font-size:20px">1000</text>
<text x="330.97" y="-39.727" transform="scale(1, -1)"
	style="font-family:Liberation Serif;font-variant:normal;font-weight:normal;font-style:normal;font-size:20px">2000</text>
<text x="523.97" y="-39.727" transform="scale(1, -1)"
	style="font-family:Liberation Serif;font-variant:normal;font-weight:normal;font-style:normal;font-size:20px">3000</text>
<text x="716.97" y="-39.727" transform="scale(1, -1)"
	style="font-family:Liberation Serif;font-variant:normal;font-weight:normal;font-style:normal;font-size:20px">4000</text>
<text x="909.98" y="-39.727" transform="scale(1, -1)"
	style="font-family:Liberation Serif;font-variant:normal;font-weight:normal;font-style:normal;font-size:20px">5000</text>
<text x="1103" y="-39.727" transform="scale(1, -1)"
	style="font-family:Liberation Serif;font-variant:normal;font-weight:normal;font-style:normal;font-size:20px">6000</text>
<text x="1296" y="-39.727" transform="scale(1, -1)"
	style="font-family:Liberation Serif;font-variant:normal;font-weight:normal;font-style:normal;font-size:20px">7000</text>
<text x="1489" y="-39.727" transform="scale(1, -1)"
	style="font-family:Liberation Serif;font-variant:normal;font-weight:normal;font-style:normal;font-size:20px">8000</text>
<text x="1682" y="-39.727" transform="scale(1, -1)"
	style="font-family:Liberation Serif;font-variant:normal;font-weight:normal;font-style:normal;font-size:20px">9000</text>
<text x="1870" y="-39.727" transform="scale(1, -1)"
	style="font-family:Liberation Serif;font-variant:normal;font-weight:normal;font-style:normal;font-size:20px">10000</text>
<path d="M157.96,55.371L157.96,63.371" style="fill:none;stroke:#000000;stroke-width:0.5" />
<path d="M350.97,55.371L350.97,63.371" style="fill:none;stroke:#000000;stroke-width:0.5" />
<path d="M543.97,55.371L543.97,63.371" style="fill:none;stroke:#000000;stroke-width:0.5" />
<path d="M736.97,55.371L736.97,63.371" style="fill:none;stroke:#000000;stroke-width:0.5" />
<path d="M929.98,55.371L929.98,63.371" style="fill:none;stroke:#000000;stroke-width:0.5" />
<path d="M1123,55.371L1123,63.371" style="fill:none;stroke:#000000;stroke-width:0.5" />
<path d="M1316,55.371L1316,63.371" style="fill:none;stroke:#000000;stroke-width:0.5" />
<path d="M1509,55.371L1509,63.371" style="fill:none;stroke:#000000;stroke-width:0.5" />
<path d="M1702,55.371L1702,63.371" style="fill:none;stroke:#000000;stroke-width:0.5" />
<path d="M1895,55.371L1895,63.371" style="fill:none;stroke:#000000;stroke-width:0.5" />
<path d="M157.96,63.371L1895,63.371" style="fill:none;stroke:#000000;stroke-width:0.5" />
<g transform="rotate(90)">
<text x="537.24" y="23.467" transform="scale(1, -1)"
	style="font-family:Liberation Serif;font-variant:normal;font-weight:normal;font-style:normal;font-size:30px">μs</text>
</g>
<text x="49.712" y="-235.92" transform="scale(1, -1)"
	style="font-family:Liberation Serif;font-variant:normal;font-weight:normal;font-style:normal;font-size:20px">250000.00</text>
<text x="49.712" y="-578.03" transform="scale(1, -1)"
	style="font-family:Liberation Serif;font-variant:normal;font-weight:normal;font-style:normal;font-size:20px">750000.00</text>
<text x="39.712" y="-920.13" transform="scale(1, -1)"
	style="font-family:Liberation Serif;font-variant:normal;font-weight:normal;font-style:normal;font-size:20px">1250000.00</text>
<path d="M139.71,240.49L147.71,240.49" style="fill:none;stroke:#000000;stroke-width:0.5" />
<path d="M139.71,582.6L147.71,582.6" style="fill:none;stroke:#000000;stroke-width:0.5" />
<path d="M139.71,924.7L147.71,924.7" style="fill:none;stroke:#000000;stroke-width:0.5" />
<path d="M143.71,103.65L147.71,103.65" style="fill:none;stroke:#000000;stroke-width:0.5" />
<path d="M143.71,172.07L147.71,172.07" style="fill:none;stroke:#000000;stroke-width:0.5" />
<path d="M143.71,308.91L147.71,308.91" style="fill:none;stroke:#000000;stroke-width:0.5" />
<path d="M143.71,377.33L147.71,377.33" style="fill:none;stroke:#000000;stroke-width:0.5" />
<path d="M143.71,445.76L147.71,445.76" style="fill:none;stroke:#000000;stroke-width:0.5" />
<path d="M143.71,514.18L147.71,514.18" style="fill:none;stroke:#000000;stroke-width:0.5" />
<path d="M143.71,651.02L147.71,651.02" style="fill:none;stroke:#000000;stroke-width:0.5" />
<path d="M143.71,719.44L147.71,719.44" style="fill:none;stroke:#000000;stroke-width:0.5" />
<path d="M143.71,787.86L147.71,787.86" style="fill:none;stroke:#000000;stroke-width:0.5" />
<path d="M143.71,856.28L147.71,856.28" style="fill:none;stroke:#000000;stroke-width:0.5" />
<path d="M143.71,993.13L147.71,993.13" style="fill:none;stroke:#000000;stroke-width:0.5" />
<path d="M147.71,77.61L147.71,1024.6" style="fill:none;stroke:#000000;stroke-width:0.5" />
<path d="M157.96,77.61L157.96,1024.6" style="fill:none;stroke:#808080;stroke-width:0.25" />
<path d="M350.97,77.61L350.97,1024.6" style="fill:none;stroke:#808080;stroke-width:0.25" />
<path d="M543.97,77.61L543.97,1024.6" style="fill:none;stroke:#808080;stroke-width:0.25" />
<path d="M736.97,77.61L736.97,1024.6" style="fill:none;stroke:#808080;stroke-width:0.25" />
<path d="M929.98,77.61L929.98,1024.6" style="fill:none;stroke:#808080;stroke-width:0.25" />
<path d="M1123,77.61L1123,1024.6" style="fill:none;stroke:#808080;stroke-width:0.25" />
<path d="M1316,77.61L1316,1024.6" style="fill:none;stroke:#808080;stroke-width:0.25" />
<path d="M1509,77.61L1509,1024.6" style="fill:none;stroke:#808080;stroke-width:0.25" />
<path d="M1702,77.61L1702,1024.6" style="fill:none;stroke:#808080;stroke-width:0.25" />
<path d="M1895,77.61L1895,1024.6" style="fill:none;stroke:#808080;stroke-width:0.25" />
<path d="M157.96,240.49L1895,240.49" style="fill:none;stroke:#808080;stroke-width:0.25" />
<path d="M157.96,582.6L1895,582.6" style="fill:none;stroke:#808080;stroke-width:0.25" />
<path d="M157.96,924.7L1895,924.7" style="fill:none;stroke:#808080;stroke-width:0.25" />
<path d="M157.96,78.478L350.97,104.36L543.97,153.07L736.97,211.47L929.98,279.47L1123,383.84L1316,490.64L1509,617.72L1702,762.69L1895,937.79" style="fill:none;stroke:#FF0000" />
<path d="M160.46,78.478A2.5,2.5 0 1 1 155.46,78.478A2.5,2.5 0 1 1 160.46,78.478Z" style="fill:none;stroke:#FF0000;stroke-width:0.5" />
<path d="M353.47,104.36A2.5,2.5 0 1 1 348.47,104.36A2.5,2.5 0 1 1 353.47,104.36Z" style="fill:none;stroke:#FF0000;stroke-width:0.5" />
<path d="M546.47,153.07A2.5,2.5 0 1 1 541.47,153.07A2.5,2.5 0 1 1 546.47,153.07Z" style="fill:none;stroke:#FF0000;stroke-width:0.5" />
<path d="M739.47,211.47A2.5,2.5 0 1 1 734.47,211.47A2.5,2.5 0 1 1 739.47,211.47Z" style="fill:none;stroke:#FF0000;stroke-width:0.5" />
<path d="M932.48,279.47A2.5,2.5 0 1 1 927.48,279.47A2.5,2.5 0 1 1 932.48,279.47Z" style="fill:none;stroke:#FF0000;stroke-width:0.5" />
<path d="M1125.5,383.84A2.5,2.5 0 1 1 1120.5,383.84A2.5,2.5 0 1 1 1125.5,383.84Z" style="fill:none;stroke:#FF0000;stroke-width:0.5" />
<path d="M1318.5,490.64A2.5,2.5 0 1 1 1313.5,490.64A2.5,2.5 0 1 1 1318.5,490.64Z" style="fill:none;stroke:#FF0000;stroke-width:0.5" />
<path d="M1511.5,617.72A2.5,2.5 0 1 1 1506.5,617.72A2.5,2.5 0 1 1 1511.5,617.72Z" style="fill:none;stroke:#FF0000;stroke-width:0.5" />
<path d="M1704.5,762.69A2.5,2.5 0 1 1 1699.5,762.69A2.5,2.5 0 1 1 1704.5,762.69Z" style="fill:none;stroke:#FF0000;stroke-width:0.5" />
<path d="M1897.5,937.79A2.5,2.5 0 1 1 1892.5,937.79A2.5,2.5 0 1 1 1897.5,937.79Z" style="fill:none;stroke:#FF0000;stroke-width:0.5" />
<path d="M157.96,77.61L350.97,99.832L543.97,138.4L736.97,201.78L929.98,264.53L1123,358.21L1316,448.37L1509,573.83L1702,722.96L1895,922.16" style="fill:none;stroke:#0000FF" />
<path d="M160.46,77.61A2.5,2.5 0 1 1 155.46,77.61A2.5,2.5 0 1 1 160.46,77.61Z" style="fill:none;stroke:#0000FF;stroke-width:0.5" />
<path d="M353.47,99.832A2.5,2.5 0 1 1 348.47,99.832A2.5,2.5 0 1 1 353.47,99.832Z" style="fill:none;stroke:#0000FF;stroke-width:0.5" />
<path d="M546.47,138.4A2.5,2.5 0 1 1 541.47,138.4A2.5,2.5 0 1 1 546.47,138.4Z" style="fill:none;stroke:#0000FF;stroke-width:0.5" />
<path d="M739.47,201.78A2.5,2.5 0 1 1 734.47,201.78A2.5,2.5 0 1 1 739.47,201.78Z" style="fill:none;stroke:#0000FF;stroke-width:0.5" />
<path d="M932.48,264.53A2.5,2.5 0 1 1 927.48,264.53A2.5,2.5 0 1 1 932.48,264.53Z" style="fill:none;stroke:#0000FF;stroke-width:0.5" />
<path d="M1125.5,358.21A2.5,2.5 0 1 1 1120.5,358.21A2.5,2.5 0 1 1 1125.5,358.21Z" style="fill:none;stroke:#0000FF;stroke-width:0.5" />
<path d="M1318.5,448.37A2.5,2.5 0 1 1 1313.5,448.37A2.5,2.5 0 1 1 1318.5,448.37Z" style="fill:none;stroke:#0000FF;stroke-width:0.5" />
<path d="M1511.5,573.83A2.5,2.5 0 1 1 1506.5,573.83A2.5,2.5 0 1 1 1511.5,573.83Z" style="fill:none;stroke:#0000FF;stroke-width:0.5" />
<path d="M1704.5,722.96A2.5,2.5 0 1 1 1699.5,722.96A2.5,2.5 0 1 1 1704.5,722.96Z" style="fill:none;stroke:#0000FF;stroke-width:0.5" />
<path d="M1897.5,922.16A2.5,2.5 0 1 1 1892.5,922.16A2.5,2.5 0 1 1 1897.5,922.16Z" style="fill:none;stroke:#0000FF;stroke-width:0.5" />
<path d="M157.96,77.948L350.97,102.66L543.97,133.23L736.97,184.86L929.98,245.69L1123,338.4L1316,426.76L1509,528.61L1702,658.55L1895,808.64" style="fill:none;stroke:#00FF00" />
<path d="M160.46,77.948A2.5,2.5 0 1 1 155.46,77.948A2.5,2.5 0 1 1 160.46,77.948Z" style="fill:none;stroke:#00FF00;stroke-width:0.5" />
<path d="M353.47,102.66A2.5,2.5 0 1 1 348.47,102.66A2.5,2.5 0 1 1 353.47,102.66Z" style="fill:none;stroke:#00FF00;stroke-width:0.5" />
<path d="M546.47,133.23A2.5,2.5 0 1 1 541.47,133.23A2.5,2.5 0 1 1 546.47,133.23Z" style="fill:none;stroke:#00FF00;stroke-width:0.5" />
<path d="M739.47,184.86A2.5,2.5 0 1 1 734.47,184.86A2.5,2.5 0 1 1 739.47,184.86Z" style="fill:none;stroke:#00FF00;stroke-width:0.5" />
<path d="M932.48,245.69A2.5,2.5 0 1 1 927.48,245.69A2.5,2.5 0 1 1 932.48,245.69Z" style="fill:none;stroke:#00FF00;stroke-width:0.5" />
<path d="M1125.5,338.4A2.5,2.5 0 1 1 1120.5,338.4A2.5,2.5 0 1 1 1125.5,338.4Z" style="fill:none;stroke:#00FF00;stroke-width:0.5" />
<path d="M1318.5,426.76A2.5,2.5 0 1 1 1313.5,426.76A2.5,2.5 0 1 1 1318.5,426.76Z" style="fill:none;stroke:#00FF00;stroke-width:0.5" />
<path d="M1511.5,528.61A2.5,2.5 0 1 1 1506.5,528.61A2.5,2.5 0 1 1 1511.5,528.61Z" style="fill:none;stroke:#00FF00;stroke-width:0.5" />
<path d="M1704.5,658.55A2.5,2.5 0 1 1 1699.5,658.55A2.5,2.5 0 1 1 1704.5,658.55Z" style="fill:none;stroke:#00FF00;stroke-width:0.5" />
<path d="M1897.5,808.64A2.5,2.5 0 1 1 1892.5,808.64A2.5,2.5 0 1 1 1897.5,808.64Z" style="fill:none;stroke:#00FF00;stroke-width:0.5" />
<path d="M1900,126.03L1920,126.03" style="fill:none;stroke:#FF0000" />
<path d="M1912.5,126.03A2.5,2.5 0 1 1 1907.5,126.03A2.5,2.5 0 1 1 1912.5,126.03Z" style="fill:none;stroke:#FF0000;stroke-width:0.5" />
<text x="1823.3" y="-121.05" transform="scale(1, -1)"
	style="font-family:Liberation Serif;font-variant:normal;font-weight:normal;font-style:normal;font-size:24px">std::list</text>
<path d="M1900,105.66L1920,105.66" style="fill:none;stroke:#0000FF" />
<path d="M1912.5,105.66A2.5,2.5 0 1 1 1907.5,105.66A2.5,2.5 0 1 1 1912.5,105.66Z" style="fill:none;stroke:#0000FF;stroke-width:0.5" />
<text x="1795.4" y="-100.69" transform="scale(1, -1)"
	style="font-family:Liberation Serif;font-variant:normal;font-weight:normal;font-style:normal;font-size:24px">std::deque</text>
<path d="M1900,85.294L1920,85.294" style="fill:none;stroke:#00FF00" />
<path d="M1912.5,85.294A2.5,2.5 0 1 1 1907.5,85.294A2.5,2.5 0 1 1 1912.5,85.294Z" style="fill:none;stroke:#00FF00;stroke-width:0.5" />
<text x="1792.7" y="-80.319" transform="scale(1, -1)"
	style="font-family:Liberation Serif;font-variant:normal;font-weight:normal;font-style:normal;font-size:24px">std::vector</text>
</g>
</svg>
