<?xml version="1.0"?>
<!-- Generated by SVGo and Plotinum VG -->
<svg width="1920pt" height="1080pt" viewBox="0 0 1920 1080"
	xmlns="http://www.w3.org/2000/svg"
	xmlns:xlink="http://www.w3.org/1999/xlink">
<g transform="scale(1, -1) translate(0, -1080)">
<path d="M0,0L1920,0L1920,1080L0,1080Z" style="fill:#FFFFFF" />
<text x="800.34" y="-1040.9" transform="scale(1, -1)"
	style="font-family:Liberation Serif;font-variant:normal;font-weight:normal;font-style:normal;font-size:50px">random-remove</text>
<text x="880.27" y="-9.7559" transform="scale(1, -1)"
	style="font-family:Liberation Serif;font-variant:normal;font-weight:normal;font-style:normal;font-size:30px">Number of elements</text>
<text x="90.462" y="-39.727" transform="scale(1, -1)"
	style="font-family:Liberation Serif;font-variant:normal;font-weight:normal;font-style:normal;font-size:20px">10000</text>
<text x="287.63" y="-39.727" transform="scale(1, -1)"
	style="font-family:Liberation Serif;font-variant:normal;font-weight:normal;font-style:normal;font-size:20px">20000</text>
<text x="484.8" y="-39.727" transform="scale(1, -1)"
	style="font-family:Liberation Serif;font-variant:normal;font-weight:normal;font-style:normal;font-size:20px">30000</text>
<text x="681.97" y="-39.727" transform="scale(1, -1)"
	style="font-family:Liberation Serif;font-variant:normal;font-weight:normal;font-style:normal;font-size:20px">40000</text>
<text x="879.15" y="-39.727" transform="scale(1, -1)"
	style="font-family:Liberation Serif;font-variant:normal;font-weight:normal;font-style:normal;font-size:20px">50000</text>
<text x="1076.3" y="-39.727" transform="scale(1, -1)"
	style="font-family:Liberation Serif;font-variant:normal;font-weight:normal;font-style:normal;font-size:20px">60000</text>
<text x="1273.5" y="-39.727" transform="scale(1, -1)"
	style="font-family:Liberation Serif;font-variant:normal;font-weight:normal;font-style:normal;font-size:20px">70000</text>
<text x="1470.7" y="-39.727" transform="scale(1, -1)"
	style="font-family:Liberation Serif;font-variant:normal;font-weight:normal;font-style:normal;font-size:20px">80000</text>
<text x="1667.8" y="-39.727" transform="scale(1, -1)"
	style="font-family:Liberation Serif;font-variant:normal;font-weight:normal;font-style:normal;font-size:20px">90000</text>
<text x="1860" y="-39.727" transform="scale(1, -1)"
	style="font-family:Liberation Serif;font-variant:normal;font-weight:normal;font-style:normal;font-size:20px">100000</text>
<path d="M115.46,55.371L115.46,63.371" style="fill:none;stroke:#000000;stroke-width:0.5" />
<path d="M312.63,55.371L312.63,63.371" style="fill:none;stroke:#000000;stroke-width:0.5" />
<path d="M509.8,55.371L509.8,63.371" style="fill:none;stroke:#000000;stroke-width:0.5" />
<path d="M706.97,55.371L706.97,63.371" style="fill:none;stroke:#000000;stroke-width:0.5" />
<path d="M904.15,55.371L904.15,63.371" style="fill:none;stroke:#000000;stroke-width:0.5" />
<path d="M1101.3,55.371L1101.3,63.371" style="fill:none;stroke:#000000;stroke-width:0.5" />
<path d="M1298.5,55.371L1298.5,63.371" style="fill:none;stroke:#000000;stroke-width:0.5" />
<path d="M1495.7,55.371L1495.7,63.371" style="fill:none;stroke:#000000;stroke-width:0.5" />
<path d="M1692.8,55.371L1692.8,63.371" style="fill:none;stroke:#000000;stroke-width:0.5" />
<path d="M1890,55.371L1890,63.371" style="fill:none;stroke:#000000;stroke-width:0.5" />
<path d="M115.46,63.371L1890,63.371" style="fill:none;stroke:#000000;stroke-width:0.5" />
<g transform="rotate(90)">
<text x="538.49" y="23.467" transform="scale(1, -1)"
	style="font-family:Liberation Serif;font-variant:normal;font-weight:normal;font-style:normal;font-size:30px">μs</text>
</g>
<text x="49.712" y="-176.89" transform="scale(1, -1)"
	style="font-family:Liberation Serif;font-variant:normal;font-weight:normal;font-style:normal;font-size:20px">4000</text>
<text x="39.712" y="-556.48" transform="scale(1, -1)"
	style="font-family:Liberation Serif;font-variant:normal;font-weight:normal;font-style:normal;font-size:20px">12000</text>
<text x="39.712" y="-936.07" transform="scale(1, -1)"
	style="font-family:Liberation Serif;font-variant:normal;font-weight:normal;font-style:normal;font-size:20px">20000</text>
<path d="M94.712,181.46L102.71,181.46" style="fill:none;stroke:#000000;stroke-width:0.5" />
<path d="M94.712,561.05L102.71,561.05" style="fill:none;stroke:#000000;stroke-width:0.5" />
<path d="M94.712,940.64L102.71,940.64" style="fill:none;stroke:#000000;stroke-width:0.5" />
<path d="M98.712,371.26L102.71,371.26" style="fill:none;stroke:#000000;stroke-width:0.5" />
<path d="M98.712,750.85L102.71,750.85" style="fill:none;stroke:#000000;stroke-width:0.5" />
<path d="M102.71,80.11L102.71,1024.6" style="fill:none;stroke:#000000;stroke-width:0.5" />
<path d="M115.46,80.11L115.46,1024.6" style="fill:none;stroke:#808080;stroke-width:0.25" />
<path d="M312.63,80.11L312.63,1024.6" style="fill:none;stroke:#808080;stroke-width:0.25" />
<path d="M509.8,80.11L509.8,1024.6" style="fill:none;stroke:#808080;stroke-width:0.25" />
<path d="M706.97,80.11L706.97,1024.6" style="fill:none;stroke:#808080;stroke-width:0.25" />
<path d="M904.15,80.11L904.15,1024.6" style="fill:none;stroke:#808080;stroke-width:0.25" />
<path d="M1101.3,80.11L1101.3,1024.6" style="fill:none;stroke:#808080;stroke-width:0.25" />
<path d="M1298.5,80.11L1298.5,1024.6" style="fill:none;stroke:#808080;stroke-width:0.25" />
<path d="M1495.7,80.11L1495.7,1024.6" style="fill:none;stroke:#808080;stroke-width:0.25" />
<path d="M1692.8,80.11L1692.8,1024.6" style="fill:none;stroke:#808080;stroke-width:0.25" />
<path d="M1890,80.11L1890,1024.6" style="fill:none;stroke:#808080;stroke-width:0.25" />
<path d="M115.46,181.46L1890,181.46" style="fill:none;stroke:#808080;stroke-width:0.25" />
<path d="M115.46,561.05L1890,561.05" style="fill:none;stroke:#808080;stroke-width:0.25" />
<path d="M115.46,940.64L1890,940.64" style="fill:none;stroke:#808080;stroke-width:0.25" />
<path d="M115.46,107.77L312.63,170.64L509.8,214.58L706.97,294.67L904.15,426.2L1101.3,670.18L1298.5,581.83L1495.7,676.4L1692.8,738.18L1890,924.51" style="fill:none;stroke:#FF0000;stroke-width:4" />
<path d="M120.46,107.77A5,5 0 1 1 110.46,107.77A5,5 0 1 1 120.46,107.77Z" style="fill:#FF0000" />
<path d="M317.63,170.64A5,5 0 1 1 307.63,170.64A5,5 0 1 1 317.63,170.64Z" style="fill:#FF0000" />
<path d="M514.8,214.58A5,5 0 1 1 504.8,214.58A5,5 0 1 1 514.8,214.58Z" style="fill:#FF0000" />
<path d="M711.97,294.67A5,5 0 1 1 701.97,294.67A5,5 0 1 1 711.97,294.67Z" style="fill:#FF0000" />
<path d="M909.15,426.2A5,5 0 1 1 899.15,426.2A5,5 0 1 1 909.15,426.2Z" style="fill:#FF0000" />
<path d="M1106.3,670.18A5,5 0 1 1 1096.3,670.18A5,5 0 1 1 1106.3,670.18Z" style="fill:#FF0000" />
<path d="M1303.5,581.83A5,5 0 1 1 1293.5,581.83A5,5 0 1 1 1303.5,581.83Z" style="fill:#FF0000" />
<path d="M1500.7,676.4A5,5 0 1 1 1490.7,676.4A5,5 0 1 1 1500.7,676.4Z" style="fill:#FF0000" />
<path d="M1697.8,738.18A5,5 0 1 1 1687.8,738.18A5,5 0 1 1 1697.8,738.18Z" style="fill:#FF0000" />
<path d="M1895,924.51A5,5 0 1 1 1885,924.51A5,5 0 1 1 1895,924.51Z" style="fill:#FF0000" />
<path d="M115.46,80.11L312.63,135.91L509.8,246.89L706.97,318.11L904.15,446.27L1101.3,539.41L1298.5,517.59L1495.7,610.49L1692.8,691.91L1890,776.89" style="fill:none;stroke:#0000FF;stroke-width:4" />
<path d="M120.46,80.11A5,5 0 1 1 110.46,80.11A5,5 0 1 1 120.46,80.11Z" style="fill:#0000FF" />
<path d="M317.63,135.91A5,5 0 1 1 307.63,135.91A5,5 0 1 1 317.63,135.91Z" style="fill:#0000FF" />
<path d="M514.8,246.89A5,5 0 1 1 504.8,246.89A5,5 0 1 1 514.8,246.89Z" style="fill:#0000FF" />
<path d="M711.97,318.11A5,5 0 1 1 701.97,318.11A5,5 0 1 1 711.97,318.11Z" style="fill:#0000FF" />
<path d="M909.15,446.27A5,5 0 1 1 899.15,446.27A5,5 0 1 1 909.15,446.27Z" style="fill:#0000FF" />
<path d="M1106.3,539.41A5,5 0 1 1 1096.3,539.41A5,5 0 1 1 1106.3,539.41Z" style="fill:#0000FF" />
<path d="M1303.5,517.59A5,5 0 1 1 1293.5,517.59A5,5 0 1 1 1303.5,517.59Z" style="fill:#0000FF" />
<path d="M1500.7,610.49A5,5 0 1 1 1490.7,610.49A5,5 0 1 1 1500.7,610.49Z" style="fill:#0000FF" />
<path d="M1697.8,691.91A5,5 0 1 1 1687.8,691.91A5,5 0 1 1 1697.8,691.91Z" style="fill:#0000FF" />
<path d="M1895,776.89A5,5 0 1 1 1885,776.89A5,5 0 1 1 1895,776.89Z" style="fill:#0000FF" />
<path d="M115.46,114.65L312.63,182.27L509.8,320.82L706.97,419.99L904.15,493.01L1101.3,631.94L1298.5,749.37L1495.7,844.98L1692.8,912.46L1890,930.72" style="fill:none;stroke:#00FF00;stroke-width:4" />
<path d="M120.46,114.65A5,5 0 1 1 110.46,114.65A5,5 0 1 1 120.46,114.65Z" style="fill:#00FF00" />
<path d="M317.63,182.27A5,5 0 1 1 307.63,182.27A5,5 0 1 1 317.63,182.27Z" style="fill:#00FF00" />
<path d="M514.8,320.82A5,5 0 1 1 504.8,320.82A5,5 0 1 1 514.8,320.82Z" style="fill:#00FF00" />
<path d="M711.97,419.99A5,5 0 1 1 701.97,419.99A5,5 0 1 1 711.97,419.99Z" style="fill:#00FF00" />
<path d="M909.15,493.01A5,5 0 1 1 899.15,493.01A5,5 0 1 1 909.15,493.01Z" style="fill:#00FF00" />
<path d="M1106.3,631.94A5,5 0 1 1 1096.3,631.94A5,5 0 1 1 1106.3,631.94Z" style="fill:#00FF00" />
<path d="M1303.5,749.37A5,5 0 1 1 1293.5,749.37A5,5 0 1 1 1303.5,749.37Z" style="fill:#00FF00" />
<path d="M1500.7,844.98A5,5 0 1 1 1490.7,844.98A5,5 0 1 1 1500.7,844.98Z" style="fill:#00FF00" />
<path d="M1697.8,912.46A5,5 0 1 1 1687.8,912.46A5,5 0 1 1 1697.8,912.46Z" style="fill:#00FF00" />
<path d="M1895,930.72A5,5 0 1 1 1885,930.72A5,5 0 1 1 1895,930.72Z" style="fill:#00FF00" />
<path d="M1900,126.03L1920,126.03" style="fill:none;stroke:#FF0000;stroke-width:4" />
<path d="M1915,126.03A5,5 0 1 1 1905,126.03A5,5 0 1 1 1915,126.03Z" style="fill:#FF0000" />
<text x="1795.4" y="-121.05" transform="scale(1, -1)"
	style="font-family:Liberation Serif;font-variant:normal;font-weight:normal;font-style:normal;font-size:24px">std::deque</text>
<path d="M1900,105.66L1920,105.66" style="fill:none;stroke:#0000FF;stroke-width:4" />
<path d="M1915,105.66A5,5 0 1 1 1905,105.66A5,5 0 1 1 1915,105.66Z" style="fill:#0000FF" />
<text x="1792.7" y="-100.69" transform="scale(1, -1)"
	style="font-family:Liberation Serif;font-variant:normal;font-weight:normal;font-style:normal;font-size:24px">std::vector</text>
<path d="M1900,85.294L1920,85.294" style="fill:none;stroke:#00FF00;stroke-width:4" />
<path d="M1915,85.294A5,5 0 1 1 1905,85.294A5,5 0 1 1 1915,85.294Z" style="fill:#00FF00" />
<text x="1823.3" y="-80.319" transform="scale(1, -1)"
	style="font-family:Liberation Serif;font-variant:normal;font-weight:normal;font-style:normal;font-size:24px">std::list</text>
</g>
</svg>
