<?xml version="1.0"?>
<!-- Generated by SVGo and Plotinum VG -->
<svg width="1920pt" height="1080pt" viewBox="0 0 1920 1080"
	xmlns="http://www.w3.org/2000/svg"
	xmlns:xlink="http://www.w3.org/1999/xlink">
<g transform="scale(1, -1) translate(0, -1080)">
<path d="M0,0L1920,0L1920,1080L0,1080Z" style="fill:#FFFFFF" />
<text x="678.86" y="-1040.9" transform="scale(1, -1)"
	style="font-family:Liberation Serif;font-variant:normal;font-weight:normal;font-style:normal;font-size:50px">random-remove - Log Scale</text>
<text x="875.27" y="-9.7559" transform="scale(1, -1)"
	style="font-family:Liberation Serif;font-variant:normal;font-weight:normal;font-style:normal;font-size:30px">Number of elements</text>
<text x="80.462" y="-39.727" transform="scale(1, -1)"
	style="font-family:Liberation Serif;font-variant:normal;font-weight:normal;font-style:normal;font-size:20px">10000</text>
<text x="278.74" y="-39.727" transform="scale(1, -1)"
	style="font-family:Liberation Serif;font-variant:normal;font-weight:normal;font-style:normal;font-size:20px">20000</text>
<text x="477.03" y="-39.727" transform="scale(1, -1)"
	style="font-family:Liberation Serif;font-variant:normal;font-weight:normal;font-style:normal;font-size:20px">30000</text>
<text x="675.31" y="-39.727" transform="scale(1, -1)"
	style="font-family:Liberation Serif;font-variant:normal;font-weight:normal;font-style:normal;font-size:20px">40000</text>
<text x="873.59" y="-39.727" transform="scale(1, -1)"
	style="font-family:Liberation Serif;font-variant:normal;font-weight:normal;font-style:normal;font-size:20px">50000</text>
<text x="1071.9" y="-39.727" transform="scale(1, -1)"
	style="font-family:Liberation Serif;font-variant:normal;font-weight:normal;font-style:normal;font-size:20px">60000</text>
<text x="1270.2" y="-39.727" transform="scale(1, -1)"
	style="font-family:Liberation Serif;font-variant:normal;font-weight:normal;font-style:normal;font-size:20px">70000</text>
<text x="1468.4" y="-39.727" transform="scale(1, -1)"
	style="font-family:Liberation Serif;font-variant:normal;font-weight:normal;font-style:normal;font-size:20px">80000</text>
<text x="1666.7" y="-39.727" transform="scale(1, -1)"
	style="font-family:Liberation Serif;font-variant:normal;font-weight:normal;font-style:normal;font-size:20px">90000</text>
<text x="1860" y="-39.727" transform="scale(1, -1)"
	style="font-family:Liberation Serif;font-variant:normal;font-weight:normal;font-style:normal;font-size:20px">100000</text>
<path d="M105.46,55.371L105.46,63.371" style="fill:none;stroke:#000000;stroke-width:0.5" />
<path d="M303.74,55.371L303.74,63.371" style="fill:none;stroke:#000000;stroke-width:0.5" />
<path d="M502.03,55.371L502.03,63.371" style="fill:none;stroke:#000000;stroke-width:0.5" />
<path d="M700.31,55.371L700.31,63.371" style="fill:none;stroke:#000000;stroke-width:0.5" />
<path d="M898.59,55.371L898.59,63.371" style="fill:none;stroke:#000000;stroke-width:0.5" />
<path d="M1096.9,55.371L1096.9,63.371" style="fill:none;stroke:#000000;stroke-width:0.5" />
<path d="M1295.2,55.371L1295.2,63.371" style="fill:none;stroke:#000000;stroke-width:0.5" />
<path d="M1493.4,55.371L1493.4,63.371" style="fill:none;stroke:#000000;stroke-width:0.5" />
<path d="M1691.7,55.371L1691.7,63.371" style="fill:none;stroke:#000000;stroke-width:0.5" />
<path d="M1890,55.371L1890,63.371" style="fill:none;stroke:#000000;stroke-width:0.5" />
<path d="M105.46,63.371L1890,63.371" style="fill:none;stroke:#000000;stroke-width:0.5" />
<g transform="rotate(90)">
<text x="484.57" y="23.467" transform="scale(1, -1)"
	style="font-family:Liberation Serif;font-variant:normal;font-weight:normal;font-style:normal;font-size:30px">log(μs + 1)</text>
</g>
<text x="39.712" y="-484.56" transform="scale(1, -1)"
	style="font-family:Liberation Serif;font-variant:normal;font-weight:normal;font-style:normal;font-size:20px">1000</text>
<text x="39.712" y="-842.54" transform="scale(1, -1)"
	style="font-family:Liberation Serif;font-variant:normal;font-weight:normal;font-style:normal;font-size:20px">3000</text>
<text x="39.712" y="-1009" transform="scale(1, -1)"
	style="font-family:Liberation Serif;font-variant:normal;font-weight:normal;font-style:normal;font-size:20px">5000</text>
<path d="M84.712,489.13L92.712,489.13" style="fill:none;stroke:#000000;stroke-width:0.5" />
<path d="M84.712,847.11L92.712,847.11" style="fill:none;stroke:#000000;stroke-width:0.5" />
<path d="M84.712,1013.6L92.712,1013.6" style="fill:none;stroke:#000000;stroke-width:0.5" />
<path d="M88.712,714.99L92.712,714.99" style="fill:none;stroke:#000000;stroke-width:0.5" />
<path d="M88.712,940.84L92.712,940.84" style="fill:none;stroke:#000000;stroke-width:0.5" />
<path d="M92.712,80.11L92.712,1022" style="fill:none;stroke:#000000;stroke-width:0.5" />
<path d="M105.46,80.11L105.46,1022" style="fill:none;stroke:#808080;stroke-width:0.25" />
<path d="M303.74,80.11L303.74,1022" style="fill:none;stroke:#808080;stroke-width:0.25" />
<path d="M502.03,80.11L502.03,1022" style="fill:none;stroke:#808080;stroke-width:0.25" />
<path d="M700.31,80.11L700.31,1022" style="fill:none;stroke:#808080;stroke-width:0.25" />
<path d="M898.59,80.11L898.59,1022" style="fill:none;stroke:#808080;stroke-width:0.25" />
<path d="M1096.9,80.11L1096.9,1022" style="fill:none;stroke:#808080;stroke-width:0.25" />
<path d="M1295.2,80.11L1295.2,1022" style="fill:none;stroke:#808080;stroke-width:0.25" />
<path d="M1493.4,80.11L1493.4,1022" style="fill:none;stroke:#808080;stroke-width:0.25" />
<path d="M1691.7,80.11L1691.7,1022" style="fill:none;stroke:#808080;stroke-width:0.25" />
<path d="M1890,80.11L1890,1022" style="fill:none;stroke:#808080;stroke-width:0.25" />
<path d="M105.46,489.13L1890,489.13" style="fill:none;stroke:#808080;stroke-width:0.25" />
<path d="M105.46,847.11L1890,847.11" style="fill:none;stroke:#808080;stroke-width:0.25" />
<path d="M105.46,1013.6L1890,1013.6" style="fill:none;stroke:#808080;stroke-width:0.25" />
<path d="M105.46,184.81L303.74,360.58L502.03,452.98L700.31,516.91L898.59,592.9L1096.9,666.98L1295.2,767.95L1493.4,798.47L1691.7,780.85L1890,865.37" style="fill:none;stroke:#FF0000;stroke-width:4" />
<path d="M110.46,184.81A5,5 0 1 1 100.46,184.81A5,5 0 1 1 110.46,184.81Z" style="fill:#FF0000" />
<path d="M308.74,360.58A5,5 0 1 1 298.74,360.58A5,5 0 1 1 308.74,360.58Z" style="fill:#FF0000" />
<path d="M507.03,452.98A5,5 0 1 1 497.03,452.98A5,5 0 1 1 507.03,452.98Z" style="fill:#FF0000" />
<path d="M705.31,516.91A5,5 0 1 1 695.31,516.91A5,5 0 1 1 705.31,516.91Z" style="fill:#FF0000" />
<path d="M903.59,592.9A5,5 0 1 1 893.59,592.9A5,5 0 1 1 903.59,592.9Z" style="fill:#FF0000" />
<path d="M1101.9,666.98A5,5 0 1 1 1091.9,666.98A5,5 0 1 1 1101.9,666.98Z" style="fill:#FF0000" />
<path d="M1300.2,767.95A5,5 0 1 1 1290.2,767.95A5,5 0 1 1 1300.2,767.95Z" style="fill:#FF0000" />
<path d="M1498.4,798.47A5,5 0 1 1 1488.4,798.47A5,5 0 1 1 1498.4,798.47Z" style="fill:#FF0000" />
<path d="M1696.7,780.85A5,5 0 1 1 1686.7,780.85A5,5 0 1 1 1696.7,780.85Z" style="fill:#FF0000" />
<path d="M1895,865.37A5,5 0 1 1 1885,865.37A5,5 0 1 1 1895,865.37Z" style="fill:#FF0000" />
<path d="M105.46,80.11L303.74,343.71L502.03,450.06L700.31,513.6L898.59,598.3L1096.9,637.97L1295.2,721.44L1493.4,743.67L1691.7,768.09L1890,842.84" style="fill:none;stroke:#0000FF;stroke-width:4" />
<path d="M110.46,80.11A5,5 0 1 1 100.46,80.11A5,5 0 1 1 110.46,80.11Z" style="fill:#0000FF" />
<path d="M308.74,343.71A5,5 0 1 1 298.74,343.71A5,5 0 1 1 308.74,343.71Z" style="fill:#0000FF" />
<path d="M507.03,450.06A5,5 0 1 1 497.03,450.06A5,5 0 1 1 507.03,450.06Z" style="fill:#0000FF" />
<path d="M705.31,513.6A5,5 0 1 1 695.31,513.6A5,5 0 1 1 705.31,513.6Z" style="fill:#0000FF" />
<path d="M903.59,598.3A5,5 0 1 1 893.59,598.3A5,5 0 1 1 903.59,598.3Z" style="fill:#0000FF" />
<path d="M1101.9,637.97A5,5 0 1 1 1091.9,637.97A5,5 0 1 1 1101.9,637.97Z" style="fill:#0000FF" />
<path d="M1300.2,721.44A5,5 0 1 1 1290.2,721.44A5,5 0 1 1 1300.2,721.44Z" style="fill:#0000FF" />
<path d="M1498.4,743.67A5,5 0 1 1 1488.4,743.67A5,5 0 1 1 1498.4,743.67Z" style="fill:#0000FF" />
<path d="M1696.7,768.09A5,5 0 1 1 1686.7,768.09A5,5 0 1 1 1696.7,768.09Z" style="fill:#0000FF" />
<path d="M1895,842.84A5,5 0 1 1 1885,842.84A5,5 0 1 1 1895,842.84Z" style="fill:#0000FF" />
<path d="M105.46,248.61L303.74,438.47L502.03,588.84L700.31,665.27L898.59,792.87L1096.9,868.03L1295.2,916.76L1493.4,929.83L1691.7,954.49L1890,991.03" style="fill:none;stroke:#00FF00;stroke-width:4" />
<path d="M110.46,248.61A5,5 0 1 1 100.46,248.61A5,5 0 1 1 110.46,248.61Z" style="fill:#00FF00" />
<path d="M308.74,438.47A5,5 0 1 1 298.74,438.47A5,5 0 1 1 308.74,438.47Z" style="fill:#00FF00" />
<path d="M507.03,588.84A5,5 0 1 1 497.03,588.84A5,5 0 1 1 507.03,588.84Z" style="fill:#00FF00" />
<path d="M705.31,665.27A5,5 0 1 1 695.31,665.27A5,5 0 1 1 705.31,665.27Z" style="fill:#00FF00" />
<path d="M903.59,792.87A5,5 0 1 1 893.59,792.87A5,5 0 1 1 903.59,792.87Z" style="fill:#00FF00" />
<path d="M1101.9,868.03A5,5 0 1 1 1091.9,868.03A5,5 0 1 1 1101.9,868.03Z" style="fill:#00FF00" />
<path d="M1300.2,916.76A5,5 0 1 1 1290.2,916.76A5,5 0 1 1 1300.2,916.76Z" style="fill:#00FF00" />
<path d="M1498.4,929.83A5,5 0 1 1 1488.4,929.83A5,5 0 1 1 1498.4,929.83Z" style="fill:#00FF00" />
<path d="M1696.7,954.49A5,5 0 1 1 1686.7,954.49A5,5 0 1 1 1696.7,954.49Z" style="fill:#00FF00" />
<path d="M1895,991.03A5,5 0 1 1 1885,991.03A5,5 0 1 1 1895,991.03Z" style="fill:#00FF00" />
<path d="M1900,126.03L1920,126.03" style="fill:none;stroke:#FF0000;stroke-width:4" />
<path d="M1915,126.03A5,5 0 1 1 1905,126.03A5,5 0 1 1 1915,126.03Z" style="fill:#FF0000" />
<text x="1795.4" y="-121.05" transform="scale(1, -1)"
	style="font-family:Liberation Serif;font-variant:normal;font-weight:normal;font-style:normal;font-size:24px">std::deque</text>
<path d="M1900,105.66L1920,105.66" style="fill:none;stroke:#0000FF;stroke-width:4" />
<path d="M1915,105.66A5,5 0 1 1 1905,105.66A5,5 0 1 1 1915,105.66Z" style="fill:#0000FF" />
<text x="1792.7" y="-100.69" transform="scale(1, -1)"
	style="font-family:Liberation Serif;font-variant:normal;font-weight:normal;font-style:normal;font-size:24px">std::vector</text>
<path d="M1900,85.294L1920,85.294" style="fill:none;stroke:#00FF00;stroke-width:4" />
<path d="M1915,85.294A5,5 0 1 1 1905,85.294A5,5 0 1 1 1915,85.294Z" style="fill:#00FF00" />
<text x="1823.3" y="-80.319" transform="scale(1, -1)"
	style="font-family:Liberation Serif;font-variant:normal;font-weight:normal;font-style:normal;font-size:24px">std::list</text>
</g>
</svg>
