<?xml version="1.0"?>
<!-- Generated by SVGo and Plotinum VG -->
<svg width="1920pt" height="1080pt" viewBox="0 0 1920 1080"
	xmlns="http://www.w3.org/2000/svg"
	xmlns:xlink="http://www.w3.org/1999/xlink">
<g transform="scale(1, -1) translate(0, -1080)">
<path d="M0,0L1920,0L1920,1080L0,1080Z" style="fill:#FFFFFF" />
<text x="800.34" y="-1040.9" transform="scale(1, -1)"
	style="font-family:Liberation Serif;font-variant:normal;font-weight:normal;font-style:normal;font-size:50px">random-remove</text>
<text x="892.77" y="-9.7559" transform="scale(1, -1)"
	style="font-family:Liberation Serif;font-variant:normal;font-weight:normal;font-style:normal;font-size:30px">Number of elements</text>
<text x="115.46" y="-39.727" transform="scale(1, -1)"
	style="font-family:Liberation Serif;font-variant:normal;font-weight:normal;font-style:normal;font-size:20px">10000</text>
<text x="309.86" y="-39.727" transform="scale(1, -1)"
	style="font-family:Liberation Serif;font-variant:normal;font-weight:normal;font-style:normal;font-size:20px">20000</text>
<text x="504.25" y="-39.727" transform="scale(1, -1)"
	style="font-family:Liberation Serif;font-variant:normal;font-weight:normal;font-style:normal;font-size:20px">30000</text>
<text x="698.64" y="-39.727" transform="scale(1, -1)"
	style="font-family:Liberation Serif;font-variant:normal;font-weight:normal;font-style:normal;font-size:20px">40000</text>
<text x="893.03" y="-39.727" transform="scale(1, -1)"
	style="font-family:Liberation Serif;font-variant:normal;font-weight:normal;font-style:normal;font-size:20px">50000</text>
<text x="1087.4" y="-39.727" transform="scale(1, -1)"
	style="font-family:Liberation Serif;font-variant:normal;font-weight:normal;font-style:normal;font-size:20px">60000</text>
<text x="1281.8" y="-39.727" transform="scale(1, -1)"
	style="font-family:Liberation Serif;font-variant:normal;font-weight:normal;font-style:normal;font-size:20px">70000</text>
<text x="1476.2" y="-39.727" transform="scale(1, -1)"
	style="font-family:Liberation Serif;font-variant:normal;font-weight:normal;font-style:normal;font-size:20px">80000</text>
<text x="1670.6" y="-39.727" transform="scale(1, -1)"
	style="font-family:Liberation Serif;font-variant:normal;font-weight:normal;font-style:normal;font-size:20px">90000</text>
<text x="1860" y="-39.727" transform="scale(1, -1)"
	style="font-family:Liberation Serif;font-variant:normal;font-weight:normal;font-style:normal;font-size:20px">100000</text>
<path d="M140.46,55.371L140.46,63.371" style="fill:none;stroke:#000000;stroke-width:0.5" />
<path d="M334.86,55.371L334.86,63.371" style="fill:none;stroke:#000000;stroke-width:0.5" />
<path d="M529.25,55.371L529.25,63.371" style="fill:none;stroke:#000000;stroke-width:0.5" />
<path d="M723.64,55.371L723.64,63.371" style="fill:none;stroke:#000000;stroke-width:0.5" />
<path d="M918.03,55.371L918.03,63.371" style="fill:none;stroke:#000000;stroke-width:0.5" />
<path d="M1112.4,55.371L1112.4,63.371" style="fill:none;stroke:#000000;stroke-width:0.5" />
<path d="M1306.8,55.371L1306.8,63.371" style="fill:none;stroke:#000000;stroke-width:0.5" />
<path d="M1501.2,55.371L1501.2,63.371" style="fill:none;stroke:#000000;stroke-width:0.5" />
<path d="M1695.6,55.371L1695.6,63.371" style="fill:none;stroke:#000000;stroke-width:0.5" />
<path d="M1890,55.371L1890,63.371" style="fill:none;stroke:#000000;stroke-width:0.5" />
<path d="M140.46,63.371L1890,63.371" style="fill:none;stroke:#000000;stroke-width:0.5" />
<g transform="rotate(90)">
<text x="538.49" y="23.467" transform="scale(1, -1)"
	style="font-family:Liberation Serif;font-variant:normal;font-weight:normal;font-style:normal;font-size:30px">μs</text>
</g>
<text x="49.712" y="-93.434" transform="scale(1, -1)"
	style="font-family:Liberation Serif;font-variant:normal;font-weight:normal;font-style:normal;font-size:20px">2500.00</text>
<text x="39.712" y="-507.64" transform="scale(1, -1)"
	style="font-family:Liberation Serif;font-variant:normal;font-weight:normal;font-style:normal;font-size:20px">12500.00</text>
<text x="39.712" y="-921.85" transform="scale(1, -1)"
	style="font-family:Liberation Serif;font-variant:normal;font-weight:normal;font-style:normal;font-size:20px">22500.00</text>
<path d="M119.71,98.004L127.71,98.004" style="fill:none;stroke:#000000;stroke-width:0.5" />
<path d="M119.71,512.21L127.71,512.21" style="fill:none;stroke:#000000;stroke-width:0.5" />
<path d="M119.71,926.42L127.71,926.42" style="fill:none;stroke:#000000;stroke-width:0.5" />
<path d="M123.71,305.11L127.71,305.11" style="fill:none;stroke:#000000;stroke-width:0.5" />
<path d="M123.71,719.32L127.71,719.32" style="fill:none;stroke:#000000;stroke-width:0.5" />
<path d="M127.71,80.11L127.71,1024.6" style="fill:none;stroke:#000000;stroke-width:0.5" />
<path d="M140.46,80.11L140.46,1024.6" style="fill:none;stroke:#808080;stroke-width:0.25" />
<path d="M334.86,80.11L334.86,1024.6" style="fill:none;stroke:#808080;stroke-width:0.25" />
<path d="M529.25,80.11L529.25,1024.6" style="fill:none;stroke:#808080;stroke-width:0.25" />
<path d="M723.64,80.11L723.64,1024.6" style="fill:none;stroke:#808080;stroke-width:0.25" />
<path d="M918.03,80.11L918.03,1024.6" style="fill:none;stroke:#808080;stroke-width:0.25" />
<path d="M1112.4,80.11L1112.4,1024.6" style="fill:none;stroke:#808080;stroke-width:0.25" />
<path d="M1306.8,80.11L1306.8,1024.6" style="fill:none;stroke:#808080;stroke-width:0.25" />
<path d="M1501.2,80.11L1501.2,1024.6" style="fill:none;stroke:#808080;stroke-width:0.25" />
<path d="M1695.6,80.11L1695.6,1024.6" style="fill:none;stroke:#808080;stroke-width:0.25" />
<path d="M1890,80.11L1890,1024.6" style="fill:none;stroke:#808080;stroke-width:0.25" />
<path d="M140.46,98.004L1890,98.004" style="fill:none;stroke:#808080;stroke-width:0.25" />
<path d="M140.46,512.21L1890,512.21" style="fill:none;stroke:#808080;stroke-width:0.25" />
<path d="M140.46,926.42L1890,926.42" style="fill:none;stroke:#808080;stroke-width:0.25" />
<path d="M140.46,80.897L334.86,136.61L529.25,224.3L723.64,306.02L918.03,516.52L1112.4,679.22L1306.8,686.72L1501.2,632L1695.6,737.46L1890,745.54" style="fill:none;stroke:#FF0000;stroke-width:4" />
<path d="M145.46,80.897A5,5 0 1 1 135.46,80.897A5,5 0 1 1 145.46,80.897Z" style="fill:#FF0000" />
<path d="M339.86,136.61A5,5 0 1 1 329.86,136.61A5,5 0 1 1 339.86,136.61Z" style="fill:#FF0000" />
<path d="M534.25,224.3A5,5 0 1 1 524.25,224.3A5,5 0 1 1 534.25,224.3Z" style="fill:#FF0000" />
<path d="M728.64,306.02A5,5 0 1 1 718.64,306.02A5,5 0 1 1 728.64,306.02Z" style="fill:#FF0000" />
<path d="M923.03,516.52A5,5 0 1 1 913.03,516.52A5,5 0 1 1 923.03,516.52Z" style="fill:#FF0000" />
<path d="M1117.4,679.22A5,5 0 1 1 1107.4,679.22A5,5 0 1 1 1117.4,679.22Z" style="fill:#FF0000" />
<path d="M1311.8,686.72A5,5 0 1 1 1301.8,686.72A5,5 0 1 1 1311.8,686.72Z" style="fill:#FF0000" />
<path d="M1506.2,632A5,5 0 1 1 1496.2,632A5,5 0 1 1 1506.2,632Z" style="fill:#FF0000" />
<path d="M1700.6,737.46A5,5 0 1 1 1690.6,737.46A5,5 0 1 1 1700.6,737.46Z" style="fill:#FF0000" />
<path d="M1895,745.54A5,5 0 1 1 1885,745.54A5,5 0 1 1 1895,745.54Z" style="fill:#FF0000" />
<path d="M140.46,82.223L334.86,146.43L529.25,206.49L723.64,298.85L918.03,390.23L1112.4,470.09L1306.8,512.79L1501.2,667.62L1695.6,930.98L1890,851.2" style="fill:none;stroke:#0000FF;stroke-width:4" />
<path d="M145.46,82.223A5,5 0 1 1 135.46,82.223A5,5 0 1 1 145.46,82.223Z" style="fill:#0000FF" />
<path d="M339.86,146.43A5,5 0 1 1 329.86,146.43A5,5 0 1 1 339.86,146.43Z" style="fill:#0000FF" />
<path d="M534.25,206.49A5,5 0 1 1 524.25,206.49A5,5 0 1 1 534.25,206.49Z" style="fill:#0000FF" />
<path d="M728.64,298.85A5,5 0 1 1 718.64,298.85A5,5 0 1 1 728.64,298.85Z" style="fill:#0000FF" />
<path d="M923.03,390.23A5,5 0 1 1 913.03,390.23A5,5 0 1 1 923.03,390.23Z" style="fill:#0000FF" />
<path d="M1117.4,470.09A5,5 0 1 1 1107.4,470.09A5,5 0 1 1 1117.4,470.09Z" style="fill:#0000FF" />
<path d="M1311.8,512.79A5,5 0 1 1 1301.8,512.79A5,5 0 1 1 1311.8,512.79Z" style="fill:#0000FF" />
<path d="M1506.2,667.62A5,5 0 1 1 1496.2,667.62A5,5 0 1 1 1506.2,667.62Z" style="fill:#0000FF" />
<path d="M1700.6,930.98A5,5 0 1 1 1690.6,930.98A5,5 0 1 1 1700.6,930.98Z" style="fill:#0000FF" />
<path d="M1895,851.2A5,5 0 1 1 1885,851.2A5,5 0 1 1 1895,851.2Z" style="fill:#0000FF" />
<path d="M140.46,80.11L334.86,176.37L529.25,323.29L723.64,433.02L918.03,522.48L1112.4,529.36L1306.8,684.85L1501.2,755.89L1695.6,736.01L1890,840.51" style="fill:none;stroke:#00FF00;stroke-width:4" />
<path d="M145.46,80.11A5,5 0 1 1 135.46,80.11A5,5 0 1 1 145.46,80.11Z" style="fill:#00FF00" />
<path d="M339.86,176.37A5,5 0 1 1 329.86,176.37A5,5 0 1 1 339.86,176.37Z" style="fill:#00FF00" />
<path d="M534.25,323.29A5,5 0 1 1 524.25,323.29A5,5 0 1 1 534.25,323.29Z" style="fill:#00FF00" />
<path d="M728.64,433.02A5,5 0 1 1 718.64,433.02A5,5 0 1 1 728.64,433.02Z" style="fill:#00FF00" />
<path d="M923.03,522.48A5,5 0 1 1 913.03,522.48A5,5 0 1 1 923.03,522.48Z" style="fill:#00FF00" />
<path d="M1117.4,529.36A5,5 0 1 1 1107.4,529.36A5,5 0 1 1 1117.4,529.36Z" style="fill:#00FF00" />
<path d="M1311.8,684.85A5,5 0 1 1 1301.8,684.85A5,5 0 1 1 1311.8,684.85Z" style="fill:#00FF00" />
<path d="M1506.2,755.89A5,5 0 1 1 1496.2,755.89A5,5 0 1 1 1506.2,755.89Z" style="fill:#00FF00" />
<path d="M1700.6,736.01A5,5 0 1 1 1690.6,736.01A5,5 0 1 1 1700.6,736.01Z" style="fill:#00FF00" />
<path d="M1895,840.51A5,5 0 1 1 1885,840.51A5,5 0 1 1 1895,840.51Z" style="fill:#00FF00" />
<path d="M1900,126.03L1920,126.03" style="fill:none;stroke:#FF0000;stroke-width:4" />
<path d="M1915,126.03A5,5 0 1 1 1905,126.03A5,5 0 1 1 1915,126.03Z" style="fill:#FF0000" />
<text x="1795.4" y="-121.05" transform="scale(1, -1)"
	style="font-family:Liberation Serif;font-variant:normal;font-weight:normal;font-style:normal;font-size:24px">std::deque</text>
<path d="M1900,105.66L1920,105.66" style="fill:none;stroke:#0000FF;stroke-width:4" />
<path d="M1915,105.66A5,5 0 1 1 1905,105.66A5,5 0 1 1 1915,105.66Z" style="fill:#0000FF" />
<text x="1792.7" y="-100.69" transform="scale(1, -1)"
	style="font-family:Liberation Serif;font-variant:normal;font-weight:normal;font-style:normal;font-size:24px">std::vector</text>
<path d="M1900,85.294L1920,85.294" style="fill:none;stroke:#00FF00;stroke-width:4" />
<path d="M1915,85.294A5,5 0 1 1 1905,85.294A5,5 0 1 1 1915,85.294Z" style="fill:#00FF00" />
<text x="1823.3" y="-80.319" transform="scale(1, -1)"
	style="font-family:Liberation Serif;font-variant:normal;font-weight:normal;font-style:normal;font-size:24px">std::list</text>
</g>
</svg>
