<?xml version="1.0"?>
<!-- Generated by SVGo and Plotinum VG -->
<svg width="1920pt" height="1080pt" viewBox="0 0 1920 1080"
	xmlns="http://www.w3.org/2000/svg"
	xmlns:xlink="http://www.w3.org/1999/xlink">
<g transform="scale(1, -1) translate(0, -1080)">
<path d="M0,0L1920,0L1920,1080L0,1080Z" style="fill:#FFFFFF" />
<text x="800.34" y="-1040.9" transform="scale(1, -1)"
	style="font-family:Liberation Serif;font-variant:normal;font-weight:normal;font-style:normal;font-size:50px">random-remove</text>
<text x="875.27" y="-9.7559" transform="scale(1, -1)"
	style="font-family:Liberation Serif;font-variant:normal;font-weight:normal;font-style:normal;font-size:30px">Number of elements</text>
<text x="80.462" y="-39.727" transform="scale(1, -1)"
	style="font-family:Liberation Serif;font-variant:normal;font-weight:normal;font-style:normal;font-size:20px">10000</text>
<text x="278.74" y="-39.727" transform="scale(1, -1)"
	style="font-family:Liberation Serif;font-variant:normal;font-weight:normal;font-style:normal;font-size:20px">20000</text>
<text x="477.03" y="-39.727" transform="scale(1, -1)"
	style="font-family:Liberation Serif;font-variant:normal;font-weight:normal;font-style:normal;font-size:20px">30000</text>
<text x="675.31" y="-39.727" transform="scale(1, -1)"
	style="font-family:Liberation Serif;font-variant:normal;font-weight:normal;font-style:normal;font-size:20px">40000</text>
<text x="873.59" y="-39.727" transform="scale(1, -1)"
	style="font-family:Liberation Serif;font-variant:normal;font-weight:normal;font-style:normal;font-size:20px">50000</text>
<text x="1071.9" y="-39.727" transform="scale(1, -1)"
	style="font-family:Liberation Serif;font-variant:normal;font-weight:normal;font-style:normal;font-size:20px">60000</text>
<text x="1270.2" y="-39.727" transform="scale(1, -1)"
	style="font-family:Liberation Serif;font-variant:normal;font-weight:normal;font-style:normal;font-size:20px">70000</text>
<text x="1468.4" y="-39.727" transform="scale(1, -1)"
	style="font-family:Liberation Serif;font-variant:normal;font-weight:normal;font-style:normal;font-size:20px">80000</text>
<text x="1666.7" y="-39.727" transform="scale(1, -1)"
	style="font-family:Liberation Serif;font-variant:normal;font-weight:normal;font-style:normal;font-size:20px">90000</text>
<text x="1860" y="-39.727" transform="scale(1, -1)"
	style="font-family:Liberation Serif;font-variant:normal;font-weight:normal;font-style:normal;font-size:20px">100000</text>
<path d="M105.46,55.371L105.46,63.371" style="fill:none;stroke:#000000;stroke-width:0.5" />
<path d="M303.74,55.371L303.74,63.371" style="fill:none;stroke:#000000;stroke-width:0.5" />
<path d="M502.03,55.371L502.03,63.371" style="fill:none;stroke:#000000;stroke-width:0.5" />
<path d="M700.31,55.371L700.31,63.371" style="fill:none;stroke:#000000;stroke-width:0.5" />
<path d="M898.59,55.371L898.59,63.371" style="fill:none;stroke:#000000;stroke-width:0.5" />
<path d="M1096.9,55.371L1096.9,63.371" style="fill:none;stroke:#000000;stroke-width:0.5" />
<path d="M1295.2,55.371L1295.2,63.371" style="fill:none;stroke:#000000;stroke-width:0.5" />
<path d="M1493.4,55.371L1493.4,63.371" style="fill:none;stroke:#000000;stroke-width:0.5" />
<path d="M1691.7,55.371L1691.7,63.371" style="fill:none;stroke:#000000;stroke-width:0.5" />
<path d="M1890,55.371L1890,63.371" style="fill:none;stroke:#000000;stroke-width:0.5" />
<path d="M105.46,63.371L1890,63.371" style="fill:none;stroke:#000000;stroke-width:0.5" />
<g transform="rotate(90)">
<text x="538.49" y="23.467" transform="scale(1, -1)"
	style="font-family:Liberation Serif;font-variant:normal;font-weight:normal;font-style:normal;font-size:30px">μs</text>
</g>
<text x="39.712" y="-215.05" transform="scale(1, -1)"
	style="font-family:Liberation Serif;font-variant:normal;font-weight:normal;font-style:normal;font-size:20px">1000</text>
<text x="39.712" y="-604.74" transform="scale(1, -1)"
	style="font-family:Liberation Serif;font-variant:normal;font-weight:normal;font-style:normal;font-size:20px">3000</text>
<text x="39.712" y="-994.44" transform="scale(1, -1)"
	style="font-family:Liberation Serif;font-variant:normal;font-weight:normal;font-style:normal;font-size:20px">5000</text>
<path d="M84.712,219.62L92.712,219.62" style="fill:none;stroke:#000000;stroke-width:0.5" />
<path d="M84.712,609.31L92.712,609.31" style="fill:none;stroke:#000000;stroke-width:0.5" />
<path d="M84.712,999.01L92.712,999.01" style="fill:none;stroke:#000000;stroke-width:0.5" />
<path d="M88.712,414.47L92.712,414.47" style="fill:none;stroke:#000000;stroke-width:0.5" />
<path d="M88.712,804.16L92.712,804.16" style="fill:none;stroke:#000000;stroke-width:0.5" />
<path d="M92.712,80.11L92.712,1024.6" style="fill:none;stroke:#000000;stroke-width:0.5" />
<path d="M105.46,80.11L105.46,1024.6" style="fill:none;stroke:#808080;stroke-width:0.25" />
<path d="M303.74,80.11L303.74,1024.6" style="fill:none;stroke:#808080;stroke-width:0.25" />
<path d="M502.03,80.11L502.03,1024.6" style="fill:none;stroke:#808080;stroke-width:0.25" />
<path d="M700.31,80.11L700.31,1024.6" style="fill:none;stroke:#808080;stroke-width:0.25" />
<path d="M898.59,80.11L898.59,1024.6" style="fill:none;stroke:#808080;stroke-width:0.25" />
<path d="M1096.9,80.11L1096.9,1024.6" style="fill:none;stroke:#808080;stroke-width:0.25" />
<path d="M1295.2,80.11L1295.2,1024.6" style="fill:none;stroke:#808080;stroke-width:0.25" />
<path d="M1493.4,80.11L1493.4,1024.6" style="fill:none;stroke:#808080;stroke-width:0.25" />
<path d="M1691.7,80.11L1691.7,1024.6" style="fill:none;stroke:#808080;stroke-width:0.25" />
<path d="M1890,80.11L1890,1024.6" style="fill:none;stroke:#808080;stroke-width:0.25" />
<path d="M105.46,219.62L1890,219.62" style="fill:none;stroke:#808080;stroke-width:0.25" />
<path d="M105.46,609.31L1890,609.31" style="fill:none;stroke:#808080;stroke-width:0.25" />
<path d="M105.46,999.01L1890,999.01" style="fill:none;stroke:#808080;stroke-width:0.25" />
<path d="M105.46,117.72L303.74,191.37L502.03,289.18L700.31,359.13L898.59,519.49L1096.9,647.89L1295.2,748.43L1493.4,778.05L1691.7,837.28L1890,933.73" style="fill:none;stroke:#FF0000;stroke-width:4" />
<path d="M110.46,117.72A5,5 0 1 1 100.46,117.72A5,5 0 1 1 110.46,117.72Z" style="fill:#FF0000" />
<path d="M308.74,191.37A5,5 0 1 1 298.74,191.37A5,5 0 1 1 308.74,191.37Z" style="fill:#FF0000" />
<path d="M507.03,289.18A5,5 0 1 1 497.03,289.18A5,5 0 1 1 507.03,289.18Z" style="fill:#FF0000" />
<path d="M705.31,359.13A5,5 0 1 1 695.31,359.13A5,5 0 1 1 705.31,359.13Z" style="fill:#FF0000" />
<path d="M903.59,519.49A5,5 0 1 1 893.59,519.49A5,5 0 1 1 903.59,519.49Z" style="fill:#FF0000" />
<path d="M1101.9,647.89A5,5 0 1 1 1091.9,647.89A5,5 0 1 1 1101.9,647.89Z" style="fill:#FF0000" />
<path d="M1300.2,748.43A5,5 0 1 1 1290.2,748.43A5,5 0 1 1 1300.2,748.43Z" style="fill:#FF0000" />
<path d="M1498.4,778.05A5,5 0 1 1 1488.4,778.05A5,5 0 1 1 1498.4,778.05Z" style="fill:#FF0000" />
<path d="M1696.7,837.28A5,5 0 1 1 1686.7,837.28A5,5 0 1 1 1696.7,837.28Z" style="fill:#FF0000" />
<path d="M1895,933.73A5,5 0 1 1 1885,933.73A5,5 0 1 1 1895,933.73Z" style="fill:#FF0000" />
<path d="M105.46,101.15L303.74,155.91L502.03,198.97L700.31,236.77L898.59,292.49L1096.9,360.88L1295.2,483.05L1493.4,528.06L1691.7,501.56L1890,642.83" style="fill:none;stroke:#0000FF;stroke-width:4" />
<path d="M110.46,101.15A5,5 0 1 1 100.46,101.15A5,5 0 1 1 110.46,101.15Z" style="fill:#0000FF" />
<path d="M308.74,155.91A5,5 0 1 1 298.74,155.91A5,5 0 1 1 308.74,155.91Z" style="fill:#0000FF" />
<path d="M507.03,198.97A5,5 0 1 1 497.03,198.97A5,5 0 1 1 507.03,198.97Z" style="fill:#0000FF" />
<path d="M705.31,236.77A5,5 0 1 1 695.31,236.77A5,5 0 1 1 705.31,236.77Z" style="fill:#0000FF" />
<path d="M903.59,292.49A5,5 0 1 1 893.59,292.49A5,5 0 1 1 903.59,292.49Z" style="fill:#0000FF" />
<path d="M1101.9,360.88A5,5 0 1 1 1091.9,360.88A5,5 0 1 1 1101.9,360.88Z" style="fill:#0000FF" />
<path d="M1300.2,483.05A5,5 0 1 1 1290.2,483.05A5,5 0 1 1 1300.2,483.05Z" style="fill:#0000FF" />
<path d="M1498.4,528.06A5,5 0 1 1 1488.4,528.06A5,5 0 1 1 1498.4,528.06Z" style="fill:#0000FF" />
<path d="M1696.7,501.56A5,5 0 1 1 1686.7,501.56A5,5 0 1 1 1696.7,501.56Z" style="fill:#0000FF" />
<path d="M1895,642.83A5,5 0 1 1 1885,642.83A5,5 0 1 1 1895,642.83Z" style="fill:#0000FF" />
<path d="M105.46,80.11L303.74,149.28L502.03,197.41L700.31,234.62L898.59,296.97L1096.9,332.24L1295.2,422.07L1493.4,450.12L1691.7,483.25L1890,601.52" style="fill:none;stroke:#00FF00;stroke-width:4" />
<path d="M110.46,80.11A5,5 0 1 1 100.46,80.11A5,5 0 1 1 110.46,80.11Z" style="fill:#00FF00" />
<path d="M308.74,149.28A5,5 0 1 1 298.74,149.28A5,5 0 1 1 308.74,149.28Z" style="fill:#00FF00" />
<path d="M507.03,197.41A5,5 0 1 1 497.03,197.41A5,5 0 1 1 507.03,197.41Z" style="fill:#00FF00" />
<path d="M705.31,234.62A5,5 0 1 1 695.31,234.62A5,5 0 1 1 705.31,234.62Z" style="fill:#00FF00" />
<path d="M903.59,296.97A5,5 0 1 1 893.59,296.97A5,5 0 1 1 903.59,296.97Z" style="fill:#00FF00" />
<path d="M1101.9,332.24A5,5 0 1 1 1091.9,332.24A5,5 0 1 1 1101.9,332.24Z" style="fill:#00FF00" />
<path d="M1300.2,422.07A5,5 0 1 1 1290.2,422.07A5,5 0 1 1 1300.2,422.07Z" style="fill:#00FF00" />
<path d="M1498.4,450.12A5,5 0 1 1 1488.4,450.12A5,5 0 1 1 1498.4,450.12Z" style="fill:#00FF00" />
<path d="M1696.7,483.25A5,5 0 1 1 1686.7,483.25A5,5 0 1 1 1696.7,483.25Z" style="fill:#00FF00" />
<path d="M1895,601.52A5,5 0 1 1 1885,601.52A5,5 0 1 1 1895,601.52Z" style="fill:#00FF00" />
<path d="M1900,126.03L1920,126.03" style="fill:none;stroke:#FF0000;stroke-width:4" />
<path d="M1915,126.03A5,5 0 1 1 1905,126.03A5,5 0 1 1 1915,126.03Z" style="fill:#FF0000" />
<text x="1823.3" y="-121.05" transform="scale(1, -1)"
	style="font-family:Liberation Serif;font-variant:normal;font-weight:normal;font-style:normal;font-size:24px">std::list</text>
<path d="M1900,105.66L1920,105.66" style="fill:none;stroke:#0000FF;stroke-width:4" />
<path d="M1915,105.66A5,5 0 1 1 1905,105.66A5,5 0 1 1 1915,105.66Z" style="fill:#0000FF" />
<text x="1795.4" y="-100.69" transform="scale(1, -1)"
	style="font-family:Liberation Serif;font-variant:normal;font-weight:normal;font-style:normal;font-size:24px">std::deque</text>
<path d="M1900,85.294L1920,85.294" style="fill:none;stroke:#00FF00;stroke-width:4" />
<path d="M1915,85.294A5,5 0 1 1 1905,85.294A5,5 0 1 1 1915,85.294Z" style="fill:#00FF00" />
<text x="1792.7" y="-80.319" transform="scale(1, -1)"
	style="font-family:Liberation Serif;font-variant:normal;font-weight:normal;font-style:normal;font-size:24px">std::vector</text>
</g>
</svg>
