<?xml version="1.0"?>
<!-- Generated by SVGo and Plotinum VG -->
<svg width="1920pt" height="1080pt" viewBox="0 0 1920 1080"
	xmlns="http://www.w3.org/2000/svg"
	xmlns:xlink="http://www.w3.org/1999/xlink">
<g transform="scale(1, -1) translate(0, -1080)">
<path d="M0,0L1920,0L1920,1080L0,1080Z" style="fill:#FFFFFF" />
<text x="678.86" y="-1040.9" transform="scale(1, -1)"
	style="font-family:Liberation Serif;font-variant:normal;font-weight:normal;font-style:normal;font-size:50px">random-remove - Log Scale</text>
<text x="880.27" y="-9.7559" transform="scale(1, -1)"
	style="font-family:Liberation Serif;font-variant:normal;font-weight:normal;font-style:normal;font-size:30px">Number of elements</text>
<text x="90.462" y="-39.727" transform="scale(1, -1)"
	style="font-family:Liberation Serif;font-variant:normal;font-weight:normal;font-style:normal;font-size:20px">10000</text>
<text x="287.63" y="-39.727" transform="scale(1, -1)"
	style="font-family:Liberation Serif;font-variant:normal;font-weight:normal;font-style:normal;font-size:20px">20000</text>
<text x="484.8" y="-39.727" transform="scale(1, -1)"
	style="font-family:Liberation Serif;font-variant:normal;font-weight:normal;font-style:normal;font-size:20px">30000</text>
<text x="681.97" y="-39.727" transform="scale(1, -1)"
	style="font-family:Liberation Serif;font-variant:normal;font-weight:normal;font-style:normal;font-size:20px">40000</text>
<text x="879.15" y="-39.727" transform="scale(1, -1)"
	style="font-family:Liberation Serif;font-variant:normal;font-weight:normal;font-style:normal;font-size:20px">50000</text>
<text x="1076.3" y="-39.727" transform="scale(1, -1)"
	style="font-family:Liberation Serif;font-variant:normal;font-weight:normal;font-style:normal;font-size:20px">60000</text>
<text x="1273.5" y="-39.727" transform="scale(1, -1)"
	style="font-family:Liberation Serif;font-variant:normal;font-weight:normal;font-style:normal;font-size:20px">70000</text>
<text x="1470.7" y="-39.727" transform="scale(1, -1)"
	style="font-family:Liberation Serif;font-variant:normal;font-weight:normal;font-style:normal;font-size:20px">80000</text>
<text x="1667.8" y="-39.727" transform="scale(1, -1)"
	style="font-family:Liberation Serif;font-variant:normal;font-weight:normal;font-style:normal;font-size:20px">90000</text>
<text x="1860" y="-39.727" transform="scale(1, -1)"
	style="font-family:Liberation Serif;font-variant:normal;font-weight:normal;font-style:normal;font-size:20px">100000</text>
<path d="M115.46,55.371L115.46,63.371" style="fill:none;stroke:#000000;stroke-width:0.5" />
<path d="M312.63,55.371L312.63,63.371" style="fill:none;stroke:#000000;stroke-width:0.5" />
<path d="M509.8,55.371L509.8,63.371" style="fill:none;stroke:#000000;stroke-width:0.5" />
<path d="M706.97,55.371L706.97,63.371" style="fill:none;stroke:#000000;stroke-width:0.5" />
<path d="M904.15,55.371L904.15,63.371" style="fill:none;stroke:#000000;stroke-width:0.5" />
<path d="M1101.3,55.371L1101.3,63.371" style="fill:none;stroke:#000000;stroke-width:0.5" />
<path d="M1298.5,55.371L1298.5,63.371" style="fill:none;stroke:#000000;stroke-width:0.5" />
<path d="M1495.7,55.371L1495.7,63.371" style="fill:none;stroke:#000000;stroke-width:0.5" />
<path d="M1692.8,55.371L1692.8,63.371" style="fill:none;stroke:#000000;stroke-width:0.5" />
<path d="M1890,55.371L1890,63.371" style="fill:none;stroke:#000000;stroke-width:0.5" />
<path d="M115.46,63.371L1890,63.371" style="fill:none;stroke:#000000;stroke-width:0.5" />
<g transform="rotate(90)">
<text x="485.87" y="23.467" transform="scale(1, -1)"
	style="font-family:Liberation Serif;font-variant:normal;font-weight:normal;font-style:normal;font-size:30px">log(μs + 1)</text>
</g>
<text x="49.712" y="-368.83" transform="scale(1, -1)"
	style="font-family:Liberation Serif;font-variant:normal;font-weight:normal;font-style:normal;font-size:20px">4000</text>
<text x="39.712" y="-791.11" transform="scale(1, -1)"
	style="font-family:Liberation Serif;font-variant:normal;font-weight:normal;font-style:normal;font-size:20px">12000</text>
<text x="39.712" y="-987.46" transform="scale(1, -1)"
	style="font-family:Liberation Serif;font-variant:normal;font-weight:normal;font-style:normal;font-size:20px">20000</text>
<path d="M94.712,373.4L102.71,373.4" style="fill:none;stroke:#000000;stroke-width:0.5" />
<path d="M94.712,795.68L102.71,795.68" style="fill:none;stroke:#000000;stroke-width:0.5" />
<path d="M94.712,992.03L102.71,992.03" style="fill:none;stroke:#000000;stroke-width:0.5" />
<path d="M98.712,639.83L102.71,639.83" style="fill:none;stroke:#000000;stroke-width:0.5" />
<path d="M98.712,906.26L102.71,906.26" style="fill:none;stroke:#000000;stroke-width:0.5" />
<path d="M102.71,80.11L102.71,1024.6" style="fill:none;stroke:#000000;stroke-width:0.5" />
<path d="M115.46,80.11L115.46,1024.6" style="fill:none;stroke:#808080;stroke-width:0.25" />
<path d="M312.63,80.11L312.63,1024.6" style="fill:none;stroke:#808080;stroke-width:0.25" />
<path d="M509.8,80.11L509.8,1024.6" style="fill:none;stroke:#808080;stroke-width:0.25" />
<path d="M706.97,80.11L706.97,1024.6" style="fill:none;stroke:#808080;stroke-width:0.25" />
<path d="M904.15,80.11L904.15,1024.6" style="fill:none;stroke:#808080;stroke-width:0.25" />
<path d="M1101.3,80.11L1101.3,1024.6" style="fill:none;stroke:#808080;stroke-width:0.25" />
<path d="M1298.5,80.11L1298.5,1024.6" style="fill:none;stroke:#808080;stroke-width:0.25" />
<path d="M1495.7,80.11L1495.7,1024.6" style="fill:none;stroke:#808080;stroke-width:0.25" />
<path d="M1692.8,80.11L1692.8,1024.6" style="fill:none;stroke:#808080;stroke-width:0.25" />
<path d="M1890,80.11L1890,1024.6" style="fill:none;stroke:#808080;stroke-width:0.25" />
<path d="M115.46,373.4L1890,373.4" style="fill:none;stroke:#808080;stroke-width:0.25" />
<path d="M115.46,795.68L1890,795.68" style="fill:none;stroke:#808080;stroke-width:0.25" />
<path d="M115.46,992.03L1890,992.03" style="fill:none;stroke:#808080;stroke-width:0.25" />
<path d="M115.46,206.78L312.63,375.13L509.8,585.09L706.97,686.3L904.15,746.8L1101.3,840.81L1298.5,905.54L1495.7,951.21L1692.8,980.46L1890,988.01" style="fill:none;stroke:#FF0000;stroke-width:4" />
<path d="M120.46,206.78A5,5 0 1 1 110.46,206.78A5,5 0 1 1 120.46,206.78Z" style="fill:#FF0000" />
<path d="M317.63,375.13A5,5 0 1 1 307.63,375.13A5,5 0 1 1 317.63,375.13Z" style="fill:#FF0000" />
<path d="M514.8,585.09A5,5 0 1 1 504.8,585.09A5,5 0 1 1 514.8,585.09Z" style="fill:#FF0000" />
<path d="M711.97,686.3A5,5 0 1 1 701.97,686.3A5,5 0 1 1 711.97,686.3Z" style="fill:#FF0000" />
<path d="M909.15,746.8A5,5 0 1 1 899.15,746.8A5,5 0 1 1 909.15,746.8Z" style="fill:#FF0000" />
<path d="M1106.3,840.81A5,5 0 1 1 1096.3,840.81A5,5 0 1 1 1106.3,840.81Z" style="fill:#FF0000" />
<path d="M1303.5,905.54A5,5 0 1 1 1293.5,905.54A5,5 0 1 1 1303.5,905.54Z" style="fill:#FF0000" />
<path d="M1500.7,951.21A5,5 0 1 1 1490.7,951.21A5,5 0 1 1 1500.7,951.21Z" style="fill:#FF0000" />
<path d="M1697.8,980.46A5,5 0 1 1 1687.8,980.46A5,5 0 1 1 1697.8,980.46Z" style="fill:#FF0000" />
<path d="M1895,988.01A5,5 0 1 1 1885,988.01A5,5 0 1 1 1895,988.01Z" style="fill:#FF0000" />
<path d="M115.46,184.66L312.63,350.95L509.8,435.31L706.97,553.28L904.15,691.84L1101.3,863.11L1298.5,809.49L1495.7,866.62L1692.8,899.82L1890,985.46" style="fill:none;stroke:#0000FF;stroke-width:4" />
<path d="M120.46,184.66A5,5 0 1 1 110.46,184.66A5,5 0 1 1 120.46,184.66Z" style="fill:#0000FF" />
<path d="M317.63,350.95A5,5 0 1 1 307.63,350.95A5,5 0 1 1 317.63,350.95Z" style="fill:#0000FF" />
<path d="M514.8,435.31A5,5 0 1 1 504.8,435.31A5,5 0 1 1 514.8,435.31Z" style="fill:#0000FF" />
<path d="M711.97,553.28A5,5 0 1 1 701.97,553.28A5,5 0 1 1 711.97,553.28Z" style="fill:#0000FF" />
<path d="M909.15,691.84A5,5 0 1 1 899.15,691.84A5,5 0 1 1 909.15,691.84Z" style="fill:#0000FF" />
<path d="M1106.3,863.11A5,5 0 1 1 1096.3,863.11A5,5 0 1 1 1106.3,863.11Z" style="fill:#0000FF" />
<path d="M1303.5,809.49A5,5 0 1 1 1293.5,809.49A5,5 0 1 1 1303.5,809.49Z" style="fill:#0000FF" />
<path d="M1500.7,866.62A5,5 0 1 1 1490.7,866.62A5,5 0 1 1 1500.7,866.62Z" style="fill:#0000FF" />
<path d="M1697.8,899.82A5,5 0 1 1 1687.8,899.82A5,5 0 1 1 1697.8,899.82Z" style="fill:#0000FF" />
<path d="M1895,985.46A5,5 0 1 1 1885,985.46A5,5 0 1 1 1895,985.46Z" style="fill:#0000FF" />
<path d="M115.46,80.11L312.63,268.04L509.8,487.33L706.97,581.91L904.15,709.19L1101.3,780.82L1298.5,765.2L1495.7,827.72L1692.8,875.23L1890,919.25" style="fill:none;stroke:#00FF00;stroke-width:4" />
<path d="M120.46,80.11A5,5 0 1 1 110.46,80.11A5,5 0 1 1 120.46,80.11Z" style="fill:#00FF00" />
<path d="M317.63,268.04A5,5 0 1 1 307.63,268.04A5,5 0 1 1 317.63,268.04Z" style="fill:#00FF00" />
<path d="M514.8,487.33A5,5 0 1 1 504.8,487.33A5,5 0 1 1 514.8,487.33Z" style="fill:#00FF00" />
<path d="M711.97,581.91A5,5 0 1 1 701.97,581.91A5,5 0 1 1 711.97,581.91Z" style="fill:#00FF00" />
<path d="M909.15,709.19A5,5 0 1 1 899.15,709.19A5,5 0 1 1 909.15,709.19Z" style="fill:#00FF00" />
<path d="M1106.3,780.82A5,5 0 1 1 1096.3,780.82A5,5 0 1 1 1106.3,780.82Z" style="fill:#00FF00" />
<path d="M1303.5,765.2A5,5 0 1 1 1293.5,765.2A5,5 0 1 1 1303.5,765.2Z" style="fill:#00FF00" />
<path d="M1500.7,827.72A5,5 0 1 1 1490.7,827.72A5,5 0 1 1 1500.7,827.72Z" style="fill:#00FF00" />
<path d="M1697.8,875.23A5,5 0 1 1 1687.8,875.23A5,5 0 1 1 1697.8,875.23Z" style="fill:#00FF00" />
<path d="M1895,919.25A5,5 0 1 1 1885,919.25A5,5 0 1 1 1895,919.25Z" style="fill:#00FF00" />
<path d="M1900,126.03L1920,126.03" style="fill:none;stroke:#FF0000;stroke-width:4" />
<path d="M1915,126.03A5,5 0 1 1 1905,126.03A5,5 0 1 1 1915,126.03Z" style="fill:#FF0000" />
<text x="1823.3" y="-121.05" transform="scale(1, -1)"
	style="font-family:Liberation Serif;font-variant:normal;font-weight:normal;font-style:normal;font-size:24px">std::list</text>
<path d="M1900,105.66L1920,105.66" style="fill:none;stroke:#0000FF;stroke-width:4" />
<path d="M1915,105.66A5,5 0 1 1 1905,105.66A5,5 0 1 1 1915,105.66Z" style="fill:#0000FF" />
<text x="1795.4" y="-100.69" transform="scale(1, -1)"
	style="font-family:Liberation Serif;font-variant:normal;font-weight:normal;font-style:normal;font-size:24px">std::deque</text>
<path d="M1900,85.294L1920,85.294" style="fill:none;stroke:#00FF00;stroke-width:4" />
<path d="M1915,85.294A5,5 0 1 1 1905,85.294A5,5 0 1 1 1915,85.294Z" style="fill:#00FF00" />
<text x="1792.7" y="-80.319" transform="scale(1, -1)"
	style="font-family:Liberation Serif;font-variant:normal;font-weight:normal;font-style:normal;font-size:24px">std::vector</text>
</g>
</svg>
