<?xml version="1.0"?>
<!-- Generated by SVGo and Plotinum VG -->
<svg width="1920pt" height="1080pt" viewBox="0 0 1920 1080"
	xmlns="http://www.w3.org/2000/svg"
	xmlns:xlink="http://www.w3.org/1999/xlink">
<g transform="scale(1, -1) translate(0, -1080)">
<path d="M0,0L1920,0L1920,1080L0,1080Z" style="fill:#FFFFFF" />
<text x="678.86" y="-1040.9" transform="scale(1, -1)"
	style="font-family:Liberation Serif;font-variant:normal;font-weight:normal;font-style:normal;font-size:50px">random-remove - Log Scale</text>
<text x="892.77" y="-9.7559" transform="scale(1, -1)"
	style="font-family:Liberation Serif;font-variant:normal;font-weight:normal;font-style:normal;font-size:30px">Number of elements</text>
<text x="115.46" y="-39.727" transform="scale(1, -1)"
	style="font-family:Liberation Serif;font-variant:normal;font-weight:normal;font-style:normal;font-size:20px">10000</text>
<text x="309.86" y="-39.727" transform="scale(1, -1)"
	style="font-family:Liberation Serif;font-variant:normal;font-weight:normal;font-style:normal;font-size:20px">20000</text>
<text x="504.25" y="-39.727" transform="scale(1, -1)"
	style="font-family:Liberation Serif;font-variant:normal;font-weight:normal;font-style:normal;font-size:20px">30000</text>
<text x="698.64" y="-39.727" transform="scale(1, -1)"
	style="font-family:Liberation Serif;font-variant:normal;font-weight:normal;font-style:normal;font-size:20px">40000</text>
<text x="893.03" y="-39.727" transform="scale(1, -1)"
	style="font-family:Liberation Serif;font-variant:normal;font-weight:normal;font-style:normal;font-size:20px">50000</text>
<text x="1087.4" y="-39.727" transform="scale(1, -1)"
	style="font-family:Liberation Serif;font-variant:normal;font-weight:normal;font-style:normal;font-size:20px">60000</text>
<text x="1281.8" y="-39.727" transform="scale(1, -1)"
	style="font-family:Liberation Serif;font-variant:normal;font-weight:normal;font-style:normal;font-size:20px">70000</text>
<text x="1476.2" y="-39.727" transform="scale(1, -1)"
	style="font-family:Liberation Serif;font-variant:normal;font-weight:normal;font-style:normal;font-size:20px">80000</text>
<text x="1670.6" y="-39.727" transform="scale(1, -1)"
	style="font-family:Liberation Serif;font-variant:normal;font-weight:normal;font-style:normal;font-size:20px">90000</text>
<text x="1860" y="-39.727" transform="scale(1, -1)"
	style="font-family:Liberation Serif;font-variant:normal;font-weight:normal;font-style:normal;font-size:20px">100000</text>
<path d="M140.46,55.371L140.46,63.371" style="fill:none;stroke:#000000;stroke-width:0.5" />
<path d="M334.86,55.371L334.86,63.371" style="fill:none;stroke:#000000;stroke-width:0.5" />
<path d="M529.25,55.371L529.25,63.371" style="fill:none;stroke:#000000;stroke-width:0.5" />
<path d="M723.64,55.371L723.64,63.371" style="fill:none;stroke:#000000;stroke-width:0.5" />
<path d="M918.03,55.371L918.03,63.371" style="fill:none;stroke:#000000;stroke-width:0.5" />
<path d="M1112.4,55.371L1112.4,63.371" style="fill:none;stroke:#000000;stroke-width:0.5" />
<path d="M1306.8,55.371L1306.8,63.371" style="fill:none;stroke:#000000;stroke-width:0.5" />
<path d="M1501.2,55.371L1501.2,63.371" style="fill:none;stroke:#000000;stroke-width:0.5" />
<path d="M1695.6,55.371L1695.6,63.371" style="fill:none;stroke:#000000;stroke-width:0.5" />
<path d="M1890,55.371L1890,63.371" style="fill:none;stroke:#000000;stroke-width:0.5" />
<path d="M140.46,63.371L1890,63.371" style="fill:none;stroke:#000000;stroke-width:0.5" />
<g transform="rotate(90)">
<text x="485.87" y="23.467" transform="scale(1, -1)"
	style="font-family:Liberation Serif;font-variant:normal;font-weight:normal;font-style:normal;font-size:30px">log(μs + 1)</text>
</g>
<text x="49.712" y="-147.41" transform="scale(1, -1)"
	style="font-family:Liberation Serif;font-variant:normal;font-weight:normal;font-style:normal;font-size:20px">2500.00</text>
<text x="39.712" y="-758.74" transform="scale(1, -1)"
	style="font-family:Liberation Serif;font-variant:normal;font-weight:normal;font-style:normal;font-size:20px">12500.00</text>
<text x="39.712" y="-982" transform="scale(1, -1)"
	style="font-family:Liberation Serif;font-variant:normal;font-weight:normal;font-style:normal;font-size:20px">22500.00</text>
<path d="M119.71,151.99L127.71,151.99" style="fill:none;stroke:#000000;stroke-width:0.5" />
<path d="M119.71,763.31L127.71,763.31" style="fill:none;stroke:#000000;stroke-width:0.5" />
<path d="M119.71,986.57L127.71,986.57" style="fill:none;stroke:#000000;stroke-width:0.5" />
<path d="M123.71,569.28L127.71,569.28" style="fill:none;stroke:#000000;stroke-width:0.5" />
<path d="M123.71,891.12L127.71,891.12" style="fill:none;stroke:#000000;stroke-width:0.5" />
<path d="M127.71,80.11L127.71,1024.6" style="fill:none;stroke:#000000;stroke-width:0.5" />
<path d="M140.46,80.11L140.46,1024.6" style="fill:none;stroke:#808080;stroke-width:0.25" />
<path d="M334.86,80.11L334.86,1024.6" style="fill:none;stroke:#808080;stroke-width:0.25" />
<path d="M529.25,80.11L529.25,1024.6" style="fill:none;stroke:#808080;stroke-width:0.25" />
<path d="M723.64,80.11L723.64,1024.6" style="fill:none;stroke:#808080;stroke-width:0.25" />
<path d="M918.03,80.11L918.03,1024.6" style="fill:none;stroke:#808080;stroke-width:0.25" />
<path d="M1112.4,80.11L1112.4,1024.6" style="fill:none;stroke:#808080;stroke-width:0.25" />
<path d="M1306.8,80.11L1306.8,1024.6" style="fill:none;stroke:#808080;stroke-width:0.25" />
<path d="M1501.2,80.11L1501.2,1024.6" style="fill:none;stroke:#808080;stroke-width:0.25" />
<path d="M1695.6,80.11L1695.6,1024.6" style="fill:none;stroke:#808080;stroke-width:0.25" />
<path d="M1890,80.11L1890,1024.6" style="fill:none;stroke:#808080;stroke-width:0.25" />
<path d="M140.46,151.99L1890,151.99" style="fill:none;stroke:#808080;stroke-width:0.25" />
<path d="M140.46,763.31L1890,763.31" style="fill:none;stroke:#808080;stroke-width:0.25" />
<path d="M140.46,986.57L1890,986.57" style="fill:none;stroke:#808080;stroke-width:0.25" />
<path d="M140.46,89.36L334.86,297.81L529.25,424.28L723.64,561.61L918.03,661.3L1112.4,731.11L1306.8,763.77L1501.2,863.04L1695.6,988.44L1890,954.63" style="fill:none;stroke:#FF0000;stroke-width:4" />
<path d="M145.46,89.36A5,5 0 1 1 135.46,89.36A5,5 0 1 1 145.46,89.36Z" style="fill:#FF0000" />
<path d="M339.86,297.81A5,5 0 1 1 329.86,297.81A5,5 0 1 1 339.86,297.81Z" style="fill:#FF0000" />
<path d="M534.25,424.28A5,5 0 1 1 524.25,424.28A5,5 0 1 1 534.25,424.28Z" style="fill:#FF0000" />
<path d="M728.64,561.61A5,5 0 1 1 718.64,561.61A5,5 0 1 1 728.64,561.61Z" style="fill:#FF0000" />
<path d="M923.03,661.3A5,5 0 1 1 913.03,661.3A5,5 0 1 1 923.03,661.3Z" style="fill:#FF0000" />
<path d="M1117.4,731.11A5,5 0 1 1 1107.4,731.11A5,5 0 1 1 1117.4,731.11Z" style="fill:#FF0000" />
<path d="M1311.8,763.77A5,5 0 1 1 1301.8,763.77A5,5 0 1 1 1311.8,763.77Z" style="fill:#FF0000" />
<path d="M1506.2,863.04A5,5 0 1 1 1496.2,863.04A5,5 0 1 1 1506.2,863.04Z" style="fill:#FF0000" />
<path d="M1700.6,988.44A5,5 0 1 1 1690.6,988.44A5,5 0 1 1 1700.6,988.44Z" style="fill:#FF0000" />
<path d="M1895,954.63A5,5 0 1 1 1885,954.63A5,5 0 1 1 1895,954.63Z" style="fill:#FF0000" />
<path d="M140.46,80.11L334.86,366.11L529.25,590.93L723.64,700.29L918.03,770.8L1112.4,775.72L1306.8,872.64L1501.2,909.83L1695.6,899.78L1890,949.86" style="fill:none;stroke:#0000FF;stroke-width:4" />
<path d="M145.46,80.11A5,5 0 1 1 135.46,80.11A5,5 0 1 1 145.46,80.11Z" style="fill:#0000FF" />
<path d="M339.86,366.11A5,5 0 1 1 329.86,366.11A5,5 0 1 1 339.86,366.11Z" style="fill:#0000FF" />
<path d="M534.25,590.93A5,5 0 1 1 524.25,590.93A5,5 0 1 1 534.25,590.93Z" style="fill:#0000FF" />
<path d="M728.64,700.29A5,5 0 1 1 718.64,700.29A5,5 0 1 1 728.64,700.29Z" style="fill:#0000FF" />
<path d="M923.03,770.8A5,5 0 1 1 913.03,770.8A5,5 0 1 1 923.03,770.8Z" style="fill:#0000FF" />
<path d="M1117.4,775.72A5,5 0 1 1 1107.4,775.72A5,5 0 1 1 1117.4,775.72Z" style="fill:#0000FF" />
<path d="M1311.8,872.64A5,5 0 1 1 1301.8,872.64A5,5 0 1 1 1311.8,872.64Z" style="fill:#0000FF" />
<path d="M1506.2,909.83A5,5 0 1 1 1496.2,909.83A5,5 0 1 1 1506.2,909.83Z" style="fill:#0000FF" />
<path d="M1700.6,899.78A5,5 0 1 1 1690.6,899.78A5,5 0 1 1 1700.6,899.78Z" style="fill:#0000FF" />
<path d="M1895,949.86A5,5 0 1 1 1885,949.86A5,5 0 1 1 1895,949.86Z" style="fill:#0000FF" />
<path d="M140.46,83.583L334.86,272.45L529.25,454.91L723.64,570.44L918.03,766.49L1112.4,869.52L1306.8,873.66L1501.2,842.39L1695.6,900.53L1890,904.63" style="fill:none;stroke:#00FF00;stroke-width:4" />
<path d="M145.46,83.583A5,5 0 1 1 135.46,83.583A5,5 0 1 1 145.46,83.583Z" style="fill:#00FF00" />
<path d="M339.86,272.45A5,5 0 1 1 329.86,272.45A5,5 0 1 1 339.86,272.45Z" style="fill:#00FF00" />
<path d="M534.25,454.91A5,5 0 1 1 524.25,454.91A5,5 0 1 1 534.25,454.91Z" style="fill:#00FF00" />
<path d="M728.64,570.44A5,5 0 1 1 718.64,570.44A5,5 0 1 1 728.64,570.44Z" style="fill:#00FF00" />
<path d="M923.03,766.49A5,5 0 1 1 913.03,766.49A5,5 0 1 1 923.03,766.49Z" style="fill:#00FF00" />
<path d="M1117.4,869.52A5,5 0 1 1 1107.4,869.52A5,5 0 1 1 1117.4,869.52Z" style="fill:#00FF00" />
<path d="M1311.8,873.66A5,5 0 1 1 1301.8,873.66A5,5 0 1 1 1311.8,873.66Z" style="fill:#00FF00" />
<path d="M1506.2,842.39A5,5 0 1 1 1496.2,842.39A5,5 0 1 1 1506.2,842.39Z" style="fill:#00FF00" />
<path d="M1700.6,900.53A5,5 0 1 1 1690.6,900.53A5,5 0 1 1 1700.6,900.53Z" style="fill:#00FF00" />
<path d="M1895,904.63A5,5 0 1 1 1885,904.63A5,5 0 1 1 1895,904.63Z" style="fill:#00FF00" />
<path d="M1900,126.03L1920,126.03" style="fill:none;stroke:#FF0000;stroke-width:4" />
<path d="M1915,126.03A5,5 0 1 1 1905,126.03A5,5 0 1 1 1915,126.03Z" style="fill:#FF0000" />
<text x="1792.7" y="-121.05" transform="scale(1, -1)"
	style="font-family:Liberation Serif;font-variant:normal;font-weight:normal;font-style:normal;font-size:24px">std::vector</text>
<path d="M1900,105.66L1920,105.66" style="fill:none;stroke:#0000FF;stroke-width:4" />
<path d="M1915,105.66A5,5 0 1 1 1905,105.66A5,5 0 1 1 1915,105.66Z" style="fill:#0000FF" />
<text x="1823.3" y="-100.69" transform="scale(1, -1)"
	style="font-family:Liberation Serif;font-variant:normal;font-weight:normal;font-style:normal;font-size:24px">std::list</text>
<path d="M1900,85.294L1920,85.294" style="fill:none;stroke:#00FF00;stroke-width:4" />
<path d="M1915,85.294A5,5 0 1 1 1905,85.294A5,5 0 1 1 1915,85.294Z" style="fill:#00FF00" />
<text x="1795.4" y="-80.319" transform="scale(1, -1)"
	style="font-family:Liberation Serif;font-variant:normal;font-weight:normal;font-style:normal;font-size:24px">std::deque</text>
</g>
</svg>
