<?xml version="1.0"?>
<!-- Generated by SVGo and Plotinum VG -->
<svg width="1920pt" height="1080pt" viewBox="0 0 1920 1080"
	xmlns="http://www.w3.org/2000/svg"
	xmlns:xlink="http://www.w3.org/1999/xlink">
<g transform="scale(1, -1) translate(0, -1080)">
<path d="M0,0L1920,0L1920,1080L0,1080Z" style="fill:#FFFFFF" />
<text x="800.34" y="-1040.9" transform="scale(1, -1)"
	style="font-family:Liberation Serif;font-variant:normal;font-weight:normal;font-style:normal;font-size:50px">random-remove</text>
<text x="875.27" y="-9.7559" transform="scale(1, -1)"
	style="font-family:Liberation Serif;font-variant:normal;font-weight:normal;font-style:normal;font-size:30px">Number of elements</text>
<text x="80.462" y="-39.727" transform="scale(1, -1)"
	style="font-family:Liberation Serif;font-variant:normal;font-weight:normal;font-style:normal;font-size:20px">10000</text>
<text x="278.74" y="-39.727" transform="scale(1, -1)"
	style="font-family:Liberation Serif;font-variant:normal;font-weight:normal;font-style:normal;font-size:20px">20000</text>
<text x="477.03" y="-39.727" transform="scale(1, -1)"
	style="font-family:Liberation Serif;font-variant:normal;font-weight:normal;font-style:normal;font-size:20px">30000</text>
<text x="675.31" y="-39.727" transform="scale(1, -1)"
	style="font-family:Liberation Serif;font-variant:normal;font-weight:normal;font-style:normal;font-size:20px">40000</text>
<text x="873.59" y="-39.727" transform="scale(1, -1)"
	style="font-family:Liberation Serif;font-variant:normal;font-weight:normal;font-style:normal;font-size:20px">50000</text>
<text x="1071.9" y="-39.727" transform="scale(1, -1)"
	style="font-family:Liberation Serif;font-variant:normal;font-weight:normal;font-style:normal;font-size:20px">60000</text>
<text x="1270.2" y="-39.727" transform="scale(1, -1)"
	style="font-family:Liberation Serif;font-variant:normal;font-weight:normal;font-style:normal;font-size:20px">70000</text>
<text x="1468.4" y="-39.727" transform="scale(1, -1)"
	style="font-family:Liberation Serif;font-variant:normal;font-weight:normal;font-style:normal;font-size:20px">80000</text>
<text x="1666.7" y="-39.727" transform="scale(1, -1)"
	style="font-family:Liberation Serif;font-variant:normal;font-weight:normal;font-style:normal;font-size:20px">90000</text>
<text x="1860" y="-39.727" transform="scale(1, -1)"
	style="font-family:Liberation Serif;font-variant:normal;font-weight:normal;font-style:normal;font-size:20px">100000</text>
<path d="M105.46,55.371L105.46,63.371" style="fill:none;stroke:#000000;stroke-width:0.5" />
<path d="M303.74,55.371L303.74,63.371" style="fill:none;stroke:#000000;stroke-width:0.5" />
<path d="M502.03,55.371L502.03,63.371" style="fill:none;stroke:#000000;stroke-width:0.5" />
<path d="M700.31,55.371L700.31,63.371" style="fill:none;stroke:#000000;stroke-width:0.5" />
<path d="M898.59,55.371L898.59,63.371" style="fill:none;stroke:#000000;stroke-width:0.5" />
<path d="M1096.9,55.371L1096.9,63.371" style="fill:none;stroke:#000000;stroke-width:0.5" />
<path d="M1295.2,55.371L1295.2,63.371" style="fill:none;stroke:#000000;stroke-width:0.5" />
<path d="M1493.4,55.371L1493.4,63.371" style="fill:none;stroke:#000000;stroke-width:0.5" />
<path d="M1691.7,55.371L1691.7,63.371" style="fill:none;stroke:#000000;stroke-width:0.5" />
<path d="M1890,55.371L1890,63.371" style="fill:none;stroke:#000000;stroke-width:0.5" />
<path d="M105.46,63.371L1890,63.371" style="fill:none;stroke:#000000;stroke-width:0.5" />
<g transform="rotate(90)">
<text x="538.49" y="23.467" transform="scale(1, -1)"
	style="font-family:Liberation Serif;font-variant:normal;font-weight:normal;font-style:normal;font-size:30px">μs</text>
</g>
<text x="49.712" y="-106.15" transform="scale(1, -1)"
	style="font-family:Liberation Serif;font-variant:normal;font-weight:normal;font-style:normal;font-size:20px">500</text>
<text x="39.712" y="-525.5" transform="scale(1, -1)"
	style="font-family:Liberation Serif;font-variant:normal;font-weight:normal;font-style:normal;font-size:20px">2500</text>
<text x="39.712" y="-944.85" transform="scale(1, -1)"
	style="font-family:Liberation Serif;font-variant:normal;font-weight:normal;font-style:normal;font-size:20px">4500</text>
<path d="M84.712,110.72L92.712,110.72" style="fill:none;stroke:#000000;stroke-width:0.5" />
<path d="M84.712,530.07L92.712,530.07" style="fill:none;stroke:#000000;stroke-width:0.5" />
<path d="M84.712,949.42L92.712,949.42" style="fill:none;stroke:#000000;stroke-width:0.5" />
<path d="M88.712,320.4L92.712,320.4" style="fill:none;stroke:#000000;stroke-width:0.5" />
<path d="M88.712,739.74L92.712,739.74" style="fill:none;stroke:#000000;stroke-width:0.5" />
<path d="M92.712,80.11L92.712,1024.6" style="fill:none;stroke:#000000;stroke-width:0.5" />
<path d="M105.46,80.11L105.46,1024.6" style="fill:none;stroke:#808080;stroke-width:0.25" />
<path d="M303.74,80.11L303.74,1024.6" style="fill:none;stroke:#808080;stroke-width:0.25" />
<path d="M502.03,80.11L502.03,1024.6" style="fill:none;stroke:#808080;stroke-width:0.25" />
<path d="M700.31,80.11L700.31,1024.6" style="fill:none;stroke:#808080;stroke-width:0.25" />
<path d="M898.59,80.11L898.59,1024.6" style="fill:none;stroke:#808080;stroke-width:0.25" />
<path d="M1096.9,80.11L1096.9,1024.6" style="fill:none;stroke:#808080;stroke-width:0.25" />
<path d="M1295.2,80.11L1295.2,1024.6" style="fill:none;stroke:#808080;stroke-width:0.25" />
<path d="M1493.4,80.11L1493.4,1024.6" style="fill:none;stroke:#808080;stroke-width:0.25" />
<path d="M1691.7,80.11L1691.7,1024.6" style="fill:none;stroke:#808080;stroke-width:0.25" />
<path d="M1890,80.11L1890,1024.6" style="fill:none;stroke:#808080;stroke-width:0.25" />
<path d="M105.46,110.72L1890,110.72" style="fill:none;stroke:#808080;stroke-width:0.25" />
<path d="M105.46,530.07L1890,530.07" style="fill:none;stroke:#808080;stroke-width:0.25" />
<path d="M105.46,949.42L1890,949.42" style="fill:none;stroke:#808080;stroke-width:0.25" />
<path d="M105.46,80.11L303.74,148.88L502.03,219.75L700.31,272.59L898.59,345.56L1096.9,419.57L1295.2,495.26L1493.4,519.17L1691.7,740.58L1890,851.71" style="fill:none;stroke:#FF0000;stroke-width:4" />
<path d="M110.46,80.11A5,5 0 1 1 100.46,80.11A5,5 0 1 1 110.46,80.11Z" style="fill:#FF0000" />
<path d="M308.74,148.88A5,5 0 1 1 298.74,148.88A5,5 0 1 1 308.74,148.88Z" style="fill:#FF0000" />
<path d="M507.03,219.75A5,5 0 1 1 497.03,219.75A5,5 0 1 1 507.03,219.75Z" style="fill:#FF0000" />
<path d="M705.31,272.59A5,5 0 1 1 695.31,272.59A5,5 0 1 1 705.31,272.59Z" style="fill:#FF0000" />
<path d="M903.59,345.56A5,5 0 1 1 893.59,345.56A5,5 0 1 1 903.59,345.56Z" style="fill:#FF0000" />
<path d="M1101.9,419.57A5,5 0 1 1 1091.9,419.57A5,5 0 1 1 1101.9,419.57Z" style="fill:#FF0000" />
<path d="M1300.2,495.26A5,5 0 1 1 1290.2,495.26A5,5 0 1 1 1300.2,495.26Z" style="fill:#FF0000" />
<path d="M1498.4,519.17A5,5 0 1 1 1488.4,519.17A5,5 0 1 1 1498.4,519.17Z" style="fill:#FF0000" />
<path d="M1696.7,740.58A5,5 0 1 1 1686.7,740.58A5,5 0 1 1 1696.7,740.58Z" style="fill:#FF0000" />
<path d="M1895,851.71A5,5 0 1 1 1885,851.71A5,5 0 1 1 1895,851.71Z" style="fill:#FF0000" />
<path d="M105.46,131.9L303.74,258.12L502.03,266.09L700.31,359.4L898.59,452.49L1096.9,565.93L1295.2,644.55L1493.4,772.66L1691.7,856.74L1890,932.02" style="fill:none;stroke:#0000FF;stroke-width:4" />
<path d="M110.46,131.9A5,5 0 1 1 100.46,131.9A5,5 0 1 1 110.46,131.9Z" style="fill:#0000FF" />
<path d="M308.74,258.12A5,5 0 1 1 298.74,258.12A5,5 0 1 1 308.74,258.12Z" style="fill:#0000FF" />
<path d="M507.03,266.09A5,5 0 1 1 497.03,266.09A5,5 0 1 1 507.03,266.09Z" style="fill:#0000FF" />
<path d="M705.31,359.4A5,5 0 1 1 695.31,359.4A5,5 0 1 1 705.31,359.4Z" style="fill:#0000FF" />
<path d="M903.59,452.49A5,5 0 1 1 893.59,452.49A5,5 0 1 1 903.59,452.49Z" style="fill:#0000FF" />
<path d="M1101.9,565.93A5,5 0 1 1 1091.9,565.93A5,5 0 1 1 1101.9,565.93Z" style="fill:#0000FF" />
<path d="M1300.2,644.55A5,5 0 1 1 1290.2,644.55A5,5 0 1 1 1300.2,644.55Z" style="fill:#0000FF" />
<path d="M1498.4,772.66A5,5 0 1 1 1488.4,772.66A5,5 0 1 1 1498.4,772.66Z" style="fill:#0000FF" />
<path d="M1696.7,856.74A5,5 0 1 1 1686.7,856.74A5,5 0 1 1 1696.7,856.74Z" style="fill:#0000FF" />
<path d="M1895,932.02A5,5 0 1 1 1885,932.02A5,5 0 1 1 1895,932.02Z" style="fill:#0000FF" />
<path d="M105.46,127.29L303.74,179.5L502.03,246.17L700.31,332.77L898.59,363.17L1096.9,472.83L1295.2,490.23L1493.4,654.62L1691.7,734.08L1890,787.34" style="fill:none;stroke:#00FF00;stroke-width:4" />
<path d="M110.46,127.29A5,5 0 1 1 100.46,127.29A5,5 0 1 1 110.46,127.29Z" style="fill:#00FF00" />
<path d="M308.74,179.5A5,5 0 1 1 298.74,179.5A5,5 0 1 1 308.74,179.5Z" style="fill:#00FF00" />
<path d="M507.03,246.17A5,5 0 1 1 497.03,246.17A5,5 0 1 1 507.03,246.17Z" style="fill:#00FF00" />
<path d="M705.31,332.77A5,5 0 1 1 695.31,332.77A5,5 0 1 1 705.31,332.77Z" style="fill:#00FF00" />
<path d="M903.59,363.17A5,5 0 1 1 893.59,363.17A5,5 0 1 1 903.59,363.17Z" style="fill:#00FF00" />
<path d="M1101.9,472.83A5,5 0 1 1 1091.9,472.83A5,5 0 1 1 1101.9,472.83Z" style="fill:#00FF00" />
<path d="M1300.2,490.23A5,5 0 1 1 1290.2,490.23A5,5 0 1 1 1300.2,490.23Z" style="fill:#00FF00" />
<path d="M1498.4,654.62A5,5 0 1 1 1488.4,654.62A5,5 0 1 1 1498.4,654.62Z" style="fill:#00FF00" />
<path d="M1696.7,734.08A5,5 0 1 1 1686.7,734.08A5,5 0 1 1 1696.7,734.08Z" style="fill:#00FF00" />
<path d="M1895,787.34A5,5 0 1 1 1885,787.34A5,5 0 1 1 1895,787.34Z" style="fill:#00FF00" />
<path d="M1900,126.03L1920,126.03" style="fill:none;stroke:#FF0000;stroke-width:4" />
<path d="M1915,126.03A5,5 0 1 1 1905,126.03A5,5 0 1 1 1915,126.03Z" style="fill:#FF0000" />
<text x="1792.7" y="-121.05" transform="scale(1, -1)"
	style="font-family:Liberation Serif;font-variant:normal;font-weight:normal;font-style:normal;font-size:24px">std::vector</text>
<path d="M1900,105.66L1920,105.66" style="fill:none;stroke:#0000FF;stroke-width:4" />
<path d="M1915,105.66A5,5 0 1 1 1905,105.66A5,5 0 1 1 1915,105.66Z" style="fill:#0000FF" />
<text x="1823.3" y="-100.69" transform="scale(1, -1)"
	style="font-family:Liberation Serif;font-variant:normal;font-weight:normal;font-style:normal;font-size:24px">std::list</text>
<path d="M1900,85.294L1920,85.294" style="fill:none;stroke:#00FF00;stroke-width:4" />
<path d="M1915,85.294A5,5 0 1 1 1905,85.294A5,5 0 1 1 1915,85.294Z" style="fill:#00FF00" />
<text x="1795.4" y="-80.319" transform="scale(1, -1)"
	style="font-family:Liberation Serif;font-variant:normal;font-weight:normal;font-style:normal;font-size:24px">std::deque</text>
</g>
</svg>
