<?xml version="1.0"?>
<!-- Generated by SVGo and Plotinum VG -->
<svg width="1920pt" height="1080pt" viewBox="0 0 1920 1080"
	xmlns="http://www.w3.org/2000/svg"
	xmlns:xlink="http://www.w3.org/1999/xlink">
<g transform="scale(1, -1) translate(0, -1080)">
<path d="M0,0L1920,0L1920,1080L0,1080Z" style="fill:#FFFFFF" />
<text x="800.34" y="-1040.9" transform="scale(1, -1)"
	style="font-family:Liberation Serif;font-variant:normal;font-weight:normal;font-style:normal;font-size:50px">random-remove</text>
<text x="880.27" y="-9.7559" transform="scale(1, -1)"
	style="font-family:Liberation Serif;font-variant:normal;font-weight:normal;font-style:normal;font-size:30px">Number of elements</text>
<text x="90.462" y="-39.727" transform="scale(1, -1)"
	style="font-family:Liberation Serif;font-variant:normal;font-weight:normal;font-style:normal;font-size:20px">10000</text>
<text x="287.63" y="-39.727" transform="scale(1, -1)"
	style="font-family:Liberation Serif;font-variant:normal;font-weight:normal;font-style:normal;font-size:20px">20000</text>
<text x="484.8" y="-39.727" transform="scale(1, -1)"
	style="font-family:Liberation Serif;font-variant:normal;font-weight:normal;font-style:normal;font-size:20px">30000</text>
<text x="681.97" y="-39.727" transform="scale(1, -1)"
	style="font-family:Liberation Serif;font-variant:normal;font-weight:normal;font-style:normal;font-size:20px">40000</text>
<text x="879.15" y="-39.727" transform="scale(1, -1)"
	style="font-family:Liberation Serif;font-variant:normal;font-weight:normal;font-style:normal;font-size:20px">50000</text>
<text x="1076.3" y="-39.727" transform="scale(1, -1)"
	style="font-family:Liberation Serif;font-variant:normal;font-weight:normal;font-style:normal;font-size:20px">60000</text>
<text x="1273.5" y="-39.727" transform="scale(1, -1)"
	style="font-family:Liberation Serif;font-variant:normal;font-weight:normal;font-style:normal;font-size:20px">70000</text>
<text x="1470.7" y="-39.727" transform="scale(1, -1)"
	style="font-family:Liberation Serif;font-variant:normal;font-weight:normal;font-style:normal;font-size:20px">80000</text>
<text x="1667.8" y="-39.727" transform="scale(1, -1)"
	style="font-family:Liberation Serif;font-variant:normal;font-weight:normal;font-style:normal;font-size:20px">90000</text>
<text x="1860" y="-39.727" transform="scale(1, -1)"
	style="font-family:Liberation Serif;font-variant:normal;font-weight:normal;font-style:normal;font-size:20px">100000</text>
<path d="M115.46,55.371L115.46,63.371" style="fill:none;stroke:#000000;stroke-width:0.5" />
<path d="M312.63,55.371L312.63,63.371" style="fill:none;stroke:#000000;stroke-width:0.5" />
<path d="M509.8,55.371L509.8,63.371" style="fill:none;stroke:#000000;stroke-width:0.5" />
<path d="M706.97,55.371L706.97,63.371" style="fill:none;stroke:#000000;stroke-width:0.5" />
<path d="M904.15,55.371L904.15,63.371" style="fill:none;stroke:#000000;stroke-width:0.5" />
<path d="M1101.3,55.371L1101.3,63.371" style="fill:none;stroke:#000000;stroke-width:0.5" />
<path d="M1298.5,55.371L1298.5,63.371" style="fill:none;stroke:#000000;stroke-width:0.5" />
<path d="M1495.7,55.371L1495.7,63.371" style="fill:none;stroke:#000000;stroke-width:0.5" />
<path d="M1692.8,55.371L1692.8,63.371" style="fill:none;stroke:#000000;stroke-width:0.5" />
<path d="M1890,55.371L1890,63.371" style="fill:none;stroke:#000000;stroke-width:0.5" />
<path d="M115.46,63.371L1890,63.371" style="fill:none;stroke:#000000;stroke-width:0.5" />
<g transform="rotate(90)">
<text x="538.49" y="23.467" transform="scale(1, -1)"
	style="font-family:Liberation Serif;font-variant:normal;font-weight:normal;font-style:normal;font-size:30px">μs</text>
</g>
<text x="49.712" y="-186.62" transform="scale(1, -1)"
	style="font-family:Liberation Serif;font-variant:normal;font-weight:normal;font-style:normal;font-size:20px">3000</text>
<text x="49.712" y="-574.12" transform="scale(1, -1)"
	style="font-family:Liberation Serif;font-variant:normal;font-weight:normal;font-style:normal;font-size:20px">9000</text>
<text x="39.712" y="-961.62" transform="scale(1, -1)"
	style="font-family:Liberation Serif;font-variant:normal;font-weight:normal;font-style:normal;font-size:20px">15000</text>
<path d="M94.712,191.19L102.71,191.19" style="fill:none;stroke:#000000;stroke-width:0.5" />
<path d="M94.712,578.69L102.71,578.69" style="fill:none;stroke:#000000;stroke-width:0.5" />
<path d="M94.712,966.19L102.71,966.19" style="fill:none;stroke:#000000;stroke-width:0.5" />
<path d="M98.712,384.94L102.71,384.94" style="fill:none;stroke:#000000;stroke-width:0.5" />
<path d="M98.712,772.44L102.71,772.44" style="fill:none;stroke:#000000;stroke-width:0.5" />
<path d="M102.71,80.11L102.71,1024.6" style="fill:none;stroke:#000000;stroke-width:0.5" />
<path d="M115.46,80.11L115.46,1024.6" style="fill:none;stroke:#808080;stroke-width:0.25" />
<path d="M312.63,80.11L312.63,1024.6" style="fill:none;stroke:#808080;stroke-width:0.25" />
<path d="M509.8,80.11L509.8,1024.6" style="fill:none;stroke:#808080;stroke-width:0.25" />
<path d="M706.97,80.11L706.97,1024.6" style="fill:none;stroke:#808080;stroke-width:0.25" />
<path d="M904.15,80.11L904.15,1024.6" style="fill:none;stroke:#808080;stroke-width:0.25" />
<path d="M1101.3,80.11L1101.3,1024.6" style="fill:none;stroke:#808080;stroke-width:0.25" />
<path d="M1298.5,80.11L1298.5,1024.6" style="fill:none;stroke:#808080;stroke-width:0.25" />
<path d="M1495.7,80.11L1495.7,1024.6" style="fill:none;stroke:#808080;stroke-width:0.25" />
<path d="M1692.8,80.11L1692.8,1024.6" style="fill:none;stroke:#808080;stroke-width:0.25" />
<path d="M1890,80.11L1890,1024.6" style="fill:none;stroke:#808080;stroke-width:0.25" />
<path d="M115.46,191.19L1890,191.19" style="fill:none;stroke:#808080;stroke-width:0.25" />
<path d="M115.46,578.69L1890,578.69" style="fill:none;stroke:#808080;stroke-width:0.25" />
<path d="M115.46,966.19L1890,966.19" style="fill:none;stroke:#808080;stroke-width:0.25" />
<path d="M115.46,96.708L312.63,160.84L509.8,276.18L706.97,365.76L904.15,402.96L1101.3,488.21L1298.5,605.62L1495.7,637.07L1692.8,711.67L1890,800.21" style="fill:none;stroke:#FF0000;stroke-width:4" />
<path d="M120.46,96.708A5,5 0 1 1 110.46,96.708A5,5 0 1 1 120.46,96.708Z" style="fill:#FF0000" />
<path d="M317.63,160.84A5,5 0 1 1 307.63,160.84A5,5 0 1 1 317.63,160.84Z" style="fill:#FF0000" />
<path d="M514.8,276.18A5,5 0 1 1 504.8,276.18A5,5 0 1 1 514.8,276.18Z" style="fill:#FF0000" />
<path d="M711.97,365.76A5,5 0 1 1 701.97,365.76A5,5 0 1 1 711.97,365.76Z" style="fill:#FF0000" />
<path d="M909.15,402.96A5,5 0 1 1 899.15,402.96A5,5 0 1 1 909.15,402.96Z" style="fill:#FF0000" />
<path d="M1106.3,488.21A5,5 0 1 1 1096.3,488.21A5,5 0 1 1 1106.3,488.21Z" style="fill:#FF0000" />
<path d="M1303.5,605.62A5,5 0 1 1 1293.5,605.62A5,5 0 1 1 1303.5,605.62Z" style="fill:#FF0000" />
<path d="M1500.7,637.07A5,5 0 1 1 1490.7,637.07A5,5 0 1 1 1500.7,637.07Z" style="fill:#FF0000" />
<path d="M1697.8,711.67A5,5 0 1 1 1687.8,711.67A5,5 0 1 1 1697.8,711.67Z" style="fill:#FF0000" />
<path d="M1895,800.21A5,5 0 1 1 1885,800.21A5,5 0 1 1 1895,800.21Z" style="fill:#FF0000" />
<path d="M115.46,80.11L312.63,155.87L509.8,252.35L706.97,335.92L904.15,407.93L1101.3,527.41L1298.5,596.39L1495.7,724L1692.8,829.4L1890,884.1" style="fill:none;stroke:#0000FF;stroke-width:4" />
<path d="M120.46,80.11A5,5 0 1 1 110.46,80.11A5,5 0 1 1 120.46,80.11Z" style="fill:#0000FF" />
<path d="M317.63,155.87A5,5 0 1 1 307.63,155.87A5,5 0 1 1 317.63,155.87Z" style="fill:#0000FF" />
<path d="M514.8,252.35A5,5 0 1 1 504.8,252.35A5,5 0 1 1 514.8,252.35Z" style="fill:#0000FF" />
<path d="M711.97,335.92A5,5 0 1 1 701.97,335.92A5,5 0 1 1 711.97,335.92Z" style="fill:#0000FF" />
<path d="M909.15,407.93A5,5 0 1 1 899.15,407.93A5,5 0 1 1 909.15,407.93Z" style="fill:#0000FF" />
<path d="M1106.3,527.41A5,5 0 1 1 1096.3,527.41A5,5 0 1 1 1106.3,527.41Z" style="fill:#0000FF" />
<path d="M1303.5,596.39A5,5 0 1 1 1293.5,596.39A5,5 0 1 1 1303.5,596.39Z" style="fill:#0000FF" />
<path d="M1500.7,724A5,5 0 1 1 1490.7,724A5,5 0 1 1 1500.7,724Z" style="fill:#0000FF" />
<path d="M1697.8,829.4A5,5 0 1 1 1687.8,829.4A5,5 0 1 1 1697.8,829.4Z" style="fill:#0000FF" />
<path d="M1895,884.1A5,5 0 1 1 1885,884.1A5,5 0 1 1 1895,884.1Z" style="fill:#0000FF" />
<path d="M115.46,88.764L312.63,197.52L509.8,277.22L706.97,384.62L904.15,448.75L1101.3,578.24L1298.5,651.8L1495.7,717.22L1692.8,792.4L1890,931.25" style="fill:none;stroke:#00FF00;stroke-width:4" />
<path d="M120.46,88.764A5,5 0 1 1 110.46,88.764A5,5 0 1 1 120.46,88.764Z" style="fill:#00FF00" />
<path d="M317.63,197.52A5,5 0 1 1 307.63,197.52A5,5 0 1 1 317.63,197.52Z" style="fill:#00FF00" />
<path d="M514.8,277.22A5,5 0 1 1 504.8,277.22A5,5 0 1 1 514.8,277.22Z" style="fill:#00FF00" />
<path d="M711.97,384.62A5,5 0 1 1 701.97,384.62A5,5 0 1 1 711.97,384.62Z" style="fill:#00FF00" />
<path d="M909.15,448.75A5,5 0 1 1 899.15,448.75A5,5 0 1 1 909.15,448.75Z" style="fill:#00FF00" />
<path d="M1106.3,578.24A5,5 0 1 1 1096.3,578.24A5,5 0 1 1 1106.3,578.24Z" style="fill:#00FF00" />
<path d="M1303.5,651.8A5,5 0 1 1 1293.5,651.8A5,5 0 1 1 1303.5,651.8Z" style="fill:#00FF00" />
<path d="M1500.7,717.22A5,5 0 1 1 1490.7,717.22A5,5 0 1 1 1500.7,717.22Z" style="fill:#00FF00" />
<path d="M1697.8,792.4A5,5 0 1 1 1687.8,792.4A5,5 0 1 1 1697.8,792.4Z" style="fill:#00FF00" />
<path d="M1895,931.25A5,5 0 1 1 1885,931.25A5,5 0 1 1 1895,931.25Z" style="fill:#00FF00" />
<path d="M1900,126.03L1920,126.03" style="fill:none;stroke:#FF0000;stroke-width:4" />
<path d="M1915,126.03A5,5 0 1 1 1905,126.03A5,5 0 1 1 1915,126.03Z" style="fill:#FF0000" />
<text x="1795.4" y="-121.05" transform="scale(1, -1)"
	style="font-family:Liberation Serif;font-variant:normal;font-weight:normal;font-style:normal;font-size:24px">std::deque</text>
<path d="M1900,105.66L1920,105.66" style="fill:none;stroke:#0000FF;stroke-width:4" />
<path d="M1915,105.66A5,5 0 1 1 1905,105.66A5,5 0 1 1 1915,105.66Z" style="fill:#0000FF" />
<text x="1792.7" y="-100.69" transform="scale(1, -1)"
	style="font-family:Liberation Serif;font-variant:normal;font-weight:normal;font-style:normal;font-size:24px">std::vector</text>
<path d="M1900,85.294L1920,85.294" style="fill:none;stroke:#00FF00;stroke-width:4" />
<path d="M1915,85.294A5,5 0 1 1 1905,85.294A5,5 0 1 1 1915,85.294Z" style="fill:#00FF00" />
<text x="1823.3" y="-80.319" transform="scale(1, -1)"
	style="font-family:Liberation Serif;font-variant:normal;font-weight:normal;font-style:normal;font-size:24px">std::list</text>
</g>
</svg>
