<?xml version="1.0"?>
<!-- Generated by SVGo and Plotinum VG -->
<svg width="1920pt" height="1080pt" viewBox="0 0 1920 1080"
	xmlns="http://www.w3.org/2000/svg"
	xmlns:xlink="http://www.w3.org/1999/xlink">
<g transform="scale(1, -1) translate(0, -1080)">
<path d="M0,0L1920,0L1920,1080L0,1080Z" style="fill:#FFFFFF" />
<text x="800.34" y="-1040.9" transform="scale(1, -1)"
	style="font-family:Liberation Serif;font-variant:normal;font-weight:normal;font-style:normal;font-size:50px">random-remove</text>
<text x="880.27" y="-9.7559" transform="scale(1, -1)"
	style="font-family:Liberation Serif;font-variant:normal;font-weight:normal;font-style:normal;font-size:30px">Number of elements</text>
<text x="90.462" y="-39.727" transform="scale(1, -1)"
	style="font-family:Liberation Serif;font-variant:normal;font-weight:normal;font-style:normal;font-size:20px">10000</text>
<text x="287.63" y="-39.727" transform="scale(1, -1)"
	style="font-family:Liberation Serif;font-variant:normal;font-weight:normal;font-style:normal;font-size:20px">20000</text>
<text x="484.8" y="-39.727" transform="scale(1, -1)"
	style="font-family:Liberation Serif;font-variant:normal;font-weight:normal;font-style:normal;font-size:20px">30000</text>
<text x="681.97" y="-39.727" transform="scale(1, -1)"
	style="font-family:Liberation Serif;font-variant:normal;font-weight:normal;font-style:normal;font-size:20px">40000</text>
<text x="879.15" y="-39.727" transform="scale(1, -1)"
	style="font-family:Liberation Serif;font-variant:normal;font-weight:normal;font-style:normal;font-size:20px">50000</text>
<text x="1076.3" y="-39.727" transform="scale(1, -1)"
	style="font-family:Liberation Serif;font-variant:normal;font-weight:normal;font-style:normal;font-size:20px">60000</text>
<text x="1273.5" y="-39.727" transform="scale(1, -1)"
	style="font-family:Liberation Serif;font-variant:normal;font-weight:normal;font-style:normal;font-size:20px">70000</text>
<text x="1470.7" y="-39.727" transform="scale(1, -1)"
	style="font-family:Liberation Serif;font-variant:normal;font-weight:normal;font-style:normal;font-size:20px">80000</text>
<text x="1667.8" y="-39.727" transform="scale(1, -1)"
	style="font-family:Liberation Serif;font-variant:normal;font-weight:normal;font-style:normal;font-size:20px">90000</text>
<text x="1860" y="-39.727" transform="scale(1, -1)"
	style="font-family:Liberation Serif;font-variant:normal;font-weight:normal;font-style:normal;font-size:20px">100000</text>
<path d="M115.46,55.371L115.46,63.371" style="fill:none;stroke:#000000;stroke-width:0.5" />
<path d="M312.63,55.371L312.63,63.371" style="fill:none;stroke:#000000;stroke-width:0.5" />
<path d="M509.8,55.371L509.8,63.371" style="fill:none;stroke:#000000;stroke-width:0.5" />
<path d="M706.97,55.371L706.97,63.371" style="fill:none;stroke:#000000;stroke-width:0.5" />
<path d="M904.15,55.371L904.15,63.371" style="fill:none;stroke:#000000;stroke-width:0.5" />
<path d="M1101.3,55.371L1101.3,63.371" style="fill:none;stroke:#000000;stroke-width:0.5" />
<path d="M1298.5,55.371L1298.5,63.371" style="fill:none;stroke:#000000;stroke-width:0.5" />
<path d="M1495.7,55.371L1495.7,63.371" style="fill:none;stroke:#000000;stroke-width:0.5" />
<path d="M1692.8,55.371L1692.8,63.371" style="fill:none;stroke:#000000;stroke-width:0.5" />
<path d="M1890,55.371L1890,63.371" style="fill:none;stroke:#000000;stroke-width:0.5" />
<path d="M115.46,63.371L1890,63.371" style="fill:none;stroke:#000000;stroke-width:0.5" />
<g transform="rotate(90)">
<text x="538.49" y="23.467" transform="scale(1, -1)"
	style="font-family:Liberation Serif;font-variant:normal;font-weight:normal;font-style:normal;font-size:30px">μs</text>
</g>
<text x="39.712" y="-169.82" transform="scale(1, -1)"
	style="font-family:Liberation Serif;font-variant:normal;font-weight:normal;font-style:normal;font-size:20px">10000</text>
<text x="39.712" y="-526.89" transform="scale(1, -1)"
	style="font-family:Liberation Serif;font-variant:normal;font-weight:normal;font-style:normal;font-size:20px">30000</text>
<text x="39.712" y="-883.95" transform="scale(1, -1)"
	style="font-family:Liberation Serif;font-variant:normal;font-weight:normal;font-style:normal;font-size:20px">50000</text>
<path d="M94.712,174.39L102.71,174.39" style="fill:none;stroke:#000000;stroke-width:0.5" />
<path d="M94.712,531.46L102.71,531.46" style="fill:none;stroke:#000000;stroke-width:0.5" />
<path d="M94.712,888.52L102.71,888.52" style="fill:none;stroke:#000000;stroke-width:0.5" />
<path d="M98.712,352.93L102.71,352.93" style="fill:none;stroke:#000000;stroke-width:0.5" />
<path d="M98.712,709.99L102.71,709.99" style="fill:none;stroke:#000000;stroke-width:0.5" />
<path d="M102.71,80.11L102.71,1024.6" style="fill:none;stroke:#000000;stroke-width:0.5" />
<path d="M115.46,80.11L115.46,1024.6" style="fill:none;stroke:#808080;stroke-width:0.25" />
<path d="M312.63,80.11L312.63,1024.6" style="fill:none;stroke:#808080;stroke-width:0.25" />
<path d="M509.8,80.11L509.8,1024.6" style="fill:none;stroke:#808080;stroke-width:0.25" />
<path d="M706.97,80.11L706.97,1024.6" style="fill:none;stroke:#808080;stroke-width:0.25" />
<path d="M904.15,80.11L904.15,1024.6" style="fill:none;stroke:#808080;stroke-width:0.25" />
<path d="M1101.3,80.11L1101.3,1024.6" style="fill:none;stroke:#808080;stroke-width:0.25" />
<path d="M1298.5,80.11L1298.5,1024.6" style="fill:none;stroke:#808080;stroke-width:0.25" />
<path d="M1495.7,80.11L1495.7,1024.6" style="fill:none;stroke:#808080;stroke-width:0.25" />
<path d="M1692.8,80.11L1692.8,1024.6" style="fill:none;stroke:#808080;stroke-width:0.25" />
<path d="M1890,80.11L1890,1024.6" style="fill:none;stroke:#808080;stroke-width:0.25" />
<path d="M115.46,174.39L1890,174.39" style="fill:none;stroke:#808080;stroke-width:0.25" />
<path d="M115.46,531.46L1890,531.46" style="fill:none;stroke:#808080;stroke-width:0.25" />
<path d="M115.46,888.52L1890,888.52" style="fill:none;stroke:#808080;stroke-width:0.25" />
<path d="M115.46,99.927L312.63,151.11L509.8,227.58L706.97,345L904.15,381.71L1101.3,481.06L1298.5,823.22L1495.7,677.2L1692.8,755.2L1890,816.42" style="fill:none;stroke:#FF0000;stroke-width:4" />
<path d="M120.46,99.927A5,5 0 1 1 110.46,99.927A5,5 0 1 1 120.46,99.927Z" style="fill:#FF0000" />
<path d="M317.63,151.11A5,5 0 1 1 307.63,151.11A5,5 0 1 1 317.63,151.11Z" style="fill:#FF0000" />
<path d="M514.8,227.58A5,5 0 1 1 504.8,227.58A5,5 0 1 1 514.8,227.58Z" style="fill:#FF0000" />
<path d="M711.97,345A5,5 0 1 1 701.97,345A5,5 0 1 1 711.97,345Z" style="fill:#FF0000" />
<path d="M909.15,381.71A5,5 0 1 1 899.15,381.71A5,5 0 1 1 909.15,381.71Z" style="fill:#FF0000" />
<path d="M1106.3,481.06A5,5 0 1 1 1096.3,481.06A5,5 0 1 1 1106.3,481.06Z" style="fill:#FF0000" />
<path d="M1303.5,823.22A5,5 0 1 1 1293.5,823.22A5,5 0 1 1 1303.5,823.22Z" style="fill:#FF0000" />
<path d="M1500.7,677.2A5,5 0 1 1 1490.7,677.2A5,5 0 1 1 1500.7,677.2Z" style="fill:#FF0000" />
<path d="M1697.8,755.2A5,5 0 1 1 1687.8,755.2A5,5 0 1 1 1697.8,755.2Z" style="fill:#FF0000" />
<path d="M1895,816.42A5,5 0 1 1 1885,816.42A5,5 0 1 1 1895,816.42Z" style="fill:#FF0000" />
<path d="M115.46,80.11L312.63,177.54L509.8,259.86L706.97,362.58L904.15,442.37L1101.3,512.3L1298.5,623.62L1495.7,719.74L1692.8,779.39L1890,931.1" style="fill:none;stroke:#0000FF;stroke-width:4" />
<path d="M120.46,80.11A5,5 0 1 1 110.46,80.11A5,5 0 1 1 120.46,80.11Z" style="fill:#0000FF" />
<path d="M317.63,177.54A5,5 0 1 1 307.63,177.54A5,5 0 1 1 317.63,177.54Z" style="fill:#0000FF" />
<path d="M514.8,259.86A5,5 0 1 1 504.8,259.86A5,5 0 1 1 514.8,259.86Z" style="fill:#0000FF" />
<path d="M711.97,362.58A5,5 0 1 1 701.97,362.58A5,5 0 1 1 711.97,362.58Z" style="fill:#0000FF" />
<path d="M909.15,442.37A5,5 0 1 1 899.15,442.37A5,5 0 1 1 909.15,442.37Z" style="fill:#0000FF" />
<path d="M1106.3,512.3A5,5 0 1 1 1096.3,512.3A5,5 0 1 1 1106.3,512.3Z" style="fill:#0000FF" />
<path d="M1303.5,623.62A5,5 0 1 1 1293.5,623.62A5,5 0 1 1 1303.5,623.62Z" style="fill:#0000FF" />
<path d="M1500.7,719.74A5,5 0 1 1 1490.7,719.74A5,5 0 1 1 1500.7,719.74Z" style="fill:#0000FF" />
<path d="M1697.8,779.39A5,5 0 1 1 1687.8,779.39A5,5 0 1 1 1697.8,779.39Z" style="fill:#0000FF" />
<path d="M1895,931.1A5,5 0 1 1 1885,931.1A5,5 0 1 1 1895,931.1Z" style="fill:#0000FF" />
<path d="M115.46,81.074L312.63,157L509.8,254.43L706.97,345.3L904.15,437.3L1101.3,488.36L1298.5,598.91L1495.7,683.46L1692.8,754.91L1890,876.26" style="fill:none;stroke:#00FF00;stroke-width:4" />
<path d="M120.46,81.074A5,5 0 1 1 110.46,81.074A5,5 0 1 1 120.46,81.074Z" style="fill:#00FF00" />
<path d="M317.63,157A5,5 0 1 1 307.63,157A5,5 0 1 1 317.63,157Z" style="fill:#00FF00" />
<path d="M514.8,254.43A5,5 0 1 1 504.8,254.43A5,5 0 1 1 514.8,254.43Z" style="fill:#00FF00" />
<path d="M711.97,345.3A5,5 0 1 1 701.97,345.3A5,5 0 1 1 711.97,345.3Z" style="fill:#00FF00" />
<path d="M909.15,437.3A5,5 0 1 1 899.15,437.3A5,5 0 1 1 909.15,437.3Z" style="fill:#00FF00" />
<path d="M1106.3,488.36A5,5 0 1 1 1096.3,488.36A5,5 0 1 1 1106.3,488.36Z" style="fill:#00FF00" />
<path d="M1303.5,598.91A5,5 0 1 1 1293.5,598.91A5,5 0 1 1 1303.5,598.91Z" style="fill:#00FF00" />
<path d="M1500.7,683.46A5,5 0 1 1 1490.7,683.46A5,5 0 1 1 1500.7,683.46Z" style="fill:#00FF00" />
<path d="M1697.8,754.91A5,5 0 1 1 1687.8,754.91A5,5 0 1 1 1697.8,754.91Z" style="fill:#00FF00" />
<path d="M1895,876.26A5,5 0 1 1 1885,876.26A5,5 0 1 1 1895,876.26Z" style="fill:#00FF00" />
<path d="M1900,126.03L1920,126.03" style="fill:none;stroke:#FF0000;stroke-width:4" />
<path d="M1915,126.03A5,5 0 1 1 1905,126.03A5,5 0 1 1 1915,126.03Z" style="fill:#FF0000" />
<text x="1795.4" y="-121.05" transform="scale(1, -1)"
	style="font-family:Liberation Serif;font-variant:normal;font-weight:normal;font-style:normal;font-size:24px">std::deque</text>
<path d="M1900,105.66L1920,105.66" style="fill:none;stroke:#0000FF;stroke-width:4" />
<path d="M1915,105.66A5,5 0 1 1 1905,105.66A5,5 0 1 1 1915,105.66Z" style="fill:#0000FF" />
<text x="1792.7" y="-100.69" transform="scale(1, -1)"
	style="font-family:Liberation Serif;font-variant:normal;font-weight:normal;font-style:normal;font-size:24px">std::vector</text>
<path d="M1900,85.294L1920,85.294" style="fill:none;stroke:#00FF00;stroke-width:4" />
<path d="M1915,85.294A5,5 0 1 1 1905,85.294A5,5 0 1 1 1915,85.294Z" style="fill:#00FF00" />
<text x="1823.3" y="-80.319" transform="scale(1, -1)"
	style="font-family:Liberation Serif;font-variant:normal;font-weight:normal;font-style:normal;font-size:24px">std::list</text>
</g>
</svg>
