<?xml version="1.0"?>
<!-- Generated by SVGo and Plotinum VG -->
<svg width="1920pt" height="1080pt" viewBox="0 0 1920 1080"
	xmlns="http://www.w3.org/2000/svg"
	xmlns:xlink="http://www.w3.org/1999/xlink">
<g transform="scale(1, -1) translate(0, -1080)">
<path d="M0,0L1920,0L1920,1080L0,1080Z" style="fill:#FFFFFF" />
<text x="800.34" y="-1040.9" transform="scale(1, -1)"
	style="font-family:Liberation Serif;font-variant:normal;font-weight:normal;font-style:normal;font-size:50px">random-remove</text>
<text x="875.27" y="-9.7559" transform="scale(1, -1)"
	style="font-family:Liberation Serif;font-variant:normal;font-weight:normal;font-style:normal;font-size:30px">Number of elements</text>
<text x="80.462" y="-39.727" transform="scale(1, -1)"
	style="font-family:Liberation Serif;font-variant:normal;font-weight:normal;font-style:normal;font-size:20px">10000</text>
<text x="278.74" y="-39.727" transform="scale(1, -1)"
	style="font-family:Liberation Serif;font-variant:normal;font-weight:normal;font-style:normal;font-size:20px">20000</text>
<text x="477.03" y="-39.727" transform="scale(1, -1)"
	style="font-family:Liberation Serif;font-variant:normal;font-weight:normal;font-style:normal;font-size:20px">30000</text>
<text x="675.31" y="-39.727" transform="scale(1, -1)"
	style="font-family:Liberation Serif;font-variant:normal;font-weight:normal;font-style:normal;font-size:20px">40000</text>
<text x="873.59" y="-39.727" transform="scale(1, -1)"
	style="font-family:Liberation Serif;font-variant:normal;font-weight:normal;font-style:normal;font-size:20px">50000</text>
<text x="1071.9" y="-39.727" transform="scale(1, -1)"
	style="font-family:Liberation Serif;font-variant:normal;font-weight:normal;font-style:normal;font-size:20px">60000</text>
<text x="1270.2" y="-39.727" transform="scale(1, -1)"
	style="font-family:Liberation Serif;font-variant:normal;font-weight:normal;font-style:normal;font-size:20px">70000</text>
<text x="1468.4" y="-39.727" transform="scale(1, -1)"
	style="font-family:Liberation Serif;font-variant:normal;font-weight:normal;font-style:normal;font-size:20px">80000</text>
<text x="1666.7" y="-39.727" transform="scale(1, -1)"
	style="font-family:Liberation Serif;font-variant:normal;font-weight:normal;font-style:normal;font-size:20px">90000</text>
<text x="1860" y="-39.727" transform="scale(1, -1)"
	style="font-family:Liberation Serif;font-variant:normal;font-weight:normal;font-style:normal;font-size:20px">100000</text>
<path d="M105.46,55.371L105.46,63.371" style="fill:none;stroke:#000000;stroke-width:0.5" />
<path d="M303.74,55.371L303.74,63.371" style="fill:none;stroke:#000000;stroke-width:0.5" />
<path d="M502.03,55.371L502.03,63.371" style="fill:none;stroke:#000000;stroke-width:0.5" />
<path d="M700.31,55.371L700.31,63.371" style="fill:none;stroke:#000000;stroke-width:0.5" />
<path d="M898.59,55.371L898.59,63.371" style="fill:none;stroke:#000000;stroke-width:0.5" />
<path d="M1096.9,55.371L1096.9,63.371" style="fill:none;stroke:#000000;stroke-width:0.5" />
<path d="M1295.2,55.371L1295.2,63.371" style="fill:none;stroke:#000000;stroke-width:0.5" />
<path d="M1493.4,55.371L1493.4,63.371" style="fill:none;stroke:#000000;stroke-width:0.5" />
<path d="M1691.7,55.371L1691.7,63.371" style="fill:none;stroke:#000000;stroke-width:0.5" />
<path d="M1890,55.371L1890,63.371" style="fill:none;stroke:#000000;stroke-width:0.5" />
<path d="M105.46,63.371L1890,63.371" style="fill:none;stroke:#000000;stroke-width:0.5" />
<g transform="rotate(90)">
<text x="534.55" y="23.467" transform="scale(1, -1)"
	style="font-family:Liberation Serif;font-variant:normal;font-weight:normal;font-style:normal;font-size:30px">μs</text>
</g>
<text x="39.712" y="-176.15" transform="scale(1, -1)"
	style="font-family:Liberation Serif;font-variant:normal;font-weight:normal;font-style:normal;font-size:20px">1000</text>
<text x="39.712" y="-342.71" transform="scale(1, -1)"
	style="font-family:Liberation Serif;font-variant:normal;font-weight:normal;font-style:normal;font-size:20px">2000</text>
<text x="39.712" y="-509.28" transform="scale(1, -1)"
	style="font-family:Liberation Serif;font-variant:normal;font-weight:normal;font-style:normal;font-size:20px">3000</text>
<text x="39.712" y="-675.85" transform="scale(1, -1)"
	style="font-family:Liberation Serif;font-variant:normal;font-weight:normal;font-style:normal;font-size:20px">4000</text>
<text x="39.712" y="-842.42" transform="scale(1, -1)"
	style="font-family:Liberation Serif;font-variant:normal;font-weight:normal;font-style:normal;font-size:20px">5000</text>
<text x="39.712" y="-1009" transform="scale(1, -1)"
	style="font-family:Liberation Serif;font-variant:normal;font-weight:normal;font-style:normal;font-size:20px">6000</text>
<path d="M84.712,180.72L92.712,180.72" style="fill:none;stroke:#000000;stroke-width:0.5" />
<path d="M84.712,347.28L92.712,347.28" style="fill:none;stroke:#000000;stroke-width:0.5" />
<path d="M84.712,513.85L92.712,513.85" style="fill:none;stroke:#000000;stroke-width:0.5" />
<path d="M84.712,680.42L92.712,680.42" style="fill:none;stroke:#000000;stroke-width:0.5" />
<path d="M84.712,846.99L92.712,846.99" style="fill:none;stroke:#000000;stroke-width:0.5" />
<path d="M84.712,1013.6L92.712,1013.6" style="fill:none;stroke:#000000;stroke-width:0.5" />
<path d="M88.712,80.777L92.712,80.777" style="fill:none;stroke:#000000;stroke-width:0.5" />
<path d="M88.712,114.09L92.712,114.09" style="fill:none;stroke:#000000;stroke-width:0.5" />
<path d="M88.712,147.4L92.712,147.4" style="fill:none;stroke:#000000;stroke-width:0.5" />
<path d="M88.712,214.03L92.712,214.03" style="fill:none;stroke:#000000;stroke-width:0.5" />
<path d="M88.712,247.34L92.712,247.34" style="fill:none;stroke:#000000;stroke-width:0.5" />
<path d="M88.712,280.66L92.712,280.66" style="fill:none;stroke:#000000;stroke-width:0.5" />
<path d="M88.712,313.97L92.712,313.97" style="fill:none;stroke:#000000;stroke-width:0.5" />
<path d="M88.712,380.6L92.712,380.6" style="fill:none;stroke:#000000;stroke-width:0.5" />
<path d="M88.712,413.91L92.712,413.91" style="fill:none;stroke:#000000;stroke-width:0.5" />
<path d="M88.712,447.23L92.712,447.23" style="fill:none;stroke:#000000;stroke-width:0.5" />
<path d="M88.712,480.54L92.712,480.54" style="fill:none;stroke:#000000;stroke-width:0.5" />
<path d="M88.712,547.17L92.712,547.17" style="fill:none;stroke:#000000;stroke-width:0.5" />
<path d="M88.712,580.48L92.712,580.48" style="fill:none;stroke:#000000;stroke-width:0.5" />
<path d="M88.712,613.79L92.712,613.79" style="fill:none;stroke:#000000;stroke-width:0.5" />
<path d="M88.712,647.11L92.712,647.11" style="fill:none;stroke:#000000;stroke-width:0.5" />
<path d="M88.712,713.73L92.712,713.73" style="fill:none;stroke:#000000;stroke-width:0.5" />
<path d="M88.712,747.05L92.712,747.05" style="fill:none;stroke:#000000;stroke-width:0.5" />
<path d="M88.712,780.36L92.712,780.36" style="fill:none;stroke:#000000;stroke-width:0.5" />
<path d="M88.712,813.67L92.712,813.67" style="fill:none;stroke:#000000;stroke-width:0.5" />
<path d="M88.712,880.3L92.712,880.3" style="fill:none;stroke:#000000;stroke-width:0.5" />
<path d="M88.712,913.61L92.712,913.61" style="fill:none;stroke:#000000;stroke-width:0.5" />
<path d="M88.712,946.93L92.712,946.93" style="fill:none;stroke:#000000;stroke-width:0.5" />
<path d="M88.712,980.24L92.712,980.24" style="fill:none;stroke:#000000;stroke-width:0.5" />
<path d="M92.712,80.11L92.712,1016.8" style="fill:none;stroke:#000000;stroke-width:0.5" />
<path d="M105.46,80.11L105.46,1016.8" style="fill:none;stroke:#808080;stroke-width:0.25" />
<path d="M303.74,80.11L303.74,1016.8" style="fill:none;stroke:#808080;stroke-width:0.25" />
<path d="M502.03,80.11L502.03,1016.8" style="fill:none;stroke:#808080;stroke-width:0.25" />
<path d="M700.31,80.11L700.31,1016.8" style="fill:none;stroke:#808080;stroke-width:0.25" />
<path d="M898.59,80.11L898.59,1016.8" style="fill:none;stroke:#808080;stroke-width:0.25" />
<path d="M1096.9,80.11L1096.9,1016.8" style="fill:none;stroke:#808080;stroke-width:0.25" />
<path d="M1295.2,80.11L1295.2,1016.8" style="fill:none;stroke:#808080;stroke-width:0.25" />
<path d="M1493.4,80.11L1493.4,1016.8" style="fill:none;stroke:#808080;stroke-width:0.25" />
<path d="M1691.7,80.11L1691.7,1016.8" style="fill:none;stroke:#808080;stroke-width:0.25" />
<path d="M1890,80.11L1890,1016.8" style="fill:none;stroke:#808080;stroke-width:0.25" />
<path d="M105.46,180.72L1890,180.72" style="fill:none;stroke:#808080;stroke-width:0.25" />
<path d="M105.46,347.28L1890,347.28" style="fill:none;stroke:#808080;stroke-width:0.25" />
<path d="M105.46,513.85L1890,513.85" style="fill:none;stroke:#808080;stroke-width:0.25" />
<path d="M105.46,680.42L1890,680.42" style="fill:none;stroke:#808080;stroke-width:0.25" />
<path d="M105.46,846.99L1890,846.99" style="fill:none;stroke:#808080;stroke-width:0.25" />
<path d="M105.46,1013.6L1890,1013.6" style="fill:none;stroke:#808080;stroke-width:0.25" />
<path d="M105.46,80.11L303.74,130.75L502.03,166.23L700.31,200.54L898.59,263.5L1096.9,334.63L1295.2,389.76L1493.4,381.76L1691.7,437.9L1890,491.37" style="fill:none;stroke:#FF0000;stroke-width:4" />
<path d="M110.46,80.11A5,5 0 1 1 100.46,80.11A5,5 0 1 1 110.46,80.11Z" style="fill:#FF0000" />
<path d="M308.74,130.75A5,5 0 1 1 298.74,130.75A5,5 0 1 1 308.74,130.75Z" style="fill:#FF0000" />
<path d="M507.03,166.23A5,5 0 1 1 497.03,166.23A5,5 0 1 1 507.03,166.23Z" style="fill:#FF0000" />
<path d="M705.31,200.54A5,5 0 1 1 695.31,200.54A5,5 0 1 1 705.31,200.54Z" style="fill:#FF0000" />
<path d="M903.59,263.5A5,5 0 1 1 893.59,263.5A5,5 0 1 1 903.59,263.5Z" style="fill:#FF0000" />
<path d="M1101.9,334.63A5,5 0 1 1 1091.9,334.63A5,5 0 1 1 1101.9,334.63Z" style="fill:#FF0000" />
<path d="M1300.2,389.76A5,5 0 1 1 1290.2,389.76A5,5 0 1 1 1300.2,389.76Z" style="fill:#FF0000" />
<path d="M1498.4,381.76A5,5 0 1 1 1488.4,381.76A5,5 0 1 1 1498.4,381.76Z" style="fill:#FF0000" />
<path d="M1696.7,437.9A5,5 0 1 1 1686.7,437.9A5,5 0 1 1 1696.7,437.9Z" style="fill:#FF0000" />
<path d="M1895,491.37A5,5 0 1 1 1885,491.37A5,5 0 1 1 1895,491.37Z" style="fill:#FF0000" />
<path d="M105.46,97.1L303.74,164.89L502.03,215.7L700.31,305.64L898.59,341.95L1096.9,434.73L1295.2,497.36L1493.4,727.72L1691.7,925.61L1890,835.49" style="fill:none;stroke:#0000FF;stroke-width:4" />
<path d="M110.46,97.1A5,5 0 1 1 100.46,97.1A5,5 0 1 1 110.46,97.1Z" style="fill:#0000FF" />
<path d="M308.74,164.89A5,5 0 1 1 298.74,164.89A5,5 0 1 1 308.74,164.89Z" style="fill:#0000FF" />
<path d="M507.03,215.7A5,5 0 1 1 497.03,215.7A5,5 0 1 1 507.03,215.7Z" style="fill:#0000FF" />
<path d="M705.31,305.64A5,5 0 1 1 695.31,305.64A5,5 0 1 1 705.31,305.64Z" style="fill:#0000FF" />
<path d="M903.59,341.95A5,5 0 1 1 893.59,341.95A5,5 0 1 1 903.59,341.95Z" style="fill:#0000FF" />
<path d="M1101.9,434.73A5,5 0 1 1 1091.9,434.73A5,5 0 1 1 1101.9,434.73Z" style="fill:#0000FF" />
<path d="M1300.2,497.36A5,5 0 1 1 1290.2,497.36A5,5 0 1 1 1300.2,497.36Z" style="fill:#0000FF" />
<path d="M1498.4,727.72A5,5 0 1 1 1488.4,727.72A5,5 0 1 1 1498.4,727.72Z" style="fill:#0000FF" />
<path d="M1696.7,925.61A5,5 0 1 1 1686.7,925.61A5,5 0 1 1 1696.7,925.61Z" style="fill:#0000FF" />
<path d="M1895,835.49A5,5 0 1 1 1885,835.49A5,5 0 1 1 1895,835.49Z" style="fill:#0000FF" />
<path d="M105.46,120.59L303.74,163.06L502.03,161.4L700.31,222.69L898.59,251.51L1096.9,333.29L1295.2,361.78L1493.4,400.75L1691.7,428.4L1890,508.19" style="fill:none;stroke:#00FF00;stroke-width:4" />
<path d="M110.46,120.59A5,5 0 1 1 100.46,120.59A5,5 0 1 1 110.46,120.59Z" style="fill:#00FF00" />
<path d="M308.74,163.06A5,5 0 1 1 298.74,163.06A5,5 0 1 1 308.74,163.06Z" style="fill:#00FF00" />
<path d="M507.03,161.4A5,5 0 1 1 497.03,161.4A5,5 0 1 1 507.03,161.4Z" style="fill:#00FF00" />
<path d="M705.31,222.69A5,5 0 1 1 695.31,222.69A5,5 0 1 1 705.31,222.69Z" style="fill:#00FF00" />
<path d="M903.59,251.51A5,5 0 1 1 893.59,251.51A5,5 0 1 1 903.59,251.51Z" style="fill:#00FF00" />
<path d="M1101.9,333.29A5,5 0 1 1 1091.9,333.29A5,5 0 1 1 1101.9,333.29Z" style="fill:#00FF00" />
<path d="M1300.2,361.78A5,5 0 1 1 1290.2,361.78A5,5 0 1 1 1300.2,361.78Z" style="fill:#00FF00" />
<path d="M1498.4,400.75A5,5 0 1 1 1488.4,400.75A5,5 0 1 1 1498.4,400.75Z" style="fill:#00FF00" />
<path d="M1696.7,428.4A5,5 0 1 1 1686.7,428.4A5,5 0 1 1 1696.7,428.4Z" style="fill:#00FF00" />
<path d="M1895,508.19A5,5 0 1 1 1885,508.19A5,5 0 1 1 1895,508.19Z" style="fill:#00FF00" />
<path d="M1900,126.03L1920,126.03" style="fill:none;stroke:#FF0000;stroke-width:4" />
<path d="M1915,126.03A5,5 0 1 1 1905,126.03A5,5 0 1 1 1915,126.03Z" style="fill:#FF0000" />
<text x="1792.7" y="-121.05" transform="scale(1, -1)"
	style="font-family:Liberation Serif;font-variant:normal;font-weight:normal;font-style:normal;font-size:24px">std::vector</text>
<path d="M1900,105.66L1920,105.66" style="fill:none;stroke:#0000FF;stroke-width:4" />
<path d="M1915,105.66A5,5 0 1 1 1905,105.66A5,5 0 1 1 1915,105.66Z" style="fill:#0000FF" />
<text x="1823.3" y="-100.69" transform="scale(1, -1)"
	style="font-family:Liberation Serif;font-variant:normal;font-weight:normal;font-style:normal;font-size:24px">std::list</text>
<path d="M1900,85.294L1920,85.294" style="fill:none;stroke:#00FF00;stroke-width:4" />
<path d="M1915,85.294A5,5 0 1 1 1905,85.294A5,5 0 1 1 1915,85.294Z" style="fill:#00FF00" />
<text x="1795.4" y="-80.319" transform="scale(1, -1)"
	style="font-family:Liberation Serif;font-variant:normal;font-weight:normal;font-style:normal;font-size:24px">std::deque</text>
</g>
</svg>
