<?xml version="1.0"?>
<!-- Generated by SVGo and Plotinum VG -->
<svg width="1920pt" height="1080pt" viewBox="0 0 1920 1080"
	xmlns="http://www.w3.org/2000/svg"
	xmlns:xlink="http://www.w3.org/1999/xlink">
<g transform="scale(1, -1) translate(0, -1080)">
<path d="M0,0L1920,0L1920,1080L0,1080Z" style="fill:#FFFFFF" />
<text x="800.34" y="-1040.9" transform="scale(1, -1)"
	style="font-family:Liberation Serif;font-variant:normal;font-weight:normal;font-style:normal;font-size:50px">random-remove</text>
<text x="875.27" y="-9.7559" transform="scale(1, -1)"
	style="font-family:Liberation Serif;font-variant:normal;font-weight:normal;font-style:normal;font-size:30px">Number of elements</text>
<text x="80.462" y="-39.727" transform="scale(1, -1)"
	style="font-family:Liberation Serif;font-variant:normal;font-weight:normal;font-style:normal;font-size:20px">10000</text>
<text x="278.74" y="-39.727" transform="scale(1, -1)"
	style="font-family:Liberation Serif;font-variant:normal;font-weight:normal;font-style:normal;font-size:20px">20000</text>
<text x="477.03" y="-39.727" transform="scale(1, -1)"
	style="font-family:Liberation Serif;font-variant:normal;font-weight:normal;font-style:normal;font-size:20px">30000</text>
<text x="675.31" y="-39.727" transform="scale(1, -1)"
	style="font-family:Liberation Serif;font-variant:normal;font-weight:normal;font-style:normal;font-size:20px">40000</text>
<text x="873.59" y="-39.727" transform="scale(1, -1)"
	style="font-family:Liberation Serif;font-variant:normal;font-weight:normal;font-style:normal;font-size:20px">50000</text>
<text x="1071.9" y="-39.727" transform="scale(1, -1)"
	style="font-family:Liberation Serif;font-variant:normal;font-weight:normal;font-style:normal;font-size:20px">60000</text>
<text x="1270.2" y="-39.727" transform="scale(1, -1)"
	style="font-family:Liberation Serif;font-variant:normal;font-weight:normal;font-style:normal;font-size:20px">70000</text>
<text x="1468.4" y="-39.727" transform="scale(1, -1)"
	style="font-family:Liberation Serif;font-variant:normal;font-weight:normal;font-style:normal;font-size:20px">80000</text>
<text x="1666.7" y="-39.727" transform="scale(1, -1)"
	style="font-family:Liberation Serif;font-variant:normal;font-weight:normal;font-style:normal;font-size:20px">90000</text>
<text x="1860" y="-39.727" transform="scale(1, -1)"
	style="font-family:Liberation Serif;font-variant:normal;font-weight:normal;font-style:normal;font-size:20px">100000</text>
<path d="M105.46,55.371L105.46,63.371" style="fill:none;stroke:#000000;stroke-width:0.5" />
<path d="M303.74,55.371L303.74,63.371" style="fill:none;stroke:#000000;stroke-width:0.5" />
<path d="M502.03,55.371L502.03,63.371" style="fill:none;stroke:#000000;stroke-width:0.5" />
<path d="M700.31,55.371L700.31,63.371" style="fill:none;stroke:#000000;stroke-width:0.5" />
<path d="M898.59,55.371L898.59,63.371" style="fill:none;stroke:#000000;stroke-width:0.5" />
<path d="M1096.9,55.371L1096.9,63.371" style="fill:none;stroke:#000000;stroke-width:0.5" />
<path d="M1295.2,55.371L1295.2,63.371" style="fill:none;stroke:#000000;stroke-width:0.5" />
<path d="M1493.4,55.371L1493.4,63.371" style="fill:none;stroke:#000000;stroke-width:0.5" />
<path d="M1691.7,55.371L1691.7,63.371" style="fill:none;stroke:#000000;stroke-width:0.5" />
<path d="M1890,55.371L1890,63.371" style="fill:none;stroke:#000000;stroke-width:0.5" />
<path d="M105.46,63.371L1890,63.371" style="fill:none;stroke:#000000;stroke-width:0.5" />
<g transform="rotate(90)">
<text x="535.23" y="23.467" transform="scale(1, -1)"
	style="font-family:Liberation Serif;font-variant:normal;font-weight:normal;font-style:normal;font-size:30px">μs</text>
</g>
<text x="39.712" y="-261.03" transform="scale(1, -1)"
	style="font-family:Liberation Serif;font-variant:normal;font-weight:normal;font-style:normal;font-size:20px">1000</text>
<text x="39.712" y="-510.35" transform="scale(1, -1)"
	style="font-family:Liberation Serif;font-variant:normal;font-weight:normal;font-style:normal;font-size:20px">2000</text>
<text x="39.712" y="-759.67" transform="scale(1, -1)"
	style="font-family:Liberation Serif;font-variant:normal;font-weight:normal;font-style:normal;font-size:20px">3000</text>
<text x="39.712" y="-1009" transform="scale(1, -1)"
	style="font-family:Liberation Serif;font-variant:normal;font-weight:normal;font-style:normal;font-size:20px">4000</text>
<path d="M84.712,265.6L92.712,265.6" style="fill:none;stroke:#000000;stroke-width:0.5" />
<path d="M84.712,514.92L92.712,514.92" style="fill:none;stroke:#000000;stroke-width:0.5" />
<path d="M84.712,764.24L92.712,764.24" style="fill:none;stroke:#000000;stroke-width:0.5" />
<path d="M84.712,1013.6L92.712,1013.6" style="fill:none;stroke:#000000;stroke-width:0.5" />
<path d="M88.712,116.01L92.712,116.01" style="fill:none;stroke:#000000;stroke-width:0.5" />
<path d="M88.712,165.88L92.712,165.88" style="fill:none;stroke:#000000;stroke-width:0.5" />
<path d="M88.712,215.74L92.712,215.74" style="fill:none;stroke:#000000;stroke-width:0.5" />
<path d="M88.712,315.47L92.712,315.47" style="fill:none;stroke:#000000;stroke-width:0.5" />
<path d="M88.712,365.33L92.712,365.33" style="fill:none;stroke:#000000;stroke-width:0.5" />
<path d="M88.712,415.19L92.712,415.19" style="fill:none;stroke:#000000;stroke-width:0.5" />
<path d="M88.712,465.06L92.712,465.06" style="fill:none;stroke:#000000;stroke-width:0.5" />
<path d="M88.712,564.78L92.712,564.78" style="fill:none;stroke:#000000;stroke-width:0.5" />
<path d="M88.712,614.65L92.712,614.65" style="fill:none;stroke:#000000;stroke-width:0.5" />
<path d="M88.712,664.51L92.712,664.51" style="fill:none;stroke:#000000;stroke-width:0.5" />
<path d="M88.712,714.37L92.712,714.37" style="fill:none;stroke:#000000;stroke-width:0.5" />
<path d="M88.712,814.1L92.712,814.1" style="fill:none;stroke:#000000;stroke-width:0.5" />
<path d="M88.712,863.96L92.712,863.96" style="fill:none;stroke:#000000;stroke-width:0.5" />
<path d="M88.712,913.83L92.712,913.83" style="fill:none;stroke:#000000;stroke-width:0.5" />
<path d="M88.712,963.69L92.712,963.69" style="fill:none;stroke:#000000;stroke-width:0.5" />
<path d="M92.712,80.11L92.712,1018.1" style="fill:none;stroke:#000000;stroke-width:0.5" />
<path d="M105.46,80.11L105.46,1018.1" style="fill:none;stroke:#808080;stroke-width:0.25" />
<path d="M303.74,80.11L303.74,1018.1" style="fill:none;stroke:#808080;stroke-width:0.25" />
<path d="M502.03,80.11L502.03,1018.1" style="fill:none;stroke:#808080;stroke-width:0.25" />
<path d="M700.31,80.11L700.31,1018.1" style="fill:none;stroke:#808080;stroke-width:0.25" />
<path d="M898.59,80.11L898.59,1018.1" style="fill:none;stroke:#808080;stroke-width:0.25" />
<path d="M1096.9,80.11L1096.9,1018.1" style="fill:none;stroke:#808080;stroke-width:0.25" />
<path d="M1295.2,80.11L1295.2,1018.1" style="fill:none;stroke:#808080;stroke-width:0.25" />
<path d="M1493.4,80.11L1493.4,1018.1" style="fill:none;stroke:#808080;stroke-width:0.25" />
<path d="M1691.7,80.11L1691.7,1018.1" style="fill:none;stroke:#808080;stroke-width:0.25" />
<path d="M1890,80.11L1890,1018.1" style="fill:none;stroke:#808080;stroke-width:0.25" />
<path d="M105.46,265.6L1890,265.6" style="fill:none;stroke:#808080;stroke-width:0.25" />
<path d="M105.46,514.92L1890,514.92" style="fill:none;stroke:#808080;stroke-width:0.25" />
<path d="M105.46,764.24L1890,764.24" style="fill:none;stroke:#808080;stroke-width:0.25" />
<path d="M105.46,1013.6L1890,1013.6" style="fill:none;stroke:#808080;stroke-width:0.25" />
<path d="M105.46,131.47L303.74,246.16L502.03,275.58L700.31,406.22L898.59,465.8L1096.9,521.15L1295.2,714.62L1493.4,690.19L1691.7,832.55L1890,927.04" style="fill:none;stroke:#FF0000;stroke-width:4" />
<path d="M110.46,131.47A5,5 0 1 1 100.46,131.47A5,5 0 1 1 110.46,131.47Z" style="fill:#FF0000" />
<path d="M308.74,246.16A5,5 0 1 1 298.74,246.16A5,5 0 1 1 308.74,246.16Z" style="fill:#FF0000" />
<path d="M507.03,275.58A5,5 0 1 1 497.03,275.58A5,5 0 1 1 507.03,275.58Z" style="fill:#FF0000" />
<path d="M705.31,406.22A5,5 0 1 1 695.31,406.22A5,5 0 1 1 705.31,406.22Z" style="fill:#FF0000" />
<path d="M903.59,465.8A5,5 0 1 1 893.59,465.8A5,5 0 1 1 903.59,465.8Z" style="fill:#FF0000" />
<path d="M1101.9,521.15A5,5 0 1 1 1091.9,521.15A5,5 0 1 1 1101.9,521.15Z" style="fill:#FF0000" />
<path d="M1300.2,714.62A5,5 0 1 1 1290.2,714.62A5,5 0 1 1 1300.2,714.62Z" style="fill:#FF0000" />
<path d="M1498.4,690.19A5,5 0 1 1 1488.4,690.19A5,5 0 1 1 1498.4,690.19Z" style="fill:#FF0000" />
<path d="M1696.7,832.55A5,5 0 1 1 1686.7,832.55A5,5 0 1 1 1696.7,832.55Z" style="fill:#FF0000" />
<path d="M1895,927.04A5,5 0 1 1 1885,927.04A5,5 0 1 1 1895,927.04Z" style="fill:#FF0000" />
<path d="M105.46,80.11L303.74,162.88L502.03,237.43L700.31,277.57L898.59,302.75L1096.9,336.41L1295.2,402.98L1493.4,523.9L1691.7,533.62L1890,631.6" style="fill:none;stroke:#0000FF;stroke-width:4" />
<path d="M110.46,80.11A5,5 0 1 1 100.46,80.11A5,5 0 1 1 110.46,80.11Z" style="fill:#0000FF" />
<path d="M308.74,162.88A5,5 0 1 1 298.74,162.88A5,5 0 1 1 308.74,162.88Z" style="fill:#0000FF" />
<path d="M507.03,237.43A5,5 0 1 1 497.03,237.43A5,5 0 1 1 507.03,237.43Z" style="fill:#0000FF" />
<path d="M705.31,277.57A5,5 0 1 1 695.31,277.57A5,5 0 1 1 705.31,277.57Z" style="fill:#0000FF" />
<path d="M903.59,302.75A5,5 0 1 1 893.59,302.75A5,5 0 1 1 903.59,302.75Z" style="fill:#0000FF" />
<path d="M1101.9,336.41A5,5 0 1 1 1091.9,336.41A5,5 0 1 1 1101.9,336.41Z" style="fill:#0000FF" />
<path d="M1300.2,402.98A5,5 0 1 1 1290.2,402.98A5,5 0 1 1 1300.2,402.98Z" style="fill:#0000FF" />
<path d="M1498.4,523.9A5,5 0 1 1 1488.4,523.9A5,5 0 1 1 1498.4,523.9Z" style="fill:#0000FF" />
<path d="M1696.7,533.62A5,5 0 1 1 1686.7,533.62A5,5 0 1 1 1696.7,533.62Z" style="fill:#0000FF" />
<path d="M1895,631.6A5,5 0 1 1 1885,631.6A5,5 0 1 1 1895,631.6Z" style="fill:#0000FF" />
<path d="M105.46,97.812L303.74,174.85L502.03,235.19L700.31,268.84L898.59,387.02L1096.9,406.22L1295.2,520.4L1493.4,527.39L1691.7,671.74L1890,739.31" style="fill:none;stroke:#00FF00;stroke-width:4" />
<path d="M110.46,97.812A5,5 0 1 1 100.46,97.812A5,5 0 1 1 110.46,97.812Z" style="fill:#00FF00" />
<path d="M308.74,174.85A5,5 0 1 1 298.74,174.85A5,5 0 1 1 308.74,174.85Z" style="fill:#00FF00" />
<path d="M507.03,235.19A5,5 0 1 1 497.03,235.19A5,5 0 1 1 507.03,235.19Z" style="fill:#00FF00" />
<path d="M705.31,268.84A5,5 0 1 1 695.31,268.84A5,5 0 1 1 705.31,268.84Z" style="fill:#00FF00" />
<path d="M903.59,387.02A5,5 0 1 1 893.59,387.02A5,5 0 1 1 903.59,387.02Z" style="fill:#00FF00" />
<path d="M1101.9,406.22A5,5 0 1 1 1091.9,406.22A5,5 0 1 1 1101.9,406.22Z" style="fill:#00FF00" />
<path d="M1300.2,520.4A5,5 0 1 1 1290.2,520.4A5,5 0 1 1 1300.2,520.4Z" style="fill:#00FF00" />
<path d="M1498.4,527.39A5,5 0 1 1 1488.4,527.39A5,5 0 1 1 1498.4,527.39Z" style="fill:#00FF00" />
<path d="M1696.7,671.74A5,5 0 1 1 1686.7,671.74A5,5 0 1 1 1696.7,671.74Z" style="fill:#00FF00" />
<path d="M1895,739.31A5,5 0 1 1 1885,739.31A5,5 0 1 1 1895,739.31Z" style="fill:#00FF00" />
<path d="M1900,126.03L1920,126.03" style="fill:none;stroke:#FF0000;stroke-width:4" />
<path d="M1915,126.03A5,5 0 1 1 1905,126.03A5,5 0 1 1 1915,126.03Z" style="fill:#FF0000" />
<text x="1823.3" y="-121.05" transform="scale(1, -1)"
	style="font-family:Liberation Serif;font-variant:normal;font-weight:normal;font-style:normal;font-size:24px">std::list</text>
<path d="M1900,105.66L1920,105.66" style="fill:none;stroke:#0000FF;stroke-width:4" />
<path d="M1915,105.66A5,5 0 1 1 1905,105.66A5,5 0 1 1 1915,105.66Z" style="fill:#0000FF" />
<text x="1795.4" y="-100.69" transform="scale(1, -1)"
	style="font-family:Liberation Serif;font-variant:normal;font-weight:normal;font-style:normal;font-size:24px">std::deque</text>
<path d="M1900,85.294L1920,85.294" style="fill:none;stroke:#00FF00;stroke-width:4" />
<path d="M1915,85.294A5,5 0 1 1 1905,85.294A5,5 0 1 1 1915,85.294Z" style="fill:#00FF00" />
<text x="1792.7" y="-80.319" transform="scale(1, -1)"
	style="font-family:Liberation Serif;font-variant:normal;font-weight:normal;font-style:normal;font-size:24px">std::vector</text>
</g>
</svg>
