<?xml version="1.0"?>
<!-- Generated by SVGo and Plotinum VG -->
<svg width="1920pt" height="1080pt" viewBox="0 0 1920 1080"
	xmlns="http://www.w3.org/2000/svg"
	xmlns:xlink="http://www.w3.org/1999/xlink">
<g transform="scale(1, -1) translate(0, -1080)">
<path d="M0,0L1920,0L1920,1080L0,1080Z" style="fill:#FFFFFF" />
<text x="678.86" y="-1040.9" transform="scale(1, -1)"
	style="font-family:Liberation Serif;font-variant:normal;font-weight:normal;font-style:normal;font-size:50px">random-remove - Log Scale</text>
<text x="880.27" y="-9.7559" transform="scale(1, -1)"
	style="font-family:Liberation Serif;font-variant:normal;font-weight:normal;font-style:normal;font-size:30px">Number of elements</text>
<text x="90.462" y="-39.727" transform="scale(1, -1)"
	style="font-family:Liberation Serif;font-variant:normal;font-weight:normal;font-style:normal;font-size:20px">10000</text>
<text x="287.63" y="-39.727" transform="scale(1, -1)"
	style="font-family:Liberation Serif;font-variant:normal;font-weight:normal;font-style:normal;font-size:20px">20000</text>
<text x="484.8" y="-39.727" transform="scale(1, -1)"
	style="font-family:Liberation Serif;font-variant:normal;font-weight:normal;font-style:normal;font-size:20px">30000</text>
<text x="681.97" y="-39.727" transform="scale(1, -1)"
	style="font-family:Liberation Serif;font-variant:normal;font-weight:normal;font-style:normal;font-size:20px">40000</text>
<text x="879.15" y="-39.727" transform="scale(1, -1)"
	style="font-family:Liberation Serif;font-variant:normal;font-weight:normal;font-style:normal;font-size:20px">50000</text>
<text x="1076.3" y="-39.727" transform="scale(1, -1)"
	style="font-family:Liberation Serif;font-variant:normal;font-weight:normal;font-style:normal;font-size:20px">60000</text>
<text x="1273.5" y="-39.727" transform="scale(1, -1)"
	style="font-family:Liberation Serif;font-variant:normal;font-weight:normal;font-style:normal;font-size:20px">70000</text>
<text x="1470.7" y="-39.727" transform="scale(1, -1)"
	style="font-family:Liberation Serif;font-variant:normal;font-weight:normal;font-style:normal;font-size:20px">80000</text>
<text x="1667.8" y="-39.727" transform="scale(1, -1)"
	style="font-family:Liberation Serif;font-variant:normal;font-weight:normal;font-style:normal;font-size:20px">90000</text>
<text x="1860" y="-39.727" transform="scale(1, -1)"
	style="font-family:Liberation Serif;font-variant:normal;font-weight:normal;font-style:normal;font-size:20px">100000</text>
<path d="M115.46,55.371L115.46,63.371" style="fill:none;stroke:#000000;stroke-width:0.5" />
<path d="M312.63,55.371L312.63,63.371" style="fill:none;stroke:#000000;stroke-width:0.5" />
<path d="M509.8,55.371L509.8,63.371" style="fill:none;stroke:#000000;stroke-width:0.5" />
<path d="M706.97,55.371L706.97,63.371" style="fill:none;stroke:#000000;stroke-width:0.5" />
<path d="M904.15,55.371L904.15,63.371" style="fill:none;stroke:#000000;stroke-width:0.5" />
<path d="M1101.3,55.371L1101.3,63.371" style="fill:none;stroke:#000000;stroke-width:0.5" />
<path d="M1298.5,55.371L1298.5,63.371" style="fill:none;stroke:#000000;stroke-width:0.5" />
<path d="M1495.7,55.371L1495.7,63.371" style="fill:none;stroke:#000000;stroke-width:0.5" />
<path d="M1692.8,55.371L1692.8,63.371" style="fill:none;stroke:#000000;stroke-width:0.5" />
<path d="M1890,55.371L1890,63.371" style="fill:none;stroke:#000000;stroke-width:0.5" />
<path d="M115.46,63.371L1890,63.371" style="fill:none;stroke:#000000;stroke-width:0.5" />
<g transform="rotate(90)">
<text x="509.33" y="23.467" transform="scale(1, -1)"
	style="font-family:Liberation Serif;font-variant:normal;font-weight:normal;font-style:normal;font-size:30px">log(μs)</text>
</g>
<text x="39.712" y="-369.47" transform="scale(1, -1)"
	style="font-family:Liberation Serif;font-variant:normal;font-weight:normal;font-style:normal;font-size:20px">10000</text>
<text x="39.712" y="-780.69" transform="scale(1, -1)"
	style="font-family:Liberation Serif;font-variant:normal;font-weight:normal;font-style:normal;font-size:20px">30000</text>
<text x="39.712" y="-971.9" transform="scale(1, -1)"
	style="font-family:Liberation Serif;font-variant:normal;font-weight:normal;font-style:normal;font-size:20px">50000</text>
<path d="M94.712,374.04L102.71,374.04" style="fill:none;stroke:#000000;stroke-width:0.5" />
<path d="M94.712,785.26L102.71,785.26" style="fill:none;stroke:#000000;stroke-width:0.5" />
<path d="M94.712,976.47L102.71,976.47" style="fill:none;stroke:#000000;stroke-width:0.5" />
<path d="M98.712,633.49L102.71,633.49" style="fill:none;stroke:#000000;stroke-width:0.5" />
<path d="M98.712,892.94L102.71,892.94" style="fill:none;stroke:#000000;stroke-width:0.5" />
<path d="M102.71,80.11L102.71,1024.6" style="fill:none;stroke:#000000;stroke-width:0.5" />
<path d="M115.46,80.11L115.46,1024.6" style="fill:none;stroke:#808080;stroke-width:0.25" />
<path d="M312.63,80.11L312.63,1024.6" style="fill:none;stroke:#808080;stroke-width:0.25" />
<path d="M509.8,80.11L509.8,1024.6" style="fill:none;stroke:#808080;stroke-width:0.25" />
<path d="M706.97,80.11L706.97,1024.6" style="fill:none;stroke:#808080;stroke-width:0.25" />
<path d="M904.15,80.11L904.15,1024.6" style="fill:none;stroke:#808080;stroke-width:0.25" />
<path d="M1101.3,80.11L1101.3,1024.6" style="fill:none;stroke:#808080;stroke-width:0.25" />
<path d="M1298.5,80.11L1298.5,1024.6" style="fill:none;stroke:#808080;stroke-width:0.25" />
<path d="M1495.7,80.11L1495.7,1024.6" style="fill:none;stroke:#808080;stroke-width:0.25" />
<path d="M1692.8,80.11L1692.8,1024.6" style="fill:none;stroke:#808080;stroke-width:0.25" />
<path d="M1890,80.11L1890,1024.6" style="fill:none;stroke:#808080;stroke-width:0.25" />
<path d="M115.46,374.04L1890,374.04" style="fill:none;stroke:#808080;stroke-width:0.25" />
<path d="M115.46,785.26L1890,785.26" style="fill:none;stroke:#808080;stroke-width:0.25" />
<path d="M115.46,976.47L1890,976.47" style="fill:none;stroke:#808080;stroke-width:0.25" />
<path d="M115.46,102.8L312.63,341.44L509.8,519.16L706.97,628.33L904.15,732.09L1101.3,798.87L1298.5,842.63L1495.7,912.4L1692.8,922.69L1890,988.95" style="fill:none;stroke:#FF0000;stroke-width:4" />
<path d="M120.46,102.8A5,5 0 1 1 110.46,102.8A5,5 0 1 1 120.46,102.8Z" style="fill:#FF0000" />
<path d="M317.63,341.44A5,5 0 1 1 307.63,341.44A5,5 0 1 1 317.63,341.44Z" style="fill:#FF0000" />
<path d="M514.8,519.16A5,5 0 1 1 504.8,519.16A5,5 0 1 1 514.8,519.16Z" style="fill:#FF0000" />
<path d="M711.97,628.33A5,5 0 1 1 701.97,628.33A5,5 0 1 1 711.97,628.33Z" style="fill:#FF0000" />
<path d="M909.15,732.09A5,5 0 1 1 899.15,732.09A5,5 0 1 1 909.15,732.09Z" style="fill:#FF0000" />
<path d="M1106.3,798.87A5,5 0 1 1 1096.3,798.87A5,5 0 1 1 1106.3,798.87Z" style="fill:#FF0000" />
<path d="M1303.5,842.63A5,5 0 1 1 1293.5,842.63A5,5 0 1 1 1303.5,842.63Z" style="fill:#FF0000" />
<path d="M1500.7,912.4A5,5 0 1 1 1490.7,912.4A5,5 0 1 1 1500.7,912.4Z" style="fill:#FF0000" />
<path d="M1697.8,922.69A5,5 0 1 1 1687.8,922.69A5,5 0 1 1 1697.8,922.69Z" style="fill:#FF0000" />
<path d="M1895,988.95A5,5 0 1 1 1885,988.95A5,5 0 1 1 1895,988.95Z" style="fill:#FF0000" />
<path d="M115.46,80.11L312.63,325.64L509.8,518.32L706.97,611.62L904.15,706.65L1101.3,775.94L1298.5,851.97L1495.7,897.89L1692.8,924.67L1890,985.89" style="fill:none;stroke:#0000FF;stroke-width:4" />
<path d="M120.46,80.11A5,5 0 1 1 110.46,80.11A5,5 0 1 1 120.46,80.11Z" style="fill:#0000FF" />
<path d="M317.63,325.64A5,5 0 1 1 307.63,325.64A5,5 0 1 1 317.63,325.64Z" style="fill:#0000FF" />
<path d="M514.8,518.32A5,5 0 1 1 504.8,518.32A5,5 0 1 1 514.8,518.32Z" style="fill:#0000FF" />
<path d="M711.97,611.62A5,5 0 1 1 701.97,611.62A5,5 0 1 1 711.97,611.62Z" style="fill:#0000FF" />
<path d="M909.15,706.65A5,5 0 1 1 899.15,706.65A5,5 0 1 1 909.15,706.65Z" style="fill:#0000FF" />
<path d="M1106.3,775.94A5,5 0 1 1 1096.3,775.94A5,5 0 1 1 1106.3,775.94Z" style="fill:#0000FF" />
<path d="M1303.5,851.97A5,5 0 1 1 1293.5,851.97A5,5 0 1 1 1303.5,851.97Z" style="fill:#0000FF" />
<path d="M1500.7,897.89A5,5 0 1 1 1490.7,897.89A5,5 0 1 1 1500.7,897.89Z" style="fill:#0000FF" />
<path d="M1697.8,924.67A5,5 0 1 1 1687.8,924.67A5,5 0 1 1 1697.8,924.67Z" style="fill:#0000FF" />
<path d="M1895,985.89A5,5 0 1 1 1885,985.89A5,5 0 1 1 1895,985.89Z" style="fill:#0000FF" />
<path d="M115.46,85.165L312.63,351.2L509.8,507.24L706.97,643.12L904.15,690.46L1101.3,771.23L1298.5,826.77L1495.7,894.33L1692.8,933.86L1890,969.02" style="fill:none;stroke:#00FF00;stroke-width:4" />
<path d="M120.46,85.165A5,5 0 1 1 110.46,85.165A5,5 0 1 1 120.46,85.165Z" style="fill:#00FF00" />
<path d="M317.63,351.2A5,5 0 1 1 307.63,351.2A5,5 0 1 1 317.63,351.2Z" style="fill:#00FF00" />
<path d="M514.8,507.24A5,5 0 1 1 504.8,507.24A5,5 0 1 1 514.8,507.24Z" style="fill:#00FF00" />
<path d="M711.97,643.12A5,5 0 1 1 701.97,643.12A5,5 0 1 1 711.97,643.12Z" style="fill:#00FF00" />
<path d="M909.15,690.46A5,5 0 1 1 899.15,690.46A5,5 0 1 1 909.15,690.46Z" style="fill:#00FF00" />
<path d="M1106.3,771.23A5,5 0 1 1 1096.3,771.23A5,5 0 1 1 1106.3,771.23Z" style="fill:#00FF00" />
<path d="M1303.5,826.77A5,5 0 1 1 1293.5,826.77A5,5 0 1 1 1303.5,826.77Z" style="fill:#00FF00" />
<path d="M1500.7,894.33A5,5 0 1 1 1490.7,894.33A5,5 0 1 1 1500.7,894.33Z" style="fill:#00FF00" />
<path d="M1697.8,933.86A5,5 0 1 1 1687.8,933.86A5,5 0 1 1 1697.8,933.86Z" style="fill:#00FF00" />
<path d="M1895,969.02A5,5 0 1 1 1885,969.02A5,5 0 1 1 1895,969.02Z" style="fill:#00FF00" />
<path d="M1900,126.03L1920,126.03" style="fill:none;stroke:#FF0000;stroke-width:4" />
<path d="M1915,126.03A5,5 0 1 1 1905,126.03A5,5 0 1 1 1915,126.03Z" style="fill:#FF0000" />
<text x="1823.3" y="-121.05" transform="scale(1, -1)"
	style="font-family:Liberation Serif;font-variant:normal;font-weight:normal;font-style:normal;font-size:24px">std::list</text>
<path d="M1900,105.66L1920,105.66" style="fill:none;stroke:#0000FF;stroke-width:4" />
<path d="M1915,105.66A5,5 0 1 1 1905,105.66A5,5 0 1 1 1915,105.66Z" style="fill:#0000FF" />
<text x="1795.4" y="-100.69" transform="scale(1, -1)"
	style="font-family:Liberation Serif;font-variant:normal;font-weight:normal;font-style:normal;font-size:24px">std::deque</text>
<path d="M1900,85.294L1920,85.294" style="fill:none;stroke:#00FF00;stroke-width:4" />
<path d="M1915,85.294A5,5 0 1 1 1905,85.294A5,5 0 1 1 1915,85.294Z" style="fill:#00FF00" />
<text x="1792.7" y="-80.319" transform="scale(1, -1)"
	style="font-family:Liberation Serif;font-variant:normal;font-weight:normal;font-style:normal;font-size:24px">std::vector</text>
</g>
</svg>
