<?xml version="1.0"?>
<!-- Generated by SVGo and Plotinum VG -->
<svg width="1920pt" height="1080pt" viewBox="0 0 1920 1080"
	xmlns="http://www.w3.org/2000/svg"
	xmlns:xlink="http://www.w3.org/1999/xlink">
<g transform="scale(1, -1) translate(0, -1080)">
<path d="M0,0L1920,0L1920,1080L0,1080Z" style="fill:#FFFFFF" />
<text x="678.86" y="-1040.9" transform="scale(1, -1)"
	style="font-family:Liberation Serif;font-variant:normal;font-weight:normal;font-style:normal;font-size:50px">random-remove - Log Scale</text>
<text x="875.27" y="-9.7559" transform="scale(1, -1)"
	style="font-family:Liberation Serif;font-variant:normal;font-weight:normal;font-style:normal;font-size:30px">Number of elements</text>
<text x="80.462" y="-39.727" transform="scale(1, -1)"
	style="font-family:Liberation Serif;font-variant:normal;font-weight:normal;font-style:normal;font-size:20px">10000</text>
<text x="278.74" y="-39.727" transform="scale(1, -1)"
	style="font-family:Liberation Serif;font-variant:normal;font-weight:normal;font-style:normal;font-size:20px">20000</text>
<text x="477.03" y="-39.727" transform="scale(1, -1)"
	style="font-family:Liberation Serif;font-variant:normal;font-weight:normal;font-style:normal;font-size:20px">30000</text>
<text x="675.31" y="-39.727" transform="scale(1, -1)"
	style="font-family:Liberation Serif;font-variant:normal;font-weight:normal;font-style:normal;font-size:20px">40000</text>
<text x="873.59" y="-39.727" transform="scale(1, -1)"
	style="font-family:Liberation Serif;font-variant:normal;font-weight:normal;font-style:normal;font-size:20px">50000</text>
<text x="1071.9" y="-39.727" transform="scale(1, -1)"
	style="font-family:Liberation Serif;font-variant:normal;font-weight:normal;font-style:normal;font-size:20px">60000</text>
<text x="1270.2" y="-39.727" transform="scale(1, -1)"
	style="font-family:Liberation Serif;font-variant:normal;font-weight:normal;font-style:normal;font-size:20px">70000</text>
<text x="1468.4" y="-39.727" transform="scale(1, -1)"
	style="font-family:Liberation Serif;font-variant:normal;font-weight:normal;font-style:normal;font-size:20px">80000</text>
<text x="1666.7" y="-39.727" transform="scale(1, -1)"
	style="font-family:Liberation Serif;font-variant:normal;font-weight:normal;font-style:normal;font-size:20px">90000</text>
<text x="1860" y="-39.727" transform="scale(1, -1)"
	style="font-family:Liberation Serif;font-variant:normal;font-weight:normal;font-style:normal;font-size:20px">100000</text>
<path d="M105.46,55.371L105.46,63.371" style="fill:none;stroke:#000000;stroke-width:0.5" />
<path d="M303.74,55.371L303.74,63.371" style="fill:none;stroke:#000000;stroke-width:0.5" />
<path d="M502.03,55.371L502.03,63.371" style="fill:none;stroke:#000000;stroke-width:0.5" />
<path d="M700.31,55.371L700.31,63.371" style="fill:none;stroke:#000000;stroke-width:0.5" />
<path d="M898.59,55.371L898.59,63.371" style="fill:none;stroke:#000000;stroke-width:0.5" />
<path d="M1096.9,55.371L1096.9,63.371" style="fill:none;stroke:#000000;stroke-width:0.5" />
<path d="M1295.2,55.371L1295.2,63.371" style="fill:none;stroke:#000000;stroke-width:0.5" />
<path d="M1493.4,55.371L1493.4,63.371" style="fill:none;stroke:#000000;stroke-width:0.5" />
<path d="M1691.7,55.371L1691.7,63.371" style="fill:none;stroke:#000000;stroke-width:0.5" />
<path d="M1890,55.371L1890,63.371" style="fill:none;stroke:#000000;stroke-width:0.5" />
<path d="M105.46,63.371L1890,63.371" style="fill:none;stroke:#000000;stroke-width:0.5" />
<g transform="rotate(90)">
<text x="508.57" y="23.467" transform="scale(1, -1)"
	style="font-family:Liberation Serif;font-variant:normal;font-weight:normal;font-style:normal;font-size:30px">log(μs)</text>
</g>
<text x="39.712" y="-466.2" transform="scale(1, -1)"
	style="font-family:Liberation Serif;font-variant:normal;font-weight:normal;font-style:normal;font-size:20px">1000</text>
<text x="39.712" y="-836.71" transform="scale(1, -1)"
	style="font-family:Liberation Serif;font-variant:normal;font-weight:normal;font-style:normal;font-size:20px">3000</text>
<text x="39.712" y="-1009" transform="scale(1, -1)"
	style="font-family:Liberation Serif;font-variant:normal;font-weight:normal;font-style:normal;font-size:20px">5000</text>
<path d="M84.712,470.77L92.712,470.77" style="fill:none;stroke:#000000;stroke-width:0.5" />
<path d="M84.712,841.28L92.712,841.28" style="fill:none;stroke:#000000;stroke-width:0.5" />
<path d="M84.712,1013.6L92.712,1013.6" style="fill:none;stroke:#000000;stroke-width:0.5" />
<path d="M88.712,704.53L92.712,704.53" style="fill:none;stroke:#000000;stroke-width:0.5" />
<path d="M88.712,938.3L92.712,938.3" style="fill:none;stroke:#000000;stroke-width:0.5" />
<path d="M92.712,80.11L92.712,1023.1" style="fill:none;stroke:#000000;stroke-width:0.5" />
<path d="M105.46,80.11L105.46,1023.1" style="fill:none;stroke:#808080;stroke-width:0.25" />
<path d="M303.74,80.11L303.74,1023.1" style="fill:none;stroke:#808080;stroke-width:0.25" />
<path d="M502.03,80.11L502.03,1023.1" style="fill:none;stroke:#808080;stroke-width:0.25" />
<path d="M700.31,80.11L700.31,1023.1" style="fill:none;stroke:#808080;stroke-width:0.25" />
<path d="M898.59,80.11L898.59,1023.1" style="fill:none;stroke:#808080;stroke-width:0.25" />
<path d="M1096.9,80.11L1096.9,1023.1" style="fill:none;stroke:#808080;stroke-width:0.25" />
<path d="M1295.2,80.11L1295.2,1023.1" style="fill:none;stroke:#808080;stroke-width:0.25" />
<path d="M1493.4,80.11L1493.4,1023.1" style="fill:none;stroke:#808080;stroke-width:0.25" />
<path d="M1691.7,80.11L1691.7,1023.1" style="fill:none;stroke:#808080;stroke-width:0.25" />
<path d="M1890,80.11L1890,1023.1" style="fill:none;stroke:#808080;stroke-width:0.25" />
<path d="M105.46,470.77L1890,470.77" style="fill:none;stroke:#808080;stroke-width:0.25" />
<path d="M105.46,841.28L1890,841.28" style="fill:none;stroke:#808080;stroke-width:0.25" />
<path d="M105.46,1013.6L1890,1013.6" style="fill:none;stroke:#808080;stroke-width:0.25" />
<path d="M105.46,293.4L303.74,526.02L502.03,581.59L700.31,754.44L898.59,721.47L1096.9,770.49L1295.2,881.4L1493.4,890.27L1691.7,917.88L1890,990.96" style="fill:none;stroke:#FF0000;stroke-width:4" />
<path d="M110.46,293.4A5,5 0 1 1 100.46,293.4A5,5 0 1 1 110.46,293.4Z" style="fill:#FF0000" />
<path d="M308.74,526.02A5,5 0 1 1 298.74,526.02A5,5 0 1 1 308.74,526.02Z" style="fill:#FF0000" />
<path d="M507.03,581.59A5,5 0 1 1 497.03,581.59A5,5 0 1 1 507.03,581.59Z" style="fill:#FF0000" />
<path d="M705.31,754.44A5,5 0 1 1 695.31,754.44A5,5 0 1 1 705.31,754.44Z" style="fill:#FF0000" />
<path d="M903.59,721.47A5,5 0 1 1 893.59,721.47A5,5 0 1 1 903.59,721.47Z" style="fill:#FF0000" />
<path d="M1101.9,770.49A5,5 0 1 1 1091.9,770.49A5,5 0 1 1 1101.9,770.49Z" style="fill:#FF0000" />
<path d="M1300.2,881.4A5,5 0 1 1 1290.2,881.4A5,5 0 1 1 1300.2,881.4Z" style="fill:#FF0000" />
<path d="M1498.4,890.27A5,5 0 1 1 1488.4,890.27A5,5 0 1 1 1498.4,890.27Z" style="fill:#FF0000" />
<path d="M1696.7,917.88A5,5 0 1 1 1686.7,917.88A5,5 0 1 1 1696.7,917.88Z" style="fill:#FF0000" />
<path d="M1895,990.96A5,5 0 1 1 1885,990.96A5,5 0 1 1 1895,990.96Z" style="fill:#FF0000" />
<path d="M105.46,174.16L303.74,374.65L502.03,499.52L700.31,561.32L898.59,626.95L1096.9,765.88L1295.2,847.85L1493.4,866.4L1691.7,885.57L1890,872.81" style="fill:none;stroke:#0000FF;stroke-width:4" />
<path d="M110.46,174.16A5,5 0 1 1 100.46,174.16A5,5 0 1 1 110.46,174.16Z" style="fill:#0000FF" />
<path d="M308.74,374.65A5,5 0 1 1 298.74,374.65A5,5 0 1 1 308.74,374.65Z" style="fill:#0000FF" />
<path d="M507.03,499.52A5,5 0 1 1 497.03,499.52A5,5 0 1 1 507.03,499.52Z" style="fill:#0000FF" />
<path d="M705.31,561.32A5,5 0 1 1 695.31,561.32A5,5 0 1 1 705.31,561.32Z" style="fill:#0000FF" />
<path d="M903.59,626.95A5,5 0 1 1 893.59,626.95A5,5 0 1 1 903.59,626.95Z" style="fill:#0000FF" />
<path d="M1101.9,765.88A5,5 0 1 1 1091.9,765.88A5,5 0 1 1 1101.9,765.88Z" style="fill:#0000FF" />
<path d="M1300.2,847.85A5,5 0 1 1 1290.2,847.85A5,5 0 1 1 1300.2,847.85Z" style="fill:#0000FF" />
<path d="M1498.4,866.4A5,5 0 1 1 1488.4,866.4A5,5 0 1 1 1498.4,866.4Z" style="fill:#0000FF" />
<path d="M1696.7,885.57A5,5 0 1 1 1686.7,885.57A5,5 0 1 1 1696.7,885.57Z" style="fill:#0000FF" />
<path d="M1895,872.81A5,5 0 1 1 1885,872.81A5,5 0 1 1 1895,872.81Z" style="fill:#0000FF" />
<path d="M105.46,80.11L303.74,386.98L502.03,472.12L700.31,551.64L898.59,593.28L1096.9,653.28L1295.2,700.63L1493.4,728.3L1691.7,801.72L1890,836.07" style="fill:none;stroke:#00FF00;stroke-width:4" />
<path d="M110.46,80.11A5,5 0 1 1 100.46,80.11A5,5 0 1 1 110.46,80.11Z" style="fill:#00FF00" />
<path d="M308.74,386.98A5,5 0 1 1 298.74,386.98A5,5 0 1 1 308.74,386.98Z" style="fill:#00FF00" />
<path d="M507.03,472.12A5,5 0 1 1 497.03,472.12A5,5 0 1 1 507.03,472.12Z" style="fill:#00FF00" />
<path d="M705.31,551.64A5,5 0 1 1 695.31,551.64A5,5 0 1 1 705.31,551.64Z" style="fill:#00FF00" />
<path d="M903.59,593.28A5,5 0 1 1 893.59,593.28A5,5 0 1 1 903.59,593.28Z" style="fill:#00FF00" />
<path d="M1101.9,653.28A5,5 0 1 1 1091.9,653.28A5,5 0 1 1 1101.9,653.28Z" style="fill:#00FF00" />
<path d="M1300.2,700.63A5,5 0 1 1 1290.2,700.63A5,5 0 1 1 1300.2,700.63Z" style="fill:#00FF00" />
<path d="M1498.4,728.3A5,5 0 1 1 1488.4,728.3A5,5 0 1 1 1498.4,728.3Z" style="fill:#00FF00" />
<path d="M1696.7,801.72A5,5 0 1 1 1686.7,801.72A5,5 0 1 1 1696.7,801.72Z" style="fill:#00FF00" />
<path d="M1895,836.07A5,5 0 1 1 1885,836.07A5,5 0 1 1 1895,836.07Z" style="fill:#00FF00" />
<path d="M1900,126.03L1920,126.03" style="fill:none;stroke:#FF0000;stroke-width:4" />
<path d="M1915,126.03A5,5 0 1 1 1905,126.03A5,5 0 1 1 1915,126.03Z" style="fill:#FF0000" />
<text x="1823.3" y="-121.05" transform="scale(1, -1)"
	style="font-family:Liberation Serif;font-variant:normal;font-weight:normal;font-style:normal;font-size:24px">std::list</text>
<path d="M1900,105.66L1920,105.66" style="fill:none;stroke:#0000FF;stroke-width:4" />
<path d="M1915,105.66A5,5 0 1 1 1905,105.66A5,5 0 1 1 1915,105.66Z" style="fill:#0000FF" />
<text x="1795.4" y="-100.69" transform="scale(1, -1)"
	style="font-family:Liberation Serif;font-variant:normal;font-weight:normal;font-style:normal;font-size:24px">std::deque</text>
<path d="M1900,85.294L1920,85.294" style="fill:none;stroke:#00FF00;stroke-width:4" />
<path d="M1915,85.294A5,5 0 1 1 1905,85.294A5,5 0 1 1 1915,85.294Z" style="fill:#00FF00" />
<text x="1792.7" y="-80.319" transform="scale(1, -1)"
	style="font-family:Liberation Serif;font-variant:normal;font-weight:normal;font-style:normal;font-size:24px">std::vector</text>
</g>
</svg>
