<?xml version="1.0"?>
<!-- Generated by SVGo and Plotinum VG -->
<svg width="1920pt" height="1080pt" viewBox="0 0 1920 1080"
	xmlns="http://www.w3.org/2000/svg"
	xmlns:xlink="http://www.w3.org/1999/xlink">
<g transform="scale(1, -1) translate(0, -1080)">
<path d="M0,0L1920,0L1920,1080L0,1080Z" style="fill:#FFFFFF" />
<text x="678.86" y="-1040.9" transform="scale(1, -1)"
	style="font-family:Liberation Serif;font-variant:normal;font-weight:normal;font-style:normal;font-size:50px">random-remove - Log Scale</text>
<text x="875.27" y="-9.7559" transform="scale(1, -1)"
	style="font-family:Liberation Serif;font-variant:normal;font-weight:normal;font-style:normal;font-size:30px">Number of elements</text>
<text x="80.462" y="-39.727" transform="scale(1, -1)"
	style="font-family:Liberation Serif;font-variant:normal;font-weight:normal;font-style:normal;font-size:20px">10000</text>
<text x="278.74" y="-39.727" transform="scale(1, -1)"
	style="font-family:Liberation Serif;font-variant:normal;font-weight:normal;font-style:normal;font-size:20px">20000</text>
<text x="477.03" y="-39.727" transform="scale(1, -1)"
	style="font-family:Liberation Serif;font-variant:normal;font-weight:normal;font-style:normal;font-size:20px">30000</text>
<text x="675.31" y="-39.727" transform="scale(1, -1)"
	style="font-family:Liberation Serif;font-variant:normal;font-weight:normal;font-style:normal;font-size:20px">40000</text>
<text x="873.59" y="-39.727" transform="scale(1, -1)"
	style="font-family:Liberation Serif;font-variant:normal;font-weight:normal;font-style:normal;font-size:20px">50000</text>
<text x="1071.9" y="-39.727" transform="scale(1, -1)"
	style="font-family:Liberation Serif;font-variant:normal;font-weight:normal;font-style:normal;font-size:20px">60000</text>
<text x="1270.2" y="-39.727" transform="scale(1, -1)"
	style="font-family:Liberation Serif;font-variant:normal;font-weight:normal;font-style:normal;font-size:20px">70000</text>
<text x="1468.4" y="-39.727" transform="scale(1, -1)"
	style="font-family:Liberation Serif;font-variant:normal;font-weight:normal;font-style:normal;font-size:20px">80000</text>
<text x="1666.7" y="-39.727" transform="scale(1, -1)"
	style="font-family:Liberation Serif;font-variant:normal;font-weight:normal;font-style:normal;font-size:20px">90000</text>
<text x="1860" y="-39.727" transform="scale(1, -1)"
	style="font-family:Liberation Serif;font-variant:normal;font-weight:normal;font-style:normal;font-size:20px">100000</text>
<path d="M105.46,55.371L105.46,63.371" style="fill:none;stroke:#000000;stroke-width:0.5" />
<path d="M303.74,55.371L303.74,63.371" style="fill:none;stroke:#000000;stroke-width:0.5" />
<path d="M502.03,55.371L502.03,63.371" style="fill:none;stroke:#000000;stroke-width:0.5" />
<path d="M700.31,55.371L700.31,63.371" style="fill:none;stroke:#000000;stroke-width:0.5" />
<path d="M898.59,55.371L898.59,63.371" style="fill:none;stroke:#000000;stroke-width:0.5" />
<path d="M1096.9,55.371L1096.9,63.371" style="fill:none;stroke:#000000;stroke-width:0.5" />
<path d="M1295.2,55.371L1295.2,63.371" style="fill:none;stroke:#000000;stroke-width:0.5" />
<path d="M1493.4,55.371L1493.4,63.371" style="fill:none;stroke:#000000;stroke-width:0.5" />
<path d="M1691.7,55.371L1691.7,63.371" style="fill:none;stroke:#000000;stroke-width:0.5" />
<path d="M1890,55.371L1890,63.371" style="fill:none;stroke:#000000;stroke-width:0.5" />
<path d="M105.46,63.371L1890,63.371" style="fill:none;stroke:#000000;stroke-width:0.5" />
<g transform="rotate(90)">
<text x="485.87" y="23.467" transform="scale(1, -1)"
	style="font-family:Liberation Serif;font-variant:normal;font-weight:normal;font-style:normal;font-size:30px">log(μs + 1)</text>
</g>
<text x="39.712" y="-472.47" transform="scale(1, -1)"
	style="font-family:Liberation Serif;font-variant:normal;font-weight:normal;font-style:normal;font-size:20px">1000</text>
<text x="39.712" y="-832.67" transform="scale(1, -1)"
	style="font-family:Liberation Serif;font-variant:normal;font-weight:normal;font-style:normal;font-size:20px">3000</text>
<text x="39.712" y="-1000.2" transform="scale(1, -1)"
	style="font-family:Liberation Serif;font-variant:normal;font-weight:normal;font-style:normal;font-size:20px">5000</text>
<path d="M84.712,477.04L92.712,477.04" style="fill:none;stroke:#000000;stroke-width:0.5" />
<path d="M84.712,837.24L92.712,837.24" style="fill:none;stroke:#000000;stroke-width:0.5" />
<path d="M84.712,1004.7L92.712,1004.7" style="fill:none;stroke:#000000;stroke-width:0.5" />
<path d="M88.712,704.3L92.712,704.3" style="fill:none;stroke:#000000;stroke-width:0.5" />
<path d="M88.712,931.56L92.712,931.56" style="fill:none;stroke:#000000;stroke-width:0.5" />
<path d="M92.712,80.11L92.712,1024.6" style="fill:none;stroke:#000000;stroke-width:0.5" />
<path d="M105.46,80.11L105.46,1024.6" style="fill:none;stroke:#808080;stroke-width:0.25" />
<path d="M303.74,80.11L303.74,1024.6" style="fill:none;stroke:#808080;stroke-width:0.25" />
<path d="M502.03,80.11L502.03,1024.6" style="fill:none;stroke:#808080;stroke-width:0.25" />
<path d="M700.31,80.11L700.31,1024.6" style="fill:none;stroke:#808080;stroke-width:0.25" />
<path d="M898.59,80.11L898.59,1024.6" style="fill:none;stroke:#808080;stroke-width:0.25" />
<path d="M1096.9,80.11L1096.9,1024.6" style="fill:none;stroke:#808080;stroke-width:0.25" />
<path d="M1295.2,80.11L1295.2,1024.6" style="fill:none;stroke:#808080;stroke-width:0.25" />
<path d="M1493.4,80.11L1493.4,1024.6" style="fill:none;stroke:#808080;stroke-width:0.25" />
<path d="M1691.7,80.11L1691.7,1024.6" style="fill:none;stroke:#808080;stroke-width:0.25" />
<path d="M1890,80.11L1890,1024.6" style="fill:none;stroke:#808080;stroke-width:0.25" />
<path d="M105.46,477.04L1890,477.04" style="fill:none;stroke:#808080;stroke-width:0.25" />
<path d="M105.46,837.24L1890,837.24" style="fill:none;stroke:#808080;stroke-width:0.25" />
<path d="M105.46,1004.7L1890,1004.7" style="fill:none;stroke:#808080;stroke-width:0.25" />
<path d="M105.46,99.339L303.74,322.95L502.03,482.25L700.31,556.95L898.59,568.57L1096.9,649.66L1295.2,698.85L1493.4,742.77L1691.7,786.77L1890,772.44" style="fill:none;stroke:#FF0000;stroke-width:4" />
<path d="M110.46,99.339A5,5 0 1 1 100.46,99.339A5,5 0 1 1 110.46,99.339Z" style="fill:#FF0000" />
<path d="M308.74,322.95A5,5 0 1 1 298.74,322.95A5,5 0 1 1 308.74,322.95Z" style="fill:#FF0000" />
<path d="M507.03,482.25A5,5 0 1 1 497.03,482.25A5,5 0 1 1 507.03,482.25Z" style="fill:#FF0000" />
<path d="M705.31,556.95A5,5 0 1 1 695.31,556.95A5,5 0 1 1 705.31,556.95Z" style="fill:#FF0000" />
<path d="M903.59,568.57A5,5 0 1 1 893.59,568.57A5,5 0 1 1 903.59,568.57Z" style="fill:#FF0000" />
<path d="M1101.9,649.66A5,5 0 1 1 1091.9,649.66A5,5 0 1 1 1101.9,649.66Z" style="fill:#FF0000" />
<path d="M1300.2,698.85A5,5 0 1 1 1290.2,698.85A5,5 0 1 1 1300.2,698.85Z" style="fill:#FF0000" />
<path d="M1498.4,742.77A5,5 0 1 1 1488.4,742.77A5,5 0 1 1 1498.4,742.77Z" style="fill:#FF0000" />
<path d="M1696.7,786.77A5,5 0 1 1 1686.7,786.77A5,5 0 1 1 1696.7,786.77Z" style="fill:#FF0000" />
<path d="M1895,772.44A5,5 0 1 1 1885,772.44A5,5 0 1 1 1895,772.44Z" style="fill:#FF0000" />
<path d="M105.46,80.11L303.74,258.2L502.03,377.43L700.31,446.48L898.59,521.44L1096.9,598.41L1295.2,656.75L1493.4,686.1L1691.7,709.02L1890,763.4" style="fill:none;stroke:#0000FF;stroke-width:4" />
<path d="M110.46,80.11A5,5 0 1 1 100.46,80.11A5,5 0 1 1 110.46,80.11Z" style="fill:#0000FF" />
<path d="M308.74,258.2A5,5 0 1 1 298.74,258.2A5,5 0 1 1 308.74,258.2Z" style="fill:#0000FF" />
<path d="M507.03,377.43A5,5 0 1 1 497.03,377.43A5,5 0 1 1 507.03,377.43Z" style="fill:#0000FF" />
<path d="M705.31,446.48A5,5 0 1 1 695.31,446.48A5,5 0 1 1 705.31,446.48Z" style="fill:#0000FF" />
<path d="M903.59,521.44A5,5 0 1 1 893.59,521.44A5,5 0 1 1 903.59,521.44Z" style="fill:#0000FF" />
<path d="M1101.9,598.41A5,5 0 1 1 1091.9,598.41A5,5 0 1 1 1101.9,598.41Z" style="fill:#0000FF" />
<path d="M1300.2,656.75A5,5 0 1 1 1290.2,656.75A5,5 0 1 1 1300.2,656.75Z" style="fill:#0000FF" />
<path d="M1498.4,686.1A5,5 0 1 1 1488.4,686.1A5,5 0 1 1 1498.4,686.1Z" style="fill:#0000FF" />
<path d="M1696.7,709.02A5,5 0 1 1 1686.7,709.02A5,5 0 1 1 1696.7,709.02Z" style="fill:#0000FF" />
<path d="M1895,763.4A5,5 0 1 1 1885,763.4A5,5 0 1 1 1895,763.4Z" style="fill:#0000FF" />
<path d="M105.46,310.65L303.74,463.66L502.03,587.13L700.31,621.79L898.59,654.09L1096.9,744.81L1295.2,800.87L1493.4,834.17L1691.7,903.6L1890,993.45" style="fill:none;stroke:#00FF00;stroke-width:4" />
<path d="M110.46,310.65A5,5 0 1 1 100.46,310.65A5,5 0 1 1 110.46,310.65Z" style="fill:#00FF00" />
<path d="M308.74,463.66A5,5 0 1 1 298.74,463.66A5,5 0 1 1 308.74,463.66Z" style="fill:#00FF00" />
<path d="M507.03,587.13A5,5 0 1 1 497.03,587.13A5,5 0 1 1 507.03,587.13Z" style="fill:#00FF00" />
<path d="M705.31,621.79A5,5 0 1 1 695.31,621.79A5,5 0 1 1 705.31,621.79Z" style="fill:#00FF00" />
<path d="M903.59,654.09A5,5 0 1 1 893.59,654.09A5,5 0 1 1 903.59,654.09Z" style="fill:#00FF00" />
<path d="M1101.9,744.81A5,5 0 1 1 1091.9,744.81A5,5 0 1 1 1101.9,744.81Z" style="fill:#00FF00" />
<path d="M1300.2,800.87A5,5 0 1 1 1290.2,800.87A5,5 0 1 1 1300.2,800.87Z" style="fill:#00FF00" />
<path d="M1498.4,834.17A5,5 0 1 1 1488.4,834.17A5,5 0 1 1 1498.4,834.17Z" style="fill:#00FF00" />
<path d="M1696.7,903.6A5,5 0 1 1 1686.7,903.6A5,5 0 1 1 1696.7,903.6Z" style="fill:#00FF00" />
<path d="M1895,993.45A5,5 0 1 1 1885,993.45A5,5 0 1 1 1895,993.45Z" style="fill:#00FF00" />
<path d="M1900,126.03L1920,126.03" style="fill:none;stroke:#FF0000;stroke-width:4" />
<path d="M1915,126.03A5,5 0 1 1 1905,126.03A5,5 0 1 1 1915,126.03Z" style="fill:#FF0000" />
<text x="1795.4" y="-121.05" transform="scale(1, -1)"
	style="font-family:Liberation Serif;font-variant:normal;font-weight:normal;font-style:normal;font-size:24px">std::deque</text>
<path d="M1900,105.66L1920,105.66" style="fill:none;stroke:#0000FF;stroke-width:4" />
<path d="M1915,105.66A5,5 0 1 1 1905,105.66A5,5 0 1 1 1915,105.66Z" style="fill:#0000FF" />
<text x="1792.7" y="-100.69" transform="scale(1, -1)"
	style="font-family:Liberation Serif;font-variant:normal;font-weight:normal;font-style:normal;font-size:24px">std::vector</text>
<path d="M1900,85.294L1920,85.294" style="fill:none;stroke:#00FF00;stroke-width:4" />
<path d="M1915,85.294A5,5 0 1 1 1905,85.294A5,5 0 1 1 1915,85.294Z" style="fill:#00FF00" />
<text x="1823.3" y="-80.319" transform="scale(1, -1)"
	style="font-family:Liberation Serif;font-variant:normal;font-weight:normal;font-style:normal;font-size:24px">std::list</text>
</g>
</svg>
