<?xml version="1.0"?>
<!-- Generated by SVGo and Plotinum VG -->
<svg width="1920pt" height="1080pt" viewBox="0 0 1920 1080"
	xmlns="http://www.w3.org/2000/svg"
	xmlns:xlink="http://www.w3.org/1999/xlink">
<g transform="scale(1, -1) translate(0, -1080)">
<path d="M0,0L1920,0L1920,1080L0,1080Z" style="fill:#FFFFFF" />
<text x="678.86" y="-1040.9" transform="scale(1, -1)"
	style="font-family:Liberation Serif;font-variant:normal;font-weight:normal;font-style:normal;font-size:50px">random-remove - Log Scale</text>
<text x="875.27" y="-9.7559" transform="scale(1, -1)"
	style="font-family:Liberation Serif;font-variant:normal;font-weight:normal;font-style:normal;font-size:30px">Number of elements</text>
<text x="80.462" y="-39.727" transform="scale(1, -1)"
	style="font-family:Liberation Serif;font-variant:normal;font-weight:normal;font-style:normal;font-size:20px">10000</text>
<text x="278.74" y="-39.727" transform="scale(1, -1)"
	style="font-family:Liberation Serif;font-variant:normal;font-weight:normal;font-style:normal;font-size:20px">20000</text>
<text x="477.03" y="-39.727" transform="scale(1, -1)"
	style="font-family:Liberation Serif;font-variant:normal;font-weight:normal;font-style:normal;font-size:20px">30000</text>
<text x="675.31" y="-39.727" transform="scale(1, -1)"
	style="font-family:Liberation Serif;font-variant:normal;font-weight:normal;font-style:normal;font-size:20px">40000</text>
<text x="873.59" y="-39.727" transform="scale(1, -1)"
	style="font-family:Liberation Serif;font-variant:normal;font-weight:normal;font-style:normal;font-size:20px">50000</text>
<text x="1071.9" y="-39.727" transform="scale(1, -1)"
	style="font-family:Liberation Serif;font-variant:normal;font-weight:normal;font-style:normal;font-size:20px">60000</text>
<text x="1270.2" y="-39.727" transform="scale(1, -1)"
	style="font-family:Liberation Serif;font-variant:normal;font-weight:normal;font-style:normal;font-size:20px">70000</text>
<text x="1468.4" y="-39.727" transform="scale(1, -1)"
	style="font-family:Liberation Serif;font-variant:normal;font-weight:normal;font-style:normal;font-size:20px">80000</text>
<text x="1666.7" y="-39.727" transform="scale(1, -1)"
	style="font-family:Liberation Serif;font-variant:normal;font-weight:normal;font-style:normal;font-size:20px">90000</text>
<text x="1860" y="-39.727" transform="scale(1, -1)"
	style="font-family:Liberation Serif;font-variant:normal;font-weight:normal;font-style:normal;font-size:20px">100000</text>
<path d="M105.46,55.371L105.46,63.371" style="fill:none;stroke:#000000;stroke-width:0.5" />
<path d="M303.74,55.371L303.74,63.371" style="fill:none;stroke:#000000;stroke-width:0.5" />
<path d="M502.03,55.371L502.03,63.371" style="fill:none;stroke:#000000;stroke-width:0.5" />
<path d="M700.31,55.371L700.31,63.371" style="fill:none;stroke:#000000;stroke-width:0.5" />
<path d="M898.59,55.371L898.59,63.371" style="fill:none;stroke:#000000;stroke-width:0.5" />
<path d="M1096.9,55.371L1096.9,63.371" style="fill:none;stroke:#000000;stroke-width:0.5" />
<path d="M1295.2,55.371L1295.2,63.371" style="fill:none;stroke:#000000;stroke-width:0.5" />
<path d="M1493.4,55.371L1493.4,63.371" style="fill:none;stroke:#000000;stroke-width:0.5" />
<path d="M1691.7,55.371L1691.7,63.371" style="fill:none;stroke:#000000;stroke-width:0.5" />
<path d="M1890,55.371L1890,63.371" style="fill:none;stroke:#000000;stroke-width:0.5" />
<path d="M105.46,63.371L1890,63.371" style="fill:none;stroke:#000000;stroke-width:0.5" />
<g transform="rotate(90)">
<text x="485.12" y="23.467" transform="scale(1, -1)"
	style="font-family:Liberation Serif;font-variant:normal;font-weight:normal;font-style:normal;font-size:30px">log(μs + 1)</text>
</g>
<text x="39.712" y="-465.58" transform="scale(1, -1)"
	style="font-family:Liberation Serif;font-variant:normal;font-weight:normal;font-style:normal;font-size:20px">1000</text>
<text x="39.712" y="-836.51" transform="scale(1, -1)"
	style="font-family:Liberation Serif;font-variant:normal;font-weight:normal;font-style:normal;font-size:20px">3000</text>
<text x="39.712" y="-1009" transform="scale(1, -1)"
	style="font-family:Liberation Serif;font-variant:normal;font-weight:normal;font-style:normal;font-size:20px">5000</text>
<path d="M84.712,470.15L92.712,470.15" style="fill:none;stroke:#000000;stroke-width:0.5" />
<path d="M84.712,841.08L92.712,841.08" style="fill:none;stroke:#000000;stroke-width:0.5" />
<path d="M84.712,1013.6L92.712,1013.6" style="fill:none;stroke:#000000;stroke-width:0.5" />
<path d="M88.712,704.18L92.712,704.18" style="fill:none;stroke:#000000;stroke-width:0.5" />
<path d="M88.712,938.21L92.712,938.21" style="fill:none;stroke:#000000;stroke-width:0.5" />
<path d="M92.712,80.11L92.712,1023.1" style="fill:none;stroke:#000000;stroke-width:0.5" />
<path d="M105.46,80.11L105.46,1023.1" style="fill:none;stroke:#808080;stroke-width:0.25" />
<path d="M303.74,80.11L303.74,1023.1" style="fill:none;stroke:#808080;stroke-width:0.25" />
<path d="M502.03,80.11L502.03,1023.1" style="fill:none;stroke:#808080;stroke-width:0.25" />
<path d="M700.31,80.11L700.31,1023.1" style="fill:none;stroke:#808080;stroke-width:0.25" />
<path d="M898.59,80.11L898.59,1023.1" style="fill:none;stroke:#808080;stroke-width:0.25" />
<path d="M1096.9,80.11L1096.9,1023.1" style="fill:none;stroke:#808080;stroke-width:0.25" />
<path d="M1295.2,80.11L1295.2,1023.1" style="fill:none;stroke:#808080;stroke-width:0.25" />
<path d="M1493.4,80.11L1493.4,1023.1" style="fill:none;stroke:#808080;stroke-width:0.25" />
<path d="M1691.7,80.11L1691.7,1023.1" style="fill:none;stroke:#808080;stroke-width:0.25" />
<path d="M1890,80.11L1890,1023.1" style="fill:none;stroke:#808080;stroke-width:0.25" />
<path d="M105.46,470.15L1890,470.15" style="fill:none;stroke:#808080;stroke-width:0.25" />
<path d="M105.46,841.08L1890,841.08" style="fill:none;stroke:#808080;stroke-width:0.25" />
<path d="M105.46,1013.6L1890,1013.6" style="fill:none;stroke:#808080;stroke-width:0.25" />
<path d="M105.46,293.14L303.74,525.74L502.03,581.33L700.31,754.29L898.59,721.29L1096.9,770.35L1295.2,881.35L1493.4,890.22L1691.7,917.86L1890,991.01" style="fill:none;stroke:#FF0000;stroke-width:4" />
<path d="M110.46,293.14A5,5 0 1 1 100.46,293.14A5,5 0 1 1 110.46,293.14Z" style="fill:#FF0000" />
<path d="M308.74,525.74A5,5 0 1 1 298.74,525.74A5,5 0 1 1 308.74,525.74Z" style="fill:#FF0000" />
<path d="M507.03,581.33A5,5 0 1 1 497.03,581.33A5,5 0 1 1 507.03,581.33Z" style="fill:#FF0000" />
<path d="M705.31,754.29A5,5 0 1 1 695.31,754.29A5,5 0 1 1 705.31,754.29Z" style="fill:#FF0000" />
<path d="M903.59,721.29A5,5 0 1 1 893.59,721.29A5,5 0 1 1 903.59,721.29Z" style="fill:#FF0000" />
<path d="M1101.9,770.35A5,5 0 1 1 1091.9,770.35A5,5 0 1 1 1101.9,770.35Z" style="fill:#FF0000" />
<path d="M1300.2,881.35A5,5 0 1 1 1290.2,881.35A5,5 0 1 1 1300.2,881.35Z" style="fill:#FF0000" />
<path d="M1498.4,890.22A5,5 0 1 1 1488.4,890.22A5,5 0 1 1 1498.4,890.22Z" style="fill:#FF0000" />
<path d="M1696.7,917.86A5,5 0 1 1 1686.7,917.86A5,5 0 1 1 1696.7,917.86Z" style="fill:#FF0000" />
<path d="M1895,991.01A5,5 0 1 1 1885,991.01A5,5 0 1 1 1895,991.01Z" style="fill:#FF0000" />
<path d="M105.46,174.01L303.74,374.36L502.03,499.24L700.31,561.06L898.59,626.72L1096.9,765.74L1295.2,847.77L1493.4,866.33L1691.7,885.52L1890,872.75" style="fill:none;stroke:#0000FF;stroke-width:4" />
<path d="M110.46,174.01A5,5 0 1 1 100.46,174.01A5,5 0 1 1 110.46,174.01Z" style="fill:#0000FF" />
<path d="M308.74,374.36A5,5 0 1 1 298.74,374.36A5,5 0 1 1 308.74,374.36Z" style="fill:#0000FF" />
<path d="M507.03,499.24A5,5 0 1 1 497.03,499.24A5,5 0 1 1 507.03,499.24Z" style="fill:#0000FF" />
<path d="M705.31,561.06A5,5 0 1 1 695.31,561.06A5,5 0 1 1 705.31,561.06Z" style="fill:#0000FF" />
<path d="M903.59,626.72A5,5 0 1 1 893.59,626.72A5,5 0 1 1 903.59,626.72Z" style="fill:#0000FF" />
<path d="M1101.9,765.74A5,5 0 1 1 1091.9,765.74A5,5 0 1 1 1101.9,765.74Z" style="fill:#0000FF" />
<path d="M1300.2,847.77A5,5 0 1 1 1290.2,847.77A5,5 0 1 1 1300.2,847.77Z" style="fill:#0000FF" />
<path d="M1498.4,866.33A5,5 0 1 1 1488.4,866.33A5,5 0 1 1 1498.4,866.33Z" style="fill:#0000FF" />
<path d="M1696.7,885.52A5,5 0 1 1 1686.7,885.52A5,5 0 1 1 1696.7,885.52Z" style="fill:#0000FF" />
<path d="M1895,872.75A5,5 0 1 1 1885,872.75A5,5 0 1 1 1895,872.75Z" style="fill:#0000FF" />
<path d="M105.46,80.11L303.74,386.69L502.03,471.83L700.31,551.38L898.59,593.03L1096.9,653.06L1295.2,700.44L1493.4,728.13L1691.7,801.61L1890,835.98" style="fill:none;stroke:#00FF00;stroke-width:4" />
<path d="M110.46,80.11A5,5 0 1 1 100.46,80.11A5,5 0 1 1 110.46,80.11Z" style="fill:#00FF00" />
<path d="M308.74,386.69A5,5 0 1 1 298.74,386.69A5,5 0 1 1 308.74,386.69Z" style="fill:#00FF00" />
<path d="M507.03,471.83A5,5 0 1 1 497.03,471.83A5,5 0 1 1 507.03,471.83Z" style="fill:#00FF00" />
<path d="M705.31,551.38A5,5 0 1 1 695.31,551.38A5,5 0 1 1 705.31,551.38Z" style="fill:#00FF00" />
<path d="M903.59,593.03A5,5 0 1 1 893.59,593.03A5,5 0 1 1 903.59,593.03Z" style="fill:#00FF00" />
<path d="M1101.9,653.06A5,5 0 1 1 1091.9,653.06A5,5 0 1 1 1101.9,653.06Z" style="fill:#00FF00" />
<path d="M1300.2,700.44A5,5 0 1 1 1290.2,700.44A5,5 0 1 1 1300.2,700.44Z" style="fill:#00FF00" />
<path d="M1498.4,728.13A5,5 0 1 1 1488.4,728.13A5,5 0 1 1 1498.4,728.13Z" style="fill:#00FF00" />
<path d="M1696.7,801.61A5,5 0 1 1 1686.7,801.61A5,5 0 1 1 1696.7,801.61Z" style="fill:#00FF00" />
<path d="M1895,835.98A5,5 0 1 1 1885,835.98A5,5 0 1 1 1895,835.98Z" style="fill:#00FF00" />
<path d="M1900,126.03L1920,126.03" style="fill:none;stroke:#FF0000;stroke-width:4" />
<path d="M1915,126.03A5,5 0 1 1 1905,126.03A5,5 0 1 1 1915,126.03Z" style="fill:#FF0000" />
<text x="1823.3" y="-121.05" transform="scale(1, -1)"
	style="font-family:Liberation Serif;font-variant:normal;font-weight:normal;font-style:normal;font-size:24px">std::list</text>
<path d="M1900,105.66L1920,105.66" style="fill:none;stroke:#0000FF;stroke-width:4" />
<path d="M1915,105.66A5,5 0 1 1 1905,105.66A5,5 0 1 1 1915,105.66Z" style="fill:#0000FF" />
<text x="1795.4" y="-100.69" transform="scale(1, -1)"
	style="font-family:Liberation Serif;font-variant:normal;font-weight:normal;font-style:normal;font-size:24px">std::deque</text>
<path d="M1900,85.294L1920,85.294" style="fill:none;stroke:#00FF00;stroke-width:4" />
<path d="M1915,85.294A5,5 0 1 1 1905,85.294A5,5 0 1 1 1915,85.294Z" style="fill:#00FF00" />
<text x="1792.7" y="-80.319" transform="scale(1, -1)"
	style="font-family:Liberation Serif;font-variant:normal;font-weight:normal;font-style:normal;font-size:24px">std::vector</text>
</g>
</svg>
