<?xml version="1.0"?>
<!-- Generated by SVGo and Plotinum VG -->
<svg width="1920pt" height="1080pt" viewBox="0 0 1920 1080"
	xmlns="http://www.w3.org/2000/svg"
	xmlns:xlink="http://www.w3.org/1999/xlink">
<g transform="scale(1, -1) translate(0, -1080)">
<path d="M0,0L1920,0L1920,1080L0,1080Z" style="fill:#FFFFFF" />
<text x="678.86" y="-1040.9" transform="scale(1, -1)"
	style="font-family:Liberation Serif;font-variant:normal;font-weight:normal;font-style:normal;font-size:50px">random-remove - Log Scale</text>
<text x="875.27" y="-9.7559" transform="scale(1, -1)"
	style="font-family:Liberation Serif;font-variant:normal;font-weight:normal;font-style:normal;font-size:30px">Number of elements</text>
<text x="80.462" y="-39.727" transform="scale(1, -1)"
	style="font-family:Liberation Serif;font-variant:normal;font-weight:normal;font-style:normal;font-size:20px">10000</text>
<text x="278.74" y="-39.727" transform="scale(1, -1)"
	style="font-family:Liberation Serif;font-variant:normal;font-weight:normal;font-style:normal;font-size:20px">20000</text>
<text x="477.03" y="-39.727" transform="scale(1, -1)"
	style="font-family:Liberation Serif;font-variant:normal;font-weight:normal;font-style:normal;font-size:20px">30000</text>
<text x="675.31" y="-39.727" transform="scale(1, -1)"
	style="font-family:Liberation Serif;font-variant:normal;font-weight:normal;font-style:normal;font-size:20px">40000</text>
<text x="873.59" y="-39.727" transform="scale(1, -1)"
	style="font-family:Liberation Serif;font-variant:normal;font-weight:normal;font-style:normal;font-size:20px">50000</text>
<text x="1071.9" y="-39.727" transform="scale(1, -1)"
	style="font-family:Liberation Serif;font-variant:normal;font-weight:normal;font-style:normal;font-size:20px">60000</text>
<text x="1270.2" y="-39.727" transform="scale(1, -1)"
	style="font-family:Liberation Serif;font-variant:normal;font-weight:normal;font-style:normal;font-size:20px">70000</text>
<text x="1468.4" y="-39.727" transform="scale(1, -1)"
	style="font-family:Liberation Serif;font-variant:normal;font-weight:normal;font-style:normal;font-size:20px">80000</text>
<text x="1666.7" y="-39.727" transform="scale(1, -1)"
	style="font-family:Liberation Serif;font-variant:normal;font-weight:normal;font-style:normal;font-size:20px">90000</text>
<text x="1860" y="-39.727" transform="scale(1, -1)"
	style="font-family:Liberation Serif;font-variant:normal;font-weight:normal;font-style:normal;font-size:20px">100000</text>
<path d="M105.46,55.371L105.46,63.371" style="fill:none;stroke:#000000;stroke-width:0.5" />
<path d="M303.74,55.371L303.74,63.371" style="fill:none;stroke:#000000;stroke-width:0.5" />
<path d="M502.03,55.371L502.03,63.371" style="fill:none;stroke:#000000;stroke-width:0.5" />
<path d="M700.31,55.371L700.31,63.371" style="fill:none;stroke:#000000;stroke-width:0.5" />
<path d="M898.59,55.371L898.59,63.371" style="fill:none;stroke:#000000;stroke-width:0.5" />
<path d="M1096.9,55.371L1096.9,63.371" style="fill:none;stroke:#000000;stroke-width:0.5" />
<path d="M1295.2,55.371L1295.2,63.371" style="fill:none;stroke:#000000;stroke-width:0.5" />
<path d="M1493.4,55.371L1493.4,63.371" style="fill:none;stroke:#000000;stroke-width:0.5" />
<path d="M1691.7,55.371L1691.7,63.371" style="fill:none;stroke:#000000;stroke-width:0.5" />
<path d="M1890,55.371L1890,63.371" style="fill:none;stroke:#000000;stroke-width:0.5" />
<path d="M105.46,63.371L1890,63.371" style="fill:none;stroke:#000000;stroke-width:0.5" />
<g transform="rotate(90)">
<text x="504.57" y="23.467" transform="scale(1, -1)"
	style="font-family:Liberation Serif;font-variant:normal;font-weight:normal;font-style:normal;font-size:30px">log(μs)</text>
</g>
<text x="39.712" y="-538.24" transform="scale(1, -1)"
	style="font-family:Liberation Serif;font-variant:normal;font-weight:normal;font-style:normal;font-size:20px">1000</text>
<text x="39.712" y="-773.61" transform="scale(1, -1)"
	style="font-family:Liberation Serif;font-variant:normal;font-weight:normal;font-style:normal;font-size:20px">2000</text>
<text x="39.712" y="-911.3" transform="scale(1, -1)"
	style="font-family:Liberation Serif;font-variant:normal;font-weight:normal;font-style:normal;font-size:20px">3000</text>
<text x="39.712" y="-1009" transform="scale(1, -1)"
	style="font-family:Liberation Serif;font-variant:normal;font-weight:normal;font-style:normal;font-size:20px">4000</text>
<path d="M84.712,542.81L92.712,542.81" style="fill:none;stroke:#000000;stroke-width:0.5" />
<path d="M84.712,778.18L92.712,778.18" style="fill:none;stroke:#000000;stroke-width:0.5" />
<path d="M84.712,915.87L92.712,915.87" style="fill:none;stroke:#000000;stroke-width:0.5" />
<path d="M84.712,1013.6L92.712,1013.6" style="fill:none;stroke:#000000;stroke-width:0.5" />
<path d="M88.712,231.66L92.712,231.66" style="fill:none;stroke:#000000;stroke-width:0.5" />
<path d="M88.712,369.34L92.712,369.34" style="fill:none;stroke:#000000;stroke-width:0.5" />
<path d="M88.712,467.03L92.712,467.03" style="fill:none;stroke:#000000;stroke-width:0.5" />
<path d="M88.712,604.72L92.712,604.72" style="fill:none;stroke:#000000;stroke-width:0.5" />
<path d="M88.712,657.06L92.712,657.06" style="fill:none;stroke:#000000;stroke-width:0.5" />
<path d="M88.712,702.41L92.712,702.41" style="fill:none;stroke:#000000;stroke-width:0.5" />
<path d="M88.712,742.4L92.712,742.4" style="fill:none;stroke:#000000;stroke-width:0.5" />
<path d="M88.712,810.55L92.712,810.55" style="fill:none;stroke:#000000;stroke-width:0.5" />
<path d="M88.712,840.09L92.712,840.09" style="fill:none;stroke:#000000;stroke-width:0.5" />
<path d="M88.712,867.27L92.712,867.27" style="fill:none;stroke:#000000;stroke-width:0.5" />
<path d="M88.712,892.44L92.712,892.44" style="fill:none;stroke:#000000;stroke-width:0.5" />
<path d="M88.712,937.78L92.712,937.78" style="fill:none;stroke:#000000;stroke-width:0.5" />
<path d="M88.712,958.37L92.712,958.37" style="fill:none;stroke:#000000;stroke-width:0.5" />
<path d="M88.712,977.78L92.712,977.78" style="fill:none;stroke:#000000;stroke-width:0.5" />
<path d="M88.712,996.14L92.712,996.14" style="fill:none;stroke:#000000;stroke-width:0.5" />
<path d="M92.712,80.11L92.712,1015.1" style="fill:none;stroke:#000000;stroke-width:0.5" />
<path d="M105.46,80.11L105.46,1015.1" style="fill:none;stroke:#808080;stroke-width:0.25" />
<path d="M303.74,80.11L303.74,1015.1" style="fill:none;stroke:#808080;stroke-width:0.25" />
<path d="M502.03,80.11L502.03,1015.1" style="fill:none;stroke:#808080;stroke-width:0.25" />
<path d="M700.31,80.11L700.31,1015.1" style="fill:none;stroke:#808080;stroke-width:0.25" />
<path d="M898.59,80.11L898.59,1015.1" style="fill:none;stroke:#808080;stroke-width:0.25" />
<path d="M1096.9,80.11L1096.9,1015.1" style="fill:none;stroke:#808080;stroke-width:0.25" />
<path d="M1295.2,80.11L1295.2,1015.1" style="fill:none;stroke:#808080;stroke-width:0.25" />
<path d="M1493.4,80.11L1493.4,1015.1" style="fill:none;stroke:#808080;stroke-width:0.25" />
<path d="M1691.7,80.11L1691.7,1015.1" style="fill:none;stroke:#808080;stroke-width:0.25" />
<path d="M1890,80.11L1890,1015.1" style="fill:none;stroke:#808080;stroke-width:0.25" />
<path d="M105.46,542.81L1890,542.81" style="fill:none;stroke:#808080;stroke-width:0.25" />
<path d="M105.46,778.18L1890,778.18" style="fill:none;stroke:#808080;stroke-width:0.25" />
<path d="M105.46,915.87L1890,915.87" style="fill:none;stroke:#808080;stroke-width:0.25" />
<path d="M105.46,1013.6L1890,1013.6" style="fill:none;stroke:#808080;stroke-width:0.25" />
<path d="M105.46,80.11L303.74,362.48L502.03,502.09L700.31,558.73L898.59,589.97L1096.9,627.69L1295.2,691.84L1493.4,784.24L1691.7,790.68L1890,849.58" style="fill:none;stroke:#FF0000;stroke-width:4" />
<path d="M110.46,80.11A5,5 0 1 1 100.46,80.11A5,5 0 1 1 110.46,80.11Z" style="fill:#FF0000" />
<path d="M308.74,362.48A5,5 0 1 1 298.74,362.48A5,5 0 1 1 308.74,362.48Z" style="fill:#FF0000" />
<path d="M507.03,502.09A5,5 0 1 1 497.03,502.09A5,5 0 1 1 507.03,502.09Z" style="fill:#FF0000" />
<path d="M705.31,558.73A5,5 0 1 1 695.31,558.73A5,5 0 1 1 705.31,558.73Z" style="fill:#FF0000" />
<path d="M903.59,589.97A5,5 0 1 1 893.59,589.97A5,5 0 1 1 903.59,589.97Z" style="fill:#FF0000" />
<path d="M1101.9,627.69A5,5 0 1 1 1091.9,627.69A5,5 0 1 1 1101.9,627.69Z" style="fill:#FF0000" />
<path d="M1300.2,691.84A5,5 0 1 1 1290.2,691.84A5,5 0 1 1 1300.2,691.84Z" style="fill:#FF0000" />
<path d="M1498.4,784.24A5,5 0 1 1 1488.4,784.24A5,5 0 1 1 1498.4,784.24Z" style="fill:#FF0000" />
<path d="M1696.7,790.68A5,5 0 1 1 1686.7,790.68A5,5 0 1 1 1696.7,790.68Z" style="fill:#FF0000" />
<path d="M1895,849.58A5,5 0 1 1 1885,849.58A5,5 0 1 1 1895,849.58Z" style="fill:#FF0000" />
<path d="M105.46,163.23L303.74,389.13L502.03,498.62L700.31,547.19L898.59,677.54L1096.9,694.68L1295.2,781.9L1493.4,786.57L1691.7,871.04L1890,904.35" style="fill:none;stroke:#0000FF;stroke-width:4" />
<path d="M110.46,163.23A5,5 0 1 1 100.46,163.23A5,5 0 1 1 110.46,163.23Z" style="fill:#0000FF" />
<path d="M308.74,389.13A5,5 0 1 1 298.74,389.13A5,5 0 1 1 308.74,389.13Z" style="fill:#0000FF" />
<path d="M507.03,498.62A5,5 0 1 1 497.03,498.62A5,5 0 1 1 507.03,498.62Z" style="fill:#0000FF" />
<path d="M705.31,547.19A5,5 0 1 1 695.31,547.19A5,5 0 1 1 705.31,547.19Z" style="fill:#0000FF" />
<path d="M903.59,677.54A5,5 0 1 1 893.59,677.54A5,5 0 1 1 903.59,677.54Z" style="fill:#0000FF" />
<path d="M1101.9,694.68A5,5 0 1 1 1091.9,694.68A5,5 0 1 1 1101.9,694.68Z" style="fill:#0000FF" />
<path d="M1300.2,781.9A5,5 0 1 1 1290.2,781.9A5,5 0 1 1 1300.2,781.9Z" style="fill:#0000FF" />
<path d="M1498.4,786.57A5,5 0 1 1 1488.4,786.57A5,5 0 1 1 1498.4,786.57Z" style="fill:#0000FF" />
<path d="M1696.7,871.04A5,5 0 1 1 1686.7,871.04A5,5 0 1 1 1696.7,871.04Z" style="fill:#0000FF" />
<path d="M1895,904.35A5,5 0 1 1 1885,904.35A5,5 0 1 1 1895,904.35Z" style="fill:#0000FF" />
<path d="M105.46,280.59L303.74,515.23L502.03,556.12L700.31,694.68L898.59,742.97L1096.9,782.4L1295.2,892.56L1493.4,880.46L1691.7,945.54L1890,982.74" style="fill:none;stroke:#00FF00;stroke-width:4" />
<path d="M110.46,280.59A5,5 0 1 1 100.46,280.59A5,5 0 1 1 110.46,280.59Z" style="fill:#00FF00" />
<path d="M308.74,515.23A5,5 0 1 1 298.74,515.23A5,5 0 1 1 308.74,515.23Z" style="fill:#00FF00" />
<path d="M507.03,556.12A5,5 0 1 1 497.03,556.12A5,5 0 1 1 507.03,556.12Z" style="fill:#00FF00" />
<path d="M705.31,694.68A5,5 0 1 1 695.31,694.68A5,5 0 1 1 705.31,694.68Z" style="fill:#00FF00" />
<path d="M903.59,742.97A5,5 0 1 1 893.59,742.97A5,5 0 1 1 903.59,742.97Z" style="fill:#00FF00" />
<path d="M1101.9,782.4A5,5 0 1 1 1091.9,782.4A5,5 0 1 1 1101.9,782.4Z" style="fill:#00FF00" />
<path d="M1300.2,892.56A5,5 0 1 1 1290.2,892.56A5,5 0 1 1 1300.2,892.56Z" style="fill:#00FF00" />
<path d="M1498.4,880.46A5,5 0 1 1 1488.4,880.46A5,5 0 1 1 1498.4,880.46Z" style="fill:#00FF00" />
<path d="M1696.7,945.54A5,5 0 1 1 1686.7,945.54A5,5 0 1 1 1696.7,945.54Z" style="fill:#00FF00" />
<path d="M1895,982.74A5,5 0 1 1 1885,982.74A5,5 0 1 1 1895,982.74Z" style="fill:#00FF00" />
<path d="M1900,126.03L1920,126.03" style="fill:none;stroke:#FF0000;stroke-width:4" />
<path d="M1915,126.03A5,5 0 1 1 1905,126.03A5,5 0 1 1 1915,126.03Z" style="fill:#FF0000" />
<text x="1795.4" y="-121.05" transform="scale(1, -1)"
	style="font-family:Liberation Serif;font-variant:normal;font-weight:normal;font-style:normal;font-size:24px">std::deque</text>
<path d="M1900,105.66L1920,105.66" style="fill:none;stroke:#0000FF;stroke-width:4" />
<path d="M1915,105.66A5,5 0 1 1 1905,105.66A5,5 0 1 1 1915,105.66Z" style="fill:#0000FF" />
<text x="1792.7" y="-100.69" transform="scale(1, -1)"
	style="font-family:Liberation Serif;font-variant:normal;font-weight:normal;font-style:normal;font-size:24px">std::vector</text>
<path d="M1900,85.294L1920,85.294" style="fill:none;stroke:#00FF00;stroke-width:4" />
<path d="M1915,85.294A5,5 0 1 1 1905,85.294A5,5 0 1 1 1915,85.294Z" style="fill:#00FF00" />
<text x="1823.3" y="-80.319" transform="scale(1, -1)"
	style="font-family:Liberation Serif;font-variant:normal;font-weight:normal;font-style:normal;font-size:24px">std::list</text>
</g>
</svg>
