<?xml version="1.0"?>
<!-- Generated by SVGo and Plotinum VG -->
<svg width="1920pt" height="1080pt" viewBox="0 0 1920 1080"
	xmlns="http://www.w3.org/2000/svg"
	xmlns:xlink="http://www.w3.org/1999/xlink">
<g transform="scale(1, -1) translate(0, -1080)">
<path d="M0,0L1920,0L1920,1080L0,1080Z" style="fill:#FFFFFF" />
<text x="678.86" y="-1040.9" transform="scale(1, -1)"
	style="font-family:Liberation Serif;font-variant:normal;font-weight:normal;font-style:normal;font-size:50px">random-remove - Log Scale</text>
<text x="875.27" y="-9.7559" transform="scale(1, -1)"
	style="font-family:Liberation Serif;font-variant:normal;font-weight:normal;font-style:normal;font-size:30px">Number of elements</text>
<text x="80.462" y="-39.727" transform="scale(1, -1)"
	style="font-family:Liberation Serif;font-variant:normal;font-weight:normal;font-style:normal;font-size:20px">10000</text>
<text x="278.74" y="-39.727" transform="scale(1, -1)"
	style="font-family:Liberation Serif;font-variant:normal;font-weight:normal;font-style:normal;font-size:20px">20000</text>
<text x="477.03" y="-39.727" transform="scale(1, -1)"
	style="font-family:Liberation Serif;font-variant:normal;font-weight:normal;font-style:normal;font-size:20px">30000</text>
<text x="675.31" y="-39.727" transform="scale(1, -1)"
	style="font-family:Liberation Serif;font-variant:normal;font-weight:normal;font-style:normal;font-size:20px">40000</text>
<text x="873.59" y="-39.727" transform="scale(1, -1)"
	style="font-family:Liberation Serif;font-variant:normal;font-weight:normal;font-style:normal;font-size:20px">50000</text>
<text x="1071.9" y="-39.727" transform="scale(1, -1)"
	style="font-family:Liberation Serif;font-variant:normal;font-weight:normal;font-style:normal;font-size:20px">60000</text>
<text x="1270.2" y="-39.727" transform="scale(1, -1)"
	style="font-family:Liberation Serif;font-variant:normal;font-weight:normal;font-style:normal;font-size:20px">70000</text>
<text x="1468.4" y="-39.727" transform="scale(1, -1)"
	style="font-family:Liberation Serif;font-variant:normal;font-weight:normal;font-style:normal;font-size:20px">80000</text>
<text x="1666.7" y="-39.727" transform="scale(1, -1)"
	style="font-family:Liberation Serif;font-variant:normal;font-weight:normal;font-style:normal;font-size:20px">90000</text>
<text x="1860" y="-39.727" transform="scale(1, -1)"
	style="font-family:Liberation Serif;font-variant:normal;font-weight:normal;font-style:normal;font-size:20px">100000</text>
<path d="M105.46,55.371L105.46,63.371" style="fill:none;stroke:#000000;stroke-width:0.5" />
<path d="M303.74,55.371L303.74,63.371" style="fill:none;stroke:#000000;stroke-width:0.5" />
<path d="M502.03,55.371L502.03,63.371" style="fill:none;stroke:#000000;stroke-width:0.5" />
<path d="M700.31,55.371L700.31,63.371" style="fill:none;stroke:#000000;stroke-width:0.5" />
<path d="M898.59,55.371L898.59,63.371" style="fill:none;stroke:#000000;stroke-width:0.5" />
<path d="M1096.9,55.371L1096.9,63.371" style="fill:none;stroke:#000000;stroke-width:0.5" />
<path d="M1295.2,55.371L1295.2,63.371" style="fill:none;stroke:#000000;stroke-width:0.5" />
<path d="M1493.4,55.371L1493.4,63.371" style="fill:none;stroke:#000000;stroke-width:0.5" />
<path d="M1691.7,55.371L1691.7,63.371" style="fill:none;stroke:#000000;stroke-width:0.5" />
<path d="M1890,55.371L1890,63.371" style="fill:none;stroke:#000000;stroke-width:0.5" />
<path d="M105.46,63.371L1890,63.371" style="fill:none;stroke:#000000;stroke-width:0.5" />
<g transform="rotate(90)">
<text x="509.33" y="23.467" transform="scale(1, -1)"
	style="font-family:Liberation Serif;font-variant:normal;font-weight:normal;font-style:normal;font-size:30px">log(μs)</text>
</g>
<text x="49.712" y="-200.06" transform="scale(1, -1)"
	style="font-family:Liberation Serif;font-variant:normal;font-weight:normal;font-style:normal;font-size:20px">500</text>
<text x="39.712" y="-780.44" transform="scale(1, -1)"
	style="font-family:Liberation Serif;font-variant:normal;font-weight:normal;font-style:normal;font-size:20px">2500</text>
<text x="39.712" y="-992.4" transform="scale(1, -1)"
	style="font-family:Liberation Serif;font-variant:normal;font-weight:normal;font-style:normal;font-size:20px">4500</text>
<path d="M84.712,204.63L92.712,204.63" style="fill:none;stroke:#000000;stroke-width:0.5" />
<path d="M84.712,785.01L92.712,785.01" style="fill:none;stroke:#000000;stroke-width:0.5" />
<path d="M84.712,996.97L92.712,996.97" style="fill:none;stroke:#000000;stroke-width:0.5" />
<path d="M88.712,600.8L92.712,600.8" style="fill:none;stroke:#000000;stroke-width:0.5" />
<path d="M88.712,906.35L92.712,906.35" style="fill:none;stroke:#000000;stroke-width:0.5" />
<path d="M92.712,80.11L92.712,1024.6" style="fill:none;stroke:#000000;stroke-width:0.5" />
<path d="M105.46,80.11L105.46,1024.6" style="fill:none;stroke:#808080;stroke-width:0.25" />
<path d="M303.74,80.11L303.74,1024.6" style="fill:none;stroke:#808080;stroke-width:0.25" />
<path d="M502.03,80.11L502.03,1024.6" style="fill:none;stroke:#808080;stroke-width:0.25" />
<path d="M700.31,80.11L700.31,1024.6" style="fill:none;stroke:#808080;stroke-width:0.25" />
<path d="M898.59,80.11L898.59,1024.6" style="fill:none;stroke:#808080;stroke-width:0.25" />
<path d="M1096.9,80.11L1096.9,1024.6" style="fill:none;stroke:#808080;stroke-width:0.25" />
<path d="M1295.2,80.11L1295.2,1024.6" style="fill:none;stroke:#808080;stroke-width:0.25" />
<path d="M1493.4,80.11L1493.4,1024.6" style="fill:none;stroke:#808080;stroke-width:0.25" />
<path d="M1691.7,80.11L1691.7,1024.6" style="fill:none;stroke:#808080;stroke-width:0.25" />
<path d="M1890,80.11L1890,1024.6" style="fill:none;stroke:#808080;stroke-width:0.25" />
<path d="M105.46,204.63L1890,204.63" style="fill:none;stroke:#808080;stroke-width:0.25" />
<path d="M105.46,785.01L1890,785.01" style="fill:none;stroke:#808080;stroke-width:0.25" />
<path d="M105.46,996.97L1890,996.97" style="fill:none;stroke:#808080;stroke-width:0.25" />
<path d="M105.46,80.11L303.74,316.57L502.03,461.73L700.31,541.35L898.59,628.56L1096.9,699.64L1295.2,760.23L1493.4,777.43L1691.7,906.76L1890,957.55" style="fill:none;stroke:#FF0000;stroke-width:4" />
<path d="M110.46,80.11A5,5 0 1 1 100.46,80.11A5,5 0 1 1 110.46,80.11Z" style="fill:#FF0000" />
<path d="M308.74,316.57A5,5 0 1 1 298.74,316.57A5,5 0 1 1 308.74,316.57Z" style="fill:#FF0000" />
<path d="M507.03,461.73A5,5 0 1 1 497.03,461.73A5,5 0 1 1 507.03,461.73Z" style="fill:#FF0000" />
<path d="M705.31,541.35A5,5 0 1 1 695.31,541.35A5,5 0 1 1 705.31,541.35Z" style="fill:#FF0000" />
<path d="M903.59,628.56A5,5 0 1 1 893.59,628.56A5,5 0 1 1 903.59,628.56Z" style="fill:#FF0000" />
<path d="M1101.9,699.64A5,5 0 1 1 1091.9,699.64A5,5 0 1 1 1101.9,699.64Z" style="fill:#FF0000" />
<path d="M1300.2,760.23A5,5 0 1 1 1290.2,760.23A5,5 0 1 1 1300.2,760.23Z" style="fill:#FF0000" />
<path d="M1498.4,777.43A5,5 0 1 1 1488.4,777.43A5,5 0 1 1 1498.4,777.43Z" style="fill:#FF0000" />
<path d="M1696.7,906.76A5,5 0 1 1 1686.7,906.76A5,5 0 1 1 1696.7,906.76Z" style="fill:#FF0000" />
<path d="M1895,957.55A5,5 0 1 1 1885,957.55A5,5 0 1 1 1895,957.55Z" style="fill:#FF0000" />
<path d="M105.46,270.98L303.74,521.24L502.03,532.45L700.31,642.96L898.59,727.25L1096.9,808.87L1295.2,856.25L1493.4,922.17L1691.7,959.69L1890,990.26" style="fill:none;stroke:#0000FF;stroke-width:4" />
<path d="M110.46,270.98A5,5 0 1 1 100.46,270.98A5,5 0 1 1 110.46,270.98Z" style="fill:#0000FF" />
<path d="M308.74,521.24A5,5 0 1 1 298.74,521.24A5,5 0 1 1 308.74,521.24Z" style="fill:#0000FF" />
<path d="M507.03,532.45A5,5 0 1 1 497.03,532.45A5,5 0 1 1 507.03,532.45Z" style="fill:#0000FF" />
<path d="M705.31,642.96A5,5 0 1 1 695.31,642.96A5,5 0 1 1 705.31,642.96Z" style="fill:#0000FF" />
<path d="M903.59,727.25A5,5 0 1 1 893.59,727.25A5,5 0 1 1 903.59,727.25Z" style="fill:#0000FF" />
<path d="M1101.9,808.87A5,5 0 1 1 1091.9,808.87A5,5 0 1 1 1101.9,808.87Z" style="fill:#0000FF" />
<path d="M1300.2,856.25A5,5 0 1 1 1290.2,856.25A5,5 0 1 1 1300.2,856.25Z" style="fill:#0000FF" />
<path d="M1498.4,922.17A5,5 0 1 1 1488.4,922.17A5,5 0 1 1 1498.4,922.17Z" style="fill:#0000FF" />
<path d="M1696.7,959.69A5,5 0 1 1 1686.7,959.69A5,5 0 1 1 1696.7,959.69Z" style="fill:#0000FF" />
<path d="M1895,990.26A5,5 0 1 1 1885,990.26A5,5 0 1 1 1895,990.26Z" style="fill:#0000FF" />
<path d="M105.46,257.53L303.74,386.53L502.03,503.73L700.31,614.71L898.59,646.79L1096.9,743.31L1295.2,756.51L1493.4,861.88L1691.7,903.55L1890,929.01" style="fill:none;stroke:#00FF00;stroke-width:4" />
<path d="M110.46,257.53A5,5 0 1 1 100.46,257.53A5,5 0 1 1 110.46,257.53Z" style="fill:#00FF00" />
<path d="M308.74,386.53A5,5 0 1 1 298.74,386.53A5,5 0 1 1 308.74,386.53Z" style="fill:#00FF00" />
<path d="M507.03,503.73A5,5 0 1 1 497.03,503.73A5,5 0 1 1 507.03,503.73Z" style="fill:#00FF00" />
<path d="M705.31,614.71A5,5 0 1 1 695.31,614.71A5,5 0 1 1 705.31,614.71Z" style="fill:#00FF00" />
<path d="M903.59,646.79A5,5 0 1 1 893.59,646.79A5,5 0 1 1 903.59,646.79Z" style="fill:#00FF00" />
<path d="M1101.9,743.31A5,5 0 1 1 1091.9,743.31A5,5 0 1 1 1101.9,743.31Z" style="fill:#00FF00" />
<path d="M1300.2,756.51A5,5 0 1 1 1290.2,756.51A5,5 0 1 1 1300.2,756.51Z" style="fill:#00FF00" />
<path d="M1498.4,861.88A5,5 0 1 1 1488.4,861.88A5,5 0 1 1 1498.4,861.88Z" style="fill:#00FF00" />
<path d="M1696.7,903.55A5,5 0 1 1 1686.7,903.55A5,5 0 1 1 1696.7,903.55Z" style="fill:#00FF00" />
<path d="M1895,929.01A5,5 0 1 1 1885,929.01A5,5 0 1 1 1895,929.01Z" style="fill:#00FF00" />
<path d="M1900,126.03L1920,126.03" style="fill:none;stroke:#FF0000;stroke-width:4" />
<path d="M1915,126.03A5,5 0 1 1 1905,126.03A5,5 0 1 1 1915,126.03Z" style="fill:#FF0000" />
<text x="1792.7" y="-121.05" transform="scale(1, -1)"
	style="font-family:Liberation Serif;font-variant:normal;font-weight:normal;font-style:normal;font-size:24px">std::vector</text>
<path d="M1900,105.66L1920,105.66" style="fill:none;stroke:#0000FF;stroke-width:4" />
<path d="M1915,105.66A5,5 0 1 1 1905,105.66A5,5 0 1 1 1915,105.66Z" style="fill:#0000FF" />
<text x="1823.3" y="-100.69" transform="scale(1, -1)"
	style="font-family:Liberation Serif;font-variant:normal;font-weight:normal;font-style:normal;font-size:24px">std::list</text>
<path d="M1900,85.294L1920,85.294" style="fill:none;stroke:#00FF00;stroke-width:4" />
<path d="M1915,85.294A5,5 0 1 1 1905,85.294A5,5 0 1 1 1915,85.294Z" style="fill:#00FF00" />
<text x="1795.4" y="-80.319" transform="scale(1, -1)"
	style="font-family:Liberation Serif;font-variant:normal;font-weight:normal;font-style:normal;font-size:24px">std::deque</text>
</g>
</svg>
