<?xml version="1.0"?>
<!-- Generated by SVGo and Plotinum VG -->
<svg width="1920pt" height="1080pt" viewBox="0 0 1920 1080"
	xmlns="http://www.w3.org/2000/svg"
	xmlns:xlink="http://www.w3.org/1999/xlink">
<g transform="scale(1, -1) translate(0, -1080)">
<path d="M0,0L1920,0L1920,1080L0,1080Z" style="fill:#FFFFFF" />
<text x="678.86" y="-1040.9" transform="scale(1, -1)"
	style="font-family:Liberation Serif;font-variant:normal;font-weight:normal;font-style:normal;font-size:50px">random-remove - Log Scale</text>
<text x="880.27" y="-9.7559" transform="scale(1, -1)"
	style="font-family:Liberation Serif;font-variant:normal;font-weight:normal;font-style:normal;font-size:30px">Number of elements</text>
<text x="90.462" y="-39.727" transform="scale(1, -1)"
	style="font-family:Liberation Serif;font-variant:normal;font-weight:normal;font-style:normal;font-size:20px">10000</text>
<text x="287.63" y="-39.727" transform="scale(1, -1)"
	style="font-family:Liberation Serif;font-variant:normal;font-weight:normal;font-style:normal;font-size:20px">20000</text>
<text x="484.8" y="-39.727" transform="scale(1, -1)"
	style="font-family:Liberation Serif;font-variant:normal;font-weight:normal;font-style:normal;font-size:20px">30000</text>
<text x="681.97" y="-39.727" transform="scale(1, -1)"
	style="font-family:Liberation Serif;font-variant:normal;font-weight:normal;font-style:normal;font-size:20px">40000</text>
<text x="879.15" y="-39.727" transform="scale(1, -1)"
	style="font-family:Liberation Serif;font-variant:normal;font-weight:normal;font-style:normal;font-size:20px">50000</text>
<text x="1076.3" y="-39.727" transform="scale(1, -1)"
	style="font-family:Liberation Serif;font-variant:normal;font-weight:normal;font-style:normal;font-size:20px">60000</text>
<text x="1273.5" y="-39.727" transform="scale(1, -1)"
	style="font-family:Liberation Serif;font-variant:normal;font-weight:normal;font-style:normal;font-size:20px">70000</text>
<text x="1470.7" y="-39.727" transform="scale(1, -1)"
	style="font-family:Liberation Serif;font-variant:normal;font-weight:normal;font-style:normal;font-size:20px">80000</text>
<text x="1667.8" y="-39.727" transform="scale(1, -1)"
	style="font-family:Liberation Serif;font-variant:normal;font-weight:normal;font-style:normal;font-size:20px">90000</text>
<text x="1860" y="-39.727" transform="scale(1, -1)"
	style="font-family:Liberation Serif;font-variant:normal;font-weight:normal;font-style:normal;font-size:20px">100000</text>
<path d="M115.46,55.371L115.46,63.371" style="fill:none;stroke:#000000;stroke-width:0.5" />
<path d="M312.63,55.371L312.63,63.371" style="fill:none;stroke:#000000;stroke-width:0.5" />
<path d="M509.8,55.371L509.8,63.371" style="fill:none;stroke:#000000;stroke-width:0.5" />
<path d="M706.97,55.371L706.97,63.371" style="fill:none;stroke:#000000;stroke-width:0.5" />
<path d="M904.15,55.371L904.15,63.371" style="fill:none;stroke:#000000;stroke-width:0.5" />
<path d="M1101.3,55.371L1101.3,63.371" style="fill:none;stroke:#000000;stroke-width:0.5" />
<path d="M1298.5,55.371L1298.5,63.371" style="fill:none;stroke:#000000;stroke-width:0.5" />
<path d="M1495.7,55.371L1495.7,63.371" style="fill:none;stroke:#000000;stroke-width:0.5" />
<path d="M1692.8,55.371L1692.8,63.371" style="fill:none;stroke:#000000;stroke-width:0.5" />
<path d="M1890,55.371L1890,63.371" style="fill:none;stroke:#000000;stroke-width:0.5" />
<path d="M115.46,63.371L1890,63.371" style="fill:none;stroke:#000000;stroke-width:0.5" />
<g transform="rotate(90)">
<text x="485.87" y="23.467" transform="scale(1, -1)"
	style="font-family:Liberation Serif;font-variant:normal;font-weight:normal;font-style:normal;font-size:30px">log(μs + 1)</text>
</g>
<text x="39.712" y="-358.95" transform="scale(1, -1)"
	style="font-family:Liberation Serif;font-variant:normal;font-weight:normal;font-style:normal;font-size:20px">10000</text>
<text x="39.712" y="-773.66" transform="scale(1, -1)"
	style="font-family:Liberation Serif;font-variant:normal;font-weight:normal;font-style:normal;font-size:20px">30000</text>
<text x="39.712" y="-966.49" transform="scale(1, -1)"
	style="font-family:Liberation Serif;font-variant:normal;font-weight:normal;font-style:normal;font-size:20px">50000</text>
<path d="M94.712,363.52L102.71,363.52" style="fill:none;stroke:#000000;stroke-width:0.5" />
<path d="M94.712,778.23L102.71,778.23" style="fill:none;stroke:#000000;stroke-width:0.5" />
<path d="M94.712,971.06L102.71,971.06" style="fill:none;stroke:#000000;stroke-width:0.5" />
<path d="M98.712,625.17L102.71,625.17" style="fill:none;stroke:#000000;stroke-width:0.5" />
<path d="M98.712,886.83L102.71,886.83" style="fill:none;stroke:#000000;stroke-width:0.5" />
<path d="M102.71,80.11L102.71,1024.6" style="fill:none;stroke:#000000;stroke-width:0.5" />
<path d="M115.46,80.11L115.46,1024.6" style="fill:none;stroke:#808080;stroke-width:0.25" />
<path d="M312.63,80.11L312.63,1024.6" style="fill:none;stroke:#808080;stroke-width:0.25" />
<path d="M509.8,80.11L509.8,1024.6" style="fill:none;stroke:#808080;stroke-width:0.25" />
<path d="M706.97,80.11L706.97,1024.6" style="fill:none;stroke:#808080;stroke-width:0.25" />
<path d="M904.15,80.11L904.15,1024.6" style="fill:none;stroke:#808080;stroke-width:0.25" />
<path d="M1101.3,80.11L1101.3,1024.6" style="fill:none;stroke:#808080;stroke-width:0.25" />
<path d="M1298.5,80.11L1298.5,1024.6" style="fill:none;stroke:#808080;stroke-width:0.25" />
<path d="M1495.7,80.11L1495.7,1024.6" style="fill:none;stroke:#808080;stroke-width:0.25" />
<path d="M1692.8,80.11L1692.8,1024.6" style="fill:none;stroke:#808080;stroke-width:0.25" />
<path d="M1890,80.11L1890,1024.6" style="fill:none;stroke:#808080;stroke-width:0.25" />
<path d="M115.46,363.52L1890,363.52" style="fill:none;stroke:#808080;stroke-width:0.25" />
<path d="M115.46,778.23L1890,778.23" style="fill:none;stroke:#808080;stroke-width:0.25" />
<path d="M115.46,971.06L1890,971.06" style="fill:none;stroke:#808080;stroke-width:0.25" />
<path d="M115.46,159.84L312.63,310.82L509.8,461.98L706.97,616.72L904.15,654.45L1101.3,740.94L1298.5,942.39L1495.7,869.09L1692.8,910L1890,939.27" style="fill:none;stroke:#FF0000;stroke-width:4" />
<path d="M120.46,159.84A5,5 0 1 1 110.46,159.84A5,5 0 1 1 120.46,159.84Z" style="fill:#FF0000" />
<path d="M317.63,310.82A5,5 0 1 1 307.63,310.82A5,5 0 1 1 317.63,310.82Z" style="fill:#FF0000" />
<path d="M514.8,461.98A5,5 0 1 1 504.8,461.98A5,5 0 1 1 514.8,461.98Z" style="fill:#FF0000" />
<path d="M711.97,616.72A5,5 0 1 1 701.97,616.72A5,5 0 1 1 711.97,616.72Z" style="fill:#FF0000" />
<path d="M909.15,654.45A5,5 0 1 1 899.15,654.45A5,5 0 1 1 909.15,654.45Z" style="fill:#FF0000" />
<path d="M1106.3,740.94A5,5 0 1 1 1096.3,740.94A5,5 0 1 1 1106.3,740.94Z" style="fill:#FF0000" />
<path d="M1303.5,942.39A5,5 0 1 1 1293.5,942.39A5,5 0 1 1 1303.5,942.39Z" style="fill:#FF0000" />
<path d="M1500.7,869.09A5,5 0 1 1 1490.7,869.09A5,5 0 1 1 1500.7,869.09Z" style="fill:#FF0000" />
<path d="M1697.8,910A5,5 0 1 1 1687.8,910A5,5 0 1 1 1697.8,910Z" style="fill:#FF0000" />
<path d="M1895,939.27A5,5 0 1 1 1885,939.27A5,5 0 1 1 1895,939.27Z" style="fill:#FF0000" />
<path d="M115.46,80.11L312.63,370.14L509.8,511.2L706.97,635.27L904.15,709.57L1101.3,764.49L1298.5,838.17L1495.7,891.95L1692.8,921.84L1890,988.66" style="fill:none;stroke:#0000FF;stroke-width:4" />
<path d="M120.46,80.11A5,5 0 1 1 110.46,80.11A5,5 0 1 1 120.46,80.11Z" style="fill:#0000FF" />
<path d="M317.63,370.14A5,5 0 1 1 307.63,370.14A5,5 0 1 1 317.63,370.14Z" style="fill:#0000FF" />
<path d="M514.8,511.2A5,5 0 1 1 504.8,511.2A5,5 0 1 1 514.8,511.2Z" style="fill:#0000FF" />
<path d="M711.97,635.27A5,5 0 1 1 701.97,635.27A5,5 0 1 1 711.97,635.27Z" style="fill:#0000FF" />
<path d="M909.15,709.57A5,5 0 1 1 899.15,709.57A5,5 0 1 1 909.15,709.57Z" style="fill:#0000FF" />
<path d="M1106.3,764.49A5,5 0 1 1 1096.3,764.49A5,5 0 1 1 1106.3,764.49Z" style="fill:#0000FF" />
<path d="M1303.5,838.17A5,5 0 1 1 1293.5,838.17A5,5 0 1 1 1303.5,838.17Z" style="fill:#0000FF" />
<path d="M1500.7,891.95A5,5 0 1 1 1490.7,891.95A5,5 0 1 1 1500.7,891.95Z" style="fill:#0000FF" />
<path d="M1697.8,921.84A5,5 0 1 1 1687.8,921.84A5,5 0 1 1 1697.8,921.84Z" style="fill:#0000FF" />
<path d="M1895,988.66A5,5 0 1 1 1885,988.66A5,5 0 1 1 1895,988.66Z" style="fill:#0000FF" />
<path d="M115.46,84.405L312.63,324.88L509.8,503.36L706.97,617.05L904.15,705.26L1101.3,746.58L1298.5,823.02L1495.7,872.55L1692.8,909.86L1890,965.85" style="fill:none;stroke:#00FF00;stroke-width:4" />
<path d="M120.46,84.405A5,5 0 1 1 110.46,84.405A5,5 0 1 1 120.46,84.405Z" style="fill:#00FF00" />
<path d="M317.63,324.88A5,5 0 1 1 307.63,324.88A5,5 0 1 1 317.63,324.88Z" style="fill:#00FF00" />
<path d="M514.8,503.36A5,5 0 1 1 504.8,503.36A5,5 0 1 1 514.8,503.36Z" style="fill:#00FF00" />
<path d="M711.97,617.05A5,5 0 1 1 701.97,617.05A5,5 0 1 1 711.97,617.05Z" style="fill:#00FF00" />
<path d="M909.15,705.26A5,5 0 1 1 899.15,705.26A5,5 0 1 1 909.15,705.26Z" style="fill:#00FF00" />
<path d="M1106.3,746.58A5,5 0 1 1 1096.3,746.58A5,5 0 1 1 1106.3,746.58Z" style="fill:#00FF00" />
<path d="M1303.5,823.02A5,5 0 1 1 1293.5,823.02A5,5 0 1 1 1303.5,823.02Z" style="fill:#00FF00" />
<path d="M1500.7,872.55A5,5 0 1 1 1490.7,872.55A5,5 0 1 1 1500.7,872.55Z" style="fill:#00FF00" />
<path d="M1697.8,909.86A5,5 0 1 1 1687.8,909.86A5,5 0 1 1 1697.8,909.86Z" style="fill:#00FF00" />
<path d="M1895,965.85A5,5 0 1 1 1885,965.85A5,5 0 1 1 1895,965.85Z" style="fill:#00FF00" />
<path d="M1900,126.03L1920,126.03" style="fill:none;stroke:#FF0000;stroke-width:4" />
<path d="M1915,126.03A5,5 0 1 1 1905,126.03A5,5 0 1 1 1915,126.03Z" style="fill:#FF0000" />
<text x="1795.4" y="-121.05" transform="scale(1, -1)"
	style="font-family:Liberation Serif;font-variant:normal;font-weight:normal;font-style:normal;font-size:24px">std::deque</text>
<path d="M1900,105.66L1920,105.66" style="fill:none;stroke:#0000FF;stroke-width:4" />
<path d="M1915,105.66A5,5 0 1 1 1905,105.66A5,5 0 1 1 1915,105.66Z" style="fill:#0000FF" />
<text x="1792.7" y="-100.69" transform="scale(1, -1)"
	style="font-family:Liberation Serif;font-variant:normal;font-weight:normal;font-style:normal;font-size:24px">std::vector</text>
<path d="M1900,85.294L1920,85.294" style="fill:none;stroke:#00FF00;stroke-width:4" />
<path d="M1915,85.294A5,5 0 1 1 1905,85.294A5,5 0 1 1 1915,85.294Z" style="fill:#00FF00" />
<text x="1823.3" y="-80.319" transform="scale(1, -1)"
	style="font-family:Liberation Serif;font-variant:normal;font-weight:normal;font-style:normal;font-size:24px">std::list</text>
</g>
</svg>
