<?xml version="1.0"?>
<!-- Generated by SVGo and Plotinum VG -->
<svg width="1920pt" height="1080pt" viewBox="0 0 1920 1080"
	xmlns="http://www.w3.org/2000/svg"
	xmlns:xlink="http://www.w3.org/1999/xlink">
<g transform="scale(1, -1) translate(0, -1080)">
<path d="M0,0L1920,0L1920,1080L0,1080Z" style="fill:#FFFFFF" />
<text x="800.34" y="-1040.9" transform="scale(1, -1)"
	style="font-family:Liberation Serif;font-variant:normal;font-weight:normal;font-style:normal;font-size:50px">random-remove</text>
<text x="880.27" y="-9.7559" transform="scale(1, -1)"
	style="font-family:Liberation Serif;font-variant:normal;font-weight:normal;font-style:normal;font-size:30px">Number of elements</text>
<text x="90.462" y="-39.727" transform="scale(1, -1)"
	style="font-family:Liberation Serif;font-variant:normal;font-weight:normal;font-style:normal;font-size:20px">10000</text>
<text x="287.63" y="-39.727" transform="scale(1, -1)"
	style="font-family:Liberation Serif;font-variant:normal;font-weight:normal;font-style:normal;font-size:20px">20000</text>
<text x="484.8" y="-39.727" transform="scale(1, -1)"
	style="font-family:Liberation Serif;font-variant:normal;font-weight:normal;font-style:normal;font-size:20px">30000</text>
<text x="681.97" y="-39.727" transform="scale(1, -1)"
	style="font-family:Liberation Serif;font-variant:normal;font-weight:normal;font-style:normal;font-size:20px">40000</text>
<text x="879.15" y="-39.727" transform="scale(1, -1)"
	style="font-family:Liberation Serif;font-variant:normal;font-weight:normal;font-style:normal;font-size:20px">50000</text>
<text x="1076.3" y="-39.727" transform="scale(1, -1)"
	style="font-family:Liberation Serif;font-variant:normal;font-weight:normal;font-style:normal;font-size:20px">60000</text>
<text x="1273.5" y="-39.727" transform="scale(1, -1)"
	style="font-family:Liberation Serif;font-variant:normal;font-weight:normal;font-style:normal;font-size:20px">70000</text>
<text x="1470.7" y="-39.727" transform="scale(1, -1)"
	style="font-family:Liberation Serif;font-variant:normal;font-weight:normal;font-style:normal;font-size:20px">80000</text>
<text x="1667.8" y="-39.727" transform="scale(1, -1)"
	style="font-family:Liberation Serif;font-variant:normal;font-weight:normal;font-style:normal;font-size:20px">90000</text>
<text x="1860" y="-39.727" transform="scale(1, -1)"
	style="font-family:Liberation Serif;font-variant:normal;font-weight:normal;font-style:normal;font-size:20px">100000</text>
<path d="M115.46,55.371L115.46,63.371" style="fill:none;stroke:#000000;stroke-width:0.5" />
<path d="M312.63,55.371L312.63,63.371" style="fill:none;stroke:#000000;stroke-width:0.5" />
<path d="M509.8,55.371L509.8,63.371" style="fill:none;stroke:#000000;stroke-width:0.5" />
<path d="M706.97,55.371L706.97,63.371" style="fill:none;stroke:#000000;stroke-width:0.5" />
<path d="M904.15,55.371L904.15,63.371" style="fill:none;stroke:#000000;stroke-width:0.5" />
<path d="M1101.3,55.371L1101.3,63.371" style="fill:none;stroke:#000000;stroke-width:0.5" />
<path d="M1298.5,55.371L1298.5,63.371" style="fill:none;stroke:#000000;stroke-width:0.5" />
<path d="M1495.7,55.371L1495.7,63.371" style="fill:none;stroke:#000000;stroke-width:0.5" />
<path d="M1692.8,55.371L1692.8,63.371" style="fill:none;stroke:#000000;stroke-width:0.5" />
<path d="M1890,55.371L1890,63.371" style="fill:none;stroke:#000000;stroke-width:0.5" />
<path d="M115.46,63.371L1890,63.371" style="fill:none;stroke:#000000;stroke-width:0.5" />
<g transform="rotate(90)">
<text x="538.49" y="23.467" transform="scale(1, -1)"
	style="font-family:Liberation Serif;font-variant:normal;font-weight:normal;font-style:normal;font-size:30px">μs</text>
</g>
<text x="39.712" y="-173.77" transform="scale(1, -1)"
	style="font-family:Liberation Serif;font-variant:normal;font-weight:normal;font-style:normal;font-size:20px">10000</text>
<text x="39.712" y="-534.93" transform="scale(1, -1)"
	style="font-family:Liberation Serif;font-variant:normal;font-weight:normal;font-style:normal;font-size:20px">30000</text>
<text x="39.712" y="-896.08" transform="scale(1, -1)"
	style="font-family:Liberation Serif;font-variant:normal;font-weight:normal;font-style:normal;font-size:20px">50000</text>
<path d="M94.712,178.34L102.71,178.34" style="fill:none;stroke:#000000;stroke-width:0.5" />
<path d="M94.712,539.5L102.71,539.5" style="fill:none;stroke:#000000;stroke-width:0.5" />
<path d="M94.712,900.65L102.71,900.65" style="fill:none;stroke:#000000;stroke-width:0.5" />
<path d="M98.712,358.92L102.71,358.92" style="fill:none;stroke:#000000;stroke-width:0.5" />
<path d="M98.712,720.08L102.71,720.08" style="fill:none;stroke:#000000;stroke-width:0.5" />
<path d="M102.71,80.11L102.71,1024.6" style="fill:none;stroke:#000000;stroke-width:0.5" />
<path d="M115.46,80.11L115.46,1024.6" style="fill:none;stroke:#808080;stroke-width:0.25" />
<path d="M312.63,80.11L312.63,1024.6" style="fill:none;stroke:#808080;stroke-width:0.25" />
<path d="M509.8,80.11L509.8,1024.6" style="fill:none;stroke:#808080;stroke-width:0.25" />
<path d="M706.97,80.11L706.97,1024.6" style="fill:none;stroke:#808080;stroke-width:0.25" />
<path d="M904.15,80.11L904.15,1024.6" style="fill:none;stroke:#808080;stroke-width:0.25" />
<path d="M1101.3,80.11L1101.3,1024.6" style="fill:none;stroke:#808080;stroke-width:0.25" />
<path d="M1298.5,80.11L1298.5,1024.6" style="fill:none;stroke:#808080;stroke-width:0.25" />
<path d="M1495.7,80.11L1495.7,1024.6" style="fill:none;stroke:#808080;stroke-width:0.25" />
<path d="M1692.8,80.11L1692.8,1024.6" style="fill:none;stroke:#808080;stroke-width:0.25" />
<path d="M1890,80.11L1890,1024.6" style="fill:none;stroke:#808080;stroke-width:0.25" />
<path d="M115.46,178.34L1890,178.34" style="fill:none;stroke:#808080;stroke-width:0.25" />
<path d="M115.46,539.5L1890,539.5" style="fill:none;stroke:#808080;stroke-width:0.25" />
<path d="M115.46,900.65L1890,900.65" style="fill:none;stroke:#808080;stroke-width:0.25" />
<path d="M115.46,85.257L312.63,163.28L509.8,263.87L706.97,353.97L904.15,467.75L1101.3,559.56L1298.5,629.23L1495.7,758.61L1692.8,779.83L1890,931.28" style="fill:none;stroke:#FF0000;stroke-width:4" />
<path d="M120.46,85.257A5,5 0 1 1 110.46,85.257A5,5 0 1 1 120.46,85.257Z" style="fill:#FF0000" />
<path d="M317.63,163.28A5,5 0 1 1 307.63,163.28A5,5 0 1 1 317.63,163.28Z" style="fill:#FF0000" />
<path d="M514.8,263.87A5,5 0 1 1 504.8,263.87A5,5 0 1 1 514.8,263.87Z" style="fill:#FF0000" />
<path d="M711.97,353.97A5,5 0 1 1 701.97,353.97A5,5 0 1 1 711.97,353.97Z" style="fill:#FF0000" />
<path d="M909.15,467.75A5,5 0 1 1 899.15,467.75A5,5 0 1 1 909.15,467.75Z" style="fill:#FF0000" />
<path d="M1106.3,559.56A5,5 0 1 1 1096.3,559.56A5,5 0 1 1 1106.3,559.56Z" style="fill:#FF0000" />
<path d="M1303.5,629.23A5,5 0 1 1 1293.5,629.23A5,5 0 1 1 1303.5,629.23Z" style="fill:#FF0000" />
<path d="M1500.7,758.61A5,5 0 1 1 1490.7,758.61A5,5 0 1 1 1500.7,758.61Z" style="fill:#FF0000" />
<path d="M1697.8,779.83A5,5 0 1 1 1687.8,779.83A5,5 0 1 1 1697.8,779.83Z" style="fill:#FF0000" />
<path d="M1895,931.28A5,5 0 1 1 1885,931.28A5,5 0 1 1 1895,931.28Z" style="fill:#FF0000" />
<path d="M115.46,80.11L312.63,156.44L509.8,263.27L706.97,338.43L904.15,436.88L1101.3,526.17L1298.5,645.19L1495.7,729.68L1692.8,783.96L1890,923.68" style="fill:none;stroke:#0000FF;stroke-width:4" />
<path d="M120.46,80.11A5,5 0 1 1 110.46,80.11A5,5 0 1 1 120.46,80.11Z" style="fill:#0000FF" />
<path d="M317.63,156.44A5,5 0 1 1 307.63,156.44A5,5 0 1 1 317.63,156.44Z" style="fill:#0000FF" />
<path d="M514.8,263.27A5,5 0 1 1 504.8,263.27A5,5 0 1 1 514.8,263.27Z" style="fill:#0000FF" />
<path d="M711.97,338.43A5,5 0 1 1 701.97,338.43A5,5 0 1 1 711.97,338.43Z" style="fill:#0000FF" />
<path d="M909.15,436.88A5,5 0 1 1 899.15,436.88A5,5 0 1 1 909.15,436.88Z" style="fill:#0000FF" />
<path d="M1106.3,526.17A5,5 0 1 1 1096.3,526.17A5,5 0 1 1 1106.3,526.17Z" style="fill:#0000FF" />
<path d="M1303.5,645.19A5,5 0 1 1 1293.5,645.19A5,5 0 1 1 1303.5,645.19Z" style="fill:#0000FF" />
<path d="M1500.7,729.68A5,5 0 1 1 1490.7,729.68A5,5 0 1 1 1500.7,729.68Z" style="fill:#0000FF" />
<path d="M1697.8,783.96A5,5 0 1 1 1687.8,783.96A5,5 0 1 1 1697.8,783.96Z" style="fill:#0000FF" />
<path d="M1895,923.68A5,5 0 1 1 1885,923.68A5,5 0 1 1 1895,923.68Z" style="fill:#0000FF" />
<path d="M115.46,81.23L312.63,167.65L509.8,255.52L706.97,368.33L904.15,418.29L1101.3,519.56L1298.5,603.03L1495.7,722.77L1692.8,803.5L1890,882.87" style="fill:none;stroke:#00FF00;stroke-width:4" />
<path d="M120.46,81.23A5,5 0 1 1 110.46,81.23A5,5 0 1 1 120.46,81.23Z" style="fill:#00FF00" />
<path d="M317.63,167.65A5,5 0 1 1 307.63,167.65A5,5 0 1 1 317.63,167.65Z" style="fill:#00FF00" />
<path d="M514.8,255.52A5,5 0 1 1 504.8,255.52A5,5 0 1 1 514.8,255.52Z" style="fill:#00FF00" />
<path d="M711.97,368.33A5,5 0 1 1 701.97,368.33A5,5 0 1 1 711.97,368.33Z" style="fill:#00FF00" />
<path d="M909.15,418.29A5,5 0 1 1 899.15,418.29A5,5 0 1 1 909.15,418.29Z" style="fill:#00FF00" />
<path d="M1106.3,519.56A5,5 0 1 1 1096.3,519.56A5,5 0 1 1 1106.3,519.56Z" style="fill:#00FF00" />
<path d="M1303.5,603.03A5,5 0 1 1 1293.5,603.03A5,5 0 1 1 1303.5,603.03Z" style="fill:#00FF00" />
<path d="M1500.7,722.77A5,5 0 1 1 1490.7,722.77A5,5 0 1 1 1500.7,722.77Z" style="fill:#00FF00" />
<path d="M1697.8,803.5A5,5 0 1 1 1687.8,803.5A5,5 0 1 1 1697.8,803.5Z" style="fill:#00FF00" />
<path d="M1895,882.87A5,5 0 1 1 1885,882.87A5,5 0 1 1 1895,882.87Z" style="fill:#00FF00" />
<path d="M1900,126.03L1920,126.03" style="fill:none;stroke:#FF0000;stroke-width:4" />
<path d="M1915,126.03A5,5 0 1 1 1905,126.03A5,5 0 1 1 1915,126.03Z" style="fill:#FF0000" />
<text x="1823.3" y="-121.05" transform="scale(1, -1)"
	style="font-family:Liberation Serif;font-variant:normal;font-weight:normal;font-style:normal;font-size:24px">std::list</text>
<path d="M1900,105.66L1920,105.66" style="fill:none;stroke:#0000FF;stroke-width:4" />
<path d="M1915,105.66A5,5 0 1 1 1905,105.66A5,5 0 1 1 1915,105.66Z" style="fill:#0000FF" />
<text x="1795.4" y="-100.69" transform="scale(1, -1)"
	style="font-family:Liberation Serif;font-variant:normal;font-weight:normal;font-style:normal;font-size:24px">std::deque</text>
<path d="M1900,85.294L1920,85.294" style="fill:none;stroke:#00FF00;stroke-width:4" />
<path d="M1915,85.294A5,5 0 1 1 1905,85.294A5,5 0 1 1 1915,85.294Z" style="fill:#00FF00" />
<text x="1792.7" y="-80.319" transform="scale(1, -1)"
	style="font-family:Liberation Serif;font-variant:normal;font-weight:normal;font-style:normal;font-size:24px">std::vector</text>
</g>
</svg>
