<?xml version="1.0"?>
<!-- Generated by SVGo and Plotinum VG -->
<svg width="1920pt" height="1080pt" viewBox="0 0 1920 1080"
	xmlns="http://www.w3.org/2000/svg"
	xmlns:xlink="http://www.w3.org/1999/xlink">
<g transform="scale(1, -1) translate(0, -1080)">
<path d="M0,0L1920,0L1920,1080L0,1080Z" style="fill:#FFFFFF" />
<text x="678.86" y="-1040.9" transform="scale(1, -1)"
	style="font-family:Liberation Serif;font-variant:normal;font-weight:normal;font-style:normal;font-size:50px">random-remove - Log Scale</text>
<text x="875.27" y="-9.7559" transform="scale(1, -1)"
	style="font-family:Liberation Serif;font-variant:normal;font-weight:normal;font-style:normal;font-size:30px">Number of elements</text>
<text x="80.462" y="-39.727" transform="scale(1, -1)"
	style="font-family:Liberation Serif;font-variant:normal;font-weight:normal;font-style:normal;font-size:20px">10000</text>
<text x="278.74" y="-39.727" transform="scale(1, -1)"
	style="font-family:Liberation Serif;font-variant:normal;font-weight:normal;font-style:normal;font-size:20px">20000</text>
<text x="477.03" y="-39.727" transform="scale(1, -1)"
	style="font-family:Liberation Serif;font-variant:normal;font-weight:normal;font-style:normal;font-size:20px">30000</text>
<text x="675.31" y="-39.727" transform="scale(1, -1)"
	style="font-family:Liberation Serif;font-variant:normal;font-weight:normal;font-style:normal;font-size:20px">40000</text>
<text x="873.59" y="-39.727" transform="scale(1, -1)"
	style="font-family:Liberation Serif;font-variant:normal;font-weight:normal;font-style:normal;font-size:20px">50000</text>
<text x="1071.9" y="-39.727" transform="scale(1, -1)"
	style="font-family:Liberation Serif;font-variant:normal;font-weight:normal;font-style:normal;font-size:20px">60000</text>
<text x="1270.2" y="-39.727" transform="scale(1, -1)"
	style="font-family:Liberation Serif;font-variant:normal;font-weight:normal;font-style:normal;font-size:20px">70000</text>
<text x="1468.4" y="-39.727" transform="scale(1, -1)"
	style="font-family:Liberation Serif;font-variant:normal;font-weight:normal;font-style:normal;font-size:20px">80000</text>
<text x="1666.7" y="-39.727" transform="scale(1, -1)"
	style="font-family:Liberation Serif;font-variant:normal;font-weight:normal;font-style:normal;font-size:20px">90000</text>
<text x="1860" y="-39.727" transform="scale(1, -1)"
	style="font-family:Liberation Serif;font-variant:normal;font-weight:normal;font-style:normal;font-size:20px">100000</text>
<path d="M105.46,55.371L105.46,63.371" style="fill:none;stroke:#000000;stroke-width:0.5" />
<path d="M303.74,55.371L303.74,63.371" style="fill:none;stroke:#000000;stroke-width:0.5" />
<path d="M502.03,55.371L502.03,63.371" style="fill:none;stroke:#000000;stroke-width:0.5" />
<path d="M700.31,55.371L700.31,63.371" style="fill:none;stroke:#000000;stroke-width:0.5" />
<path d="M898.59,55.371L898.59,63.371" style="fill:none;stroke:#000000;stroke-width:0.5" />
<path d="M1096.9,55.371L1096.9,63.371" style="fill:none;stroke:#000000;stroke-width:0.5" />
<path d="M1295.2,55.371L1295.2,63.371" style="fill:none;stroke:#000000;stroke-width:0.5" />
<path d="M1493.4,55.371L1493.4,63.371" style="fill:none;stroke:#000000;stroke-width:0.5" />
<path d="M1691.7,55.371L1691.7,63.371" style="fill:none;stroke:#000000;stroke-width:0.5" />
<path d="M1890,55.371L1890,63.371" style="fill:none;stroke:#000000;stroke-width:0.5" />
<path d="M105.46,63.371L1890,63.371" style="fill:none;stroke:#000000;stroke-width:0.5" />
<g transform="rotate(90)">
<text x="481.11" y="23.467" transform="scale(1, -1)"
	style="font-family:Liberation Serif;font-variant:normal;font-weight:normal;font-style:normal;font-size:30px">log(μs + 1)</text>
</g>
<text x="39.712" y="-537.57" transform="scale(1, -1)"
	style="font-family:Liberation Serif;font-variant:normal;font-weight:normal;font-style:normal;font-size:20px">1000</text>
<text x="39.712" y="-773.28" transform="scale(1, -1)"
	style="font-family:Liberation Serif;font-variant:normal;font-weight:normal;font-style:normal;font-size:20px">2000</text>
<text x="39.712" y="-911.16" transform="scale(1, -1)"
	style="font-family:Liberation Serif;font-variant:normal;font-weight:normal;font-style:normal;font-size:20px">3000</text>
<text x="39.712" y="-1009" transform="scale(1, -1)"
	style="font-family:Liberation Serif;font-variant:normal;font-weight:normal;font-style:normal;font-size:20px">4000</text>
<path d="M84.712,542.14L92.712,542.14" style="fill:none;stroke:#000000;stroke-width:0.5" />
<path d="M84.712,777.85L92.712,777.85" style="fill:none;stroke:#000000;stroke-width:0.5" />
<path d="M84.712,915.73L92.712,915.73" style="fill:none;stroke:#000000;stroke-width:0.5" />
<path d="M84.712,1013.6L92.712,1013.6" style="fill:none;stroke:#000000;stroke-width:0.5" />
<path d="M88.712,230.55L92.712,230.55" style="fill:none;stroke:#000000;stroke-width:0.5" />
<path d="M88.712,368.43L92.712,368.43" style="fill:none;stroke:#000000;stroke-width:0.5" />
<path d="M88.712,466.26L92.712,466.26" style="fill:none;stroke:#000000;stroke-width:0.5" />
<path d="M88.712,604.14L92.712,604.14" style="fill:none;stroke:#000000;stroke-width:0.5" />
<path d="M88.712,656.56L92.712,656.56" style="fill:none;stroke:#000000;stroke-width:0.5" />
<path d="M88.712,701.96L92.712,701.96" style="fill:none;stroke:#000000;stroke-width:0.5" />
<path d="M88.712,742.02L92.712,742.02" style="fill:none;stroke:#000000;stroke-width:0.5" />
<path d="M88.712,810.26L92.712,810.26" style="fill:none;stroke:#000000;stroke-width:0.5" />
<path d="M88.712,839.85L92.712,839.85" style="fill:none;stroke:#000000;stroke-width:0.5" />
<path d="M88.712,867.06L92.712,867.06" style="fill:none;stroke:#000000;stroke-width:0.5" />
<path d="M88.712,892.27L92.712,892.27" style="fill:none;stroke:#000000;stroke-width:0.5" />
<path d="M88.712,937.67L92.712,937.67" style="fill:none;stroke:#000000;stroke-width:0.5" />
<path d="M88.712,958.29L92.712,958.29" style="fill:none;stroke:#000000;stroke-width:0.5" />
<path d="M88.712,977.73L92.712,977.73" style="fill:none;stroke:#000000;stroke-width:0.5" />
<path d="M88.712,996.11L92.712,996.11" style="fill:none;stroke:#000000;stroke-width:0.5" />
<path d="M92.712,80.11L92.712,1015.1" style="fill:none;stroke:#000000;stroke-width:0.5" />
<path d="M105.46,80.11L105.46,1015.1" style="fill:none;stroke:#808080;stroke-width:0.25" />
<path d="M303.74,80.11L303.74,1015.1" style="fill:none;stroke:#808080;stroke-width:0.25" />
<path d="M502.03,80.11L502.03,1015.1" style="fill:none;stroke:#808080;stroke-width:0.25" />
<path d="M700.31,80.11L700.31,1015.1" style="fill:none;stroke:#808080;stroke-width:0.25" />
<path d="M898.59,80.11L898.59,1015.1" style="fill:none;stroke:#808080;stroke-width:0.25" />
<path d="M1096.9,80.11L1096.9,1015.1" style="fill:none;stroke:#808080;stroke-width:0.25" />
<path d="M1295.2,80.11L1295.2,1015.1" style="fill:none;stroke:#808080;stroke-width:0.25" />
<path d="M1493.4,80.11L1493.4,1015.1" style="fill:none;stroke:#808080;stroke-width:0.25" />
<path d="M1691.7,80.11L1691.7,1015.1" style="fill:none;stroke:#808080;stroke-width:0.25" />
<path d="M1890,80.11L1890,1015.1" style="fill:none;stroke:#808080;stroke-width:0.25" />
<path d="M105.46,542.14L1890,542.14" style="fill:none;stroke:#808080;stroke-width:0.25" />
<path d="M105.46,777.85L1890,777.85" style="fill:none;stroke:#808080;stroke-width:0.25" />
<path d="M105.46,915.73L1890,915.73" style="fill:none;stroke:#808080;stroke-width:0.25" />
<path d="M105.46,1013.6L1890,1013.6" style="fill:none;stroke:#808080;stroke-width:0.25" />
<path d="M105.46,280.28L303.74,514.89L502.03,555.8L700.31,694.44L898.59,742.77L1096.9,782.24L1295.2,892.51L1493.4,880.4L1691.7,945.55L1890,982.79" style="fill:none;stroke:#FF0000;stroke-width:4" />
<path d="M110.46,280.28A5,5 0 1 1 100.46,280.28A5,5 0 1 1 110.46,280.28Z" style="fill:#FF0000" />
<path d="M308.74,514.89A5,5 0 1 1 298.74,514.89A5,5 0 1 1 308.74,514.89Z" style="fill:#FF0000" />
<path d="M507.03,555.8A5,5 0 1 1 497.03,555.8A5,5 0 1 1 507.03,555.8Z" style="fill:#FF0000" />
<path d="M705.31,694.44A5,5 0 1 1 695.31,694.44A5,5 0 1 1 705.31,694.44Z" style="fill:#FF0000" />
<path d="M903.59,742.77A5,5 0 1 1 893.59,742.77A5,5 0 1 1 903.59,742.77Z" style="fill:#FF0000" />
<path d="M1101.9,782.24A5,5 0 1 1 1091.9,782.24A5,5 0 1 1 1101.9,782.24Z" style="fill:#FF0000" />
<path d="M1300.2,892.51A5,5 0 1 1 1290.2,892.51A5,5 0 1 1 1300.2,892.51Z" style="fill:#FF0000" />
<path d="M1498.4,880.4A5,5 0 1 1 1488.4,880.4A5,5 0 1 1 1498.4,880.4Z" style="fill:#FF0000" />
<path d="M1696.7,945.55A5,5 0 1 1 1686.7,945.55A5,5 0 1 1 1696.7,945.55Z" style="fill:#FF0000" />
<path d="M1895,982.79A5,5 0 1 1 1885,982.79A5,5 0 1 1 1895,982.79Z" style="fill:#FF0000" />
<path d="M105.46,80.11L303.74,362.14L502.03,501.74L700.31,558.4L898.59,589.66L1096.9,627.41L1295.2,691.61L1493.4,784.08L1691.7,790.53L1890,849.48" style="fill:none;stroke:#0000FF;stroke-width:4" />
<path d="M110.46,80.11A5,5 0 1 1 100.46,80.11A5,5 0 1 1 110.46,80.11Z" style="fill:#0000FF" />
<path d="M308.74,362.14A5,5 0 1 1 298.74,362.14A5,5 0 1 1 308.74,362.14Z" style="fill:#0000FF" />
<path d="M507.03,501.74A5,5 0 1 1 497.03,501.74A5,5 0 1 1 507.03,501.74Z" style="fill:#0000FF" />
<path d="M705.31,558.4A5,5 0 1 1 695.31,558.4A5,5 0 1 1 705.31,558.4Z" style="fill:#0000FF" />
<path d="M903.59,589.66A5,5 0 1 1 893.59,589.66A5,5 0 1 1 903.59,589.66Z" style="fill:#0000FF" />
<path d="M1101.9,627.41A5,5 0 1 1 1091.9,627.41A5,5 0 1 1 1101.9,627.41Z" style="fill:#0000FF" />
<path d="M1300.2,691.61A5,5 0 1 1 1290.2,691.61A5,5 0 1 1 1300.2,691.61Z" style="fill:#0000FF" />
<path d="M1498.4,784.08A5,5 0 1 1 1488.4,784.08A5,5 0 1 1 1498.4,784.08Z" style="fill:#0000FF" />
<path d="M1696.7,790.53A5,5 0 1 1 1686.7,790.53A5,5 0 1 1 1696.7,790.53Z" style="fill:#0000FF" />
<path d="M1895,849.48A5,5 0 1 1 1885,849.48A5,5 0 1 1 1895,849.48Z" style="fill:#0000FF" />
<path d="M105.46,163.06L303.74,388.78L502.03,498.28L700.31,546.86L898.59,677.29L1096.9,694.44L1295.2,781.73L1493.4,786.41L1691.7,870.97L1890,904.32" style="fill:none;stroke:#00FF00;stroke-width:4" />
<path d="M110.46,163.06A5,5 0 1 1 100.46,163.06A5,5 0 1 1 110.46,163.06Z" style="fill:#00FF00" />
<path d="M308.74,388.78A5,5 0 1 1 298.74,388.78A5,5 0 1 1 308.74,388.78Z" style="fill:#00FF00" />
<path d="M507.03,498.28A5,5 0 1 1 497.03,498.28A5,5 0 1 1 507.03,498.28Z" style="fill:#00FF00" />
<path d="M705.31,546.86A5,5 0 1 1 695.31,546.86A5,5 0 1 1 705.31,546.86Z" style="fill:#00FF00" />
<path d="M903.59,677.29A5,5 0 1 1 893.59,677.29A5,5 0 1 1 903.59,677.29Z" style="fill:#00FF00" />
<path d="M1101.9,694.44A5,5 0 1 1 1091.9,694.44A5,5 0 1 1 1101.9,694.44Z" style="fill:#00FF00" />
<path d="M1300.2,781.73A5,5 0 1 1 1290.2,781.73A5,5 0 1 1 1300.2,781.73Z" style="fill:#00FF00" />
<path d="M1498.4,786.41A5,5 0 1 1 1488.4,786.41A5,5 0 1 1 1498.4,786.41Z" style="fill:#00FF00" />
<path d="M1696.7,870.97A5,5 0 1 1 1686.7,870.97A5,5 0 1 1 1696.7,870.97Z" style="fill:#00FF00" />
<path d="M1895,904.32A5,5 0 1 1 1885,904.32A5,5 0 1 1 1895,904.32Z" style="fill:#00FF00" />
<path d="M1900,126.03L1920,126.03" style="fill:none;stroke:#FF0000;stroke-width:4" />
<path d="M1915,126.03A5,5 0 1 1 1905,126.03A5,5 0 1 1 1915,126.03Z" style="fill:#FF0000" />
<text x="1823.3" y="-121.05" transform="scale(1, -1)"
	style="font-family:Liberation Serif;font-variant:normal;font-weight:normal;font-style:normal;font-size:24px">std::list</text>
<path d="M1900,105.66L1920,105.66" style="fill:none;stroke:#0000FF;stroke-width:4" />
<path d="M1915,105.66A5,5 0 1 1 1905,105.66A5,5 0 1 1 1915,105.66Z" style="fill:#0000FF" />
<text x="1795.4" y="-100.69" transform="scale(1, -1)"
	style="font-family:Liberation Serif;font-variant:normal;font-weight:normal;font-style:normal;font-size:24px">std::deque</text>
<path d="M1900,85.294L1920,85.294" style="fill:none;stroke:#00FF00;stroke-width:4" />
<path d="M1915,85.294A5,5 0 1 1 1905,85.294A5,5 0 1 1 1915,85.294Z" style="fill:#00FF00" />
<text x="1792.7" y="-80.319" transform="scale(1, -1)"
	style="font-family:Liberation Serif;font-variant:normal;font-weight:normal;font-style:normal;font-size:24px">std::vector</text>
</g>
</svg>
