<?xml version="1.0"?>
<!-- Generated by SVGo and Plotinum VG -->
<svg width="1920pt" height="1080pt" viewBox="0 0 1920 1080"
	xmlns="http://www.w3.org/2000/svg"
	xmlns:xlink="http://www.w3.org/1999/xlink">
<g transform="scale(1, -1) translate(0, -1080)">
<path d="M0,0L1920,0L1920,1080L0,1080Z" style="fill:#FFFFFF" />
<text x="800.34" y="-1040.9" transform="scale(1, -1)"
	style="font-family:Liberation Serif;font-variant:normal;font-weight:normal;font-style:normal;font-size:50px">random-remove</text>
<text x="880.27" y="-9.7559" transform="scale(1, -1)"
	style="font-family:Liberation Serif;font-variant:normal;font-weight:normal;font-style:normal;font-size:30px">Number of elements</text>
<text x="90.462" y="-39.727" transform="scale(1, -1)"
	style="font-family:Liberation Serif;font-variant:normal;font-weight:normal;font-style:normal;font-size:20px">10000</text>
<text x="287.63" y="-39.727" transform="scale(1, -1)"
	style="font-family:Liberation Serif;font-variant:normal;font-weight:normal;font-style:normal;font-size:20px">20000</text>
<text x="484.8" y="-39.727" transform="scale(1, -1)"
	style="font-family:Liberation Serif;font-variant:normal;font-weight:normal;font-style:normal;font-size:20px">30000</text>
<text x="681.97" y="-39.727" transform="scale(1, -1)"
	style="font-family:Liberation Serif;font-variant:normal;font-weight:normal;font-style:normal;font-size:20px">40000</text>
<text x="879.15" y="-39.727" transform="scale(1, -1)"
	style="font-family:Liberation Serif;font-variant:normal;font-weight:normal;font-style:normal;font-size:20px">50000</text>
<text x="1076.3" y="-39.727" transform="scale(1, -1)"
	style="font-family:Liberation Serif;font-variant:normal;font-weight:normal;font-style:normal;font-size:20px">60000</text>
<text x="1273.5" y="-39.727" transform="scale(1, -1)"
	style="font-family:Liberation Serif;font-variant:normal;font-weight:normal;font-style:normal;font-size:20px">70000</text>
<text x="1470.7" y="-39.727" transform="scale(1, -1)"
	style="font-family:Liberation Serif;font-variant:normal;font-weight:normal;font-style:normal;font-size:20px">80000</text>
<text x="1667.8" y="-39.727" transform="scale(1, -1)"
	style="font-family:Liberation Serif;font-variant:normal;font-weight:normal;font-style:normal;font-size:20px">90000</text>
<text x="1860" y="-39.727" transform="scale(1, -1)"
	style="font-family:Liberation Serif;font-variant:normal;font-weight:normal;font-style:normal;font-size:20px">100000</text>
<path d="M115.46,55.371L115.46,63.371" style="fill:none;stroke:#000000;stroke-width:0.5" />
<path d="M312.63,55.371L312.63,63.371" style="fill:none;stroke:#000000;stroke-width:0.5" />
<path d="M509.8,55.371L509.8,63.371" style="fill:none;stroke:#000000;stroke-width:0.5" />
<path d="M706.97,55.371L706.97,63.371" style="fill:none;stroke:#000000;stroke-width:0.5" />
<path d="M904.15,55.371L904.15,63.371" style="fill:none;stroke:#000000;stroke-width:0.5" />
<path d="M1101.3,55.371L1101.3,63.371" style="fill:none;stroke:#000000;stroke-width:0.5" />
<path d="M1298.5,55.371L1298.5,63.371" style="fill:none;stroke:#000000;stroke-width:0.5" />
<path d="M1495.7,55.371L1495.7,63.371" style="fill:none;stroke:#000000;stroke-width:0.5" />
<path d="M1692.8,55.371L1692.8,63.371" style="fill:none;stroke:#000000;stroke-width:0.5" />
<path d="M1890,55.371L1890,63.371" style="fill:none;stroke:#000000;stroke-width:0.5" />
<path d="M115.46,63.371L1890,63.371" style="fill:none;stroke:#000000;stroke-width:0.5" />
<g transform="rotate(90)">
<text x="538.49" y="23.467" transform="scale(1, -1)"
	style="font-family:Liberation Serif;font-variant:normal;font-weight:normal;font-style:normal;font-size:30px">μs</text>
</g>
<text x="49.712" y="-180.24" transform="scale(1, -1)"
	style="font-family:Liberation Serif;font-variant:normal;font-weight:normal;font-style:normal;font-size:20px">3000</text>
<text x="49.712" y="-577.34" transform="scale(1, -1)"
	style="font-family:Liberation Serif;font-variant:normal;font-weight:normal;font-style:normal;font-size:20px">9000</text>
<text x="39.712" y="-974.44" transform="scale(1, -1)"
	style="font-family:Liberation Serif;font-variant:normal;font-weight:normal;font-style:normal;font-size:20px">15000</text>
<path d="M94.712,184.81L102.71,184.81" style="fill:none;stroke:#000000;stroke-width:0.5" />
<path d="M94.712,581.91L102.71,581.91" style="fill:none;stroke:#000000;stroke-width:0.5" />
<path d="M94.712,979.01L102.71,979.01" style="fill:none;stroke:#000000;stroke-width:0.5" />
<path d="M98.712,383.36L102.71,383.36" style="fill:none;stroke:#000000;stroke-width:0.5" />
<path d="M98.712,780.46L102.71,780.46" style="fill:none;stroke:#000000;stroke-width:0.5" />
<path d="M102.71,80.11L102.71,1024.6" style="fill:none;stroke:#000000;stroke-width:0.5" />
<path d="M115.46,80.11L115.46,1024.6" style="fill:none;stroke:#808080;stroke-width:0.25" />
<path d="M312.63,80.11L312.63,1024.6" style="fill:none;stroke:#808080;stroke-width:0.25" />
<path d="M509.8,80.11L509.8,1024.6" style="fill:none;stroke:#808080;stroke-width:0.25" />
<path d="M706.97,80.11L706.97,1024.6" style="fill:none;stroke:#808080;stroke-width:0.25" />
<path d="M904.15,80.11L904.15,1024.6" style="fill:none;stroke:#808080;stroke-width:0.25" />
<path d="M1101.3,80.11L1101.3,1024.6" style="fill:none;stroke:#808080;stroke-width:0.25" />
<path d="M1298.5,80.11L1298.5,1024.6" style="fill:none;stroke:#808080;stroke-width:0.25" />
<path d="M1495.7,80.11L1495.7,1024.6" style="fill:none;stroke:#808080;stroke-width:0.25" />
<path d="M1692.8,80.11L1692.8,1024.6" style="fill:none;stroke:#808080;stroke-width:0.25" />
<path d="M1890,80.11L1890,1024.6" style="fill:none;stroke:#808080;stroke-width:0.25" />
<path d="M115.46,184.81L1890,184.81" style="fill:none;stroke:#808080;stroke-width:0.25" />
<path d="M115.46,581.91L1890,581.91" style="fill:none;stroke:#808080;stroke-width:0.25" />
<path d="M115.46,979.01L1890,979.01" style="fill:none;stroke:#808080;stroke-width:0.25" />
<path d="M115.46,97.847L312.63,151.19L509.8,271.11L706.97,364.76L904.15,417.58L1101.3,506L1298.5,600.97L1495.7,676.75L1692.8,739.62L1890,930.23" style="fill:none;stroke:#FF0000;stroke-width:4" />
<path d="M120.46,97.847A5,5 0 1 1 110.46,97.847A5,5 0 1 1 120.46,97.847Z" style="fill:#FF0000" />
<path d="M317.63,151.19A5,5 0 1 1 307.63,151.19A5,5 0 1 1 317.63,151.19Z" style="fill:#FF0000" />
<path d="M514.8,271.11A5,5 0 1 1 504.8,271.11A5,5 0 1 1 514.8,271.11Z" style="fill:#FF0000" />
<path d="M711.97,364.76A5,5 0 1 1 701.97,364.76A5,5 0 1 1 711.97,364.76Z" style="fill:#FF0000" />
<path d="M909.15,417.58A5,5 0 1 1 899.15,417.58A5,5 0 1 1 909.15,417.58Z" style="fill:#FF0000" />
<path d="M1106.3,506A5,5 0 1 1 1096.3,506A5,5 0 1 1 1106.3,506Z" style="fill:#FF0000" />
<path d="M1303.5,600.97A5,5 0 1 1 1293.5,600.97A5,5 0 1 1 1303.5,600.97Z" style="fill:#FF0000" />
<path d="M1500.7,676.75A5,5 0 1 1 1490.7,676.75A5,5 0 1 1 1500.7,676.75Z" style="fill:#FF0000" />
<path d="M1697.8,739.62A5,5 0 1 1 1687.8,739.62A5,5 0 1 1 1697.8,739.62Z" style="fill:#FF0000" />
<path d="M1895,930.23A5,5 0 1 1 1885,930.23A5,5 0 1 1 1895,930.23Z" style="fill:#FF0000" />
<path d="M115.46,80.11L312.63,140.73L509.8,239.81L706.97,331.28L904.15,449.15L1101.3,486.21L1298.5,565.5L1495.7,640.88L1692.8,703.29L1890,854.98" style="fill:none;stroke:#0000FF;stroke-width:4" />
<path d="M120.46,80.11A5,5 0 1 1 110.46,80.11A5,5 0 1 1 120.46,80.11Z" style="fill:#0000FF" />
<path d="M317.63,140.73A5,5 0 1 1 307.63,140.73A5,5 0 1 1 317.63,140.73Z" style="fill:#0000FF" />
<path d="M514.8,239.81A5,5 0 1 1 504.8,239.81A5,5 0 1 1 514.8,239.81Z" style="fill:#0000FF" />
<path d="M711.97,331.28A5,5 0 1 1 701.97,331.28A5,5 0 1 1 711.97,331.28Z" style="fill:#0000FF" />
<path d="M909.15,449.15A5,5 0 1 1 899.15,449.15A5,5 0 1 1 909.15,449.15Z" style="fill:#0000FF" />
<path d="M1106.3,486.21A5,5 0 1 1 1096.3,486.21A5,5 0 1 1 1106.3,486.21Z" style="fill:#0000FF" />
<path d="M1303.5,565.5A5,5 0 1 1 1293.5,565.5A5,5 0 1 1 1303.5,565.5Z" style="fill:#0000FF" />
<path d="M1500.7,640.88A5,5 0 1 1 1490.7,640.88A5,5 0 1 1 1500.7,640.88Z" style="fill:#0000FF" />
<path d="M1697.8,703.29A5,5 0 1 1 1687.8,703.29A5,5 0 1 1 1697.8,703.29Z" style="fill:#0000FF" />
<path d="M1895,854.98A5,5 0 1 1 1885,854.98A5,5 0 1 1 1895,854.98Z" style="fill:#0000FF" />
<path d="M115.46,104.73L312.63,163.83L509.8,261.32L706.97,332.53L904.15,377.8L1101.3,573.51L1298.5,710.37L1495.7,740.02L1692.8,843.86L1890,885.82" style="fill:none;stroke:#00FF00;stroke-width:4" />
<path d="M120.46,104.73A5,5 0 1 1 110.46,104.73A5,5 0 1 1 120.46,104.73Z" style="fill:#00FF00" />
<path d="M317.63,163.83A5,5 0 1 1 307.63,163.83A5,5 0 1 1 317.63,163.83Z" style="fill:#00FF00" />
<path d="M514.8,261.32A5,5 0 1 1 504.8,261.32A5,5 0 1 1 514.8,261.32Z" style="fill:#00FF00" />
<path d="M711.97,332.53A5,5 0 1 1 701.97,332.53A5,5 0 1 1 711.97,332.53Z" style="fill:#00FF00" />
<path d="M909.15,377.8A5,5 0 1 1 899.15,377.8A5,5 0 1 1 909.15,377.8Z" style="fill:#00FF00" />
<path d="M1106.3,573.51A5,5 0 1 1 1096.3,573.51A5,5 0 1 1 1106.3,573.51Z" style="fill:#00FF00" />
<path d="M1303.5,710.37A5,5 0 1 1 1293.5,710.37A5,5 0 1 1 1303.5,710.37Z" style="fill:#00FF00" />
<path d="M1500.7,740.02A5,5 0 1 1 1490.7,740.02A5,5 0 1 1 1500.7,740.02Z" style="fill:#00FF00" />
<path d="M1697.8,843.86A5,5 0 1 1 1687.8,843.86A5,5 0 1 1 1697.8,843.86Z" style="fill:#00FF00" />
<path d="M1895,885.82A5,5 0 1 1 1885,885.82A5,5 0 1 1 1895,885.82Z" style="fill:#00FF00" />
<path d="M1900,126.03L1920,126.03" style="fill:none;stroke:#FF0000;stroke-width:4" />
<path d="M1915,126.03A5,5 0 1 1 1905,126.03A5,5 0 1 1 1915,126.03Z" style="fill:#FF0000" />
<text x="1823.3" y="-121.05" transform="scale(1, -1)"
	style="font-family:Liberation Serif;font-variant:normal;font-weight:normal;font-style:normal;font-size:24px">std::list</text>
<path d="M1900,105.66L1920,105.66" style="fill:none;stroke:#0000FF;stroke-width:4" />
<path d="M1915,105.66A5,5 0 1 1 1905,105.66A5,5 0 1 1 1915,105.66Z" style="fill:#0000FF" />
<text x="1795.4" y="-100.69" transform="scale(1, -1)"
	style="font-family:Liberation Serif;font-variant:normal;font-weight:normal;font-style:normal;font-size:24px">std::deque</text>
<path d="M1900,85.294L1920,85.294" style="fill:none;stroke:#00FF00;stroke-width:4" />
<path d="M1915,85.294A5,5 0 1 1 1905,85.294A5,5 0 1 1 1915,85.294Z" style="fill:#00FF00" />
<text x="1792.7" y="-80.319" transform="scale(1, -1)"
	style="font-family:Liberation Serif;font-variant:normal;font-weight:normal;font-style:normal;font-size:24px">std::vector</text>
</g>
</svg>
