<?xml version="1.0"?>
<!-- Generated by SVGo and Plotinum VG -->
<svg width="1920pt" height="1080pt" viewBox="0 0 1920 1080"
	xmlns="http://www.w3.org/2000/svg"
	xmlns:xlink="http://www.w3.org/1999/xlink">
<g transform="scale(1, -1) translate(0, -1080)">
<path d="M0,0L1920,0L1920,1080L0,1080Z" style="fill:#FFFFFF" />
<text x="800.34" y="-1040.9" transform="scale(1, -1)"
	style="font-family:Liberation Serif;font-variant:normal;font-weight:normal;font-style:normal;font-size:50px">random-remove</text>
<text x="875.27" y="-9.7559" transform="scale(1, -1)"
	style="font-family:Liberation Serif;font-variant:normal;font-weight:normal;font-style:normal;font-size:30px">Number of elements</text>
<text x="80.462" y="-39.727" transform="scale(1, -1)"
	style="font-family:Liberation Serif;font-variant:normal;font-weight:normal;font-style:normal;font-size:20px">10000</text>
<text x="278.74" y="-39.727" transform="scale(1, -1)"
	style="font-family:Liberation Serif;font-variant:normal;font-weight:normal;font-style:normal;font-size:20px">20000</text>
<text x="477.03" y="-39.727" transform="scale(1, -1)"
	style="font-family:Liberation Serif;font-variant:normal;font-weight:normal;font-style:normal;font-size:20px">30000</text>
<text x="675.31" y="-39.727" transform="scale(1, -1)"
	style="font-family:Liberation Serif;font-variant:normal;font-weight:normal;font-style:normal;font-size:20px">40000</text>
<text x="873.59" y="-39.727" transform="scale(1, -1)"
	style="font-family:Liberation Serif;font-variant:normal;font-weight:normal;font-style:normal;font-size:20px">50000</text>
<text x="1071.9" y="-39.727" transform="scale(1, -1)"
	style="font-family:Liberation Serif;font-variant:normal;font-weight:normal;font-style:normal;font-size:20px">60000</text>
<text x="1270.2" y="-39.727" transform="scale(1, -1)"
	style="font-family:Liberation Serif;font-variant:normal;font-weight:normal;font-style:normal;font-size:20px">70000</text>
<text x="1468.4" y="-39.727" transform="scale(1, -1)"
	style="font-family:Liberation Serif;font-variant:normal;font-weight:normal;font-style:normal;font-size:20px">80000</text>
<text x="1666.7" y="-39.727" transform="scale(1, -1)"
	style="font-family:Liberation Serif;font-variant:normal;font-weight:normal;font-style:normal;font-size:20px">90000</text>
<text x="1860" y="-39.727" transform="scale(1, -1)"
	style="font-family:Liberation Serif;font-variant:normal;font-weight:normal;font-style:normal;font-size:20px">100000</text>
<path d="M105.46,55.371L105.46,63.371" style="fill:none;stroke:#000000;stroke-width:0.5" />
<path d="M303.74,55.371L303.74,63.371" style="fill:none;stroke:#000000;stroke-width:0.5" />
<path d="M502.03,55.371L502.03,63.371" style="fill:none;stroke:#000000;stroke-width:0.5" />
<path d="M700.31,55.371L700.31,63.371" style="fill:none;stroke:#000000;stroke-width:0.5" />
<path d="M898.59,55.371L898.59,63.371" style="fill:none;stroke:#000000;stroke-width:0.5" />
<path d="M1096.9,55.371L1096.9,63.371" style="fill:none;stroke:#000000;stroke-width:0.5" />
<path d="M1295.2,55.371L1295.2,63.371" style="fill:none;stroke:#000000;stroke-width:0.5" />
<path d="M1493.4,55.371L1493.4,63.371" style="fill:none;stroke:#000000;stroke-width:0.5" />
<path d="M1691.7,55.371L1691.7,63.371" style="fill:none;stroke:#000000;stroke-width:0.5" />
<path d="M1890,55.371L1890,63.371" style="fill:none;stroke:#000000;stroke-width:0.5" />
<path d="M105.46,63.371L1890,63.371" style="fill:none;stroke:#000000;stroke-width:0.5" />
<g transform="rotate(90)">
<text x="538.49" y="23.467" transform="scale(1, -1)"
	style="font-family:Liberation Serif;font-variant:normal;font-weight:normal;font-style:normal;font-size:30px">μs</text>
</g>
<text x="39.712" y="-209.7" transform="scale(1, -1)"
	style="font-family:Liberation Serif;font-variant:normal;font-weight:normal;font-style:normal;font-size:20px">1000</text>
<text x="39.712" y="-600.84" transform="scale(1, -1)"
	style="font-family:Liberation Serif;font-variant:normal;font-weight:normal;font-style:normal;font-size:20px">3000</text>
<text x="39.712" y="-991.97" transform="scale(1, -1)"
	style="font-family:Liberation Serif;font-variant:normal;font-weight:normal;font-style:normal;font-size:20px">5000</text>
<path d="M84.712,214.27L92.712,214.27" style="fill:none;stroke:#000000;stroke-width:0.5" />
<path d="M84.712,605.41L92.712,605.41" style="fill:none;stroke:#000000;stroke-width:0.5" />
<path d="M84.712,996.55L92.712,996.55" style="fill:none;stroke:#000000;stroke-width:0.5" />
<path d="M88.712,409.84L92.712,409.84" style="fill:none;stroke:#000000;stroke-width:0.5" />
<path d="M88.712,800.98L92.712,800.98" style="fill:none;stroke:#000000;stroke-width:0.5" />
<path d="M92.712,80.11L92.712,1024.6" style="fill:none;stroke:#000000;stroke-width:0.5" />
<path d="M105.46,80.11L105.46,1024.6" style="fill:none;stroke:#808080;stroke-width:0.25" />
<path d="M303.74,80.11L303.74,1024.6" style="fill:none;stroke:#808080;stroke-width:0.25" />
<path d="M502.03,80.11L502.03,1024.6" style="fill:none;stroke:#808080;stroke-width:0.25" />
<path d="M700.31,80.11L700.31,1024.6" style="fill:none;stroke:#808080;stroke-width:0.25" />
<path d="M898.59,80.11L898.59,1024.6" style="fill:none;stroke:#808080;stroke-width:0.25" />
<path d="M1096.9,80.11L1096.9,1024.6" style="fill:none;stroke:#808080;stroke-width:0.25" />
<path d="M1295.2,80.11L1295.2,1024.6" style="fill:none;stroke:#808080;stroke-width:0.25" />
<path d="M1493.4,80.11L1493.4,1024.6" style="fill:none;stroke:#808080;stroke-width:0.25" />
<path d="M1691.7,80.11L1691.7,1024.6" style="fill:none;stroke:#808080;stroke-width:0.25" />
<path d="M1890,80.11L1890,1024.6" style="fill:none;stroke:#808080;stroke-width:0.25" />
<path d="M105.46,214.27L1890,214.27" style="fill:none;stroke:#808080;stroke-width:0.25" />
<path d="M105.46,605.41L1890,605.41" style="fill:none;stroke:#808080;stroke-width:0.25" />
<path d="M105.46,996.55L1890,996.55" style="fill:none;stroke:#808080;stroke-width:0.25" />
<path d="M105.46,134.28L303.74,249.08L502.03,290.35L700.31,472.23L898.59,429.98L1096.9,494.32L1295.2,679.53L1493.4,697.13L1691.7,755.02L1890,933.18" style="fill:none;stroke:#FF0000;stroke-width:4" />
<path d="M110.46,134.28A5,5 0 1 1 100.46,134.28A5,5 0 1 1 110.46,134.28Z" style="fill:#FF0000" />
<path d="M308.74,249.08A5,5 0 1 1 298.74,249.08A5,5 0 1 1 308.74,249.08Z" style="fill:#FF0000" />
<path d="M507.03,290.35A5,5 0 1 1 497.03,290.35A5,5 0 1 1 507.03,290.35Z" style="fill:#FF0000" />
<path d="M705.31,472.23A5,5 0 1 1 695.31,472.23A5,5 0 1 1 705.31,472.23Z" style="fill:#FF0000" />
<path d="M903.59,429.98A5,5 0 1 1 893.59,429.98A5,5 0 1 1 903.59,429.98Z" style="fill:#FF0000" />
<path d="M1101.9,494.32A5,5 0 1 1 1091.9,494.32A5,5 0 1 1 1101.9,494.32Z" style="fill:#FF0000" />
<path d="M1300.2,679.53A5,5 0 1 1 1290.2,679.53A5,5 0 1 1 1300.2,679.53Z" style="fill:#FF0000" />
<path d="M1498.4,697.13A5,5 0 1 1 1488.4,697.13A5,5 0 1 1 1498.4,697.13Z" style="fill:#FF0000" />
<path d="M1696.7,755.02A5,5 0 1 1 1686.7,755.02A5,5 0 1 1 1696.7,755.02Z" style="fill:#FF0000" />
<path d="M1895,933.18A5,5 0 1 1 1885,933.18A5,5 0 1 1 1895,933.18Z" style="fill:#FF0000" />
<path d="M105.46,99.863L303.74,165.77L502.03,231.68L700.31,274.51L898.59,329.46L1096.9,487.87L1295.2,616.95L1493.4,650.78L1691.7,687.74L1890,662.91" style="fill:none;stroke:#0000FF;stroke-width:4" />
<path d="M110.46,99.863A5,5 0 1 1 100.46,99.863A5,5 0 1 1 110.46,99.863Z" style="fill:#0000FF" />
<path d="M308.74,165.77A5,5 0 1 1 298.74,165.77A5,5 0 1 1 308.74,165.77Z" style="fill:#0000FF" />
<path d="M507.03,231.68A5,5 0 1 1 497.03,231.68A5,5 0 1 1 507.03,231.68Z" style="fill:#0000FF" />
<path d="M705.31,274.51A5,5 0 1 1 695.31,274.51A5,5 0 1 1 705.31,274.51Z" style="fill:#0000FF" />
<path d="M903.59,329.46A5,5 0 1 1 893.59,329.46A5,5 0 1 1 903.59,329.46Z" style="fill:#0000FF" />
<path d="M1101.9,487.87A5,5 0 1 1 1091.9,487.87A5,5 0 1 1 1101.9,487.87Z" style="fill:#0000FF" />
<path d="M1300.2,616.95A5,5 0 1 1 1290.2,616.95A5,5 0 1 1 1300.2,616.95Z" style="fill:#0000FF" />
<path d="M1498.4,650.78A5,5 0 1 1 1488.4,650.78A5,5 0 1 1 1498.4,650.78Z" style="fill:#0000FF" />
<path d="M1696.7,687.74A5,5 0 1 1 1686.7,687.74A5,5 0 1 1 1696.7,687.74Z" style="fill:#0000FF" />
<path d="M1895,662.91A5,5 0 1 1 1885,662.91A5,5 0 1 1 1895,662.91Z" style="fill:#0000FF" />
<path d="M105.46,80.11L303.74,171.25L502.03,215.05L700.31,267.27L898.59,299.93L1096.9,354.69L1295.2,405.34L1493.4,438.39L1691.7,540.48L1890,596.41" style="fill:none;stroke:#00FF00;stroke-width:4" />
<path d="M110.46,80.11A5,5 0 1 1 100.46,80.11A5,5 0 1 1 110.46,80.11Z" style="fill:#00FF00" />
<path d="M308.74,171.25A5,5 0 1 1 298.74,171.25A5,5 0 1 1 308.74,171.25Z" style="fill:#00FF00" />
<path d="M507.03,215.05A5,5 0 1 1 497.03,215.05A5,5 0 1 1 507.03,215.05Z" style="fill:#00FF00" />
<path d="M705.31,267.27A5,5 0 1 1 695.31,267.27A5,5 0 1 1 705.31,267.27Z" style="fill:#00FF00" />
<path d="M903.59,299.93A5,5 0 1 1 893.59,299.93A5,5 0 1 1 903.59,299.93Z" style="fill:#00FF00" />
<path d="M1101.9,354.69A5,5 0 1 1 1091.9,354.69A5,5 0 1 1 1101.9,354.69Z" style="fill:#00FF00" />
<path d="M1300.2,405.34A5,5 0 1 1 1290.2,405.34A5,5 0 1 1 1300.2,405.34Z" style="fill:#00FF00" />
<path d="M1498.4,438.39A5,5 0 1 1 1488.4,438.39A5,5 0 1 1 1498.4,438.39Z" style="fill:#00FF00" />
<path d="M1696.7,540.48A5,5 0 1 1 1686.7,540.48A5,5 0 1 1 1696.7,540.48Z" style="fill:#00FF00" />
<path d="M1895,596.41A5,5 0 1 1 1885,596.41A5,5 0 1 1 1895,596.41Z" style="fill:#00FF00" />
<path d="M1900,126.03L1920,126.03" style="fill:none;stroke:#FF0000;stroke-width:4" />
<path d="M1915,126.03A5,5 0 1 1 1905,126.03A5,5 0 1 1 1915,126.03Z" style="fill:#FF0000" />
<text x="1823.3" y="-121.05" transform="scale(1, -1)"
	style="font-family:Liberation Serif;font-variant:normal;font-weight:normal;font-style:normal;font-size:24px">std::list</text>
<path d="M1900,105.66L1920,105.66" style="fill:none;stroke:#0000FF;stroke-width:4" />
<path d="M1915,105.66A5,5 0 1 1 1905,105.66A5,5 0 1 1 1915,105.66Z" style="fill:#0000FF" />
<text x="1795.4" y="-100.69" transform="scale(1, -1)"
	style="font-family:Liberation Serif;font-variant:normal;font-weight:normal;font-style:normal;font-size:24px">std::deque</text>
<path d="M1900,85.294L1920,85.294" style="fill:none;stroke:#00FF00;stroke-width:4" />
<path d="M1915,85.294A5,5 0 1 1 1905,85.294A5,5 0 1 1 1915,85.294Z" style="fill:#00FF00" />
<text x="1792.7" y="-80.319" transform="scale(1, -1)"
	style="font-family:Liberation Serif;font-variant:normal;font-weight:normal;font-style:normal;font-size:24px">std::vector</text>
</g>
</svg>
